<svg xmlns="http://www.w3.org/2000/svg" width="1600" height="1000" viewBox="0 0 1600 1000" font-family="Helvetica, Arial, sans-serif">
<defs>
      <radialGradient id="bg" cx="38%" cy="34%" r="85%">
        <stop offset="0%" stop-color="#1b2030"/>
        <stop offset="55%" stop-color="#12151f"/>
        <stop offset="100%" stop-color="#0a0c12"/>
      </radialGradient>
      <linearGradient id="accent" x1="0" y1="0" x2="1" y2="1">
        <stop offset="0%" stop-color="#ff5a36"/>
        <stop offset="100%" stop-color="#ffffff"/>
      </linearGradient>
      <filter id="glow" x="-40%" y="-40%" width="180%" height="180%">
        <feGaussianBlur stdDeviation="6" result="b"/>
        <feMerge><feMergeNode in="b"/><feMergeNode in="SourceGraphic"/></feMerge>
      </filter>
    </defs>
<rect width="1600" height="1000" fill="url(#bg)"/>
<path d="M 911.4,380.6 L 919.7,384.4 L 925.6,388.5 L 930.2,393.5 L 932.2,396.6 L 934.4,400.6 L 936.0,406.9 L 936.8,411.9 L 937.1,418.4 L 936.0,426.0 L 935.4,440.4 L 934.7,448.5 L 934.5,455.0 L 934.8,461.1 L 935.1,468.9 L 936.4,476.8 L 937.8,483.6 L 941.1,491.5 L 945.6,498.9 L 952.8,505.9 L 960.3,510.1 L 970.9,514.1 L 980.5,515.8 L 988.7,516.1 L 997.4,515.5 L 1007.1,513.6 L 1019.3,508.1 L 1028.6,496.7 L 1031.7,495.2 L 1034.9,495.4 L 1038.8,498.3 L 1040.0,501.5 L 1039.1,505.6 L 1013.9,532.0 L 995.6,547.8 L 945.4,582.9 L 938.0,588.1 L 935.6,589.8 L 814.9,674.1 L 806.4,680.1 L 788.7,689.7 L 772.1,697.4 L 749.3,705.1 L 721.8,711.6 L 697.3,715.3 L 672.8,716.7 L 663.5,716.6 L 658.3,716.1 L 653.7,715.7 L 652.3,715.6 L 636.8,714.2 L 607.8,708.1 L 581.3,698.2 L 544.9,682.8 L 474.2,647.4 L 429.0,625.5 L 418.5,620.4 L 411.4,616.6 L 401.1,611.2 L 398.9,610.0 L 377.6,598.7 L 358.6,587.7 L 297.9,553.9 L 286.8,547.7 L 281.5,557.1 L 280.9,558.1 L 275.1,568.1 L 266.9,578.8 L 259.6,587.0 L 249.8,593.4 L 237.9,599.3 L 223.8,604.1 L 209.6,606.4 L 197.5,606.8 L 197.6,612.3 L 195.9,617.5 L 192.6,621.8 L 188.0,624.7 L 182.6,625.9 L 177.2,625.2 L 172.4,622.7 L 168.6,618.7 L 166.5,613.7 L 166.1,608.3 L 167.6,603.0 L 156.6,596.6 L 154.4,595.3 L 139.2,586.3 L 132.7,578.6 L 130.8,577.3 L 127.3,574.8 L 117.0,567.7 L 113.6,565.5 L 111.7,564.3 L 96.2,555.0 L 95.5,553.7 L 92.9,550.5 L 92.1,547.6 L 90.0,538.0 L 95.8,521.2 L 103.0,503.9 L 107.4,495.4 L 111.6,487.3 L 114.4,482.0 L 118.2,476.0 L 126.0,465.3 L 127.6,463.3 L 133.8,454.7 L 142.8,441.5 L 150.8,447.2 L 152.5,448.3 L 191.9,474.6 L 224.4,493.3 L 293.7,534.5 L 305.2,541.2 L 306.5,541.9 L 352.8,568.2 L 379.8,583.2 L 408.1,597.6 L 417.9,602.2 L 425.9,606.4 L 430.6,598.0 L 436.2,586.3 L 441.7,573.4 L 444.9,563.2 L 447.7,550.4 L 444.6,542.0 L 445.3,526.8 L 445.7,510.9 L 445.6,492.4 L 445.6,486.0 L 445.6,479.8 L 445.9,438.0 L 446.1,409.6 L 446.6,375.8 L 446.7,365.4 L 456.5,365.4 L 486.6,365.3 L 490.1,365.3 L 499.3,365.3 L 545.1,365.2 L 599.2,362.4 L 611.9,361.9 L 627.3,361.7 L 635.2,361.4 L 638.1,361.4 L 642.7,361.3 L 676.6,361.4 L 684.0,361.5 L 691.5,361.7 L 704.3,362.6 L 711.4,363.1 L 717.2,363.6 L 747.7,366.1 L 846.2,374.0 L 865.9,375.7 L 868.7,375.9 L 876.9,376.7 L 911.4,380.6 Z" fill="none" stroke="#000000" stroke-opacity="0.5" stroke-width="13" stroke-linejoin="round" stroke-linecap="round"/>
<path d="M 911.4,380.6 L 919.7,384.4 L 925.6,388.5 L 930.2,393.5 L 932.2,396.6 L 934.4,400.6 L 936.0,406.9 L 936.8,411.9 L 937.1,418.4 L 936.0,426.0 L 935.4,440.4 L 934.7,448.5 L 934.5,455.0 L 934.8,461.1 L 935.1,468.9 L 936.4,476.8 L 937.8,483.6 L 941.1,491.5 L 945.6,498.9 L 952.8,505.9 L 960.3,510.1 L 970.9,514.1 L 980.5,515.8 L 988.7,516.1 L 997.4,515.5 L 1007.1,513.6 L 1019.3,508.1 L 1028.6,496.7 L 1031.7,495.2 L 1034.9,495.4 L 1038.8,498.3 L 1040.0,501.5 L 1039.1,505.6 L 1013.9,532.0 L 995.6,547.8 L 945.4,582.9 L 938.0,588.1 L 935.6,589.8 L 814.9,674.1 L 806.4,680.1 L 788.7,689.7 L 772.1,697.4 L 749.3,705.1 L 721.8,711.6 L 697.3,715.3 L 672.8,716.7 L 663.5,716.6 L 658.3,716.1 L 653.7,715.7 L 652.3,715.6 L 636.8,714.2 L 607.8,708.1 L 581.3,698.2 L 544.9,682.8 L 474.2,647.4 L 429.0,625.5 L 418.5,620.4 L 411.4,616.6 L 401.1,611.2 L 398.9,610.0 L 377.6,598.7 L 358.6,587.7 L 297.9,553.9 L 286.8,547.7 L 281.5,557.1 L 280.9,558.1 L 275.1,568.1 L 266.9,578.8 L 259.6,587.0 L 249.8,593.4 L 237.9,599.3 L 223.8,604.1 L 209.6,606.4 L 197.5,606.8 L 197.6,612.3 L 195.9,617.5 L 192.6,621.8 L 188.0,624.7 L 182.6,625.9 L 177.2,625.2 L 172.4,622.7 L 168.6,618.7 L 166.5,613.7 L 166.1,608.3 L 167.6,603.0 L 156.6,596.6 L 154.4,595.3 L 139.2,586.3 L 132.7,578.6 L 130.8,577.3 L 127.3,574.8 L 117.0,567.7 L 113.6,565.5 L 111.7,564.3 L 96.2,555.0 L 95.5,553.7 L 92.9,550.5 L 92.1,547.6 L 90.0,538.0 L 95.8,521.2 L 103.0,503.9 L 107.4,495.4 L 111.6,487.3 L 114.4,482.0 L 118.2,476.0 L 126.0,465.3 L 127.6,463.3 L 133.8,454.7 L 142.8,441.5 L 150.8,447.2 L 152.5,448.3 L 191.9,474.6 L 224.4,493.3 L 293.7,534.5 L 305.2,541.2 L 306.5,541.9 L 352.8,568.2 L 379.8,583.2 L 408.1,597.6 L 417.9,602.2 L 425.9,606.4 L 430.6,598.0 L 436.2,586.3 L 441.7,573.4 L 444.9,563.2 L 447.7,550.4 L 444.6,542.0 L 445.3,526.8 L 445.7,510.9 L 445.6,492.4 L 445.6,486.0 L 445.6,479.8 L 445.9,438.0 L 446.1,409.6 L 446.6,375.8 L 446.7,365.4 L 456.5,365.4 L 486.6,365.3 L 490.1,365.3 L 499.3,365.3 L 545.1,365.2 L 599.2,362.4 L 611.9,361.9 L 627.3,361.7 L 635.2,361.4 L 638.1,361.4 L 642.7,361.3 L 676.6,361.4 L 684.0,361.5 L 691.5,361.7 L 704.3,362.6 L 711.4,363.1 L 717.2,363.6 L 747.7,366.1 L 846.2,374.0 L 865.9,375.7 L 868.7,375.9 L 876.9,376.7 L 911.4,380.6 Z" fill="none" stroke="#39404f" stroke-width="8.5" stroke-linejoin="round" stroke-linecap="round"/>
<path d="M 911.4,380.6 L 919.7,384.4 L 925.6,388.5 L 930.2,393.5 L 932.2,396.6 L 934.4,400.6 L 936.0,406.9 L 936.8,411.9 L 937.1,418.4 L 936.0,426.0 L 935.4,440.4 L 934.7,448.5 L 934.5,455.0 L 934.8,461.1 L 935.1,468.9 L 936.4,476.8 L 937.8,483.6 L 941.1,491.5 L 945.6,498.9 L 952.8,505.9 L 960.3,510.1 L 970.9,514.1 L 980.5,515.8 L 988.7,516.1 L 997.4,515.5 L 1007.1,513.6 L 1019.3,508.1 L 1028.6,496.7 L 1031.7,495.2 L 1034.9,495.4 L 1038.8,498.3 L 1040.0,501.5 L 1039.1,505.6 L 1013.9,532.0 L 995.6,547.8 L 945.4,582.9 L 938.0,588.1 L 935.6,589.8 L 814.9,674.1 L 806.4,680.1 L 788.7,689.7 L 772.1,697.4 L 749.3,705.1 L 721.8,711.6 L 697.3,715.3 L 672.8,716.7 L 663.5,716.6 L 658.3,716.1 L 653.7,715.7 L 652.3,715.6 L 636.8,714.2 L 607.8,708.1 L 581.3,698.2 L 544.9,682.8 L 474.2,647.4 L 429.0,625.5 L 418.5,620.4 L 411.4,616.6 L 401.1,611.2 L 398.9,610.0 L 377.6,598.7 L 358.6,587.7 L 297.9,553.9 L 286.8,547.7 L 281.5,557.1 L 280.9,558.1 L 275.1,568.1 L 266.9,578.8 L 259.6,587.0 L 249.8,593.4 L 237.9,599.3 L 223.8,604.1 L 209.6,606.4 L 197.5,606.8 L 197.6,612.3 L 195.9,617.5 L 192.6,621.8 L 188.0,624.7 L 182.6,625.9 L 177.2,625.2 L 172.4,622.7 L 168.6,618.7 L 166.5,613.7 L 166.1,608.3 L 167.6,603.0 L 156.6,596.6 L 154.4,595.3 L 139.2,586.3 L 132.7,578.6 L 130.8,577.3 L 127.3,574.8 L 117.0,567.7 L 113.6,565.5 L 111.7,564.3 L 96.2,555.0 L 95.5,553.7 L 92.9,550.5 L 92.1,547.6 L 90.0,538.0 L 95.8,521.2 L 103.0,503.9 L 107.4,495.4 L 111.6,487.3 L 114.4,482.0 L 118.2,476.0 L 126.0,465.3 L 127.6,463.3 L 133.8,454.7 L 142.8,441.5 L 150.8,447.2 L 152.5,448.3 L 191.9,474.6 L 224.4,493.3 L 293.7,534.5 L 305.2,541.2 L 306.5,541.9 L 352.8,568.2 L 379.8,583.2 L 408.1,597.6 L 417.9,602.2 L 425.9,606.4 L 430.6,598.0 L 436.2,586.3 L 441.7,573.4 L 444.9,563.2 L 447.7,550.4 L 444.6,542.0 L 445.3,526.8 L 445.7,510.9 L 445.6,492.4 L 445.6,486.0 L 445.6,479.8 L 445.9,438.0 L 446.1,409.6 L 446.6,375.8 L 446.7,365.4 L 456.5,365.4 L 486.6,365.3 L 490.1,365.3 L 499.3,365.3 L 545.1,365.2 L 599.2,362.4 L 611.9,361.9 L 627.3,361.7 L 635.2,361.4 L 638.1,361.4 L 642.7,361.3 L 676.6,361.4 L 684.0,361.5 L 691.5,361.7 L 704.3,362.6 L 711.4,363.1 L 717.2,363.6 L 747.7,366.1 L 846.2,374.0 L 865.9,375.7 L 868.7,375.9 L 876.9,376.7 L 911.4,380.6 Z" fill="none" stroke="#e7edf8" stroke-width="2.6" stroke-linejoin="round" stroke-linecap="round"/>
<path d="M 911.4,380.6 L 919.7,384.4 L 925.6,388.5 L 930.2,393.5 L 932.2,396.6 L 934.4,400.6 L 936.0,406.9 L 936.8,411.9 L 937.1,418.4 L 936.0,426.0 L 935.4,440.4 L 934.7,448.5 L 934.5,455.0 L 934.8,461.1 L 935.1,468.9 L 936.4,476.8 L 937.8,483.6 L 941.1,491.5 L 945.6,498.9 L 952.8,505.9 L 960.3,510.1 L 970.9,514.1 L 980.5,515.8 L 988.7,516.1 L 997.4,515.5 L 1007.1,513.6 L 1019.3,508.1 L 1028.6,496.7 L 1031.7,495.2 L 1034.9,495.4 L 1038.8,498.3 L 1040.0,501.5 L 1039.1,505.6 L 1013.9,532.0 L 995.6,547.8 L 945.4,582.9 L 938.0,588.1 L 935.6,589.8 L 814.9,674.1 L 806.4,680.1 L 788.7,689.7 L 772.1,697.4 L 749.3,705.1 L 721.8,711.6 L 697.3,715.3 L 672.8,716.7 L 663.5,716.6 L 658.3,716.1 L 653.7,715.7 L 652.3,715.6 L 636.8,714.2 L 607.8,708.1 L 581.3,698.2 L 544.9,682.8 L 474.2,647.4 L 429.0,625.5 L 418.5,620.4 L 411.4,616.6 L 401.1,611.2 L 398.9,610.0 L 377.6,598.7 L 358.6,587.7 L 297.9,553.9 L 286.8,547.7 L 281.5,557.1 L 280.9,558.1 L 275.1,568.1 L 266.9,578.8 L 259.6,587.0 L 249.8,593.4 L 237.9,599.3 L 223.8,604.1 L 209.6,606.4 L 197.5,606.8 L 197.6,612.3 L 195.9,617.5 L 192.6,621.8 L 188.0,624.7 L 182.6,625.9 L 177.2,625.2 L 172.4,622.7 L 168.6,618.7 L 166.5,613.7 L 166.1,608.3 L 167.6,603.0 L 156.6,596.6 L 154.4,595.3 L 139.2,586.3 L 132.7,578.6 L 130.8,577.3 L 127.3,574.8 L 117.0,567.7 L 113.6,565.5 L 111.7,564.3 L 96.2,555.0 L 95.5,553.7 L 92.9,550.5 L 92.1,547.6 L 90.0,538.0 L 95.8,521.2 L 103.0,503.9 L 107.4,495.4 L 111.6,487.3 L 114.4,482.0 L 118.2,476.0 L 126.0,465.3 L 127.6,463.3 L 133.8,454.7 L 142.8,441.5 L 150.8,447.2 L 152.5,448.3 L 191.9,474.6 L 224.4,493.3 L 293.7,534.5 L 305.2,541.2 L 306.5,541.9 L 352.8,568.2 L 379.8,583.2 L 408.1,597.6 L 417.9,602.2 L 425.9,606.4 L 430.6,598.0 L 436.2,586.3 L 441.7,573.4 L 444.9,563.2 L 447.7,550.4 L 444.6,542.0 L 445.3,526.8 L 445.7,510.9 L 445.6,492.4 L 445.6,486.0 L 445.6,479.8 L 445.9,438.0 L 446.1,409.6 L 446.6,375.8 L 446.7,365.4 L 456.5,365.4 L 486.6,365.3 L 490.1,365.3 L 499.3,365.3 L 545.1,365.2 L 599.2,362.4 L 611.9,361.9 L 627.3,361.7 L 635.2,361.4 L 638.1,361.4 L 642.7,361.3 L 676.6,361.4 L 684.0,361.5 L 691.5,361.7 L 704.3,362.6 L 711.4,363.1 L 717.2,363.6 L 747.7,366.1 L 846.2,374.0 L 865.9,375.7 L 868.7,375.9 L 876.9,376.7 L 911.4,380.6 Z" fill="none" stroke="#ff5a36" stroke-opacity="0.55" stroke-width="1.2" stroke-linejoin="round" filter="url(#glow)"/>
<circle cx="911.4" cy="380.6" r="13" fill="none" stroke="#ffffff" stroke-width="3"/>
<rect x="907.4" y="358.6" width="8" height="18" fill="#ffffff"/>
<circle cx="782.4" cy="692.6" r="7" fill="#ff5a36" stroke="#0a0c12" stroke-width="2.5" filter="url(#glow)"/>
<text x="782.4" y="696.0" font-size="9" font-weight="700" fill="#0a0c12" text-anchor="middle">1</text>
<circle cx="634.0" cy="713.7" r="7" fill="#ff5a36" stroke="#0a0c12" stroke-width="2.5" filter="url(#glow)"/>
<text x="634.0" y="717.1" font-size="9" font-weight="700" fill="#0a0c12" text-anchor="middle">2</text>
<circle cx="604.5" cy="706.9" r="7" fill="#ff5a36" stroke="#0a0c12" stroke-width="2.5" filter="url(#glow)"/>
<text x="604.5" y="710.3" font-size="9" font-weight="700" fill="#0a0c12" text-anchor="middle">3</text>
<circle cx="520.8" cy="670.8" r="7" fill="#ff5a36" stroke="#0a0c12" stroke-width="2.5" filter="url(#glow)"/>
<text x="520.8" y="674.2" font-size="9" font-weight="700" fill="#0a0c12" text-anchor="middle">4</text>
<circle cx="414.1" cy="618.1" r="7" fill="#ff5a36" stroke="#0a0c12" stroke-width="2.5" filter="url(#glow)"/>
<text x="414.1" y="621.5" font-size="9" font-weight="700" fill="#0a0c12" text-anchor="middle">5</text>
<circle cx="166.3" cy="602.2" r="7" fill="#ff5a36" stroke="#0a0c12" stroke-width="2.5" filter="url(#glow)"/>
<text x="166.3" y="605.6" font-size="9" font-weight="700" fill="#0a0c12" text-anchor="middle">6</text>
<circle cx="101.8" cy="558.3" r="7" fill="#ff5a36" stroke="#0a0c12" stroke-width="2.5" filter="url(#glow)"/>
<text x="101.8" y="561.7" font-size="9" font-weight="700" fill="#0a0c12" text-anchor="middle">7</text>
<circle cx="168.9" cy="459.3" r="7" fill="#ff5a36" stroke="#0a0c12" stroke-width="2.5" filter="url(#glow)"/>
<text x="168.9" y="462.7" font-size="9" font-weight="700" fill="#0a0c12" text-anchor="middle">8</text>
<circle cx="446.2" cy="403.7" r="7" fill="#ff5a36" stroke="#0a0c12" stroke-width="2.5" filter="url(#glow)"/>
<text x="446.2" y="407.1" font-size="9" font-weight="700" fill="#0a0c12" text-anchor="middle">9</text>
<circle cx="512.2" cy="365.3" r="7" fill="#ff5a36" stroke="#0a0c12" stroke-width="2.5" filter="url(#glow)"/>
<text x="512.2" y="368.7" font-size="9" font-weight="700" fill="#0a0c12" text-anchor="middle">10</text>
<circle cx="613.4" cy="361.9" r="7" fill="#ff5a36" stroke="#0a0c12" stroke-width="2.5" filter="url(#glow)"/>
<text x="613.4" y="365.3" font-size="9" font-weight="700" fill="#0a0c12" text-anchor="middle">11</text>
<line x1="782.4" y1="692.6" x2="825.9" y2="721.1" stroke="#ff5a36" stroke-opacity="0.45" stroke-width="1.3"/>
<text x="833.9" y="725.1" font-size="15" font-weight="600" fill="#eef2fb" text-anchor="start">Shoreline</text>
<line x1="634.0" y1="713.7" x2="659.7" y2="786.7" stroke="#ff5a36" stroke-opacity="0.45" stroke-width="1.3"/>
<text x="667.7" y="790.7" font-size="15" font-weight="600" fill="#eef2fb" text-anchor="start">Aquarium</text>
<line x1="604.5" y1="706.9" x2="624.9" y2="754.7" stroke="#ff5a36" stroke-opacity="0.45" stroke-width="1.3"/>
<text x="632.9" y="758.7" font-size="15" font-weight="600" fill="#eef2fb" text-anchor="start">T3</text>
<line x1="520.8" y1="670.8" x2="518.6" y2="722.7" stroke="#ff5a36" stroke-opacity="0.45" stroke-width="1.3"/>
<text x="510.6" y="726.7" font-size="15" font-weight="600" fill="#eef2fb" text-anchor="end">T4</text>
<line x1="414.1" y1="618.1" x2="373.9" y2="651.0" stroke="#ff5a36" stroke-opacity="0.45" stroke-width="1.3"/>
<text x="365.9" y="655.0" font-size="15" font-weight="600" fill="#eef2fb" text-anchor="end">T5</text>
<line x1="166.3" y1="602.2" x2="115.4" y2="613.1" stroke="#ff5a36" stroke-opacity="0.45" stroke-width="1.3"/>
<text x="107.4" y="617.1" font-size="15" font-weight="600" fill="#eef2fb" text-anchor="end">T6</text>
<line x1="101.8" y1="558.3" x2="49.9" y2="562.3" stroke="#ff5a36" stroke-opacity="0.45" stroke-width="1.3"/>
<text x="41.9" y="566.3" font-size="15" font-weight="600" fill="#eef2fb" text-anchor="end">T7</text>
<line x1="168.9" y1="459.3" x2="117.8" y2="449.8" stroke="#ff5a36" stroke-opacity="0.45" stroke-width="1.3"/>
<text x="109.8" y="453.8" font-size="15" font-weight="600" fill="#eef2fb" text-anchor="end">The Fountain</text>
<line x1="446.2" y1="403.7" x2="417.4" y2="360.4" stroke="#ff5a36" stroke-opacity="0.45" stroke-width="1.3"/>
<text x="409.4" y="364.4" font-size="15" font-weight="600" fill="#eef2fb" text-anchor="end">T9</text>
<line x1="512.2" y1="365.3" x2="507.4" y2="313.5" stroke="#ff5a36" stroke-opacity="0.45" stroke-width="1.3"/>
<text x="499.4" y="317.5" font-size="15" font-weight="600" fill="#eef2fb" text-anchor="end">T10</text>
<line x1="613.4" y1="361.9" x2="637.7" y2="315.9" stroke="#ff5a36" stroke-opacity="0.45" stroke-width="1.3"/>
<text x="645.7" y="319.9" font-size="15" font-weight="600" fill="#eef2fb" text-anchor="start">The Hairpin</text>
<text x="90" y="64" font-size="20" letter-spacing="5" fill="#ff5a36" font-weight="700">TRACK ATLAS</text>
<text x="90" y="108" font-size="42" font-weight="800" fill="#ffffff">LONG BEACH STREET CIRCUIT</text>
<text x="90" y="136" font-size="16" fill="#9aa6bd">Long Beach</text>
<rect x="1170" y="200" width="360" height="710" rx="16" fill="#ffffff" fill-opacity="0.04" stroke="#ff5a36" stroke-opacity="0.5"/>
<text x="1198" y="250" font-size="13" letter-spacing="2" fill="#8794ab">LAYOUT</text>
<text x="1198" y="276" font-size="22" font-weight="700" fill="#eef2fb">Street Circuit</text>
<text x="1198" y="320" font-size="13" letter-spacing="2" fill="#8794ab">LENGTH</text>
<text x="1198" y="346" font-size="22" font-weight="700" fill="#eef2fb">3.167 km</text>
<text x="1198" y="390" font-size="13" letter-spacing="2" fill="#8794ab">CORNERS</text>
<text x="1198" y="416" font-size="22" font-weight="700" fill="#eef2fb">11</text>
<text x="1198" y="460" font-size="13" letter-spacing="2" fill="#8794ab">NAMED CORNERS</text>
<text x="1198" y="486" font-size="22" font-weight="700" fill="#eef2fb">11</text>
<text x="1198" y="530" font-size="13" letter-spacing="2" fill="#8794ab">DIRECTION</text>
<text x="1198" y="556" font-size="22" font-weight="700" fill="#eef2fb">Clockwise</text>
<text x="1198" y="600" font-size="13" letter-spacing="2" fill="#8794ab">SECTORS</text>
<text x="1198" y="626" font-size="22" font-weight="700" fill="#eef2fb">4</text>
<text x="1198" y="670" font-size="13" letter-spacing="2" fill="#8794ab">COUNTRY</text>
<text x="1198" y="696" font-size="22" font-weight="700" fill="#eef2fb">USA</text>
<text x="1198" y="740" font-size="13" letter-spacing="2" fill="#8794ab">LOCATION</text>
<text x="1198" y="766" font-size="22" font-weight="700" fill="#eef2fb">Long Beach, California</text>
<text x="90" y="966" font-size="12" fill="#566177">Geometry © OpenStreetMap contributors (ODbL) · corner data: Lovely-Sim-Racing + curated · track-atlas</text>
<text x="90" y="942" font-size="12" fill="#8794ab">⚑ start / finish</text>
</svg>