<svg xmlns="http://www.w3.org/2000/svg" width="1600" height="1000" viewBox="0 0 1600 1000" font-family="Helvetica, Arial, sans-serif">
<defs>
      <radialGradient id="bg" cx="38%" cy="34%" r="85%">
        <stop offset="0%" stop-color="#1b2030"/>
        <stop offset="55%" stop-color="#12151f"/>
        <stop offset="100%" stop-color="#0a0c12"/>
      </radialGradient>
      <linearGradient id="accent" x1="0" y1="0" x2="1" y2="1">
        <stop offset="0%" stop-color="#ff5a36"/>
        <stop offset="100%" stop-color="#ffffff"/>
      </linearGradient>
      <filter id="glow" x="-40%" y="-40%" width="180%" height="180%">
        <feGaussianBlur stdDeviation="6" result="b"/>
        <feMerge><feMergeNode in="b"/><feMergeNode in="SourceGraphic"/></feMerge>
      </filter>
    </defs>
<rect width="1600" height="1000" fill="url(#bg)"/>
<line x1="0" y1="0" x2="0" y2="1000" stroke="#ffffff" stroke-opacity="0.025"/>
<line x1="56" y1="0" x2="56" y2="1000" stroke="#ffffff" stroke-opacity="0.025"/>
<line x1="112" y1="0" x2="112" y2="1000" stroke="#ffffff" stroke-opacity="0.025"/>
<line x1="168" y1="0" x2="168" y2="1000" stroke="#ffffff" stroke-opacity="0.025"/>
<line x1="224" y1="0" x2="224" y2="1000" stroke="#ffffff" stroke-opacity="0.025"/>
<line x1="280" y1="0" x2="280" y2="1000" stroke="#ffffff" stroke-opacity="0.025"/>
<line x1="336" y1="0" x2="336" y2="1000" stroke="#ffffff" stroke-opacity="0.025"/>
<line x1="392" y1="0" x2="392" y2="1000" stroke="#ffffff" stroke-opacity="0.025"/>
<line x1="448" y1="0" x2="448" y2="1000" stroke="#ffffff" stroke-opacity="0.025"/>
<line x1="504" y1="0" x2="504" y2="1000" stroke="#ffffff" stroke-opacity="0.025"/>
<line x1="560" y1="0" x2="560" y2="1000" stroke="#ffffff" stroke-opacity="0.025"/>
<line x1="616" y1="0" x2="616" y2="1000" stroke="#ffffff" stroke-opacity="0.025"/>
<line x1="672" y1="0" x2="672" y2="1000" stroke="#ffffff" stroke-opacity="0.025"/>
<line x1="728" y1="0" x2="728" y2="1000" stroke="#ffffff" stroke-opacity="0.025"/>
<line x1="784" y1="0" x2="784" y2="1000" stroke="#ffffff" stroke-opacity="0.025"/>
<line x1="840" y1="0" x2="840" y2="1000" stroke="#ffffff" stroke-opacity="0.025"/>
<line x1="896" y1="0" x2="896" y2="1000" stroke="#ffffff" stroke-opacity="0.025"/>
<line x1="952" y1="0" x2="952" y2="1000" stroke="#ffffff" stroke-opacity="0.025"/>
<line x1="1008" y1="0" x2="1008" y2="1000" stroke="#ffffff" stroke-opacity="0.025"/>
<line x1="1064" y1="0" x2="1064" y2="1000" stroke="#ffffff" stroke-opacity="0.025"/>
<line x1="1120" y1="0" x2="1120" y2="1000" stroke="#ffffff" stroke-opacity="0.025"/>
<line x1="1176" y1="0" x2="1176" y2="1000" stroke="#ffffff" stroke-opacity="0.025"/>
<line x1="1232" y1="0" x2="1232" y2="1000" stroke="#ffffff" stroke-opacity="0.025"/>
<line x1="1288" y1="0" x2="1288" y2="1000" stroke="#ffffff" stroke-opacity="0.025"/>
<line x1="1344" y1="0" x2="1344" y2="1000" stroke="#ffffff" stroke-opacity="0.025"/>
<line x1="1400" y1="0" x2="1400" y2="1000" stroke="#ffffff" stroke-opacity="0.025"/>
<line x1="1456" y1="0" x2="1456" y2="1000" stroke="#ffffff" stroke-opacity="0.025"/>
<line x1="1512" y1="0" x2="1512" y2="1000" stroke="#ffffff" stroke-opacity="0.025"/>
<line x1="1568" y1="0" x2="1568" y2="1000" stroke="#ffffff" stroke-opacity="0.025"/>
<line x1="0" y1="0" x2="1600" y2="0" stroke="#ffffff" stroke-opacity="0.025"/>
<line x1="0" y1="56" x2="1600" y2="56" stroke="#ffffff" stroke-opacity="0.025"/>
<line x1="0" y1="112" x2="1600" y2="112" stroke="#ffffff" stroke-opacity="0.025"/>
<line x1="0" y1="168" x2="1600" y2="168" stroke="#ffffff" stroke-opacity="0.025"/>
<line x1="0" y1="224" x2="1600" y2="224" stroke="#ffffff" stroke-opacity="0.025"/>
<line x1="0" y1="280" x2="1600" y2="280" stroke="#ffffff" stroke-opacity="0.025"/>
<line x1="0" y1="336" x2="1600" y2="336" stroke="#ffffff" stroke-opacity="0.025"/>
<line x1="0" y1="392" x2="1600" y2="392" stroke="#ffffff" stroke-opacity="0.025"/>
<line x1="0" y1="448" x2="1600" y2="448" stroke="#ffffff" stroke-opacity="0.025"/>
<line x1="0" y1="504" x2="1600" y2="504" stroke="#ffffff" stroke-opacity="0.025"/>
<line x1="0" y1="560" x2="1600" y2="560" stroke="#ffffff" stroke-opacity="0.025"/>
<line x1="0" y1="616" x2="1600" y2="616" stroke="#ffffff" stroke-opacity="0.025"/>
<line x1="0" y1="672" x2="1600" y2="672" stroke="#ffffff" stroke-opacity="0.025"/>
<line x1="0" y1="728" x2="1600" y2="728" stroke="#ffffff" stroke-opacity="0.025"/>
<line x1="0" y1="784" x2="1600" y2="784" stroke="#ffffff" stroke-opacity="0.025"/>
<line x1="0" y1="840" x2="1600" y2="840" stroke="#ffffff" stroke-opacity="0.025"/>
<line x1="0" y1="896" x2="1600" y2="896" stroke="#ffffff" stroke-opacity="0.025"/>
<line x1="0" y1="952" x2="1600" y2="952" stroke="#ffffff" stroke-opacity="0.025"/>
<path d="M 415.7,881.6 L 430.6,737.3 L 444.7,601.8 L 453.8,527.7 L 454.6,522.8 L 454.9,521.3 L 455.4,520.0 L 455.8,519.0 L 456.5,517.6 L 457.2,516.6 L 458.0,515.7 L 458.9,514.9 L 459.9,514.0 L 461.3,512.9 L 463.3,511.5 L 465.3,510.0 L 467.6,508.0 L 468.8,507.0 L 469.8,505.9 L 470.7,505.1 L 471.4,504.3 L 472.7,502.8 L 473.9,501.1 L 475.1,499.3 L 476.4,497.0 L 477.7,494.5 L 478.6,492.3 L 479.5,489.7 L 479.9,487.9 L 480.4,486.0 L 480.8,483.4 L 481.1,480.8 L 481.1,477.0 L 481.0,474.7 L 480.9,472.9 L 479.8,462.9 L 479.6,461.0 L 479.5,459.4 L 479.6,457.7 L 479.8,456.2 L 480.1,455.2 L 480.5,454.4 L 481.0,453.7 L 481.7,452.7 L 482.6,451.7 L 483.8,450.5 L 484.5,449.9 L 575.1,370.6 L 582.1,364.5 L 642.7,311.5 L 653.5,301.9 L 655.3,300.4 L 657.2,298.9 L 659.7,296.9 L 663.0,294.3 L 666.1,292.0 L 669.3,289.6 L 671.7,288.0 L 674.1,286.3 L 679.9,282.5 L 683.7,280.2 L 687.3,278.1 L 793.8,218.7 L 795.2,217.8 L 796.5,217.0 L 797.1,216.6 L 797.7,216.2 L 798.6,215.5 L 799.5,214.7 L 800.3,213.8 L 800.6,213.2 L 801.0,212.6 L 801.4,212.0 L 801.8,210.8 L 802.2,209.5 L 802.5,208.2 L 802.7,206.7 L 802.7,205.3 L 802.6,203.2 L 798.9,163.6 L 794.8,118.7 L 794.5,116.3 L 794.2,113.7 L 793.8,111.4 L 793.4,110.2 L 793.0,108.8 L 792.6,107.7 L 792.1,106.6 L 791.7,105.8 L 791.0,104.5 L 790.3,103.2 L 789.5,102.0 L 788.6,100.7 L 787.4,99.3 L 786.0,97.8 L 784.8,96.8 L 783.6,95.8 L 782.6,95.0 L 781.2,94.1 L 779.4,93.1 L 777.6,92.3 L 776.7,91.9 L 775.5,91.5 L 774.3,91.1 L 773.3,90.8 L 772.2,90.6 L 771.0,90.3 L 769.9,90.2 L 768.7,90.1 L 767.4,90.0 L 765.8,90.0 L 764.2,90.2 L 762.1,90.5 L 760.2,90.9 L 758.3,91.4 L 721.4,103.4 L 678.9,117.6 L 676.7,118.2 L 674.1,118.9 L 671.6,119.5 L 668.5,120.2 L 666.5,120.6 L 664.4,121.1 L 661.6,121.6 L 658.7,122.1 L 654.1,122.9 L 652.2,123.3 L 651.3,123.5 L 650.4,123.7 L 649.8,124.0 L 649.2,124.4 L 648.6,124.9 L 648.2,125.5 L 647.8,126.2 L 647.5,126.9 L 647.1,127.8 L 646.8,128.7 L 644.9,135.3 L 644.6,136.1 L 644.3,136.8 L 644.0,137.5 L 643.6,138.1 L 643.3,138.6 L 642.8,139.1 L 642.3,139.5 L 641.8,139.8 L 641.0,140.1 L 640.2,140.3 L 639.2,140.5 L 638.1,140.6 L 636.9,140.7 L 620.4,141.5 L 603.9,142.3 L 590.2,143.0 L 559.5,145.2 L 499.7,150.0 L 485.7,151.7 L 476.1,153.4 L 468.2,155.3 L 459.5,157.7 L 449.8,161.0 L 438.3,166.1 L 430.0,170.7 L 424.3,174.2 L 418.6,178.2 L 412.4,182.9 L 407.2,187.4 L 402.2,192.3 L 397.3,197.7 L 392.7,203.5 L 387.3,211.5 L 382.6,220.3 L 378.4,230.1 L 375.9,237.5 L 374.3,243.3 L 372.4,253.8 L 372.0,257.6 L 368.0,307.4 L 368.2,316.7 L 368.8,324.0 L 369.8,330.6 L 371.4,338.5 L 377.9,363.1 L 378.5,365.7 L 379.5,369.7 L 379.6,370.7 L 379.7,371.7 L 379.7,372.7 L 379.5,373.8 L 379.1,374.8 L 378.5,375.8 L 377.9,376.5 L 377.1,377.1 L 376.3,377.5 L 375.4,377.7 L 374.3,377.8 L 373.2,377.6 L 372.1,377.3 L 369.2,376.2 L 368.1,375.9 L 366.8,375.8 L 365.7,376.0 L 364.6,376.6 L 363.8,377.1 L 363.3,377.9 L 363.0,378.8 L 362.8,379.6 L 362.7,380.6 L 350.6,517.3 L 350.2,521.9 L 348.5,542.0 L 344.6,585.7 L 341.5,611.3 L 329.7,727.7 L 328.6,739.6 L 327.7,751.1 L 327.3,767.3 L 327.4,784.7 L 328.1,821.4 L 328.1,828.4 L 328.4,835.3 L 328.8,840.8 L 329.3,844.9 L 329.8,848.4 L 330.3,851.2 L 330.9,854.0 L 332.0,858.3 L 332.5,860.3 L 333.1,862.3 L 333.7,864.3 L 334.4,866.2 L 335.0,868.0 L 335.8,869.9 L 336.7,872.2 L 337.5,873.9 L 338.3,875.6 L 339.0,877.1 L 339.9,878.6 L 340.6,879.9 L 341.9,881.9 L 342.6,883.1 L 344.8,886.3 L 346.6,888.7 L 348.6,891.1 L 350.4,893.0 L 352.3,895.0 L 354.2,896.7 L 355.5,897.8 L 357.0,899.0 L 358.1,899.8 L 359.8,901.1 L 361.2,902.0 L 362.7,902.9 L 364.5,904.0 L 366.3,904.9 L 368.1,905.7 L 370.6,906.8 L 373.4,907.7 L 374.9,908.2 L 376.3,908.6 L 378.3,909.2 L 379.3,909.4 L 380.4,909.6 L 381.5,909.7 L 382.7,909.9 L 384.0,910.0 L 384.9,910.0 L 386.0,910.0 L 387.3,909.9 L 389.1,909.7 L 390.4,909.4 L 391.7,909.2 L 394.2,908.4 L 396.6,907.6 L 397.7,907.1 L 398.9,906.5 L 399.9,906.0 L 401.0,905.4 L 402.4,904.5 L 403.8,903.5 L 405.5,902.3 L 406.7,901.2 L 408.1,899.7 L 409.2,898.3 L 410.3,896.8 L 411.6,895.0 L 412.5,893.4 L 413.2,892.0 L 413.8,890.8 L 414.3,889.3 L 414.7,888.1 L 415.1,886.4 L 415.3,884.7 L 415.7,881.6 Z" fill="none" stroke="#000000" stroke-opacity="0.5" stroke-width="13" stroke-linejoin="round" stroke-linecap="round"/>
<path d="M 415.7,881.6 L 430.6,737.3 L 444.7,601.8 L 453.8,527.7 L 454.6,522.8 L 454.9,521.3 L 455.4,520.0 L 455.8,519.0 L 456.5,517.6 L 457.2,516.6 L 458.0,515.7 L 458.9,514.9 L 459.9,514.0 L 461.3,512.9 L 463.3,511.5 L 465.3,510.0 L 467.6,508.0 L 468.8,507.0 L 469.8,505.9 L 470.7,505.1 L 471.4,504.3 L 472.7,502.8 L 473.9,501.1 L 475.1,499.3 L 476.4,497.0 L 477.7,494.5 L 478.6,492.3 L 479.5,489.7 L 479.9,487.9 L 480.4,486.0 L 480.8,483.4 L 481.1,480.8 L 481.1,477.0 L 481.0,474.7 L 480.9,472.9 L 479.8,462.9 L 479.6,461.0 L 479.5,459.4 L 479.6,457.7 L 479.8,456.2 L 480.1,455.2 L 480.5,454.4 L 481.0,453.7 L 481.7,452.7 L 482.6,451.7 L 483.8,450.5 L 484.5,449.9 L 575.1,370.6 L 582.1,364.5 L 642.7,311.5 L 653.5,301.9 L 655.3,300.4 L 657.2,298.9 L 659.7,296.9 L 663.0,294.3 L 666.1,292.0 L 669.3,289.6 L 671.7,288.0 L 674.1,286.3 L 679.9,282.5 L 683.7,280.2 L 687.3,278.1 L 793.8,218.7 L 795.2,217.8 L 796.5,217.0 L 797.1,216.6 L 797.7,216.2 L 798.6,215.5 L 799.5,214.7 L 800.3,213.8 L 800.6,213.2 L 801.0,212.6 L 801.4,212.0 L 801.8,210.8 L 802.2,209.5 L 802.5,208.2 L 802.7,206.7 L 802.7,205.3 L 802.6,203.2 L 798.9,163.6 L 794.8,118.7 L 794.5,116.3 L 794.2,113.7 L 793.8,111.4 L 793.4,110.2 L 793.0,108.8 L 792.6,107.7 L 792.1,106.6 L 791.7,105.8 L 791.0,104.5 L 790.3,103.2 L 789.5,102.0 L 788.6,100.7 L 787.4,99.3 L 786.0,97.8 L 784.8,96.8 L 783.6,95.8 L 782.6,95.0 L 781.2,94.1 L 779.4,93.1 L 777.6,92.3 L 776.7,91.9 L 775.5,91.5 L 774.3,91.1 L 773.3,90.8 L 772.2,90.6 L 771.0,90.3 L 769.9,90.2 L 768.7,90.1 L 767.4,90.0 L 765.8,90.0 L 764.2,90.2 L 762.1,90.5 L 760.2,90.9 L 758.3,91.4 L 721.4,103.4 L 678.9,117.6 L 676.7,118.2 L 674.1,118.9 L 671.6,119.5 L 668.5,120.2 L 666.5,120.6 L 664.4,121.1 L 661.6,121.6 L 658.7,122.1 L 654.1,122.9 L 652.2,123.3 L 651.3,123.5 L 650.4,123.7 L 649.8,124.0 L 649.2,124.4 L 648.6,124.9 L 648.2,125.5 L 647.8,126.2 L 647.5,126.9 L 647.1,127.8 L 646.8,128.7 L 644.9,135.3 L 644.6,136.1 L 644.3,136.8 L 644.0,137.5 L 643.6,138.1 L 643.3,138.6 L 642.8,139.1 L 642.3,139.5 L 641.8,139.8 L 641.0,140.1 L 640.2,140.3 L 639.2,140.5 L 638.1,140.6 L 636.9,140.7 L 620.4,141.5 L 603.9,142.3 L 590.2,143.0 L 559.5,145.2 L 499.7,150.0 L 485.7,151.7 L 476.1,153.4 L 468.2,155.3 L 459.5,157.7 L 449.8,161.0 L 438.3,166.1 L 430.0,170.7 L 424.3,174.2 L 418.6,178.2 L 412.4,182.9 L 407.2,187.4 L 402.2,192.3 L 397.3,197.7 L 392.7,203.5 L 387.3,211.5 L 382.6,220.3 L 378.4,230.1 L 375.9,237.5 L 374.3,243.3 L 372.4,253.8 L 372.0,257.6 L 368.0,307.4 L 368.2,316.7 L 368.8,324.0 L 369.8,330.6 L 371.4,338.5 L 377.9,363.1 L 378.5,365.7 L 379.5,369.7 L 379.6,370.7 L 379.7,371.7 L 379.7,372.7 L 379.5,373.8 L 379.1,374.8 L 378.5,375.8 L 377.9,376.5 L 377.1,377.1 L 376.3,377.5 L 375.4,377.7 L 374.3,377.8 L 373.2,377.6 L 372.1,377.3 L 369.2,376.2 L 368.1,375.9 L 366.8,375.8 L 365.7,376.0 L 364.6,376.6 L 363.8,377.1 L 363.3,377.9 L 363.0,378.8 L 362.8,379.6 L 362.7,380.6 L 350.6,517.3 L 350.2,521.9 L 348.5,542.0 L 344.6,585.7 L 341.5,611.3 L 329.7,727.7 L 328.6,739.6 L 327.7,751.1 L 327.3,767.3 L 327.4,784.7 L 328.1,821.4 L 328.1,828.4 L 328.4,835.3 L 328.8,840.8 L 329.3,844.9 L 329.8,848.4 L 330.3,851.2 L 330.9,854.0 L 332.0,858.3 L 332.5,860.3 L 333.1,862.3 L 333.7,864.3 L 334.4,866.2 L 335.0,868.0 L 335.8,869.9 L 336.7,872.2 L 337.5,873.9 L 338.3,875.6 L 339.0,877.1 L 339.9,878.6 L 340.6,879.9 L 341.9,881.9 L 342.6,883.1 L 344.8,886.3 L 346.6,888.7 L 348.6,891.1 L 350.4,893.0 L 352.3,895.0 L 354.2,896.7 L 355.5,897.8 L 357.0,899.0 L 358.1,899.8 L 359.8,901.1 L 361.2,902.0 L 362.7,902.9 L 364.5,904.0 L 366.3,904.9 L 368.1,905.7 L 370.6,906.8 L 373.4,907.7 L 374.9,908.2 L 376.3,908.6 L 378.3,909.2 L 379.3,909.4 L 380.4,909.6 L 381.5,909.7 L 382.7,909.9 L 384.0,910.0 L 384.9,910.0 L 386.0,910.0 L 387.3,909.9 L 389.1,909.7 L 390.4,909.4 L 391.7,909.2 L 394.2,908.4 L 396.6,907.6 L 397.7,907.1 L 398.9,906.5 L 399.9,906.0 L 401.0,905.4 L 402.4,904.5 L 403.8,903.5 L 405.5,902.3 L 406.7,901.2 L 408.1,899.7 L 409.2,898.3 L 410.3,896.8 L 411.6,895.0 L 412.5,893.4 L 413.2,892.0 L 413.8,890.8 L 414.3,889.3 L 414.7,888.1 L 415.1,886.4 L 415.3,884.7 L 415.7,881.6 Z" fill="none" stroke="#39404f" stroke-width="8.5" stroke-linejoin="round" stroke-linecap="round"/>
<path d="M 415.7,881.6 L 430.6,737.3 L 444.7,601.8 L 453.8,527.7 L 454.6,522.8 L 454.9,521.3 L 455.4,520.0 L 455.8,519.0 L 456.5,517.6 L 457.2,516.6 L 458.0,515.7 L 458.9,514.9 L 459.9,514.0 L 461.3,512.9 L 463.3,511.5 L 465.3,510.0 L 467.6,508.0 L 468.8,507.0 L 469.8,505.9 L 470.7,505.1 L 471.4,504.3 L 472.7,502.8 L 473.9,501.1 L 475.1,499.3 L 476.4,497.0 L 477.7,494.5 L 478.6,492.3 L 479.5,489.7 L 479.9,487.9 L 480.4,486.0 L 480.8,483.4 L 481.1,480.8 L 481.1,477.0 L 481.0,474.7 L 480.9,472.9 L 479.8,462.9 L 479.6,461.0 L 479.5,459.4 L 479.6,457.7 L 479.8,456.2 L 480.1,455.2 L 480.5,454.4 L 481.0,453.7 L 481.7,452.7 L 482.6,451.7 L 483.8,450.5 L 484.5,449.9 L 575.1,370.6 L 582.1,364.5 L 642.7,311.5 L 653.5,301.9 L 655.3,300.4 L 657.2,298.9 L 659.7,296.9 L 663.0,294.3 L 666.1,292.0 L 669.3,289.6 L 671.7,288.0 L 674.1,286.3 L 679.9,282.5 L 683.7,280.2 L 687.3,278.1 L 793.8,218.7 L 795.2,217.8 L 796.5,217.0 L 797.1,216.6 L 797.7,216.2 L 798.6,215.5 L 799.5,214.7 L 800.3,213.8 L 800.6,213.2 L 801.0,212.6 L 801.4,212.0 L 801.8,210.8 L 802.2,209.5 L 802.5,208.2 L 802.7,206.7 L 802.7,205.3 L 802.6,203.2 L 798.9,163.6 L 794.8,118.7 L 794.5,116.3 L 794.2,113.7 L 793.8,111.4 L 793.4,110.2 L 793.0,108.8 L 792.6,107.7 L 792.1,106.6 L 791.7,105.8 L 791.0,104.5 L 790.3,103.2 L 789.5,102.0 L 788.6,100.7 L 787.4,99.3 L 786.0,97.8 L 784.8,96.8 L 783.6,95.8 L 782.6,95.0 L 781.2,94.1 L 779.4,93.1 L 777.6,92.3 L 776.7,91.9 L 775.5,91.5 L 774.3,91.1 L 773.3,90.8 L 772.2,90.6 L 771.0,90.3 L 769.9,90.2 L 768.7,90.1 L 767.4,90.0 L 765.8,90.0 L 764.2,90.2 L 762.1,90.5 L 760.2,90.9 L 758.3,91.4 L 721.4,103.4 L 678.9,117.6 L 676.7,118.2 L 674.1,118.9 L 671.6,119.5 L 668.5,120.2 L 666.5,120.6 L 664.4,121.1 L 661.6,121.6 L 658.7,122.1 L 654.1,122.9 L 652.2,123.3 L 651.3,123.5 L 650.4,123.7 L 649.8,124.0 L 649.2,124.4 L 648.6,124.9 L 648.2,125.5 L 647.8,126.2 L 647.5,126.9 L 647.1,127.8 L 646.8,128.7 L 644.9,135.3 L 644.6,136.1 L 644.3,136.8 L 644.0,137.5 L 643.6,138.1 L 643.3,138.6 L 642.8,139.1 L 642.3,139.5 L 641.8,139.8 L 641.0,140.1 L 640.2,140.3 L 639.2,140.5 L 638.1,140.6 L 636.9,140.7 L 620.4,141.5 L 603.9,142.3 L 590.2,143.0 L 559.5,145.2 L 499.7,150.0 L 485.7,151.7 L 476.1,153.4 L 468.2,155.3 L 459.5,157.7 L 449.8,161.0 L 438.3,166.1 L 430.0,170.7 L 424.3,174.2 L 418.6,178.2 L 412.4,182.9 L 407.2,187.4 L 402.2,192.3 L 397.3,197.7 L 392.7,203.5 L 387.3,211.5 L 382.6,220.3 L 378.4,230.1 L 375.9,237.5 L 374.3,243.3 L 372.4,253.8 L 372.0,257.6 L 368.0,307.4 L 368.2,316.7 L 368.8,324.0 L 369.8,330.6 L 371.4,338.5 L 377.9,363.1 L 378.5,365.7 L 379.5,369.7 L 379.6,370.7 L 379.7,371.7 L 379.7,372.7 L 379.5,373.8 L 379.1,374.8 L 378.5,375.8 L 377.9,376.5 L 377.1,377.1 L 376.3,377.5 L 375.4,377.7 L 374.3,377.8 L 373.2,377.6 L 372.1,377.3 L 369.2,376.2 L 368.1,375.9 L 366.8,375.8 L 365.7,376.0 L 364.6,376.6 L 363.8,377.1 L 363.3,377.9 L 363.0,378.8 L 362.8,379.6 L 362.7,380.6 L 350.6,517.3 L 350.2,521.9 L 348.5,542.0 L 344.6,585.7 L 341.5,611.3 L 329.7,727.7 L 328.6,739.6 L 327.7,751.1 L 327.3,767.3 L 327.4,784.7 L 328.1,821.4 L 328.1,828.4 L 328.4,835.3 L 328.8,840.8 L 329.3,844.9 L 329.8,848.4 L 330.3,851.2 L 330.9,854.0 L 332.0,858.3 L 332.5,860.3 L 333.1,862.3 L 333.7,864.3 L 334.4,866.2 L 335.0,868.0 L 335.8,869.9 L 336.7,872.2 L 337.5,873.9 L 338.3,875.6 L 339.0,877.1 L 339.9,878.6 L 340.6,879.9 L 341.9,881.9 L 342.6,883.1 L 344.8,886.3 L 346.6,888.7 L 348.6,891.1 L 350.4,893.0 L 352.3,895.0 L 354.2,896.7 L 355.5,897.8 L 357.0,899.0 L 358.1,899.8 L 359.8,901.1 L 361.2,902.0 L 362.7,902.9 L 364.5,904.0 L 366.3,904.9 L 368.1,905.7 L 370.6,906.8 L 373.4,907.7 L 374.9,908.2 L 376.3,908.6 L 378.3,909.2 L 379.3,909.4 L 380.4,909.6 L 381.5,909.7 L 382.7,909.9 L 384.0,910.0 L 384.9,910.0 L 386.0,910.0 L 387.3,909.9 L 389.1,909.7 L 390.4,909.4 L 391.7,909.2 L 394.2,908.4 L 396.6,907.6 L 397.7,907.1 L 398.9,906.5 L 399.9,906.0 L 401.0,905.4 L 402.4,904.5 L 403.8,903.5 L 405.5,902.3 L 406.7,901.2 L 408.1,899.7 L 409.2,898.3 L 410.3,896.8 L 411.6,895.0 L 412.5,893.4 L 413.2,892.0 L 413.8,890.8 L 414.3,889.3 L 414.7,888.1 L 415.1,886.4 L 415.3,884.7 L 415.7,881.6 Z" fill="none" stroke="#e7edf8" stroke-width="2.6" stroke-linejoin="round" stroke-linecap="round"/>
<path d="M 415.7,881.6 L 430.6,737.3 L 444.7,601.8 L 453.8,527.7 L 454.6,522.8 L 454.9,521.3 L 455.4,520.0 L 455.8,519.0 L 456.5,517.6 L 457.2,516.6 L 458.0,515.7 L 458.9,514.9 L 459.9,514.0 L 461.3,512.9 L 463.3,511.5 L 465.3,510.0 L 467.6,508.0 L 468.8,507.0 L 469.8,505.9 L 470.7,505.1 L 471.4,504.3 L 472.7,502.8 L 473.9,501.1 L 475.1,499.3 L 476.4,497.0 L 477.7,494.5 L 478.6,492.3 L 479.5,489.7 L 479.9,487.9 L 480.4,486.0 L 480.8,483.4 L 481.1,480.8 L 481.1,477.0 L 481.0,474.7 L 480.9,472.9 L 479.8,462.9 L 479.6,461.0 L 479.5,459.4 L 479.6,457.7 L 479.8,456.2 L 480.1,455.2 L 480.5,454.4 L 481.0,453.7 L 481.7,452.7 L 482.6,451.7 L 483.8,450.5 L 484.5,449.9 L 575.1,370.6 L 582.1,364.5 L 642.7,311.5 L 653.5,301.9 L 655.3,300.4 L 657.2,298.9 L 659.7,296.9 L 663.0,294.3 L 666.1,292.0 L 669.3,289.6 L 671.7,288.0 L 674.1,286.3 L 679.9,282.5 L 683.7,280.2 L 687.3,278.1 L 793.8,218.7 L 795.2,217.8 L 796.5,217.0 L 797.1,216.6 L 797.7,216.2 L 798.6,215.5 L 799.5,214.7 L 800.3,213.8 L 800.6,213.2 L 801.0,212.6 L 801.4,212.0 L 801.8,210.8 L 802.2,209.5 L 802.5,208.2 L 802.7,206.7 L 802.7,205.3 L 802.6,203.2 L 798.9,163.6 L 794.8,118.7 L 794.5,116.3 L 794.2,113.7 L 793.8,111.4 L 793.4,110.2 L 793.0,108.8 L 792.6,107.7 L 792.1,106.6 L 791.7,105.8 L 791.0,104.5 L 790.3,103.2 L 789.5,102.0 L 788.6,100.7 L 787.4,99.3 L 786.0,97.8 L 784.8,96.8 L 783.6,95.8 L 782.6,95.0 L 781.2,94.1 L 779.4,93.1 L 777.6,92.3 L 776.7,91.9 L 775.5,91.5 L 774.3,91.1 L 773.3,90.8 L 772.2,90.6 L 771.0,90.3 L 769.9,90.2 L 768.7,90.1 L 767.4,90.0 L 765.8,90.0 L 764.2,90.2 L 762.1,90.5 L 760.2,90.9 L 758.3,91.4 L 721.4,103.4 L 678.9,117.6 L 676.7,118.2 L 674.1,118.9 L 671.6,119.5 L 668.5,120.2 L 666.5,120.6 L 664.4,121.1 L 661.6,121.6 L 658.7,122.1 L 654.1,122.9 L 652.2,123.3 L 651.3,123.5 L 650.4,123.7 L 649.8,124.0 L 649.2,124.4 L 648.6,124.9 L 648.2,125.5 L 647.8,126.2 L 647.5,126.9 L 647.1,127.8 L 646.8,128.7 L 644.9,135.3 L 644.6,136.1 L 644.3,136.8 L 644.0,137.5 L 643.6,138.1 L 643.3,138.6 L 642.8,139.1 L 642.3,139.5 L 641.8,139.8 L 641.0,140.1 L 640.2,140.3 L 639.2,140.5 L 638.1,140.6 L 636.9,140.7 L 620.4,141.5 L 603.9,142.3 L 590.2,143.0 L 559.5,145.2 L 499.7,150.0 L 485.7,151.7 L 476.1,153.4 L 468.2,155.3 L 459.5,157.7 L 449.8,161.0 L 438.3,166.1 L 430.0,170.7 L 424.3,174.2 L 418.6,178.2 L 412.4,182.9 L 407.2,187.4 L 402.2,192.3 L 397.3,197.7 L 392.7,203.5 L 387.3,211.5 L 382.6,220.3 L 378.4,230.1 L 375.9,237.5 L 374.3,243.3 L 372.4,253.8 L 372.0,257.6 L 368.0,307.4 L 368.2,316.7 L 368.8,324.0 L 369.8,330.6 L 371.4,338.5 L 377.9,363.1 L 378.5,365.7 L 379.5,369.7 L 379.6,370.7 L 379.7,371.7 L 379.7,372.7 L 379.5,373.8 L 379.1,374.8 L 378.5,375.8 L 377.9,376.5 L 377.1,377.1 L 376.3,377.5 L 375.4,377.7 L 374.3,377.8 L 373.2,377.6 L 372.1,377.3 L 369.2,376.2 L 368.1,375.9 L 366.8,375.8 L 365.7,376.0 L 364.6,376.6 L 363.8,377.1 L 363.3,377.9 L 363.0,378.8 L 362.8,379.6 L 362.7,380.6 L 350.6,517.3 L 350.2,521.9 L 348.5,542.0 L 344.6,585.7 L 341.5,611.3 L 329.7,727.7 L 328.6,739.6 L 327.7,751.1 L 327.3,767.3 L 327.4,784.7 L 328.1,821.4 L 328.1,828.4 L 328.4,835.3 L 328.8,840.8 L 329.3,844.9 L 329.8,848.4 L 330.3,851.2 L 330.9,854.0 L 332.0,858.3 L 332.5,860.3 L 333.1,862.3 L 333.7,864.3 L 334.4,866.2 L 335.0,868.0 L 335.8,869.9 L 336.7,872.2 L 337.5,873.9 L 338.3,875.6 L 339.0,877.1 L 339.9,878.6 L 340.6,879.9 L 341.9,881.9 L 342.6,883.1 L 344.8,886.3 L 346.6,888.7 L 348.6,891.1 L 350.4,893.0 L 352.3,895.0 L 354.2,896.7 L 355.5,897.8 L 357.0,899.0 L 358.1,899.8 L 359.8,901.1 L 361.2,902.0 L 362.7,902.9 L 364.5,904.0 L 366.3,904.9 L 368.1,905.7 L 370.6,906.8 L 373.4,907.7 L 374.9,908.2 L 376.3,908.6 L 378.3,909.2 L 379.3,909.4 L 380.4,909.6 L 381.5,909.7 L 382.7,909.9 L 384.0,910.0 L 384.9,910.0 L 386.0,910.0 L 387.3,909.9 L 389.1,909.7 L 390.4,909.4 L 391.7,909.2 L 394.2,908.4 L 396.6,907.6 L 397.7,907.1 L 398.9,906.5 L 399.9,906.0 L 401.0,905.4 L 402.4,904.5 L 403.8,903.5 L 405.5,902.3 L 406.7,901.2 L 408.1,899.7 L 409.2,898.3 L 410.3,896.8 L 411.6,895.0 L 412.5,893.4 L 413.2,892.0 L 413.8,890.8 L 414.3,889.3 L 414.7,888.1 L 415.1,886.4 L 415.3,884.7 L 415.7,881.6 Z" fill="none" stroke="#ff5a36" stroke-opacity="0.55" stroke-width="1.2" stroke-linejoin="round" filter="url(#glow)"/>
<circle cx="333.6" cy="688.9" r="13" fill="none" stroke="#ffffff" stroke-width="3"/>
<rect x="329.6" y="666.9" width="8" height="18" fill="#ffffff"/>
<circle cx="375.5" cy="367.1" r="7" fill="#ff5a36" stroke="#0a0c12" stroke-width="2.5" filter="url(#glow)"/>
<text x="375.5" y="370.5" font-size="9" font-weight="700" fill="#0a0c12" text-anchor="middle">1</text>
<circle cx="373.3" cy="345.5" r="7" fill="#ff5a36" stroke="#0a0c12" stroke-width="2.5" filter="url(#glow)"/>
<text x="373.3" y="348.9" font-size="9" font-weight="700" fill="#0a0c12" text-anchor="middle">2</text>
<circle cx="392.3" cy="204.0" r="7" fill="#ff5a36" stroke="#0a0c12" stroke-width="2.5" filter="url(#glow)"/>
<text x="392.3" y="207.4" font-size="9" font-weight="700" fill="#0a0c12" text-anchor="middle">3</text>
<circle cx="645.7" cy="132.2" r="7" fill="#ff5a36" stroke="#0a0c12" stroke-width="2.5" filter="url(#glow)"/>
<text x="645.7" y="135.6" font-size="9" font-weight="700" fill="#0a0c12" text-anchor="middle">4</text>
<circle cx="660.6" cy="121.8" r="7" fill="#ff5a36" stroke="#0a0c12" stroke-width="2.5" filter="url(#glow)"/>
<text x="660.6" y="125.2" font-size="9" font-weight="700" fill="#0a0c12" text-anchor="middle">5</text>
<circle cx="791.5" cy="105.4" r="7" fill="#ff5a36" stroke="#0a0c12" stroke-width="2.5" filter="url(#glow)"/>
<text x="791.5" y="108.8" font-size="9" font-weight="700" fill="#0a0c12" text-anchor="middle">6</text>
<circle cx="793.6" cy="218.8" r="7" fill="#ff5a36" stroke="#0a0c12" stroke-width="2.5" filter="url(#glow)"/>
<text x="793.6" y="222.2" font-size="9" font-weight="700" fill="#0a0c12" text-anchor="middle">7</text>
<circle cx="468.4" cy="503.9" r="7" fill="#ff5a36" stroke="#0a0c12" stroke-width="2.5" filter="url(#glow)"/>
<text x="468.4" y="507.3" font-size="9" font-weight="700" fill="#0a0c12" text-anchor="middle">8</text>
<circle cx="455.1" cy="520.8" r="7" fill="#ff5a36" stroke="#0a0c12" stroke-width="2.5" filter="url(#glow)"/>
<text x="455.1" y="524.2" font-size="9" font-weight="700" fill="#0a0c12" text-anchor="middle">9</text>
<circle cx="449.5" cy="562.9" r="7" fill="#ff5a36" stroke="#0a0c12" stroke-width="2.5" filter="url(#glow)"/>
<text x="449.5" y="566.3" font-size="9" font-weight="700" fill="#0a0c12" text-anchor="middle">10</text>
<circle cx="352.2" cy="894.9" r="7" fill="#ff5a36" stroke="#0a0c12" stroke-width="2.5" filter="url(#glow)"/>
<text x="352.2" y="898.3" font-size="9" font-weight="700" fill="#0a0c12" text-anchor="middle">11</text>
<line x1="375.5" y1="367.1" x2="329.4" y2="343.1" stroke="#ff5a36" stroke-opacity="0.45" stroke-width="1.3"/>
<text x="321.4" y="347.1" font-size="15" font-weight="600" fill="#eef2fb" text-anchor="end">Variante del Rettifilo</text>
<line x1="392.3" y1="204.0" x2="368.2" y2="162.0" stroke="#ff5a36" stroke-opacity="0.45" stroke-width="1.3"/>
<text x="360.2" y="166.0" font-size="15" font-weight="600" fill="#eef2fb" text-anchor="end">Curva Grande</text>
<line x1="645.7" y1="132.2" x2="665.8" y2="95.2" stroke="#ff5a36" stroke-opacity="0.45" stroke-width="1.3"/>
<text x="673.8" y="99.2" font-size="15" font-weight="600" fill="#eef2fb" text-anchor="start">Variante della Roggia</text>
<line x1="791.5" y1="105.4" x2="824.5" y2="65.2" stroke="#ff5a36" stroke-opacity="0.45" stroke-width="1.3"/>
<text x="832.5" y="69.2" font-size="15" font-weight="600" fill="#eef2fb" text-anchor="start">Curve di Lesmo</text>
<line x1="468.4" y1="503.9" x2="437.0" y2="545.3" stroke="#ff5a36" stroke-opacity="0.45" stroke-width="1.3"/>
<text x="429.0" y="549.3" font-size="15" font-weight="600" fill="#eef2fb" text-anchor="end">Variante Ascari</text>
<line x1="352.2" y1="894.9" x2="334.5" y2="943.8" stroke="#ff5a36" stroke-opacity="0.45" stroke-width="1.3"/>
<text x="326.5" y="947.8" font-size="15" font-weight="600" fill="#eef2fb" text-anchor="end">Curva Parabolica</text>
<text x="90" y="64" font-size="20" letter-spacing="5" fill="#ff5a36" font-weight="700">TRACK ATLAS</text>
<text x="90" y="108" font-size="42" font-weight="800" fill="#ffffff">AUTODROMO NAZIONALE MONZA</text>
<text x="90" y="136" font-size="16" fill="#9aa6bd">Monza, Temple of Speed</text>
<rect x="1170" y="200" width="360" height="710" rx="16" fill="#ffffff" fill-opacity="0.04" stroke="#ff5a36" stroke-opacity="0.5"/>
<text x="1198" y="250" font-size="13" letter-spacing="2" fill="#8794ab">LAYOUT</text>
<text x="1198" y="276" font-size="22" font-weight="700" fill="#eef2fb">Grand Prix Circuit</text>
<text x="1198" y="320" font-size="13" letter-spacing="2" fill="#8794ab">LENGTH</text>
<text x="1198" y="346" font-size="22" font-weight="700" fill="#eef2fb">5.793 km</text>
<text x="1198" y="390" font-size="13" letter-spacing="2" fill="#8794ab">CORNERS</text>
<text x="1198" y="416" font-size="22" font-weight="700" fill="#eef2fb">11</text>
<text x="1198" y="460" font-size="13" letter-spacing="2" fill="#8794ab">NAMED CORNERS</text>
<text x="1198" y="486" font-size="22" font-weight="700" fill="#eef2fb">6</text>
<text x="1198" y="530" font-size="13" letter-spacing="2" fill="#8794ab">DIRECTION</text>
<text x="1198" y="556" font-size="22" font-weight="700" fill="#eef2fb">Clockwise</text>
<text x="1198" y="600" font-size="13" letter-spacing="2" fill="#8794ab">SECTORS</text>
<text x="1198" y="626" font-size="22" font-weight="700" fill="#eef2fb">3</text>
<text x="1198" y="670" font-size="13" letter-spacing="2" fill="#8794ab">COUNTRY</text>
<text x="1198" y="696" font-size="22" font-weight="700" fill="#eef2fb">Italy</text>
<text x="1198" y="740" font-size="13" letter-spacing="2" fill="#8794ab">LOCATION</text>
<text x="1198" y="766" font-size="22" font-weight="700" fill="#eef2fb">Monza</text>
<text x="90" y="966" font-size="12" fill="#566177">Geometry © OpenStreetMap contributors (ODbL) · corner data: Lovely-Sim-Racing + curated · track-atlas</text>
<text x="90" y="942" font-size="12" fill="#8794ab">⚑ start / finish</text>
</svg>