<svg xmlns="http://www.w3.org/2000/svg" width="1600" height="1000" viewBox="0 0 1600 1000" font-family="Helvetica, Arial, sans-serif">
<defs>
      <radialGradient id="bg" cx="38%" cy="34%" r="85%">
        <stop offset="0%" stop-color="#1b2030"/>
        <stop offset="55%" stop-color="#12151f"/>
        <stop offset="100%" stop-color="#0a0c12"/>
      </radialGradient>
      <linearGradient id="accent" x1="0" y1="0" x2="1" y2="1">
        <stop offset="0%" stop-color="#ff5a36"/>
        <stop offset="100%" stop-color="#ffffff"/>
      </linearGradient>
      <filter id="glow" x="-40%" y="-40%" width="180%" height="180%">
        <feGaussianBlur stdDeviation="6" result="b"/>
        <feMerge><feMergeNode in="b"/><feMergeNode in="SourceGraphic"/></feMerge>
      </filter>
    </defs>
<rect width="1600" height="1000" fill="url(#bg)"/>
<line x1="0" y1="0" x2="0" y2="1000" stroke="#ffffff" stroke-opacity="0.025"/>
<line x1="56" y1="0" x2="56" y2="1000" stroke="#ffffff" stroke-opacity="0.025"/>
<line x1="112" y1="0" x2="112" y2="1000" stroke="#ffffff" stroke-opacity="0.025"/>
<line x1="168" y1="0" x2="168" y2="1000" stroke="#ffffff" stroke-opacity="0.025"/>
<line x1="224" y1="0" x2="224" y2="1000" stroke="#ffffff" stroke-opacity="0.025"/>
<line x1="280" y1="0" x2="280" y2="1000" stroke="#ffffff" stroke-opacity="0.025"/>
<line x1="336" y1="0" x2="336" y2="1000" stroke="#ffffff" stroke-opacity="0.025"/>
<line x1="392" y1="0" x2="392" y2="1000" stroke="#ffffff" stroke-opacity="0.025"/>
<line x1="448" y1="0" x2="448" y2="1000" stroke="#ffffff" stroke-opacity="0.025"/>
<line x1="504" y1="0" x2="504" y2="1000" stroke="#ffffff" stroke-opacity="0.025"/>
<line x1="560" y1="0" x2="560" y2="1000" stroke="#ffffff" stroke-opacity="0.025"/>
<line x1="616" y1="0" x2="616" y2="1000" stroke="#ffffff" stroke-opacity="0.025"/>
<line x1="672" y1="0" x2="672" y2="1000" stroke="#ffffff" stroke-opacity="0.025"/>
<line x1="728" y1="0" x2="728" y2="1000" stroke="#ffffff" stroke-opacity="0.025"/>
<line x1="784" y1="0" x2="784" y2="1000" stroke="#ffffff" stroke-opacity="0.025"/>
<line x1="840" y1="0" x2="840" y2="1000" stroke="#ffffff" stroke-opacity="0.025"/>
<line x1="896" y1="0" x2="896" y2="1000" stroke="#ffffff" stroke-opacity="0.025"/>
<line x1="952" y1="0" x2="952" y2="1000" stroke="#ffffff" stroke-opacity="0.025"/>
<line x1="1008" y1="0" x2="1008" y2="1000" stroke="#ffffff" stroke-opacity="0.025"/>
<line x1="1064" y1="0" x2="1064" y2="1000" stroke="#ffffff" stroke-opacity="0.025"/>
<line x1="1120" y1="0" x2="1120" y2="1000" stroke="#ffffff" stroke-opacity="0.025"/>
<line x1="1176" y1="0" x2="1176" y2="1000" stroke="#ffffff" stroke-opacity="0.025"/>
<line x1="1232" y1="0" x2="1232" y2="1000" stroke="#ffffff" stroke-opacity="0.025"/>
<line x1="1288" y1="0" x2="1288" y2="1000" stroke="#ffffff" stroke-opacity="0.025"/>
<line x1="1344" y1="0" x2="1344" y2="1000" stroke="#ffffff" stroke-opacity="0.025"/>
<line x1="1400" y1="0" x2="1400" y2="1000" stroke="#ffffff" stroke-opacity="0.025"/>
<line x1="1456" y1="0" x2="1456" y2="1000" stroke="#ffffff" stroke-opacity="0.025"/>
<line x1="1512" y1="0" x2="1512" y2="1000" stroke="#ffffff" stroke-opacity="0.025"/>
<line x1="1568" y1="0" x2="1568" y2="1000" stroke="#ffffff" stroke-opacity="0.025"/>
<line x1="0" y1="0" x2="1600" y2="0" stroke="#ffffff" stroke-opacity="0.025"/>
<line x1="0" y1="56" x2="1600" y2="56" stroke="#ffffff" stroke-opacity="0.025"/>
<line x1="0" y1="112" x2="1600" y2="112" stroke="#ffffff" stroke-opacity="0.025"/>
<line x1="0" y1="168" x2="1600" y2="168" stroke="#ffffff" stroke-opacity="0.025"/>
<line x1="0" y1="224" x2="1600" y2="224" stroke="#ffffff" stroke-opacity="0.025"/>
<line x1="0" y1="280" x2="1600" y2="280" stroke="#ffffff" stroke-opacity="0.025"/>
<line x1="0" y1="336" x2="1600" y2="336" stroke="#ffffff" stroke-opacity="0.025"/>
<line x1="0" y1="392" x2="1600" y2="392" stroke="#ffffff" stroke-opacity="0.025"/>
<line x1="0" y1="448" x2="1600" y2="448" stroke="#ffffff" stroke-opacity="0.025"/>
<line x1="0" y1="504" x2="1600" y2="504" stroke="#ffffff" stroke-opacity="0.025"/>
<line x1="0" y1="560" x2="1600" y2="560" stroke="#ffffff" stroke-opacity="0.025"/>
<line x1="0" y1="616" x2="1600" y2="616" stroke="#ffffff" stroke-opacity="0.025"/>
<line x1="0" y1="672" x2="1600" y2="672" stroke="#ffffff" stroke-opacity="0.025"/>
<line x1="0" y1="728" x2="1600" y2="728" stroke="#ffffff" stroke-opacity="0.025"/>
<line x1="0" y1="784" x2="1600" y2="784" stroke="#ffffff" stroke-opacity="0.025"/>
<line x1="0" y1="840" x2="1600" y2="840" stroke="#ffffff" stroke-opacity="0.025"/>
<line x1="0" y1="896" x2="1600" y2="896" stroke="#ffffff" stroke-opacity="0.025"/>
<line x1="0" y1="952" x2="1600" y2="952" stroke="#ffffff" stroke-opacity="0.025"/>
<path d="M 973.6,639.8 L 975.9,638.5 L 977.6,637.6 L 979.0,637.0 L 981.0,636.1 L 982.9,635.6 L 984.6,635.2 L 986.1,635.0 L 988.2,634.9 L 989.7,635.0 L 991.2,635.2 L 992.9,635.6 L 994.3,635.9 L 995.7,636.5 L 996.9,637.1 L 998.1,637.7 L 999.4,638.7 L 1000.8,640.0 L 1002.2,641.5 L 1003.5,643.1 L 1004.9,645.1 L 1006.2,647.7 L 1007.3,650.4 L 1008.1,653.0 L 1008.5,655.6 L 1008.8,659.1 L 1008.9,662.3 L 1009.1,666.3 L 1008.2,670.1 L 1007.6,672.7 L 1006.8,675.2 L 1005.9,677.4 L 1004.7,679.5 L 1003.6,681.6 L 1002.3,683.7 L 1000.9,685.8 L 999.3,687.9 L 996.0,692.2 L 975.7,719.6 L 971.8,724.6 L 968.7,729.1 L 966.1,733.6 L 962.8,739.1 L 959.9,744.2 L 957.6,748.7 L 956.3,752.0 L 955.1,755.3 L 954.2,758.6 L 953.7,761.6 L 953.5,763.6 L 953.4,765.2 L 953.5,766.8 L 953.8,768.6 L 954.4,770.5 L 955.5,772.8 L 957.0,775.4 L 958.9,777.9 L 960.7,780.2 L 962.9,782.5 L 966.0,785.3 L 970.1,788.4 L 974.0,790.7 L 977.9,792.6 L 981.7,794.0 L 985.4,794.9 L 990.2,795.6 L 994.4,795.8 L 999.0,795.5 L 1003.1,794.9 L 1007.1,794.0 L 1010.6,792.9 L 1013.2,791.9 L 1015.6,790.7 L 1017.4,789.8 L 1019.6,788.4 L 1021.3,787.1 L 1023.0,785.6 L 1025.3,783.5 L 1027.1,781.8 L 1028.5,780.2 L 1030.1,778.0 L 1031.8,775.6 L 1033.6,772.4 L 1035.0,769.8 L 1036.3,767.3 L 1037.3,764.7 L 1038.0,761.9 L 1038.6,759.0 L 1039.0,756.6 L 1039.3,753.7 L 1039.5,751.3 L 1039.5,748.7 L 1039.5,745.6 L 1040.0,683.0 L 1039.8,654.1 L 1039.7,651.4 L 1039.5,648.0 L 1039.3,645.0 L 1038.9,642.2 L 1038.4,639.1 L 1037.8,635.7 L 1037.0,632.5 L 1036.0,628.8 L 1034.9,625.1 L 1033.8,621.9 L 1032.7,618.7 L 1031.2,615.4 L 1029.8,612.9 L 1028.1,610.4 L 1026.3,608.1 L 1024.4,605.8 L 1022.8,604.0 L 1020.9,601.9 L 1018.9,599.7 L 1016.9,597.7 L 1014.9,595.7 L 1012.7,593.6 L 1010.4,591.6 L 1008.2,589.9 L 1005.8,588.3 L 1003.6,587.1 L 1001.2,585.9 L 998.7,584.7 L 996.0,583.7 L 761.2,495.7 L 644.6,452.3 L 619.1,442.7 L 594.7,433.8 L 513.9,403.5 L 497.1,397.2 L 482.9,391.8 L 418.2,367.7 L 417.2,367.3 L 321.5,331.7 L 301.4,324.2 L 202.7,287.1 L 198.5,285.5 L 194.7,283.8 L 191.6,282.0 L 189.4,280.5 L 187.5,279.0 L 185.7,277.1 L 184.5,275.5 L 183.6,273.7 L 182.4,271.6 L 181.4,269.6 L 180.3,267.1 L 177.4,260.4 L 174.6,253.6 L 171.8,247.0 L 168.1,239.7 L 164.1,233.2 L 160.8,228.7 L 156.8,224.1 L 152.4,219.8 L 148.5,216.4 L 144.1,213.2 L 139.8,210.4 L 136.4,208.5 L 133.2,206.9 L 130.9,205.8 L 128.8,205.1 L 126.9,204.6 L 125.2,204.3 L 123.2,204.2 L 120.1,204.4 L 117.0,204.9 L 114.5,205.7 L 112.1,206.6 L 109.3,208.3 L 107.9,209.3 L 106.1,210.9 L 105.0,212.2 L 103.8,213.9 L 103.1,215.2 L 102.5,216.8 L 101.7,219.1 L 97.1,232.1 L 92.1,246.7 L 91.5,248.3 L 91.0,249.5 L 90.5,251.0 L 90.1,252.2 L 90.0,253.2 L 90.0,253.8 L 90.3,254.7 L 90.6,255.5 L 91.2,256.4 L 91.7,257.0 L 92.5,257.5 L 93.4,258.0 L 94.6,258.3 L 96.2,258.6 L 97.8,258.6 L 99.8,258.4 L 123.8,255.7 L 125.6,255.5 L 127.5,255.5 L 129.2,255.7 L 130.8,255.9 L 132.7,256.1 L 134.4,256.5 L 135.9,257.1 L 137.6,257.7 L 139.2,258.5 L 141.0,259.8 L 142.6,260.9 L 144.2,262.2 L 145.4,263.5 L 146.7,265.0 L 147.9,266.9 L 149.0,269.1 L 149.7,271.2 L 150.2,273.3 L 150.3,275.3 L 150.3,277.4 L 150.1,279.3 L 148.7,288.9 L 148.3,291.6 L 148.2,293.1 L 148.2,294.5 L 148.4,296.3 L 148.7,297.8 L 149.2,299.4 L 149.7,300.9 L 150.6,302.5 L 151.6,303.7 L 152.4,304.7 L 153.4,305.7 L 154.4,306.5 L 157.1,308.5 L 160.6,310.8 L 164.4,313.2 L 168.5,315.6 L 172.3,317.8 L 176.7,320.5 L 183.6,324.5 L 191.9,329.0 L 200.3,333.4 L 207.9,336.9 L 214.9,339.7 L 220.8,341.9 L 225.8,343.8 L 229.6,345.2 L 232.8,346.7 L 236.1,348.2 L 239.3,350.0 L 242.4,351.7 L 245.5,353.4 L 248.3,355.1 L 251.7,357.2 L 255.6,359.6 L 257.6,361.0 L 259.7,362.5 L 264.1,365.5 L 268.5,368.8 L 288.8,384.3 L 296.4,390.1 L 300.5,393.5 L 303.3,396.0 L 306.7,399.2 L 309.4,402.1 L 312.8,405.8 L 316.2,409.1 L 319.7,412.3 L 323.0,414.9 L 325.0,416.3 L 327.1,417.6 L 330.7,419.5 L 354.4,431.9 L 356.8,433.0 L 358.9,433.7 L 361.1,434.2 L 363.3,434.4 L 366.6,434.5 L 369.6,434.2 L 372.4,433.7 L 374.5,433.1 L 376.7,432.4 L 379.0,431.1 L 382.6,428.8 L 402.9,413.5 L 404.1,412.9 L 405.2,412.4 L 406.4,412.1 L 407.8,411.8 L 410.3,411.7 L 413.0,411.9 L 415.9,412.6 L 418.3,413.7 L 424.4,417.3 L 440.8,429.7 L 463.1,446.8 L 465.4,448.5 L 514.7,486.1 L 637.7,579.1 L 644.4,584.2 L 722.6,644.4 L 743.8,660.3 L 753.3,667.5 L 755.4,668.9 L 757.7,670.1 L 758.5,670.5 L 759.3,670.7 L 760.1,670.7 L 760.9,670.7 L 761.8,670.6 L 762.6,670.4 L 763.2,670.1 L 763.9,669.5 L 764.5,669.0 L 765.0,668.5 L 765.5,667.9 L 765.8,667.3 L 766.1,666.5 L 766.4,665.0 L 766.6,663.6 L 766.8,661.7 L 767.0,652.8 L 767.3,634.4 L 767.4,631.3 L 767.7,628.4 L 768.0,627.1 L 768.4,626.0 L 769.4,623.9 L 770.6,621.9 L 772.1,619.7 L 773.4,618.1 L 774.1,617.4 L 774.8,616.7 L 776.8,615.0 L 779.7,612.8 L 782.9,610.7 L 786.4,609.1 L 788.3,608.2 L 790.0,607.5 L 791.8,607.0 L 795.0,606.5 L 798.3,606.2 L 802.1,606.2 L 805.1,606.4 L 807.9,606.9 L 810.5,607.5 L 813.2,608.5 L 815.7,609.6 L 818.0,610.9 L 820.7,612.7 L 823.1,614.7 L 825.6,616.9 L 827.6,619.0 L 830.3,621.8 L 832.7,624.4 L 836.2,627.9 L 840.4,631.6 L 844.9,635.6 L 849.3,639.1 L 853.9,642.4 L 858.2,645.0 L 862.2,647.2 L 866.6,649.3 L 871.6,651.4 L 876.1,653.1 L 880.5,654.4 L 885.3,655.6 L 889.2,656.4 L 893.5,657.2 L 897.3,657.7 L 901.1,658.0 L 905.7,658.2 L 910.7,658.3 L 915.3,658.1 L 920.3,657.8 L 925.1,657.3 L 929.7,656.8 L 934.4,655.9 L 938.7,654.9 L 942.6,654.0 L 946.2,653.0 L 949.8,651.8 L 953.7,650.2 L 957.5,648.6 L 962.4,646.3 L 967.1,643.7 L 970.5,641.7 L 973.6,639.8 Z" fill="none" stroke="#000000" stroke-opacity="0.5" stroke-width="13" stroke-linejoin="round" stroke-linecap="round"/>
<path d="M 973.6,639.8 L 975.9,638.5 L 977.6,637.6 L 979.0,637.0 L 981.0,636.1 L 982.9,635.6 L 984.6,635.2 L 986.1,635.0 L 988.2,634.9 L 989.7,635.0 L 991.2,635.2 L 992.9,635.6 L 994.3,635.9 L 995.7,636.5 L 996.9,637.1 L 998.1,637.7 L 999.4,638.7 L 1000.8,640.0 L 1002.2,641.5 L 1003.5,643.1 L 1004.9,645.1 L 1006.2,647.7 L 1007.3,650.4 L 1008.1,653.0 L 1008.5,655.6 L 1008.8,659.1 L 1008.9,662.3 L 1009.1,666.3 L 1008.2,670.1 L 1007.6,672.7 L 1006.8,675.2 L 1005.9,677.4 L 1004.7,679.5 L 1003.6,681.6 L 1002.3,683.7 L 1000.9,685.8 L 999.3,687.9 L 996.0,692.2 L 975.7,719.6 L 971.8,724.6 L 968.7,729.1 L 966.1,733.6 L 962.8,739.1 L 959.9,744.2 L 957.6,748.7 L 956.3,752.0 L 955.1,755.3 L 954.2,758.6 L 953.7,761.6 L 953.5,763.6 L 953.4,765.2 L 953.5,766.8 L 953.8,768.6 L 954.4,770.5 L 955.5,772.8 L 957.0,775.4 L 958.9,777.9 L 960.7,780.2 L 962.9,782.5 L 966.0,785.3 L 970.1,788.4 L 974.0,790.7 L 977.9,792.6 L 981.7,794.0 L 985.4,794.9 L 990.2,795.6 L 994.4,795.8 L 999.0,795.5 L 1003.1,794.9 L 1007.1,794.0 L 1010.6,792.9 L 1013.2,791.9 L 1015.6,790.7 L 1017.4,789.8 L 1019.6,788.4 L 1021.3,787.1 L 1023.0,785.6 L 1025.3,783.5 L 1027.1,781.8 L 1028.5,780.2 L 1030.1,778.0 L 1031.8,775.6 L 1033.6,772.4 L 1035.0,769.8 L 1036.3,767.3 L 1037.3,764.7 L 1038.0,761.9 L 1038.6,759.0 L 1039.0,756.6 L 1039.3,753.7 L 1039.5,751.3 L 1039.5,748.7 L 1039.5,745.6 L 1040.0,683.0 L 1039.8,654.1 L 1039.7,651.4 L 1039.5,648.0 L 1039.3,645.0 L 1038.9,642.2 L 1038.4,639.1 L 1037.8,635.7 L 1037.0,632.5 L 1036.0,628.8 L 1034.9,625.1 L 1033.8,621.9 L 1032.7,618.7 L 1031.2,615.4 L 1029.8,612.9 L 1028.1,610.4 L 1026.3,608.1 L 1024.4,605.8 L 1022.8,604.0 L 1020.9,601.9 L 1018.9,599.7 L 1016.9,597.7 L 1014.9,595.7 L 1012.7,593.6 L 1010.4,591.6 L 1008.2,589.9 L 1005.8,588.3 L 1003.6,587.1 L 1001.2,585.9 L 998.7,584.7 L 996.0,583.7 L 761.2,495.7 L 644.6,452.3 L 619.1,442.7 L 594.7,433.8 L 513.9,403.5 L 497.1,397.2 L 482.9,391.8 L 418.2,367.7 L 417.2,367.3 L 321.5,331.7 L 301.4,324.2 L 202.7,287.1 L 198.5,285.5 L 194.7,283.8 L 191.6,282.0 L 189.4,280.5 L 187.5,279.0 L 185.7,277.1 L 184.5,275.5 L 183.6,273.7 L 182.4,271.6 L 181.4,269.6 L 180.3,267.1 L 177.4,260.4 L 174.6,253.6 L 171.8,247.0 L 168.1,239.7 L 164.1,233.2 L 160.8,228.7 L 156.8,224.1 L 152.4,219.8 L 148.5,216.4 L 144.1,213.2 L 139.8,210.4 L 136.4,208.5 L 133.2,206.9 L 130.9,205.8 L 128.8,205.1 L 126.9,204.6 L 125.2,204.3 L 123.2,204.2 L 120.1,204.4 L 117.0,204.9 L 114.5,205.7 L 112.1,206.6 L 109.3,208.3 L 107.9,209.3 L 106.1,210.9 L 105.0,212.2 L 103.8,213.9 L 103.1,215.2 L 102.5,216.8 L 101.7,219.1 L 97.1,232.1 L 92.1,246.7 L 91.5,248.3 L 91.0,249.5 L 90.5,251.0 L 90.1,252.2 L 90.0,253.2 L 90.0,253.8 L 90.3,254.7 L 90.6,255.5 L 91.2,256.4 L 91.7,257.0 L 92.5,257.5 L 93.4,258.0 L 94.6,258.3 L 96.2,258.6 L 97.8,258.6 L 99.8,258.4 L 123.8,255.7 L 125.6,255.5 L 127.5,255.5 L 129.2,255.7 L 130.8,255.9 L 132.7,256.1 L 134.4,256.5 L 135.9,257.1 L 137.6,257.7 L 139.2,258.5 L 141.0,259.8 L 142.6,260.9 L 144.2,262.2 L 145.4,263.5 L 146.7,265.0 L 147.9,266.9 L 149.0,269.1 L 149.7,271.2 L 150.2,273.3 L 150.3,275.3 L 150.3,277.4 L 150.1,279.3 L 148.7,288.9 L 148.3,291.6 L 148.2,293.1 L 148.2,294.5 L 148.4,296.3 L 148.7,297.8 L 149.2,299.4 L 149.7,300.9 L 150.6,302.5 L 151.6,303.7 L 152.4,304.7 L 153.4,305.7 L 154.4,306.5 L 157.1,308.5 L 160.6,310.8 L 164.4,313.2 L 168.5,315.6 L 172.3,317.8 L 176.7,320.5 L 183.6,324.5 L 191.9,329.0 L 200.3,333.4 L 207.9,336.9 L 214.9,339.7 L 220.8,341.9 L 225.8,343.8 L 229.6,345.2 L 232.8,346.7 L 236.1,348.2 L 239.3,350.0 L 242.4,351.7 L 245.5,353.4 L 248.3,355.1 L 251.7,357.2 L 255.6,359.6 L 257.6,361.0 L 259.7,362.5 L 264.1,365.5 L 268.5,368.8 L 288.8,384.3 L 296.4,390.1 L 300.5,393.5 L 303.3,396.0 L 306.7,399.2 L 309.4,402.1 L 312.8,405.8 L 316.2,409.1 L 319.7,412.3 L 323.0,414.9 L 325.0,416.3 L 327.1,417.6 L 330.7,419.5 L 354.4,431.9 L 356.8,433.0 L 358.9,433.7 L 361.1,434.2 L 363.3,434.4 L 366.6,434.5 L 369.6,434.2 L 372.4,433.7 L 374.5,433.1 L 376.7,432.4 L 379.0,431.1 L 382.6,428.8 L 402.9,413.5 L 404.1,412.9 L 405.2,412.4 L 406.4,412.1 L 407.8,411.8 L 410.3,411.7 L 413.0,411.9 L 415.9,412.6 L 418.3,413.7 L 424.4,417.3 L 440.8,429.7 L 463.1,446.8 L 465.4,448.5 L 514.7,486.1 L 637.7,579.1 L 644.4,584.2 L 722.6,644.4 L 743.8,660.3 L 753.3,667.5 L 755.4,668.9 L 757.7,670.1 L 758.5,670.5 L 759.3,670.7 L 760.1,670.7 L 760.9,670.7 L 761.8,670.6 L 762.6,670.4 L 763.2,670.1 L 763.9,669.5 L 764.5,669.0 L 765.0,668.5 L 765.5,667.9 L 765.8,667.3 L 766.1,666.5 L 766.4,665.0 L 766.6,663.6 L 766.8,661.7 L 767.0,652.8 L 767.3,634.4 L 767.4,631.3 L 767.7,628.4 L 768.0,627.1 L 768.4,626.0 L 769.4,623.9 L 770.6,621.9 L 772.1,619.7 L 773.4,618.1 L 774.1,617.4 L 774.8,616.7 L 776.8,615.0 L 779.7,612.8 L 782.9,610.7 L 786.4,609.1 L 788.3,608.2 L 790.0,607.5 L 791.8,607.0 L 795.0,606.5 L 798.3,606.2 L 802.1,606.2 L 805.1,606.4 L 807.9,606.9 L 810.5,607.5 L 813.2,608.5 L 815.7,609.6 L 818.0,610.9 L 820.7,612.7 L 823.1,614.7 L 825.6,616.9 L 827.6,619.0 L 830.3,621.8 L 832.7,624.4 L 836.2,627.9 L 840.4,631.6 L 844.9,635.6 L 849.3,639.1 L 853.9,642.4 L 858.2,645.0 L 862.2,647.2 L 866.6,649.3 L 871.6,651.4 L 876.1,653.1 L 880.5,654.4 L 885.3,655.6 L 889.2,656.4 L 893.5,657.2 L 897.3,657.7 L 901.1,658.0 L 905.7,658.2 L 910.7,658.3 L 915.3,658.1 L 920.3,657.8 L 925.1,657.3 L 929.7,656.8 L 934.4,655.9 L 938.7,654.9 L 942.6,654.0 L 946.2,653.0 L 949.8,651.8 L 953.7,650.2 L 957.5,648.6 L 962.4,646.3 L 967.1,643.7 L 970.5,641.7 L 973.6,639.8 Z" fill="none" stroke="#39404f" stroke-width="8.5" stroke-linejoin="round" stroke-linecap="round"/>
<path d="M 973.6,639.8 L 975.9,638.5 L 977.6,637.6 L 979.0,637.0 L 981.0,636.1 L 982.9,635.6 L 984.6,635.2 L 986.1,635.0 L 988.2,634.9 L 989.7,635.0 L 991.2,635.2 L 992.9,635.6 L 994.3,635.9 L 995.7,636.5 L 996.9,637.1 L 998.1,637.7 L 999.4,638.7 L 1000.8,640.0 L 1002.2,641.5 L 1003.5,643.1 L 1004.9,645.1 L 1006.2,647.7 L 1007.3,650.4 L 1008.1,653.0 L 1008.5,655.6 L 1008.8,659.1 L 1008.9,662.3 L 1009.1,666.3 L 1008.2,670.1 L 1007.6,672.7 L 1006.8,675.2 L 1005.9,677.4 L 1004.7,679.5 L 1003.6,681.6 L 1002.3,683.7 L 1000.9,685.8 L 999.3,687.9 L 996.0,692.2 L 975.7,719.6 L 971.8,724.6 L 968.7,729.1 L 966.1,733.6 L 962.8,739.1 L 959.9,744.2 L 957.6,748.7 L 956.3,752.0 L 955.1,755.3 L 954.2,758.6 L 953.7,761.6 L 953.5,763.6 L 953.4,765.2 L 953.5,766.8 L 953.8,768.6 L 954.4,770.5 L 955.5,772.8 L 957.0,775.4 L 958.9,777.9 L 960.7,780.2 L 962.9,782.5 L 966.0,785.3 L 970.1,788.4 L 974.0,790.7 L 977.9,792.6 L 981.7,794.0 L 985.4,794.9 L 990.2,795.6 L 994.4,795.8 L 999.0,795.5 L 1003.1,794.9 L 1007.1,794.0 L 1010.6,792.9 L 1013.2,791.9 L 1015.6,790.7 L 1017.4,789.8 L 1019.6,788.4 L 1021.3,787.1 L 1023.0,785.6 L 1025.3,783.5 L 1027.1,781.8 L 1028.5,780.2 L 1030.1,778.0 L 1031.8,775.6 L 1033.6,772.4 L 1035.0,769.8 L 1036.3,767.3 L 1037.3,764.7 L 1038.0,761.9 L 1038.6,759.0 L 1039.0,756.6 L 1039.3,753.7 L 1039.5,751.3 L 1039.5,748.7 L 1039.5,745.6 L 1040.0,683.0 L 1039.8,654.1 L 1039.7,651.4 L 1039.5,648.0 L 1039.3,645.0 L 1038.9,642.2 L 1038.4,639.1 L 1037.8,635.7 L 1037.0,632.5 L 1036.0,628.8 L 1034.9,625.1 L 1033.8,621.9 L 1032.7,618.7 L 1031.2,615.4 L 1029.8,612.9 L 1028.1,610.4 L 1026.3,608.1 L 1024.4,605.8 L 1022.8,604.0 L 1020.9,601.9 L 1018.9,599.7 L 1016.9,597.7 L 1014.9,595.7 L 1012.7,593.6 L 1010.4,591.6 L 1008.2,589.9 L 1005.8,588.3 L 1003.6,587.1 L 1001.2,585.9 L 998.7,584.7 L 996.0,583.7 L 761.2,495.7 L 644.6,452.3 L 619.1,442.7 L 594.7,433.8 L 513.9,403.5 L 497.1,397.2 L 482.9,391.8 L 418.2,367.7 L 417.2,367.3 L 321.5,331.7 L 301.4,324.2 L 202.7,287.1 L 198.5,285.5 L 194.7,283.8 L 191.6,282.0 L 189.4,280.5 L 187.5,279.0 L 185.7,277.1 L 184.5,275.5 L 183.6,273.7 L 182.4,271.6 L 181.4,269.6 L 180.3,267.1 L 177.4,260.4 L 174.6,253.6 L 171.8,247.0 L 168.1,239.7 L 164.1,233.2 L 160.8,228.7 L 156.8,224.1 L 152.4,219.8 L 148.5,216.4 L 144.1,213.2 L 139.8,210.4 L 136.4,208.5 L 133.2,206.9 L 130.9,205.8 L 128.8,205.1 L 126.9,204.6 L 125.2,204.3 L 123.2,204.2 L 120.1,204.4 L 117.0,204.9 L 114.5,205.7 L 112.1,206.6 L 109.3,208.3 L 107.9,209.3 L 106.1,210.9 L 105.0,212.2 L 103.8,213.9 L 103.1,215.2 L 102.5,216.8 L 101.7,219.1 L 97.1,232.1 L 92.1,246.7 L 91.5,248.3 L 91.0,249.5 L 90.5,251.0 L 90.1,252.2 L 90.0,253.2 L 90.0,253.8 L 90.3,254.7 L 90.6,255.5 L 91.2,256.4 L 91.7,257.0 L 92.5,257.5 L 93.4,258.0 L 94.6,258.3 L 96.2,258.6 L 97.8,258.6 L 99.8,258.4 L 123.8,255.7 L 125.6,255.5 L 127.5,255.5 L 129.2,255.7 L 130.8,255.9 L 132.7,256.1 L 134.4,256.5 L 135.9,257.1 L 137.6,257.7 L 139.2,258.5 L 141.0,259.8 L 142.6,260.9 L 144.2,262.2 L 145.4,263.5 L 146.7,265.0 L 147.9,266.9 L 149.0,269.1 L 149.7,271.2 L 150.2,273.3 L 150.3,275.3 L 150.3,277.4 L 150.1,279.3 L 148.7,288.9 L 148.3,291.6 L 148.2,293.1 L 148.2,294.5 L 148.4,296.3 L 148.7,297.8 L 149.2,299.4 L 149.7,300.9 L 150.6,302.5 L 151.6,303.7 L 152.4,304.7 L 153.4,305.7 L 154.4,306.5 L 157.1,308.5 L 160.6,310.8 L 164.4,313.2 L 168.5,315.6 L 172.3,317.8 L 176.7,320.5 L 183.6,324.5 L 191.9,329.0 L 200.3,333.4 L 207.9,336.9 L 214.9,339.7 L 220.8,341.9 L 225.8,343.8 L 229.6,345.2 L 232.8,346.7 L 236.1,348.2 L 239.3,350.0 L 242.4,351.7 L 245.5,353.4 L 248.3,355.1 L 251.7,357.2 L 255.6,359.6 L 257.6,361.0 L 259.7,362.5 L 264.1,365.5 L 268.5,368.8 L 288.8,384.3 L 296.4,390.1 L 300.5,393.5 L 303.3,396.0 L 306.7,399.2 L 309.4,402.1 L 312.8,405.8 L 316.2,409.1 L 319.7,412.3 L 323.0,414.9 L 325.0,416.3 L 327.1,417.6 L 330.7,419.5 L 354.4,431.9 L 356.8,433.0 L 358.9,433.7 L 361.1,434.2 L 363.3,434.4 L 366.6,434.5 L 369.6,434.2 L 372.4,433.7 L 374.5,433.1 L 376.7,432.4 L 379.0,431.1 L 382.6,428.8 L 402.9,413.5 L 404.1,412.9 L 405.2,412.4 L 406.4,412.1 L 407.8,411.8 L 410.3,411.7 L 413.0,411.9 L 415.9,412.6 L 418.3,413.7 L 424.4,417.3 L 440.8,429.7 L 463.1,446.8 L 465.4,448.5 L 514.7,486.1 L 637.7,579.1 L 644.4,584.2 L 722.6,644.4 L 743.8,660.3 L 753.3,667.5 L 755.4,668.9 L 757.7,670.1 L 758.5,670.5 L 759.3,670.7 L 760.1,670.7 L 760.9,670.7 L 761.8,670.6 L 762.6,670.4 L 763.2,670.1 L 763.9,669.5 L 764.5,669.0 L 765.0,668.5 L 765.5,667.9 L 765.8,667.3 L 766.1,666.5 L 766.4,665.0 L 766.6,663.6 L 766.8,661.7 L 767.0,652.8 L 767.3,634.4 L 767.4,631.3 L 767.7,628.4 L 768.0,627.1 L 768.4,626.0 L 769.4,623.9 L 770.6,621.9 L 772.1,619.7 L 773.4,618.1 L 774.1,617.4 L 774.8,616.7 L 776.8,615.0 L 779.7,612.8 L 782.9,610.7 L 786.4,609.1 L 788.3,608.2 L 790.0,607.5 L 791.8,607.0 L 795.0,606.5 L 798.3,606.2 L 802.1,606.2 L 805.1,606.4 L 807.9,606.9 L 810.5,607.5 L 813.2,608.5 L 815.7,609.6 L 818.0,610.9 L 820.7,612.7 L 823.1,614.7 L 825.6,616.9 L 827.6,619.0 L 830.3,621.8 L 832.7,624.4 L 836.2,627.9 L 840.4,631.6 L 844.9,635.6 L 849.3,639.1 L 853.9,642.4 L 858.2,645.0 L 862.2,647.2 L 866.6,649.3 L 871.6,651.4 L 876.1,653.1 L 880.5,654.4 L 885.3,655.6 L 889.2,656.4 L 893.5,657.2 L 897.3,657.7 L 901.1,658.0 L 905.7,658.2 L 910.7,658.3 L 915.3,658.1 L 920.3,657.8 L 925.1,657.3 L 929.7,656.8 L 934.4,655.9 L 938.7,654.9 L 942.6,654.0 L 946.2,653.0 L 949.8,651.8 L 953.7,650.2 L 957.5,648.6 L 962.4,646.3 L 967.1,643.7 L 970.5,641.7 L 973.6,639.8 Z" fill="none" stroke="#e7edf8" stroke-width="2.6" stroke-linejoin="round" stroke-linecap="round"/>
<path d="M 973.6,639.8 L 975.9,638.5 L 977.6,637.6 L 979.0,637.0 L 981.0,636.1 L 982.9,635.6 L 984.6,635.2 L 986.1,635.0 L 988.2,634.9 L 989.7,635.0 L 991.2,635.2 L 992.9,635.6 L 994.3,635.9 L 995.7,636.5 L 996.9,637.1 L 998.1,637.7 L 999.4,638.7 L 1000.8,640.0 L 1002.2,641.5 L 1003.5,643.1 L 1004.9,645.1 L 1006.2,647.7 L 1007.3,650.4 L 1008.1,653.0 L 1008.5,655.6 L 1008.8,659.1 L 1008.9,662.3 L 1009.1,666.3 L 1008.2,670.1 L 1007.6,672.7 L 1006.8,675.2 L 1005.9,677.4 L 1004.7,679.5 L 1003.6,681.6 L 1002.3,683.7 L 1000.9,685.8 L 999.3,687.9 L 996.0,692.2 L 975.7,719.6 L 971.8,724.6 L 968.7,729.1 L 966.1,733.6 L 962.8,739.1 L 959.9,744.2 L 957.6,748.7 L 956.3,752.0 L 955.1,755.3 L 954.2,758.6 L 953.7,761.6 L 953.5,763.6 L 953.4,765.2 L 953.5,766.8 L 953.8,768.6 L 954.4,770.5 L 955.5,772.8 L 957.0,775.4 L 958.9,777.9 L 960.7,780.2 L 962.9,782.5 L 966.0,785.3 L 970.1,788.4 L 974.0,790.7 L 977.9,792.6 L 981.7,794.0 L 985.4,794.9 L 990.2,795.6 L 994.4,795.8 L 999.0,795.5 L 1003.1,794.9 L 1007.1,794.0 L 1010.6,792.9 L 1013.2,791.9 L 1015.6,790.7 L 1017.4,789.8 L 1019.6,788.4 L 1021.3,787.1 L 1023.0,785.6 L 1025.3,783.5 L 1027.1,781.8 L 1028.5,780.2 L 1030.1,778.0 L 1031.8,775.6 L 1033.6,772.4 L 1035.0,769.8 L 1036.3,767.3 L 1037.3,764.7 L 1038.0,761.9 L 1038.6,759.0 L 1039.0,756.6 L 1039.3,753.7 L 1039.5,751.3 L 1039.5,748.7 L 1039.5,745.6 L 1040.0,683.0 L 1039.8,654.1 L 1039.7,651.4 L 1039.5,648.0 L 1039.3,645.0 L 1038.9,642.2 L 1038.4,639.1 L 1037.8,635.7 L 1037.0,632.5 L 1036.0,628.8 L 1034.9,625.1 L 1033.8,621.9 L 1032.7,618.7 L 1031.2,615.4 L 1029.8,612.9 L 1028.1,610.4 L 1026.3,608.1 L 1024.4,605.8 L 1022.8,604.0 L 1020.9,601.9 L 1018.9,599.7 L 1016.9,597.7 L 1014.9,595.7 L 1012.7,593.6 L 1010.4,591.6 L 1008.2,589.9 L 1005.8,588.3 L 1003.6,587.1 L 1001.2,585.9 L 998.7,584.7 L 996.0,583.7 L 761.2,495.7 L 644.6,452.3 L 619.1,442.7 L 594.7,433.8 L 513.9,403.5 L 497.1,397.2 L 482.9,391.8 L 418.2,367.7 L 417.2,367.3 L 321.5,331.7 L 301.4,324.2 L 202.7,287.1 L 198.5,285.5 L 194.7,283.8 L 191.6,282.0 L 189.4,280.5 L 187.5,279.0 L 185.7,277.1 L 184.5,275.5 L 183.6,273.7 L 182.4,271.6 L 181.4,269.6 L 180.3,267.1 L 177.4,260.4 L 174.6,253.6 L 171.8,247.0 L 168.1,239.7 L 164.1,233.2 L 160.8,228.7 L 156.8,224.1 L 152.4,219.8 L 148.5,216.4 L 144.1,213.2 L 139.8,210.4 L 136.4,208.5 L 133.2,206.9 L 130.9,205.8 L 128.8,205.1 L 126.9,204.6 L 125.2,204.3 L 123.2,204.2 L 120.1,204.4 L 117.0,204.9 L 114.5,205.7 L 112.1,206.6 L 109.3,208.3 L 107.9,209.3 L 106.1,210.9 L 105.0,212.2 L 103.8,213.9 L 103.1,215.2 L 102.5,216.8 L 101.7,219.1 L 97.1,232.1 L 92.1,246.7 L 91.5,248.3 L 91.0,249.5 L 90.5,251.0 L 90.1,252.2 L 90.0,253.2 L 90.0,253.8 L 90.3,254.7 L 90.6,255.5 L 91.2,256.4 L 91.7,257.0 L 92.5,257.5 L 93.4,258.0 L 94.6,258.3 L 96.2,258.6 L 97.8,258.6 L 99.8,258.4 L 123.8,255.7 L 125.6,255.5 L 127.5,255.5 L 129.2,255.7 L 130.8,255.9 L 132.7,256.1 L 134.4,256.5 L 135.9,257.1 L 137.6,257.7 L 139.2,258.5 L 141.0,259.8 L 142.6,260.9 L 144.2,262.2 L 145.4,263.5 L 146.7,265.0 L 147.9,266.9 L 149.0,269.1 L 149.7,271.2 L 150.2,273.3 L 150.3,275.3 L 150.3,277.4 L 150.1,279.3 L 148.7,288.9 L 148.3,291.6 L 148.2,293.1 L 148.2,294.5 L 148.4,296.3 L 148.7,297.8 L 149.2,299.4 L 149.7,300.9 L 150.6,302.5 L 151.6,303.7 L 152.4,304.7 L 153.4,305.7 L 154.4,306.5 L 157.1,308.5 L 160.6,310.8 L 164.4,313.2 L 168.5,315.6 L 172.3,317.8 L 176.7,320.5 L 183.6,324.5 L 191.9,329.0 L 200.3,333.4 L 207.9,336.9 L 214.9,339.7 L 220.8,341.9 L 225.8,343.8 L 229.6,345.2 L 232.8,346.7 L 236.1,348.2 L 239.3,350.0 L 242.4,351.7 L 245.5,353.4 L 248.3,355.1 L 251.7,357.2 L 255.6,359.6 L 257.6,361.0 L 259.7,362.5 L 264.1,365.5 L 268.5,368.8 L 288.8,384.3 L 296.4,390.1 L 300.5,393.5 L 303.3,396.0 L 306.7,399.2 L 309.4,402.1 L 312.8,405.8 L 316.2,409.1 L 319.7,412.3 L 323.0,414.9 L 325.0,416.3 L 327.1,417.6 L 330.7,419.5 L 354.4,431.9 L 356.8,433.0 L 358.9,433.7 L 361.1,434.2 L 363.3,434.4 L 366.6,434.5 L 369.6,434.2 L 372.4,433.7 L 374.5,433.1 L 376.7,432.4 L 379.0,431.1 L 382.6,428.8 L 402.9,413.5 L 404.1,412.9 L 405.2,412.4 L 406.4,412.1 L 407.8,411.8 L 410.3,411.7 L 413.0,411.9 L 415.9,412.6 L 418.3,413.7 L 424.4,417.3 L 440.8,429.7 L 463.1,446.8 L 465.4,448.5 L 514.7,486.1 L 637.7,579.1 L 644.4,584.2 L 722.6,644.4 L 743.8,660.3 L 753.3,667.5 L 755.4,668.9 L 757.7,670.1 L 758.5,670.5 L 759.3,670.7 L 760.1,670.7 L 760.9,670.7 L 761.8,670.6 L 762.6,670.4 L 763.2,670.1 L 763.9,669.5 L 764.5,669.0 L 765.0,668.5 L 765.5,667.9 L 765.8,667.3 L 766.1,666.5 L 766.4,665.0 L 766.6,663.6 L 766.8,661.7 L 767.0,652.8 L 767.3,634.4 L 767.4,631.3 L 767.7,628.4 L 768.0,627.1 L 768.4,626.0 L 769.4,623.9 L 770.6,621.9 L 772.1,619.7 L 773.4,618.1 L 774.1,617.4 L 774.8,616.7 L 776.8,615.0 L 779.7,612.8 L 782.9,610.7 L 786.4,609.1 L 788.3,608.2 L 790.0,607.5 L 791.8,607.0 L 795.0,606.5 L 798.3,606.2 L 802.1,606.2 L 805.1,606.4 L 807.9,606.9 L 810.5,607.5 L 813.2,608.5 L 815.7,609.6 L 818.0,610.9 L 820.7,612.7 L 823.1,614.7 L 825.6,616.9 L 827.6,619.0 L 830.3,621.8 L 832.7,624.4 L 836.2,627.9 L 840.4,631.6 L 844.9,635.6 L 849.3,639.1 L 853.9,642.4 L 858.2,645.0 L 862.2,647.2 L 866.6,649.3 L 871.6,651.4 L 876.1,653.1 L 880.5,654.4 L 885.3,655.6 L 889.2,656.4 L 893.5,657.2 L 897.3,657.7 L 901.1,658.0 L 905.7,658.2 L 910.7,658.3 L 915.3,658.1 L 920.3,657.8 L 925.1,657.3 L 929.7,656.8 L 934.4,655.9 L 938.7,654.9 L 942.6,654.0 L 946.2,653.0 L 949.8,651.8 L 953.7,650.2 L 957.5,648.6 L 962.4,646.3 L 967.1,643.7 L 970.5,641.7 L 973.6,639.8 Z" fill="none" stroke="#ff5a36" stroke-opacity="0.55" stroke-width="1.2" stroke-linejoin="round" filter="url(#glow)"/>
<circle cx="619.0" cy="565.0" r="13" fill="none" stroke="#ffffff" stroke-width="3"/>
<rect x="615.0" y="543.0" width="8" height="18" fill="#ffffff"/>
<circle cx="363.7" cy="401.4" r="7" fill="#ff5a36" stroke="#0a0c12" stroke-width="2.5" filter="url(#glow)"/>
<text x="363.7" y="404.8" font-size="9" font-weight="700" fill="#0a0c12" text-anchor="middle">1</text>
<circle cx="363.7" cy="401.4" r="7" fill="#ff5a36" stroke="#0a0c12" stroke-width="2.5" filter="url(#glow)"/>
<text x="363.7" y="404.8" font-size="9" font-weight="700" fill="#0a0c12" text-anchor="middle">2</text>
<circle cx="145.2" cy="279.1" r="7" fill="#ff5a36" stroke="#0a0c12" stroke-width="2.5" filter="url(#glow)"/>
<text x="145.2" y="282.5" font-size="9" font-weight="700" fill="#0a0c12" text-anchor="middle">3</text>
<circle cx="132.0" cy="256.0" r="7" fill="#ff5a36" stroke="#0a0c12" stroke-width="2.5" filter="url(#glow)"/>
<text x="132.0" y="259.4" font-size="9" font-weight="700" fill="#0a0c12" text-anchor="middle">4</text>
<circle cx="94.4" cy="253.5" r="7" fill="#ff5a36" stroke="#0a0c12" stroke-width="2.5" filter="url(#glow)"/>
<text x="94.4" y="256.9" font-size="9" font-weight="700" fill="#0a0c12" text-anchor="middle">5</text>
<circle cx="97.4" cy="231.3" r="7" fill="#ff5a36" stroke="#0a0c12" stroke-width="2.5" filter="url(#glow)"/>
<text x="97.4" y="234.7" font-size="9" font-weight="700" fill="#0a0c12" text-anchor="middle">6</text>
<circle cx="123.4" cy="212.0" r="7" fill="#ff5a36" stroke="#0a0c12" stroke-width="2.5" filter="url(#glow)"/>
<text x="123.4" y="215.4" font-size="9" font-weight="700" fill="#0a0c12" text-anchor="middle">7</text>
<circle cx="1008.7" cy="590.3" r="7" fill="#ff5a36" stroke="#0a0c12" stroke-width="2.5" filter="url(#glow)"/>
<text x="1008.7" y="593.7" font-size="9" font-weight="700" fill="#0a0c12" text-anchor="middle">8</text>
<circle cx="994.8" cy="772.5" r="7" fill="#ff5a36" stroke="#0a0c12" stroke-width="2.5" filter="url(#glow)"/>
<text x="994.8" y="775.9" font-size="9" font-weight="700" fill="#0a0c12" text-anchor="middle">9</text>
<circle cx="994.9" cy="642.3" r="7" fill="#ff5a36" stroke="#0a0c12" stroke-width="2.5" filter="url(#glow)"/>
<text x="994.9" y="645.7" font-size="9" font-weight="700" fill="#0a0c12" text-anchor="middle">10</text>
<circle cx="900.5" cy="657.9" r="7" fill="#ff5a36" stroke="#0a0c12" stroke-width="2.5" filter="url(#glow)"/>
<text x="900.5" y="661.3" font-size="9" font-weight="700" fill="#0a0c12" text-anchor="middle">11</text>
<circle cx="795.8" cy="606.4" r="7" fill="#ff5a36" stroke="#0a0c12" stroke-width="2.5" filter="url(#glow)"/>
<text x="795.8" y="609.8" font-size="9" font-weight="700" fill="#0a0c12" text-anchor="middle">12</text>
<circle cx="761.6" cy="667.2" r="7" fill="#ff5a36" stroke="#0a0c12" stroke-width="2.5" filter="url(#glow)"/>
<text x="761.6" y="670.6" font-size="9" font-weight="700" fill="#0a0c12" text-anchor="middle">13</text>
<line x1="363.7" y1="401.4" x2="316.1" y2="380.4" stroke="#ff5a36" stroke-opacity="0.45" stroke-width="1.3"/>
<text x="308.1" y="384.4" font-size="15" font-weight="600" fill="#eef2fb" text-anchor="end">Virage de la Verrerie</text>
<line x1="363.7" y1="401.4" x2="316.1" y2="410.4" stroke="#ff5a36" stroke-opacity="0.45" stroke-width="1.3"/>
<text x="308.1" y="414.4" font-size="15" font-weight="600" fill="#eef2fb" text-anchor="end">Virage de la Verrerie</text>
<line x1="145.2" y1="279.1" x2="98.6" y2="304.8" stroke="#ff5a36" stroke-opacity="0.45" stroke-width="1.3"/>
<text x="90.6" y="308.8" font-size="15" font-weight="600" fill="#eef2fb" text-anchor="end">Virage de l'Hotel</text>
<line x1="132.0" y1="256.0" x2="86.1" y2="274.8" stroke="#ff5a36" stroke-opacity="0.45" stroke-width="1.3"/>
<text x="78.1" y="278.8" font-size="15" font-weight="600" fill="#eef2fb" text-anchor="end">Saint Baume</text>
<line x1="94.4" y1="253.5" x2="47.9" y2="244.8" stroke="#ff5a36" stroke-opacity="0.45" stroke-width="1.3"/>
<text x="39.9" y="248.8" font-size="15" font-weight="600" fill="#eef2fb" text-anchor="end">Virage du Camp</text>
<line x1="97.4" y1="231.3" x2="51.7" y2="214.8" stroke="#ff5a36" stroke-opacity="0.45" stroke-width="1.3"/>
<text x="43.7" y="218.8" font-size="15" font-weight="600" fill="#eef2fb" text-anchor="end">Virage du Camp</text>
<line x1="123.4" y1="212.0" x2="79.0" y2="184.8" stroke="#ff5a36" stroke-opacity="0.45" stroke-width="1.3"/>
<text x="71.0" y="188.8" font-size="15" font-weight="600" fill="#eef2fb" text-anchor="end">Sainte-Baume</text>
<line x1="1008.7" y1="590.3" x2="1059.7" y2="600.5" stroke="#ff5a36" stroke-opacity="0.45" stroke-width="1.3"/>
<text x="1067.7" y="604.5" font-size="15" font-weight="600" fill="#eef2fb" text-anchor="start">Signes</text>
<line x1="994.8" y1="772.5" x2="1037.8" y2="801.9" stroke="#ff5a36" stroke-opacity="0.45" stroke-width="1.3"/>
<text x="1045.8" y="805.9" font-size="15" font-weight="600" fill="#eef2fb" text-anchor="start">Beausset</text>
<line x1="994.9" y1="642.3" x2="1044.0" y2="660.5" stroke="#ff5a36" stroke-opacity="0.45" stroke-width="1.3"/>
<text x="1052.0" y="664.5" font-size="15" font-weight="600" fill="#eef2fb" text-anchor="start">Bendor</text>
<line x1="900.5" y1="657.9" x2="946.8" y2="690.5" stroke="#ff5a36" stroke-opacity="0.45" stroke-width="1.3"/>
<text x="954.8" y="694.5" font-size="15" font-weight="600" fill="#eef2fb" text-anchor="start">Garbalan</text>
<line x1="795.8" y1="606.4" x2="841.9" y2="630.5" stroke="#ff5a36" stroke-opacity="0.45" stroke-width="1.3"/>
<text x="849.9" y="634.5" font-size="15" font-weight="600" fill="#eef2fb" text-anchor="start">La Tour</text>
<line x1="761.6" y1="667.2" x2="797.6" y2="720.5" stroke="#ff5a36" stroke-opacity="0.45" stroke-width="1.3"/>
<text x="805.6" y="724.5" font-size="15" font-weight="600" fill="#eef2fb" text-anchor="start">Pont</text>
<text x="90" y="64" font-size="20" letter-spacing="5" fill="#ff5a36" font-weight="700">TRACK ATLAS</text>
<text x="90" y="108" font-size="42" font-weight="800" fill="#ffffff">CIRCUIT PAUL RICARD</text>
<text x="90" y="136" font-size="16" fill="#9aa6bd">Le Castellet</text>
<rect x="1170" y="200" width="360" height="710" rx="16" fill="#ffffff" fill-opacity="0.04" stroke="#ff5a36" stroke-opacity="0.5"/>
<text x="1198" y="250" font-size="13" letter-spacing="2" fill="#8794ab">LAYOUT</text>
<text x="1198" y="276" font-size="22" font-weight="700" fill="#eef2fb">Grand Prix Circuit</text>
<text x="1198" y="320" font-size="13" letter-spacing="2" fill="#8794ab">LENGTH</text>
<text x="1198" y="346" font-size="22" font-weight="700" fill="#eef2fb">5.770 km</text>
<text x="1198" y="390" font-size="13" letter-spacing="2" fill="#8794ab">CORNERS</text>
<text x="1198" y="416" font-size="22" font-weight="700" fill="#eef2fb">13</text>
<text x="1198" y="460" font-size="13" letter-spacing="2" fill="#8794ab">NAMED CORNERS</text>
<text x="1198" y="486" font-size="22" font-weight="700" fill="#eef2fb">13</text>
<text x="1198" y="530" font-size="13" letter-spacing="2" fill="#8794ab">DIRECTION</text>
<text x="1198" y="556" font-size="22" font-weight="700" fill="#eef2fb">Clockwise</text>
<text x="1198" y="600" font-size="13" letter-spacing="2" fill="#8794ab">SECTORS</text>
<text x="1198" y="626" font-size="22" font-weight="700" fill="#eef2fb">3</text>
<text x="1198" y="670" font-size="13" letter-spacing="2" fill="#8794ab">COUNTRY</text>
<text x="1198" y="696" font-size="22" font-weight="700" fill="#eef2fb">France</text>
<text x="1198" y="740" font-size="13" letter-spacing="2" fill="#8794ab">LOCATION</text>
<text x="1198" y="766" font-size="22" font-weight="700" fill="#eef2fb">Le Castellet</text>
<text x="90" y="966" font-size="12" fill="#566177">Geometry © OpenStreetMap contributors (ODbL) · corner data: Lovely-Sim-Racing + curated · track-atlas</text>
<text x="90" y="942" font-size="12" fill="#8794ab">⚑ start / finish</text>
</svg>