<svg xmlns="http://www.w3.org/2000/svg" width="1600" height="1000" viewBox="0 0 1600 1000" font-family="Helvetica, Arial, sans-serif">
<defs>
      <radialGradient id="bg" cx="38%" cy="34%" r="85%">
        <stop offset="0%" stop-color="#1b2030"/>
        <stop offset="55%" stop-color="#12151f"/>
        <stop offset="100%" stop-color="#0a0c12"/>
      </radialGradient>
      <linearGradient id="accent" x1="0" y1="0" x2="1" y2="1">
        <stop offset="0%" stop-color="#ff5a36"/>
        <stop offset="100%" stop-color="#ffffff"/>
      </linearGradient>
      <filter id="glow" x="-40%" y="-40%" width="180%" height="180%">
        <feGaussianBlur stdDeviation="6" result="b"/>
        <feMerge><feMergeNode in="b"/><feMergeNode in="SourceGraphic"/></feMerge>
      </filter>
    </defs>
<rect width="1600" height="1000" fill="url(#bg)"/>
<path d="M 718.2,177.6 L 736.2,191.3 L 737.2,192.0 L 738.7,193.2 L 748.1,200.3 L 749.1,201.1 L 769.2,216.8 L 771.0,218.2 L 772.9,219.4 L 774.5,220.2 L 776.1,220.6 L 777.4,220.7 L 778.9,220.5 L 780.1,220.0 L 781.5,219.0 L 782.7,218.0 L 793.0,206.8 L 794.6,205.5 L 796.3,204.3 L 798.3,203.6 L 800.1,203.7 L 801.9,204.7 L 804.5,206.1 L 807.3,207.9 L 821.3,216.9 L 842.0,230.0 L 849.7,235.5 L 854.0,239.6 L 857.3,243.8 L 860.4,248.3 L 862.9,253.3 L 864.9,258.4 L 866.7,264.3 L 867.8,271.3 L 868.1,277.2 L 868.1,283.3 L 867.3,289.3 L 866.0,294.9 L 864.2,300.1 L 861.8,305.2 L 858.7,310.5 L 786.7,424.3 L 739.1,499.7 L 697.6,565.9 L 678.1,596.2 L 607.3,709.9 L 572.9,764.3 L 538.0,819.6 L 529.1,834.1 L 524.5,841.6 L 509.1,866.2 L 504.7,871.6 L 500.2,875.6 L 495.0,878.5 L 489.6,879.3 L 483.2,879.1 L 476.3,877.5 L 470.1,874.1 L 460.3,867.5 L 454.7,864.2 L 449.6,862.1 L 443.1,860.7 L 436.7,860.4 L 429.3,861.0 L 422.9,863.1 L 417.2,866.5 L 383.2,891.4 L 376.8,896.1 L 371.1,900.3 L 365.3,903.4 L 357.5,906.4 L 350.6,908.6 L 341.2,910.0 L 326.6,909.6 L 318.1,908.1 L 310.6,905.9 L 299.3,900.3 L 290.7,893.8 L 284.0,887.2 L 278.8,880.9 L 273.4,873.0 L 267.7,860.9 L 263.9,848.0 L 262.3,837.3 L 261.9,829.3 L 262.2,816.5 L 263.8,804.3 L 265.9,794.6 L 268.7,784.7 L 272.0,774.2 L 276.4,763.5 L 281.8,753.3 L 303.7,718.9 L 360.1,628.5 L 364.6,622.1 L 369.7,617.7 L 375.3,614.4 L 382.5,612.2 L 388.7,611.2 L 395.3,612.0 L 402.0,613.8 L 407.4,616.6 L 412.6,620.1 L 417.3,624.1 L 422.3,630.3 L 426.3,636.7 L 429.4,643.7 L 431.1,651.4 L 432.1,660.3 L 432.2,668.8 L 431.3,676.9 L 429.0,686.8 L 425.6,695.5 L 418.2,709.1 L 404.3,730.3 L 363.0,795.8 L 360.2,800.9 L 358.8,806.2 L 358.6,811.6 L 359.9,817.5 L 362.4,822.1 L 365.5,825.9 L 370.3,829.3 L 376.0,831.0 L 381.2,831.7 L 387.2,830.6 L 392.1,828.6 L 473.1,792.1 L 483.8,785.8 L 496.0,777.2 L 504.1,770.2 L 511.7,762.8 L 520.1,752.4 L 528.3,740.1 L 553.9,699.7 L 556.4,695.1 L 557.6,692.1 L 558.8,688.2 L 559.1,685.1 L 559.1,682.1 L 558.6,679.4 L 557.7,676.1 L 556.0,672.0 L 554.0,668.9 L 551.5,666.2 L 548.8,663.9 L 546.4,662.2 L 538.3,657.5 L 530.8,652.8 L 522.3,645.6 L 517.2,639.7 L 512.6,632.7 L 509.1,624.8 L 488.1,574.8 L 468.2,528.4 L 465.5,521.4 L 464.1,515.9 L 463.4,510.7 L 463.1,505.5 L 463.3,500.2 L 464.6,492.2 L 467.3,483.4 L 471.5,475.5 L 476.7,468.7 L 479.7,465.2 L 482.8,462.1 L 491.5,455.7 L 502.9,449.5 L 557.0,422.2 L 602.1,399.1 L 624.2,387.8 L 653.9,372.7 L 686.8,356.1 L 766.0,314.8 L 772.0,311.2 L 775.5,307.9 L 777.7,304.9 L 778.4,303.9 L 779.9,299.7 L 780.1,294.0 L 778.5,287.4 L 775.8,282.7 L 771.4,278.0 L 766.4,274.4 L 761.3,271.4 L 756.5,269.4 L 752.5,267.6 L 744.2,265.6 L 735.6,264.6 L 727.5,264.6 L 721.3,265.2 L 712.6,267.0 L 704.9,270.4 L 696.6,275.1 L 693.0,277.4 L 692.1,278.1 L 676.5,291.2 L 671.7,294.7 L 666.7,297.6 L 659.8,299.6 L 656.6,300.2 L 649.6,300.7 L 644.4,300.0 L 640.5,298.9 L 635.7,297.0 L 630.0,293.3 L 625.0,288.8 L 620.1,281.5 L 617.2,274.1 L 615.9,265.9 L 615.9,260.6 L 617.0,255.0 L 618.8,249.1 L 622.2,243.0 L 627.5,237.5 L 665.3,206.7 L 699.5,177.9 L 704.8,175.5 L 709.2,174.6 L 713.6,175.2 L 718.2,177.6 L 699.5,177.9 L 705.4,174.2 L 709.0,172.3 L 712.3,171.0 L 716.8,169.6 L 721.1,168.7 L 726.1,168.2 L 730.9,168.0 L 735.2,168.1 L 740.3,168.6 L 745.0,169.7 L 749.3,171.1 L 753.4,172.9 L 757.0,175.0 L 764.8,180.2 L 770.9,184.2 L 773.9,186.2 L 775.3,187.1 L 787.4,194.9 L 792.2,198.0 L 804.5,206.1 Z" fill="none" stroke="#000000" stroke-opacity="0.5" stroke-width="13" stroke-linejoin="round" stroke-linecap="round"/>
<path d="M 718.2,177.6 L 736.2,191.3 L 737.2,192.0 L 738.7,193.2 L 748.1,200.3 L 749.1,201.1 L 769.2,216.8 L 771.0,218.2 L 772.9,219.4 L 774.5,220.2 L 776.1,220.6 L 777.4,220.7 L 778.9,220.5 L 780.1,220.0 L 781.5,219.0 L 782.7,218.0 L 793.0,206.8 L 794.6,205.5 L 796.3,204.3 L 798.3,203.6 L 800.1,203.7 L 801.9,204.7 L 804.5,206.1 L 807.3,207.9 L 821.3,216.9 L 842.0,230.0 L 849.7,235.5 L 854.0,239.6 L 857.3,243.8 L 860.4,248.3 L 862.9,253.3 L 864.9,258.4 L 866.7,264.3 L 867.8,271.3 L 868.1,277.2 L 868.1,283.3 L 867.3,289.3 L 866.0,294.9 L 864.2,300.1 L 861.8,305.2 L 858.7,310.5 L 786.7,424.3 L 739.1,499.7 L 697.6,565.9 L 678.1,596.2 L 607.3,709.9 L 572.9,764.3 L 538.0,819.6 L 529.1,834.1 L 524.5,841.6 L 509.1,866.2 L 504.7,871.6 L 500.2,875.6 L 495.0,878.5 L 489.6,879.3 L 483.2,879.1 L 476.3,877.5 L 470.1,874.1 L 460.3,867.5 L 454.7,864.2 L 449.6,862.1 L 443.1,860.7 L 436.7,860.4 L 429.3,861.0 L 422.9,863.1 L 417.2,866.5 L 383.2,891.4 L 376.8,896.1 L 371.1,900.3 L 365.3,903.4 L 357.5,906.4 L 350.6,908.6 L 341.2,910.0 L 326.6,909.6 L 318.1,908.1 L 310.6,905.9 L 299.3,900.3 L 290.7,893.8 L 284.0,887.2 L 278.8,880.9 L 273.4,873.0 L 267.7,860.9 L 263.9,848.0 L 262.3,837.3 L 261.9,829.3 L 262.2,816.5 L 263.8,804.3 L 265.9,794.6 L 268.7,784.7 L 272.0,774.2 L 276.4,763.5 L 281.8,753.3 L 303.7,718.9 L 360.1,628.5 L 364.6,622.1 L 369.7,617.7 L 375.3,614.4 L 382.5,612.2 L 388.7,611.2 L 395.3,612.0 L 402.0,613.8 L 407.4,616.6 L 412.6,620.1 L 417.3,624.1 L 422.3,630.3 L 426.3,636.7 L 429.4,643.7 L 431.1,651.4 L 432.1,660.3 L 432.2,668.8 L 431.3,676.9 L 429.0,686.8 L 425.6,695.5 L 418.2,709.1 L 404.3,730.3 L 363.0,795.8 L 360.2,800.9 L 358.8,806.2 L 358.6,811.6 L 359.9,817.5 L 362.4,822.1 L 365.5,825.9 L 370.3,829.3 L 376.0,831.0 L 381.2,831.7 L 387.2,830.6 L 392.1,828.6 L 473.1,792.1 L 483.8,785.8 L 496.0,777.2 L 504.1,770.2 L 511.7,762.8 L 520.1,752.4 L 528.3,740.1 L 553.9,699.7 L 556.4,695.1 L 557.6,692.1 L 558.8,688.2 L 559.1,685.1 L 559.1,682.1 L 558.6,679.4 L 557.7,676.1 L 556.0,672.0 L 554.0,668.9 L 551.5,666.2 L 548.8,663.9 L 546.4,662.2 L 538.3,657.5 L 530.8,652.8 L 522.3,645.6 L 517.2,639.7 L 512.6,632.7 L 509.1,624.8 L 488.1,574.8 L 468.2,528.4 L 465.5,521.4 L 464.1,515.9 L 463.4,510.7 L 463.1,505.5 L 463.3,500.2 L 464.6,492.2 L 467.3,483.4 L 471.5,475.5 L 476.7,468.7 L 479.7,465.2 L 482.8,462.1 L 491.5,455.7 L 502.9,449.5 L 557.0,422.2 L 602.1,399.1 L 624.2,387.8 L 653.9,372.7 L 686.8,356.1 L 766.0,314.8 L 772.0,311.2 L 775.5,307.9 L 777.7,304.9 L 778.4,303.9 L 779.9,299.7 L 780.1,294.0 L 778.5,287.4 L 775.8,282.7 L 771.4,278.0 L 766.4,274.4 L 761.3,271.4 L 756.5,269.4 L 752.5,267.6 L 744.2,265.6 L 735.6,264.6 L 727.5,264.6 L 721.3,265.2 L 712.6,267.0 L 704.9,270.4 L 696.6,275.1 L 693.0,277.4 L 692.1,278.1 L 676.5,291.2 L 671.7,294.7 L 666.7,297.6 L 659.8,299.6 L 656.6,300.2 L 649.6,300.7 L 644.4,300.0 L 640.5,298.9 L 635.7,297.0 L 630.0,293.3 L 625.0,288.8 L 620.1,281.5 L 617.2,274.1 L 615.9,265.9 L 615.9,260.6 L 617.0,255.0 L 618.8,249.1 L 622.2,243.0 L 627.5,237.5 L 665.3,206.7 L 699.5,177.9 L 704.8,175.5 L 709.2,174.6 L 713.6,175.2 L 718.2,177.6 L 699.5,177.9 L 705.4,174.2 L 709.0,172.3 L 712.3,171.0 L 716.8,169.6 L 721.1,168.7 L 726.1,168.2 L 730.9,168.0 L 735.2,168.1 L 740.3,168.6 L 745.0,169.7 L 749.3,171.1 L 753.4,172.9 L 757.0,175.0 L 764.8,180.2 L 770.9,184.2 L 773.9,186.2 L 775.3,187.1 L 787.4,194.9 L 792.2,198.0 L 804.5,206.1 Z" fill="none" stroke="#39404f" stroke-width="8.5" stroke-linejoin="round" stroke-linecap="round"/>
<path d="M 718.2,177.6 L 736.2,191.3 L 737.2,192.0 L 738.7,193.2 L 748.1,200.3 L 749.1,201.1 L 769.2,216.8 L 771.0,218.2 L 772.9,219.4 L 774.5,220.2 L 776.1,220.6 L 777.4,220.7 L 778.9,220.5 L 780.1,220.0 L 781.5,219.0 L 782.7,218.0 L 793.0,206.8 L 794.6,205.5 L 796.3,204.3 L 798.3,203.6 L 800.1,203.7 L 801.9,204.7 L 804.5,206.1 L 807.3,207.9 L 821.3,216.9 L 842.0,230.0 L 849.7,235.5 L 854.0,239.6 L 857.3,243.8 L 860.4,248.3 L 862.9,253.3 L 864.9,258.4 L 866.7,264.3 L 867.8,271.3 L 868.1,277.2 L 868.1,283.3 L 867.3,289.3 L 866.0,294.9 L 864.2,300.1 L 861.8,305.2 L 858.7,310.5 L 786.7,424.3 L 739.1,499.7 L 697.6,565.9 L 678.1,596.2 L 607.3,709.9 L 572.9,764.3 L 538.0,819.6 L 529.1,834.1 L 524.5,841.6 L 509.1,866.2 L 504.7,871.6 L 500.2,875.6 L 495.0,878.5 L 489.6,879.3 L 483.2,879.1 L 476.3,877.5 L 470.1,874.1 L 460.3,867.5 L 454.7,864.2 L 449.6,862.1 L 443.1,860.7 L 436.7,860.4 L 429.3,861.0 L 422.9,863.1 L 417.2,866.5 L 383.2,891.4 L 376.8,896.1 L 371.1,900.3 L 365.3,903.4 L 357.5,906.4 L 350.6,908.6 L 341.2,910.0 L 326.6,909.6 L 318.1,908.1 L 310.6,905.9 L 299.3,900.3 L 290.7,893.8 L 284.0,887.2 L 278.8,880.9 L 273.4,873.0 L 267.7,860.9 L 263.9,848.0 L 262.3,837.3 L 261.9,829.3 L 262.2,816.5 L 263.8,804.3 L 265.9,794.6 L 268.7,784.7 L 272.0,774.2 L 276.4,763.5 L 281.8,753.3 L 303.7,718.9 L 360.1,628.5 L 364.6,622.1 L 369.7,617.7 L 375.3,614.4 L 382.5,612.2 L 388.7,611.2 L 395.3,612.0 L 402.0,613.8 L 407.4,616.6 L 412.6,620.1 L 417.3,624.1 L 422.3,630.3 L 426.3,636.7 L 429.4,643.7 L 431.1,651.4 L 432.1,660.3 L 432.2,668.8 L 431.3,676.9 L 429.0,686.8 L 425.6,695.5 L 418.2,709.1 L 404.3,730.3 L 363.0,795.8 L 360.2,800.9 L 358.8,806.2 L 358.6,811.6 L 359.9,817.5 L 362.4,822.1 L 365.5,825.9 L 370.3,829.3 L 376.0,831.0 L 381.2,831.7 L 387.2,830.6 L 392.1,828.6 L 473.1,792.1 L 483.8,785.8 L 496.0,777.2 L 504.1,770.2 L 511.7,762.8 L 520.1,752.4 L 528.3,740.1 L 553.9,699.7 L 556.4,695.1 L 557.6,692.1 L 558.8,688.2 L 559.1,685.1 L 559.1,682.1 L 558.6,679.4 L 557.7,676.1 L 556.0,672.0 L 554.0,668.9 L 551.5,666.2 L 548.8,663.9 L 546.4,662.2 L 538.3,657.5 L 530.8,652.8 L 522.3,645.6 L 517.2,639.7 L 512.6,632.7 L 509.1,624.8 L 488.1,574.8 L 468.2,528.4 L 465.5,521.4 L 464.1,515.9 L 463.4,510.7 L 463.1,505.5 L 463.3,500.2 L 464.6,492.2 L 467.3,483.4 L 471.5,475.5 L 476.7,468.7 L 479.7,465.2 L 482.8,462.1 L 491.5,455.7 L 502.9,449.5 L 557.0,422.2 L 602.1,399.1 L 624.2,387.8 L 653.9,372.7 L 686.8,356.1 L 766.0,314.8 L 772.0,311.2 L 775.5,307.9 L 777.7,304.9 L 778.4,303.9 L 779.9,299.7 L 780.1,294.0 L 778.5,287.4 L 775.8,282.7 L 771.4,278.0 L 766.4,274.4 L 761.3,271.4 L 756.5,269.4 L 752.5,267.6 L 744.2,265.6 L 735.6,264.6 L 727.5,264.6 L 721.3,265.2 L 712.6,267.0 L 704.9,270.4 L 696.6,275.1 L 693.0,277.4 L 692.1,278.1 L 676.5,291.2 L 671.7,294.7 L 666.7,297.6 L 659.8,299.6 L 656.6,300.2 L 649.6,300.7 L 644.4,300.0 L 640.5,298.9 L 635.7,297.0 L 630.0,293.3 L 625.0,288.8 L 620.1,281.5 L 617.2,274.1 L 615.9,265.9 L 615.9,260.6 L 617.0,255.0 L 618.8,249.1 L 622.2,243.0 L 627.5,237.5 L 665.3,206.7 L 699.5,177.9 L 704.8,175.5 L 709.2,174.6 L 713.6,175.2 L 718.2,177.6 L 699.5,177.9 L 705.4,174.2 L 709.0,172.3 L 712.3,171.0 L 716.8,169.6 L 721.1,168.7 L 726.1,168.2 L 730.9,168.0 L 735.2,168.1 L 740.3,168.6 L 745.0,169.7 L 749.3,171.1 L 753.4,172.9 L 757.0,175.0 L 764.8,180.2 L 770.9,184.2 L 773.9,186.2 L 775.3,187.1 L 787.4,194.9 L 792.2,198.0 L 804.5,206.1 Z" fill="none" stroke="#e7edf8" stroke-width="2.6" stroke-linejoin="round" stroke-linecap="round"/>
<path d="M 718.2,177.6 L 736.2,191.3 L 737.2,192.0 L 738.7,193.2 L 748.1,200.3 L 749.1,201.1 L 769.2,216.8 L 771.0,218.2 L 772.9,219.4 L 774.5,220.2 L 776.1,220.6 L 777.4,220.7 L 778.9,220.5 L 780.1,220.0 L 781.5,219.0 L 782.7,218.0 L 793.0,206.8 L 794.6,205.5 L 796.3,204.3 L 798.3,203.6 L 800.1,203.7 L 801.9,204.7 L 804.5,206.1 L 807.3,207.9 L 821.3,216.9 L 842.0,230.0 L 849.7,235.5 L 854.0,239.6 L 857.3,243.8 L 860.4,248.3 L 862.9,253.3 L 864.9,258.4 L 866.7,264.3 L 867.8,271.3 L 868.1,277.2 L 868.1,283.3 L 867.3,289.3 L 866.0,294.9 L 864.2,300.1 L 861.8,305.2 L 858.7,310.5 L 786.7,424.3 L 739.1,499.7 L 697.6,565.9 L 678.1,596.2 L 607.3,709.9 L 572.9,764.3 L 538.0,819.6 L 529.1,834.1 L 524.5,841.6 L 509.1,866.2 L 504.7,871.6 L 500.2,875.6 L 495.0,878.5 L 489.6,879.3 L 483.2,879.1 L 476.3,877.5 L 470.1,874.1 L 460.3,867.5 L 454.7,864.2 L 449.6,862.1 L 443.1,860.7 L 436.7,860.4 L 429.3,861.0 L 422.9,863.1 L 417.2,866.5 L 383.2,891.4 L 376.8,896.1 L 371.1,900.3 L 365.3,903.4 L 357.5,906.4 L 350.6,908.6 L 341.2,910.0 L 326.6,909.6 L 318.1,908.1 L 310.6,905.9 L 299.3,900.3 L 290.7,893.8 L 284.0,887.2 L 278.8,880.9 L 273.4,873.0 L 267.7,860.9 L 263.9,848.0 L 262.3,837.3 L 261.9,829.3 L 262.2,816.5 L 263.8,804.3 L 265.9,794.6 L 268.7,784.7 L 272.0,774.2 L 276.4,763.5 L 281.8,753.3 L 303.7,718.9 L 360.1,628.5 L 364.6,622.1 L 369.7,617.7 L 375.3,614.4 L 382.5,612.2 L 388.7,611.2 L 395.3,612.0 L 402.0,613.8 L 407.4,616.6 L 412.6,620.1 L 417.3,624.1 L 422.3,630.3 L 426.3,636.7 L 429.4,643.7 L 431.1,651.4 L 432.1,660.3 L 432.2,668.8 L 431.3,676.9 L 429.0,686.8 L 425.6,695.5 L 418.2,709.1 L 404.3,730.3 L 363.0,795.8 L 360.2,800.9 L 358.8,806.2 L 358.6,811.6 L 359.9,817.5 L 362.4,822.1 L 365.5,825.9 L 370.3,829.3 L 376.0,831.0 L 381.2,831.7 L 387.2,830.6 L 392.1,828.6 L 473.1,792.1 L 483.8,785.8 L 496.0,777.2 L 504.1,770.2 L 511.7,762.8 L 520.1,752.4 L 528.3,740.1 L 553.9,699.7 L 556.4,695.1 L 557.6,692.1 L 558.8,688.2 L 559.1,685.1 L 559.1,682.1 L 558.6,679.4 L 557.7,676.1 L 556.0,672.0 L 554.0,668.9 L 551.5,666.2 L 548.8,663.9 L 546.4,662.2 L 538.3,657.5 L 530.8,652.8 L 522.3,645.6 L 517.2,639.7 L 512.6,632.7 L 509.1,624.8 L 488.1,574.8 L 468.2,528.4 L 465.5,521.4 L 464.1,515.9 L 463.4,510.7 L 463.1,505.5 L 463.3,500.2 L 464.6,492.2 L 467.3,483.4 L 471.5,475.5 L 476.7,468.7 L 479.7,465.2 L 482.8,462.1 L 491.5,455.7 L 502.9,449.5 L 557.0,422.2 L 602.1,399.1 L 624.2,387.8 L 653.9,372.7 L 686.8,356.1 L 766.0,314.8 L 772.0,311.2 L 775.5,307.9 L 777.7,304.9 L 778.4,303.9 L 779.9,299.7 L 780.1,294.0 L 778.5,287.4 L 775.8,282.7 L 771.4,278.0 L 766.4,274.4 L 761.3,271.4 L 756.5,269.4 L 752.5,267.6 L 744.2,265.6 L 735.6,264.6 L 727.5,264.6 L 721.3,265.2 L 712.6,267.0 L 704.9,270.4 L 696.6,275.1 L 693.0,277.4 L 692.1,278.1 L 676.5,291.2 L 671.7,294.7 L 666.7,297.6 L 659.8,299.6 L 656.6,300.2 L 649.6,300.7 L 644.4,300.0 L 640.5,298.9 L 635.7,297.0 L 630.0,293.3 L 625.0,288.8 L 620.1,281.5 L 617.2,274.1 L 615.9,265.9 L 615.9,260.6 L 617.0,255.0 L 618.8,249.1 L 622.2,243.0 L 627.5,237.5 L 665.3,206.7 L 699.5,177.9 L 704.8,175.5 L 709.2,174.6 L 713.6,175.2 L 718.2,177.6 L 699.5,177.9 L 705.4,174.2 L 709.0,172.3 L 712.3,171.0 L 716.8,169.6 L 721.1,168.7 L 726.1,168.2 L 730.9,168.0 L 735.2,168.1 L 740.3,168.6 L 745.0,169.7 L 749.3,171.1 L 753.4,172.9 L 757.0,175.0 L 764.8,180.2 L 770.9,184.2 L 773.9,186.2 L 775.3,187.1 L 787.4,194.9 L 792.2,198.0 L 804.5,206.1 Z" fill="none" stroke="#ff5a36" stroke-opacity="0.55" stroke-width="1.2" stroke-linejoin="round" filter="url(#glow)"/>
<circle cx="718.2" cy="177.6" r="13" fill="none" stroke="#ffffff" stroke-width="3"/>
<rect x="714.2" y="155.6" width="8" height="18" fill="#ffffff"/>
<circle cx="689.7" cy="578.1" r="7" fill="#ff5a36" stroke="#0a0c12" stroke-width="2.5" filter="url(#glow)"/>
<text x="689.7" y="581.5" font-size="9" font-weight="700" fill="#0a0c12" text-anchor="middle">1</text>
<circle cx="657.6" cy="629.1" r="7" fill="#ff5a36" stroke="#0a0c12" stroke-width="2.5" filter="url(#glow)"/>
<text x="657.6" y="632.5" font-size="9" font-weight="700" fill="#0a0c12" text-anchor="middle">2</text>
<circle cx="573.4" cy="763.5" r="7" fill="#ff5a36" stroke="#0a0c12" stroke-width="2.5" filter="url(#glow)"/>
<text x="573.4" y="766.9" font-size="9" font-weight="700" fill="#0a0c12" text-anchor="middle">3</text>
<circle cx="281.1" cy="883.6" r="7" fill="#ff5a36" stroke="#0a0c12" stroke-width="2.5" filter="url(#glow)"/>
<text x="281.1" y="887.0" font-size="9" font-weight="700" fill="#0a0c12" text-anchor="middle">4</text>
<circle cx="346.5" cy="650.4" r="7" fill="#ff5a36" stroke="#0a0c12" stroke-width="2.5" filter="url(#glow)"/>
<text x="346.5" y="653.8" font-size="9" font-weight="700" fill="#0a0c12" text-anchor="middle">5</text>
<circle cx="429.3" cy="685.5" r="7" fill="#ff5a36" stroke="#0a0c12" stroke-width="2.5" filter="url(#glow)"/>
<text x="429.3" y="688.9" font-size="9" font-weight="700" fill="#0a0c12" text-anchor="middle">6</text>
<circle cx="368.1" cy="787.7" r="7" fill="#ff5a36" stroke="#0a0c12" stroke-width="2.5" filter="url(#glow)"/>
<text x="368.1" y="791.1" font-size="9" font-weight="700" fill="#0a0c12" text-anchor="middle">7</text>
<circle cx="376.4" cy="831.1" r="7" fill="#ff5a36" stroke="#0a0c12" stroke-width="2.5" filter="url(#glow)"/>
<text x="376.4" y="834.5" font-size="9" font-weight="700" fill="#0a0c12" text-anchor="middle">8</text>
<circle cx="523.3" cy="747.6" r="7" fill="#ff5a36" stroke="#0a0c12" stroke-width="2.5" filter="url(#glow)"/>
<text x="523.3" y="751.0" font-size="9" font-weight="700" fill="#0a0c12" text-anchor="middle">9</text>
<circle cx="538.9" cy="431.4" r="7" fill="#ff5a36" stroke="#0a0c12" stroke-width="2.5" filter="url(#glow)"/>
<text x="538.9" y="434.8" font-size="9" font-weight="700" fill="#0a0c12" text-anchor="middle">10</text>
<circle cx="589.9" cy="405.4" r="7" fill="#ff5a36" stroke="#0a0c12" stroke-width="2.5" filter="url(#glow)"/>
<text x="589.9" y="408.8" font-size="9" font-weight="700" fill="#0a0c12" text-anchor="middle">11</text>
<circle cx="709.7" cy="344.2" r="7" fill="#ff5a36" stroke="#0a0c12" stroke-width="2.5" filter="url(#glow)"/>
<text x="709.7" y="347.6" font-size="9" font-weight="700" fill="#0a0c12" text-anchor="middle">12</text>
<circle cx="692.4" cy="277.8" r="7" fill="#ff5a36" stroke="#0a0c12" stroke-width="2.5" filter="url(#glow)"/>
<text x="692.4" y="281.2" font-size="9" font-weight="700" fill="#0a0c12" text-anchor="middle">13</text>
<circle cx="664.8" cy="207.0" r="7" fill="#ff5a36" stroke="#0a0c12" stroke-width="2.5" filter="url(#glow)"/>
<text x="664.8" y="210.4" font-size="9" font-weight="700" fill="#0a0c12" text-anchor="middle">14</text>
<line x1="689.7" y1="578.1" x2="732.6" y2="607.5" stroke="#ff5a36" stroke-opacity="0.45" stroke-width="1.3"/>
<text x="740.6" y="611.5" font-size="15" font-weight="600" fill="#eef2fb" text-anchor="start">Elf</text>
<line x1="657.6" y1="629.1" x2="684.8" y2="673.5" stroke="#ff5a36" stroke-opacity="0.45" stroke-width="1.3"/>
<text x="692.8" y="677.5" font-size="15" font-weight="600" fill="#eef2fb" text-anchor="start">T2</text>
<line x1="573.4" y1="763.5" x2="571.9" y2="830.2" stroke="#ff5a36" stroke-opacity="0.45" stroke-width="1.3"/>
<text x="563.9" y="834.2" font-size="15" font-weight="600" fill="#eef2fb" text-anchor="end">Renault</text>
<line x1="281.1" y1="883.6" x2="248.9" y2="926.2" stroke="#ff5a36" stroke-opacity="0.45" stroke-width="1.3"/>
<text x="240.9" y="930.2" font-size="15" font-weight="600" fill="#eef2fb" text-anchor="end">Repsol</text>
<line x1="346.5" y1="650.4" x2="302.4" y2="678.1" stroke="#ff5a36" stroke-opacity="0.45" stroke-width="1.3"/>
<text x="294.4" y="682.1" font-size="15" font-weight="600" fill="#eef2fb" text-anchor="end">Seat</text>
<line x1="429.3" y1="685.5" x2="396.1" y2="725.6" stroke="#ff5a36" stroke-opacity="0.45" stroke-width="1.3"/>
<text x="388.1" y="729.6" font-size="15" font-weight="600" fill="#eef2fb" text-anchor="end">T6</text>
<line x1="368.1" y1="787.7" x2="337.0" y2="862.2" stroke="#ff5a36" stroke-opacity="0.45" stroke-width="1.3"/>
<text x="329.0" y="866.2" font-size="15" font-weight="600" fill="#eef2fb" text-anchor="end">Würth</text>
<line x1="376.4" y1="831.1" x2="348.9" y2="894.2" stroke="#ff5a36" stroke-opacity="0.45" stroke-width="1.3"/>
<text x="340.9" y="898.2" font-size="15" font-weight="600" fill="#eef2fb" text-anchor="end">T8</text>
<line x1="523.3" y1="747.6" x2="511.4" y2="798.2" stroke="#ff5a36" stroke-opacity="0.45" stroke-width="1.3"/>
<text x="503.4" y="802.2" font-size="15" font-weight="600" fill="#eef2fb" text-anchor="end">Campsa</text>
<line x1="538.9" y1="431.4" x2="512.8" y2="386.4" stroke="#ff5a36" stroke-opacity="0.45" stroke-width="1.3"/>
<text x="504.8" y="390.4" font-size="15" font-weight="600" fill="#eef2fb" text-anchor="end">La Caixa</text>
<line x1="589.9" y1="405.4" x2="594.8" y2="353.6" stroke="#ff5a36" stroke-opacity="0.45" stroke-width="1.3"/>
<text x="602.8" y="357.6" font-size="15" font-weight="600" fill="#eef2fb" text-anchor="start">T11</text>
<line x1="709.7" y1="344.2" x2="742.4" y2="303.9" stroke="#ff5a36" stroke-opacity="0.45" stroke-width="1.3"/>
<text x="750.4" y="307.9" font-size="15" font-weight="600" fill="#eef2fb" text-anchor="start">Banc Sabadell</text>
<line x1="692.4" y1="277.8" x2="715.5" y2="231.3" stroke="#ff5a36" stroke-opacity="0.45" stroke-width="1.3"/>
<text x="723.5" y="235.3" font-size="15" font-weight="600" fill="#eef2fb" text-anchor="start">Europcar</text>
<line x1="664.8" y1="207.0" x2="679.1" y2="157.0" stroke="#ff5a36" stroke-opacity="0.45" stroke-width="1.3"/>
<text x="687.1" y="161.0" font-size="15" font-weight="600" fill="#eef2fb" text-anchor="start">New Holland</text>
<text x="90" y="64" font-size="20" letter-spacing="5" fill="#ff5a36" font-weight="700">TRACK ATLAS</text>
<text x="90" y="108" font-size="42" font-weight="800" fill="#ffffff">CIRCUIT DE BARCELONA-CATALUNYA</text>
<text x="90" y="136" font-size="16" fill="#9aa6bd">Catalunya, Montmelo</text>
<rect x="1170" y="200" width="360" height="710" rx="16" fill="#ffffff" fill-opacity="0.04" stroke="#ff5a36" stroke-opacity="0.5"/>
<text x="1198" y="250" font-size="13" letter-spacing="2" fill="#8794ab">LAYOUT</text>
<text x="1198" y="276" font-size="22" font-weight="700" fill="#eef2fb">Grand Prix Circuit</text>
<text x="1198" y="320" font-size="13" letter-spacing="2" fill="#8794ab">LENGTH</text>
<text x="1198" y="346" font-size="22" font-weight="700" fill="#eef2fb">4.657 km</text>
<text x="1198" y="390" font-size="13" letter-spacing="2" fill="#8794ab">CORNERS</text>
<text x="1198" y="416" font-size="22" font-weight="700" fill="#eef2fb">14</text>
<text x="1198" y="460" font-size="13" letter-spacing="2" fill="#8794ab">NAMED CORNERS</text>
<text x="1198" y="486" font-size="22" font-weight="700" fill="#eef2fb">14</text>
<text x="1198" y="530" font-size="13" letter-spacing="2" fill="#8794ab">DIRECTION</text>
<text x="1198" y="556" font-size="22" font-weight="700" fill="#eef2fb">Clockwise</text>
<text x="1198" y="600" font-size="13" letter-spacing="2" fill="#8794ab">SECTORS</text>
<text x="1198" y="626" font-size="22" font-weight="700" fill="#eef2fb">3</text>
<text x="1198" y="670" font-size="13" letter-spacing="2" fill="#8794ab">COUNTRY</text>
<text x="1198" y="696" font-size="22" font-weight="700" fill="#eef2fb">Spain</text>
<text x="1198" y="740" font-size="13" letter-spacing="2" fill="#8794ab">LOCATION</text>
<text x="1198" y="766" font-size="22" font-weight="700" fill="#eef2fb">Montmelo</text>
<text x="90" y="966" font-size="12" fill="#566177">Geometry © OpenStreetMap contributors (ODbL) · corner data: Lovely-Sim-Racing + curated · track-atlas</text>
<text x="90" y="942" font-size="12" fill="#8794ab">⚑ start / finish</text>
</svg>