<svg xmlns="http://www.w3.org/2000/svg" width="1600" height="1000" viewBox="0 0 1600 1000" font-family="Helvetica, Arial, sans-serif">
<defs>
      <radialGradient id="bg" cx="38%" cy="34%" r="85%">
        <stop offset="0%" stop-color="#1b2030"/>
        <stop offset="55%" stop-color="#12151f"/>
        <stop offset="100%" stop-color="#0a0c12"/>
      </radialGradient>
      <linearGradient id="accent" x1="0" y1="0" x2="1" y2="1">
        <stop offset="0%" stop-color="#ff5a36"/>
        <stop offset="100%" stop-color="#ffffff"/>
      </linearGradient>
      <filter id="glow" x="-40%" y="-40%" width="180%" height="180%">
        <feGaussianBlur stdDeviation="6" result="b"/>
        <feMerge><feMergeNode in="b"/><feMergeNode in="SourceGraphic"/></feMerge>
      </filter>
    </defs>
<rect width="1600" height="1000" fill="url(#bg)"/>
<path d="M 636.0,587.0 L 640.1,607.1 L 640.3,610.1 L 640.1,611.9 L 639.7,613.1 L 638.9,614.2 L 637.9,615.1 L 636.0,615.9 L 633.8,616.9 L 632.2,618.3 L 631.1,619.8 L 630.3,621.3 L 630.1,622.9 L 630.3,624.8 L 631.1,628.8 L 662.9,779.4 L 663.0,780.0 L 665.5,792.9 L 666.8,805.1 L 667.1,815.5 L 667.0,819.9 L 666.8,827.2 L 665.6,837.0 L 665.1,841.4 L 662.6,861.1 L 662.2,864.1 L 661.4,870.6 L 661.3,873.6 L 661.6,875.9 L 662.4,878.1 L 664.0,880.1 L 666.3,881.8 L 676.4,886.3 L 679.4,887.7 L 681.0,888.7 L 682.4,890.0 L 683.7,891.4 L 684.7,893.0 L 685.3,895.3 L 685.4,898.1 L 684.9,900.4 L 683.9,902.9 L 682.3,905.1 L 680.7,906.6 L 678.6,908.0 L 676.8,909.0 L 674.8,909.6 L 672.8,909.9 L 670.3,910.0 L 668.3,909.9 L 665.7,909.6 L 662.0,908.9 L 657.2,907.7 L 650.1,905.6 L 639.3,902.3 L 631.9,899.9 L 626.1,897.5 L 620.6,894.6 L 615.1,891.4 L 608.8,886.9 L 602.4,881.7 L 591.6,872.9 L 581.6,864.3 L 567.2,851.0 L 564.1,848.0 L 562.9,846.3 L 562.2,844.9 L 561.8,842.8 L 562.1,840.4 L 562.7,838.0 L 564.7,832.1 L 565.3,829.9 L 565.8,827.5 L 566.0,825.0 L 565.8,823.1 L 565.5,821.6 L 564.7,819.7 L 563.6,818.0 L 547.4,798.1 L 535.7,782.8 L 533.9,780.7 L 531.9,778.5 L 529.5,776.5 L 526.4,774.4 L 520.8,771.0 L 517.7,768.8 L 514.9,766.3 L 512.0,763.4 L 510.0,760.9 L 507.8,757.3 L 506.1,754.2 L 504.2,749.9 L 502.9,745.9 L 501.7,741.3 L 501.0,736.9 L 500.6,732.3 L 500.4,727.4 L 500.4,721.4 L 501.2,677.0 L 501.1,673.6 L 500.8,671.5 L 500.1,669.6 L 499.4,668.1 L 498.2,666.5 L 497.0,665.2 L 495.7,664.4 L 494.2,663.7 L 492.3,663.2 L 490.2,662.9 L 488.2,662.9 L 486.1,663.2 L 483.7,664.0 L 480.8,665.0 L 478.6,665.5 L 476.5,665.6 L 474.1,665.4 L 471.4,664.7 L 468.9,663.6 L 466.5,662.1 L 464.1,660.3 L 462.0,658.4 L 459.0,654.9 L 456.9,651.8 L 455.6,649.3 L 454.4,646.7 L 452.9,642.1 L 450.6,632.7 L 449.1,623.3 L 448.3,616.4 L 447.4,605.5 L 446.7,593.0 L 444.9,563.4 L 444.6,553.4 L 444.6,545.9 L 444.8,540.4 L 444.9,538.3 L 445.3,528.2 L 446.3,513.6 L 447.4,503.8 L 448.5,494.6 L 449.7,486.9 L 450.8,480.2 L 452.1,473.7 L 453.5,467.9 L 455.4,460.7 L 465.0,426.2 L 468.2,414.6 L 469.1,411.5 L 469.8,410.1 L 470.9,409.0 L 472.2,408.4 L 473.3,408.2 L 474.1,408.1 L 478.3,408.0 L 481.5,408.0 L 483.5,407.6 L 486.1,406.6 L 488.7,405.2 L 490.8,403.7 L 491.6,402.9 L 493.1,401.2 L 494.6,399.4 L 495.9,397.5 L 497.2,395.3 L 498.2,393.3 L 499.8,388.9 L 502.4,380.6 L 504.4,374.4 L 508.0,361.7 L 509.8,354.6 L 512.5,343.8 L 514.8,332.7 L 516.9,322.4 L 519.1,309.9 L 520.9,298.5 L 522.0,293.0 L 522.7,287.1 L 523.1,283.1 L 524.2,273.1 L 524.9,256.8 L 525.0,251.2 L 524.8,239.9 L 524.4,235.9 L 523.9,232.3 L 523.1,227.2 L 522.2,223.0 L 522.1,222.4 L 512.7,178.1 L 512.4,175.9 L 512.6,173.6 L 513.1,171.7 L 514.2,170.0 L 515.7,168.9 L 517.6,168.2 L 519.4,168.0 L 521.3,168.3 L 522.5,168.9 L 523.9,169.9 L 524.9,171.0 L 525.7,172.3 L 526.5,174.2 L 527.8,179.8 L 528.8,185.8 L 529.4,191.3 L 529.8,201.1 L 530.0,203.4 L 530.3,206.5 L 530.8,208.8 L 531.3,211.1 L 532.5,214.8 L 534.1,218.8 L 534.3,219.2 L 535.9,222.9 L 539.5,230.1 L 545.5,242.6 L 548.0,247.8 L 550.0,252.5 L 558.7,275.2 L 573.8,314.3 L 583.3,340.4 L 584.8,344.3 L 586.1,348.5 L 587.0,352.5 L 587.9,356.8 L 588.5,359.8 L 590.6,370.7 L 597.1,403.2 L 607.4,451.8 L 621.2,516.4 L 626.3,541.0 L 628.9,553.3 L 636.0,587.0 Z" fill="none" stroke="#000000" stroke-opacity="0.5" stroke-width="13" stroke-linejoin="round" stroke-linecap="round"/>
<path d="M 636.0,587.0 L 640.1,607.1 L 640.3,610.1 L 640.1,611.9 L 639.7,613.1 L 638.9,614.2 L 637.9,615.1 L 636.0,615.9 L 633.8,616.9 L 632.2,618.3 L 631.1,619.8 L 630.3,621.3 L 630.1,622.9 L 630.3,624.8 L 631.1,628.8 L 662.9,779.4 L 663.0,780.0 L 665.5,792.9 L 666.8,805.1 L 667.1,815.5 L 667.0,819.9 L 666.8,827.2 L 665.6,837.0 L 665.1,841.4 L 662.6,861.1 L 662.2,864.1 L 661.4,870.6 L 661.3,873.6 L 661.6,875.9 L 662.4,878.1 L 664.0,880.1 L 666.3,881.8 L 676.4,886.3 L 679.4,887.7 L 681.0,888.7 L 682.4,890.0 L 683.7,891.4 L 684.7,893.0 L 685.3,895.3 L 685.4,898.1 L 684.9,900.4 L 683.9,902.9 L 682.3,905.1 L 680.7,906.6 L 678.6,908.0 L 676.8,909.0 L 674.8,909.6 L 672.8,909.9 L 670.3,910.0 L 668.3,909.9 L 665.7,909.6 L 662.0,908.9 L 657.2,907.7 L 650.1,905.6 L 639.3,902.3 L 631.9,899.9 L 626.1,897.5 L 620.6,894.6 L 615.1,891.4 L 608.8,886.9 L 602.4,881.7 L 591.6,872.9 L 581.6,864.3 L 567.2,851.0 L 564.1,848.0 L 562.9,846.3 L 562.2,844.9 L 561.8,842.8 L 562.1,840.4 L 562.7,838.0 L 564.7,832.1 L 565.3,829.9 L 565.8,827.5 L 566.0,825.0 L 565.8,823.1 L 565.5,821.6 L 564.7,819.7 L 563.6,818.0 L 547.4,798.1 L 535.7,782.8 L 533.9,780.7 L 531.9,778.5 L 529.5,776.5 L 526.4,774.4 L 520.8,771.0 L 517.7,768.8 L 514.9,766.3 L 512.0,763.4 L 510.0,760.9 L 507.8,757.3 L 506.1,754.2 L 504.2,749.9 L 502.9,745.9 L 501.7,741.3 L 501.0,736.9 L 500.6,732.3 L 500.4,727.4 L 500.4,721.4 L 501.2,677.0 L 501.1,673.6 L 500.8,671.5 L 500.1,669.6 L 499.4,668.1 L 498.2,666.5 L 497.0,665.2 L 495.7,664.4 L 494.2,663.7 L 492.3,663.2 L 490.2,662.9 L 488.2,662.9 L 486.1,663.2 L 483.7,664.0 L 480.8,665.0 L 478.6,665.5 L 476.5,665.6 L 474.1,665.4 L 471.4,664.7 L 468.9,663.6 L 466.5,662.1 L 464.1,660.3 L 462.0,658.4 L 459.0,654.9 L 456.9,651.8 L 455.6,649.3 L 454.4,646.7 L 452.9,642.1 L 450.6,632.7 L 449.1,623.3 L 448.3,616.4 L 447.4,605.5 L 446.7,593.0 L 444.9,563.4 L 444.6,553.4 L 444.6,545.9 L 444.8,540.4 L 444.9,538.3 L 445.3,528.2 L 446.3,513.6 L 447.4,503.8 L 448.5,494.6 L 449.7,486.9 L 450.8,480.2 L 452.1,473.7 L 453.5,467.9 L 455.4,460.7 L 465.0,426.2 L 468.2,414.6 L 469.1,411.5 L 469.8,410.1 L 470.9,409.0 L 472.2,408.4 L 473.3,408.2 L 474.1,408.1 L 478.3,408.0 L 481.5,408.0 L 483.5,407.6 L 486.1,406.6 L 488.7,405.2 L 490.8,403.7 L 491.6,402.9 L 493.1,401.2 L 494.6,399.4 L 495.9,397.5 L 497.2,395.3 L 498.2,393.3 L 499.8,388.9 L 502.4,380.6 L 504.4,374.4 L 508.0,361.7 L 509.8,354.6 L 512.5,343.8 L 514.8,332.7 L 516.9,322.4 L 519.1,309.9 L 520.9,298.5 L 522.0,293.0 L 522.7,287.1 L 523.1,283.1 L 524.2,273.1 L 524.9,256.8 L 525.0,251.2 L 524.8,239.9 L 524.4,235.9 L 523.9,232.3 L 523.1,227.2 L 522.2,223.0 L 522.1,222.4 L 512.7,178.1 L 512.4,175.9 L 512.6,173.6 L 513.1,171.7 L 514.2,170.0 L 515.7,168.9 L 517.6,168.2 L 519.4,168.0 L 521.3,168.3 L 522.5,168.9 L 523.9,169.9 L 524.9,171.0 L 525.7,172.3 L 526.5,174.2 L 527.8,179.8 L 528.8,185.8 L 529.4,191.3 L 529.8,201.1 L 530.0,203.4 L 530.3,206.5 L 530.8,208.8 L 531.3,211.1 L 532.5,214.8 L 534.1,218.8 L 534.3,219.2 L 535.9,222.9 L 539.5,230.1 L 545.5,242.6 L 548.0,247.8 L 550.0,252.5 L 558.7,275.2 L 573.8,314.3 L 583.3,340.4 L 584.8,344.3 L 586.1,348.5 L 587.0,352.5 L 587.9,356.8 L 588.5,359.8 L 590.6,370.7 L 597.1,403.2 L 607.4,451.8 L 621.2,516.4 L 626.3,541.0 L 628.9,553.3 L 636.0,587.0 Z" fill="none" stroke="#39404f" stroke-width="8.5" stroke-linejoin="round" stroke-linecap="round"/>
<path d="M 636.0,587.0 L 640.1,607.1 L 640.3,610.1 L 640.1,611.9 L 639.7,613.1 L 638.9,614.2 L 637.9,615.1 L 636.0,615.9 L 633.8,616.9 L 632.2,618.3 L 631.1,619.8 L 630.3,621.3 L 630.1,622.9 L 630.3,624.8 L 631.1,628.8 L 662.9,779.4 L 663.0,780.0 L 665.5,792.9 L 666.8,805.1 L 667.1,815.5 L 667.0,819.9 L 666.8,827.2 L 665.6,837.0 L 665.1,841.4 L 662.6,861.1 L 662.2,864.1 L 661.4,870.6 L 661.3,873.6 L 661.6,875.9 L 662.4,878.1 L 664.0,880.1 L 666.3,881.8 L 676.4,886.3 L 679.4,887.7 L 681.0,888.7 L 682.4,890.0 L 683.7,891.4 L 684.7,893.0 L 685.3,895.3 L 685.4,898.1 L 684.9,900.4 L 683.9,902.9 L 682.3,905.1 L 680.7,906.6 L 678.6,908.0 L 676.8,909.0 L 674.8,909.6 L 672.8,909.9 L 670.3,910.0 L 668.3,909.9 L 665.7,909.6 L 662.0,908.9 L 657.2,907.7 L 650.1,905.6 L 639.3,902.3 L 631.9,899.9 L 626.1,897.5 L 620.6,894.6 L 615.1,891.4 L 608.8,886.9 L 602.4,881.7 L 591.6,872.9 L 581.6,864.3 L 567.2,851.0 L 564.1,848.0 L 562.9,846.3 L 562.2,844.9 L 561.8,842.8 L 562.1,840.4 L 562.7,838.0 L 564.7,832.1 L 565.3,829.9 L 565.8,827.5 L 566.0,825.0 L 565.8,823.1 L 565.5,821.6 L 564.7,819.7 L 563.6,818.0 L 547.4,798.1 L 535.7,782.8 L 533.9,780.7 L 531.9,778.5 L 529.5,776.5 L 526.4,774.4 L 520.8,771.0 L 517.7,768.8 L 514.9,766.3 L 512.0,763.4 L 510.0,760.9 L 507.8,757.3 L 506.1,754.2 L 504.2,749.9 L 502.9,745.9 L 501.7,741.3 L 501.0,736.9 L 500.6,732.3 L 500.4,727.4 L 500.4,721.4 L 501.2,677.0 L 501.1,673.6 L 500.8,671.5 L 500.1,669.6 L 499.4,668.1 L 498.2,666.5 L 497.0,665.2 L 495.7,664.4 L 494.2,663.7 L 492.3,663.2 L 490.2,662.9 L 488.2,662.9 L 486.1,663.2 L 483.7,664.0 L 480.8,665.0 L 478.6,665.5 L 476.5,665.6 L 474.1,665.4 L 471.4,664.7 L 468.9,663.6 L 466.5,662.1 L 464.1,660.3 L 462.0,658.4 L 459.0,654.9 L 456.9,651.8 L 455.6,649.3 L 454.4,646.7 L 452.9,642.1 L 450.6,632.7 L 449.1,623.3 L 448.3,616.4 L 447.4,605.5 L 446.7,593.0 L 444.9,563.4 L 444.6,553.4 L 444.6,545.9 L 444.8,540.4 L 444.9,538.3 L 445.3,528.2 L 446.3,513.6 L 447.4,503.8 L 448.5,494.6 L 449.7,486.9 L 450.8,480.2 L 452.1,473.7 L 453.5,467.9 L 455.4,460.7 L 465.0,426.2 L 468.2,414.6 L 469.1,411.5 L 469.8,410.1 L 470.9,409.0 L 472.2,408.4 L 473.3,408.2 L 474.1,408.1 L 478.3,408.0 L 481.5,408.0 L 483.5,407.6 L 486.1,406.6 L 488.7,405.2 L 490.8,403.7 L 491.6,402.9 L 493.1,401.2 L 494.6,399.4 L 495.9,397.5 L 497.2,395.3 L 498.2,393.3 L 499.8,388.9 L 502.4,380.6 L 504.4,374.4 L 508.0,361.7 L 509.8,354.6 L 512.5,343.8 L 514.8,332.7 L 516.9,322.4 L 519.1,309.9 L 520.9,298.5 L 522.0,293.0 L 522.7,287.1 L 523.1,283.1 L 524.2,273.1 L 524.9,256.8 L 525.0,251.2 L 524.8,239.9 L 524.4,235.9 L 523.9,232.3 L 523.1,227.2 L 522.2,223.0 L 522.1,222.4 L 512.7,178.1 L 512.4,175.9 L 512.6,173.6 L 513.1,171.7 L 514.2,170.0 L 515.7,168.9 L 517.6,168.2 L 519.4,168.0 L 521.3,168.3 L 522.5,168.9 L 523.9,169.9 L 524.9,171.0 L 525.7,172.3 L 526.5,174.2 L 527.8,179.8 L 528.8,185.8 L 529.4,191.3 L 529.8,201.1 L 530.0,203.4 L 530.3,206.5 L 530.8,208.8 L 531.3,211.1 L 532.5,214.8 L 534.1,218.8 L 534.3,219.2 L 535.9,222.9 L 539.5,230.1 L 545.5,242.6 L 548.0,247.8 L 550.0,252.5 L 558.7,275.2 L 573.8,314.3 L 583.3,340.4 L 584.8,344.3 L 586.1,348.5 L 587.0,352.5 L 587.9,356.8 L 588.5,359.8 L 590.6,370.7 L 597.1,403.2 L 607.4,451.8 L 621.2,516.4 L 626.3,541.0 L 628.9,553.3 L 636.0,587.0 Z" fill="none" stroke="#e7edf8" stroke-width="2.6" stroke-linejoin="round" stroke-linecap="round"/>
<path d="M 636.0,587.0 L 640.1,607.1 L 640.3,610.1 L 640.1,611.9 L 639.7,613.1 L 638.9,614.2 L 637.9,615.1 L 636.0,615.9 L 633.8,616.9 L 632.2,618.3 L 631.1,619.8 L 630.3,621.3 L 630.1,622.9 L 630.3,624.8 L 631.1,628.8 L 662.9,779.4 L 663.0,780.0 L 665.5,792.9 L 666.8,805.1 L 667.1,815.5 L 667.0,819.9 L 666.8,827.2 L 665.6,837.0 L 665.1,841.4 L 662.6,861.1 L 662.2,864.1 L 661.4,870.6 L 661.3,873.6 L 661.6,875.9 L 662.4,878.1 L 664.0,880.1 L 666.3,881.8 L 676.4,886.3 L 679.4,887.7 L 681.0,888.7 L 682.4,890.0 L 683.7,891.4 L 684.7,893.0 L 685.3,895.3 L 685.4,898.1 L 684.9,900.4 L 683.9,902.9 L 682.3,905.1 L 680.7,906.6 L 678.6,908.0 L 676.8,909.0 L 674.8,909.6 L 672.8,909.9 L 670.3,910.0 L 668.3,909.9 L 665.7,909.6 L 662.0,908.9 L 657.2,907.7 L 650.1,905.6 L 639.3,902.3 L 631.9,899.9 L 626.1,897.5 L 620.6,894.6 L 615.1,891.4 L 608.8,886.9 L 602.4,881.7 L 591.6,872.9 L 581.6,864.3 L 567.2,851.0 L 564.1,848.0 L 562.9,846.3 L 562.2,844.9 L 561.8,842.8 L 562.1,840.4 L 562.7,838.0 L 564.7,832.1 L 565.3,829.9 L 565.8,827.5 L 566.0,825.0 L 565.8,823.1 L 565.5,821.6 L 564.7,819.7 L 563.6,818.0 L 547.4,798.1 L 535.7,782.8 L 533.9,780.7 L 531.9,778.5 L 529.5,776.5 L 526.4,774.4 L 520.8,771.0 L 517.7,768.8 L 514.9,766.3 L 512.0,763.4 L 510.0,760.9 L 507.8,757.3 L 506.1,754.2 L 504.2,749.9 L 502.9,745.9 L 501.7,741.3 L 501.0,736.9 L 500.6,732.3 L 500.4,727.4 L 500.4,721.4 L 501.2,677.0 L 501.1,673.6 L 500.8,671.5 L 500.1,669.6 L 499.4,668.1 L 498.2,666.5 L 497.0,665.2 L 495.7,664.4 L 494.2,663.7 L 492.3,663.2 L 490.2,662.9 L 488.2,662.9 L 486.1,663.2 L 483.7,664.0 L 480.8,665.0 L 478.6,665.5 L 476.5,665.6 L 474.1,665.4 L 471.4,664.7 L 468.9,663.6 L 466.5,662.1 L 464.1,660.3 L 462.0,658.4 L 459.0,654.9 L 456.9,651.8 L 455.6,649.3 L 454.4,646.7 L 452.9,642.1 L 450.6,632.7 L 449.1,623.3 L 448.3,616.4 L 447.4,605.5 L 446.7,593.0 L 444.9,563.4 L 444.6,553.4 L 444.6,545.9 L 444.8,540.4 L 444.9,538.3 L 445.3,528.2 L 446.3,513.6 L 447.4,503.8 L 448.5,494.6 L 449.7,486.9 L 450.8,480.2 L 452.1,473.7 L 453.5,467.9 L 455.4,460.7 L 465.0,426.2 L 468.2,414.6 L 469.1,411.5 L 469.8,410.1 L 470.9,409.0 L 472.2,408.4 L 473.3,408.2 L 474.1,408.1 L 478.3,408.0 L 481.5,408.0 L 483.5,407.6 L 486.1,406.6 L 488.7,405.2 L 490.8,403.7 L 491.6,402.9 L 493.1,401.2 L 494.6,399.4 L 495.9,397.5 L 497.2,395.3 L 498.2,393.3 L 499.8,388.9 L 502.4,380.6 L 504.4,374.4 L 508.0,361.7 L 509.8,354.6 L 512.5,343.8 L 514.8,332.7 L 516.9,322.4 L 519.1,309.9 L 520.9,298.5 L 522.0,293.0 L 522.7,287.1 L 523.1,283.1 L 524.2,273.1 L 524.9,256.8 L 525.0,251.2 L 524.8,239.9 L 524.4,235.9 L 523.9,232.3 L 523.1,227.2 L 522.2,223.0 L 522.1,222.4 L 512.7,178.1 L 512.4,175.9 L 512.6,173.6 L 513.1,171.7 L 514.2,170.0 L 515.7,168.9 L 517.6,168.2 L 519.4,168.0 L 521.3,168.3 L 522.5,168.9 L 523.9,169.9 L 524.9,171.0 L 525.7,172.3 L 526.5,174.2 L 527.8,179.8 L 528.8,185.8 L 529.4,191.3 L 529.8,201.1 L 530.0,203.4 L 530.3,206.5 L 530.8,208.8 L 531.3,211.1 L 532.5,214.8 L 534.1,218.8 L 534.3,219.2 L 535.9,222.9 L 539.5,230.1 L 545.5,242.6 L 548.0,247.8 L 550.0,252.5 L 558.7,275.2 L 573.8,314.3 L 583.3,340.4 L 584.8,344.3 L 586.1,348.5 L 587.0,352.5 L 587.9,356.8 L 588.5,359.8 L 590.6,370.7 L 597.1,403.2 L 607.4,451.8 L 621.2,516.4 L 626.3,541.0 L 628.9,553.3 L 636.0,587.0 Z" fill="none" stroke="#ff5a36" stroke-opacity="0.55" stroke-width="1.2" stroke-linejoin="round" filter="url(#glow)"/>
<circle cx="636.0" cy="587.1" r="13" fill="none" stroke="#ffffff" stroke-width="3"/>
<rect x="632.0" y="565.1" width="8" height="18" fill="#ffffff"/>
<circle cx="642.2" cy="681.4" r="7" fill="#ff5a36" stroke="#0a0c12" stroke-width="2.5" filter="url(#glow)"/>
<text x="642.2" y="684.8" font-size="9" font-weight="700" fill="#0a0c12" text-anchor="middle">1</text>
<circle cx="647.8" cy="708.2" r="7" fill="#ff5a36" stroke="#0a0c12" stroke-width="2.5" filter="url(#glow)"/>
<text x="647.8" y="711.6" font-size="9" font-weight="700" fill="#0a0c12" text-anchor="middle">2</text>
<circle cx="662.1" cy="865.0" r="7" fill="#ff5a36" stroke="#0a0c12" stroke-width="2.5" filter="url(#glow)"/>
<text x="662.1" y="868.4" font-size="9" font-weight="700" fill="#0a0c12" text-anchor="middle">3</text>
<circle cx="668.0" cy="882.6" r="7" fill="#ff5a36" stroke="#0a0c12" stroke-width="2.5" filter="url(#glow)"/>
<text x="668.0" y="886.0" font-size="9" font-weight="700" fill="#0a0c12" text-anchor="middle">4</text>
<circle cx="621.0" cy="894.8" r="7" fill="#ff5a36" stroke="#0a0c12" stroke-width="2.5" filter="url(#glow)"/>
<text x="621.0" y="898.2" font-size="9" font-weight="700" fill="#0a0c12" text-anchor="middle">5</text>
<circle cx="563.3" cy="836.2" r="7" fill="#ff5a36" stroke="#0a0c12" stroke-width="2.5" filter="url(#glow)"/>
<text x="563.3" y="839.6" font-size="9" font-weight="700" fill="#0a0c12" text-anchor="middle">6</text>
<circle cx="560.9" cy="814.6" r="7" fill="#ff5a36" stroke="#0a0c12" stroke-width="2.5" filter="url(#glow)"/>
<text x="560.9" y="818.0" font-size="9" font-weight="700" fill="#0a0c12" text-anchor="middle">7</text>
<circle cx="447.3" cy="604.5" r="7" fill="#ff5a36" stroke="#0a0c12" stroke-width="2.5" filter="url(#glow)"/>
<text x="447.3" y="607.9" font-size="9" font-weight="700" fill="#0a0c12" text-anchor="middle">8</text>
<circle cx="446.4" cy="588.5" r="7" fill="#ff5a36" stroke="#0a0c12" stroke-width="2.5" filter="url(#glow)"/>
<text x="446.4" y="591.9" font-size="9" font-weight="700" fill="#0a0c12" text-anchor="middle">9</text>
<circle cx="508.5" cy="359.4" r="7" fill="#ff5a36" stroke="#0a0c12" stroke-width="2.5" filter="url(#glow)"/>
<text x="508.5" y="362.8" font-size="9" font-weight="700" fill="#0a0c12" text-anchor="middle">10</text>
<circle cx="517.4" cy="319.4" r="7" fill="#ff5a36" stroke="#0a0c12" stroke-width="2.5" filter="url(#glow)"/>
<text x="517.4" y="322.8" font-size="9" font-weight="700" fill="#0a0c12" text-anchor="middle">11</text>
<circle cx="513.0" cy="172.1" r="7" fill="#ff5a36" stroke="#0a0c12" stroke-width="2.5" filter="url(#glow)"/>
<text x="513.0" y="175.5" font-size="9" font-weight="700" fill="#0a0c12" text-anchor="middle">12</text>
<circle cx="600.0" cy="416.8" r="7" fill="#ff5a36" stroke="#0a0c12" stroke-width="2.5" filter="url(#glow)"/>
<text x="600.0" y="420.2" font-size="9" font-weight="700" fill="#0a0c12" text-anchor="middle">13</text>
<circle cx="602.4" cy="428.3" r="7" fill="#ff5a36" stroke="#0a0c12" stroke-width="2.5" filter="url(#glow)"/>
<text x="602.4" y="431.7" font-size="9" font-weight="700" fill="#0a0c12" text-anchor="middle">14</text>
<line x1="647.8" y1="708.2" x2="679.2" y2="749.6" stroke="#ff5a36" stroke-opacity="0.45" stroke-width="1.3"/>
<text x="687.2" y="753.6" font-size="15" font-weight="600" fill="#eef2fb" text-anchor="start">Senna S</text>
<line x1="621.0" y1="894.8" x2="632.2" y2="930.0" stroke="#ff5a36" stroke-opacity="0.45" stroke-width="1.3"/>
<text x="640.2" y="934.0" font-size="15" font-weight="600" fill="#eef2fb" text-anchor="start">T5</text>
<line x1="447.3" y1="604.5" x2="396.6" y2="615.9" stroke="#ff5a36" stroke-opacity="0.45" stroke-width="1.3"/>
<text x="388.6" y="619.9" font-size="15" font-weight="600" fill="#eef2fb" text-anchor="end">Hairpin</text>
<line x1="508.5" y1="359.4" x2="498.6" y2="308.4" stroke="#ff5a36" stroke-opacity="0.45" stroke-width="1.3"/>
<text x="490.6" y="312.4" font-size="15" font-weight="600" fill="#eef2fb" text-anchor="end">Hairpin</text>
<line x1="602.4" y1="428.3" x2="618.8" y2="379.0" stroke="#ff5a36" stroke-opacity="0.45" stroke-width="1.3"/>
<text x="626.8" y="383.0" font-size="15" font-weight="600" fill="#eef2fb" text-anchor="start">Wall of Champions</text>
<text x="90" y="64" font-size="20" letter-spacing="5" fill="#ff5a36" font-weight="700">TRACK ATLAS</text>
<text x="90" y="108" font-size="42" font-weight="800" fill="#ffffff">CIRCUIT GILLES VILLENEUVE</text>
<text x="90" y="136" font-size="16" fill="#9aa6bd">Montreal</text>
<rect x="1170" y="200" width="360" height="710" rx="16" fill="#ffffff" fill-opacity="0.04" stroke="#ff5a36" stroke-opacity="0.5"/>
<text x="1198" y="250" font-size="13" letter-spacing="2" fill="#8794ab">LAYOUT</text>
<text x="1198" y="276" font-size="22" font-weight="700" fill="#eef2fb">Grand Prix Circuit</text>
<text x="1198" y="320" font-size="13" letter-spacing="2" fill="#8794ab">LENGTH</text>
<text x="1198" y="346" font-size="22" font-weight="700" fill="#eef2fb">4.361 km</text>
<text x="1198" y="390" font-size="13" letter-spacing="2" fill="#8794ab">CORNERS</text>
<text x="1198" y="416" font-size="22" font-weight="700" fill="#eef2fb">14</text>
<text x="1198" y="460" font-size="13" letter-spacing="2" fill="#8794ab">NAMED CORNERS</text>
<text x="1198" y="486" font-size="22" font-weight="700" fill="#eef2fb">7</text>
<text x="1198" y="530" font-size="13" letter-spacing="2" fill="#8794ab">DIRECTION</text>
<text x="1198" y="556" font-size="22" font-weight="700" fill="#eef2fb">Clockwise</text>
<text x="1198" y="600" font-size="13" letter-spacing="2" fill="#8794ab">SECTORS</text>
<text x="1198" y="626" font-size="22" font-weight="700" fill="#eef2fb">3</text>
<text x="1198" y="670" font-size="13" letter-spacing="2" fill="#8794ab">COUNTRY</text>
<text x="1198" y="696" font-size="22" font-weight="700" fill="#eef2fb">CA</text>
<text x="1198" y="740" font-size="13" letter-spacing="2" fill="#8794ab">LOCATION</text>
<text x="1198" y="766" font-size="22" font-weight="700" fill="#eef2fb">Montreal, Quebec</text>
<text x="1198" y="810" font-size="13" letter-spacing="2" fill="#8794ab">COMPLEXES</text>
<rect x="1198" y="816" width="70" height="24" rx="12" fill="#ff5a36" fill-opacity="0.16" stroke="#ff5a36" stroke-opacity="0.5"/>
<text x="1233" y="833" font-size="12" fill="#eef2fb" text-anchor="middle">Senna S</text>
<rect x="1278" y="816" width="150" height="24" rx="12" fill="#ff5a36" fill-opacity="0.16" stroke="#ff5a36" stroke-opacity="0.5"/>
<text x="1353" y="833" font-size="12" fill="#eef2fb" text-anchor="middle">Wall of Champions</text>
<text x="90" y="966" font-size="12" fill="#566177">Geometry © OpenStreetMap contributors (ODbL) · corner data: Lovely-Sim-Racing + curated · track-atlas</text>
<text x="90" y="942" font-size="12" fill="#8794ab">⚑ start / finish</text>
</svg>