<svg xmlns="http://www.w3.org/2000/svg" width="1600" height="1000" viewBox="0 0 1600 1000" font-family="Helvetica, Arial, sans-serif">
<defs>
      <radialGradient id="bg" cx="38%" cy="34%" r="85%">
        <stop offset="0%" stop-color="#1b2030"/>
        <stop offset="55%" stop-color="#12151f"/>
        <stop offset="100%" stop-color="#0a0c12"/>
      </radialGradient>
      <linearGradient id="accent" x1="0" y1="0" x2="1" y2="1">
        <stop offset="0%" stop-color="#ff5a36"/>
        <stop offset="100%" stop-color="#ffffff"/>
      </linearGradient>
      <filter id="glow" x="-40%" y="-40%" width="180%" height="180%">
        <feGaussianBlur stdDeviation="6" result="b"/>
        <feMerge><feMergeNode in="b"/><feMergeNode in="SourceGraphic"/></feMerge>
      </filter>
    </defs>
<rect width="1600" height="1000" fill="url(#bg)"/>
<path d="M 921.8,685.4 L 973.4,687.3 L 997.2,688.5 L 1001.7,688.1 L 1004.4,687.1 L 1006.6,685.0 L 1010.1,680.7 L 1035.5,640.9 L 1038.7,634.6 L 1040.0,626.8 L 1039.2,615.8 L 1032.3,556.7 L 1021.9,466.8 L 995.9,293.0 L 995.5,286.7 L 994.2,278.9 L 991.2,274.8 L 986.0,272.2 L 978.9,272.1 L 972.5,272.6 L 963.5,271.9 L 954.0,269.0 L 936.8,260.2 L 935.4,258.2 L 932.0,252.5 L 928.9,246.1 L 924.6,241.0 L 919.6,238.3 L 913.9,237.0 L 908.5,237.0 L 903.5,238.5 L 898.0,242.9 L 895.1,246.8 L 891.8,251.7 L 888.6,258.6 L 888.3,262.8 L 887.5,273.4 L 885.6,297.2 L 886.2,308.1 L 887.1,313.1 L 888.1,318.9 L 891.7,329.3 L 898.8,344.9 L 912.8,383.1 L 918.4,400.3 L 920.3,409.1 L 925.4,440.6 L 926.0,448.3 L 926.7,458.5 L 926.5,466.5 L 925.4,472.5 L 922.3,478.5 L 919.3,483.0 L 916.2,485.8 L 909.5,490.8 L 899.2,495.3 L 885.7,498.8 L 863.9,494.8 L 832.3,492.6 L 824.9,492.6 L 802.5,492.4 L 787.4,492.8 L 782.5,493.2 L 775.1,493.3 L 769.3,492.9 L 742.1,489.4 L 718.4,488.0 L 715.9,487.8 L 708.7,487.4 L 692.5,486.4 L 685.6,486.0 L 668.8,485.0 L 661.3,484.6 L 653.7,483.9 L 642.5,482.8 L 627.3,480.2 L 624.7,479.2 L 619.6,477.5 L 607.0,472.7 L 591.2,463.7 L 587.2,461.3 L 585.9,460.5 L 573.4,453.3 L 571.4,452.2 L 560.2,445.7 L 559.3,445.2 L 548.2,438.8 L 545.1,437.0 L 512.2,418.4 L 508.1,416.0 L 500.5,411.4 L 494.2,407.7 L 485.6,402.6 L 459.7,387.4 L 437.9,375.1 L 420.5,365.3 L 409.2,358.8 L 395.1,382.3 L 379.3,407.9 L 370.6,423.3 L 355.0,453.0 L 343.7,474.6 L 342.0,478.3 L 339.3,484.5 L 331.2,476.3 L 324.0,469.0 L 310.2,455.5 L 299.4,443.8 L 283.3,427.5 L 282.6,426.8 L 271.2,415.4 L 270.6,414.8 L 260.9,408.5 L 248.3,400.3 L 239.5,402.4 L 232.0,406.6 L 221.5,415.9 L 212.7,432.0 L 209.2,438.5 L 202.5,450.7 L 176.5,496.8 L 168.5,511.3 L 161.4,524.1 L 160.1,526.4 L 154.1,537.1 L 111.0,614.6 L 104.7,626.0 L 99.0,636.2 L 91.7,649.9 L 90.4,653.2 L 90.0,656.8 L 103.8,667.3 L 120.4,679.6 L 132.8,688.1 L 135.9,690.1 L 147.6,700.0 L 151.1,702.7 L 155.0,707.3 L 155.9,709.2 L 157.7,711.0 L 160.0,711.8 L 158.5,716.7 L 158.0,718.4 L 157.6,729.6 L 163.1,748.7 L 169.7,756.8 L 174.2,760.7 L 174.9,761.4 L 186.7,773.2 L 222.6,802.1 L 225.1,804.7 L 228.2,809.6 L 230.5,813.4 L 235.2,818.7 L 240.4,826.3 L 248.8,838.0 L 250.6,841.0 L 252.6,840.8 L 255.6,840.1 L 258.8,838.5 L 259.3,835.5 L 260.1,831.5 L 295.6,644.5 L 326.1,561.2 L 332.5,542.6 L 340.6,519.4 L 343.5,511.4 L 349.7,493.8 L 353.5,497.1 L 365.0,506.7 L 366.4,507.9 L 382.0,521.4 L 407.2,543.1 L 412.3,547.4 L 422.0,555.8 L 425.0,558.4 L 435.0,567.0 L 443.2,574.0 L 447.9,578.0 L 455.2,584.7 L 462.2,591.2 L 464.3,592.6 L 470.7,596.8 L 476.1,599.4 L 479.6,601.1 L 486.3,603.3 L 494.3,605.6 L 502.9,606.9 L 513.9,608.3 L 517.6,608.4 L 519.4,608.5 L 528.5,609.0 L 530.4,609.1 L 537.2,609.5 L 550.4,610.2 L 574.0,611.4 L 589.7,612.2 L 612.5,613.5 L 623.1,614.0 L 631.0,614.4 L 654.3,615.7 L 678.5,616.8 L 690.1,617.5 L 712.3,618.8 L 737.4,620.1 L 757.6,621.2 L 775.3,622.1 L 778.3,622.3 L 786.3,622.7 L 795.0,623.2 L 802.5,627.4 L 806.5,631.6 L 807.6,636.2 L 807.6,647.4 L 807.7,653.4 L 809.1,659.2 L 811.6,665.3 L 815.8,670.5 L 822.1,674.2 L 829.4,675.9 L 848.0,678.0 L 856.1,678.9 L 917.0,685.1 L 921.8,685.4 Z" fill="none" stroke="#000000" stroke-opacity="0.5" stroke-width="13" stroke-linejoin="round" stroke-linecap="round"/>
<path d="M 921.8,685.4 L 973.4,687.3 L 997.2,688.5 L 1001.7,688.1 L 1004.4,687.1 L 1006.6,685.0 L 1010.1,680.7 L 1035.5,640.9 L 1038.7,634.6 L 1040.0,626.8 L 1039.2,615.8 L 1032.3,556.7 L 1021.9,466.8 L 995.9,293.0 L 995.5,286.7 L 994.2,278.9 L 991.2,274.8 L 986.0,272.2 L 978.9,272.1 L 972.5,272.6 L 963.5,271.9 L 954.0,269.0 L 936.8,260.2 L 935.4,258.2 L 932.0,252.5 L 928.9,246.1 L 924.6,241.0 L 919.6,238.3 L 913.9,237.0 L 908.5,237.0 L 903.5,238.5 L 898.0,242.9 L 895.1,246.8 L 891.8,251.7 L 888.6,258.6 L 888.3,262.8 L 887.5,273.4 L 885.6,297.2 L 886.2,308.1 L 887.1,313.1 L 888.1,318.9 L 891.7,329.3 L 898.8,344.9 L 912.8,383.1 L 918.4,400.3 L 920.3,409.1 L 925.4,440.6 L 926.0,448.3 L 926.7,458.5 L 926.5,466.5 L 925.4,472.5 L 922.3,478.5 L 919.3,483.0 L 916.2,485.8 L 909.5,490.8 L 899.2,495.3 L 885.7,498.8 L 863.9,494.8 L 832.3,492.6 L 824.9,492.6 L 802.5,492.4 L 787.4,492.8 L 782.5,493.2 L 775.1,493.3 L 769.3,492.9 L 742.1,489.4 L 718.4,488.0 L 715.9,487.8 L 708.7,487.4 L 692.5,486.4 L 685.6,486.0 L 668.8,485.0 L 661.3,484.6 L 653.7,483.9 L 642.5,482.8 L 627.3,480.2 L 624.7,479.2 L 619.6,477.5 L 607.0,472.7 L 591.2,463.7 L 587.2,461.3 L 585.9,460.5 L 573.4,453.3 L 571.4,452.2 L 560.2,445.7 L 559.3,445.2 L 548.2,438.8 L 545.1,437.0 L 512.2,418.4 L 508.1,416.0 L 500.5,411.4 L 494.2,407.7 L 485.6,402.6 L 459.7,387.4 L 437.9,375.1 L 420.5,365.3 L 409.2,358.8 L 395.1,382.3 L 379.3,407.9 L 370.6,423.3 L 355.0,453.0 L 343.7,474.6 L 342.0,478.3 L 339.3,484.5 L 331.2,476.3 L 324.0,469.0 L 310.2,455.5 L 299.4,443.8 L 283.3,427.5 L 282.6,426.8 L 271.2,415.4 L 270.6,414.8 L 260.9,408.5 L 248.3,400.3 L 239.5,402.4 L 232.0,406.6 L 221.5,415.9 L 212.7,432.0 L 209.2,438.5 L 202.5,450.7 L 176.5,496.8 L 168.5,511.3 L 161.4,524.1 L 160.1,526.4 L 154.1,537.1 L 111.0,614.6 L 104.7,626.0 L 99.0,636.2 L 91.7,649.9 L 90.4,653.2 L 90.0,656.8 L 103.8,667.3 L 120.4,679.6 L 132.8,688.1 L 135.9,690.1 L 147.6,700.0 L 151.1,702.7 L 155.0,707.3 L 155.9,709.2 L 157.7,711.0 L 160.0,711.8 L 158.5,716.7 L 158.0,718.4 L 157.6,729.6 L 163.1,748.7 L 169.7,756.8 L 174.2,760.7 L 174.9,761.4 L 186.7,773.2 L 222.6,802.1 L 225.1,804.7 L 228.2,809.6 L 230.5,813.4 L 235.2,818.7 L 240.4,826.3 L 248.8,838.0 L 250.6,841.0 L 252.6,840.8 L 255.6,840.1 L 258.8,838.5 L 259.3,835.5 L 260.1,831.5 L 295.6,644.5 L 326.1,561.2 L 332.5,542.6 L 340.6,519.4 L 343.5,511.4 L 349.7,493.8 L 353.5,497.1 L 365.0,506.7 L 366.4,507.9 L 382.0,521.4 L 407.2,543.1 L 412.3,547.4 L 422.0,555.8 L 425.0,558.4 L 435.0,567.0 L 443.2,574.0 L 447.9,578.0 L 455.2,584.7 L 462.2,591.2 L 464.3,592.6 L 470.7,596.8 L 476.1,599.4 L 479.6,601.1 L 486.3,603.3 L 494.3,605.6 L 502.9,606.9 L 513.9,608.3 L 517.6,608.4 L 519.4,608.5 L 528.5,609.0 L 530.4,609.1 L 537.2,609.5 L 550.4,610.2 L 574.0,611.4 L 589.7,612.2 L 612.5,613.5 L 623.1,614.0 L 631.0,614.4 L 654.3,615.7 L 678.5,616.8 L 690.1,617.5 L 712.3,618.8 L 737.4,620.1 L 757.6,621.2 L 775.3,622.1 L 778.3,622.3 L 786.3,622.7 L 795.0,623.2 L 802.5,627.4 L 806.5,631.6 L 807.6,636.2 L 807.6,647.4 L 807.7,653.4 L 809.1,659.2 L 811.6,665.3 L 815.8,670.5 L 822.1,674.2 L 829.4,675.9 L 848.0,678.0 L 856.1,678.9 L 917.0,685.1 L 921.8,685.4 Z" fill="none" stroke="#39404f" stroke-width="8.5" stroke-linejoin="round" stroke-linecap="round"/>
<path d="M 921.8,685.4 L 973.4,687.3 L 997.2,688.5 L 1001.7,688.1 L 1004.4,687.1 L 1006.6,685.0 L 1010.1,680.7 L 1035.5,640.9 L 1038.7,634.6 L 1040.0,626.8 L 1039.2,615.8 L 1032.3,556.7 L 1021.9,466.8 L 995.9,293.0 L 995.5,286.7 L 994.2,278.9 L 991.2,274.8 L 986.0,272.2 L 978.9,272.1 L 972.5,272.6 L 963.5,271.9 L 954.0,269.0 L 936.8,260.2 L 935.4,258.2 L 932.0,252.5 L 928.9,246.1 L 924.6,241.0 L 919.6,238.3 L 913.9,237.0 L 908.5,237.0 L 903.5,238.5 L 898.0,242.9 L 895.1,246.8 L 891.8,251.7 L 888.6,258.6 L 888.3,262.8 L 887.5,273.4 L 885.6,297.2 L 886.2,308.1 L 887.1,313.1 L 888.1,318.9 L 891.7,329.3 L 898.8,344.9 L 912.8,383.1 L 918.4,400.3 L 920.3,409.1 L 925.4,440.6 L 926.0,448.3 L 926.7,458.5 L 926.5,466.5 L 925.4,472.5 L 922.3,478.5 L 919.3,483.0 L 916.2,485.8 L 909.5,490.8 L 899.2,495.3 L 885.7,498.8 L 863.9,494.8 L 832.3,492.6 L 824.9,492.6 L 802.5,492.4 L 787.4,492.8 L 782.5,493.2 L 775.1,493.3 L 769.3,492.9 L 742.1,489.4 L 718.4,488.0 L 715.9,487.8 L 708.7,487.4 L 692.5,486.4 L 685.6,486.0 L 668.8,485.0 L 661.3,484.6 L 653.7,483.9 L 642.5,482.8 L 627.3,480.2 L 624.7,479.2 L 619.6,477.5 L 607.0,472.7 L 591.2,463.7 L 587.2,461.3 L 585.9,460.5 L 573.4,453.3 L 571.4,452.2 L 560.2,445.7 L 559.3,445.2 L 548.2,438.8 L 545.1,437.0 L 512.2,418.4 L 508.1,416.0 L 500.5,411.4 L 494.2,407.7 L 485.6,402.6 L 459.7,387.4 L 437.9,375.1 L 420.5,365.3 L 409.2,358.8 L 395.1,382.3 L 379.3,407.9 L 370.6,423.3 L 355.0,453.0 L 343.7,474.6 L 342.0,478.3 L 339.3,484.5 L 331.2,476.3 L 324.0,469.0 L 310.2,455.5 L 299.4,443.8 L 283.3,427.5 L 282.6,426.8 L 271.2,415.4 L 270.6,414.8 L 260.9,408.5 L 248.3,400.3 L 239.5,402.4 L 232.0,406.6 L 221.5,415.9 L 212.7,432.0 L 209.2,438.5 L 202.5,450.7 L 176.5,496.8 L 168.5,511.3 L 161.4,524.1 L 160.1,526.4 L 154.1,537.1 L 111.0,614.6 L 104.7,626.0 L 99.0,636.2 L 91.7,649.9 L 90.4,653.2 L 90.0,656.8 L 103.8,667.3 L 120.4,679.6 L 132.8,688.1 L 135.9,690.1 L 147.6,700.0 L 151.1,702.7 L 155.0,707.3 L 155.9,709.2 L 157.7,711.0 L 160.0,711.8 L 158.5,716.7 L 158.0,718.4 L 157.6,729.6 L 163.1,748.7 L 169.7,756.8 L 174.2,760.7 L 174.9,761.4 L 186.7,773.2 L 222.6,802.1 L 225.1,804.7 L 228.2,809.6 L 230.5,813.4 L 235.2,818.7 L 240.4,826.3 L 248.8,838.0 L 250.6,841.0 L 252.6,840.8 L 255.6,840.1 L 258.8,838.5 L 259.3,835.5 L 260.1,831.5 L 295.6,644.5 L 326.1,561.2 L 332.5,542.6 L 340.6,519.4 L 343.5,511.4 L 349.7,493.8 L 353.5,497.1 L 365.0,506.7 L 366.4,507.9 L 382.0,521.4 L 407.2,543.1 L 412.3,547.4 L 422.0,555.8 L 425.0,558.4 L 435.0,567.0 L 443.2,574.0 L 447.9,578.0 L 455.2,584.7 L 462.2,591.2 L 464.3,592.6 L 470.7,596.8 L 476.1,599.4 L 479.6,601.1 L 486.3,603.3 L 494.3,605.6 L 502.9,606.9 L 513.9,608.3 L 517.6,608.4 L 519.4,608.5 L 528.5,609.0 L 530.4,609.1 L 537.2,609.5 L 550.4,610.2 L 574.0,611.4 L 589.7,612.2 L 612.5,613.5 L 623.1,614.0 L 631.0,614.4 L 654.3,615.7 L 678.5,616.8 L 690.1,617.5 L 712.3,618.8 L 737.4,620.1 L 757.6,621.2 L 775.3,622.1 L 778.3,622.3 L 786.3,622.7 L 795.0,623.2 L 802.5,627.4 L 806.5,631.6 L 807.6,636.2 L 807.6,647.4 L 807.7,653.4 L 809.1,659.2 L 811.6,665.3 L 815.8,670.5 L 822.1,674.2 L 829.4,675.9 L 848.0,678.0 L 856.1,678.9 L 917.0,685.1 L 921.8,685.4 Z" fill="none" stroke="#e7edf8" stroke-width="2.6" stroke-linejoin="round" stroke-linecap="round"/>
<path d="M 921.8,685.4 L 973.4,687.3 L 997.2,688.5 L 1001.7,688.1 L 1004.4,687.1 L 1006.6,685.0 L 1010.1,680.7 L 1035.5,640.9 L 1038.7,634.6 L 1040.0,626.8 L 1039.2,615.8 L 1032.3,556.7 L 1021.9,466.8 L 995.9,293.0 L 995.5,286.7 L 994.2,278.9 L 991.2,274.8 L 986.0,272.2 L 978.9,272.1 L 972.5,272.6 L 963.5,271.9 L 954.0,269.0 L 936.8,260.2 L 935.4,258.2 L 932.0,252.5 L 928.9,246.1 L 924.6,241.0 L 919.6,238.3 L 913.9,237.0 L 908.5,237.0 L 903.5,238.5 L 898.0,242.9 L 895.1,246.8 L 891.8,251.7 L 888.6,258.6 L 888.3,262.8 L 887.5,273.4 L 885.6,297.2 L 886.2,308.1 L 887.1,313.1 L 888.1,318.9 L 891.7,329.3 L 898.8,344.9 L 912.8,383.1 L 918.4,400.3 L 920.3,409.1 L 925.4,440.6 L 926.0,448.3 L 926.7,458.5 L 926.5,466.5 L 925.4,472.5 L 922.3,478.5 L 919.3,483.0 L 916.2,485.8 L 909.5,490.8 L 899.2,495.3 L 885.7,498.8 L 863.9,494.8 L 832.3,492.6 L 824.9,492.6 L 802.5,492.4 L 787.4,492.8 L 782.5,493.2 L 775.1,493.3 L 769.3,492.9 L 742.1,489.4 L 718.4,488.0 L 715.9,487.8 L 708.7,487.4 L 692.5,486.4 L 685.6,486.0 L 668.8,485.0 L 661.3,484.6 L 653.7,483.9 L 642.5,482.8 L 627.3,480.2 L 624.7,479.2 L 619.6,477.5 L 607.0,472.7 L 591.2,463.7 L 587.2,461.3 L 585.9,460.5 L 573.4,453.3 L 571.4,452.2 L 560.2,445.7 L 559.3,445.2 L 548.2,438.8 L 545.1,437.0 L 512.2,418.4 L 508.1,416.0 L 500.5,411.4 L 494.2,407.7 L 485.6,402.6 L 459.7,387.4 L 437.9,375.1 L 420.5,365.3 L 409.2,358.8 L 395.1,382.3 L 379.3,407.9 L 370.6,423.3 L 355.0,453.0 L 343.7,474.6 L 342.0,478.3 L 339.3,484.5 L 331.2,476.3 L 324.0,469.0 L 310.2,455.5 L 299.4,443.8 L 283.3,427.5 L 282.6,426.8 L 271.2,415.4 L 270.6,414.8 L 260.9,408.5 L 248.3,400.3 L 239.5,402.4 L 232.0,406.6 L 221.5,415.9 L 212.7,432.0 L 209.2,438.5 L 202.5,450.7 L 176.5,496.8 L 168.5,511.3 L 161.4,524.1 L 160.1,526.4 L 154.1,537.1 L 111.0,614.6 L 104.7,626.0 L 99.0,636.2 L 91.7,649.9 L 90.4,653.2 L 90.0,656.8 L 103.8,667.3 L 120.4,679.6 L 132.8,688.1 L 135.9,690.1 L 147.6,700.0 L 151.1,702.7 L 155.0,707.3 L 155.9,709.2 L 157.7,711.0 L 160.0,711.8 L 158.5,716.7 L 158.0,718.4 L 157.6,729.6 L 163.1,748.7 L 169.7,756.8 L 174.2,760.7 L 174.9,761.4 L 186.7,773.2 L 222.6,802.1 L 225.1,804.7 L 228.2,809.6 L 230.5,813.4 L 235.2,818.7 L 240.4,826.3 L 248.8,838.0 L 250.6,841.0 L 252.6,840.8 L 255.6,840.1 L 258.8,838.5 L 259.3,835.5 L 260.1,831.5 L 295.6,644.5 L 326.1,561.2 L 332.5,542.6 L 340.6,519.4 L 343.5,511.4 L 349.7,493.8 L 353.5,497.1 L 365.0,506.7 L 366.4,507.9 L 382.0,521.4 L 407.2,543.1 L 412.3,547.4 L 422.0,555.8 L 425.0,558.4 L 435.0,567.0 L 443.2,574.0 L 447.9,578.0 L 455.2,584.7 L 462.2,591.2 L 464.3,592.6 L 470.7,596.8 L 476.1,599.4 L 479.6,601.1 L 486.3,603.3 L 494.3,605.6 L 502.9,606.9 L 513.9,608.3 L 517.6,608.4 L 519.4,608.5 L 528.5,609.0 L 530.4,609.1 L 537.2,609.5 L 550.4,610.2 L 574.0,611.4 L 589.7,612.2 L 612.5,613.5 L 623.1,614.0 L 631.0,614.4 L 654.3,615.7 L 678.5,616.8 L 690.1,617.5 L 712.3,618.8 L 737.4,620.1 L 757.6,621.2 L 775.3,622.1 L 778.3,622.3 L 786.3,622.7 L 795.0,623.2 L 802.5,627.4 L 806.5,631.6 L 807.6,636.2 L 807.6,647.4 L 807.7,653.4 L 809.1,659.2 L 811.6,665.3 L 815.8,670.5 L 822.1,674.2 L 829.4,675.9 L 848.0,678.0 L 856.1,678.9 L 917.0,685.1 L 921.8,685.4 Z" fill="none" stroke="#ff5a36" stroke-opacity="0.55" stroke-width="1.2" stroke-linejoin="round" filter="url(#glow)"/>
<circle cx="921.8" cy="685.4" r="13" fill="none" stroke="#ffffff" stroke-width="3"/>
<rect x="917.8" y="663.4" width="8" height="18" fill="#ffffff"/>
<circle cx="1024.4" cy="488.3" r="7" fill="#ff5a36" stroke="#0a0c12" stroke-width="2.5" filter="url(#glow)"/>
<text x="1024.4" y="491.7" font-size="9" font-weight="700" fill="#0a0c12" text-anchor="middle">1</text>
<circle cx="1019.0" cy="447.5" r="7" fill="#ff5a36" stroke="#0a0c12" stroke-width="2.5" filter="url(#glow)"/>
<text x="1019.0" y="450.9" font-size="9" font-weight="700" fill="#0a0c12" text-anchor="middle">2</text>
<circle cx="1010.7" cy="392.4" r="7" fill="#ff5a36" stroke="#0a0c12" stroke-width="2.5" filter="url(#glow)"/>
<text x="1010.7" y="395.8" font-size="9" font-weight="700" fill="#0a0c12" text-anchor="middle">3</text>
<circle cx="998.6" cy="311.0" r="7" fill="#ff5a36" stroke="#0a0c12" stroke-width="2.5" filter="url(#glow)"/>
<text x="998.6" y="314.4" font-size="9" font-weight="700" fill="#0a0c12" text-anchor="middle">4</text>
<circle cx="887.5" cy="273.1" r="7" fill="#ff5a36" stroke="#0a0c12" stroke-width="2.5" filter="url(#glow)"/>
<text x="887.5" y="276.5" font-size="9" font-weight="700" fill="#0a0c12" text-anchor="middle">5</text>
<circle cx="826.7" cy="492.6" r="7" fill="#ff5a36" stroke="#0a0c12" stroke-width="2.5" filter="url(#glow)"/>
<text x="826.7" y="496.0" font-size="9" font-weight="700" fill="#0a0c12" text-anchor="middle">6</text>
<circle cx="593.3" cy="464.9" r="7" fill="#ff5a36" stroke="#0a0c12" stroke-width="2.5" filter="url(#glow)"/>
<text x="593.3" y="468.3" font-size="9" font-weight="700" fill="#0a0c12" text-anchor="middle">7</text>
<circle cx="471.6" cy="394.4" r="7" fill="#ff5a36" stroke="#0a0c12" stroke-width="2.5" filter="url(#glow)"/>
<text x="471.6" y="397.8" font-size="9" font-weight="700" fill="#0a0c12" text-anchor="middle">8</text>
<circle cx="380.9" cy="405.3" r="7" fill="#ff5a36" stroke="#0a0c12" stroke-width="2.5" filter="url(#glow)"/>
<text x="380.9" y="408.7" font-size="9" font-weight="700" fill="#0a0c12" text-anchor="middle">9</text>
<circle cx="202.6" cy="450.6" r="7" fill="#ff5a36" stroke="#0a0c12" stroke-width="2.5" filter="url(#glow)"/>
<text x="202.6" y="454.0" font-size="9" font-weight="700" fill="#0a0c12" text-anchor="middle">10</text>
<circle cx="157.2" cy="531.8" r="7" fill="#ff5a36" stroke="#0a0c12" stroke-width="2.5" filter="url(#glow)"/>
<text x="157.2" y="535.2" font-size="9" font-weight="700" fill="#0a0c12" text-anchor="middle">11</text>
<circle cx="130.3" cy="579.9" r="7" fill="#ff5a36" stroke="#0a0c12" stroke-width="2.5" filter="url(#glow)"/>
<text x="130.3" y="583.3" font-size="9" font-weight="700" fill="#0a0c12" text-anchor="middle">12</text>
<circle cx="126.8" cy="684.0" r="7" fill="#ff5a36" stroke="#0a0c12" stroke-width="2.5" filter="url(#glow)"/>
<text x="126.8" y="687.4" font-size="9" font-weight="700" fill="#0a0c12" text-anchor="middle">13</text>
<circle cx="284.5" cy="702.9" r="7" fill="#ff5a36" stroke="#0a0c12" stroke-width="2.5" filter="url(#glow)"/>
<text x="284.5" y="706.3" font-size="9" font-weight="700" fill="#0a0c12" text-anchor="middle">14</text>
<circle cx="332.3" cy="543.3" r="7" fill="#ff5a36" stroke="#0a0c12" stroke-width="2.5" filter="url(#glow)"/>
<text x="332.3" y="546.7" font-size="9" font-weight="700" fill="#0a0c12" text-anchor="middle">15</text>
<circle cx="581.9" cy="611.8" r="7" fill="#ff5a36" stroke="#0a0c12" stroke-width="2.5" filter="url(#glow)"/>
<text x="581.9" y="615.2" font-size="9" font-weight="700" fill="#0a0c12" text-anchor="middle">16</text>
<circle cx="621.1" cy="613.9" r="7" fill="#ff5a36" stroke="#0a0c12" stroke-width="2.5" filter="url(#glow)"/>
<text x="621.1" y="617.3" font-size="9" font-weight="700" fill="#0a0c12" text-anchor="middle">17</text>
<circle cx="807.6" cy="643.0" r="7" fill="#ff5a36" stroke="#0a0c12" stroke-width="2.5" filter="url(#glow)"/>
<text x="807.6" y="646.4" font-size="9" font-weight="700" fill="#0a0c12" text-anchor="middle">18</text>
<circle cx="851.6" cy="678.5" r="7" fill="#ff5a36" stroke="#0a0c12" stroke-width="2.5" filter="url(#glow)"/>
<text x="851.6" y="681.9" font-size="9" font-weight="700" fill="#0a0c12" text-anchor="middle">19</text>
<line x1="1024.4" y1="488.3" x2="1076.2" y2="483.6" stroke="#ff5a36" stroke-opacity="0.45" stroke-width="1.3"/>
<text x="1084.2" y="487.6" font-size="15" font-weight="600" fill="#eef2fb" text-anchor="start">Sheares</text>
<line x1="1019.0" y1="447.5" x2="1070.1" y2="446.1" stroke="#ff5a36" stroke-opacity="0.45" stroke-width="1.3"/>
<text x="1078.1" y="450.1" font-size="15" font-weight="600" fill="#eef2fb" text-anchor="start">T2</text>
<line x1="1010.7" y1="392.4" x2="1060.3" y2="376.7" stroke="#ff5a36" stroke-opacity="0.45" stroke-width="1.3"/>
<text x="1068.3" y="380.7" font-size="15" font-weight="600" fill="#eef2fb" text-anchor="start">T3</text>
<line x1="998.6" y1="311.0" x2="1044.8" y2="287.1" stroke="#ff5a36" stroke-opacity="0.45" stroke-width="1.3"/>
<text x="1052.8" y="291.1" font-size="15" font-weight="600" fill="#eef2fb" text-anchor="start">T4</text>
<line x1="887.5" y1="273.1" x2="927.5" y2="239.9" stroke="#ff5a36" stroke-opacity="0.45" stroke-width="1.3"/>
<text x="935.5" y="243.9" font-size="15" font-weight="600" fill="#eef2fb" text-anchor="start">T5</text>
<line x1="826.7" y1="492.6" x2="878.2" y2="515.6" stroke="#ff5a36" stroke-opacity="0.45" stroke-width="1.3"/>
<text x="886.2" y="519.6" font-size="15" font-weight="600" fill="#eef2fb" text-anchor="start">T6</text>
<line x1="593.3" y1="464.9" x2="604.4" y2="414.1" stroke="#ff5a36" stroke-opacity="0.45" stroke-width="1.3"/>
<text x="612.4" y="418.1" font-size="15" font-weight="600" fill="#eef2fb" text-anchor="start">Memorial</text>
<line x1="471.6" y1="394.4" x2="439.1" y2="353.8" stroke="#ff5a36" stroke-opacity="0.45" stroke-width="1.3"/>
<text x="431.1" y="357.8" font-size="15" font-weight="600" fill="#eef2fb" text-anchor="end">Stamford</text>
<line x1="380.9" y1="405.3" x2="336.7" y2="385.8" stroke="#ff5a36" stroke-opacity="0.45" stroke-width="1.3"/>
<text x="328.7" y="389.8" font-size="15" font-weight="600" fill="#eef2fb" text-anchor="end">Padang</text>
<line x1="202.6" y1="450.6" x2="151.7" y2="440.1" stroke="#ff5a36" stroke-opacity="0.45" stroke-width="1.3"/>
<text x="143.7" y="444.1" font-size="15" font-weight="600" fill="#eef2fb" text-anchor="end">Singapore Sling</text>
<line x1="157.2" y1="531.8" x2="105.2" y2="532.2" stroke="#ff5a36" stroke-opacity="0.45" stroke-width="1.3"/>
<text x="97.2" y="536.2" font-size="15" font-weight="600" fill="#eef2fb" text-anchor="end">T11</text>
<line x1="130.3" y1="579.9" x2="78.6" y2="596.2" stroke="#ff5a36" stroke-opacity="0.45" stroke-width="1.3"/>
<text x="70.6" y="600.2" font-size="15" font-weight="600" fill="#eef2fb" text-anchor="end">T12</text>
<line x1="126.8" y1="684.0" x2="77.6" y2="700.9" stroke="#ff5a36" stroke-opacity="0.45" stroke-width="1.3"/>
<text x="69.6" y="704.9" font-size="15" font-weight="600" fill="#eef2fb" text-anchor="end">T13</text>
<line x1="284.5" y1="702.9" x2="239.7" y2="732.9" stroke="#ff5a36" stroke-opacity="0.45" stroke-width="1.3"/>
<text x="231.7" y="736.9" font-size="15" font-weight="600" fill="#eef2fb" text-anchor="end">Connaught</text>
<line x1="332.3" y1="543.3" x2="280.4" y2="564.2" stroke="#ff5a36" stroke-opacity="0.45" stroke-width="1.3"/>
<text x="272.4" y="568.2" font-size="15" font-weight="600" fill="#eef2fb" text-anchor="end">T15</text>
<line x1="581.9" y1="611.8" x2="583.5" y2="692.6" stroke="#ff5a36" stroke-opacity="0.45" stroke-width="1.3"/>
<text x="591.5" y="696.6" font-size="15" font-weight="600" fill="#eef2fb" text-anchor="start">Anderson Bridge</text>
<line x1="621.1" y1="613.9" x2="643.9" y2="660.6" stroke="#ff5a36" stroke-opacity="0.45" stroke-width="1.3"/>
<text x="651.9" y="664.6" font-size="15" font-weight="600" fill="#eef2fb" text-anchor="start">Esplanade</text>
<line x1="807.6" y1="643.0" x2="854.1" y2="724.6" stroke="#ff5a36" stroke-opacity="0.45" stroke-width="1.3"/>
<text x="862.1" y="728.6" font-size="15" font-weight="600" fill="#eef2fb" text-anchor="start">Raffles Boulevard</text>
<line x1="851.6" y1="678.5" x2="897.2" y2="756.6" stroke="#ff5a36" stroke-opacity="0.45" stroke-width="1.3"/>
<text x="905.2" y="760.6" font-size="15" font-weight="600" fill="#eef2fb" text-anchor="start">T19</text>
<text x="90" y="64" font-size="20" letter-spacing="5" fill="#ff5a36" font-weight="700">TRACK ATLAS</text>
<text x="90" y="108" font-size="42" font-weight="800" fill="#ffffff">MARINA BAY STREET CIRCUIT</text>
<text x="90" y="136" font-size="16" fill="#9aa6bd">Singapore, Marina Bay</text>
<rect x="1170" y="200" width="360" height="710" rx="16" fill="#ffffff" fill-opacity="0.04" stroke="#ff5a36" stroke-opacity="0.5"/>
<text x="1198" y="250" font-size="13" letter-spacing="2" fill="#8794ab">LAYOUT</text>
<text x="1198" y="276" font-size="22" font-weight="700" fill="#eef2fb">Grand Prix Circuit</text>
<text x="1198" y="320" font-size="13" letter-spacing="2" fill="#8794ab">LENGTH</text>
<text x="1198" y="346" font-size="22" font-weight="700" fill="#eef2fb">4.940 km</text>
<text x="1198" y="390" font-size="13" letter-spacing="2" fill="#8794ab">CORNERS</text>
<text x="1198" y="416" font-size="22" font-weight="700" fill="#eef2fb">19</text>
<text x="1198" y="460" font-size="13" letter-spacing="2" fill="#8794ab">NAMED CORNERS</text>
<text x="1198" y="486" font-size="22" font-weight="700" fill="#eef2fb">19</text>
<text x="1198" y="530" font-size="13" letter-spacing="2" fill="#8794ab">DIRECTION</text>
<text x="1198" y="556" font-size="22" font-weight="700" fill="#eef2fb">Anticlockwise</text>
<text x="1198" y="600" font-size="13" letter-spacing="2" fill="#8794ab">SECTORS</text>
<text x="1198" y="626" font-size="22" font-weight="700" fill="#eef2fb">3</text>
<text x="1198" y="670" font-size="13" letter-spacing="2" fill="#8794ab">COUNTRY</text>
<text x="1198" y="696" font-size="22" font-weight="700" fill="#eef2fb">SG</text>
<text x="1198" y="740" font-size="13" letter-spacing="2" fill="#8794ab">LOCATION</text>
<text x="1198" y="766" font-size="22" font-weight="700" fill="#eef2fb">Singapore</text>
<text x="90" y="966" font-size="12" fill="#566177">Geometry © OpenStreetMap contributors (ODbL) · corner data: Lovely-Sim-Racing + curated · track-atlas</text>
<text x="90" y="942" font-size="12" fill="#8794ab">⚑ start / finish</text>
</svg>