<svg xmlns="http://www.w3.org/2000/svg" width="1600" height="1000" viewBox="0 0 1600 1000" font-family="Helvetica, Arial, sans-serif">
<defs>
      <radialGradient id="bg" cx="38%" cy="34%" r="85%">
        <stop offset="0%" stop-color="#1b2030"/>
        <stop offset="55%" stop-color="#12151f"/>
        <stop offset="100%" stop-color="#0a0c12"/>
      </radialGradient>
      <linearGradient id="accent" x1="0" y1="0" x2="1" y2="1">
        <stop offset="0%" stop-color="#ff5a36"/>
        <stop offset="100%" stop-color="#ffffff"/>
      </linearGradient>
      <filter id="glow" x="-40%" y="-40%" width="180%" height="180%">
        <feGaussianBlur stdDeviation="6" result="b"/>
        <feMerge><feMergeNode in="b"/><feMergeNode in="SourceGraphic"/></feMerge>
      </filter>
    </defs>
<rect width="1600" height="1000" fill="url(#bg)"/>
<path d="M 661.1,395.6 L 669.8,409.2 L 696.1,450.4 L 701.9,459.0 L 704.6,462.9 L 706.9,466.3 L 708.9,469.8 L 710.7,472.9 L 712.3,476.0 L 714.1,479.7 L 715.7,483.4 L 718.4,490.4 L 720.7,499.9 L 728.0,525.4 L 754.1,616.8 L 787.3,733.6 L 789.5,740.8 L 791.3,747.0 L 792.9,752.4 L 793.3,754.8 L 793.6,756.7 L 793.6,758.6 L 793.5,760.1 L 792.9,762.4 L 792.0,764.9 L 790.8,766.9 L 789.1,769.1 L 787.1,771.1 L 785.6,772.0 L 783.5,773.1 L 780.5,774.8 L 779.2,775.6 L 778.1,776.6 L 776.2,778.3 L 774.3,780.9 L 773.3,782.8 L 772.4,785.0 L 771.8,786.8 L 771.6,788.7 L 771.6,790.4 L 771.7,792.1 L 771.9,793.7 L 772.6,797.3 L 779.0,823.0 L 780.0,827.8 L 780.4,830.9 L 780.1,833.6 L 779.7,835.1 L 779.3,837.1 L 778.7,838.5 L 777.8,840.2 L 776.9,841.8 L 775.8,843.1 L 774.8,844.4 L 773.4,845.6 L 769.0,848.9 L 763.3,852.7 L 687.7,905.3 L 684.0,907.7 L 681.5,909.0 L 679.7,909.5 L 677.1,910.0 L 674.5,910.0 L 672.0,909.7 L 669.3,909.0 L 666.4,907.7 L 664.2,906.3 L 662.3,904.5 L 660.5,902.2 L 659.2,899.8 L 658.3,897.5 L 657.8,895.1 L 657.6,892.6 L 657.7,890.1 L 658.1,887.7 L 658.8,885.3 L 659.8,883.3 L 661.2,881.3 L 662.7,879.5 L 664.0,878.4 L 666.1,876.8 L 668.8,875.1 L 671.4,873.6 L 686.9,863.7 L 696.4,857.8 L 698.5,856.6 L 702.0,854.4 L 705.2,852.2 L 707.0,850.5 L 708.7,848.3 L 710.0,845.9 L 710.9,843.4 L 711.4,840.6 L 711.6,838.3 L 711.5,836.0 L 710.8,833.4 L 709.0,828.0 L 703.0,810.2 L 696.8,790.7 L 693.5,780.1 L 691.8,773.8 L 690.6,769.0 L 688.4,756.7 L 680.6,714.9 L 675.2,682.8 L 674.1,677.9 L 673.0,673.3 L 671.4,669.6 L 669.4,666.0 L 666.7,662.3 L 663.5,659.2 L 661.0,657.1 L 658.6,655.1 L 654.4,652.8 L 651.0,651.4 L 647.6,650.5 L 644.8,650.1 L 625.4,648.6 L 623.1,648.4 L 619.8,648.3 L 616.8,648.5 L 612.0,649.1 L 607.2,650.2 L 603.6,651.3 L 600.3,652.6 L 596.1,654.5 L 592.4,656.7 L 589.3,658.7 L 586.7,660.8 L 583.5,663.8 L 580.5,667.0 L 577.1,671.3 L 574.6,675.5 L 572.0,680.9 L 560.3,709.7 L 532.8,777.6 L 531.5,781.0 L 531.0,782.2 L 529.7,785.3 L 528.1,788.2 L 526.5,790.6 L 524.8,792.7 L 522.0,795.5 L 518.9,797.7 L 516.0,799.2 L 512.1,800.7 L 507.9,801.4 L 505.3,801.7 L 502.5,801.5 L 499.8,801.1 L 496.6,800.3 L 493.3,799.1 L 490.2,797.5 L 487.0,795.3 L 482.5,792.4 L 478.0,790.2 L 475.6,789.5 L 472.6,788.9 L 469.2,788.7 L 464.9,788.9 L 460.9,789.9 L 457.3,791.2 L 454.0,793.0 L 451.3,795.3 L 448.6,797.7 L 446.3,801.0 L 431.7,823.6 L 425.2,833.6 L 418.1,845.1 L 411.7,855.2 L 410.0,857.9 L 408.7,859.7 L 406.0,862.4 L 404.1,863.7 L 402.2,864.8 L 400.3,865.5 L 398.2,866.2 L 395.2,866.6 L 392.3,866.4 L 388.7,865.8 L 385.4,864.2 L 382.6,862.3 L 355.8,842.8 L 352.0,840.0 L 349.4,838.1 L 347.4,836.4 L 344.0,832.5 L 341.8,829.4 L 339.9,826.0 L 338.8,823.5 L 337.9,821.0 L 337.2,818.4 L 336.7,815.8 L 336.4,810.7 L 336.6,806.2 L 337.3,802.0 L 338.4,798.2 L 346.1,777.9 L 349.0,771.1 L 351.4,766.5 L 354.6,761.1 L 357.4,757.0 L 361.6,750.6 L 366.8,743.8 L 372.3,737.6 L 380.1,729.3 L 388.4,721.1 L 397.0,712.9 L 400.7,709.4 L 404.6,706.0 L 408.9,702.6 L 413.4,699.5 L 419.1,695.8 L 422.7,693.7 L 426.0,691.9 L 447.9,680.5 L 469.8,669.1 L 481.5,662.8 L 486.9,659.8 L 491.9,656.4 L 496.2,653.4 L 500.7,649.7 L 506.7,644.0 L 512.7,637.6 L 516.2,633.0 L 518.9,629.0 L 521.3,625.2 L 523.6,621.2 L 528.5,611.5 L 541.1,583.3 L 547.7,568.1 L 549.2,564.7 L 550.7,560.4 L 551.7,556.5 L 552.2,553.3 L 552.5,549.4 L 552.6,546.6 L 552.4,543.0 L 551.9,538.5 L 550.6,533.7 L 548.5,527.8 L 522.9,460.4 L 520.2,450.8 L 518.1,442.2 L 517.1,436.5 L 516.2,430.6 L 514.8,420.2 L 513.7,406.3 L 512.1,385.5 L 510.4,366.4 L 510.1,362.0 L 510.1,360.5 L 510.4,359.3 L 510.9,358.2 L 511.5,357.4 L 512.2,356.7 L 513.4,356.0 L 515.0,355.6 L 516.7,355.7 L 517.9,355.8 L 520.0,356.1 L 526.4,356.4 L 527.9,356.2 L 529.5,355.7 L 530.6,354.7 L 531.6,353.4 L 532.1,352.0 L 532.2,350.5 L 532.1,349.0 L 531.7,347.6 L 530.9,346.2 L 527.0,340.7 L 500.5,294.3 L 478.5,255.7 L 444.0,195.0 L 434.7,178.7 L 432.2,173.9 L 432.1,172.3 L 432.6,170.5 L 433.2,169.5 L 434.2,168.6 L 437.2,168.0 L 439.9,169.1 L 442.8,170.3 L 458.3,177.2 L 473.8,184.8 L 484.7,191.1 L 492.0,194.8 L 499.6,199.4 L 506.9,204.0 L 516.3,210.9 L 521.3,215.0 L 525.7,218.7 L 529.9,222.3 L 536.1,228.0 L 544.0,236.6 L 567.9,264.4 L 598.1,300.1 L 602.1,304.9 L 608.5,312.4 L 611.0,315.1 L 612.0,316.3 L 614.1,318.1 L 619.3,321.6 L 622.4,323.5 L 627.1,326.4 L 629.1,327.6 L 631.8,329.5 L 634.4,331.4 L 636.6,333.2 L 638.5,335.2 L 640.5,337.7 L 641.7,339.3 L 643.2,341.8 L 644.6,344.3 L 646.0,347.0 L 647.5,350.8 L 649.2,355.7 L 650.4,360.6 L 651.0,364.5 L 651.5,368.3 L 652.1,373.0 L 652.7,376.8 L 653.1,379.1 L 653.6,381.2 L 654.6,383.8 L 655.8,386.5 L 656.8,388.5 L 657.8,390.3 L 661.1,395.6 Z" fill="none" stroke="#000000" stroke-opacity="0.5" stroke-width="13" stroke-linejoin="round" stroke-linecap="round"/>
<path d="M 661.1,395.6 L 669.8,409.2 L 696.1,450.4 L 701.9,459.0 L 704.6,462.9 L 706.9,466.3 L 708.9,469.8 L 710.7,472.9 L 712.3,476.0 L 714.1,479.7 L 715.7,483.4 L 718.4,490.4 L 720.7,499.9 L 728.0,525.4 L 754.1,616.8 L 787.3,733.6 L 789.5,740.8 L 791.3,747.0 L 792.9,752.4 L 793.3,754.8 L 793.6,756.7 L 793.6,758.6 L 793.5,760.1 L 792.9,762.4 L 792.0,764.9 L 790.8,766.9 L 789.1,769.1 L 787.1,771.1 L 785.6,772.0 L 783.5,773.1 L 780.5,774.8 L 779.2,775.6 L 778.1,776.6 L 776.2,778.3 L 774.3,780.9 L 773.3,782.8 L 772.4,785.0 L 771.8,786.8 L 771.6,788.7 L 771.6,790.4 L 771.7,792.1 L 771.9,793.7 L 772.6,797.3 L 779.0,823.0 L 780.0,827.8 L 780.4,830.9 L 780.1,833.6 L 779.7,835.1 L 779.3,837.1 L 778.7,838.5 L 777.8,840.2 L 776.9,841.8 L 775.8,843.1 L 774.8,844.4 L 773.4,845.6 L 769.0,848.9 L 763.3,852.7 L 687.7,905.3 L 684.0,907.7 L 681.5,909.0 L 679.7,909.5 L 677.1,910.0 L 674.5,910.0 L 672.0,909.7 L 669.3,909.0 L 666.4,907.7 L 664.2,906.3 L 662.3,904.5 L 660.5,902.2 L 659.2,899.8 L 658.3,897.5 L 657.8,895.1 L 657.6,892.6 L 657.7,890.1 L 658.1,887.7 L 658.8,885.3 L 659.8,883.3 L 661.2,881.3 L 662.7,879.5 L 664.0,878.4 L 666.1,876.8 L 668.8,875.1 L 671.4,873.6 L 686.9,863.7 L 696.4,857.8 L 698.5,856.6 L 702.0,854.4 L 705.2,852.2 L 707.0,850.5 L 708.7,848.3 L 710.0,845.9 L 710.9,843.4 L 711.4,840.6 L 711.6,838.3 L 711.5,836.0 L 710.8,833.4 L 709.0,828.0 L 703.0,810.2 L 696.8,790.7 L 693.5,780.1 L 691.8,773.8 L 690.6,769.0 L 688.4,756.7 L 680.6,714.9 L 675.2,682.8 L 674.1,677.9 L 673.0,673.3 L 671.4,669.6 L 669.4,666.0 L 666.7,662.3 L 663.5,659.2 L 661.0,657.1 L 658.6,655.1 L 654.4,652.8 L 651.0,651.4 L 647.6,650.5 L 644.8,650.1 L 625.4,648.6 L 623.1,648.4 L 619.8,648.3 L 616.8,648.5 L 612.0,649.1 L 607.2,650.2 L 603.6,651.3 L 600.3,652.6 L 596.1,654.5 L 592.4,656.7 L 589.3,658.7 L 586.7,660.8 L 583.5,663.8 L 580.5,667.0 L 577.1,671.3 L 574.6,675.5 L 572.0,680.9 L 560.3,709.7 L 532.8,777.6 L 531.5,781.0 L 531.0,782.2 L 529.7,785.3 L 528.1,788.2 L 526.5,790.6 L 524.8,792.7 L 522.0,795.5 L 518.9,797.7 L 516.0,799.2 L 512.1,800.7 L 507.9,801.4 L 505.3,801.7 L 502.5,801.5 L 499.8,801.1 L 496.6,800.3 L 493.3,799.1 L 490.2,797.5 L 487.0,795.3 L 482.5,792.4 L 478.0,790.2 L 475.6,789.5 L 472.6,788.9 L 469.2,788.7 L 464.9,788.9 L 460.9,789.9 L 457.3,791.2 L 454.0,793.0 L 451.3,795.3 L 448.6,797.7 L 446.3,801.0 L 431.7,823.6 L 425.2,833.6 L 418.1,845.1 L 411.7,855.2 L 410.0,857.9 L 408.7,859.7 L 406.0,862.4 L 404.1,863.7 L 402.2,864.8 L 400.3,865.5 L 398.2,866.2 L 395.2,866.6 L 392.3,866.4 L 388.7,865.8 L 385.4,864.2 L 382.6,862.3 L 355.8,842.8 L 352.0,840.0 L 349.4,838.1 L 347.4,836.4 L 344.0,832.5 L 341.8,829.4 L 339.9,826.0 L 338.8,823.5 L 337.9,821.0 L 337.2,818.4 L 336.7,815.8 L 336.4,810.7 L 336.6,806.2 L 337.3,802.0 L 338.4,798.2 L 346.1,777.9 L 349.0,771.1 L 351.4,766.5 L 354.6,761.1 L 357.4,757.0 L 361.6,750.6 L 366.8,743.8 L 372.3,737.6 L 380.1,729.3 L 388.4,721.1 L 397.0,712.9 L 400.7,709.4 L 404.6,706.0 L 408.9,702.6 L 413.4,699.5 L 419.1,695.8 L 422.7,693.7 L 426.0,691.9 L 447.9,680.5 L 469.8,669.1 L 481.5,662.8 L 486.9,659.8 L 491.9,656.4 L 496.2,653.4 L 500.7,649.7 L 506.7,644.0 L 512.7,637.6 L 516.2,633.0 L 518.9,629.0 L 521.3,625.2 L 523.6,621.2 L 528.5,611.5 L 541.1,583.3 L 547.7,568.1 L 549.2,564.7 L 550.7,560.4 L 551.7,556.5 L 552.2,553.3 L 552.5,549.4 L 552.6,546.6 L 552.4,543.0 L 551.9,538.5 L 550.6,533.7 L 548.5,527.8 L 522.9,460.4 L 520.2,450.8 L 518.1,442.2 L 517.1,436.5 L 516.2,430.6 L 514.8,420.2 L 513.7,406.3 L 512.1,385.5 L 510.4,366.4 L 510.1,362.0 L 510.1,360.5 L 510.4,359.3 L 510.9,358.2 L 511.5,357.4 L 512.2,356.7 L 513.4,356.0 L 515.0,355.6 L 516.7,355.7 L 517.9,355.8 L 520.0,356.1 L 526.4,356.4 L 527.9,356.2 L 529.5,355.7 L 530.6,354.7 L 531.6,353.4 L 532.1,352.0 L 532.2,350.5 L 532.1,349.0 L 531.7,347.6 L 530.9,346.2 L 527.0,340.7 L 500.5,294.3 L 478.5,255.7 L 444.0,195.0 L 434.7,178.7 L 432.2,173.9 L 432.1,172.3 L 432.6,170.5 L 433.2,169.5 L 434.2,168.6 L 437.2,168.0 L 439.9,169.1 L 442.8,170.3 L 458.3,177.2 L 473.8,184.8 L 484.7,191.1 L 492.0,194.8 L 499.6,199.4 L 506.9,204.0 L 516.3,210.9 L 521.3,215.0 L 525.7,218.7 L 529.9,222.3 L 536.1,228.0 L 544.0,236.6 L 567.9,264.4 L 598.1,300.1 L 602.1,304.9 L 608.5,312.4 L 611.0,315.1 L 612.0,316.3 L 614.1,318.1 L 619.3,321.6 L 622.4,323.5 L 627.1,326.4 L 629.1,327.6 L 631.8,329.5 L 634.4,331.4 L 636.6,333.2 L 638.5,335.2 L 640.5,337.7 L 641.7,339.3 L 643.2,341.8 L 644.6,344.3 L 646.0,347.0 L 647.5,350.8 L 649.2,355.7 L 650.4,360.6 L 651.0,364.5 L 651.5,368.3 L 652.1,373.0 L 652.7,376.8 L 653.1,379.1 L 653.6,381.2 L 654.6,383.8 L 655.8,386.5 L 656.8,388.5 L 657.8,390.3 L 661.1,395.6 Z" fill="none" stroke="#39404f" stroke-width="8.5" stroke-linejoin="round" stroke-linecap="round"/>
<path d="M 661.1,395.6 L 669.8,409.2 L 696.1,450.4 L 701.9,459.0 L 704.6,462.9 L 706.9,466.3 L 708.9,469.8 L 710.7,472.9 L 712.3,476.0 L 714.1,479.7 L 715.7,483.4 L 718.4,490.4 L 720.7,499.9 L 728.0,525.4 L 754.1,616.8 L 787.3,733.6 L 789.5,740.8 L 791.3,747.0 L 792.9,752.4 L 793.3,754.8 L 793.6,756.7 L 793.6,758.6 L 793.5,760.1 L 792.9,762.4 L 792.0,764.9 L 790.8,766.9 L 789.1,769.1 L 787.1,771.1 L 785.6,772.0 L 783.5,773.1 L 780.5,774.8 L 779.2,775.6 L 778.1,776.6 L 776.2,778.3 L 774.3,780.9 L 773.3,782.8 L 772.4,785.0 L 771.8,786.8 L 771.6,788.7 L 771.6,790.4 L 771.7,792.1 L 771.9,793.7 L 772.6,797.3 L 779.0,823.0 L 780.0,827.8 L 780.4,830.9 L 780.1,833.6 L 779.7,835.1 L 779.3,837.1 L 778.7,838.5 L 777.8,840.2 L 776.9,841.8 L 775.8,843.1 L 774.8,844.4 L 773.4,845.6 L 769.0,848.9 L 763.3,852.7 L 687.7,905.3 L 684.0,907.7 L 681.5,909.0 L 679.7,909.5 L 677.1,910.0 L 674.5,910.0 L 672.0,909.7 L 669.3,909.0 L 666.4,907.7 L 664.2,906.3 L 662.3,904.5 L 660.5,902.2 L 659.2,899.8 L 658.3,897.5 L 657.8,895.1 L 657.6,892.6 L 657.7,890.1 L 658.1,887.7 L 658.8,885.3 L 659.8,883.3 L 661.2,881.3 L 662.7,879.5 L 664.0,878.4 L 666.1,876.8 L 668.8,875.1 L 671.4,873.6 L 686.9,863.7 L 696.4,857.8 L 698.5,856.6 L 702.0,854.4 L 705.2,852.2 L 707.0,850.5 L 708.7,848.3 L 710.0,845.9 L 710.9,843.4 L 711.4,840.6 L 711.6,838.3 L 711.5,836.0 L 710.8,833.4 L 709.0,828.0 L 703.0,810.2 L 696.8,790.7 L 693.5,780.1 L 691.8,773.8 L 690.6,769.0 L 688.4,756.7 L 680.6,714.9 L 675.2,682.8 L 674.1,677.9 L 673.0,673.3 L 671.4,669.6 L 669.4,666.0 L 666.7,662.3 L 663.5,659.2 L 661.0,657.1 L 658.6,655.1 L 654.4,652.8 L 651.0,651.4 L 647.6,650.5 L 644.8,650.1 L 625.4,648.6 L 623.1,648.4 L 619.8,648.3 L 616.8,648.5 L 612.0,649.1 L 607.2,650.2 L 603.6,651.3 L 600.3,652.6 L 596.1,654.5 L 592.4,656.7 L 589.3,658.7 L 586.7,660.8 L 583.5,663.8 L 580.5,667.0 L 577.1,671.3 L 574.6,675.5 L 572.0,680.9 L 560.3,709.7 L 532.8,777.6 L 531.5,781.0 L 531.0,782.2 L 529.7,785.3 L 528.1,788.2 L 526.5,790.6 L 524.8,792.7 L 522.0,795.5 L 518.9,797.7 L 516.0,799.2 L 512.1,800.7 L 507.9,801.4 L 505.3,801.7 L 502.5,801.5 L 499.8,801.1 L 496.6,800.3 L 493.3,799.1 L 490.2,797.5 L 487.0,795.3 L 482.5,792.4 L 478.0,790.2 L 475.6,789.5 L 472.6,788.9 L 469.2,788.7 L 464.9,788.9 L 460.9,789.9 L 457.3,791.2 L 454.0,793.0 L 451.3,795.3 L 448.6,797.7 L 446.3,801.0 L 431.7,823.6 L 425.2,833.6 L 418.1,845.1 L 411.7,855.2 L 410.0,857.9 L 408.7,859.7 L 406.0,862.4 L 404.1,863.7 L 402.2,864.8 L 400.3,865.5 L 398.2,866.2 L 395.2,866.6 L 392.3,866.4 L 388.7,865.8 L 385.4,864.2 L 382.6,862.3 L 355.8,842.8 L 352.0,840.0 L 349.4,838.1 L 347.4,836.4 L 344.0,832.5 L 341.8,829.4 L 339.9,826.0 L 338.8,823.5 L 337.9,821.0 L 337.2,818.4 L 336.7,815.8 L 336.4,810.7 L 336.6,806.2 L 337.3,802.0 L 338.4,798.2 L 346.1,777.9 L 349.0,771.1 L 351.4,766.5 L 354.6,761.1 L 357.4,757.0 L 361.6,750.6 L 366.8,743.8 L 372.3,737.6 L 380.1,729.3 L 388.4,721.1 L 397.0,712.9 L 400.7,709.4 L 404.6,706.0 L 408.9,702.6 L 413.4,699.5 L 419.1,695.8 L 422.7,693.7 L 426.0,691.9 L 447.9,680.5 L 469.8,669.1 L 481.5,662.8 L 486.9,659.8 L 491.9,656.4 L 496.2,653.4 L 500.7,649.7 L 506.7,644.0 L 512.7,637.6 L 516.2,633.0 L 518.9,629.0 L 521.3,625.2 L 523.6,621.2 L 528.5,611.5 L 541.1,583.3 L 547.7,568.1 L 549.2,564.7 L 550.7,560.4 L 551.7,556.5 L 552.2,553.3 L 552.5,549.4 L 552.6,546.6 L 552.4,543.0 L 551.9,538.5 L 550.6,533.7 L 548.5,527.8 L 522.9,460.4 L 520.2,450.8 L 518.1,442.2 L 517.1,436.5 L 516.2,430.6 L 514.8,420.2 L 513.7,406.3 L 512.1,385.5 L 510.4,366.4 L 510.1,362.0 L 510.1,360.5 L 510.4,359.3 L 510.9,358.2 L 511.5,357.4 L 512.2,356.7 L 513.4,356.0 L 515.0,355.6 L 516.7,355.7 L 517.9,355.8 L 520.0,356.1 L 526.4,356.4 L 527.9,356.2 L 529.5,355.7 L 530.6,354.7 L 531.6,353.4 L 532.1,352.0 L 532.2,350.5 L 532.1,349.0 L 531.7,347.6 L 530.9,346.2 L 527.0,340.7 L 500.5,294.3 L 478.5,255.7 L 444.0,195.0 L 434.7,178.7 L 432.2,173.9 L 432.1,172.3 L 432.6,170.5 L 433.2,169.5 L 434.2,168.6 L 437.2,168.0 L 439.9,169.1 L 442.8,170.3 L 458.3,177.2 L 473.8,184.8 L 484.7,191.1 L 492.0,194.8 L 499.6,199.4 L 506.9,204.0 L 516.3,210.9 L 521.3,215.0 L 525.7,218.7 L 529.9,222.3 L 536.1,228.0 L 544.0,236.6 L 567.9,264.4 L 598.1,300.1 L 602.1,304.9 L 608.5,312.4 L 611.0,315.1 L 612.0,316.3 L 614.1,318.1 L 619.3,321.6 L 622.4,323.5 L 627.1,326.4 L 629.1,327.6 L 631.8,329.5 L 634.4,331.4 L 636.6,333.2 L 638.5,335.2 L 640.5,337.7 L 641.7,339.3 L 643.2,341.8 L 644.6,344.3 L 646.0,347.0 L 647.5,350.8 L 649.2,355.7 L 650.4,360.6 L 651.0,364.5 L 651.5,368.3 L 652.1,373.0 L 652.7,376.8 L 653.1,379.1 L 653.6,381.2 L 654.6,383.8 L 655.8,386.5 L 656.8,388.5 L 657.8,390.3 L 661.1,395.6 Z" fill="none" stroke="#e7edf8" stroke-width="2.6" stroke-linejoin="round" stroke-linecap="round"/>
<path d="M 661.1,395.6 L 669.8,409.2 L 696.1,450.4 L 701.9,459.0 L 704.6,462.9 L 706.9,466.3 L 708.9,469.8 L 710.7,472.9 L 712.3,476.0 L 714.1,479.7 L 715.7,483.4 L 718.4,490.4 L 720.7,499.9 L 728.0,525.4 L 754.1,616.8 L 787.3,733.6 L 789.5,740.8 L 791.3,747.0 L 792.9,752.4 L 793.3,754.8 L 793.6,756.7 L 793.6,758.6 L 793.5,760.1 L 792.9,762.4 L 792.0,764.9 L 790.8,766.9 L 789.1,769.1 L 787.1,771.1 L 785.6,772.0 L 783.5,773.1 L 780.5,774.8 L 779.2,775.6 L 778.1,776.6 L 776.2,778.3 L 774.3,780.9 L 773.3,782.8 L 772.4,785.0 L 771.8,786.8 L 771.6,788.7 L 771.6,790.4 L 771.7,792.1 L 771.9,793.7 L 772.6,797.3 L 779.0,823.0 L 780.0,827.8 L 780.4,830.9 L 780.1,833.6 L 779.7,835.1 L 779.3,837.1 L 778.7,838.5 L 777.8,840.2 L 776.9,841.8 L 775.8,843.1 L 774.8,844.4 L 773.4,845.6 L 769.0,848.9 L 763.3,852.7 L 687.7,905.3 L 684.0,907.7 L 681.5,909.0 L 679.7,909.5 L 677.1,910.0 L 674.5,910.0 L 672.0,909.7 L 669.3,909.0 L 666.4,907.7 L 664.2,906.3 L 662.3,904.5 L 660.5,902.2 L 659.2,899.8 L 658.3,897.5 L 657.8,895.1 L 657.6,892.6 L 657.7,890.1 L 658.1,887.7 L 658.8,885.3 L 659.8,883.3 L 661.2,881.3 L 662.7,879.5 L 664.0,878.4 L 666.1,876.8 L 668.8,875.1 L 671.4,873.6 L 686.9,863.7 L 696.4,857.8 L 698.5,856.6 L 702.0,854.4 L 705.2,852.2 L 707.0,850.5 L 708.7,848.3 L 710.0,845.9 L 710.9,843.4 L 711.4,840.6 L 711.6,838.3 L 711.5,836.0 L 710.8,833.4 L 709.0,828.0 L 703.0,810.2 L 696.8,790.7 L 693.5,780.1 L 691.8,773.8 L 690.6,769.0 L 688.4,756.7 L 680.6,714.9 L 675.2,682.8 L 674.1,677.9 L 673.0,673.3 L 671.4,669.6 L 669.4,666.0 L 666.7,662.3 L 663.5,659.2 L 661.0,657.1 L 658.6,655.1 L 654.4,652.8 L 651.0,651.4 L 647.6,650.5 L 644.8,650.1 L 625.4,648.6 L 623.1,648.4 L 619.8,648.3 L 616.8,648.5 L 612.0,649.1 L 607.2,650.2 L 603.6,651.3 L 600.3,652.6 L 596.1,654.5 L 592.4,656.7 L 589.3,658.7 L 586.7,660.8 L 583.5,663.8 L 580.5,667.0 L 577.1,671.3 L 574.6,675.5 L 572.0,680.9 L 560.3,709.7 L 532.8,777.6 L 531.5,781.0 L 531.0,782.2 L 529.7,785.3 L 528.1,788.2 L 526.5,790.6 L 524.8,792.7 L 522.0,795.5 L 518.9,797.7 L 516.0,799.2 L 512.1,800.7 L 507.9,801.4 L 505.3,801.7 L 502.5,801.5 L 499.8,801.1 L 496.6,800.3 L 493.3,799.1 L 490.2,797.5 L 487.0,795.3 L 482.5,792.4 L 478.0,790.2 L 475.6,789.5 L 472.6,788.9 L 469.2,788.7 L 464.9,788.9 L 460.9,789.9 L 457.3,791.2 L 454.0,793.0 L 451.3,795.3 L 448.6,797.7 L 446.3,801.0 L 431.7,823.6 L 425.2,833.6 L 418.1,845.1 L 411.7,855.2 L 410.0,857.9 L 408.7,859.7 L 406.0,862.4 L 404.1,863.7 L 402.2,864.8 L 400.3,865.5 L 398.2,866.2 L 395.2,866.6 L 392.3,866.4 L 388.7,865.8 L 385.4,864.2 L 382.6,862.3 L 355.8,842.8 L 352.0,840.0 L 349.4,838.1 L 347.4,836.4 L 344.0,832.5 L 341.8,829.4 L 339.9,826.0 L 338.8,823.5 L 337.9,821.0 L 337.2,818.4 L 336.7,815.8 L 336.4,810.7 L 336.6,806.2 L 337.3,802.0 L 338.4,798.2 L 346.1,777.9 L 349.0,771.1 L 351.4,766.5 L 354.6,761.1 L 357.4,757.0 L 361.6,750.6 L 366.8,743.8 L 372.3,737.6 L 380.1,729.3 L 388.4,721.1 L 397.0,712.9 L 400.7,709.4 L 404.6,706.0 L 408.9,702.6 L 413.4,699.5 L 419.1,695.8 L 422.7,693.7 L 426.0,691.9 L 447.9,680.5 L 469.8,669.1 L 481.5,662.8 L 486.9,659.8 L 491.9,656.4 L 496.2,653.4 L 500.7,649.7 L 506.7,644.0 L 512.7,637.6 L 516.2,633.0 L 518.9,629.0 L 521.3,625.2 L 523.6,621.2 L 528.5,611.5 L 541.1,583.3 L 547.7,568.1 L 549.2,564.7 L 550.7,560.4 L 551.7,556.5 L 552.2,553.3 L 552.5,549.4 L 552.6,546.6 L 552.4,543.0 L 551.9,538.5 L 550.6,533.7 L 548.5,527.8 L 522.9,460.4 L 520.2,450.8 L 518.1,442.2 L 517.1,436.5 L 516.2,430.6 L 514.8,420.2 L 513.7,406.3 L 512.1,385.5 L 510.4,366.4 L 510.1,362.0 L 510.1,360.5 L 510.4,359.3 L 510.9,358.2 L 511.5,357.4 L 512.2,356.7 L 513.4,356.0 L 515.0,355.6 L 516.7,355.7 L 517.9,355.8 L 520.0,356.1 L 526.4,356.4 L 527.9,356.2 L 529.5,355.7 L 530.6,354.7 L 531.6,353.4 L 532.1,352.0 L 532.2,350.5 L 532.1,349.0 L 531.7,347.6 L 530.9,346.2 L 527.0,340.7 L 500.5,294.3 L 478.5,255.7 L 444.0,195.0 L 434.7,178.7 L 432.2,173.9 L 432.1,172.3 L 432.6,170.5 L 433.2,169.5 L 434.2,168.6 L 437.2,168.0 L 439.9,169.1 L 442.8,170.3 L 458.3,177.2 L 473.8,184.8 L 484.7,191.1 L 492.0,194.8 L 499.6,199.4 L 506.9,204.0 L 516.3,210.9 L 521.3,215.0 L 525.7,218.7 L 529.9,222.3 L 536.1,228.0 L 544.0,236.6 L 567.9,264.4 L 598.1,300.1 L 602.1,304.9 L 608.5,312.4 L 611.0,315.1 L 612.0,316.3 L 614.1,318.1 L 619.3,321.6 L 622.4,323.5 L 627.1,326.4 L 629.1,327.6 L 631.8,329.5 L 634.4,331.4 L 636.6,333.2 L 638.5,335.2 L 640.5,337.7 L 641.7,339.3 L 643.2,341.8 L 644.6,344.3 L 646.0,347.0 L 647.5,350.8 L 649.2,355.7 L 650.4,360.6 L 651.0,364.5 L 651.5,368.3 L 652.1,373.0 L 652.7,376.8 L 653.1,379.1 L 653.6,381.2 L 654.6,383.8 L 655.8,386.5 L 656.8,388.5 L 657.8,390.3 L 661.1,395.6 Z" fill="none" stroke="#ff5a36" stroke-opacity="0.55" stroke-width="1.2" stroke-linejoin="round" filter="url(#glow)"/>
<circle cx="480.6" cy="259.4" r="13" fill="none" stroke="#ffffff" stroke-width="3"/>
<rect x="476.6" y="237.4" width="8" height="18" fill="#ffffff"/>
<circle cx="435.4" cy="171.2" r="7" fill="#ff5a36" stroke="#0a0c12" stroke-width="2.5" filter="url(#glow)"/>
<text x="435.4" y="174.6" font-size="9" font-weight="700" fill="#0a0c12" text-anchor="middle">1</text>
<circle cx="525.6" cy="218.6" r="7" fill="#ff5a36" stroke="#0a0c12" stroke-width="2.5" filter="url(#glow)"/>
<text x="525.6" y="222.0" font-size="9" font-weight="700" fill="#0a0c12" text-anchor="middle">2</text>
<circle cx="614.6" cy="317.3" r="7" fill="#ff5a36" stroke="#0a0c12" stroke-width="2.5" filter="url(#glow)"/>
<text x="614.6" y="320.7" font-size="9" font-weight="700" fill="#0a0c12" text-anchor="middle">3</text>
<circle cx="636.2" cy="332.9" r="7" fill="#ff5a36" stroke="#0a0c12" stroke-width="2.5" filter="url(#glow)"/>
<text x="636.2" y="336.3" font-size="9" font-weight="700" fill="#0a0c12" text-anchor="middle">4</text>
<circle cx="646.4" cy="357.9" r="7" fill="#ff5a36" stroke="#0a0c12" stroke-width="2.5" filter="url(#glow)"/>
<text x="646.4" y="361.3" font-size="9" font-weight="700" fill="#0a0c12" text-anchor="middle">5</text>
<circle cx="700.4" cy="456.8" r="7" fill="#ff5a36" stroke="#0a0c12" stroke-width="2.5" filter="url(#glow)"/>
<text x="700.4" y="460.2" font-size="9" font-weight="700" fill="#0a0c12" text-anchor="middle">6</text>
<circle cx="777.9" cy="780.9" r="7" fill="#ff5a36" stroke="#0a0c12" stroke-width="2.5" filter="url(#glow)"/>
<text x="777.9" y="784.3" font-size="9" font-weight="700" fill="#0a0c12" text-anchor="middle">7</text>
<circle cx="773.4" cy="800.3" r="7" fill="#ff5a36" stroke="#0a0c12" stroke-width="2.5" filter="url(#glow)"/>
<text x="773.4" y="803.7" font-size="9" font-weight="700" fill="#0a0c12" text-anchor="middle">8</text>
<circle cx="774.6" cy="844.5" r="7" fill="#ff5a36" stroke="#0a0c12" stroke-width="2.5" filter="url(#glow)"/>
<text x="774.6" y="847.9" font-size="9" font-weight="700" fill="#0a0c12" text-anchor="middle">9</text>
<circle cx="666.8" cy="896.5" r="7" fill="#ff5a36" stroke="#0a0c12" stroke-width="2.5" filter="url(#glow)"/>
<text x="666.8" y="899.9" font-size="9" font-weight="700" fill="#0a0c12" text-anchor="middle">10</text>
<circle cx="706.9" cy="850.6" r="7" fill="#ff5a36" stroke="#0a0c12" stroke-width="2.5" filter="url(#glow)"/>
<text x="706.9" y="854.0" font-size="9" font-weight="700" fill="#0a0c12" text-anchor="middle">11</text>
<circle cx="642.3" cy="649.9" r="7" fill="#ff5a36" stroke="#0a0c12" stroke-width="2.5" filter="url(#glow)"/>
<text x="642.3" y="653.3" font-size="9" font-weight="700" fill="#0a0c12" text-anchor="middle">12</text>
<circle cx="508.4" cy="801.3" r="7" fill="#ff5a36" stroke="#0a0c12" stroke-width="2.5" filter="url(#glow)"/>
<text x="508.4" y="804.7" font-size="9" font-weight="700" fill="#0a0c12" text-anchor="middle">13</text>
<circle cx="461.7" cy="789.7" r="7" fill="#ff5a36" stroke="#0a0c12" stroke-width="2.5" filter="url(#glow)"/>
<text x="461.7" y="793.1" font-size="9" font-weight="700" fill="#0a0c12" text-anchor="middle">14</text>
<circle cx="398.9" cy="863.1" r="7" fill="#ff5a36" stroke="#0a0c12" stroke-width="2.5" filter="url(#glow)"/>
<text x="398.9" y="866.5" font-size="9" font-weight="700" fill="#0a0c12" text-anchor="middle">15</text>
<circle cx="343.5" cy="831.8" r="7" fill="#ff5a36" stroke="#0a0c12" stroke-width="2.5" filter="url(#glow)"/>
<text x="343.5" y="835.2" font-size="9" font-weight="700" fill="#0a0c12" text-anchor="middle">16</text>
<circle cx="472.5" cy="667.7" r="7" fill="#ff5a36" stroke="#0a0c12" stroke-width="2.5" filter="url(#glow)"/>
<text x="472.5" y="671.1" font-size="9" font-weight="700" fill="#0a0c12" text-anchor="middle">17</text>
<circle cx="523.2" cy="602.3" r="7" fill="#ff5a36" stroke="#0a0c12" stroke-width="2.5" filter="url(#glow)"/>
<text x="523.2" y="605.7" font-size="9" font-weight="700" fill="#0a0c12" text-anchor="middle">18</text>
<circle cx="513.5" cy="357.6" r="7" fill="#ff5a36" stroke="#0a0c12" stroke-width="2.5" filter="url(#glow)"/>
<text x="513.5" y="361.0" font-size="9" font-weight="700" fill="#0a0c12" text-anchor="middle">19</text>
<circle cx="531.9" cy="348.5" r="7" fill="#ff5a36" stroke="#0a0c12" stroke-width="2.5" filter="url(#glow)"/>
<text x="531.9" y="351.9" font-size="9" font-weight="700" fill="#0a0c12" text-anchor="middle">20</text>
<line x1="435.4" y1="171.2" x2="419.8" y2="168.0" stroke="#ff5a36" stroke-opacity="0.45" stroke-width="1.3"/>
<text x="411.8" y="172.0" font-size="15" font-weight="600" fill="#eef2fb" text-anchor="end">La Source</text>
<line x1="636.2" y1="332.9" x2="645.8" y2="281.8" stroke="#ff5a36" stroke-opacity="0.45" stroke-width="1.3"/>
<text x="653.8" y="285.8" font-size="15" font-weight="600" fill="#eef2fb" text-anchor="start">Eau Rouge-Raidillon</text>
<line x1="777.9" y1="780.9" x2="819.3" y2="812.2" stroke="#ff5a36" stroke-opacity="0.45" stroke-width="1.3"/>
<text x="827.3" y="816.2" font-size="15" font-weight="600" fill="#eef2fb" text-anchor="start">Les Combes</text>
<line x1="773.4" y1="800.3" x2="812.5" y2="844.2" stroke="#ff5a36" stroke-opacity="0.45" stroke-width="1.3"/>
<text x="820.5" y="848.2" font-size="15" font-weight="600" fill="#eef2fb" text-anchor="start">Les Combes</text>
<line x1="774.6" y1="844.5" x2="809.6" y2="883.0" stroke="#ff5a36" stroke-opacity="0.45" stroke-width="1.3"/>
<text x="817.6" y="887.0" font-size="15" font-weight="600" fill="#eef2fb" text-anchor="start">Malmedy</text>
<line x1="666.8" y1="896.5" x2="682.9" y2="930.0" stroke="#ff5a36" stroke-opacity="0.45" stroke-width="1.3"/>
<text x="690.9" y="934.0" font-size="15" font-weight="600" fill="#eef2fb" text-anchor="start">Bruxelles</text>
<line x1="706.9" y1="850.6" x2="732.9" y2="915.0" stroke="#ff5a36" stroke-opacity="0.45" stroke-width="1.3"/>
<text x="740.9" y="919.0" font-size="15" font-weight="600" fill="#eef2fb" text-anchor="start">Rivage</text>
<line x1="642.3" y1="649.9" x2="692.1" y2="664.7" stroke="#ff5a36" stroke-opacity="0.45" stroke-width="1.3"/>
<text x="700.1" y="668.7" font-size="15" font-weight="600" fill="#eef2fb" text-anchor="start">Pouhon</text>
<line x1="461.7" y1="789.7" x2="430.5" y2="831.3" stroke="#ff5a36" stroke-opacity="0.45" stroke-width="1.3"/>
<text x="422.5" y="835.3" font-size="15" font-weight="600" fill="#eef2fb" text-anchor="end">Fagnes-Stavelot</text>
<line x1="398.9" y1="863.1" x2="366.8" y2="904.1" stroke="#ff5a36" stroke-opacity="0.45" stroke-width="1.3"/>
<text x="358.8" y="908.1" font-size="15" font-weight="600" fill="#eef2fb" text-anchor="end">Paul Frère</text>
<line x1="343.5" y1="831.8" x2="303.8" y2="865.4" stroke="#ff5a36" stroke-opacity="0.45" stroke-width="1.3"/>
<text x="295.8" y="869.4" font-size="15" font-weight="600" fill="#eef2fb" text-anchor="end">Campus</text>
<line x1="472.5" y1="667.7" x2="423.2" y2="684.2" stroke="#ff5a36" stroke-opacity="0.45" stroke-width="1.3"/>
<text x="415.2" y="688.2" font-size="15" font-weight="600" fill="#eef2fb" text-anchor="end">Stavelot</text>
<line x1="523.2" y1="602.3" x2="477.0" y2="578.6" stroke="#ff5a36" stroke-opacity="0.45" stroke-width="1.3"/>
<text x="469.0" y="582.6" font-size="15" font-weight="600" fill="#eef2fb" text-anchor="end">Blanchimont</text>
<line x1="531.9" y1="348.5" x2="523.2" y2="297.2" stroke="#ff5a36" stroke-opacity="0.45" stroke-width="1.3"/>
<text x="515.2" y="301.2" font-size="15" font-weight="600" fill="#eef2fb" text-anchor="end">Bus Stop</text>
<text x="90" y="64" font-size="20" letter-spacing="5" fill="#ff5a36" font-weight="700">TRACK ATLAS</text>
<text x="90" y="108" font-size="42" font-weight="800" fill="#ffffff">CIRCUIT DE SPA-FRANCORCHAMPS</text>
<text x="90" y="136" font-size="16" fill="#9aa6bd">Spa</text>
<rect x="1170" y="200" width="360" height="710" rx="16" fill="#ffffff" fill-opacity="0.04" stroke="#ff5a36" stroke-opacity="0.5"/>
<text x="1198" y="250" font-size="13" letter-spacing="2" fill="#8794ab">LAYOUT</text>
<text x="1198" y="276" font-size="22" font-weight="700" fill="#eef2fb">Grand Prix Circuit</text>
<text x="1198" y="320" font-size="13" letter-spacing="2" fill="#8794ab">LENGTH</text>
<text x="1198" y="346" font-size="22" font-weight="700" fill="#eef2fb">7.004 km</text>
<text x="1198" y="390" font-size="13" letter-spacing="2" fill="#8794ab">CORNERS</text>
<text x="1198" y="416" font-size="22" font-weight="700" fill="#eef2fb">20</text>
<text x="1198" y="460" font-size="13" letter-spacing="2" fill="#8794ab">NAMED CORNERS</text>
<text x="1198" y="486" font-size="22" font-weight="700" fill="#eef2fb">18</text>
<text x="1198" y="530" font-size="13" letter-spacing="2" fill="#8794ab">DIRECTION</text>
<text x="1198" y="556" font-size="22" font-weight="700" fill="#eef2fb">Clockwise</text>
<text x="1198" y="600" font-size="13" letter-spacing="2" fill="#8794ab">SECTORS</text>
<text x="1198" y="626" font-size="22" font-weight="700" fill="#eef2fb">3</text>
<text x="1198" y="670" font-size="13" letter-spacing="2" fill="#8794ab">COUNTRY</text>
<text x="1198" y="696" font-size="22" font-weight="700" fill="#eef2fb">Belgium</text>
<text x="1198" y="740" font-size="13" letter-spacing="2" fill="#8794ab">LOCATION</text>
<text x="1198" y="766" font-size="22" font-weight="700" fill="#eef2fb">Stavelot</text>
<text x="1198" y="810" font-size="13" letter-spacing="2" fill="#8794ab">COMPLEXES</text>
<rect x="1198" y="816" width="166" height="24" rx="12" fill="#ff5a36" fill-opacity="0.16" stroke="#ff5a36" stroke-opacity="0.5"/>
<text x="1281" y="833" font-size="12" fill="#eef2fb" text-anchor="middle">Eau Rouge-Raidillon</text>
<rect x="1374" y="816" width="134" height="24" rx="12" fill="#ff5a36" fill-opacity="0.16" stroke="#ff5a36" stroke-opacity="0.5"/>
<text x="1441" y="833" font-size="12" fill="#eef2fb" text-anchor="middle">Fagnes-Stavelot</text>
<rect x="1198" y="850" width="78" height="24" rx="12" fill="#ff5a36" fill-opacity="0.16" stroke="#ff5a36" stroke-opacity="0.5"/>
<text x="1237" y="867" font-size="12" fill="#eef2fb" text-anchor="middle">Bus Stop</text>
<text x="90" y="966" font-size="12" fill="#566177">Geometry © OpenStreetMap contributors (ODbL) · corner data: Lovely-Sim-Racing + curated · track-atlas</text>
<text x="90" y="942" font-size="12" fill="#8794ab">⚑ start / finish</text>
</svg>