<svg xmlns="http://www.w3.org/2000/svg" width="1600" height="1000" viewBox="0 0 1600 1000" font-family="Helvetica, Arial, sans-serif">
<defs>
      <radialGradient id="bg" cx="38%" cy="34%" r="85%">
        <stop offset="0%" stop-color="#1b2030"/>
        <stop offset="55%" stop-color="#12151f"/>
        <stop offset="100%" stop-color="#0a0c12"/>
      </radialGradient>
      <linearGradient id="accent" x1="0" y1="0" x2="1" y2="1">
        <stop offset="0%" stop-color="#ff5a36"/>
        <stop offset="100%" stop-color="#ffffff"/>
      </linearGradient>
      <filter id="glow" x="-40%" y="-40%" width="180%" height="180%">
        <feGaussianBlur stdDeviation="6" result="b"/>
        <feMerge><feMergeNode in="b"/><feMergeNode in="SourceGraphic"/></feMerge>
      </filter>
    </defs>
<rect width="1600" height="1000" fill="url(#bg)"/>
<line x1="0" y1="0" x2="0" y2="1000" stroke="#ffffff" stroke-opacity="0.025"/>
<line x1="56" y1="0" x2="56" y2="1000" stroke="#ffffff" stroke-opacity="0.025"/>
<line x1="112" y1="0" x2="112" y2="1000" stroke="#ffffff" stroke-opacity="0.025"/>
<line x1="168" y1="0" x2="168" y2="1000" stroke="#ffffff" stroke-opacity="0.025"/>
<line x1="224" y1="0" x2="224" y2="1000" stroke="#ffffff" stroke-opacity="0.025"/>
<line x1="280" y1="0" x2="280" y2="1000" stroke="#ffffff" stroke-opacity="0.025"/>
<line x1="336" y1="0" x2="336" y2="1000" stroke="#ffffff" stroke-opacity="0.025"/>
<line x1="392" y1="0" x2="392" y2="1000" stroke="#ffffff" stroke-opacity="0.025"/>
<line x1="448" y1="0" x2="448" y2="1000" stroke="#ffffff" stroke-opacity="0.025"/>
<line x1="504" y1="0" x2="504" y2="1000" stroke="#ffffff" stroke-opacity="0.025"/>
<line x1="560" y1="0" x2="560" y2="1000" stroke="#ffffff" stroke-opacity="0.025"/>
<line x1="616" y1="0" x2="616" y2="1000" stroke="#ffffff" stroke-opacity="0.025"/>
<line x1="672" y1="0" x2="672" y2="1000" stroke="#ffffff" stroke-opacity="0.025"/>
<line x1="728" y1="0" x2="728" y2="1000" stroke="#ffffff" stroke-opacity="0.025"/>
<line x1="784" y1="0" x2="784" y2="1000" stroke="#ffffff" stroke-opacity="0.025"/>
<line x1="840" y1="0" x2="840" y2="1000" stroke="#ffffff" stroke-opacity="0.025"/>
<line x1="896" y1="0" x2="896" y2="1000" stroke="#ffffff" stroke-opacity="0.025"/>
<line x1="952" y1="0" x2="952" y2="1000" stroke="#ffffff" stroke-opacity="0.025"/>
<line x1="1008" y1="0" x2="1008" y2="1000" stroke="#ffffff" stroke-opacity="0.025"/>
<line x1="1064" y1="0" x2="1064" y2="1000" stroke="#ffffff" stroke-opacity="0.025"/>
<line x1="1120" y1="0" x2="1120" y2="1000" stroke="#ffffff" stroke-opacity="0.025"/>
<line x1="1176" y1="0" x2="1176" y2="1000" stroke="#ffffff" stroke-opacity="0.025"/>
<line x1="1232" y1="0" x2="1232" y2="1000" stroke="#ffffff" stroke-opacity="0.025"/>
<line x1="1288" y1="0" x2="1288" y2="1000" stroke="#ffffff" stroke-opacity="0.025"/>
<line x1="1344" y1="0" x2="1344" y2="1000" stroke="#ffffff" stroke-opacity="0.025"/>
<line x1="1400" y1="0" x2="1400" y2="1000" stroke="#ffffff" stroke-opacity="0.025"/>
<line x1="1456" y1="0" x2="1456" y2="1000" stroke="#ffffff" stroke-opacity="0.025"/>
<line x1="1512" y1="0" x2="1512" y2="1000" stroke="#ffffff" stroke-opacity="0.025"/>
<line x1="1568" y1="0" x2="1568" y2="1000" stroke="#ffffff" stroke-opacity="0.025"/>
<line x1="0" y1="0" x2="1600" y2="0" stroke="#ffffff" stroke-opacity="0.025"/>
<line x1="0" y1="56" x2="1600" y2="56" stroke="#ffffff" stroke-opacity="0.025"/>
<line x1="0" y1="112" x2="1600" y2="112" stroke="#ffffff" stroke-opacity="0.025"/>
<line x1="0" y1="168" x2="1600" y2="168" stroke="#ffffff" stroke-opacity="0.025"/>
<line x1="0" y1="224" x2="1600" y2="224" stroke="#ffffff" stroke-opacity="0.025"/>
<line x1="0" y1="280" x2="1600" y2="280" stroke="#ffffff" stroke-opacity="0.025"/>
<line x1="0" y1="336" x2="1600" y2="336" stroke="#ffffff" stroke-opacity="0.025"/>
<line x1="0" y1="392" x2="1600" y2="392" stroke="#ffffff" stroke-opacity="0.025"/>
<line x1="0" y1="448" x2="1600" y2="448" stroke="#ffffff" stroke-opacity="0.025"/>
<line x1="0" y1="504" x2="1600" y2="504" stroke="#ffffff" stroke-opacity="0.025"/>
<line x1="0" y1="560" x2="1600" y2="560" stroke="#ffffff" stroke-opacity="0.025"/>
<line x1="0" y1="616" x2="1600" y2="616" stroke="#ffffff" stroke-opacity="0.025"/>
<line x1="0" y1="672" x2="1600" y2="672" stroke="#ffffff" stroke-opacity="0.025"/>
<line x1="0" y1="728" x2="1600" y2="728" stroke="#ffffff" stroke-opacity="0.025"/>
<line x1="0" y1="784" x2="1600" y2="784" stroke="#ffffff" stroke-opacity="0.025"/>
<line x1="0" y1="840" x2="1600" y2="840" stroke="#ffffff" stroke-opacity="0.025"/>
<line x1="0" y1="896" x2="1600" y2="896" stroke="#ffffff" stroke-opacity="0.025"/>
<line x1="0" y1="952" x2="1600" y2="952" stroke="#ffffff" stroke-opacity="0.025"/>
<path d="M 640.8,637.1 L 662.4,566.6 L 699.7,469.0 L 706.4,449.6 L 712.6,427.4 L 719.8,397.4 L 725.4,371.0 L 732.1,332.1 L 735.5,308.4 L 446.9,648.4 L 449.2,652.1 L 452.3,657.4 L 455.4,664.8 L 457.3,671.2 L 458.3,678.1 L 458.8,683.9 L 458.5,688.6 L 458.3,693.9 L 457.6,699.4 L 456.1,705.3 L 454.0,712.0 L 451.6,718.2 L 448.5,723.9 L 445.4,729.2 L 441.8,733.7 L 438.0,738.0 L 433.5,742.5 L 428.5,746.3 L 422.8,750.4 L 417.4,753.2 L 280.4,533.9 L 278.5,524.8 L 277.4,516.0 L 277.4,513.2 L 277.2,502.0 L 278.0,496.0 L 278.7,491.4 L 280.0,484.2 L 280.0,484.2 L 286.5,472.3 L 291.8,463.6 L 296.0,457.3 L 302.9,447.9 L 315.3,431.3 L 330.7,412.0 L 342.9,396.6 L 352.2,385.0 L 360.6,375.3 L 366.4,369.0 L 380.5,355.7 L 388.5,347.7 L 394.8,341.4 L 404.1,330.9 L 410.6,322.0 L 417.7,312.0 L 422.2,305.2 L 428.0,295.2 L 434.1,283.1 L 448.6,254.1 L 456.9,237.8 L 464.2,222.5 L 469.3,211.2 L 473.3,201.5 L 476.6,191.8 L 480.9,177.5 L 486.0,159.9 L 499.8,110.1 L 499.8,110.1 L 501.1,105.9 L 502.6,102.4 L 504.8,99.1 L 508.5,95.3 L 512.7,92.5 L 516.8,90.9 L 520.2,90.2 L 524.7,90.0 L 529.3,90.6 Z" fill="none" stroke="#000000" stroke-opacity="0.5" stroke-width="13" stroke-linejoin="round" stroke-linecap="round"/>
<path d="M 640.8,637.1 L 662.4,566.6 L 699.7,469.0 L 706.4,449.6 L 712.6,427.4 L 719.8,397.4 L 725.4,371.0 L 732.1,332.1 L 735.5,308.4 L 446.9,648.4 L 449.2,652.1 L 452.3,657.4 L 455.4,664.8 L 457.3,671.2 L 458.3,678.1 L 458.8,683.9 L 458.5,688.6 L 458.3,693.9 L 457.6,699.4 L 456.1,705.3 L 454.0,712.0 L 451.6,718.2 L 448.5,723.9 L 445.4,729.2 L 441.8,733.7 L 438.0,738.0 L 433.5,742.5 L 428.5,746.3 L 422.8,750.4 L 417.4,753.2 L 280.4,533.9 L 278.5,524.8 L 277.4,516.0 L 277.4,513.2 L 277.2,502.0 L 278.0,496.0 L 278.7,491.4 L 280.0,484.2 L 280.0,484.2 L 286.5,472.3 L 291.8,463.6 L 296.0,457.3 L 302.9,447.9 L 315.3,431.3 L 330.7,412.0 L 342.9,396.6 L 352.2,385.0 L 360.6,375.3 L 366.4,369.0 L 380.5,355.7 L 388.5,347.7 L 394.8,341.4 L 404.1,330.9 L 410.6,322.0 L 417.7,312.0 L 422.2,305.2 L 428.0,295.2 L 434.1,283.1 L 448.6,254.1 L 456.9,237.8 L 464.2,222.5 L 469.3,211.2 L 473.3,201.5 L 476.6,191.8 L 480.9,177.5 L 486.0,159.9 L 499.8,110.1 L 499.8,110.1 L 501.1,105.9 L 502.6,102.4 L 504.8,99.1 L 508.5,95.3 L 512.7,92.5 L 516.8,90.9 L 520.2,90.2 L 524.7,90.0 L 529.3,90.6 Z" fill="none" stroke="#39404f" stroke-width="8.5" stroke-linejoin="round" stroke-linecap="round"/>
<path d="M 640.8,637.1 L 662.4,566.6 L 699.7,469.0 L 706.4,449.6 L 712.6,427.4 L 719.8,397.4 L 725.4,371.0 L 732.1,332.1 L 735.5,308.4 L 446.9,648.4 L 449.2,652.1 L 452.3,657.4 L 455.4,664.8 L 457.3,671.2 L 458.3,678.1 L 458.8,683.9 L 458.5,688.6 L 458.3,693.9 L 457.6,699.4 L 456.1,705.3 L 454.0,712.0 L 451.6,718.2 L 448.5,723.9 L 445.4,729.2 L 441.8,733.7 L 438.0,738.0 L 433.5,742.5 L 428.5,746.3 L 422.8,750.4 L 417.4,753.2 L 280.4,533.9 L 278.5,524.8 L 277.4,516.0 L 277.4,513.2 L 277.2,502.0 L 278.0,496.0 L 278.7,491.4 L 280.0,484.2 L 280.0,484.2 L 286.5,472.3 L 291.8,463.6 L 296.0,457.3 L 302.9,447.9 L 315.3,431.3 L 330.7,412.0 L 342.9,396.6 L 352.2,385.0 L 360.6,375.3 L 366.4,369.0 L 380.5,355.7 L 388.5,347.7 L 394.8,341.4 L 404.1,330.9 L 410.6,322.0 L 417.7,312.0 L 422.2,305.2 L 428.0,295.2 L 434.1,283.1 L 448.6,254.1 L 456.9,237.8 L 464.2,222.5 L 469.3,211.2 L 473.3,201.5 L 476.6,191.8 L 480.9,177.5 L 486.0,159.9 L 499.8,110.1 L 499.8,110.1 L 501.1,105.9 L 502.6,102.4 L 504.8,99.1 L 508.5,95.3 L 512.7,92.5 L 516.8,90.9 L 520.2,90.2 L 524.7,90.0 L 529.3,90.6 Z" fill="none" stroke="#e7edf8" stroke-width="2.6" stroke-linejoin="round" stroke-linecap="round"/>
<path d="M 640.8,637.1 L 662.4,566.6 L 699.7,469.0 L 706.4,449.6 L 712.6,427.4 L 719.8,397.4 L 725.4,371.0 L 732.1,332.1 L 735.5,308.4 L 446.9,648.4 L 449.2,652.1 L 452.3,657.4 L 455.4,664.8 L 457.3,671.2 L 458.3,678.1 L 458.8,683.9 L 458.5,688.6 L 458.3,693.9 L 457.6,699.4 L 456.1,705.3 L 454.0,712.0 L 451.6,718.2 L 448.5,723.9 L 445.4,729.2 L 441.8,733.7 L 438.0,738.0 L 433.5,742.5 L 428.5,746.3 L 422.8,750.4 L 417.4,753.2 L 280.4,533.9 L 278.5,524.8 L 277.4,516.0 L 277.4,513.2 L 277.2,502.0 L 278.0,496.0 L 278.7,491.4 L 280.0,484.2 L 280.0,484.2 L 286.5,472.3 L 291.8,463.6 L 296.0,457.3 L 302.9,447.9 L 315.3,431.3 L 330.7,412.0 L 342.9,396.6 L 352.2,385.0 L 360.6,375.3 L 366.4,369.0 L 380.5,355.7 L 388.5,347.7 L 394.8,341.4 L 404.1,330.9 L 410.6,322.0 L 417.7,312.0 L 422.2,305.2 L 428.0,295.2 L 434.1,283.1 L 448.6,254.1 L 456.9,237.8 L 464.2,222.5 L 469.3,211.2 L 473.3,201.5 L 476.6,191.8 L 480.9,177.5 L 486.0,159.9 L 499.8,110.1 L 499.8,110.1 L 501.1,105.9 L 502.6,102.4 L 504.8,99.1 L 508.5,95.3 L 512.7,92.5 L 516.8,90.9 L 520.2,90.2 L 524.7,90.0 L 529.3,90.6 Z" fill="none" stroke="#ff5a36" stroke-opacity="0.55" stroke-width="1.2" stroke-linejoin="round" filter="url(#glow)"/>
<circle cx="861.9" cy="584.3" r="13" fill="none" stroke="#ffffff" stroke-width="3"/>
<rect x="857.9" y="562.3" width="8" height="18" fill="#ffffff"/>
<circle cx="788.1" cy="910.0" r="7" fill="#ff5a36" stroke="#0a0c12" stroke-width="2.5" filter="url(#glow)"/>
<text x="788.1" y="913.4" font-size="9" font-weight="700" fill="#0a0c12" text-anchor="middle">1</text>
<circle cx="604.4" cy="825.6" r="7" fill="#ff5a36" stroke="#0a0c12" stroke-width="2.5" filter="url(#glow)"/>
<text x="604.4" y="829.0" font-size="9" font-weight="700" fill="#0a0c12" text-anchor="middle">2</text>
<circle cx="703.9" cy="439.8" r="7" fill="#ff5a36" stroke="#0a0c12" stroke-width="2.5" filter="url(#glow)"/>
<text x="703.9" y="443.2" font-size="9" font-weight="700" fill="#0a0c12" text-anchor="middle">3</text>
<circle cx="678.4" cy="284.4" r="7" fill="#ff5a36" stroke="#0a0c12" stroke-width="2.5" filter="url(#glow)"/>
<text x="678.4" y="287.8" font-size="9" font-weight="700" fill="#0a0c12" text-anchor="middle">4</text>
<circle cx="568.3" cy="326.5" r="7" fill="#ff5a36" stroke="#0a0c12" stroke-width="2.5" filter="url(#glow)"/>
<text x="568.3" y="329.9" font-size="9" font-weight="700" fill="#0a0c12" text-anchor="middle">5</text>
<circle cx="567.0" cy="430.2" r="7" fill="#ff5a36" stroke="#0a0c12" stroke-width="2.5" filter="url(#glow)"/>
<text x="567.0" y="433.6" font-size="9" font-weight="700" fill="#0a0c12" text-anchor="middle">6</text>
<circle cx="439.1" cy="536.4" r="7" fill="#ff5a36" stroke="#0a0c12" stroke-width="2.5" filter="url(#glow)"/>
<text x="439.1" y="539.8" font-size="9" font-weight="700" fill="#0a0c12" text-anchor="middle">7</text>
<circle cx="447.2" cy="704.3" r="7" fill="#ff5a36" stroke="#0a0c12" stroke-width="2.5" filter="url(#glow)"/>
<text x="447.2" y="707.7" font-size="9" font-weight="700" fill="#0a0c12" text-anchor="middle">8</text>
<circle cx="278.4" cy="507.7" r="7" fill="#ff5a36" stroke="#0a0c12" stroke-width="2.5" filter="url(#glow)"/>
<text x="278.4" y="511.1" font-size="9" font-weight="700" fill="#0a0c12" text-anchor="middle">9</text>
<circle cx="395.2" cy="322.5" r="7" fill="#ff5a36" stroke="#0a0c12" stroke-width="2.5" filter="url(#glow)"/>
<text x="395.2" y="325.9" font-size="9" font-weight="700" fill="#0a0c12" text-anchor="middle">10</text>
<circle cx="512.1" cy="96.7" r="7" fill="#ff5a36" stroke="#0a0c12" stroke-width="2.5" filter="url(#glow)"/>
<text x="512.1" y="100.1" font-size="9" font-weight="700" fill="#0a0c12" text-anchor="middle">11</text>
<circle cx="672.2" cy="168.1" r="7" fill="#ff5a36" stroke="#0a0c12" stroke-width="2.5" filter="url(#glow)"/>
<text x="672.2" y="171.5" font-size="9" font-weight="700" fill="#0a0c12" text-anchor="middle">12</text>
<circle cx="852.8" cy="164.6" r="7" fill="#ff5a36" stroke="#0a0c12" stroke-width="2.5" filter="url(#glow)"/>
<text x="852.8" y="168.0" font-size="9" font-weight="700" fill="#0a0c12" text-anchor="middle">13</text>
<line x1="788.1" y1="910.0" x2="817.1" y2="953.2" stroke="#ff5a36" stroke-opacity="0.45" stroke-width="1.3"/>
<text x="825.1" y="957.2" font-size="15" font-weight="600" fill="#eef2fb" text-anchor="start">Turn 1</text>
<line x1="604.4" y1="825.6" x2="621.5" y2="874.7" stroke="#ff5a36" stroke-opacity="0.45" stroke-width="1.3"/>
<text x="629.5" y="878.7" font-size="15" font-weight="600" fill="#eef2fb" text-anchor="start">Turn 3</text>
<line x1="703.9" y1="439.8" x2="755.8" y2="459.4" stroke="#ff5a36" stroke-opacity="0.45" stroke-width="1.3"/>
<text x="763.8" y="463.4" font-size="15" font-weight="600" fill="#eef2fb" text-anchor="start">Moraine Sweep</text>
<line x1="678.4" y1="284.4" x2="721.1" y2="254.7" stroke="#ff5a36" stroke-opacity="0.45" stroke-width="1.3"/>
<text x="729.1" y="258.7" font-size="15" font-weight="600" fill="#eef2fb" text-anchor="start">Turn 5</text>
<line x1="568.3" y1="326.5" x2="604.4" y2="289.0" stroke="#ff5a36" stroke-opacity="0.45" stroke-width="1.3"/>
<text x="612.4" y="293.0" font-size="15" font-weight="600" fill="#eef2fb" text-anchor="start">Turn 6</text>
<line x1="567.0" y1="430.2" x2="619.0" y2="429.4" stroke="#ff5a36" stroke-opacity="0.45" stroke-width="1.3"/>
<text x="627.0" y="433.4" font-size="15" font-weight="600" fill="#eef2fb" text-anchor="start">Turn 7</text>
<line x1="439.1" y1="536.4" x2="425.6" y2="586.6" stroke="#ff5a36" stroke-opacity="0.45" stroke-width="1.3"/>
<text x="417.6" y="590.6" font-size="15" font-weight="600" fill="#eef2fb" text-anchor="end">Turn 8</text>
<line x1="447.2" y1="704.3" x2="443.4" y2="756.2" stroke="#ff5a36" stroke-opacity="0.45" stroke-width="1.3"/>
<text x="435.4" y="760.2" font-size="15" font-weight="600" fill="#eef2fb" text-anchor="end">The Carousel</text>
<line x1="278.4" y1="507.7" x2="230.2" y2="527.1" stroke="#ff5a36" stroke-opacity="0.45" stroke-width="1.3"/>
<text x="222.2" y="531.1" font-size="15" font-weight="600" fill="#eef2fb" text-anchor="end">The Kink</text>
<line x1="395.2" y1="322.5" x2="366.6" y2="279.1" stroke="#ff5a36" stroke-opacity="0.45" stroke-width="1.3"/>
<text x="358.6" y="283.1" font-size="15" font-weight="600" fill="#eef2fb" text-anchor="end">Kettle Bottoms</text>
<line x1="512.1" y1="96.7" x2="519.0" y2="45.1" stroke="#ff5a36" stroke-opacity="0.45" stroke-width="1.3"/>
<text x="527.0" y="49.1" font-size="15" font-weight="600" fill="#eef2fb" text-anchor="start">Canada Corner</text>
<line x1="672.2" y1="168.1" x2="704.1" y2="127.0" stroke="#ff5a36" stroke-opacity="0.45" stroke-width="1.3"/>
<text x="712.1" y="131.0" font-size="15" font-weight="600" fill="#eef2fb" text-anchor="start">Bill Mitchell Bend</text>
<line x1="852.8" y1="164.6" x2="895.5" y2="157.0" stroke="#ff5a36" stroke-opacity="0.45" stroke-width="1.3"/>
<text x="903.5" y="161.0" font-size="15" font-weight="600" fill="#eef2fb" text-anchor="start">Turn 14</text>
<text x="90" y="64" font-size="20" letter-spacing="5" fill="#ff5a36" font-weight="700">TRACK ATLAS</text>
<text x="90" y="108" font-size="42" font-weight="800" fill="#ffffff">ROAD AMERICA</text>
<text x="90" y="136" font-size="16" fill="#9aa6bd">Elkhart Lake</text>
<rect x="1170" y="200" width="360" height="710" rx="16" fill="#ffffff" fill-opacity="0.04" stroke="#ff5a36" stroke-opacity="0.5"/>
<text x="1198" y="250" font-size="13" letter-spacing="2" fill="#8794ab">LAYOUT</text>
<text x="1198" y="276" font-size="22" font-weight="700" fill="#eef2fb">Full Course</text>
<text x="1198" y="320" font-size="13" letter-spacing="2" fill="#8794ab">LENGTH</text>
<text x="1198" y="346" font-size="22" font-weight="700" fill="#eef2fb">6.514 km</text>
<text x="1198" y="390" font-size="13" letter-spacing="2" fill="#8794ab">CORNERS</text>
<text x="1198" y="416" font-size="22" font-weight="700" fill="#eef2fb">13</text>
<text x="1198" y="460" font-size="13" letter-spacing="2" fill="#8794ab">NAMED CORNERS</text>
<text x="1198" y="486" font-size="22" font-weight="700" fill="#eef2fb">13</text>
<text x="1198" y="530" font-size="13" letter-spacing="2" fill="#8794ab">DIRECTION</text>
<text x="1198" y="556" font-size="22" font-weight="700" fill="#eef2fb">Clockwise</text>
<text x="1198" y="600" font-size="13" letter-spacing="2" fill="#8794ab">SECTORS</text>
<text x="1198" y="626" font-size="22" font-weight="700" fill="#eef2fb">6</text>
<text x="1198" y="670" font-size="13" letter-spacing="2" fill="#8794ab">COUNTRY</text>
<text x="1198" y="696" font-size="22" font-weight="700" fill="#eef2fb">USA</text>
<text x="1198" y="740" font-size="13" letter-spacing="2" fill="#8794ab">LOCATION</text>
<text x="1198" y="766" font-size="22" font-weight="700" fill="#eef2fb">Elkhart Lake, Wisconsin</text>
<text x="90" y="966" font-size="12" fill="#566177">Geometry © OpenStreetMap contributors (ODbL) · corner data: Lovely-Sim-Racing + curated · track-atlas</text>
<text x="90" y="942" font-size="12" fill="#8794ab">⚑ start / finish</text>
</svg>