<svg xmlns="http://www.w3.org/2000/svg" width="1600" height="1000" viewBox="0 0 1600 1000" font-family="Helvetica, Arial, sans-serif">
<defs>
      <radialGradient id="bg" cx="38%" cy="34%" r="85%">
        <stop offset="0%" stop-color="#1b2030"/>
        <stop offset="55%" stop-color="#12151f"/>
        <stop offset="100%" stop-color="#0a0c12"/>
      </radialGradient>
      <linearGradient id="accent" x1="0" y1="0" x2="1" y2="1">
        <stop offset="0%" stop-color="#ff5a36"/>
        <stop offset="100%" stop-color="#ffffff"/>
      </linearGradient>
      <filter id="glow" x="-40%" y="-40%" width="180%" height="180%">
        <feGaussianBlur stdDeviation="6" result="b"/>
        <feMerge><feMergeNode in="b"/><feMergeNode in="SourceGraphic"/></feMerge>
      </filter>
    </defs>
<rect width="1600" height="1000" fill="url(#bg)"/>
<line x1="0" y1="0" x2="0" y2="1000" stroke="#ffffff" stroke-opacity="0.025"/>
<line x1="56" y1="0" x2="56" y2="1000" stroke="#ffffff" stroke-opacity="0.025"/>
<line x1="112" y1="0" x2="112" y2="1000" stroke="#ffffff" stroke-opacity="0.025"/>
<line x1="168" y1="0" x2="168" y2="1000" stroke="#ffffff" stroke-opacity="0.025"/>
<line x1="224" y1="0" x2="224" y2="1000" stroke="#ffffff" stroke-opacity="0.025"/>
<line x1="280" y1="0" x2="280" y2="1000" stroke="#ffffff" stroke-opacity="0.025"/>
<line x1="336" y1="0" x2="336" y2="1000" stroke="#ffffff" stroke-opacity="0.025"/>
<line x1="392" y1="0" x2="392" y2="1000" stroke="#ffffff" stroke-opacity="0.025"/>
<line x1="448" y1="0" x2="448" y2="1000" stroke="#ffffff" stroke-opacity="0.025"/>
<line x1="504" y1="0" x2="504" y2="1000" stroke="#ffffff" stroke-opacity="0.025"/>
<line x1="560" y1="0" x2="560" y2="1000" stroke="#ffffff" stroke-opacity="0.025"/>
<line x1="616" y1="0" x2="616" y2="1000" stroke="#ffffff" stroke-opacity="0.025"/>
<line x1="672" y1="0" x2="672" y2="1000" stroke="#ffffff" stroke-opacity="0.025"/>
<line x1="728" y1="0" x2="728" y2="1000" stroke="#ffffff" stroke-opacity="0.025"/>
<line x1="784" y1="0" x2="784" y2="1000" stroke="#ffffff" stroke-opacity="0.025"/>
<line x1="840" y1="0" x2="840" y2="1000" stroke="#ffffff" stroke-opacity="0.025"/>
<line x1="896" y1="0" x2="896" y2="1000" stroke="#ffffff" stroke-opacity="0.025"/>
<line x1="952" y1="0" x2="952" y2="1000" stroke="#ffffff" stroke-opacity="0.025"/>
<line x1="1008" y1="0" x2="1008" y2="1000" stroke="#ffffff" stroke-opacity="0.025"/>
<line x1="1064" y1="0" x2="1064" y2="1000" stroke="#ffffff" stroke-opacity="0.025"/>
<line x1="1120" y1="0" x2="1120" y2="1000" stroke="#ffffff" stroke-opacity="0.025"/>
<line x1="1176" y1="0" x2="1176" y2="1000" stroke="#ffffff" stroke-opacity="0.025"/>
<line x1="1232" y1="0" x2="1232" y2="1000" stroke="#ffffff" stroke-opacity="0.025"/>
<line x1="1288" y1="0" x2="1288" y2="1000" stroke="#ffffff" stroke-opacity="0.025"/>
<line x1="1344" y1="0" x2="1344" y2="1000" stroke="#ffffff" stroke-opacity="0.025"/>
<line x1="1400" y1="0" x2="1400" y2="1000" stroke="#ffffff" stroke-opacity="0.025"/>
<line x1="1456" y1="0" x2="1456" y2="1000" stroke="#ffffff" stroke-opacity="0.025"/>
<line x1="1512" y1="0" x2="1512" y2="1000" stroke="#ffffff" stroke-opacity="0.025"/>
<line x1="1568" y1="0" x2="1568" y2="1000" stroke="#ffffff" stroke-opacity="0.025"/>
<line x1="0" y1="0" x2="1600" y2="0" stroke="#ffffff" stroke-opacity="0.025"/>
<line x1="0" y1="56" x2="1600" y2="56" stroke="#ffffff" stroke-opacity="0.025"/>
<line x1="0" y1="112" x2="1600" y2="112" stroke="#ffffff" stroke-opacity="0.025"/>
<line x1="0" y1="168" x2="1600" y2="168" stroke="#ffffff" stroke-opacity="0.025"/>
<line x1="0" y1="224" x2="1600" y2="224" stroke="#ffffff" stroke-opacity="0.025"/>
<line x1="0" y1="280" x2="1600" y2="280" stroke="#ffffff" stroke-opacity="0.025"/>
<line x1="0" y1="336" x2="1600" y2="336" stroke="#ffffff" stroke-opacity="0.025"/>
<line x1="0" y1="392" x2="1600" y2="392" stroke="#ffffff" stroke-opacity="0.025"/>
<line x1="0" y1="448" x2="1600" y2="448" stroke="#ffffff" stroke-opacity="0.025"/>
<line x1="0" y1="504" x2="1600" y2="504" stroke="#ffffff" stroke-opacity="0.025"/>
<line x1="0" y1="560" x2="1600" y2="560" stroke="#ffffff" stroke-opacity="0.025"/>
<line x1="0" y1="616" x2="1600" y2="616" stroke="#ffffff" stroke-opacity="0.025"/>
<line x1="0" y1="672" x2="1600" y2="672" stroke="#ffffff" stroke-opacity="0.025"/>
<line x1="0" y1="728" x2="1600" y2="728" stroke="#ffffff" stroke-opacity="0.025"/>
<line x1="0" y1="784" x2="1600" y2="784" stroke="#ffffff" stroke-opacity="0.025"/>
<line x1="0" y1="840" x2="1600" y2="840" stroke="#ffffff" stroke-opacity="0.025"/>
<line x1="0" y1="896" x2="1600" y2="896" stroke="#ffffff" stroke-opacity="0.025"/>
<line x1="0" y1="952" x2="1600" y2="952" stroke="#ffffff" stroke-opacity="0.025"/>
<path d="M 731.2,766.5 L 757.9,679.3 L 804.0,558.5 L 812.3,534.6 L 820.0,507.1 L 829.0,470.0 L 835.8,437.4 L 844.2,389.3 L 848.3,360.0 L 491.5,780.4 L 494.3,785.0 L 498.2,791.5 L 502.0,800.7 L 504.4,808.6 L 505.6,817.2 L 506.2,824.2 L 505.9,830.1 L 505.6,836.6 L 504.7,843.4 L 502.9,850.8 L 500.3,859.0 L 497.3,866.7 L 493.5,873.8 L 489.7,880.3 L 485.2,885.9 L 480.5,891.2 L 474.9,896.8 L 468.7,901.5 L 461.7,906.5 L 455.0,910.0 L 285.6,638.8 L 283.2,627.5 L 282.0,616.7 L 281.9,613.2 L 281.7,599.3 L 282.6,592.0 L 283.5,586.2 L 285.1,577.3 L 285.1,577.3 L 293.1,562.7 L 299.7,551.9 L 304.9,544.1 L 313.5,532.6 L 328.8,512.0 L 347.8,488.1 L 362.9,469.0 L 374.4,454.7 L 384.8,442.7 L 391.9,435.0 L 409.4,418.5 L 419.3,408.6 L 427.1,400.8 L 438.6,387.8 L 446.6,376.8 L 455.4,364.5 L 461.0,356.1 L 468.1,343.7 L 475.7,328.8 L 493.6,292.9 L 503.9,272.8 L 512.8,253.8 L 519.2,239.8 L 524.1,227.8 L 528.2,215.9 L 533.5,198.2 L 539.8,176.4 L 556.9,114.9 L 556.9,114.9 L 558.5,109.7 L 560.4,105.3 L 563.1,101.2 L 567.7,96.6 L 572.8,93.1 L 578.0,91.1 L 582.2,90.3 L 587.7,90.0 L 593.4,90.7 Z" fill="none" stroke="#000000" stroke-opacity="0.5" stroke-width="13" stroke-linejoin="round" stroke-linecap="round"/>
<path d="M 731.2,766.5 L 757.9,679.3 L 804.0,558.5 L 812.3,534.6 L 820.0,507.1 L 829.0,470.0 L 835.8,437.4 L 844.2,389.3 L 848.3,360.0 L 491.5,780.4 L 494.3,785.0 L 498.2,791.5 L 502.0,800.7 L 504.4,808.6 L 505.6,817.2 L 506.2,824.2 L 505.9,830.1 L 505.6,836.6 L 504.7,843.4 L 502.9,850.8 L 500.3,859.0 L 497.3,866.7 L 493.5,873.8 L 489.7,880.3 L 485.2,885.9 L 480.5,891.2 L 474.9,896.8 L 468.7,901.5 L 461.7,906.5 L 455.0,910.0 L 285.6,638.8 L 283.2,627.5 L 282.0,616.7 L 281.9,613.2 L 281.7,599.3 L 282.6,592.0 L 283.5,586.2 L 285.1,577.3 L 285.1,577.3 L 293.1,562.7 L 299.7,551.9 L 304.9,544.1 L 313.5,532.6 L 328.8,512.0 L 347.8,488.1 L 362.9,469.0 L 374.4,454.7 L 384.8,442.7 L 391.9,435.0 L 409.4,418.5 L 419.3,408.6 L 427.1,400.8 L 438.6,387.8 L 446.6,376.8 L 455.4,364.5 L 461.0,356.1 L 468.1,343.7 L 475.7,328.8 L 493.6,292.9 L 503.9,272.8 L 512.8,253.8 L 519.2,239.8 L 524.1,227.8 L 528.2,215.9 L 533.5,198.2 L 539.8,176.4 L 556.9,114.9 L 556.9,114.9 L 558.5,109.7 L 560.4,105.3 L 563.1,101.2 L 567.7,96.6 L 572.8,93.1 L 578.0,91.1 L 582.2,90.3 L 587.7,90.0 L 593.4,90.7 Z" fill="none" stroke="#39404f" stroke-width="8.5" stroke-linejoin="round" stroke-linecap="round"/>
<path d="M 731.2,766.5 L 757.9,679.3 L 804.0,558.5 L 812.3,534.6 L 820.0,507.1 L 829.0,470.0 L 835.8,437.4 L 844.2,389.3 L 848.3,360.0 L 491.5,780.4 L 494.3,785.0 L 498.2,791.5 L 502.0,800.7 L 504.4,808.6 L 505.6,817.2 L 506.2,824.2 L 505.9,830.1 L 505.6,836.6 L 504.7,843.4 L 502.9,850.8 L 500.3,859.0 L 497.3,866.7 L 493.5,873.8 L 489.7,880.3 L 485.2,885.9 L 480.5,891.2 L 474.9,896.8 L 468.7,901.5 L 461.7,906.5 L 455.0,910.0 L 285.6,638.8 L 283.2,627.5 L 282.0,616.7 L 281.9,613.2 L 281.7,599.3 L 282.6,592.0 L 283.5,586.2 L 285.1,577.3 L 285.1,577.3 L 293.1,562.7 L 299.7,551.9 L 304.9,544.1 L 313.5,532.6 L 328.8,512.0 L 347.8,488.1 L 362.9,469.0 L 374.4,454.7 L 384.8,442.7 L 391.9,435.0 L 409.4,418.5 L 419.3,408.6 L 427.1,400.8 L 438.6,387.8 L 446.6,376.8 L 455.4,364.5 L 461.0,356.1 L 468.1,343.7 L 475.7,328.8 L 493.6,292.9 L 503.9,272.8 L 512.8,253.8 L 519.2,239.8 L 524.1,227.8 L 528.2,215.9 L 533.5,198.2 L 539.8,176.4 L 556.9,114.9 L 556.9,114.9 L 558.5,109.7 L 560.4,105.3 L 563.1,101.2 L 567.7,96.6 L 572.8,93.1 L 578.0,91.1 L 582.2,90.3 L 587.7,90.0 L 593.4,90.7 Z" fill="none" stroke="#e7edf8" stroke-width="2.6" stroke-linejoin="round" stroke-linecap="round"/>
<path d="M 731.2,766.5 L 757.9,679.3 L 804.0,558.5 L 812.3,534.6 L 820.0,507.1 L 829.0,470.0 L 835.8,437.4 L 844.2,389.3 L 848.3,360.0 L 491.5,780.4 L 494.3,785.0 L 498.2,791.5 L 502.0,800.7 L 504.4,808.6 L 505.6,817.2 L 506.2,824.2 L 505.9,830.1 L 505.6,836.6 L 504.7,843.4 L 502.9,850.8 L 500.3,859.0 L 497.3,866.7 L 493.5,873.8 L 489.7,880.3 L 485.2,885.9 L 480.5,891.2 L 474.9,896.8 L 468.7,901.5 L 461.7,906.5 L 455.0,910.0 L 285.6,638.8 L 283.2,627.5 L 282.0,616.7 L 281.9,613.2 L 281.7,599.3 L 282.6,592.0 L 283.5,586.2 L 285.1,577.3 L 285.1,577.3 L 293.1,562.7 L 299.7,551.9 L 304.9,544.1 L 313.5,532.6 L 328.8,512.0 L 347.8,488.1 L 362.9,469.0 L 374.4,454.7 L 384.8,442.7 L 391.9,435.0 L 409.4,418.5 L 419.3,408.6 L 427.1,400.8 L 438.6,387.8 L 446.6,376.8 L 455.4,364.5 L 461.0,356.1 L 468.1,343.7 L 475.7,328.8 L 493.6,292.9 L 503.9,272.8 L 512.8,253.8 L 519.2,239.8 L 524.1,227.8 L 528.2,215.9 L 533.5,198.2 L 539.8,176.4 L 556.9,114.9 L 556.9,114.9 L 558.5,109.7 L 560.4,105.3 L 563.1,101.2 L 567.7,96.6 L 572.8,93.1 L 578.0,91.1 L 582.2,90.3 L 587.7,90.0 L 593.4,90.7 Z" fill="none" stroke="#ff5a36" stroke-opacity="0.55" stroke-width="1.2" stroke-linejoin="round" filter="url(#glow)"/>
<circle cx="809.2" cy="522.5" r="13" fill="none" stroke="#ffffff" stroke-width="3"/>
<rect x="805.2" y="500.5" width="8" height="18" fill="#ffffff"/>
<circle cx="809.2" cy="522.5" r="7" fill="#ff5a36" stroke="#0a0c12" stroke-width="2.5" filter="url(#glow)"/>
<text x="809.2" y="525.9" font-size="9" font-weight="700" fill="#0a0c12" text-anchor="middle">3</text>
<circle cx="491.8" cy="849.6" r="7" fill="#ff5a36" stroke="#0a0c12" stroke-width="2.5" filter="url(#glow)"/>
<text x="491.8" y="853.0" font-size="9" font-weight="700" fill="#0a0c12" text-anchor="middle">8</text>
<circle cx="283.2" cy="606.4" r="7" fill="#ff5a36" stroke="#0a0c12" stroke-width="2.5" filter="url(#glow)"/>
<text x="283.2" y="609.8" font-size="9" font-weight="700" fill="#0a0c12" text-anchor="middle">9</text>
<circle cx="427.6" cy="377.5" r="7" fill="#ff5a36" stroke="#0a0c12" stroke-width="2.5" filter="url(#glow)"/>
<text x="427.6" y="380.9" font-size="9" font-weight="700" fill="#0a0c12" text-anchor="middle">10</text>
<circle cx="572.1" cy="98.3" r="7" fill="#ff5a36" stroke="#0a0c12" stroke-width="2.5" filter="url(#glow)"/>
<text x="572.1" y="101.7" font-size="9" font-weight="700" fill="#0a0c12" text-anchor="middle">11</text>
<line x1="809.2" y1="522.5" x2="861.2" y2="524.6" stroke="#ff5a36" stroke-opacity="0.45" stroke-width="1.3"/>
<text x="869.2" y="528.6" font-size="15" font-weight="600" fill="#eef2fb" text-anchor="start">Moraine Sweep</text>
<line x1="491.8" y1="849.6" x2="491.3" y2="901.6" stroke="#ff5a36" stroke-opacity="0.45" stroke-width="1.3"/>
<text x="483.3" y="905.6" font-size="15" font-weight="600" fill="#eef2fb" text-anchor="end">The Carousel</text>
<line x1="283.2" y1="606.4" x2="235.9" y2="628.1" stroke="#ff5a36" stroke-opacity="0.45" stroke-width="1.3"/>
<text x="227.9" y="632.1" font-size="15" font-weight="600" fill="#eef2fb" text-anchor="end">The Kink</text>
<line x1="427.6" y1="377.5" x2="404.0" y2="331.2" stroke="#ff5a36" stroke-opacity="0.45" stroke-width="1.3"/>
<text x="396.0" y="335.2" font-size="15" font-weight="600" fill="#eef2fb" text-anchor="end">Kettle Bottoms</text>
<line x1="572.1" y1="98.3" x2="581.7" y2="47.1" stroke="#ff5a36" stroke-opacity="0.45" stroke-width="1.3"/>
<text x="589.7" y="51.1" font-size="15" font-weight="600" fill="#eef2fb" text-anchor="start">Canada Corner</text>
<text x="90" y="64" font-size="20" letter-spacing="5" fill="#ff5a36" font-weight="700">TRACK ATLAS</text>
<text x="90" y="108" font-size="42" font-weight="800" fill="#ffffff">ROAD AMERICA</text>
<text x="90" y="136" font-size="16" fill="#9aa6bd">Elkhart Lake</text>
<rect x="1170" y="200" width="360" height="710" rx="16" fill="#ffffff" fill-opacity="0.04" stroke="#ff5a36" stroke-opacity="0.5"/>
<text x="1198" y="250" font-size="13" letter-spacing="2" fill="#8794ab">LAYOUT</text>
<text x="1198" y="276" font-size="22" font-weight="700" fill="#eef2fb">Full Course</text>
<text x="1198" y="320" font-size="13" letter-spacing="2" fill="#8794ab">LENGTH</text>
<text x="1198" y="346" font-size="22" font-weight="700" fill="#eef2fb">6.514 km</text>
<text x="1198" y="390" font-size="13" letter-spacing="2" fill="#8794ab">CORNERS</text>
<text x="1198" y="416" font-size="22" font-weight="700" fill="#eef2fb">13</text>
<text x="1198" y="460" font-size="13" letter-spacing="2" fill="#8794ab">NAMED CORNERS</text>
<text x="1198" y="486" font-size="22" font-weight="700" fill="#eef2fb">13</text>
<text x="1198" y="530" font-size="13" letter-spacing="2" fill="#8794ab">DIRECTION</text>
<text x="1198" y="556" font-size="22" font-weight="700" fill="#eef2fb">Clockwise</text>
<text x="1198" y="600" font-size="13" letter-spacing="2" fill="#8794ab">SECTORS</text>
<text x="1198" y="626" font-size="22" font-weight="700" fill="#eef2fb">6</text>
<text x="1198" y="670" font-size="13" letter-spacing="2" fill="#8794ab">COUNTRY</text>
<text x="1198" y="696" font-size="22" font-weight="700" fill="#eef2fb">USA</text>
<text x="1198" y="740" font-size="13" letter-spacing="2" fill="#8794ab">LOCATION</text>
<text x="1198" y="766" font-size="22" font-weight="700" fill="#eef2fb">Elkhart Lake, Wisconsin</text>
<text x="90" y="966" font-size="12" fill="#566177">Geometry © OpenStreetMap contributors (ODbL) · corner data: Lovely-Sim-Racing + curated · track-atlas</text>
<text x="90" y="942" font-size="12" fill="#8794ab">⚑ start / finish</text>
</svg>