<svg xmlns="http://www.w3.org/2000/svg" width="1600" height="1000" viewBox="0 0 1600 1000" font-family="Helvetica, Arial, sans-serif">
<defs>
      <radialGradient id="bg" cx="38%" cy="34%" r="85%">
        <stop offset="0%" stop-color="#1b2030"/>
        <stop offset="55%" stop-color="#12151f"/>
        <stop offset="100%" stop-color="#0a0c12"/>
      </radialGradient>
      <linearGradient id="accent" x1="0" y1="0" x2="1" y2="1">
        <stop offset="0%" stop-color="#ff5a36"/>
        <stop offset="100%" stop-color="#ffffff"/>
      </linearGradient>
      <filter id="glow" x="-40%" y="-40%" width="180%" height="180%">
        <feGaussianBlur stdDeviation="6" result="b"/>
        <feMerge><feMergeNode in="b"/><feMergeNode in="SourceGraphic"/></feMerge>
      </filter>
    </defs>
<rect width="1600" height="1000" fill="url(#bg)"/>
<line x1="0" y1="0" x2="0" y2="1000" stroke="#ffffff" stroke-opacity="0.025"/>
<line x1="56" y1="0" x2="56" y2="1000" stroke="#ffffff" stroke-opacity="0.025"/>
<line x1="112" y1="0" x2="112" y2="1000" stroke="#ffffff" stroke-opacity="0.025"/>
<line x1="168" y1="0" x2="168" y2="1000" stroke="#ffffff" stroke-opacity="0.025"/>
<line x1="224" y1="0" x2="224" y2="1000" stroke="#ffffff" stroke-opacity="0.025"/>
<line x1="280" y1="0" x2="280" y2="1000" stroke="#ffffff" stroke-opacity="0.025"/>
<line x1="336" y1="0" x2="336" y2="1000" stroke="#ffffff" stroke-opacity="0.025"/>
<line x1="392" y1="0" x2="392" y2="1000" stroke="#ffffff" stroke-opacity="0.025"/>
<line x1="448" y1="0" x2="448" y2="1000" stroke="#ffffff" stroke-opacity="0.025"/>
<line x1="504" y1="0" x2="504" y2="1000" stroke="#ffffff" stroke-opacity="0.025"/>
<line x1="560" y1="0" x2="560" y2="1000" stroke="#ffffff" stroke-opacity="0.025"/>
<line x1="616" y1="0" x2="616" y2="1000" stroke="#ffffff" stroke-opacity="0.025"/>
<line x1="672" y1="0" x2="672" y2="1000" stroke="#ffffff" stroke-opacity="0.025"/>
<line x1="728" y1="0" x2="728" y2="1000" stroke="#ffffff" stroke-opacity="0.025"/>
<line x1="784" y1="0" x2="784" y2="1000" stroke="#ffffff" stroke-opacity="0.025"/>
<line x1="840" y1="0" x2="840" y2="1000" stroke="#ffffff" stroke-opacity="0.025"/>
<line x1="896" y1="0" x2="896" y2="1000" stroke="#ffffff" stroke-opacity="0.025"/>
<line x1="952" y1="0" x2="952" y2="1000" stroke="#ffffff" stroke-opacity="0.025"/>
<line x1="1008" y1="0" x2="1008" y2="1000" stroke="#ffffff" stroke-opacity="0.025"/>
<line x1="1064" y1="0" x2="1064" y2="1000" stroke="#ffffff" stroke-opacity="0.025"/>
<line x1="1120" y1="0" x2="1120" y2="1000" stroke="#ffffff" stroke-opacity="0.025"/>
<line x1="1176" y1="0" x2="1176" y2="1000" stroke="#ffffff" stroke-opacity="0.025"/>
<line x1="1232" y1="0" x2="1232" y2="1000" stroke="#ffffff" stroke-opacity="0.025"/>
<line x1="1288" y1="0" x2="1288" y2="1000" stroke="#ffffff" stroke-opacity="0.025"/>
<line x1="1344" y1="0" x2="1344" y2="1000" stroke="#ffffff" stroke-opacity="0.025"/>
<line x1="1400" y1="0" x2="1400" y2="1000" stroke="#ffffff" stroke-opacity="0.025"/>
<line x1="1456" y1="0" x2="1456" y2="1000" stroke="#ffffff" stroke-opacity="0.025"/>
<line x1="1512" y1="0" x2="1512" y2="1000" stroke="#ffffff" stroke-opacity="0.025"/>
<line x1="1568" y1="0" x2="1568" y2="1000" stroke="#ffffff" stroke-opacity="0.025"/>
<line x1="0" y1="0" x2="1600" y2="0" stroke="#ffffff" stroke-opacity="0.025"/>
<line x1="0" y1="56" x2="1600" y2="56" stroke="#ffffff" stroke-opacity="0.025"/>
<line x1="0" y1="112" x2="1600" y2="112" stroke="#ffffff" stroke-opacity="0.025"/>
<line x1="0" y1="168" x2="1600" y2="168" stroke="#ffffff" stroke-opacity="0.025"/>
<line x1="0" y1="224" x2="1600" y2="224" stroke="#ffffff" stroke-opacity="0.025"/>
<line x1="0" y1="280" x2="1600" y2="280" stroke="#ffffff" stroke-opacity="0.025"/>
<line x1="0" y1="336" x2="1600" y2="336" stroke="#ffffff" stroke-opacity="0.025"/>
<line x1="0" y1="392" x2="1600" y2="392" stroke="#ffffff" stroke-opacity="0.025"/>
<line x1="0" y1="448" x2="1600" y2="448" stroke="#ffffff" stroke-opacity="0.025"/>
<line x1="0" y1="504" x2="1600" y2="504" stroke="#ffffff" stroke-opacity="0.025"/>
<line x1="0" y1="560" x2="1600" y2="560" stroke="#ffffff" stroke-opacity="0.025"/>
<line x1="0" y1="616" x2="1600" y2="616" stroke="#ffffff" stroke-opacity="0.025"/>
<line x1="0" y1="672" x2="1600" y2="672" stroke="#ffffff" stroke-opacity="0.025"/>
<line x1="0" y1="728" x2="1600" y2="728" stroke="#ffffff" stroke-opacity="0.025"/>
<line x1="0" y1="784" x2="1600" y2="784" stroke="#ffffff" stroke-opacity="0.025"/>
<line x1="0" y1="840" x2="1600" y2="840" stroke="#ffffff" stroke-opacity="0.025"/>
<line x1="0" y1="896" x2="1600" y2="896" stroke="#ffffff" stroke-opacity="0.025"/>
<line x1="0" y1="952" x2="1600" y2="952" stroke="#ffffff" stroke-opacity="0.025"/>
<path d="M 652.5,637.9 L 674.2,567.2 L 711.5,469.5 L 718.2,450.1 L 724.4,427.8 L 731.7,397.8 L 737.3,371.4 L 744.0,332.4 L 747.3,308.7 L 458.4,649.1 L 460.6,652.9 L 463.8,658.2 L 466.9,665.6 L 468.8,672.0 L 469.8,678.9 L 470.2,684.7 L 470.0,689.4 L 469.8,694.7 L 469.1,700.2 L 467.6,706.2 L 465.5,712.8 L 463.1,719.1 L 460.0,724.8 L 456.9,730.0 L 453.3,734.6 L 449.5,738.9 L 444.9,743.4 L 439.9,747.2 L 434.2,751.3 L 428.8,754.1 L 291.6,534.5 L 289.7,525.4 L 288.7,516.6 L 288.6,513.7 L 288.5,502.5 L 289.2,496.5 L 289.9,491.9 L 291.2,484.7 L 291.2,484.7 L 297.7,472.8 L 303.0,464.1 L 307.2,457.8 L 314.2,448.4 L 326.6,431.8 L 342.0,412.4 L 354.2,397.0 L 363.5,385.4 L 371.9,375.6 L 377.7,369.4 L 391.9,356.1 L 399.9,348.1 L 406.2,341.7 L 415.5,331.2 L 422.0,322.3 L 429.2,312.3 L 433.6,305.5 L 439.4,295.5 L 445.6,283.4 L 460.1,254.3 L 468.4,238.0 L 475.6,222.7 L 480.8,211.4 L 484.8,201.6 L 488.1,192.0 L 492.4,177.6 L 497.5,160.0 L 511.3,110.1 L 511.3,110.1 L 512.6,105.9 L 514.2,102.4 L 516.3,99.1 L 520.1,95.3 L 524.2,92.5 L 528.4,90.9 L 531.8,90.2 L 536.2,90.0 L 540.9,90.6 Z" fill="none" stroke="#000000" stroke-opacity="0.5" stroke-width="13" stroke-linejoin="round" stroke-linecap="round"/>
<path d="M 652.5,637.9 L 674.2,567.2 L 711.5,469.5 L 718.2,450.1 L 724.4,427.8 L 731.7,397.8 L 737.3,371.4 L 744.0,332.4 L 747.3,308.7 L 458.4,649.1 L 460.6,652.9 L 463.8,658.2 L 466.9,665.6 L 468.8,672.0 L 469.8,678.9 L 470.2,684.7 L 470.0,689.4 L 469.8,694.7 L 469.1,700.2 L 467.6,706.2 L 465.5,712.8 L 463.1,719.1 L 460.0,724.8 L 456.9,730.0 L 453.3,734.6 L 449.5,738.9 L 444.9,743.4 L 439.9,747.2 L 434.2,751.3 L 428.8,754.1 L 291.6,534.5 L 289.7,525.4 L 288.7,516.6 L 288.6,513.7 L 288.5,502.5 L 289.2,496.5 L 289.9,491.9 L 291.2,484.7 L 291.2,484.7 L 297.7,472.8 L 303.0,464.1 L 307.2,457.8 L 314.2,448.4 L 326.6,431.8 L 342.0,412.4 L 354.2,397.0 L 363.5,385.4 L 371.9,375.6 L 377.7,369.4 L 391.9,356.1 L 399.9,348.1 L 406.2,341.7 L 415.5,331.2 L 422.0,322.3 L 429.2,312.3 L 433.6,305.5 L 439.4,295.5 L 445.6,283.4 L 460.1,254.3 L 468.4,238.0 L 475.6,222.7 L 480.8,211.4 L 484.8,201.6 L 488.1,192.0 L 492.4,177.6 L 497.5,160.0 L 511.3,110.1 L 511.3,110.1 L 512.6,105.9 L 514.2,102.4 L 516.3,99.1 L 520.1,95.3 L 524.2,92.5 L 528.4,90.9 L 531.8,90.2 L 536.2,90.0 L 540.9,90.6 Z" fill="none" stroke="#39404f" stroke-width="8.5" stroke-linejoin="round" stroke-linecap="round"/>
<path d="M 652.5,637.9 L 674.2,567.2 L 711.5,469.5 L 718.2,450.1 L 724.4,427.8 L 731.7,397.8 L 737.3,371.4 L 744.0,332.4 L 747.3,308.7 L 458.4,649.1 L 460.6,652.9 L 463.8,658.2 L 466.9,665.6 L 468.8,672.0 L 469.8,678.9 L 470.2,684.7 L 470.0,689.4 L 469.8,694.7 L 469.1,700.2 L 467.6,706.2 L 465.5,712.8 L 463.1,719.1 L 460.0,724.8 L 456.9,730.0 L 453.3,734.6 L 449.5,738.9 L 444.9,743.4 L 439.9,747.2 L 434.2,751.3 L 428.8,754.1 L 291.6,534.5 L 289.7,525.4 L 288.7,516.6 L 288.6,513.7 L 288.5,502.5 L 289.2,496.5 L 289.9,491.9 L 291.2,484.7 L 291.2,484.7 L 297.7,472.8 L 303.0,464.1 L 307.2,457.8 L 314.2,448.4 L 326.6,431.8 L 342.0,412.4 L 354.2,397.0 L 363.5,385.4 L 371.9,375.6 L 377.7,369.4 L 391.9,356.1 L 399.9,348.1 L 406.2,341.7 L 415.5,331.2 L 422.0,322.3 L 429.2,312.3 L 433.6,305.5 L 439.4,295.5 L 445.6,283.4 L 460.1,254.3 L 468.4,238.0 L 475.6,222.7 L 480.8,211.4 L 484.8,201.6 L 488.1,192.0 L 492.4,177.6 L 497.5,160.0 L 511.3,110.1 L 511.3,110.1 L 512.6,105.9 L 514.2,102.4 L 516.3,99.1 L 520.1,95.3 L 524.2,92.5 L 528.4,90.9 L 531.8,90.2 L 536.2,90.0 L 540.9,90.6 Z" fill="none" stroke="#e7edf8" stroke-width="2.6" stroke-linejoin="round" stroke-linecap="round"/>
<path d="M 652.5,637.9 L 674.2,567.2 L 711.5,469.5 L 718.2,450.1 L 724.4,427.8 L 731.7,397.8 L 737.3,371.4 L 744.0,332.4 L 747.3,308.7 L 458.4,649.1 L 460.6,652.9 L 463.8,658.2 L 466.9,665.6 L 468.8,672.0 L 469.8,678.9 L 470.2,684.7 L 470.0,689.4 L 469.8,694.7 L 469.1,700.2 L 467.6,706.2 L 465.5,712.8 L 463.1,719.1 L 460.0,724.8 L 456.9,730.0 L 453.3,734.6 L 449.5,738.9 L 444.9,743.4 L 439.9,747.2 L 434.2,751.3 L 428.8,754.1 L 291.6,534.5 L 289.7,525.4 L 288.7,516.6 L 288.6,513.7 L 288.5,502.5 L 289.2,496.5 L 289.9,491.9 L 291.2,484.7 L 291.2,484.7 L 297.7,472.8 L 303.0,464.1 L 307.2,457.8 L 314.2,448.4 L 326.6,431.8 L 342.0,412.4 L 354.2,397.0 L 363.5,385.4 L 371.9,375.6 L 377.7,369.4 L 391.9,356.1 L 399.9,348.1 L 406.2,341.7 L 415.5,331.2 L 422.0,322.3 L 429.2,312.3 L 433.6,305.5 L 439.4,295.5 L 445.6,283.4 L 460.1,254.3 L 468.4,238.0 L 475.6,222.7 L 480.8,211.4 L 484.8,201.6 L 488.1,192.0 L 492.4,177.6 L 497.5,160.0 L 511.3,110.1 L 511.3,110.1 L 512.6,105.9 L 514.2,102.4 L 516.3,99.1 L 520.1,95.3 L 524.2,92.5 L 528.4,90.9 L 531.8,90.2 L 536.2,90.0 L 540.9,90.6 Z" fill="none" stroke="#ff5a36" stroke-opacity="0.55" stroke-width="1.2" stroke-linejoin="round" filter="url(#glow)"/>
<circle cx="873.6" cy="571.6" r="13" fill="none" stroke="#ffffff" stroke-width="3"/>
<rect x="869.6" y="549.6" width="8" height="18" fill="#ffffff"/>
<circle cx="805.9" cy="910.0" r="7" fill="#ff5a36" stroke="#0a0c12" stroke-width="2.5" filter="url(#glow)"/>
<text x="805.9" y="913.4" font-size="9" font-weight="700" fill="#0a0c12" text-anchor="middle">1</text>
<circle cx="615.6" cy="830.1" r="7" fill="#ff5a36" stroke="#0a0c12" stroke-width="2.5" filter="url(#glow)"/>
<text x="615.6" y="833.5" font-size="9" font-weight="700" fill="#0a0c12" text-anchor="middle">2</text>
<circle cx="715.7" cy="440.3" r="7" fill="#ff5a36" stroke="#0a0c12" stroke-width="2.5" filter="url(#glow)"/>
<text x="715.7" y="443.7" font-size="9" font-weight="700" fill="#0a0c12" text-anchor="middle">3</text>
<circle cx="690.2" cy="284.7" r="7" fill="#ff5a36" stroke="#0a0c12" stroke-width="2.5" filter="url(#glow)"/>
<text x="690.2" y="288.1" font-size="9" font-weight="700" fill="#0a0c12" text-anchor="middle">4</text>
<circle cx="579.9" cy="326.8" r="7" fill="#ff5a36" stroke="#0a0c12" stroke-width="2.5" filter="url(#glow)"/>
<text x="579.9" y="330.2" font-size="9" font-weight="700" fill="#0a0c12" text-anchor="middle">5</text>
<circle cx="578.6" cy="430.7" r="7" fill="#ff5a36" stroke="#0a0c12" stroke-width="2.5" filter="url(#glow)"/>
<text x="578.6" y="434.1" font-size="9" font-weight="700" fill="#0a0c12" text-anchor="middle">6</text>
<circle cx="450.5" cy="537.0" r="7" fill="#ff5a36" stroke="#0a0c12" stroke-width="2.5" filter="url(#glow)"/>
<text x="450.5" y="540.4" font-size="9" font-weight="700" fill="#0a0c12" text-anchor="middle">7</text>
<circle cx="458.6" cy="705.2" r="7" fill="#ff5a36" stroke="#0a0c12" stroke-width="2.5" filter="url(#glow)"/>
<text x="458.6" y="708.6" font-size="9" font-weight="700" fill="#0a0c12" text-anchor="middle">8</text>
<circle cx="289.7" cy="508.2" r="7" fill="#ff5a36" stroke="#0a0c12" stroke-width="2.5" filter="url(#glow)"/>
<text x="289.7" y="511.6" font-size="9" font-weight="700" fill="#0a0c12" text-anchor="middle">9</text>
<circle cx="406.6" cy="322.8" r="7" fill="#ff5a36" stroke="#0a0c12" stroke-width="2.5" filter="url(#glow)"/>
<text x="406.6" y="326.2" font-size="9" font-weight="700" fill="#0a0c12" text-anchor="middle">10</text>
<circle cx="523.6" cy="96.7" r="7" fill="#ff5a36" stroke="#0a0c12" stroke-width="2.5" filter="url(#glow)"/>
<text x="523.6" y="100.1" font-size="9" font-weight="700" fill="#0a0c12" text-anchor="middle">11</text>
<circle cx="657.8" cy="156.0" r="7" fill="#ff5a36" stroke="#0a0c12" stroke-width="2.5" filter="url(#glow)"/>
<text x="657.8" y="159.4" font-size="9" font-weight="700" fill="#0a0c12" text-anchor="middle">12</text>
<circle cx="841.5" cy="158.4" r="7" fill="#ff5a36" stroke="#0a0c12" stroke-width="2.5" filter="url(#glow)"/>
<text x="841.5" y="161.8" font-size="9" font-weight="700" fill="#0a0c12" text-anchor="middle">13</text>
<line x1="805.9" y1="910.0" x2="835.3" y2="952.9" stroke="#ff5a36" stroke-opacity="0.45" stroke-width="1.3"/>
<text x="843.3" y="956.9" font-size="15" font-weight="600" fill="#eef2fb" text-anchor="start">Turn 1</text>
<line x1="615.6" y1="830.1" x2="632.5" y2="879.3" stroke="#ff5a36" stroke-opacity="0.45" stroke-width="1.3"/>
<text x="640.5" y="883.3" font-size="15" font-weight="600" fill="#eef2fb" text-anchor="start">Turn 3</text>
<line x1="715.7" y1="440.3" x2="767.6" y2="460.0" stroke="#ff5a36" stroke-opacity="0.45" stroke-width="1.3"/>
<text x="775.6" y="464.0" font-size="15" font-weight="600" fill="#eef2fb" text-anchor="start">Moraine Sweep</text>
<line x1="690.2" y1="284.7" x2="732.9" y2="255.0" stroke="#ff5a36" stroke-opacity="0.45" stroke-width="1.3"/>
<text x="740.9" y="259.0" font-size="15" font-weight="600" fill="#eef2fb" text-anchor="start">Turn 5</text>
<line x1="579.9" y1="326.8" x2="616.1" y2="289.4" stroke="#ff5a36" stroke-opacity="0.45" stroke-width="1.3"/>
<text x="624.1" y="293.4" font-size="15" font-weight="600" fill="#eef2fb" text-anchor="start">Turn 6</text>
<line x1="578.6" y1="430.7" x2="630.6" y2="430.0" stroke="#ff5a36" stroke-opacity="0.45" stroke-width="1.3"/>
<text x="638.6" y="434.0" font-size="15" font-weight="600" fill="#eef2fb" text-anchor="start">Turn 7</text>
<line x1="450.5" y1="537.0" x2="437.3" y2="587.3" stroke="#ff5a36" stroke-opacity="0.45" stroke-width="1.3"/>
<text x="429.3" y="591.3" font-size="15" font-weight="600" fill="#eef2fb" text-anchor="end">Turn 8</text>
<line x1="458.6" y1="705.2" x2="454.9" y2="757.0" stroke="#ff5a36" stroke-opacity="0.45" stroke-width="1.3"/>
<text x="446.9" y="761.0" font-size="15" font-weight="600" fill="#eef2fb" text-anchor="end">The Carousel</text>
<line x1="289.7" y1="508.2" x2="241.5" y2="527.8" stroke="#ff5a36" stroke-opacity="0.45" stroke-width="1.3"/>
<text x="233.5" y="531.8" font-size="15" font-weight="600" fill="#eef2fb" text-anchor="end">The Kink</text>
<line x1="406.6" y1="322.8" x2="378.1" y2="279.4" stroke="#ff5a36" stroke-opacity="0.45" stroke-width="1.3"/>
<text x="370.1" y="283.4" font-size="15" font-weight="600" fill="#eef2fb" text-anchor="end">Kettle Bottoms</text>
<line x1="523.6" y1="96.7" x2="530.6" y2="45.2" stroke="#ff5a36" stroke-opacity="0.45" stroke-width="1.3"/>
<text x="538.6" y="49.2" font-size="15" font-weight="600" fill="#eef2fb" text-anchor="start">Canada Corner</text>
<line x1="657.8" y1="156.0" x2="686.1" y2="112.4" stroke="#ff5a36" stroke-opacity="0.45" stroke-width="1.3"/>
<text x="694.1" y="116.4" font-size="15" font-weight="600" fill="#eef2fb" text-anchor="start">Bill Mitchell Bend</text>
<line x1="841.5" y1="158.4" x2="883.1" y2="142.4" stroke="#ff5a36" stroke-opacity="0.45" stroke-width="1.3"/>
<text x="891.1" y="146.4" font-size="15" font-weight="600" fill="#eef2fb" text-anchor="start">Turn 14</text>
<text x="90" y="64" font-size="20" letter-spacing="5" fill="#ff5a36" font-weight="700">TRACK ATLAS</text>
<text x="90" y="108" font-size="42" font-weight="800" fill="#ffffff">ROAD AMERICA</text>
<text x="90" y="136" font-size="16" fill="#9aa6bd">Elkhart Lake</text>
<rect x="1170" y="200" width="360" height="710" rx="16" fill="#ffffff" fill-opacity="0.04" stroke="#ff5a36" stroke-opacity="0.5"/>
<text x="1198" y="250" font-size="13" letter-spacing="2" fill="#8794ab">LAYOUT</text>
<text x="1198" y="276" font-size="22" font-weight="700" fill="#eef2fb">Full Course</text>
<text x="1198" y="320" font-size="13" letter-spacing="2" fill="#8794ab">LENGTH</text>
<text x="1198" y="346" font-size="22" font-weight="700" fill="#eef2fb">6.514 km</text>
<text x="1198" y="390" font-size="13" letter-spacing="2" fill="#8794ab">CORNERS</text>
<text x="1198" y="416" font-size="22" font-weight="700" fill="#eef2fb">13</text>
<text x="1198" y="460" font-size="13" letter-spacing="2" fill="#8794ab">NAMED CORNERS</text>
<text x="1198" y="486" font-size="22" font-weight="700" fill="#eef2fb">13</text>
<text x="1198" y="530" font-size="13" letter-spacing="2" fill="#8794ab">DIRECTION</text>
<text x="1198" y="556" font-size="22" font-weight="700" fill="#eef2fb">Clockwise</text>
<text x="1198" y="600" font-size="13" letter-spacing="2" fill="#8794ab">SECTORS</text>
<text x="1198" y="626" font-size="22" font-weight="700" fill="#eef2fb">6</text>
<text x="1198" y="670" font-size="13" letter-spacing="2" fill="#8794ab">COUNTRY</text>
<text x="1198" y="696" font-size="22" font-weight="700" fill="#eef2fb">USA</text>
<text x="1198" y="740" font-size="13" letter-spacing="2" fill="#8794ab">LOCATION</text>
<text x="1198" y="766" font-size="22" font-weight="700" fill="#eef2fb">Elkhart Lake, Wisconsin</text>
<text x="90" y="966" font-size="12" fill="#566177">Geometry © OpenStreetMap contributors (ODbL) · corner data: Lovely-Sim-Racing + curated · track-atlas</text>
<text x="90" y="942" font-size="12" fill="#8794ab">⚑ start / finish</text>
</svg>