<svg xmlns="http://www.w3.org/2000/svg" width="1600" height="1000" viewBox="0 0 1600 1000" font-family="Helvetica, Arial, sans-serif">
<defs>
      <radialGradient id="bg" cx="38%" cy="34%" r="85%">
        <stop offset="0%" stop-color="#1b2030"/>
        <stop offset="55%" stop-color="#12151f"/>
        <stop offset="100%" stop-color="#0a0c12"/>
      </radialGradient>
      <linearGradient id="accent" x1="0" y1="0" x2="1" y2="1">
        <stop offset="0%" stop-color="#ff5a36"/>
        <stop offset="100%" stop-color="#ffffff"/>
      </linearGradient>
      <filter id="glow" x="-40%" y="-40%" width="180%" height="180%">
        <feGaussianBlur stdDeviation="6" result="b"/>
        <feMerge><feMergeNode in="b"/><feMergeNode in="SourceGraphic"/></feMerge>
      </filter>
    </defs>
<rect width="1600" height="1000" fill="url(#bg)"/>
<line x1="0" y1="0" x2="0" y2="1000" stroke="#ffffff" stroke-opacity="0.025"/>
<line x1="56" y1="0" x2="56" y2="1000" stroke="#ffffff" stroke-opacity="0.025"/>
<line x1="112" y1="0" x2="112" y2="1000" stroke="#ffffff" stroke-opacity="0.025"/>
<line x1="168" y1="0" x2="168" y2="1000" stroke="#ffffff" stroke-opacity="0.025"/>
<line x1="224" y1="0" x2="224" y2="1000" stroke="#ffffff" stroke-opacity="0.025"/>
<line x1="280" y1="0" x2="280" y2="1000" stroke="#ffffff" stroke-opacity="0.025"/>
<line x1="336" y1="0" x2="336" y2="1000" stroke="#ffffff" stroke-opacity="0.025"/>
<line x1="392" y1="0" x2="392" y2="1000" stroke="#ffffff" stroke-opacity="0.025"/>
<line x1="448" y1="0" x2="448" y2="1000" stroke="#ffffff" stroke-opacity="0.025"/>
<line x1="504" y1="0" x2="504" y2="1000" stroke="#ffffff" stroke-opacity="0.025"/>
<line x1="560" y1="0" x2="560" y2="1000" stroke="#ffffff" stroke-opacity="0.025"/>
<line x1="616" y1="0" x2="616" y2="1000" stroke="#ffffff" stroke-opacity="0.025"/>
<line x1="672" y1="0" x2="672" y2="1000" stroke="#ffffff" stroke-opacity="0.025"/>
<line x1="728" y1="0" x2="728" y2="1000" stroke="#ffffff" stroke-opacity="0.025"/>
<line x1="784" y1="0" x2="784" y2="1000" stroke="#ffffff" stroke-opacity="0.025"/>
<line x1="840" y1="0" x2="840" y2="1000" stroke="#ffffff" stroke-opacity="0.025"/>
<line x1="896" y1="0" x2="896" y2="1000" stroke="#ffffff" stroke-opacity="0.025"/>
<line x1="952" y1="0" x2="952" y2="1000" stroke="#ffffff" stroke-opacity="0.025"/>
<line x1="1008" y1="0" x2="1008" y2="1000" stroke="#ffffff" stroke-opacity="0.025"/>
<line x1="1064" y1="0" x2="1064" y2="1000" stroke="#ffffff" stroke-opacity="0.025"/>
<line x1="1120" y1="0" x2="1120" y2="1000" stroke="#ffffff" stroke-opacity="0.025"/>
<line x1="1176" y1="0" x2="1176" y2="1000" stroke="#ffffff" stroke-opacity="0.025"/>
<line x1="1232" y1="0" x2="1232" y2="1000" stroke="#ffffff" stroke-opacity="0.025"/>
<line x1="1288" y1="0" x2="1288" y2="1000" stroke="#ffffff" stroke-opacity="0.025"/>
<line x1="1344" y1="0" x2="1344" y2="1000" stroke="#ffffff" stroke-opacity="0.025"/>
<line x1="1400" y1="0" x2="1400" y2="1000" stroke="#ffffff" stroke-opacity="0.025"/>
<line x1="1456" y1="0" x2="1456" y2="1000" stroke="#ffffff" stroke-opacity="0.025"/>
<line x1="1512" y1="0" x2="1512" y2="1000" stroke="#ffffff" stroke-opacity="0.025"/>
<line x1="1568" y1="0" x2="1568" y2="1000" stroke="#ffffff" stroke-opacity="0.025"/>
<line x1="0" y1="0" x2="1600" y2="0" stroke="#ffffff" stroke-opacity="0.025"/>
<line x1="0" y1="56" x2="1600" y2="56" stroke="#ffffff" stroke-opacity="0.025"/>
<line x1="0" y1="112" x2="1600" y2="112" stroke="#ffffff" stroke-opacity="0.025"/>
<line x1="0" y1="168" x2="1600" y2="168" stroke="#ffffff" stroke-opacity="0.025"/>
<line x1="0" y1="224" x2="1600" y2="224" stroke="#ffffff" stroke-opacity="0.025"/>
<line x1="0" y1="280" x2="1600" y2="280" stroke="#ffffff" stroke-opacity="0.025"/>
<line x1="0" y1="336" x2="1600" y2="336" stroke="#ffffff" stroke-opacity="0.025"/>
<line x1="0" y1="392" x2="1600" y2="392" stroke="#ffffff" stroke-opacity="0.025"/>
<line x1="0" y1="448" x2="1600" y2="448" stroke="#ffffff" stroke-opacity="0.025"/>
<line x1="0" y1="504" x2="1600" y2="504" stroke="#ffffff" stroke-opacity="0.025"/>
<line x1="0" y1="560" x2="1600" y2="560" stroke="#ffffff" stroke-opacity="0.025"/>
<line x1="0" y1="616" x2="1600" y2="616" stroke="#ffffff" stroke-opacity="0.025"/>
<line x1="0" y1="672" x2="1600" y2="672" stroke="#ffffff" stroke-opacity="0.025"/>
<line x1="0" y1="728" x2="1600" y2="728" stroke="#ffffff" stroke-opacity="0.025"/>
<line x1="0" y1="784" x2="1600" y2="784" stroke="#ffffff" stroke-opacity="0.025"/>
<line x1="0" y1="840" x2="1600" y2="840" stroke="#ffffff" stroke-opacity="0.025"/>
<line x1="0" y1="896" x2="1600" y2="896" stroke="#ffffff" stroke-opacity="0.025"/>
<line x1="0" y1="952" x2="1600" y2="952" stroke="#ffffff" stroke-opacity="0.025"/>
<path d="M 734.3,100.6 L 754.2,115.7 L 755.3,116.6 L 756.9,117.8 L 767.3,125.7 L 768.4,126.5 L 790.7,143.9 L 792.7,145.5 L 794.8,146.9 L 796.5,147.7 L 798.3,148.2 L 799.7,148.3 L 801.3,148.1 L 802.7,147.5 L 804.3,146.4 L 805.6,145.2 L 817.0,132.9 L 818.7,131.4 L 820.7,130.1 L 822.9,129.4 L 824.8,129.5 L 826.8,130.5 L 829.7,132.1 L 832.8,134.1 L 848.3,144.0 L 871.1,158.5 L 879.6,164.6 L 884.4,169.2 L 888.0,173.8 L 891.4,178.7 L 894.2,184.3 L 896.5,189.9 L 898.4,196.5 L 899.6,204.2 L 900.0,210.7 L 899.9,217.4 L 899.1,224.0 L 897.6,230.3 L 895.7,236.0 L 893.0,241.6 L 889.6,247.5 L 810.0,373.2 L 757.4,456.6 L 711.6,529.7 L 690.0,563.2 L 611.8,688.8 L 573.7,749.0 L 535.2,810.1 L 525.4,826.1 L 520.3,834.4 L 503.2,861.6 L 498.4,867.6 L 493.4,872.0 L 487.7,875.2 L 481.7,876.1 L 474.6,875.8 L 467.0,874.1 L 460.1,870.3 L 449.3,863.0 L 443.1,859.3 L 437.5,857.0 L 430.3,855.5 L 423.2,855.2 L 415.1,855.9 L 407.9,858.1 L 401.6,861.9 L 364.1,889.4 L 357.0,894.7 L 350.7,899.3 L 344.3,902.7 L 335.6,906.1 L 328.0,908.4 L 317.7,910.0 L 301.5,909.5 L 292.2,907.9 L 283.8,905.5 L 271.4,899.3 L 261.9,892.2 L 254.5,884.8 L 248.7,877.9 L 242.7,869.1 L 236.4,855.7 L 232.2,841.4 L 230.5,829.6 L 230.0,820.9 L 230.4,806.7 L 232.1,793.2 L 234.4,782.5 L 237.5,771.5 L 241.2,759.9 L 246.0,748.1 L 252.1,736.8 L 276.2,698.9 L 338.6,598.9 L 343.5,591.9 L 349.2,587.0 L 355.3,583.4 L 363.3,580.9 L 370.1,579.8 L 377.5,580.7 L 384.9,582.6 L 390.8,585.7 L 396.6,589.7 L 401.8,594.1 L 407.3,600.9 L 411.7,608.0 L 415.2,615.8 L 417.0,624.2 L 418.1,634.1 L 418.3,643.5 L 417.2,652.4 L 414.7,663.4 L 410.9,673.0 L 402.7,688.0 L 387.4,711.4 L 341.8,783.8 L 338.7,789.5 L 337.1,795.3 L 336.9,801.2 L 338.3,807.8 L 341.1,812.8 L 344.6,817.1 L 349.9,820.9 L 356.1,822.7 L 361.9,823.4 L 368.5,822.3 L 373.9,820.0 L 463.4,779.7 L 475.2,772.8 L 488.8,763.2 L 497.7,755.5 L 506.1,747.3 L 515.3,735.8 L 524.5,722.3 L 552.7,677.5 L 555.5,672.5 L 556.8,669.2 L 558.2,664.8 L 558.4,661.5 L 558.4,658.1 L 557.9,655.1 L 556.9,651.5 L 555.1,646.9 L 552.9,643.5 L 550.1,640.5 L 547.1,638.1 L 544.4,636.1 L 535.5,630.9 L 527.2,625.8 L 517.8,617.8 L 512.2,611.3 L 507.1,603.6 L 503.2,594.8 L 480.0,539.6 L 458.1,488.3 L 455.0,480.5 L 453.5,474.5 L 452.7,468.7 L 452.4,462.9 L 452.6,457.2 L 454.0,448.2 L 457.0,438.5 L 461.7,429.8 L 467.4,422.3 L 470.7,418.5 L 474.1,415.1 L 483.8,408.0 L 496.4,401.1 L 556.1,370.9 L 606.0,345.4 L 630.4,332.9 L 663.3,316.3 L 699.6,297.9 L 787.1,252.3 L 793.8,248.3 L 797.7,244.7 L 800.1,241.3 L 800.9,240.2 L 802.5,235.5 L 802.7,229.2 L 801.0,222.0 L 798.0,216.8 L 793.0,211.6 L 787.6,207.5 L 782.0,204.3 L 776.6,202.0 L 772.2,200.0 L 763.0,197.9 L 753.5,196.8 L 744.6,196.8 L 737.7,197.4 L 728.1,199.4 L 719.6,203.1 L 710.4,208.3 L 706.5,210.9 L 705.5,211.7 L 688.3,226.2 L 682.9,230.1 L 677.4,233.2 L 669.7,235.5 L 666.3,236.2 L 658.5,236.6 L 652.7,235.9 L 648.5,234.7 L 643.2,232.5 L 636.8,228.5 L 631.3,223.6 L 625.9,215.5 L 622.6,207.3 L 621.2,198.2 L 621.2,192.3 L 622.5,186.1 L 624.5,179.6 L 628.2,172.9 L 634.0,166.8 L 675.8,132.8 L 713.7,101.0 L 719.5,98.3 L 724.3,97.3 L 729.3,97.9 L 734.3,100.6 L 713.7,101.0 L 720.2,96.9 L 724.2,94.8 L 727.7,93.3 L 732.7,91.7 L 737.5,90.8 L 743.0,90.2 L 748.3,90.0 L 753.1,90.1 L 758.7,90.7 L 763.9,91.9 L 768.7,93.5 L 773.2,95.4 L 777.2,97.7 L 785.8,103.5 L 792.5,107.9 L 795.9,110.1 L 797.4,111.1 L 810.8,119.8 L 816.1,123.2 L 829.7,132.1 Z" fill="none" stroke="#000000" stroke-opacity="0.5" stroke-width="13" stroke-linejoin="round" stroke-linecap="round"/>
<path d="M 734.3,100.6 L 754.2,115.7 L 755.3,116.6 L 756.9,117.8 L 767.3,125.7 L 768.4,126.5 L 790.7,143.9 L 792.7,145.5 L 794.8,146.9 L 796.5,147.7 L 798.3,148.2 L 799.7,148.3 L 801.3,148.1 L 802.7,147.5 L 804.3,146.4 L 805.6,145.2 L 817.0,132.9 L 818.7,131.4 L 820.7,130.1 L 822.9,129.4 L 824.8,129.5 L 826.8,130.5 L 829.7,132.1 L 832.8,134.1 L 848.3,144.0 L 871.1,158.5 L 879.6,164.6 L 884.4,169.2 L 888.0,173.8 L 891.4,178.7 L 894.2,184.3 L 896.5,189.9 L 898.4,196.5 L 899.6,204.2 L 900.0,210.7 L 899.9,217.4 L 899.1,224.0 L 897.6,230.3 L 895.7,236.0 L 893.0,241.6 L 889.6,247.5 L 810.0,373.2 L 757.4,456.6 L 711.6,529.7 L 690.0,563.2 L 611.8,688.8 L 573.7,749.0 L 535.2,810.1 L 525.4,826.1 L 520.3,834.4 L 503.2,861.6 L 498.4,867.6 L 493.4,872.0 L 487.7,875.2 L 481.7,876.1 L 474.6,875.8 L 467.0,874.1 L 460.1,870.3 L 449.3,863.0 L 443.1,859.3 L 437.5,857.0 L 430.3,855.5 L 423.2,855.2 L 415.1,855.9 L 407.9,858.1 L 401.6,861.9 L 364.1,889.4 L 357.0,894.7 L 350.7,899.3 L 344.3,902.7 L 335.6,906.1 L 328.0,908.4 L 317.7,910.0 L 301.5,909.5 L 292.2,907.9 L 283.8,905.5 L 271.4,899.3 L 261.9,892.2 L 254.5,884.8 L 248.7,877.9 L 242.7,869.1 L 236.4,855.7 L 232.2,841.4 L 230.5,829.6 L 230.0,820.9 L 230.4,806.7 L 232.1,793.2 L 234.4,782.5 L 237.5,771.5 L 241.2,759.9 L 246.0,748.1 L 252.1,736.8 L 276.2,698.9 L 338.6,598.9 L 343.5,591.9 L 349.2,587.0 L 355.3,583.4 L 363.3,580.9 L 370.1,579.8 L 377.5,580.7 L 384.9,582.6 L 390.8,585.7 L 396.6,589.7 L 401.8,594.1 L 407.3,600.9 L 411.7,608.0 L 415.2,615.8 L 417.0,624.2 L 418.1,634.1 L 418.3,643.5 L 417.2,652.4 L 414.7,663.4 L 410.9,673.0 L 402.7,688.0 L 387.4,711.4 L 341.8,783.8 L 338.7,789.5 L 337.1,795.3 L 336.9,801.2 L 338.3,807.8 L 341.1,812.8 L 344.6,817.1 L 349.9,820.9 L 356.1,822.7 L 361.9,823.4 L 368.5,822.3 L 373.9,820.0 L 463.4,779.7 L 475.2,772.8 L 488.8,763.2 L 497.7,755.5 L 506.1,747.3 L 515.3,735.8 L 524.5,722.3 L 552.7,677.5 L 555.5,672.5 L 556.8,669.2 L 558.2,664.8 L 558.4,661.5 L 558.4,658.1 L 557.9,655.1 L 556.9,651.5 L 555.1,646.9 L 552.9,643.5 L 550.1,640.5 L 547.1,638.1 L 544.4,636.1 L 535.5,630.9 L 527.2,625.8 L 517.8,617.8 L 512.2,611.3 L 507.1,603.6 L 503.2,594.8 L 480.0,539.6 L 458.1,488.3 L 455.0,480.5 L 453.5,474.5 L 452.7,468.7 L 452.4,462.9 L 452.6,457.2 L 454.0,448.2 L 457.0,438.5 L 461.7,429.8 L 467.4,422.3 L 470.7,418.5 L 474.1,415.1 L 483.8,408.0 L 496.4,401.1 L 556.1,370.9 L 606.0,345.4 L 630.4,332.9 L 663.3,316.3 L 699.6,297.9 L 787.1,252.3 L 793.8,248.3 L 797.7,244.7 L 800.1,241.3 L 800.9,240.2 L 802.5,235.5 L 802.7,229.2 L 801.0,222.0 L 798.0,216.8 L 793.0,211.6 L 787.6,207.5 L 782.0,204.3 L 776.6,202.0 L 772.2,200.0 L 763.0,197.9 L 753.5,196.8 L 744.6,196.8 L 737.7,197.4 L 728.1,199.4 L 719.6,203.1 L 710.4,208.3 L 706.5,210.9 L 705.5,211.7 L 688.3,226.2 L 682.9,230.1 L 677.4,233.2 L 669.7,235.5 L 666.3,236.2 L 658.5,236.6 L 652.7,235.9 L 648.5,234.7 L 643.2,232.5 L 636.8,228.5 L 631.3,223.6 L 625.9,215.5 L 622.6,207.3 L 621.2,198.2 L 621.2,192.3 L 622.5,186.1 L 624.5,179.6 L 628.2,172.9 L 634.0,166.8 L 675.8,132.8 L 713.7,101.0 L 719.5,98.3 L 724.3,97.3 L 729.3,97.9 L 734.3,100.6 L 713.7,101.0 L 720.2,96.9 L 724.2,94.8 L 727.7,93.3 L 732.7,91.7 L 737.5,90.8 L 743.0,90.2 L 748.3,90.0 L 753.1,90.1 L 758.7,90.7 L 763.9,91.9 L 768.7,93.5 L 773.2,95.4 L 777.2,97.7 L 785.8,103.5 L 792.5,107.9 L 795.9,110.1 L 797.4,111.1 L 810.8,119.8 L 816.1,123.2 L 829.7,132.1 Z" fill="none" stroke="#39404f" stroke-width="8.5" stroke-linejoin="round" stroke-linecap="round"/>
<path d="M 734.3,100.6 L 754.2,115.7 L 755.3,116.6 L 756.9,117.8 L 767.3,125.7 L 768.4,126.5 L 790.7,143.9 L 792.7,145.5 L 794.8,146.9 L 796.5,147.7 L 798.3,148.2 L 799.7,148.3 L 801.3,148.1 L 802.7,147.5 L 804.3,146.4 L 805.6,145.2 L 817.0,132.9 L 818.7,131.4 L 820.7,130.1 L 822.9,129.4 L 824.8,129.5 L 826.8,130.5 L 829.7,132.1 L 832.8,134.1 L 848.3,144.0 L 871.1,158.5 L 879.6,164.6 L 884.4,169.2 L 888.0,173.8 L 891.4,178.7 L 894.2,184.3 L 896.5,189.9 L 898.4,196.5 L 899.6,204.2 L 900.0,210.7 L 899.9,217.4 L 899.1,224.0 L 897.6,230.3 L 895.7,236.0 L 893.0,241.6 L 889.6,247.5 L 810.0,373.2 L 757.4,456.6 L 711.6,529.7 L 690.0,563.2 L 611.8,688.8 L 573.7,749.0 L 535.2,810.1 L 525.4,826.1 L 520.3,834.4 L 503.2,861.6 L 498.4,867.6 L 493.4,872.0 L 487.7,875.2 L 481.7,876.1 L 474.6,875.8 L 467.0,874.1 L 460.1,870.3 L 449.3,863.0 L 443.1,859.3 L 437.5,857.0 L 430.3,855.5 L 423.2,855.2 L 415.1,855.9 L 407.9,858.1 L 401.6,861.9 L 364.1,889.4 L 357.0,894.7 L 350.7,899.3 L 344.3,902.7 L 335.6,906.1 L 328.0,908.4 L 317.7,910.0 L 301.5,909.5 L 292.2,907.9 L 283.8,905.5 L 271.4,899.3 L 261.9,892.2 L 254.5,884.8 L 248.7,877.9 L 242.7,869.1 L 236.4,855.7 L 232.2,841.4 L 230.5,829.6 L 230.0,820.9 L 230.4,806.7 L 232.1,793.2 L 234.4,782.5 L 237.5,771.5 L 241.2,759.9 L 246.0,748.1 L 252.1,736.8 L 276.2,698.9 L 338.6,598.9 L 343.5,591.9 L 349.2,587.0 L 355.3,583.4 L 363.3,580.9 L 370.1,579.8 L 377.5,580.7 L 384.9,582.6 L 390.8,585.7 L 396.6,589.7 L 401.8,594.1 L 407.3,600.9 L 411.7,608.0 L 415.2,615.8 L 417.0,624.2 L 418.1,634.1 L 418.3,643.5 L 417.2,652.4 L 414.7,663.4 L 410.9,673.0 L 402.7,688.0 L 387.4,711.4 L 341.8,783.8 L 338.7,789.5 L 337.1,795.3 L 336.9,801.2 L 338.3,807.8 L 341.1,812.8 L 344.6,817.1 L 349.9,820.9 L 356.1,822.7 L 361.9,823.4 L 368.5,822.3 L 373.9,820.0 L 463.4,779.7 L 475.2,772.8 L 488.8,763.2 L 497.7,755.5 L 506.1,747.3 L 515.3,735.8 L 524.5,722.3 L 552.7,677.5 L 555.5,672.5 L 556.8,669.2 L 558.2,664.8 L 558.4,661.5 L 558.4,658.1 L 557.9,655.1 L 556.9,651.5 L 555.1,646.9 L 552.9,643.5 L 550.1,640.5 L 547.1,638.1 L 544.4,636.1 L 535.5,630.9 L 527.2,625.8 L 517.8,617.8 L 512.2,611.3 L 507.1,603.6 L 503.2,594.8 L 480.0,539.6 L 458.1,488.3 L 455.0,480.5 L 453.5,474.5 L 452.7,468.7 L 452.4,462.9 L 452.6,457.2 L 454.0,448.2 L 457.0,438.5 L 461.7,429.8 L 467.4,422.3 L 470.7,418.5 L 474.1,415.1 L 483.8,408.0 L 496.4,401.1 L 556.1,370.9 L 606.0,345.4 L 630.4,332.9 L 663.3,316.3 L 699.6,297.9 L 787.1,252.3 L 793.8,248.3 L 797.7,244.7 L 800.1,241.3 L 800.9,240.2 L 802.5,235.5 L 802.7,229.2 L 801.0,222.0 L 798.0,216.8 L 793.0,211.6 L 787.6,207.5 L 782.0,204.3 L 776.6,202.0 L 772.2,200.0 L 763.0,197.9 L 753.5,196.8 L 744.6,196.8 L 737.7,197.4 L 728.1,199.4 L 719.6,203.1 L 710.4,208.3 L 706.5,210.9 L 705.5,211.7 L 688.3,226.2 L 682.9,230.1 L 677.4,233.2 L 669.7,235.5 L 666.3,236.2 L 658.5,236.6 L 652.7,235.9 L 648.5,234.7 L 643.2,232.5 L 636.8,228.5 L 631.3,223.6 L 625.9,215.5 L 622.6,207.3 L 621.2,198.2 L 621.2,192.3 L 622.5,186.1 L 624.5,179.6 L 628.2,172.9 L 634.0,166.8 L 675.8,132.8 L 713.7,101.0 L 719.5,98.3 L 724.3,97.3 L 729.3,97.9 L 734.3,100.6 L 713.7,101.0 L 720.2,96.9 L 724.2,94.8 L 727.7,93.3 L 732.7,91.7 L 737.5,90.8 L 743.0,90.2 L 748.3,90.0 L 753.1,90.1 L 758.7,90.7 L 763.9,91.9 L 768.7,93.5 L 773.2,95.4 L 777.2,97.7 L 785.8,103.5 L 792.5,107.9 L 795.9,110.1 L 797.4,111.1 L 810.8,119.8 L 816.1,123.2 L 829.7,132.1 Z" fill="none" stroke="#e7edf8" stroke-width="2.6" stroke-linejoin="round" stroke-linecap="round"/>
<path d="M 734.3,100.6 L 754.2,115.7 L 755.3,116.6 L 756.9,117.8 L 767.3,125.7 L 768.4,126.5 L 790.7,143.9 L 792.7,145.5 L 794.8,146.9 L 796.5,147.7 L 798.3,148.2 L 799.7,148.3 L 801.3,148.1 L 802.7,147.5 L 804.3,146.4 L 805.6,145.2 L 817.0,132.9 L 818.7,131.4 L 820.7,130.1 L 822.9,129.4 L 824.8,129.5 L 826.8,130.5 L 829.7,132.1 L 832.8,134.1 L 848.3,144.0 L 871.1,158.5 L 879.6,164.6 L 884.4,169.2 L 888.0,173.8 L 891.4,178.7 L 894.2,184.3 L 896.5,189.9 L 898.4,196.5 L 899.6,204.2 L 900.0,210.7 L 899.9,217.4 L 899.1,224.0 L 897.6,230.3 L 895.7,236.0 L 893.0,241.6 L 889.6,247.5 L 810.0,373.2 L 757.4,456.6 L 711.6,529.7 L 690.0,563.2 L 611.8,688.8 L 573.7,749.0 L 535.2,810.1 L 525.4,826.1 L 520.3,834.4 L 503.2,861.6 L 498.4,867.6 L 493.4,872.0 L 487.7,875.2 L 481.7,876.1 L 474.6,875.8 L 467.0,874.1 L 460.1,870.3 L 449.3,863.0 L 443.1,859.3 L 437.5,857.0 L 430.3,855.5 L 423.2,855.2 L 415.1,855.9 L 407.9,858.1 L 401.6,861.9 L 364.1,889.4 L 357.0,894.7 L 350.7,899.3 L 344.3,902.7 L 335.6,906.1 L 328.0,908.4 L 317.7,910.0 L 301.5,909.5 L 292.2,907.9 L 283.8,905.5 L 271.4,899.3 L 261.9,892.2 L 254.5,884.8 L 248.7,877.9 L 242.7,869.1 L 236.4,855.7 L 232.2,841.4 L 230.5,829.6 L 230.0,820.9 L 230.4,806.7 L 232.1,793.2 L 234.4,782.5 L 237.5,771.5 L 241.2,759.9 L 246.0,748.1 L 252.1,736.8 L 276.2,698.9 L 338.6,598.9 L 343.5,591.9 L 349.2,587.0 L 355.3,583.4 L 363.3,580.9 L 370.1,579.8 L 377.5,580.7 L 384.9,582.6 L 390.8,585.7 L 396.6,589.7 L 401.8,594.1 L 407.3,600.9 L 411.7,608.0 L 415.2,615.8 L 417.0,624.2 L 418.1,634.1 L 418.3,643.5 L 417.2,652.4 L 414.7,663.4 L 410.9,673.0 L 402.7,688.0 L 387.4,711.4 L 341.8,783.8 L 338.7,789.5 L 337.1,795.3 L 336.9,801.2 L 338.3,807.8 L 341.1,812.8 L 344.6,817.1 L 349.9,820.9 L 356.1,822.7 L 361.9,823.4 L 368.5,822.3 L 373.9,820.0 L 463.4,779.7 L 475.2,772.8 L 488.8,763.2 L 497.7,755.5 L 506.1,747.3 L 515.3,735.8 L 524.5,722.3 L 552.7,677.5 L 555.5,672.5 L 556.8,669.2 L 558.2,664.8 L 558.4,661.5 L 558.4,658.1 L 557.9,655.1 L 556.9,651.5 L 555.1,646.9 L 552.9,643.5 L 550.1,640.5 L 547.1,638.1 L 544.4,636.1 L 535.5,630.9 L 527.2,625.8 L 517.8,617.8 L 512.2,611.3 L 507.1,603.6 L 503.2,594.8 L 480.0,539.6 L 458.1,488.3 L 455.0,480.5 L 453.5,474.5 L 452.7,468.7 L 452.4,462.9 L 452.6,457.2 L 454.0,448.2 L 457.0,438.5 L 461.7,429.8 L 467.4,422.3 L 470.7,418.5 L 474.1,415.1 L 483.8,408.0 L 496.4,401.1 L 556.1,370.9 L 606.0,345.4 L 630.4,332.9 L 663.3,316.3 L 699.6,297.9 L 787.1,252.3 L 793.8,248.3 L 797.7,244.7 L 800.1,241.3 L 800.9,240.2 L 802.5,235.5 L 802.7,229.2 L 801.0,222.0 L 798.0,216.8 L 793.0,211.6 L 787.6,207.5 L 782.0,204.3 L 776.6,202.0 L 772.2,200.0 L 763.0,197.9 L 753.5,196.8 L 744.6,196.8 L 737.7,197.4 L 728.1,199.4 L 719.6,203.1 L 710.4,208.3 L 706.5,210.9 L 705.5,211.7 L 688.3,226.2 L 682.9,230.1 L 677.4,233.2 L 669.7,235.5 L 666.3,236.2 L 658.5,236.6 L 652.7,235.9 L 648.5,234.7 L 643.2,232.5 L 636.8,228.5 L 631.3,223.6 L 625.9,215.5 L 622.6,207.3 L 621.2,198.2 L 621.2,192.3 L 622.5,186.1 L 624.5,179.6 L 628.2,172.9 L 634.0,166.8 L 675.8,132.8 L 713.7,101.0 L 719.5,98.3 L 724.3,97.3 L 729.3,97.9 L 734.3,100.6 L 713.7,101.0 L 720.2,96.9 L 724.2,94.8 L 727.7,93.3 L 732.7,91.7 L 737.5,90.8 L 743.0,90.2 L 748.3,90.0 L 753.1,90.1 L 758.7,90.7 L 763.9,91.9 L 768.7,93.5 L 773.2,95.4 L 777.2,97.7 L 785.8,103.5 L 792.5,107.9 L 795.9,110.1 L 797.4,111.1 L 810.8,119.8 L 816.1,123.2 L 829.7,132.1 Z" fill="none" stroke="#ff5a36" stroke-opacity="0.55" stroke-width="1.2" stroke-linejoin="round" filter="url(#glow)"/>
<circle cx="734.3" cy="100.6" r="13" fill="none" stroke="#ffffff" stroke-width="3"/>
<rect x="730.3" y="78.6" width="8" height="18" fill="#ffffff"/>
<circle cx="702.9" cy="543.2" r="7" fill="#ff5a36" stroke="#0a0c12" stroke-width="2.5" filter="url(#glow)"/>
<text x="702.9" y="546.6" font-size="9" font-weight="700" fill="#0a0c12" text-anchor="middle">1</text>
<circle cx="667.4" cy="599.6" r="7" fill="#ff5a36" stroke="#0a0c12" stroke-width="2.5" filter="url(#glow)"/>
<text x="667.4" y="603.0" font-size="9" font-weight="700" fill="#0a0c12" text-anchor="middle">2</text>
<circle cx="574.3" cy="748.1" r="7" fill="#ff5a36" stroke="#0a0c12" stroke-width="2.5" filter="url(#glow)"/>
<text x="574.3" y="751.5" font-size="9" font-weight="700" fill="#0a0c12" text-anchor="middle">3</text>
<circle cx="251.2" cy="880.8" r="7" fill="#ff5a36" stroke="#0a0c12" stroke-width="2.5" filter="url(#glow)"/>
<text x="251.2" y="884.2" font-size="9" font-weight="700" fill="#0a0c12" text-anchor="middle">4</text>
<circle cx="323.5" cy="623.1" r="7" fill="#ff5a36" stroke="#0a0c12" stroke-width="2.5" filter="url(#glow)"/>
<text x="323.5" y="626.5" font-size="9" font-weight="700" fill="#0a0c12" text-anchor="middle">5</text>
<circle cx="415.0" cy="661.9" r="7" fill="#ff5a36" stroke="#0a0c12" stroke-width="2.5" filter="url(#glow)"/>
<text x="415.0" y="665.3" font-size="9" font-weight="700" fill="#0a0c12" text-anchor="middle">6</text>
<circle cx="347.4" cy="774.8" r="7" fill="#ff5a36" stroke="#0a0c12" stroke-width="2.5" filter="url(#glow)"/>
<text x="347.4" y="778.2" font-size="9" font-weight="700" fill="#0a0c12" text-anchor="middle">7</text>
<circle cx="356.6" cy="822.8" r="7" fill="#ff5a36" stroke="#0a0c12" stroke-width="2.5" filter="url(#glow)"/>
<text x="356.6" y="826.2" font-size="9" font-weight="700" fill="#0a0c12" text-anchor="middle">8</text>
<circle cx="518.9" cy="730.5" r="7" fill="#ff5a36" stroke="#0a0c12" stroke-width="2.5" filter="url(#glow)"/>
<text x="518.9" y="733.9" font-size="9" font-weight="700" fill="#0a0c12" text-anchor="middle">9</text>
<circle cx="536.1" cy="381.0" r="7" fill="#ff5a36" stroke="#0a0c12" stroke-width="2.5" filter="url(#glow)"/>
<text x="536.1" y="384.4" font-size="9" font-weight="700" fill="#0a0c12" text-anchor="middle">10</text>
<circle cx="592.5" cy="352.3" r="7" fill="#ff5a36" stroke="#0a0c12" stroke-width="2.5" filter="url(#glow)"/>
<text x="592.5" y="355.7" font-size="9" font-weight="700" fill="#0a0c12" text-anchor="middle">11</text>
<circle cx="724.9" cy="284.8" r="7" fill="#ff5a36" stroke="#0a0c12" stroke-width="2.5" filter="url(#glow)"/>
<text x="724.9" y="288.2" font-size="9" font-weight="700" fill="#0a0c12" text-anchor="middle">12</text>
<circle cx="705.8" cy="211.4" r="7" fill="#ff5a36" stroke="#0a0c12" stroke-width="2.5" filter="url(#glow)"/>
<text x="705.8" y="214.8" font-size="9" font-weight="700" fill="#0a0c12" text-anchor="middle">13</text>
<circle cx="675.3" cy="133.1" r="7" fill="#ff5a36" stroke="#0a0c12" stroke-width="2.5" filter="url(#glow)"/>
<text x="675.3" y="136.5" font-size="9" font-weight="700" fill="#0a0c12" text-anchor="middle">14</text>
<line x1="702.9" y1="543.2" x2="745.7" y2="572.6" stroke="#ff5a36" stroke-opacity="0.45" stroke-width="1.3"/>
<text x="753.7" y="576.6" font-size="15" font-weight="600" fill="#eef2fb" text-anchor="start">Elf</text>
<line x1="667.4" y1="599.6" x2="694.5" y2="644.0" stroke="#ff5a36" stroke-opacity="0.45" stroke-width="1.3"/>
<text x="702.5" y="648.0" font-size="15" font-weight="600" fill="#eef2fb" text-anchor="start">T2</text>
<line x1="574.3" y1="748.1" x2="572.8" y2="811.1" stroke="#ff5a36" stroke-opacity="0.45" stroke-width="1.3"/>
<text x="564.8" y="815.1" font-size="15" font-weight="600" fill="#eef2fb" text-anchor="end">Renault</text>
<line x1="251.2" y1="880.8" x2="219.1" y2="921.7" stroke="#ff5a36" stroke-opacity="0.45" stroke-width="1.3"/>
<text x="211.1" y="925.7" font-size="15" font-weight="600" fill="#eef2fb" text-anchor="end">Repsol</text>
<line x1="323.5" y1="623.1" x2="279.5" y2="650.8" stroke="#ff5a36" stroke-opacity="0.45" stroke-width="1.3"/>
<text x="271.5" y="654.8" font-size="15" font-weight="600" fill="#eef2fb" text-anchor="end">Seat</text>
<line x1="415.0" y1="661.9" x2="381.8" y2="702.0" stroke="#ff5a36" stroke-opacity="0.45" stroke-width="1.3"/>
<text x="373.8" y="706.0" font-size="15" font-weight="600" fill="#eef2fb" text-anchor="end">T6</text>
<line x1="347.4" y1="774.8" x2="316.3" y2="841.1" stroke="#ff5a36" stroke-opacity="0.45" stroke-width="1.3"/>
<text x="308.3" y="845.1" font-size="15" font-weight="600" fill="#eef2fb" text-anchor="end">Würth</text>
<line x1="356.6" y1="822.8" x2="329.1" y2="871.1" stroke="#ff5a36" stroke-opacity="0.45" stroke-width="1.3"/>
<text x="321.1" y="875.1" font-size="15" font-weight="600" fill="#eef2fb" text-anchor="end">T8</text>
<line x1="518.9" y1="730.5" x2="507.0" y2="781.1" stroke="#ff5a36" stroke-opacity="0.45" stroke-width="1.3"/>
<text x="499.0" y="785.1" font-size="15" font-weight="600" fill="#eef2fb" text-anchor="end">Campsa</text>
<line x1="536.1" y1="381.0" x2="510.1" y2="336.1" stroke="#ff5a36" stroke-opacity="0.45" stroke-width="1.3"/>
<text x="502.1" y="340.1" font-size="15" font-weight="600" fill="#eef2fb" text-anchor="end">La Caixa</text>
<line x1="592.5" y1="352.3" x2="597.4" y2="300.5" stroke="#ff5a36" stroke-opacity="0.45" stroke-width="1.3"/>
<text x="605.4" y="304.5" font-size="15" font-weight="600" fill="#eef2fb" text-anchor="start">T11</text>
<line x1="724.9" y1="284.8" x2="757.6" y2="244.4" stroke="#ff5a36" stroke-opacity="0.45" stroke-width="1.3"/>
<text x="765.6" y="248.4" font-size="15" font-weight="600" fill="#eef2fb" text-anchor="start">Banc Sabadell</text>
<line x1="705.8" y1="211.4" x2="728.9" y2="164.8" stroke="#ff5a36" stroke-opacity="0.45" stroke-width="1.3"/>
<text x="736.9" y="168.8" font-size="15" font-weight="600" fill="#eef2fb" text-anchor="start">Europcar</text>
<line x1="675.3" y1="133.1" x2="689.5" y2="83.1" stroke="#ff5a36" stroke-opacity="0.45" stroke-width="1.3"/>
<text x="697.5" y="87.1" font-size="15" font-weight="600" fill="#eef2fb" text-anchor="start">New Holland</text>
<text x="90" y="64" font-size="20" letter-spacing="5" fill="#ff5a36" font-weight="700">TRACK ATLAS</text>
<text x="90" y="108" font-size="42" font-weight="800" fill="#ffffff">CIRCUIT DE BARCELONA-CATALUNYA</text>
<text x="90" y="136" font-size="16" fill="#9aa6bd">Catalunya, Montmelo</text>
<rect x="1170" y="200" width="360" height="710" rx="16" fill="#ffffff" fill-opacity="0.04" stroke="#ff5a36" stroke-opacity="0.5"/>
<text x="1198" y="250" font-size="13" letter-spacing="2" fill="#8794ab">LAYOUT</text>
<text x="1198" y="276" font-size="22" font-weight="700" fill="#eef2fb">Grand Prix Circuit</text>
<text x="1198" y="320" font-size="13" letter-spacing="2" fill="#8794ab">LENGTH</text>
<text x="1198" y="346" font-size="22" font-weight="700" fill="#eef2fb">4.657 km</text>
<text x="1198" y="390" font-size="13" letter-spacing="2" fill="#8794ab">CORNERS</text>
<text x="1198" y="416" font-size="22" font-weight="700" fill="#eef2fb">14</text>
<text x="1198" y="460" font-size="13" letter-spacing="2" fill="#8794ab">NAMED CORNERS</text>
<text x="1198" y="486" font-size="22" font-weight="700" fill="#eef2fb">14</text>
<text x="1198" y="530" font-size="13" letter-spacing="2" fill="#8794ab">DIRECTION</text>
<text x="1198" y="556" font-size="22" font-weight="700" fill="#eef2fb">Clockwise</text>
<text x="1198" y="600" font-size="13" letter-spacing="2" fill="#8794ab">SECTORS</text>
<text x="1198" y="626" font-size="22" font-weight="700" fill="#eef2fb">3</text>
<text x="1198" y="670" font-size="13" letter-spacing="2" fill="#8794ab">COUNTRY</text>
<text x="1198" y="696" font-size="22" font-weight="700" fill="#eef2fb">Spain</text>
<text x="1198" y="740" font-size="13" letter-spacing="2" fill="#8794ab">LOCATION</text>
<text x="1198" y="766" font-size="22" font-weight="700" fill="#eef2fb">Montmelo</text>
<text x="90" y="966" font-size="12" fill="#566177">Geometry © OpenStreetMap contributors (ODbL) · corner data: Lovely-Sim-Racing + curated · track-atlas</text>
<text x="90" y="942" font-size="12" fill="#8794ab">⚑ start / finish</text>
</svg>