<svg xmlns="http://www.w3.org/2000/svg" width="1600" height="1000" viewBox="0 0 1600 1000" font-family="Helvetica, Arial, sans-serif">
<defs>
      <radialGradient id="bg" cx="38%" cy="34%" r="85%">
        <stop offset="0%" stop-color="#1b2030"/>
        <stop offset="55%" stop-color="#12151f"/>
        <stop offset="100%" stop-color="#0a0c12"/>
      </radialGradient>
      <linearGradient id="accent" x1="0" y1="0" x2="1" y2="1">
        <stop offset="0%" stop-color="#ff5a36"/>
        <stop offset="100%" stop-color="#ffffff"/>
      </linearGradient>
      <filter id="glow" x="-40%" y="-40%" width="180%" height="180%">
        <feGaussianBlur stdDeviation="6" result="b"/>
        <feMerge><feMergeNode in="b"/><feMergeNode in="SourceGraphic"/></feMerge>
      </filter>
    </defs>
<rect width="1600" height="1000" fill="url(#bg)"/>
<line x1="0" y1="0" x2="0" y2="1000" stroke="#ffffff" stroke-opacity="0.025"/>
<line x1="56" y1="0" x2="56" y2="1000" stroke="#ffffff" stroke-opacity="0.025"/>
<line x1="112" y1="0" x2="112" y2="1000" stroke="#ffffff" stroke-opacity="0.025"/>
<line x1="168" y1="0" x2="168" y2="1000" stroke="#ffffff" stroke-opacity="0.025"/>
<line x1="224" y1="0" x2="224" y2="1000" stroke="#ffffff" stroke-opacity="0.025"/>
<line x1="280" y1="0" x2="280" y2="1000" stroke="#ffffff" stroke-opacity="0.025"/>
<line x1="336" y1="0" x2="336" y2="1000" stroke="#ffffff" stroke-opacity="0.025"/>
<line x1="392" y1="0" x2="392" y2="1000" stroke="#ffffff" stroke-opacity="0.025"/>
<line x1="448" y1="0" x2="448" y2="1000" stroke="#ffffff" stroke-opacity="0.025"/>
<line x1="504" y1="0" x2="504" y2="1000" stroke="#ffffff" stroke-opacity="0.025"/>
<line x1="560" y1="0" x2="560" y2="1000" stroke="#ffffff" stroke-opacity="0.025"/>
<line x1="616" y1="0" x2="616" y2="1000" stroke="#ffffff" stroke-opacity="0.025"/>
<line x1="672" y1="0" x2="672" y2="1000" stroke="#ffffff" stroke-opacity="0.025"/>
<line x1="728" y1="0" x2="728" y2="1000" stroke="#ffffff" stroke-opacity="0.025"/>
<line x1="784" y1="0" x2="784" y2="1000" stroke="#ffffff" stroke-opacity="0.025"/>
<line x1="840" y1="0" x2="840" y2="1000" stroke="#ffffff" stroke-opacity="0.025"/>
<line x1="896" y1="0" x2="896" y2="1000" stroke="#ffffff" stroke-opacity="0.025"/>
<line x1="952" y1="0" x2="952" y2="1000" stroke="#ffffff" stroke-opacity="0.025"/>
<line x1="1008" y1="0" x2="1008" y2="1000" stroke="#ffffff" stroke-opacity="0.025"/>
<line x1="1064" y1="0" x2="1064" y2="1000" stroke="#ffffff" stroke-opacity="0.025"/>
<line x1="1120" y1="0" x2="1120" y2="1000" stroke="#ffffff" stroke-opacity="0.025"/>
<line x1="1176" y1="0" x2="1176" y2="1000" stroke="#ffffff" stroke-opacity="0.025"/>
<line x1="1232" y1="0" x2="1232" y2="1000" stroke="#ffffff" stroke-opacity="0.025"/>
<line x1="1288" y1="0" x2="1288" y2="1000" stroke="#ffffff" stroke-opacity="0.025"/>
<line x1="1344" y1="0" x2="1344" y2="1000" stroke="#ffffff" stroke-opacity="0.025"/>
<line x1="1400" y1="0" x2="1400" y2="1000" stroke="#ffffff" stroke-opacity="0.025"/>
<line x1="1456" y1="0" x2="1456" y2="1000" stroke="#ffffff" stroke-opacity="0.025"/>
<line x1="1512" y1="0" x2="1512" y2="1000" stroke="#ffffff" stroke-opacity="0.025"/>
<line x1="1568" y1="0" x2="1568" y2="1000" stroke="#ffffff" stroke-opacity="0.025"/>
<line x1="0" y1="0" x2="1600" y2="0" stroke="#ffffff" stroke-opacity="0.025"/>
<line x1="0" y1="56" x2="1600" y2="56" stroke="#ffffff" stroke-opacity="0.025"/>
<line x1="0" y1="112" x2="1600" y2="112" stroke="#ffffff" stroke-opacity="0.025"/>
<line x1="0" y1="168" x2="1600" y2="168" stroke="#ffffff" stroke-opacity="0.025"/>
<line x1="0" y1="224" x2="1600" y2="224" stroke="#ffffff" stroke-opacity="0.025"/>
<line x1="0" y1="280" x2="1600" y2="280" stroke="#ffffff" stroke-opacity="0.025"/>
<line x1="0" y1="336" x2="1600" y2="336" stroke="#ffffff" stroke-opacity="0.025"/>
<line x1="0" y1="392" x2="1600" y2="392" stroke="#ffffff" stroke-opacity="0.025"/>
<line x1="0" y1="448" x2="1600" y2="448" stroke="#ffffff" stroke-opacity="0.025"/>
<line x1="0" y1="504" x2="1600" y2="504" stroke="#ffffff" stroke-opacity="0.025"/>
<line x1="0" y1="560" x2="1600" y2="560" stroke="#ffffff" stroke-opacity="0.025"/>
<line x1="0" y1="616" x2="1600" y2="616" stroke="#ffffff" stroke-opacity="0.025"/>
<line x1="0" y1="672" x2="1600" y2="672" stroke="#ffffff" stroke-opacity="0.025"/>
<line x1="0" y1="728" x2="1600" y2="728" stroke="#ffffff" stroke-opacity="0.025"/>
<line x1="0" y1="784" x2="1600" y2="784" stroke="#ffffff" stroke-opacity="0.025"/>
<line x1="0" y1="840" x2="1600" y2="840" stroke="#ffffff" stroke-opacity="0.025"/>
<line x1="0" y1="896" x2="1600" y2="896" stroke="#ffffff" stroke-opacity="0.025"/>
<line x1="0" y1="952" x2="1600" y2="952" stroke="#ffffff" stroke-opacity="0.025"/>
<path d="M 303.0,527.8 L 305.1,527.7 L 307.0,527.6 L 314.1,527.1 L 315.9,527.1 L 317.4,527.1 L 318.6,527.4 L 319.8,527.8 L 321.2,528.5 L 330.6,533.9 L 331.5,534.1 L 332.7,534.0 L 335.1,533.5 L 336.6,532.9 L 338.3,532.7 L 339.8,532.8 L 341.2,533.5 L 342.0,534.4 L 342.7,535.6 L 369.7,615.7 L 370.2,617.3 L 371.0,618.7 L 371.2,619.1 L 371.8,619.9 L 373.2,621.1 L 374.5,622.0 L 378.8,623.6 L 379.2,622.8 L 379.8,621.6 L 380.8,620.1 L 382.3,618.3 L 384.0,616.6 L 386.4,614.2 L 389.0,612.2 L 398.9,604.7 L 406.0,599.3 L 453.9,562.6 L 490.6,534.0 L 514.5,515.8 L 515.9,514.4 L 516.8,512.9 L 517.5,511.1 L 517.9,508.8 L 517.8,507.0 L 513.2,491.9 L 512.8,490.5 L 512.5,488.3 L 512.6,486.8 L 513.1,484.8 L 514.0,483.0 L 515.9,480.4 L 518.9,477.4 L 523.0,473.9 L 528.5,470.3 L 532.2,467.9 L 572.9,443.2 L 576.8,441.4 L 597.8,432.5 L 602.5,430.5 L 621.2,422.4 L 625.3,420.6 L 647.2,410.7 L 644.5,404.4 L 625.1,359.2 L 622.9,353.9 L 621.5,350.4 L 620.7,348.6 L 620.3,347.3 L 619.3,344.6 L 608.3,314.0 L 607.3,310.8 L 611.1,309.0 L 612.5,308.4 L 708.9,264.2 L 711.5,263.0 L 715.9,261.0 L 720.0,259.2 L 822.5,212.7 L 827.0,210.7 L 830.2,209.4 L 844.7,203.6 L 895.7,182.8 L 898.1,181.8 L 898.8,181.5 L 900.9,180.6 L 907.8,177.8 L 950.7,161.7 L 972.5,153.0 L 977.6,151.2 L 979.4,155.3 L 987.8,175.5 L 991.1,183.2 L 992.9,187.1 L 995.3,192.1 L 995.8,193.2 L 998.8,199.8 L 1019.0,241.7 L 1019.5,242.8 L 1024.8,254.5 L 1029.7,266.1 L 1030.5,267.9 L 1033.2,273.3 L 1038.2,286.4 L 1039.1,289.1 L 1039.8,291.9 L 1040.0,294.5 L 1039.6,296.5 L 1038.6,298.1 L 951.4,335.5 L 904.2,355.7 L 892.4,360.7 L 863.1,373.2 L 859.5,374.9 L 857.0,375.9 L 840.9,382.6 L 823.4,390.1 L 787.7,405.3 L 785.3,406.3 L 782.6,407.5 L 739.4,425.7 L 666.9,457.2 L 664.0,458.3 L 655.6,461.9 L 559.7,502.8 L 519.8,521.0 L 513.4,524.4 L 506.7,528.5 L 496.9,535.4 L 420.6,594.8 L 409.3,603.5 L 391.5,616.9 L 389.6,618.4 L 387.3,620.5 L 386.4,621.5 L 385.6,622.5 L 384.8,623.8 L 384.0,625.3 L 383.4,626.8 L 382.7,628.6 L 382.0,630.8 L 381.4,633.3 L 381.0,635.2 L 379.9,640.4 L 371.8,687.6 L 370.4,691.8 L 368.8,694.7 L 364.5,699.4 L 289.8,768.1 L 287.7,770.6 L 286.1,773.0 L 266.1,812.1 L 257.8,832.1 L 254.9,839.0 L 251.5,843.4 L 247.9,846.2 L 247.1,846.5 L 244.2,847.8 L 241.9,848.5 L 239.1,848.8 L 235.5,848.7 L 232.7,848.1 L 229.4,846.7 L 178.0,823.0 L 129.9,798.2 L 99.1,782.3 L 97.6,781.5 L 97.1,781.0 L 96.7,780.7 L 96.5,780.2 L 96.3,779.6 L 96.1,778.7 L 96.0,777.3 L 94.7,753.8 L 91.9,712.1 L 90.5,686.4 L 90.1,680.4 L 90.0,676.2 L 90.1,672.1 L 90.6,667.7 L 91.2,664.9 L 92.0,662.3 L 92.8,659.4 L 97.0,645.8 L 106.5,614.1 L 109.2,605.0 L 114.5,587.1 L 115.4,584.5 L 116.6,582.1 L 118.2,579.3 L 120.1,576.9 L 120.9,575.8 L 122.6,574.0 L 125.5,571.5 L 128.4,569.3 L 147.5,557.7 L 173.1,542.3 L 182.9,537.6 L 207.2,525.9 L 231.8,514.8 L 236.6,512.6 L 237.5,512.2 L 238.5,511.9 L 239.3,511.8 L 240.2,511.8 L 241.6,511.9 L 242.2,511.9 L 242.9,511.8 L 244.3,511.3 L 245.3,511.0 L 280.8,499.2 L 282.4,498.9 L 283.7,499.4 L 284.7,500.2 L 285.4,501.2 L 285.9,502.3 L 292.6,524.0 L 293.2,525.4 L 293.9,526.2 L 294.7,526.8 L 296.4,527.5 L 297.0,527.7 L 297.8,527.8 L 303.0,527.8 Z" fill="none" stroke="#000000" stroke-opacity="0.5" stroke-width="13" stroke-linejoin="round" stroke-linecap="round"/>
<path d="M 303.0,527.8 L 305.1,527.7 L 307.0,527.6 L 314.1,527.1 L 315.9,527.1 L 317.4,527.1 L 318.6,527.4 L 319.8,527.8 L 321.2,528.5 L 330.6,533.9 L 331.5,534.1 L 332.7,534.0 L 335.1,533.5 L 336.6,532.9 L 338.3,532.7 L 339.8,532.8 L 341.2,533.5 L 342.0,534.4 L 342.7,535.6 L 369.7,615.7 L 370.2,617.3 L 371.0,618.7 L 371.2,619.1 L 371.8,619.9 L 373.2,621.1 L 374.5,622.0 L 378.8,623.6 L 379.2,622.8 L 379.8,621.6 L 380.8,620.1 L 382.3,618.3 L 384.0,616.6 L 386.4,614.2 L 389.0,612.2 L 398.9,604.7 L 406.0,599.3 L 453.9,562.6 L 490.6,534.0 L 514.5,515.8 L 515.9,514.4 L 516.8,512.9 L 517.5,511.1 L 517.9,508.8 L 517.8,507.0 L 513.2,491.9 L 512.8,490.5 L 512.5,488.3 L 512.6,486.8 L 513.1,484.8 L 514.0,483.0 L 515.9,480.4 L 518.9,477.4 L 523.0,473.9 L 528.5,470.3 L 532.2,467.9 L 572.9,443.2 L 576.8,441.4 L 597.8,432.5 L 602.5,430.5 L 621.2,422.4 L 625.3,420.6 L 647.2,410.7 L 644.5,404.4 L 625.1,359.2 L 622.9,353.9 L 621.5,350.4 L 620.7,348.6 L 620.3,347.3 L 619.3,344.6 L 608.3,314.0 L 607.3,310.8 L 611.1,309.0 L 612.5,308.4 L 708.9,264.2 L 711.5,263.0 L 715.9,261.0 L 720.0,259.2 L 822.5,212.7 L 827.0,210.7 L 830.2,209.4 L 844.7,203.6 L 895.7,182.8 L 898.1,181.8 L 898.8,181.5 L 900.9,180.6 L 907.8,177.8 L 950.7,161.7 L 972.5,153.0 L 977.6,151.2 L 979.4,155.3 L 987.8,175.5 L 991.1,183.2 L 992.9,187.1 L 995.3,192.1 L 995.8,193.2 L 998.8,199.8 L 1019.0,241.7 L 1019.5,242.8 L 1024.8,254.5 L 1029.7,266.1 L 1030.5,267.9 L 1033.2,273.3 L 1038.2,286.4 L 1039.1,289.1 L 1039.8,291.9 L 1040.0,294.5 L 1039.6,296.5 L 1038.6,298.1 L 951.4,335.5 L 904.2,355.7 L 892.4,360.7 L 863.1,373.2 L 859.5,374.9 L 857.0,375.9 L 840.9,382.6 L 823.4,390.1 L 787.7,405.3 L 785.3,406.3 L 782.6,407.5 L 739.4,425.7 L 666.9,457.2 L 664.0,458.3 L 655.6,461.9 L 559.7,502.8 L 519.8,521.0 L 513.4,524.4 L 506.7,528.5 L 496.9,535.4 L 420.6,594.8 L 409.3,603.5 L 391.5,616.9 L 389.6,618.4 L 387.3,620.5 L 386.4,621.5 L 385.6,622.5 L 384.8,623.8 L 384.0,625.3 L 383.4,626.8 L 382.7,628.6 L 382.0,630.8 L 381.4,633.3 L 381.0,635.2 L 379.9,640.4 L 371.8,687.6 L 370.4,691.8 L 368.8,694.7 L 364.5,699.4 L 289.8,768.1 L 287.7,770.6 L 286.1,773.0 L 266.1,812.1 L 257.8,832.1 L 254.9,839.0 L 251.5,843.4 L 247.9,846.2 L 247.1,846.5 L 244.2,847.8 L 241.9,848.5 L 239.1,848.8 L 235.5,848.7 L 232.7,848.1 L 229.4,846.7 L 178.0,823.0 L 129.9,798.2 L 99.1,782.3 L 97.6,781.5 L 97.1,781.0 L 96.7,780.7 L 96.5,780.2 L 96.3,779.6 L 96.1,778.7 L 96.0,777.3 L 94.7,753.8 L 91.9,712.1 L 90.5,686.4 L 90.1,680.4 L 90.0,676.2 L 90.1,672.1 L 90.6,667.7 L 91.2,664.9 L 92.0,662.3 L 92.8,659.4 L 97.0,645.8 L 106.5,614.1 L 109.2,605.0 L 114.5,587.1 L 115.4,584.5 L 116.6,582.1 L 118.2,579.3 L 120.1,576.9 L 120.9,575.8 L 122.6,574.0 L 125.5,571.5 L 128.4,569.3 L 147.5,557.7 L 173.1,542.3 L 182.9,537.6 L 207.2,525.9 L 231.8,514.8 L 236.6,512.6 L 237.5,512.2 L 238.5,511.9 L 239.3,511.8 L 240.2,511.8 L 241.6,511.9 L 242.2,511.9 L 242.9,511.8 L 244.3,511.3 L 245.3,511.0 L 280.8,499.2 L 282.4,498.9 L 283.7,499.4 L 284.7,500.2 L 285.4,501.2 L 285.9,502.3 L 292.6,524.0 L 293.2,525.4 L 293.9,526.2 L 294.7,526.8 L 296.4,527.5 L 297.0,527.7 L 297.8,527.8 L 303.0,527.8 Z" fill="none" stroke="#39404f" stroke-width="8.5" stroke-linejoin="round" stroke-linecap="round"/>
<path d="M 303.0,527.8 L 305.1,527.7 L 307.0,527.6 L 314.1,527.1 L 315.9,527.1 L 317.4,527.1 L 318.6,527.4 L 319.8,527.8 L 321.2,528.5 L 330.6,533.9 L 331.5,534.1 L 332.7,534.0 L 335.1,533.5 L 336.6,532.9 L 338.3,532.7 L 339.8,532.8 L 341.2,533.5 L 342.0,534.4 L 342.7,535.6 L 369.7,615.7 L 370.2,617.3 L 371.0,618.7 L 371.2,619.1 L 371.8,619.9 L 373.2,621.1 L 374.5,622.0 L 378.8,623.6 L 379.2,622.8 L 379.8,621.6 L 380.8,620.1 L 382.3,618.3 L 384.0,616.6 L 386.4,614.2 L 389.0,612.2 L 398.9,604.7 L 406.0,599.3 L 453.9,562.6 L 490.6,534.0 L 514.5,515.8 L 515.9,514.4 L 516.8,512.9 L 517.5,511.1 L 517.9,508.8 L 517.8,507.0 L 513.2,491.9 L 512.8,490.5 L 512.5,488.3 L 512.6,486.8 L 513.1,484.8 L 514.0,483.0 L 515.9,480.4 L 518.9,477.4 L 523.0,473.9 L 528.5,470.3 L 532.2,467.9 L 572.9,443.2 L 576.8,441.4 L 597.8,432.5 L 602.5,430.5 L 621.2,422.4 L 625.3,420.6 L 647.2,410.7 L 644.5,404.4 L 625.1,359.2 L 622.9,353.9 L 621.5,350.4 L 620.7,348.6 L 620.3,347.3 L 619.3,344.6 L 608.3,314.0 L 607.3,310.8 L 611.1,309.0 L 612.5,308.4 L 708.9,264.2 L 711.5,263.0 L 715.9,261.0 L 720.0,259.2 L 822.5,212.7 L 827.0,210.7 L 830.2,209.4 L 844.7,203.6 L 895.7,182.8 L 898.1,181.8 L 898.8,181.5 L 900.9,180.6 L 907.8,177.8 L 950.7,161.7 L 972.5,153.0 L 977.6,151.2 L 979.4,155.3 L 987.8,175.5 L 991.1,183.2 L 992.9,187.1 L 995.3,192.1 L 995.8,193.2 L 998.8,199.8 L 1019.0,241.7 L 1019.5,242.8 L 1024.8,254.5 L 1029.7,266.1 L 1030.5,267.9 L 1033.2,273.3 L 1038.2,286.4 L 1039.1,289.1 L 1039.8,291.9 L 1040.0,294.5 L 1039.6,296.5 L 1038.6,298.1 L 951.4,335.5 L 904.2,355.7 L 892.4,360.7 L 863.1,373.2 L 859.5,374.9 L 857.0,375.9 L 840.9,382.6 L 823.4,390.1 L 787.7,405.3 L 785.3,406.3 L 782.6,407.5 L 739.4,425.7 L 666.9,457.2 L 664.0,458.3 L 655.6,461.9 L 559.7,502.8 L 519.8,521.0 L 513.4,524.4 L 506.7,528.5 L 496.9,535.4 L 420.6,594.8 L 409.3,603.5 L 391.5,616.9 L 389.6,618.4 L 387.3,620.5 L 386.4,621.5 L 385.6,622.5 L 384.8,623.8 L 384.0,625.3 L 383.4,626.8 L 382.7,628.6 L 382.0,630.8 L 381.4,633.3 L 381.0,635.2 L 379.9,640.4 L 371.8,687.6 L 370.4,691.8 L 368.8,694.7 L 364.5,699.4 L 289.8,768.1 L 287.7,770.6 L 286.1,773.0 L 266.1,812.1 L 257.8,832.1 L 254.9,839.0 L 251.5,843.4 L 247.9,846.2 L 247.1,846.5 L 244.2,847.8 L 241.9,848.5 L 239.1,848.8 L 235.5,848.7 L 232.7,848.1 L 229.4,846.7 L 178.0,823.0 L 129.9,798.2 L 99.1,782.3 L 97.6,781.5 L 97.1,781.0 L 96.7,780.7 L 96.5,780.2 L 96.3,779.6 L 96.1,778.7 L 96.0,777.3 L 94.7,753.8 L 91.9,712.1 L 90.5,686.4 L 90.1,680.4 L 90.0,676.2 L 90.1,672.1 L 90.6,667.7 L 91.2,664.9 L 92.0,662.3 L 92.8,659.4 L 97.0,645.8 L 106.5,614.1 L 109.2,605.0 L 114.5,587.1 L 115.4,584.5 L 116.6,582.1 L 118.2,579.3 L 120.1,576.9 L 120.9,575.8 L 122.6,574.0 L 125.5,571.5 L 128.4,569.3 L 147.5,557.7 L 173.1,542.3 L 182.9,537.6 L 207.2,525.9 L 231.8,514.8 L 236.6,512.6 L 237.5,512.2 L 238.5,511.9 L 239.3,511.8 L 240.2,511.8 L 241.6,511.9 L 242.2,511.9 L 242.9,511.8 L 244.3,511.3 L 245.3,511.0 L 280.8,499.2 L 282.4,498.9 L 283.7,499.4 L 284.7,500.2 L 285.4,501.2 L 285.9,502.3 L 292.6,524.0 L 293.2,525.4 L 293.9,526.2 L 294.7,526.8 L 296.4,527.5 L 297.0,527.7 L 297.8,527.8 L 303.0,527.8 Z" fill="none" stroke="#e7edf8" stroke-width="2.6" stroke-linejoin="round" stroke-linecap="round"/>
<path d="M 303.0,527.8 L 305.1,527.7 L 307.0,527.6 L 314.1,527.1 L 315.9,527.1 L 317.4,527.1 L 318.6,527.4 L 319.8,527.8 L 321.2,528.5 L 330.6,533.9 L 331.5,534.1 L 332.7,534.0 L 335.1,533.5 L 336.6,532.9 L 338.3,532.7 L 339.8,532.8 L 341.2,533.5 L 342.0,534.4 L 342.7,535.6 L 369.7,615.7 L 370.2,617.3 L 371.0,618.7 L 371.2,619.1 L 371.8,619.9 L 373.2,621.1 L 374.5,622.0 L 378.8,623.6 L 379.2,622.8 L 379.8,621.6 L 380.8,620.1 L 382.3,618.3 L 384.0,616.6 L 386.4,614.2 L 389.0,612.2 L 398.9,604.7 L 406.0,599.3 L 453.9,562.6 L 490.6,534.0 L 514.5,515.8 L 515.9,514.4 L 516.8,512.9 L 517.5,511.1 L 517.9,508.8 L 517.8,507.0 L 513.2,491.9 L 512.8,490.5 L 512.5,488.3 L 512.6,486.8 L 513.1,484.8 L 514.0,483.0 L 515.9,480.4 L 518.9,477.4 L 523.0,473.9 L 528.5,470.3 L 532.2,467.9 L 572.9,443.2 L 576.8,441.4 L 597.8,432.5 L 602.5,430.5 L 621.2,422.4 L 625.3,420.6 L 647.2,410.7 L 644.5,404.4 L 625.1,359.2 L 622.9,353.9 L 621.5,350.4 L 620.7,348.6 L 620.3,347.3 L 619.3,344.6 L 608.3,314.0 L 607.3,310.8 L 611.1,309.0 L 612.5,308.4 L 708.9,264.2 L 711.5,263.0 L 715.9,261.0 L 720.0,259.2 L 822.5,212.7 L 827.0,210.7 L 830.2,209.4 L 844.7,203.6 L 895.7,182.8 L 898.1,181.8 L 898.8,181.5 L 900.9,180.6 L 907.8,177.8 L 950.7,161.7 L 972.5,153.0 L 977.6,151.2 L 979.4,155.3 L 987.8,175.5 L 991.1,183.2 L 992.9,187.1 L 995.3,192.1 L 995.8,193.2 L 998.8,199.8 L 1019.0,241.7 L 1019.5,242.8 L 1024.8,254.5 L 1029.7,266.1 L 1030.5,267.9 L 1033.2,273.3 L 1038.2,286.4 L 1039.1,289.1 L 1039.8,291.9 L 1040.0,294.5 L 1039.6,296.5 L 1038.6,298.1 L 951.4,335.5 L 904.2,355.7 L 892.4,360.7 L 863.1,373.2 L 859.5,374.9 L 857.0,375.9 L 840.9,382.6 L 823.4,390.1 L 787.7,405.3 L 785.3,406.3 L 782.6,407.5 L 739.4,425.7 L 666.9,457.2 L 664.0,458.3 L 655.6,461.9 L 559.7,502.8 L 519.8,521.0 L 513.4,524.4 L 506.7,528.5 L 496.9,535.4 L 420.6,594.8 L 409.3,603.5 L 391.5,616.9 L 389.6,618.4 L 387.3,620.5 L 386.4,621.5 L 385.6,622.5 L 384.8,623.8 L 384.0,625.3 L 383.4,626.8 L 382.7,628.6 L 382.0,630.8 L 381.4,633.3 L 381.0,635.2 L 379.9,640.4 L 371.8,687.6 L 370.4,691.8 L 368.8,694.7 L 364.5,699.4 L 289.8,768.1 L 287.7,770.6 L 286.1,773.0 L 266.1,812.1 L 257.8,832.1 L 254.9,839.0 L 251.5,843.4 L 247.9,846.2 L 247.1,846.5 L 244.2,847.8 L 241.9,848.5 L 239.1,848.8 L 235.5,848.7 L 232.7,848.1 L 229.4,846.7 L 178.0,823.0 L 129.9,798.2 L 99.1,782.3 L 97.6,781.5 L 97.1,781.0 L 96.7,780.7 L 96.5,780.2 L 96.3,779.6 L 96.1,778.7 L 96.0,777.3 L 94.7,753.8 L 91.9,712.1 L 90.5,686.4 L 90.1,680.4 L 90.0,676.2 L 90.1,672.1 L 90.6,667.7 L 91.2,664.9 L 92.0,662.3 L 92.8,659.4 L 97.0,645.8 L 106.5,614.1 L 109.2,605.0 L 114.5,587.1 L 115.4,584.5 L 116.6,582.1 L 118.2,579.3 L 120.1,576.9 L 120.9,575.8 L 122.6,574.0 L 125.5,571.5 L 128.4,569.3 L 147.5,557.7 L 173.1,542.3 L 182.9,537.6 L 207.2,525.9 L 231.8,514.8 L 236.6,512.6 L 237.5,512.2 L 238.5,511.9 L 239.3,511.8 L 240.2,511.8 L 241.6,511.9 L 242.2,511.9 L 242.9,511.8 L 244.3,511.3 L 245.3,511.0 L 280.8,499.2 L 282.4,498.9 L 283.7,499.4 L 284.7,500.2 L 285.4,501.2 L 285.9,502.3 L 292.6,524.0 L 293.2,525.4 L 293.9,526.2 L 294.7,526.8 L 296.4,527.5 L 297.0,527.7 L 297.8,527.8 L 303.0,527.8 Z" fill="none" stroke="#ff5a36" stroke-opacity="0.55" stroke-width="1.2" stroke-linejoin="round" filter="url(#glow)"/>
<circle cx="303.0" cy="527.8" r="13" fill="none" stroke="#ffffff" stroke-width="3"/>
<rect x="299.0" y="505.8" width="8" height="18" fill="#ffffff"/>
<circle cx="383.1" cy="617.5" r="7" fill="#ff5a36" stroke="#0a0c12" stroke-width="2.5" filter="url(#glow)"/>
<text x="383.1" y="620.9" font-size="9" font-weight="700" fill="#0a0c12" text-anchor="middle">1</text>
<circle cx="508.4" cy="520.5" r="7" fill="#ff5a36" stroke="#0a0c12" stroke-width="2.5" filter="url(#glow)"/>
<text x="508.4" y="523.9" font-size="9" font-weight="700" fill="#0a0c12" text-anchor="middle">2</text>
<circle cx="697.7" cy="269.3" r="7" fill="#ff5a36" stroke="#0a0c12" stroke-width="2.5" filter="url(#glow)"/>
<text x="697.7" y="272.7" font-size="9" font-weight="700" fill="#0a0c12" text-anchor="middle">3</text>
<circle cx="792.8" cy="226.2" r="7" fill="#ff5a36" stroke="#0a0c12" stroke-width="2.5" filter="url(#glow)"/>
<text x="792.8" y="229.6" font-size="9" font-weight="700" fill="#0a0c12" text-anchor="middle">4</text>
<circle cx="941.4" cy="165.1" r="7" fill="#ff5a36" stroke="#0a0c12" stroke-width="2.5" filter="url(#glow)"/>
<text x="941.4" y="168.5" font-size="9" font-weight="700" fill="#0a0c12" text-anchor="middle">5</text>
<circle cx="964.7" cy="156.1" r="7" fill="#ff5a36" stroke="#0a0c12" stroke-width="2.5" filter="url(#glow)"/>
<text x="964.7" y="159.5" font-size="9" font-weight="700" fill="#0a0c12" text-anchor="middle">6</text>
<circle cx="1033.4" cy="300.4" r="7" fill="#ff5a36" stroke="#0a0c12" stroke-width="2.5" filter="url(#glow)"/>
<text x="1033.4" y="303.8" font-size="9" font-weight="700" fill="#0a0c12" text-anchor="middle">7</text>
<circle cx="942.3" cy="339.4" r="7" fill="#ff5a36" stroke="#0a0c12" stroke-width="2.5" filter="url(#glow)"/>
<text x="942.3" y="342.8" font-size="9" font-weight="700" fill="#0a0c12" text-anchor="middle">8</text>
<circle cx="933.4" cy="343.2" r="7" fill="#ff5a36" stroke="#0a0c12" stroke-width="2.5" filter="url(#glow)"/>
<text x="933.4" y="346.6" font-size="9" font-weight="700" fill="#0a0c12" text-anchor="middle">9</text>
<circle cx="923.5" cy="347.5" r="7" fill="#ff5a36" stroke="#0a0c12" stroke-width="2.5" filter="url(#glow)"/>
<text x="923.5" y="350.9" font-size="9" font-weight="700" fill="#0a0c12" text-anchor="middle">10</text>
<circle cx="901.0" cy="357.1" r="7" fill="#ff5a36" stroke="#0a0c12" stroke-width="2.5" filter="url(#glow)"/>
<text x="901.0" y="360.5" font-size="9" font-weight="700" fill="#0a0c12" text-anchor="middle">11</text>
<circle cx="874.4" cy="368.4" r="7" fill="#ff5a36" stroke="#0a0c12" stroke-width="2.5" filter="url(#glow)"/>
<text x="874.4" y="371.8" font-size="9" font-weight="700" fill="#0a0c12" text-anchor="middle">12</text>
<circle cx="709.0" cy="438.9" r="7" fill="#ff5a36" stroke="#0a0c12" stroke-width="2.5" filter="url(#glow)"/>
<text x="709.0" y="442.3" font-size="9" font-weight="700" fill="#0a0c12" text-anchor="middle">13</text>
<circle cx="611.3" cy="480.8" r="7" fill="#ff5a36" stroke="#0a0c12" stroke-width="2.5" filter="url(#glow)"/>
<text x="611.3" y="484.2" font-size="9" font-weight="700" fill="#0a0c12" text-anchor="middle">14</text>
<circle cx="514.9" cy="523.6" r="7" fill="#ff5a36" stroke="#0a0c12" stroke-width="2.5" filter="url(#glow)"/>
<text x="514.9" y="527.0" font-size="9" font-weight="700" fill="#0a0c12" text-anchor="middle">15</text>
<circle cx="384.8" cy="623.7" r="7" fill="#ff5a36" stroke="#0a0c12" stroke-width="2.5" filter="url(#glow)"/>
<text x="384.8" y="627.1" font-size="9" font-weight="700" fill="#0a0c12" text-anchor="middle">16</text>
<circle cx="353.4" cy="709.7" r="7" fill="#ff5a36" stroke="#0a0c12" stroke-width="2.5" filter="url(#glow)"/>
<text x="353.4" y="713.1" font-size="9" font-weight="700" fill="#0a0c12" text-anchor="middle">17</text>
<circle cx="275.5" cy="793.7" r="7" fill="#ff5a36" stroke="#0a0c12" stroke-width="2.5" filter="url(#glow)"/>
<text x="275.5" y="797.1" font-size="9" font-weight="700" fill="#0a0c12" text-anchor="middle">18</text>
<circle cx="242.7" cy="848.3" r="7" fill="#ff5a36" stroke="#0a0c12" stroke-width="2.5" filter="url(#glow)"/>
<text x="242.7" y="851.7" font-size="9" font-weight="700" fill="#0a0c12" text-anchor="middle">19</text>
<circle cx="102.1" cy="783.9" r="7" fill="#ff5a36" stroke="#0a0c12" stroke-width="2.5" filter="url(#glow)"/>
<text x="102.1" y="787.3" font-size="9" font-weight="700" fill="#0a0c12" text-anchor="middle">20</text>
<line x1="383.1" y1="617.5" x2="348.9" y2="656.7" stroke="#ff5a36" stroke-opacity="0.45" stroke-width="1.3"/>
<text x="340.9" y="660.7" font-size="15" font-weight="600" fill="#eef2fb" text-anchor="end">T1</text>
<line x1="508.4" y1="520.5" x2="557.2" y2="538.4" stroke="#ff5a36" stroke-opacity="0.45" stroke-width="1.3"/>
<text x="565.2" y="542.4" font-size="15" font-weight="600" fill="#eef2fb" text-anchor="start">T2</text>
<line x1="697.7" y1="269.3" x2="732.9" y2="230.9" stroke="#ff5a36" stroke-opacity="0.45" stroke-width="1.3"/>
<text x="740.9" y="234.9" font-size="15" font-weight="600" fill="#eef2fb" text-anchor="start">T3</text>
<line x1="792.8" y1="226.2" x2="831.5" y2="191.4" stroke="#ff5a36" stroke-opacity="0.45" stroke-width="1.3"/>
<text x="839.5" y="195.4" font-size="15" font-weight="600" fill="#eef2fb" text-anchor="start">T4</text>
<line x1="941.4" y1="165.1" x2="983.2" y2="155.6" stroke="#ff5a36" stroke-opacity="0.45" stroke-width="1.3"/>
<text x="991.2" y="159.6" font-size="15" font-weight="600" fill="#eef2fb" text-anchor="start">T5</text>
<line x1="964.7" y1="156.1" x2="1006.8" y2="125.6" stroke="#ff5a36" stroke-opacity="0.45" stroke-width="1.3"/>
<text x="1014.8" y="129.6" font-size="15" font-weight="600" fill="#eef2fb" text-anchor="start">T6</text>
<line x1="1033.4" y1="300.4" x2="1082.1" y2="282.1" stroke="#ff5a36" stroke-opacity="0.45" stroke-width="1.3"/>
<text x="1090.1" y="286.1" font-size="15" font-weight="600" fill="#eef2fb" text-anchor="start">T7</text>
<line x1="942.3" y1="339.4" x2="991.2" y2="321.5" stroke="#ff5a36" stroke-opacity="0.45" stroke-width="1.3"/>
<text x="999.2" y="325.5" font-size="15" font-weight="600" fill="#eef2fb" text-anchor="start">T8</text>
<line x1="933.4" y1="343.2" x2="982.3" y2="351.5" stroke="#ff5a36" stroke-opacity="0.45" stroke-width="1.3"/>
<text x="990.3" y="355.5" font-size="15" font-weight="600" fill="#eef2fb" text-anchor="start">T9</text>
<line x1="923.5" y1="347.5" x2="972.3" y2="381.5" stroke="#ff5a36" stroke-opacity="0.45" stroke-width="1.3"/>
<text x="980.3" y="385.5" font-size="15" font-weight="600" fill="#eef2fb" text-anchor="start">T10</text>
<line x1="901.0" y1="357.1" x2="949.9" y2="411.5" stroke="#ff5a36" stroke-opacity="0.45" stroke-width="1.3"/>
<text x="957.9" y="415.5" font-size="15" font-weight="600" fill="#eef2fb" text-anchor="start">T11</text>
<line x1="874.4" y1="368.4" x2="923.4" y2="441.5" stroke="#ff5a36" stroke-opacity="0.45" stroke-width="1.3"/>
<text x="931.4" y="445.5" font-size="15" font-weight="600" fill="#eef2fb" text-anchor="start">T12</text>
<line x1="709.0" y1="438.9" x2="758.7" y2="471.5" stroke="#ff5a36" stroke-opacity="0.45" stroke-width="1.3"/>
<text x="766.7" y="475.5" font-size="15" font-weight="600" fill="#eef2fb" text-anchor="start">T13</text>
<line x1="611.3" y1="480.8" x2="662.1" y2="501.5" stroke="#ff5a36" stroke-opacity="0.45" stroke-width="1.3"/>
<text x="670.1" y="505.5" font-size="15" font-weight="600" fill="#eef2fb" text-anchor="start">T14</text>
<line x1="514.9" y1="523.6" x2="563.4" y2="568.4" stroke="#ff5a36" stroke-opacity="0.45" stroke-width="1.3"/>
<text x="571.4" y="572.4" font-size="15" font-weight="600" fill="#eef2fb" text-anchor="start">T15</text>
<line x1="384.8" y1="623.7" x2="352.1" y2="686.7" stroke="#ff5a36" stroke-opacity="0.45" stroke-width="1.3"/>
<text x="344.1" y="690.7" font-size="15" font-weight="600" fill="#eef2fb" text-anchor="end">T16</text>
<line x1="353.4" y1="709.7" x2="326.0" y2="753.9" stroke="#ff5a36" stroke-opacity="0.45" stroke-width="1.3"/>
<text x="318.0" y="757.9" font-size="15" font-weight="600" fill="#eef2fb" text-anchor="end">T17</text>
<line x1="275.5" y1="793.7" x2="245.3" y2="844.6" stroke="#ff5a36" stroke-opacity="0.45" stroke-width="1.3"/>
<text x="237.3" y="848.6" font-size="15" font-weight="600" fill="#eef2fb" text-anchor="end">T18</text>
<line x1="242.7" y1="848.3" x2="213.1" y2="891.0" stroke="#ff5a36" stroke-opacity="0.45" stroke-width="1.3"/>
<text x="205.1" y="895.0" font-size="15" font-weight="600" fill="#eef2fb" text-anchor="end">T19</text>
<line x1="102.1" y1="783.9" x2="60.1" y2="814.6" stroke="#ff5a36" stroke-opacity="0.45" stroke-width="1.3"/>
<text x="52.1" y="818.6" font-size="15" font-weight="600" fill="#eef2fb" text-anchor="end">T20</text>
<text x="90" y="64" font-size="20" letter-spacing="5" fill="#ff5a36" font-weight="700">TRACK ATLAS</text>
<text x="90" y="108" font-size="42" font-weight="800" fill="#ffffff">BAKU CITY CIRCUIT</text>
<text x="90" y="136" font-size="16" fill="#9aa6bd">Baku</text>
<rect x="1170" y="200" width="360" height="710" rx="16" fill="#ffffff" fill-opacity="0.04" stroke="#ff5a36" stroke-opacity="0.5"/>
<text x="1198" y="250" font-size="13" letter-spacing="2" fill="#8794ab">LAYOUT</text>
<text x="1198" y="276" font-size="22" font-weight="700" fill="#eef2fb">Grand Prix Circuit</text>
<text x="1198" y="320" font-size="13" letter-spacing="2" fill="#8794ab">LENGTH</text>
<text x="1198" y="346" font-size="22" font-weight="700" fill="#eef2fb">6.003 km</text>
<text x="1198" y="390" font-size="13" letter-spacing="2" fill="#8794ab">CORNERS</text>
<text x="1198" y="416" font-size="22" font-weight="700" fill="#eef2fb">20</text>
<text x="1198" y="460" font-size="13" letter-spacing="2" fill="#8794ab">NAMED CORNERS</text>
<text x="1198" y="486" font-size="22" font-weight="700" fill="#eef2fb">20</text>
<text x="1198" y="530" font-size="13" letter-spacing="2" fill="#8794ab">DIRECTION</text>
<text x="1198" y="556" font-size="22" font-weight="700" fill="#eef2fb">Anticlockwise</text>
<text x="1198" y="600" font-size="13" letter-spacing="2" fill="#8794ab">SECTORS</text>
<text x="1198" y="626" font-size="22" font-weight="700" fill="#eef2fb">3</text>
<text x="1198" y="670" font-size="13" letter-spacing="2" fill="#8794ab">COUNTRY</text>
<text x="1198" y="696" font-size="22" font-weight="700" fill="#eef2fb">AZ</text>
<text x="1198" y="740" font-size="13" letter-spacing="2" fill="#8794ab">LOCATION</text>
<text x="1198" y="766" font-size="22" font-weight="700" fill="#eef2fb">Baku</text>
<text x="90" y="966" font-size="12" fill="#566177">Geometry © OpenStreetMap contributors (ODbL) · corner data: Lovely-Sim-Racing + curated · track-atlas</text>
<text x="90" y="942" font-size="12" fill="#8794ab">⚑ start / finish</text>
</svg>