<svg xmlns="http://www.w3.org/2000/svg" width="1600" height="1000" viewBox="0 0 1600 1000" font-family="Helvetica, Arial, sans-serif">
<defs>
      <radialGradient id="bg" cx="38%" cy="34%" r="85%">
        <stop offset="0%" stop-color="#1b2030"/>
        <stop offset="55%" stop-color="#12151f"/>
        <stop offset="100%" stop-color="#0a0c12"/>
      </radialGradient>
      <linearGradient id="accent" x1="0" y1="0" x2="1" y2="1">
        <stop offset="0%" stop-color="#ff5a36"/>
        <stop offset="100%" stop-color="#ffffff"/>
      </linearGradient>
      <filter id="glow" x="-40%" y="-40%" width="180%" height="180%">
        <feGaussianBlur stdDeviation="6" result="b"/>
        <feMerge><feMergeNode in="b"/><feMergeNode in="SourceGraphic"/></feMerge>
      </filter>
    </defs>
<rect width="1600" height="1000" fill="url(#bg)"/>
<line x1="0" y1="0" x2="0" y2="1000" stroke="#ffffff" stroke-opacity="0.025"/>
<line x1="56" y1="0" x2="56" y2="1000" stroke="#ffffff" stroke-opacity="0.025"/>
<line x1="112" y1="0" x2="112" y2="1000" stroke="#ffffff" stroke-opacity="0.025"/>
<line x1="168" y1="0" x2="168" y2="1000" stroke="#ffffff" stroke-opacity="0.025"/>
<line x1="224" y1="0" x2="224" y2="1000" stroke="#ffffff" stroke-opacity="0.025"/>
<line x1="280" y1="0" x2="280" y2="1000" stroke="#ffffff" stroke-opacity="0.025"/>
<line x1="336" y1="0" x2="336" y2="1000" stroke="#ffffff" stroke-opacity="0.025"/>
<line x1="392" y1="0" x2="392" y2="1000" stroke="#ffffff" stroke-opacity="0.025"/>
<line x1="448" y1="0" x2="448" y2="1000" stroke="#ffffff" stroke-opacity="0.025"/>
<line x1="504" y1="0" x2="504" y2="1000" stroke="#ffffff" stroke-opacity="0.025"/>
<line x1="560" y1="0" x2="560" y2="1000" stroke="#ffffff" stroke-opacity="0.025"/>
<line x1="616" y1="0" x2="616" y2="1000" stroke="#ffffff" stroke-opacity="0.025"/>
<line x1="672" y1="0" x2="672" y2="1000" stroke="#ffffff" stroke-opacity="0.025"/>
<line x1="728" y1="0" x2="728" y2="1000" stroke="#ffffff" stroke-opacity="0.025"/>
<line x1="784" y1="0" x2="784" y2="1000" stroke="#ffffff" stroke-opacity="0.025"/>
<line x1="840" y1="0" x2="840" y2="1000" stroke="#ffffff" stroke-opacity="0.025"/>
<line x1="896" y1="0" x2="896" y2="1000" stroke="#ffffff" stroke-opacity="0.025"/>
<line x1="952" y1="0" x2="952" y2="1000" stroke="#ffffff" stroke-opacity="0.025"/>
<line x1="1008" y1="0" x2="1008" y2="1000" stroke="#ffffff" stroke-opacity="0.025"/>
<line x1="1064" y1="0" x2="1064" y2="1000" stroke="#ffffff" stroke-opacity="0.025"/>
<line x1="1120" y1="0" x2="1120" y2="1000" stroke="#ffffff" stroke-opacity="0.025"/>
<line x1="1176" y1="0" x2="1176" y2="1000" stroke="#ffffff" stroke-opacity="0.025"/>
<line x1="1232" y1="0" x2="1232" y2="1000" stroke="#ffffff" stroke-opacity="0.025"/>
<line x1="1288" y1="0" x2="1288" y2="1000" stroke="#ffffff" stroke-opacity="0.025"/>
<line x1="1344" y1="0" x2="1344" y2="1000" stroke="#ffffff" stroke-opacity="0.025"/>
<line x1="1400" y1="0" x2="1400" y2="1000" stroke="#ffffff" stroke-opacity="0.025"/>
<line x1="1456" y1="0" x2="1456" y2="1000" stroke="#ffffff" stroke-opacity="0.025"/>
<line x1="1512" y1="0" x2="1512" y2="1000" stroke="#ffffff" stroke-opacity="0.025"/>
<line x1="1568" y1="0" x2="1568" y2="1000" stroke="#ffffff" stroke-opacity="0.025"/>
<line x1="0" y1="0" x2="1600" y2="0" stroke="#ffffff" stroke-opacity="0.025"/>
<line x1="0" y1="56" x2="1600" y2="56" stroke="#ffffff" stroke-opacity="0.025"/>
<line x1="0" y1="112" x2="1600" y2="112" stroke="#ffffff" stroke-opacity="0.025"/>
<line x1="0" y1="168" x2="1600" y2="168" stroke="#ffffff" stroke-opacity="0.025"/>
<line x1="0" y1="224" x2="1600" y2="224" stroke="#ffffff" stroke-opacity="0.025"/>
<line x1="0" y1="280" x2="1600" y2="280" stroke="#ffffff" stroke-opacity="0.025"/>
<line x1="0" y1="336" x2="1600" y2="336" stroke="#ffffff" stroke-opacity="0.025"/>
<line x1="0" y1="392" x2="1600" y2="392" stroke="#ffffff" stroke-opacity="0.025"/>
<line x1="0" y1="448" x2="1600" y2="448" stroke="#ffffff" stroke-opacity="0.025"/>
<line x1="0" y1="504" x2="1600" y2="504" stroke="#ffffff" stroke-opacity="0.025"/>
<line x1="0" y1="560" x2="1600" y2="560" stroke="#ffffff" stroke-opacity="0.025"/>
<line x1="0" y1="616" x2="1600" y2="616" stroke="#ffffff" stroke-opacity="0.025"/>
<line x1="0" y1="672" x2="1600" y2="672" stroke="#ffffff" stroke-opacity="0.025"/>
<line x1="0" y1="728" x2="1600" y2="728" stroke="#ffffff" stroke-opacity="0.025"/>
<line x1="0" y1="784" x2="1600" y2="784" stroke="#ffffff" stroke-opacity="0.025"/>
<line x1="0" y1="840" x2="1600" y2="840" stroke="#ffffff" stroke-opacity="0.025"/>
<line x1="0" y1="896" x2="1600" y2="896" stroke="#ffffff" stroke-opacity="0.025"/>
<line x1="0" y1="952" x2="1600" y2="952" stroke="#ffffff" stroke-opacity="0.025"/>
<path d="M 643.4,553.1 L 648.0,575.3 L 648.2,578.6 L 648.0,580.6 L 647.5,581.9 L 646.6,583.1 L 645.5,584.0 L 643.5,585.0 L 641.1,586.1 L 639.3,587.6 L 638.0,589.3 L 637.2,591.0 L 637.0,592.8 L 637.2,594.9 L 638.1,599.2 L 673.2,765.7 L 673.3,766.4 L 676.1,780.6 L 677.5,794.1 L 677.9,805.5 L 677.7,810.4 L 677.5,818.5 L 676.2,829.3 L 675.6,834.2 L 672.9,855.9 L 672.5,859.3 L 671.6,866.5 L 671.4,869.7 L 671.7,872.3 L 672.7,874.7 L 674.4,877.0 L 677.0,878.9 L 688.1,883.8 L 691.4,885.4 L 693.2,886.5 L 694.8,887.9 L 696.2,889.4 L 697.3,891.2 L 697.9,893.8 L 698.0,896.8 L 697.5,899.4 L 696.4,902.1 L 694.6,904.6 L 692.8,906.2 L 690.6,907.8 L 688.5,908.9 L 686.3,909.6 L 684.1,909.9 L 681.4,910.0 L 679.1,909.9 L 676.3,909.6 L 672.2,908.8 L 666.8,907.5 L 659.1,905.1 L 647.1,901.4 L 638.9,898.8 L 632.5,896.2 L 626.4,893.0 L 620.4,889.4 L 613.4,884.5 L 606.3,878.8 L 594.4,869.0 L 583.4,859.5 L 567.4,844.8 L 564.0,841.5 L 562.7,839.6 L 561.9,838.0 L 561.5,835.7 L 561.7,833.1 L 562.4,830.4 L 564.7,823.9 L 565.4,821.5 L 565.9,818.8 L 566.1,816.1 L 565.9,814.0 L 565.6,812.3 L 564.7,810.2 L 563.4,808.3 L 545.6,786.3 L 532.6,769.5 L 530.6,767.1 L 528.4,764.7 L 525.8,762.5 L 522.3,760.1 L 516.1,756.4 L 512.8,753.9 L 509.7,751.2 L 506.5,748.0 L 504.2,745.2 L 501.8,741.3 L 500.0,737.9 L 497.9,733.1 L 496.3,728.6 L 495.1,723.5 L 494.3,718.7 L 493.8,713.6 L 493.6,708.2 L 493.6,701.5 L 494.5,652.5 L 494.4,648.7 L 494.1,646.5 L 493.3,644.3 L 492.5,642.7 L 491.2,640.9 L 489.8,639.5 L 488.4,638.6 L 486.7,637.9 L 484.6,637.3 L 482.3,636.9 L 480.1,637.0 L 477.8,637.3 L 475.2,638.1 L 471.9,639.2 L 469.5,639.8 L 467.2,639.9 L 464.6,639.6 L 461.5,638.9 L 458.8,637.7 L 456.1,636.1 L 453.5,634.1 L 451.1,631.9 L 447.8,628.1 L 445.5,624.7 L 444.1,621.9 L 442.8,619.0 L 441.1,613.9 L 438.6,603.6 L 436.9,593.1 L 436.1,585.5 L 435.0,573.5 L 434.2,559.7 L 432.3,527.0 L 432.0,515.9 L 432.0,507.7 L 432.2,501.5 L 432.3,499.2 L 432.8,488.1 L 433.8,472.0 L 435.0,461.2 L 436.3,451.0 L 437.5,442.4 L 438.8,435.0 L 440.2,427.8 L 441.8,421.4 L 443.8,413.5 L 454.5,375.3 L 458.0,362.5 L 459.0,359.1 L 459.8,357.5 L 461.0,356.3 L 462.5,355.7 L 463.7,355.5 L 464.6,355.3 L 469.2,355.3 L 472.8,355.2 L 475.0,354.8 L 477.9,353.7 L 480.6,352.2 L 483.0,350.5 L 483.9,349.6 L 485.6,347.8 L 487.2,345.7 L 488.6,343.6 L 490.0,341.2 L 491.2,338.9 L 492.9,334.2 L 495.9,325.0 L 498.0,318.1 L 502.0,304.1 L 504.0,296.3 L 506.9,284.2 L 509.6,272.0 L 511.8,260.6 L 514.2,246.8 L 516.3,234.2 L 517.5,228.1 L 518.3,221.6 L 518.7,217.2 L 519.9,206.2 L 520.7,188.2 L 520.8,182.0 L 520.5,169.4 L 520.1,165.0 L 519.6,161.1 L 518.7,155.4 L 517.7,150.7 L 517.6,150.2 L 507.2,101.2 L 506.8,98.7 L 507.0,96.1 L 507.7,94.1 L 508.9,92.2 L 510.6,90.9 L 512.6,90.2 L 514.6,90.0 L 516.7,90.3 L 518.0,91.0 L 519.6,92.1 L 520.7,93.3 L 521.5,94.8 L 522.4,96.8 L 523.9,103.0 L 525.0,109.6 L 525.7,115.8 L 526.1,126.6 L 526.3,129.1 L 526.7,132.5 L 527.2,135.1 L 527.8,137.6 L 529.1,141.7 L 530.9,146.2 L 531.0,146.5 L 532.9,150.7 L 536.8,158.6 L 543.5,172.5 L 546.2,178.2 L 548.4,183.4 L 558.1,208.4 L 574.7,251.7 L 585.3,280.5 L 586.9,284.9 L 588.3,289.5 L 589.3,293.9 L 590.3,298.6 L 590.9,302.0 L 593.3,314.0 L 600.5,349.9 L 611.9,403.6 L 627.1,475.1 L 632.8,502.2 L 635.6,515.8 L 643.4,553.1 Z" fill="none" stroke="#000000" stroke-opacity="0.5" stroke-width="13" stroke-linejoin="round" stroke-linecap="round"/>
<path d="M 643.4,553.1 L 648.0,575.3 L 648.2,578.6 L 648.0,580.6 L 647.5,581.9 L 646.6,583.1 L 645.5,584.0 L 643.5,585.0 L 641.1,586.1 L 639.3,587.6 L 638.0,589.3 L 637.2,591.0 L 637.0,592.8 L 637.2,594.9 L 638.1,599.2 L 673.2,765.7 L 673.3,766.4 L 676.1,780.6 L 677.5,794.1 L 677.9,805.5 L 677.7,810.4 L 677.5,818.5 L 676.2,829.3 L 675.6,834.2 L 672.9,855.9 L 672.5,859.3 L 671.6,866.5 L 671.4,869.7 L 671.7,872.3 L 672.7,874.7 L 674.4,877.0 L 677.0,878.9 L 688.1,883.8 L 691.4,885.4 L 693.2,886.5 L 694.8,887.9 L 696.2,889.4 L 697.3,891.2 L 697.9,893.8 L 698.0,896.8 L 697.5,899.4 L 696.4,902.1 L 694.6,904.6 L 692.8,906.2 L 690.6,907.8 L 688.5,908.9 L 686.3,909.6 L 684.1,909.9 L 681.4,910.0 L 679.1,909.9 L 676.3,909.6 L 672.2,908.8 L 666.8,907.5 L 659.1,905.1 L 647.1,901.4 L 638.9,898.8 L 632.5,896.2 L 626.4,893.0 L 620.4,889.4 L 613.4,884.5 L 606.3,878.8 L 594.4,869.0 L 583.4,859.5 L 567.4,844.8 L 564.0,841.5 L 562.7,839.6 L 561.9,838.0 L 561.5,835.7 L 561.7,833.1 L 562.4,830.4 L 564.7,823.9 L 565.4,821.5 L 565.9,818.8 L 566.1,816.1 L 565.9,814.0 L 565.6,812.3 L 564.7,810.2 L 563.4,808.3 L 545.6,786.3 L 532.6,769.5 L 530.6,767.1 L 528.4,764.7 L 525.8,762.5 L 522.3,760.1 L 516.1,756.4 L 512.8,753.9 L 509.7,751.2 L 506.5,748.0 L 504.2,745.2 L 501.8,741.3 L 500.0,737.9 L 497.9,733.1 L 496.3,728.6 L 495.1,723.5 L 494.3,718.7 L 493.8,713.6 L 493.6,708.2 L 493.6,701.5 L 494.5,652.5 L 494.4,648.7 L 494.1,646.5 L 493.3,644.3 L 492.5,642.7 L 491.2,640.9 L 489.8,639.5 L 488.4,638.6 L 486.7,637.9 L 484.6,637.3 L 482.3,636.9 L 480.1,637.0 L 477.8,637.3 L 475.2,638.1 L 471.9,639.2 L 469.5,639.8 L 467.2,639.9 L 464.6,639.6 L 461.5,638.9 L 458.8,637.7 L 456.1,636.1 L 453.5,634.1 L 451.1,631.9 L 447.8,628.1 L 445.5,624.7 L 444.1,621.9 L 442.8,619.0 L 441.1,613.9 L 438.6,603.6 L 436.9,593.1 L 436.1,585.5 L 435.0,573.5 L 434.2,559.7 L 432.3,527.0 L 432.0,515.9 L 432.0,507.7 L 432.2,501.5 L 432.3,499.2 L 432.8,488.1 L 433.8,472.0 L 435.0,461.2 L 436.3,451.0 L 437.5,442.4 L 438.8,435.0 L 440.2,427.8 L 441.8,421.4 L 443.8,413.5 L 454.5,375.3 L 458.0,362.5 L 459.0,359.1 L 459.8,357.5 L 461.0,356.3 L 462.5,355.7 L 463.7,355.5 L 464.6,355.3 L 469.2,355.3 L 472.8,355.2 L 475.0,354.8 L 477.9,353.7 L 480.6,352.2 L 483.0,350.5 L 483.9,349.6 L 485.6,347.8 L 487.2,345.7 L 488.6,343.6 L 490.0,341.2 L 491.2,338.9 L 492.9,334.2 L 495.9,325.0 L 498.0,318.1 L 502.0,304.1 L 504.0,296.3 L 506.9,284.2 L 509.6,272.0 L 511.8,260.6 L 514.2,246.8 L 516.3,234.2 L 517.5,228.1 L 518.3,221.6 L 518.7,217.2 L 519.9,206.2 L 520.7,188.2 L 520.8,182.0 L 520.5,169.4 L 520.1,165.0 L 519.6,161.1 L 518.7,155.4 L 517.7,150.7 L 517.6,150.2 L 507.2,101.2 L 506.8,98.7 L 507.0,96.1 L 507.7,94.1 L 508.9,92.2 L 510.6,90.9 L 512.6,90.2 L 514.6,90.0 L 516.7,90.3 L 518.0,91.0 L 519.6,92.1 L 520.7,93.3 L 521.5,94.8 L 522.4,96.8 L 523.9,103.0 L 525.0,109.6 L 525.7,115.8 L 526.1,126.6 L 526.3,129.1 L 526.7,132.5 L 527.2,135.1 L 527.8,137.6 L 529.1,141.7 L 530.9,146.2 L 531.0,146.5 L 532.9,150.7 L 536.8,158.6 L 543.5,172.5 L 546.2,178.2 L 548.4,183.4 L 558.1,208.4 L 574.7,251.7 L 585.3,280.5 L 586.9,284.9 L 588.3,289.5 L 589.3,293.9 L 590.3,298.6 L 590.9,302.0 L 593.3,314.0 L 600.5,349.9 L 611.9,403.6 L 627.1,475.1 L 632.8,502.2 L 635.6,515.8 L 643.4,553.1 Z" fill="none" stroke="#39404f" stroke-width="8.5" stroke-linejoin="round" stroke-linecap="round"/>
<path d="M 643.4,553.1 L 648.0,575.3 L 648.2,578.6 L 648.0,580.6 L 647.5,581.9 L 646.6,583.1 L 645.5,584.0 L 643.5,585.0 L 641.1,586.1 L 639.3,587.6 L 638.0,589.3 L 637.2,591.0 L 637.0,592.8 L 637.2,594.9 L 638.1,599.2 L 673.2,765.7 L 673.3,766.4 L 676.1,780.6 L 677.5,794.1 L 677.9,805.5 L 677.7,810.4 L 677.5,818.5 L 676.2,829.3 L 675.6,834.2 L 672.9,855.9 L 672.5,859.3 L 671.6,866.5 L 671.4,869.7 L 671.7,872.3 L 672.7,874.7 L 674.4,877.0 L 677.0,878.9 L 688.1,883.8 L 691.4,885.4 L 693.2,886.5 L 694.8,887.9 L 696.2,889.4 L 697.3,891.2 L 697.9,893.8 L 698.0,896.8 L 697.5,899.4 L 696.4,902.1 L 694.6,904.6 L 692.8,906.2 L 690.6,907.8 L 688.5,908.9 L 686.3,909.6 L 684.1,909.9 L 681.4,910.0 L 679.1,909.9 L 676.3,909.6 L 672.2,908.8 L 666.8,907.5 L 659.1,905.1 L 647.1,901.4 L 638.9,898.8 L 632.5,896.2 L 626.4,893.0 L 620.4,889.4 L 613.4,884.5 L 606.3,878.8 L 594.4,869.0 L 583.4,859.5 L 567.4,844.8 L 564.0,841.5 L 562.7,839.6 L 561.9,838.0 L 561.5,835.7 L 561.7,833.1 L 562.4,830.4 L 564.7,823.9 L 565.4,821.5 L 565.9,818.8 L 566.1,816.1 L 565.9,814.0 L 565.6,812.3 L 564.7,810.2 L 563.4,808.3 L 545.6,786.3 L 532.6,769.5 L 530.6,767.1 L 528.4,764.7 L 525.8,762.5 L 522.3,760.1 L 516.1,756.4 L 512.8,753.9 L 509.7,751.2 L 506.5,748.0 L 504.2,745.2 L 501.8,741.3 L 500.0,737.9 L 497.9,733.1 L 496.3,728.6 L 495.1,723.5 L 494.3,718.7 L 493.8,713.6 L 493.6,708.2 L 493.6,701.5 L 494.5,652.5 L 494.4,648.7 L 494.1,646.5 L 493.3,644.3 L 492.5,642.7 L 491.2,640.9 L 489.8,639.5 L 488.4,638.6 L 486.7,637.9 L 484.6,637.3 L 482.3,636.9 L 480.1,637.0 L 477.8,637.3 L 475.2,638.1 L 471.9,639.2 L 469.5,639.8 L 467.2,639.9 L 464.6,639.6 L 461.5,638.9 L 458.8,637.7 L 456.1,636.1 L 453.5,634.1 L 451.1,631.9 L 447.8,628.1 L 445.5,624.7 L 444.1,621.9 L 442.8,619.0 L 441.1,613.9 L 438.6,603.6 L 436.9,593.1 L 436.1,585.5 L 435.0,573.5 L 434.2,559.7 L 432.3,527.0 L 432.0,515.9 L 432.0,507.7 L 432.2,501.5 L 432.3,499.2 L 432.8,488.1 L 433.8,472.0 L 435.0,461.2 L 436.3,451.0 L 437.5,442.4 L 438.8,435.0 L 440.2,427.8 L 441.8,421.4 L 443.8,413.5 L 454.5,375.3 L 458.0,362.5 L 459.0,359.1 L 459.8,357.5 L 461.0,356.3 L 462.5,355.7 L 463.7,355.5 L 464.6,355.3 L 469.2,355.3 L 472.8,355.2 L 475.0,354.8 L 477.9,353.7 L 480.6,352.2 L 483.0,350.5 L 483.9,349.6 L 485.6,347.8 L 487.2,345.7 L 488.6,343.6 L 490.0,341.2 L 491.2,338.9 L 492.9,334.2 L 495.9,325.0 L 498.0,318.1 L 502.0,304.1 L 504.0,296.3 L 506.9,284.2 L 509.6,272.0 L 511.8,260.6 L 514.2,246.8 L 516.3,234.2 L 517.5,228.1 L 518.3,221.6 L 518.7,217.2 L 519.9,206.2 L 520.7,188.2 L 520.8,182.0 L 520.5,169.4 L 520.1,165.0 L 519.6,161.1 L 518.7,155.4 L 517.7,150.7 L 517.6,150.2 L 507.2,101.2 L 506.8,98.7 L 507.0,96.1 L 507.7,94.1 L 508.9,92.2 L 510.6,90.9 L 512.6,90.2 L 514.6,90.0 L 516.7,90.3 L 518.0,91.0 L 519.6,92.1 L 520.7,93.3 L 521.5,94.8 L 522.4,96.8 L 523.9,103.0 L 525.0,109.6 L 525.7,115.8 L 526.1,126.6 L 526.3,129.1 L 526.7,132.5 L 527.2,135.1 L 527.8,137.6 L 529.1,141.7 L 530.9,146.2 L 531.0,146.5 L 532.9,150.7 L 536.8,158.6 L 543.5,172.5 L 546.2,178.2 L 548.4,183.4 L 558.1,208.4 L 574.7,251.7 L 585.3,280.5 L 586.9,284.9 L 588.3,289.5 L 589.3,293.9 L 590.3,298.6 L 590.9,302.0 L 593.3,314.0 L 600.5,349.9 L 611.9,403.6 L 627.1,475.1 L 632.8,502.2 L 635.6,515.8 L 643.4,553.1 Z" fill="none" stroke="#e7edf8" stroke-width="2.6" stroke-linejoin="round" stroke-linecap="round"/>
<path d="M 643.4,553.1 L 648.0,575.3 L 648.2,578.6 L 648.0,580.6 L 647.5,581.9 L 646.6,583.1 L 645.5,584.0 L 643.5,585.0 L 641.1,586.1 L 639.3,587.6 L 638.0,589.3 L 637.2,591.0 L 637.0,592.8 L 637.2,594.9 L 638.1,599.2 L 673.2,765.7 L 673.3,766.4 L 676.1,780.6 L 677.5,794.1 L 677.9,805.5 L 677.7,810.4 L 677.5,818.5 L 676.2,829.3 L 675.6,834.2 L 672.9,855.9 L 672.5,859.3 L 671.6,866.5 L 671.4,869.7 L 671.7,872.3 L 672.7,874.7 L 674.4,877.0 L 677.0,878.9 L 688.1,883.8 L 691.4,885.4 L 693.2,886.5 L 694.8,887.9 L 696.2,889.4 L 697.3,891.2 L 697.9,893.8 L 698.0,896.8 L 697.5,899.4 L 696.4,902.1 L 694.6,904.6 L 692.8,906.2 L 690.6,907.8 L 688.5,908.9 L 686.3,909.6 L 684.1,909.9 L 681.4,910.0 L 679.1,909.9 L 676.3,909.6 L 672.2,908.8 L 666.8,907.5 L 659.1,905.1 L 647.1,901.4 L 638.9,898.8 L 632.5,896.2 L 626.4,893.0 L 620.4,889.4 L 613.4,884.5 L 606.3,878.8 L 594.4,869.0 L 583.4,859.5 L 567.4,844.8 L 564.0,841.5 L 562.7,839.6 L 561.9,838.0 L 561.5,835.7 L 561.7,833.1 L 562.4,830.4 L 564.7,823.9 L 565.4,821.5 L 565.9,818.8 L 566.1,816.1 L 565.9,814.0 L 565.6,812.3 L 564.7,810.2 L 563.4,808.3 L 545.6,786.3 L 532.6,769.5 L 530.6,767.1 L 528.4,764.7 L 525.8,762.5 L 522.3,760.1 L 516.1,756.4 L 512.8,753.9 L 509.7,751.2 L 506.5,748.0 L 504.2,745.2 L 501.8,741.3 L 500.0,737.9 L 497.9,733.1 L 496.3,728.6 L 495.1,723.5 L 494.3,718.7 L 493.8,713.6 L 493.6,708.2 L 493.6,701.5 L 494.5,652.5 L 494.4,648.7 L 494.1,646.5 L 493.3,644.3 L 492.5,642.7 L 491.2,640.9 L 489.8,639.5 L 488.4,638.6 L 486.7,637.9 L 484.6,637.3 L 482.3,636.9 L 480.1,637.0 L 477.8,637.3 L 475.2,638.1 L 471.9,639.2 L 469.5,639.8 L 467.2,639.9 L 464.6,639.6 L 461.5,638.9 L 458.8,637.7 L 456.1,636.1 L 453.5,634.1 L 451.1,631.9 L 447.8,628.1 L 445.5,624.7 L 444.1,621.9 L 442.8,619.0 L 441.1,613.9 L 438.6,603.6 L 436.9,593.1 L 436.1,585.5 L 435.0,573.5 L 434.2,559.7 L 432.3,527.0 L 432.0,515.9 L 432.0,507.7 L 432.2,501.5 L 432.3,499.2 L 432.8,488.1 L 433.8,472.0 L 435.0,461.2 L 436.3,451.0 L 437.5,442.4 L 438.8,435.0 L 440.2,427.8 L 441.8,421.4 L 443.8,413.5 L 454.5,375.3 L 458.0,362.5 L 459.0,359.1 L 459.8,357.5 L 461.0,356.3 L 462.5,355.7 L 463.7,355.5 L 464.6,355.3 L 469.2,355.3 L 472.8,355.2 L 475.0,354.8 L 477.9,353.7 L 480.6,352.2 L 483.0,350.5 L 483.9,349.6 L 485.6,347.8 L 487.2,345.7 L 488.6,343.6 L 490.0,341.2 L 491.2,338.9 L 492.9,334.2 L 495.9,325.0 L 498.0,318.1 L 502.0,304.1 L 504.0,296.3 L 506.9,284.2 L 509.6,272.0 L 511.8,260.6 L 514.2,246.8 L 516.3,234.2 L 517.5,228.1 L 518.3,221.6 L 518.7,217.2 L 519.9,206.2 L 520.7,188.2 L 520.8,182.0 L 520.5,169.4 L 520.1,165.0 L 519.6,161.1 L 518.7,155.4 L 517.7,150.7 L 517.6,150.2 L 507.2,101.2 L 506.8,98.7 L 507.0,96.1 L 507.7,94.1 L 508.9,92.2 L 510.6,90.9 L 512.6,90.2 L 514.6,90.0 L 516.7,90.3 L 518.0,91.0 L 519.6,92.1 L 520.7,93.3 L 521.5,94.8 L 522.4,96.8 L 523.9,103.0 L 525.0,109.6 L 525.7,115.8 L 526.1,126.6 L 526.3,129.1 L 526.7,132.5 L 527.2,135.1 L 527.8,137.6 L 529.1,141.7 L 530.9,146.2 L 531.0,146.5 L 532.9,150.7 L 536.8,158.6 L 543.5,172.5 L 546.2,178.2 L 548.4,183.4 L 558.1,208.4 L 574.7,251.7 L 585.3,280.5 L 586.9,284.9 L 588.3,289.5 L 589.3,293.9 L 590.3,298.6 L 590.9,302.0 L 593.3,314.0 L 600.5,349.9 L 611.9,403.6 L 627.1,475.1 L 632.8,502.2 L 635.6,515.8 L 643.4,553.1 Z" fill="none" stroke="#ff5a36" stroke-opacity="0.55" stroke-width="1.2" stroke-linejoin="round" filter="url(#glow)"/>
<circle cx="643.5" cy="553.1" r="13" fill="none" stroke="#ffffff" stroke-width="3"/>
<rect x="639.5" y="531.1" width="8" height="18" fill="#ffffff"/>
<circle cx="650.3" cy="657.4" r="7" fill="#ff5a36" stroke="#0a0c12" stroke-width="2.5" filter="url(#glow)"/>
<text x="650.3" y="660.8" font-size="9" font-weight="700" fill="#0a0c12" text-anchor="middle">1</text>
<circle cx="656.5" cy="686.9" r="7" fill="#ff5a36" stroke="#0a0c12" stroke-width="2.5" filter="url(#glow)"/>
<text x="656.5" y="690.3" font-size="9" font-weight="700" fill="#0a0c12" text-anchor="middle">2</text>
<circle cx="672.4" cy="860.3" r="7" fill="#ff5a36" stroke="#0a0c12" stroke-width="2.5" filter="url(#glow)"/>
<text x="672.4" y="863.7" font-size="9" font-weight="700" fill="#0a0c12" text-anchor="middle">3</text>
<circle cx="678.8" cy="879.7" r="7" fill="#ff5a36" stroke="#0a0c12" stroke-width="2.5" filter="url(#glow)"/>
<text x="678.8" y="883.1" font-size="9" font-weight="700" fill="#0a0c12" text-anchor="middle">4</text>
<circle cx="626.9" cy="893.2" r="7" fill="#ff5a36" stroke="#0a0c12" stroke-width="2.5" filter="url(#glow)"/>
<text x="626.9" y="896.6" font-size="9" font-weight="700" fill="#0a0c12" text-anchor="middle">5</text>
<circle cx="563.1" cy="828.5" r="7" fill="#ff5a36" stroke="#0a0c12" stroke-width="2.5" filter="url(#glow)"/>
<text x="563.1" y="831.9" font-size="9" font-weight="700" fill="#0a0c12" text-anchor="middle">6</text>
<circle cx="560.4" cy="804.6" r="7" fill="#ff5a36" stroke="#0a0c12" stroke-width="2.5" filter="url(#glow)"/>
<text x="560.4" y="808.0" font-size="9" font-weight="700" fill="#0a0c12" text-anchor="middle">7</text>
<circle cx="434.9" cy="572.4" r="7" fill="#ff5a36" stroke="#0a0c12" stroke-width="2.5" filter="url(#glow)"/>
<text x="434.9" y="575.8" font-size="9" font-weight="700" fill="#0a0c12" text-anchor="middle">8</text>
<circle cx="433.9" cy="554.7" r="7" fill="#ff5a36" stroke="#0a0c12" stroke-width="2.5" filter="url(#glow)"/>
<text x="433.9" y="558.1" font-size="9" font-weight="700" fill="#0a0c12" text-anchor="middle">9</text>
<circle cx="502.6" cy="301.5" r="7" fill="#ff5a36" stroke="#0a0c12" stroke-width="2.5" filter="url(#glow)"/>
<text x="502.6" y="304.9" font-size="9" font-weight="700" fill="#0a0c12" text-anchor="middle">10</text>
<circle cx="512.4" cy="257.3" r="7" fill="#ff5a36" stroke="#0a0c12" stroke-width="2.5" filter="url(#glow)"/>
<text x="512.4" y="260.7" font-size="9" font-weight="700" fill="#0a0c12" text-anchor="middle">11</text>
<circle cx="507.5" cy="94.6" r="7" fill="#ff5a36" stroke="#0a0c12" stroke-width="2.5" filter="url(#glow)"/>
<text x="507.5" y="98.0" font-size="9" font-weight="700" fill="#0a0c12" text-anchor="middle">12</text>
<circle cx="603.7" cy="364.9" r="7" fill="#ff5a36" stroke="#0a0c12" stroke-width="2.5" filter="url(#glow)"/>
<text x="603.7" y="368.3" font-size="9" font-weight="700" fill="#0a0c12" text-anchor="middle">13</text>
<circle cx="606.4" cy="377.7" r="7" fill="#ff5a36" stroke="#0a0c12" stroke-width="2.5" filter="url(#glow)"/>
<text x="606.4" y="381.1" font-size="9" font-weight="700" fill="#0a0c12" text-anchor="middle">14</text>
<line x1="650.3" y1="657.4" x2="685.1" y2="696.0" stroke="#ff5a36" stroke-opacity="0.45" stroke-width="1.3"/>
<text x="693.1" y="700.0" font-size="15" font-weight="600" fill="#eef2fb" text-anchor="start">Senna 'S'</text>
<line x1="656.5" y1="686.9" x2="687.9" y2="728.4" stroke="#ff5a36" stroke-opacity="0.45" stroke-width="1.3"/>
<text x="695.9" y="732.4" font-size="15" font-weight="600" fill="#eef2fb" text-anchor="start">Senna 'S'</text>
<line x1="672.4" y1="860.3" x2="691.2" y2="916.5" stroke="#ff5a36" stroke-opacity="0.45" stroke-width="1.3"/>
<text x="699.2" y="920.5" font-size="15" font-weight="600" fill="#eef2fb" text-anchor="start">T3</text>
<line x1="678.8" y1="879.7" x2="697.5" y2="946.5" stroke="#ff5a36" stroke-opacity="0.45" stroke-width="1.3"/>
<text x="705.5" y="950.5" font-size="15" font-weight="600" fill="#eef2fb" text-anchor="start">T4</text>
<line x1="626.9" y1="893.2" x2="638.0" y2="976.5" stroke="#ff5a36" stroke-opacity="0.45" stroke-width="1.3"/>
<text x="646.0" y="980.5" font-size="15" font-weight="600" fill="#eef2fb" text-anchor="start">T5</text>
<line x1="563.1" y1="828.5" x2="565.5" y2="886.5" stroke="#ff5a36" stroke-opacity="0.45" stroke-width="1.3"/>
<text x="573.5" y="890.5" font-size="15" font-weight="600" fill="#eef2fb" text-anchor="start">T6</text>
<line x1="560.4" y1="804.6" x2="562.4" y2="856.5" stroke="#ff5a36" stroke-opacity="0.45" stroke-width="1.3"/>
<text x="570.4" y="860.5" font-size="15" font-weight="600" fill="#eef2fb" text-anchor="start">T7</text>
<line x1="434.9" y1="572.4" x2="384.2" y2="588.3" stroke="#ff5a36" stroke-opacity="0.45" stroke-width="1.3"/>
<text x="376.2" y="592.3" font-size="15" font-weight="600" fill="#eef2fb" text-anchor="end">Pont de la Concorde</text>
<line x1="433.9" y1="554.7" x2="382.0" y2="558.3" stroke="#ff5a36" stroke-opacity="0.45" stroke-width="1.3"/>
<text x="374.0" y="562.3" font-size="15" font-weight="600" fill="#eef2fb" text-anchor="end">T9</text>
<line x1="502.6" y1="301.5" x2="492.6" y2="250.5" stroke="#ff5a36" stroke-opacity="0.45" stroke-width="1.3"/>
<text x="484.6" y="254.5" font-size="15" font-weight="600" fill="#eef2fb" text-anchor="end">The Hairpin</text>
<line x1="512.4" y1="257.3" x2="505.6" y2="205.7" stroke="#ff5a36" stroke-opacity="0.45" stroke-width="1.3"/>
<text x="497.6" y="209.7" font-size="15" font-weight="600" fill="#eef2fb" text-anchor="end">T11</text>
<line x1="507.5" y1="94.6" x2="502.6" y2="162.0" stroke="#ff5a36" stroke-opacity="0.45" stroke-width="1.3"/>
<text x="494.6" y="166.0" font-size="15" font-weight="600" fill="#eef2fb" text-anchor="end">T12</text>
<line x1="603.7" y1="364.9" x2="618.3" y2="315.0" stroke="#ff5a36" stroke-opacity="0.45" stroke-width="1.3"/>
<text x="626.3" y="319.0" font-size="15" font-weight="600" fill="#eef2fb" text-anchor="start">T13</text>
<line x1="606.4" y1="377.7" x2="622.7" y2="345.0" stroke="#ff5a36" stroke-opacity="0.45" stroke-width="1.3"/>
<text x="630.7" y="349.0" font-size="15" font-weight="600" fill="#eef2fb" text-anchor="start">T14</text>
<text x="90" y="64" font-size="20" letter-spacing="5" fill="#ff5a36" font-weight="700">TRACK ATLAS</text>
<text x="90" y="108" font-size="42" font-weight="800" fill="#ffffff">CIRCUIT GILLES VILLENEUVE</text>
<text x="90" y="136" font-size="16" fill="#9aa6bd">Montreal</text>
<rect x="1170" y="200" width="360" height="710" rx="16" fill="#ffffff" fill-opacity="0.04" stroke="#ff5a36" stroke-opacity="0.5"/>
<text x="1198" y="250" font-size="13" letter-spacing="2" fill="#8794ab">LAYOUT</text>
<text x="1198" y="276" font-size="22" font-weight="700" fill="#eef2fb">Grand Prix Circuit</text>
<text x="1198" y="320" font-size="13" letter-spacing="2" fill="#8794ab">LENGTH</text>
<text x="1198" y="346" font-size="22" font-weight="700" fill="#eef2fb">4.361 km</text>
<text x="1198" y="390" font-size="13" letter-spacing="2" fill="#8794ab">CORNERS</text>
<text x="1198" y="416" font-size="22" font-weight="700" fill="#eef2fb">14</text>
<text x="1198" y="460" font-size="13" letter-spacing="2" fill="#8794ab">NAMED CORNERS</text>
<text x="1198" y="486" font-size="22" font-weight="700" fill="#eef2fb">14</text>
<text x="1198" y="530" font-size="13" letter-spacing="2" fill="#8794ab">DIRECTION</text>
<text x="1198" y="556" font-size="22" font-weight="700" fill="#eef2fb">Clockwise</text>
<text x="1198" y="600" font-size="13" letter-spacing="2" fill="#8794ab">SECTORS</text>
<text x="1198" y="626" font-size="22" font-weight="700" fill="#eef2fb">3</text>
<text x="1198" y="670" font-size="13" letter-spacing="2" fill="#8794ab">COUNTRY</text>
<text x="1198" y="696" font-size="22" font-weight="700" fill="#eef2fb">CA</text>
<text x="1198" y="740" font-size="13" letter-spacing="2" fill="#8794ab">LOCATION</text>
<text x="1198" y="766" font-size="22" font-weight="700" fill="#eef2fb">Montreal, Quebec</text>
<text x="90" y="966" font-size="12" fill="#566177">Geometry © OpenStreetMap contributors (ODbL) · corner data: Lovely-Sim-Racing + curated · track-atlas</text>
<text x="90" y="942" font-size="12" fill="#8794ab">⚑ start / finish</text>
</svg>