<svg xmlns="http://www.w3.org/2000/svg" width="1600" height="1000" viewBox="0 0 1600 1000" font-family="Helvetica, Arial, sans-serif">
<defs>
      <radialGradient id="bg" cx="38%" cy="34%" r="85%">
        <stop offset="0%" stop-color="#1b2030"/>
        <stop offset="55%" stop-color="#12151f"/>
        <stop offset="100%" stop-color="#0a0c12"/>
      </radialGradient>
      <linearGradient id="accent" x1="0" y1="0" x2="1" y2="1">
        <stop offset="0%" stop-color="#ff5a36"/>
        <stop offset="100%" stop-color="#ffffff"/>
      </linearGradient>
      <filter id="glow" x="-40%" y="-40%" width="180%" height="180%">
        <feGaussianBlur stdDeviation="6" result="b"/>
        <feMerge><feMergeNode in="b"/><feMergeNode in="SourceGraphic"/></feMerge>
      </filter>
    </defs>
<rect width="1600" height="1000" fill="url(#bg)"/>
<line x1="0" y1="0" x2="0" y2="1000" stroke="#ffffff" stroke-opacity="0.025"/>
<line x1="56" y1="0" x2="56" y2="1000" stroke="#ffffff" stroke-opacity="0.025"/>
<line x1="112" y1="0" x2="112" y2="1000" stroke="#ffffff" stroke-opacity="0.025"/>
<line x1="168" y1="0" x2="168" y2="1000" stroke="#ffffff" stroke-opacity="0.025"/>
<line x1="224" y1="0" x2="224" y2="1000" stroke="#ffffff" stroke-opacity="0.025"/>
<line x1="280" y1="0" x2="280" y2="1000" stroke="#ffffff" stroke-opacity="0.025"/>
<line x1="336" y1="0" x2="336" y2="1000" stroke="#ffffff" stroke-opacity="0.025"/>
<line x1="392" y1="0" x2="392" y2="1000" stroke="#ffffff" stroke-opacity="0.025"/>
<line x1="448" y1="0" x2="448" y2="1000" stroke="#ffffff" stroke-opacity="0.025"/>
<line x1="504" y1="0" x2="504" y2="1000" stroke="#ffffff" stroke-opacity="0.025"/>
<line x1="560" y1="0" x2="560" y2="1000" stroke="#ffffff" stroke-opacity="0.025"/>
<line x1="616" y1="0" x2="616" y2="1000" stroke="#ffffff" stroke-opacity="0.025"/>
<line x1="672" y1="0" x2="672" y2="1000" stroke="#ffffff" stroke-opacity="0.025"/>
<line x1="728" y1="0" x2="728" y2="1000" stroke="#ffffff" stroke-opacity="0.025"/>
<line x1="784" y1="0" x2="784" y2="1000" stroke="#ffffff" stroke-opacity="0.025"/>
<line x1="840" y1="0" x2="840" y2="1000" stroke="#ffffff" stroke-opacity="0.025"/>
<line x1="896" y1="0" x2="896" y2="1000" stroke="#ffffff" stroke-opacity="0.025"/>
<line x1="952" y1="0" x2="952" y2="1000" stroke="#ffffff" stroke-opacity="0.025"/>
<line x1="1008" y1="0" x2="1008" y2="1000" stroke="#ffffff" stroke-opacity="0.025"/>
<line x1="1064" y1="0" x2="1064" y2="1000" stroke="#ffffff" stroke-opacity="0.025"/>
<line x1="1120" y1="0" x2="1120" y2="1000" stroke="#ffffff" stroke-opacity="0.025"/>
<line x1="1176" y1="0" x2="1176" y2="1000" stroke="#ffffff" stroke-opacity="0.025"/>
<line x1="1232" y1="0" x2="1232" y2="1000" stroke="#ffffff" stroke-opacity="0.025"/>
<line x1="1288" y1="0" x2="1288" y2="1000" stroke="#ffffff" stroke-opacity="0.025"/>
<line x1="1344" y1="0" x2="1344" y2="1000" stroke="#ffffff" stroke-opacity="0.025"/>
<line x1="1400" y1="0" x2="1400" y2="1000" stroke="#ffffff" stroke-opacity="0.025"/>
<line x1="1456" y1="0" x2="1456" y2="1000" stroke="#ffffff" stroke-opacity="0.025"/>
<line x1="1512" y1="0" x2="1512" y2="1000" stroke="#ffffff" stroke-opacity="0.025"/>
<line x1="1568" y1="0" x2="1568" y2="1000" stroke="#ffffff" stroke-opacity="0.025"/>
<line x1="0" y1="0" x2="1600" y2="0" stroke="#ffffff" stroke-opacity="0.025"/>
<line x1="0" y1="56" x2="1600" y2="56" stroke="#ffffff" stroke-opacity="0.025"/>
<line x1="0" y1="112" x2="1600" y2="112" stroke="#ffffff" stroke-opacity="0.025"/>
<line x1="0" y1="168" x2="1600" y2="168" stroke="#ffffff" stroke-opacity="0.025"/>
<line x1="0" y1="224" x2="1600" y2="224" stroke="#ffffff" stroke-opacity="0.025"/>
<line x1="0" y1="280" x2="1600" y2="280" stroke="#ffffff" stroke-opacity="0.025"/>
<line x1="0" y1="336" x2="1600" y2="336" stroke="#ffffff" stroke-opacity="0.025"/>
<line x1="0" y1="392" x2="1600" y2="392" stroke="#ffffff" stroke-opacity="0.025"/>
<line x1="0" y1="448" x2="1600" y2="448" stroke="#ffffff" stroke-opacity="0.025"/>
<line x1="0" y1="504" x2="1600" y2="504" stroke="#ffffff" stroke-opacity="0.025"/>
<line x1="0" y1="560" x2="1600" y2="560" stroke="#ffffff" stroke-opacity="0.025"/>
<line x1="0" y1="616" x2="1600" y2="616" stroke="#ffffff" stroke-opacity="0.025"/>
<line x1="0" y1="672" x2="1600" y2="672" stroke="#ffffff" stroke-opacity="0.025"/>
<line x1="0" y1="728" x2="1600" y2="728" stroke="#ffffff" stroke-opacity="0.025"/>
<line x1="0" y1="784" x2="1600" y2="784" stroke="#ffffff" stroke-opacity="0.025"/>
<line x1="0" y1="840" x2="1600" y2="840" stroke="#ffffff" stroke-opacity="0.025"/>
<line x1="0" y1="896" x2="1600" y2="896" stroke="#ffffff" stroke-opacity="0.025"/>
<line x1="0" y1="952" x2="1600" y2="952" stroke="#ffffff" stroke-opacity="0.025"/>
<path d="M 491.2,324.3 C 481.0,275.2 488.9,317.9 494.6,310.3 C 500.2,302.8 517.8,299.8 524.9,279.0 C 532.1,258.3 535.5,206.0 537.4,185.8 C 539.2,165.7 537.0,173.0 536.0,158.3 C 535.0,143.6 535.9,108.8 531.2,97.4 C 526.4,86.0 513.0,88.4 507.3,90.0 C 501.5,91.6 495.6,96.5 496.7,106.9 C 497.9,117.4 510.2,140.9 514.1,152.8 C 518.0,164.7 519.9,168.7 520.2,178.4 C 520.5,188.0 518.6,201.1 515.9,210.8 C 513.2,220.5 509.3,208.8 504.1,236.5 C 498.9,264.2 483.3,334.0 484.9,376.9 C 486.5,419.7 506.5,466.9 513.7,493.5 C 520.9,520.0 525.6,523.3 528.1,536.0 C 530.6,548.6 529.3,560.1 528.7,569.5 C 528.1,578.8 523.1,583.6 524.6,592.1 C 526.2,600.6 537.2,601.3 538.0,620.5 C 538.9,639.8 532.5,682.2 529.7,707.5 C 526.8,732.8 519.4,751.6 521.0,772.4 C 522.7,793.2 527.5,811.7 539.4,832.3 C 551.4,853.0 581.2,883.8 592.8,896.3 C 604.4,908.7 600.2,905.0 608.9,907.3 C 617.6,909.6 642.0,923.5 645.1,910.0 C 648.1,896.5 636.1,859.9 627.2,826.2 C 618.3,792.6 603.4,745.1 591.6,708.2 C 579.7,671.3 572.8,668.8 556.1,604.8 C 539.3,540.8 501.5,373.4 491.2,324.3 Z" fill="none" stroke="#000000" stroke-opacity="0.5" stroke-width="13" stroke-linejoin="round" stroke-linecap="round"/>
<path d="M 491.2,324.3 C 481.0,275.2 488.9,317.9 494.6,310.3 C 500.2,302.8 517.8,299.8 524.9,279.0 C 532.1,258.3 535.5,206.0 537.4,185.8 C 539.2,165.7 537.0,173.0 536.0,158.3 C 535.0,143.6 535.9,108.8 531.2,97.4 C 526.4,86.0 513.0,88.4 507.3,90.0 C 501.5,91.6 495.6,96.5 496.7,106.9 C 497.9,117.4 510.2,140.9 514.1,152.8 C 518.0,164.7 519.9,168.7 520.2,178.4 C 520.5,188.0 518.6,201.1 515.9,210.8 C 513.2,220.5 509.3,208.8 504.1,236.5 C 498.9,264.2 483.3,334.0 484.9,376.9 C 486.5,419.7 506.5,466.9 513.7,493.5 C 520.9,520.0 525.6,523.3 528.1,536.0 C 530.6,548.6 529.3,560.1 528.7,569.5 C 528.1,578.8 523.1,583.6 524.6,592.1 C 526.2,600.6 537.2,601.3 538.0,620.5 C 538.9,639.8 532.5,682.2 529.7,707.5 C 526.8,732.8 519.4,751.6 521.0,772.4 C 522.7,793.2 527.5,811.7 539.4,832.3 C 551.4,853.0 581.2,883.8 592.8,896.3 C 604.4,908.7 600.2,905.0 608.9,907.3 C 617.6,909.6 642.0,923.5 645.1,910.0 C 648.1,896.5 636.1,859.9 627.2,826.2 C 618.3,792.6 603.4,745.1 591.6,708.2 C 579.7,671.3 572.8,668.8 556.1,604.8 C 539.3,540.8 501.5,373.4 491.2,324.3 Z" fill="none" stroke="#39404f" stroke-width="8.5" stroke-linejoin="round" stroke-linecap="round"/>
<path d="M 491.2,324.3 C 481.0,275.2 488.9,317.9 494.6,310.3 C 500.2,302.8 517.8,299.8 524.9,279.0 C 532.1,258.3 535.5,206.0 537.4,185.8 C 539.2,165.7 537.0,173.0 536.0,158.3 C 535.0,143.6 535.9,108.8 531.2,97.4 C 526.4,86.0 513.0,88.4 507.3,90.0 C 501.5,91.6 495.6,96.5 496.7,106.9 C 497.9,117.4 510.2,140.9 514.1,152.8 C 518.0,164.7 519.9,168.7 520.2,178.4 C 520.5,188.0 518.6,201.1 515.9,210.8 C 513.2,220.5 509.3,208.8 504.1,236.5 C 498.9,264.2 483.3,334.0 484.9,376.9 C 486.5,419.7 506.5,466.9 513.7,493.5 C 520.9,520.0 525.6,523.3 528.1,536.0 C 530.6,548.6 529.3,560.1 528.7,569.5 C 528.1,578.8 523.1,583.6 524.6,592.1 C 526.2,600.6 537.2,601.3 538.0,620.5 C 538.9,639.8 532.5,682.2 529.7,707.5 C 526.8,732.8 519.4,751.6 521.0,772.4 C 522.7,793.2 527.5,811.7 539.4,832.3 C 551.4,853.0 581.2,883.8 592.8,896.3 C 604.4,908.7 600.2,905.0 608.9,907.3 C 617.6,909.6 642.0,923.5 645.1,910.0 C 648.1,896.5 636.1,859.9 627.2,826.2 C 618.3,792.6 603.4,745.1 591.6,708.2 C 579.7,671.3 572.8,668.8 556.1,604.8 C 539.3,540.8 501.5,373.4 491.2,324.3 Z" fill="none" stroke="#e7edf8" stroke-width="2.6" stroke-linejoin="round" stroke-linecap="round"/>
<path d="M 491.2,324.3 C 481.0,275.2 488.9,317.9 494.6,310.3 C 500.2,302.8 517.8,299.8 524.9,279.0 C 532.1,258.3 535.5,206.0 537.4,185.8 C 539.2,165.7 537.0,173.0 536.0,158.3 C 535.0,143.6 535.9,108.8 531.2,97.4 C 526.4,86.0 513.0,88.4 507.3,90.0 C 501.5,91.6 495.6,96.5 496.7,106.9 C 497.9,117.4 510.2,140.9 514.1,152.8 C 518.0,164.7 519.9,168.7 520.2,178.4 C 520.5,188.0 518.6,201.1 515.9,210.8 C 513.2,220.5 509.3,208.8 504.1,236.5 C 498.9,264.2 483.3,334.0 484.9,376.9 C 486.5,419.7 506.5,466.9 513.7,493.5 C 520.9,520.0 525.6,523.3 528.1,536.0 C 530.6,548.6 529.3,560.1 528.7,569.5 C 528.1,578.8 523.1,583.6 524.6,592.1 C 526.2,600.6 537.2,601.3 538.0,620.5 C 538.9,639.8 532.5,682.2 529.7,707.5 C 526.8,732.8 519.4,751.6 521.0,772.4 C 522.7,793.2 527.5,811.7 539.4,832.3 C 551.4,853.0 581.2,883.8 592.8,896.3 C 604.4,908.7 600.2,905.0 608.9,907.3 C 617.6,909.6 642.0,923.5 645.1,910.0 C 648.1,896.5 636.1,859.9 627.2,826.2 C 618.3,792.6 603.4,745.1 591.6,708.2 C 579.7,671.3 572.8,668.8 556.1,604.8 C 539.3,540.8 501.5,373.4 491.2,324.3 Z" fill="none" stroke="#ff5a36" stroke-opacity="0.55" stroke-width="1.2" stroke-linejoin="round" filter="url(#glow)"/>
<circle cx="516.6" cy="462.6" r="13" fill="none" stroke="#ffffff" stroke-width="3"/>
<rect x="512.6" y="440.6" width="8" height="18" fill="#ffffff"/>
<circle cx="491.2" cy="324.3" r="7" fill="#ff5a36" stroke="#0a0c12" stroke-width="2.5" filter="url(#glow)"/>
<text x="491.2" y="327.7" font-size="9" font-weight="700" fill="#0a0c12" text-anchor="middle">1</text>
<circle cx="494.6" cy="310.3" r="7" fill="#ff5a36" stroke="#0a0c12" stroke-width="2.5" filter="url(#glow)"/>
<text x="494.6" y="313.7" font-size="9" font-weight="700" fill="#0a0c12" text-anchor="middle">2</text>
<circle cx="524.9" cy="279.0" r="7" fill="#ff5a36" stroke="#0a0c12" stroke-width="2.5" filter="url(#glow)"/>
<text x="524.9" y="282.4" font-size="9" font-weight="700" fill="#0a0c12" text-anchor="middle">3</text>
<circle cx="537.4" cy="185.8" r="7" fill="#ff5a36" stroke="#0a0c12" stroke-width="2.5" filter="url(#glow)"/>
<text x="537.4" y="189.2" font-size="9" font-weight="700" fill="#0a0c12" text-anchor="middle">4</text>
<circle cx="536.0" cy="158.3" r="7" fill="#ff5a36" stroke="#0a0c12" stroke-width="2.5" filter="url(#glow)"/>
<text x="536.0" y="161.7" font-size="9" font-weight="700" fill="#0a0c12" text-anchor="middle">5</text>
<circle cx="531.2" cy="97.4" r="7" fill="#ff5a36" stroke="#0a0c12" stroke-width="2.5" filter="url(#glow)"/>
<text x="531.2" y="100.8" font-size="9" font-weight="700" fill="#0a0c12" text-anchor="middle">6</text>
<circle cx="507.3" cy="90.0" r="7" fill="#ff5a36" stroke="#0a0c12" stroke-width="2.5" filter="url(#glow)"/>
<text x="507.3" y="93.4" font-size="9" font-weight="700" fill="#0a0c12" text-anchor="middle">7</text>
<circle cx="496.7" cy="106.9" r="7" fill="#ff5a36" stroke="#0a0c12" stroke-width="2.5" filter="url(#glow)"/>
<text x="496.7" y="110.3" font-size="9" font-weight="700" fill="#0a0c12" text-anchor="middle">8</text>
<circle cx="514.1" cy="152.8" r="7" fill="#ff5a36" stroke="#0a0c12" stroke-width="2.5" filter="url(#glow)"/>
<text x="514.1" y="156.2" font-size="9" font-weight="700" fill="#0a0c12" text-anchor="middle">9</text>
<circle cx="520.2" cy="178.4" r="7" fill="#ff5a36" stroke="#0a0c12" stroke-width="2.5" filter="url(#glow)"/>
<text x="520.2" y="181.8" font-size="9" font-weight="700" fill="#0a0c12" text-anchor="middle">10</text>
<circle cx="515.9" cy="210.8" r="7" fill="#ff5a36" stroke="#0a0c12" stroke-width="2.5" filter="url(#glow)"/>
<text x="515.9" y="214.2" font-size="9" font-weight="700" fill="#0a0c12" text-anchor="middle">11</text>
<circle cx="504.1" cy="236.5" r="7" fill="#ff5a36" stroke="#0a0c12" stroke-width="2.5" filter="url(#glow)"/>
<text x="504.1" y="239.9" font-size="9" font-weight="700" fill="#0a0c12" text-anchor="middle">12</text>
<circle cx="484.9" cy="376.9" r="7" fill="#ff5a36" stroke="#0a0c12" stroke-width="2.5" filter="url(#glow)"/>
<text x="484.9" y="380.3" font-size="9" font-weight="700" fill="#0a0c12" text-anchor="middle">13</text>
<circle cx="513.7" cy="493.5" r="7" fill="#ff5a36" stroke="#0a0c12" stroke-width="2.5" filter="url(#glow)"/>
<text x="513.7" y="496.9" font-size="9" font-weight="700" fill="#0a0c12" text-anchor="middle">14</text>
<circle cx="528.1" cy="536.0" r="7" fill="#ff5a36" stroke="#0a0c12" stroke-width="2.5" filter="url(#glow)"/>
<text x="528.1" y="539.4" font-size="9" font-weight="700" fill="#0a0c12" text-anchor="middle">15</text>
<circle cx="528.7" cy="569.5" r="7" fill="#ff5a36" stroke="#0a0c12" stroke-width="2.5" filter="url(#glow)"/>
<text x="528.7" y="572.9" font-size="9" font-weight="700" fill="#0a0c12" text-anchor="middle">16</text>
<circle cx="524.6" cy="592.1" r="7" fill="#ff5a36" stroke="#0a0c12" stroke-width="2.5" filter="url(#glow)"/>
<text x="524.6" y="595.5" font-size="9" font-weight="700" fill="#0a0c12" text-anchor="middle">17</text>
<circle cx="538.0" cy="620.5" r="7" fill="#ff5a36" stroke="#0a0c12" stroke-width="2.5" filter="url(#glow)"/>
<text x="538.0" y="623.9" font-size="9" font-weight="700" fill="#0a0c12" text-anchor="middle">18</text>
<circle cx="529.7" cy="707.5" r="7" fill="#ff5a36" stroke="#0a0c12" stroke-width="2.5" filter="url(#glow)"/>
<text x="529.7" y="710.9" font-size="9" font-weight="700" fill="#0a0c12" text-anchor="middle">19</text>
<circle cx="521.0" cy="772.4" r="7" fill="#ff5a36" stroke="#0a0c12" stroke-width="2.5" filter="url(#glow)"/>
<text x="521.0" y="775.8" font-size="9" font-weight="700" fill="#0a0c12" text-anchor="middle">20</text>
<circle cx="539.4" cy="832.3" r="7" fill="#ff5a36" stroke="#0a0c12" stroke-width="2.5" filter="url(#glow)"/>
<text x="539.4" y="835.7" font-size="9" font-weight="700" fill="#0a0c12" text-anchor="middle">21</text>
<circle cx="592.8" cy="896.3" r="7" fill="#ff5a36" stroke="#0a0c12" stroke-width="2.5" filter="url(#glow)"/>
<text x="592.8" y="899.7" font-size="9" font-weight="700" fill="#0a0c12" text-anchor="middle">22</text>
<circle cx="608.9" cy="907.3" r="7" fill="#ff5a36" stroke="#0a0c12" stroke-width="2.5" filter="url(#glow)"/>
<text x="608.9" y="910.7" font-size="9" font-weight="700" fill="#0a0c12" text-anchor="middle">23</text>
<circle cx="645.1" cy="910.0" r="7" fill="#ff5a36" stroke="#0a0c12" stroke-width="2.5" filter="url(#glow)"/>
<text x="645.1" y="913.4" font-size="9" font-weight="700" fill="#0a0c12" text-anchor="middle">24</text>
<circle cx="627.2" cy="826.2" r="7" fill="#ff5a36" stroke="#0a0c12" stroke-width="2.5" filter="url(#glow)"/>
<text x="627.2" y="829.6" font-size="9" font-weight="700" fill="#0a0c12" text-anchor="middle">25</text>
<circle cx="591.6" cy="708.2" r="7" fill="#ff5a36" stroke="#0a0c12" stroke-width="2.5" filter="url(#glow)"/>
<text x="591.6" y="711.6" font-size="9" font-weight="700" fill="#0a0c12" text-anchor="middle">26</text>
<circle cx="556.1" cy="604.8" r="7" fill="#ff5a36" stroke="#0a0c12" stroke-width="2.5" filter="url(#glow)"/>
<text x="556.1" y="608.2" font-size="9" font-weight="700" fill="#0a0c12" text-anchor="middle">27</text>
<line x1="491.2" y1="324.3" x2="475.6" y2="462.0" stroke="#ff5a36" stroke-opacity="0.45" stroke-width="1.3"/>
<text x="467.6" y="466.0" font-size="15" font-weight="600" fill="#eef2fb" text-anchor="end">Turn 1</text>
<line x1="494.6" y1="310.3" x2="481.1" y2="432.0" stroke="#ff5a36" stroke-opacity="0.45" stroke-width="1.3"/>
<text x="473.1" y="436.0" font-size="15" font-weight="600" fill="#eef2fb" text-anchor="end">Turn 2</text>
<line x1="524.9" y1="279.0" x2="521.6" y2="402.0" stroke="#ff5a36" stroke-opacity="0.45" stroke-width="1.3"/>
<text x="513.6" y="406.0" font-size="15" font-weight="600" fill="#eef2fb" text-anchor="end">Turn 3</text>
<line x1="537.4" y1="185.8" x2="537.4" y2="133.8" stroke="#ff5a36" stroke-opacity="0.45" stroke-width="1.3"/>
<text x="545.4" y="137.8" font-size="15" font-weight="600" fill="#eef2fb" text-anchor="start">Turn 4</text>
<line x1="536.0" y1="158.3" x2="535.8" y2="282.0" stroke="#ff5a36" stroke-opacity="0.45" stroke-width="1.3"/>
<text x="527.8" y="286.0" font-size="15" font-weight="600" fill="#eef2fb" text-anchor="end">Turn 5</text>
<line x1="531.2" y1="97.4" x2="530.3" y2="192.0" stroke="#ff5a36" stroke-opacity="0.45" stroke-width="1.3"/>
<text x="522.3" y="196.0" font-size="15" font-weight="600" fill="#eef2fb" text-anchor="end">Turn 6</text>
<line x1="507.3" y1="90.0" x2="503.2" y2="162.0" stroke="#ff5a36" stroke-opacity="0.45" stroke-width="1.3"/>
<text x="495.2" y="166.0" font-size="15" font-weight="600" fill="#eef2fb" text-anchor="end">Turn 7</text>
<line x1="496.7" y1="106.9" x2="491.0" y2="222.0" stroke="#ff5a36" stroke-opacity="0.45" stroke-width="1.3"/>
<text x="483.0" y="226.0" font-size="15" font-weight="600" fill="#eef2fb" text-anchor="end">Turn 8</text>
<line x1="514.1" y1="152.8" x2="510.3" y2="252.0" stroke="#ff5a36" stroke-opacity="0.45" stroke-width="1.3"/>
<text x="502.3" y="256.0" font-size="15" font-weight="600" fill="#eef2fb" text-anchor="end">Turn 9</text>
<line x1="520.2" y1="178.4" x2="517.2" y2="312.0" stroke="#ff5a36" stroke-opacity="0.45" stroke-width="1.3"/>
<text x="509.2" y="316.0" font-size="15" font-weight="600" fill="#eef2fb" text-anchor="end">Turn 10</text>
<line x1="515.9" y1="210.8" x2="511.6" y2="342.0" stroke="#ff5a36" stroke-opacity="0.45" stroke-width="1.3"/>
<text x="503.6" y="346.0" font-size="15" font-weight="600" fill="#eef2fb" text-anchor="end">Turn 11</text>
<line x1="504.1" y1="236.5" x2="496.8" y2="372.0" stroke="#ff5a36" stroke-opacity="0.45" stroke-width="1.3"/>
<text x="488.8" y="376.0" font-size="15" font-weight="600" fill="#eef2fb" text-anchor="end">Turn 12</text>
<line x1="484.9" y1="376.9" x2="459.4" y2="492.0" stroke="#ff5a36" stroke-opacity="0.45" stroke-width="1.3"/>
<text x="451.4" y="496.0" font-size="15" font-weight="600" fill="#eef2fb" text-anchor="end">Turn 13</text>
<line x1="513.7" y1="493.5" x2="477.1" y2="530.4" stroke="#ff5a36" stroke-opacity="0.45" stroke-width="1.3"/>
<text x="469.1" y="534.4" font-size="15" font-weight="600" fill="#eef2fb" text-anchor="end">Turn 14</text>
<line x1="528.1" y1="536.0" x2="521.0" y2="587.5" stroke="#ff5a36" stroke-opacity="0.45" stroke-width="1.3"/>
<text x="513.0" y="591.5" font-size="15" font-weight="600" fill="#eef2fb" text-anchor="end">Turn 15</text>
<line x1="528.7" y1="569.5" x2="524.3" y2="621.3" stroke="#ff5a36" stroke-opacity="0.45" stroke-width="1.3"/>
<text x="516.3" y="625.3" font-size="15" font-weight="600" fill="#eef2fb" text-anchor="end">Turn 16</text>
<line x1="524.6" y1="592.1" x2="519.3" y2="651.3" stroke="#ff5a36" stroke-opacity="0.45" stroke-width="1.3"/>
<text x="511.3" y="655.3" font-size="15" font-weight="600" fill="#eef2fb" text-anchor="end">Turn 17</text>
<line x1="538.0" y1="620.5" x2="538.3" y2="686.3" stroke="#ff5a36" stroke-opacity="0.45" stroke-width="1.3"/>
<text x="546.3" y="690.3" font-size="15" font-weight="600" fill="#eef2fb" text-anchor="start">Turn 18</text>
<line x1="529.7" y1="707.5" x2="528.0" y2="759.5" stroke="#ff5a36" stroke-opacity="0.45" stroke-width="1.3"/>
<text x="520.0" y="763.5" font-size="15" font-weight="600" fill="#eef2fb" text-anchor="end">Turn 19</text>
<line x1="521.0" y1="772.4" x2="518.3" y2="824.3" stroke="#ff5a36" stroke-opacity="0.45" stroke-width="1.3"/>
<text x="510.3" y="828.3" font-size="15" font-weight="600" fill="#eef2fb" text-anchor="end">Turn 20</text>
<line x1="539.4" y1="832.3" x2="539.7" y2="906.6" stroke="#ff5a36" stroke-opacity="0.45" stroke-width="1.3"/>
<text x="547.7" y="910.6" font-size="15" font-weight="600" fill="#eef2fb" text-anchor="start">Turn 21</text>
<line x1="592.8" y1="896.3" x2="599.5" y2="947.8" stroke="#ff5a36" stroke-opacity="0.45" stroke-width="1.3"/>
<text x="607.5" y="951.8" font-size="15" font-weight="600" fill="#eef2fb" text-anchor="start">Turn 22</text>
<line x1="608.9" y1="907.3" x2="617.3" y2="977.8" stroke="#ff5a36" stroke-opacity="0.45" stroke-width="1.3"/>
<text x="625.3" y="981.8" font-size="15" font-weight="600" fill="#eef2fb" text-anchor="start">Turn 23</text>
<line x1="645.1" y1="910.0" x2="657.5" y2="1007.8" stroke="#ff5a36" stroke-opacity="0.45" stroke-width="1.3"/>
<text x="665.5" y="1011.8" font-size="15" font-weight="600" fill="#eef2fb" text-anchor="start">Turn 24</text>
<line x1="627.2" y1="826.2" x2="639.9" y2="876.6" stroke="#ff5a36" stroke-opacity="0.45" stroke-width="1.3"/>
<text x="647.9" y="880.6" font-size="15" font-weight="600" fill="#eef2fb" text-anchor="start">Turn 25</text>
<line x1="591.6" y1="708.2" x2="603.2" y2="758.9" stroke="#ff5a36" stroke-opacity="0.45" stroke-width="1.3"/>
<text x="611.2" y="762.9" font-size="15" font-weight="600" fill="#eef2fb" text-anchor="start">Turn 26</text>
<line x1="556.1" y1="604.8" x2="563.3" y2="656.3" stroke="#ff5a36" stroke-opacity="0.45" stroke-width="1.3"/>
<text x="571.3" y="660.3" font-size="15" font-weight="600" fill="#eef2fb" text-anchor="start">Turn 27</text>
<text x="90" y="64" font-size="20" letter-spacing="5" fill="#ff5a36" font-weight="700">TRACK ATLAS</text>
<text x="90" y="108" font-size="42" font-weight="800" fill="#ffffff">JEDDAH CORNICHE CIRCUIT</text>
<text x="90" y="136" font-size="16" fill="#9aa6bd">Jeddah</text>
<rect x="1170" y="200" width="360" height="710" rx="16" fill="#ffffff" fill-opacity="0.04" stroke="#ff5a36" stroke-opacity="0.5"/>
<text x="1198" y="250" font-size="13" letter-spacing="2" fill="#8794ab">LAYOUT</text>
<text x="1198" y="276" font-size="22" font-weight="700" fill="#eef2fb">Grand Prix Circuit</text>
<text x="1198" y="320" font-size="13" letter-spacing="2" fill="#8794ab">LENGTH</text>
<text x="1198" y="346" font-size="22" font-weight="700" fill="#eef2fb">6.174 km</text>
<text x="1198" y="390" font-size="13" letter-spacing="2" fill="#8794ab">CORNERS</text>
<text x="1198" y="416" font-size="22" font-weight="700" fill="#eef2fb">27</text>
<text x="1198" y="460" font-size="13" letter-spacing="2" fill="#8794ab">NAMED CORNERS</text>
<text x="1198" y="486" font-size="22" font-weight="700" fill="#eef2fb">27</text>
<text x="1198" y="530" font-size="13" letter-spacing="2" fill="#8794ab">DIRECTION</text>
<text x="1198" y="556" font-size="22" font-weight="700" fill="#eef2fb">Anticlockwise</text>
<text x="1198" y="600" font-size="13" letter-spacing="2" fill="#8794ab">SECTORS</text>
<text x="1198" y="626" font-size="22" font-weight="700" fill="#eef2fb">3</text>
<text x="1198" y="670" font-size="13" letter-spacing="2" fill="#8794ab">COUNTRY</text>
<text x="1198" y="696" font-size="22" font-weight="700" fill="#eef2fb">SA</text>
<text x="1198" y="740" font-size="13" letter-spacing="2" fill="#8794ab">LOCATION</text>
<text x="1198" y="766" font-size="22" font-weight="700" fill="#eef2fb">Jeddah</text>
<text x="90" y="966" font-size="12" fill="#566177">Geometry © OpenStreetMap contributors (ODbL) · corner data: Lovely-Sim-Racing + curated · track-atlas</text>
<text x="90" y="942" font-size="12" fill="#8794ab">⚑ start / finish</text>
</svg>