<svg xmlns="http://www.w3.org/2000/svg" width="1600" height="1000" viewBox="0 0 1600 1000" font-family="Helvetica, Arial, sans-serif">
<defs>
      <radialGradient id="bg" cx="38%" cy="34%" r="85%">
        <stop offset="0%" stop-color="#1b2030"/>
        <stop offset="55%" stop-color="#12151f"/>
        <stop offset="100%" stop-color="#0a0c12"/>
      </radialGradient>
      <linearGradient id="accent" x1="0" y1="0" x2="1" y2="1">
        <stop offset="0%" stop-color="#ff5a36"/>
        <stop offset="100%" stop-color="#ffffff"/>
      </linearGradient>
      <filter id="glow" x="-40%" y="-40%" width="180%" height="180%">
        <feGaussianBlur stdDeviation="6" result="b"/>
        <feMerge><feMergeNode in="b"/><feMergeNode in="SourceGraphic"/></feMerge>
      </filter>
    </defs>
<rect width="1600" height="1000" fill="url(#bg)"/>
<line x1="0" y1="0" x2="0" y2="1000" stroke="#ffffff" stroke-opacity="0.025"/>
<line x1="56" y1="0" x2="56" y2="1000" stroke="#ffffff" stroke-opacity="0.025"/>
<line x1="112" y1="0" x2="112" y2="1000" stroke="#ffffff" stroke-opacity="0.025"/>
<line x1="168" y1="0" x2="168" y2="1000" stroke="#ffffff" stroke-opacity="0.025"/>
<line x1="224" y1="0" x2="224" y2="1000" stroke="#ffffff" stroke-opacity="0.025"/>
<line x1="280" y1="0" x2="280" y2="1000" stroke="#ffffff" stroke-opacity="0.025"/>
<line x1="336" y1="0" x2="336" y2="1000" stroke="#ffffff" stroke-opacity="0.025"/>
<line x1="392" y1="0" x2="392" y2="1000" stroke="#ffffff" stroke-opacity="0.025"/>
<line x1="448" y1="0" x2="448" y2="1000" stroke="#ffffff" stroke-opacity="0.025"/>
<line x1="504" y1="0" x2="504" y2="1000" stroke="#ffffff" stroke-opacity="0.025"/>
<line x1="560" y1="0" x2="560" y2="1000" stroke="#ffffff" stroke-opacity="0.025"/>
<line x1="616" y1="0" x2="616" y2="1000" stroke="#ffffff" stroke-opacity="0.025"/>
<line x1="672" y1="0" x2="672" y2="1000" stroke="#ffffff" stroke-opacity="0.025"/>
<line x1="728" y1="0" x2="728" y2="1000" stroke="#ffffff" stroke-opacity="0.025"/>
<line x1="784" y1="0" x2="784" y2="1000" stroke="#ffffff" stroke-opacity="0.025"/>
<line x1="840" y1="0" x2="840" y2="1000" stroke="#ffffff" stroke-opacity="0.025"/>
<line x1="896" y1="0" x2="896" y2="1000" stroke="#ffffff" stroke-opacity="0.025"/>
<line x1="952" y1="0" x2="952" y2="1000" stroke="#ffffff" stroke-opacity="0.025"/>
<line x1="1008" y1="0" x2="1008" y2="1000" stroke="#ffffff" stroke-opacity="0.025"/>
<line x1="1064" y1="0" x2="1064" y2="1000" stroke="#ffffff" stroke-opacity="0.025"/>
<line x1="1120" y1="0" x2="1120" y2="1000" stroke="#ffffff" stroke-opacity="0.025"/>
<line x1="1176" y1="0" x2="1176" y2="1000" stroke="#ffffff" stroke-opacity="0.025"/>
<line x1="1232" y1="0" x2="1232" y2="1000" stroke="#ffffff" stroke-opacity="0.025"/>
<line x1="1288" y1="0" x2="1288" y2="1000" stroke="#ffffff" stroke-opacity="0.025"/>
<line x1="1344" y1="0" x2="1344" y2="1000" stroke="#ffffff" stroke-opacity="0.025"/>
<line x1="1400" y1="0" x2="1400" y2="1000" stroke="#ffffff" stroke-opacity="0.025"/>
<line x1="1456" y1="0" x2="1456" y2="1000" stroke="#ffffff" stroke-opacity="0.025"/>
<line x1="1512" y1="0" x2="1512" y2="1000" stroke="#ffffff" stroke-opacity="0.025"/>
<line x1="1568" y1="0" x2="1568" y2="1000" stroke="#ffffff" stroke-opacity="0.025"/>
<line x1="0" y1="0" x2="1600" y2="0" stroke="#ffffff" stroke-opacity="0.025"/>
<line x1="0" y1="56" x2="1600" y2="56" stroke="#ffffff" stroke-opacity="0.025"/>
<line x1="0" y1="112" x2="1600" y2="112" stroke="#ffffff" stroke-opacity="0.025"/>
<line x1="0" y1="168" x2="1600" y2="168" stroke="#ffffff" stroke-opacity="0.025"/>
<line x1="0" y1="224" x2="1600" y2="224" stroke="#ffffff" stroke-opacity="0.025"/>
<line x1="0" y1="280" x2="1600" y2="280" stroke="#ffffff" stroke-opacity="0.025"/>
<line x1="0" y1="336" x2="1600" y2="336" stroke="#ffffff" stroke-opacity="0.025"/>
<line x1="0" y1="392" x2="1600" y2="392" stroke="#ffffff" stroke-opacity="0.025"/>
<line x1="0" y1="448" x2="1600" y2="448" stroke="#ffffff" stroke-opacity="0.025"/>
<line x1="0" y1="504" x2="1600" y2="504" stroke="#ffffff" stroke-opacity="0.025"/>
<line x1="0" y1="560" x2="1600" y2="560" stroke="#ffffff" stroke-opacity="0.025"/>
<line x1="0" y1="616" x2="1600" y2="616" stroke="#ffffff" stroke-opacity="0.025"/>
<line x1="0" y1="672" x2="1600" y2="672" stroke="#ffffff" stroke-opacity="0.025"/>
<line x1="0" y1="728" x2="1600" y2="728" stroke="#ffffff" stroke-opacity="0.025"/>
<line x1="0" y1="784" x2="1600" y2="784" stroke="#ffffff" stroke-opacity="0.025"/>
<line x1="0" y1="840" x2="1600" y2="840" stroke="#ffffff" stroke-opacity="0.025"/>
<line x1="0" y1="896" x2="1600" y2="896" stroke="#ffffff" stroke-opacity="0.025"/>
<line x1="0" y1="952" x2="1600" y2="952" stroke="#ffffff" stroke-opacity="0.025"/>
<path d="M 362.2,860.2 C 412.1,895.5 371.2,861.2 389.1,853.0 C 407.1,844.8 439.0,843.6 470.0,810.9 C 501.0,778.3 553.1,690.6 575.1,657.3 C 597.1,623.9 588.4,636.5 602.1,610.9 C 615.8,585.3 644.3,529.7 657.3,503.6 C 670.3,477.5 673.7,468.8 680.2,454.3 C 686.7,439.8 685.8,437.4 696.4,416.6 C 706.9,395.9 728.9,349.2 743.5,329.7 C 758.1,310.1 766.7,304.8 784.0,299.2 C 801.3,293.7 829.8,291.3 847.3,296.3 C 864.8,301.4 898.7,275.1 889.1,329.7 C 879.4,384.3 776.6,571.8 789.4,623.9 C 802.2,676.1 932.9,653.9 965.9,642.8 C 998.9,631.7 981.8,582.4 987.4,557.3 C 993.1,532.1 996.2,510.1 999.6,492.0 C 1002.9,473.9 1004.1,467.1 1007.7,448.5 C 1011.3,429.9 1015.7,421.7 1021.1,380.4 C 1026.5,339.1 1054.8,240.8 1040.0,200.7 C 1025.2,160.5 970.4,145.6 932.2,139.8 C 894.0,134.0 855.4,149.4 810.9,165.9 C 766.5,182.3 693.9,221.7 665.4,238.3 C 636.9,255.0 649.7,247.0 639.8,265.9 C 629.9,284.7 625.9,313.5 606.1,351.4 C 586.3,389.3 572.6,455.3 521.2,493.5 C 469.8,531.6 369.4,555.8 297.5,580.5 C 225.7,605.1 79.2,594.7 90.0,641.3 C 100.8,688.0 312.3,825.0 362.2,860.2 Z" fill="none" stroke="#000000" stroke-opacity="0.5" stroke-width="13" stroke-linejoin="round" stroke-linecap="round"/>
<path d="M 362.2,860.2 C 412.1,895.5 371.2,861.2 389.1,853.0 C 407.1,844.8 439.0,843.6 470.0,810.9 C 501.0,778.3 553.1,690.6 575.1,657.3 C 597.1,623.9 588.4,636.5 602.1,610.9 C 615.8,585.3 644.3,529.7 657.3,503.6 C 670.3,477.5 673.7,468.8 680.2,454.3 C 686.7,439.8 685.8,437.4 696.4,416.6 C 706.9,395.9 728.9,349.2 743.5,329.7 C 758.1,310.1 766.7,304.8 784.0,299.2 C 801.3,293.7 829.8,291.3 847.3,296.3 C 864.8,301.4 898.7,275.1 889.1,329.7 C 879.4,384.3 776.6,571.8 789.4,623.9 C 802.2,676.1 932.9,653.9 965.9,642.8 C 998.9,631.7 981.8,582.4 987.4,557.3 C 993.1,532.1 996.2,510.1 999.6,492.0 C 1002.9,473.9 1004.1,467.1 1007.7,448.5 C 1011.3,429.9 1015.7,421.7 1021.1,380.4 C 1026.5,339.1 1054.8,240.8 1040.0,200.7 C 1025.2,160.5 970.4,145.6 932.2,139.8 C 894.0,134.0 855.4,149.4 810.9,165.9 C 766.5,182.3 693.9,221.7 665.4,238.3 C 636.9,255.0 649.7,247.0 639.8,265.9 C 629.9,284.7 625.9,313.5 606.1,351.4 C 586.3,389.3 572.6,455.3 521.2,493.5 C 469.8,531.6 369.4,555.8 297.5,580.5 C 225.7,605.1 79.2,594.7 90.0,641.3 C 100.8,688.0 312.3,825.0 362.2,860.2 Z" fill="none" stroke="#39404f" stroke-width="8.5" stroke-linejoin="round" stroke-linecap="round"/>
<path d="M 362.2,860.2 C 412.1,895.5 371.2,861.2 389.1,853.0 C 407.1,844.8 439.0,843.6 470.0,810.9 C 501.0,778.3 553.1,690.6 575.1,657.3 C 597.1,623.9 588.4,636.5 602.1,610.9 C 615.8,585.3 644.3,529.7 657.3,503.6 C 670.3,477.5 673.7,468.8 680.2,454.3 C 686.7,439.8 685.8,437.4 696.4,416.6 C 706.9,395.9 728.9,349.2 743.5,329.7 C 758.1,310.1 766.7,304.8 784.0,299.2 C 801.3,293.7 829.8,291.3 847.3,296.3 C 864.8,301.4 898.7,275.1 889.1,329.7 C 879.4,384.3 776.6,571.8 789.4,623.9 C 802.2,676.1 932.9,653.9 965.9,642.8 C 998.9,631.7 981.8,582.4 987.4,557.3 C 993.1,532.1 996.2,510.1 999.6,492.0 C 1002.9,473.9 1004.1,467.1 1007.7,448.5 C 1011.3,429.9 1015.7,421.7 1021.1,380.4 C 1026.5,339.1 1054.8,240.8 1040.0,200.7 C 1025.2,160.5 970.4,145.6 932.2,139.8 C 894.0,134.0 855.4,149.4 810.9,165.9 C 766.5,182.3 693.9,221.7 665.4,238.3 C 636.9,255.0 649.7,247.0 639.8,265.9 C 629.9,284.7 625.9,313.5 606.1,351.4 C 586.3,389.3 572.6,455.3 521.2,493.5 C 469.8,531.6 369.4,555.8 297.5,580.5 C 225.7,605.1 79.2,594.7 90.0,641.3 C 100.8,688.0 312.3,825.0 362.2,860.2 Z" fill="none" stroke="#e7edf8" stroke-width="2.6" stroke-linejoin="round" stroke-linecap="round"/>
<path d="M 362.2,860.2 C 412.1,895.5 371.2,861.2 389.1,853.0 C 407.1,844.8 439.0,843.6 470.0,810.9 C 501.0,778.3 553.1,690.6 575.1,657.3 C 597.1,623.9 588.4,636.5 602.1,610.9 C 615.8,585.3 644.3,529.7 657.3,503.6 C 670.3,477.5 673.7,468.8 680.2,454.3 C 686.7,439.8 685.8,437.4 696.4,416.6 C 706.9,395.9 728.9,349.2 743.5,329.7 C 758.1,310.1 766.7,304.8 784.0,299.2 C 801.3,293.7 829.8,291.3 847.3,296.3 C 864.8,301.4 898.7,275.1 889.1,329.7 C 879.4,384.3 776.6,571.8 789.4,623.9 C 802.2,676.1 932.9,653.9 965.9,642.8 C 998.9,631.7 981.8,582.4 987.4,557.3 C 993.1,532.1 996.2,510.1 999.6,492.0 C 1002.9,473.9 1004.1,467.1 1007.7,448.5 C 1011.3,429.9 1015.7,421.7 1021.1,380.4 C 1026.5,339.1 1054.8,240.8 1040.0,200.7 C 1025.2,160.5 970.4,145.6 932.2,139.8 C 894.0,134.0 855.4,149.4 810.9,165.9 C 766.5,182.3 693.9,221.7 665.4,238.3 C 636.9,255.0 649.7,247.0 639.8,265.9 C 629.9,284.7 625.9,313.5 606.1,351.4 C 586.3,389.3 572.6,455.3 521.2,493.5 C 469.8,531.6 369.4,555.8 297.5,580.5 C 225.7,605.1 79.2,594.7 90.0,641.3 C 100.8,688.0 312.3,825.0 362.2,860.2 Z" fill="none" stroke="#ff5a36" stroke-opacity="0.55" stroke-width="1.2" stroke-linejoin="round" filter="url(#glow)"/>
<circle cx="61.7" cy="896.5" r="13" fill="none" stroke="#ffffff" stroke-width="3"/>
<rect x="57.7" y="874.5" width="8" height="18" fill="#ffffff"/>
<circle cx="362.2" cy="860.2" r="7" fill="#ff5a36" stroke="#0a0c12" stroke-width="2.5" filter="url(#glow)"/>
<text x="362.2" y="863.6" font-size="9" font-weight="700" fill="#0a0c12" text-anchor="middle">1</text>
<circle cx="389.1" cy="853.0" r="7" fill="#ff5a36" stroke="#0a0c12" stroke-width="2.5" filter="url(#glow)"/>
<text x="389.1" y="856.4" font-size="9" font-weight="700" fill="#0a0c12" text-anchor="middle">2</text>
<circle cx="470.0" cy="810.9" r="7" fill="#ff5a36" stroke="#0a0c12" stroke-width="2.5" filter="url(#glow)"/>
<text x="470.0" y="814.3" font-size="9" font-weight="700" fill="#0a0c12" text-anchor="middle">3</text>
<circle cx="575.1" cy="657.3" r="7" fill="#ff5a36" stroke="#0a0c12" stroke-width="2.5" filter="url(#glow)"/>
<text x="575.1" y="660.7" font-size="9" font-weight="700" fill="#0a0c12" text-anchor="middle">4</text>
<circle cx="602.1" cy="610.9" r="7" fill="#ff5a36" stroke="#0a0c12" stroke-width="2.5" filter="url(#glow)"/>
<text x="602.1" y="614.3" font-size="9" font-weight="700" fill="#0a0c12" text-anchor="middle">5</text>
<circle cx="657.3" cy="503.6" r="7" fill="#ff5a36" stroke="#0a0c12" stroke-width="2.5" filter="url(#glow)"/>
<text x="657.3" y="507.0" font-size="9" font-weight="700" fill="#0a0c12" text-anchor="middle">6</text>
<circle cx="680.2" cy="454.3" r="7" fill="#ff5a36" stroke="#0a0c12" stroke-width="2.5" filter="url(#glow)"/>
<text x="680.2" y="457.7" font-size="9" font-weight="700" fill="#0a0c12" text-anchor="middle">7</text>
<circle cx="696.4" cy="416.6" r="7" fill="#ff5a36" stroke="#0a0c12" stroke-width="2.5" filter="url(#glow)"/>
<text x="696.4" y="420.0" font-size="9" font-weight="700" fill="#0a0c12" text-anchor="middle">8</text>
<circle cx="743.5" cy="329.7" r="7" fill="#ff5a36" stroke="#0a0c12" stroke-width="2.5" filter="url(#glow)"/>
<text x="743.5" y="333.1" font-size="9" font-weight="700" fill="#0a0c12" text-anchor="middle">9</text>
<circle cx="784.0" cy="299.2" r="7" fill="#ff5a36" stroke="#0a0c12" stroke-width="2.5" filter="url(#glow)"/>
<text x="784.0" y="302.6" font-size="9" font-weight="700" fill="#0a0c12" text-anchor="middle">10</text>
<circle cx="847.3" cy="296.3" r="7" fill="#ff5a36" stroke="#0a0c12" stroke-width="2.5" filter="url(#glow)"/>
<text x="847.3" y="299.7" font-size="9" font-weight="700" fill="#0a0c12" text-anchor="middle">11</text>
<circle cx="889.1" cy="329.7" r="7" fill="#ff5a36" stroke="#0a0c12" stroke-width="2.5" filter="url(#glow)"/>
<text x="889.1" y="333.1" font-size="9" font-weight="700" fill="#0a0c12" text-anchor="middle">12</text>
<circle cx="789.4" cy="623.9" r="7" fill="#ff5a36" stroke="#0a0c12" stroke-width="2.5" filter="url(#glow)"/>
<text x="789.4" y="627.3" font-size="9" font-weight="700" fill="#0a0c12" text-anchor="middle">13</text>
<circle cx="965.9" cy="642.8" r="7" fill="#ff5a36" stroke="#0a0c12" stroke-width="2.5" filter="url(#glow)"/>
<text x="965.9" y="646.2" font-size="9" font-weight="700" fill="#0a0c12" text-anchor="middle">14</text>
<circle cx="987.4" cy="557.3" r="7" fill="#ff5a36" stroke="#0a0c12" stroke-width="2.5" filter="url(#glow)"/>
<text x="987.4" y="560.7" font-size="9" font-weight="700" fill="#0a0c12" text-anchor="middle">15</text>
<circle cx="999.6" cy="492.0" r="7" fill="#ff5a36" stroke="#0a0c12" stroke-width="2.5" filter="url(#glow)"/>
<text x="999.6" y="495.4" font-size="9" font-weight="700" fill="#0a0c12" text-anchor="middle">16</text>
<circle cx="1007.7" cy="448.5" r="7" fill="#ff5a36" stroke="#0a0c12" stroke-width="2.5" filter="url(#glow)"/>
<text x="1007.7" y="451.9" font-size="9" font-weight="700" fill="#0a0c12" text-anchor="middle">17</text>
<circle cx="1021.1" cy="380.4" r="7" fill="#ff5a36" stroke="#0a0c12" stroke-width="2.5" filter="url(#glow)"/>
<text x="1021.1" y="383.8" font-size="9" font-weight="700" fill="#0a0c12" text-anchor="middle">18</text>
<circle cx="1040.0" cy="200.7" r="7" fill="#ff5a36" stroke="#0a0c12" stroke-width="2.5" filter="url(#glow)"/>
<text x="1040.0" y="204.1" font-size="9" font-weight="700" fill="#0a0c12" text-anchor="middle">19</text>
<circle cx="932.2" cy="139.8" r="7" fill="#ff5a36" stroke="#0a0c12" stroke-width="2.5" filter="url(#glow)"/>
<text x="932.2" y="143.2" font-size="9" font-weight="700" fill="#0a0c12" text-anchor="middle">20</text>
<circle cx="810.9" cy="165.9" r="7" fill="#ff5a36" stroke="#0a0c12" stroke-width="2.5" filter="url(#glow)"/>
<text x="810.9" y="169.3" font-size="9" font-weight="700" fill="#0a0c12" text-anchor="middle">21</text>
<circle cx="665.4" cy="238.3" r="7" fill="#ff5a36" stroke="#0a0c12" stroke-width="2.5" filter="url(#glow)"/>
<text x="665.4" y="241.7" font-size="9" font-weight="700" fill="#0a0c12" text-anchor="middle">22</text>
<circle cx="639.8" cy="265.9" r="7" fill="#ff5a36" stroke="#0a0c12" stroke-width="2.5" filter="url(#glow)"/>
<text x="639.8" y="269.3" font-size="9" font-weight="700" fill="#0a0c12" text-anchor="middle">23</text>
<circle cx="606.1" cy="351.4" r="7" fill="#ff5a36" stroke="#0a0c12" stroke-width="2.5" filter="url(#glow)"/>
<text x="606.1" y="354.8" font-size="9" font-weight="700" fill="#0a0c12" text-anchor="middle">24</text>
<circle cx="521.2" cy="493.5" r="7" fill="#ff5a36" stroke="#0a0c12" stroke-width="2.5" filter="url(#glow)"/>
<text x="521.2" y="496.9" font-size="9" font-weight="700" fill="#0a0c12" text-anchor="middle">25</text>
<circle cx="297.5" cy="580.5" r="7" fill="#ff5a36" stroke="#0a0c12" stroke-width="2.5" filter="url(#glow)"/>
<text x="297.5" y="583.9" font-size="9" font-weight="700" fill="#0a0c12" text-anchor="middle">26</text>
<circle cx="90.0" cy="641.3" r="7" fill="#ff5a36" stroke="#0a0c12" stroke-width="2.5" filter="url(#glow)"/>
<text x="90.0" y="644.7" font-size="9" font-weight="700" fill="#0a0c12" text-anchor="middle">27</text>
<line x1="362.2" y1="860.2" x2="327.9" y2="923.1" stroke="#ff5a36" stroke-opacity="0.45" stroke-width="1.3"/>
<text x="319.9" y="927.1" font-size="15" font-weight="600" fill="#eef2fb" text-anchor="end">T1</text>
<line x1="389.1" y1="853.0" x2="356.1" y2="893.1" stroke="#ff5a36" stroke-opacity="0.45" stroke-width="1.3"/>
<text x="348.1" y="897.1" font-size="15" font-weight="600" fill="#eef2fb" text-anchor="end">T2</text>
<line x1="470.0" y1="810.9" x2="440.5" y2="853.7" stroke="#ff5a36" stroke-opacity="0.45" stroke-width="1.3"/>
<text x="432.5" y="857.7" font-size="15" font-weight="600" fill="#eef2fb" text-anchor="end">T3</text>
<line x1="575.1" y1="657.3" x2="545.5" y2="712.9" stroke="#ff5a36" stroke-opacity="0.45" stroke-width="1.3"/>
<text x="537.5" y="716.9" font-size="15" font-weight="600" fill="#eef2fb" text-anchor="end">T4</text>
<line x1="602.1" y1="610.9" x2="571.4" y2="652.9" stroke="#ff5a36" stroke-opacity="0.45" stroke-width="1.3"/>
<text x="563.4" y="656.9" font-size="15" font-weight="600" fill="#eef2fb" text-anchor="end">T5</text>
<line x1="657.3" y1="503.6" x2="615.1" y2="534.0" stroke="#ff5a36" stroke-opacity="0.45" stroke-width="1.3"/>
<text x="607.1" y="538.0" font-size="15" font-weight="600" fill="#eef2fb" text-anchor="end">T6</text>
<line x1="680.2" y1="454.3" x2="634.4" y2="429.8" stroke="#ff5a36" stroke-opacity="0.45" stroke-width="1.3"/>
<text x="626.4" y="433.8" font-size="15" font-weight="600" fill="#eef2fb" text-anchor="end">T7</text>
<line x1="696.4" y1="416.6" x2="686.6" y2="365.6" stroke="#ff5a36" stroke-opacity="0.45" stroke-width="1.3"/>
<text x="678.6" y="369.6" font-size="15" font-weight="600" fill="#eef2fb" text-anchor="end">T8</text>
<line x1="743.5" y1="329.7" x2="757.0" y2="312.0" stroke="#ff5a36" stroke-opacity="0.45" stroke-width="1.3"/>
<text x="765.0" y="316.0" font-size="15" font-weight="600" fill="#eef2fb" text-anchor="start">T9</text>
<line x1="784.0" y1="299.2" x2="805.7" y2="252.0" stroke="#ff5a36" stroke-opacity="0.45" stroke-width="1.3"/>
<text x="813.7" y="256.0" font-size="15" font-weight="600" fill="#eef2fb" text-anchor="start">T10</text>
<line x1="847.3" y1="296.3" x2="880.3" y2="282.0" stroke="#ff5a36" stroke-opacity="0.45" stroke-width="1.3"/>
<text x="888.3" y="286.0" font-size="15" font-weight="600" fill="#eef2fb" text-anchor="start">T11</text>
<line x1="889.1" y1="329.7" x2="930.5" y2="342.0" stroke="#ff5a36" stroke-opacity="0.45" stroke-width="1.3"/>
<text x="938.5" y="346.0" font-size="15" font-weight="600" fill="#eef2fb" text-anchor="start">T12</text>
<line x1="789.4" y1="623.9" x2="813.8" y2="669.8" stroke="#ff5a36" stroke-opacity="0.45" stroke-width="1.3"/>
<text x="821.8" y="673.8" font-size="15" font-weight="600" fill="#eef2fb" text-anchor="start">T13</text>
<line x1="965.9" y1="642.8" x2="1009.0" y2="699.8" stroke="#ff5a36" stroke-opacity="0.45" stroke-width="1.3"/>
<text x="1017.0" y="703.8" font-size="15" font-weight="600" fill="#eef2fb" text-anchor="start">T14</text>
<line x1="987.4" y1="557.3" x2="1037.0" y2="572.9" stroke="#ff5a36" stroke-opacity="0.45" stroke-width="1.3"/>
<text x="1045.0" y="576.9" font-size="15" font-weight="600" fill="#eef2fb" text-anchor="start">T15</text>
<line x1="999.6" y1="492.0" x2="1051.4" y2="496.2" stroke="#ff5a36" stroke-opacity="0.45" stroke-width="1.3"/>
<text x="1059.4" y="500.2" font-size="15" font-weight="600" fill="#eef2fb" text-anchor="start">T16</text>
<line x1="1007.7" y1="448.5" x2="1059.5" y2="445.1" stroke="#ff5a36" stroke-opacity="0.45" stroke-width="1.3"/>
<text x="1067.5" y="449.1" font-size="15" font-weight="600" fill="#eef2fb" text-anchor="start">T17</text>
<line x1="1021.1" y1="380.4" x2="1071.2" y2="372.0" stroke="#ff5a36" stroke-opacity="0.45" stroke-width="1.3"/>
<text x="1079.2" y="376.0" font-size="15" font-weight="600" fill="#eef2fb" text-anchor="start">T18</text>
<line x1="1040.0" y1="200.7" x2="1080.6" y2="168.1" stroke="#ff5a36" stroke-opacity="0.45" stroke-width="1.3"/>
<text x="1088.6" y="172.1" font-size="15" font-weight="600" fill="#eef2fb" text-anchor="start">T19</text>
<line x1="932.2" y1="139.8" x2="961.7" y2="96.9" stroke="#ff5a36" stroke-opacity="0.45" stroke-width="1.3"/>
<text x="969.7" y="100.9" font-size="15" font-weight="600" fill="#eef2fb" text-anchor="start">T20</text>
<line x1="810.9" y1="165.9" x2="827.9" y2="126.9" stroke="#ff5a36" stroke-opacity="0.45" stroke-width="1.3"/>
<text x="835.9" y="130.9" font-size="15" font-weight="600" fill="#eef2fb" text-anchor="start">T21</text>
<line x1="665.4" y1="238.3" x2="656.3" y2="187.1" stroke="#ff5a36" stroke-opacity="0.45" stroke-width="1.3"/>
<text x="648.3" y="191.1" font-size="15" font-weight="600" fill="#eef2fb" text-anchor="end">T22</text>
<line x1="639.8" y1="265.9" x2="623.6" y2="217.1" stroke="#ff5a36" stroke-opacity="0.45" stroke-width="1.3"/>
<text x="615.6" y="221.1" font-size="15" font-weight="600" fill="#eef2fb" text-anchor="end">T23</text>
<line x1="606.1" y1="351.4" x2="572.3" y2="311.9" stroke="#ff5a36" stroke-opacity="0.45" stroke-width="1.3"/>
<text x="564.3" y="315.9" font-size="15" font-weight="600" fill="#eef2fb" text-anchor="end">T24</text>
<line x1="521.2" y1="493.5" x2="469.7" y2="500.5" stroke="#ff5a36" stroke-opacity="0.45" stroke-width="1.3"/>
<text x="461.7" y="504.5" font-size="15" font-weight="600" fill="#eef2fb" text-anchor="end">T25</text>
<line x1="297.5" y1="580.5" x2="247.4" y2="594.2" stroke="#ff5a36" stroke-opacity="0.45" stroke-width="1.3"/>
<text x="239.4" y="598.2" font-size="15" font-weight="600" fill="#eef2fb" text-anchor="end">T26</text>
<line x1="90.0" y1="641.3" x2="39.9" y2="682.9" stroke="#ff5a36" stroke-opacity="0.45" stroke-width="1.3"/>
<text x="31.9" y="686.9" font-size="15" font-weight="600" fill="#eef2fb" text-anchor="end">T27</text>
<text x="90" y="64" font-size="20" letter-spacing="5" fill="#ff5a36" font-weight="700">TRACK ATLAS</text>
<text x="90" y="108" font-size="42" font-weight="800" fill="#ffffff">JEDDAH CORNICHE CIRCUIT</text>
<text x="90" y="136" font-size="16" fill="#9aa6bd">Jeddah</text>
<rect x="1170" y="200" width="360" height="710" rx="16" fill="#ffffff" fill-opacity="0.04" stroke="#ff5a36" stroke-opacity="0.5"/>
<text x="1198" y="250" font-size="13" letter-spacing="2" fill="#8794ab">LAYOUT</text>
<text x="1198" y="276" font-size="22" font-weight="700" fill="#eef2fb">Grand Prix Circuit</text>
<text x="1198" y="320" font-size="13" letter-spacing="2" fill="#8794ab">LENGTH</text>
<text x="1198" y="346" font-size="22" font-weight="700" fill="#eef2fb">6.174 km</text>
<text x="1198" y="390" font-size="13" letter-spacing="2" fill="#8794ab">CORNERS</text>
<text x="1198" y="416" font-size="22" font-weight="700" fill="#eef2fb">27</text>
<text x="1198" y="460" font-size="13" letter-spacing="2" fill="#8794ab">NAMED CORNERS</text>
<text x="1198" y="486" font-size="22" font-weight="700" fill="#eef2fb">27</text>
<text x="1198" y="530" font-size="13" letter-spacing="2" fill="#8794ab">DIRECTION</text>
<text x="1198" y="556" font-size="22" font-weight="700" fill="#eef2fb">Anticlockwise</text>
<text x="1198" y="600" font-size="13" letter-spacing="2" fill="#8794ab">SECTORS</text>
<text x="1198" y="626" font-size="22" font-weight="700" fill="#eef2fb">3</text>
<text x="1198" y="670" font-size="13" letter-spacing="2" fill="#8794ab">COUNTRY</text>
<text x="1198" y="696" font-size="22" font-weight="700" fill="#eef2fb">SA</text>
<text x="1198" y="740" font-size="13" letter-spacing="2" fill="#8794ab">LOCATION</text>
<text x="1198" y="766" font-size="22" font-weight="700" fill="#eef2fb">Jeddah</text>
<text x="90" y="966" font-size="12" fill="#566177">Geometry © OpenStreetMap contributors (ODbL) · corner data: Lovely-Sim-Racing + curated · track-atlas</text>
<text x="90" y="942" font-size="12" fill="#8794ab">⚑ start / finish</text>
</svg>