<svg xmlns="http://www.w3.org/2000/svg" width="1600" height="1000" viewBox="0 0 1600 1000" font-family="Helvetica, Arial, sans-serif">
<defs>
      <radialGradient id="bg" cx="38%" cy="34%" r="85%">
        <stop offset="0%" stop-color="#1b2030"/>
        <stop offset="55%" stop-color="#12151f"/>
        <stop offset="100%" stop-color="#0a0c12"/>
      </radialGradient>
      <linearGradient id="accent" x1="0" y1="0" x2="1" y2="1">
        <stop offset="0%" stop-color="#ff5a36"/>
        <stop offset="100%" stop-color="#ffffff"/>
      </linearGradient>
      <filter id="glow" x="-40%" y="-40%" width="180%" height="180%">
        <feGaussianBlur stdDeviation="6" result="b"/>
        <feMerge><feMergeNode in="b"/><feMergeNode in="SourceGraphic"/></feMerge>
      </filter>
    </defs>
<rect width="1600" height="1000" fill="url(#bg)"/>
<line x1="0" y1="0" x2="0" y2="1000" stroke="#ffffff" stroke-opacity="0.025"/>
<line x1="56" y1="0" x2="56" y2="1000" stroke="#ffffff" stroke-opacity="0.025"/>
<line x1="112" y1="0" x2="112" y2="1000" stroke="#ffffff" stroke-opacity="0.025"/>
<line x1="168" y1="0" x2="168" y2="1000" stroke="#ffffff" stroke-opacity="0.025"/>
<line x1="224" y1="0" x2="224" y2="1000" stroke="#ffffff" stroke-opacity="0.025"/>
<line x1="280" y1="0" x2="280" y2="1000" stroke="#ffffff" stroke-opacity="0.025"/>
<line x1="336" y1="0" x2="336" y2="1000" stroke="#ffffff" stroke-opacity="0.025"/>
<line x1="392" y1="0" x2="392" y2="1000" stroke="#ffffff" stroke-opacity="0.025"/>
<line x1="448" y1="0" x2="448" y2="1000" stroke="#ffffff" stroke-opacity="0.025"/>
<line x1="504" y1="0" x2="504" y2="1000" stroke="#ffffff" stroke-opacity="0.025"/>
<line x1="560" y1="0" x2="560" y2="1000" stroke="#ffffff" stroke-opacity="0.025"/>
<line x1="616" y1="0" x2="616" y2="1000" stroke="#ffffff" stroke-opacity="0.025"/>
<line x1="672" y1="0" x2="672" y2="1000" stroke="#ffffff" stroke-opacity="0.025"/>
<line x1="728" y1="0" x2="728" y2="1000" stroke="#ffffff" stroke-opacity="0.025"/>
<line x1="784" y1="0" x2="784" y2="1000" stroke="#ffffff" stroke-opacity="0.025"/>
<line x1="840" y1="0" x2="840" y2="1000" stroke="#ffffff" stroke-opacity="0.025"/>
<line x1="896" y1="0" x2="896" y2="1000" stroke="#ffffff" stroke-opacity="0.025"/>
<line x1="952" y1="0" x2="952" y2="1000" stroke="#ffffff" stroke-opacity="0.025"/>
<line x1="1008" y1="0" x2="1008" y2="1000" stroke="#ffffff" stroke-opacity="0.025"/>
<line x1="1064" y1="0" x2="1064" y2="1000" stroke="#ffffff" stroke-opacity="0.025"/>
<line x1="1120" y1="0" x2="1120" y2="1000" stroke="#ffffff" stroke-opacity="0.025"/>
<line x1="1176" y1="0" x2="1176" y2="1000" stroke="#ffffff" stroke-opacity="0.025"/>
<line x1="1232" y1="0" x2="1232" y2="1000" stroke="#ffffff" stroke-opacity="0.025"/>
<line x1="1288" y1="0" x2="1288" y2="1000" stroke="#ffffff" stroke-opacity="0.025"/>
<line x1="1344" y1="0" x2="1344" y2="1000" stroke="#ffffff" stroke-opacity="0.025"/>
<line x1="1400" y1="0" x2="1400" y2="1000" stroke="#ffffff" stroke-opacity="0.025"/>
<line x1="1456" y1="0" x2="1456" y2="1000" stroke="#ffffff" stroke-opacity="0.025"/>
<line x1="1512" y1="0" x2="1512" y2="1000" stroke="#ffffff" stroke-opacity="0.025"/>
<line x1="1568" y1="0" x2="1568" y2="1000" stroke="#ffffff" stroke-opacity="0.025"/>
<line x1="0" y1="0" x2="1600" y2="0" stroke="#ffffff" stroke-opacity="0.025"/>
<line x1="0" y1="56" x2="1600" y2="56" stroke="#ffffff" stroke-opacity="0.025"/>
<line x1="0" y1="112" x2="1600" y2="112" stroke="#ffffff" stroke-opacity="0.025"/>
<line x1="0" y1="168" x2="1600" y2="168" stroke="#ffffff" stroke-opacity="0.025"/>
<line x1="0" y1="224" x2="1600" y2="224" stroke="#ffffff" stroke-opacity="0.025"/>
<line x1="0" y1="280" x2="1600" y2="280" stroke="#ffffff" stroke-opacity="0.025"/>
<line x1="0" y1="336" x2="1600" y2="336" stroke="#ffffff" stroke-opacity="0.025"/>
<line x1="0" y1="392" x2="1600" y2="392" stroke="#ffffff" stroke-opacity="0.025"/>
<line x1="0" y1="448" x2="1600" y2="448" stroke="#ffffff" stroke-opacity="0.025"/>
<line x1="0" y1="504" x2="1600" y2="504" stroke="#ffffff" stroke-opacity="0.025"/>
<line x1="0" y1="560" x2="1600" y2="560" stroke="#ffffff" stroke-opacity="0.025"/>
<line x1="0" y1="616" x2="1600" y2="616" stroke="#ffffff" stroke-opacity="0.025"/>
<line x1="0" y1="672" x2="1600" y2="672" stroke="#ffffff" stroke-opacity="0.025"/>
<line x1="0" y1="728" x2="1600" y2="728" stroke="#ffffff" stroke-opacity="0.025"/>
<line x1="0" y1="784" x2="1600" y2="784" stroke="#ffffff" stroke-opacity="0.025"/>
<line x1="0" y1="840" x2="1600" y2="840" stroke="#ffffff" stroke-opacity="0.025"/>
<line x1="0" y1="896" x2="1600" y2="896" stroke="#ffffff" stroke-opacity="0.025"/>
<line x1="0" y1="952" x2="1600" y2="952" stroke="#ffffff" stroke-opacity="0.025"/>
<path d="M 650.2,898.2 L 634.4,871.1 L 625.2,855.6 L 610.3,830.0 L 590.1,796.6 L 560.2,746.2 L 551.6,729.8 L 526.9,680.4 L 518.0,661.8 L 510.6,644.8 L 495.4,610.7 L 470.1,551.9 L 438.3,478.4 L 429.0,456.4 L 421.2,439.5 L 419.7,437.1 L 413.4,428.6 L 404.6,421.1 L 398.1,415.1 L 394.0,411.4 L 392.4,409.3 L 390.9,406.1 L 390.2,402.4 L 390.7,396.6 L 392.7,392.2 L 395.2,388.8 L 397.4,386.6 L 399.6,384.6 L 406.6,378.1 L 409.6,374.8 L 411.7,371.5 L 413.1,367.3 L 413.6,360.4 L 413.6,354.8 L 412.8,348.9 L 410.0,336.5 L 406.4,324.3 L 402.8,314.1 L 400.8,308.9 L 397.5,300.2 L 394.4,293.4 L 392.3,289.5 L 387.5,284.1 L 381.8,279.8 L 367.3,270.9 L 363.9,267.6 L 361.2,263.4 L 359.6,258.9 L 358.9,254.2 L 359.0,240.1 L 361.5,224.3 L 365.8,211.6 L 367.1,209.5 L 370.0,205.8 L 375.2,201.0 L 379.7,197.4 L 385.9,192.6 L 398.1,183.7 L 410.8,174.4 L 420.4,167.4 L 433.9,160.2 L 452.5,150.5 L 481.8,135.4 L 509.4,121.7 L 520.8,116.0 L 531.7,110.9 L 540.5,107.0 L 547.8,103.9 L 553.6,102.0 L 559.7,100.0 L 564.9,98.6 L 570.1,97.2 L 576.8,95.9 L 582.2,95.0 L 587.7,94.1 L 597.2,92.8 L 611.2,91.8 L 617.6,91.4 L 621.5,91.1 L 628.0,90.8 L 652.6,90.0 L 664.8,90.5 L 689.0,91.7 L 709.9,93.1 L 725.7,94.3 L 733.6,94.9 L 738.3,95.3 L 745.5,95.8 L 750.9,96.2 L 755.8,96.8 L 759.5,97.6 L 762.6,99.1 L 765.5,100.9 L 767.2,102.6 L 768.5,104.4 L 769.7,106.2 L 770.2,107.6 L 770.6,108.9 L 770.8,109.8 L 770.8,110.1 L 771.0,111.3 L 771.1,112.4 L 771.1,112.7 L 771.0,114.7 L 770.5,117.0 L 769.3,120.7 L 767.6,123.5 L 765.3,126.4 L 764.1,127.9 L 760.4,131.4 L 756.4,134.3 L 754.5,135.4 L 752.9,136.3 L 747.9,138.4 L 743.4,139.5 L 738.9,139.7 L 733.3,139.5 L 727.5,139.1 L 719.3,137.9 L 715.3,137.1 L 711.5,135.8 L 706.3,134.0 L 687.1,126.7 L 671.7,121.1 L 663.4,119.4 L 656.6,119.3 L 651.2,120.0 L 647.3,120.8 L 641.3,122.7 L 634.3,125.1 L 626.0,128.9 L 619.9,132.2 L 614.4,136.3 L 610.8,139.2 L 608.8,142.0 L 607.9,143.7 L 607.4,145.7 L 607.0,147.7 L 607.0,152.1 L 607.3,156.0 L 607.8,158.1 L 609.3,165.6 L 610.7,170.7 L 614.9,186.7 L 618.8,200.5 L 621.2,207.5 L 625.6,218.4 L 628.0,222.3 L 631.4,225.1 L 633.6,225.7 L 636.1,226.0 L 638.8,225.7 L 646.5,223.4 L 652.2,221.3 L 657.3,219.9 L 661.1,219.9 L 664.2,220.5 L 666.8,221.8 L 669.1,223.1 L 671.1,224.6 L 674.3,227.4 L 676.5,229.7 L 679.2,232.8 L 681.6,235.9 L 683.0,238.0 L 685.2,241.5 L 687.2,244.7 L 689.3,248.2 L 690.6,250.4 L 691.7,252.7 L 692.9,255.7 L 693.8,258.5 L 694.0,260.6 L 694.3,264.1 L 693.7,268.2 L 692.8,270.8 L 686.1,283.3 L 684.4,287.5 L 682.6,294.0 L 681.9,299.5 L 681.8,305.1 L 681.9,311.2 L 681.6,317.2 L 681.1,321.7 L 679.6,326.9 L 675.3,338.4 L 674.6,342.2 L 674.4,346.1 L 676.7,389.7 L 677.0,399.8 L 676.9,417.8 L 676.1,430.3 L 673.9,448.1 L 672.0,465.4 L 669.2,497.4 L 667.0,530.0 L 667.0,536.6 L 667.8,543.1 L 668.6,547.0 L 674.4,569.4 L 675.9,577.7 L 676.4,583.2 L 676.4,590.2 L 676.3,591.4 L 676.2,593.0 L 675.9,595.7 L 672.3,610.6 L 671.3,617.6 L 671.1,624.6 L 671.4,630.4 L 672.2,634.6 L 676.1,652.4 L 676.8,659.0 L 676.9,665.6 L 676.3,672.2 L 675.1,678.8 L 670.1,693.8 L 664.5,708.5 L 659.2,721.2 L 654.2,733.8 L 648.5,749.0 L 647.6,754.8 L 647.4,759.7 L 648.2,764.6 L 649.4,769.3 L 650.4,772.1 L 671.2,819.2 L 675.1,829.6 L 677.9,840.3 L 680.1,849.0 L 683.4,864.6 L 685.3,873.0 L 686.7,879.7 L 687.1,884.1 L 686.6,888.0 L 685.6,892.0 L 684.0,894.3 L 680.8,897.9 L 675.0,903.3 L 672.9,905.0 L 668.1,907.9 L 664.1,909.4 L 661.1,910.0 L 659.5,909.8 L 657.7,909.3 L 655.5,907.5 L 650.2,898.2 Z" fill="none" stroke="#000000" stroke-opacity="0.5" stroke-width="13" stroke-linejoin="round" stroke-linecap="round"/>
<path d="M 650.2,898.2 L 634.4,871.1 L 625.2,855.6 L 610.3,830.0 L 590.1,796.6 L 560.2,746.2 L 551.6,729.8 L 526.9,680.4 L 518.0,661.8 L 510.6,644.8 L 495.4,610.7 L 470.1,551.9 L 438.3,478.4 L 429.0,456.4 L 421.2,439.5 L 419.7,437.1 L 413.4,428.6 L 404.6,421.1 L 398.1,415.1 L 394.0,411.4 L 392.4,409.3 L 390.9,406.1 L 390.2,402.4 L 390.7,396.6 L 392.7,392.2 L 395.2,388.8 L 397.4,386.6 L 399.6,384.6 L 406.6,378.1 L 409.6,374.8 L 411.7,371.5 L 413.1,367.3 L 413.6,360.4 L 413.6,354.8 L 412.8,348.9 L 410.0,336.5 L 406.4,324.3 L 402.8,314.1 L 400.8,308.9 L 397.5,300.2 L 394.4,293.4 L 392.3,289.5 L 387.5,284.1 L 381.8,279.8 L 367.3,270.9 L 363.9,267.6 L 361.2,263.4 L 359.6,258.9 L 358.9,254.2 L 359.0,240.1 L 361.5,224.3 L 365.8,211.6 L 367.1,209.5 L 370.0,205.8 L 375.2,201.0 L 379.7,197.4 L 385.9,192.6 L 398.1,183.7 L 410.8,174.4 L 420.4,167.4 L 433.9,160.2 L 452.5,150.5 L 481.8,135.4 L 509.4,121.7 L 520.8,116.0 L 531.7,110.9 L 540.5,107.0 L 547.8,103.9 L 553.6,102.0 L 559.7,100.0 L 564.9,98.6 L 570.1,97.2 L 576.8,95.9 L 582.2,95.0 L 587.7,94.1 L 597.2,92.8 L 611.2,91.8 L 617.6,91.4 L 621.5,91.1 L 628.0,90.8 L 652.6,90.0 L 664.8,90.5 L 689.0,91.7 L 709.9,93.1 L 725.7,94.3 L 733.6,94.9 L 738.3,95.3 L 745.5,95.8 L 750.9,96.2 L 755.8,96.8 L 759.5,97.6 L 762.6,99.1 L 765.5,100.9 L 767.2,102.6 L 768.5,104.4 L 769.7,106.2 L 770.2,107.6 L 770.6,108.9 L 770.8,109.8 L 770.8,110.1 L 771.0,111.3 L 771.1,112.4 L 771.1,112.7 L 771.0,114.7 L 770.5,117.0 L 769.3,120.7 L 767.6,123.5 L 765.3,126.4 L 764.1,127.9 L 760.4,131.4 L 756.4,134.3 L 754.5,135.4 L 752.9,136.3 L 747.9,138.4 L 743.4,139.5 L 738.9,139.7 L 733.3,139.5 L 727.5,139.1 L 719.3,137.9 L 715.3,137.1 L 711.5,135.8 L 706.3,134.0 L 687.1,126.7 L 671.7,121.1 L 663.4,119.4 L 656.6,119.3 L 651.2,120.0 L 647.3,120.8 L 641.3,122.7 L 634.3,125.1 L 626.0,128.9 L 619.9,132.2 L 614.4,136.3 L 610.8,139.2 L 608.8,142.0 L 607.9,143.7 L 607.4,145.7 L 607.0,147.7 L 607.0,152.1 L 607.3,156.0 L 607.8,158.1 L 609.3,165.6 L 610.7,170.7 L 614.9,186.7 L 618.8,200.5 L 621.2,207.5 L 625.6,218.4 L 628.0,222.3 L 631.4,225.1 L 633.6,225.7 L 636.1,226.0 L 638.8,225.7 L 646.5,223.4 L 652.2,221.3 L 657.3,219.9 L 661.1,219.9 L 664.2,220.5 L 666.8,221.8 L 669.1,223.1 L 671.1,224.6 L 674.3,227.4 L 676.5,229.7 L 679.2,232.8 L 681.6,235.9 L 683.0,238.0 L 685.2,241.5 L 687.2,244.7 L 689.3,248.2 L 690.6,250.4 L 691.7,252.7 L 692.9,255.7 L 693.8,258.5 L 694.0,260.6 L 694.3,264.1 L 693.7,268.2 L 692.8,270.8 L 686.1,283.3 L 684.4,287.5 L 682.6,294.0 L 681.9,299.5 L 681.8,305.1 L 681.9,311.2 L 681.6,317.2 L 681.1,321.7 L 679.6,326.9 L 675.3,338.4 L 674.6,342.2 L 674.4,346.1 L 676.7,389.7 L 677.0,399.8 L 676.9,417.8 L 676.1,430.3 L 673.9,448.1 L 672.0,465.4 L 669.2,497.4 L 667.0,530.0 L 667.0,536.6 L 667.8,543.1 L 668.6,547.0 L 674.4,569.4 L 675.9,577.7 L 676.4,583.2 L 676.4,590.2 L 676.3,591.4 L 676.2,593.0 L 675.9,595.7 L 672.3,610.6 L 671.3,617.6 L 671.1,624.6 L 671.4,630.4 L 672.2,634.6 L 676.1,652.4 L 676.8,659.0 L 676.9,665.6 L 676.3,672.2 L 675.1,678.8 L 670.1,693.8 L 664.5,708.5 L 659.2,721.2 L 654.2,733.8 L 648.5,749.0 L 647.6,754.8 L 647.4,759.7 L 648.2,764.6 L 649.4,769.3 L 650.4,772.1 L 671.2,819.2 L 675.1,829.6 L 677.9,840.3 L 680.1,849.0 L 683.4,864.6 L 685.3,873.0 L 686.7,879.7 L 687.1,884.1 L 686.6,888.0 L 685.6,892.0 L 684.0,894.3 L 680.8,897.9 L 675.0,903.3 L 672.9,905.0 L 668.1,907.9 L 664.1,909.4 L 661.1,910.0 L 659.5,909.8 L 657.7,909.3 L 655.5,907.5 L 650.2,898.2 Z" fill="none" stroke="#39404f" stroke-width="8.5" stroke-linejoin="round" stroke-linecap="round"/>
<path d="M 650.2,898.2 L 634.4,871.1 L 625.2,855.6 L 610.3,830.0 L 590.1,796.6 L 560.2,746.2 L 551.6,729.8 L 526.9,680.4 L 518.0,661.8 L 510.6,644.8 L 495.4,610.7 L 470.1,551.9 L 438.3,478.4 L 429.0,456.4 L 421.2,439.5 L 419.7,437.1 L 413.4,428.6 L 404.6,421.1 L 398.1,415.1 L 394.0,411.4 L 392.4,409.3 L 390.9,406.1 L 390.2,402.4 L 390.7,396.6 L 392.7,392.2 L 395.2,388.8 L 397.4,386.6 L 399.6,384.6 L 406.6,378.1 L 409.6,374.8 L 411.7,371.5 L 413.1,367.3 L 413.6,360.4 L 413.6,354.8 L 412.8,348.9 L 410.0,336.5 L 406.4,324.3 L 402.8,314.1 L 400.8,308.9 L 397.5,300.2 L 394.4,293.4 L 392.3,289.5 L 387.5,284.1 L 381.8,279.8 L 367.3,270.9 L 363.9,267.6 L 361.2,263.4 L 359.6,258.9 L 358.9,254.2 L 359.0,240.1 L 361.5,224.3 L 365.8,211.6 L 367.1,209.5 L 370.0,205.8 L 375.2,201.0 L 379.7,197.4 L 385.9,192.6 L 398.1,183.7 L 410.8,174.4 L 420.4,167.4 L 433.9,160.2 L 452.5,150.5 L 481.8,135.4 L 509.4,121.7 L 520.8,116.0 L 531.7,110.9 L 540.5,107.0 L 547.8,103.9 L 553.6,102.0 L 559.7,100.0 L 564.9,98.6 L 570.1,97.2 L 576.8,95.9 L 582.2,95.0 L 587.7,94.1 L 597.2,92.8 L 611.2,91.8 L 617.6,91.4 L 621.5,91.1 L 628.0,90.8 L 652.6,90.0 L 664.8,90.5 L 689.0,91.7 L 709.9,93.1 L 725.7,94.3 L 733.6,94.9 L 738.3,95.3 L 745.5,95.8 L 750.9,96.2 L 755.8,96.8 L 759.5,97.6 L 762.6,99.1 L 765.5,100.9 L 767.2,102.6 L 768.5,104.4 L 769.7,106.2 L 770.2,107.6 L 770.6,108.9 L 770.8,109.8 L 770.8,110.1 L 771.0,111.3 L 771.1,112.4 L 771.1,112.7 L 771.0,114.7 L 770.5,117.0 L 769.3,120.7 L 767.6,123.5 L 765.3,126.4 L 764.1,127.9 L 760.4,131.4 L 756.4,134.3 L 754.5,135.4 L 752.9,136.3 L 747.9,138.4 L 743.4,139.5 L 738.9,139.7 L 733.3,139.5 L 727.5,139.1 L 719.3,137.9 L 715.3,137.1 L 711.5,135.8 L 706.3,134.0 L 687.1,126.7 L 671.7,121.1 L 663.4,119.4 L 656.6,119.3 L 651.2,120.0 L 647.3,120.8 L 641.3,122.7 L 634.3,125.1 L 626.0,128.9 L 619.9,132.2 L 614.4,136.3 L 610.8,139.2 L 608.8,142.0 L 607.9,143.7 L 607.4,145.7 L 607.0,147.7 L 607.0,152.1 L 607.3,156.0 L 607.8,158.1 L 609.3,165.6 L 610.7,170.7 L 614.9,186.7 L 618.8,200.5 L 621.2,207.5 L 625.6,218.4 L 628.0,222.3 L 631.4,225.1 L 633.6,225.7 L 636.1,226.0 L 638.8,225.7 L 646.5,223.4 L 652.2,221.3 L 657.3,219.9 L 661.1,219.9 L 664.2,220.5 L 666.8,221.8 L 669.1,223.1 L 671.1,224.6 L 674.3,227.4 L 676.5,229.7 L 679.2,232.8 L 681.6,235.9 L 683.0,238.0 L 685.2,241.5 L 687.2,244.7 L 689.3,248.2 L 690.6,250.4 L 691.7,252.7 L 692.9,255.7 L 693.8,258.5 L 694.0,260.6 L 694.3,264.1 L 693.7,268.2 L 692.8,270.8 L 686.1,283.3 L 684.4,287.5 L 682.6,294.0 L 681.9,299.5 L 681.8,305.1 L 681.9,311.2 L 681.6,317.2 L 681.1,321.7 L 679.6,326.9 L 675.3,338.4 L 674.6,342.2 L 674.4,346.1 L 676.7,389.7 L 677.0,399.8 L 676.9,417.8 L 676.1,430.3 L 673.9,448.1 L 672.0,465.4 L 669.2,497.4 L 667.0,530.0 L 667.0,536.6 L 667.8,543.1 L 668.6,547.0 L 674.4,569.4 L 675.9,577.7 L 676.4,583.2 L 676.4,590.2 L 676.3,591.4 L 676.2,593.0 L 675.9,595.7 L 672.3,610.6 L 671.3,617.6 L 671.1,624.6 L 671.4,630.4 L 672.2,634.6 L 676.1,652.4 L 676.8,659.0 L 676.9,665.6 L 676.3,672.2 L 675.1,678.8 L 670.1,693.8 L 664.5,708.5 L 659.2,721.2 L 654.2,733.8 L 648.5,749.0 L 647.6,754.8 L 647.4,759.7 L 648.2,764.6 L 649.4,769.3 L 650.4,772.1 L 671.2,819.2 L 675.1,829.6 L 677.9,840.3 L 680.1,849.0 L 683.4,864.6 L 685.3,873.0 L 686.7,879.7 L 687.1,884.1 L 686.6,888.0 L 685.6,892.0 L 684.0,894.3 L 680.8,897.9 L 675.0,903.3 L 672.9,905.0 L 668.1,907.9 L 664.1,909.4 L 661.1,910.0 L 659.5,909.8 L 657.7,909.3 L 655.5,907.5 L 650.2,898.2 Z" fill="none" stroke="#e7edf8" stroke-width="2.6" stroke-linejoin="round" stroke-linecap="round"/>
<path d="M 650.2,898.2 L 634.4,871.1 L 625.2,855.6 L 610.3,830.0 L 590.1,796.6 L 560.2,746.2 L 551.6,729.8 L 526.9,680.4 L 518.0,661.8 L 510.6,644.8 L 495.4,610.7 L 470.1,551.9 L 438.3,478.4 L 429.0,456.4 L 421.2,439.5 L 419.7,437.1 L 413.4,428.6 L 404.6,421.1 L 398.1,415.1 L 394.0,411.4 L 392.4,409.3 L 390.9,406.1 L 390.2,402.4 L 390.7,396.6 L 392.7,392.2 L 395.2,388.8 L 397.4,386.6 L 399.6,384.6 L 406.6,378.1 L 409.6,374.8 L 411.7,371.5 L 413.1,367.3 L 413.6,360.4 L 413.6,354.8 L 412.8,348.9 L 410.0,336.5 L 406.4,324.3 L 402.8,314.1 L 400.8,308.9 L 397.5,300.2 L 394.4,293.4 L 392.3,289.5 L 387.5,284.1 L 381.8,279.8 L 367.3,270.9 L 363.9,267.6 L 361.2,263.4 L 359.6,258.9 L 358.9,254.2 L 359.0,240.1 L 361.5,224.3 L 365.8,211.6 L 367.1,209.5 L 370.0,205.8 L 375.2,201.0 L 379.7,197.4 L 385.9,192.6 L 398.1,183.7 L 410.8,174.4 L 420.4,167.4 L 433.9,160.2 L 452.5,150.5 L 481.8,135.4 L 509.4,121.7 L 520.8,116.0 L 531.7,110.9 L 540.5,107.0 L 547.8,103.9 L 553.6,102.0 L 559.7,100.0 L 564.9,98.6 L 570.1,97.2 L 576.8,95.9 L 582.2,95.0 L 587.7,94.1 L 597.2,92.8 L 611.2,91.8 L 617.6,91.4 L 621.5,91.1 L 628.0,90.8 L 652.6,90.0 L 664.8,90.5 L 689.0,91.7 L 709.9,93.1 L 725.7,94.3 L 733.6,94.9 L 738.3,95.3 L 745.5,95.8 L 750.9,96.2 L 755.8,96.8 L 759.5,97.6 L 762.6,99.1 L 765.5,100.9 L 767.2,102.6 L 768.5,104.4 L 769.7,106.2 L 770.2,107.6 L 770.6,108.9 L 770.8,109.8 L 770.8,110.1 L 771.0,111.3 L 771.1,112.4 L 771.1,112.7 L 771.0,114.7 L 770.5,117.0 L 769.3,120.7 L 767.6,123.5 L 765.3,126.4 L 764.1,127.9 L 760.4,131.4 L 756.4,134.3 L 754.5,135.4 L 752.9,136.3 L 747.9,138.4 L 743.4,139.5 L 738.9,139.7 L 733.3,139.5 L 727.5,139.1 L 719.3,137.9 L 715.3,137.1 L 711.5,135.8 L 706.3,134.0 L 687.1,126.7 L 671.7,121.1 L 663.4,119.4 L 656.6,119.3 L 651.2,120.0 L 647.3,120.8 L 641.3,122.7 L 634.3,125.1 L 626.0,128.9 L 619.9,132.2 L 614.4,136.3 L 610.8,139.2 L 608.8,142.0 L 607.9,143.7 L 607.4,145.7 L 607.0,147.7 L 607.0,152.1 L 607.3,156.0 L 607.8,158.1 L 609.3,165.6 L 610.7,170.7 L 614.9,186.7 L 618.8,200.5 L 621.2,207.5 L 625.6,218.4 L 628.0,222.3 L 631.4,225.1 L 633.6,225.7 L 636.1,226.0 L 638.8,225.7 L 646.5,223.4 L 652.2,221.3 L 657.3,219.9 L 661.1,219.9 L 664.2,220.5 L 666.8,221.8 L 669.1,223.1 L 671.1,224.6 L 674.3,227.4 L 676.5,229.7 L 679.2,232.8 L 681.6,235.9 L 683.0,238.0 L 685.2,241.5 L 687.2,244.7 L 689.3,248.2 L 690.6,250.4 L 691.7,252.7 L 692.9,255.7 L 693.8,258.5 L 694.0,260.6 L 694.3,264.1 L 693.7,268.2 L 692.8,270.8 L 686.1,283.3 L 684.4,287.5 L 682.6,294.0 L 681.9,299.5 L 681.8,305.1 L 681.9,311.2 L 681.6,317.2 L 681.1,321.7 L 679.6,326.9 L 675.3,338.4 L 674.6,342.2 L 674.4,346.1 L 676.7,389.7 L 677.0,399.8 L 676.9,417.8 L 676.1,430.3 L 673.9,448.1 L 672.0,465.4 L 669.2,497.4 L 667.0,530.0 L 667.0,536.6 L 667.8,543.1 L 668.6,547.0 L 674.4,569.4 L 675.9,577.7 L 676.4,583.2 L 676.4,590.2 L 676.3,591.4 L 676.2,593.0 L 675.9,595.7 L 672.3,610.6 L 671.3,617.6 L 671.1,624.6 L 671.4,630.4 L 672.2,634.6 L 676.1,652.4 L 676.8,659.0 L 676.9,665.6 L 676.3,672.2 L 675.1,678.8 L 670.1,693.8 L 664.5,708.5 L 659.2,721.2 L 654.2,733.8 L 648.5,749.0 L 647.6,754.8 L 647.4,759.7 L 648.2,764.6 L 649.4,769.3 L 650.4,772.1 L 671.2,819.2 L 675.1,829.6 L 677.9,840.3 L 680.1,849.0 L 683.4,864.6 L 685.3,873.0 L 686.7,879.7 L 687.1,884.1 L 686.6,888.0 L 685.6,892.0 L 684.0,894.3 L 680.8,897.9 L 675.0,903.3 L 672.9,905.0 L 668.1,907.9 L 664.1,909.4 L 661.1,910.0 L 659.5,909.8 L 657.7,909.3 L 655.5,907.5 L 650.2,898.2 Z" fill="none" stroke="#ff5a36" stroke-opacity="0.55" stroke-width="1.2" stroke-linejoin="round" filter="url(#glow)"/>
<circle cx="611.2" cy="91.8" r="13" fill="none" stroke="#ffffff" stroke-width="3"/>
<rect x="607.2" y="69.8" width="8" height="18" fill="#ffffff"/>
<circle cx="755.0" cy="120.1" r="7" fill="#ff5a36" stroke="#0a0c12" stroke-width="2.5" filter="url(#glow)"/>
<text x="755.0" y="123.5" font-size="9" font-weight="700" fill="#0a0c12" text-anchor="middle">1</text>
<circle cx="663.0" cy="119.4" r="7" fill="#ff5a36" stroke="#0a0c12" stroke-width="2.5" filter="url(#glow)"/>
<text x="663.0" y="122.8" font-size="9" font-weight="700" fill="#0a0c12" text-anchor="middle">2</text>
<circle cx="609.8" cy="145.3" r="7" fill="#ff5a36" stroke="#0a0c12" stroke-width="2.5" filter="url(#glow)"/>
<text x="609.8" y="148.7" font-size="9" font-weight="700" fill="#0a0c12" text-anchor="middle">3</text>
<circle cx="634.3" cy="223.8" r="7" fill="#ff5a36" stroke="#0a0c12" stroke-width="2.5" filter="url(#glow)"/>
<text x="634.3" y="227.2" font-size="9" font-weight="700" fill="#0a0c12" text-anchor="middle">4</text>
<circle cx="663.2" cy="220.4" r="7" fill="#ff5a36" stroke="#0a0c12" stroke-width="2.5" filter="url(#glow)"/>
<text x="663.2" y="223.8" font-size="9" font-weight="700" fill="#0a0c12" text-anchor="middle">5</text>
<circle cx="682.0" cy="236.4" r="7" fill="#ff5a36" stroke="#0a0c12" stroke-width="2.5" filter="url(#glow)"/>
<text x="682.0" y="239.8" font-size="9" font-weight="700" fill="#0a0c12" text-anchor="middle">6</text>
<circle cx="685.6" cy="290.6" r="7" fill="#ff5a36" stroke="#0a0c12" stroke-width="2.5" filter="url(#glow)"/>
<text x="685.6" y="294.0" font-size="9" font-weight="700" fill="#0a0c12" text-anchor="middle">7</text>
<circle cx="669.1" cy="499.3" r="7" fill="#ff5a36" stroke="#0a0c12" stroke-width="2.5" filter="url(#glow)"/>
<text x="669.1" y="502.7" font-size="9" font-weight="700" fill="#0a0c12" text-anchor="middle">8</text>
<circle cx="669.8" cy="551.7" r="7" fill="#ff5a36" stroke="#0a0c12" stroke-width="2.5" filter="url(#glow)"/>
<text x="669.8" y="555.1" font-size="9" font-weight="700" fill="#0a0c12" text-anchor="middle">9</text>
<circle cx="675.0" cy="599.6" r="7" fill="#ff5a36" stroke="#0a0c12" stroke-width="2.5" filter="url(#glow)"/>
<text x="675.0" y="603.0" font-size="9" font-weight="700" fill="#0a0c12" text-anchor="middle">10</text>
<circle cx="676.6" cy="656.7" r="7" fill="#ff5a36" stroke="#0a0c12" stroke-width="2.5" filter="url(#glow)"/>
<text x="676.6" y="660.1" font-size="9" font-weight="700" fill="#0a0c12" text-anchor="middle">11</text>
<circle cx="648.6" cy="761.6" r="7" fill="#ff5a36" stroke="#0a0c12" stroke-width="2.5" filter="url(#glow)"/>
<text x="648.6" y="765.0" font-size="9" font-weight="700" fill="#0a0c12" text-anchor="middle">12</text>
<circle cx="675.3" cy="903.0" r="7" fill="#ff5a36" stroke="#0a0c12" stroke-width="2.5" filter="url(#glow)"/>
<text x="675.3" y="906.4" font-size="9" font-weight="700" fill="#0a0c12" text-anchor="middle">13</text>
<circle cx="396.0" cy="399.3" r="7" fill="#ff5a36" stroke="#0a0c12" stroke-width="2.5" filter="url(#glow)"/>
<text x="396.0" y="402.7" font-size="9" font-weight="700" fill="#0a0c12" text-anchor="middle">14</text>
<circle cx="371.0" cy="240.7" r="7" fill="#ff5a36" stroke="#0a0c12" stroke-width="2.5" filter="url(#glow)"/>
<text x="371.0" y="244.1" font-size="9" font-weight="700" fill="#0a0c12" text-anchor="middle">15</text>
<circle cx="761.1" cy="130.8" r="7" fill="#ff5a36" stroke="#0a0c12" stroke-width="2.5" filter="url(#glow)"/>
<text x="761.1" y="134.2" font-size="9" font-weight="700" fill="#0a0c12" text-anchor="middle">16</text>
<line x1="755.0" y1="120.1" x2="781.9" y2="98.5" stroke="#ff5a36" stroke-opacity="0.45" stroke-width="1.3"/>
<text x="789.9" y="102.5" font-size="15" font-weight="600" fill="#eef2fb" text-anchor="start">Horseshoe</text>
<line x1="663.0" y1="119.4" x2="673.8" y2="68.5" stroke="#ff5a36" stroke-opacity="0.45" stroke-width="1.3"/>
<text x="681.8" y="72.5" font-size="15" font-weight="600" fill="#eef2fb" text-anchor="start">Turn 2</text>
<line x1="609.8" y1="145.3" x2="609.1" y2="93.3" stroke="#ff5a36" stroke-opacity="0.45" stroke-width="1.3"/>
<text x="601.1" y="97.3" font-size="15" font-weight="600" fill="#eef2fb" text-anchor="end">NASCAR</text>
<line x1="634.3" y1="223.8" x2="642.6" y2="172.5" stroke="#ff5a36" stroke-opacity="0.45" stroke-width="1.3"/>
<text x="650.6" y="176.5" font-size="15" font-weight="600" fill="#eef2fb" text-anchor="start">Left Hook</text>
<line x1="682.0" y1="236.4" x2="708.1" y2="202.5" stroke="#ff5a36" stroke-opacity="0.45" stroke-width="1.3"/>
<text x="716.1" y="206.5" font-size="15" font-weight="600" fill="#eef2fb" text-anchor="start">Climbing Esses</text>
<line x1="685.6" y1="290.6" x2="724.4" y2="255.9" stroke="#ff5a36" stroke-opacity="0.45" stroke-width="1.3"/>
<text x="732.4" y="259.9" font-size="15" font-weight="600" fill="#eef2fb" text-anchor="start">Snake</text>
<line x1="669.1" y1="499.3" x2="688.0" y2="547.7" stroke="#ff5a36" stroke-opacity="0.45" stroke-width="1.3"/>
<text x="696.0" y="551.7" font-size="15" font-weight="600" fill="#eef2fb" text-anchor="start">Spiral</text>
<line x1="669.8" y1="551.7" x2="684.3" y2="601.6" stroke="#ff5a36" stroke-opacity="0.45" stroke-width="1.3"/>
<text x="692.3" y="605.6" font-size="15" font-weight="600" fill="#eef2fb" text-anchor="start">Spiral</text>
<line x1="675.0" y1="599.6" x2="687.8" y2="650.0" stroke="#ff5a36" stroke-opacity="0.45" stroke-width="1.3"/>
<text x="695.8" y="654.0" font-size="15" font-weight="600" fill="#eef2fb" text-anchor="start">Spiral</text>
<line x1="676.6" y1="656.7" x2="687.3" y2="707.6" stroke="#ff5a36" stroke-opacity="0.45" stroke-width="1.3"/>
<text x="695.3" y="711.6" font-size="15" font-weight="600" fill="#eef2fb" text-anchor="start">Spiral</text>
<line x1="648.6" y1="761.6" x2="653.1" y2="813.4" stroke="#ff5a36" stroke-opacity="0.45" stroke-width="1.3"/>
<text x="661.1" y="817.4" font-size="15" font-weight="600" fill="#eef2fb" text-anchor="start">South Bend</text>
<line x1="675.3" y1="903.0" x2="681.2" y2="954.7" stroke="#ff5a36" stroke-opacity="0.45" stroke-width="1.3"/>
<text x="689.2" y="958.7" font-size="15" font-weight="600" fill="#eef2fb" text-anchor="start">Oak Tree</text>
<line x1="396.0" y1="399.3" x2="345.0" y2="409.6" stroke="#ff5a36" stroke-opacity="0.45" stroke-width="1.3"/>
<text x="337.0" y="413.6" font-size="15" font-weight="600" fill="#eef2fb" text-anchor="end">Roller Coaster</text>
<line x1="371.0" y1="240.7" x2="324.1" y2="218.4" stroke="#ff5a36" stroke-opacity="0.45" stroke-width="1.3"/>
<text x="316.1" y="222.4" font-size="15" font-weight="600" fill="#eef2fb" text-anchor="end">Hog Pen</text>
<line x1="761.1" y1="130.8" x2="789.7" y2="128.5" stroke="#ff5a36" stroke-opacity="0.45" stroke-width="1.3"/>
<text x="797.7" y="132.5" font-size="15" font-weight="600" fill="#eef2fb" text-anchor="start">Turn 17</text>
<text x="90" y="64" font-size="20" letter-spacing="5" fill="#ff5a36" font-weight="700">TRACK ATLAS</text>
<text x="90" y="108" font-size="42" font-weight="800" fill="#ffffff">VIRGINIA INTERNATIONAL RACEWAY</text>
<text x="90" y="136" font-size="16" fill="#9aa6bd">VIR</text>
<rect x="1170" y="200" width="360" height="710" rx="16" fill="#ffffff" fill-opacity="0.04" stroke="#ff5a36" stroke-opacity="0.5"/>
<text x="1198" y="250" font-size="13" letter-spacing="2" fill="#8794ab">LAYOUT</text>
<text x="1198" y="276" font-size="22" font-weight="700" fill="#eef2fb">Full Course</text>
<text x="1198" y="320" font-size="13" letter-spacing="2" fill="#8794ab">LENGTH</text>
<text x="1198" y="346" font-size="22" font-weight="700" fill="#eef2fb">5.262 km</text>
<text x="1198" y="390" font-size="13" letter-spacing="2" fill="#8794ab">CORNERS</text>
<text x="1198" y="416" font-size="22" font-weight="700" fill="#eef2fb">16</text>
<text x="1198" y="460" font-size="13" letter-spacing="2" fill="#8794ab">NAMED CORNERS</text>
<text x="1198" y="486" font-size="22" font-weight="700" fill="#eef2fb">16</text>
<text x="1198" y="530" font-size="13" letter-spacing="2" fill="#8794ab">DIRECTION</text>
<text x="1198" y="556" font-size="22" font-weight="700" fill="#eef2fb">Clockwise</text>
<text x="1198" y="600" font-size="13" letter-spacing="2" fill="#8794ab">SECTORS</text>
<text x="1198" y="626" font-size="22" font-weight="700" fill="#eef2fb">6</text>
<text x="1198" y="670" font-size="13" letter-spacing="2" fill="#8794ab">COUNTRY</text>
<text x="1198" y="696" font-size="22" font-weight="700" fill="#eef2fb">USA</text>
<text x="1198" y="740" font-size="13" letter-spacing="2" fill="#8794ab">LOCATION</text>
<text x="1198" y="766" font-size="22" font-weight="700" fill="#eef2fb">Alton, Virginia</text>
<text x="1198" y="810" font-size="13" letter-spacing="2" fill="#8794ab">COMPLEXES</text>
<rect x="1198" y="816" width="126" height="24" rx="12" fill="#ff5a36" fill-opacity="0.16" stroke="#ff5a36" stroke-opacity="0.5"/>
<text x="1261" y="833" font-size="12" fill="#eef2fb" text-anchor="middle">Climbing Esses</text>
<text x="90" y="966" font-size="12" fill="#566177">Geometry © OpenStreetMap contributors (ODbL) · corner data: Lovely-Sim-Racing + curated · track-atlas</text>
<text x="90" y="942" font-size="12" fill="#8794ab">⚑ start / finish</text>
</svg>