<svg xmlns="http://www.w3.org/2000/svg" width="1600" height="1000" viewBox="0 0 1600 1000" font-family="Helvetica, Arial, sans-serif">
<defs>
      <radialGradient id="bg" cx="38%" cy="34%" r="85%">
        <stop offset="0%" stop-color="#1b2030"/>
        <stop offset="55%" stop-color="#12151f"/>
        <stop offset="100%" stop-color="#0a0c12"/>
      </radialGradient>
      <linearGradient id="accent" x1="0" y1="0" x2="1" y2="1">
        <stop offset="0%" stop-color="#ff5a36"/>
        <stop offset="100%" stop-color="#ffffff"/>
      </linearGradient>
      <filter id="glow" x="-40%" y="-40%" width="180%" height="180%">
        <feGaussianBlur stdDeviation="6" result="b"/>
        <feMerge><feMergeNode in="b"/><feMergeNode in="SourceGraphic"/></feMerge>
      </filter>
    </defs>
<rect width="1600" height="1000" fill="url(#bg)"/>
<path d="M 303.0,566.8 L 305.1,566.7 L 307.0,566.6 L 314.1,566.1 L 315.9,566.1 L 317.4,566.1 L 318.6,566.4 L 319.8,566.8 L 321.2,567.5 L 330.6,572.9 L 331.5,573.1 L 332.7,573.0 L 335.1,572.5 L 336.6,571.9 L 338.3,571.7 L 339.8,571.8 L 341.2,572.5 L 342.0,573.4 L 342.7,574.6 L 369.7,654.7 L 370.2,656.3 L 371.0,657.7 L 371.2,658.1 L 371.8,658.9 L 373.2,660.1 L 374.5,661.0 L 378.8,662.6 L 379.2,661.8 L 379.8,660.6 L 380.8,659.1 L 382.3,657.3 L 384.0,655.6 L 386.4,653.2 L 389.0,651.2 L 398.9,643.7 L 406.0,638.3 L 453.9,601.6 L 490.6,573.0 L 514.5,554.8 L 515.9,553.4 L 516.8,551.9 L 517.5,550.1 L 517.9,547.8 L 517.8,546.0 L 513.2,530.9 L 512.8,529.5 L 512.5,527.3 L 512.6,525.8 L 513.1,523.8 L 514.0,522.0 L 515.9,519.4 L 518.9,516.4 L 523.0,512.9 L 528.5,509.3 L 532.2,506.9 L 572.9,482.2 L 576.8,480.4 L 597.8,471.5 L 602.5,469.5 L 621.2,461.4 L 625.3,459.6 L 647.2,449.7 L 644.5,443.4 L 625.1,398.2 L 622.9,392.9 L 621.5,389.4 L 620.7,387.6 L 620.3,386.3 L 619.3,383.6 L 608.3,353.0 L 607.3,349.8 L 611.1,348.0 L 612.5,347.4 L 708.9,303.2 L 711.5,302.0 L 715.9,300.0 L 720.0,298.2 L 822.5,251.7 L 827.0,249.7 L 830.2,248.4 L 844.7,242.6 L 895.7,221.8 L 898.1,220.8 L 898.8,220.5 L 900.9,219.6 L 907.8,216.8 L 950.7,200.7 L 972.5,192.0 L 977.6,190.2 L 979.4,194.3 L 987.8,214.5 L 991.1,222.2 L 992.9,226.1 L 995.3,231.1 L 995.8,232.2 L 998.8,238.8 L 1019.0,280.7 L 1019.5,281.8 L 1024.8,293.5 L 1029.7,305.1 L 1030.5,306.9 L 1033.2,312.3 L 1038.2,325.4 L 1039.1,328.1 L 1039.8,330.9 L 1040.0,333.5 L 1039.6,335.5 L 1038.6,337.1 L 951.4,374.5 L 904.2,394.7 L 892.4,399.7 L 863.1,412.2 L 859.5,413.9 L 857.0,414.9 L 840.9,421.6 L 823.4,429.1 L 787.7,444.3 L 785.3,445.3 L 782.6,446.5 L 739.4,464.7 L 666.9,496.2 L 664.0,497.3 L 655.6,500.9 L 559.7,541.8 L 519.8,560.0 L 513.4,563.4 L 506.7,567.5 L 496.9,574.4 L 420.6,633.8 L 409.3,642.5 L 391.5,655.9 L 389.6,657.4 L 387.3,659.5 L 386.4,660.5 L 385.6,661.5 L 384.8,662.8 L 384.0,664.3 L 383.4,665.8 L 382.7,667.6 L 382.0,669.8 L 381.4,672.3 L 381.0,674.2 L 379.9,679.4 L 371.8,726.6 L 370.4,730.8 L 368.8,733.7 L 364.5,738.4 L 289.8,807.1 L 287.7,809.6 L 286.1,812.0 L 266.1,851.1 L 257.8,871.1 L 254.9,878.0 L 251.5,882.4 L 247.9,885.2 L 247.1,885.5 L 244.2,886.8 L 241.9,887.5 L 239.1,887.8 L 235.5,887.7 L 232.7,887.1 L 229.4,885.7 L 178.0,862.0 L 129.9,837.2 L 99.1,821.3 L 97.6,820.5 L 97.1,820.0 L 96.7,819.7 L 96.5,819.2 L 96.3,818.6 L 96.1,817.7 L 96.0,816.3 L 94.7,792.8 L 91.9,751.1 L 90.5,725.4 L 90.1,719.4 L 90.0,715.2 L 90.1,711.1 L 90.6,706.7 L 91.2,703.9 L 92.0,701.3 L 92.8,698.4 L 97.0,684.8 L 106.5,653.1 L 109.2,644.0 L 114.5,626.1 L 115.4,623.5 L 116.6,621.1 L 118.2,618.3 L 120.1,615.9 L 120.9,614.8 L 122.6,613.0 L 125.5,610.5 L 128.4,608.3 L 147.5,596.7 L 173.1,581.3 L 182.9,576.6 L 207.2,564.9 L 231.8,553.8 L 236.6,551.6 L 237.5,551.2 L 238.5,550.9 L 239.3,550.8 L 240.2,550.8 L 241.6,550.9 L 242.2,550.9 L 242.9,550.8 L 244.3,550.3 L 245.3,550.0 L 280.8,538.2 L 282.4,537.9 L 283.7,538.4 L 284.7,539.2 L 285.4,540.2 L 285.9,541.3 L 292.6,563.0 L 293.2,564.4 L 293.9,565.2 L 294.7,565.8 L 296.4,566.5 L 297.0,566.7 L 297.8,566.8 L 303.0,566.8 Z" fill="none" stroke="#000000" stroke-opacity="0.5" stroke-width="13" stroke-linejoin="round" stroke-linecap="round"/>
<path d="M 303.0,566.8 L 305.1,566.7 L 307.0,566.6 L 314.1,566.1 L 315.9,566.1 L 317.4,566.1 L 318.6,566.4 L 319.8,566.8 L 321.2,567.5 L 330.6,572.9 L 331.5,573.1 L 332.7,573.0 L 335.1,572.5 L 336.6,571.9 L 338.3,571.7 L 339.8,571.8 L 341.2,572.5 L 342.0,573.4 L 342.7,574.6 L 369.7,654.7 L 370.2,656.3 L 371.0,657.7 L 371.2,658.1 L 371.8,658.9 L 373.2,660.1 L 374.5,661.0 L 378.8,662.6 L 379.2,661.8 L 379.8,660.6 L 380.8,659.1 L 382.3,657.3 L 384.0,655.6 L 386.4,653.2 L 389.0,651.2 L 398.9,643.7 L 406.0,638.3 L 453.9,601.6 L 490.6,573.0 L 514.5,554.8 L 515.9,553.4 L 516.8,551.9 L 517.5,550.1 L 517.9,547.8 L 517.8,546.0 L 513.2,530.9 L 512.8,529.5 L 512.5,527.3 L 512.6,525.8 L 513.1,523.8 L 514.0,522.0 L 515.9,519.4 L 518.9,516.4 L 523.0,512.9 L 528.5,509.3 L 532.2,506.9 L 572.9,482.2 L 576.8,480.4 L 597.8,471.5 L 602.5,469.5 L 621.2,461.4 L 625.3,459.6 L 647.2,449.7 L 644.5,443.4 L 625.1,398.2 L 622.9,392.9 L 621.5,389.4 L 620.7,387.6 L 620.3,386.3 L 619.3,383.6 L 608.3,353.0 L 607.3,349.8 L 611.1,348.0 L 612.5,347.4 L 708.9,303.2 L 711.5,302.0 L 715.9,300.0 L 720.0,298.2 L 822.5,251.7 L 827.0,249.7 L 830.2,248.4 L 844.7,242.6 L 895.7,221.8 L 898.1,220.8 L 898.8,220.5 L 900.9,219.6 L 907.8,216.8 L 950.7,200.7 L 972.5,192.0 L 977.6,190.2 L 979.4,194.3 L 987.8,214.5 L 991.1,222.2 L 992.9,226.1 L 995.3,231.1 L 995.8,232.2 L 998.8,238.8 L 1019.0,280.7 L 1019.5,281.8 L 1024.8,293.5 L 1029.7,305.1 L 1030.5,306.9 L 1033.2,312.3 L 1038.2,325.4 L 1039.1,328.1 L 1039.8,330.9 L 1040.0,333.5 L 1039.6,335.5 L 1038.6,337.1 L 951.4,374.5 L 904.2,394.7 L 892.4,399.7 L 863.1,412.2 L 859.5,413.9 L 857.0,414.9 L 840.9,421.6 L 823.4,429.1 L 787.7,444.3 L 785.3,445.3 L 782.6,446.5 L 739.4,464.7 L 666.9,496.2 L 664.0,497.3 L 655.6,500.9 L 559.7,541.8 L 519.8,560.0 L 513.4,563.4 L 506.7,567.5 L 496.9,574.4 L 420.6,633.8 L 409.3,642.5 L 391.5,655.9 L 389.6,657.4 L 387.3,659.5 L 386.4,660.5 L 385.6,661.5 L 384.8,662.8 L 384.0,664.3 L 383.4,665.8 L 382.7,667.6 L 382.0,669.8 L 381.4,672.3 L 381.0,674.2 L 379.9,679.4 L 371.8,726.6 L 370.4,730.8 L 368.8,733.7 L 364.5,738.4 L 289.8,807.1 L 287.7,809.6 L 286.1,812.0 L 266.1,851.1 L 257.8,871.1 L 254.9,878.0 L 251.5,882.4 L 247.9,885.2 L 247.1,885.5 L 244.2,886.8 L 241.9,887.5 L 239.1,887.8 L 235.5,887.7 L 232.7,887.1 L 229.4,885.7 L 178.0,862.0 L 129.9,837.2 L 99.1,821.3 L 97.6,820.5 L 97.1,820.0 L 96.7,819.7 L 96.5,819.2 L 96.3,818.6 L 96.1,817.7 L 96.0,816.3 L 94.7,792.8 L 91.9,751.1 L 90.5,725.4 L 90.1,719.4 L 90.0,715.2 L 90.1,711.1 L 90.6,706.7 L 91.2,703.9 L 92.0,701.3 L 92.8,698.4 L 97.0,684.8 L 106.5,653.1 L 109.2,644.0 L 114.5,626.1 L 115.4,623.5 L 116.6,621.1 L 118.2,618.3 L 120.1,615.9 L 120.9,614.8 L 122.6,613.0 L 125.5,610.5 L 128.4,608.3 L 147.5,596.7 L 173.1,581.3 L 182.9,576.6 L 207.2,564.9 L 231.8,553.8 L 236.6,551.6 L 237.5,551.2 L 238.5,550.9 L 239.3,550.8 L 240.2,550.8 L 241.6,550.9 L 242.2,550.9 L 242.9,550.8 L 244.3,550.3 L 245.3,550.0 L 280.8,538.2 L 282.4,537.9 L 283.7,538.4 L 284.7,539.2 L 285.4,540.2 L 285.9,541.3 L 292.6,563.0 L 293.2,564.4 L 293.9,565.2 L 294.7,565.8 L 296.4,566.5 L 297.0,566.7 L 297.8,566.8 L 303.0,566.8 Z" fill="none" stroke="#39404f" stroke-width="8.5" stroke-linejoin="round" stroke-linecap="round"/>
<path d="M 303.0,566.8 L 305.1,566.7 L 307.0,566.6 L 314.1,566.1 L 315.9,566.1 L 317.4,566.1 L 318.6,566.4 L 319.8,566.8 L 321.2,567.5 L 330.6,572.9 L 331.5,573.1 L 332.7,573.0 L 335.1,572.5 L 336.6,571.9 L 338.3,571.7 L 339.8,571.8 L 341.2,572.5 L 342.0,573.4 L 342.7,574.6 L 369.7,654.7 L 370.2,656.3 L 371.0,657.7 L 371.2,658.1 L 371.8,658.9 L 373.2,660.1 L 374.5,661.0 L 378.8,662.6 L 379.2,661.8 L 379.8,660.6 L 380.8,659.1 L 382.3,657.3 L 384.0,655.6 L 386.4,653.2 L 389.0,651.2 L 398.9,643.7 L 406.0,638.3 L 453.9,601.6 L 490.6,573.0 L 514.5,554.8 L 515.9,553.4 L 516.8,551.9 L 517.5,550.1 L 517.9,547.8 L 517.8,546.0 L 513.2,530.9 L 512.8,529.5 L 512.5,527.3 L 512.6,525.8 L 513.1,523.8 L 514.0,522.0 L 515.9,519.4 L 518.9,516.4 L 523.0,512.9 L 528.5,509.3 L 532.2,506.9 L 572.9,482.2 L 576.8,480.4 L 597.8,471.5 L 602.5,469.5 L 621.2,461.4 L 625.3,459.6 L 647.2,449.7 L 644.5,443.4 L 625.1,398.2 L 622.9,392.9 L 621.5,389.4 L 620.7,387.6 L 620.3,386.3 L 619.3,383.6 L 608.3,353.0 L 607.3,349.8 L 611.1,348.0 L 612.5,347.4 L 708.9,303.2 L 711.5,302.0 L 715.9,300.0 L 720.0,298.2 L 822.5,251.7 L 827.0,249.7 L 830.2,248.4 L 844.7,242.6 L 895.7,221.8 L 898.1,220.8 L 898.8,220.5 L 900.9,219.6 L 907.8,216.8 L 950.7,200.7 L 972.5,192.0 L 977.6,190.2 L 979.4,194.3 L 987.8,214.5 L 991.1,222.2 L 992.9,226.1 L 995.3,231.1 L 995.8,232.2 L 998.8,238.8 L 1019.0,280.7 L 1019.5,281.8 L 1024.8,293.5 L 1029.7,305.1 L 1030.5,306.9 L 1033.2,312.3 L 1038.2,325.4 L 1039.1,328.1 L 1039.8,330.9 L 1040.0,333.5 L 1039.6,335.5 L 1038.6,337.1 L 951.4,374.5 L 904.2,394.7 L 892.4,399.7 L 863.1,412.2 L 859.5,413.9 L 857.0,414.9 L 840.9,421.6 L 823.4,429.1 L 787.7,444.3 L 785.3,445.3 L 782.6,446.5 L 739.4,464.7 L 666.9,496.2 L 664.0,497.3 L 655.6,500.9 L 559.7,541.8 L 519.8,560.0 L 513.4,563.4 L 506.7,567.5 L 496.9,574.4 L 420.6,633.8 L 409.3,642.5 L 391.5,655.9 L 389.6,657.4 L 387.3,659.5 L 386.4,660.5 L 385.6,661.5 L 384.8,662.8 L 384.0,664.3 L 383.4,665.8 L 382.7,667.6 L 382.0,669.8 L 381.4,672.3 L 381.0,674.2 L 379.9,679.4 L 371.8,726.6 L 370.4,730.8 L 368.8,733.7 L 364.5,738.4 L 289.8,807.1 L 287.7,809.6 L 286.1,812.0 L 266.1,851.1 L 257.8,871.1 L 254.9,878.0 L 251.5,882.4 L 247.9,885.2 L 247.1,885.5 L 244.2,886.8 L 241.9,887.5 L 239.1,887.8 L 235.5,887.7 L 232.7,887.1 L 229.4,885.7 L 178.0,862.0 L 129.9,837.2 L 99.1,821.3 L 97.6,820.5 L 97.1,820.0 L 96.7,819.7 L 96.5,819.2 L 96.3,818.6 L 96.1,817.7 L 96.0,816.3 L 94.7,792.8 L 91.9,751.1 L 90.5,725.4 L 90.1,719.4 L 90.0,715.2 L 90.1,711.1 L 90.6,706.7 L 91.2,703.9 L 92.0,701.3 L 92.8,698.4 L 97.0,684.8 L 106.5,653.1 L 109.2,644.0 L 114.5,626.1 L 115.4,623.5 L 116.6,621.1 L 118.2,618.3 L 120.1,615.9 L 120.9,614.8 L 122.6,613.0 L 125.5,610.5 L 128.4,608.3 L 147.5,596.7 L 173.1,581.3 L 182.9,576.6 L 207.2,564.9 L 231.8,553.8 L 236.6,551.6 L 237.5,551.2 L 238.5,550.9 L 239.3,550.8 L 240.2,550.8 L 241.6,550.9 L 242.2,550.9 L 242.9,550.8 L 244.3,550.3 L 245.3,550.0 L 280.8,538.2 L 282.4,537.9 L 283.7,538.4 L 284.7,539.2 L 285.4,540.2 L 285.9,541.3 L 292.6,563.0 L 293.2,564.4 L 293.9,565.2 L 294.7,565.8 L 296.4,566.5 L 297.0,566.7 L 297.8,566.8 L 303.0,566.8 Z" fill="none" stroke="#e7edf8" stroke-width="2.6" stroke-linejoin="round" stroke-linecap="round"/>
<path d="M 303.0,566.8 L 305.1,566.7 L 307.0,566.6 L 314.1,566.1 L 315.9,566.1 L 317.4,566.1 L 318.6,566.4 L 319.8,566.8 L 321.2,567.5 L 330.6,572.9 L 331.5,573.1 L 332.7,573.0 L 335.1,572.5 L 336.6,571.9 L 338.3,571.7 L 339.8,571.8 L 341.2,572.5 L 342.0,573.4 L 342.7,574.6 L 369.7,654.7 L 370.2,656.3 L 371.0,657.7 L 371.2,658.1 L 371.8,658.9 L 373.2,660.1 L 374.5,661.0 L 378.8,662.6 L 379.2,661.8 L 379.8,660.6 L 380.8,659.1 L 382.3,657.3 L 384.0,655.6 L 386.4,653.2 L 389.0,651.2 L 398.9,643.7 L 406.0,638.3 L 453.9,601.6 L 490.6,573.0 L 514.5,554.8 L 515.9,553.4 L 516.8,551.9 L 517.5,550.1 L 517.9,547.8 L 517.8,546.0 L 513.2,530.9 L 512.8,529.5 L 512.5,527.3 L 512.6,525.8 L 513.1,523.8 L 514.0,522.0 L 515.9,519.4 L 518.9,516.4 L 523.0,512.9 L 528.5,509.3 L 532.2,506.9 L 572.9,482.2 L 576.8,480.4 L 597.8,471.5 L 602.5,469.5 L 621.2,461.4 L 625.3,459.6 L 647.2,449.7 L 644.5,443.4 L 625.1,398.2 L 622.9,392.9 L 621.5,389.4 L 620.7,387.6 L 620.3,386.3 L 619.3,383.6 L 608.3,353.0 L 607.3,349.8 L 611.1,348.0 L 612.5,347.4 L 708.9,303.2 L 711.5,302.0 L 715.9,300.0 L 720.0,298.2 L 822.5,251.7 L 827.0,249.7 L 830.2,248.4 L 844.7,242.6 L 895.7,221.8 L 898.1,220.8 L 898.8,220.5 L 900.9,219.6 L 907.8,216.8 L 950.7,200.7 L 972.5,192.0 L 977.6,190.2 L 979.4,194.3 L 987.8,214.5 L 991.1,222.2 L 992.9,226.1 L 995.3,231.1 L 995.8,232.2 L 998.8,238.8 L 1019.0,280.7 L 1019.5,281.8 L 1024.8,293.5 L 1029.7,305.1 L 1030.5,306.9 L 1033.2,312.3 L 1038.2,325.4 L 1039.1,328.1 L 1039.8,330.9 L 1040.0,333.5 L 1039.6,335.5 L 1038.6,337.1 L 951.4,374.5 L 904.2,394.7 L 892.4,399.7 L 863.1,412.2 L 859.5,413.9 L 857.0,414.9 L 840.9,421.6 L 823.4,429.1 L 787.7,444.3 L 785.3,445.3 L 782.6,446.5 L 739.4,464.7 L 666.9,496.2 L 664.0,497.3 L 655.6,500.9 L 559.7,541.8 L 519.8,560.0 L 513.4,563.4 L 506.7,567.5 L 496.9,574.4 L 420.6,633.8 L 409.3,642.5 L 391.5,655.9 L 389.6,657.4 L 387.3,659.5 L 386.4,660.5 L 385.6,661.5 L 384.8,662.8 L 384.0,664.3 L 383.4,665.8 L 382.7,667.6 L 382.0,669.8 L 381.4,672.3 L 381.0,674.2 L 379.9,679.4 L 371.8,726.6 L 370.4,730.8 L 368.8,733.7 L 364.5,738.4 L 289.8,807.1 L 287.7,809.6 L 286.1,812.0 L 266.1,851.1 L 257.8,871.1 L 254.9,878.0 L 251.5,882.4 L 247.9,885.2 L 247.1,885.5 L 244.2,886.8 L 241.9,887.5 L 239.1,887.8 L 235.5,887.7 L 232.7,887.1 L 229.4,885.7 L 178.0,862.0 L 129.9,837.2 L 99.1,821.3 L 97.6,820.5 L 97.1,820.0 L 96.7,819.7 L 96.5,819.2 L 96.3,818.6 L 96.1,817.7 L 96.0,816.3 L 94.7,792.8 L 91.9,751.1 L 90.5,725.4 L 90.1,719.4 L 90.0,715.2 L 90.1,711.1 L 90.6,706.7 L 91.2,703.9 L 92.0,701.3 L 92.8,698.4 L 97.0,684.8 L 106.5,653.1 L 109.2,644.0 L 114.5,626.1 L 115.4,623.5 L 116.6,621.1 L 118.2,618.3 L 120.1,615.9 L 120.9,614.8 L 122.6,613.0 L 125.5,610.5 L 128.4,608.3 L 147.5,596.7 L 173.1,581.3 L 182.9,576.6 L 207.2,564.9 L 231.8,553.8 L 236.6,551.6 L 237.5,551.2 L 238.5,550.9 L 239.3,550.8 L 240.2,550.8 L 241.6,550.9 L 242.2,550.9 L 242.9,550.8 L 244.3,550.3 L 245.3,550.0 L 280.8,538.2 L 282.4,537.9 L 283.7,538.4 L 284.7,539.2 L 285.4,540.2 L 285.9,541.3 L 292.6,563.0 L 293.2,564.4 L 293.9,565.2 L 294.7,565.8 L 296.4,566.5 L 297.0,566.7 L 297.8,566.8 L 303.0,566.8 Z" fill="none" stroke="#ff5a36" stroke-opacity="0.55" stroke-width="1.2" stroke-linejoin="round" filter="url(#glow)"/>
<circle cx="266.1" cy="851.1" r="13" fill="none" stroke="#ffffff" stroke-width="3"/>
<rect x="262.1" y="829.1" width="8" height="18" fill="#ffffff"/>
<circle cx="361.6" cy="741.1" r="7" fill="#ff5a36" stroke="#0a0c12" stroke-width="2.5" filter="url(#glow)"/>
<text x="361.6" y="744.5" font-size="9" font-weight="700" fill="#0a0c12" text-anchor="middle">1</text>
<circle cx="443.5" cy="616.0" r="7" fill="#ff5a36" stroke="#0a0c12" stroke-width="2.5" filter="url(#glow)"/>
<text x="443.5" y="619.4" font-size="9" font-weight="700" fill="#0a0c12" text-anchor="middle">2</text>
<circle cx="802.0" cy="438.2" r="7" fill="#ff5a36" stroke="#0a0c12" stroke-width="2.5" filter="url(#glow)"/>
<text x="802.0" y="441.6" font-size="9" font-weight="700" fill="#0a0c12" text-anchor="middle">3</text>
<circle cx="898.0" cy="397.3" r="7" fill="#ff5a36" stroke="#0a0c12" stroke-width="2.5" filter="url(#glow)"/>
<text x="898.0" y="400.7" font-size="9" font-weight="700" fill="#0a0c12" text-anchor="middle">4</text>
<circle cx="1039.5" cy="329.6" r="7" fill="#ff5a36" stroke="#0a0c12" stroke-width="2.5" filter="url(#glow)"/>
<text x="1039.5" y="333.0" font-size="9" font-weight="700" fill="#0a0c12" text-anchor="middle">5</text>
<circle cx="1030.3" cy="306.5" r="7" fill="#ff5a36" stroke="#0a0c12" stroke-width="2.5" filter="url(#glow)"/>
<text x="1030.3" y="309.9" font-size="9" font-weight="700" fill="#0a0c12" text-anchor="middle">6</text>
<circle cx="928.8" cy="208.9" r="7" fill="#ff5a36" stroke="#0a0c12" stroke-width="2.5" filter="url(#glow)"/>
<text x="928.8" y="212.3" font-size="9" font-weight="700" fill="#0a0c12" text-anchor="middle">7</text>
<circle cx="836.9" cy="245.7" r="7" fill="#ff5a36" stroke="#0a0c12" stroke-width="2.5" filter="url(#glow)"/>
<text x="836.9" y="249.1" font-size="9" font-weight="700" fill="#0a0c12" text-anchor="middle">8</text>
<circle cx="827.8" cy="249.3" r="7" fill="#ff5a36" stroke="#0a0c12" stroke-width="2.5" filter="url(#glow)"/>
<text x="827.8" y="252.7" font-size="9" font-weight="700" fill="#0a0c12" text-anchor="middle">9</text>
<circle cx="817.9" cy="253.8" r="7" fill="#ff5a36" stroke="#0a0c12" stroke-width="2.5" filter="url(#glow)"/>
<text x="817.9" y="257.2" font-size="9" font-weight="700" fill="#0a0c12" text-anchor="middle">10</text>
<circle cx="795.7" cy="263.8" r="7" fill="#ff5a36" stroke="#0a0c12" stroke-width="2.5" filter="url(#glow)"/>
<text x="795.7" y="267.2" font-size="9" font-weight="700" fill="#0a0c12" text-anchor="middle">11</text>
<circle cx="769.4" cy="275.8" r="7" fill="#ff5a36" stroke="#0a0c12" stroke-width="2.5" filter="url(#glow)"/>
<text x="769.4" y="279.2" font-size="9" font-weight="700" fill="#0a0c12" text-anchor="middle">12</text>
<circle cx="607.8" cy="351.4" r="7" fill="#ff5a36" stroke="#0a0c12" stroke-width="2.5" filter="url(#glow)"/>
<text x="607.8" y="354.8" font-size="9" font-weight="700" fill="#0a0c12" text-anchor="middle">13</text>
<circle cx="646.9" cy="449.8" r="7" fill="#ff5a36" stroke="#0a0c12" stroke-width="2.5" filter="url(#glow)"/>
<text x="646.9" y="453.2" font-size="9" font-weight="700" fill="#0a0c12" text-anchor="middle">14</text>
<circle cx="551.8" cy="495.0" r="7" fill="#ff5a36" stroke="#0a0c12" stroke-width="2.5" filter="url(#glow)"/>
<text x="551.8" y="498.4" font-size="9" font-weight="700" fill="#0a0c12" text-anchor="middle">15</text>
<circle cx="449.0" cy="605.4" r="7" fill="#ff5a36" stroke="#0a0c12" stroke-width="2.5" filter="url(#glow)"/>
<text x="449.0" y="608.8" font-size="9" font-weight="700" fill="#0a0c12" text-anchor="middle">16</text>
<circle cx="375.3" cy="661.3" r="7" fill="#ff5a36" stroke="#0a0c12" stroke-width="2.5" filter="url(#glow)"/>
<text x="375.3" y="664.7" font-size="9" font-weight="700" fill="#0a0c12" text-anchor="middle">17</text>
<circle cx="323.1" cy="568.6" r="7" fill="#ff5a36" stroke="#0a0c12" stroke-width="2.5" filter="url(#glow)"/>
<text x="323.1" y="572.0" font-size="9" font-weight="700" fill="#0a0c12" text-anchor="middle">18</text>
<circle cx="277.6" cy="539.2" r="7" fill="#ff5a36" stroke="#0a0c12" stroke-width="2.5" filter="url(#glow)"/>
<text x="277.6" y="542.6" font-size="9" font-weight="700" fill="#0a0c12" text-anchor="middle">19</text>
<circle cx="136.7" cy="603.3" r="7" fill="#ff5a36" stroke="#0a0c12" stroke-width="2.5" filter="url(#glow)"/>
<text x="136.7" y="606.7" font-size="9" font-weight="700" fill="#0a0c12" text-anchor="middle">20</text>
<line x1="898.0" y1="397.3" x2="947.2" y2="382.1" stroke="#ff5a36" stroke-opacity="0.45" stroke-width="1.3"/>
<text x="955.2" y="386.1" font-size="15" font-weight="600" fill="#eef2fb" text-anchor="start">T4</text>
<line x1="1039.5" y1="329.6" x2="1088.2" y2="350.1" stroke="#ff5a36" stroke-opacity="0.45" stroke-width="1.3"/>
<text x="1096.2" y="354.1" font-size="15" font-weight="600" fill="#eef2fb" text-anchor="start">T5</text>
<line x1="1030.3" y1="306.5" x2="1078.1" y2="286.1" stroke="#ff5a36" stroke-opacity="0.45" stroke-width="1.3"/>
<text x="1086.1" y="290.1" font-size="15" font-weight="600" fill="#eef2fb" text-anchor="start">T6</text>
<line x1="817.9" y1="253.8" x2="857.6" y2="220.2" stroke="#ff5a36" stroke-opacity="0.45" stroke-width="1.3"/>
<text x="865.6" y="224.2" font-size="15" font-weight="600" fill="#eef2fb" text-anchor="start">Castle Section</text>
<line x1="607.8" y1="351.4" x2="637.2" y2="318.1" stroke="#ff5a36" stroke-opacity="0.45" stroke-width="1.3"/>
<text x="645.2" y="322.1" font-size="15" font-weight="600" fill="#eef2fb" text-anchor="start">T13</text>
<line x1="646.9" y1="449.8" x2="692.5" y2="424.9" stroke="#ff5a36" stroke-opacity="0.45" stroke-width="1.3"/>
<text x="700.5" y="428.9" font-size="15" font-weight="600" fill="#eef2fb" text-anchor="start">T14</text>
<line x1="375.3" y1="661.3" x2="341.5" y2="700.8" stroke="#ff5a36" stroke-opacity="0.45" stroke-width="1.3"/>
<text x="333.5" y="704.8" font-size="15" font-weight="600" fill="#eef2fb" text-anchor="end">T17</text>
<line x1="277.6" y1="539.2" x2="225.6" y2="538.4" stroke="#ff5a36" stroke-opacity="0.45" stroke-width="1.3"/>
<text x="217.6" y="542.4" font-size="15" font-weight="600" fill="#eef2fb" text-anchor="end">T19</text>
<text x="90" y="64" font-size="20" letter-spacing="5" fill="#ff5a36" font-weight="700">TRACK ATLAS</text>
<text x="90" y="108" font-size="42" font-weight="800" fill="#ffffff">BAKU CITY CIRCUIT</text>
<text x="90" y="136" font-size="16" fill="#9aa6bd">Baku</text>
<rect x="1170" y="200" width="360" height="710" rx="16" fill="#ffffff" fill-opacity="0.04" stroke="#ff5a36" stroke-opacity="0.5"/>
<text x="1198" y="250" font-size="13" letter-spacing="2" fill="#8794ab">LAYOUT</text>
<text x="1198" y="276" font-size="22" font-weight="700" fill="#eef2fb">Grand Prix Circuit</text>
<text x="1198" y="320" font-size="13" letter-spacing="2" fill="#8794ab">LENGTH</text>
<text x="1198" y="346" font-size="22" font-weight="700" fill="#eef2fb">6.003 km</text>
<text x="1198" y="390" font-size="13" letter-spacing="2" fill="#8794ab">CORNERS</text>
<text x="1198" y="416" font-size="22" font-weight="700" fill="#eef2fb">20</text>
<text x="1198" y="460" font-size="13" letter-spacing="2" fill="#8794ab">NAMED CORNERS</text>
<text x="1198" y="486" font-size="22" font-weight="700" fill="#eef2fb">11</text>
<text x="1198" y="530" font-size="13" letter-spacing="2" fill="#8794ab">DIRECTION</text>
<text x="1198" y="556" font-size="22" font-weight="700" fill="#eef2fb">Anticlockwise</text>
<text x="1198" y="600" font-size="13" letter-spacing="2" fill="#8794ab">SECTORS</text>
<text x="1198" y="626" font-size="22" font-weight="700" fill="#eef2fb">3</text>
<text x="1198" y="670" font-size="13" letter-spacing="2" fill="#8794ab">COUNTRY</text>
<text x="1198" y="696" font-size="22" font-weight="700" fill="#eef2fb">AZ</text>
<text x="1198" y="740" font-size="13" letter-spacing="2" fill="#8794ab">LOCATION</text>
<text x="1198" y="766" font-size="22" font-weight="700" fill="#eef2fb">Baku</text>
<text x="1198" y="810" font-size="13" letter-spacing="2" fill="#8794ab">COMPLEXES</text>
<rect x="1198" y="816" width="126" height="24" rx="12" fill="#ff5a36" fill-opacity="0.16" stroke="#ff5a36" stroke-opacity="0.5"/>
<text x="1261" y="833" font-size="12" fill="#eef2fb" text-anchor="middle">Castle Section</text>
<text x="90" y="966" font-size="12" fill="#566177">Geometry © OpenStreetMap contributors (ODbL) · corner data: Lovely-Sim-Racing + curated · track-atlas</text>
<text x="90" y="942" font-size="12" fill="#8794ab">⚑ start / finish</text>
</svg>