<svg xmlns="http://www.w3.org/2000/svg" width="1600" height="1000" viewBox="0 0 1600 1000" font-family="Helvetica, Arial, sans-serif">
<defs>
      <radialGradient id="bg" cx="38%" cy="34%" r="85%">
        <stop offset="0%" stop-color="#1b2030"/>
        <stop offset="55%" stop-color="#12151f"/>
        <stop offset="100%" stop-color="#0a0c12"/>
      </radialGradient>
      <linearGradient id="accent" x1="0" y1="0" x2="1" y2="1">
        <stop offset="0%" stop-color="#ff5a36"/>
        <stop offset="100%" stop-color="#ffffff"/>
      </linearGradient>
      <filter id="glow" x="-40%" y="-40%" width="180%" height="180%">
        <feGaussianBlur stdDeviation="6" result="b"/>
        <feMerge><feMergeNode in="b"/><feMergeNode in="SourceGraphic"/></feMerge>
      </filter>
    </defs>
<rect width="1600" height="1000" fill="url(#bg)"/>
<path d="M 749.1,671.1 L 747.6,674.0 L 745.7,676.6 L 743.2,679.3 L 738.2,684.1 L 732.9,688.5 L 728.7,691.4 L 724.3,694.0 L 713.4,700.2 L 628.8,747.7 L 611.9,757.2 L 553.2,790.1 L 469.8,837.0 L 357.2,900.1 L 342.7,908.2 L 340.1,909.4 L 337.3,910.0 L 334.4,910.0 L 331.6,909.4 L 329.1,908.4 L 326.9,907.0 L 325.0,905.2 L 323.5,903.0 L 311.9,877.5 L 309.9,872.2 L 308.3,866.8 L 307.1,861.3 L 306.3,855.8 L 306.0,850.1 L 306.1,844.5 L 306.6,838.9 L 307.3,819.2 L 309.8,747.2 L 310.0,745.1 L 328.7,269.4 L 330.5,225.4 L 332.5,177.7 L 332.6,175.6 L 332.9,173.5 L 333.8,171.6 L 335.2,170.0 L 337.0,168.8 L 338.9,168.2 L 340.9,168.0 L 342.9,168.4 L 344.7,169.2 L 346.3,170.5 L 349.1,172.9 L 379.5,202.3 L 381.3,203.8 L 383.4,204.9 L 385.6,205.7 L 387.9,206.1 L 390.7,206.2 L 393.4,205.6 L 396.0,204.6 L 438.9,190.1 L 444.4,188.9 L 450.1,188.1 L 455.7,187.8 L 462.1,188.0 L 468.5,188.8 L 472.0,189.6 L 492.7,193.6 L 589.3,212.1 L 690.5,230.9 L 727.6,238.0 L 795.5,251.2 L 797.6,251.7 L 799.6,252.7 L 801.3,254.0 L 802.7,255.7 L 803.7,257.6 L 804.3,259.7 L 804.5,261.9 L 804.1,268.5 L 803.4,272.8 L 802.3,277.0 L 800.5,281.6 L 798.0,286.0 L 795.4,289.4 L 790.9,293.6 L 777.1,319.1 L 775.2,323.1 L 773.9,327.4 L 773.1,331.8 L 772.9,336.2 L 773.3,340.9 L 774.3,345.5 L 775.9,350.0 L 778.1,354.2 L 811.8,418.2 L 814.8,423.8 L 817.4,429.7 L 819.5,435.7 L 821.5,442.5 L 822.9,449.4 L 823.7,456.4 L 824.0,463.5 L 823.8,470.6 L 823.0,477.6 L 821.6,484.5 L 819.8,491.3 L 817.7,497.0 L 814.6,504.2 L 811.4,510.2 L 807.7,515.9 L 803.6,521.4 L 793.1,532.6 L 791.3,534.4 L 789.7,536.5 L 788.5,538.9 L 787.8,541.4 L 787.4,544.3 L 787.5,547.2 L 788.2,550.1 L 789.4,552.8 L 799.0,568.9 L 800.8,571.6 L 802.0,574.5 L 802.6,577.6 L 802.7,580.3 L 802.3,583.0 L 801.6,585.5 L 800.4,587.9 L 785.9,610.6 L 784.4,612.2 L 782.5,613.5 L 780.4,614.3 L 778.2,614.6 L 776.0,614.5 L 773.8,613.9 L 771.9,612.8 L 770.2,611.3 L 766.0,605.8 L 760.9,598.2 L 756.9,592.7 L 752.6,587.4 L 748.1,582.4 L 743.5,577.9 L 738.7,573.7 L 732.9,569.2 L 726.8,565.2 L 722.8,562.8 L 718.6,560.7 L 715.8,559.5 L 713.0,558.0 L 711.0,556.6 L 709.1,555.1 L 707.1,552.8 L 705.5,550.2 L 704.3,547.4 L 703.5,544.5 L 703.1,541.2 L 703.3,538.0 L 704.4,534.6 L 705.8,531.4 L 707.6,528.4 L 710.1,525.0 L 713.1,522.0 L 723.5,511.4 L 737.0,497.5 L 738.7,495.9 L 740.0,494.1 L 741.0,492.1 L 741.6,489.9 L 741.8,487.4 L 741.5,484.9 L 740.8,482.5 L 739.8,479.3 L 738.0,473.3 L 735.8,462.1 L 734.2,452.4 L 733.1,442.7 L 732.7,435.9 L 732.5,433.5 L 732.4,424.4 L 732.7,417.3 L 732.9,402.6 L 732.7,398.6 L 732.4,394.1 L 731.8,390.8 L 730.6,387.8 L 729.0,384.9 L 727.0,382.3 L 724.7,380.2 L 722.1,378.4 L 719.3,377.0 L 716.3,376.1 L 713.2,375.6 L 699.3,374.3 L 695.5,379.8 L 691.5,386.6 L 688.1,393.8 L 682.1,408.3 L 679.9,413.2 L 678.3,416.3 L 675.6,419.8 L 672.6,423.0 L 669.1,425.8 L 665.1,428.4 L 660.7,430.4 L 656.1,431.8 L 651.3,432.5 L 646.5,432.6 L 641.9,432.1 L 620.1,428.4 L 615.6,427.5 L 610.1,426.9 L 603.6,427.0 L 597.7,428.0 L 593.6,429.3 L 589.7,430.9 L 585.9,433.0 L 581.2,436.5 L 576.8,440.3 L 572.7,444.4 L 568.9,448.9 L 502.9,534.9 L 501.1,536.8 L 498.9,538.3 L 496.5,539.3 L 493.9,539.7 L 491.3,539.6 L 488.8,538.9 L 486.5,537.8 L 484.5,536.1 L 482.8,534.1 L 481.6,531.8 L 481.0,529.3 L 480.1,525.1 L 479.5,520.7 L 479.3,516.4 L 479.4,511.4 L 480.1,506.4 L 494.9,413.9 L 506.5,340.4 L 507.0,335.8 L 507.1,331.0 L 506.7,326.3 L 505.8,321.7 L 504.6,317.7 L 503.1,313.8 L 501.3,310.1 L 499.1,306.6 L 494.0,300.5 L 488.4,294.9 L 484.4,291.4 L 480.1,288.0 L 475.7,284.9 L 465.8,277.1 L 464.6,276.4 L 463.2,276.0 L 461.7,276.0 L 460.4,276.4 L 458.9,277.4 L 457.9,278.7 L 457.4,280.4 L 452.4,316.2 L 448.4,346.8 L 446.5,365.5 L 445.1,384.2 L 444.0,407.2 L 440.8,498.1 L 437.0,589.8 L 433.3,681.6 L 432.7,697.9 L 432.6,701.7 L 432.7,705.5 L 433.4,709.2 L 434.7,712.8 L 436.2,715.7 L 438.1,718.5 L 440.3,720.9 L 442.9,723.1 L 446.8,725.1 L 451.7,726.3 L 456.7,727.2 L 461.6,727.7 L 466.5,728.0 L 469.9,727.9 L 476.3,727.5 L 482.6,726.5 L 488.7,725.0 L 494.8,723.1 L 501.2,720.4 L 507.3,717.2 L 513.2,713.4 L 518.7,709.2 L 524.0,704.5 L 528.9,699.4 L 533.5,694.0 L 537.3,689.0 L 540.7,683.7 L 543.8,678.3 L 546.6,672.6 L 549.7,665.2 L 552.3,657.5 L 561.5,632.2 L 564.3,626.6 L 567.6,621.2 L 571.3,616.2 L 575.4,611.4 L 579.5,607.4 L 584.0,603.7 L 588.7,600.3 L 593.7,597.3 L 598.9,594.8 L 604.2,592.6 L 609.7,590.8 L 615.2,589.4 L 620.9,588.4 L 626.9,587.8 L 632.9,587.7 L 638.9,588.1 L 644.9,588.9 L 651.7,590.5 L 658.4,592.7 L 663.8,594.9 L 669.0,597.4 L 677.9,602.1 L 714.7,620.1 L 719.7,622.4 L 724.5,625.1 L 729.0,628.2 L 733.2,631.8 L 737.0,635.6 L 740.3,639.5 L 743.2,643.5 L 745.7,647.8 L 747.9,652.3 L 749.4,655.3 L 750.3,658.4 L 750.8,661.6 L 750.8,664.9 L 750.2,668.1 L 749.1,671.1 Z" fill="none" stroke="#000000" stroke-opacity="0.5" stroke-width="13" stroke-linejoin="round" stroke-linecap="round"/>
<path d="M 749.1,671.1 L 747.6,674.0 L 745.7,676.6 L 743.2,679.3 L 738.2,684.1 L 732.9,688.5 L 728.7,691.4 L 724.3,694.0 L 713.4,700.2 L 628.8,747.7 L 611.9,757.2 L 553.2,790.1 L 469.8,837.0 L 357.2,900.1 L 342.7,908.2 L 340.1,909.4 L 337.3,910.0 L 334.4,910.0 L 331.6,909.4 L 329.1,908.4 L 326.9,907.0 L 325.0,905.2 L 323.5,903.0 L 311.9,877.5 L 309.9,872.2 L 308.3,866.8 L 307.1,861.3 L 306.3,855.8 L 306.0,850.1 L 306.1,844.5 L 306.6,838.9 L 307.3,819.2 L 309.8,747.2 L 310.0,745.1 L 328.7,269.4 L 330.5,225.4 L 332.5,177.7 L 332.6,175.6 L 332.9,173.5 L 333.8,171.6 L 335.2,170.0 L 337.0,168.8 L 338.9,168.2 L 340.9,168.0 L 342.9,168.4 L 344.7,169.2 L 346.3,170.5 L 349.1,172.9 L 379.5,202.3 L 381.3,203.8 L 383.4,204.9 L 385.6,205.7 L 387.9,206.1 L 390.7,206.2 L 393.4,205.6 L 396.0,204.6 L 438.9,190.1 L 444.4,188.9 L 450.1,188.1 L 455.7,187.8 L 462.1,188.0 L 468.5,188.8 L 472.0,189.6 L 492.7,193.6 L 589.3,212.1 L 690.5,230.9 L 727.6,238.0 L 795.5,251.2 L 797.6,251.7 L 799.6,252.7 L 801.3,254.0 L 802.7,255.7 L 803.7,257.6 L 804.3,259.7 L 804.5,261.9 L 804.1,268.5 L 803.4,272.8 L 802.3,277.0 L 800.5,281.6 L 798.0,286.0 L 795.4,289.4 L 790.9,293.6 L 777.1,319.1 L 775.2,323.1 L 773.9,327.4 L 773.1,331.8 L 772.9,336.2 L 773.3,340.9 L 774.3,345.5 L 775.9,350.0 L 778.1,354.2 L 811.8,418.2 L 814.8,423.8 L 817.4,429.7 L 819.5,435.7 L 821.5,442.5 L 822.9,449.4 L 823.7,456.4 L 824.0,463.5 L 823.8,470.6 L 823.0,477.6 L 821.6,484.5 L 819.8,491.3 L 817.7,497.0 L 814.6,504.2 L 811.4,510.2 L 807.7,515.9 L 803.6,521.4 L 793.1,532.6 L 791.3,534.4 L 789.7,536.5 L 788.5,538.9 L 787.8,541.4 L 787.4,544.3 L 787.5,547.2 L 788.2,550.1 L 789.4,552.8 L 799.0,568.9 L 800.8,571.6 L 802.0,574.5 L 802.6,577.6 L 802.7,580.3 L 802.3,583.0 L 801.6,585.5 L 800.4,587.9 L 785.9,610.6 L 784.4,612.2 L 782.5,613.5 L 780.4,614.3 L 778.2,614.6 L 776.0,614.5 L 773.8,613.9 L 771.9,612.8 L 770.2,611.3 L 766.0,605.8 L 760.9,598.2 L 756.9,592.7 L 752.6,587.4 L 748.1,582.4 L 743.5,577.9 L 738.7,573.7 L 732.9,569.2 L 726.8,565.2 L 722.8,562.8 L 718.6,560.7 L 715.8,559.5 L 713.0,558.0 L 711.0,556.6 L 709.1,555.1 L 707.1,552.8 L 705.5,550.2 L 704.3,547.4 L 703.5,544.5 L 703.1,541.2 L 703.3,538.0 L 704.4,534.6 L 705.8,531.4 L 707.6,528.4 L 710.1,525.0 L 713.1,522.0 L 723.5,511.4 L 737.0,497.5 L 738.7,495.9 L 740.0,494.1 L 741.0,492.1 L 741.6,489.9 L 741.8,487.4 L 741.5,484.9 L 740.8,482.5 L 739.8,479.3 L 738.0,473.3 L 735.8,462.1 L 734.2,452.4 L 733.1,442.7 L 732.7,435.9 L 732.5,433.5 L 732.4,424.4 L 732.7,417.3 L 732.9,402.6 L 732.7,398.6 L 732.4,394.1 L 731.8,390.8 L 730.6,387.8 L 729.0,384.9 L 727.0,382.3 L 724.7,380.2 L 722.1,378.4 L 719.3,377.0 L 716.3,376.1 L 713.2,375.6 L 699.3,374.3 L 695.5,379.8 L 691.5,386.6 L 688.1,393.8 L 682.1,408.3 L 679.9,413.2 L 678.3,416.3 L 675.6,419.8 L 672.6,423.0 L 669.1,425.8 L 665.1,428.4 L 660.7,430.4 L 656.1,431.8 L 651.3,432.5 L 646.5,432.6 L 641.9,432.1 L 620.1,428.4 L 615.6,427.5 L 610.1,426.9 L 603.6,427.0 L 597.7,428.0 L 593.6,429.3 L 589.7,430.9 L 585.9,433.0 L 581.2,436.5 L 576.8,440.3 L 572.7,444.4 L 568.9,448.9 L 502.9,534.9 L 501.1,536.8 L 498.9,538.3 L 496.5,539.3 L 493.9,539.7 L 491.3,539.6 L 488.8,538.9 L 486.5,537.8 L 484.5,536.1 L 482.8,534.1 L 481.6,531.8 L 481.0,529.3 L 480.1,525.1 L 479.5,520.7 L 479.3,516.4 L 479.4,511.4 L 480.1,506.4 L 494.9,413.9 L 506.5,340.4 L 507.0,335.8 L 507.1,331.0 L 506.7,326.3 L 505.8,321.7 L 504.6,317.7 L 503.1,313.8 L 501.3,310.1 L 499.1,306.6 L 494.0,300.5 L 488.4,294.9 L 484.4,291.4 L 480.1,288.0 L 475.7,284.9 L 465.8,277.1 L 464.6,276.4 L 463.2,276.0 L 461.7,276.0 L 460.4,276.4 L 458.9,277.4 L 457.9,278.7 L 457.4,280.4 L 452.4,316.2 L 448.4,346.8 L 446.5,365.5 L 445.1,384.2 L 444.0,407.2 L 440.8,498.1 L 437.0,589.8 L 433.3,681.6 L 432.7,697.9 L 432.6,701.7 L 432.7,705.5 L 433.4,709.2 L 434.7,712.8 L 436.2,715.7 L 438.1,718.5 L 440.3,720.9 L 442.9,723.1 L 446.8,725.1 L 451.7,726.3 L 456.7,727.2 L 461.6,727.7 L 466.5,728.0 L 469.9,727.9 L 476.3,727.5 L 482.6,726.5 L 488.7,725.0 L 494.8,723.1 L 501.2,720.4 L 507.3,717.2 L 513.2,713.4 L 518.7,709.2 L 524.0,704.5 L 528.9,699.4 L 533.5,694.0 L 537.3,689.0 L 540.7,683.7 L 543.8,678.3 L 546.6,672.6 L 549.7,665.2 L 552.3,657.5 L 561.5,632.2 L 564.3,626.6 L 567.6,621.2 L 571.3,616.2 L 575.4,611.4 L 579.5,607.4 L 584.0,603.7 L 588.7,600.3 L 593.7,597.3 L 598.9,594.8 L 604.2,592.6 L 609.7,590.8 L 615.2,589.4 L 620.9,588.4 L 626.9,587.8 L 632.9,587.7 L 638.9,588.1 L 644.9,588.9 L 651.7,590.5 L 658.4,592.7 L 663.8,594.9 L 669.0,597.4 L 677.9,602.1 L 714.7,620.1 L 719.7,622.4 L 724.5,625.1 L 729.0,628.2 L 733.2,631.8 L 737.0,635.6 L 740.3,639.5 L 743.2,643.5 L 745.7,647.8 L 747.9,652.3 L 749.4,655.3 L 750.3,658.4 L 750.8,661.6 L 750.8,664.9 L 750.2,668.1 L 749.1,671.1 Z" fill="none" stroke="#39404f" stroke-width="8.5" stroke-linejoin="round" stroke-linecap="round"/>
<path d="M 749.1,671.1 L 747.6,674.0 L 745.7,676.6 L 743.2,679.3 L 738.2,684.1 L 732.9,688.5 L 728.7,691.4 L 724.3,694.0 L 713.4,700.2 L 628.8,747.7 L 611.9,757.2 L 553.2,790.1 L 469.8,837.0 L 357.2,900.1 L 342.7,908.2 L 340.1,909.4 L 337.3,910.0 L 334.4,910.0 L 331.6,909.4 L 329.1,908.4 L 326.9,907.0 L 325.0,905.2 L 323.5,903.0 L 311.9,877.5 L 309.9,872.2 L 308.3,866.8 L 307.1,861.3 L 306.3,855.8 L 306.0,850.1 L 306.1,844.5 L 306.6,838.9 L 307.3,819.2 L 309.8,747.2 L 310.0,745.1 L 328.7,269.4 L 330.5,225.4 L 332.5,177.7 L 332.6,175.6 L 332.9,173.5 L 333.8,171.6 L 335.2,170.0 L 337.0,168.8 L 338.9,168.2 L 340.9,168.0 L 342.9,168.4 L 344.7,169.2 L 346.3,170.5 L 349.1,172.9 L 379.5,202.3 L 381.3,203.8 L 383.4,204.9 L 385.6,205.7 L 387.9,206.1 L 390.7,206.2 L 393.4,205.6 L 396.0,204.6 L 438.9,190.1 L 444.4,188.9 L 450.1,188.1 L 455.7,187.8 L 462.1,188.0 L 468.5,188.8 L 472.0,189.6 L 492.7,193.6 L 589.3,212.1 L 690.5,230.9 L 727.6,238.0 L 795.5,251.2 L 797.6,251.7 L 799.6,252.7 L 801.3,254.0 L 802.7,255.7 L 803.7,257.6 L 804.3,259.7 L 804.5,261.9 L 804.1,268.5 L 803.4,272.8 L 802.3,277.0 L 800.5,281.6 L 798.0,286.0 L 795.4,289.4 L 790.9,293.6 L 777.1,319.1 L 775.2,323.1 L 773.9,327.4 L 773.1,331.8 L 772.9,336.2 L 773.3,340.9 L 774.3,345.5 L 775.9,350.0 L 778.1,354.2 L 811.8,418.2 L 814.8,423.8 L 817.4,429.7 L 819.5,435.7 L 821.5,442.5 L 822.9,449.4 L 823.7,456.4 L 824.0,463.5 L 823.8,470.6 L 823.0,477.6 L 821.6,484.5 L 819.8,491.3 L 817.7,497.0 L 814.6,504.2 L 811.4,510.2 L 807.7,515.9 L 803.6,521.4 L 793.1,532.6 L 791.3,534.4 L 789.7,536.5 L 788.5,538.9 L 787.8,541.4 L 787.4,544.3 L 787.5,547.2 L 788.2,550.1 L 789.4,552.8 L 799.0,568.9 L 800.8,571.6 L 802.0,574.5 L 802.6,577.6 L 802.7,580.3 L 802.3,583.0 L 801.6,585.5 L 800.4,587.9 L 785.9,610.6 L 784.4,612.2 L 782.5,613.5 L 780.4,614.3 L 778.2,614.6 L 776.0,614.5 L 773.8,613.9 L 771.9,612.8 L 770.2,611.3 L 766.0,605.8 L 760.9,598.2 L 756.9,592.7 L 752.6,587.4 L 748.1,582.4 L 743.5,577.9 L 738.7,573.7 L 732.9,569.2 L 726.8,565.2 L 722.8,562.8 L 718.6,560.7 L 715.8,559.5 L 713.0,558.0 L 711.0,556.6 L 709.1,555.1 L 707.1,552.8 L 705.5,550.2 L 704.3,547.4 L 703.5,544.5 L 703.1,541.2 L 703.3,538.0 L 704.4,534.6 L 705.8,531.4 L 707.6,528.4 L 710.1,525.0 L 713.1,522.0 L 723.5,511.4 L 737.0,497.5 L 738.7,495.9 L 740.0,494.1 L 741.0,492.1 L 741.6,489.9 L 741.8,487.4 L 741.5,484.9 L 740.8,482.5 L 739.8,479.3 L 738.0,473.3 L 735.8,462.1 L 734.2,452.4 L 733.1,442.7 L 732.7,435.9 L 732.5,433.5 L 732.4,424.4 L 732.7,417.3 L 732.9,402.6 L 732.7,398.6 L 732.4,394.1 L 731.8,390.8 L 730.6,387.8 L 729.0,384.9 L 727.0,382.3 L 724.7,380.2 L 722.1,378.4 L 719.3,377.0 L 716.3,376.1 L 713.2,375.6 L 699.3,374.3 L 695.5,379.8 L 691.5,386.6 L 688.1,393.8 L 682.1,408.3 L 679.9,413.2 L 678.3,416.3 L 675.6,419.8 L 672.6,423.0 L 669.1,425.8 L 665.1,428.4 L 660.7,430.4 L 656.1,431.8 L 651.3,432.5 L 646.5,432.6 L 641.9,432.1 L 620.1,428.4 L 615.6,427.5 L 610.1,426.9 L 603.6,427.0 L 597.7,428.0 L 593.6,429.3 L 589.7,430.9 L 585.9,433.0 L 581.2,436.5 L 576.8,440.3 L 572.7,444.4 L 568.9,448.9 L 502.9,534.9 L 501.1,536.8 L 498.9,538.3 L 496.5,539.3 L 493.9,539.7 L 491.3,539.6 L 488.8,538.9 L 486.5,537.8 L 484.5,536.1 L 482.8,534.1 L 481.6,531.8 L 481.0,529.3 L 480.1,525.1 L 479.5,520.7 L 479.3,516.4 L 479.4,511.4 L 480.1,506.4 L 494.9,413.9 L 506.5,340.4 L 507.0,335.8 L 507.1,331.0 L 506.7,326.3 L 505.8,321.7 L 504.6,317.7 L 503.1,313.8 L 501.3,310.1 L 499.1,306.6 L 494.0,300.5 L 488.4,294.9 L 484.4,291.4 L 480.1,288.0 L 475.7,284.9 L 465.8,277.1 L 464.6,276.4 L 463.2,276.0 L 461.7,276.0 L 460.4,276.4 L 458.9,277.4 L 457.9,278.7 L 457.4,280.4 L 452.4,316.2 L 448.4,346.8 L 446.5,365.5 L 445.1,384.2 L 444.0,407.2 L 440.8,498.1 L 437.0,589.8 L 433.3,681.6 L 432.7,697.9 L 432.6,701.7 L 432.7,705.5 L 433.4,709.2 L 434.7,712.8 L 436.2,715.7 L 438.1,718.5 L 440.3,720.9 L 442.9,723.1 L 446.8,725.1 L 451.7,726.3 L 456.7,727.2 L 461.6,727.7 L 466.5,728.0 L 469.9,727.9 L 476.3,727.5 L 482.6,726.5 L 488.7,725.0 L 494.8,723.1 L 501.2,720.4 L 507.3,717.2 L 513.2,713.4 L 518.7,709.2 L 524.0,704.5 L 528.9,699.4 L 533.5,694.0 L 537.3,689.0 L 540.7,683.7 L 543.8,678.3 L 546.6,672.6 L 549.7,665.2 L 552.3,657.5 L 561.5,632.2 L 564.3,626.6 L 567.6,621.2 L 571.3,616.2 L 575.4,611.4 L 579.5,607.4 L 584.0,603.7 L 588.7,600.3 L 593.7,597.3 L 598.9,594.8 L 604.2,592.6 L 609.7,590.8 L 615.2,589.4 L 620.9,588.4 L 626.9,587.8 L 632.9,587.7 L 638.9,588.1 L 644.9,588.9 L 651.7,590.5 L 658.4,592.7 L 663.8,594.9 L 669.0,597.4 L 677.9,602.1 L 714.7,620.1 L 719.7,622.4 L 724.5,625.1 L 729.0,628.2 L 733.2,631.8 L 737.0,635.6 L 740.3,639.5 L 743.2,643.5 L 745.7,647.8 L 747.9,652.3 L 749.4,655.3 L 750.3,658.4 L 750.8,661.6 L 750.8,664.9 L 750.2,668.1 L 749.1,671.1 Z" fill="none" stroke="#e7edf8" stroke-width="2.6" stroke-linejoin="round" stroke-linecap="round"/>
<path d="M 749.1,671.1 L 747.6,674.0 L 745.7,676.6 L 743.2,679.3 L 738.2,684.1 L 732.9,688.5 L 728.7,691.4 L 724.3,694.0 L 713.4,700.2 L 628.8,747.7 L 611.9,757.2 L 553.2,790.1 L 469.8,837.0 L 357.2,900.1 L 342.7,908.2 L 340.1,909.4 L 337.3,910.0 L 334.4,910.0 L 331.6,909.4 L 329.1,908.4 L 326.9,907.0 L 325.0,905.2 L 323.5,903.0 L 311.9,877.5 L 309.9,872.2 L 308.3,866.8 L 307.1,861.3 L 306.3,855.8 L 306.0,850.1 L 306.1,844.5 L 306.6,838.9 L 307.3,819.2 L 309.8,747.2 L 310.0,745.1 L 328.7,269.4 L 330.5,225.4 L 332.5,177.7 L 332.6,175.6 L 332.9,173.5 L 333.8,171.6 L 335.2,170.0 L 337.0,168.8 L 338.9,168.2 L 340.9,168.0 L 342.9,168.4 L 344.7,169.2 L 346.3,170.5 L 349.1,172.9 L 379.5,202.3 L 381.3,203.8 L 383.4,204.9 L 385.6,205.7 L 387.9,206.1 L 390.7,206.2 L 393.4,205.6 L 396.0,204.6 L 438.9,190.1 L 444.4,188.9 L 450.1,188.1 L 455.7,187.8 L 462.1,188.0 L 468.5,188.8 L 472.0,189.6 L 492.7,193.6 L 589.3,212.1 L 690.5,230.9 L 727.6,238.0 L 795.5,251.2 L 797.6,251.7 L 799.6,252.7 L 801.3,254.0 L 802.7,255.7 L 803.7,257.6 L 804.3,259.7 L 804.5,261.9 L 804.1,268.5 L 803.4,272.8 L 802.3,277.0 L 800.5,281.6 L 798.0,286.0 L 795.4,289.4 L 790.9,293.6 L 777.1,319.1 L 775.2,323.1 L 773.9,327.4 L 773.1,331.8 L 772.9,336.2 L 773.3,340.9 L 774.3,345.5 L 775.9,350.0 L 778.1,354.2 L 811.8,418.2 L 814.8,423.8 L 817.4,429.7 L 819.5,435.7 L 821.5,442.5 L 822.9,449.4 L 823.7,456.4 L 824.0,463.5 L 823.8,470.6 L 823.0,477.6 L 821.6,484.5 L 819.8,491.3 L 817.7,497.0 L 814.6,504.2 L 811.4,510.2 L 807.7,515.9 L 803.6,521.4 L 793.1,532.6 L 791.3,534.4 L 789.7,536.5 L 788.5,538.9 L 787.8,541.4 L 787.4,544.3 L 787.5,547.2 L 788.2,550.1 L 789.4,552.8 L 799.0,568.9 L 800.8,571.6 L 802.0,574.5 L 802.6,577.6 L 802.7,580.3 L 802.3,583.0 L 801.6,585.5 L 800.4,587.9 L 785.9,610.6 L 784.4,612.2 L 782.5,613.5 L 780.4,614.3 L 778.2,614.6 L 776.0,614.5 L 773.8,613.9 L 771.9,612.8 L 770.2,611.3 L 766.0,605.8 L 760.9,598.2 L 756.9,592.7 L 752.6,587.4 L 748.1,582.4 L 743.5,577.9 L 738.7,573.7 L 732.9,569.2 L 726.8,565.2 L 722.8,562.8 L 718.6,560.7 L 715.8,559.5 L 713.0,558.0 L 711.0,556.6 L 709.1,555.1 L 707.1,552.8 L 705.5,550.2 L 704.3,547.4 L 703.5,544.5 L 703.1,541.2 L 703.3,538.0 L 704.4,534.6 L 705.8,531.4 L 707.6,528.4 L 710.1,525.0 L 713.1,522.0 L 723.5,511.4 L 737.0,497.5 L 738.7,495.9 L 740.0,494.1 L 741.0,492.1 L 741.6,489.9 L 741.8,487.4 L 741.5,484.9 L 740.8,482.5 L 739.8,479.3 L 738.0,473.3 L 735.8,462.1 L 734.2,452.4 L 733.1,442.7 L 732.7,435.9 L 732.5,433.5 L 732.4,424.4 L 732.7,417.3 L 732.9,402.6 L 732.7,398.6 L 732.4,394.1 L 731.8,390.8 L 730.6,387.8 L 729.0,384.9 L 727.0,382.3 L 724.7,380.2 L 722.1,378.4 L 719.3,377.0 L 716.3,376.1 L 713.2,375.6 L 699.3,374.3 L 695.5,379.8 L 691.5,386.6 L 688.1,393.8 L 682.1,408.3 L 679.9,413.2 L 678.3,416.3 L 675.6,419.8 L 672.6,423.0 L 669.1,425.8 L 665.1,428.4 L 660.7,430.4 L 656.1,431.8 L 651.3,432.5 L 646.5,432.6 L 641.9,432.1 L 620.1,428.4 L 615.6,427.5 L 610.1,426.9 L 603.6,427.0 L 597.7,428.0 L 593.6,429.3 L 589.7,430.9 L 585.9,433.0 L 581.2,436.5 L 576.8,440.3 L 572.7,444.4 L 568.9,448.9 L 502.9,534.9 L 501.1,536.8 L 498.9,538.3 L 496.5,539.3 L 493.9,539.7 L 491.3,539.6 L 488.8,538.9 L 486.5,537.8 L 484.5,536.1 L 482.8,534.1 L 481.6,531.8 L 481.0,529.3 L 480.1,525.1 L 479.5,520.7 L 479.3,516.4 L 479.4,511.4 L 480.1,506.4 L 494.9,413.9 L 506.5,340.4 L 507.0,335.8 L 507.1,331.0 L 506.7,326.3 L 505.8,321.7 L 504.6,317.7 L 503.1,313.8 L 501.3,310.1 L 499.1,306.6 L 494.0,300.5 L 488.4,294.9 L 484.4,291.4 L 480.1,288.0 L 475.7,284.9 L 465.8,277.1 L 464.6,276.4 L 463.2,276.0 L 461.7,276.0 L 460.4,276.4 L 458.9,277.4 L 457.9,278.7 L 457.4,280.4 L 452.4,316.2 L 448.4,346.8 L 446.5,365.5 L 445.1,384.2 L 444.0,407.2 L 440.8,498.1 L 437.0,589.8 L 433.3,681.6 L 432.7,697.9 L 432.6,701.7 L 432.7,705.5 L 433.4,709.2 L 434.7,712.8 L 436.2,715.7 L 438.1,718.5 L 440.3,720.9 L 442.9,723.1 L 446.8,725.1 L 451.7,726.3 L 456.7,727.2 L 461.6,727.7 L 466.5,728.0 L 469.9,727.9 L 476.3,727.5 L 482.6,726.5 L 488.7,725.0 L 494.8,723.1 L 501.2,720.4 L 507.3,717.2 L 513.2,713.4 L 518.7,709.2 L 524.0,704.5 L 528.9,699.4 L 533.5,694.0 L 537.3,689.0 L 540.7,683.7 L 543.8,678.3 L 546.6,672.6 L 549.7,665.2 L 552.3,657.5 L 561.5,632.2 L 564.3,626.6 L 567.6,621.2 L 571.3,616.2 L 575.4,611.4 L 579.5,607.4 L 584.0,603.7 L 588.7,600.3 L 593.7,597.3 L 598.9,594.8 L 604.2,592.6 L 609.7,590.8 L 615.2,589.4 L 620.9,588.4 L 626.9,587.8 L 632.9,587.7 L 638.9,588.1 L 644.9,588.9 L 651.7,590.5 L 658.4,592.7 L 663.8,594.9 L 669.0,597.4 L 677.9,602.1 L 714.7,620.1 L 719.7,622.4 L 724.5,625.1 L 729.0,628.2 L 733.2,631.8 L 737.0,635.6 L 740.3,639.5 L 743.2,643.5 L 745.7,647.8 L 747.9,652.3 L 749.4,655.3 L 750.3,658.4 L 750.8,661.6 L 750.8,664.9 L 750.2,668.1 L 749.1,671.1 Z" fill="none" stroke="#ff5a36" stroke-opacity="0.55" stroke-width="1.2" stroke-linejoin="round" filter="url(#glow)"/>
<circle cx="316.4" cy="580.5" r="13" fill="none" stroke="#ffffff" stroke-width="3"/>
<rect x="312.4" y="558.5" width="8" height="18" fill="#ffffff"/>
<circle cx="378.1" cy="200.9" r="7" fill="#ff5a36" stroke="#0a0c12" stroke-width="2.5" filter="url(#glow)"/>
<text x="378.1" y="204.3" font-size="9" font-weight="700" fill="#0a0c12" text-anchor="middle">1</text>
<circle cx="440.6" cy="189.7" r="7" fill="#ff5a36" stroke="#0a0c12" stroke-width="2.5" filter="url(#glow)"/>
<text x="440.6" y="193.1" font-size="9" font-weight="700" fill="#0a0c12" text-anchor="middle">2</text>
<circle cx="473.7" cy="190.0" r="7" fill="#ff5a36" stroke="#0a0c12" stroke-width="2.5" filter="url(#glow)"/>
<text x="473.7" y="193.4" font-size="9" font-weight="700" fill="#0a0c12" text-anchor="middle">3</text>
<circle cx="798.4" cy="285.5" r="7" fill="#ff5a36" stroke="#0a0c12" stroke-width="2.5" filter="url(#glow)"/>
<text x="798.4" y="288.9" font-size="9" font-weight="700" fill="#0a0c12" text-anchor="middle">4</text>
<circle cx="684.0" cy="403.7" r="7" fill="#ff5a36" stroke="#0a0c12" stroke-width="2.5" filter="url(#glow)"/>
<text x="684.0" y="407.1" font-size="9" font-weight="700" fill="#0a0c12" text-anchor="middle">5</text>
<circle cx="598.0" cy="428.0" r="7" fill="#ff5a36" stroke="#0a0c12" stroke-width="2.5" filter="url(#glow)"/>
<text x="598.0" y="431.4" font-size="9" font-weight="700" fill="#0a0c12" text-anchor="middle">6</text>
<circle cx="550.5" cy="472.9" r="7" fill="#ff5a36" stroke="#0a0c12" stroke-width="2.5" filter="url(#glow)"/>
<text x="550.5" y="476.3" font-size="9" font-weight="700" fill="#0a0c12" text-anchor="middle">7</text>
<circle cx="480.7" cy="502.7" r="7" fill="#ff5a36" stroke="#0a0c12" stroke-width="2.5" filter="url(#glow)"/>
<text x="480.7" y="506.1" font-size="9" font-weight="700" fill="#0a0c12" text-anchor="middle">8</text>
<circle cx="474.1" cy="283.6" r="7" fill="#ff5a36" stroke="#0a0c12" stroke-width="2.5" filter="url(#glow)"/>
<text x="474.1" y="287.0" font-size="9" font-weight="700" fill="#0a0c12" text-anchor="middle">9</text>
<circle cx="451.2" cy="325.3" r="7" fill="#ff5a36" stroke="#0a0c12" stroke-width="2.5" filter="url(#glow)"/>
<text x="451.2" y="328.7" font-size="9" font-weight="700" fill="#0a0c12" text-anchor="middle">10</text>
<circle cx="474.7" cy="727.6" r="7" fill="#ff5a36" stroke="#0a0c12" stroke-width="2.5" filter="url(#glow)"/>
<text x="474.7" y="731.0" font-size="9" font-weight="700" fill="#0a0c12" text-anchor="middle">11</text>
<circle cx="606.8" cy="591.7" r="7" fill="#ff5a36" stroke="#0a0c12" stroke-width="2.5" filter="url(#glow)"/>
<text x="606.8" y="595.1" font-size="9" font-weight="700" fill="#0a0c12" text-anchor="middle">12</text>
<circle cx="737.4" cy="684.8" r="7" fill="#ff5a36" stroke="#0a0c12" stroke-width="2.5" filter="url(#glow)"/>
<text x="737.4" y="688.2" font-size="9" font-weight="700" fill="#0a0c12" text-anchor="middle">13</text>
<circle cx="313.0" cy="879.8" r="7" fill="#ff5a36" stroke="#0a0c12" stroke-width="2.5" filter="url(#glow)"/>
<text x="313.0" y="883.2" font-size="9" font-weight="700" fill="#0a0c12" text-anchor="middle">14</text>
<circle cx="307.5" cy="814.1" r="7" fill="#ff5a36" stroke="#0a0c12" stroke-width="2.5" filter="url(#glow)"/>
<text x="307.5" y="817.5" font-size="9" font-weight="700" fill="#0a0c12" text-anchor="middle">15</text>
<line x1="378.1" y1="200.9" x2="346.7" y2="168.0" stroke="#ff5a36" stroke-opacity="0.45" stroke-width="1.3"/>
<text x="338.7" y="172.0" font-size="15" font-weight="600" fill="#eef2fb" text-anchor="end">Michael Schumacher Corner</text>
<text x="90" y="64" font-size="20" letter-spacing="5" fill="#ff5a36" font-weight="700">TRACK ATLAS</text>
<text x="90" y="108" font-size="42" font-weight="800" fill="#ffffff">BAHRAIN INTERNATIONAL CIRCUIT</text>
<text x="90" y="136" font-size="16" fill="#9aa6bd">Sakhir</text>
<rect x="1170" y="200" width="360" height="710" rx="16" fill="#ffffff" fill-opacity="0.04" stroke="#ff5a36" stroke-opacity="0.5"/>
<text x="1198" y="250" font-size="13" letter-spacing="2" fill="#8794ab">LAYOUT</text>
<text x="1198" y="276" font-size="22" font-weight="700" fill="#eef2fb">Grand Prix Circuit</text>
<text x="1198" y="320" font-size="13" letter-spacing="2" fill="#8794ab">LENGTH</text>
<text x="1198" y="346" font-size="22" font-weight="700" fill="#eef2fb">5.412 km</text>
<text x="1198" y="390" font-size="13" letter-spacing="2" fill="#8794ab">CORNERS</text>
<text x="1198" y="416" font-size="22" font-weight="700" fill="#eef2fb">15</text>
<text x="1198" y="460" font-size="13" letter-spacing="2" fill="#8794ab">NAMED CORNERS</text>
<text x="1198" y="486" font-size="22" font-weight="700" fill="#eef2fb">1</text>
<text x="1198" y="530" font-size="13" letter-spacing="2" fill="#8794ab">DIRECTION</text>
<text x="1198" y="556" font-size="22" font-weight="700" fill="#eef2fb">Clockwise</text>
<text x="1198" y="600" font-size="13" letter-spacing="2" fill="#8794ab">SECTORS</text>
<text x="1198" y="626" font-size="22" font-weight="700" fill="#eef2fb">3</text>
<text x="1198" y="670" font-size="13" letter-spacing="2" fill="#8794ab">COUNTRY</text>
<text x="1198" y="696" font-size="22" font-weight="700" fill="#eef2fb">BH</text>
<text x="1198" y="740" font-size="13" letter-spacing="2" fill="#8794ab">LOCATION</text>
<text x="1198" y="766" font-size="22" font-weight="700" fill="#eef2fb">Sakhir</text>
<text x="90" y="966" font-size="12" fill="#566177">Geometry © OpenStreetMap contributors (ODbL) · corner data: Lovely-Sim-Racing + curated · track-atlas</text>
<text x="90" y="942" font-size="12" fill="#8794ab">⚑ start / finish</text>
</svg>