<svg xmlns="http://www.w3.org/2000/svg" width="1600" height="1000" viewBox="0 0 1600 1000" font-family="Helvetica, Arial, sans-serif">
<defs>
      <radialGradient id="bg" cx="38%" cy="34%" r="85%">
        <stop offset="0%" stop-color="#1b2030"/>
        <stop offset="55%" stop-color="#12151f"/>
        <stop offset="100%" stop-color="#0a0c12"/>
      </radialGradient>
      <linearGradient id="accent" x1="0" y1="0" x2="1" y2="1">
        <stop offset="0%" stop-color="#ff5a36"/>
        <stop offset="100%" stop-color="#ffffff"/>
      </linearGradient>
      <filter id="glow" x="-40%" y="-40%" width="180%" height="180%">
        <feGaussianBlur stdDeviation="6" result="b"/>
        <feMerge><feMergeNode in="b"/><feMergeNode in="SourceGraphic"/></feMerge>
      </filter>
    </defs>
<rect width="1600" height="1000" fill="url(#bg)"/>
<path d="M 394.8,626.5 L 394.7,617.5 L 394.4,595.7 L 393.5,495.1 L 392.3,388.7 L 391.2,296.7 L 392.6,291.8 L 394.5,289.5 L 397.6,288.2 L 405.8,287.7 L 414.4,287.8 L 421.1,287.7 L 424.7,287.5 L 426.5,287.3 L 429.5,286.8 L 431.7,286.1 L 434.4,284.9 L 437.1,283.3 L 439.4,281.3 L 441.2,279.5 L 443.0,277.5 L 444.4,275.0 L 445.2,273.4 L 445.8,271.6 L 446.2,270.2 L 446.4,268.4 L 446.6,265.7 L 446.5,260.5 L 444.8,241.4 L 444.8,238.6 L 444.8,235.7 L 445.0,232.4 L 445.4,229.5 L 446.0,226.1 L 446.7,223.5 L 447.8,219.6 L 449.2,215.5 L 450.4,212.6 L 451.6,209.9 L 452.9,207.6 L 454.4,204.9 L 456.2,202.2 L 458.2,199.5 L 460.6,196.7 L 463.1,194.3 L 465.8,191.6 L 469.7,188.4 L 472.8,186.2 L 476.0,184.2 L 482.6,181.0 L 498.2,173.6 L 507.2,169.5 L 508.0,169.2 L 508.7,169.0 L 510.2,168.5 L 511.8,168.3 L 513.3,168.0 L 514.9,168.0 L 516.4,168.1 L 517.8,168.4 L 519.3,168.7 L 520.6,169.1 L 521.6,169.5 L 523.0,170.2 L 524.1,170.9 L 527.5,173.2 L 530.8,175.6 L 534.1,179.0 L 536.4,181.9 L 538.2,184.8 L 539.4,186.9 L 540.2,188.9 L 541.1,191.2 L 541.9,194.2 L 542.4,197.6 L 542.6,201.8 L 542.7,211.7 L 542.8,224.2 L 543.2,250.4 L 543.6,256.6 L 544.3,259.6 L 545.3,262.7 L 546.7,265.9 L 549.0,268.6 L 550.8,270.1 L 554.1,271.9 L 557.1,273.4 L 559.3,275.2 L 560.8,277.5 L 561.6,280.3 L 561.8,283.5 L 562.1,300.3 L 563.2,377.7 L 563.3,383.8 L 563.5,401.1 L 565.2,540.9 L 566.3,646.4 L 566.0,667.5 L 566.7,673.3 L 567.5,675.7 L 569.0,677.4 L 569.9,678.4 L 572.0,679.6 L 576.6,680.1 L 612.1,678.6 L 627.4,678.1 L 633.1,678.9 L 638.8,681.1 L 643.2,683.7 L 647.4,687.8 L 649.5,690.8 L 651.1,694.2 L 652.2,697.8 L 653.4,702.0 L 656.3,708.2 L 658.4,711.0 L 661.1,713.4 L 666.7,716.5 L 670.1,717.6 L 673.5,718.2 L 681.3,718.3 L 698.3,717.1 L 715.2,716.0 L 718.8,715.9 L 721.7,716.5 L 723.8,717.1 L 725.7,718.3 L 727.0,719.3 L 728.4,720.5 L 729.7,722.1 L 731.0,724.4 L 732.0,726.5 L 733.0,728.9 L 734.1,731.8 L 735.1,734.8 L 736.6,740.2 L 737.8,746.1 L 738.3,749.4 L 738.6,753.4 L 738.8,758.4 L 738.4,763.4 L 738.0,768.0 L 733.7,796.4 L 730.4,819.0 L 728.4,831.5 L 727.9,834.5 L 727.2,837.7 L 726.0,841.9 L 725.0,845.1 L 723.9,847.9 L 722.1,852.8 L 719.6,858.0 L 717.3,861.9 L 713.4,867.5 L 709.2,872.4 L 705.3,876.7 L 701.2,881.4 L 691.5,889.4 L 685.7,892.8 L 679.3,896.0 L 672.8,898.8 L 664.7,901.4 L 659.9,902.7 L 654.4,904.0 L 641.8,905.9 L 560.6,910.0 L 551.9,908.7 L 549.4,906.1 L 549.2,905.0 L 548.5,903.5 L 548.2,901.4 L 547.8,898.7 L 550.1,850.3 L 549.5,844.6 L 548.1,840.7 L 546.1,836.9 L 543.2,832.8 L 540.5,830.3 L 538.7,829.4 L 537.3,829.0 L 535.5,828.7 L 533.3,828.8 L 531.1,829.6 L 527.7,830.9 L 488.6,846.8 L 483.1,848.4 L 477.2,849.8 L 474.1,850.2 L 469.7,850.5 L 464.0,850.4 L 459.3,849.8 L 454.5,848.9 L 450.7,847.9 L 446.5,846.3 L 442.1,844.2 L 438.0,842.0 L 433.6,839.0 L 427.7,833.8 L 423.7,829.4 L 419.0,823.5 L 413.8,814.0 L 406.4,798.6 L 402.4,787.7 L 401.0,783.3 L 400.0,778.9 L 398.7,770.7 L 397.4,760.8 L 396.3,749.4 L 396.0,735.8 L 395.9,730.4 L 395.8,720.0 L 395.7,710.6 L 395.6,699.1 L 395.3,672.4 L 395.1,659.0 L 395.0,645.1 L 394.9,631.5 L 394.8,626.5 Z" fill="none" stroke="#000000" stroke-opacity="0.5" stroke-width="13" stroke-linejoin="round" stroke-linecap="round"/>
<path d="M 394.8,626.5 L 394.7,617.5 L 394.4,595.7 L 393.5,495.1 L 392.3,388.7 L 391.2,296.7 L 392.6,291.8 L 394.5,289.5 L 397.6,288.2 L 405.8,287.7 L 414.4,287.8 L 421.1,287.7 L 424.7,287.5 L 426.5,287.3 L 429.5,286.8 L 431.7,286.1 L 434.4,284.9 L 437.1,283.3 L 439.4,281.3 L 441.2,279.5 L 443.0,277.5 L 444.4,275.0 L 445.2,273.4 L 445.8,271.6 L 446.2,270.2 L 446.4,268.4 L 446.6,265.7 L 446.5,260.5 L 444.8,241.4 L 444.8,238.6 L 444.8,235.7 L 445.0,232.4 L 445.4,229.5 L 446.0,226.1 L 446.7,223.5 L 447.8,219.6 L 449.2,215.5 L 450.4,212.6 L 451.6,209.9 L 452.9,207.6 L 454.4,204.9 L 456.2,202.2 L 458.2,199.5 L 460.6,196.7 L 463.1,194.3 L 465.8,191.6 L 469.7,188.4 L 472.8,186.2 L 476.0,184.2 L 482.6,181.0 L 498.2,173.6 L 507.2,169.5 L 508.0,169.2 L 508.7,169.0 L 510.2,168.5 L 511.8,168.3 L 513.3,168.0 L 514.9,168.0 L 516.4,168.1 L 517.8,168.4 L 519.3,168.7 L 520.6,169.1 L 521.6,169.5 L 523.0,170.2 L 524.1,170.9 L 527.5,173.2 L 530.8,175.6 L 534.1,179.0 L 536.4,181.9 L 538.2,184.8 L 539.4,186.9 L 540.2,188.9 L 541.1,191.2 L 541.9,194.2 L 542.4,197.6 L 542.6,201.8 L 542.7,211.7 L 542.8,224.2 L 543.2,250.4 L 543.6,256.6 L 544.3,259.6 L 545.3,262.7 L 546.7,265.9 L 549.0,268.6 L 550.8,270.1 L 554.1,271.9 L 557.1,273.4 L 559.3,275.2 L 560.8,277.5 L 561.6,280.3 L 561.8,283.5 L 562.1,300.3 L 563.2,377.7 L 563.3,383.8 L 563.5,401.1 L 565.2,540.9 L 566.3,646.4 L 566.0,667.5 L 566.7,673.3 L 567.5,675.7 L 569.0,677.4 L 569.9,678.4 L 572.0,679.6 L 576.6,680.1 L 612.1,678.6 L 627.4,678.1 L 633.1,678.9 L 638.8,681.1 L 643.2,683.7 L 647.4,687.8 L 649.5,690.8 L 651.1,694.2 L 652.2,697.8 L 653.4,702.0 L 656.3,708.2 L 658.4,711.0 L 661.1,713.4 L 666.7,716.5 L 670.1,717.6 L 673.5,718.2 L 681.3,718.3 L 698.3,717.1 L 715.2,716.0 L 718.8,715.9 L 721.7,716.5 L 723.8,717.1 L 725.7,718.3 L 727.0,719.3 L 728.4,720.5 L 729.7,722.1 L 731.0,724.4 L 732.0,726.5 L 733.0,728.9 L 734.1,731.8 L 735.1,734.8 L 736.6,740.2 L 737.8,746.1 L 738.3,749.4 L 738.6,753.4 L 738.8,758.4 L 738.4,763.4 L 738.0,768.0 L 733.7,796.4 L 730.4,819.0 L 728.4,831.5 L 727.9,834.5 L 727.2,837.7 L 726.0,841.9 L 725.0,845.1 L 723.9,847.9 L 722.1,852.8 L 719.6,858.0 L 717.3,861.9 L 713.4,867.5 L 709.2,872.4 L 705.3,876.7 L 701.2,881.4 L 691.5,889.4 L 685.7,892.8 L 679.3,896.0 L 672.8,898.8 L 664.7,901.4 L 659.9,902.7 L 654.4,904.0 L 641.8,905.9 L 560.6,910.0 L 551.9,908.7 L 549.4,906.1 L 549.2,905.0 L 548.5,903.5 L 548.2,901.4 L 547.8,898.7 L 550.1,850.3 L 549.5,844.6 L 548.1,840.7 L 546.1,836.9 L 543.2,832.8 L 540.5,830.3 L 538.7,829.4 L 537.3,829.0 L 535.5,828.7 L 533.3,828.8 L 531.1,829.6 L 527.7,830.9 L 488.6,846.8 L 483.1,848.4 L 477.2,849.8 L 474.1,850.2 L 469.7,850.5 L 464.0,850.4 L 459.3,849.8 L 454.5,848.9 L 450.7,847.9 L 446.5,846.3 L 442.1,844.2 L 438.0,842.0 L 433.6,839.0 L 427.7,833.8 L 423.7,829.4 L 419.0,823.5 L 413.8,814.0 L 406.4,798.6 L 402.4,787.7 L 401.0,783.3 L 400.0,778.9 L 398.7,770.7 L 397.4,760.8 L 396.3,749.4 L 396.0,735.8 L 395.9,730.4 L 395.8,720.0 L 395.7,710.6 L 395.6,699.1 L 395.3,672.4 L 395.1,659.0 L 395.0,645.1 L 394.9,631.5 L 394.8,626.5 Z" fill="none" stroke="#39404f" stroke-width="8.5" stroke-linejoin="round" stroke-linecap="round"/>
<path d="M 394.8,626.5 L 394.7,617.5 L 394.4,595.7 L 393.5,495.1 L 392.3,388.7 L 391.2,296.7 L 392.6,291.8 L 394.5,289.5 L 397.6,288.2 L 405.8,287.7 L 414.4,287.8 L 421.1,287.7 L 424.7,287.5 L 426.5,287.3 L 429.5,286.8 L 431.7,286.1 L 434.4,284.9 L 437.1,283.3 L 439.4,281.3 L 441.2,279.5 L 443.0,277.5 L 444.4,275.0 L 445.2,273.4 L 445.8,271.6 L 446.2,270.2 L 446.4,268.4 L 446.6,265.7 L 446.5,260.5 L 444.8,241.4 L 444.8,238.6 L 444.8,235.7 L 445.0,232.4 L 445.4,229.5 L 446.0,226.1 L 446.7,223.5 L 447.8,219.6 L 449.2,215.5 L 450.4,212.6 L 451.6,209.9 L 452.9,207.6 L 454.4,204.9 L 456.2,202.2 L 458.2,199.5 L 460.6,196.7 L 463.1,194.3 L 465.8,191.6 L 469.7,188.4 L 472.8,186.2 L 476.0,184.2 L 482.6,181.0 L 498.2,173.6 L 507.2,169.5 L 508.0,169.2 L 508.7,169.0 L 510.2,168.5 L 511.8,168.3 L 513.3,168.0 L 514.9,168.0 L 516.4,168.1 L 517.8,168.4 L 519.3,168.7 L 520.6,169.1 L 521.6,169.5 L 523.0,170.2 L 524.1,170.9 L 527.5,173.2 L 530.8,175.6 L 534.1,179.0 L 536.4,181.9 L 538.2,184.8 L 539.4,186.9 L 540.2,188.9 L 541.1,191.2 L 541.9,194.2 L 542.4,197.6 L 542.6,201.8 L 542.7,211.7 L 542.8,224.2 L 543.2,250.4 L 543.6,256.6 L 544.3,259.6 L 545.3,262.7 L 546.7,265.9 L 549.0,268.6 L 550.8,270.1 L 554.1,271.9 L 557.1,273.4 L 559.3,275.2 L 560.8,277.5 L 561.6,280.3 L 561.8,283.5 L 562.1,300.3 L 563.2,377.7 L 563.3,383.8 L 563.5,401.1 L 565.2,540.9 L 566.3,646.4 L 566.0,667.5 L 566.7,673.3 L 567.5,675.7 L 569.0,677.4 L 569.9,678.4 L 572.0,679.6 L 576.6,680.1 L 612.1,678.6 L 627.4,678.1 L 633.1,678.9 L 638.8,681.1 L 643.2,683.7 L 647.4,687.8 L 649.5,690.8 L 651.1,694.2 L 652.2,697.8 L 653.4,702.0 L 656.3,708.2 L 658.4,711.0 L 661.1,713.4 L 666.7,716.5 L 670.1,717.6 L 673.5,718.2 L 681.3,718.3 L 698.3,717.1 L 715.2,716.0 L 718.8,715.9 L 721.7,716.5 L 723.8,717.1 L 725.7,718.3 L 727.0,719.3 L 728.4,720.5 L 729.7,722.1 L 731.0,724.4 L 732.0,726.5 L 733.0,728.9 L 734.1,731.8 L 735.1,734.8 L 736.6,740.2 L 737.8,746.1 L 738.3,749.4 L 738.6,753.4 L 738.8,758.4 L 738.4,763.4 L 738.0,768.0 L 733.7,796.4 L 730.4,819.0 L 728.4,831.5 L 727.9,834.5 L 727.2,837.7 L 726.0,841.9 L 725.0,845.1 L 723.9,847.9 L 722.1,852.8 L 719.6,858.0 L 717.3,861.9 L 713.4,867.5 L 709.2,872.4 L 705.3,876.7 L 701.2,881.4 L 691.5,889.4 L 685.7,892.8 L 679.3,896.0 L 672.8,898.8 L 664.7,901.4 L 659.9,902.7 L 654.4,904.0 L 641.8,905.9 L 560.6,910.0 L 551.9,908.7 L 549.4,906.1 L 549.2,905.0 L 548.5,903.5 L 548.2,901.4 L 547.8,898.7 L 550.1,850.3 L 549.5,844.6 L 548.1,840.7 L 546.1,836.9 L 543.2,832.8 L 540.5,830.3 L 538.7,829.4 L 537.3,829.0 L 535.5,828.7 L 533.3,828.8 L 531.1,829.6 L 527.7,830.9 L 488.6,846.8 L 483.1,848.4 L 477.2,849.8 L 474.1,850.2 L 469.7,850.5 L 464.0,850.4 L 459.3,849.8 L 454.5,848.9 L 450.7,847.9 L 446.5,846.3 L 442.1,844.2 L 438.0,842.0 L 433.6,839.0 L 427.7,833.8 L 423.7,829.4 L 419.0,823.5 L 413.8,814.0 L 406.4,798.6 L 402.4,787.7 L 401.0,783.3 L 400.0,778.9 L 398.7,770.7 L 397.4,760.8 L 396.3,749.4 L 396.0,735.8 L 395.9,730.4 L 395.8,720.0 L 395.7,710.6 L 395.6,699.1 L 395.3,672.4 L 395.1,659.0 L 395.0,645.1 L 394.9,631.5 L 394.8,626.5 Z" fill="none" stroke="#e7edf8" stroke-width="2.6" stroke-linejoin="round" stroke-linecap="round"/>
<path d="M 394.8,626.5 L 394.7,617.5 L 394.4,595.7 L 393.5,495.1 L 392.3,388.7 L 391.2,296.7 L 392.6,291.8 L 394.5,289.5 L 397.6,288.2 L 405.8,287.7 L 414.4,287.8 L 421.1,287.7 L 424.7,287.5 L 426.5,287.3 L 429.5,286.8 L 431.7,286.1 L 434.4,284.9 L 437.1,283.3 L 439.4,281.3 L 441.2,279.5 L 443.0,277.5 L 444.4,275.0 L 445.2,273.4 L 445.8,271.6 L 446.2,270.2 L 446.4,268.4 L 446.6,265.7 L 446.5,260.5 L 444.8,241.4 L 444.8,238.6 L 444.8,235.7 L 445.0,232.4 L 445.4,229.5 L 446.0,226.1 L 446.7,223.5 L 447.8,219.6 L 449.2,215.5 L 450.4,212.6 L 451.6,209.9 L 452.9,207.6 L 454.4,204.9 L 456.2,202.2 L 458.2,199.5 L 460.6,196.7 L 463.1,194.3 L 465.8,191.6 L 469.7,188.4 L 472.8,186.2 L 476.0,184.2 L 482.6,181.0 L 498.2,173.6 L 507.2,169.5 L 508.0,169.2 L 508.7,169.0 L 510.2,168.5 L 511.8,168.3 L 513.3,168.0 L 514.9,168.0 L 516.4,168.1 L 517.8,168.4 L 519.3,168.7 L 520.6,169.1 L 521.6,169.5 L 523.0,170.2 L 524.1,170.9 L 527.5,173.2 L 530.8,175.6 L 534.1,179.0 L 536.4,181.9 L 538.2,184.8 L 539.4,186.9 L 540.2,188.9 L 541.1,191.2 L 541.9,194.2 L 542.4,197.6 L 542.6,201.8 L 542.7,211.7 L 542.8,224.2 L 543.2,250.4 L 543.6,256.6 L 544.3,259.6 L 545.3,262.7 L 546.7,265.9 L 549.0,268.6 L 550.8,270.1 L 554.1,271.9 L 557.1,273.4 L 559.3,275.2 L 560.8,277.5 L 561.6,280.3 L 561.8,283.5 L 562.1,300.3 L 563.2,377.7 L 563.3,383.8 L 563.5,401.1 L 565.2,540.9 L 566.3,646.4 L 566.0,667.5 L 566.7,673.3 L 567.5,675.7 L 569.0,677.4 L 569.9,678.4 L 572.0,679.6 L 576.6,680.1 L 612.1,678.6 L 627.4,678.1 L 633.1,678.9 L 638.8,681.1 L 643.2,683.7 L 647.4,687.8 L 649.5,690.8 L 651.1,694.2 L 652.2,697.8 L 653.4,702.0 L 656.3,708.2 L 658.4,711.0 L 661.1,713.4 L 666.7,716.5 L 670.1,717.6 L 673.5,718.2 L 681.3,718.3 L 698.3,717.1 L 715.2,716.0 L 718.8,715.9 L 721.7,716.5 L 723.8,717.1 L 725.7,718.3 L 727.0,719.3 L 728.4,720.5 L 729.7,722.1 L 731.0,724.4 L 732.0,726.5 L 733.0,728.9 L 734.1,731.8 L 735.1,734.8 L 736.6,740.2 L 737.8,746.1 L 738.3,749.4 L 738.6,753.4 L 738.8,758.4 L 738.4,763.4 L 738.0,768.0 L 733.7,796.4 L 730.4,819.0 L 728.4,831.5 L 727.9,834.5 L 727.2,837.7 L 726.0,841.9 L 725.0,845.1 L 723.9,847.9 L 722.1,852.8 L 719.6,858.0 L 717.3,861.9 L 713.4,867.5 L 709.2,872.4 L 705.3,876.7 L 701.2,881.4 L 691.5,889.4 L 685.7,892.8 L 679.3,896.0 L 672.8,898.8 L 664.7,901.4 L 659.9,902.7 L 654.4,904.0 L 641.8,905.9 L 560.6,910.0 L 551.9,908.7 L 549.4,906.1 L 549.2,905.0 L 548.5,903.5 L 548.2,901.4 L 547.8,898.7 L 550.1,850.3 L 549.5,844.6 L 548.1,840.7 L 546.1,836.9 L 543.2,832.8 L 540.5,830.3 L 538.7,829.4 L 537.3,829.0 L 535.5,828.7 L 533.3,828.8 L 531.1,829.6 L 527.7,830.9 L 488.6,846.8 L 483.1,848.4 L 477.2,849.8 L 474.1,850.2 L 469.7,850.5 L 464.0,850.4 L 459.3,849.8 L 454.5,848.9 L 450.7,847.9 L 446.5,846.3 L 442.1,844.2 L 438.0,842.0 L 433.6,839.0 L 427.7,833.8 L 423.7,829.4 L 419.0,823.5 L 413.8,814.0 L 406.4,798.6 L 402.4,787.7 L 401.0,783.3 L 400.0,778.9 L 398.7,770.7 L 397.4,760.8 L 396.3,749.4 L 396.0,735.8 L 395.9,730.4 L 395.8,720.0 L 395.7,710.6 L 395.6,699.1 L 395.3,672.4 L 395.1,659.0 L 395.0,645.1 L 394.9,631.5 L 394.8,626.5 Z" fill="none" stroke="#ff5a36" stroke-opacity="0.55" stroke-width="1.2" stroke-linejoin="round" filter="url(#glow)"/>
<circle cx="563.3" cy="383.8" r="13" fill="none" stroke="#ffffff" stroke-width="3"/>
<rect x="559.3" y="361.8" width="8" height="18" fill="#ffffff"/>
<circle cx="606.2" cy="678.9" r="7" fill="#ff5a36" stroke="#0a0c12" stroke-width="2.5" filter="url(#glow)"/>
<text x="606.2" y="682.3" font-size="9" font-weight="700" fill="#0a0c12" text-anchor="middle">1</text>
<circle cx="653.5" cy="702.3" r="7" fill="#ff5a36" stroke="#0a0c12" stroke-width="2.5" filter="url(#glow)"/>
<text x="653.5" y="705.7" font-size="9" font-weight="700" fill="#0a0c12" text-anchor="middle">2</text>
<circle cx="717.2" cy="716.0" r="7" fill="#ff5a36" stroke="#0a0c12" stroke-width="2.5" filter="url(#glow)"/>
<text x="717.2" y="719.4" font-size="9" font-weight="700" fill="#0a0c12" text-anchor="middle">3</text>
<circle cx="733.7" cy="796.5" r="7" fill="#ff5a36" stroke="#0a0c12" stroke-width="2.5" filter="url(#glow)"/>
<text x="733.7" y="799.9" font-size="9" font-weight="700" fill="#0a0c12" text-anchor="middle">4</text>
<circle cx="710.1" cy="871.4" r="7" fill="#ff5a36" stroke="#0a0c12" stroke-width="2.5" filter="url(#glow)"/>
<text x="710.1" y="874.8" font-size="9" font-weight="700" fill="#0a0c12" text-anchor="middle">5</text>
<circle cx="676.5" cy="897.2" r="7" fill="#ff5a36" stroke="#0a0c12" stroke-width="2.5" filter="url(#glow)"/>
<text x="676.5" y="900.6" font-size="9" font-weight="700" fill="#0a0c12" text-anchor="middle">6</text>
<circle cx="403.4" cy="790.2" r="7" fill="#ff5a36" stroke="#0a0c12" stroke-width="2.5" filter="url(#glow)"/>
<text x="403.4" y="793.6" font-size="9" font-weight="700" fill="#0a0c12" text-anchor="middle">7</text>
<circle cx="395.9" cy="721.1" r="7" fill="#ff5a36" stroke="#0a0c12" stroke-width="2.5" filter="url(#glow)"/>
<text x="395.9" y="724.5" font-size="9" font-weight="700" fill="#0a0c12" text-anchor="middle">8</text>
<circle cx="395.2" cy="666.2" r="7" fill="#ff5a36" stroke="#0a0c12" stroke-width="2.5" filter="url(#glow)"/>
<text x="395.2" y="669.6" font-size="9" font-weight="700" fill="#0a0c12" text-anchor="middle">9</text>
<circle cx="394.3" cy="590.4" r="7" fill="#ff5a36" stroke="#0a0c12" stroke-width="2.5" filter="url(#glow)"/>
<text x="394.3" y="593.8" font-size="9" font-weight="700" fill="#0a0c12" text-anchor="middle">10</text>
<circle cx="392.9" cy="442.6" r="7" fill="#ff5a36" stroke="#0a0c12" stroke-width="2.5" filter="url(#glow)"/>
<text x="392.9" y="446.0" font-size="9" font-weight="700" fill="#0a0c12" text-anchor="middle">11</text>
<circle cx="407.0" cy="287.7" r="7" fill="#ff5a36" stroke="#0a0c12" stroke-width="2.5" filter="url(#glow)"/>
<text x="407.0" y="291.1" font-size="9" font-weight="700" fill="#0a0c12" text-anchor="middle">12</text>
<circle cx="444.8" cy="239.7" r="7" fill="#ff5a36" stroke="#0a0c12" stroke-width="2.5" filter="url(#glow)"/>
<text x="444.8" y="243.1" font-size="9" font-weight="700" fill="#0a0c12" text-anchor="middle">13</text>
<circle cx="533.4" cy="178.2" r="7" fill="#ff5a36" stroke="#0a0c12" stroke-width="2.5" filter="url(#glow)"/>
<text x="533.4" y="181.6" font-size="9" font-weight="700" fill="#0a0c12" text-anchor="middle">14</text>
<text x="90" y="64" font-size="20" letter-spacing="5" fill="#ff5a36" font-weight="700">TRACK ATLAS</text>
<text x="90" y="108" font-size="42" font-weight="800" fill="#ffffff">INDIANAPOLIS MOTOR SPEEDWAY</text>
<text x="90" y="136" font-size="16" fill="#9aa6bd">IMS, The Brickyard</text>
<rect x="1170" y="200" width="360" height="710" rx="16" fill="#ffffff" fill-opacity="0.04" stroke="#ff5a36" stroke-opacity="0.5"/>
<text x="1198" y="250" font-size="13" letter-spacing="2" fill="#8794ab">LAYOUT</text>
<text x="1198" y="276" font-size="22" font-weight="700" fill="#eef2fb">Road Course</text>
<text x="1198" y="320" font-size="13" letter-spacing="2" fill="#8794ab">LENGTH</text>
<text x="1198" y="346" font-size="22" font-weight="700" fill="#eef2fb">3.925 km</text>
<text x="1198" y="390" font-size="13" letter-spacing="2" fill="#8794ab">CORNERS</text>
<text x="1198" y="416" font-size="22" font-weight="700" fill="#eef2fb">14</text>
<text x="1198" y="460" font-size="13" letter-spacing="2" fill="#8794ab">NAMED CORNERS</text>
<text x="1198" y="486" font-size="22" font-weight="700" fill="#eef2fb">0</text>
<text x="1198" y="530" font-size="13" letter-spacing="2" fill="#8794ab">DIRECTION</text>
<text x="1198" y="556" font-size="22" font-weight="700" fill="#eef2fb">Clockwise</text>
<text x="1198" y="600" font-size="13" letter-spacing="2" fill="#8794ab">SECTORS</text>
<text x="1198" y="626" font-size="22" font-weight="700" fill="#eef2fb">3</text>
<text x="1198" y="670" font-size="13" letter-spacing="2" fill="#8794ab">COUNTRY</text>
<text x="1198" y="696" font-size="22" font-weight="700" fill="#eef2fb">USA</text>
<text x="1198" y="740" font-size="13" letter-spacing="2" fill="#8794ab">LOCATION</text>
<text x="1198" y="766" font-size="22" font-weight="700" fill="#eef2fb">Speedway, Indiana</text>
<text x="90" y="966" font-size="12" fill="#566177">Geometry © OpenStreetMap contributors (ODbL) · corner data: Lovely-Sim-Racing + curated · track-atlas</text>
<text x="90" y="942" font-size="12" fill="#8794ab">⚑ start / finish</text>
</svg>