<svg xmlns="http://www.w3.org/2000/svg" width="1600" height="1000" viewBox="0 0 1600 1000" font-family="Helvetica, Arial, sans-serif">
<defs>
      <radialGradient id="bg" cx="38%" cy="34%" r="85%">
        <stop offset="0%" stop-color="#1b2030"/>
        <stop offset="55%" stop-color="#12151f"/>
        <stop offset="100%" stop-color="#0a0c12"/>
      </radialGradient>
      <linearGradient id="accent" x1="0" y1="0" x2="1" y2="1">
        <stop offset="0%" stop-color="#ff5a36"/>
        <stop offset="100%" stop-color="#ffffff"/>
      </linearGradient>
      <filter id="glow" x="-40%" y="-40%" width="180%" height="180%">
        <feGaussianBlur stdDeviation="6" result="b"/>
        <feMerge><feMergeNode in="b"/><feMergeNode in="SourceGraphic"/></feMerge>
      </filter>
    </defs>
<rect width="1600" height="1000" fill="url(#bg)"/>
<line x1="0" y1="0" x2="0" y2="1000" stroke="#ffffff" stroke-opacity="0.025"/>
<line x1="56" y1="0" x2="56" y2="1000" stroke="#ffffff" stroke-opacity="0.025"/>
<line x1="112" y1="0" x2="112" y2="1000" stroke="#ffffff" stroke-opacity="0.025"/>
<line x1="168" y1="0" x2="168" y2="1000" stroke="#ffffff" stroke-opacity="0.025"/>
<line x1="224" y1="0" x2="224" y2="1000" stroke="#ffffff" stroke-opacity="0.025"/>
<line x1="280" y1="0" x2="280" y2="1000" stroke="#ffffff" stroke-opacity="0.025"/>
<line x1="336" y1="0" x2="336" y2="1000" stroke="#ffffff" stroke-opacity="0.025"/>
<line x1="392" y1="0" x2="392" y2="1000" stroke="#ffffff" stroke-opacity="0.025"/>
<line x1="448" y1="0" x2="448" y2="1000" stroke="#ffffff" stroke-opacity="0.025"/>
<line x1="504" y1="0" x2="504" y2="1000" stroke="#ffffff" stroke-opacity="0.025"/>
<line x1="560" y1="0" x2="560" y2="1000" stroke="#ffffff" stroke-opacity="0.025"/>
<line x1="616" y1="0" x2="616" y2="1000" stroke="#ffffff" stroke-opacity="0.025"/>
<line x1="672" y1="0" x2="672" y2="1000" stroke="#ffffff" stroke-opacity="0.025"/>
<line x1="728" y1="0" x2="728" y2="1000" stroke="#ffffff" stroke-opacity="0.025"/>
<line x1="784" y1="0" x2="784" y2="1000" stroke="#ffffff" stroke-opacity="0.025"/>
<line x1="840" y1="0" x2="840" y2="1000" stroke="#ffffff" stroke-opacity="0.025"/>
<line x1="896" y1="0" x2="896" y2="1000" stroke="#ffffff" stroke-opacity="0.025"/>
<line x1="952" y1="0" x2="952" y2="1000" stroke="#ffffff" stroke-opacity="0.025"/>
<line x1="1008" y1="0" x2="1008" y2="1000" stroke="#ffffff" stroke-opacity="0.025"/>
<line x1="1064" y1="0" x2="1064" y2="1000" stroke="#ffffff" stroke-opacity="0.025"/>
<line x1="1120" y1="0" x2="1120" y2="1000" stroke="#ffffff" stroke-opacity="0.025"/>
<line x1="1176" y1="0" x2="1176" y2="1000" stroke="#ffffff" stroke-opacity="0.025"/>
<line x1="1232" y1="0" x2="1232" y2="1000" stroke="#ffffff" stroke-opacity="0.025"/>
<line x1="1288" y1="0" x2="1288" y2="1000" stroke="#ffffff" stroke-opacity="0.025"/>
<line x1="1344" y1="0" x2="1344" y2="1000" stroke="#ffffff" stroke-opacity="0.025"/>
<line x1="1400" y1="0" x2="1400" y2="1000" stroke="#ffffff" stroke-opacity="0.025"/>
<line x1="1456" y1="0" x2="1456" y2="1000" stroke="#ffffff" stroke-opacity="0.025"/>
<line x1="1512" y1="0" x2="1512" y2="1000" stroke="#ffffff" stroke-opacity="0.025"/>
<line x1="1568" y1="0" x2="1568" y2="1000" stroke="#ffffff" stroke-opacity="0.025"/>
<line x1="0" y1="0" x2="1600" y2="0" stroke="#ffffff" stroke-opacity="0.025"/>
<line x1="0" y1="56" x2="1600" y2="56" stroke="#ffffff" stroke-opacity="0.025"/>
<line x1="0" y1="112" x2="1600" y2="112" stroke="#ffffff" stroke-opacity="0.025"/>
<line x1="0" y1="168" x2="1600" y2="168" stroke="#ffffff" stroke-opacity="0.025"/>
<line x1="0" y1="224" x2="1600" y2="224" stroke="#ffffff" stroke-opacity="0.025"/>
<line x1="0" y1="280" x2="1600" y2="280" stroke="#ffffff" stroke-opacity="0.025"/>
<line x1="0" y1="336" x2="1600" y2="336" stroke="#ffffff" stroke-opacity="0.025"/>
<line x1="0" y1="392" x2="1600" y2="392" stroke="#ffffff" stroke-opacity="0.025"/>
<line x1="0" y1="448" x2="1600" y2="448" stroke="#ffffff" stroke-opacity="0.025"/>
<line x1="0" y1="504" x2="1600" y2="504" stroke="#ffffff" stroke-opacity="0.025"/>
<line x1="0" y1="560" x2="1600" y2="560" stroke="#ffffff" stroke-opacity="0.025"/>
<line x1="0" y1="616" x2="1600" y2="616" stroke="#ffffff" stroke-opacity="0.025"/>
<line x1="0" y1="672" x2="1600" y2="672" stroke="#ffffff" stroke-opacity="0.025"/>
<line x1="0" y1="728" x2="1600" y2="728" stroke="#ffffff" stroke-opacity="0.025"/>
<line x1="0" y1="784" x2="1600" y2="784" stroke="#ffffff" stroke-opacity="0.025"/>
<line x1="0" y1="840" x2="1600" y2="840" stroke="#ffffff" stroke-opacity="0.025"/>
<line x1="0" y1="896" x2="1600" y2="896" stroke="#ffffff" stroke-opacity="0.025"/>
<line x1="0" y1="952" x2="1600" y2="952" stroke="#ffffff" stroke-opacity="0.025"/>
<path d="M 630.2,754.6 L 505.9,783.8 L 387.6,811.7 L 363.6,817.3 L 274.4,838.1 L 266.5,839.7 L 257.7,840.5 L 252.2,840.3 L 245.8,839.3 L 240.0,838.3 L 234.4,836.8 L 228.7,834.9 L 222.5,831.8 L 215.8,828.1 L 209.1,823.2 L 204.4,819.5 L 199.0,813.9 L 194.2,807.5 L 189.7,799.5 L 186.4,791.6 L 184.3,783.2 L 183.3,775.2 L 183.1,766.8 L 183.9,758.2 L 185.4,750.8 L 187.8,744.2 L 191.1,738.0 L 195.5,732.1 L 199.8,728.2 L 205.7,724.2 L 211.6,721.4 L 218.3,719.5 L 224.1,718.7 L 231.2,718.7 L 238.7,720.2 L 244.2,722.4 L 248.7,725.2 L 252.3,728.6 L 255.0,732.6 L 256.3,736.0 L 257.4,739.9 L 257.6,744.2 L 257.0,748.1 L 255.7,752.6 L 251.8,762.9 L 250.5,766.6 L 249.3,770.2 L 248.8,774.7 L 249.3,780.2 L 251.1,786.6 L 254.1,791.4 L 258.3,795.6 L 263.2,798.3 L 268.8,800.3 L 272.3,800.9 L 276.0,801.1 L 279.0,800.5 L 282.6,799.4 L 285.7,797.9 L 289.2,795.6 L 294.5,789.3 L 299.1,782.2 L 302.4,775.8 L 305.0,769.1 L 306.7,762.6 L 308.5,754.1 L 309.2,743.9 L 308.7,738.3 L 307.2,730.9 L 304.8,724.2 L 302.8,719.9 L 299.2,714.6 L 288.2,701.5 L 215.4,617.1 L 166.7,562.4 L 159.5,554.0 L 156.2,549.3 L 153.6,544.4 L 150.0,535.9 L 147.1,527.5 L 98.6,386.8 L 97.5,381.9 L 97.8,375.8 L 100.3,371.0 L 104.2,367.7 L 108.8,366.0 L 114.6,366.1 L 120.3,368.4 L 127.0,372.0 L 133.5,376.3 L 146.3,386.4 L 153.0,392.1 L 159.7,398.5 L 170.0,409.8 L 178.3,420.8 L 183.7,428.7 L 188.2,436.6 L 200.4,458.4 L 251.1,545.9 L 254.3,551.4 L 258.5,557.2 L 263.3,563.5 L 268.8,569.6 L 275.6,575.3 L 282.2,580.1 L 289.4,584.6 L 296.2,588.5 L 303.7,591.2 L 309.8,593.0 L 316.1,594.5 L 322.5,595.5 L 329.1,596.1 L 336.9,596.3 L 343.4,596.2 L 349.7,595.5 L 356.8,593.9 L 363.4,592.2 L 371.0,589.5 L 377.7,586.4 L 386.2,581.2 L 395.0,574.9 L 403.8,566.6 L 412.0,557.0 L 416.3,550.6 L 421.2,542.2 L 434.7,511.9 L 445.7,489.0 L 448.7,482.9 L 453.7,475.2 L 458.6,469.2 L 465.0,463.3 L 471.7,458.7 L 479.4,454.7 L 487.2,452.1 L 494.8,450.5 L 503.2,449.9 L 511.8,450.5 L 520.8,452.1 L 528.5,455.0 L 536.9,459.2 L 545.6,465.7 L 552.3,472.6 L 558.4,480.5 L 562.2,487.9 L 583.4,532.4 L 585.5,536.7 L 588.7,540.9 L 592.2,544.0 L 595.8,545.8 L 602.8,547.3 L 608.1,546.9 L 613.0,545.5 L 616.4,543.6 L 619.5,541.6 L 622.6,538.6 L 650.4,503.1 L 652.4,500.2 L 654.7,496.3 L 656.1,492.6 L 656.5,488.8 L 656.7,485.6 L 656.1,481.6 L 654.9,477.5 L 653.0,472.8 L 644.5,459.0 L 616.6,414.2 L 586.0,363.4 L 568.0,333.5 L 567.0,331.8 L 534.6,278.6 L 514.8,246.0 L 477.1,184.1 L 473.8,180.5 L 470.5,178.5 L 466.8,177.9 L 464.1,178.2 L 461.0,179.0 L 457.4,181.0 L 452.5,185.6 L 448.4,190.5 L 445.7,194.2 L 442.7,199.3 L 439.5,203.3 L 437.0,205.4 L 435.9,206.4 L 431.9,208.8 L 428.0,210.5 L 424.1,211.5 L 419.8,211.6 L 415.0,211.1 L 410.3,209.6 L 402.8,204.5 L 397.5,199.7 L 396.0,197.7 L 393.6,194.8 L 389.1,188.6 L 386.1,183.0 L 383.4,176.5 L 380.7,164.9 L 380.5,162.7 L 379.7,153.2 L 379.8,147.1 L 380.5,141.9 L 381.8,136.2 L 383.5,130.4 L 387.1,123.0 L 392.2,114.8 L 397.5,108.8 L 405.3,102.0 L 415.7,96.5 L 427.9,92.3 L 440.2,90.3 L 445.0,90.2 L 451.5,90.0 L 463.8,91.0 L 476.2,93.9 L 488.2,97.9 L 497.6,103.6 L 508.1,110.9 L 516.4,118.8 L 522.4,126.2 L 530.0,136.5 L 631.2,290.3 L 679.8,364.2 L 719.3,424.2 L 736.4,450.1 L 792.8,535.5 L 800.7,547.3 L 845.1,615.0 L 898.6,696.3 L 1024.4,886.6 L 1030.2,896.0 L 1031.7,899.8 L 1032.5,902.2 L 1032.4,905.2 L 1031.4,907.0 L 1030.0,908.3 L 1027.9,909.8 L 1025.1,910.0 L 1021.4,909.3 L 1016.6,907.4 L 1006.6,901.5 L 980.7,886.1 L 975.9,882.8 L 971.1,877.7 L 965.8,871.5 L 865.7,732.0 L 849.9,710.3 L 846.6,706.8 L 844.5,705.1 L 842.5,704.3 L 839.9,704.0 L 837.1,704.3 L 832.3,705.2 L 713.8,734.9 L 654.5,748.8 L 630.2,754.6 Z" fill="none" stroke="#000000" stroke-opacity="0.5" stroke-width="13" stroke-linejoin="round" stroke-linecap="round"/>
<path d="M 630.2,754.6 L 505.9,783.8 L 387.6,811.7 L 363.6,817.3 L 274.4,838.1 L 266.5,839.7 L 257.7,840.5 L 252.2,840.3 L 245.8,839.3 L 240.0,838.3 L 234.4,836.8 L 228.7,834.9 L 222.5,831.8 L 215.8,828.1 L 209.1,823.2 L 204.4,819.5 L 199.0,813.9 L 194.2,807.5 L 189.7,799.5 L 186.4,791.6 L 184.3,783.2 L 183.3,775.2 L 183.1,766.8 L 183.9,758.2 L 185.4,750.8 L 187.8,744.2 L 191.1,738.0 L 195.5,732.1 L 199.8,728.2 L 205.7,724.2 L 211.6,721.4 L 218.3,719.5 L 224.1,718.7 L 231.2,718.7 L 238.7,720.2 L 244.2,722.4 L 248.7,725.2 L 252.3,728.6 L 255.0,732.6 L 256.3,736.0 L 257.4,739.9 L 257.6,744.2 L 257.0,748.1 L 255.7,752.6 L 251.8,762.9 L 250.5,766.6 L 249.3,770.2 L 248.8,774.7 L 249.3,780.2 L 251.1,786.6 L 254.1,791.4 L 258.3,795.6 L 263.2,798.3 L 268.8,800.3 L 272.3,800.9 L 276.0,801.1 L 279.0,800.5 L 282.6,799.4 L 285.7,797.9 L 289.2,795.6 L 294.5,789.3 L 299.1,782.2 L 302.4,775.8 L 305.0,769.1 L 306.7,762.6 L 308.5,754.1 L 309.2,743.9 L 308.7,738.3 L 307.2,730.9 L 304.8,724.2 L 302.8,719.9 L 299.2,714.6 L 288.2,701.5 L 215.4,617.1 L 166.7,562.4 L 159.5,554.0 L 156.2,549.3 L 153.6,544.4 L 150.0,535.9 L 147.1,527.5 L 98.6,386.8 L 97.5,381.9 L 97.8,375.8 L 100.3,371.0 L 104.2,367.7 L 108.8,366.0 L 114.6,366.1 L 120.3,368.4 L 127.0,372.0 L 133.5,376.3 L 146.3,386.4 L 153.0,392.1 L 159.7,398.5 L 170.0,409.8 L 178.3,420.8 L 183.7,428.7 L 188.2,436.6 L 200.4,458.4 L 251.1,545.9 L 254.3,551.4 L 258.5,557.2 L 263.3,563.5 L 268.8,569.6 L 275.6,575.3 L 282.2,580.1 L 289.4,584.6 L 296.2,588.5 L 303.7,591.2 L 309.8,593.0 L 316.1,594.5 L 322.5,595.5 L 329.1,596.1 L 336.9,596.3 L 343.4,596.2 L 349.7,595.5 L 356.8,593.9 L 363.4,592.2 L 371.0,589.5 L 377.7,586.4 L 386.2,581.2 L 395.0,574.9 L 403.8,566.6 L 412.0,557.0 L 416.3,550.6 L 421.2,542.2 L 434.7,511.9 L 445.7,489.0 L 448.7,482.9 L 453.7,475.2 L 458.6,469.2 L 465.0,463.3 L 471.7,458.7 L 479.4,454.7 L 487.2,452.1 L 494.8,450.5 L 503.2,449.9 L 511.8,450.5 L 520.8,452.1 L 528.5,455.0 L 536.9,459.2 L 545.6,465.7 L 552.3,472.6 L 558.4,480.5 L 562.2,487.9 L 583.4,532.4 L 585.5,536.7 L 588.7,540.9 L 592.2,544.0 L 595.8,545.8 L 602.8,547.3 L 608.1,546.9 L 613.0,545.5 L 616.4,543.6 L 619.5,541.6 L 622.6,538.6 L 650.4,503.1 L 652.4,500.2 L 654.7,496.3 L 656.1,492.6 L 656.5,488.8 L 656.7,485.6 L 656.1,481.6 L 654.9,477.5 L 653.0,472.8 L 644.5,459.0 L 616.6,414.2 L 586.0,363.4 L 568.0,333.5 L 567.0,331.8 L 534.6,278.6 L 514.8,246.0 L 477.1,184.1 L 473.8,180.5 L 470.5,178.5 L 466.8,177.9 L 464.1,178.2 L 461.0,179.0 L 457.4,181.0 L 452.5,185.6 L 448.4,190.5 L 445.7,194.2 L 442.7,199.3 L 439.5,203.3 L 437.0,205.4 L 435.9,206.4 L 431.9,208.8 L 428.0,210.5 L 424.1,211.5 L 419.8,211.6 L 415.0,211.1 L 410.3,209.6 L 402.8,204.5 L 397.5,199.7 L 396.0,197.7 L 393.6,194.8 L 389.1,188.6 L 386.1,183.0 L 383.4,176.5 L 380.7,164.9 L 380.5,162.7 L 379.7,153.2 L 379.8,147.1 L 380.5,141.9 L 381.8,136.2 L 383.5,130.4 L 387.1,123.0 L 392.2,114.8 L 397.5,108.8 L 405.3,102.0 L 415.7,96.5 L 427.9,92.3 L 440.2,90.3 L 445.0,90.2 L 451.5,90.0 L 463.8,91.0 L 476.2,93.9 L 488.2,97.9 L 497.6,103.6 L 508.1,110.9 L 516.4,118.8 L 522.4,126.2 L 530.0,136.5 L 631.2,290.3 L 679.8,364.2 L 719.3,424.2 L 736.4,450.1 L 792.8,535.5 L 800.7,547.3 L 845.1,615.0 L 898.6,696.3 L 1024.4,886.6 L 1030.2,896.0 L 1031.7,899.8 L 1032.5,902.2 L 1032.4,905.2 L 1031.4,907.0 L 1030.0,908.3 L 1027.9,909.8 L 1025.1,910.0 L 1021.4,909.3 L 1016.6,907.4 L 1006.6,901.5 L 980.7,886.1 L 975.9,882.8 L 971.1,877.7 L 965.8,871.5 L 865.7,732.0 L 849.9,710.3 L 846.6,706.8 L 844.5,705.1 L 842.5,704.3 L 839.9,704.0 L 837.1,704.3 L 832.3,705.2 L 713.8,734.9 L 654.5,748.8 L 630.2,754.6 Z" fill="none" stroke="#39404f" stroke-width="8.5" stroke-linejoin="round" stroke-linecap="round"/>
<path d="M 630.2,754.6 L 505.9,783.8 L 387.6,811.7 L 363.6,817.3 L 274.4,838.1 L 266.5,839.7 L 257.7,840.5 L 252.2,840.3 L 245.8,839.3 L 240.0,838.3 L 234.4,836.8 L 228.7,834.9 L 222.5,831.8 L 215.8,828.1 L 209.1,823.2 L 204.4,819.5 L 199.0,813.9 L 194.2,807.5 L 189.7,799.5 L 186.4,791.6 L 184.3,783.2 L 183.3,775.2 L 183.1,766.8 L 183.9,758.2 L 185.4,750.8 L 187.8,744.2 L 191.1,738.0 L 195.5,732.1 L 199.8,728.2 L 205.7,724.2 L 211.6,721.4 L 218.3,719.5 L 224.1,718.7 L 231.2,718.7 L 238.7,720.2 L 244.2,722.4 L 248.7,725.2 L 252.3,728.6 L 255.0,732.6 L 256.3,736.0 L 257.4,739.9 L 257.6,744.2 L 257.0,748.1 L 255.7,752.6 L 251.8,762.9 L 250.5,766.6 L 249.3,770.2 L 248.8,774.7 L 249.3,780.2 L 251.1,786.6 L 254.1,791.4 L 258.3,795.6 L 263.2,798.3 L 268.8,800.3 L 272.3,800.9 L 276.0,801.1 L 279.0,800.5 L 282.6,799.4 L 285.7,797.9 L 289.2,795.6 L 294.5,789.3 L 299.1,782.2 L 302.4,775.8 L 305.0,769.1 L 306.7,762.6 L 308.5,754.1 L 309.2,743.9 L 308.7,738.3 L 307.2,730.9 L 304.8,724.2 L 302.8,719.9 L 299.2,714.6 L 288.2,701.5 L 215.4,617.1 L 166.7,562.4 L 159.5,554.0 L 156.2,549.3 L 153.6,544.4 L 150.0,535.9 L 147.1,527.5 L 98.6,386.8 L 97.5,381.9 L 97.8,375.8 L 100.3,371.0 L 104.2,367.7 L 108.8,366.0 L 114.6,366.1 L 120.3,368.4 L 127.0,372.0 L 133.5,376.3 L 146.3,386.4 L 153.0,392.1 L 159.7,398.5 L 170.0,409.8 L 178.3,420.8 L 183.7,428.7 L 188.2,436.6 L 200.4,458.4 L 251.1,545.9 L 254.3,551.4 L 258.5,557.2 L 263.3,563.5 L 268.8,569.6 L 275.6,575.3 L 282.2,580.1 L 289.4,584.6 L 296.2,588.5 L 303.7,591.2 L 309.8,593.0 L 316.1,594.5 L 322.5,595.5 L 329.1,596.1 L 336.9,596.3 L 343.4,596.2 L 349.7,595.5 L 356.8,593.9 L 363.4,592.2 L 371.0,589.5 L 377.7,586.4 L 386.2,581.2 L 395.0,574.9 L 403.8,566.6 L 412.0,557.0 L 416.3,550.6 L 421.2,542.2 L 434.7,511.9 L 445.7,489.0 L 448.7,482.9 L 453.7,475.2 L 458.6,469.2 L 465.0,463.3 L 471.7,458.7 L 479.4,454.7 L 487.2,452.1 L 494.8,450.5 L 503.2,449.9 L 511.8,450.5 L 520.8,452.1 L 528.5,455.0 L 536.9,459.2 L 545.6,465.7 L 552.3,472.6 L 558.4,480.5 L 562.2,487.9 L 583.4,532.4 L 585.5,536.7 L 588.7,540.9 L 592.2,544.0 L 595.8,545.8 L 602.8,547.3 L 608.1,546.9 L 613.0,545.5 L 616.4,543.6 L 619.5,541.6 L 622.6,538.6 L 650.4,503.1 L 652.4,500.2 L 654.7,496.3 L 656.1,492.6 L 656.5,488.8 L 656.7,485.6 L 656.1,481.6 L 654.9,477.5 L 653.0,472.8 L 644.5,459.0 L 616.6,414.2 L 586.0,363.4 L 568.0,333.5 L 567.0,331.8 L 534.6,278.6 L 514.8,246.0 L 477.1,184.1 L 473.8,180.5 L 470.5,178.5 L 466.8,177.9 L 464.1,178.2 L 461.0,179.0 L 457.4,181.0 L 452.5,185.6 L 448.4,190.5 L 445.7,194.2 L 442.7,199.3 L 439.5,203.3 L 437.0,205.4 L 435.9,206.4 L 431.9,208.8 L 428.0,210.5 L 424.1,211.5 L 419.8,211.6 L 415.0,211.1 L 410.3,209.6 L 402.8,204.5 L 397.5,199.7 L 396.0,197.7 L 393.6,194.8 L 389.1,188.6 L 386.1,183.0 L 383.4,176.5 L 380.7,164.9 L 380.5,162.7 L 379.7,153.2 L 379.8,147.1 L 380.5,141.9 L 381.8,136.2 L 383.5,130.4 L 387.1,123.0 L 392.2,114.8 L 397.5,108.8 L 405.3,102.0 L 415.7,96.5 L 427.9,92.3 L 440.2,90.3 L 445.0,90.2 L 451.5,90.0 L 463.8,91.0 L 476.2,93.9 L 488.2,97.9 L 497.6,103.6 L 508.1,110.9 L 516.4,118.8 L 522.4,126.2 L 530.0,136.5 L 631.2,290.3 L 679.8,364.2 L 719.3,424.2 L 736.4,450.1 L 792.8,535.5 L 800.7,547.3 L 845.1,615.0 L 898.6,696.3 L 1024.4,886.6 L 1030.2,896.0 L 1031.7,899.8 L 1032.5,902.2 L 1032.4,905.2 L 1031.4,907.0 L 1030.0,908.3 L 1027.9,909.8 L 1025.1,910.0 L 1021.4,909.3 L 1016.6,907.4 L 1006.6,901.5 L 980.7,886.1 L 975.9,882.8 L 971.1,877.7 L 965.8,871.5 L 865.7,732.0 L 849.9,710.3 L 846.6,706.8 L 844.5,705.1 L 842.5,704.3 L 839.9,704.0 L 837.1,704.3 L 832.3,705.2 L 713.8,734.9 L 654.5,748.8 L 630.2,754.6 Z" fill="none" stroke="#e7edf8" stroke-width="2.6" stroke-linejoin="round" stroke-linecap="round"/>
<path d="M 630.2,754.6 L 505.9,783.8 L 387.6,811.7 L 363.6,817.3 L 274.4,838.1 L 266.5,839.7 L 257.7,840.5 L 252.2,840.3 L 245.8,839.3 L 240.0,838.3 L 234.4,836.8 L 228.7,834.9 L 222.5,831.8 L 215.8,828.1 L 209.1,823.2 L 204.4,819.5 L 199.0,813.9 L 194.2,807.5 L 189.7,799.5 L 186.4,791.6 L 184.3,783.2 L 183.3,775.2 L 183.1,766.8 L 183.9,758.2 L 185.4,750.8 L 187.8,744.2 L 191.1,738.0 L 195.5,732.1 L 199.8,728.2 L 205.7,724.2 L 211.6,721.4 L 218.3,719.5 L 224.1,718.7 L 231.2,718.7 L 238.7,720.2 L 244.2,722.4 L 248.7,725.2 L 252.3,728.6 L 255.0,732.6 L 256.3,736.0 L 257.4,739.9 L 257.6,744.2 L 257.0,748.1 L 255.7,752.6 L 251.8,762.9 L 250.5,766.6 L 249.3,770.2 L 248.8,774.7 L 249.3,780.2 L 251.1,786.6 L 254.1,791.4 L 258.3,795.6 L 263.2,798.3 L 268.8,800.3 L 272.3,800.9 L 276.0,801.1 L 279.0,800.5 L 282.6,799.4 L 285.7,797.9 L 289.2,795.6 L 294.5,789.3 L 299.1,782.2 L 302.4,775.8 L 305.0,769.1 L 306.7,762.6 L 308.5,754.1 L 309.2,743.9 L 308.7,738.3 L 307.2,730.9 L 304.8,724.2 L 302.8,719.9 L 299.2,714.6 L 288.2,701.5 L 215.4,617.1 L 166.7,562.4 L 159.5,554.0 L 156.2,549.3 L 153.6,544.4 L 150.0,535.9 L 147.1,527.5 L 98.6,386.8 L 97.5,381.9 L 97.8,375.8 L 100.3,371.0 L 104.2,367.7 L 108.8,366.0 L 114.6,366.1 L 120.3,368.4 L 127.0,372.0 L 133.5,376.3 L 146.3,386.4 L 153.0,392.1 L 159.7,398.5 L 170.0,409.8 L 178.3,420.8 L 183.7,428.7 L 188.2,436.6 L 200.4,458.4 L 251.1,545.9 L 254.3,551.4 L 258.5,557.2 L 263.3,563.5 L 268.8,569.6 L 275.6,575.3 L 282.2,580.1 L 289.4,584.6 L 296.2,588.5 L 303.7,591.2 L 309.8,593.0 L 316.1,594.5 L 322.5,595.5 L 329.1,596.1 L 336.9,596.3 L 343.4,596.2 L 349.7,595.5 L 356.8,593.9 L 363.4,592.2 L 371.0,589.5 L 377.7,586.4 L 386.2,581.2 L 395.0,574.9 L 403.8,566.6 L 412.0,557.0 L 416.3,550.6 L 421.2,542.2 L 434.7,511.9 L 445.7,489.0 L 448.7,482.9 L 453.7,475.2 L 458.6,469.2 L 465.0,463.3 L 471.7,458.7 L 479.4,454.7 L 487.2,452.1 L 494.8,450.5 L 503.2,449.9 L 511.8,450.5 L 520.8,452.1 L 528.5,455.0 L 536.9,459.2 L 545.6,465.7 L 552.3,472.6 L 558.4,480.5 L 562.2,487.9 L 583.4,532.4 L 585.5,536.7 L 588.7,540.9 L 592.2,544.0 L 595.8,545.8 L 602.8,547.3 L 608.1,546.9 L 613.0,545.5 L 616.4,543.6 L 619.5,541.6 L 622.6,538.6 L 650.4,503.1 L 652.4,500.2 L 654.7,496.3 L 656.1,492.6 L 656.5,488.8 L 656.7,485.6 L 656.1,481.6 L 654.9,477.5 L 653.0,472.8 L 644.5,459.0 L 616.6,414.2 L 586.0,363.4 L 568.0,333.5 L 567.0,331.8 L 534.6,278.6 L 514.8,246.0 L 477.1,184.1 L 473.8,180.5 L 470.5,178.5 L 466.8,177.9 L 464.1,178.2 L 461.0,179.0 L 457.4,181.0 L 452.5,185.6 L 448.4,190.5 L 445.7,194.2 L 442.7,199.3 L 439.5,203.3 L 437.0,205.4 L 435.9,206.4 L 431.9,208.8 L 428.0,210.5 L 424.1,211.5 L 419.8,211.6 L 415.0,211.1 L 410.3,209.6 L 402.8,204.5 L 397.5,199.7 L 396.0,197.7 L 393.6,194.8 L 389.1,188.6 L 386.1,183.0 L 383.4,176.5 L 380.7,164.9 L 380.5,162.7 L 379.7,153.2 L 379.8,147.1 L 380.5,141.9 L 381.8,136.2 L 383.5,130.4 L 387.1,123.0 L 392.2,114.8 L 397.5,108.8 L 405.3,102.0 L 415.7,96.5 L 427.9,92.3 L 440.2,90.3 L 445.0,90.2 L 451.5,90.0 L 463.8,91.0 L 476.2,93.9 L 488.2,97.9 L 497.6,103.6 L 508.1,110.9 L 516.4,118.8 L 522.4,126.2 L 530.0,136.5 L 631.2,290.3 L 679.8,364.2 L 719.3,424.2 L 736.4,450.1 L 792.8,535.5 L 800.7,547.3 L 845.1,615.0 L 898.6,696.3 L 1024.4,886.6 L 1030.2,896.0 L 1031.7,899.8 L 1032.5,902.2 L 1032.4,905.2 L 1031.4,907.0 L 1030.0,908.3 L 1027.9,909.8 L 1025.1,910.0 L 1021.4,909.3 L 1016.6,907.4 L 1006.6,901.5 L 980.7,886.1 L 975.9,882.8 L 971.1,877.7 L 965.8,871.5 L 865.7,732.0 L 849.9,710.3 L 846.6,706.8 L 844.5,705.1 L 842.5,704.3 L 839.9,704.0 L 837.1,704.3 L 832.3,705.2 L 713.8,734.9 L 654.5,748.8 L 630.2,754.6 Z" fill="none" stroke="#ff5a36" stroke-opacity="0.55" stroke-width="1.2" stroke-linejoin="round" filter="url(#glow)"/>
<circle cx="630.2" cy="754.5" r="13" fill="none" stroke="#ffffff" stroke-width="3"/>
<rect x="626.2" y="732.5" width="8" height="18" fill="#ffffff"/>
<circle cx="200.2" cy="815.2" r="7" fill="#ff5a36" stroke="#0a0c12" stroke-width="2.5" filter="url(#glow)"/>
<text x="200.2" y="818.6" font-size="9" font-weight="700" fill="#0a0c12" text-anchor="middle">1</text>
<circle cx="257.5" cy="745.6" r="7" fill="#ff5a36" stroke="#0a0c12" stroke-width="2.5" filter="url(#glow)"/>
<text x="257.5" y="749.0" font-size="9" font-weight="700" fill="#0a0c12" text-anchor="middle">2</text>
<circle cx="268.3" cy="800.1" r="7" fill="#ff5a36" stroke="#0a0c12" stroke-width="2.5" filter="url(#glow)"/>
<text x="268.3" y="803.5" font-size="9" font-weight="700" fill="#0a0c12" text-anchor="middle">3</text>
<circle cx="301.2" cy="717.5" r="7" fill="#ff5a36" stroke="#0a0c12" stroke-width="2.5" filter="url(#glow)"/>
<text x="301.2" y="720.9" font-size="9" font-weight="700" fill="#0a0c12" text-anchor="middle">4</text>
<circle cx="152.2" cy="541.3" r="7" fill="#ff5a36" stroke="#0a0c12" stroke-width="2.5" filter="url(#glow)"/>
<text x="152.2" y="544.7" font-size="9" font-weight="700" fill="#0a0c12" text-anchor="middle">5</text>
<circle cx="116.1" cy="366.7" r="7" fill="#ff5a36" stroke="#0a0c12" stroke-width="2.5" filter="url(#glow)"/>
<text x="116.1" y="370.1" font-size="9" font-weight="700" fill="#0a0c12" text-anchor="middle">6</text>
<circle cx="386.0" cy="581.4" r="7" fill="#ff5a36" stroke="#0a0c12" stroke-width="2.5" filter="url(#glow)"/>
<text x="386.0" y="584.8" font-size="9" font-weight="700" fill="#0a0c12" text-anchor="middle">7</text>
<circle cx="503.9" cy="449.9" r="7" fill="#ff5a36" stroke="#0a0c12" stroke-width="2.5" filter="url(#glow)"/>
<text x="503.9" y="453.3" font-size="9" font-weight="700" fill="#0a0c12" text-anchor="middle">8</text>
<circle cx="614.2" cy="544.8" r="7" fill="#ff5a36" stroke="#0a0c12" stroke-width="2.5" filter="url(#glow)"/>
<text x="614.2" y="548.2" font-size="9" font-weight="700" fill="#0a0c12" text-anchor="middle">9</text>
<circle cx="653.3" cy="473.4" r="7" fill="#ff5a36" stroke="#0a0c12" stroke-width="2.5" filter="url(#glow)"/>
<text x="653.3" y="476.8" font-size="9" font-weight="700" fill="#0a0c12" text-anchor="middle">10</text>
<circle cx="455.0" cy="183.2" r="7" fill="#ff5a36" stroke="#0a0c12" stroke-width="2.5" filter="url(#glow)"/>
<text x="455.0" y="186.6" font-size="9" font-weight="700" fill="#0a0c12" text-anchor="middle">11</text>
<circle cx="413.4" cy="210.6" r="7" fill="#ff5a36" stroke="#0a0c12" stroke-width="2.5" filter="url(#glow)"/>
<text x="413.4" y="214.0" font-size="9" font-weight="700" fill="#0a0c12" text-anchor="middle">12</text>
<circle cx="410.7" cy="99.2" r="7" fill="#ff5a36" stroke="#0a0c12" stroke-width="2.5" filter="url(#glow)"/>
<text x="410.7" y="102.6" font-size="9" font-weight="700" fill="#0a0c12" text-anchor="middle">13</text>
<circle cx="1018.8" cy="908.3" r="7" fill="#ff5a36" stroke="#0a0c12" stroke-width="2.5" filter="url(#glow)"/>
<text x="1018.8" y="911.7" font-size="9" font-weight="700" fill="#0a0c12" text-anchor="middle">14</text>
<circle cx="966.8" cy="872.7" r="7" fill="#ff5a36" stroke="#0a0c12" stroke-width="2.5" filter="url(#glow)"/>
<text x="966.8" y="876.1" font-size="9" font-weight="700" fill="#0a0c12" text-anchor="middle">15</text>
<circle cx="831.7" cy="705.3" r="7" fill="#ff5a36" stroke="#0a0c12" stroke-width="2.5" filter="url(#glow)"/>
<text x="831.7" y="708.7" font-size="9" font-weight="700" fill="#0a0c12" text-anchor="middle">16</text>
<line x1="200.2" y1="815.2" x2="166.5" y2="873.9" stroke="#ff5a36" stroke-opacity="0.45" stroke-width="1.3"/>
<text x="158.5" y="877.9" font-size="15" font-weight="600" fill="#eef2fb" text-anchor="end">Turn 1</text>
<line x1="257.5" y1="745.6" x2="223.5" y2="789.1" stroke="#ff5a36" stroke-opacity="0.45" stroke-width="1.3"/>
<text x="215.5" y="793.1" font-size="15" font-weight="600" fill="#eef2fb" text-anchor="end">Turn 2</text>
<line x1="268.3" y1="800.1" x2="240.3" y2="843.9" stroke="#ff5a36" stroke-opacity="0.45" stroke-width="1.3"/>
<text x="232.3" y="847.9" font-size="15" font-weight="600" fill="#eef2fb" text-anchor="end">Turn 3</text>
<line x1="301.2" y1="717.5" x2="269.9" y2="759.1" stroke="#ff5a36" stroke-opacity="0.45" stroke-width="1.3"/>
<text x="261.9" y="763.1" font-size="15" font-weight="600" fill="#eef2fb" text-anchor="end">Turn 4</text>
<line x1="152.2" y1="541.3" x2="100.2" y2="541.1" stroke="#ff5a36" stroke-opacity="0.45" stroke-width="1.3"/>
<text x="92.2" y="545.1" font-size="15" font-weight="600" fill="#eef2fb" text-anchor="end">Turn 5</text>
<line x1="116.1" y1="366.7" x2="70.6" y2="341.5" stroke="#ff5a36" stroke-opacity="0.45" stroke-width="1.3"/>
<text x="62.6" y="345.5" font-size="15" font-weight="600" fill="#eef2fb" text-anchor="end">Turn 6</text>
<line x1="386.0" y1="581.4" x2="346.0" y2="614.7" stroke="#ff5a36" stroke-opacity="0.45" stroke-width="1.3"/>
<text x="338.0" y="618.7" font-size="15" font-weight="600" fill="#eef2fb" text-anchor="end">Turn 7</text>
<line x1="503.9" y1="449.9" x2="535.6" y2="408.6" stroke="#ff5a36" stroke-opacity="0.45" stroke-width="1.3"/>
<text x="543.6" y="412.6" font-size="15" font-weight="600" fill="#eef2fb" text-anchor="start">Turn 8</text>
<line x1="614.2" y1="544.8" x2="666.2" y2="545.6" stroke="#ff5a36" stroke-opacity="0.45" stroke-width="1.3"/>
<text x="674.2" y="549.6" font-size="15" font-weight="600" fill="#eef2fb" text-anchor="start">Turn 9</text>
<line x1="653.3" y1="473.4" x2="702.9" y2="458.0" stroke="#ff5a36" stroke-opacity="0.45" stroke-width="1.3"/>
<text x="710.9" y="462.0" font-size="15" font-weight="600" fill="#eef2fb" text-anchor="start">Turn 10</text>
<line x1="455.0" y1="183.2" x2="458.2" y2="131.3" stroke="#ff5a36" stroke-opacity="0.45" stroke-width="1.3"/>
<text x="466.2" y="135.3" font-size="15" font-weight="600" fill="#eef2fb" text-anchor="start">Turn 11</text>
<line x1="413.4" y1="210.6" x2="410.3" y2="192.0" stroke="#ff5a36" stroke-opacity="0.45" stroke-width="1.3"/>
<text x="402.3" y="196.0" font-size="15" font-weight="600" fill="#eef2fb" text-anchor="end">Turn 12</text>
<line x1="410.7" y1="99.2" x2="408.1" y2="162.0" stroke="#ff5a36" stroke-opacity="0.45" stroke-width="1.3"/>
<text x="400.1" y="166.0" font-size="15" font-weight="600" fill="#eef2fb" text-anchor="end">Turn 13</text>
<line x1="1018.8" y1="908.3" x2="1062.9" y2="935.9" stroke="#ff5a36" stroke-opacity="0.45" stroke-width="1.3"/>
<text x="1070.9" y="939.9" font-size="15" font-weight="600" fill="#eef2fb" text-anchor="start">Turn 14</text>
<line x1="966.8" y1="872.7" x2="1011.0" y2="900.1" stroke="#ff5a36" stroke-opacity="0.45" stroke-width="1.3"/>
<text x="1019.0" y="904.1" font-size="15" font-weight="600" fill="#eef2fb" text-anchor="start">Turn 15</text>
<line x1="831.7" y1="705.3" x2="879.8" y2="725.1" stroke="#ff5a36" stroke-opacity="0.45" stroke-width="1.3"/>
<text x="887.8" y="729.1" font-size="15" font-weight="600" fill="#eef2fb" text-anchor="start">Turn 16</text>
<text x="90" y="64" font-size="20" letter-spacing="5" fill="#ff5a36" font-weight="700">TRACK ATLAS</text>
<text x="90" y="108" font-size="42" font-weight="800" fill="#ffffff">SHANGHAI INTERNATIONAL CIRCUIT</text>
<text x="90" y="136" font-size="16" fill="#9aa6bd">Shanghai</text>
<rect x="1170" y="200" width="360" height="710" rx="16" fill="#ffffff" fill-opacity="0.04" stroke="#ff5a36" stroke-opacity="0.5"/>
<text x="1198" y="250" font-size="13" letter-spacing="2" fill="#8794ab">LAYOUT</text>
<text x="1198" y="276" font-size="22" font-weight="700" fill="#eef2fb">Grand Prix Circuit</text>
<text x="1198" y="320" font-size="13" letter-spacing="2" fill="#8794ab">LENGTH</text>
<text x="1198" y="346" font-size="22" font-weight="700" fill="#eef2fb">5.451 km</text>
<text x="1198" y="390" font-size="13" letter-spacing="2" fill="#8794ab">CORNERS</text>
<text x="1198" y="416" font-size="22" font-weight="700" fill="#eef2fb">16</text>
<text x="1198" y="460" font-size="13" letter-spacing="2" fill="#8794ab">NAMED CORNERS</text>
<text x="1198" y="486" font-size="22" font-weight="700" fill="#eef2fb">16</text>
<text x="1198" y="530" font-size="13" letter-spacing="2" fill="#8794ab">DIRECTION</text>
<text x="1198" y="556" font-size="22" font-weight="700" fill="#eef2fb">Clockwise</text>
<text x="1198" y="600" font-size="13" letter-spacing="2" fill="#8794ab">SECTORS</text>
<text x="1198" y="626" font-size="22" font-weight="700" fill="#eef2fb">3</text>
<text x="1198" y="670" font-size="13" letter-spacing="2" fill="#8794ab">COUNTRY</text>
<text x="1198" y="696" font-size="22" font-weight="700" fill="#eef2fb">CN</text>
<text x="1198" y="740" font-size="13" letter-spacing="2" fill="#8794ab">LOCATION</text>
<text x="1198" y="766" font-size="22" font-weight="700" fill="#eef2fb">Jiading, Shanghai</text>
<text x="90" y="966" font-size="12" fill="#566177">Geometry © OpenStreetMap contributors (ODbL) · corner data: Lovely-Sim-Racing + curated · track-atlas</text>
<text x="90" y="942" font-size="12" fill="#8794ab">⚑ start / finish</text>
</svg>