<svg xmlns="http://www.w3.org/2000/svg" width="1600" height="1000" viewBox="0 0 1600 1000" font-family="Helvetica, Arial, sans-serif">
<defs>
      <radialGradient id="bg" cx="38%" cy="34%" r="85%">
        <stop offset="0%" stop-color="#1b2030"/>
        <stop offset="55%" stop-color="#12151f"/>
        <stop offset="100%" stop-color="#0a0c12"/>
      </radialGradient>
      <linearGradient id="accent" x1="0" y1="0" x2="1" y2="1">
        <stop offset="0%" stop-color="#ff5a36"/>
        <stop offset="100%" stop-color="#ffffff"/>
      </linearGradient>
      <filter id="glow" x="-40%" y="-40%" width="180%" height="180%">
        <feGaussianBlur stdDeviation="6" result="b"/>
        <feMerge><feMergeNode in="b"/><feMergeNode in="SourceGraphic"/></feMerge>
      </filter>
    </defs>
<rect width="1600" height="1000" fill="url(#bg)"/>
<path d="M 90.0,270.8 L 90.8,264.6 L 92.2,258.3 L 93.9,253.8 L 95.9,248.8 L 98.4,243.5 L 102.5,236.2 L 106.2,230.5 L 111.0,224.2 L 111.5,223.6 L 119.9,214.6 L 124.4,210.4 L 127.8,207.9 L 130.2,206.4 L 135.9,203.5 L 143.0,200.6 L 144.9,199.8 L 151.0,198.3 L 156.6,197.7 L 162.3,197.5 L 169.5,197.9 L 181.6,199.1 L 224.3,205.6 L 299.9,216.0 L 311.4,217.7 L 389.8,228.9 L 439.0,235.1 L 450.6,236.3 L 471.6,239.2 L 538.1,248.0 L 593.5,254.2 L 675.6,263.0 L 909.3,295.3 L 982.7,307.9 L 994.5,310.4 L 1004.2,312.4 L 1008.0,313.4 L 1011.2,315.2 L 1013.9,318.2 L 1014.9,320.1 L 1015.8,323.6 L 1015.5,327.7 L 1011.7,353.0 L 1009.4,367.2 L 1009.1,370.4 L 1009.5,372.9 L 1010.6,375.1 L 1012.6,377.0 L 1022.4,382.0 L 1028.4,385.2 L 1034.1,388.2 L 1036.7,389.9 L 1038.6,391.3 L 1039.7,393.4 L 1040.0,395.3 L 1040.0,397.6 L 1039.6,402.9 L 1038.4,410.2 L 1036.8,419.3 L 1034.5,430.3 L 1032.9,436.9 L 1029.0,450.2 L 1021.1,471.0 L 1015.2,484.2 L 1010.9,492.5 L 1005.5,502.3 L 963.9,571.6 L 923.9,638.1 L 892.6,690.8 L 858.1,745.5 L 850.4,756.6 L 837.1,775.8 L 828.6,788.2 L 827.3,791.0 L 826.6,794.1 L 826.7,796.8 L 827.6,799.9 L 829.4,802.4 L 833.2,805.4 L 849.6,814.6 L 858.6,820.1 L 860.9,822.9 L 862.1,826.0 L 862.3,828.6 L 861.9,831.1 L 860.9,833.5 L 859.0,835.9 L 851.5,841.1 L 837.5,851.6 L 802.1,877.5 L 799.4,879.1 L 797.3,880.0 L 794.2,880.5 L 792.1,880.2 L 790.1,879.4 L 782.4,874.6 L 779.5,872.2 L 778.4,870.0 L 777.8,867.6 L 778.0,864.8 L 778.2,861.2 L 779.0,854.6 L 780.4,842.2 L 783.0,821.0 L 794.8,732.7 L 799.3,697.6 L 802.4,674.7 L 802.9,670.1 L 802.8,666.4 L 801.8,662.5 L 800.5,659.5 L 797.7,655.8 L 793.3,652.3 L 786.0,647.7 L 762.6,633.7 L 758.9,631.3 L 754.2,627.7 L 750.2,623.7 L 746.9,619.6 L 744.1,615.4 L 741.4,610.6 L 738.4,603.5 L 735.7,595.1 L 733.9,590.8 L 731.7,586.2 L 729.0,581.9 L 726.2,578.6 L 723.4,575.3 L 719.7,571.8 L 715.6,568.3 L 710.4,564.9 L 705.5,562.6 L 698.8,560.2 L 691.4,558.6 L 675.0,556.2 L 660.3,554.3 L 618.2,548.9 L 613.2,548.1 L 608.0,547.0 L 603.7,545.7 L 599.7,543.6 L 596.4,541.0 L 593.2,537.2 L 590.6,533.1 L 588.7,527.9 L 587.0,521.0 L 586.3,518.2 L 584.8,512.4 L 582.2,502.7 L 580.5,497.5 L 578.6,493.4 L 575.9,488.8 L 572.6,484.9 L 569.0,481.3 L 564.1,477.6 L 556.6,473.7 L 546.6,468.4 L 529.0,459.1 L 506.8,447.0 L 495.8,440.5 L 486.2,435.6 L 477.9,432.2 L 469.0,429.0 L 456.6,425.7 L 443.5,423.4 L 409.0,418.5 L 382.4,414.7 L 327.7,406.8 L 311.1,404.4 L 249.7,395.5 L 224.1,391.8 L 221.1,389.5 L 220.3,388.3 L 218.7,386.5 L 217.3,382.8 L 213.6,317.9 L 212.5,308.2 L 211.4,301.6 L 206.5,279.0 L 205.1,276.3 L 202.7,274.1 L 200.0,273.2 L 196.2,272.9 L 192.7,273.6 L 189.9,275.6 L 186.9,278.7 L 179.1,290.4 L 175.2,294.2 L 172.0,295.6 L 168.2,296.3 L 164.3,296.2 L 161.0,295.4 L 155.8,292.5 L 154.6,291.9 L 150.3,289.5 L 146.6,288.0 L 142.4,287.0 L 132.9,286.1 L 104.3,283.0 L 99.8,282.1 L 96.0,280.8 L 93.9,279.2 L 91.9,276.8 L 90.9,274.3 L 90.0,270.8 Z" fill="none" stroke="#000000" stroke-opacity="0.5" stroke-width="13" stroke-linejoin="round" stroke-linecap="round"/>
<path d="M 90.0,270.8 L 90.8,264.6 L 92.2,258.3 L 93.9,253.8 L 95.9,248.8 L 98.4,243.5 L 102.5,236.2 L 106.2,230.5 L 111.0,224.2 L 111.5,223.6 L 119.9,214.6 L 124.4,210.4 L 127.8,207.9 L 130.2,206.4 L 135.9,203.5 L 143.0,200.6 L 144.9,199.8 L 151.0,198.3 L 156.6,197.7 L 162.3,197.5 L 169.5,197.9 L 181.6,199.1 L 224.3,205.6 L 299.9,216.0 L 311.4,217.7 L 389.8,228.9 L 439.0,235.1 L 450.6,236.3 L 471.6,239.2 L 538.1,248.0 L 593.5,254.2 L 675.6,263.0 L 909.3,295.3 L 982.7,307.9 L 994.5,310.4 L 1004.2,312.4 L 1008.0,313.4 L 1011.2,315.2 L 1013.9,318.2 L 1014.9,320.1 L 1015.8,323.6 L 1015.5,327.7 L 1011.7,353.0 L 1009.4,367.2 L 1009.1,370.4 L 1009.5,372.9 L 1010.6,375.1 L 1012.6,377.0 L 1022.4,382.0 L 1028.4,385.2 L 1034.1,388.2 L 1036.7,389.9 L 1038.6,391.3 L 1039.7,393.4 L 1040.0,395.3 L 1040.0,397.6 L 1039.6,402.9 L 1038.4,410.2 L 1036.8,419.3 L 1034.5,430.3 L 1032.9,436.9 L 1029.0,450.2 L 1021.1,471.0 L 1015.2,484.2 L 1010.9,492.5 L 1005.5,502.3 L 963.9,571.6 L 923.9,638.1 L 892.6,690.8 L 858.1,745.5 L 850.4,756.6 L 837.1,775.8 L 828.6,788.2 L 827.3,791.0 L 826.6,794.1 L 826.7,796.8 L 827.6,799.9 L 829.4,802.4 L 833.2,805.4 L 849.6,814.6 L 858.6,820.1 L 860.9,822.9 L 862.1,826.0 L 862.3,828.6 L 861.9,831.1 L 860.9,833.5 L 859.0,835.9 L 851.5,841.1 L 837.5,851.6 L 802.1,877.5 L 799.4,879.1 L 797.3,880.0 L 794.2,880.5 L 792.1,880.2 L 790.1,879.4 L 782.4,874.6 L 779.5,872.2 L 778.4,870.0 L 777.8,867.6 L 778.0,864.8 L 778.2,861.2 L 779.0,854.6 L 780.4,842.2 L 783.0,821.0 L 794.8,732.7 L 799.3,697.6 L 802.4,674.7 L 802.9,670.1 L 802.8,666.4 L 801.8,662.5 L 800.5,659.5 L 797.7,655.8 L 793.3,652.3 L 786.0,647.7 L 762.6,633.7 L 758.9,631.3 L 754.2,627.7 L 750.2,623.7 L 746.9,619.6 L 744.1,615.4 L 741.4,610.6 L 738.4,603.5 L 735.7,595.1 L 733.9,590.8 L 731.7,586.2 L 729.0,581.9 L 726.2,578.6 L 723.4,575.3 L 719.7,571.8 L 715.6,568.3 L 710.4,564.9 L 705.5,562.6 L 698.8,560.2 L 691.4,558.6 L 675.0,556.2 L 660.3,554.3 L 618.2,548.9 L 613.2,548.1 L 608.0,547.0 L 603.7,545.7 L 599.7,543.6 L 596.4,541.0 L 593.2,537.2 L 590.6,533.1 L 588.7,527.9 L 587.0,521.0 L 586.3,518.2 L 584.8,512.4 L 582.2,502.7 L 580.5,497.5 L 578.6,493.4 L 575.9,488.8 L 572.6,484.9 L 569.0,481.3 L 564.1,477.6 L 556.6,473.7 L 546.6,468.4 L 529.0,459.1 L 506.8,447.0 L 495.8,440.5 L 486.2,435.6 L 477.9,432.2 L 469.0,429.0 L 456.6,425.7 L 443.5,423.4 L 409.0,418.5 L 382.4,414.7 L 327.7,406.8 L 311.1,404.4 L 249.7,395.5 L 224.1,391.8 L 221.1,389.5 L 220.3,388.3 L 218.7,386.5 L 217.3,382.8 L 213.6,317.9 L 212.5,308.2 L 211.4,301.6 L 206.5,279.0 L 205.1,276.3 L 202.7,274.1 L 200.0,273.2 L 196.2,272.9 L 192.7,273.6 L 189.9,275.6 L 186.9,278.7 L 179.1,290.4 L 175.2,294.2 L 172.0,295.6 L 168.2,296.3 L 164.3,296.2 L 161.0,295.4 L 155.8,292.5 L 154.6,291.9 L 150.3,289.5 L 146.6,288.0 L 142.4,287.0 L 132.9,286.1 L 104.3,283.0 L 99.8,282.1 L 96.0,280.8 L 93.9,279.2 L 91.9,276.8 L 90.9,274.3 L 90.0,270.8 Z" fill="none" stroke="#39404f" stroke-width="8.5" stroke-linejoin="round" stroke-linecap="round"/>
<path d="M 90.0,270.8 L 90.8,264.6 L 92.2,258.3 L 93.9,253.8 L 95.9,248.8 L 98.4,243.5 L 102.5,236.2 L 106.2,230.5 L 111.0,224.2 L 111.5,223.6 L 119.9,214.6 L 124.4,210.4 L 127.8,207.9 L 130.2,206.4 L 135.9,203.5 L 143.0,200.6 L 144.9,199.8 L 151.0,198.3 L 156.6,197.7 L 162.3,197.5 L 169.5,197.9 L 181.6,199.1 L 224.3,205.6 L 299.9,216.0 L 311.4,217.7 L 389.8,228.9 L 439.0,235.1 L 450.6,236.3 L 471.6,239.2 L 538.1,248.0 L 593.5,254.2 L 675.6,263.0 L 909.3,295.3 L 982.7,307.9 L 994.5,310.4 L 1004.2,312.4 L 1008.0,313.4 L 1011.2,315.2 L 1013.9,318.2 L 1014.9,320.1 L 1015.8,323.6 L 1015.5,327.7 L 1011.7,353.0 L 1009.4,367.2 L 1009.1,370.4 L 1009.5,372.9 L 1010.6,375.1 L 1012.6,377.0 L 1022.4,382.0 L 1028.4,385.2 L 1034.1,388.2 L 1036.7,389.9 L 1038.6,391.3 L 1039.7,393.4 L 1040.0,395.3 L 1040.0,397.6 L 1039.6,402.9 L 1038.4,410.2 L 1036.8,419.3 L 1034.5,430.3 L 1032.9,436.9 L 1029.0,450.2 L 1021.1,471.0 L 1015.2,484.2 L 1010.9,492.5 L 1005.5,502.3 L 963.9,571.6 L 923.9,638.1 L 892.6,690.8 L 858.1,745.5 L 850.4,756.6 L 837.1,775.8 L 828.6,788.2 L 827.3,791.0 L 826.6,794.1 L 826.7,796.8 L 827.6,799.9 L 829.4,802.4 L 833.2,805.4 L 849.6,814.6 L 858.6,820.1 L 860.9,822.9 L 862.1,826.0 L 862.3,828.6 L 861.9,831.1 L 860.9,833.5 L 859.0,835.9 L 851.5,841.1 L 837.5,851.6 L 802.1,877.5 L 799.4,879.1 L 797.3,880.0 L 794.2,880.5 L 792.1,880.2 L 790.1,879.4 L 782.4,874.6 L 779.5,872.2 L 778.4,870.0 L 777.8,867.6 L 778.0,864.8 L 778.2,861.2 L 779.0,854.6 L 780.4,842.2 L 783.0,821.0 L 794.8,732.7 L 799.3,697.6 L 802.4,674.7 L 802.9,670.1 L 802.8,666.4 L 801.8,662.5 L 800.5,659.5 L 797.7,655.8 L 793.3,652.3 L 786.0,647.7 L 762.6,633.7 L 758.9,631.3 L 754.2,627.7 L 750.2,623.7 L 746.9,619.6 L 744.1,615.4 L 741.4,610.6 L 738.4,603.5 L 735.7,595.1 L 733.9,590.8 L 731.7,586.2 L 729.0,581.9 L 726.2,578.6 L 723.4,575.3 L 719.7,571.8 L 715.6,568.3 L 710.4,564.9 L 705.5,562.6 L 698.8,560.2 L 691.4,558.6 L 675.0,556.2 L 660.3,554.3 L 618.2,548.9 L 613.2,548.1 L 608.0,547.0 L 603.7,545.7 L 599.7,543.6 L 596.4,541.0 L 593.2,537.2 L 590.6,533.1 L 588.7,527.9 L 587.0,521.0 L 586.3,518.2 L 584.8,512.4 L 582.2,502.7 L 580.5,497.5 L 578.6,493.4 L 575.9,488.8 L 572.6,484.9 L 569.0,481.3 L 564.1,477.6 L 556.6,473.7 L 546.6,468.4 L 529.0,459.1 L 506.8,447.0 L 495.8,440.5 L 486.2,435.6 L 477.9,432.2 L 469.0,429.0 L 456.6,425.7 L 443.5,423.4 L 409.0,418.5 L 382.4,414.7 L 327.7,406.8 L 311.1,404.4 L 249.7,395.5 L 224.1,391.8 L 221.1,389.5 L 220.3,388.3 L 218.7,386.5 L 217.3,382.8 L 213.6,317.9 L 212.5,308.2 L 211.4,301.6 L 206.5,279.0 L 205.1,276.3 L 202.7,274.1 L 200.0,273.2 L 196.2,272.9 L 192.7,273.6 L 189.9,275.6 L 186.9,278.7 L 179.1,290.4 L 175.2,294.2 L 172.0,295.6 L 168.2,296.3 L 164.3,296.2 L 161.0,295.4 L 155.8,292.5 L 154.6,291.9 L 150.3,289.5 L 146.6,288.0 L 142.4,287.0 L 132.9,286.1 L 104.3,283.0 L 99.8,282.1 L 96.0,280.8 L 93.9,279.2 L 91.9,276.8 L 90.9,274.3 L 90.0,270.8 Z" fill="none" stroke="#e7edf8" stroke-width="2.6" stroke-linejoin="round" stroke-linecap="round"/>
<path d="M 90.0,270.8 L 90.8,264.6 L 92.2,258.3 L 93.9,253.8 L 95.9,248.8 L 98.4,243.5 L 102.5,236.2 L 106.2,230.5 L 111.0,224.2 L 111.5,223.6 L 119.9,214.6 L 124.4,210.4 L 127.8,207.9 L 130.2,206.4 L 135.9,203.5 L 143.0,200.6 L 144.9,199.8 L 151.0,198.3 L 156.6,197.7 L 162.3,197.5 L 169.5,197.9 L 181.6,199.1 L 224.3,205.6 L 299.9,216.0 L 311.4,217.7 L 389.8,228.9 L 439.0,235.1 L 450.6,236.3 L 471.6,239.2 L 538.1,248.0 L 593.5,254.2 L 675.6,263.0 L 909.3,295.3 L 982.7,307.9 L 994.5,310.4 L 1004.2,312.4 L 1008.0,313.4 L 1011.2,315.2 L 1013.9,318.2 L 1014.9,320.1 L 1015.8,323.6 L 1015.5,327.7 L 1011.7,353.0 L 1009.4,367.2 L 1009.1,370.4 L 1009.5,372.9 L 1010.6,375.1 L 1012.6,377.0 L 1022.4,382.0 L 1028.4,385.2 L 1034.1,388.2 L 1036.7,389.9 L 1038.6,391.3 L 1039.7,393.4 L 1040.0,395.3 L 1040.0,397.6 L 1039.6,402.9 L 1038.4,410.2 L 1036.8,419.3 L 1034.5,430.3 L 1032.9,436.9 L 1029.0,450.2 L 1021.1,471.0 L 1015.2,484.2 L 1010.9,492.5 L 1005.5,502.3 L 963.9,571.6 L 923.9,638.1 L 892.6,690.8 L 858.1,745.5 L 850.4,756.6 L 837.1,775.8 L 828.6,788.2 L 827.3,791.0 L 826.6,794.1 L 826.7,796.8 L 827.6,799.9 L 829.4,802.4 L 833.2,805.4 L 849.6,814.6 L 858.6,820.1 L 860.9,822.9 L 862.1,826.0 L 862.3,828.6 L 861.9,831.1 L 860.9,833.5 L 859.0,835.9 L 851.5,841.1 L 837.5,851.6 L 802.1,877.5 L 799.4,879.1 L 797.3,880.0 L 794.2,880.5 L 792.1,880.2 L 790.1,879.4 L 782.4,874.6 L 779.5,872.2 L 778.4,870.0 L 777.8,867.6 L 778.0,864.8 L 778.2,861.2 L 779.0,854.6 L 780.4,842.2 L 783.0,821.0 L 794.8,732.7 L 799.3,697.6 L 802.4,674.7 L 802.9,670.1 L 802.8,666.4 L 801.8,662.5 L 800.5,659.5 L 797.7,655.8 L 793.3,652.3 L 786.0,647.7 L 762.6,633.7 L 758.9,631.3 L 754.2,627.7 L 750.2,623.7 L 746.9,619.6 L 744.1,615.4 L 741.4,610.6 L 738.4,603.5 L 735.7,595.1 L 733.9,590.8 L 731.7,586.2 L 729.0,581.9 L 726.2,578.6 L 723.4,575.3 L 719.7,571.8 L 715.6,568.3 L 710.4,564.9 L 705.5,562.6 L 698.8,560.2 L 691.4,558.6 L 675.0,556.2 L 660.3,554.3 L 618.2,548.9 L 613.2,548.1 L 608.0,547.0 L 603.7,545.7 L 599.7,543.6 L 596.4,541.0 L 593.2,537.2 L 590.6,533.1 L 588.7,527.9 L 587.0,521.0 L 586.3,518.2 L 584.8,512.4 L 582.2,502.7 L 580.5,497.5 L 578.6,493.4 L 575.9,488.8 L 572.6,484.9 L 569.0,481.3 L 564.1,477.6 L 556.6,473.7 L 546.6,468.4 L 529.0,459.1 L 506.8,447.0 L 495.8,440.5 L 486.2,435.6 L 477.9,432.2 L 469.0,429.0 L 456.6,425.7 L 443.5,423.4 L 409.0,418.5 L 382.4,414.7 L 327.7,406.8 L 311.1,404.4 L 249.7,395.5 L 224.1,391.8 L 221.1,389.5 L 220.3,388.3 L 218.7,386.5 L 217.3,382.8 L 213.6,317.9 L 212.5,308.2 L 211.4,301.6 L 206.5,279.0 L 205.1,276.3 L 202.7,274.1 L 200.0,273.2 L 196.2,272.9 L 192.7,273.6 L 189.9,275.6 L 186.9,278.7 L 179.1,290.4 L 175.2,294.2 L 172.0,295.6 L 168.2,296.3 L 164.3,296.2 L 161.0,295.4 L 155.8,292.5 L 154.6,291.9 L 150.3,289.5 L 146.6,288.0 L 142.4,287.0 L 132.9,286.1 L 104.3,283.0 L 99.8,282.1 L 96.0,280.8 L 93.9,279.2 L 91.9,276.8 L 90.9,274.3 L 90.0,270.8 Z" fill="none" stroke="#ff5a36" stroke-opacity="0.55" stroke-width="1.2" stroke-linejoin="round" filter="url(#glow)"/>
<circle cx="90.0" cy="270.8" r="13" fill="none" stroke="#ffffff" stroke-width="3"/>
<rect x="86.0" y="248.8" width="8" height="18" fill="#ffffff"/>
<circle cx="848.1" cy="286.8" r="7" fill="#ff5a36" stroke="#0a0c12" stroke-width="2.5" filter="url(#glow)"/>
<text x="848.1" y="290.2" font-size="9" font-weight="700" fill="#0a0c12" text-anchor="middle">1</text>
<circle cx="905.9" cy="294.9" r="7" fill="#ff5a36" stroke="#0a0c12" stroke-width="2.5" filter="url(#glow)"/>
<text x="905.9" y="298.3" font-size="9" font-weight="700" fill="#0a0c12" text-anchor="middle">2</text>
<circle cx="939.4" cy="300.5" r="7" fill="#ff5a36" stroke="#0a0c12" stroke-width="2.5" filter="url(#glow)"/>
<text x="939.4" y="303.9" font-size="9" font-weight="700" fill="#0a0c12" text-anchor="middle">3</text>
<circle cx="913.8" cy="655.0" r="7" fill="#ff5a36" stroke="#0a0c12" stroke-width="2.5" filter="url(#glow)"/>
<text x="913.8" y="658.4" font-size="9" font-weight="700" fill="#0a0c12" text-anchor="middle">4</text>
<circle cx="890.0" cy="694.9" r="7" fill="#ff5a36" stroke="#0a0c12" stroke-width="2.5" filter="url(#glow)"/>
<text x="890.0" y="698.3" font-size="9" font-weight="700" fill="#0a0c12" text-anchor="middle">5</text>
<circle cx="836.7" cy="776.4" r="7" fill="#ff5a36" stroke="#0a0c12" stroke-width="2.5" filter="url(#glow)"/>
<text x="836.7" y="779.8" font-size="9" font-weight="700" fill="#0a0c12" text-anchor="middle">6</text>
<circle cx="781.9" cy="829.7" r="7" fill="#ff5a36" stroke="#0a0c12" stroke-width="2.5" filter="url(#glow)"/>
<text x="781.9" y="833.1" font-size="9" font-weight="700" fill="#0a0c12" text-anchor="middle">7</text>
<circle cx="790.6" cy="763.5" r="7" fill="#ff5a36" stroke="#0a0c12" stroke-width="2.5" filter="url(#glow)"/>
<text x="790.6" y="766.9" font-size="9" font-weight="700" fill="#0a0c12" text-anchor="middle">8</text>
<circle cx="799.0" cy="700.4" r="7" fill="#ff5a36" stroke="#0a0c12" stroke-width="2.5" filter="url(#glow)"/>
<text x="799.0" y="703.8" font-size="9" font-weight="700" fill="#0a0c12" text-anchor="middle">9</text>
<circle cx="739.2" cy="605.4" r="7" fill="#ff5a36" stroke="#0a0c12" stroke-width="2.5" filter="url(#glow)"/>
<text x="739.2" y="608.8" font-size="9" font-weight="700" fill="#0a0c12" text-anchor="middle">10</text>
<circle cx="711.0" cy="565.3" r="7" fill="#ff5a36" stroke="#0a0c12" stroke-width="2.5" filter="url(#glow)"/>
<text x="711.0" y="568.7" font-size="9" font-weight="700" fill="#0a0c12" text-anchor="middle">11</text>
<circle cx="388.6" cy="415.6" r="7" fill="#ff5a36" stroke="#0a0c12" stroke-width="2.5" filter="url(#glow)"/>
<text x="388.6" y="419.0" font-size="9" font-weight="700" fill="#0a0c12" text-anchor="middle">12</text>
<circle cx="265.9" cy="397.8" r="7" fill="#ff5a36" stroke="#0a0c12" stroke-width="2.5" filter="url(#glow)"/>
<text x="265.9" y="401.2" font-size="9" font-weight="700" fill="#0a0c12" text-anchor="middle">13</text>
<circle cx="235.0" cy="393.3" r="7" fill="#ff5a36" stroke="#0a0c12" stroke-width="2.5" filter="url(#glow)"/>
<text x="235.0" y="396.7" font-size="9" font-weight="700" fill="#0a0c12" text-anchor="middle">14</text>
<circle cx="217.3" cy="382.5" r="7" fill="#ff5a36" stroke="#0a0c12" stroke-width="2.5" filter="url(#glow)"/>
<text x="217.3" y="385.9" font-size="9" font-weight="700" fill="#0a0c12" text-anchor="middle">15</text>
<circle cx="213.9" cy="321.7" r="7" fill="#ff5a36" stroke="#0a0c12" stroke-width="2.5" filter="url(#glow)"/>
<text x="213.9" y="325.1" font-size="9" font-weight="700" fill="#0a0c12" text-anchor="middle">16</text>
<circle cx="208.5" cy="288.0" r="7" fill="#ff5a36" stroke="#0a0c12" stroke-width="2.5" filter="url(#glow)"/>
<text x="208.5" y="291.4" font-size="9" font-weight="700" fill="#0a0c12" text-anchor="middle">17</text>
<line x1="905.9" y1="294.9" x2="950.7" y2="268.5" stroke="#ff5a36" stroke-opacity="0.45" stroke-width="1.3"/>
<text x="958.7" y="272.5" font-size="15" font-weight="600" fill="#eef2fb" text-anchor="start">Esses</text>
<line x1="913.8" y1="655.0" x2="959.5" y2="679.9" stroke="#ff5a36" stroke-opacity="0.45" stroke-width="1.3"/>
<text x="967.5" y="683.9" font-size="15" font-weight="600" fill="#eef2fb" text-anchor="start">Ese del Lago</text>
<line x1="890.0" y1="694.9" x2="932.1" y2="725.4" stroke="#ff5a36" stroke-opacity="0.45" stroke-width="1.3"/>
<text x="940.1" y="729.4" font-size="15" font-weight="600" fill="#eef2fb" text-anchor="start">Ese del Lago</text>
<line x1="836.7" y1="776.4" x2="869.8" y2="838.1" stroke="#ff5a36" stroke-opacity="0.45" stroke-width="1.3"/>
<text x="877.8" y="842.1" font-size="15" font-weight="600" fill="#eef2fb" text-anchor="start">Horquilla</text>
<line x1="790.6" y1="763.5" x2="820.4" y2="806.1" stroke="#ff5a36" stroke-opacity="0.45" stroke-width="1.3"/>
<text x="828.4" y="810.1" font-size="15" font-weight="600" fill="#eef2fb" text-anchor="start">Esses del Bosque</text>
<line x1="265.9" y1="397.8" x2="215.4" y2="385.2" stroke="#ff5a36" stroke-opacity="0.45" stroke-width="1.3"/>
<text x="207.4" y="389.2" font-size="15" font-weight="600" fill="#eef2fb" text-anchor="end">Foro Sol</text>
<line x1="208.5" y1="288.0" x2="161.9" y2="264.8" stroke="#ff5a36" stroke-opacity="0.45" stroke-width="1.3"/>
<text x="153.9" y="268.8" font-size="15" font-weight="600" fill="#eef2fb" text-anchor="end">Peraltada</text>
<text x="90" y="64" font-size="20" letter-spacing="5" fill="#ff5a36" font-weight="700">TRACK ATLAS</text>
<text x="90" y="108" font-size="42" font-weight="800" fill="#ffffff">AUTODROMO HERMANOS RODRIGUEZ</text>
<text x="90" y="136" font-size="16" fill="#9aa6bd">Mexico City</text>
<rect x="1170" y="200" width="360" height="710" rx="16" fill="#ffffff" fill-opacity="0.04" stroke="#ff5a36" stroke-opacity="0.5"/>
<text x="1198" y="250" font-size="13" letter-spacing="2" fill="#8794ab">LAYOUT</text>
<text x="1198" y="276" font-size="22" font-weight="700" fill="#eef2fb">Grand Prix Circuit</text>
<text x="1198" y="320" font-size="13" letter-spacing="2" fill="#8794ab">LENGTH</text>
<text x="1198" y="346" font-size="22" font-weight="700" fill="#eef2fb">4.304 km</text>
<text x="1198" y="390" font-size="13" letter-spacing="2" fill="#8794ab">CORNERS</text>
<text x="1198" y="416" font-size="22" font-weight="700" fill="#eef2fb">17</text>
<text x="1198" y="460" font-size="13" letter-spacing="2" fill="#8794ab">NAMED CORNERS</text>
<text x="1198" y="486" font-size="22" font-weight="700" fill="#eef2fb">11</text>
<text x="1198" y="530" font-size="13" letter-spacing="2" fill="#8794ab">DIRECTION</text>
<text x="1198" y="556" font-size="22" font-weight="700" fill="#eef2fb">Clockwise</text>
<text x="1198" y="600" font-size="13" letter-spacing="2" fill="#8794ab">SECTORS</text>
<text x="1198" y="626" font-size="22" font-weight="700" fill="#eef2fb">3</text>
<text x="1198" y="670" font-size="13" letter-spacing="2" fill="#8794ab">COUNTRY</text>
<text x="1198" y="696" font-size="22" font-weight="700" fill="#eef2fb">MX</text>
<text x="1198" y="740" font-size="13" letter-spacing="2" fill="#8794ab">LOCATION</text>
<text x="1198" y="766" font-size="22" font-weight="700" fill="#eef2fb">Mexico City</text>
<text x="1198" y="810" font-size="13" letter-spacing="2" fill="#8794ab">COMPLEXES</text>
<rect x="1198" y="816" width="54" height="24" rx="12" fill="#ff5a36" fill-opacity="0.16" stroke="#ff5a36" stroke-opacity="0.5"/>
<text x="1225" y="833" font-size="12" fill="#eef2fb" text-anchor="middle">Esses</text>
<rect x="1262" y="816" width="142" height="24" rx="12" fill="#ff5a36" fill-opacity="0.16" stroke="#ff5a36" stroke-opacity="0.5"/>
<text x="1333" y="833" font-size="12" fill="#eef2fb" text-anchor="middle">Esses del Bosque</text>
<text x="90" y="966" font-size="12" fill="#566177">Geometry © OpenStreetMap contributors (ODbL) · corner data: Lovely-Sim-Racing + curated · track-atlas</text>
<text x="90" y="942" font-size="12" fill="#8794ab">⚑ start / finish</text>
</svg>