<svg xmlns="http://www.w3.org/2000/svg" width="1600" height="1000" viewBox="0 0 1600 1000" font-family="Helvetica, Arial, sans-serif">
<defs>
      <radialGradient id="bg" cx="38%" cy="34%" r="85%">
        <stop offset="0%" stop-color="#1b2030"/>
        <stop offset="55%" stop-color="#12151f"/>
        <stop offset="100%" stop-color="#0a0c12"/>
      </radialGradient>
      <linearGradient id="accent" x1="0" y1="0" x2="1" y2="1">
        <stop offset="0%" stop-color="#ff5a36"/>
        <stop offset="100%" stop-color="#ffffff"/>
      </linearGradient>
      <filter id="glow" x="-40%" y="-40%" width="180%" height="180%">
        <feGaussianBlur stdDeviation="6" result="b"/>
        <feMerge><feMergeNode in="b"/><feMergeNode in="SourceGraphic"/></feMerge>
      </filter>
    </defs>
<rect width="1600" height="1000" fill="url(#bg)"/>
<path d="M 801.6,482.6 L 839.6,430.9 L 850.2,413.4 L 858.8,398.1 L 861.7,392.1 L 864.9,383.7 L 869.7,369.4 L 872.6,358.2 L 874.4,349.5 L 875.5,343.0 L 876.1,337.3 L 876.5,329.2 L 876.5,320.1 L 876.0,309.1 L 874.3,297.4 L 872.0,287.5 L 867.6,272.2 L 863.9,263.1 L 858.9,253.1 L 852.1,241.4 L 845.4,231.3 L 838.6,222.4 L 830.6,213.6 L 823.3,207.1 L 813.6,199.3 L 802.6,191.7 L 793.5,186.2 L 785.0,182.2 L 776.7,178.5 L 765.7,174.8 L 756.2,172.2 L 744.6,169.9 L 734.0,168.5 L 726.5,168.2 L 718.8,168.0 L 708.1,168.6 L 701.5,169.4 L 692.6,170.9 L 684.0,172.7 L 676.7,174.8 L 668.2,177.7 L 658.7,181.1 L 651.2,184.2 L 642.7,188.0 L 633.3,192.9 L 599.7,211.8 L 571.5,229.7 L 566.1,232.9 L 519.8,262.2 L 490.3,281.0 L 453.6,304.3 L 439.7,313.4 L 427.1,322.5 L 416.9,328.8 L 412.6,332.2 L 408.6,335.3 L 404.1,339.1 L 399.4,343.3 L 394.7,347.5 L 390.0,352.2 L 385.3,356.8 L 380.7,361.6 L 376.0,366.8 L 371.5,372.1 L 366.5,378.1 L 362.1,383.6 L 358.3,388.8 L 354.1,394.9 L 350.3,400.5 L 346.5,406.5 L 343.7,412.8 L 338.3,422.4 L 333.7,430.8 L 328.4,441.6 L 323.4,455.0 L 315.0,481.8 L 306.8,508.5 L 298.6,538.3 L 299.9,555.8 L 300.2,561.0 L 300.7,565.2 L 301.8,570.0 L 305.3,582.4 L 307.8,590.5 L 310.7,597.4 L 313.5,602.7 L 315.8,605.8 L 319.4,609.0 L 321.7,610.4 L 325.3,611.9 L 328.9,612.9 L 331.9,613.6 L 334.6,613.7 L 337.1,613.5 L 339.8,613.0 L 342.7,612.1 L 346.0,610.8 L 352.7,607.6 L 360.7,602.8 L 365.6,599.3 L 370.0,595.5 L 385.1,579.6 L 389.7,575.1 L 393.2,572.3 L 395.9,570.6 L 399.5,568.8 L 403.5,567.4 L 410.3,565.4 L 413.7,564.3 L 416.9,562.8 L 420.2,560.5 L 423.3,557.4 L 426.0,553.7 L 475.4,488.8 L 486.9,473.6 L 490.8,469.0 L 495.4,465.0 L 498.2,463.2 L 500.8,462.1 L 503.8,461.3 L 506.3,461.1 L 509.1,461.4 L 511.3,462.2 L 513.9,463.6 L 516.5,465.6 L 519.4,469.1 L 520.8,471.5 L 521.6,474.2 L 522.0,477.4 L 521.9,480.7 L 521.6,484.4 L 520.7,488.1 L 519.2,492.1 L 516.6,499.4 L 513.3,507.4 L 511.3,511.5 L 508.5,516.9 L 503.0,526.2 L 498.1,533.5 L 491.3,543.5 L 454.9,593.7 L 416.4,646.7 L 411.7,653.2 L 406.6,660.6 L 402.9,667.2 L 400.2,672.9 L 399.1,675.8 L 398.2,679.0 L 397.5,683.1 L 397.0,687.2 L 396.5,693.0 L 396.2,701.8 L 396.9,718.5 L 398.1,731.7 L 401.7,758.1 L 402.7,765.3 L 405.6,786.6 L 406.2,795.3 L 406.2,802.3 L 405.4,810.8 L 404.5,814.3 L 402.7,818.5 L 398.3,825.9 L 395.0,829.3 L 392.9,830.7 L 390.5,832.0 L 388.1,833.0 L 386.0,833.4 L 383.5,833.5 L 381.5,833.2 L 378.3,832.6 L 375.9,831.5 L 373.1,829.9 L 370.6,828.1 L 367.7,825.2 L 364.9,822.3 L 362.1,819.3 L 360.1,816.1 L 357.9,811.5 L 355.8,804.5 L 354.7,798.0 L 349.8,763.8 L 342.7,713.3 L 340.9,700.8 L 337.7,677.4 L 335.2,663.6 L 333.9,657.1 L 332.7,654.0 L 331.2,652.4 L 329.6,651.0 L 327.5,650.0 L 324.6,649.3 L 322.3,649.1 L 320.0,649.2 L 316.0,649.7 L 310.8,650.6 L 305.6,652.2 L 298.3,654.8 L 288.7,659.6 L 278.9,665.5 L 271.9,670.9 L 267.0,676.5 L 262.4,684.1 L 260.1,696.0 L 257.3,710.1 L 255.4,724.7 L 253.7,743.0 L 253.5,751.1 L 253.6,760.0 L 254.0,769.1 L 254.5,775.3 L 255.3,781.9 L 256.9,789.6 L 259.2,798.3 L 262.6,808.3 L 266.3,817.6 L 270.6,825.9 L 276.9,836.0 L 283.6,845.9 L 290.0,853.7 L 297.7,862.2 L 305.8,870.0 L 314.8,877.5 L 323.3,883.5 L 332.1,888.8 L 344.7,895.4 L 352.6,898.8 L 362.4,902.2 L 374.0,905.6 L 386.9,908.2 L 397.3,909.5 L 408.9,910.0 L 420.2,909.6 L 431.5,908.4 L 442.6,906.3 L 453.2,903.6 L 466.5,899.1 L 479.7,893.3 L 491.1,887.0 L 498.6,882.1 L 506.3,876.3 L 513.8,870.0 L 522.4,861.9 L 530.9,853.3 L 541.6,841.1 L 552.5,826.6 L 563.4,811.7 L 607.1,751.7 L 726.8,586.3 L 727.8,583.9 L 728.4,582.3 L 729.0,580.0 L 729.4,577.7 L 729.7,575.5 L 729.7,573.5 L 729.6,571.2 L 729.3,568.8 L 728.9,566.2 L 728.4,563.1 L 726.5,554.9 L 726.2,553.1 L 726.0,551.6 L 726.1,550.0 L 726.3,548.3 L 726.8,546.6 L 727.4,544.9 L 729.5,541.6 L 744.3,516.8 L 745.1,515.9 L 746.1,515.0 L 747.5,514.2 L 749.5,513.5 L 751.7,513.0 L 758.3,511.4 L 766.0,509.5 L 768.9,508.8 L 771.6,508.0 L 775.1,506.4 L 778.9,503.7 L 782.7,500.0 L 785.8,496.7 L 792.6,489.3 L 801.6,482.6 Z" fill="none" stroke="#000000" stroke-opacity="0.5" stroke-width="13" stroke-linejoin="round" stroke-linecap="round"/>
<path d="M 801.6,482.6 L 839.6,430.9 L 850.2,413.4 L 858.8,398.1 L 861.7,392.1 L 864.9,383.7 L 869.7,369.4 L 872.6,358.2 L 874.4,349.5 L 875.5,343.0 L 876.1,337.3 L 876.5,329.2 L 876.5,320.1 L 876.0,309.1 L 874.3,297.4 L 872.0,287.5 L 867.6,272.2 L 863.9,263.1 L 858.9,253.1 L 852.1,241.4 L 845.4,231.3 L 838.6,222.4 L 830.6,213.6 L 823.3,207.1 L 813.6,199.3 L 802.6,191.7 L 793.5,186.2 L 785.0,182.2 L 776.7,178.5 L 765.7,174.8 L 756.2,172.2 L 744.6,169.9 L 734.0,168.5 L 726.5,168.2 L 718.8,168.0 L 708.1,168.6 L 701.5,169.4 L 692.6,170.9 L 684.0,172.7 L 676.7,174.8 L 668.2,177.7 L 658.7,181.1 L 651.2,184.2 L 642.7,188.0 L 633.3,192.9 L 599.7,211.8 L 571.5,229.7 L 566.1,232.9 L 519.8,262.2 L 490.3,281.0 L 453.6,304.3 L 439.7,313.4 L 427.1,322.5 L 416.9,328.8 L 412.6,332.2 L 408.6,335.3 L 404.1,339.1 L 399.4,343.3 L 394.7,347.5 L 390.0,352.2 L 385.3,356.8 L 380.7,361.6 L 376.0,366.8 L 371.5,372.1 L 366.5,378.1 L 362.1,383.6 L 358.3,388.8 L 354.1,394.9 L 350.3,400.5 L 346.5,406.5 L 343.7,412.8 L 338.3,422.4 L 333.7,430.8 L 328.4,441.6 L 323.4,455.0 L 315.0,481.8 L 306.8,508.5 L 298.6,538.3 L 299.9,555.8 L 300.2,561.0 L 300.7,565.2 L 301.8,570.0 L 305.3,582.4 L 307.8,590.5 L 310.7,597.4 L 313.5,602.7 L 315.8,605.8 L 319.4,609.0 L 321.7,610.4 L 325.3,611.9 L 328.9,612.9 L 331.9,613.6 L 334.6,613.7 L 337.1,613.5 L 339.8,613.0 L 342.7,612.1 L 346.0,610.8 L 352.7,607.6 L 360.7,602.8 L 365.6,599.3 L 370.0,595.5 L 385.1,579.6 L 389.7,575.1 L 393.2,572.3 L 395.9,570.6 L 399.5,568.8 L 403.5,567.4 L 410.3,565.4 L 413.7,564.3 L 416.9,562.8 L 420.2,560.5 L 423.3,557.4 L 426.0,553.7 L 475.4,488.8 L 486.9,473.6 L 490.8,469.0 L 495.4,465.0 L 498.2,463.2 L 500.8,462.1 L 503.8,461.3 L 506.3,461.1 L 509.1,461.4 L 511.3,462.2 L 513.9,463.6 L 516.5,465.6 L 519.4,469.1 L 520.8,471.5 L 521.6,474.2 L 522.0,477.4 L 521.9,480.7 L 521.6,484.4 L 520.7,488.1 L 519.2,492.1 L 516.6,499.4 L 513.3,507.4 L 511.3,511.5 L 508.5,516.9 L 503.0,526.2 L 498.1,533.5 L 491.3,543.5 L 454.9,593.7 L 416.4,646.7 L 411.7,653.2 L 406.6,660.6 L 402.9,667.2 L 400.2,672.9 L 399.1,675.8 L 398.2,679.0 L 397.5,683.1 L 397.0,687.2 L 396.5,693.0 L 396.2,701.8 L 396.9,718.5 L 398.1,731.7 L 401.7,758.1 L 402.7,765.3 L 405.6,786.6 L 406.2,795.3 L 406.2,802.3 L 405.4,810.8 L 404.5,814.3 L 402.7,818.5 L 398.3,825.9 L 395.0,829.3 L 392.9,830.7 L 390.5,832.0 L 388.1,833.0 L 386.0,833.4 L 383.5,833.5 L 381.5,833.2 L 378.3,832.6 L 375.9,831.5 L 373.1,829.9 L 370.6,828.1 L 367.7,825.2 L 364.9,822.3 L 362.1,819.3 L 360.1,816.1 L 357.9,811.5 L 355.8,804.5 L 354.7,798.0 L 349.8,763.8 L 342.7,713.3 L 340.9,700.8 L 337.7,677.4 L 335.2,663.6 L 333.9,657.1 L 332.7,654.0 L 331.2,652.4 L 329.6,651.0 L 327.5,650.0 L 324.6,649.3 L 322.3,649.1 L 320.0,649.2 L 316.0,649.7 L 310.8,650.6 L 305.6,652.2 L 298.3,654.8 L 288.7,659.6 L 278.9,665.5 L 271.9,670.9 L 267.0,676.5 L 262.4,684.1 L 260.1,696.0 L 257.3,710.1 L 255.4,724.7 L 253.7,743.0 L 253.5,751.1 L 253.6,760.0 L 254.0,769.1 L 254.5,775.3 L 255.3,781.9 L 256.9,789.6 L 259.2,798.3 L 262.6,808.3 L 266.3,817.6 L 270.6,825.9 L 276.9,836.0 L 283.6,845.9 L 290.0,853.7 L 297.7,862.2 L 305.8,870.0 L 314.8,877.5 L 323.3,883.5 L 332.1,888.8 L 344.7,895.4 L 352.6,898.8 L 362.4,902.2 L 374.0,905.6 L 386.9,908.2 L 397.3,909.5 L 408.9,910.0 L 420.2,909.6 L 431.5,908.4 L 442.6,906.3 L 453.2,903.6 L 466.5,899.1 L 479.7,893.3 L 491.1,887.0 L 498.6,882.1 L 506.3,876.3 L 513.8,870.0 L 522.4,861.9 L 530.9,853.3 L 541.6,841.1 L 552.5,826.6 L 563.4,811.7 L 607.1,751.7 L 726.8,586.3 L 727.8,583.9 L 728.4,582.3 L 729.0,580.0 L 729.4,577.7 L 729.7,575.5 L 729.7,573.5 L 729.6,571.2 L 729.3,568.8 L 728.9,566.2 L 728.4,563.1 L 726.5,554.9 L 726.2,553.1 L 726.0,551.6 L 726.1,550.0 L 726.3,548.3 L 726.8,546.6 L 727.4,544.9 L 729.5,541.6 L 744.3,516.8 L 745.1,515.9 L 746.1,515.0 L 747.5,514.2 L 749.5,513.5 L 751.7,513.0 L 758.3,511.4 L 766.0,509.5 L 768.9,508.8 L 771.6,508.0 L 775.1,506.4 L 778.9,503.7 L 782.7,500.0 L 785.8,496.7 L 792.6,489.3 L 801.6,482.6 Z" fill="none" stroke="#39404f" stroke-width="8.5" stroke-linejoin="round" stroke-linecap="round"/>
<path d="M 801.6,482.6 L 839.6,430.9 L 850.2,413.4 L 858.8,398.1 L 861.7,392.1 L 864.9,383.7 L 869.7,369.4 L 872.6,358.2 L 874.4,349.5 L 875.5,343.0 L 876.1,337.3 L 876.5,329.2 L 876.5,320.1 L 876.0,309.1 L 874.3,297.4 L 872.0,287.5 L 867.6,272.2 L 863.9,263.1 L 858.9,253.1 L 852.1,241.4 L 845.4,231.3 L 838.6,222.4 L 830.6,213.6 L 823.3,207.1 L 813.6,199.3 L 802.6,191.7 L 793.5,186.2 L 785.0,182.2 L 776.7,178.5 L 765.7,174.8 L 756.2,172.2 L 744.6,169.9 L 734.0,168.5 L 726.5,168.2 L 718.8,168.0 L 708.1,168.6 L 701.5,169.4 L 692.6,170.9 L 684.0,172.7 L 676.7,174.8 L 668.2,177.7 L 658.7,181.1 L 651.2,184.2 L 642.7,188.0 L 633.3,192.9 L 599.7,211.8 L 571.5,229.7 L 566.1,232.9 L 519.8,262.2 L 490.3,281.0 L 453.6,304.3 L 439.7,313.4 L 427.1,322.5 L 416.9,328.8 L 412.6,332.2 L 408.6,335.3 L 404.1,339.1 L 399.4,343.3 L 394.7,347.5 L 390.0,352.2 L 385.3,356.8 L 380.7,361.6 L 376.0,366.8 L 371.5,372.1 L 366.5,378.1 L 362.1,383.6 L 358.3,388.8 L 354.1,394.9 L 350.3,400.5 L 346.5,406.5 L 343.7,412.8 L 338.3,422.4 L 333.7,430.8 L 328.4,441.6 L 323.4,455.0 L 315.0,481.8 L 306.8,508.5 L 298.6,538.3 L 299.9,555.8 L 300.2,561.0 L 300.7,565.2 L 301.8,570.0 L 305.3,582.4 L 307.8,590.5 L 310.7,597.4 L 313.5,602.7 L 315.8,605.8 L 319.4,609.0 L 321.7,610.4 L 325.3,611.9 L 328.9,612.9 L 331.9,613.6 L 334.6,613.7 L 337.1,613.5 L 339.8,613.0 L 342.7,612.1 L 346.0,610.8 L 352.7,607.6 L 360.7,602.8 L 365.6,599.3 L 370.0,595.5 L 385.1,579.6 L 389.7,575.1 L 393.2,572.3 L 395.9,570.6 L 399.5,568.8 L 403.5,567.4 L 410.3,565.4 L 413.7,564.3 L 416.9,562.8 L 420.2,560.5 L 423.3,557.4 L 426.0,553.7 L 475.4,488.8 L 486.9,473.6 L 490.8,469.0 L 495.4,465.0 L 498.2,463.2 L 500.8,462.1 L 503.8,461.3 L 506.3,461.1 L 509.1,461.4 L 511.3,462.2 L 513.9,463.6 L 516.5,465.6 L 519.4,469.1 L 520.8,471.5 L 521.6,474.2 L 522.0,477.4 L 521.9,480.7 L 521.6,484.4 L 520.7,488.1 L 519.2,492.1 L 516.6,499.4 L 513.3,507.4 L 511.3,511.5 L 508.5,516.9 L 503.0,526.2 L 498.1,533.5 L 491.3,543.5 L 454.9,593.7 L 416.4,646.7 L 411.7,653.2 L 406.6,660.6 L 402.9,667.2 L 400.2,672.9 L 399.1,675.8 L 398.2,679.0 L 397.5,683.1 L 397.0,687.2 L 396.5,693.0 L 396.2,701.8 L 396.9,718.5 L 398.1,731.7 L 401.7,758.1 L 402.7,765.3 L 405.6,786.6 L 406.2,795.3 L 406.2,802.3 L 405.4,810.8 L 404.5,814.3 L 402.7,818.5 L 398.3,825.9 L 395.0,829.3 L 392.9,830.7 L 390.5,832.0 L 388.1,833.0 L 386.0,833.4 L 383.5,833.5 L 381.5,833.2 L 378.3,832.6 L 375.9,831.5 L 373.1,829.9 L 370.6,828.1 L 367.7,825.2 L 364.9,822.3 L 362.1,819.3 L 360.1,816.1 L 357.9,811.5 L 355.8,804.5 L 354.7,798.0 L 349.8,763.8 L 342.7,713.3 L 340.9,700.8 L 337.7,677.4 L 335.2,663.6 L 333.9,657.1 L 332.7,654.0 L 331.2,652.4 L 329.6,651.0 L 327.5,650.0 L 324.6,649.3 L 322.3,649.1 L 320.0,649.2 L 316.0,649.7 L 310.8,650.6 L 305.6,652.2 L 298.3,654.8 L 288.7,659.6 L 278.9,665.5 L 271.9,670.9 L 267.0,676.5 L 262.4,684.1 L 260.1,696.0 L 257.3,710.1 L 255.4,724.7 L 253.7,743.0 L 253.5,751.1 L 253.6,760.0 L 254.0,769.1 L 254.5,775.3 L 255.3,781.9 L 256.9,789.6 L 259.2,798.3 L 262.6,808.3 L 266.3,817.6 L 270.6,825.9 L 276.9,836.0 L 283.6,845.9 L 290.0,853.7 L 297.7,862.2 L 305.8,870.0 L 314.8,877.5 L 323.3,883.5 L 332.1,888.8 L 344.7,895.4 L 352.6,898.8 L 362.4,902.2 L 374.0,905.6 L 386.9,908.2 L 397.3,909.5 L 408.9,910.0 L 420.2,909.6 L 431.5,908.4 L 442.6,906.3 L 453.2,903.6 L 466.5,899.1 L 479.7,893.3 L 491.1,887.0 L 498.6,882.1 L 506.3,876.3 L 513.8,870.0 L 522.4,861.9 L 530.9,853.3 L 541.6,841.1 L 552.5,826.6 L 563.4,811.7 L 607.1,751.7 L 726.8,586.3 L 727.8,583.9 L 728.4,582.3 L 729.0,580.0 L 729.4,577.7 L 729.7,575.5 L 729.7,573.5 L 729.6,571.2 L 729.3,568.8 L 728.9,566.2 L 728.4,563.1 L 726.5,554.9 L 726.2,553.1 L 726.0,551.6 L 726.1,550.0 L 726.3,548.3 L 726.8,546.6 L 727.4,544.9 L 729.5,541.6 L 744.3,516.8 L 745.1,515.9 L 746.1,515.0 L 747.5,514.2 L 749.5,513.5 L 751.7,513.0 L 758.3,511.4 L 766.0,509.5 L 768.9,508.8 L 771.6,508.0 L 775.1,506.4 L 778.9,503.7 L 782.7,500.0 L 785.8,496.7 L 792.6,489.3 L 801.6,482.6 Z" fill="none" stroke="#e7edf8" stroke-width="2.6" stroke-linejoin="round" stroke-linecap="round"/>
<path d="M 801.6,482.6 L 839.6,430.9 L 850.2,413.4 L 858.8,398.1 L 861.7,392.1 L 864.9,383.7 L 869.7,369.4 L 872.6,358.2 L 874.4,349.5 L 875.5,343.0 L 876.1,337.3 L 876.5,329.2 L 876.5,320.1 L 876.0,309.1 L 874.3,297.4 L 872.0,287.5 L 867.6,272.2 L 863.9,263.1 L 858.9,253.1 L 852.1,241.4 L 845.4,231.3 L 838.6,222.4 L 830.6,213.6 L 823.3,207.1 L 813.6,199.3 L 802.6,191.7 L 793.5,186.2 L 785.0,182.2 L 776.7,178.5 L 765.7,174.8 L 756.2,172.2 L 744.6,169.9 L 734.0,168.5 L 726.5,168.2 L 718.8,168.0 L 708.1,168.6 L 701.5,169.4 L 692.6,170.9 L 684.0,172.7 L 676.7,174.8 L 668.2,177.7 L 658.7,181.1 L 651.2,184.2 L 642.7,188.0 L 633.3,192.9 L 599.7,211.8 L 571.5,229.7 L 566.1,232.9 L 519.8,262.2 L 490.3,281.0 L 453.6,304.3 L 439.7,313.4 L 427.1,322.5 L 416.9,328.8 L 412.6,332.2 L 408.6,335.3 L 404.1,339.1 L 399.4,343.3 L 394.7,347.5 L 390.0,352.2 L 385.3,356.8 L 380.7,361.6 L 376.0,366.8 L 371.5,372.1 L 366.5,378.1 L 362.1,383.6 L 358.3,388.8 L 354.1,394.9 L 350.3,400.5 L 346.5,406.5 L 343.7,412.8 L 338.3,422.4 L 333.7,430.8 L 328.4,441.6 L 323.4,455.0 L 315.0,481.8 L 306.8,508.5 L 298.6,538.3 L 299.9,555.8 L 300.2,561.0 L 300.7,565.2 L 301.8,570.0 L 305.3,582.4 L 307.8,590.5 L 310.7,597.4 L 313.5,602.7 L 315.8,605.8 L 319.4,609.0 L 321.7,610.4 L 325.3,611.9 L 328.9,612.9 L 331.9,613.6 L 334.6,613.7 L 337.1,613.5 L 339.8,613.0 L 342.7,612.1 L 346.0,610.8 L 352.7,607.6 L 360.7,602.8 L 365.6,599.3 L 370.0,595.5 L 385.1,579.6 L 389.7,575.1 L 393.2,572.3 L 395.9,570.6 L 399.5,568.8 L 403.5,567.4 L 410.3,565.4 L 413.7,564.3 L 416.9,562.8 L 420.2,560.5 L 423.3,557.4 L 426.0,553.7 L 475.4,488.8 L 486.9,473.6 L 490.8,469.0 L 495.4,465.0 L 498.2,463.2 L 500.8,462.1 L 503.8,461.3 L 506.3,461.1 L 509.1,461.4 L 511.3,462.2 L 513.9,463.6 L 516.5,465.6 L 519.4,469.1 L 520.8,471.5 L 521.6,474.2 L 522.0,477.4 L 521.9,480.7 L 521.6,484.4 L 520.7,488.1 L 519.2,492.1 L 516.6,499.4 L 513.3,507.4 L 511.3,511.5 L 508.5,516.9 L 503.0,526.2 L 498.1,533.5 L 491.3,543.5 L 454.9,593.7 L 416.4,646.7 L 411.7,653.2 L 406.6,660.6 L 402.9,667.2 L 400.2,672.9 L 399.1,675.8 L 398.2,679.0 L 397.5,683.1 L 397.0,687.2 L 396.5,693.0 L 396.2,701.8 L 396.9,718.5 L 398.1,731.7 L 401.7,758.1 L 402.7,765.3 L 405.6,786.6 L 406.2,795.3 L 406.2,802.3 L 405.4,810.8 L 404.5,814.3 L 402.7,818.5 L 398.3,825.9 L 395.0,829.3 L 392.9,830.7 L 390.5,832.0 L 388.1,833.0 L 386.0,833.4 L 383.5,833.5 L 381.5,833.2 L 378.3,832.6 L 375.9,831.5 L 373.1,829.9 L 370.6,828.1 L 367.7,825.2 L 364.9,822.3 L 362.1,819.3 L 360.1,816.1 L 357.9,811.5 L 355.8,804.5 L 354.7,798.0 L 349.8,763.8 L 342.7,713.3 L 340.9,700.8 L 337.7,677.4 L 335.2,663.6 L 333.9,657.1 L 332.7,654.0 L 331.2,652.4 L 329.6,651.0 L 327.5,650.0 L 324.6,649.3 L 322.3,649.1 L 320.0,649.2 L 316.0,649.7 L 310.8,650.6 L 305.6,652.2 L 298.3,654.8 L 288.7,659.6 L 278.9,665.5 L 271.9,670.9 L 267.0,676.5 L 262.4,684.1 L 260.1,696.0 L 257.3,710.1 L 255.4,724.7 L 253.7,743.0 L 253.5,751.1 L 253.6,760.0 L 254.0,769.1 L 254.5,775.3 L 255.3,781.9 L 256.9,789.6 L 259.2,798.3 L 262.6,808.3 L 266.3,817.6 L 270.6,825.9 L 276.9,836.0 L 283.6,845.9 L 290.0,853.7 L 297.7,862.2 L 305.8,870.0 L 314.8,877.5 L 323.3,883.5 L 332.1,888.8 L 344.7,895.4 L 352.6,898.8 L 362.4,902.2 L 374.0,905.6 L 386.9,908.2 L 397.3,909.5 L 408.9,910.0 L 420.2,909.6 L 431.5,908.4 L 442.6,906.3 L 453.2,903.6 L 466.5,899.1 L 479.7,893.3 L 491.1,887.0 L 498.6,882.1 L 506.3,876.3 L 513.8,870.0 L 522.4,861.9 L 530.9,853.3 L 541.6,841.1 L 552.5,826.6 L 563.4,811.7 L 607.1,751.7 L 726.8,586.3 L 727.8,583.9 L 728.4,582.3 L 729.0,580.0 L 729.4,577.7 L 729.7,575.5 L 729.7,573.5 L 729.6,571.2 L 729.3,568.8 L 728.9,566.2 L 728.4,563.1 L 726.5,554.9 L 726.2,553.1 L 726.0,551.6 L 726.1,550.0 L 726.3,548.3 L 726.8,546.6 L 727.4,544.9 L 729.5,541.6 L 744.3,516.8 L 745.1,515.9 L 746.1,515.0 L 747.5,514.2 L 749.5,513.5 L 751.7,513.0 L 758.3,511.4 L 766.0,509.5 L 768.9,508.8 L 771.6,508.0 L 775.1,506.4 L 778.9,503.7 L 782.7,500.0 L 785.8,496.7 L 792.6,489.3 L 801.6,482.6 Z" fill="none" stroke="#ff5a36" stroke-opacity="0.55" stroke-width="1.2" stroke-linejoin="round" filter="url(#glow)"/>
<circle cx="801.6" cy="482.6" r="13" fill="none" stroke="#ffffff" stroke-width="3"/>
<rect x="797.6" y="460.6" width="8" height="18" fill="#ffffff"/>
<circle cx="858.6" cy="252.4" r="7" fill="#ff5a36" stroke="#0a0c12" stroke-width="2.5" filter="url(#glow)"/>
<text x="858.6" y="255.8" font-size="9" font-weight="700" fill="#0a0c12" text-anchor="middle">1</text>
<circle cx="797.6" cy="188.7" r="7" fill="#ff5a36" stroke="#0a0c12" stroke-width="2.5" filter="url(#glow)"/>
<text x="797.6" y="192.1" font-size="9" font-weight="700" fill="#0a0c12" text-anchor="middle">2</text>
<circle cx="643.3" cy="187.7" r="7" fill="#ff5a36" stroke="#0a0c12" stroke-width="2.5" filter="url(#glow)"/>
<text x="643.3" y="191.1" font-size="9" font-weight="700" fill="#0a0c12" text-anchor="middle">3</text>
<circle cx="425.7" cy="323.4" r="7" fill="#ff5a36" stroke="#0a0c12" stroke-width="2.5" filter="url(#glow)"/>
<text x="425.7" y="326.8" font-size="9" font-weight="700" fill="#0a0c12" text-anchor="middle">4</text>
<circle cx="326.4" cy="447.1" r="7" fill="#ff5a36" stroke="#0a0c12" stroke-width="2.5" filter="url(#glow)"/>
<text x="326.4" y="450.5" font-size="9" font-weight="700" fill="#0a0c12" text-anchor="middle">5</text>
<circle cx="347.0" cy="610.3" r="7" fill="#ff5a36" stroke="#0a0c12" stroke-width="2.5" filter="url(#glow)"/>
<text x="347.0" y="613.7" font-size="9" font-weight="700" fill="#0a0c12" text-anchor="middle">6</text>
<circle cx="506.6" cy="461.2" r="7" fill="#ff5a36" stroke="#0a0c12" stroke-width="2.5" filter="url(#glow)"/>
<text x="506.6" y="464.6" font-size="9" font-weight="700" fill="#0a0c12" text-anchor="middle">7</text>
<circle cx="306.1" cy="652.0" r="7" fill="#ff5a36" stroke="#0a0c12" stroke-width="2.5" filter="url(#glow)"/>
<text x="306.1" y="655.4" font-size="9" font-weight="700" fill="#0a0c12" text-anchor="middle">8</text>
<circle cx="279.4" cy="665.1" r="7" fill="#ff5a36" stroke="#0a0c12" stroke-width="2.5" filter="url(#glow)"/>
<text x="279.4" y="668.5" font-size="9" font-weight="700" fill="#0a0c12" text-anchor="middle">9</text>
<circle cx="260.5" cy="693.9" r="7" fill="#ff5a36" stroke="#0a0c12" stroke-width="2.5" filter="url(#glow)"/>
<text x="260.5" y="697.3" font-size="9" font-weight="700" fill="#0a0c12" text-anchor="middle">10</text>
<circle cx="255.3" cy="726.3" r="7" fill="#ff5a36" stroke="#0a0c12" stroke-width="2.5" filter="url(#glow)"/>
<text x="255.3" y="729.7" font-size="9" font-weight="700" fill="#0a0c12" text-anchor="middle">11</text>
<circle cx="455.2" cy="902.9" r="7" fill="#ff5a36" stroke="#0a0c12" stroke-width="2.5" filter="url(#glow)"/>
<text x="455.2" y="906.3" font-size="9" font-weight="700" fill="#0a0c12" text-anchor="middle">12</text>
<line x1="643.3" y1="187.7" x2="662.3" y2="139.4" stroke="#ff5a36" stroke-opacity="0.45" stroke-width="1.3"/>
<text x="670.3" y="143.4" font-size="15" font-weight="600" fill="#eef2fb" text-anchor="start">International Horseshoe</text>
<line x1="425.7" y1="323.4" x2="411.1" y2="273.5" stroke="#ff5a36" stroke-opacity="0.45" stroke-width="1.3"/>
<text x="403.1" y="277.5" font-size="15" font-weight="600" fill="#eef2fb" text-anchor="end">The Kink</text>
<line x1="326.4" y1="447.1" x2="283.5" y2="417.7" stroke="#ff5a36" stroke-opacity="0.45" stroke-width="1.3"/>
<text x="275.5" y="421.7" font-size="15" font-weight="600" fill="#eef2fb" text-anchor="end">West Horseshoe</text>
<line x1="347.0" y1="610.3" x2="297.4" y2="626.1" stroke="#ff5a36" stroke-opacity="0.45" stroke-width="1.3"/>
<text x="289.4" y="630.1" font-size="15" font-weight="600" fill="#eef2fb" text-anchor="end">NASCAR 1</text>
<line x1="506.6" y1="461.2" x2="512.1" y2="409.5" stroke="#ff5a36" stroke-opacity="0.45" stroke-width="1.3"/>
<text x="520.1" y="413.5" font-size="15" font-weight="600" fill="#eef2fb" text-anchor="start">NASCAR 2</text>
<line x1="260.5" y1="693.9" x2="215.0" y2="719.2" stroke="#ff5a36" stroke-opacity="0.45" stroke-width="1.3"/>
<text x="207.0" y="723.2" font-size="15" font-weight="600" fill="#eef2fb" text-anchor="end">Bus Stop (Le Mans Chicane)</text>
<line x1="455.2" y1="902.9" x2="449.0" y2="930.0" stroke="#ff5a36" stroke-opacity="0.45" stroke-width="1.3"/>
<text x="441.0" y="934.0" font-size="15" font-weight="600" fill="#eef2fb" text-anchor="end">NASCAR 3</text>
<text x="90" y="64" font-size="20" letter-spacing="5" fill="#ff5a36" font-weight="700">TRACK ATLAS</text>
<text x="90" y="108" font-size="42" font-weight="800" fill="#ffffff">DAYTONA INTERNATIONAL SPEEDWAY</text>
<text x="90" y="136" font-size="16" fill="#9aa6bd">Daytona</text>
<rect x="1170" y="200" width="360" height="710" rx="16" fill="#ffffff" fill-opacity="0.04" stroke="#ff5a36" stroke-opacity="0.5"/>
<text x="1198" y="250" font-size="13" letter-spacing="2" fill="#8794ab">LAYOUT</text>
<text x="1198" y="276" font-size="22" font-weight="700" fill="#eef2fb">Road Course</text>
<text x="1198" y="320" font-size="13" letter-spacing="2" fill="#8794ab">LENGTH</text>
<text x="1198" y="346" font-size="22" font-weight="700" fill="#eef2fb">5.729 km</text>
<text x="1198" y="390" font-size="13" letter-spacing="2" fill="#8794ab">CORNERS</text>
<text x="1198" y="416" font-size="22" font-weight="700" fill="#eef2fb">12</text>
<text x="1198" y="460" font-size="13" letter-spacing="2" fill="#8794ab">NAMED CORNERS</text>
<text x="1198" y="486" font-size="22" font-weight="700" fill="#eef2fb">10</text>
<text x="1198" y="530" font-size="13" letter-spacing="2" fill="#8794ab">DIRECTION</text>
<text x="1198" y="556" font-size="22" font-weight="700" fill="#eef2fb">Clockwise</text>
<text x="1198" y="600" font-size="13" letter-spacing="2" fill="#8794ab">SECTORS</text>
<text x="1198" y="626" font-size="22" font-weight="700" fill="#eef2fb">5</text>
<text x="1198" y="670" font-size="13" letter-spacing="2" fill="#8794ab">COUNTRY</text>
<text x="1198" y="696" font-size="22" font-weight="700" fill="#eef2fb">USA</text>
<text x="1198" y="740" font-size="13" letter-spacing="2" fill="#8794ab">LOCATION</text>
<text x="1198" y="766" font-size="22" font-weight="700" fill="#eef2fb">Daytona Beach, Florida</text>
<text x="1198" y="810" font-size="13" letter-spacing="2" fill="#8794ab">COMPLEXES</text>
<rect x="1198" y="816" width="222" height="24" rx="12" fill="#ff5a36" fill-opacity="0.16" stroke="#ff5a36" stroke-opacity="0.5"/>
<text x="1309" y="833" font-size="12" fill="#eef2fb" text-anchor="middle">Bus Stop (Le Mans Chicane)</text>
<text x="90" y="966" font-size="12" fill="#566177">Geometry © OpenStreetMap contributors (ODbL) · corner data: Lovely-Sim-Racing + curated · track-atlas</text>
<text x="90" y="942" font-size="12" fill="#8794ab">⚑ start / finish</text>
</svg>