<svg xmlns="http://www.w3.org/2000/svg" width="1600" height="1000" viewBox="0 0 1600 1000" font-family="Helvetica, Arial, sans-serif">
<defs>
      <radialGradient id="bg" cx="38%" cy="34%" r="85%">
        <stop offset="0%" stop-color="#1b2030"/>
        <stop offset="55%" stop-color="#12151f"/>
        <stop offset="100%" stop-color="#0a0c12"/>
      </radialGradient>
      <linearGradient id="accent" x1="0" y1="0" x2="1" y2="1">
        <stop offset="0%" stop-color="#ff5a36"/>
        <stop offset="100%" stop-color="#ffffff"/>
      </linearGradient>
      <filter id="glow" x="-40%" y="-40%" width="180%" height="180%">
        <feGaussianBlur stdDeviation="6" result="b"/>
        <feMerge><feMergeNode in="b"/><feMergeNode in="SourceGraphic"/></feMerge>
      </filter>
    </defs>
<rect width="1600" height="1000" fill="url(#bg)"/>
<line x1="0" y1="0" x2="0" y2="1000" stroke="#ffffff" stroke-opacity="0.025"/>
<line x1="56" y1="0" x2="56" y2="1000" stroke="#ffffff" stroke-opacity="0.025"/>
<line x1="112" y1="0" x2="112" y2="1000" stroke="#ffffff" stroke-opacity="0.025"/>
<line x1="168" y1="0" x2="168" y2="1000" stroke="#ffffff" stroke-opacity="0.025"/>
<line x1="224" y1="0" x2="224" y2="1000" stroke="#ffffff" stroke-opacity="0.025"/>
<line x1="280" y1="0" x2="280" y2="1000" stroke="#ffffff" stroke-opacity="0.025"/>
<line x1="336" y1="0" x2="336" y2="1000" stroke="#ffffff" stroke-opacity="0.025"/>
<line x1="392" y1="0" x2="392" y2="1000" stroke="#ffffff" stroke-opacity="0.025"/>
<line x1="448" y1="0" x2="448" y2="1000" stroke="#ffffff" stroke-opacity="0.025"/>
<line x1="504" y1="0" x2="504" y2="1000" stroke="#ffffff" stroke-opacity="0.025"/>
<line x1="560" y1="0" x2="560" y2="1000" stroke="#ffffff" stroke-opacity="0.025"/>
<line x1="616" y1="0" x2="616" y2="1000" stroke="#ffffff" stroke-opacity="0.025"/>
<line x1="672" y1="0" x2="672" y2="1000" stroke="#ffffff" stroke-opacity="0.025"/>
<line x1="728" y1="0" x2="728" y2="1000" stroke="#ffffff" stroke-opacity="0.025"/>
<line x1="784" y1="0" x2="784" y2="1000" stroke="#ffffff" stroke-opacity="0.025"/>
<line x1="840" y1="0" x2="840" y2="1000" stroke="#ffffff" stroke-opacity="0.025"/>
<line x1="896" y1="0" x2="896" y2="1000" stroke="#ffffff" stroke-opacity="0.025"/>
<line x1="952" y1="0" x2="952" y2="1000" stroke="#ffffff" stroke-opacity="0.025"/>
<line x1="1008" y1="0" x2="1008" y2="1000" stroke="#ffffff" stroke-opacity="0.025"/>
<line x1="1064" y1="0" x2="1064" y2="1000" stroke="#ffffff" stroke-opacity="0.025"/>
<line x1="1120" y1="0" x2="1120" y2="1000" stroke="#ffffff" stroke-opacity="0.025"/>
<line x1="1176" y1="0" x2="1176" y2="1000" stroke="#ffffff" stroke-opacity="0.025"/>
<line x1="1232" y1="0" x2="1232" y2="1000" stroke="#ffffff" stroke-opacity="0.025"/>
<line x1="1288" y1="0" x2="1288" y2="1000" stroke="#ffffff" stroke-opacity="0.025"/>
<line x1="1344" y1="0" x2="1344" y2="1000" stroke="#ffffff" stroke-opacity="0.025"/>
<line x1="1400" y1="0" x2="1400" y2="1000" stroke="#ffffff" stroke-opacity="0.025"/>
<line x1="1456" y1="0" x2="1456" y2="1000" stroke="#ffffff" stroke-opacity="0.025"/>
<line x1="1512" y1="0" x2="1512" y2="1000" stroke="#ffffff" stroke-opacity="0.025"/>
<line x1="1568" y1="0" x2="1568" y2="1000" stroke="#ffffff" stroke-opacity="0.025"/>
<line x1="0" y1="0" x2="1600" y2="0" stroke="#ffffff" stroke-opacity="0.025"/>
<line x1="0" y1="56" x2="1600" y2="56" stroke="#ffffff" stroke-opacity="0.025"/>
<line x1="0" y1="112" x2="1600" y2="112" stroke="#ffffff" stroke-opacity="0.025"/>
<line x1="0" y1="168" x2="1600" y2="168" stroke="#ffffff" stroke-opacity="0.025"/>
<line x1="0" y1="224" x2="1600" y2="224" stroke="#ffffff" stroke-opacity="0.025"/>
<line x1="0" y1="280" x2="1600" y2="280" stroke="#ffffff" stroke-opacity="0.025"/>
<line x1="0" y1="336" x2="1600" y2="336" stroke="#ffffff" stroke-opacity="0.025"/>
<line x1="0" y1="392" x2="1600" y2="392" stroke="#ffffff" stroke-opacity="0.025"/>
<line x1="0" y1="448" x2="1600" y2="448" stroke="#ffffff" stroke-opacity="0.025"/>
<line x1="0" y1="504" x2="1600" y2="504" stroke="#ffffff" stroke-opacity="0.025"/>
<line x1="0" y1="560" x2="1600" y2="560" stroke="#ffffff" stroke-opacity="0.025"/>
<line x1="0" y1="616" x2="1600" y2="616" stroke="#ffffff" stroke-opacity="0.025"/>
<line x1="0" y1="672" x2="1600" y2="672" stroke="#ffffff" stroke-opacity="0.025"/>
<line x1="0" y1="728" x2="1600" y2="728" stroke="#ffffff" stroke-opacity="0.025"/>
<line x1="0" y1="784" x2="1600" y2="784" stroke="#ffffff" stroke-opacity="0.025"/>
<line x1="0" y1="840" x2="1600" y2="840" stroke="#ffffff" stroke-opacity="0.025"/>
<line x1="0" y1="896" x2="1600" y2="896" stroke="#ffffff" stroke-opacity="0.025"/>
<line x1="0" y1="952" x2="1600" y2="952" stroke="#ffffff" stroke-opacity="0.025"/>
<path d="M 90.0,231.8 L 90.8,225.6 L 92.2,219.3 L 93.9,214.8 L 95.9,209.8 L 98.4,204.5 L 102.5,197.2 L 106.2,191.5 L 111.0,185.2 L 111.5,184.6 L 119.9,175.6 L 124.4,171.4 L 127.8,168.9 L 130.2,167.4 L 135.9,164.5 L 143.0,161.6 L 144.9,160.8 L 151.0,159.3 L 156.6,158.7 L 162.3,158.5 L 169.5,158.9 L 181.6,160.1 L 224.3,166.6 L 299.9,177.0 L 311.4,178.7 L 389.8,189.9 L 439.0,196.1 L 450.6,197.3 L 471.6,200.2 L 538.1,209.0 L 593.5,215.2 L 675.6,224.0 L 909.3,256.3 L 982.7,268.9 L 994.5,271.4 L 1004.2,273.4 L 1008.0,274.4 L 1011.2,276.2 L 1013.9,279.2 L 1014.9,281.1 L 1015.8,284.6 L 1015.5,288.7 L 1011.7,314.0 L 1009.4,328.2 L 1009.1,331.4 L 1009.5,333.9 L 1010.6,336.1 L 1012.6,338.0 L 1022.4,343.0 L 1028.4,346.2 L 1034.1,349.2 L 1036.7,350.9 L 1038.6,352.3 L 1039.7,354.4 L 1040.0,356.3 L 1040.0,358.6 L 1039.6,363.9 L 1038.4,371.2 L 1036.8,380.3 L 1034.5,391.3 L 1032.9,397.9 L 1029.0,411.2 L 1021.1,432.0 L 1015.2,445.2 L 1010.9,453.5 L 1005.5,463.3 L 963.9,532.6 L 923.9,599.1 L 892.6,651.8 L 858.1,706.5 L 850.4,717.6 L 837.1,736.8 L 828.6,749.2 L 827.3,752.0 L 826.6,755.1 L 826.7,757.8 L 827.6,760.9 L 829.4,763.4 L 833.2,766.4 L 849.6,775.6 L 858.6,781.1 L 860.9,783.9 L 862.1,787.0 L 862.3,789.6 L 861.9,792.1 L 860.9,794.5 L 859.0,796.9 L 851.5,802.1 L 837.5,812.6 L 802.1,838.5 L 799.4,840.1 L 797.3,841.0 L 794.2,841.5 L 792.1,841.2 L 790.1,840.4 L 782.4,835.6 L 779.5,833.2 L 778.4,831.0 L 777.8,828.6 L 778.0,825.8 L 778.2,822.2 L 779.0,815.6 L 780.4,803.2 L 783.0,782.0 L 794.8,693.7 L 799.3,658.6 L 802.4,635.7 L 802.9,631.1 L 802.8,627.4 L 801.8,623.5 L 800.5,620.5 L 797.7,616.8 L 793.3,613.3 L 786.0,608.7 L 762.6,594.7 L 758.9,592.3 L 754.2,588.7 L 750.2,584.7 L 746.9,580.6 L 744.1,576.4 L 741.4,571.6 L 738.4,564.5 L 735.7,556.1 L 733.9,551.8 L 731.7,547.2 L 729.0,542.9 L 726.2,539.6 L 723.4,536.3 L 719.7,532.8 L 715.6,529.3 L 710.4,525.9 L 705.5,523.6 L 698.8,521.2 L 691.4,519.6 L 675.0,517.2 L 660.3,515.3 L 618.2,509.9 L 613.2,509.1 L 608.0,508.0 L 603.7,506.7 L 599.7,504.6 L 596.4,502.0 L 593.2,498.2 L 590.6,494.1 L 588.7,488.9 L 587.0,482.0 L 586.3,479.2 L 584.8,473.4 L 582.2,463.7 L 580.5,458.5 L 578.6,454.4 L 575.9,449.8 L 572.6,445.9 L 569.0,442.3 L 564.1,438.6 L 556.6,434.7 L 546.6,429.4 L 529.0,420.1 L 506.8,408.0 L 495.8,401.5 L 486.2,396.6 L 477.9,393.2 L 469.0,390.0 L 456.6,386.7 L 443.5,384.4 L 409.0,379.5 L 382.4,375.7 L 327.7,367.8 L 311.1,365.4 L 249.7,356.5 L 224.1,352.8 L 221.1,350.5 L 220.3,349.3 L 218.7,347.5 L 217.3,343.8 L 213.6,278.9 L 212.5,269.2 L 211.4,262.6 L 206.5,240.0 L 205.1,237.3 L 202.7,235.1 L 200.0,234.2 L 196.2,233.9 L 192.7,234.6 L 189.9,236.6 L 186.9,239.7 L 179.1,251.4 L 175.2,255.2 L 172.0,256.6 L 168.2,257.3 L 164.3,257.2 L 161.0,256.4 L 155.8,253.5 L 154.6,252.9 L 150.3,250.5 L 146.6,249.0 L 142.4,248.0 L 132.9,247.1 L 104.3,244.0 L 99.8,243.1 L 96.0,241.8 L 93.9,240.2 L 91.9,237.8 L 90.9,235.3 L 90.0,231.8 Z" fill="none" stroke="#000000" stroke-opacity="0.5" stroke-width="13" stroke-linejoin="round" stroke-linecap="round"/>
<path d="M 90.0,231.8 L 90.8,225.6 L 92.2,219.3 L 93.9,214.8 L 95.9,209.8 L 98.4,204.5 L 102.5,197.2 L 106.2,191.5 L 111.0,185.2 L 111.5,184.6 L 119.9,175.6 L 124.4,171.4 L 127.8,168.9 L 130.2,167.4 L 135.9,164.5 L 143.0,161.6 L 144.9,160.8 L 151.0,159.3 L 156.6,158.7 L 162.3,158.5 L 169.5,158.9 L 181.6,160.1 L 224.3,166.6 L 299.9,177.0 L 311.4,178.7 L 389.8,189.9 L 439.0,196.1 L 450.6,197.3 L 471.6,200.2 L 538.1,209.0 L 593.5,215.2 L 675.6,224.0 L 909.3,256.3 L 982.7,268.9 L 994.5,271.4 L 1004.2,273.4 L 1008.0,274.4 L 1011.2,276.2 L 1013.9,279.2 L 1014.9,281.1 L 1015.8,284.6 L 1015.5,288.7 L 1011.7,314.0 L 1009.4,328.2 L 1009.1,331.4 L 1009.5,333.9 L 1010.6,336.1 L 1012.6,338.0 L 1022.4,343.0 L 1028.4,346.2 L 1034.1,349.2 L 1036.7,350.9 L 1038.6,352.3 L 1039.7,354.4 L 1040.0,356.3 L 1040.0,358.6 L 1039.6,363.9 L 1038.4,371.2 L 1036.8,380.3 L 1034.5,391.3 L 1032.9,397.9 L 1029.0,411.2 L 1021.1,432.0 L 1015.2,445.2 L 1010.9,453.5 L 1005.5,463.3 L 963.9,532.6 L 923.9,599.1 L 892.6,651.8 L 858.1,706.5 L 850.4,717.6 L 837.1,736.8 L 828.6,749.2 L 827.3,752.0 L 826.6,755.1 L 826.7,757.8 L 827.6,760.9 L 829.4,763.4 L 833.2,766.4 L 849.6,775.6 L 858.6,781.1 L 860.9,783.9 L 862.1,787.0 L 862.3,789.6 L 861.9,792.1 L 860.9,794.5 L 859.0,796.9 L 851.5,802.1 L 837.5,812.6 L 802.1,838.5 L 799.4,840.1 L 797.3,841.0 L 794.2,841.5 L 792.1,841.2 L 790.1,840.4 L 782.4,835.6 L 779.5,833.2 L 778.4,831.0 L 777.8,828.6 L 778.0,825.8 L 778.2,822.2 L 779.0,815.6 L 780.4,803.2 L 783.0,782.0 L 794.8,693.7 L 799.3,658.6 L 802.4,635.7 L 802.9,631.1 L 802.8,627.4 L 801.8,623.5 L 800.5,620.5 L 797.7,616.8 L 793.3,613.3 L 786.0,608.7 L 762.6,594.7 L 758.9,592.3 L 754.2,588.7 L 750.2,584.7 L 746.9,580.6 L 744.1,576.4 L 741.4,571.6 L 738.4,564.5 L 735.7,556.1 L 733.9,551.8 L 731.7,547.2 L 729.0,542.9 L 726.2,539.6 L 723.4,536.3 L 719.7,532.8 L 715.6,529.3 L 710.4,525.9 L 705.5,523.6 L 698.8,521.2 L 691.4,519.6 L 675.0,517.2 L 660.3,515.3 L 618.2,509.9 L 613.2,509.1 L 608.0,508.0 L 603.7,506.7 L 599.7,504.6 L 596.4,502.0 L 593.2,498.2 L 590.6,494.1 L 588.7,488.9 L 587.0,482.0 L 586.3,479.2 L 584.8,473.4 L 582.2,463.7 L 580.5,458.5 L 578.6,454.4 L 575.9,449.8 L 572.6,445.9 L 569.0,442.3 L 564.1,438.6 L 556.6,434.7 L 546.6,429.4 L 529.0,420.1 L 506.8,408.0 L 495.8,401.5 L 486.2,396.6 L 477.9,393.2 L 469.0,390.0 L 456.6,386.7 L 443.5,384.4 L 409.0,379.5 L 382.4,375.7 L 327.7,367.8 L 311.1,365.4 L 249.7,356.5 L 224.1,352.8 L 221.1,350.5 L 220.3,349.3 L 218.7,347.5 L 217.3,343.8 L 213.6,278.9 L 212.5,269.2 L 211.4,262.6 L 206.5,240.0 L 205.1,237.3 L 202.7,235.1 L 200.0,234.2 L 196.2,233.9 L 192.7,234.6 L 189.9,236.6 L 186.9,239.7 L 179.1,251.4 L 175.2,255.2 L 172.0,256.6 L 168.2,257.3 L 164.3,257.2 L 161.0,256.4 L 155.8,253.5 L 154.6,252.9 L 150.3,250.5 L 146.6,249.0 L 142.4,248.0 L 132.9,247.1 L 104.3,244.0 L 99.8,243.1 L 96.0,241.8 L 93.9,240.2 L 91.9,237.8 L 90.9,235.3 L 90.0,231.8 Z" fill="none" stroke="#39404f" stroke-width="8.5" stroke-linejoin="round" stroke-linecap="round"/>
<path d="M 90.0,231.8 L 90.8,225.6 L 92.2,219.3 L 93.9,214.8 L 95.9,209.8 L 98.4,204.5 L 102.5,197.2 L 106.2,191.5 L 111.0,185.2 L 111.5,184.6 L 119.9,175.6 L 124.4,171.4 L 127.8,168.9 L 130.2,167.4 L 135.9,164.5 L 143.0,161.6 L 144.9,160.8 L 151.0,159.3 L 156.6,158.7 L 162.3,158.5 L 169.5,158.9 L 181.6,160.1 L 224.3,166.6 L 299.9,177.0 L 311.4,178.7 L 389.8,189.9 L 439.0,196.1 L 450.6,197.3 L 471.6,200.2 L 538.1,209.0 L 593.5,215.2 L 675.6,224.0 L 909.3,256.3 L 982.7,268.9 L 994.5,271.4 L 1004.2,273.4 L 1008.0,274.4 L 1011.2,276.2 L 1013.9,279.2 L 1014.9,281.1 L 1015.8,284.6 L 1015.5,288.7 L 1011.7,314.0 L 1009.4,328.2 L 1009.1,331.4 L 1009.5,333.9 L 1010.6,336.1 L 1012.6,338.0 L 1022.4,343.0 L 1028.4,346.2 L 1034.1,349.2 L 1036.7,350.9 L 1038.6,352.3 L 1039.7,354.4 L 1040.0,356.3 L 1040.0,358.6 L 1039.6,363.9 L 1038.4,371.2 L 1036.8,380.3 L 1034.5,391.3 L 1032.9,397.9 L 1029.0,411.2 L 1021.1,432.0 L 1015.2,445.2 L 1010.9,453.5 L 1005.5,463.3 L 963.9,532.6 L 923.9,599.1 L 892.6,651.8 L 858.1,706.5 L 850.4,717.6 L 837.1,736.8 L 828.6,749.2 L 827.3,752.0 L 826.6,755.1 L 826.7,757.8 L 827.6,760.9 L 829.4,763.4 L 833.2,766.4 L 849.6,775.6 L 858.6,781.1 L 860.9,783.9 L 862.1,787.0 L 862.3,789.6 L 861.9,792.1 L 860.9,794.5 L 859.0,796.9 L 851.5,802.1 L 837.5,812.6 L 802.1,838.5 L 799.4,840.1 L 797.3,841.0 L 794.2,841.5 L 792.1,841.2 L 790.1,840.4 L 782.4,835.6 L 779.5,833.2 L 778.4,831.0 L 777.8,828.6 L 778.0,825.8 L 778.2,822.2 L 779.0,815.6 L 780.4,803.2 L 783.0,782.0 L 794.8,693.7 L 799.3,658.6 L 802.4,635.7 L 802.9,631.1 L 802.8,627.4 L 801.8,623.5 L 800.5,620.5 L 797.7,616.8 L 793.3,613.3 L 786.0,608.7 L 762.6,594.7 L 758.9,592.3 L 754.2,588.7 L 750.2,584.7 L 746.9,580.6 L 744.1,576.4 L 741.4,571.6 L 738.4,564.5 L 735.7,556.1 L 733.9,551.8 L 731.7,547.2 L 729.0,542.9 L 726.2,539.6 L 723.4,536.3 L 719.7,532.8 L 715.6,529.3 L 710.4,525.9 L 705.5,523.6 L 698.8,521.2 L 691.4,519.6 L 675.0,517.2 L 660.3,515.3 L 618.2,509.9 L 613.2,509.1 L 608.0,508.0 L 603.7,506.7 L 599.7,504.6 L 596.4,502.0 L 593.2,498.2 L 590.6,494.1 L 588.7,488.9 L 587.0,482.0 L 586.3,479.2 L 584.8,473.4 L 582.2,463.7 L 580.5,458.5 L 578.6,454.4 L 575.9,449.8 L 572.6,445.9 L 569.0,442.3 L 564.1,438.6 L 556.6,434.7 L 546.6,429.4 L 529.0,420.1 L 506.8,408.0 L 495.8,401.5 L 486.2,396.6 L 477.9,393.2 L 469.0,390.0 L 456.6,386.7 L 443.5,384.4 L 409.0,379.5 L 382.4,375.7 L 327.7,367.8 L 311.1,365.4 L 249.7,356.5 L 224.1,352.8 L 221.1,350.5 L 220.3,349.3 L 218.7,347.5 L 217.3,343.8 L 213.6,278.9 L 212.5,269.2 L 211.4,262.6 L 206.5,240.0 L 205.1,237.3 L 202.7,235.1 L 200.0,234.2 L 196.2,233.9 L 192.7,234.6 L 189.9,236.6 L 186.9,239.7 L 179.1,251.4 L 175.2,255.2 L 172.0,256.6 L 168.2,257.3 L 164.3,257.2 L 161.0,256.4 L 155.8,253.5 L 154.6,252.9 L 150.3,250.5 L 146.6,249.0 L 142.4,248.0 L 132.9,247.1 L 104.3,244.0 L 99.8,243.1 L 96.0,241.8 L 93.9,240.2 L 91.9,237.8 L 90.9,235.3 L 90.0,231.8 Z" fill="none" stroke="#e7edf8" stroke-width="2.6" stroke-linejoin="round" stroke-linecap="round"/>
<path d="M 90.0,231.8 L 90.8,225.6 L 92.2,219.3 L 93.9,214.8 L 95.9,209.8 L 98.4,204.5 L 102.5,197.2 L 106.2,191.5 L 111.0,185.2 L 111.5,184.6 L 119.9,175.6 L 124.4,171.4 L 127.8,168.9 L 130.2,167.4 L 135.9,164.5 L 143.0,161.6 L 144.9,160.8 L 151.0,159.3 L 156.6,158.7 L 162.3,158.5 L 169.5,158.9 L 181.6,160.1 L 224.3,166.6 L 299.9,177.0 L 311.4,178.7 L 389.8,189.9 L 439.0,196.1 L 450.6,197.3 L 471.6,200.2 L 538.1,209.0 L 593.5,215.2 L 675.6,224.0 L 909.3,256.3 L 982.7,268.9 L 994.5,271.4 L 1004.2,273.4 L 1008.0,274.4 L 1011.2,276.2 L 1013.9,279.2 L 1014.9,281.1 L 1015.8,284.6 L 1015.5,288.7 L 1011.7,314.0 L 1009.4,328.2 L 1009.1,331.4 L 1009.5,333.9 L 1010.6,336.1 L 1012.6,338.0 L 1022.4,343.0 L 1028.4,346.2 L 1034.1,349.2 L 1036.7,350.9 L 1038.6,352.3 L 1039.7,354.4 L 1040.0,356.3 L 1040.0,358.6 L 1039.6,363.9 L 1038.4,371.2 L 1036.8,380.3 L 1034.5,391.3 L 1032.9,397.9 L 1029.0,411.2 L 1021.1,432.0 L 1015.2,445.2 L 1010.9,453.5 L 1005.5,463.3 L 963.9,532.6 L 923.9,599.1 L 892.6,651.8 L 858.1,706.5 L 850.4,717.6 L 837.1,736.8 L 828.6,749.2 L 827.3,752.0 L 826.6,755.1 L 826.7,757.8 L 827.6,760.9 L 829.4,763.4 L 833.2,766.4 L 849.6,775.6 L 858.6,781.1 L 860.9,783.9 L 862.1,787.0 L 862.3,789.6 L 861.9,792.1 L 860.9,794.5 L 859.0,796.9 L 851.5,802.1 L 837.5,812.6 L 802.1,838.5 L 799.4,840.1 L 797.3,841.0 L 794.2,841.5 L 792.1,841.2 L 790.1,840.4 L 782.4,835.6 L 779.5,833.2 L 778.4,831.0 L 777.8,828.6 L 778.0,825.8 L 778.2,822.2 L 779.0,815.6 L 780.4,803.2 L 783.0,782.0 L 794.8,693.7 L 799.3,658.6 L 802.4,635.7 L 802.9,631.1 L 802.8,627.4 L 801.8,623.5 L 800.5,620.5 L 797.7,616.8 L 793.3,613.3 L 786.0,608.7 L 762.6,594.7 L 758.9,592.3 L 754.2,588.7 L 750.2,584.7 L 746.9,580.6 L 744.1,576.4 L 741.4,571.6 L 738.4,564.5 L 735.7,556.1 L 733.9,551.8 L 731.7,547.2 L 729.0,542.9 L 726.2,539.6 L 723.4,536.3 L 719.7,532.8 L 715.6,529.3 L 710.4,525.9 L 705.5,523.6 L 698.8,521.2 L 691.4,519.6 L 675.0,517.2 L 660.3,515.3 L 618.2,509.9 L 613.2,509.1 L 608.0,508.0 L 603.7,506.7 L 599.7,504.6 L 596.4,502.0 L 593.2,498.2 L 590.6,494.1 L 588.7,488.9 L 587.0,482.0 L 586.3,479.2 L 584.8,473.4 L 582.2,463.7 L 580.5,458.5 L 578.6,454.4 L 575.9,449.8 L 572.6,445.9 L 569.0,442.3 L 564.1,438.6 L 556.6,434.7 L 546.6,429.4 L 529.0,420.1 L 506.8,408.0 L 495.8,401.5 L 486.2,396.6 L 477.9,393.2 L 469.0,390.0 L 456.6,386.7 L 443.5,384.4 L 409.0,379.5 L 382.4,375.7 L 327.7,367.8 L 311.1,365.4 L 249.7,356.5 L 224.1,352.8 L 221.1,350.5 L 220.3,349.3 L 218.7,347.5 L 217.3,343.8 L 213.6,278.9 L 212.5,269.2 L 211.4,262.6 L 206.5,240.0 L 205.1,237.3 L 202.7,235.1 L 200.0,234.2 L 196.2,233.9 L 192.7,234.6 L 189.9,236.6 L 186.9,239.7 L 179.1,251.4 L 175.2,255.2 L 172.0,256.6 L 168.2,257.3 L 164.3,257.2 L 161.0,256.4 L 155.8,253.5 L 154.6,252.9 L 150.3,250.5 L 146.6,249.0 L 142.4,248.0 L 132.9,247.1 L 104.3,244.0 L 99.8,243.1 L 96.0,241.8 L 93.9,240.2 L 91.9,237.8 L 90.9,235.3 L 90.0,231.8 Z" fill="none" stroke="#ff5a36" stroke-opacity="0.55" stroke-width="1.2" stroke-linejoin="round" filter="url(#glow)"/>
<circle cx="90.0" cy="231.8" r="13" fill="none" stroke="#ffffff" stroke-width="3"/>
<rect x="86.0" y="209.8" width="8" height="18" fill="#ffffff"/>
<circle cx="848.1" cy="247.8" r="7" fill="#ff5a36" stroke="#0a0c12" stroke-width="2.5" filter="url(#glow)"/>
<text x="848.1" y="251.2" font-size="9" font-weight="700" fill="#0a0c12" text-anchor="middle">1</text>
<circle cx="905.9" cy="255.9" r="7" fill="#ff5a36" stroke="#0a0c12" stroke-width="2.5" filter="url(#glow)"/>
<text x="905.9" y="259.3" font-size="9" font-weight="700" fill="#0a0c12" text-anchor="middle">2</text>
<circle cx="939.4" cy="261.5" r="7" fill="#ff5a36" stroke="#0a0c12" stroke-width="2.5" filter="url(#glow)"/>
<text x="939.4" y="264.9" font-size="9" font-weight="700" fill="#0a0c12" text-anchor="middle">3</text>
<circle cx="913.8" cy="616.0" r="7" fill="#ff5a36" stroke="#0a0c12" stroke-width="2.5" filter="url(#glow)"/>
<text x="913.8" y="619.4" font-size="9" font-weight="700" fill="#0a0c12" text-anchor="middle">4</text>
<circle cx="890.0" cy="655.9" r="7" fill="#ff5a36" stroke="#0a0c12" stroke-width="2.5" filter="url(#glow)"/>
<text x="890.0" y="659.3" font-size="9" font-weight="700" fill="#0a0c12" text-anchor="middle">5</text>
<circle cx="836.7" cy="737.4" r="7" fill="#ff5a36" stroke="#0a0c12" stroke-width="2.5" filter="url(#glow)"/>
<text x="836.7" y="740.8" font-size="9" font-weight="700" fill="#0a0c12" text-anchor="middle">6</text>
<circle cx="781.9" cy="790.7" r="7" fill="#ff5a36" stroke="#0a0c12" stroke-width="2.5" filter="url(#glow)"/>
<text x="781.9" y="794.1" font-size="9" font-weight="700" fill="#0a0c12" text-anchor="middle">7</text>
<circle cx="790.6" cy="724.5" r="7" fill="#ff5a36" stroke="#0a0c12" stroke-width="2.5" filter="url(#glow)"/>
<text x="790.6" y="727.9" font-size="9" font-weight="700" fill="#0a0c12" text-anchor="middle">8</text>
<circle cx="799.0" cy="661.4" r="7" fill="#ff5a36" stroke="#0a0c12" stroke-width="2.5" filter="url(#glow)"/>
<text x="799.0" y="664.8" font-size="9" font-weight="700" fill="#0a0c12" text-anchor="middle">9</text>
<circle cx="739.2" cy="566.4" r="7" fill="#ff5a36" stroke="#0a0c12" stroke-width="2.5" filter="url(#glow)"/>
<text x="739.2" y="569.8" font-size="9" font-weight="700" fill="#0a0c12" text-anchor="middle">10</text>
<circle cx="711.0" cy="526.3" r="7" fill="#ff5a36" stroke="#0a0c12" stroke-width="2.5" filter="url(#glow)"/>
<text x="711.0" y="529.7" font-size="9" font-weight="700" fill="#0a0c12" text-anchor="middle">11</text>
<circle cx="388.6" cy="376.6" r="7" fill="#ff5a36" stroke="#0a0c12" stroke-width="2.5" filter="url(#glow)"/>
<text x="388.6" y="380.0" font-size="9" font-weight="700" fill="#0a0c12" text-anchor="middle">12</text>
<circle cx="265.9" cy="358.8" r="7" fill="#ff5a36" stroke="#0a0c12" stroke-width="2.5" filter="url(#glow)"/>
<text x="265.9" y="362.2" font-size="9" font-weight="700" fill="#0a0c12" text-anchor="middle">13</text>
<circle cx="235.0" cy="354.3" r="7" fill="#ff5a36" stroke="#0a0c12" stroke-width="2.5" filter="url(#glow)"/>
<text x="235.0" y="357.7" font-size="9" font-weight="700" fill="#0a0c12" text-anchor="middle">14</text>
<circle cx="217.3" cy="343.5" r="7" fill="#ff5a36" stroke="#0a0c12" stroke-width="2.5" filter="url(#glow)"/>
<text x="217.3" y="346.9" font-size="9" font-weight="700" fill="#0a0c12" text-anchor="middle">15</text>
<circle cx="213.9" cy="282.7" r="7" fill="#ff5a36" stroke="#0a0c12" stroke-width="2.5" filter="url(#glow)"/>
<text x="213.9" y="286.1" font-size="9" font-weight="700" fill="#0a0c12" text-anchor="middle">16</text>
<circle cx="208.5" cy="249.0" r="7" fill="#ff5a36" stroke="#0a0c12" stroke-width="2.5" filter="url(#glow)"/>
<text x="208.5" y="252.4" font-size="9" font-weight="700" fill="#0a0c12" text-anchor="middle">17</text>
<line x1="905.9" y1="255.9" x2="950.7" y2="229.5" stroke="#ff5a36" stroke-opacity="0.45" stroke-width="1.3"/>
<text x="958.7" y="233.5" font-size="15" font-weight="600" fill="#eef2fb" text-anchor="start">Esses</text>
<line x1="913.8" y1="616.0" x2="959.5" y2="640.9" stroke="#ff5a36" stroke-opacity="0.45" stroke-width="1.3"/>
<text x="967.5" y="644.9" font-size="15" font-weight="600" fill="#eef2fb" text-anchor="start">Ese del Lago</text>
<line x1="890.0" y1="655.9" x2="932.1" y2="686.4" stroke="#ff5a36" stroke-opacity="0.45" stroke-width="1.3"/>
<text x="940.1" y="690.4" font-size="15" font-weight="600" fill="#eef2fb" text-anchor="start">Ese del Lago</text>
<line x1="836.7" y1="737.4" x2="869.8" y2="797.1" stroke="#ff5a36" stroke-opacity="0.45" stroke-width="1.3"/>
<text x="877.8" y="801.1" font-size="15" font-weight="600" fill="#eef2fb" text-anchor="start">Horquilla</text>
<line x1="790.6" y1="724.5" x2="820.4" y2="767.1" stroke="#ff5a36" stroke-opacity="0.45" stroke-width="1.3"/>
<text x="828.4" y="771.1" font-size="15" font-weight="600" fill="#eef2fb" text-anchor="start">Esses del Bosque</text>
<line x1="739.2" y1="566.4" x2="778.7" y2="600.2" stroke="#ff5a36" stroke-opacity="0.45" stroke-width="1.3"/>
<text x="786.7" y="604.2" font-size="15" font-weight="600" fill="#eef2fb" text-anchor="start">Turn 10</text>
<line x1="711.0" y1="526.3" x2="753.1" y2="556.8" stroke="#ff5a36" stroke-opacity="0.45" stroke-width="1.3"/>
<text x="761.1" y="560.8" font-size="15" font-weight="600" fill="#eef2fb" text-anchor="start">Turn 11</text>
<line x1="388.6" y1="376.6" x2="339.0" y2="420.5" stroke="#ff5a36" stroke-opacity="0.45" stroke-width="1.3"/>
<text x="331.0" y="424.5" font-size="15" font-weight="600" fill="#eef2fb" text-anchor="end">Turn 12</text>
<line x1="265.9" y1="358.8" x2="215.4" y2="390.5" stroke="#ff5a36" stroke-opacity="0.45" stroke-width="1.3"/>
<text x="207.4" y="394.5" font-size="15" font-weight="600" fill="#eef2fb" text-anchor="end">Foro Sol</text>
<line x1="235.0" y1="354.3" x2="184.5" y2="360.5" stroke="#ff5a36" stroke-opacity="0.45" stroke-width="1.3"/>
<text x="176.5" y="364.5" font-size="15" font-weight="600" fill="#eef2fb" text-anchor="end">Turn 14</text>
<line x1="217.3" y1="343.5" x2="166.9" y2="330.5" stroke="#ff5a36" stroke-opacity="0.45" stroke-width="1.3"/>
<text x="158.9" y="334.5" font-size="15" font-weight="600" fill="#eef2fb" text-anchor="end">Turn 15</text>
<line x1="213.9" y1="282.7" x2="165.9" y2="262.7" stroke="#ff5a36" stroke-opacity="0.45" stroke-width="1.3"/>
<text x="157.9" y="266.7" font-size="15" font-weight="600" fill="#eef2fb" text-anchor="end">Turn 16</text>
<line x1="208.5" y1="249.0" x2="161.9" y2="225.8" stroke="#ff5a36" stroke-opacity="0.45" stroke-width="1.3"/>
<text x="153.9" y="229.8" font-size="15" font-weight="600" fill="#eef2fb" text-anchor="end">Peraltada</text>
<text x="90" y="64" font-size="20" letter-spacing="5" fill="#ff5a36" font-weight="700">TRACK ATLAS</text>
<text x="90" y="108" font-size="42" font-weight="800" fill="#ffffff">AUTODROMO HERMANOS RODRIGUEZ</text>
<text x="90" y="136" font-size="16" fill="#9aa6bd">Mexico City</text>
<rect x="1170" y="200" width="360" height="710" rx="16" fill="#ffffff" fill-opacity="0.04" stroke="#ff5a36" stroke-opacity="0.5"/>
<text x="1198" y="250" font-size="13" letter-spacing="2" fill="#8794ab">LAYOUT</text>
<text x="1198" y="276" font-size="22" font-weight="700" fill="#eef2fb">Grand Prix Circuit</text>
<text x="1198" y="320" font-size="13" letter-spacing="2" fill="#8794ab">LENGTH</text>
<text x="1198" y="346" font-size="22" font-weight="700" fill="#eef2fb">4.304 km</text>
<text x="1198" y="390" font-size="13" letter-spacing="2" fill="#8794ab">CORNERS</text>
<text x="1198" y="416" font-size="22" font-weight="700" fill="#eef2fb">17</text>
<text x="1198" y="460" font-size="13" letter-spacing="2" fill="#8794ab">NAMED CORNERS</text>
<text x="1198" y="486" font-size="22" font-weight="700" fill="#eef2fb">17</text>
<text x="1198" y="530" font-size="13" letter-spacing="2" fill="#8794ab">DIRECTION</text>
<text x="1198" y="556" font-size="22" font-weight="700" fill="#eef2fb">Clockwise</text>
<text x="1198" y="600" font-size="13" letter-spacing="2" fill="#8794ab">SECTORS</text>
<text x="1198" y="626" font-size="22" font-weight="700" fill="#eef2fb">3</text>
<text x="1198" y="670" font-size="13" letter-spacing="2" fill="#8794ab">COUNTRY</text>
<text x="1198" y="696" font-size="22" font-weight="700" fill="#eef2fb">MX</text>
<text x="1198" y="740" font-size="13" letter-spacing="2" fill="#8794ab">LOCATION</text>
<text x="1198" y="766" font-size="22" font-weight="700" fill="#eef2fb">Mexico City</text>
<text x="1198" y="810" font-size="13" letter-spacing="2" fill="#8794ab">COMPLEXES</text>
<rect x="1198" y="816" width="54" height="24" rx="12" fill="#ff5a36" fill-opacity="0.16" stroke="#ff5a36" stroke-opacity="0.5"/>
<text x="1225" y="833" font-size="12" fill="#eef2fb" text-anchor="middle">Esses</text>
<rect x="1262" y="816" width="142" height="24" rx="12" fill="#ff5a36" fill-opacity="0.16" stroke="#ff5a36" stroke-opacity="0.5"/>
<text x="1333" y="833" font-size="12" fill="#eef2fb" text-anchor="middle">Esses del Bosque</text>
<text x="90" y="966" font-size="12" fill="#566177">Geometry © OpenStreetMap contributors (ODbL) · corner data: Lovely-Sim-Racing + curated · track-atlas</text>
<text x="90" y="942" font-size="12" fill="#8794ab">⚑ start / finish</text>
</svg>