<svg xmlns="http://www.w3.org/2000/svg" width="1600" height="1000" viewBox="0 0 1600 1000" font-family="Helvetica, Arial, sans-serif">
<defs>
      <radialGradient id="bg" cx="38%" cy="34%" r="85%">
        <stop offset="0%" stop-color="#1b2030"/>
        <stop offset="55%" stop-color="#12151f"/>
        <stop offset="100%" stop-color="#0a0c12"/>
      </radialGradient>
      <linearGradient id="accent" x1="0" y1="0" x2="1" y2="1">
        <stop offset="0%" stop-color="#ff5a36"/>
        <stop offset="100%" stop-color="#ffffff"/>
      </linearGradient>
      <filter id="glow" x="-40%" y="-40%" width="180%" height="180%">
        <feGaussianBlur stdDeviation="6" result="b"/>
        <feMerge><feMergeNode in="b"/><feMergeNode in="SourceGraphic"/></feMerge>
      </filter>
    </defs>
<rect width="1600" height="1000" fill="url(#bg)"/>
<path d="M 624.0,769.3 L 511.5,795.8 L 404.4,821.0 L 382.7,826.1 L 302.0,844.9 L 294.9,846.4 L 287.0,847.1 L 281.9,846.9 L 276.1,846.1 L 270.9,845.1 L 265.8,843.7 L 260.7,842.0 L 255.1,839.2 L 249.0,835.9 L 243.0,831.4 L 238.7,828.1 L 233.8,823.1 L 229.5,817.2 L 225.4,810.0 L 222.5,802.8 L 220.6,795.3 L 219.6,788.0 L 219.4,780.4 L 220.1,772.7 L 221.5,766.0 L 223.6,760.0 L 226.7,754.4 L 230.7,749.0 L 234.5,745.5 L 239.9,741.8 L 245.2,739.4 L 251.3,737.6 L 256.5,736.9 L 262.9,736.9 L 269.7,738.2 L 274.7,740.3 L 278.8,742.7 L 282.0,745.9 L 284.5,749.4 L 285.7,752.6 L 286.6,756.1 L 286.9,759.9 L 286.3,763.5 L 285.1,767.6 L 281.6,776.9 L 280.4,780.3 L 279.3,783.5 L 278.9,787.6 L 279.3,792.6 L 280.9,798.3 L 283.7,802.7 L 287.5,806.5 L 291.9,808.9 L 297.0,810.7 L 300.1,811.3 L 303.5,811.4 L 306.2,810.9 L 309.4,809.9 L 312.3,808.6 L 315.4,806.5 L 320.2,800.8 L 324.4,794.3 L 327.4,788.6 L 329.8,782.5 L 331.3,776.6 L 332.9,768.9 L 333.5,759.7 L 333.1,754.7 L 331.7,748.0 L 329.6,741.9 L 327.7,737.9 L 324.5,733.2 L 314.5,721.3 L 248.7,644.9 L 204.6,595.5 L 198.0,587.9 L 195.1,583.6 L 192.7,579.2 L 189.5,571.5 L 186.9,563.9 L 143.0,436.5 L 142.0,432.1 L 142.2,426.6 L 144.5,422.3 L 148.0,419.3 L 152.2,417.7 L 157.4,417.8 L 162.6,419.9 L 168.7,423.2 L 174.5,427.1 L 186.1,436.2 L 192.2,441.3 L 198.3,447.2 L 207.5,457.4 L 215.1,467.3 L 219.9,474.5 L 224.0,481.7 L 235.1,501.4 L 280.9,580.5 L 283.9,585.5 L 287.7,590.8 L 292.0,596.5 L 297.0,602.0 L 303.1,607.2 L 309.1,611.4 L 315.6,615.6 L 321.8,619.1 L 328.5,621.5 L 334.1,623.2 L 339.8,624.5 L 345.6,625.4 L 351.5,626.0 L 358.6,626.1 L 364.4,626.1 L 370.2,625.4 L 376.6,624.0 L 382.6,622.4 L 389.4,620.0 L 395.5,617.2 L 403.2,612.5 L 411.2,606.8 L 419.2,599.3 L 426.6,590.6 L 430.5,584.8 L 434.8,577.2 L 447.1,549.7 L 457.1,529.0 L 459.7,523.5 L 464.3,516.5 L 468.7,511.1 L 474.5,505.8 L 480.6,501.6 L 487.5,498.0 L 494.6,495.7 L 501.4,494.2 L 509.0,493.6 L 516.9,494.2 L 525.0,495.7 L 532.0,498.3 L 539.5,502.1 L 547.4,507.9 L 553.5,514.2 L 559.0,521.4 L 562.5,528.1 L 581.6,568.3 L 583.6,572.2 L 586.4,576.0 L 589.6,578.8 L 592.9,580.4 L 599.2,581.8 L 604.0,581.5 L 608.4,580.1 L 611.5,578.4 L 614.3,576.6 L 617.2,574.0 L 642.3,541.8 L 644.0,539.2 L 646.2,535.7 L 647.4,532.3 L 647.8,528.9 L 648.0,526.0 L 647.5,522.3 L 646.3,518.7 L 644.7,514.4 L 636.9,501.9 L 611.7,461.3 L 584.0,415.4 L 567.7,388.3 L 566.8,386.8 L 537.5,338.7 L 519.6,309.2 L 485.5,253.2 L 482.5,249.9 L 479.5,248.0 L 476.1,247.6 L 473.7,247.8 L 470.9,248.5 L 467.6,250.4 L 463.2,254.5 L 459.5,259.0 L 457.1,262.3 L 454.4,266.9 L 451.4,270.6 L 449.2,272.5 L 448.2,273.3 L 444.6,275.5 L 441.0,277.0 L 437.5,277.9 L 433.6,278.0 L 429.3,277.6 L 425.0,276.2 L 418.2,271.6 L 413.4,267.2 L 412.1,265.5 L 409.9,262.8 L 405.8,257.2 L 403.1,252.1 L 400.7,246.3 L 398.2,235.8 L 398.1,233.8 L 397.3,225.2 L 397.4,219.7 L 398.1,215.0 L 399.2,209.8 L 400.8,204.6 L 404.0,197.9 L 408.6,190.4 L 413.4,185.0 L 420.5,178.9 L 429.9,173.9 L 441.0,170.1 L 452.1,168.3 L 456.5,168.2 L 462.3,168.0 L 473.4,168.9 L 484.6,171.5 L 495.5,175.1 L 504.0,180.3 L 513.5,186.9 L 521.0,194.1 L 526.5,200.7 L 533.3,210.1 L 624.9,349.2 L 668.9,416.1 L 704.6,470.4 L 720.1,493.8 L 771.2,571.1 L 778.2,581.8 L 818.5,643.0 L 866.9,716.6 L 980.7,888.8 L 986.0,897.4 L 987.3,900.8 L 988.0,903.0 L 987.9,905.7 L 987.1,907.3 L 985.8,908.5 L 983.9,909.8 L 981.3,910.0 L 978.0,909.4 L 973.6,907.7 L 964.6,902.3 L 941.2,888.4 L 936.8,885.4 L 932.4,880.8 L 927.7,875.1 L 837.1,748.9 L 822.8,729.3 L 819.8,726.1 L 817.9,724.6 L 816.1,723.8 L 813.7,723.6 L 811.3,723.9 L 806.9,724.7 L 699.7,751.6 L 646.0,764.1 L 624.0,769.3 Z" fill="none" stroke="#000000" stroke-opacity="0.5" stroke-width="13" stroke-linejoin="round" stroke-linecap="round"/>
<path d="M 624.0,769.3 L 511.5,795.8 L 404.4,821.0 L 382.7,826.1 L 302.0,844.9 L 294.9,846.4 L 287.0,847.1 L 281.9,846.9 L 276.1,846.1 L 270.9,845.1 L 265.8,843.7 L 260.7,842.0 L 255.1,839.2 L 249.0,835.9 L 243.0,831.4 L 238.7,828.1 L 233.8,823.1 L 229.5,817.2 L 225.4,810.0 L 222.5,802.8 L 220.6,795.3 L 219.6,788.0 L 219.4,780.4 L 220.1,772.7 L 221.5,766.0 L 223.6,760.0 L 226.7,754.4 L 230.7,749.0 L 234.5,745.5 L 239.9,741.8 L 245.2,739.4 L 251.3,737.6 L 256.5,736.9 L 262.9,736.9 L 269.7,738.2 L 274.7,740.3 L 278.8,742.7 L 282.0,745.9 L 284.5,749.4 L 285.7,752.6 L 286.6,756.1 L 286.9,759.9 L 286.3,763.5 L 285.1,767.6 L 281.6,776.9 L 280.4,780.3 L 279.3,783.5 L 278.9,787.6 L 279.3,792.6 L 280.9,798.3 L 283.7,802.7 L 287.5,806.5 L 291.9,808.9 L 297.0,810.7 L 300.1,811.3 L 303.5,811.4 L 306.2,810.9 L 309.4,809.9 L 312.3,808.6 L 315.4,806.5 L 320.2,800.8 L 324.4,794.3 L 327.4,788.6 L 329.8,782.5 L 331.3,776.6 L 332.9,768.9 L 333.5,759.7 L 333.1,754.7 L 331.7,748.0 L 329.6,741.9 L 327.7,737.9 L 324.5,733.2 L 314.5,721.3 L 248.7,644.9 L 204.6,595.5 L 198.0,587.9 L 195.1,583.6 L 192.7,579.2 L 189.5,571.5 L 186.9,563.9 L 143.0,436.5 L 142.0,432.1 L 142.2,426.6 L 144.5,422.3 L 148.0,419.3 L 152.2,417.7 L 157.4,417.8 L 162.6,419.9 L 168.7,423.2 L 174.5,427.1 L 186.1,436.2 L 192.2,441.3 L 198.3,447.2 L 207.5,457.4 L 215.1,467.3 L 219.9,474.5 L 224.0,481.7 L 235.1,501.4 L 280.9,580.5 L 283.9,585.5 L 287.7,590.8 L 292.0,596.5 L 297.0,602.0 L 303.1,607.2 L 309.1,611.4 L 315.6,615.6 L 321.8,619.1 L 328.5,621.5 L 334.1,623.2 L 339.8,624.5 L 345.6,625.4 L 351.5,626.0 L 358.6,626.1 L 364.4,626.1 L 370.2,625.4 L 376.6,624.0 L 382.6,622.4 L 389.4,620.0 L 395.5,617.2 L 403.2,612.5 L 411.2,606.8 L 419.2,599.3 L 426.6,590.6 L 430.5,584.8 L 434.8,577.2 L 447.1,549.7 L 457.1,529.0 L 459.7,523.5 L 464.3,516.5 L 468.7,511.1 L 474.5,505.8 L 480.6,501.6 L 487.5,498.0 L 494.6,495.7 L 501.4,494.2 L 509.0,493.6 L 516.9,494.2 L 525.0,495.7 L 532.0,498.3 L 539.5,502.1 L 547.4,507.9 L 553.5,514.2 L 559.0,521.4 L 562.5,528.1 L 581.6,568.3 L 583.6,572.2 L 586.4,576.0 L 589.6,578.8 L 592.9,580.4 L 599.2,581.8 L 604.0,581.5 L 608.4,580.1 L 611.5,578.4 L 614.3,576.6 L 617.2,574.0 L 642.3,541.8 L 644.0,539.2 L 646.2,535.7 L 647.4,532.3 L 647.8,528.9 L 648.0,526.0 L 647.5,522.3 L 646.3,518.7 L 644.7,514.4 L 636.9,501.9 L 611.7,461.3 L 584.0,415.4 L 567.7,388.3 L 566.8,386.8 L 537.5,338.7 L 519.6,309.2 L 485.5,253.2 L 482.5,249.9 L 479.5,248.0 L 476.1,247.6 L 473.7,247.8 L 470.9,248.5 L 467.6,250.4 L 463.2,254.5 L 459.5,259.0 L 457.1,262.3 L 454.4,266.9 L 451.4,270.6 L 449.2,272.5 L 448.2,273.3 L 444.6,275.5 L 441.0,277.0 L 437.5,277.9 L 433.6,278.0 L 429.3,277.6 L 425.0,276.2 L 418.2,271.6 L 413.4,267.2 L 412.1,265.5 L 409.9,262.8 L 405.8,257.2 L 403.1,252.1 L 400.7,246.3 L 398.2,235.8 L 398.1,233.8 L 397.3,225.2 L 397.4,219.7 L 398.1,215.0 L 399.2,209.8 L 400.8,204.6 L 404.0,197.9 L 408.6,190.4 L 413.4,185.0 L 420.5,178.9 L 429.9,173.9 L 441.0,170.1 L 452.1,168.3 L 456.5,168.2 L 462.3,168.0 L 473.4,168.9 L 484.6,171.5 L 495.5,175.1 L 504.0,180.3 L 513.5,186.9 L 521.0,194.1 L 526.5,200.7 L 533.3,210.1 L 624.9,349.2 L 668.9,416.1 L 704.6,470.4 L 720.1,493.8 L 771.2,571.1 L 778.2,581.8 L 818.5,643.0 L 866.9,716.6 L 980.7,888.8 L 986.0,897.4 L 987.3,900.8 L 988.0,903.0 L 987.9,905.7 L 987.1,907.3 L 985.8,908.5 L 983.9,909.8 L 981.3,910.0 L 978.0,909.4 L 973.6,907.7 L 964.6,902.3 L 941.2,888.4 L 936.8,885.4 L 932.4,880.8 L 927.7,875.1 L 837.1,748.9 L 822.8,729.3 L 819.8,726.1 L 817.9,724.6 L 816.1,723.8 L 813.7,723.6 L 811.3,723.9 L 806.9,724.7 L 699.7,751.6 L 646.0,764.1 L 624.0,769.3 Z" fill="none" stroke="#39404f" stroke-width="8.5" stroke-linejoin="round" stroke-linecap="round"/>
<path d="M 624.0,769.3 L 511.5,795.8 L 404.4,821.0 L 382.7,826.1 L 302.0,844.9 L 294.9,846.4 L 287.0,847.1 L 281.9,846.9 L 276.1,846.1 L 270.9,845.1 L 265.8,843.7 L 260.7,842.0 L 255.1,839.2 L 249.0,835.9 L 243.0,831.4 L 238.7,828.1 L 233.8,823.1 L 229.5,817.2 L 225.4,810.0 L 222.5,802.8 L 220.6,795.3 L 219.6,788.0 L 219.4,780.4 L 220.1,772.7 L 221.5,766.0 L 223.6,760.0 L 226.7,754.4 L 230.7,749.0 L 234.5,745.5 L 239.9,741.8 L 245.2,739.4 L 251.3,737.6 L 256.5,736.9 L 262.9,736.9 L 269.7,738.2 L 274.7,740.3 L 278.8,742.7 L 282.0,745.9 L 284.5,749.4 L 285.7,752.6 L 286.6,756.1 L 286.9,759.9 L 286.3,763.5 L 285.1,767.6 L 281.6,776.9 L 280.4,780.3 L 279.3,783.5 L 278.9,787.6 L 279.3,792.6 L 280.9,798.3 L 283.7,802.7 L 287.5,806.5 L 291.9,808.9 L 297.0,810.7 L 300.1,811.3 L 303.5,811.4 L 306.2,810.9 L 309.4,809.9 L 312.3,808.6 L 315.4,806.5 L 320.2,800.8 L 324.4,794.3 L 327.4,788.6 L 329.8,782.5 L 331.3,776.6 L 332.9,768.9 L 333.5,759.7 L 333.1,754.7 L 331.7,748.0 L 329.6,741.9 L 327.7,737.9 L 324.5,733.2 L 314.5,721.3 L 248.7,644.9 L 204.6,595.5 L 198.0,587.9 L 195.1,583.6 L 192.7,579.2 L 189.5,571.5 L 186.9,563.9 L 143.0,436.5 L 142.0,432.1 L 142.2,426.6 L 144.5,422.3 L 148.0,419.3 L 152.2,417.7 L 157.4,417.8 L 162.6,419.9 L 168.7,423.2 L 174.5,427.1 L 186.1,436.2 L 192.2,441.3 L 198.3,447.2 L 207.5,457.4 L 215.1,467.3 L 219.9,474.5 L 224.0,481.7 L 235.1,501.4 L 280.9,580.5 L 283.9,585.5 L 287.7,590.8 L 292.0,596.5 L 297.0,602.0 L 303.1,607.2 L 309.1,611.4 L 315.6,615.6 L 321.8,619.1 L 328.5,621.5 L 334.1,623.2 L 339.8,624.5 L 345.6,625.4 L 351.5,626.0 L 358.6,626.1 L 364.4,626.1 L 370.2,625.4 L 376.6,624.0 L 382.6,622.4 L 389.4,620.0 L 395.5,617.2 L 403.2,612.5 L 411.2,606.8 L 419.2,599.3 L 426.6,590.6 L 430.5,584.8 L 434.8,577.2 L 447.1,549.7 L 457.1,529.0 L 459.7,523.5 L 464.3,516.5 L 468.7,511.1 L 474.5,505.8 L 480.6,501.6 L 487.5,498.0 L 494.6,495.7 L 501.4,494.2 L 509.0,493.6 L 516.9,494.2 L 525.0,495.7 L 532.0,498.3 L 539.5,502.1 L 547.4,507.9 L 553.5,514.2 L 559.0,521.4 L 562.5,528.1 L 581.6,568.3 L 583.6,572.2 L 586.4,576.0 L 589.6,578.8 L 592.9,580.4 L 599.2,581.8 L 604.0,581.5 L 608.4,580.1 L 611.5,578.4 L 614.3,576.6 L 617.2,574.0 L 642.3,541.8 L 644.0,539.2 L 646.2,535.7 L 647.4,532.3 L 647.8,528.9 L 648.0,526.0 L 647.5,522.3 L 646.3,518.7 L 644.7,514.4 L 636.9,501.9 L 611.7,461.3 L 584.0,415.4 L 567.7,388.3 L 566.8,386.8 L 537.5,338.7 L 519.6,309.2 L 485.5,253.2 L 482.5,249.9 L 479.5,248.0 L 476.1,247.6 L 473.7,247.8 L 470.9,248.5 L 467.6,250.4 L 463.2,254.5 L 459.5,259.0 L 457.1,262.3 L 454.4,266.9 L 451.4,270.6 L 449.2,272.5 L 448.2,273.3 L 444.6,275.5 L 441.0,277.0 L 437.5,277.9 L 433.6,278.0 L 429.3,277.6 L 425.0,276.2 L 418.2,271.6 L 413.4,267.2 L 412.1,265.5 L 409.9,262.8 L 405.8,257.2 L 403.1,252.1 L 400.7,246.3 L 398.2,235.8 L 398.1,233.8 L 397.3,225.2 L 397.4,219.7 L 398.1,215.0 L 399.2,209.8 L 400.8,204.6 L 404.0,197.9 L 408.6,190.4 L 413.4,185.0 L 420.5,178.9 L 429.9,173.9 L 441.0,170.1 L 452.1,168.3 L 456.5,168.2 L 462.3,168.0 L 473.4,168.9 L 484.6,171.5 L 495.5,175.1 L 504.0,180.3 L 513.5,186.9 L 521.0,194.1 L 526.5,200.7 L 533.3,210.1 L 624.9,349.2 L 668.9,416.1 L 704.6,470.4 L 720.1,493.8 L 771.2,571.1 L 778.2,581.8 L 818.5,643.0 L 866.9,716.6 L 980.7,888.8 L 986.0,897.4 L 987.3,900.8 L 988.0,903.0 L 987.9,905.7 L 987.1,907.3 L 985.8,908.5 L 983.9,909.8 L 981.3,910.0 L 978.0,909.4 L 973.6,907.7 L 964.6,902.3 L 941.2,888.4 L 936.8,885.4 L 932.4,880.8 L 927.7,875.1 L 837.1,748.9 L 822.8,729.3 L 819.8,726.1 L 817.9,724.6 L 816.1,723.8 L 813.7,723.6 L 811.3,723.9 L 806.9,724.7 L 699.7,751.6 L 646.0,764.1 L 624.0,769.3 Z" fill="none" stroke="#e7edf8" stroke-width="2.6" stroke-linejoin="round" stroke-linecap="round"/>
<path d="M 624.0,769.3 L 511.5,795.8 L 404.4,821.0 L 382.7,826.1 L 302.0,844.9 L 294.9,846.4 L 287.0,847.1 L 281.9,846.9 L 276.1,846.1 L 270.9,845.1 L 265.8,843.7 L 260.7,842.0 L 255.1,839.2 L 249.0,835.9 L 243.0,831.4 L 238.7,828.1 L 233.8,823.1 L 229.5,817.2 L 225.4,810.0 L 222.5,802.8 L 220.6,795.3 L 219.6,788.0 L 219.4,780.4 L 220.1,772.7 L 221.5,766.0 L 223.6,760.0 L 226.7,754.4 L 230.7,749.0 L 234.5,745.5 L 239.9,741.8 L 245.2,739.4 L 251.3,737.6 L 256.5,736.9 L 262.9,736.9 L 269.7,738.2 L 274.7,740.3 L 278.8,742.7 L 282.0,745.9 L 284.5,749.4 L 285.7,752.6 L 286.6,756.1 L 286.9,759.9 L 286.3,763.5 L 285.1,767.6 L 281.6,776.9 L 280.4,780.3 L 279.3,783.5 L 278.9,787.6 L 279.3,792.6 L 280.9,798.3 L 283.7,802.7 L 287.5,806.5 L 291.9,808.9 L 297.0,810.7 L 300.1,811.3 L 303.5,811.4 L 306.2,810.9 L 309.4,809.9 L 312.3,808.6 L 315.4,806.5 L 320.2,800.8 L 324.4,794.3 L 327.4,788.6 L 329.8,782.5 L 331.3,776.6 L 332.9,768.9 L 333.5,759.7 L 333.1,754.7 L 331.7,748.0 L 329.6,741.9 L 327.7,737.9 L 324.5,733.2 L 314.5,721.3 L 248.7,644.9 L 204.6,595.5 L 198.0,587.9 L 195.1,583.6 L 192.7,579.2 L 189.5,571.5 L 186.9,563.9 L 143.0,436.5 L 142.0,432.1 L 142.2,426.6 L 144.5,422.3 L 148.0,419.3 L 152.2,417.7 L 157.4,417.8 L 162.6,419.9 L 168.7,423.2 L 174.5,427.1 L 186.1,436.2 L 192.2,441.3 L 198.3,447.2 L 207.5,457.4 L 215.1,467.3 L 219.9,474.5 L 224.0,481.7 L 235.1,501.4 L 280.9,580.5 L 283.9,585.5 L 287.7,590.8 L 292.0,596.5 L 297.0,602.0 L 303.1,607.2 L 309.1,611.4 L 315.6,615.6 L 321.8,619.1 L 328.5,621.5 L 334.1,623.2 L 339.8,624.5 L 345.6,625.4 L 351.5,626.0 L 358.6,626.1 L 364.4,626.1 L 370.2,625.4 L 376.6,624.0 L 382.6,622.4 L 389.4,620.0 L 395.5,617.2 L 403.2,612.5 L 411.2,606.8 L 419.2,599.3 L 426.6,590.6 L 430.5,584.8 L 434.8,577.2 L 447.1,549.7 L 457.1,529.0 L 459.7,523.5 L 464.3,516.5 L 468.7,511.1 L 474.5,505.8 L 480.6,501.6 L 487.5,498.0 L 494.6,495.7 L 501.4,494.2 L 509.0,493.6 L 516.9,494.2 L 525.0,495.7 L 532.0,498.3 L 539.5,502.1 L 547.4,507.9 L 553.5,514.2 L 559.0,521.4 L 562.5,528.1 L 581.6,568.3 L 583.6,572.2 L 586.4,576.0 L 589.6,578.8 L 592.9,580.4 L 599.2,581.8 L 604.0,581.5 L 608.4,580.1 L 611.5,578.4 L 614.3,576.6 L 617.2,574.0 L 642.3,541.8 L 644.0,539.2 L 646.2,535.7 L 647.4,532.3 L 647.8,528.9 L 648.0,526.0 L 647.5,522.3 L 646.3,518.7 L 644.7,514.4 L 636.9,501.9 L 611.7,461.3 L 584.0,415.4 L 567.7,388.3 L 566.8,386.8 L 537.5,338.7 L 519.6,309.2 L 485.5,253.2 L 482.5,249.9 L 479.5,248.0 L 476.1,247.6 L 473.7,247.8 L 470.9,248.5 L 467.6,250.4 L 463.2,254.5 L 459.5,259.0 L 457.1,262.3 L 454.4,266.9 L 451.4,270.6 L 449.2,272.5 L 448.2,273.3 L 444.6,275.5 L 441.0,277.0 L 437.5,277.9 L 433.6,278.0 L 429.3,277.6 L 425.0,276.2 L 418.2,271.6 L 413.4,267.2 L 412.1,265.5 L 409.9,262.8 L 405.8,257.2 L 403.1,252.1 L 400.7,246.3 L 398.2,235.8 L 398.1,233.8 L 397.3,225.2 L 397.4,219.7 L 398.1,215.0 L 399.2,209.8 L 400.8,204.6 L 404.0,197.9 L 408.6,190.4 L 413.4,185.0 L 420.5,178.9 L 429.9,173.9 L 441.0,170.1 L 452.1,168.3 L 456.5,168.2 L 462.3,168.0 L 473.4,168.9 L 484.6,171.5 L 495.5,175.1 L 504.0,180.3 L 513.5,186.9 L 521.0,194.1 L 526.5,200.7 L 533.3,210.1 L 624.9,349.2 L 668.9,416.1 L 704.6,470.4 L 720.1,493.8 L 771.2,571.1 L 778.2,581.8 L 818.5,643.0 L 866.9,716.6 L 980.7,888.8 L 986.0,897.4 L 987.3,900.8 L 988.0,903.0 L 987.9,905.7 L 987.1,907.3 L 985.8,908.5 L 983.9,909.8 L 981.3,910.0 L 978.0,909.4 L 973.6,907.7 L 964.6,902.3 L 941.2,888.4 L 936.8,885.4 L 932.4,880.8 L 927.7,875.1 L 837.1,748.9 L 822.8,729.3 L 819.8,726.1 L 817.9,724.6 L 816.1,723.8 L 813.7,723.6 L 811.3,723.9 L 806.9,724.7 L 699.7,751.6 L 646.0,764.1 L 624.0,769.3 Z" fill="none" stroke="#ff5a36" stroke-opacity="0.55" stroke-width="1.2" stroke-linejoin="round" filter="url(#glow)"/>
<circle cx="624.0" cy="769.3" r="13" fill="none" stroke="#ffffff" stroke-width="3"/>
<rect x="620.0" y="747.3" width="8" height="18" fill="#ffffff"/>
<circle cx="234.9" cy="824.2" r="7" fill="#ff5a36" stroke="#0a0c12" stroke-width="2.5" filter="url(#glow)"/>
<text x="234.9" y="827.6" font-size="9" font-weight="700" fill="#0a0c12" text-anchor="middle">1</text>
<circle cx="286.7" cy="761.2" r="7" fill="#ff5a36" stroke="#0a0c12" stroke-width="2.5" filter="url(#glow)"/>
<text x="286.7" y="764.6" font-size="9" font-weight="700" fill="#0a0c12" text-anchor="middle">2</text>
<circle cx="296.5" cy="810.5" r="7" fill="#ff5a36" stroke="#0a0c12" stroke-width="2.5" filter="url(#glow)"/>
<text x="296.5" y="813.9" font-size="9" font-weight="700" fill="#0a0c12" text-anchor="middle">3</text>
<circle cx="326.3" cy="735.8" r="7" fill="#ff5a36" stroke="#0a0c12" stroke-width="2.5" filter="url(#glow)"/>
<text x="326.3" y="739.2" font-size="9" font-weight="700" fill="#0a0c12" text-anchor="middle">4</text>
<circle cx="191.5" cy="576.3" r="7" fill="#ff5a36" stroke="#0a0c12" stroke-width="2.5" filter="url(#glow)"/>
<text x="191.5" y="579.7" font-size="9" font-weight="700" fill="#0a0c12" text-anchor="middle">5</text>
<circle cx="158.8" cy="418.3" r="7" fill="#ff5a36" stroke="#0a0c12" stroke-width="2.5" filter="url(#glow)"/>
<text x="158.8" y="421.7" font-size="9" font-weight="700" fill="#0a0c12" text-anchor="middle">6</text>
<circle cx="403.0" cy="612.6" r="7" fill="#ff5a36" stroke="#0a0c12" stroke-width="2.5" filter="url(#glow)"/>
<text x="403.0" y="616.0" font-size="9" font-weight="700" fill="#0a0c12" text-anchor="middle">7</text>
<circle cx="509.7" cy="493.7" r="7" fill="#ff5a36" stroke="#0a0c12" stroke-width="2.5" filter="url(#glow)"/>
<text x="509.7" y="497.1" font-size="9" font-weight="700" fill="#0a0c12" text-anchor="middle">8</text>
<circle cx="609.5" cy="579.5" r="7" fill="#ff5a36" stroke="#0a0c12" stroke-width="2.5" filter="url(#glow)"/>
<text x="609.5" y="582.9" font-size="9" font-weight="700" fill="#0a0c12" text-anchor="middle">9</text>
<circle cx="644.9" cy="515.0" r="7" fill="#ff5a36" stroke="#0a0c12" stroke-width="2.5" filter="url(#glow)"/>
<text x="644.9" y="518.4" font-size="9" font-weight="700" fill="#0a0c12" text-anchor="middle">10</text>
<circle cx="465.5" cy="252.3" r="7" fill="#ff5a36" stroke="#0a0c12" stroke-width="2.5" filter="url(#glow)"/>
<text x="465.5" y="255.7" font-size="9" font-weight="700" fill="#0a0c12" text-anchor="middle">11</text>
<circle cx="427.8" cy="277.1" r="7" fill="#ff5a36" stroke="#0a0c12" stroke-width="2.5" filter="url(#glow)"/>
<text x="427.8" y="280.5" font-size="9" font-weight="700" fill="#0a0c12" text-anchor="middle">12</text>
<circle cx="425.4" cy="176.3" r="7" fill="#ff5a36" stroke="#0a0c12" stroke-width="2.5" filter="url(#glow)"/>
<text x="425.4" y="179.7" font-size="9" font-weight="700" fill="#0a0c12" text-anchor="middle">13</text>
<circle cx="975.7" cy="908.5" r="7" fill="#ff5a36" stroke="#0a0c12" stroke-width="2.5" filter="url(#glow)"/>
<text x="975.7" y="911.9" font-size="9" font-weight="700" fill="#0a0c12" text-anchor="middle">14</text>
<circle cx="928.6" cy="876.2" r="7" fill="#ff5a36" stroke="#0a0c12" stroke-width="2.5" filter="url(#glow)"/>
<text x="928.6" y="879.6" font-size="9" font-weight="700" fill="#0a0c12" text-anchor="middle">15</text>
<circle cx="806.3" cy="724.8" r="7" fill="#ff5a36" stroke="#0a0c12" stroke-width="2.5" filter="url(#glow)"/>
<text x="806.3" y="728.2" font-size="9" font-weight="700" fill="#0a0c12" text-anchor="middle">16</text>
<text x="90" y="64" font-size="20" letter-spacing="5" fill="#ff5a36" font-weight="700">TRACK ATLAS</text>
<text x="90" y="108" font-size="42" font-weight="800" fill="#ffffff">SHANGHAI INTERNATIONAL CIRCUIT</text>
<text x="90" y="136" font-size="16" fill="#9aa6bd">Shanghai</text>
<rect x="1170" y="200" width="360" height="710" rx="16" fill="#ffffff" fill-opacity="0.04" stroke="#ff5a36" stroke-opacity="0.5"/>
<text x="1198" y="250" font-size="13" letter-spacing="2" fill="#8794ab">LAYOUT</text>
<text x="1198" y="276" font-size="22" font-weight="700" fill="#eef2fb">Grand Prix Circuit</text>
<text x="1198" y="320" font-size="13" letter-spacing="2" fill="#8794ab">LENGTH</text>
<text x="1198" y="346" font-size="22" font-weight="700" fill="#eef2fb">5.451 km</text>
<text x="1198" y="390" font-size="13" letter-spacing="2" fill="#8794ab">CORNERS</text>
<text x="1198" y="416" font-size="22" font-weight="700" fill="#eef2fb">16</text>
<text x="1198" y="460" font-size="13" letter-spacing="2" fill="#8794ab">NAMED CORNERS</text>
<text x="1198" y="486" font-size="22" font-weight="700" fill="#eef2fb">0</text>
<text x="1198" y="530" font-size="13" letter-spacing="2" fill="#8794ab">DIRECTION</text>
<text x="1198" y="556" font-size="22" font-weight="700" fill="#eef2fb">Clockwise</text>
<text x="1198" y="600" font-size="13" letter-spacing="2" fill="#8794ab">SECTORS</text>
<text x="1198" y="626" font-size="22" font-weight="700" fill="#eef2fb">3</text>
<text x="1198" y="670" font-size="13" letter-spacing="2" fill="#8794ab">COUNTRY</text>
<text x="1198" y="696" font-size="22" font-weight="700" fill="#eef2fb">CN</text>
<text x="1198" y="740" font-size="13" letter-spacing="2" fill="#8794ab">LOCATION</text>
<text x="1198" y="766" font-size="22" font-weight="700" fill="#eef2fb">Jiading, Shanghai</text>
<text x="90" y="966" font-size="12" fill="#566177">Geometry © OpenStreetMap contributors (ODbL) · corner data: Lovely-Sim-Racing + curated · track-atlas</text>
<text x="90" y="942" font-size="12" fill="#8794ab">⚑ start / finish</text>
</svg>