<svg xmlns="http://www.w3.org/2000/svg" width="1600" height="1000" viewBox="0 0 1600 1000" font-family="Helvetica, Arial, sans-serif">
<defs>
      <radialGradient id="bg" cx="38%" cy="34%" r="85%">
        <stop offset="0%" stop-color="#1b2030"/>
        <stop offset="55%" stop-color="#12151f"/>
        <stop offset="100%" stop-color="#0a0c12"/>
      </radialGradient>
      <linearGradient id="accent" x1="0" y1="0" x2="1" y2="1">
        <stop offset="0%" stop-color="#ff5a36"/>
        <stop offset="100%" stop-color="#ffffff"/>
      </linearGradient>
      <filter id="glow" x="-40%" y="-40%" width="180%" height="180%">
        <feGaussianBlur stdDeviation="6" result="b"/>
        <feMerge><feMergeNode in="b"/><feMergeNode in="SourceGraphic"/></feMerge>
      </filter>
    </defs>
<rect width="1600" height="1000" fill="url(#bg)"/>
<path d="M 516.5,500.6 L 441.5,496.2 L 436.5,495.7 L 432.2,494.4 L 428.3,492.2 L 423.7,488.5 L 419.3,483.1 L 416.1,477.9 L 414.1,472.8 L 413.0,466.0 L 413.4,447.8 L 414.4,435.7 L 429.5,196.9 L 431.1,181.8 L 431.8,178.4 L 433.0,176.1 L 434.7,173.8 L 437.9,171.1 L 441.5,169.3 L 445.4,168.4 L 451.6,168.0 L 457.4,168.6 L 462.7,169.6 L 501.2,175.8 L 507.4,177.8 L 509.9,178.3 L 530.1,182.1 L 541.0,184.3 L 546.1,185.3 L 552.9,187.2 L 558.0,189.0 L 563.0,190.9 L 568.9,193.7 L 574.5,197.0 L 579.3,201.0 L 582.8,204.5 L 586.9,208.8 L 590.7,214.0 L 594.9,221.2 L 597.4,226.2 L 600.2,233.5 L 602.4,240.3 L 604.0,246.8 L 605.3,256.4 L 607.2,272.6 L 607.9,277.7 L 608.6,281.2 L 609.5,284.7 L 610.6,288.1 L 612.4,292.5 L 615.2,299.1 L 618.6,305.3 L 621.5,309.6 L 625.1,314.5 L 630.3,320.5 L 633.7,323.8 L 638.3,328.0 L 649.1,336.5 L 661.1,346.3 L 666.4,351.5 L 672.6,358.6 L 677.1,364.4 L 681.6,370.8 L 685.4,376.5 L 689.2,383.6 L 691.2,387.2 L 693.4,391.7 L 695.9,398.0 L 698.0,403.3 L 700.7,411.5 L 702.0,416.1 L 703.2,422.4 L 704.7,432.1 L 704.9,437.9 L 705.1,443.2 L 713.2,664.0 L 712.0,671.6 L 710.3,675.2 L 706.9,679.9 L 702.8,683.5 L 700.5,686.0 L 699.4,688.7 L 699.1,692.7 L 699.3,701.2 L 699.3,708.2 L 699.4,714.5 L 699.6,718.5 L 700.7,721.7 L 704.1,726.0 L 709.8,732.2 L 712.9,738.7 L 714.0,744.1 L 715.9,757.2 L 717.0,776.7 L 715.9,790.6 L 713.6,798.0 L 709.6,804.8 L 704.2,811.5 L 697.8,818.0 L 687.4,824.6 L 677.7,827.2 L 668.2,828.8 L 659.0,828.0 L 648.5,825.1 L 638.3,819.8 L 629.8,812.6 L 622.1,803.7 L 601.0,778.1 L 567.2,734.4 L 562.7,728.5 L 559.2,725.2 L 555.5,723.2 L 549.8,720.1 L 543.5,718.6 L 539.5,718.1 L 534.7,718.2 L 529.9,719.0 L 524.6,720.3 L 520.9,722.1 L 516.7,725.1 L 513.3,728.7 L 510.8,732.6 L 508.9,736.1 L 507.6,741.3 L 506.3,747.5 L 506.0,754.9 L 506.1,761.3 L 512.2,869.4 L 512.4,881.7 L 511.9,889.0 L 510.2,895.1 L 507.1,900.3 L 502.0,905.3 L 495.6,908.1 L 487.5,910.0 L 478.6,908.9 L 471.3,905.3 L 466.0,900.6 L 463.0,897.0 L 459.5,889.8 L 457.8,883.9 L 456.0,872.5 L 437.7,659.7 L 437.2,652.9 L 437.9,646.7 L 441.2,640.4 L 446.8,636.0 L 452.7,633.1 L 459.4,631.9 L 466.7,632.9 L 473.4,635.0 L 482.7,639.7 L 548.2,672.1 L 553.7,674.6 L 559.6,675.7 L 563.5,675.4 L 570.1,673.4 L 575.5,670.2 L 582.3,663.0 L 585.3,655.8 L 586.5,649.2 L 560.6,533.6 L 559.1,528.0 L 557.2,523.1 L 554.3,518.1 L 551.9,515.1 L 549.0,511.8 L 544.8,508.4 L 539.7,505.2 L 536.1,503.5 L 531.0,502.1 L 525.9,501.3 L 516.5,500.6 Z" fill="none" stroke="#000000" stroke-opacity="0.5" stroke-width="13" stroke-linejoin="round" stroke-linecap="round"/>
<path d="M 516.5,500.6 L 441.5,496.2 L 436.5,495.7 L 432.2,494.4 L 428.3,492.2 L 423.7,488.5 L 419.3,483.1 L 416.1,477.9 L 414.1,472.8 L 413.0,466.0 L 413.4,447.8 L 414.4,435.7 L 429.5,196.9 L 431.1,181.8 L 431.8,178.4 L 433.0,176.1 L 434.7,173.8 L 437.9,171.1 L 441.5,169.3 L 445.4,168.4 L 451.6,168.0 L 457.4,168.6 L 462.7,169.6 L 501.2,175.8 L 507.4,177.8 L 509.9,178.3 L 530.1,182.1 L 541.0,184.3 L 546.1,185.3 L 552.9,187.2 L 558.0,189.0 L 563.0,190.9 L 568.9,193.7 L 574.5,197.0 L 579.3,201.0 L 582.8,204.5 L 586.9,208.8 L 590.7,214.0 L 594.9,221.2 L 597.4,226.2 L 600.2,233.5 L 602.4,240.3 L 604.0,246.8 L 605.3,256.4 L 607.2,272.6 L 607.9,277.7 L 608.6,281.2 L 609.5,284.7 L 610.6,288.1 L 612.4,292.5 L 615.2,299.1 L 618.6,305.3 L 621.5,309.6 L 625.1,314.5 L 630.3,320.5 L 633.7,323.8 L 638.3,328.0 L 649.1,336.5 L 661.1,346.3 L 666.4,351.5 L 672.6,358.6 L 677.1,364.4 L 681.6,370.8 L 685.4,376.5 L 689.2,383.6 L 691.2,387.2 L 693.4,391.7 L 695.9,398.0 L 698.0,403.3 L 700.7,411.5 L 702.0,416.1 L 703.2,422.4 L 704.7,432.1 L 704.9,437.9 L 705.1,443.2 L 713.2,664.0 L 712.0,671.6 L 710.3,675.2 L 706.9,679.9 L 702.8,683.5 L 700.5,686.0 L 699.4,688.7 L 699.1,692.7 L 699.3,701.2 L 699.3,708.2 L 699.4,714.5 L 699.6,718.5 L 700.7,721.7 L 704.1,726.0 L 709.8,732.2 L 712.9,738.7 L 714.0,744.1 L 715.9,757.2 L 717.0,776.7 L 715.9,790.6 L 713.6,798.0 L 709.6,804.8 L 704.2,811.5 L 697.8,818.0 L 687.4,824.6 L 677.7,827.2 L 668.2,828.8 L 659.0,828.0 L 648.5,825.1 L 638.3,819.8 L 629.8,812.6 L 622.1,803.7 L 601.0,778.1 L 567.2,734.4 L 562.7,728.5 L 559.2,725.2 L 555.5,723.2 L 549.8,720.1 L 543.5,718.6 L 539.5,718.1 L 534.7,718.2 L 529.9,719.0 L 524.6,720.3 L 520.9,722.1 L 516.7,725.1 L 513.3,728.7 L 510.8,732.6 L 508.9,736.1 L 507.6,741.3 L 506.3,747.5 L 506.0,754.9 L 506.1,761.3 L 512.2,869.4 L 512.4,881.7 L 511.9,889.0 L 510.2,895.1 L 507.1,900.3 L 502.0,905.3 L 495.6,908.1 L 487.5,910.0 L 478.6,908.9 L 471.3,905.3 L 466.0,900.6 L 463.0,897.0 L 459.5,889.8 L 457.8,883.9 L 456.0,872.5 L 437.7,659.7 L 437.2,652.9 L 437.9,646.7 L 441.2,640.4 L 446.8,636.0 L 452.7,633.1 L 459.4,631.9 L 466.7,632.9 L 473.4,635.0 L 482.7,639.7 L 548.2,672.1 L 553.7,674.6 L 559.6,675.7 L 563.5,675.4 L 570.1,673.4 L 575.5,670.2 L 582.3,663.0 L 585.3,655.8 L 586.5,649.2 L 560.6,533.6 L 559.1,528.0 L 557.2,523.1 L 554.3,518.1 L 551.9,515.1 L 549.0,511.8 L 544.8,508.4 L 539.7,505.2 L 536.1,503.5 L 531.0,502.1 L 525.9,501.3 L 516.5,500.6 Z" fill="none" stroke="#39404f" stroke-width="8.5" stroke-linejoin="round" stroke-linecap="round"/>
<path d="M 516.5,500.6 L 441.5,496.2 L 436.5,495.7 L 432.2,494.4 L 428.3,492.2 L 423.7,488.5 L 419.3,483.1 L 416.1,477.9 L 414.1,472.8 L 413.0,466.0 L 413.4,447.8 L 414.4,435.7 L 429.5,196.9 L 431.1,181.8 L 431.8,178.4 L 433.0,176.1 L 434.7,173.8 L 437.9,171.1 L 441.5,169.3 L 445.4,168.4 L 451.6,168.0 L 457.4,168.6 L 462.7,169.6 L 501.2,175.8 L 507.4,177.8 L 509.9,178.3 L 530.1,182.1 L 541.0,184.3 L 546.1,185.3 L 552.9,187.2 L 558.0,189.0 L 563.0,190.9 L 568.9,193.7 L 574.5,197.0 L 579.3,201.0 L 582.8,204.5 L 586.9,208.8 L 590.7,214.0 L 594.9,221.2 L 597.4,226.2 L 600.2,233.5 L 602.4,240.3 L 604.0,246.8 L 605.3,256.4 L 607.2,272.6 L 607.9,277.7 L 608.6,281.2 L 609.5,284.7 L 610.6,288.1 L 612.4,292.5 L 615.2,299.1 L 618.6,305.3 L 621.5,309.6 L 625.1,314.5 L 630.3,320.5 L 633.7,323.8 L 638.3,328.0 L 649.1,336.5 L 661.1,346.3 L 666.4,351.5 L 672.6,358.6 L 677.1,364.4 L 681.6,370.8 L 685.4,376.5 L 689.2,383.6 L 691.2,387.2 L 693.4,391.7 L 695.9,398.0 L 698.0,403.3 L 700.7,411.5 L 702.0,416.1 L 703.2,422.4 L 704.7,432.1 L 704.9,437.9 L 705.1,443.2 L 713.2,664.0 L 712.0,671.6 L 710.3,675.2 L 706.9,679.9 L 702.8,683.5 L 700.5,686.0 L 699.4,688.7 L 699.1,692.7 L 699.3,701.2 L 699.3,708.2 L 699.4,714.5 L 699.6,718.5 L 700.7,721.7 L 704.1,726.0 L 709.8,732.2 L 712.9,738.7 L 714.0,744.1 L 715.9,757.2 L 717.0,776.7 L 715.9,790.6 L 713.6,798.0 L 709.6,804.8 L 704.2,811.5 L 697.8,818.0 L 687.4,824.6 L 677.7,827.2 L 668.2,828.8 L 659.0,828.0 L 648.5,825.1 L 638.3,819.8 L 629.8,812.6 L 622.1,803.7 L 601.0,778.1 L 567.2,734.4 L 562.7,728.5 L 559.2,725.2 L 555.5,723.2 L 549.8,720.1 L 543.5,718.6 L 539.5,718.1 L 534.7,718.2 L 529.9,719.0 L 524.6,720.3 L 520.9,722.1 L 516.7,725.1 L 513.3,728.7 L 510.8,732.6 L 508.9,736.1 L 507.6,741.3 L 506.3,747.5 L 506.0,754.9 L 506.1,761.3 L 512.2,869.4 L 512.4,881.7 L 511.9,889.0 L 510.2,895.1 L 507.1,900.3 L 502.0,905.3 L 495.6,908.1 L 487.5,910.0 L 478.6,908.9 L 471.3,905.3 L 466.0,900.6 L 463.0,897.0 L 459.5,889.8 L 457.8,883.9 L 456.0,872.5 L 437.7,659.7 L 437.2,652.9 L 437.9,646.7 L 441.2,640.4 L 446.8,636.0 L 452.7,633.1 L 459.4,631.9 L 466.7,632.9 L 473.4,635.0 L 482.7,639.7 L 548.2,672.1 L 553.7,674.6 L 559.6,675.7 L 563.5,675.4 L 570.1,673.4 L 575.5,670.2 L 582.3,663.0 L 585.3,655.8 L 586.5,649.2 L 560.6,533.6 L 559.1,528.0 L 557.2,523.1 L 554.3,518.1 L 551.9,515.1 L 549.0,511.8 L 544.8,508.4 L 539.7,505.2 L 536.1,503.5 L 531.0,502.1 L 525.9,501.3 L 516.5,500.6 Z" fill="none" stroke="#e7edf8" stroke-width="2.6" stroke-linejoin="round" stroke-linecap="round"/>
<path d="M 516.5,500.6 L 441.5,496.2 L 436.5,495.7 L 432.2,494.4 L 428.3,492.2 L 423.7,488.5 L 419.3,483.1 L 416.1,477.9 L 414.1,472.8 L 413.0,466.0 L 413.4,447.8 L 414.4,435.7 L 429.5,196.9 L 431.1,181.8 L 431.8,178.4 L 433.0,176.1 L 434.7,173.8 L 437.9,171.1 L 441.5,169.3 L 445.4,168.4 L 451.6,168.0 L 457.4,168.6 L 462.7,169.6 L 501.2,175.8 L 507.4,177.8 L 509.9,178.3 L 530.1,182.1 L 541.0,184.3 L 546.1,185.3 L 552.9,187.2 L 558.0,189.0 L 563.0,190.9 L 568.9,193.7 L 574.5,197.0 L 579.3,201.0 L 582.8,204.5 L 586.9,208.8 L 590.7,214.0 L 594.9,221.2 L 597.4,226.2 L 600.2,233.5 L 602.4,240.3 L 604.0,246.8 L 605.3,256.4 L 607.2,272.6 L 607.9,277.7 L 608.6,281.2 L 609.5,284.7 L 610.6,288.1 L 612.4,292.5 L 615.2,299.1 L 618.6,305.3 L 621.5,309.6 L 625.1,314.5 L 630.3,320.5 L 633.7,323.8 L 638.3,328.0 L 649.1,336.5 L 661.1,346.3 L 666.4,351.5 L 672.6,358.6 L 677.1,364.4 L 681.6,370.8 L 685.4,376.5 L 689.2,383.6 L 691.2,387.2 L 693.4,391.7 L 695.9,398.0 L 698.0,403.3 L 700.7,411.5 L 702.0,416.1 L 703.2,422.4 L 704.7,432.1 L 704.9,437.9 L 705.1,443.2 L 713.2,664.0 L 712.0,671.6 L 710.3,675.2 L 706.9,679.9 L 702.8,683.5 L 700.5,686.0 L 699.4,688.7 L 699.1,692.7 L 699.3,701.2 L 699.3,708.2 L 699.4,714.5 L 699.6,718.5 L 700.7,721.7 L 704.1,726.0 L 709.8,732.2 L 712.9,738.7 L 714.0,744.1 L 715.9,757.2 L 717.0,776.7 L 715.9,790.6 L 713.6,798.0 L 709.6,804.8 L 704.2,811.5 L 697.8,818.0 L 687.4,824.6 L 677.7,827.2 L 668.2,828.8 L 659.0,828.0 L 648.5,825.1 L 638.3,819.8 L 629.8,812.6 L 622.1,803.7 L 601.0,778.1 L 567.2,734.4 L 562.7,728.5 L 559.2,725.2 L 555.5,723.2 L 549.8,720.1 L 543.5,718.6 L 539.5,718.1 L 534.7,718.2 L 529.9,719.0 L 524.6,720.3 L 520.9,722.1 L 516.7,725.1 L 513.3,728.7 L 510.8,732.6 L 508.9,736.1 L 507.6,741.3 L 506.3,747.5 L 506.0,754.9 L 506.1,761.3 L 512.2,869.4 L 512.4,881.7 L 511.9,889.0 L 510.2,895.1 L 507.1,900.3 L 502.0,905.3 L 495.6,908.1 L 487.5,910.0 L 478.6,908.9 L 471.3,905.3 L 466.0,900.6 L 463.0,897.0 L 459.5,889.8 L 457.8,883.9 L 456.0,872.5 L 437.7,659.7 L 437.2,652.9 L 437.9,646.7 L 441.2,640.4 L 446.8,636.0 L 452.7,633.1 L 459.4,631.9 L 466.7,632.9 L 473.4,635.0 L 482.7,639.7 L 548.2,672.1 L 553.7,674.6 L 559.6,675.7 L 563.5,675.4 L 570.1,673.4 L 575.5,670.2 L 582.3,663.0 L 585.3,655.8 L 586.5,649.2 L 560.6,533.6 L 559.1,528.0 L 557.2,523.1 L 554.3,518.1 L 551.9,515.1 L 549.0,511.8 L 544.8,508.4 L 539.7,505.2 L 536.1,503.5 L 531.0,502.1 L 525.9,501.3 L 516.5,500.6 Z" fill="none" stroke="#ff5a36" stroke-opacity="0.55" stroke-width="1.2" stroke-linejoin="round" filter="url(#glow)"/>
<circle cx="421.0" cy="331.9" r="13" fill="none" stroke="#ffffff" stroke-width="3"/>
<rect x="417.0" y="309.9" width="8" height="18" fill="#ffffff"/>
<circle cx="431.0" cy="182.0" r="7" fill="#ff5a36" stroke="#0a0c12" stroke-width="2.5" filter="url(#glow)"/>
<text x="431.0" y="185.4" font-size="9" font-weight="700" fill="#0a0c12" text-anchor="middle">1</text>
<circle cx="619.5" cy="299.4" r="7" fill="#ff5a36" stroke="#0a0c12" stroke-width="2.5" filter="url(#glow)"/>
<text x="619.5" y="302.8" font-size="9" font-weight="700" fill="#0a0c12" text-anchor="middle">2</text>
<circle cx="705.5" cy="705.8" r="7" fill="#ff5a36" stroke="#0a0c12" stroke-width="2.5" filter="url(#glow)"/>
<text x="705.5" y="709.2" font-size="9" font-weight="700" fill="#0a0c12" text-anchor="middle">3</text>
<circle cx="680.3" cy="808.4" r="7" fill="#ff5a36" stroke="#0a0c12" stroke-width="2.5" filter="url(#glow)"/>
<text x="680.3" y="811.8" font-size="9" font-weight="700" fill="#0a0c12" text-anchor="middle">4</text>
<circle cx="529.6" cy="730.3" r="7" fill="#ff5a36" stroke="#0a0c12" stroke-width="2.5" filter="url(#glow)"/>
<text x="529.6" y="733.7" font-size="9" font-weight="700" fill="#0a0c12" text-anchor="middle">5</text>
<circle cx="486.1" cy="894.4" r="7" fill="#ff5a36" stroke="#0a0c12" stroke-width="2.5" filter="url(#glow)"/>
<text x="486.1" y="897.8" font-size="9" font-weight="700" fill="#0a0c12" text-anchor="middle">6</text>
<circle cx="453.6" cy="640.8" r="7" fill="#ff5a36" stroke="#0a0c12" stroke-width="2.5" filter="url(#glow)"/>
<text x="453.6" y="644.2" font-size="9" font-weight="700" fill="#0a0c12" text-anchor="middle">7</text>
<circle cx="578.2" cy="667.3" r="7" fill="#ff5a36" stroke="#0a0c12" stroke-width="2.5" filter="url(#glow)"/>
<text x="578.2" y="670.7" font-size="9" font-weight="700" fill="#0a0c12" text-anchor="middle">8</text>
<circle cx="553.5" cy="517.1" r="7" fill="#ff5a36" stroke="#0a0c12" stroke-width="2.5" filter="url(#glow)"/>
<text x="553.5" y="520.5" font-size="9" font-weight="700" fill="#0a0c12" text-anchor="middle">9</text>
<circle cx="415.3" cy="475.9" r="7" fill="#ff5a36" stroke="#0a0c12" stroke-width="2.5" filter="url(#glow)"/>
<text x="415.3" y="479.3" font-size="9" font-weight="700" fill="#0a0c12" text-anchor="middle">10</text>
<line x1="680.3" y1="808.4" x2="700.5" y2="856.4" stroke="#ff5a36" stroke-opacity="0.45" stroke-width="1.3"/>
<text x="708.5" y="860.4" font-size="15" font-weight="600" fill="#eef2fb" text-anchor="start">The Esses</text>
<line x1="453.6" y1="640.8" x2="413.8" y2="674.3" stroke="#ff5a36" stroke-opacity="0.45" stroke-width="1.3"/>
<text x="405.8" y="678.3" font-size="15" font-weight="600" fill="#eef2fb" text-anchor="end">The Loop</text>
<line x1="553.5" y1="517.1" x2="527.5" y2="472.1" stroke="#ff5a36" stroke-opacity="0.45" stroke-width="1.3"/>
<text x="519.5" y="476.1" font-size="15" font-weight="600" fill="#eef2fb" text-anchor="end">The Bus Stop</text>
<text x="90" y="64" font-size="20" letter-spacing="5" fill="#ff5a36" font-weight="700">TRACK ATLAS</text>
<text x="90" y="108" font-size="42" font-weight="800" fill="#ffffff">WATKINS GLEN INTERNATIONAL</text>
<text x="90" y="136" font-size="16" fill="#9aa6bd">The Glen</text>
<rect x="1170" y="200" width="360" height="710" rx="16" fill="#ffffff" fill-opacity="0.04" stroke="#ff5a36" stroke-opacity="0.5"/>
<text x="1198" y="250" font-size="13" letter-spacing="2" fill="#8794ab">LAYOUT</text>
<text x="1198" y="276" font-size="22" font-weight="700" fill="#eef2fb">Full Course (Boot)</text>
<text x="1198" y="320" font-size="13" letter-spacing="2" fill="#8794ab">LENGTH</text>
<text x="1198" y="346" font-size="22" font-weight="700" fill="#eef2fb">5.435 km</text>
<text x="1198" y="390" font-size="13" letter-spacing="2" fill="#8794ab">CORNERS</text>
<text x="1198" y="416" font-size="22" font-weight="700" fill="#eef2fb">10</text>
<text x="1198" y="460" font-size="13" letter-spacing="2" fill="#8794ab">NAMED CORNERS</text>
<text x="1198" y="486" font-size="22" font-weight="700" fill="#eef2fb">8</text>
<text x="1198" y="530" font-size="13" letter-spacing="2" fill="#8794ab">DIRECTION</text>
<text x="1198" y="556" font-size="22" font-weight="700" fill="#eef2fb">Clockwise</text>
<text x="1198" y="600" font-size="13" letter-spacing="2" fill="#8794ab">SECTORS</text>
<text x="1198" y="626" font-size="22" font-weight="700" fill="#eef2fb">5</text>
<text x="1198" y="670" font-size="13" letter-spacing="2" fill="#8794ab">COUNTRY</text>
<text x="1198" y="696" font-size="22" font-weight="700" fill="#eef2fb">USA</text>
<text x="1198" y="740" font-size="13" letter-spacing="2" fill="#8794ab">LOCATION</text>
<text x="1198" y="766" font-size="22" font-weight="700" fill="#eef2fb">Watkins Glen, New York</text>
<text x="1198" y="810" font-size="13" letter-spacing="2" fill="#8794ab">COMPLEXES</text>
<rect x="1198" y="816" width="86" height="24" rx="12" fill="#ff5a36" fill-opacity="0.16" stroke="#ff5a36" stroke-opacity="0.5"/>
<text x="1241" y="833" font-size="12" fill="#eef2fb" text-anchor="middle">The Esses</text>
<rect x="1294" y="816" width="78" height="24" rx="12" fill="#ff5a36" fill-opacity="0.16" stroke="#ff5a36" stroke-opacity="0.5"/>
<text x="1333" y="833" font-size="12" fill="#eef2fb" text-anchor="middle">The Loop</text>
<rect x="1382" y="816" width="110" height="24" rx="12" fill="#ff5a36" fill-opacity="0.16" stroke="#ff5a36" stroke-opacity="0.5"/>
<text x="1437" y="833" font-size="12" fill="#eef2fb" text-anchor="middle">The Bus Stop</text>
<text x="90" y="966" font-size="12" fill="#566177">Geometry © OpenStreetMap contributors (ODbL) · corner data: Lovely-Sim-Racing + curated · track-atlas</text>
<text x="90" y="942" font-size="12" fill="#8794ab">⚑ start / finish</text>
</svg>