<svg xmlns="http://www.w3.org/2000/svg" width="1600" height="1000" viewBox="0 0 1600 1000" font-family="Helvetica, Arial, sans-serif">
<defs>
      <radialGradient id="bg" cx="38%" cy="34%" r="85%">
        <stop offset="0%" stop-color="#1b2030"/>
        <stop offset="55%" stop-color="#12151f"/>
        <stop offset="100%" stop-color="#0a0c12"/>
      </radialGradient>
      <linearGradient id="accent" x1="0" y1="0" x2="1" y2="1">
        <stop offset="0%" stop-color="#ff5a36"/>
        <stop offset="100%" stop-color="#ffffff"/>
      </linearGradient>
      <filter id="glow" x="-40%" y="-40%" width="180%" height="180%">
        <feGaussianBlur stdDeviation="6" result="b"/>
        <feMerge><feMergeNode in="b"/><feMergeNode in="SourceGraphic"/></feMerge>
      </filter>
    </defs>
<rect width="1600" height="1000" fill="url(#bg)"/>
<line x1="0" y1="0" x2="0" y2="1000" stroke="#ffffff" stroke-opacity="0.025"/>
<line x1="56" y1="0" x2="56" y2="1000" stroke="#ffffff" stroke-opacity="0.025"/>
<line x1="112" y1="0" x2="112" y2="1000" stroke="#ffffff" stroke-opacity="0.025"/>
<line x1="168" y1="0" x2="168" y2="1000" stroke="#ffffff" stroke-opacity="0.025"/>
<line x1="224" y1="0" x2="224" y2="1000" stroke="#ffffff" stroke-opacity="0.025"/>
<line x1="280" y1="0" x2="280" y2="1000" stroke="#ffffff" stroke-opacity="0.025"/>
<line x1="336" y1="0" x2="336" y2="1000" stroke="#ffffff" stroke-opacity="0.025"/>
<line x1="392" y1="0" x2="392" y2="1000" stroke="#ffffff" stroke-opacity="0.025"/>
<line x1="448" y1="0" x2="448" y2="1000" stroke="#ffffff" stroke-opacity="0.025"/>
<line x1="504" y1="0" x2="504" y2="1000" stroke="#ffffff" stroke-opacity="0.025"/>
<line x1="560" y1="0" x2="560" y2="1000" stroke="#ffffff" stroke-opacity="0.025"/>
<line x1="616" y1="0" x2="616" y2="1000" stroke="#ffffff" stroke-opacity="0.025"/>
<line x1="672" y1="0" x2="672" y2="1000" stroke="#ffffff" stroke-opacity="0.025"/>
<line x1="728" y1="0" x2="728" y2="1000" stroke="#ffffff" stroke-opacity="0.025"/>
<line x1="784" y1="0" x2="784" y2="1000" stroke="#ffffff" stroke-opacity="0.025"/>
<line x1="840" y1="0" x2="840" y2="1000" stroke="#ffffff" stroke-opacity="0.025"/>
<line x1="896" y1="0" x2="896" y2="1000" stroke="#ffffff" stroke-opacity="0.025"/>
<line x1="952" y1="0" x2="952" y2="1000" stroke="#ffffff" stroke-opacity="0.025"/>
<line x1="1008" y1="0" x2="1008" y2="1000" stroke="#ffffff" stroke-opacity="0.025"/>
<line x1="1064" y1="0" x2="1064" y2="1000" stroke="#ffffff" stroke-opacity="0.025"/>
<line x1="1120" y1="0" x2="1120" y2="1000" stroke="#ffffff" stroke-opacity="0.025"/>
<line x1="1176" y1="0" x2="1176" y2="1000" stroke="#ffffff" stroke-opacity="0.025"/>
<line x1="1232" y1="0" x2="1232" y2="1000" stroke="#ffffff" stroke-opacity="0.025"/>
<line x1="1288" y1="0" x2="1288" y2="1000" stroke="#ffffff" stroke-opacity="0.025"/>
<line x1="1344" y1="0" x2="1344" y2="1000" stroke="#ffffff" stroke-opacity="0.025"/>
<line x1="1400" y1="0" x2="1400" y2="1000" stroke="#ffffff" stroke-opacity="0.025"/>
<line x1="1456" y1="0" x2="1456" y2="1000" stroke="#ffffff" stroke-opacity="0.025"/>
<line x1="1512" y1="0" x2="1512" y2="1000" stroke="#ffffff" stroke-opacity="0.025"/>
<line x1="1568" y1="0" x2="1568" y2="1000" stroke="#ffffff" stroke-opacity="0.025"/>
<line x1="0" y1="0" x2="1600" y2="0" stroke="#ffffff" stroke-opacity="0.025"/>
<line x1="0" y1="56" x2="1600" y2="56" stroke="#ffffff" stroke-opacity="0.025"/>
<line x1="0" y1="112" x2="1600" y2="112" stroke="#ffffff" stroke-opacity="0.025"/>
<line x1="0" y1="168" x2="1600" y2="168" stroke="#ffffff" stroke-opacity="0.025"/>
<line x1="0" y1="224" x2="1600" y2="224" stroke="#ffffff" stroke-opacity="0.025"/>
<line x1="0" y1="280" x2="1600" y2="280" stroke="#ffffff" stroke-opacity="0.025"/>
<line x1="0" y1="336" x2="1600" y2="336" stroke="#ffffff" stroke-opacity="0.025"/>
<line x1="0" y1="392" x2="1600" y2="392" stroke="#ffffff" stroke-opacity="0.025"/>
<line x1="0" y1="448" x2="1600" y2="448" stroke="#ffffff" stroke-opacity="0.025"/>
<line x1="0" y1="504" x2="1600" y2="504" stroke="#ffffff" stroke-opacity="0.025"/>
<line x1="0" y1="560" x2="1600" y2="560" stroke="#ffffff" stroke-opacity="0.025"/>
<line x1="0" y1="616" x2="1600" y2="616" stroke="#ffffff" stroke-opacity="0.025"/>
<line x1="0" y1="672" x2="1600" y2="672" stroke="#ffffff" stroke-opacity="0.025"/>
<line x1="0" y1="728" x2="1600" y2="728" stroke="#ffffff" stroke-opacity="0.025"/>
<line x1="0" y1="784" x2="1600" y2="784" stroke="#ffffff" stroke-opacity="0.025"/>
<line x1="0" y1="840" x2="1600" y2="840" stroke="#ffffff" stroke-opacity="0.025"/>
<line x1="0" y1="896" x2="1600" y2="896" stroke="#ffffff" stroke-opacity="0.025"/>
<line x1="0" y1="952" x2="1600" y2="952" stroke="#ffffff" stroke-opacity="0.025"/>
<path d="M 319.7,541.2 L 342.9,630.8 L 354.6,676.2 L 357.5,687.4 L 402.9,863.5 L 406.4,873.1 L 408.8,878.7 L 411.9,884.5 L 416.1,891.3 L 420.5,897.2 L 424.2,900.8 L 428.8,904.6 L 433.5,907.6 L 439.5,909.9 L 445.7,910.0 L 451.3,908.9 L 456.6,906.3 L 460.5,903.2 L 465.1,898.8 L 482.2,880.4 L 486.6,876.2 L 489.6,873.6 L 493.2,871.6 L 496.5,870.5 L 500.6,869.9 L 505.0,870.2 L 509.4,871.4 L 513.5,873.2 L 518.6,876.0 L 533.9,885.7 L 540.2,889.7 L 551.3,894.3 L 565.5,898.1 L 574.7,899.2 L 585.8,899.7 L 595.0,899.5 L 604.6,898.5 L 616.9,896.1 L 627.5,892.7 L 639.5,887.1 L 650.6,880.2 L 659.7,873.7 L 668.1,865.8 L 676.8,856.0 L 683.7,846.6 L 689.8,835.6 L 694.6,824.5 L 702.1,800.6 L 720.5,738.4 L 730.9,702.2 L 738.6,674.8 L 743.0,658.6 L 746.1,646.4 L 752.2,620.5 L 757.3,598.1 L 784.3,496.7 L 802.7,428.5 L 822.1,359.8 L 824.5,350.0 L 825.2,343.5 L 825.2,338.5 L 824.5,333.3 L 823.1,328.5 L 821.4,324.2 L 818.6,319.5 L 815.8,316.5 L 812.8,313.9 L 808.2,310.7 L 804.5,309.1 L 799.1,307.3 L 785.9,304.4 L 750.2,298.1 L 736.3,295.9 L 727.1,294.5 L 719.9,294.1 L 712.2,294.3 L 704.8,294.8 L 696.7,296.5 L 687.7,299.2 L 679.1,302.7 L 674.4,305.0 L 668.8,308.5 L 662.8,312.6 L 654.2,320.0 L 646.1,328.2 L 636.3,340.0 L 622.3,358.6 L 603.7,384.3 L 573.3,426.7 L 560.5,444.7 L 541.5,470.6 L 499.5,528.2 L 493.3,536.8 L 489.3,541.6 L 485.1,545.7 L 480.4,549.7 L 475.0,553.4 L 468.3,556.5 L 461.6,558.5 L 456.3,559.7 L 448.1,560.3 L 441.2,560.3 L 433.2,559.8 L 424.9,558.7 L 417.9,557.0 L 409.7,554.5 L 403.3,551.9 L 395.9,548.6 L 389.5,544.6 L 383.1,539.7 L 377.7,534.8 L 375.7,532.4 L 373.6,529.2 L 370.8,524.2 L 368.3,517.0 L 366.1,509.1 L 362.1,490.6 L 354.3,441.7 L 353.6,435.6 L 353.3,430.7 L 353.1,425.4 L 353.1,420.1 L 353.6,414.4 L 354.1,411.2 L 355.1,408.2 L 356.5,405.7 L 358.8,402.9 L 362.0,400.4 L 365.3,398.4 L 368.5,397.0 L 371.6,396.4 L 375.7,396.0 L 378.9,396.3 L 382.0,397.0 L 385.4,398.4 L 389.5,400.5 L 394.7,403.6 L 398.0,405.9 L 408.7,414.2 L 415.2,417.7 L 418.1,419.0 L 420.8,419.9 L 424.8,420.7 L 428.9,421.1 L 432.1,421.1 L 435.6,420.7 L 441.6,419.1 L 447.0,416.7 L 451.4,413.6 L 455.3,410.0 L 458.1,406.5 L 460.2,403.3 L 461.8,399.7 L 462.9,397.1 L 463.8,394.1 L 464.3,390.0 L 464.5,387.1 L 464.4,384.3 L 463.6,378.9 L 462.0,374.0 L 459.8,369.7 L 456.5,365.3 L 451.6,359.8 L 435.7,344.2 L 421.5,330.0 L 410.2,317.9 L 407.2,314.4 L 404.6,310.9 L 402.4,307.8 L 399.8,303.6 L 397.4,299.4 L 394.8,294.6 L 393.3,290.7 L 391.1,283.6 L 385.7,263.2 L 382.3,247.6 L 381.5,243.4 L 381.3,239.6 L 381.1,236.1 L 381.3,232.4 L 381.9,229.5 L 382.7,227.3 L 383.9,225.4 L 385.5,223.2 L 387.1,221.5 L 390.2,219.3 L 392.8,217.7 L 395.5,216.5 L 397.9,215.8 L 399.9,215.5 L 402.2,215.5 L 404.4,215.7 L 406.9,216.5 L 408.8,217.4 L 410.6,218.5 L 414.1,221.5 L 418.9,225.9 L 425.6,232.5 L 438.8,247.5 L 457.5,267.8 L 465.4,276.3 L 469.4,279.7 L 473.4,282.8 L 479.1,286.6 L 484.4,289.6 L 490.9,292.6 L 497.9,295.1 L 505.5,296.7 L 512.4,297.7 L 520.0,298.1 L 524.4,298.2 L 530.0,297.9 L 535.7,297.2 L 539.4,296.5 L 542.9,295.6 L 547.0,294.3 L 551.5,292.6 L 556.7,290.3 L 560.0,288.5 L 563.2,286.6 L 569.1,282.3 L 573.7,278.4 L 577.4,274.9 L 580.5,271.4 L 583.3,268.1 L 589.4,259.0 L 599.1,244.2 L 615.5,218.1 L 645.6,169.4 L 656.4,150.8 L 657.6,148.4 L 658.5,146.5 L 659.1,144.5 L 659.5,142.6 L 659.6,140.6 L 659.6,138.4 L 659.4,135.5 L 659.1,133.8 L 658.5,131.9 L 657.7,130.1 L 656.7,128.6 L 654.5,126.0 L 652.1,123.5 L 649.4,121.4 L 646.0,119.3 L 639.4,116.1 L 630.2,112.1 L 621.4,108.6 L 606.9,103.2 L 593.6,98.5 L 581.9,94.2 L 575.5,92.1 L 570.6,90.8 L 566.9,90.2 L 563.1,90.0 L 558.1,90.3 L 553.0,90.8 L 537.1,93.2 L 518.4,96.6 L 500.3,100.0 L 495.4,101.2 L 491.1,102.4 L 482.9,105.1 L 475.5,107.9 L 467.6,111.2 L 457.8,115.6 L 449.2,119.6 L 439.7,124.2 L 430.3,128.8 L 421.0,133.6 L 416.1,136.4 L 410.6,139.6 L 405.5,143.2 L 398.7,148.2 L 391.6,154.1 L 383.9,161.4 L 376.0,169.9 L 370.5,177.8 L 365.5,186.7 L 360.5,196.5 L 357.1,205.3 L 354.2,215.1 L 344.5,253.0 L 331.0,309.9 L 323.6,341.0 L 309.7,398.5 L 307.6,411.4 L 306.3,420.7 L 305.4,431.4 L 304.9,441.5 L 304.8,452.1 L 305.4,465.6 L 306.7,477.2 L 308.6,489.6 L 310.5,501.0 L 313.7,516.6 L 319.7,541.2 Z" fill="none" stroke="#000000" stroke-opacity="0.5" stroke-width="13" stroke-linejoin="round" stroke-linecap="round"/>
<path d="M 319.7,541.2 L 342.9,630.8 L 354.6,676.2 L 357.5,687.4 L 402.9,863.5 L 406.4,873.1 L 408.8,878.7 L 411.9,884.5 L 416.1,891.3 L 420.5,897.2 L 424.2,900.8 L 428.8,904.6 L 433.5,907.6 L 439.5,909.9 L 445.7,910.0 L 451.3,908.9 L 456.6,906.3 L 460.5,903.2 L 465.1,898.8 L 482.2,880.4 L 486.6,876.2 L 489.6,873.6 L 493.2,871.6 L 496.5,870.5 L 500.6,869.9 L 505.0,870.2 L 509.4,871.4 L 513.5,873.2 L 518.6,876.0 L 533.9,885.7 L 540.2,889.7 L 551.3,894.3 L 565.5,898.1 L 574.7,899.2 L 585.8,899.7 L 595.0,899.5 L 604.6,898.5 L 616.9,896.1 L 627.5,892.7 L 639.5,887.1 L 650.6,880.2 L 659.7,873.7 L 668.1,865.8 L 676.8,856.0 L 683.7,846.6 L 689.8,835.6 L 694.6,824.5 L 702.1,800.6 L 720.5,738.4 L 730.9,702.2 L 738.6,674.8 L 743.0,658.6 L 746.1,646.4 L 752.2,620.5 L 757.3,598.1 L 784.3,496.7 L 802.7,428.5 L 822.1,359.8 L 824.5,350.0 L 825.2,343.5 L 825.2,338.5 L 824.5,333.3 L 823.1,328.5 L 821.4,324.2 L 818.6,319.5 L 815.8,316.5 L 812.8,313.9 L 808.2,310.7 L 804.5,309.1 L 799.1,307.3 L 785.9,304.4 L 750.2,298.1 L 736.3,295.9 L 727.1,294.5 L 719.9,294.1 L 712.2,294.3 L 704.8,294.8 L 696.7,296.5 L 687.7,299.2 L 679.1,302.7 L 674.4,305.0 L 668.8,308.5 L 662.8,312.6 L 654.2,320.0 L 646.1,328.2 L 636.3,340.0 L 622.3,358.6 L 603.7,384.3 L 573.3,426.7 L 560.5,444.7 L 541.5,470.6 L 499.5,528.2 L 493.3,536.8 L 489.3,541.6 L 485.1,545.7 L 480.4,549.7 L 475.0,553.4 L 468.3,556.5 L 461.6,558.5 L 456.3,559.7 L 448.1,560.3 L 441.2,560.3 L 433.2,559.8 L 424.9,558.7 L 417.9,557.0 L 409.7,554.5 L 403.3,551.9 L 395.9,548.6 L 389.5,544.6 L 383.1,539.7 L 377.7,534.8 L 375.7,532.4 L 373.6,529.2 L 370.8,524.2 L 368.3,517.0 L 366.1,509.1 L 362.1,490.6 L 354.3,441.7 L 353.6,435.6 L 353.3,430.7 L 353.1,425.4 L 353.1,420.1 L 353.6,414.4 L 354.1,411.2 L 355.1,408.2 L 356.5,405.7 L 358.8,402.9 L 362.0,400.4 L 365.3,398.4 L 368.5,397.0 L 371.6,396.4 L 375.7,396.0 L 378.9,396.3 L 382.0,397.0 L 385.4,398.4 L 389.5,400.5 L 394.7,403.6 L 398.0,405.9 L 408.7,414.2 L 415.2,417.7 L 418.1,419.0 L 420.8,419.9 L 424.8,420.7 L 428.9,421.1 L 432.1,421.1 L 435.6,420.7 L 441.6,419.1 L 447.0,416.7 L 451.4,413.6 L 455.3,410.0 L 458.1,406.5 L 460.2,403.3 L 461.8,399.7 L 462.9,397.1 L 463.8,394.1 L 464.3,390.0 L 464.5,387.1 L 464.4,384.3 L 463.6,378.9 L 462.0,374.0 L 459.8,369.7 L 456.5,365.3 L 451.6,359.8 L 435.7,344.2 L 421.5,330.0 L 410.2,317.9 L 407.2,314.4 L 404.6,310.9 L 402.4,307.8 L 399.8,303.6 L 397.4,299.4 L 394.8,294.6 L 393.3,290.7 L 391.1,283.6 L 385.7,263.2 L 382.3,247.6 L 381.5,243.4 L 381.3,239.6 L 381.1,236.1 L 381.3,232.4 L 381.9,229.5 L 382.7,227.3 L 383.9,225.4 L 385.5,223.2 L 387.1,221.5 L 390.2,219.3 L 392.8,217.7 L 395.5,216.5 L 397.9,215.8 L 399.9,215.5 L 402.2,215.5 L 404.4,215.7 L 406.9,216.5 L 408.8,217.4 L 410.6,218.5 L 414.1,221.5 L 418.9,225.9 L 425.6,232.5 L 438.8,247.5 L 457.5,267.8 L 465.4,276.3 L 469.4,279.7 L 473.4,282.8 L 479.1,286.6 L 484.4,289.6 L 490.9,292.6 L 497.9,295.1 L 505.5,296.7 L 512.4,297.7 L 520.0,298.1 L 524.4,298.2 L 530.0,297.9 L 535.7,297.2 L 539.4,296.5 L 542.9,295.6 L 547.0,294.3 L 551.5,292.6 L 556.7,290.3 L 560.0,288.5 L 563.2,286.6 L 569.1,282.3 L 573.7,278.4 L 577.4,274.9 L 580.5,271.4 L 583.3,268.1 L 589.4,259.0 L 599.1,244.2 L 615.5,218.1 L 645.6,169.4 L 656.4,150.8 L 657.6,148.4 L 658.5,146.5 L 659.1,144.5 L 659.5,142.6 L 659.6,140.6 L 659.6,138.4 L 659.4,135.5 L 659.1,133.8 L 658.5,131.9 L 657.7,130.1 L 656.7,128.6 L 654.5,126.0 L 652.1,123.5 L 649.4,121.4 L 646.0,119.3 L 639.4,116.1 L 630.2,112.1 L 621.4,108.6 L 606.9,103.2 L 593.6,98.5 L 581.9,94.2 L 575.5,92.1 L 570.6,90.8 L 566.9,90.2 L 563.1,90.0 L 558.1,90.3 L 553.0,90.8 L 537.1,93.2 L 518.4,96.6 L 500.3,100.0 L 495.4,101.2 L 491.1,102.4 L 482.9,105.1 L 475.5,107.9 L 467.6,111.2 L 457.8,115.6 L 449.2,119.6 L 439.7,124.2 L 430.3,128.8 L 421.0,133.6 L 416.1,136.4 L 410.6,139.6 L 405.5,143.2 L 398.7,148.2 L 391.6,154.1 L 383.9,161.4 L 376.0,169.9 L 370.5,177.8 L 365.5,186.7 L 360.5,196.5 L 357.1,205.3 L 354.2,215.1 L 344.5,253.0 L 331.0,309.9 L 323.6,341.0 L 309.7,398.5 L 307.6,411.4 L 306.3,420.7 L 305.4,431.4 L 304.9,441.5 L 304.8,452.1 L 305.4,465.6 L 306.7,477.2 L 308.6,489.6 L 310.5,501.0 L 313.7,516.6 L 319.7,541.2 Z" fill="none" stroke="#39404f" stroke-width="8.5" stroke-linejoin="round" stroke-linecap="round"/>
<path d="M 319.7,541.2 L 342.9,630.8 L 354.6,676.2 L 357.5,687.4 L 402.9,863.5 L 406.4,873.1 L 408.8,878.7 L 411.9,884.5 L 416.1,891.3 L 420.5,897.2 L 424.2,900.8 L 428.8,904.6 L 433.5,907.6 L 439.5,909.9 L 445.7,910.0 L 451.3,908.9 L 456.6,906.3 L 460.5,903.2 L 465.1,898.8 L 482.2,880.4 L 486.6,876.2 L 489.6,873.6 L 493.2,871.6 L 496.5,870.5 L 500.6,869.9 L 505.0,870.2 L 509.4,871.4 L 513.5,873.2 L 518.6,876.0 L 533.9,885.7 L 540.2,889.7 L 551.3,894.3 L 565.5,898.1 L 574.7,899.2 L 585.8,899.7 L 595.0,899.5 L 604.6,898.5 L 616.9,896.1 L 627.5,892.7 L 639.5,887.1 L 650.6,880.2 L 659.7,873.7 L 668.1,865.8 L 676.8,856.0 L 683.7,846.6 L 689.8,835.6 L 694.6,824.5 L 702.1,800.6 L 720.5,738.4 L 730.9,702.2 L 738.6,674.8 L 743.0,658.6 L 746.1,646.4 L 752.2,620.5 L 757.3,598.1 L 784.3,496.7 L 802.7,428.5 L 822.1,359.8 L 824.5,350.0 L 825.2,343.5 L 825.2,338.5 L 824.5,333.3 L 823.1,328.5 L 821.4,324.2 L 818.6,319.5 L 815.8,316.5 L 812.8,313.9 L 808.2,310.7 L 804.5,309.1 L 799.1,307.3 L 785.9,304.4 L 750.2,298.1 L 736.3,295.9 L 727.1,294.5 L 719.9,294.1 L 712.2,294.3 L 704.8,294.8 L 696.7,296.5 L 687.7,299.2 L 679.1,302.7 L 674.4,305.0 L 668.8,308.5 L 662.8,312.6 L 654.2,320.0 L 646.1,328.2 L 636.3,340.0 L 622.3,358.6 L 603.7,384.3 L 573.3,426.7 L 560.5,444.7 L 541.5,470.6 L 499.5,528.2 L 493.3,536.8 L 489.3,541.6 L 485.1,545.7 L 480.4,549.7 L 475.0,553.4 L 468.3,556.5 L 461.6,558.5 L 456.3,559.7 L 448.1,560.3 L 441.2,560.3 L 433.2,559.8 L 424.9,558.7 L 417.9,557.0 L 409.7,554.5 L 403.3,551.9 L 395.9,548.6 L 389.5,544.6 L 383.1,539.7 L 377.7,534.8 L 375.7,532.4 L 373.6,529.2 L 370.8,524.2 L 368.3,517.0 L 366.1,509.1 L 362.1,490.6 L 354.3,441.7 L 353.6,435.6 L 353.3,430.7 L 353.1,425.4 L 353.1,420.1 L 353.6,414.4 L 354.1,411.2 L 355.1,408.2 L 356.5,405.7 L 358.8,402.9 L 362.0,400.4 L 365.3,398.4 L 368.5,397.0 L 371.6,396.4 L 375.7,396.0 L 378.9,396.3 L 382.0,397.0 L 385.4,398.4 L 389.5,400.5 L 394.7,403.6 L 398.0,405.9 L 408.7,414.2 L 415.2,417.7 L 418.1,419.0 L 420.8,419.9 L 424.8,420.7 L 428.9,421.1 L 432.1,421.1 L 435.6,420.7 L 441.6,419.1 L 447.0,416.7 L 451.4,413.6 L 455.3,410.0 L 458.1,406.5 L 460.2,403.3 L 461.8,399.7 L 462.9,397.1 L 463.8,394.1 L 464.3,390.0 L 464.5,387.1 L 464.4,384.3 L 463.6,378.9 L 462.0,374.0 L 459.8,369.7 L 456.5,365.3 L 451.6,359.8 L 435.7,344.2 L 421.5,330.0 L 410.2,317.9 L 407.2,314.4 L 404.6,310.9 L 402.4,307.8 L 399.8,303.6 L 397.4,299.4 L 394.8,294.6 L 393.3,290.7 L 391.1,283.6 L 385.7,263.2 L 382.3,247.6 L 381.5,243.4 L 381.3,239.6 L 381.1,236.1 L 381.3,232.4 L 381.9,229.5 L 382.7,227.3 L 383.9,225.4 L 385.5,223.2 L 387.1,221.5 L 390.2,219.3 L 392.8,217.7 L 395.5,216.5 L 397.9,215.8 L 399.9,215.5 L 402.2,215.5 L 404.4,215.7 L 406.9,216.5 L 408.8,217.4 L 410.6,218.5 L 414.1,221.5 L 418.9,225.9 L 425.6,232.5 L 438.8,247.5 L 457.5,267.8 L 465.4,276.3 L 469.4,279.7 L 473.4,282.8 L 479.1,286.6 L 484.4,289.6 L 490.9,292.6 L 497.9,295.1 L 505.5,296.7 L 512.4,297.7 L 520.0,298.1 L 524.4,298.2 L 530.0,297.9 L 535.7,297.2 L 539.4,296.5 L 542.9,295.6 L 547.0,294.3 L 551.5,292.6 L 556.7,290.3 L 560.0,288.5 L 563.2,286.6 L 569.1,282.3 L 573.7,278.4 L 577.4,274.9 L 580.5,271.4 L 583.3,268.1 L 589.4,259.0 L 599.1,244.2 L 615.5,218.1 L 645.6,169.4 L 656.4,150.8 L 657.6,148.4 L 658.5,146.5 L 659.1,144.5 L 659.5,142.6 L 659.6,140.6 L 659.6,138.4 L 659.4,135.5 L 659.1,133.8 L 658.5,131.9 L 657.7,130.1 L 656.7,128.6 L 654.5,126.0 L 652.1,123.5 L 649.4,121.4 L 646.0,119.3 L 639.4,116.1 L 630.2,112.1 L 621.4,108.6 L 606.9,103.2 L 593.6,98.5 L 581.9,94.2 L 575.5,92.1 L 570.6,90.8 L 566.9,90.2 L 563.1,90.0 L 558.1,90.3 L 553.0,90.8 L 537.1,93.2 L 518.4,96.6 L 500.3,100.0 L 495.4,101.2 L 491.1,102.4 L 482.9,105.1 L 475.5,107.9 L 467.6,111.2 L 457.8,115.6 L 449.2,119.6 L 439.7,124.2 L 430.3,128.8 L 421.0,133.6 L 416.1,136.4 L 410.6,139.6 L 405.5,143.2 L 398.7,148.2 L 391.6,154.1 L 383.9,161.4 L 376.0,169.9 L 370.5,177.8 L 365.5,186.7 L 360.5,196.5 L 357.1,205.3 L 354.2,215.1 L 344.5,253.0 L 331.0,309.9 L 323.6,341.0 L 309.7,398.5 L 307.6,411.4 L 306.3,420.7 L 305.4,431.4 L 304.9,441.5 L 304.8,452.1 L 305.4,465.6 L 306.7,477.2 L 308.6,489.6 L 310.5,501.0 L 313.7,516.6 L 319.7,541.2 Z" fill="none" stroke="#e7edf8" stroke-width="2.6" stroke-linejoin="round" stroke-linecap="round"/>
<path d="M 319.7,541.2 L 342.9,630.8 L 354.6,676.2 L 357.5,687.4 L 402.9,863.5 L 406.4,873.1 L 408.8,878.7 L 411.9,884.5 L 416.1,891.3 L 420.5,897.2 L 424.2,900.8 L 428.8,904.6 L 433.5,907.6 L 439.5,909.9 L 445.7,910.0 L 451.3,908.9 L 456.6,906.3 L 460.5,903.2 L 465.1,898.8 L 482.2,880.4 L 486.6,876.2 L 489.6,873.6 L 493.2,871.6 L 496.5,870.5 L 500.6,869.9 L 505.0,870.2 L 509.4,871.4 L 513.5,873.2 L 518.6,876.0 L 533.9,885.7 L 540.2,889.7 L 551.3,894.3 L 565.5,898.1 L 574.7,899.2 L 585.8,899.7 L 595.0,899.5 L 604.6,898.5 L 616.9,896.1 L 627.5,892.7 L 639.5,887.1 L 650.6,880.2 L 659.7,873.7 L 668.1,865.8 L 676.8,856.0 L 683.7,846.6 L 689.8,835.6 L 694.6,824.5 L 702.1,800.6 L 720.5,738.4 L 730.9,702.2 L 738.6,674.8 L 743.0,658.6 L 746.1,646.4 L 752.2,620.5 L 757.3,598.1 L 784.3,496.7 L 802.7,428.5 L 822.1,359.8 L 824.5,350.0 L 825.2,343.5 L 825.2,338.5 L 824.5,333.3 L 823.1,328.5 L 821.4,324.2 L 818.6,319.5 L 815.8,316.5 L 812.8,313.9 L 808.2,310.7 L 804.5,309.1 L 799.1,307.3 L 785.9,304.4 L 750.2,298.1 L 736.3,295.9 L 727.1,294.5 L 719.9,294.1 L 712.2,294.3 L 704.8,294.8 L 696.7,296.5 L 687.7,299.2 L 679.1,302.7 L 674.4,305.0 L 668.8,308.5 L 662.8,312.6 L 654.2,320.0 L 646.1,328.2 L 636.3,340.0 L 622.3,358.6 L 603.7,384.3 L 573.3,426.7 L 560.5,444.7 L 541.5,470.6 L 499.5,528.2 L 493.3,536.8 L 489.3,541.6 L 485.1,545.7 L 480.4,549.7 L 475.0,553.4 L 468.3,556.5 L 461.6,558.5 L 456.3,559.7 L 448.1,560.3 L 441.2,560.3 L 433.2,559.8 L 424.9,558.7 L 417.9,557.0 L 409.7,554.5 L 403.3,551.9 L 395.9,548.6 L 389.5,544.6 L 383.1,539.7 L 377.7,534.8 L 375.7,532.4 L 373.6,529.2 L 370.8,524.2 L 368.3,517.0 L 366.1,509.1 L 362.1,490.6 L 354.3,441.7 L 353.6,435.6 L 353.3,430.7 L 353.1,425.4 L 353.1,420.1 L 353.6,414.4 L 354.1,411.2 L 355.1,408.2 L 356.5,405.7 L 358.8,402.9 L 362.0,400.4 L 365.3,398.4 L 368.5,397.0 L 371.6,396.4 L 375.7,396.0 L 378.9,396.3 L 382.0,397.0 L 385.4,398.4 L 389.5,400.5 L 394.7,403.6 L 398.0,405.9 L 408.7,414.2 L 415.2,417.7 L 418.1,419.0 L 420.8,419.9 L 424.8,420.7 L 428.9,421.1 L 432.1,421.1 L 435.6,420.7 L 441.6,419.1 L 447.0,416.7 L 451.4,413.6 L 455.3,410.0 L 458.1,406.5 L 460.2,403.3 L 461.8,399.7 L 462.9,397.1 L 463.8,394.1 L 464.3,390.0 L 464.5,387.1 L 464.4,384.3 L 463.6,378.9 L 462.0,374.0 L 459.8,369.7 L 456.5,365.3 L 451.6,359.8 L 435.7,344.2 L 421.5,330.0 L 410.2,317.9 L 407.2,314.4 L 404.6,310.9 L 402.4,307.8 L 399.8,303.6 L 397.4,299.4 L 394.8,294.6 L 393.3,290.7 L 391.1,283.6 L 385.7,263.2 L 382.3,247.6 L 381.5,243.4 L 381.3,239.6 L 381.1,236.1 L 381.3,232.4 L 381.9,229.5 L 382.7,227.3 L 383.9,225.4 L 385.5,223.2 L 387.1,221.5 L 390.2,219.3 L 392.8,217.7 L 395.5,216.5 L 397.9,215.8 L 399.9,215.5 L 402.2,215.5 L 404.4,215.7 L 406.9,216.5 L 408.8,217.4 L 410.6,218.5 L 414.1,221.5 L 418.9,225.9 L 425.6,232.5 L 438.8,247.5 L 457.5,267.8 L 465.4,276.3 L 469.4,279.7 L 473.4,282.8 L 479.1,286.6 L 484.4,289.6 L 490.9,292.6 L 497.9,295.1 L 505.5,296.7 L 512.4,297.7 L 520.0,298.1 L 524.4,298.2 L 530.0,297.9 L 535.7,297.2 L 539.4,296.5 L 542.9,295.6 L 547.0,294.3 L 551.5,292.6 L 556.7,290.3 L 560.0,288.5 L 563.2,286.6 L 569.1,282.3 L 573.7,278.4 L 577.4,274.9 L 580.5,271.4 L 583.3,268.1 L 589.4,259.0 L 599.1,244.2 L 615.5,218.1 L 645.6,169.4 L 656.4,150.8 L 657.6,148.4 L 658.5,146.5 L 659.1,144.5 L 659.5,142.6 L 659.6,140.6 L 659.6,138.4 L 659.4,135.5 L 659.1,133.8 L 658.5,131.9 L 657.7,130.1 L 656.7,128.6 L 654.5,126.0 L 652.1,123.5 L 649.4,121.4 L 646.0,119.3 L 639.4,116.1 L 630.2,112.1 L 621.4,108.6 L 606.9,103.2 L 593.6,98.5 L 581.9,94.2 L 575.5,92.1 L 570.6,90.8 L 566.9,90.2 L 563.1,90.0 L 558.1,90.3 L 553.0,90.8 L 537.1,93.2 L 518.4,96.6 L 500.3,100.0 L 495.4,101.2 L 491.1,102.4 L 482.9,105.1 L 475.5,107.9 L 467.6,111.2 L 457.8,115.6 L 449.2,119.6 L 439.7,124.2 L 430.3,128.8 L 421.0,133.6 L 416.1,136.4 L 410.6,139.6 L 405.5,143.2 L 398.7,148.2 L 391.6,154.1 L 383.9,161.4 L 376.0,169.9 L 370.5,177.8 L 365.5,186.7 L 360.5,196.5 L 357.1,205.3 L 354.2,215.1 L 344.5,253.0 L 331.0,309.9 L 323.6,341.0 L 309.7,398.5 L 307.6,411.4 L 306.3,420.7 L 305.4,431.4 L 304.9,441.5 L 304.8,452.1 L 305.4,465.6 L 306.7,477.2 L 308.6,489.6 L 310.5,501.0 L 313.7,516.6 L 319.7,541.2 Z" fill="none" stroke="#ff5a36" stroke-opacity="0.55" stroke-width="1.2" stroke-linejoin="round" filter="url(#glow)"/>
<circle cx="341.7" cy="626.4" r="13" fill="none" stroke="#ffffff" stroke-width="3"/>
<rect x="337.7" y="604.4" width="8" height="18" fill="#ffffff"/>
<circle cx="412.8" cy="885.0" r="7" fill="#ff5a36" stroke="#0a0c12" stroke-width="2.5" filter="url(#glow)"/>
<text x="412.8" y="888.4" font-size="9" font-weight="700" fill="#0a0c12" text-anchor="middle">1</text>
<circle cx="487.0" cy="875.9" r="7" fill="#ff5a36" stroke="#0a0c12" stroke-width="2.5" filter="url(#glow)"/>
<text x="487.0" y="879.3" font-size="9" font-weight="700" fill="#0a0c12" text-anchor="middle">2</text>
<circle cx="659.5" cy="863.1" r="7" fill="#ff5a36" stroke="#0a0c12" stroke-width="2.5" filter="url(#glow)"/>
<text x="659.5" y="866.5" font-size="9" font-weight="700" fill="#0a0c12" text-anchor="middle">3</text>
<circle cx="810.8" cy="323.8" r="7" fill="#ff5a36" stroke="#0a0c12" stroke-width="2.5" filter="url(#glow)"/>
<text x="810.8" y="327.2" font-size="9" font-weight="700" fill="#0a0c12" text-anchor="middle">4</text>
<circle cx="693.4" cy="297.5" r="7" fill="#ff5a36" stroke="#0a0c12" stroke-width="2.5" filter="url(#glow)"/>
<text x="693.4" y="300.9" font-size="9" font-weight="700" fill="#0a0c12" text-anchor="middle">5</text>
<circle cx="465.9" cy="551.5" r="7" fill="#ff5a36" stroke="#0a0c12" stroke-width="2.5" filter="url(#glow)"/>
<text x="465.9" y="554.9" font-size="9" font-weight="700" fill="#0a0c12" text-anchor="middle">6</text>
<circle cx="373.8" cy="529.5" r="7" fill="#ff5a36" stroke="#0a0c12" stroke-width="2.5" filter="url(#glow)"/>
<text x="373.8" y="532.9" font-size="9" font-weight="700" fill="#0a0c12" text-anchor="middle">7</text>
<circle cx="365.7" cy="398.2" r="7" fill="#ff5a36" stroke="#0a0c12" stroke-width="2.5" filter="url(#glow)"/>
<text x="365.7" y="401.6" font-size="9" font-weight="700" fill="#0a0c12" text-anchor="middle">8</text>
<circle cx="446.5" cy="398.8" r="7" fill="#ff5a36" stroke="#0a0c12" stroke-width="2.5" filter="url(#glow)"/>
<text x="446.5" y="402.2" font-size="9" font-weight="700" fill="#0a0c12" text-anchor="middle">9</text>
<circle cx="401.0" cy="252.7" r="7" fill="#ff5a36" stroke="#0a0c12" stroke-width="2.5" filter="url(#glow)"/>
<text x="401.0" y="256.1" font-size="9" font-weight="700" fill="#0a0c12" text-anchor="middle">10</text>
<circle cx="531.4" cy="285.0" r="7" fill="#ff5a36" stroke="#0a0c12" stroke-width="2.5" filter="url(#glow)"/>
<text x="531.4" y="288.4" font-size="9" font-weight="700" fill="#0a0c12" text-anchor="middle">11</text>
<circle cx="639.1" cy="179.4" r="7" fill="#ff5a36" stroke="#0a0c12" stroke-width="2.5" filter="url(#glow)"/>
<text x="639.1" y="182.8" font-size="9" font-weight="700" fill="#0a0c12" text-anchor="middle">12</text>
<circle cx="602.0" cy="101.4" r="7" fill="#ff5a36" stroke="#0a0c12" stroke-width="2.5" filter="url(#glow)"/>
<text x="602.0" y="104.8" font-size="9" font-weight="700" fill="#0a0c12" text-anchor="middle">13</text>
<circle cx="382.6" cy="172.9" r="7" fill="#ff5a36" stroke="#0a0c12" stroke-width="2.5" filter="url(#glow)"/>
<text x="382.6" y="176.3" font-size="9" font-weight="700" fill="#0a0c12" text-anchor="middle">14</text>
<circle cx="309.7" cy="452.9" r="7" fill="#ff5a36" stroke="#0a0c12" stroke-width="2.5" filter="url(#glow)"/>
<text x="309.7" y="456.3" font-size="9" font-weight="700" fill="#0a0c12" text-anchor="middle">15</text>
<line x1="412.8" y1="885.0" x2="403.0" y2="936.1" stroke="#ff5a36" stroke-opacity="0.45" stroke-width="1.3"/>
<text x="395.0" y="940.1" font-size="15" font-weight="600" fill="#eef2fb" text-anchor="end">Senna 'S'</text>
<line x1="659.5" y1="863.1" x2="676.4" y2="912.3" stroke="#ff5a36" stroke-opacity="0.45" stroke-width="1.3"/>
<text x="684.4" y="916.3" font-size="15" font-weight="600" fill="#eef2fb" text-anchor="start">Curva do Sol</text>
<line x1="810.8" y1="323.8" x2="860.8" y2="309.7" stroke="#ff5a36" stroke-opacity="0.45" stroke-width="1.3"/>
<text x="868.8" y="313.7" font-size="15" font-weight="600" fill="#eef2fb" text-anchor="start">Descida do Lago</text>
<line x1="465.9" y1="551.5" x2="452.3" y2="601.7" stroke="#ff5a36" stroke-opacity="0.45" stroke-width="1.3"/>
<text x="444.3" y="605.7" font-size="15" font-weight="600" fill="#eef2fb" text-anchor="end">Ferradura</text>
<line x1="373.8" y1="529.5" x2="335.4" y2="564.6" stroke="#ff5a36" stroke-opacity="0.45" stroke-width="1.3"/>
<text x="327.4" y="568.6" font-size="15" font-weight="600" fill="#eef2fb" text-anchor="end">Laranjinha</text>
<line x1="446.5" y1="398.8" x2="395.5" y2="388.2" stroke="#ff5a36" stroke-opacity="0.45" stroke-width="1.3"/>
<text x="387.5" y="392.2" font-size="15" font-weight="600" fill="#eef2fb" text-anchor="end">Pinheirinho</text>
<line x1="401.0" y1="252.7" x2="372.6" y2="209.1" stroke="#ff5a36" stroke-opacity="0.45" stroke-width="1.3"/>
<text x="364.6" y="213.1" font-size="15" font-weight="600" fill="#eef2fb" text-anchor="end">Bico de Pato</text>
<line x1="531.4" y1="285.0" x2="542.5" y2="234.2" stroke="#ff5a36" stroke-opacity="0.45" stroke-width="1.3"/>
<text x="550.5" y="238.2" font-size="15" font-weight="600" fill="#eef2fb" text-anchor="start">Mergulho</text>
<line x1="639.1" y1="179.4" x2="665.4" y2="134.5" stroke="#ff5a36" stroke-opacity="0.45" stroke-width="1.3"/>
<text x="673.4" y="138.5" font-size="15" font-weight="600" fill="#eef2fb" text-anchor="start">Junção</text>
<line x1="382.6" y1="172.9" x2="358.9" y2="162.0" stroke="#ff5a36" stroke-opacity="0.45" stroke-width="1.3"/>
<text x="350.9" y="166.0" font-size="15" font-weight="600" fill="#eef2fb" text-anchor="end">Subida dos Boxes</text>
<line x1="309.7" y1="452.9" x2="258.9" y2="464.0" stroke="#ff5a36" stroke-opacity="0.45" stroke-width="1.3"/>
<text x="250.9" y="468.0" font-size="15" font-weight="600" fill="#eef2fb" text-anchor="end">Arquibancadas</text>
<text x="90" y="64" font-size="20" letter-spacing="5" fill="#ff5a36" font-weight="700">TRACK ATLAS</text>
<text x="90" y="108" font-size="42" font-weight="800" fill="#ffffff">AUTODROMO JOSE CARLOS PACE</text>
<text x="90" y="136" font-size="16" fill="#9aa6bd">Interlagos</text>
<rect x="1170" y="200" width="360" height="710" rx="16" fill="#ffffff" fill-opacity="0.04" stroke="#ff5a36" stroke-opacity="0.5"/>
<text x="1198" y="250" font-size="13" letter-spacing="2" fill="#8794ab">LAYOUT</text>
<text x="1198" y="276" font-size="22" font-weight="700" fill="#eef2fb">Grand Prix Circuit</text>
<text x="1198" y="320" font-size="13" letter-spacing="2" fill="#8794ab">LENGTH</text>
<text x="1198" y="346" font-size="22" font-weight="700" fill="#eef2fb">4.309 km</text>
<text x="1198" y="390" font-size="13" letter-spacing="2" fill="#8794ab">CORNERS</text>
<text x="1198" y="416" font-size="22" font-weight="700" fill="#eef2fb">15</text>
<text x="1198" y="460" font-size="13" letter-spacing="2" fill="#8794ab">NAMED CORNERS</text>
<text x="1198" y="486" font-size="22" font-weight="700" fill="#eef2fb">11</text>
<text x="1198" y="530" font-size="13" letter-spacing="2" fill="#8794ab">DIRECTION</text>
<text x="1198" y="556" font-size="22" font-weight="700" fill="#eef2fb">Anticlockwise</text>
<text x="1198" y="600" font-size="13" letter-spacing="2" fill="#8794ab">SECTORS</text>
<text x="1198" y="626" font-size="22" font-weight="700" fill="#eef2fb">3</text>
<text x="1198" y="670" font-size="13" letter-spacing="2" fill="#8794ab">COUNTRY</text>
<text x="1198" y="696" font-size="22" font-weight="700" fill="#eef2fb">BR</text>
<text x="1198" y="740" font-size="13" letter-spacing="2" fill="#8794ab">LOCATION</text>
<text x="1198" y="766" font-size="22" font-weight="700" fill="#eef2fb">Sao Paulo</text>
<text x="90" y="966" font-size="12" fill="#566177">Geometry © OpenStreetMap contributors (ODbL) · corner data: Lovely-Sim-Racing + curated · track-atlas</text>
<text x="90" y="942" font-size="12" fill="#8794ab">⚑ start / finish</text>
</svg>