<svg xmlns="http://www.w3.org/2000/svg" width="1600" height="1000" viewBox="0 0 1600 1000" font-family="Helvetica, Arial, sans-serif">
<defs>
      <radialGradient id="bg" cx="38%" cy="34%" r="85%">
        <stop offset="0%" stop-color="#1b2030"/>
        <stop offset="55%" stop-color="#12151f"/>
        <stop offset="100%" stop-color="#0a0c12"/>
      </radialGradient>
      <linearGradient id="accent" x1="0" y1="0" x2="1" y2="1">
        <stop offset="0%" stop-color="#ff5a36"/>
        <stop offset="100%" stop-color="#ffffff"/>
      </linearGradient>
      <filter id="glow" x="-40%" y="-40%" width="180%" height="180%">
        <feGaussianBlur stdDeviation="6" result="b"/>
        <feMerge><feMergeNode in="b"/><feMergeNode in="SourceGraphic"/></feMerge>
      </filter>
    </defs>
<rect width="1600" height="1000" fill="url(#bg)"/>
<path d="M 810.5,351.9 L 750.7,350.5 L 690.7,350.2 L 676.6,349.9 L 670.4,348.8 L 665.4,347.7 L 581.1,329.7 L 570.5,327.4 L 563.5,326.3 L 556.6,325.3 L 550.3,324.6 L 543.9,324.0 L 535.4,323.4 L 527.9,323.0 L 522.2,322.8 L 514.7,322.8 L 506.3,323.1 L 485.0,324.9 L 454.7,327.5 L 439.8,328.7 L 404.3,332.1 L 400.6,332.7 L 396.5,333.6 L 349.2,345.1 L 346.7,345.8 L 343.8,347.0 L 342.0,348.3 L 340.6,349.8 L 339.3,351.5 L 338.4,353.4 L 337.8,355.1 L 337.1,358.1 L 336.0,363.7 L 335.0,369.4 L 333.7,374.0 L 332.5,377.1 L 331.3,379.4 L 329.6,381.5 L 327.8,383.0 L 325.7,384.7 L 323.0,386.7 L 303.2,396.1 L 283.6,405.1 L 280.7,406.5 L 278.1,407.9 L 276.1,409.0 L 273.7,410.8 L 271.5,412.8 L 269.6,414.6 L 268.0,416.4 L 267.1,417.9 L 266.1,419.8 L 265.0,422.0 L 263.6,425.6 L 187.4,614.2 L 186.9,615.4 L 186.3,617.4 L 185.9,619.2 L 185.7,621.1 L 185.6,623.4 L 185.9,625.9 L 186.4,628.2 L 187.0,630.6 L 190.4,643.3 L 193.8,656.0 L 194.1,657.4 L 194.5,659.7 L 194.4,661.9 L 194.2,663.7 L 193.9,665.7 L 193.1,667.7 L 192.1,669.6 L 190.7,671.3 L 188.7,673.3 L 186.9,675.0 L 185.2,676.4 L 183.4,678.0 L 157.9,699.2 L 136.7,717.3 L 103.2,745.8 L 98.6,750.4 L 95.1,754.2 L 92.8,756.9 L 91.2,760.2 L 90.3,763.1 L 90.0,766.4 L 90.4,769.4 L 91.2,772.0 L 92.3,774.9 L 94.0,777.7 L 96.3,780.4 L 98.4,782.2 L 100.9,783.4 L 103.5,784.5 L 106.5,785.1 L 109.2,785.3 L 113.9,785.2 L 196.4,773.6 L 224.6,769.4 L 264.8,764.3 L 270.5,763.6 L 278.8,763.1 L 288.0,762.8 L 295.5,763.0 L 302.9,763.3 L 310.8,764.1 L 319.0,765.2 L 380.6,776.3 L 388.5,777.5 L 392.6,777.6 L 396.0,777.3 L 399.3,776.4 L 402.4,774.9 L 405.6,773.0 L 409.4,770.2 L 412.5,766.9 L 414.9,763.7 L 416.6,760.9 L 418.7,757.3 L 427.4,739.2 L 430.7,732.6 L 433.0,727.0 L 435.4,720.5 L 436.9,714.6 L 438.4,708.1 L 439.4,700.9 L 439.6,694.3 L 439.7,688.5 L 439.4,683.0 L 438.3,675.5 L 437.0,669.0 L 435.2,662.0 L 419.0,587.7 L 418.6,585.2 L 418.5,582.3 L 418.9,579.4 L 419.6,577.1 L 420.4,575.2 L 421.8,572.8 L 423.7,569.9 L 434.9,552.1 L 446.2,534.4 L 447.2,533.1 L 448.7,531.9 L 450.2,531.1 L 451.9,530.6 L 453.3,530.4 L 455.4,530.6 L 457.2,530.9 L 460.0,531.9 L 467.6,535.1 L 475.3,538.4 L 478.0,539.5 L 480.9,540.4 L 484.4,541.0 L 487.9,541.2 L 494.9,541.1 L 702.2,539.5 L 706.2,539.8 L 708.0,540.1 L 709.3,540.7 L 710.5,541.8 L 711.5,543.7 L 713.3,549.6 L 714.0,551.7 L 715.1,553.1 L 716.0,554.1 L 717.2,554.9 L 718.9,555.2 L 720.7,555.4 L 722.5,555.0 L 724.6,554.1 L 804.9,521.3 L 810.0,519.0 L 815.4,516.2 L 821.5,512.6 L 827.1,509.2 L 832.1,505.8 L 854.3,489.6 L 860.9,484.4 L 867.6,478.8 L 871.1,475.8 L 876.4,471.0 L 882.4,465.0 L 940.2,407.5 L 943.7,404.1 L 950.5,398.6 L 958.0,393.3 L 962.0,390.9 L 965.7,389.0 L 975.2,384.4 L 978.6,382.9 L 1002.4,372.5 L 1026.6,362.3 L 1031.4,360.2 L 1033.2,359.1 L 1035.3,357.8 L 1036.9,356.4 L 1038.2,354.4 L 1039.2,352.5 L 1039.6,351.2 L 1040.0,349.8 L 1040.0,347.9 L 1039.9,346.0 L 1039.7,344.4 L 1039.2,342.5 L 1038.1,339.8 L 1030.2,321.6 L 1022.3,303.4 L 1020.6,300.8 L 1019.1,298.8 L 1016.9,296.8 L 1014.2,295.0 L 1012.0,294.0 L 1009.6,293.2 L 1006.9,292.7 L 1004.6,292.7 L 1002.0,293.0 L 999.7,293.5 L 996.4,294.6 L 962.6,307.2 L 878.2,341.3 L 868.8,344.7 L 860.6,347.1 L 853.7,348.9 L 850.2,349.5 L 846.3,350.1 L 841.8,350.8 L 837.9,351.4 L 833.9,352.0 L 829.2,352.4 L 810.5,351.9 Z" fill="none" stroke="#000000" stroke-opacity="0.5" stroke-width="13" stroke-linejoin="round" stroke-linecap="round"/>
<path d="M 810.5,351.9 L 750.7,350.5 L 690.7,350.2 L 676.6,349.9 L 670.4,348.8 L 665.4,347.7 L 581.1,329.7 L 570.5,327.4 L 563.5,326.3 L 556.6,325.3 L 550.3,324.6 L 543.9,324.0 L 535.4,323.4 L 527.9,323.0 L 522.2,322.8 L 514.7,322.8 L 506.3,323.1 L 485.0,324.9 L 454.7,327.5 L 439.8,328.7 L 404.3,332.1 L 400.6,332.7 L 396.5,333.6 L 349.2,345.1 L 346.7,345.8 L 343.8,347.0 L 342.0,348.3 L 340.6,349.8 L 339.3,351.5 L 338.4,353.4 L 337.8,355.1 L 337.1,358.1 L 336.0,363.7 L 335.0,369.4 L 333.7,374.0 L 332.5,377.1 L 331.3,379.4 L 329.6,381.5 L 327.8,383.0 L 325.7,384.7 L 323.0,386.7 L 303.2,396.1 L 283.6,405.1 L 280.7,406.5 L 278.1,407.9 L 276.1,409.0 L 273.7,410.8 L 271.5,412.8 L 269.6,414.6 L 268.0,416.4 L 267.1,417.9 L 266.1,419.8 L 265.0,422.0 L 263.6,425.6 L 187.4,614.2 L 186.9,615.4 L 186.3,617.4 L 185.9,619.2 L 185.7,621.1 L 185.6,623.4 L 185.9,625.9 L 186.4,628.2 L 187.0,630.6 L 190.4,643.3 L 193.8,656.0 L 194.1,657.4 L 194.5,659.7 L 194.4,661.9 L 194.2,663.7 L 193.9,665.7 L 193.1,667.7 L 192.1,669.6 L 190.7,671.3 L 188.7,673.3 L 186.9,675.0 L 185.2,676.4 L 183.4,678.0 L 157.9,699.2 L 136.7,717.3 L 103.2,745.8 L 98.6,750.4 L 95.1,754.2 L 92.8,756.9 L 91.2,760.2 L 90.3,763.1 L 90.0,766.4 L 90.4,769.4 L 91.2,772.0 L 92.3,774.9 L 94.0,777.7 L 96.3,780.4 L 98.4,782.2 L 100.9,783.4 L 103.5,784.5 L 106.5,785.1 L 109.2,785.3 L 113.9,785.2 L 196.4,773.6 L 224.6,769.4 L 264.8,764.3 L 270.5,763.6 L 278.8,763.1 L 288.0,762.8 L 295.5,763.0 L 302.9,763.3 L 310.8,764.1 L 319.0,765.2 L 380.6,776.3 L 388.5,777.5 L 392.6,777.6 L 396.0,777.3 L 399.3,776.4 L 402.4,774.9 L 405.6,773.0 L 409.4,770.2 L 412.5,766.9 L 414.9,763.7 L 416.6,760.9 L 418.7,757.3 L 427.4,739.2 L 430.7,732.6 L 433.0,727.0 L 435.4,720.5 L 436.9,714.6 L 438.4,708.1 L 439.4,700.9 L 439.6,694.3 L 439.7,688.5 L 439.4,683.0 L 438.3,675.5 L 437.0,669.0 L 435.2,662.0 L 419.0,587.7 L 418.6,585.2 L 418.5,582.3 L 418.9,579.4 L 419.6,577.1 L 420.4,575.2 L 421.8,572.8 L 423.7,569.9 L 434.9,552.1 L 446.2,534.4 L 447.2,533.1 L 448.7,531.9 L 450.2,531.1 L 451.9,530.6 L 453.3,530.4 L 455.4,530.6 L 457.2,530.9 L 460.0,531.9 L 467.6,535.1 L 475.3,538.4 L 478.0,539.5 L 480.9,540.4 L 484.4,541.0 L 487.9,541.2 L 494.9,541.1 L 702.2,539.5 L 706.2,539.8 L 708.0,540.1 L 709.3,540.7 L 710.5,541.8 L 711.5,543.7 L 713.3,549.6 L 714.0,551.7 L 715.1,553.1 L 716.0,554.1 L 717.2,554.9 L 718.9,555.2 L 720.7,555.4 L 722.5,555.0 L 724.6,554.1 L 804.9,521.3 L 810.0,519.0 L 815.4,516.2 L 821.5,512.6 L 827.1,509.2 L 832.1,505.8 L 854.3,489.6 L 860.9,484.4 L 867.6,478.8 L 871.1,475.8 L 876.4,471.0 L 882.4,465.0 L 940.2,407.5 L 943.7,404.1 L 950.5,398.6 L 958.0,393.3 L 962.0,390.9 L 965.7,389.0 L 975.2,384.4 L 978.6,382.9 L 1002.4,372.5 L 1026.6,362.3 L 1031.4,360.2 L 1033.2,359.1 L 1035.3,357.8 L 1036.9,356.4 L 1038.2,354.4 L 1039.2,352.5 L 1039.6,351.2 L 1040.0,349.8 L 1040.0,347.9 L 1039.9,346.0 L 1039.7,344.4 L 1039.2,342.5 L 1038.1,339.8 L 1030.2,321.6 L 1022.3,303.4 L 1020.6,300.8 L 1019.1,298.8 L 1016.9,296.8 L 1014.2,295.0 L 1012.0,294.0 L 1009.6,293.2 L 1006.9,292.7 L 1004.6,292.7 L 1002.0,293.0 L 999.7,293.5 L 996.4,294.6 L 962.6,307.2 L 878.2,341.3 L 868.8,344.7 L 860.6,347.1 L 853.7,348.9 L 850.2,349.5 L 846.3,350.1 L 841.8,350.8 L 837.9,351.4 L 833.9,352.0 L 829.2,352.4 L 810.5,351.9 Z" fill="none" stroke="#39404f" stroke-width="8.5" stroke-linejoin="round" stroke-linecap="round"/>
<path d="M 810.5,351.9 L 750.7,350.5 L 690.7,350.2 L 676.6,349.9 L 670.4,348.8 L 665.4,347.7 L 581.1,329.7 L 570.5,327.4 L 563.5,326.3 L 556.6,325.3 L 550.3,324.6 L 543.9,324.0 L 535.4,323.4 L 527.9,323.0 L 522.2,322.8 L 514.7,322.8 L 506.3,323.1 L 485.0,324.9 L 454.7,327.5 L 439.8,328.7 L 404.3,332.1 L 400.6,332.7 L 396.5,333.6 L 349.2,345.1 L 346.7,345.8 L 343.8,347.0 L 342.0,348.3 L 340.6,349.8 L 339.3,351.5 L 338.4,353.4 L 337.8,355.1 L 337.1,358.1 L 336.0,363.7 L 335.0,369.4 L 333.7,374.0 L 332.5,377.1 L 331.3,379.4 L 329.6,381.5 L 327.8,383.0 L 325.7,384.7 L 323.0,386.7 L 303.2,396.1 L 283.6,405.1 L 280.7,406.5 L 278.1,407.9 L 276.1,409.0 L 273.7,410.8 L 271.5,412.8 L 269.6,414.6 L 268.0,416.4 L 267.1,417.9 L 266.1,419.8 L 265.0,422.0 L 263.6,425.6 L 187.4,614.2 L 186.9,615.4 L 186.3,617.4 L 185.9,619.2 L 185.7,621.1 L 185.6,623.4 L 185.9,625.9 L 186.4,628.2 L 187.0,630.6 L 190.4,643.3 L 193.8,656.0 L 194.1,657.4 L 194.5,659.7 L 194.4,661.9 L 194.2,663.7 L 193.9,665.7 L 193.1,667.7 L 192.1,669.6 L 190.7,671.3 L 188.7,673.3 L 186.9,675.0 L 185.2,676.4 L 183.4,678.0 L 157.9,699.2 L 136.7,717.3 L 103.2,745.8 L 98.6,750.4 L 95.1,754.2 L 92.8,756.9 L 91.2,760.2 L 90.3,763.1 L 90.0,766.4 L 90.4,769.4 L 91.2,772.0 L 92.3,774.9 L 94.0,777.7 L 96.3,780.4 L 98.4,782.2 L 100.9,783.4 L 103.5,784.5 L 106.5,785.1 L 109.2,785.3 L 113.9,785.2 L 196.4,773.6 L 224.6,769.4 L 264.8,764.3 L 270.5,763.6 L 278.8,763.1 L 288.0,762.8 L 295.5,763.0 L 302.9,763.3 L 310.8,764.1 L 319.0,765.2 L 380.6,776.3 L 388.5,777.5 L 392.6,777.6 L 396.0,777.3 L 399.3,776.4 L 402.4,774.9 L 405.6,773.0 L 409.4,770.2 L 412.5,766.9 L 414.9,763.7 L 416.6,760.9 L 418.7,757.3 L 427.4,739.2 L 430.7,732.6 L 433.0,727.0 L 435.4,720.5 L 436.9,714.6 L 438.4,708.1 L 439.4,700.9 L 439.6,694.3 L 439.7,688.5 L 439.4,683.0 L 438.3,675.5 L 437.0,669.0 L 435.2,662.0 L 419.0,587.7 L 418.6,585.2 L 418.5,582.3 L 418.9,579.4 L 419.6,577.1 L 420.4,575.2 L 421.8,572.8 L 423.7,569.9 L 434.9,552.1 L 446.2,534.4 L 447.2,533.1 L 448.7,531.9 L 450.2,531.1 L 451.9,530.6 L 453.3,530.4 L 455.4,530.6 L 457.2,530.9 L 460.0,531.9 L 467.6,535.1 L 475.3,538.4 L 478.0,539.5 L 480.9,540.4 L 484.4,541.0 L 487.9,541.2 L 494.9,541.1 L 702.2,539.5 L 706.2,539.8 L 708.0,540.1 L 709.3,540.7 L 710.5,541.8 L 711.5,543.7 L 713.3,549.6 L 714.0,551.7 L 715.1,553.1 L 716.0,554.1 L 717.2,554.9 L 718.9,555.2 L 720.7,555.4 L 722.5,555.0 L 724.6,554.1 L 804.9,521.3 L 810.0,519.0 L 815.4,516.2 L 821.5,512.6 L 827.1,509.2 L 832.1,505.8 L 854.3,489.6 L 860.9,484.4 L 867.6,478.8 L 871.1,475.8 L 876.4,471.0 L 882.4,465.0 L 940.2,407.5 L 943.7,404.1 L 950.5,398.6 L 958.0,393.3 L 962.0,390.9 L 965.7,389.0 L 975.2,384.4 L 978.6,382.9 L 1002.4,372.5 L 1026.6,362.3 L 1031.4,360.2 L 1033.2,359.1 L 1035.3,357.8 L 1036.9,356.4 L 1038.2,354.4 L 1039.2,352.5 L 1039.6,351.2 L 1040.0,349.8 L 1040.0,347.9 L 1039.9,346.0 L 1039.7,344.4 L 1039.2,342.5 L 1038.1,339.8 L 1030.2,321.6 L 1022.3,303.4 L 1020.6,300.8 L 1019.1,298.8 L 1016.9,296.8 L 1014.2,295.0 L 1012.0,294.0 L 1009.6,293.2 L 1006.9,292.7 L 1004.6,292.7 L 1002.0,293.0 L 999.7,293.5 L 996.4,294.6 L 962.6,307.2 L 878.2,341.3 L 868.8,344.7 L 860.6,347.1 L 853.7,348.9 L 850.2,349.5 L 846.3,350.1 L 841.8,350.8 L 837.9,351.4 L 833.9,352.0 L 829.2,352.4 L 810.5,351.9 Z" fill="none" stroke="#e7edf8" stroke-width="2.6" stroke-linejoin="round" stroke-linecap="round"/>
<path d="M 810.5,351.9 L 750.7,350.5 L 690.7,350.2 L 676.6,349.9 L 670.4,348.8 L 665.4,347.7 L 581.1,329.7 L 570.5,327.4 L 563.5,326.3 L 556.6,325.3 L 550.3,324.6 L 543.9,324.0 L 535.4,323.4 L 527.9,323.0 L 522.2,322.8 L 514.7,322.8 L 506.3,323.1 L 485.0,324.9 L 454.7,327.5 L 439.8,328.7 L 404.3,332.1 L 400.6,332.7 L 396.5,333.6 L 349.2,345.1 L 346.7,345.8 L 343.8,347.0 L 342.0,348.3 L 340.6,349.8 L 339.3,351.5 L 338.4,353.4 L 337.8,355.1 L 337.1,358.1 L 336.0,363.7 L 335.0,369.4 L 333.7,374.0 L 332.5,377.1 L 331.3,379.4 L 329.6,381.5 L 327.8,383.0 L 325.7,384.7 L 323.0,386.7 L 303.2,396.1 L 283.6,405.1 L 280.7,406.5 L 278.1,407.9 L 276.1,409.0 L 273.7,410.8 L 271.5,412.8 L 269.6,414.6 L 268.0,416.4 L 267.1,417.9 L 266.1,419.8 L 265.0,422.0 L 263.6,425.6 L 187.4,614.2 L 186.9,615.4 L 186.3,617.4 L 185.9,619.2 L 185.7,621.1 L 185.6,623.4 L 185.9,625.9 L 186.4,628.2 L 187.0,630.6 L 190.4,643.3 L 193.8,656.0 L 194.1,657.4 L 194.5,659.7 L 194.4,661.9 L 194.2,663.7 L 193.9,665.7 L 193.1,667.7 L 192.1,669.6 L 190.7,671.3 L 188.7,673.3 L 186.9,675.0 L 185.2,676.4 L 183.4,678.0 L 157.9,699.2 L 136.7,717.3 L 103.2,745.8 L 98.6,750.4 L 95.1,754.2 L 92.8,756.9 L 91.2,760.2 L 90.3,763.1 L 90.0,766.4 L 90.4,769.4 L 91.2,772.0 L 92.3,774.9 L 94.0,777.7 L 96.3,780.4 L 98.4,782.2 L 100.9,783.4 L 103.5,784.5 L 106.5,785.1 L 109.2,785.3 L 113.9,785.2 L 196.4,773.6 L 224.6,769.4 L 264.8,764.3 L 270.5,763.6 L 278.8,763.1 L 288.0,762.8 L 295.5,763.0 L 302.9,763.3 L 310.8,764.1 L 319.0,765.2 L 380.6,776.3 L 388.5,777.5 L 392.6,777.6 L 396.0,777.3 L 399.3,776.4 L 402.4,774.9 L 405.6,773.0 L 409.4,770.2 L 412.5,766.9 L 414.9,763.7 L 416.6,760.9 L 418.7,757.3 L 427.4,739.2 L 430.7,732.6 L 433.0,727.0 L 435.4,720.5 L 436.9,714.6 L 438.4,708.1 L 439.4,700.9 L 439.6,694.3 L 439.7,688.5 L 439.4,683.0 L 438.3,675.5 L 437.0,669.0 L 435.2,662.0 L 419.0,587.7 L 418.6,585.2 L 418.5,582.3 L 418.9,579.4 L 419.6,577.1 L 420.4,575.2 L 421.8,572.8 L 423.7,569.9 L 434.9,552.1 L 446.2,534.4 L 447.2,533.1 L 448.7,531.9 L 450.2,531.1 L 451.9,530.6 L 453.3,530.4 L 455.4,530.6 L 457.2,530.9 L 460.0,531.9 L 467.6,535.1 L 475.3,538.4 L 478.0,539.5 L 480.9,540.4 L 484.4,541.0 L 487.9,541.2 L 494.9,541.1 L 702.2,539.5 L 706.2,539.8 L 708.0,540.1 L 709.3,540.7 L 710.5,541.8 L 711.5,543.7 L 713.3,549.6 L 714.0,551.7 L 715.1,553.1 L 716.0,554.1 L 717.2,554.9 L 718.9,555.2 L 720.7,555.4 L 722.5,555.0 L 724.6,554.1 L 804.9,521.3 L 810.0,519.0 L 815.4,516.2 L 821.5,512.6 L 827.1,509.2 L 832.1,505.8 L 854.3,489.6 L 860.9,484.4 L 867.6,478.8 L 871.1,475.8 L 876.4,471.0 L 882.4,465.0 L 940.2,407.5 L 943.7,404.1 L 950.5,398.6 L 958.0,393.3 L 962.0,390.9 L 965.7,389.0 L 975.2,384.4 L 978.6,382.9 L 1002.4,372.5 L 1026.6,362.3 L 1031.4,360.2 L 1033.2,359.1 L 1035.3,357.8 L 1036.9,356.4 L 1038.2,354.4 L 1039.2,352.5 L 1039.6,351.2 L 1040.0,349.8 L 1040.0,347.9 L 1039.9,346.0 L 1039.7,344.4 L 1039.2,342.5 L 1038.1,339.8 L 1030.2,321.6 L 1022.3,303.4 L 1020.6,300.8 L 1019.1,298.8 L 1016.9,296.8 L 1014.2,295.0 L 1012.0,294.0 L 1009.6,293.2 L 1006.9,292.7 L 1004.6,292.7 L 1002.0,293.0 L 999.7,293.5 L 996.4,294.6 L 962.6,307.2 L 878.2,341.3 L 868.8,344.7 L 860.6,347.1 L 853.7,348.9 L 850.2,349.5 L 846.3,350.1 L 841.8,350.8 L 837.9,351.4 L 833.9,352.0 L 829.2,352.4 L 810.5,351.9 Z" fill="none" stroke="#ff5a36" stroke-opacity="0.55" stroke-width="1.2" stroke-linejoin="round" filter="url(#glow)"/>
<circle cx="724.5" cy="350.4" r="13" fill="none" stroke="#ffffff" stroke-width="3"/>
<rect x="720.5" y="328.4" width="8" height="18" fill="#ffffff"/>
<circle cx="700.5" cy="355.5" r="7" fill="#ff5a36" stroke="#0a0c12" stroke-width="2.5" filter="url(#glow)"/>
<text x="700.5" y="358.9" font-size="9" font-weight="700" fill="#0a0c12" text-anchor="middle">1</text>
<circle cx="274.3" cy="412.7" r="7" fill="#ff5a36" stroke="#0a0c12" stroke-width="2.5" filter="url(#glow)"/>
<text x="274.3" y="416.1" font-size="9" font-weight="700" fill="#0a0c12" text-anchor="middle">2</text>
<circle cx="262.5" cy="428.3" r="7" fill="#ff5a36" stroke="#0a0c12" stroke-width="2.5" filter="url(#glow)"/>
<text x="262.5" y="431.7" font-size="9" font-weight="700" fill="#0a0c12" text-anchor="middle">3</text>
<circle cx="238.8" cy="487.1" r="7" fill="#ff5a36" stroke="#0a0c12" stroke-width="2.5" filter="url(#glow)"/>
<text x="238.8" y="490.5" font-size="9" font-weight="700" fill="#0a0c12" text-anchor="middle">4</text>
<circle cx="191.1" cy="665.7" r="7" fill="#ff5a36" stroke="#0a0c12" stroke-width="2.5" filter="url(#glow)"/>
<text x="191.1" y="669.1" font-size="9" font-weight="700" fill="#0a0c12" text-anchor="middle">5</text>
<circle cx="162.5" cy="695.3" r="7" fill="#ff5a36" stroke="#0a0c12" stroke-width="2.5" filter="url(#glow)"/>
<text x="162.5" y="698.7" font-size="9" font-weight="700" fill="#0a0c12" text-anchor="middle">6</text>
<circle cx="97.7" cy="771.0" r="7" fill="#ff5a36" stroke="#0a0c12" stroke-width="2.5" filter="url(#glow)"/>
<text x="97.7" y="774.4" font-size="9" font-weight="700" fill="#0a0c12" text-anchor="middle">7</text>
<circle cx="363.4" cy="773.2" r="7" fill="#ff5a36" stroke="#0a0c12" stroke-width="2.5" filter="url(#glow)"/>
<text x="363.4" y="776.6" font-size="9" font-weight="700" fill="#0a0c12" text-anchor="middle">8</text>
<circle cx="436.2" cy="701.2" r="7" fill="#ff5a36" stroke="#0a0c12" stroke-width="2.5" filter="url(#glow)"/>
<text x="436.2" y="704.6" font-size="9" font-weight="700" fill="#0a0c12" text-anchor="middle">9</text>
<circle cx="429.4" cy="635.2" r="7" fill="#ff5a36" stroke="#0a0c12" stroke-width="2.5" filter="url(#glow)"/>
<text x="429.4" y="638.6" font-size="9" font-weight="700" fill="#0a0c12" text-anchor="middle">10</text>
<circle cx="423.1" cy="570.7" r="7" fill="#ff5a36" stroke="#0a0c12" stroke-width="2.5" filter="url(#glow)"/>
<text x="423.1" y="574.1" font-size="9" font-weight="700" fill="#0a0c12" text-anchor="middle">11</text>
<circle cx="452.1" cy="533.8" r="7" fill="#ff5a36" stroke="#0a0c12" stroke-width="2.5" filter="url(#glow)"/>
<text x="452.1" y="537.2" font-size="9" font-weight="700" fill="#0a0c12" text-anchor="middle">12</text>
<circle cx="478.1" cy="539.6" r="7" fill="#ff5a36" stroke="#0a0c12" stroke-width="2.5" filter="url(#glow)"/>
<text x="478.1" y="543.0" font-size="9" font-weight="700" fill="#0a0c12" text-anchor="middle">13</text>
<circle cx="720.8" cy="555.4" r="7" fill="#ff5a36" stroke="#0a0c12" stroke-width="2.5" filter="url(#glow)"/>
<text x="720.8" y="558.8" font-size="9" font-weight="700" fill="#0a0c12" text-anchor="middle">14</text>
<circle cx="746.8" cy="545.1" r="7" fill="#ff5a36" stroke="#0a0c12" stroke-width="2.5" filter="url(#glow)"/>
<text x="746.8" y="548.5" font-size="9" font-weight="700" fill="#0a0c12" text-anchor="middle">15</text>
<circle cx="1024.0" cy="363.4" r="7" fill="#ff5a36" stroke="#0a0c12" stroke-width="2.5" filter="url(#glow)"/>
<text x="1024.0" y="366.8" font-size="9" font-weight="700" fill="#0a0c12" text-anchor="middle">16</text>
<circle cx="1011.9" cy="297.7" r="7" fill="#ff5a36" stroke="#0a0c12" stroke-width="2.5" filter="url(#glow)"/>
<text x="1011.9" y="301.1" font-size="9" font-weight="700" fill="#0a0c12" text-anchor="middle">17</text>
<circle cx="960.8" cy="307.9" r="7" fill="#ff5a36" stroke="#0a0c12" stroke-width="2.5" filter="url(#glow)"/>
<text x="960.8" y="311.3" font-size="9" font-weight="700" fill="#0a0c12" text-anchor="middle">18</text>
<circle cx="837.2" cy="351.5" r="7" fill="#ff5a36" stroke="#0a0c12" stroke-width="2.5" filter="url(#glow)"/>
<text x="837.2" y="354.9" font-size="9" font-weight="700" fill="#0a0c12" text-anchor="middle">19</text>
<line x1="700.5" y1="355.5" x2="739.0" y2="320.6" stroke="#ff5a36" stroke-opacity="0.45" stroke-width="1.3"/>
<text x="747.0" y="324.6" font-size="15" font-weight="600" fill="#eef2fb" text-anchor="start">Variante Bassa</text>
<line x1="262.5" y1="428.3" x2="213.4" y2="411.1" stroke="#ff5a36" stroke-opacity="0.45" stroke-width="1.3"/>
<text x="205.4" y="415.1" font-size="15" font-weight="600" fill="#eef2fb" text-anchor="end">Tamburello</text>
<line x1="162.5" y1="695.3" x2="115.9" y2="718.4" stroke="#ff5a36" stroke-opacity="0.45" stroke-width="1.3"/>
<text x="107.9" y="722.4" font-size="15" font-weight="600" fill="#eef2fb" text-anchor="end">Villeneuve</text>
<line x1="97.7" y1="771.0" x2="53.0" y2="797.6" stroke="#ff5a36" stroke-opacity="0.45" stroke-width="1.3"/>
<text x="45.0" y="801.6" font-size="15" font-weight="600" fill="#eef2fb" text-anchor="end">Tosa</text>
<line x1="436.2" y1="701.2" x2="414.4" y2="750.4" stroke="#ff5a36" stroke-opacity="0.45" stroke-width="1.3"/>
<text x="406.4" y="754.4" font-size="15" font-weight="600" fill="#eef2fb" text-anchor="end">Piratella</text>
<line x1="452.1" y1="533.8" x2="401.3" y2="545.2" stroke="#ff5a36" stroke-opacity="0.45" stroke-width="1.3"/>
<text x="393.3" y="549.2" font-size="15" font-weight="600" fill="#eef2fb" text-anchor="end">Acque Minerali</text>
<line x1="746.8" y1="545.1" x2="798.4" y2="551.1" stroke="#ff5a36" stroke-opacity="0.45" stroke-width="1.3"/>
<text x="806.4" y="555.1" font-size="15" font-weight="600" fill="#eef2fb" text-anchor="start">Variante Alta</text>
<line x1="960.8" y1="307.9" x2="1007.7" y2="285.5" stroke="#ff5a36" stroke-opacity="0.45" stroke-width="1.3"/>
<text x="1015.7" y="289.5" font-size="15" font-weight="600" fill="#eef2fb" text-anchor="start">Rivazza</text>
<line x1="837.2" y1="351.5" x2="883.1" y2="352.6" stroke="#ff5a36" stroke-opacity="0.45" stroke-width="1.3"/>
<text x="891.1" y="356.6" font-size="15" font-weight="600" fill="#eef2fb" text-anchor="start">Variante Bassa</text>
<text x="90" y="64" font-size="20" letter-spacing="5" fill="#ff5a36" font-weight="700">TRACK ATLAS</text>
<text x="90" y="108" font-size="42" font-weight="800" fill="#ffffff">AUTODROMO ENZO E DINO FERRARI</text>
<text x="90" y="136" font-size="16" fill="#9aa6bd">Imola</text>
<rect x="1170" y="200" width="360" height="710" rx="16" fill="#ffffff" fill-opacity="0.04" stroke="#ff5a36" stroke-opacity="0.5"/>
<text x="1198" y="250" font-size="13" letter-spacing="2" fill="#8794ab">LAYOUT</text>
<text x="1198" y="276" font-size="22" font-weight="700" fill="#eef2fb">Grand Prix Circuit</text>
<text x="1198" y="320" font-size="13" letter-spacing="2" fill="#8794ab">LENGTH</text>
<text x="1198" y="346" font-size="22" font-weight="700" fill="#eef2fb">4.909 km</text>
<text x="1198" y="390" font-size="13" letter-spacing="2" fill="#8794ab">CORNERS</text>
<text x="1198" y="416" font-size="22" font-weight="700" fill="#eef2fb">19</text>
<text x="1198" y="460" font-size="13" letter-spacing="2" fill="#8794ab">NAMED CORNERS</text>
<text x="1198" y="486" font-size="22" font-weight="700" fill="#eef2fb">15</text>
<text x="1198" y="530" font-size="13" letter-spacing="2" fill="#8794ab">DIRECTION</text>
<text x="1198" y="556" font-size="22" font-weight="700" fill="#eef2fb">Anticlockwise</text>
<text x="1198" y="600" font-size="13" letter-spacing="2" fill="#8794ab">SECTORS</text>
<text x="1198" y="626" font-size="22" font-weight="700" fill="#eef2fb">3</text>
<text x="1198" y="670" font-size="13" letter-spacing="2" fill="#8794ab">COUNTRY</text>
<text x="1198" y="696" font-size="22" font-weight="700" fill="#eef2fb">Italy</text>
<text x="1198" y="740" font-size="13" letter-spacing="2" fill="#8794ab">LOCATION</text>
<text x="1198" y="766" font-size="22" font-weight="700" fill="#eef2fb">Imola</text>
<text x="1198" y="810" font-size="13" letter-spacing="2" fill="#8794ab">COMPLEXES</text>
<rect x="1198" y="816" width="94" height="24" rx="12" fill="#ff5a36" fill-opacity="0.16" stroke="#ff5a36" stroke-opacity="0.5"/>
<text x="1245" y="833" font-size="12" fill="#eef2fb" text-anchor="middle">Tamburello</text>
<rect x="1302" y="816" width="94" height="24" rx="12" fill="#ff5a36" fill-opacity="0.16" stroke="#ff5a36" stroke-opacity="0.5"/>
<text x="1349" y="833" font-size="12" fill="#eef2fb" text-anchor="middle">Villeneuve</text>
<rect x="1198" y="850" width="126" height="24" rx="12" fill="#ff5a36" fill-opacity="0.16" stroke="#ff5a36" stroke-opacity="0.5"/>
<text x="1261" y="867" font-size="12" fill="#eef2fb" text-anchor="middle">Acque Minerali</text>
<rect x="1334" y="850" width="118" height="24" rx="12" fill="#ff5a36" fill-opacity="0.16" stroke="#ff5a36" stroke-opacity="0.5"/>
<text x="1393" y="867" font-size="12" fill="#eef2fb" text-anchor="middle">Variante Alta</text>
<rect x="1198" y="884" width="70" height="24" rx="12" fill="#ff5a36" fill-opacity="0.16" stroke="#ff5a36" stroke-opacity="0.5"/>
<text x="1233" y="901" font-size="12" fill="#eef2fb" text-anchor="middle">Rivazza</text>
<text x="90" y="966" font-size="12" fill="#566177">Geometry © OpenStreetMap contributors (ODbL) · corner data: Lovely-Sim-Racing + curated · track-atlas</text>
<text x="90" y="942" font-size="12" fill="#8794ab">⚑ start / finish</text>
</svg>