<svg xmlns="http://www.w3.org/2000/svg" width="1600" height="1000" viewBox="0 0 1600 1000" font-family="Helvetica, Arial, sans-serif">
<defs>
      <radialGradient id="bg" cx="38%" cy="34%" r="85%">
        <stop offset="0%" stop-color="#1b2030"/>
        <stop offset="55%" stop-color="#12151f"/>
        <stop offset="100%" stop-color="#0a0c12"/>
      </radialGradient>
      <linearGradient id="accent" x1="0" y1="0" x2="1" y2="1">
        <stop offset="0%" stop-color="#ff5a36"/>
        <stop offset="100%" stop-color="#ffffff"/>
      </linearGradient>
      <filter id="glow" x="-40%" y="-40%" width="180%" height="180%">
        <feGaussianBlur stdDeviation="6" result="b"/>
        <feMerge><feMergeNode in="b"/><feMergeNode in="SourceGraphic"/></feMerge>
      </filter>
    </defs>
<rect width="1600" height="1000" fill="url(#bg)"/>
<line x1="0" y1="0" x2="0" y2="1000" stroke="#ffffff" stroke-opacity="0.025"/>
<line x1="56" y1="0" x2="56" y2="1000" stroke="#ffffff" stroke-opacity="0.025"/>
<line x1="112" y1="0" x2="112" y2="1000" stroke="#ffffff" stroke-opacity="0.025"/>
<line x1="168" y1="0" x2="168" y2="1000" stroke="#ffffff" stroke-opacity="0.025"/>
<line x1="224" y1="0" x2="224" y2="1000" stroke="#ffffff" stroke-opacity="0.025"/>
<line x1="280" y1="0" x2="280" y2="1000" stroke="#ffffff" stroke-opacity="0.025"/>
<line x1="336" y1="0" x2="336" y2="1000" stroke="#ffffff" stroke-opacity="0.025"/>
<line x1="392" y1="0" x2="392" y2="1000" stroke="#ffffff" stroke-opacity="0.025"/>
<line x1="448" y1="0" x2="448" y2="1000" stroke="#ffffff" stroke-opacity="0.025"/>
<line x1="504" y1="0" x2="504" y2="1000" stroke="#ffffff" stroke-opacity="0.025"/>
<line x1="560" y1="0" x2="560" y2="1000" stroke="#ffffff" stroke-opacity="0.025"/>
<line x1="616" y1="0" x2="616" y2="1000" stroke="#ffffff" stroke-opacity="0.025"/>
<line x1="672" y1="0" x2="672" y2="1000" stroke="#ffffff" stroke-opacity="0.025"/>
<line x1="728" y1="0" x2="728" y2="1000" stroke="#ffffff" stroke-opacity="0.025"/>
<line x1="784" y1="0" x2="784" y2="1000" stroke="#ffffff" stroke-opacity="0.025"/>
<line x1="840" y1="0" x2="840" y2="1000" stroke="#ffffff" stroke-opacity="0.025"/>
<line x1="896" y1="0" x2="896" y2="1000" stroke="#ffffff" stroke-opacity="0.025"/>
<line x1="952" y1="0" x2="952" y2="1000" stroke="#ffffff" stroke-opacity="0.025"/>
<line x1="1008" y1="0" x2="1008" y2="1000" stroke="#ffffff" stroke-opacity="0.025"/>
<line x1="1064" y1="0" x2="1064" y2="1000" stroke="#ffffff" stroke-opacity="0.025"/>
<line x1="1120" y1="0" x2="1120" y2="1000" stroke="#ffffff" stroke-opacity="0.025"/>
<line x1="1176" y1="0" x2="1176" y2="1000" stroke="#ffffff" stroke-opacity="0.025"/>
<line x1="1232" y1="0" x2="1232" y2="1000" stroke="#ffffff" stroke-opacity="0.025"/>
<line x1="1288" y1="0" x2="1288" y2="1000" stroke="#ffffff" stroke-opacity="0.025"/>
<line x1="1344" y1="0" x2="1344" y2="1000" stroke="#ffffff" stroke-opacity="0.025"/>
<line x1="1400" y1="0" x2="1400" y2="1000" stroke="#ffffff" stroke-opacity="0.025"/>
<line x1="1456" y1="0" x2="1456" y2="1000" stroke="#ffffff" stroke-opacity="0.025"/>
<line x1="1512" y1="0" x2="1512" y2="1000" stroke="#ffffff" stroke-opacity="0.025"/>
<line x1="1568" y1="0" x2="1568" y2="1000" stroke="#ffffff" stroke-opacity="0.025"/>
<line x1="0" y1="0" x2="1600" y2="0" stroke="#ffffff" stroke-opacity="0.025"/>
<line x1="0" y1="56" x2="1600" y2="56" stroke="#ffffff" stroke-opacity="0.025"/>
<line x1="0" y1="112" x2="1600" y2="112" stroke="#ffffff" stroke-opacity="0.025"/>
<line x1="0" y1="168" x2="1600" y2="168" stroke="#ffffff" stroke-opacity="0.025"/>
<line x1="0" y1="224" x2="1600" y2="224" stroke="#ffffff" stroke-opacity="0.025"/>
<line x1="0" y1="280" x2="1600" y2="280" stroke="#ffffff" stroke-opacity="0.025"/>
<line x1="0" y1="336" x2="1600" y2="336" stroke="#ffffff" stroke-opacity="0.025"/>
<line x1="0" y1="392" x2="1600" y2="392" stroke="#ffffff" stroke-opacity="0.025"/>
<line x1="0" y1="448" x2="1600" y2="448" stroke="#ffffff" stroke-opacity="0.025"/>
<line x1="0" y1="504" x2="1600" y2="504" stroke="#ffffff" stroke-opacity="0.025"/>
<line x1="0" y1="560" x2="1600" y2="560" stroke="#ffffff" stroke-opacity="0.025"/>
<line x1="0" y1="616" x2="1600" y2="616" stroke="#ffffff" stroke-opacity="0.025"/>
<line x1="0" y1="672" x2="1600" y2="672" stroke="#ffffff" stroke-opacity="0.025"/>
<line x1="0" y1="728" x2="1600" y2="728" stroke="#ffffff" stroke-opacity="0.025"/>
<line x1="0" y1="784" x2="1600" y2="784" stroke="#ffffff" stroke-opacity="0.025"/>
<line x1="0" y1="840" x2="1600" y2="840" stroke="#ffffff" stroke-opacity="0.025"/>
<line x1="0" y1="896" x2="1600" y2="896" stroke="#ffffff" stroke-opacity="0.025"/>
<line x1="0" y1="952" x2="1600" y2="952" stroke="#ffffff" stroke-opacity="0.025"/>
<path d="M 99.4,304.4 L 101.2,306.4 L 107.8,314.0 L 115.5,320.7 L 123.5,327.4 L 138.4,339.1 L 148.5,346.6 L 157.4,352.7 L 178.4,366.4 L 197.5,377.8 L 215.5,387.4 L 229.8,394.4 L 233.9,396.4 L 245.9,401.7 L 261.7,408.4 L 286.0,417.0 L 328.2,431.9 L 381.6,450.9 L 466.3,480.7 L 482.9,486.7 L 487.8,488.2 L 491.0,489.0 L 497.0,489.6 L 503.5,489.1 L 509.8,487.7 L 517.8,485.3 L 525.0,483.0 L 532.5,480.2 L 538.7,477.4 L 544.9,474.7 L 550.2,471.7 L 560.1,465.4 L 566.0,461.4 L 570.4,458.1 L 579.4,450.5 L 598.2,433.0 L 607.1,424.7 L 638.3,395.9 L 640.9,393.7 L 649.3,387.1 L 652.9,384.6 L 656.6,382.1 L 659.1,380.6 L 660.9,380.0 L 662.7,379.6 L 664.4,379.6 L 666.0,380.0 L 667.4,380.8 L 678.7,390.7 L 680.9,392.2 L 683.4,393.0 L 686.0,393.2 L 688.6,392.7 L 691.0,391.6 L 693.1,389.9 L 703.1,381.0 L 709.9,376.4 L 715.8,373.4 L 722.1,371.0 L 730.2,369.8 L 736.5,369.6 L 742.7,369.9 L 747.4,370.5 L 749.6,370.8 L 754.5,371.5 L 757.3,372.2 L 765.3,374.7 L 770.7,376.8 L 782.7,383.5 L 792.5,390.5 L 799.8,396.8 L 807.3,404.0 L 817.1,415.1 L 830.6,431.0 L 937.8,561.0 L 1019.0,660.5 L 1027.3,670.7 L 1031.9,676.5 L 1035.6,683.2 L 1037.7,688.4 L 1038.8,692.0 L 1039.4,694.8 L 1039.9,699.0 L 1040.0,701.9 L 1039.6,706.8 L 1038.8,711.4 L 1037.7,715.7 L 1035.3,723.6 L 1030.6,737.3 L 1028.0,741.8 L 1025.6,745.3 L 1021.9,748.5 L 1017.6,751.1 L 1013.0,752.8 L 1008.1,753.8 L 1003.1,753.8 L 998.2,753.1 L 993.5,751.5 L 989.2,749.2 L 985.3,746.1 L 981.2,741.9 L 974.2,730.2 L 943.2,682.0 L 937.2,673.5 L 933.6,669.5 L 929.5,666.1 L 924.9,663.4 L 919.9,661.4 L 914.7,660.2 L 909.4,659.8 L 896.5,659.5 L 891.7,659.1 L 886.9,658.0 L 882.4,656.2 L 878.1,653.9 L 874.2,651.0 L 870.8,647.5 L 867.8,643.7 L 865.4,639.4 L 863.6,634.9 L 862.1,630.1 L 855.1,604.1 L 853.6,599.1 L 851.5,594.3 L 848.7,589.9 L 845.4,585.9 L 841.5,582.4 L 837.3,579.4 L 835.6,578.5 L 832.6,577.0 L 827.7,575.2 L 822.6,574.2 L 817.4,573.8 L 798.9,573.2 L 795.8,573.0 L 792.0,572.7 L 785.7,571.0 L 780.2,568.5 L 774.7,565.2 L 769.9,561.2 L 765.2,556.0 L 761.6,550.8 L 759.0,545.1 L 757.5,539.0 L 757.0,532.8 L 757.7,526.5 L 759.4,520.5 L 761.3,515.7 L 769.9,492.8 L 771.6,487.2 L 772.5,481.5 L 772.6,475.6 L 771.7,469.8 L 770.1,464.2 L 767.6,458.9 L 764.4,454.0 L 760.5,449.7 L 756.1,445.9 L 748.4,441.4 L 739.4,436.9 L 732.3,433.7 L 725.1,430.8 L 720.0,428.9 L 715.3,427.8 L 711.0,426.8 L 704.8,425.9 L 699.6,425.4 L 688.5,425.2 L 682.7,425.5 L 676.0,425.9 L 668.7,427.2 L 661.2,429.8 L 645.3,436.8 L 638.1,440.5 L 630.6,445.1 L 624.5,449.7 L 620.8,453.1 L 618.2,455.6 L 615.6,458.1 L 609.1,464.8 L 566.2,516.7 L 564.3,519.0 L 561.3,521.9 L 558.6,523.0 L 495.5,528.6 L 490.4,528.6 L 488.0,527.8 L 485.8,526.5 L 484.0,524.8 L 482.6,522.6 L 481.7,520.2 L 481.1,517.7 L 458.4,402.0 L 455.9,389.2 L 455.0,381.7 L 455.1,375.6 L 456.1,369.4 L 459.2,359.9 L 464.2,349.2 L 475.3,323.9 L 476.3,320.3 L 475.9,316.4 L 474.5,313.4 L 472.3,311.0 L 469.3,309.4 L 466.0,308.9 L 462.9,309.4 L 459.7,310.8 L 457.2,313.3 L 455.1,316.0 L 442.1,337.9 L 439.4,341.9 L 430.9,355.4 L 421.7,370.2 L 416.4,376.7 L 411.8,382.1 L 405.0,389.0 L 401.2,392.4 L 397.3,395.3 L 385.4,402.3 L 373.9,405.9 L 360.3,407.5 L 351.5,408.3 L 342.5,408.7 L 335.8,408.6 L 327.7,407.8 L 315.7,406.2 L 299.0,402.1 L 284.1,397.1 L 269.0,391.6 L 258.6,386.8 L 248.3,380.8 L 239.6,374.9 L 229.7,366.8 L 224.1,361.0 L 219.2,355.4 L 215.3,350.6 L 211.0,344.7 L 205.6,335.8 L 200.8,326.2 L 186.5,292.9 L 173.2,262.6 L 171.5,259.7 L 169.7,257.5 L 167.6,255.2 L 165.1,253.0 L 162.1,250.9 L 159.2,249.4 L 155.9,248.0 L 152.3,247.1 L 144.7,246.2 L 134.9,246.5 L 128.6,247.2 L 121.5,248.5 L 112.9,250.7 L 107.9,252.7 L 103.2,254.9 L 100.8,256.3 L 98.2,258.5 L 95.9,261.3 L 93.5,265.3 L 91.8,269.1 L 90.3,274.3 L 90.0,279.8 L 90.4,284.6 L 91.8,290.2 L 93.6,295.0 L 96.9,301.0 L 99.4,304.4 Z" fill="none" stroke="#000000" stroke-opacity="0.5" stroke-width="13" stroke-linejoin="round" stroke-linecap="round"/>
<path d="M 99.4,304.4 L 101.2,306.4 L 107.8,314.0 L 115.5,320.7 L 123.5,327.4 L 138.4,339.1 L 148.5,346.6 L 157.4,352.7 L 178.4,366.4 L 197.5,377.8 L 215.5,387.4 L 229.8,394.4 L 233.9,396.4 L 245.9,401.7 L 261.7,408.4 L 286.0,417.0 L 328.2,431.9 L 381.6,450.9 L 466.3,480.7 L 482.9,486.7 L 487.8,488.2 L 491.0,489.0 L 497.0,489.6 L 503.5,489.1 L 509.8,487.7 L 517.8,485.3 L 525.0,483.0 L 532.5,480.2 L 538.7,477.4 L 544.9,474.7 L 550.2,471.7 L 560.1,465.4 L 566.0,461.4 L 570.4,458.1 L 579.4,450.5 L 598.2,433.0 L 607.1,424.7 L 638.3,395.9 L 640.9,393.7 L 649.3,387.1 L 652.9,384.6 L 656.6,382.1 L 659.1,380.6 L 660.9,380.0 L 662.7,379.6 L 664.4,379.6 L 666.0,380.0 L 667.4,380.8 L 678.7,390.7 L 680.9,392.2 L 683.4,393.0 L 686.0,393.2 L 688.6,392.7 L 691.0,391.6 L 693.1,389.9 L 703.1,381.0 L 709.9,376.4 L 715.8,373.4 L 722.1,371.0 L 730.2,369.8 L 736.5,369.6 L 742.7,369.9 L 747.4,370.5 L 749.6,370.8 L 754.5,371.5 L 757.3,372.2 L 765.3,374.7 L 770.7,376.8 L 782.7,383.5 L 792.5,390.5 L 799.8,396.8 L 807.3,404.0 L 817.1,415.1 L 830.6,431.0 L 937.8,561.0 L 1019.0,660.5 L 1027.3,670.7 L 1031.9,676.5 L 1035.6,683.2 L 1037.7,688.4 L 1038.8,692.0 L 1039.4,694.8 L 1039.9,699.0 L 1040.0,701.9 L 1039.6,706.8 L 1038.8,711.4 L 1037.7,715.7 L 1035.3,723.6 L 1030.6,737.3 L 1028.0,741.8 L 1025.6,745.3 L 1021.9,748.5 L 1017.6,751.1 L 1013.0,752.8 L 1008.1,753.8 L 1003.1,753.8 L 998.2,753.1 L 993.5,751.5 L 989.2,749.2 L 985.3,746.1 L 981.2,741.9 L 974.2,730.2 L 943.2,682.0 L 937.2,673.5 L 933.6,669.5 L 929.5,666.1 L 924.9,663.4 L 919.9,661.4 L 914.7,660.2 L 909.4,659.8 L 896.5,659.5 L 891.7,659.1 L 886.9,658.0 L 882.4,656.2 L 878.1,653.9 L 874.2,651.0 L 870.8,647.5 L 867.8,643.7 L 865.4,639.4 L 863.6,634.9 L 862.1,630.1 L 855.1,604.1 L 853.6,599.1 L 851.5,594.3 L 848.7,589.9 L 845.4,585.9 L 841.5,582.4 L 837.3,579.4 L 835.6,578.5 L 832.6,577.0 L 827.7,575.2 L 822.6,574.2 L 817.4,573.8 L 798.9,573.2 L 795.8,573.0 L 792.0,572.7 L 785.7,571.0 L 780.2,568.5 L 774.7,565.2 L 769.9,561.2 L 765.2,556.0 L 761.6,550.8 L 759.0,545.1 L 757.5,539.0 L 757.0,532.8 L 757.7,526.5 L 759.4,520.5 L 761.3,515.7 L 769.9,492.8 L 771.6,487.2 L 772.5,481.5 L 772.6,475.6 L 771.7,469.8 L 770.1,464.2 L 767.6,458.9 L 764.4,454.0 L 760.5,449.7 L 756.1,445.9 L 748.4,441.4 L 739.4,436.9 L 732.3,433.7 L 725.1,430.8 L 720.0,428.9 L 715.3,427.8 L 711.0,426.8 L 704.8,425.9 L 699.6,425.4 L 688.5,425.2 L 682.7,425.5 L 676.0,425.9 L 668.7,427.2 L 661.2,429.8 L 645.3,436.8 L 638.1,440.5 L 630.6,445.1 L 624.5,449.7 L 620.8,453.1 L 618.2,455.6 L 615.6,458.1 L 609.1,464.8 L 566.2,516.7 L 564.3,519.0 L 561.3,521.9 L 558.6,523.0 L 495.5,528.6 L 490.4,528.6 L 488.0,527.8 L 485.8,526.5 L 484.0,524.8 L 482.6,522.6 L 481.7,520.2 L 481.1,517.7 L 458.4,402.0 L 455.9,389.2 L 455.0,381.7 L 455.1,375.6 L 456.1,369.4 L 459.2,359.9 L 464.2,349.2 L 475.3,323.9 L 476.3,320.3 L 475.9,316.4 L 474.5,313.4 L 472.3,311.0 L 469.3,309.4 L 466.0,308.9 L 462.9,309.4 L 459.7,310.8 L 457.2,313.3 L 455.1,316.0 L 442.1,337.9 L 439.4,341.9 L 430.9,355.4 L 421.7,370.2 L 416.4,376.7 L 411.8,382.1 L 405.0,389.0 L 401.2,392.4 L 397.3,395.3 L 385.4,402.3 L 373.9,405.9 L 360.3,407.5 L 351.5,408.3 L 342.5,408.7 L 335.8,408.6 L 327.7,407.8 L 315.7,406.2 L 299.0,402.1 L 284.1,397.1 L 269.0,391.6 L 258.6,386.8 L 248.3,380.8 L 239.6,374.9 L 229.7,366.8 L 224.1,361.0 L 219.2,355.4 L 215.3,350.6 L 211.0,344.7 L 205.6,335.8 L 200.8,326.2 L 186.5,292.9 L 173.2,262.6 L 171.5,259.7 L 169.7,257.5 L 167.6,255.2 L 165.1,253.0 L 162.1,250.9 L 159.2,249.4 L 155.9,248.0 L 152.3,247.1 L 144.7,246.2 L 134.9,246.5 L 128.6,247.2 L 121.5,248.5 L 112.9,250.7 L 107.9,252.7 L 103.2,254.9 L 100.8,256.3 L 98.2,258.5 L 95.9,261.3 L 93.5,265.3 L 91.8,269.1 L 90.3,274.3 L 90.0,279.8 L 90.4,284.6 L 91.8,290.2 L 93.6,295.0 L 96.9,301.0 L 99.4,304.4 Z" fill="none" stroke="#39404f" stroke-width="8.5" stroke-linejoin="round" stroke-linecap="round"/>
<path d="M 99.4,304.4 L 101.2,306.4 L 107.8,314.0 L 115.5,320.7 L 123.5,327.4 L 138.4,339.1 L 148.5,346.6 L 157.4,352.7 L 178.4,366.4 L 197.5,377.8 L 215.5,387.4 L 229.8,394.4 L 233.9,396.4 L 245.9,401.7 L 261.7,408.4 L 286.0,417.0 L 328.2,431.9 L 381.6,450.9 L 466.3,480.7 L 482.9,486.7 L 487.8,488.2 L 491.0,489.0 L 497.0,489.6 L 503.5,489.1 L 509.8,487.7 L 517.8,485.3 L 525.0,483.0 L 532.5,480.2 L 538.7,477.4 L 544.9,474.7 L 550.2,471.7 L 560.1,465.4 L 566.0,461.4 L 570.4,458.1 L 579.4,450.5 L 598.2,433.0 L 607.1,424.7 L 638.3,395.9 L 640.9,393.7 L 649.3,387.1 L 652.9,384.6 L 656.6,382.1 L 659.1,380.6 L 660.9,380.0 L 662.7,379.6 L 664.4,379.6 L 666.0,380.0 L 667.4,380.8 L 678.7,390.7 L 680.9,392.2 L 683.4,393.0 L 686.0,393.2 L 688.6,392.7 L 691.0,391.6 L 693.1,389.9 L 703.1,381.0 L 709.9,376.4 L 715.8,373.4 L 722.1,371.0 L 730.2,369.8 L 736.5,369.6 L 742.7,369.9 L 747.4,370.5 L 749.6,370.8 L 754.5,371.5 L 757.3,372.2 L 765.3,374.7 L 770.7,376.8 L 782.7,383.5 L 792.5,390.5 L 799.8,396.8 L 807.3,404.0 L 817.1,415.1 L 830.6,431.0 L 937.8,561.0 L 1019.0,660.5 L 1027.3,670.7 L 1031.9,676.5 L 1035.6,683.2 L 1037.7,688.4 L 1038.8,692.0 L 1039.4,694.8 L 1039.9,699.0 L 1040.0,701.9 L 1039.6,706.8 L 1038.8,711.4 L 1037.7,715.7 L 1035.3,723.6 L 1030.6,737.3 L 1028.0,741.8 L 1025.6,745.3 L 1021.9,748.5 L 1017.6,751.1 L 1013.0,752.8 L 1008.1,753.8 L 1003.1,753.8 L 998.2,753.1 L 993.5,751.5 L 989.2,749.2 L 985.3,746.1 L 981.2,741.9 L 974.2,730.2 L 943.2,682.0 L 937.2,673.5 L 933.6,669.5 L 929.5,666.1 L 924.9,663.4 L 919.9,661.4 L 914.7,660.2 L 909.4,659.8 L 896.5,659.5 L 891.7,659.1 L 886.9,658.0 L 882.4,656.2 L 878.1,653.9 L 874.2,651.0 L 870.8,647.5 L 867.8,643.7 L 865.4,639.4 L 863.6,634.9 L 862.1,630.1 L 855.1,604.1 L 853.6,599.1 L 851.5,594.3 L 848.7,589.9 L 845.4,585.9 L 841.5,582.4 L 837.3,579.4 L 835.6,578.5 L 832.6,577.0 L 827.7,575.2 L 822.6,574.2 L 817.4,573.8 L 798.9,573.2 L 795.8,573.0 L 792.0,572.7 L 785.7,571.0 L 780.2,568.5 L 774.7,565.2 L 769.9,561.2 L 765.2,556.0 L 761.6,550.8 L 759.0,545.1 L 757.5,539.0 L 757.0,532.8 L 757.7,526.5 L 759.4,520.5 L 761.3,515.7 L 769.9,492.8 L 771.6,487.2 L 772.5,481.5 L 772.6,475.6 L 771.7,469.8 L 770.1,464.2 L 767.6,458.9 L 764.4,454.0 L 760.5,449.7 L 756.1,445.9 L 748.4,441.4 L 739.4,436.9 L 732.3,433.7 L 725.1,430.8 L 720.0,428.9 L 715.3,427.8 L 711.0,426.8 L 704.8,425.9 L 699.6,425.4 L 688.5,425.2 L 682.7,425.5 L 676.0,425.9 L 668.7,427.2 L 661.2,429.8 L 645.3,436.8 L 638.1,440.5 L 630.6,445.1 L 624.5,449.7 L 620.8,453.1 L 618.2,455.6 L 615.6,458.1 L 609.1,464.8 L 566.2,516.7 L 564.3,519.0 L 561.3,521.9 L 558.6,523.0 L 495.5,528.6 L 490.4,528.6 L 488.0,527.8 L 485.8,526.5 L 484.0,524.8 L 482.6,522.6 L 481.7,520.2 L 481.1,517.7 L 458.4,402.0 L 455.9,389.2 L 455.0,381.7 L 455.1,375.6 L 456.1,369.4 L 459.2,359.9 L 464.2,349.2 L 475.3,323.9 L 476.3,320.3 L 475.9,316.4 L 474.5,313.4 L 472.3,311.0 L 469.3,309.4 L 466.0,308.9 L 462.9,309.4 L 459.7,310.8 L 457.2,313.3 L 455.1,316.0 L 442.1,337.9 L 439.4,341.9 L 430.9,355.4 L 421.7,370.2 L 416.4,376.7 L 411.8,382.1 L 405.0,389.0 L 401.2,392.4 L 397.3,395.3 L 385.4,402.3 L 373.9,405.9 L 360.3,407.5 L 351.5,408.3 L 342.5,408.7 L 335.8,408.6 L 327.7,407.8 L 315.7,406.2 L 299.0,402.1 L 284.1,397.1 L 269.0,391.6 L 258.6,386.8 L 248.3,380.8 L 239.6,374.9 L 229.7,366.8 L 224.1,361.0 L 219.2,355.4 L 215.3,350.6 L 211.0,344.7 L 205.6,335.8 L 200.8,326.2 L 186.5,292.9 L 173.2,262.6 L 171.5,259.7 L 169.7,257.5 L 167.6,255.2 L 165.1,253.0 L 162.1,250.9 L 159.2,249.4 L 155.9,248.0 L 152.3,247.1 L 144.7,246.2 L 134.9,246.5 L 128.6,247.2 L 121.5,248.5 L 112.9,250.7 L 107.9,252.7 L 103.2,254.9 L 100.8,256.3 L 98.2,258.5 L 95.9,261.3 L 93.5,265.3 L 91.8,269.1 L 90.3,274.3 L 90.0,279.8 L 90.4,284.6 L 91.8,290.2 L 93.6,295.0 L 96.9,301.0 L 99.4,304.4 Z" fill="none" stroke="#e7edf8" stroke-width="2.6" stroke-linejoin="round" stroke-linecap="round"/>
<path d="M 99.4,304.4 L 101.2,306.4 L 107.8,314.0 L 115.5,320.7 L 123.5,327.4 L 138.4,339.1 L 148.5,346.6 L 157.4,352.7 L 178.4,366.4 L 197.5,377.8 L 215.5,387.4 L 229.8,394.4 L 233.9,396.4 L 245.9,401.7 L 261.7,408.4 L 286.0,417.0 L 328.2,431.9 L 381.6,450.9 L 466.3,480.7 L 482.9,486.7 L 487.8,488.2 L 491.0,489.0 L 497.0,489.6 L 503.5,489.1 L 509.8,487.7 L 517.8,485.3 L 525.0,483.0 L 532.5,480.2 L 538.7,477.4 L 544.9,474.7 L 550.2,471.7 L 560.1,465.4 L 566.0,461.4 L 570.4,458.1 L 579.4,450.5 L 598.2,433.0 L 607.1,424.7 L 638.3,395.9 L 640.9,393.7 L 649.3,387.1 L 652.9,384.6 L 656.6,382.1 L 659.1,380.6 L 660.9,380.0 L 662.7,379.6 L 664.4,379.6 L 666.0,380.0 L 667.4,380.8 L 678.7,390.7 L 680.9,392.2 L 683.4,393.0 L 686.0,393.2 L 688.6,392.7 L 691.0,391.6 L 693.1,389.9 L 703.1,381.0 L 709.9,376.4 L 715.8,373.4 L 722.1,371.0 L 730.2,369.8 L 736.5,369.6 L 742.7,369.9 L 747.4,370.5 L 749.6,370.8 L 754.5,371.5 L 757.3,372.2 L 765.3,374.7 L 770.7,376.8 L 782.7,383.5 L 792.5,390.5 L 799.8,396.8 L 807.3,404.0 L 817.1,415.1 L 830.6,431.0 L 937.8,561.0 L 1019.0,660.5 L 1027.3,670.7 L 1031.9,676.5 L 1035.6,683.2 L 1037.7,688.4 L 1038.8,692.0 L 1039.4,694.8 L 1039.9,699.0 L 1040.0,701.9 L 1039.6,706.8 L 1038.8,711.4 L 1037.7,715.7 L 1035.3,723.6 L 1030.6,737.3 L 1028.0,741.8 L 1025.6,745.3 L 1021.9,748.5 L 1017.6,751.1 L 1013.0,752.8 L 1008.1,753.8 L 1003.1,753.8 L 998.2,753.1 L 993.5,751.5 L 989.2,749.2 L 985.3,746.1 L 981.2,741.9 L 974.2,730.2 L 943.2,682.0 L 937.2,673.5 L 933.6,669.5 L 929.5,666.1 L 924.9,663.4 L 919.9,661.4 L 914.7,660.2 L 909.4,659.8 L 896.5,659.5 L 891.7,659.1 L 886.9,658.0 L 882.4,656.2 L 878.1,653.9 L 874.2,651.0 L 870.8,647.5 L 867.8,643.7 L 865.4,639.4 L 863.6,634.9 L 862.1,630.1 L 855.1,604.1 L 853.6,599.1 L 851.5,594.3 L 848.7,589.9 L 845.4,585.9 L 841.5,582.4 L 837.3,579.4 L 835.6,578.5 L 832.6,577.0 L 827.7,575.2 L 822.6,574.2 L 817.4,573.8 L 798.9,573.2 L 795.8,573.0 L 792.0,572.7 L 785.7,571.0 L 780.2,568.5 L 774.7,565.2 L 769.9,561.2 L 765.2,556.0 L 761.6,550.8 L 759.0,545.1 L 757.5,539.0 L 757.0,532.8 L 757.7,526.5 L 759.4,520.5 L 761.3,515.7 L 769.9,492.8 L 771.6,487.2 L 772.5,481.5 L 772.6,475.6 L 771.7,469.8 L 770.1,464.2 L 767.6,458.9 L 764.4,454.0 L 760.5,449.7 L 756.1,445.9 L 748.4,441.4 L 739.4,436.9 L 732.3,433.7 L 725.1,430.8 L 720.0,428.9 L 715.3,427.8 L 711.0,426.8 L 704.8,425.9 L 699.6,425.4 L 688.5,425.2 L 682.7,425.5 L 676.0,425.9 L 668.7,427.2 L 661.2,429.8 L 645.3,436.8 L 638.1,440.5 L 630.6,445.1 L 624.5,449.7 L 620.8,453.1 L 618.2,455.6 L 615.6,458.1 L 609.1,464.8 L 566.2,516.7 L 564.3,519.0 L 561.3,521.9 L 558.6,523.0 L 495.5,528.6 L 490.4,528.6 L 488.0,527.8 L 485.8,526.5 L 484.0,524.8 L 482.6,522.6 L 481.7,520.2 L 481.1,517.7 L 458.4,402.0 L 455.9,389.2 L 455.0,381.7 L 455.1,375.6 L 456.1,369.4 L 459.2,359.9 L 464.2,349.2 L 475.3,323.9 L 476.3,320.3 L 475.9,316.4 L 474.5,313.4 L 472.3,311.0 L 469.3,309.4 L 466.0,308.9 L 462.9,309.4 L 459.7,310.8 L 457.2,313.3 L 455.1,316.0 L 442.1,337.9 L 439.4,341.9 L 430.9,355.4 L 421.7,370.2 L 416.4,376.7 L 411.8,382.1 L 405.0,389.0 L 401.2,392.4 L 397.3,395.3 L 385.4,402.3 L 373.9,405.9 L 360.3,407.5 L 351.5,408.3 L 342.5,408.7 L 335.8,408.6 L 327.7,407.8 L 315.7,406.2 L 299.0,402.1 L 284.1,397.1 L 269.0,391.6 L 258.6,386.8 L 248.3,380.8 L 239.6,374.9 L 229.7,366.8 L 224.1,361.0 L 219.2,355.4 L 215.3,350.6 L 211.0,344.7 L 205.6,335.8 L 200.8,326.2 L 186.5,292.9 L 173.2,262.6 L 171.5,259.7 L 169.7,257.5 L 167.6,255.2 L 165.1,253.0 L 162.1,250.9 L 159.2,249.4 L 155.9,248.0 L 152.3,247.1 L 144.7,246.2 L 134.9,246.5 L 128.6,247.2 L 121.5,248.5 L 112.9,250.7 L 107.9,252.7 L 103.2,254.9 L 100.8,256.3 L 98.2,258.5 L 95.9,261.3 L 93.5,265.3 L 91.8,269.1 L 90.3,274.3 L 90.0,279.8 L 90.4,284.6 L 91.8,290.2 L 93.6,295.0 L 96.9,301.0 L 99.4,304.4 Z" fill="none" stroke="#ff5a36" stroke-opacity="0.55" stroke-width="1.2" stroke-linejoin="round" filter="url(#glow)"/>
<circle cx="99.4" cy="304.4" r="13" fill="none" stroke="#ffffff" stroke-width="3"/>
<rect x="95.4" y="282.4" width="8" height="18" fill="#ffffff"/>
<circle cx="394.9" cy="455.6" r="7" fill="#ff5a36" stroke="#0a0c12" stroke-width="2.5" filter="url(#glow)"/>
<text x="394.9" y="459.0" font-size="9" font-weight="700" fill="#0a0c12" text-anchor="middle">1</text>
<circle cx="465.2" cy="480.3" r="7" fill="#ff5a36" stroke="#0a0c12" stroke-width="2.5" filter="url(#glow)"/>
<text x="465.2" y="483.7" font-size="9" font-weight="700" fill="#0a0c12" text-anchor="middle">2</text>
<circle cx="583.9" cy="446.3" r="7" fill="#ff5a36" stroke="#0a0c12" stroke-width="2.5" filter="url(#glow)"/>
<text x="583.9" y="449.7" font-size="9" font-weight="700" fill="#0a0c12" text-anchor="middle">3</text>
<circle cx="622.1" cy="410.9" r="7" fill="#ff5a36" stroke="#0a0c12" stroke-width="2.5" filter="url(#glow)"/>
<text x="622.1" y="414.3" font-size="9" font-weight="700" fill="#0a0c12" text-anchor="middle">4</text>
<circle cx="680.6" cy="392.0" r="7" fill="#ff5a36" stroke="#0a0c12" stroke-width="2.5" filter="url(#glow)"/>
<text x="680.6" y="395.4" font-size="9" font-weight="700" fill="#0a0c12" text-anchor="middle">5</text>
<circle cx="759.2" cy="372.8" r="7" fill="#ff5a36" stroke="#0a0c12" stroke-width="2.5" filter="url(#glow)"/>
<text x="759.2" y="376.2" font-size="9" font-weight="700" fill="#0a0c12" text-anchor="middle">6</text>
<circle cx="833.3" cy="434.2" r="7" fill="#ff5a36" stroke="#0a0c12" stroke-width="2.5" filter="url(#glow)"/>
<text x="833.3" y="437.6" font-size="9" font-weight="700" fill="#0a0c12" text-anchor="middle">7</text>
<circle cx="999.3" cy="636.3" r="7" fill="#ff5a36" stroke="#0a0c12" stroke-width="2.5" filter="url(#glow)"/>
<text x="999.3" y="639.7" font-size="9" font-weight="700" fill="#0a0c12" text-anchor="middle">8</text>
<circle cx="1040.0" cy="702.1" r="7" fill="#ff5a36" stroke="#0a0c12" stroke-width="2.5" filter="url(#glow)"/>
<text x="1040.0" y="705.5" font-size="9" font-weight="700" fill="#0a0c12" text-anchor="middle">9</text>
<circle cx="947.4" cy="688.4" r="7" fill="#ff5a36" stroke="#0a0c12" stroke-width="2.5" filter="url(#glow)"/>
<text x="947.4" y="691.8" font-size="9" font-weight="700" fill="#0a0c12" text-anchor="middle">10</text>
<circle cx="894.0" cy="659.3" r="7" fill="#ff5a36" stroke="#0a0c12" stroke-width="2.5" filter="url(#glow)"/>
<text x="894.0" y="662.7" font-size="9" font-weight="700" fill="#0a0c12" text-anchor="middle">11</text>
<circle cx="817.8" cy="573.8" r="7" fill="#ff5a36" stroke="#0a0c12" stroke-width="2.5" filter="url(#glow)"/>
<text x="817.8" y="577.2" font-size="9" font-weight="700" fill="#0a0c12" text-anchor="middle">12</text>
<circle cx="635.9" cy="441.9" r="7" fill="#ff5a36" stroke="#0a0c12" stroke-width="2.5" filter="url(#glow)"/>
<text x="635.9" y="445.3" font-size="9" font-weight="700" fill="#0a0c12" text-anchor="middle">13</text>
<circle cx="580.3" cy="499.7" r="7" fill="#ff5a36" stroke="#0a0c12" stroke-width="2.5" filter="url(#glow)"/>
<text x="580.3" y="503.1" font-size="9" font-weight="700" fill="#0a0c12" text-anchor="middle">14</text>
<circle cx="528.5" cy="477.4" r="7" fill="#ff5a36" stroke="#0a0c12" stroke-width="2.5" filter="url(#glow)"/>
<text x="528.5" y="480.8" font-size="9" font-weight="700" fill="#0a0c12" text-anchor="middle">15</text>
<circle cx="198.2" cy="320.3" r="7" fill="#ff5a36" stroke="#0a0c12" stroke-width="2.5" filter="url(#glow)"/>
<text x="198.2" y="323.7" font-size="9" font-weight="700" fill="#0a0c12" text-anchor="middle">16</text>
<circle cx="188.3" cy="297.3" r="7" fill="#ff5a36" stroke="#0a0c12" stroke-width="2.5" filter="url(#glow)"/>
<text x="188.3" y="300.7" font-size="9" font-weight="700" fill="#0a0c12" text-anchor="middle">17</text>
<circle cx="172.1" cy="260.8" r="7" fill="#ff5a36" stroke="#0a0c12" stroke-width="2.5" filter="url(#glow)"/>
<text x="172.1" y="264.2" font-size="9" font-weight="700" fill="#0a0c12" text-anchor="middle">18</text>
<line x1="394.9" y1="455.6" x2="342.9" y2="454.5" stroke="#ff5a36" stroke-opacity="0.45" stroke-width="1.3"/>
<text x="334.9" y="458.5" font-size="15" font-weight="600" fill="#eef2fb" text-anchor="end">First Corner</text>
<line x1="465.2" y1="480.3" x2="413.9" y2="489.0" stroke="#ff5a36" stroke-opacity="0.45" stroke-width="1.3"/>
<text x="405.9" y="493.0" font-size="15" font-weight="600" fill="#eef2fb" text-anchor="end">First Corner</text>
<line x1="583.9" y1="446.3" x2="565.9" y2="397.5" stroke="#ff5a36" stroke-opacity="0.45" stroke-width="1.3"/>
<text x="557.9" y="401.5" font-size="15" font-weight="600" fill="#eef2fb" text-anchor="end">Snake/S Curves</text>
<line x1="622.1" y1="410.9" x2="651.4" y2="409.2" stroke="#ff5a36" stroke-opacity="0.45" stroke-width="1.3"/>
<text x="659.4" y="413.2" font-size="15" font-weight="600" fill="#eef2fb" text-anchor="start">Snake/S Curves</text>
<line x1="680.6" y1="392.0" x2="722.5" y2="379.2" stroke="#ff5a36" stroke-opacity="0.45" stroke-width="1.3"/>
<text x="730.5" y="383.2" font-size="15" font-weight="600" fill="#eef2fb" text-anchor="start">Snake/S Curves</text>
<line x1="759.2" y1="372.8" x2="805.6" y2="349.2" stroke="#ff5a36" stroke-opacity="0.45" stroke-width="1.3"/>
<text x="813.6" y="353.2" font-size="15" font-weight="600" fill="#eef2fb" text-anchor="start">Snake/S Curves</text>
<line x1="833.3" y1="434.2" x2="885.0" y2="469.2" stroke="#ff5a36" stroke-opacity="0.45" stroke-width="1.3"/>
<text x="893.0" y="473.2" font-size="15" font-weight="600" fill="#eef2fb" text-anchor="start">Snake/S Curves</text>
<line x1="999.3" y1="636.3" x2="1047.0" y2="656.9" stroke="#ff5a36" stroke-opacity="0.45" stroke-width="1.3"/>
<text x="1055.0" y="660.9" font-size="15" font-weight="600" fill="#eef2fb" text-anchor="start">Degner Curve</text>
<line x1="1040.0" y1="702.1" x2="1085.8" y2="747.8" stroke="#ff5a36" stroke-opacity="0.45" stroke-width="1.3"/>
<text x="1093.8" y="751.8" font-size="15" font-weight="600" fill="#eef2fb" text-anchor="start">T9</text>
<line x1="947.4" y1="688.4" x2="991.2" y2="717.8" stroke="#ff5a36" stroke-opacity="0.45" stroke-width="1.3"/>
<text x="999.2" y="721.8" font-size="15" font-weight="600" fill="#eef2fb" text-anchor="start">T10</text>
<line x1="894.0" y1="659.3" x2="937.5" y2="687.8" stroke="#ff5a36" stroke-opacity="0.45" stroke-width="1.3"/>
<text x="945.5" y="691.8" font-size="15" font-weight="600" fill="#eef2fb" text-anchor="start">Hairpin</text>
<line x1="817.8" y1="573.8" x2="864.3" y2="597.0" stroke="#ff5a36" stroke-opacity="0.45" stroke-width="1.3"/>
<text x="872.3" y="601.0" font-size="15" font-weight="600" fill="#eef2fb" text-anchor="start">T12</text>
<line x1="635.9" y1="441.9" x2="684.5" y2="439.2" stroke="#ff5a36" stroke-opacity="0.45" stroke-width="1.3"/>
<text x="692.5" y="443.2" font-size="15" font-weight="600" fill="#eef2fb" text-anchor="start">Spoon Curve</text>
<line x1="580.3" y1="499.7" x2="569.4" y2="550.6" stroke="#ff5a36" stroke-opacity="0.45" stroke-width="1.3"/>
<text x="561.4" y="554.6" font-size="15" font-weight="600" fill="#eef2fb" text-anchor="end">Spoon Curve</text>
<line x1="528.5" y1="477.4" x2="478.7" y2="519.0" stroke="#ff5a36" stroke-opacity="0.45" stroke-width="1.3"/>
<text x="470.7" y="523.0" font-size="15" font-weight="600" fill="#eef2fb" text-anchor="end">130R</text>
<line x1="198.2" y1="320.3" x2="149.2" y2="307.7" stroke="#ff5a36" stroke-opacity="0.45" stroke-width="1.3"/>
<text x="141.2" y="311.7" font-size="15" font-weight="600" fill="#eef2fb" text-anchor="end">Casio Triangle</text>
<line x1="188.3" y1="297.3" x2="140.2" y2="277.7" stroke="#ff5a36" stroke-opacity="0.45" stroke-width="1.3"/>
<text x="132.2" y="281.7" font-size="15" font-weight="600" fill="#eef2fb" text-anchor="end">Casio Triangle</text>
<line x1="172.1" y1="260.8" x2="125.1" y2="238.4" stroke="#ff5a36" stroke-opacity="0.45" stroke-width="1.3"/>
<text x="117.1" y="242.4" font-size="15" font-weight="600" fill="#eef2fb" text-anchor="end">Last Curve</text>
<text x="90" y="64" font-size="20" letter-spacing="5" fill="#ff5a36" font-weight="700">TRACK ATLAS</text>
<text x="90" y="108" font-size="42" font-weight="800" fill="#ffffff">SUZUKA INTERNATIONAL RACING COURSE</text>
<text x="90" y="136" font-size="16" fill="#9aa6bd">Suzuka</text>
<rect x="1170" y="200" width="360" height="710" rx="16" fill="#ffffff" fill-opacity="0.04" stroke="#ff5a36" stroke-opacity="0.5"/>
<text x="1198" y="250" font-size="13" letter-spacing="2" fill="#8794ab">LAYOUT</text>
<text x="1198" y="276" font-size="22" font-weight="700" fill="#eef2fb">Grand Prix Circuit</text>
<text x="1198" y="320" font-size="13" letter-spacing="2" fill="#8794ab">LENGTH</text>
<text x="1198" y="346" font-size="22" font-weight="700" fill="#eef2fb">5.807 km</text>
<text x="1198" y="390" font-size="13" letter-spacing="2" fill="#8794ab">CORNERS</text>
<text x="1198" y="416" font-size="22" font-weight="700" fill="#eef2fb">18</text>
<text x="1198" y="460" font-size="13" letter-spacing="2" fill="#8794ab">NAMED CORNERS</text>
<text x="1198" y="486" font-size="22" font-weight="700" fill="#eef2fb">18</text>
<text x="1198" y="530" font-size="13" letter-spacing="2" fill="#8794ab">DIRECTION</text>
<text x="1198" y="556" font-size="22" font-weight="700" fill="#eef2fb">Clockwise</text>
<text x="1198" y="600" font-size="13" letter-spacing="2" fill="#8794ab">SECTORS</text>
<text x="1198" y="626" font-size="22" font-weight="700" fill="#eef2fb">3</text>
<text x="1198" y="670" font-size="13" letter-spacing="2" fill="#8794ab">COUNTRY</text>
<text x="1198" y="696" font-size="22" font-weight="700" fill="#eef2fb">Japan</text>
<text x="1198" y="740" font-size="13" letter-spacing="2" fill="#8794ab">LOCATION</text>
<text x="1198" y="766" font-size="22" font-weight="700" fill="#eef2fb">Suzuka, Mie</text>
<text x="90" y="966" font-size="12" fill="#566177">Geometry © OpenStreetMap contributors (ODbL) · corner data: Lovely-Sim-Racing + curated · track-atlas</text>
<text x="90" y="942" font-size="12" fill="#8794ab">⚑ start / finish</text>
</svg>