<svg xmlns="http://www.w3.org/2000/svg" width="1600" height="1000" viewBox="0 0 1600 1000" font-family="Helvetica, Arial, sans-serif">
<defs>
      <radialGradient id="bg" cx="38%" cy="34%" r="85%">
        <stop offset="0%" stop-color="#1b2030"/>
        <stop offset="55%" stop-color="#12151f"/>
        <stop offset="100%" stop-color="#0a0c12"/>
      </radialGradient>
      <linearGradient id="accent" x1="0" y1="0" x2="1" y2="1">
        <stop offset="0%" stop-color="#ff5a36"/>
        <stop offset="100%" stop-color="#ffffff"/>
      </linearGradient>
      <filter id="glow" x="-40%" y="-40%" width="180%" height="180%">
        <feGaussianBlur stdDeviation="6" result="b"/>
        <feMerge><feMergeNode in="b"/><feMergeNode in="SourceGraphic"/></feMerge>
      </filter>
    </defs>
<rect width="1600" height="1000" fill="url(#bg)"/>
<line x1="0" y1="0" x2="0" y2="1000" stroke="#ffffff" stroke-opacity="0.025"/>
<line x1="56" y1="0" x2="56" y2="1000" stroke="#ffffff" stroke-opacity="0.025"/>
<line x1="112" y1="0" x2="112" y2="1000" stroke="#ffffff" stroke-opacity="0.025"/>
<line x1="168" y1="0" x2="168" y2="1000" stroke="#ffffff" stroke-opacity="0.025"/>
<line x1="224" y1="0" x2="224" y2="1000" stroke="#ffffff" stroke-opacity="0.025"/>
<line x1="280" y1="0" x2="280" y2="1000" stroke="#ffffff" stroke-opacity="0.025"/>
<line x1="336" y1="0" x2="336" y2="1000" stroke="#ffffff" stroke-opacity="0.025"/>
<line x1="392" y1="0" x2="392" y2="1000" stroke="#ffffff" stroke-opacity="0.025"/>
<line x1="448" y1="0" x2="448" y2="1000" stroke="#ffffff" stroke-opacity="0.025"/>
<line x1="504" y1="0" x2="504" y2="1000" stroke="#ffffff" stroke-opacity="0.025"/>
<line x1="560" y1="0" x2="560" y2="1000" stroke="#ffffff" stroke-opacity="0.025"/>
<line x1="616" y1="0" x2="616" y2="1000" stroke="#ffffff" stroke-opacity="0.025"/>
<line x1="672" y1="0" x2="672" y2="1000" stroke="#ffffff" stroke-opacity="0.025"/>
<line x1="728" y1="0" x2="728" y2="1000" stroke="#ffffff" stroke-opacity="0.025"/>
<line x1="784" y1="0" x2="784" y2="1000" stroke="#ffffff" stroke-opacity="0.025"/>
<line x1="840" y1="0" x2="840" y2="1000" stroke="#ffffff" stroke-opacity="0.025"/>
<line x1="896" y1="0" x2="896" y2="1000" stroke="#ffffff" stroke-opacity="0.025"/>
<line x1="952" y1="0" x2="952" y2="1000" stroke="#ffffff" stroke-opacity="0.025"/>
<line x1="1008" y1="0" x2="1008" y2="1000" stroke="#ffffff" stroke-opacity="0.025"/>
<line x1="1064" y1="0" x2="1064" y2="1000" stroke="#ffffff" stroke-opacity="0.025"/>
<line x1="1120" y1="0" x2="1120" y2="1000" stroke="#ffffff" stroke-opacity="0.025"/>
<line x1="1176" y1="0" x2="1176" y2="1000" stroke="#ffffff" stroke-opacity="0.025"/>
<line x1="1232" y1="0" x2="1232" y2="1000" stroke="#ffffff" stroke-opacity="0.025"/>
<line x1="1288" y1="0" x2="1288" y2="1000" stroke="#ffffff" stroke-opacity="0.025"/>
<line x1="1344" y1="0" x2="1344" y2="1000" stroke="#ffffff" stroke-opacity="0.025"/>
<line x1="1400" y1="0" x2="1400" y2="1000" stroke="#ffffff" stroke-opacity="0.025"/>
<line x1="1456" y1="0" x2="1456" y2="1000" stroke="#ffffff" stroke-opacity="0.025"/>
<line x1="1512" y1="0" x2="1512" y2="1000" stroke="#ffffff" stroke-opacity="0.025"/>
<line x1="1568" y1="0" x2="1568" y2="1000" stroke="#ffffff" stroke-opacity="0.025"/>
<line x1="0" y1="0" x2="1600" y2="0" stroke="#ffffff" stroke-opacity="0.025"/>
<line x1="0" y1="56" x2="1600" y2="56" stroke="#ffffff" stroke-opacity="0.025"/>
<line x1="0" y1="112" x2="1600" y2="112" stroke="#ffffff" stroke-opacity="0.025"/>
<line x1="0" y1="168" x2="1600" y2="168" stroke="#ffffff" stroke-opacity="0.025"/>
<line x1="0" y1="224" x2="1600" y2="224" stroke="#ffffff" stroke-opacity="0.025"/>
<line x1="0" y1="280" x2="1600" y2="280" stroke="#ffffff" stroke-opacity="0.025"/>
<line x1="0" y1="336" x2="1600" y2="336" stroke="#ffffff" stroke-opacity="0.025"/>
<line x1="0" y1="392" x2="1600" y2="392" stroke="#ffffff" stroke-opacity="0.025"/>
<line x1="0" y1="448" x2="1600" y2="448" stroke="#ffffff" stroke-opacity="0.025"/>
<line x1="0" y1="504" x2="1600" y2="504" stroke="#ffffff" stroke-opacity="0.025"/>
<line x1="0" y1="560" x2="1600" y2="560" stroke="#ffffff" stroke-opacity="0.025"/>
<line x1="0" y1="616" x2="1600" y2="616" stroke="#ffffff" stroke-opacity="0.025"/>
<line x1="0" y1="672" x2="1600" y2="672" stroke="#ffffff" stroke-opacity="0.025"/>
<line x1="0" y1="728" x2="1600" y2="728" stroke="#ffffff" stroke-opacity="0.025"/>
<line x1="0" y1="784" x2="1600" y2="784" stroke="#ffffff" stroke-opacity="0.025"/>
<line x1="0" y1="840" x2="1600" y2="840" stroke="#ffffff" stroke-opacity="0.025"/>
<line x1="0" y1="896" x2="1600" y2="896" stroke="#ffffff" stroke-opacity="0.025"/>
<line x1="0" y1="952" x2="1600" y2="952" stroke="#ffffff" stroke-opacity="0.025"/>
<path d="M 349.9,117.5 L 351.8,114.2 L 353.8,111.0 L 356.9,107.2 L 361.1,103.4 L 365.6,100.4 L 370.2,97.9 L 375.2,96.2 L 380.6,95.1 L 386.4,94.6 L 391.8,95.1 L 398.1,96.7 L 403.8,99.1 L 408.4,102.0 L 412.4,105.5 L 415.5,108.9 L 419.3,114.0 L 422.0,119.1 L 424.0,124.3 L 425.0,129.5 L 425.5,135.1 L 425.4,139.7 L 424.9,143.4 L 424.0,146.9 L 422.8,150.6 L 400.2,207.1 L 383.0,245.5 L 379.3,256.1 L 375.5,267.3 L 372.8,276.6 L 370.6,285.5 L 369.0,293.6 L 368.0,299.8 L 367.1,307.2 L 366.3,315.5 L 365.9,323.7 L 365.8,331.2 L 365.8,371.5 L 365.7,373.9 L 365.4,376.4 L 364.8,379.1 L 364.0,381.5 L 363.0,383.7 L 361.9,386.0 L 360.4,388.6 L 357.8,392.5 L 355.0,396.1 L 351.9,399.3 L 348.8,402.1 L 345.0,404.8 L 341.4,407.1 L 337.1,409.3 L 331.9,411.5 L 283.9,430.0 L 279.7,431.7 L 274.3,433.7 L 270.9,435.4 L 267.3,438.0 L 264.9,440.1 L 261.9,443.7 L 259.7,447.4 L 257.7,451.5 L 256.4,455.7 L 255.7,460.2 L 255.6,464.7 L 256.4,469.8 L 257.6,475.0 L 259.4,479.1 L 261.9,483.3 L 265.2,487.5 L 269.0,490.7 L 273.2,493.7 L 278.4,496.2 L 283.1,497.5 L 287.3,498.0 L 290.7,498.1 L 294.8,497.8 L 298.8,497.0 L 303.9,495.7 L 308.7,494.3 L 317.6,491.4 L 368.4,474.6 L 379.7,471.4 L 391.4,468.1 L 403.9,464.9 L 416.4,462.1 L 427.1,460.5 L 437.0,459.4 L 446.0,458.6 L 455.2,458.2 L 464.5,458.3 L 474.1,458.6 L 483.3,459.0 L 491.0,459.7 L 500.9,461.0 L 509.1,462.2 L 519.5,464.2 L 529.8,466.4 L 539.6,468.7 L 577.3,477.5 L 585.2,478.9 L 591.7,480.0 L 597.8,480.8 L 605.2,481.5 L 612.5,482.0 L 619.7,482.1 L 626.4,481.9 L 634.4,481.0 L 641.4,480.0 L 649.4,478.3 L 657.7,476.2 L 665.6,473.5 L 682.9,466.1 L 688.4,463.6 L 695.7,459.7 L 702.3,455.9 L 708.4,452.1 L 717.0,446.5 L 720.1,444.6 L 722.2,443.2 L 727.4,439.8 L 730.8,437.7 L 738.5,433.0 L 745.9,428.7 L 752.4,425.1 L 759.5,421.4 L 767.0,417.8 L 774.5,414.9 L 782.5,412.2 L 792.2,409.6 L 802.2,407.8 L 813.2,406.4 L 819.6,406.0 L 828.5,405.7 L 837.6,405.7 L 845.9,406.1 L 856.4,406.6 L 868.4,407.3 L 934.0,411.1 L 940.6,411.6 L 946.7,412.3 L 952.3,413.0 L 958.3,414.0 L 963.7,415.1 L 969.8,416.7 L 976.2,418.9 L 982.2,421.4 L 987.2,423.7 L 991.7,426.2 L 996.8,429.4 L 1002.5,433.6 L 1007.8,438.1 L 1012.3,442.4 L 1016.6,447.0 L 1020.9,452.5 L 1023.9,456.7 L 1026.9,461.5 L 1029.5,466.4 L 1031.5,470.5 L 1033.6,475.5 L 1035.3,480.6 L 1036.9,486.2 L 1038.1,491.3 L 1038.9,496.0 L 1039.5,501.3 L 1039.8,506.1 L 1040.0,511.2 L 1039.9,515.8 L 1039.5,521.1 L 1038.7,526.3 L 1037.8,531.6 L 1036.7,535.9 L 1035.4,540.4 L 1034.2,544.1 L 1032.3,548.6 L 1030.4,552.6 L 1027.9,557.6 L 1025.6,561.4 L 1023.6,564.9 L 1020.6,569.5 L 1017.7,573.9 L 977.6,631.5 L 973.6,637.4 L 969.9,643.2 L 966.6,648.2 L 963.9,652.8 L 961.4,657.3 L 958.8,662.1 L 955.5,668.8 L 952.4,675.5 L 949.2,682.4 L 945.9,689.7 L 943.3,695.1 L 921.2,739.8 L 919.2,743.4 L 917.8,745.7 L 916.3,747.7 L 914.0,750.0 L 912.1,751.5 L 909.5,753.3 L 906.3,754.9 L 903.5,755.9 L 899.7,757.0 L 895.4,757.7 L 890.2,758.3 L 884.2,758.8 L 876.9,759.1 L 869.1,759.0 L 861.0,758.6 L 852.5,757.9 L 844.8,756.9 L 836.0,755.4 L 828.2,753.7 L 820.0,751.6 L 812.5,749.4 L 804.7,746.8 L 800.9,745.4 L 795.5,743.3 L 788.5,740.3 L 781.0,736.6 L 773.7,732.7 L 765.4,727.7 L 756.6,721.9 L 749.5,716.7 L 744.6,712.9 L 739.1,708.1 L 734.6,704.0 L 730.9,700.6 L 728.0,697.8 L 725.7,695.3 L 723.7,692.7 L 721.9,690.1 L 720.7,687.7 L 719.6,684.7 L 718.7,681.6 L 718.4,679.1 L 718.2,676.6 L 718.2,674.2 L 718.4,671.7 L 719.3,668.5 L 720.3,665.9 L 721.7,663.3 L 723.4,660.8 L 725.3,658.3 L 727.4,655.9 L 729.6,653.8 L 731.4,652.1 L 733.6,650.2 L 736.0,648.3 L 738.3,646.6 L 740.7,644.9 L 743.6,642.9 L 745.9,641.4 L 748.0,640.1 L 750.4,638.9 L 752.8,637.6 L 756.2,635.8 L 758.9,634.6 L 761.7,633.3 L 764.0,632.4 L 766.9,631.4 L 769.3,630.7 L 771.4,630.2 L 773.5,629.6 L 775.5,629.3 L 778.2,628.8 L 780.9,628.3 L 785.3,627.7 L 802.1,625.5 L 807.8,624.6 L 813.0,623.8 L 817.9,623.0 L 822.7,622.1 L 827.3,621.2 L 831.2,620.3 L 835.7,619.2 L 840.3,618.0 L 844.4,616.8 L 848.6,615.5 L 852.9,614.1 L 857.8,612.4 L 861.7,611.0 L 865.5,609.6 L 869.6,608.0 L 873.4,606.4 L 876.8,604.9 L 880.1,603.5 L 883.5,602.0 L 887.1,600.1 L 889.5,598.8 L 891.8,597.5 L 893.5,596.4 L 895.2,595.2 L 896.8,593.9 L 898.3,592.6 L 899.7,591.2 L 900.9,589.7 L 902.6,587.7 L 903.8,586.0 L 905.3,583.8 L 906.4,581.9 L 907.4,580.1 L 908.3,578.3 L 909.1,576.5 L 909.9,574.7 L 910.6,572.7 L 911.1,570.9 L 911.5,569.0 L 911.9,567.2 L 912.3,564.9 L 912.5,562.8 L 912.7,561.1 L 912.8,559.4 L 912.8,557.6 L 912.7,555.5 L 912.6,553.7 L 912.4,552.0 L 912.0,549.8 L 911.7,548.3 L 911.1,546.2 L 910.5,544.0 L 909.8,542.2 L 909.1,540.6 L 908.3,539.0 L 907.7,537.9 L 907.0,536.6 L 906.4,535.4 L 905.5,533.9 L 904.6,532.5 L 903.4,530.7 L 902.0,528.9 L 900.9,527.7 L 899.5,526.2 L 898.1,524.7 L 896.6,523.3 L 894.7,521.7 L 892.8,520.3 L 891.0,519.1 L 889.0,517.8 L 886.2,516.3 L 884.3,515.4 L 882.2,514.5 L 879.7,513.8 L 877.2,513.1 L 874.1,512.4 L 869.7,511.8 L 823.1,507.0 L 817.4,506.4 L 812.2,505.9 L 806.4,505.5 L 801.0,505.2 L 795.6,505.0 L 790.6,504.7 L 784.5,504.6 L 778.6,504.4 L 771.9,504.4 L 766.1,504.4 L 759.3,504.5 L 751.7,504.7 L 742.0,505.0 L 730.6,505.6 L 721.2,506.2 L 713.7,506.8 L 704.3,507.7 L 697.5,508.5 L 688.8,509.5 L 681.3,510.5 L 674.1,511.4 L 666.1,512.5 L 659.1,513.5 L 652.2,514.7 L 644.1,516.1 L 636.1,517.5 L 628.3,519.0 L 620.2,520.8 L 610.4,522.9 L 602.6,524.7 L 594.0,526.7 L 583.7,529.4 L 574.5,531.9 L 565.3,534.6 L 555.9,537.5 L 546.3,540.6 L 538.7,543.1 L 530.8,545.8 L 521.6,549.1 L 513.9,551.9 L 505.8,555.0 L 498.0,558.1 L 489.8,561.3 L 481.1,564.9 L 472.7,568.4 L 459.9,573.8 L 450.7,577.8 L 441.9,581.8 L 433.5,585.9 L 426.3,589.6 L 420.4,592.9 L 399.6,604.8 L 397.1,606.2 L 394.9,607.2 L 392.9,607.9 L 391.0,608.3 L 388.9,608.4 L 386.5,608.2 L 385.0,607.9 L 383.5,607.5 L 382.1,606.8 L 380.9,605.9 L 379.8,604.9 L 379.0,604.2 L 378.0,603.0 L 376.9,601.4 L 375.6,599.2 L 370.3,589.5 L 368.8,586.9 L 367.2,584.4 L 365.3,581.6 L 364.1,580.0 L 362.6,578.4 L 360.9,576.7 L 359.4,575.5 L 357.7,574.2 L 355.3,572.7 L 353.2,571.5 L 351.0,570.5 L 348.7,569.7 L 346.4,569.1 L 343.8,568.6 L 341.6,568.3 L 339.2,568.2 L 336.7,568.2 L 334.0,568.4 L 331.4,568.8 L 329.3,569.3 L 327.1,570.0 L 324.7,570.9 L 322.8,571.8 L 320.8,573.0 L 318.7,574.3 L 316.5,575.8 L 314.9,577.1 L 313.6,578.3 L 312.0,579.7 L 310.8,581.1 L 309.7,582.5 L 308.6,584.1 L 307.7,585.5 L 306.7,587.2 L 305.9,589.0 L 305.2,590.6 L 304.6,592.5 L 303.9,594.8 L 303.6,596.4 L 303.4,597.8 L 303.3,599.4 L 303.2,600.8 L 303.3,602.3 L 303.4,604.4 L 303.6,606.0 L 303.9,607.9 L 304.2,610.0 L 305.4,616.6 L 338.6,812.0 L 343.5,841.1 L 343.9,843.7 L 344.2,845.9 L 344.3,848.0 L 344.4,850.3 L 344.4,852.6 L 344.2,854.9 L 344.0,857.2 L 343.6,859.2 L 343.2,861.3 L 342.8,863.3 L 342.4,865.2 L 341.8,867.1 L 341.3,868.9 L 340.5,870.9 L 339.8,872.5 L 339.0,874.2 L 338.0,876.0 L 337.0,877.9 L 336.0,879.5 L 334.8,881.2 L 333.6,882.9 L 332.3,884.5 L 330.8,886.2 L 329.4,887.8 L 327.7,889.5 L 326.1,891.0 L 324.5,892.3 L 322.8,893.6 L 320.9,894.9 L 319.2,896.0 L 317.2,897.2 L 314.8,898.4 L 312.2,899.6 L 309.6,900.6 L 306.9,901.4 L 304.6,902.1 L 302.7,902.5 L 300.7,903.0 L 299.1,903.3 L 297.1,903.6 L 294.9,903.7 L 292.7,903.8 L 289.6,903.9 L 220.9,905.4 L 215.8,905.3 L 211.8,905.1 L 208.5,904.9 L 205.0,904.6 L 201.9,904.1 L 198.7,903.7 L 196.0,903.2 L 193.3,902.7 L 190.5,902.1 L 188.6,901.6 L 186.7,901.2 L 184.8,900.7 L 182.8,900.1 L 180.7,899.4 L 178.8,898.8 L 176.7,898.0 L 174.6,897.3 L 172.2,896.4 L 170.4,895.6 L 168.2,894.6 L 166.0,893.6 L 164.0,892.7 L 161.8,891.6 L 159.7,890.5 L 157.1,889.2 L 154.4,887.7 L 151.9,886.2 L 149.0,884.3 L 146.1,882.3 L 143.3,880.4 L 140.3,878.1 L 137.7,876.1 L 134.4,873.3 L 131.4,870.7 L 129.0,868.5 L 126.4,865.8 L 123.2,862.5 L 120.7,859.8 L 118.7,857.5 L 116.4,854.5 L 114.5,851.9 L 112.5,849.1 L 110.7,846.4 L 108.4,842.8 L 106.7,839.8 L 105.0,836.3 L 102.8,832.0 L 101.2,828.3 L 99.4,823.8 L 98.0,820.2 L 96.4,815.6 L 95.2,811.6 L 94.3,808.4 L 93.6,805.8 L 92.9,802.8 L 92.3,800.0 L 91.7,796.8 L 91.3,794.1 L 90.9,791.2 L 90.7,788.8 L 90.4,786.3 L 90.2,783.4 L 90.1,781.0 L 90.0,778.3 L 90.1,774.4 L 90.1,770.9 L 90.3,766.4 L 90.6,763.4 L 91.0,760.3 L 91.4,757.4 L 91.8,754.4 L 92.4,750.5 L 93.0,747.6 L 93.6,745.2 L 94.2,742.6 L 95.1,739.4 L 96.0,736.5 L 97.2,733.1 L 98.5,729.6 L 99.8,726.1 L 101.2,722.8 L 110.5,700.1 L 120.4,676.1 L 142.4,622.9 L 177.7,537.0 L 232.7,403.1 L 253.1,353.3 L 269.4,313.6 L 349.9,117.5 Z" fill="none" stroke="#000000" stroke-opacity="0.5" stroke-width="13" stroke-linejoin="round" stroke-linecap="round"/>
<path d="M 349.9,117.5 L 351.8,114.2 L 353.8,111.0 L 356.9,107.2 L 361.1,103.4 L 365.6,100.4 L 370.2,97.9 L 375.2,96.2 L 380.6,95.1 L 386.4,94.6 L 391.8,95.1 L 398.1,96.7 L 403.8,99.1 L 408.4,102.0 L 412.4,105.5 L 415.5,108.9 L 419.3,114.0 L 422.0,119.1 L 424.0,124.3 L 425.0,129.5 L 425.5,135.1 L 425.4,139.7 L 424.9,143.4 L 424.0,146.9 L 422.8,150.6 L 400.2,207.1 L 383.0,245.5 L 379.3,256.1 L 375.5,267.3 L 372.8,276.6 L 370.6,285.5 L 369.0,293.6 L 368.0,299.8 L 367.1,307.2 L 366.3,315.5 L 365.9,323.7 L 365.8,331.2 L 365.8,371.5 L 365.7,373.9 L 365.4,376.4 L 364.8,379.1 L 364.0,381.5 L 363.0,383.7 L 361.9,386.0 L 360.4,388.6 L 357.8,392.5 L 355.0,396.1 L 351.9,399.3 L 348.8,402.1 L 345.0,404.8 L 341.4,407.1 L 337.1,409.3 L 331.9,411.5 L 283.9,430.0 L 279.7,431.7 L 274.3,433.7 L 270.9,435.4 L 267.3,438.0 L 264.9,440.1 L 261.9,443.7 L 259.7,447.4 L 257.7,451.5 L 256.4,455.7 L 255.7,460.2 L 255.6,464.7 L 256.4,469.8 L 257.6,475.0 L 259.4,479.1 L 261.9,483.3 L 265.2,487.5 L 269.0,490.7 L 273.2,493.7 L 278.4,496.2 L 283.1,497.5 L 287.3,498.0 L 290.7,498.1 L 294.8,497.8 L 298.8,497.0 L 303.9,495.7 L 308.7,494.3 L 317.6,491.4 L 368.4,474.6 L 379.7,471.4 L 391.4,468.1 L 403.9,464.9 L 416.4,462.1 L 427.1,460.5 L 437.0,459.4 L 446.0,458.6 L 455.2,458.2 L 464.5,458.3 L 474.1,458.6 L 483.3,459.0 L 491.0,459.7 L 500.9,461.0 L 509.1,462.2 L 519.5,464.2 L 529.8,466.4 L 539.6,468.7 L 577.3,477.5 L 585.2,478.9 L 591.7,480.0 L 597.8,480.8 L 605.2,481.5 L 612.5,482.0 L 619.7,482.1 L 626.4,481.9 L 634.4,481.0 L 641.4,480.0 L 649.4,478.3 L 657.7,476.2 L 665.6,473.5 L 682.9,466.1 L 688.4,463.6 L 695.7,459.7 L 702.3,455.9 L 708.4,452.1 L 717.0,446.5 L 720.1,444.6 L 722.2,443.2 L 727.4,439.8 L 730.8,437.7 L 738.5,433.0 L 745.9,428.7 L 752.4,425.1 L 759.5,421.4 L 767.0,417.8 L 774.5,414.9 L 782.5,412.2 L 792.2,409.6 L 802.2,407.8 L 813.2,406.4 L 819.6,406.0 L 828.5,405.7 L 837.6,405.7 L 845.9,406.1 L 856.4,406.6 L 868.4,407.3 L 934.0,411.1 L 940.6,411.6 L 946.7,412.3 L 952.3,413.0 L 958.3,414.0 L 963.7,415.1 L 969.8,416.7 L 976.2,418.9 L 982.2,421.4 L 987.2,423.7 L 991.7,426.2 L 996.8,429.4 L 1002.5,433.6 L 1007.8,438.1 L 1012.3,442.4 L 1016.6,447.0 L 1020.9,452.5 L 1023.9,456.7 L 1026.9,461.5 L 1029.5,466.4 L 1031.5,470.5 L 1033.6,475.5 L 1035.3,480.6 L 1036.9,486.2 L 1038.1,491.3 L 1038.9,496.0 L 1039.5,501.3 L 1039.8,506.1 L 1040.0,511.2 L 1039.9,515.8 L 1039.5,521.1 L 1038.7,526.3 L 1037.8,531.6 L 1036.7,535.9 L 1035.4,540.4 L 1034.2,544.1 L 1032.3,548.6 L 1030.4,552.6 L 1027.9,557.6 L 1025.6,561.4 L 1023.6,564.9 L 1020.6,569.5 L 1017.7,573.9 L 977.6,631.5 L 973.6,637.4 L 969.9,643.2 L 966.6,648.2 L 963.9,652.8 L 961.4,657.3 L 958.8,662.1 L 955.5,668.8 L 952.4,675.5 L 949.2,682.4 L 945.9,689.7 L 943.3,695.1 L 921.2,739.8 L 919.2,743.4 L 917.8,745.7 L 916.3,747.7 L 914.0,750.0 L 912.1,751.5 L 909.5,753.3 L 906.3,754.9 L 903.5,755.9 L 899.7,757.0 L 895.4,757.7 L 890.2,758.3 L 884.2,758.8 L 876.9,759.1 L 869.1,759.0 L 861.0,758.6 L 852.5,757.9 L 844.8,756.9 L 836.0,755.4 L 828.2,753.7 L 820.0,751.6 L 812.5,749.4 L 804.7,746.8 L 800.9,745.4 L 795.5,743.3 L 788.5,740.3 L 781.0,736.6 L 773.7,732.7 L 765.4,727.7 L 756.6,721.9 L 749.5,716.7 L 744.6,712.9 L 739.1,708.1 L 734.6,704.0 L 730.9,700.6 L 728.0,697.8 L 725.7,695.3 L 723.7,692.7 L 721.9,690.1 L 720.7,687.7 L 719.6,684.7 L 718.7,681.6 L 718.4,679.1 L 718.2,676.6 L 718.2,674.2 L 718.4,671.7 L 719.3,668.5 L 720.3,665.9 L 721.7,663.3 L 723.4,660.8 L 725.3,658.3 L 727.4,655.9 L 729.6,653.8 L 731.4,652.1 L 733.6,650.2 L 736.0,648.3 L 738.3,646.6 L 740.7,644.9 L 743.6,642.9 L 745.9,641.4 L 748.0,640.1 L 750.4,638.9 L 752.8,637.6 L 756.2,635.8 L 758.9,634.6 L 761.7,633.3 L 764.0,632.4 L 766.9,631.4 L 769.3,630.7 L 771.4,630.2 L 773.5,629.6 L 775.5,629.3 L 778.2,628.8 L 780.9,628.3 L 785.3,627.7 L 802.1,625.5 L 807.8,624.6 L 813.0,623.8 L 817.9,623.0 L 822.7,622.1 L 827.3,621.2 L 831.2,620.3 L 835.7,619.2 L 840.3,618.0 L 844.4,616.8 L 848.6,615.5 L 852.9,614.1 L 857.8,612.4 L 861.7,611.0 L 865.5,609.6 L 869.6,608.0 L 873.4,606.4 L 876.8,604.9 L 880.1,603.5 L 883.5,602.0 L 887.1,600.1 L 889.5,598.8 L 891.8,597.5 L 893.5,596.4 L 895.2,595.2 L 896.8,593.9 L 898.3,592.6 L 899.7,591.2 L 900.9,589.7 L 902.6,587.7 L 903.8,586.0 L 905.3,583.8 L 906.4,581.9 L 907.4,580.1 L 908.3,578.3 L 909.1,576.5 L 909.9,574.7 L 910.6,572.7 L 911.1,570.9 L 911.5,569.0 L 911.9,567.2 L 912.3,564.9 L 912.5,562.8 L 912.7,561.1 L 912.8,559.4 L 912.8,557.6 L 912.7,555.5 L 912.6,553.7 L 912.4,552.0 L 912.0,549.8 L 911.7,548.3 L 911.1,546.2 L 910.5,544.0 L 909.8,542.2 L 909.1,540.6 L 908.3,539.0 L 907.7,537.9 L 907.0,536.6 L 906.4,535.4 L 905.5,533.9 L 904.6,532.5 L 903.4,530.7 L 902.0,528.9 L 900.9,527.7 L 899.5,526.2 L 898.1,524.7 L 896.6,523.3 L 894.7,521.7 L 892.8,520.3 L 891.0,519.1 L 889.0,517.8 L 886.2,516.3 L 884.3,515.4 L 882.2,514.5 L 879.7,513.8 L 877.2,513.1 L 874.1,512.4 L 869.7,511.8 L 823.1,507.0 L 817.4,506.4 L 812.2,505.9 L 806.4,505.5 L 801.0,505.2 L 795.6,505.0 L 790.6,504.7 L 784.5,504.6 L 778.6,504.4 L 771.9,504.4 L 766.1,504.4 L 759.3,504.5 L 751.7,504.7 L 742.0,505.0 L 730.6,505.6 L 721.2,506.2 L 713.7,506.8 L 704.3,507.7 L 697.5,508.5 L 688.8,509.5 L 681.3,510.5 L 674.1,511.4 L 666.1,512.5 L 659.1,513.5 L 652.2,514.7 L 644.1,516.1 L 636.1,517.5 L 628.3,519.0 L 620.2,520.8 L 610.4,522.9 L 602.6,524.7 L 594.0,526.7 L 583.7,529.4 L 574.5,531.9 L 565.3,534.6 L 555.9,537.5 L 546.3,540.6 L 538.7,543.1 L 530.8,545.8 L 521.6,549.1 L 513.9,551.9 L 505.8,555.0 L 498.0,558.1 L 489.8,561.3 L 481.1,564.9 L 472.7,568.4 L 459.9,573.8 L 450.7,577.8 L 441.9,581.8 L 433.5,585.9 L 426.3,589.6 L 420.4,592.9 L 399.6,604.8 L 397.1,606.2 L 394.9,607.2 L 392.9,607.9 L 391.0,608.3 L 388.9,608.4 L 386.5,608.2 L 385.0,607.9 L 383.5,607.5 L 382.1,606.8 L 380.9,605.9 L 379.8,604.9 L 379.0,604.2 L 378.0,603.0 L 376.9,601.4 L 375.6,599.2 L 370.3,589.5 L 368.8,586.9 L 367.2,584.4 L 365.3,581.6 L 364.1,580.0 L 362.6,578.4 L 360.9,576.7 L 359.4,575.5 L 357.7,574.2 L 355.3,572.7 L 353.2,571.5 L 351.0,570.5 L 348.7,569.7 L 346.4,569.1 L 343.8,568.6 L 341.6,568.3 L 339.2,568.2 L 336.7,568.2 L 334.0,568.4 L 331.4,568.8 L 329.3,569.3 L 327.1,570.0 L 324.7,570.9 L 322.8,571.8 L 320.8,573.0 L 318.7,574.3 L 316.5,575.8 L 314.9,577.1 L 313.6,578.3 L 312.0,579.7 L 310.8,581.1 L 309.7,582.5 L 308.6,584.1 L 307.7,585.5 L 306.7,587.2 L 305.9,589.0 L 305.2,590.6 L 304.6,592.5 L 303.9,594.8 L 303.6,596.4 L 303.4,597.8 L 303.3,599.4 L 303.2,600.8 L 303.3,602.3 L 303.4,604.4 L 303.6,606.0 L 303.9,607.9 L 304.2,610.0 L 305.4,616.6 L 338.6,812.0 L 343.5,841.1 L 343.9,843.7 L 344.2,845.9 L 344.3,848.0 L 344.4,850.3 L 344.4,852.6 L 344.2,854.9 L 344.0,857.2 L 343.6,859.2 L 343.2,861.3 L 342.8,863.3 L 342.4,865.2 L 341.8,867.1 L 341.3,868.9 L 340.5,870.9 L 339.8,872.5 L 339.0,874.2 L 338.0,876.0 L 337.0,877.9 L 336.0,879.5 L 334.8,881.2 L 333.6,882.9 L 332.3,884.5 L 330.8,886.2 L 329.4,887.8 L 327.7,889.5 L 326.1,891.0 L 324.5,892.3 L 322.8,893.6 L 320.9,894.9 L 319.2,896.0 L 317.2,897.2 L 314.8,898.4 L 312.2,899.6 L 309.6,900.6 L 306.9,901.4 L 304.6,902.1 L 302.7,902.5 L 300.7,903.0 L 299.1,903.3 L 297.1,903.6 L 294.9,903.7 L 292.7,903.8 L 289.6,903.9 L 220.9,905.4 L 215.8,905.3 L 211.8,905.1 L 208.5,904.9 L 205.0,904.6 L 201.9,904.1 L 198.7,903.7 L 196.0,903.2 L 193.3,902.7 L 190.5,902.1 L 188.6,901.6 L 186.7,901.2 L 184.8,900.7 L 182.8,900.1 L 180.7,899.4 L 178.8,898.8 L 176.7,898.0 L 174.6,897.3 L 172.2,896.4 L 170.4,895.6 L 168.2,894.6 L 166.0,893.6 L 164.0,892.7 L 161.8,891.6 L 159.7,890.5 L 157.1,889.2 L 154.4,887.7 L 151.9,886.2 L 149.0,884.3 L 146.1,882.3 L 143.3,880.4 L 140.3,878.1 L 137.7,876.1 L 134.4,873.3 L 131.4,870.7 L 129.0,868.5 L 126.4,865.8 L 123.2,862.5 L 120.7,859.8 L 118.7,857.5 L 116.4,854.5 L 114.5,851.9 L 112.5,849.1 L 110.7,846.4 L 108.4,842.8 L 106.7,839.8 L 105.0,836.3 L 102.8,832.0 L 101.2,828.3 L 99.4,823.8 L 98.0,820.2 L 96.4,815.6 L 95.2,811.6 L 94.3,808.4 L 93.6,805.8 L 92.9,802.8 L 92.3,800.0 L 91.7,796.8 L 91.3,794.1 L 90.9,791.2 L 90.7,788.8 L 90.4,786.3 L 90.2,783.4 L 90.1,781.0 L 90.0,778.3 L 90.1,774.4 L 90.1,770.9 L 90.3,766.4 L 90.6,763.4 L 91.0,760.3 L 91.4,757.4 L 91.8,754.4 L 92.4,750.5 L 93.0,747.6 L 93.6,745.2 L 94.2,742.6 L 95.1,739.4 L 96.0,736.5 L 97.2,733.1 L 98.5,729.6 L 99.8,726.1 L 101.2,722.8 L 110.5,700.1 L 120.4,676.1 L 142.4,622.9 L 177.7,537.0 L 232.7,403.1 L 253.1,353.3 L 269.4,313.6 L 349.9,117.5 Z" fill="none" stroke="#39404f" stroke-width="8.5" stroke-linejoin="round" stroke-linecap="round"/>
<path d="M 349.9,117.5 L 351.8,114.2 L 353.8,111.0 L 356.9,107.2 L 361.1,103.4 L 365.6,100.4 L 370.2,97.9 L 375.2,96.2 L 380.6,95.1 L 386.4,94.6 L 391.8,95.1 L 398.1,96.7 L 403.8,99.1 L 408.4,102.0 L 412.4,105.5 L 415.5,108.9 L 419.3,114.0 L 422.0,119.1 L 424.0,124.3 L 425.0,129.5 L 425.5,135.1 L 425.4,139.7 L 424.9,143.4 L 424.0,146.9 L 422.8,150.6 L 400.2,207.1 L 383.0,245.5 L 379.3,256.1 L 375.5,267.3 L 372.8,276.6 L 370.6,285.5 L 369.0,293.6 L 368.0,299.8 L 367.1,307.2 L 366.3,315.5 L 365.9,323.7 L 365.8,331.2 L 365.8,371.5 L 365.7,373.9 L 365.4,376.4 L 364.8,379.1 L 364.0,381.5 L 363.0,383.7 L 361.9,386.0 L 360.4,388.6 L 357.8,392.5 L 355.0,396.1 L 351.9,399.3 L 348.8,402.1 L 345.0,404.8 L 341.4,407.1 L 337.1,409.3 L 331.9,411.5 L 283.9,430.0 L 279.7,431.7 L 274.3,433.7 L 270.9,435.4 L 267.3,438.0 L 264.9,440.1 L 261.9,443.7 L 259.7,447.4 L 257.7,451.5 L 256.4,455.7 L 255.7,460.2 L 255.6,464.7 L 256.4,469.8 L 257.6,475.0 L 259.4,479.1 L 261.9,483.3 L 265.2,487.5 L 269.0,490.7 L 273.2,493.7 L 278.4,496.2 L 283.1,497.5 L 287.3,498.0 L 290.7,498.1 L 294.8,497.8 L 298.8,497.0 L 303.9,495.7 L 308.7,494.3 L 317.6,491.4 L 368.4,474.6 L 379.7,471.4 L 391.4,468.1 L 403.9,464.9 L 416.4,462.1 L 427.1,460.5 L 437.0,459.4 L 446.0,458.6 L 455.2,458.2 L 464.5,458.3 L 474.1,458.6 L 483.3,459.0 L 491.0,459.7 L 500.9,461.0 L 509.1,462.2 L 519.5,464.2 L 529.8,466.4 L 539.6,468.7 L 577.3,477.5 L 585.2,478.9 L 591.7,480.0 L 597.8,480.8 L 605.2,481.5 L 612.5,482.0 L 619.7,482.1 L 626.4,481.9 L 634.4,481.0 L 641.4,480.0 L 649.4,478.3 L 657.7,476.2 L 665.6,473.5 L 682.9,466.1 L 688.4,463.6 L 695.7,459.7 L 702.3,455.9 L 708.4,452.1 L 717.0,446.5 L 720.1,444.6 L 722.2,443.2 L 727.4,439.8 L 730.8,437.7 L 738.5,433.0 L 745.9,428.7 L 752.4,425.1 L 759.5,421.4 L 767.0,417.8 L 774.5,414.9 L 782.5,412.2 L 792.2,409.6 L 802.2,407.8 L 813.2,406.4 L 819.6,406.0 L 828.5,405.7 L 837.6,405.7 L 845.9,406.1 L 856.4,406.6 L 868.4,407.3 L 934.0,411.1 L 940.6,411.6 L 946.7,412.3 L 952.3,413.0 L 958.3,414.0 L 963.7,415.1 L 969.8,416.7 L 976.2,418.9 L 982.2,421.4 L 987.2,423.7 L 991.7,426.2 L 996.8,429.4 L 1002.5,433.6 L 1007.8,438.1 L 1012.3,442.4 L 1016.6,447.0 L 1020.9,452.5 L 1023.9,456.7 L 1026.9,461.5 L 1029.5,466.4 L 1031.5,470.5 L 1033.6,475.5 L 1035.3,480.6 L 1036.9,486.2 L 1038.1,491.3 L 1038.9,496.0 L 1039.5,501.3 L 1039.8,506.1 L 1040.0,511.2 L 1039.9,515.8 L 1039.5,521.1 L 1038.7,526.3 L 1037.8,531.6 L 1036.7,535.9 L 1035.4,540.4 L 1034.2,544.1 L 1032.3,548.6 L 1030.4,552.6 L 1027.9,557.6 L 1025.6,561.4 L 1023.6,564.9 L 1020.6,569.5 L 1017.7,573.9 L 977.6,631.5 L 973.6,637.4 L 969.9,643.2 L 966.6,648.2 L 963.9,652.8 L 961.4,657.3 L 958.8,662.1 L 955.5,668.8 L 952.4,675.5 L 949.2,682.4 L 945.9,689.7 L 943.3,695.1 L 921.2,739.8 L 919.2,743.4 L 917.8,745.7 L 916.3,747.7 L 914.0,750.0 L 912.1,751.5 L 909.5,753.3 L 906.3,754.9 L 903.5,755.9 L 899.7,757.0 L 895.4,757.7 L 890.2,758.3 L 884.2,758.8 L 876.9,759.1 L 869.1,759.0 L 861.0,758.6 L 852.5,757.9 L 844.8,756.9 L 836.0,755.4 L 828.2,753.7 L 820.0,751.6 L 812.5,749.4 L 804.7,746.8 L 800.9,745.4 L 795.5,743.3 L 788.5,740.3 L 781.0,736.6 L 773.7,732.7 L 765.4,727.7 L 756.6,721.9 L 749.5,716.7 L 744.6,712.9 L 739.1,708.1 L 734.6,704.0 L 730.9,700.6 L 728.0,697.8 L 725.7,695.3 L 723.7,692.7 L 721.9,690.1 L 720.7,687.7 L 719.6,684.7 L 718.7,681.6 L 718.4,679.1 L 718.2,676.6 L 718.2,674.2 L 718.4,671.7 L 719.3,668.5 L 720.3,665.9 L 721.7,663.3 L 723.4,660.8 L 725.3,658.3 L 727.4,655.9 L 729.6,653.8 L 731.4,652.1 L 733.6,650.2 L 736.0,648.3 L 738.3,646.6 L 740.7,644.9 L 743.6,642.9 L 745.9,641.4 L 748.0,640.1 L 750.4,638.9 L 752.8,637.6 L 756.2,635.8 L 758.9,634.6 L 761.7,633.3 L 764.0,632.4 L 766.9,631.4 L 769.3,630.7 L 771.4,630.2 L 773.5,629.6 L 775.5,629.3 L 778.2,628.8 L 780.9,628.3 L 785.3,627.7 L 802.1,625.5 L 807.8,624.6 L 813.0,623.8 L 817.9,623.0 L 822.7,622.1 L 827.3,621.2 L 831.2,620.3 L 835.7,619.2 L 840.3,618.0 L 844.4,616.8 L 848.6,615.5 L 852.9,614.1 L 857.8,612.4 L 861.7,611.0 L 865.5,609.6 L 869.6,608.0 L 873.4,606.4 L 876.8,604.9 L 880.1,603.5 L 883.5,602.0 L 887.1,600.1 L 889.5,598.8 L 891.8,597.5 L 893.5,596.4 L 895.2,595.2 L 896.8,593.9 L 898.3,592.6 L 899.7,591.2 L 900.9,589.7 L 902.6,587.7 L 903.8,586.0 L 905.3,583.8 L 906.4,581.9 L 907.4,580.1 L 908.3,578.3 L 909.1,576.5 L 909.9,574.7 L 910.6,572.7 L 911.1,570.9 L 911.5,569.0 L 911.9,567.2 L 912.3,564.9 L 912.5,562.8 L 912.7,561.1 L 912.8,559.4 L 912.8,557.6 L 912.7,555.5 L 912.6,553.7 L 912.4,552.0 L 912.0,549.8 L 911.7,548.3 L 911.1,546.2 L 910.5,544.0 L 909.8,542.2 L 909.1,540.6 L 908.3,539.0 L 907.7,537.9 L 907.0,536.6 L 906.4,535.4 L 905.5,533.9 L 904.6,532.5 L 903.4,530.7 L 902.0,528.9 L 900.9,527.7 L 899.5,526.2 L 898.1,524.7 L 896.6,523.3 L 894.7,521.7 L 892.8,520.3 L 891.0,519.1 L 889.0,517.8 L 886.2,516.3 L 884.3,515.4 L 882.2,514.5 L 879.7,513.8 L 877.2,513.1 L 874.1,512.4 L 869.7,511.8 L 823.1,507.0 L 817.4,506.4 L 812.2,505.9 L 806.4,505.5 L 801.0,505.2 L 795.6,505.0 L 790.6,504.7 L 784.5,504.6 L 778.6,504.4 L 771.9,504.4 L 766.1,504.4 L 759.3,504.5 L 751.7,504.7 L 742.0,505.0 L 730.6,505.6 L 721.2,506.2 L 713.7,506.8 L 704.3,507.7 L 697.5,508.5 L 688.8,509.5 L 681.3,510.5 L 674.1,511.4 L 666.1,512.5 L 659.1,513.5 L 652.2,514.7 L 644.1,516.1 L 636.1,517.5 L 628.3,519.0 L 620.2,520.8 L 610.4,522.9 L 602.6,524.7 L 594.0,526.7 L 583.7,529.4 L 574.5,531.9 L 565.3,534.6 L 555.9,537.5 L 546.3,540.6 L 538.7,543.1 L 530.8,545.8 L 521.6,549.1 L 513.9,551.9 L 505.8,555.0 L 498.0,558.1 L 489.8,561.3 L 481.1,564.9 L 472.7,568.4 L 459.9,573.8 L 450.7,577.8 L 441.9,581.8 L 433.5,585.9 L 426.3,589.6 L 420.4,592.9 L 399.6,604.8 L 397.1,606.2 L 394.9,607.2 L 392.9,607.9 L 391.0,608.3 L 388.9,608.4 L 386.5,608.2 L 385.0,607.9 L 383.5,607.5 L 382.1,606.8 L 380.9,605.9 L 379.8,604.9 L 379.0,604.2 L 378.0,603.0 L 376.9,601.4 L 375.6,599.2 L 370.3,589.5 L 368.8,586.9 L 367.2,584.4 L 365.3,581.6 L 364.1,580.0 L 362.6,578.4 L 360.9,576.7 L 359.4,575.5 L 357.7,574.2 L 355.3,572.7 L 353.2,571.5 L 351.0,570.5 L 348.7,569.7 L 346.4,569.1 L 343.8,568.6 L 341.6,568.3 L 339.2,568.2 L 336.7,568.2 L 334.0,568.4 L 331.4,568.8 L 329.3,569.3 L 327.1,570.0 L 324.7,570.9 L 322.8,571.8 L 320.8,573.0 L 318.7,574.3 L 316.5,575.8 L 314.9,577.1 L 313.6,578.3 L 312.0,579.7 L 310.8,581.1 L 309.7,582.5 L 308.6,584.1 L 307.7,585.5 L 306.7,587.2 L 305.9,589.0 L 305.2,590.6 L 304.6,592.5 L 303.9,594.8 L 303.6,596.4 L 303.4,597.8 L 303.3,599.4 L 303.2,600.8 L 303.3,602.3 L 303.4,604.4 L 303.6,606.0 L 303.9,607.9 L 304.2,610.0 L 305.4,616.6 L 338.6,812.0 L 343.5,841.1 L 343.9,843.7 L 344.2,845.9 L 344.3,848.0 L 344.4,850.3 L 344.4,852.6 L 344.2,854.9 L 344.0,857.2 L 343.6,859.2 L 343.2,861.3 L 342.8,863.3 L 342.4,865.2 L 341.8,867.1 L 341.3,868.9 L 340.5,870.9 L 339.8,872.5 L 339.0,874.2 L 338.0,876.0 L 337.0,877.9 L 336.0,879.5 L 334.8,881.2 L 333.6,882.9 L 332.3,884.5 L 330.8,886.2 L 329.4,887.8 L 327.7,889.5 L 326.1,891.0 L 324.5,892.3 L 322.8,893.6 L 320.9,894.9 L 319.2,896.0 L 317.2,897.2 L 314.8,898.4 L 312.2,899.6 L 309.6,900.6 L 306.9,901.4 L 304.6,902.1 L 302.7,902.5 L 300.7,903.0 L 299.1,903.3 L 297.1,903.6 L 294.9,903.7 L 292.7,903.8 L 289.6,903.9 L 220.9,905.4 L 215.8,905.3 L 211.8,905.1 L 208.5,904.9 L 205.0,904.6 L 201.9,904.1 L 198.7,903.7 L 196.0,903.2 L 193.3,902.7 L 190.5,902.1 L 188.6,901.6 L 186.7,901.2 L 184.8,900.7 L 182.8,900.1 L 180.7,899.4 L 178.8,898.8 L 176.7,898.0 L 174.6,897.3 L 172.2,896.4 L 170.4,895.6 L 168.2,894.6 L 166.0,893.6 L 164.0,892.7 L 161.8,891.6 L 159.7,890.5 L 157.1,889.2 L 154.4,887.7 L 151.9,886.2 L 149.0,884.3 L 146.1,882.3 L 143.3,880.4 L 140.3,878.1 L 137.7,876.1 L 134.4,873.3 L 131.4,870.7 L 129.0,868.5 L 126.4,865.8 L 123.2,862.5 L 120.7,859.8 L 118.7,857.5 L 116.4,854.5 L 114.5,851.9 L 112.5,849.1 L 110.7,846.4 L 108.4,842.8 L 106.7,839.8 L 105.0,836.3 L 102.8,832.0 L 101.2,828.3 L 99.4,823.8 L 98.0,820.2 L 96.4,815.6 L 95.2,811.6 L 94.3,808.4 L 93.6,805.8 L 92.9,802.8 L 92.3,800.0 L 91.7,796.8 L 91.3,794.1 L 90.9,791.2 L 90.7,788.8 L 90.4,786.3 L 90.2,783.4 L 90.1,781.0 L 90.0,778.3 L 90.1,774.4 L 90.1,770.9 L 90.3,766.4 L 90.6,763.4 L 91.0,760.3 L 91.4,757.4 L 91.8,754.4 L 92.4,750.5 L 93.0,747.6 L 93.6,745.2 L 94.2,742.6 L 95.1,739.4 L 96.0,736.5 L 97.2,733.1 L 98.5,729.6 L 99.8,726.1 L 101.2,722.8 L 110.5,700.1 L 120.4,676.1 L 142.4,622.9 L 177.7,537.0 L 232.7,403.1 L 253.1,353.3 L 269.4,313.6 L 349.9,117.5 Z" fill="none" stroke="#e7edf8" stroke-width="2.6" stroke-linejoin="round" stroke-linecap="round"/>
<path d="M 349.9,117.5 L 351.8,114.2 L 353.8,111.0 L 356.9,107.2 L 361.1,103.4 L 365.6,100.4 L 370.2,97.9 L 375.2,96.2 L 380.6,95.1 L 386.4,94.6 L 391.8,95.1 L 398.1,96.7 L 403.8,99.1 L 408.4,102.0 L 412.4,105.5 L 415.5,108.9 L 419.3,114.0 L 422.0,119.1 L 424.0,124.3 L 425.0,129.5 L 425.5,135.1 L 425.4,139.7 L 424.9,143.4 L 424.0,146.9 L 422.8,150.6 L 400.2,207.1 L 383.0,245.5 L 379.3,256.1 L 375.5,267.3 L 372.8,276.6 L 370.6,285.5 L 369.0,293.6 L 368.0,299.8 L 367.1,307.2 L 366.3,315.5 L 365.9,323.7 L 365.8,331.2 L 365.8,371.5 L 365.7,373.9 L 365.4,376.4 L 364.8,379.1 L 364.0,381.5 L 363.0,383.7 L 361.9,386.0 L 360.4,388.6 L 357.8,392.5 L 355.0,396.1 L 351.9,399.3 L 348.8,402.1 L 345.0,404.8 L 341.4,407.1 L 337.1,409.3 L 331.9,411.5 L 283.9,430.0 L 279.7,431.7 L 274.3,433.7 L 270.9,435.4 L 267.3,438.0 L 264.9,440.1 L 261.9,443.7 L 259.7,447.4 L 257.7,451.5 L 256.4,455.7 L 255.7,460.2 L 255.6,464.7 L 256.4,469.8 L 257.6,475.0 L 259.4,479.1 L 261.9,483.3 L 265.2,487.5 L 269.0,490.7 L 273.2,493.7 L 278.4,496.2 L 283.1,497.5 L 287.3,498.0 L 290.7,498.1 L 294.8,497.8 L 298.8,497.0 L 303.9,495.7 L 308.7,494.3 L 317.6,491.4 L 368.4,474.6 L 379.7,471.4 L 391.4,468.1 L 403.9,464.9 L 416.4,462.1 L 427.1,460.5 L 437.0,459.4 L 446.0,458.6 L 455.2,458.2 L 464.5,458.3 L 474.1,458.6 L 483.3,459.0 L 491.0,459.7 L 500.9,461.0 L 509.1,462.2 L 519.5,464.2 L 529.8,466.4 L 539.6,468.7 L 577.3,477.5 L 585.2,478.9 L 591.7,480.0 L 597.8,480.8 L 605.2,481.5 L 612.5,482.0 L 619.7,482.1 L 626.4,481.9 L 634.4,481.0 L 641.4,480.0 L 649.4,478.3 L 657.7,476.2 L 665.6,473.5 L 682.9,466.1 L 688.4,463.6 L 695.7,459.7 L 702.3,455.9 L 708.4,452.1 L 717.0,446.5 L 720.1,444.6 L 722.2,443.2 L 727.4,439.8 L 730.8,437.7 L 738.5,433.0 L 745.9,428.7 L 752.4,425.1 L 759.5,421.4 L 767.0,417.8 L 774.5,414.9 L 782.5,412.2 L 792.2,409.6 L 802.2,407.8 L 813.2,406.4 L 819.6,406.0 L 828.5,405.7 L 837.6,405.7 L 845.9,406.1 L 856.4,406.6 L 868.4,407.3 L 934.0,411.1 L 940.6,411.6 L 946.7,412.3 L 952.3,413.0 L 958.3,414.0 L 963.7,415.1 L 969.8,416.7 L 976.2,418.9 L 982.2,421.4 L 987.2,423.7 L 991.7,426.2 L 996.8,429.4 L 1002.5,433.6 L 1007.8,438.1 L 1012.3,442.4 L 1016.6,447.0 L 1020.9,452.5 L 1023.9,456.7 L 1026.9,461.5 L 1029.5,466.4 L 1031.5,470.5 L 1033.6,475.5 L 1035.3,480.6 L 1036.9,486.2 L 1038.1,491.3 L 1038.9,496.0 L 1039.5,501.3 L 1039.8,506.1 L 1040.0,511.2 L 1039.9,515.8 L 1039.5,521.1 L 1038.7,526.3 L 1037.8,531.6 L 1036.7,535.9 L 1035.4,540.4 L 1034.2,544.1 L 1032.3,548.6 L 1030.4,552.6 L 1027.9,557.6 L 1025.6,561.4 L 1023.6,564.9 L 1020.6,569.5 L 1017.7,573.9 L 977.6,631.5 L 973.6,637.4 L 969.9,643.2 L 966.6,648.2 L 963.9,652.8 L 961.4,657.3 L 958.8,662.1 L 955.5,668.8 L 952.4,675.5 L 949.2,682.4 L 945.9,689.7 L 943.3,695.1 L 921.2,739.8 L 919.2,743.4 L 917.8,745.7 L 916.3,747.7 L 914.0,750.0 L 912.1,751.5 L 909.5,753.3 L 906.3,754.9 L 903.5,755.9 L 899.7,757.0 L 895.4,757.7 L 890.2,758.3 L 884.2,758.8 L 876.9,759.1 L 869.1,759.0 L 861.0,758.6 L 852.5,757.9 L 844.8,756.9 L 836.0,755.4 L 828.2,753.7 L 820.0,751.6 L 812.5,749.4 L 804.7,746.8 L 800.9,745.4 L 795.5,743.3 L 788.5,740.3 L 781.0,736.6 L 773.7,732.7 L 765.4,727.7 L 756.6,721.9 L 749.5,716.7 L 744.6,712.9 L 739.1,708.1 L 734.6,704.0 L 730.9,700.6 L 728.0,697.8 L 725.7,695.3 L 723.7,692.7 L 721.9,690.1 L 720.7,687.7 L 719.6,684.7 L 718.7,681.6 L 718.4,679.1 L 718.2,676.6 L 718.2,674.2 L 718.4,671.7 L 719.3,668.5 L 720.3,665.9 L 721.7,663.3 L 723.4,660.8 L 725.3,658.3 L 727.4,655.9 L 729.6,653.8 L 731.4,652.1 L 733.6,650.2 L 736.0,648.3 L 738.3,646.6 L 740.7,644.9 L 743.6,642.9 L 745.9,641.4 L 748.0,640.1 L 750.4,638.9 L 752.8,637.6 L 756.2,635.8 L 758.9,634.6 L 761.7,633.3 L 764.0,632.4 L 766.9,631.4 L 769.3,630.7 L 771.4,630.2 L 773.5,629.6 L 775.5,629.3 L 778.2,628.8 L 780.9,628.3 L 785.3,627.7 L 802.1,625.5 L 807.8,624.6 L 813.0,623.8 L 817.9,623.0 L 822.7,622.1 L 827.3,621.2 L 831.2,620.3 L 835.7,619.2 L 840.3,618.0 L 844.4,616.8 L 848.6,615.5 L 852.9,614.1 L 857.8,612.4 L 861.7,611.0 L 865.5,609.6 L 869.6,608.0 L 873.4,606.4 L 876.8,604.9 L 880.1,603.5 L 883.5,602.0 L 887.1,600.1 L 889.5,598.8 L 891.8,597.5 L 893.5,596.4 L 895.2,595.2 L 896.8,593.9 L 898.3,592.6 L 899.7,591.2 L 900.9,589.7 L 902.6,587.7 L 903.8,586.0 L 905.3,583.8 L 906.4,581.9 L 907.4,580.1 L 908.3,578.3 L 909.1,576.5 L 909.9,574.7 L 910.6,572.7 L 911.1,570.9 L 911.5,569.0 L 911.9,567.2 L 912.3,564.9 L 912.5,562.8 L 912.7,561.1 L 912.8,559.4 L 912.8,557.6 L 912.7,555.5 L 912.6,553.7 L 912.4,552.0 L 912.0,549.8 L 911.7,548.3 L 911.1,546.2 L 910.5,544.0 L 909.8,542.2 L 909.1,540.6 L 908.3,539.0 L 907.7,537.9 L 907.0,536.6 L 906.4,535.4 L 905.5,533.9 L 904.6,532.5 L 903.4,530.7 L 902.0,528.9 L 900.9,527.7 L 899.5,526.2 L 898.1,524.7 L 896.6,523.3 L 894.7,521.7 L 892.8,520.3 L 891.0,519.1 L 889.0,517.8 L 886.2,516.3 L 884.3,515.4 L 882.2,514.5 L 879.7,513.8 L 877.2,513.1 L 874.1,512.4 L 869.7,511.8 L 823.1,507.0 L 817.4,506.4 L 812.2,505.9 L 806.4,505.5 L 801.0,505.2 L 795.6,505.0 L 790.6,504.7 L 784.5,504.6 L 778.6,504.4 L 771.9,504.4 L 766.1,504.4 L 759.3,504.5 L 751.7,504.7 L 742.0,505.0 L 730.6,505.6 L 721.2,506.2 L 713.7,506.8 L 704.3,507.7 L 697.5,508.5 L 688.8,509.5 L 681.3,510.5 L 674.1,511.4 L 666.1,512.5 L 659.1,513.5 L 652.2,514.7 L 644.1,516.1 L 636.1,517.5 L 628.3,519.0 L 620.2,520.8 L 610.4,522.9 L 602.6,524.7 L 594.0,526.7 L 583.7,529.4 L 574.5,531.9 L 565.3,534.6 L 555.9,537.5 L 546.3,540.6 L 538.7,543.1 L 530.8,545.8 L 521.6,549.1 L 513.9,551.9 L 505.8,555.0 L 498.0,558.1 L 489.8,561.3 L 481.1,564.9 L 472.7,568.4 L 459.9,573.8 L 450.7,577.8 L 441.9,581.8 L 433.5,585.9 L 426.3,589.6 L 420.4,592.9 L 399.6,604.8 L 397.1,606.2 L 394.9,607.2 L 392.9,607.9 L 391.0,608.3 L 388.9,608.4 L 386.5,608.2 L 385.0,607.9 L 383.5,607.5 L 382.1,606.8 L 380.9,605.9 L 379.8,604.9 L 379.0,604.2 L 378.0,603.0 L 376.9,601.4 L 375.6,599.2 L 370.3,589.5 L 368.8,586.9 L 367.2,584.4 L 365.3,581.6 L 364.1,580.0 L 362.6,578.4 L 360.9,576.7 L 359.4,575.5 L 357.7,574.2 L 355.3,572.7 L 353.2,571.5 L 351.0,570.5 L 348.7,569.7 L 346.4,569.1 L 343.8,568.6 L 341.6,568.3 L 339.2,568.2 L 336.7,568.2 L 334.0,568.4 L 331.4,568.8 L 329.3,569.3 L 327.1,570.0 L 324.7,570.9 L 322.8,571.8 L 320.8,573.0 L 318.7,574.3 L 316.5,575.8 L 314.9,577.1 L 313.6,578.3 L 312.0,579.7 L 310.8,581.1 L 309.7,582.5 L 308.6,584.1 L 307.7,585.5 L 306.7,587.2 L 305.9,589.0 L 305.2,590.6 L 304.6,592.5 L 303.9,594.8 L 303.6,596.4 L 303.4,597.8 L 303.3,599.4 L 303.2,600.8 L 303.3,602.3 L 303.4,604.4 L 303.6,606.0 L 303.9,607.9 L 304.2,610.0 L 305.4,616.6 L 338.6,812.0 L 343.5,841.1 L 343.9,843.7 L 344.2,845.9 L 344.3,848.0 L 344.4,850.3 L 344.4,852.6 L 344.2,854.9 L 344.0,857.2 L 343.6,859.2 L 343.2,861.3 L 342.8,863.3 L 342.4,865.2 L 341.8,867.1 L 341.3,868.9 L 340.5,870.9 L 339.8,872.5 L 339.0,874.2 L 338.0,876.0 L 337.0,877.9 L 336.0,879.5 L 334.8,881.2 L 333.6,882.9 L 332.3,884.5 L 330.8,886.2 L 329.4,887.8 L 327.7,889.5 L 326.1,891.0 L 324.5,892.3 L 322.8,893.6 L 320.9,894.9 L 319.2,896.0 L 317.2,897.2 L 314.8,898.4 L 312.2,899.6 L 309.6,900.6 L 306.9,901.4 L 304.6,902.1 L 302.7,902.5 L 300.7,903.0 L 299.1,903.3 L 297.1,903.6 L 294.9,903.7 L 292.7,903.8 L 289.6,903.9 L 220.9,905.4 L 215.8,905.3 L 211.8,905.1 L 208.5,904.9 L 205.0,904.6 L 201.9,904.1 L 198.7,903.7 L 196.0,903.2 L 193.3,902.7 L 190.5,902.1 L 188.6,901.6 L 186.7,901.2 L 184.8,900.7 L 182.8,900.1 L 180.7,899.4 L 178.8,898.8 L 176.7,898.0 L 174.6,897.3 L 172.2,896.4 L 170.4,895.6 L 168.2,894.6 L 166.0,893.6 L 164.0,892.7 L 161.8,891.6 L 159.7,890.5 L 157.1,889.2 L 154.4,887.7 L 151.9,886.2 L 149.0,884.3 L 146.1,882.3 L 143.3,880.4 L 140.3,878.1 L 137.7,876.1 L 134.4,873.3 L 131.4,870.7 L 129.0,868.5 L 126.4,865.8 L 123.2,862.5 L 120.7,859.8 L 118.7,857.5 L 116.4,854.5 L 114.5,851.9 L 112.5,849.1 L 110.7,846.4 L 108.4,842.8 L 106.7,839.8 L 105.0,836.3 L 102.8,832.0 L 101.2,828.3 L 99.4,823.8 L 98.0,820.2 L 96.4,815.6 L 95.2,811.6 L 94.3,808.4 L 93.6,805.8 L 92.9,802.8 L 92.3,800.0 L 91.7,796.8 L 91.3,794.1 L 90.9,791.2 L 90.7,788.8 L 90.4,786.3 L 90.2,783.4 L 90.1,781.0 L 90.0,778.3 L 90.1,774.4 L 90.1,770.9 L 90.3,766.4 L 90.6,763.4 L 91.0,760.3 L 91.4,757.4 L 91.8,754.4 L 92.4,750.5 L 93.0,747.6 L 93.6,745.2 L 94.2,742.6 L 95.1,739.4 L 96.0,736.5 L 97.2,733.1 L 98.5,729.6 L 99.8,726.1 L 101.2,722.8 L 110.5,700.1 L 120.4,676.1 L 142.4,622.9 L 177.7,537.0 L 232.7,403.1 L 253.1,353.3 L 269.4,313.6 L 349.9,117.5 Z" fill="none" stroke="#ff5a36" stroke-opacity="0.55" stroke-width="1.2" stroke-linejoin="round" filter="url(#glow)"/>
<circle cx="349.9" cy="117.5" r="13" fill="none" stroke="#ffffff" stroke-width="3"/>
<rect x="345.9" y="95.5" width="8" height="18" fill="#ffffff"/>
<circle cx="359.4" cy="389.9" r="7" fill="#ff5a36" stroke="#0a0c12" stroke-width="2.5" filter="url(#glow)"/>
<text x="359.4" y="393.3" font-size="9" font-weight="700" fill="#0a0c12" text-anchor="middle">1</text>
<circle cx="405.0" cy="464.6" r="7" fill="#ff5a36" stroke="#0a0c12" stroke-width="2.5" filter="url(#glow)"/>
<text x="405.0" y="468.0" font-size="9" font-weight="700" fill="#0a0c12" text-anchor="middle">2</text>
<circle cx="556.0" cy="472.5" r="7" fill="#ff5a36" stroke="#0a0c12" stroke-width="2.5" filter="url(#glow)"/>
<text x="556.0" y="475.9" font-size="9" font-weight="700" fill="#0a0c12" text-anchor="middle">3</text>
<circle cx="773.4" cy="415.3" r="7" fill="#ff5a36" stroke="#0a0c12" stroke-width="2.5" filter="url(#glow)"/>
<text x="773.4" y="418.7" font-size="9" font-weight="700" fill="#0a0c12" text-anchor="middle">4</text>
<circle cx="935.4" cy="411.2" r="7" fill="#ff5a36" stroke="#0a0c12" stroke-width="2.5" filter="url(#glow)"/>
<text x="935.4" y="414.6" font-size="9" font-weight="700" fill="#0a0c12" text-anchor="middle">5</text>
<circle cx="1040.0" cy="514.1" r="7" fill="#ff5a36" stroke="#0a0c12" stroke-width="2.5" filter="url(#glow)"/>
<text x="1040.0" y="517.5" font-size="9" font-weight="700" fill="#0a0c12" text-anchor="middle">6</text>
<circle cx="916.4" cy="747.5" r="7" fill="#ff5a36" stroke="#0a0c12" stroke-width="2.5" filter="url(#glow)"/>
<text x="916.4" y="750.9" font-size="9" font-weight="700" fill="#0a0c12" text-anchor="middle">7</text>
<circle cx="782.3" cy="628.1" r="7" fill="#ff5a36" stroke="#0a0c12" stroke-width="2.5" filter="url(#glow)"/>
<text x="782.3" y="631.5" font-size="9" font-weight="700" fill="#0a0c12" text-anchor="middle">8</text>
<circle cx="874.9" cy="512.6" r="7" fill="#ff5a36" stroke="#0a0c12" stroke-width="2.5" filter="url(#glow)"/>
<text x="874.9" y="516.0" font-size="9" font-weight="700" fill="#0a0c12" text-anchor="middle">9</text>
<circle cx="613.6" cy="522.2" r="7" fill="#ff5a36" stroke="#0a0c12" stroke-width="2.5" filter="url(#glow)"/>
<text x="613.6" y="525.6" font-size="9" font-weight="700" fill="#0a0c12" text-anchor="middle">10</text>
<circle cx="334.6" cy="788.5" r="7" fill="#ff5a36" stroke="#0a0c12" stroke-width="2.5" filter="url(#glow)"/>
<text x="334.6" y="791.9" font-size="9" font-weight="700" fill="#0a0c12" text-anchor="middle">11</text>
<circle cx="340.6" cy="870.7" r="7" fill="#ff5a36" stroke="#0a0c12" stroke-width="2.5" filter="url(#glow)"/>
<text x="340.6" y="874.1" font-size="9" font-weight="700" fill="#0a0c12" text-anchor="middle">12</text>
<circle cx="90.9" cy="791.3" r="7" fill="#ff5a36" stroke="#0a0c12" stroke-width="2.5" filter="url(#glow)"/>
<text x="90.9" y="794.7" font-size="9" font-weight="700" fill="#0a0c12" text-anchor="middle">13</text>
<circle cx="165.4" cy="566.7" r="7" fill="#ff5a36" stroke="#0a0c12" stroke-width="2.5" filter="url(#glow)"/>
<text x="165.4" y="570.1" font-size="9" font-weight="700" fill="#0a0c12" text-anchor="middle">14</text>
<line x1="359.4" y1="389.9" x2="323.6" y2="352.2" stroke="#ff5a36" stroke-opacity="0.45" stroke-width="1.3"/>
<text x="315.6" y="356.2" font-size="15" font-weight="600" fill="#eef2fb" text-anchor="end">T1</text>
<line x1="405.0" y1="464.6" x2="365.7" y2="430.5" stroke="#ff5a36" stroke-opacity="0.45" stroke-width="1.3"/>
<text x="357.7" y="434.5" font-size="15" font-weight="600" fill="#eef2fb" text-anchor="end">T2</text>
<line x1="556.0" y1="472.5" x2="557.9" y2="442.9" stroke="#ff5a36" stroke-opacity="0.45" stroke-width="1.3"/>
<text x="565.9" y="446.9" font-size="15" font-weight="600" fill="#eef2fb" text-anchor="start">T3</text>
<line x1="773.4" y1="415.3" x2="814.1" y2="382.9" stroke="#ff5a36" stroke-opacity="0.45" stroke-width="1.3"/>
<text x="822.1" y="386.9" font-size="15" font-weight="600" fill="#eef2fb" text-anchor="start">T4</text>
<line x1="935.4" y1="411.2" x2="982.4" y2="412.9" stroke="#ff5a36" stroke-opacity="0.45" stroke-width="1.3"/>
<text x="990.4" y="416.9" font-size="15" font-weight="600" fill="#eef2fb" text-anchor="start">T5</text>
<line x1="1040.0" y1="514.1" x2="1091.3" y2="543.2" stroke="#ff5a36" stroke-opacity="0.45" stroke-width="1.3"/>
<text x="1099.3" y="547.2" font-size="15" font-weight="600" fill="#eef2fb" text-anchor="start">T6</text>
<line x1="916.4" y1="747.5" x2="964.3" y2="767.8" stroke="#ff5a36" stroke-opacity="0.45" stroke-width="1.3"/>
<text x="972.3" y="771.8" font-size="15" font-weight="600" fill="#eef2fb" text-anchor="start">T7</text>
<line x1="782.3" y1="628.1" x2="833.6" y2="636.1" stroke="#ff5a36" stroke-opacity="0.45" stroke-width="1.3"/>
<text x="841.6" y="640.1" font-size="15" font-weight="600" fill="#eef2fb" text-anchor="start">T8</text>
<line x1="874.9" y1="512.6" x2="925.4" y2="513.2" stroke="#ff5a36" stroke-opacity="0.45" stroke-width="1.3"/>
<text x="933.4" y="517.2" font-size="15" font-weight="600" fill="#eef2fb" text-anchor="start">T9</text>
<line x1="613.6" y1="522.2" x2="648.0" y2="483.2" stroke="#ff5a36" stroke-opacity="0.45" stroke-width="1.3"/>
<text x="656.0" y="487.2" font-size="15" font-weight="600" fill="#eef2fb" text-anchor="start">T10</text>
<line x1="334.6" y1="788.5" x2="296.0" y2="842.0" stroke="#ff5a36" stroke-opacity="0.45" stroke-width="1.3"/>
<text x="288.0" y="846.0" font-size="15" font-weight="600" fill="#eef2fb" text-anchor="end">T11</text>
<line x1="340.6" y1="870.7" x2="309.1" y2="912.2" stroke="#ff5a36" stroke-opacity="0.45" stroke-width="1.3"/>
<text x="301.1" y="916.2" font-size="15" font-weight="600" fill="#eef2fb" text-anchor="end">T12</text>
<line x1="90.9" y1="791.3" x2="43.2" y2="812.0" stroke="#ff5a36" stroke-opacity="0.45" stroke-width="1.3"/>
<text x="35.2" y="816.0" font-size="15" font-weight="600" fill="#eef2fb" text-anchor="end">T13</text>
<line x1="165.4" y1="566.7" x2="113.5" y2="563.3" stroke="#ff5a36" stroke-opacity="0.45" stroke-width="1.3"/>
<text x="105.5" y="567.3" font-size="15" font-weight="600" fill="#eef2fb" text-anchor="end">T14</text>
<text x="90" y="64" font-size="20" letter-spacing="5" fill="#ff5a36" font-weight="700">TRACK ATLAS</text>
<text x="90" y="108" font-size="42" font-weight="800" fill="#ffffff">CIRCUIT ZANDVOORT</text>
<text x="90" y="136" font-size="16" fill="#9aa6bd">Zandvoort</text>
<rect x="1170" y="200" width="360" height="710" rx="16" fill="#ffffff" fill-opacity="0.04" stroke="#ff5a36" stroke-opacity="0.5"/>
<text x="1198" y="250" font-size="13" letter-spacing="2" fill="#8794ab">LAYOUT</text>
<text x="1198" y="276" font-size="22" font-weight="700" fill="#eef2fb">Grand Prix Circuit</text>
<text x="1198" y="320" font-size="13" letter-spacing="2" fill="#8794ab">LENGTH</text>
<text x="1198" y="346" font-size="22" font-weight="700" fill="#eef2fb">4.259 km</text>
<text x="1198" y="390" font-size="13" letter-spacing="2" fill="#8794ab">CORNERS</text>
<text x="1198" y="416" font-size="22" font-weight="700" fill="#eef2fb">14</text>
<text x="1198" y="460" font-size="13" letter-spacing="2" fill="#8794ab">NAMED CORNERS</text>
<text x="1198" y="486" font-size="22" font-weight="700" fill="#eef2fb">14</text>
<text x="1198" y="530" font-size="13" letter-spacing="2" fill="#8794ab">DIRECTION</text>
<text x="1198" y="556" font-size="22" font-weight="700" fill="#eef2fb">Clockwise</text>
<text x="1198" y="600" font-size="13" letter-spacing="2" fill="#8794ab">SECTORS</text>
<text x="1198" y="626" font-size="22" font-weight="700" fill="#eef2fb">3</text>
<text x="1198" y="670" font-size="13" letter-spacing="2" fill="#8794ab">COUNTRY</text>
<text x="1198" y="696" font-size="22" font-weight="700" fill="#eef2fb">Netherlands</text>
<text x="1198" y="740" font-size="13" letter-spacing="2" fill="#8794ab">LOCATION</text>
<text x="1198" y="766" font-size="22" font-weight="700" fill="#eef2fb">Zandvoort</text>
<text x="90" y="966" font-size="12" fill="#566177">Geometry © OpenStreetMap contributors (ODbL) · corner data: Lovely-Sim-Racing + curated · track-atlas</text>
<text x="90" y="942" font-size="12" fill="#8794ab">⚑ start / finish</text>
</svg>