<svg xmlns="http://www.w3.org/2000/svg" width="1600" height="1000" viewBox="0 0 1600 1000" font-family="Helvetica, Arial, sans-serif">
<defs>
      <radialGradient id="bg" cx="38%" cy="34%" r="85%">
        <stop offset="0%" stop-color="#1b2030"/>
        <stop offset="55%" stop-color="#12151f"/>
        <stop offset="100%" stop-color="#0a0c12"/>
      </radialGradient>
      <linearGradient id="accent" x1="0" y1="0" x2="1" y2="1">
        <stop offset="0%" stop-color="#ff5a36"/>
        <stop offset="100%" stop-color="#ffffff"/>
      </linearGradient>
      <filter id="glow" x="-40%" y="-40%" width="180%" height="180%">
        <feGaussianBlur stdDeviation="6" result="b"/>
        <feMerge><feMergeNode in="b"/><feMergeNode in="SourceGraphic"/></feMerge>
      </filter>
    </defs>
<rect width="1600" height="1000" fill="url(#bg)"/>
<path d="M 618.9,900.0 L 391.7,720.7 L 338.6,678.7 L 243.4,603.5 L 242.1,602.2 L 240.6,600.7 L 239.5,599.4 L 238.6,598.3 L 237.9,597.2 L 237.1,595.7 L 236.5,594.2 L 236.1,592.8 L 235.8,591.4 L 235.7,590.0 L 235.6,588.6 L 235.7,587.2 L 235.9,586.1 L 236.1,585.2 L 236.4,584.2 L 236.7,583.3 L 237.0,582.5 L 237.4,581.6 L 237.9,580.8 L 238.5,579.9 L 239.0,579.2 L 239.5,578.6 L 240.1,578.0 L 240.7,577.4 L 241.2,576.9 L 241.9,576.3 L 242.7,575.8 L 243.7,575.3 L 244.8,574.8 L 246.0,574.4 L 247.1,574.1 L 248.4,573.8 L 250.0,573.6 L 252.6,573.3 L 255.7,573.0 L 258.8,572.9 L 266.4,572.9 L 273.7,573.2 L 282.3,573.5 L 289.9,574.0 L 295.0,574.5 L 301.2,575.4 L 309.3,577.0 L 317.8,578.9 L 324.9,580.8 L 330.1,582.5 L 334.9,584.4 L 339.6,586.2 L 345.1,588.8 L 352.5,592.4 L 358.3,596.0 L 365.4,600.6 L 372.4,606.0 L 389.9,619.8 L 428.2,650.1 L 467.5,681.3 L 470.1,683.4 L 472.4,685.0 L 475.0,686.5 L 477.5,687.6 L 479.9,688.5 L 482.4,689.3 L 484.8,689.8 L 487.5,690.0 L 490.3,689.8 L 492.7,689.4 L 495.5,688.7 L 498.7,687.8 L 501.5,686.7 L 503.9,685.5 L 505.6,684.5 L 507.8,682.9 L 510.4,680.6 L 512.8,677.8 L 515.1,674.1 L 516.5,670.9 L 517.6,667.3 L 518.2,663.5 L 518.7,659.8 L 518.6,656.5 L 518.4,652.7 L 517.4,649.2 L 515.5,644.6 L 487.5,594.9 L 486.2,592.1 L 485.1,589.6 L 484.3,587.5 L 483.5,585.2 L 482.8,582.9 L 482.3,581.0 L 482.1,579.4 L 481.9,577.7 L 481.8,576.5 L 481.9,574.6 L 482.1,572.3 L 482.4,569.6 L 483.0,567.3 L 483.9,564.8 L 485.1,561.9 L 515.5,500.0 L 567.1,394.9 L 571.3,386.7 L 575.5,378.8 L 579.7,371.6 L 584.3,364.3 L 589.7,356.4 L 596.0,348.3 L 603.3,339.0 L 605.4,336.9 L 613.8,328.2 L 615.8,325.9 L 616.8,323.8 L 617.5,322.1 L 618.0,320.5 L 618.4,318.9 L 618.7,317.3 L 618.9,315.4 L 619.0,313.7 L 619.0,312.1 L 618.8,310.7 L 618.7,309.2 L 618.4,307.5 L 618.0,306.0 L 617.5,304.4 L 594.0,218.2 L 592.6,211.1 L 592.4,208.6 L 592.1,206.7 L 591.9,204.6 L 592.0,202.5 L 592.3,200.1 L 592.7,198.3 L 593.0,197.1 L 593.4,195.5 L 593.9,193.7 L 594.6,192.0 L 595.2,190.4 L 595.9,188.7 L 596.7,187.2 L 597.5,185.6 L 598.4,184.1 L 599.5,182.6 L 600.8,180.9 L 602.0,179.5 L 603.3,178.2 L 604.5,177.1 L 606.0,175.8 L 607.8,174.5 L 609.3,173.5 L 611.1,172.5 L 612.8,171.7 L 614.9,170.7 L 617.4,169.7 L 619.9,168.9 L 622.4,168.4 L 624.8,168.0 L 626.9,168.0 L 629.4,168.0 L 631.7,168.1 L 634.4,168.5 L 637.1,168.9 L 639.5,169.6 L 642.5,170.9 L 645.0,172.0 L 663.7,183.3 L 672.1,189.0 L 678.9,194.8 L 685.9,201.0 L 694.5,209.3 L 752.0,271.1 L 752.8,272.0 L 753.4,272.9 L 754.0,274.0 L 754.5,275.0 L 754.9,276.3 L 755.1,277.6 L 755.2,279.1 L 755.1,280.7 L 754.9,282.1 L 754.7,283.4 L 754.5,284.3 L 754.3,285.0 L 754.0,285.7 L 753.6,286.4 L 753.2,287.1 L 752.4,288.0 L 751.7,288.7 L 747.8,293.0 L 747.0,293.8 L 746.2,294.7 L 745.6,295.6 L 745.0,296.6 L 744.5,297.6 L 744.0,299.0 L 743.8,300.5 L 743.6,301.9 L 743.6,303.6 L 743.8,305.8 L 744.1,307.7 L 744.7,310.2 L 765.9,388.8 L 766.4,390.2 L 766.9,391.7 L 767.5,393.1 L 768.1,394.3 L 768.8,395.4 L 769.6,396.8 L 770.5,398.0 L 771.4,399.2 L 772.5,400.6 L 773.7,401.8 L 774.8,402.7 L 776.4,403.9 L 777.8,404.8 L 779.4,405.7 L 781.1,406.4 L 782.8,406.9 L 784.3,407.3 L 785.8,407.5 L 827.8,412.4 L 830.1,412.8 L 832.2,413.3 L 834.4,413.8 L 836.2,414.3 L 837.7,414.9 L 839.3,415.6 L 841.1,416.6 L 842.8,417.8 L 844.4,419.0 L 846.4,420.7 L 848.1,422.2 L 849.7,423.8 L 851.3,425.8 L 852.2,427.1 L 853.1,428.8 L 853.9,430.6 L 854.8,432.9 L 855.6,436.1 L 855.9,438.8 L 856.0,441.2 L 856.0,443.6 L 855.8,445.5 L 855.6,447.5 L 844.9,526.1 L 844.6,529.1 L 844.4,532.3 L 844.3,534.3 L 844.3,536.1 L 844.3,538.0 L 844.5,540.0 L 844.7,541.8 L 844.9,543.7 L 845.1,545.2 L 845.5,547.4 L 846.0,549.5 L 846.7,551.9 L 847.4,554.3 L 848.3,556.8 L 849.4,559.5 L 850.8,562.5 L 852.0,564.7 L 853.0,566.6 L 854.3,568.7 L 855.7,570.9 L 888.5,620.5 L 890.1,623.4 L 890.8,624.9 L 891.5,626.3 L 892.1,628.0 L 892.7,629.8 L 893.3,631.8 L 893.7,634.0 L 894.0,636.0 L 894.2,638.0 L 894.4,640.1 L 894.3,642.4 L 894.2,644.7 L 893.9,646.9 L 893.6,649.2 L 893.1,651.3 L 892.6,653.3 L 891.9,655.8 L 890.9,658.3 L 889.5,661.3 L 888.0,664.1 L 886.3,666.8 L 883.9,670.0 L 881.1,673.6 L 872.6,683.5 L 800.5,763.9 L 741.5,829.8 L 740.5,830.7 L 739.5,831.6 L 738.4,832.6 L 737.4,833.4 L 736.3,834.2 L 735.2,834.8 L 733.9,835.4 L 732.3,835.9 L 730.8,836.2 L 729.3,836.3 L 727.9,836.3 L 726.6,836.0 L 725.4,835.8 L 724.1,835.4 L 722.9,835.0 L 721.8,834.4 L 720.8,833.9 L 719.8,833.3 L 719.4,833.0 L 718.8,832.6 L 718.1,831.9 L 717.1,831.1 L 716.1,830.0 L 675.4,785.1 L 672.6,782.4 L 668.3,778.5 L 639.1,755.1 L 638.1,754.4 L 637.3,753.8 L 636.4,753.2 L 635.3,752.6 L 634.1,752.1 L 632.8,751.6 L 631.5,751.1 L 630.1,750.7 L 628.7,750.5 L 627.6,750.3 L 626.4,750.2 L 624.9,750.1 L 623.3,750.1 L 621.3,750.2 L 619.3,750.5 L 618.0,750.7 L 616.6,750.9 L 615.4,751.3 L 614.3,751.6 L 613.2,752.1 L 611.9,752.7 L 610.7,753.4 L 609.6,754.2 L 608.5,754.9 L 607.5,755.7 L 606.5,756.5 L 605.4,757.5 L 604.6,758.3 L 603.8,759.3 L 603.0,760.5 L 602.3,761.7 L 601.6,763.2 L 600.4,766.0 L 599.6,769.2 L 599.4,770.8 L 599.3,772.5 L 599.2,774.3 L 599.3,776.0 L 599.4,777.7 L 599.6,779.5 L 599.8,780.9 L 600.3,782.5 L 601.0,784.4 L 601.8,786.2 L 602.7,787.8 L 603.9,789.5 L 604.9,790.8 L 605.9,791.8 L 606.7,792.7 L 607.2,793.0 L 671.5,843.1 L 675.5,846.9 L 676.8,848.1 L 677.8,849.3 L 678.6,850.4 L 679.4,851.6 L 680.1,852.9 L 680.8,854.3 L 681.5,856.0 L 682.3,858.0 L 683.0,859.9 L 683.5,861.8 L 684.0,863.7 L 684.3,865.6 L 684.6,867.6 L 684.7,869.4 L 684.8,871.7 L 684.7,873.8 L 684.6,875.8 L 684.4,877.6 L 684.1,879.5 L 683.6,881.4 L 683.1,883.5 L 682.4,885.7 L 681.5,887.9 L 680.6,889.8 L 679.6,891.6 L 678.6,893.2 L 677.6,894.5 L 676.5,895.8 L 675.2,897.2 L 673.8,898.6 L 672.4,899.9 L 670.8,901.2 L 669.4,902.4 L 667.9,903.5 L 666.6,904.4 L 665.1,905.3 L 663.6,906.1 L 662.0,906.8 L 660.4,907.5 L 658.7,908.0 L 656.9,908.5 L 655.1,909.0 L 653.1,909.4 L 651.2,909.7 L 649.2,909.9 L 647.1,910.0 L 644.6,909.9 L 641.8,909.6 L 639.8,909.3 L 637.7,909.0 L 635.8,908.5 L 630.7,906.8 L 626.5,904.9 L 622.0,902.2 L 618.9,900.0 Z" fill="none" stroke="#000000" stroke-opacity="0.5" stroke-width="13" stroke-linejoin="round" stroke-linecap="round"/>
<path d="M 618.9,900.0 L 391.7,720.7 L 338.6,678.7 L 243.4,603.5 L 242.1,602.2 L 240.6,600.7 L 239.5,599.4 L 238.6,598.3 L 237.9,597.2 L 237.1,595.7 L 236.5,594.2 L 236.1,592.8 L 235.8,591.4 L 235.7,590.0 L 235.6,588.6 L 235.7,587.2 L 235.9,586.1 L 236.1,585.2 L 236.4,584.2 L 236.7,583.3 L 237.0,582.5 L 237.4,581.6 L 237.9,580.8 L 238.5,579.9 L 239.0,579.2 L 239.5,578.6 L 240.1,578.0 L 240.7,577.4 L 241.2,576.9 L 241.9,576.3 L 242.7,575.8 L 243.7,575.3 L 244.8,574.8 L 246.0,574.4 L 247.1,574.1 L 248.4,573.8 L 250.0,573.6 L 252.6,573.3 L 255.7,573.0 L 258.8,572.9 L 266.4,572.9 L 273.7,573.2 L 282.3,573.5 L 289.9,574.0 L 295.0,574.5 L 301.2,575.4 L 309.3,577.0 L 317.8,578.9 L 324.9,580.8 L 330.1,582.5 L 334.9,584.4 L 339.6,586.2 L 345.1,588.8 L 352.5,592.4 L 358.3,596.0 L 365.4,600.6 L 372.4,606.0 L 389.9,619.8 L 428.2,650.1 L 467.5,681.3 L 470.1,683.4 L 472.4,685.0 L 475.0,686.5 L 477.5,687.6 L 479.9,688.5 L 482.4,689.3 L 484.8,689.8 L 487.5,690.0 L 490.3,689.8 L 492.7,689.4 L 495.5,688.7 L 498.7,687.8 L 501.5,686.7 L 503.9,685.5 L 505.6,684.5 L 507.8,682.9 L 510.4,680.6 L 512.8,677.8 L 515.1,674.1 L 516.5,670.9 L 517.6,667.3 L 518.2,663.5 L 518.7,659.8 L 518.6,656.5 L 518.4,652.7 L 517.4,649.2 L 515.5,644.6 L 487.5,594.9 L 486.2,592.1 L 485.1,589.6 L 484.3,587.5 L 483.5,585.2 L 482.8,582.9 L 482.3,581.0 L 482.1,579.4 L 481.9,577.7 L 481.8,576.5 L 481.9,574.6 L 482.1,572.3 L 482.4,569.6 L 483.0,567.3 L 483.9,564.8 L 485.1,561.9 L 515.5,500.0 L 567.1,394.9 L 571.3,386.7 L 575.5,378.8 L 579.7,371.6 L 584.3,364.3 L 589.7,356.4 L 596.0,348.3 L 603.3,339.0 L 605.4,336.9 L 613.8,328.2 L 615.8,325.9 L 616.8,323.8 L 617.5,322.1 L 618.0,320.5 L 618.4,318.9 L 618.7,317.3 L 618.9,315.4 L 619.0,313.7 L 619.0,312.1 L 618.8,310.7 L 618.7,309.2 L 618.4,307.5 L 618.0,306.0 L 617.5,304.4 L 594.0,218.2 L 592.6,211.1 L 592.4,208.6 L 592.1,206.7 L 591.9,204.6 L 592.0,202.5 L 592.3,200.1 L 592.7,198.3 L 593.0,197.1 L 593.4,195.5 L 593.9,193.7 L 594.6,192.0 L 595.2,190.4 L 595.9,188.7 L 596.7,187.2 L 597.5,185.6 L 598.4,184.1 L 599.5,182.6 L 600.8,180.9 L 602.0,179.5 L 603.3,178.2 L 604.5,177.1 L 606.0,175.8 L 607.8,174.5 L 609.3,173.5 L 611.1,172.5 L 612.8,171.7 L 614.9,170.7 L 617.4,169.7 L 619.9,168.9 L 622.4,168.4 L 624.8,168.0 L 626.9,168.0 L 629.4,168.0 L 631.7,168.1 L 634.4,168.5 L 637.1,168.9 L 639.5,169.6 L 642.5,170.9 L 645.0,172.0 L 663.7,183.3 L 672.1,189.0 L 678.9,194.8 L 685.9,201.0 L 694.5,209.3 L 752.0,271.1 L 752.8,272.0 L 753.4,272.9 L 754.0,274.0 L 754.5,275.0 L 754.9,276.3 L 755.1,277.6 L 755.2,279.1 L 755.1,280.7 L 754.9,282.1 L 754.7,283.4 L 754.5,284.3 L 754.3,285.0 L 754.0,285.7 L 753.6,286.4 L 753.2,287.1 L 752.4,288.0 L 751.7,288.7 L 747.8,293.0 L 747.0,293.8 L 746.2,294.7 L 745.6,295.6 L 745.0,296.6 L 744.5,297.6 L 744.0,299.0 L 743.8,300.5 L 743.6,301.9 L 743.6,303.6 L 743.8,305.8 L 744.1,307.7 L 744.7,310.2 L 765.9,388.8 L 766.4,390.2 L 766.9,391.7 L 767.5,393.1 L 768.1,394.3 L 768.8,395.4 L 769.6,396.8 L 770.5,398.0 L 771.4,399.2 L 772.5,400.6 L 773.7,401.8 L 774.8,402.7 L 776.4,403.9 L 777.8,404.8 L 779.4,405.7 L 781.1,406.4 L 782.8,406.9 L 784.3,407.3 L 785.8,407.5 L 827.8,412.4 L 830.1,412.8 L 832.2,413.3 L 834.4,413.8 L 836.2,414.3 L 837.7,414.9 L 839.3,415.6 L 841.1,416.6 L 842.8,417.8 L 844.4,419.0 L 846.4,420.7 L 848.1,422.2 L 849.7,423.8 L 851.3,425.8 L 852.2,427.1 L 853.1,428.8 L 853.9,430.6 L 854.8,432.9 L 855.6,436.1 L 855.9,438.8 L 856.0,441.2 L 856.0,443.6 L 855.8,445.5 L 855.6,447.5 L 844.9,526.1 L 844.6,529.1 L 844.4,532.3 L 844.3,534.3 L 844.3,536.1 L 844.3,538.0 L 844.5,540.0 L 844.7,541.8 L 844.9,543.7 L 845.1,545.2 L 845.5,547.4 L 846.0,549.5 L 846.7,551.9 L 847.4,554.3 L 848.3,556.8 L 849.4,559.5 L 850.8,562.5 L 852.0,564.7 L 853.0,566.6 L 854.3,568.7 L 855.7,570.9 L 888.5,620.5 L 890.1,623.4 L 890.8,624.9 L 891.5,626.3 L 892.1,628.0 L 892.7,629.8 L 893.3,631.8 L 893.7,634.0 L 894.0,636.0 L 894.2,638.0 L 894.4,640.1 L 894.3,642.4 L 894.2,644.7 L 893.9,646.9 L 893.6,649.2 L 893.1,651.3 L 892.6,653.3 L 891.9,655.8 L 890.9,658.3 L 889.5,661.3 L 888.0,664.1 L 886.3,666.8 L 883.9,670.0 L 881.1,673.6 L 872.6,683.5 L 800.5,763.9 L 741.5,829.8 L 740.5,830.7 L 739.5,831.6 L 738.4,832.6 L 737.4,833.4 L 736.3,834.2 L 735.2,834.8 L 733.9,835.4 L 732.3,835.9 L 730.8,836.2 L 729.3,836.3 L 727.9,836.3 L 726.6,836.0 L 725.4,835.8 L 724.1,835.4 L 722.9,835.0 L 721.8,834.4 L 720.8,833.9 L 719.8,833.3 L 719.4,833.0 L 718.8,832.6 L 718.1,831.9 L 717.1,831.1 L 716.1,830.0 L 675.4,785.1 L 672.6,782.4 L 668.3,778.5 L 639.1,755.1 L 638.1,754.4 L 637.3,753.8 L 636.4,753.2 L 635.3,752.6 L 634.1,752.1 L 632.8,751.6 L 631.5,751.1 L 630.1,750.7 L 628.7,750.5 L 627.6,750.3 L 626.4,750.2 L 624.9,750.1 L 623.3,750.1 L 621.3,750.2 L 619.3,750.5 L 618.0,750.7 L 616.6,750.9 L 615.4,751.3 L 614.3,751.6 L 613.2,752.1 L 611.9,752.7 L 610.7,753.4 L 609.6,754.2 L 608.5,754.9 L 607.5,755.7 L 606.5,756.5 L 605.4,757.5 L 604.6,758.3 L 603.8,759.3 L 603.0,760.5 L 602.3,761.7 L 601.6,763.2 L 600.4,766.0 L 599.6,769.2 L 599.4,770.8 L 599.3,772.5 L 599.2,774.3 L 599.3,776.0 L 599.4,777.7 L 599.6,779.5 L 599.8,780.9 L 600.3,782.5 L 601.0,784.4 L 601.8,786.2 L 602.7,787.8 L 603.9,789.5 L 604.9,790.8 L 605.9,791.8 L 606.7,792.7 L 607.2,793.0 L 671.5,843.1 L 675.5,846.9 L 676.8,848.1 L 677.8,849.3 L 678.6,850.4 L 679.4,851.6 L 680.1,852.9 L 680.8,854.3 L 681.5,856.0 L 682.3,858.0 L 683.0,859.9 L 683.5,861.8 L 684.0,863.7 L 684.3,865.6 L 684.6,867.6 L 684.7,869.4 L 684.8,871.7 L 684.7,873.8 L 684.6,875.8 L 684.4,877.6 L 684.1,879.5 L 683.6,881.4 L 683.1,883.5 L 682.4,885.7 L 681.5,887.9 L 680.6,889.8 L 679.6,891.6 L 678.6,893.2 L 677.6,894.5 L 676.5,895.8 L 675.2,897.2 L 673.8,898.6 L 672.4,899.9 L 670.8,901.2 L 669.4,902.4 L 667.9,903.5 L 666.6,904.4 L 665.1,905.3 L 663.6,906.1 L 662.0,906.8 L 660.4,907.5 L 658.7,908.0 L 656.9,908.5 L 655.1,909.0 L 653.1,909.4 L 651.2,909.7 L 649.2,909.9 L 647.1,910.0 L 644.6,909.9 L 641.8,909.6 L 639.8,909.3 L 637.7,909.0 L 635.8,908.5 L 630.7,906.8 L 626.5,904.9 L 622.0,902.2 L 618.9,900.0 Z" fill="none" stroke="#39404f" stroke-width="8.5" stroke-linejoin="round" stroke-linecap="round"/>
<path d="M 618.9,900.0 L 391.7,720.7 L 338.6,678.7 L 243.4,603.5 L 242.1,602.2 L 240.6,600.7 L 239.5,599.4 L 238.6,598.3 L 237.9,597.2 L 237.1,595.7 L 236.5,594.2 L 236.1,592.8 L 235.8,591.4 L 235.7,590.0 L 235.6,588.6 L 235.7,587.2 L 235.9,586.1 L 236.1,585.2 L 236.4,584.2 L 236.7,583.3 L 237.0,582.5 L 237.4,581.6 L 237.9,580.8 L 238.5,579.9 L 239.0,579.2 L 239.5,578.6 L 240.1,578.0 L 240.7,577.4 L 241.2,576.9 L 241.9,576.3 L 242.7,575.8 L 243.7,575.3 L 244.8,574.8 L 246.0,574.4 L 247.1,574.1 L 248.4,573.8 L 250.0,573.6 L 252.6,573.3 L 255.7,573.0 L 258.8,572.9 L 266.4,572.9 L 273.7,573.2 L 282.3,573.5 L 289.9,574.0 L 295.0,574.5 L 301.2,575.4 L 309.3,577.0 L 317.8,578.9 L 324.9,580.8 L 330.1,582.5 L 334.9,584.4 L 339.6,586.2 L 345.1,588.8 L 352.5,592.4 L 358.3,596.0 L 365.4,600.6 L 372.4,606.0 L 389.9,619.8 L 428.2,650.1 L 467.5,681.3 L 470.1,683.4 L 472.4,685.0 L 475.0,686.5 L 477.5,687.6 L 479.9,688.5 L 482.4,689.3 L 484.8,689.8 L 487.5,690.0 L 490.3,689.8 L 492.7,689.4 L 495.5,688.7 L 498.7,687.8 L 501.5,686.7 L 503.9,685.5 L 505.6,684.5 L 507.8,682.9 L 510.4,680.6 L 512.8,677.8 L 515.1,674.1 L 516.5,670.9 L 517.6,667.3 L 518.2,663.5 L 518.7,659.8 L 518.6,656.5 L 518.4,652.7 L 517.4,649.2 L 515.5,644.6 L 487.5,594.9 L 486.2,592.1 L 485.1,589.6 L 484.3,587.5 L 483.5,585.2 L 482.8,582.9 L 482.3,581.0 L 482.1,579.4 L 481.9,577.7 L 481.8,576.5 L 481.9,574.6 L 482.1,572.3 L 482.4,569.6 L 483.0,567.3 L 483.9,564.8 L 485.1,561.9 L 515.5,500.0 L 567.1,394.9 L 571.3,386.7 L 575.5,378.8 L 579.7,371.6 L 584.3,364.3 L 589.7,356.4 L 596.0,348.3 L 603.3,339.0 L 605.4,336.9 L 613.8,328.2 L 615.8,325.9 L 616.8,323.8 L 617.5,322.1 L 618.0,320.5 L 618.4,318.9 L 618.7,317.3 L 618.9,315.4 L 619.0,313.7 L 619.0,312.1 L 618.8,310.7 L 618.7,309.2 L 618.4,307.5 L 618.0,306.0 L 617.5,304.4 L 594.0,218.2 L 592.6,211.1 L 592.4,208.6 L 592.1,206.7 L 591.9,204.6 L 592.0,202.5 L 592.3,200.1 L 592.7,198.3 L 593.0,197.1 L 593.4,195.5 L 593.9,193.7 L 594.6,192.0 L 595.2,190.4 L 595.9,188.7 L 596.7,187.2 L 597.5,185.6 L 598.4,184.1 L 599.5,182.6 L 600.8,180.9 L 602.0,179.5 L 603.3,178.2 L 604.5,177.1 L 606.0,175.8 L 607.8,174.5 L 609.3,173.5 L 611.1,172.5 L 612.8,171.7 L 614.9,170.7 L 617.4,169.7 L 619.9,168.9 L 622.4,168.4 L 624.8,168.0 L 626.9,168.0 L 629.4,168.0 L 631.7,168.1 L 634.4,168.5 L 637.1,168.9 L 639.5,169.6 L 642.5,170.9 L 645.0,172.0 L 663.7,183.3 L 672.1,189.0 L 678.9,194.8 L 685.9,201.0 L 694.5,209.3 L 752.0,271.1 L 752.8,272.0 L 753.4,272.9 L 754.0,274.0 L 754.5,275.0 L 754.9,276.3 L 755.1,277.6 L 755.2,279.1 L 755.1,280.7 L 754.9,282.1 L 754.7,283.4 L 754.5,284.3 L 754.3,285.0 L 754.0,285.7 L 753.6,286.4 L 753.2,287.1 L 752.4,288.0 L 751.7,288.7 L 747.8,293.0 L 747.0,293.8 L 746.2,294.7 L 745.6,295.6 L 745.0,296.6 L 744.5,297.6 L 744.0,299.0 L 743.8,300.5 L 743.6,301.9 L 743.6,303.6 L 743.8,305.8 L 744.1,307.7 L 744.7,310.2 L 765.9,388.8 L 766.4,390.2 L 766.9,391.7 L 767.5,393.1 L 768.1,394.3 L 768.8,395.4 L 769.6,396.8 L 770.5,398.0 L 771.4,399.2 L 772.5,400.6 L 773.7,401.8 L 774.8,402.7 L 776.4,403.9 L 777.8,404.8 L 779.4,405.7 L 781.1,406.4 L 782.8,406.9 L 784.3,407.3 L 785.8,407.5 L 827.8,412.4 L 830.1,412.8 L 832.2,413.3 L 834.4,413.8 L 836.2,414.3 L 837.7,414.9 L 839.3,415.6 L 841.1,416.6 L 842.8,417.8 L 844.4,419.0 L 846.4,420.7 L 848.1,422.2 L 849.7,423.8 L 851.3,425.8 L 852.2,427.1 L 853.1,428.8 L 853.9,430.6 L 854.8,432.9 L 855.6,436.1 L 855.9,438.8 L 856.0,441.2 L 856.0,443.6 L 855.8,445.5 L 855.6,447.5 L 844.9,526.1 L 844.6,529.1 L 844.4,532.3 L 844.3,534.3 L 844.3,536.1 L 844.3,538.0 L 844.5,540.0 L 844.7,541.8 L 844.9,543.7 L 845.1,545.2 L 845.5,547.4 L 846.0,549.5 L 846.7,551.9 L 847.4,554.3 L 848.3,556.8 L 849.4,559.5 L 850.8,562.5 L 852.0,564.7 L 853.0,566.6 L 854.3,568.7 L 855.7,570.9 L 888.5,620.5 L 890.1,623.4 L 890.8,624.9 L 891.5,626.3 L 892.1,628.0 L 892.7,629.8 L 893.3,631.8 L 893.7,634.0 L 894.0,636.0 L 894.2,638.0 L 894.4,640.1 L 894.3,642.4 L 894.2,644.7 L 893.9,646.9 L 893.6,649.2 L 893.1,651.3 L 892.6,653.3 L 891.9,655.8 L 890.9,658.3 L 889.5,661.3 L 888.0,664.1 L 886.3,666.8 L 883.9,670.0 L 881.1,673.6 L 872.6,683.5 L 800.5,763.9 L 741.5,829.8 L 740.5,830.7 L 739.5,831.6 L 738.4,832.6 L 737.4,833.4 L 736.3,834.2 L 735.2,834.8 L 733.9,835.4 L 732.3,835.9 L 730.8,836.2 L 729.3,836.3 L 727.9,836.3 L 726.6,836.0 L 725.4,835.8 L 724.1,835.4 L 722.9,835.0 L 721.8,834.4 L 720.8,833.9 L 719.8,833.3 L 719.4,833.0 L 718.8,832.6 L 718.1,831.9 L 717.1,831.1 L 716.1,830.0 L 675.4,785.1 L 672.6,782.4 L 668.3,778.5 L 639.1,755.1 L 638.1,754.4 L 637.3,753.8 L 636.4,753.2 L 635.3,752.6 L 634.1,752.1 L 632.8,751.6 L 631.5,751.1 L 630.1,750.7 L 628.7,750.5 L 627.6,750.3 L 626.4,750.2 L 624.9,750.1 L 623.3,750.1 L 621.3,750.2 L 619.3,750.5 L 618.0,750.7 L 616.6,750.9 L 615.4,751.3 L 614.3,751.6 L 613.2,752.1 L 611.9,752.7 L 610.7,753.4 L 609.6,754.2 L 608.5,754.9 L 607.5,755.7 L 606.5,756.5 L 605.4,757.5 L 604.6,758.3 L 603.8,759.3 L 603.0,760.5 L 602.3,761.7 L 601.6,763.2 L 600.4,766.0 L 599.6,769.2 L 599.4,770.8 L 599.3,772.5 L 599.2,774.3 L 599.3,776.0 L 599.4,777.7 L 599.6,779.5 L 599.8,780.9 L 600.3,782.5 L 601.0,784.4 L 601.8,786.2 L 602.7,787.8 L 603.9,789.5 L 604.9,790.8 L 605.9,791.8 L 606.7,792.7 L 607.2,793.0 L 671.5,843.1 L 675.5,846.9 L 676.8,848.1 L 677.8,849.3 L 678.6,850.4 L 679.4,851.6 L 680.1,852.9 L 680.8,854.3 L 681.5,856.0 L 682.3,858.0 L 683.0,859.9 L 683.5,861.8 L 684.0,863.7 L 684.3,865.6 L 684.6,867.6 L 684.7,869.4 L 684.8,871.7 L 684.7,873.8 L 684.6,875.8 L 684.4,877.6 L 684.1,879.5 L 683.6,881.4 L 683.1,883.5 L 682.4,885.7 L 681.5,887.9 L 680.6,889.8 L 679.6,891.6 L 678.6,893.2 L 677.6,894.5 L 676.5,895.8 L 675.2,897.2 L 673.8,898.6 L 672.4,899.9 L 670.8,901.2 L 669.4,902.4 L 667.9,903.5 L 666.6,904.4 L 665.1,905.3 L 663.6,906.1 L 662.0,906.8 L 660.4,907.5 L 658.7,908.0 L 656.9,908.5 L 655.1,909.0 L 653.1,909.4 L 651.2,909.7 L 649.2,909.9 L 647.1,910.0 L 644.6,909.9 L 641.8,909.6 L 639.8,909.3 L 637.7,909.0 L 635.8,908.5 L 630.7,906.8 L 626.5,904.9 L 622.0,902.2 L 618.9,900.0 Z" fill="none" stroke="#e7edf8" stroke-width="2.6" stroke-linejoin="round" stroke-linecap="round"/>
<path d="M 618.9,900.0 L 391.7,720.7 L 338.6,678.7 L 243.4,603.5 L 242.1,602.2 L 240.6,600.7 L 239.5,599.4 L 238.6,598.3 L 237.9,597.2 L 237.1,595.7 L 236.5,594.2 L 236.1,592.8 L 235.8,591.4 L 235.7,590.0 L 235.6,588.6 L 235.7,587.2 L 235.9,586.1 L 236.1,585.2 L 236.4,584.2 L 236.7,583.3 L 237.0,582.5 L 237.4,581.6 L 237.9,580.8 L 238.5,579.9 L 239.0,579.2 L 239.5,578.6 L 240.1,578.0 L 240.7,577.4 L 241.2,576.9 L 241.9,576.3 L 242.7,575.8 L 243.7,575.3 L 244.8,574.8 L 246.0,574.4 L 247.1,574.1 L 248.4,573.8 L 250.0,573.6 L 252.6,573.3 L 255.7,573.0 L 258.8,572.9 L 266.4,572.9 L 273.7,573.2 L 282.3,573.5 L 289.9,574.0 L 295.0,574.5 L 301.2,575.4 L 309.3,577.0 L 317.8,578.9 L 324.9,580.8 L 330.1,582.5 L 334.9,584.4 L 339.6,586.2 L 345.1,588.8 L 352.5,592.4 L 358.3,596.0 L 365.4,600.6 L 372.4,606.0 L 389.9,619.8 L 428.2,650.1 L 467.5,681.3 L 470.1,683.4 L 472.4,685.0 L 475.0,686.5 L 477.5,687.6 L 479.9,688.5 L 482.4,689.3 L 484.8,689.8 L 487.5,690.0 L 490.3,689.8 L 492.7,689.4 L 495.5,688.7 L 498.7,687.8 L 501.5,686.7 L 503.9,685.5 L 505.6,684.5 L 507.8,682.9 L 510.4,680.6 L 512.8,677.8 L 515.1,674.1 L 516.5,670.9 L 517.6,667.3 L 518.2,663.5 L 518.7,659.8 L 518.6,656.5 L 518.4,652.7 L 517.4,649.2 L 515.5,644.6 L 487.5,594.9 L 486.2,592.1 L 485.1,589.6 L 484.3,587.5 L 483.5,585.2 L 482.8,582.9 L 482.3,581.0 L 482.1,579.4 L 481.9,577.7 L 481.8,576.5 L 481.9,574.6 L 482.1,572.3 L 482.4,569.6 L 483.0,567.3 L 483.9,564.8 L 485.1,561.9 L 515.5,500.0 L 567.1,394.9 L 571.3,386.7 L 575.5,378.8 L 579.7,371.6 L 584.3,364.3 L 589.7,356.4 L 596.0,348.3 L 603.3,339.0 L 605.4,336.9 L 613.8,328.2 L 615.8,325.9 L 616.8,323.8 L 617.5,322.1 L 618.0,320.5 L 618.4,318.9 L 618.7,317.3 L 618.9,315.4 L 619.0,313.7 L 619.0,312.1 L 618.8,310.7 L 618.7,309.2 L 618.4,307.5 L 618.0,306.0 L 617.5,304.4 L 594.0,218.2 L 592.6,211.1 L 592.4,208.6 L 592.1,206.7 L 591.9,204.6 L 592.0,202.5 L 592.3,200.1 L 592.7,198.3 L 593.0,197.1 L 593.4,195.5 L 593.9,193.7 L 594.6,192.0 L 595.2,190.4 L 595.9,188.7 L 596.7,187.2 L 597.5,185.6 L 598.4,184.1 L 599.5,182.6 L 600.8,180.9 L 602.0,179.5 L 603.3,178.2 L 604.5,177.1 L 606.0,175.8 L 607.8,174.5 L 609.3,173.5 L 611.1,172.5 L 612.8,171.7 L 614.9,170.7 L 617.4,169.7 L 619.9,168.9 L 622.4,168.4 L 624.8,168.0 L 626.9,168.0 L 629.4,168.0 L 631.7,168.1 L 634.4,168.5 L 637.1,168.9 L 639.5,169.6 L 642.5,170.9 L 645.0,172.0 L 663.7,183.3 L 672.1,189.0 L 678.9,194.8 L 685.9,201.0 L 694.5,209.3 L 752.0,271.1 L 752.8,272.0 L 753.4,272.9 L 754.0,274.0 L 754.5,275.0 L 754.9,276.3 L 755.1,277.6 L 755.2,279.1 L 755.1,280.7 L 754.9,282.1 L 754.7,283.4 L 754.5,284.3 L 754.3,285.0 L 754.0,285.7 L 753.6,286.4 L 753.2,287.1 L 752.4,288.0 L 751.7,288.7 L 747.8,293.0 L 747.0,293.8 L 746.2,294.7 L 745.6,295.6 L 745.0,296.6 L 744.5,297.6 L 744.0,299.0 L 743.8,300.5 L 743.6,301.9 L 743.6,303.6 L 743.8,305.8 L 744.1,307.7 L 744.7,310.2 L 765.9,388.8 L 766.4,390.2 L 766.9,391.7 L 767.5,393.1 L 768.1,394.3 L 768.8,395.4 L 769.6,396.8 L 770.5,398.0 L 771.4,399.2 L 772.5,400.6 L 773.7,401.8 L 774.8,402.7 L 776.4,403.9 L 777.8,404.8 L 779.4,405.7 L 781.1,406.4 L 782.8,406.9 L 784.3,407.3 L 785.8,407.5 L 827.8,412.4 L 830.1,412.8 L 832.2,413.3 L 834.4,413.8 L 836.2,414.3 L 837.7,414.9 L 839.3,415.6 L 841.1,416.6 L 842.8,417.8 L 844.4,419.0 L 846.4,420.7 L 848.1,422.2 L 849.7,423.8 L 851.3,425.8 L 852.2,427.1 L 853.1,428.8 L 853.9,430.6 L 854.8,432.9 L 855.6,436.1 L 855.9,438.8 L 856.0,441.2 L 856.0,443.6 L 855.8,445.5 L 855.6,447.5 L 844.9,526.1 L 844.6,529.1 L 844.4,532.3 L 844.3,534.3 L 844.3,536.1 L 844.3,538.0 L 844.5,540.0 L 844.7,541.8 L 844.9,543.7 L 845.1,545.2 L 845.5,547.4 L 846.0,549.5 L 846.7,551.9 L 847.4,554.3 L 848.3,556.8 L 849.4,559.5 L 850.8,562.5 L 852.0,564.7 L 853.0,566.6 L 854.3,568.7 L 855.7,570.9 L 888.5,620.5 L 890.1,623.4 L 890.8,624.9 L 891.5,626.3 L 892.1,628.0 L 892.7,629.8 L 893.3,631.8 L 893.7,634.0 L 894.0,636.0 L 894.2,638.0 L 894.4,640.1 L 894.3,642.4 L 894.2,644.7 L 893.9,646.9 L 893.6,649.2 L 893.1,651.3 L 892.6,653.3 L 891.9,655.8 L 890.9,658.3 L 889.5,661.3 L 888.0,664.1 L 886.3,666.8 L 883.9,670.0 L 881.1,673.6 L 872.6,683.5 L 800.5,763.9 L 741.5,829.8 L 740.5,830.7 L 739.5,831.6 L 738.4,832.6 L 737.4,833.4 L 736.3,834.2 L 735.2,834.8 L 733.9,835.4 L 732.3,835.9 L 730.8,836.2 L 729.3,836.3 L 727.9,836.3 L 726.6,836.0 L 725.4,835.8 L 724.1,835.4 L 722.9,835.0 L 721.8,834.4 L 720.8,833.9 L 719.8,833.3 L 719.4,833.0 L 718.8,832.6 L 718.1,831.9 L 717.1,831.1 L 716.1,830.0 L 675.4,785.1 L 672.6,782.4 L 668.3,778.5 L 639.1,755.1 L 638.1,754.4 L 637.3,753.8 L 636.4,753.2 L 635.3,752.6 L 634.1,752.1 L 632.8,751.6 L 631.5,751.1 L 630.1,750.7 L 628.7,750.5 L 627.6,750.3 L 626.4,750.2 L 624.9,750.1 L 623.3,750.1 L 621.3,750.2 L 619.3,750.5 L 618.0,750.7 L 616.6,750.9 L 615.4,751.3 L 614.3,751.6 L 613.2,752.1 L 611.9,752.7 L 610.7,753.4 L 609.6,754.2 L 608.5,754.9 L 607.5,755.7 L 606.5,756.5 L 605.4,757.5 L 604.6,758.3 L 603.8,759.3 L 603.0,760.5 L 602.3,761.7 L 601.6,763.2 L 600.4,766.0 L 599.6,769.2 L 599.4,770.8 L 599.3,772.5 L 599.2,774.3 L 599.3,776.0 L 599.4,777.7 L 599.6,779.5 L 599.8,780.9 L 600.3,782.5 L 601.0,784.4 L 601.8,786.2 L 602.7,787.8 L 603.9,789.5 L 604.9,790.8 L 605.9,791.8 L 606.7,792.7 L 607.2,793.0 L 671.5,843.1 L 675.5,846.9 L 676.8,848.1 L 677.8,849.3 L 678.6,850.4 L 679.4,851.6 L 680.1,852.9 L 680.8,854.3 L 681.5,856.0 L 682.3,858.0 L 683.0,859.9 L 683.5,861.8 L 684.0,863.7 L 684.3,865.6 L 684.6,867.6 L 684.7,869.4 L 684.8,871.7 L 684.7,873.8 L 684.6,875.8 L 684.4,877.6 L 684.1,879.5 L 683.6,881.4 L 683.1,883.5 L 682.4,885.7 L 681.5,887.9 L 680.6,889.8 L 679.6,891.6 L 678.6,893.2 L 677.6,894.5 L 676.5,895.8 L 675.2,897.2 L 673.8,898.6 L 672.4,899.9 L 670.8,901.2 L 669.4,902.4 L 667.9,903.5 L 666.6,904.4 L 665.1,905.3 L 663.6,906.1 L 662.0,906.8 L 660.4,907.5 L 658.7,908.0 L 656.9,908.5 L 655.1,909.0 L 653.1,909.4 L 651.2,909.7 L 649.2,909.9 L 647.1,910.0 L 644.6,909.9 L 641.8,909.6 L 639.8,909.3 L 637.7,909.0 L 635.8,908.5 L 630.7,906.8 L 626.5,904.9 L 622.0,902.2 L 618.9,900.0 Z" fill="none" stroke="#ff5a36" stroke-opacity="0.55" stroke-width="1.2" stroke-linejoin="round" filter="url(#glow)"/>
<circle cx="618.9" cy="900.0" r="13" fill="none" stroke="#ffffff" stroke-width="3"/>
<rect x="614.9" y="878.0" width="8" height="18" fill="#ffffff"/>
<circle cx="316.4" cy="661.1" r="7" fill="#ff5a36" stroke="#0a0c12" stroke-width="2.5" filter="url(#glow)"/>
<text x="316.4" y="664.5" font-size="9" font-weight="700" fill="#0a0c12" text-anchor="middle">1</text>
<circle cx="409.3" cy="635.1" r="7" fill="#ff5a36" stroke="#0a0c12" stroke-width="2.5" filter="url(#glow)"/>
<text x="409.3" y="638.5" font-size="9" font-weight="700" fill="#0a0c12" text-anchor="middle">2</text>
<circle cx="501.5" cy="686.7" r="7" fill="#ff5a36" stroke="#0a0c12" stroke-width="2.5" filter="url(#glow)"/>
<text x="501.5" y="690.1" font-size="9" font-weight="700" fill="#0a0c12" text-anchor="middle">3</text>
<circle cx="554.1" cy="421.5" r="7" fill="#ff5a36" stroke="#0a0c12" stroke-width="2.5" filter="url(#glow)"/>
<text x="554.1" y="424.9" font-size="9" font-weight="700" fill="#0a0c12" text-anchor="middle">4</text>
<circle cx="611.1" cy="281.0" r="7" fill="#ff5a36" stroke="#0a0c12" stroke-width="2.5" filter="url(#glow)"/>
<text x="611.1" y="284.4" font-size="9" font-weight="700" fill="#0a0c12" text-anchor="middle">5</text>
<circle cx="678.3" cy="194.3" r="7" fill="#ff5a36" stroke="#0a0c12" stroke-width="2.5" filter="url(#glow)"/>
<text x="678.3" y="197.7" font-size="9" font-weight="700" fill="#0a0c12" text-anchor="middle">6</text>
<circle cx="693.9" cy="208.7" r="7" fill="#ff5a36" stroke="#0a0c12" stroke-width="2.5" filter="url(#glow)"/>
<text x="693.9" y="212.1" font-size="9" font-weight="700" fill="#0a0c12" text-anchor="middle">7</text>
<circle cx="748.9" cy="291.8" r="7" fill="#ff5a36" stroke="#0a0c12" stroke-width="2.5" filter="url(#glow)"/>
<text x="748.9" y="295.2" font-size="9" font-weight="700" fill="#0a0c12" text-anchor="middle">8</text>
<circle cx="760.0" cy="366.9" r="7" fill="#ff5a36" stroke="#0a0c12" stroke-width="2.5" filter="url(#glow)"/>
<text x="760.0" y="370.3" font-size="9" font-weight="700" fill="#0a0c12" text-anchor="middle">9</text>
<circle cx="855.4" cy="435.5" r="7" fill="#ff5a36" stroke="#0a0c12" stroke-width="2.5" filter="url(#glow)"/>
<text x="855.4" y="438.9" font-size="9" font-weight="700" fill="#0a0c12" text-anchor="middle">10</text>
<circle cx="844.3" cy="535.4" r="7" fill="#ff5a36" stroke="#0a0c12" stroke-width="2.5" filter="url(#glow)"/>
<text x="844.3" y="538.8" font-size="9" font-weight="700" fill="#0a0c12" text-anchor="middle">11</text>
<circle cx="809.7" cy="753.6" r="7" fill="#ff5a36" stroke="#0a0c12" stroke-width="2.5" filter="url(#glow)"/>
<text x="809.7" y="757.0" font-size="9" font-weight="700" fill="#0a0c12" text-anchor="middle">12</text>
<circle cx="698.5" cy="810.6" r="7" fill="#ff5a36" stroke="#0a0c12" stroke-width="2.5" filter="url(#glow)"/>
<text x="698.5" y="814.0" font-size="9" font-weight="700" fill="#0a0c12" text-anchor="middle">13</text>
<circle cx="627.1" cy="808.4" r="7" fill="#ff5a36" stroke="#0a0c12" stroke-width="2.5" filter="url(#glow)"/>
<text x="627.1" y="811.8" font-size="9" font-weight="700" fill="#0a0c12" text-anchor="middle">14</text>
<line x1="693.9" y1="208.7" x2="703.1" y2="157.5" stroke="#ff5a36" stroke-opacity="0.45" stroke-width="1.3"/>
<text x="711.1" y="161.5" font-size="15" font-weight="600" fill="#eef2fb" text-anchor="start">Chicane</text>
<line x1="748.9" y1="291.8" x2="769.4" y2="244.0" stroke="#ff5a36" stroke-opacity="0.45" stroke-width="1.3"/>
<text x="777.4" y="248.0" font-size="15" font-weight="600" fill="#eef2fb" text-anchor="start">T8</text>
<text x="90" y="64" font-size="20" letter-spacing="5" fill="#ff5a36" font-weight="700">TRACK ATLAS</text>
<text x="90" y="108" font-size="42" font-weight="800" fill="#ffffff">HUNGARORING</text>
<text x="90" y="136" font-size="16" fill="#9aa6bd">Budapest</text>
<rect x="1170" y="200" width="360" height="710" rx="16" fill="#ffffff" fill-opacity="0.04" stroke="#ff5a36" stroke-opacity="0.5"/>
<text x="1198" y="250" font-size="13" letter-spacing="2" fill="#8794ab">LAYOUT</text>
<text x="1198" y="276" font-size="22" font-weight="700" fill="#eef2fb">Grand Prix Circuit</text>
<text x="1198" y="320" font-size="13" letter-spacing="2" fill="#8794ab">LENGTH</text>
<text x="1198" y="346" font-size="22" font-weight="700" fill="#eef2fb">4.381 km</text>
<text x="1198" y="390" font-size="13" letter-spacing="2" fill="#8794ab">CORNERS</text>
<text x="1198" y="416" font-size="22" font-weight="700" fill="#eef2fb">14</text>
<text x="1198" y="460" font-size="13" letter-spacing="2" fill="#8794ab">NAMED CORNERS</text>
<text x="1198" y="486" font-size="22" font-weight="700" fill="#eef2fb">3</text>
<text x="1198" y="530" font-size="13" letter-spacing="2" fill="#8794ab">DIRECTION</text>
<text x="1198" y="556" font-size="22" font-weight="700" fill="#eef2fb">Clockwise</text>
<text x="1198" y="600" font-size="13" letter-spacing="2" fill="#8794ab">SECTORS</text>
<text x="1198" y="626" font-size="22" font-weight="700" fill="#eef2fb">3</text>
<text x="1198" y="670" font-size="13" letter-spacing="2" fill="#8794ab">COUNTRY</text>
<text x="1198" y="696" font-size="22" font-weight="700" fill="#eef2fb">HU</text>
<text x="1198" y="740" font-size="13" letter-spacing="2" fill="#8794ab">LOCATION</text>
<text x="1198" y="766" font-size="22" font-weight="700" fill="#eef2fb">Mogyorod</text>
<text x="1198" y="810" font-size="13" letter-spacing="2" fill="#8794ab">COMPLEXES</text>
<rect x="1198" y="816" width="70" height="24" rx="12" fill="#ff5a36" fill-opacity="0.16" stroke="#ff5a36" stroke-opacity="0.5"/>
<text x="1233" y="833" font-size="12" fill="#eef2fb" text-anchor="middle">Chicane</text>
<text x="90" y="966" font-size="12" fill="#566177">Geometry © OpenStreetMap contributors (ODbL) · corner data: Lovely-Sim-Racing + curated · track-atlas</text>
<text x="90" y="942" font-size="12" fill="#8794ab">⚑ start / finish</text>
</svg>