<svg xmlns="http://www.w3.org/2000/svg" width="1600" height="1000" viewBox="0 0 1600 1000" font-family="Helvetica, Arial, sans-serif">
<defs>
      <radialGradient id="bg" cx="38%" cy="34%" r="85%">
        <stop offset="0%" stop-color="#1b2030"/>
        <stop offset="55%" stop-color="#12151f"/>
        <stop offset="100%" stop-color="#0a0c12"/>
      </radialGradient>
      <linearGradient id="accent" x1="0" y1="0" x2="1" y2="1">
        <stop offset="0%" stop-color="#ff5a36"/>
        <stop offset="100%" stop-color="#ffffff"/>
      </linearGradient>
      <filter id="glow" x="-40%" y="-40%" width="180%" height="180%">
        <feGaussianBlur stdDeviation="6" result="b"/>
        <feMerge><feMergeNode in="b"/><feMergeNode in="SourceGraphic"/></feMerge>
      </filter>
    </defs>
<rect width="1600" height="1000" fill="url(#bg)"/>
<line x1="0" y1="0" x2="0" y2="1000" stroke="#ffffff" stroke-opacity="0.025"/>
<line x1="56" y1="0" x2="56" y2="1000" stroke="#ffffff" stroke-opacity="0.025"/>
<line x1="112" y1="0" x2="112" y2="1000" stroke="#ffffff" stroke-opacity="0.025"/>
<line x1="168" y1="0" x2="168" y2="1000" stroke="#ffffff" stroke-opacity="0.025"/>
<line x1="224" y1="0" x2="224" y2="1000" stroke="#ffffff" stroke-opacity="0.025"/>
<line x1="280" y1="0" x2="280" y2="1000" stroke="#ffffff" stroke-opacity="0.025"/>
<line x1="336" y1="0" x2="336" y2="1000" stroke="#ffffff" stroke-opacity="0.025"/>
<line x1="392" y1="0" x2="392" y2="1000" stroke="#ffffff" stroke-opacity="0.025"/>
<line x1="448" y1="0" x2="448" y2="1000" stroke="#ffffff" stroke-opacity="0.025"/>
<line x1="504" y1="0" x2="504" y2="1000" stroke="#ffffff" stroke-opacity="0.025"/>
<line x1="560" y1="0" x2="560" y2="1000" stroke="#ffffff" stroke-opacity="0.025"/>
<line x1="616" y1="0" x2="616" y2="1000" stroke="#ffffff" stroke-opacity="0.025"/>
<line x1="672" y1="0" x2="672" y2="1000" stroke="#ffffff" stroke-opacity="0.025"/>
<line x1="728" y1="0" x2="728" y2="1000" stroke="#ffffff" stroke-opacity="0.025"/>
<line x1="784" y1="0" x2="784" y2="1000" stroke="#ffffff" stroke-opacity="0.025"/>
<line x1="840" y1="0" x2="840" y2="1000" stroke="#ffffff" stroke-opacity="0.025"/>
<line x1="896" y1="0" x2="896" y2="1000" stroke="#ffffff" stroke-opacity="0.025"/>
<line x1="952" y1="0" x2="952" y2="1000" stroke="#ffffff" stroke-opacity="0.025"/>
<line x1="1008" y1="0" x2="1008" y2="1000" stroke="#ffffff" stroke-opacity="0.025"/>
<line x1="1064" y1="0" x2="1064" y2="1000" stroke="#ffffff" stroke-opacity="0.025"/>
<line x1="1120" y1="0" x2="1120" y2="1000" stroke="#ffffff" stroke-opacity="0.025"/>
<line x1="1176" y1="0" x2="1176" y2="1000" stroke="#ffffff" stroke-opacity="0.025"/>
<line x1="1232" y1="0" x2="1232" y2="1000" stroke="#ffffff" stroke-opacity="0.025"/>
<line x1="1288" y1="0" x2="1288" y2="1000" stroke="#ffffff" stroke-opacity="0.025"/>
<line x1="1344" y1="0" x2="1344" y2="1000" stroke="#ffffff" stroke-opacity="0.025"/>
<line x1="1400" y1="0" x2="1400" y2="1000" stroke="#ffffff" stroke-opacity="0.025"/>
<line x1="1456" y1="0" x2="1456" y2="1000" stroke="#ffffff" stroke-opacity="0.025"/>
<line x1="1512" y1="0" x2="1512" y2="1000" stroke="#ffffff" stroke-opacity="0.025"/>
<line x1="1568" y1="0" x2="1568" y2="1000" stroke="#ffffff" stroke-opacity="0.025"/>
<line x1="0" y1="0" x2="1600" y2="0" stroke="#ffffff" stroke-opacity="0.025"/>
<line x1="0" y1="56" x2="1600" y2="56" stroke="#ffffff" stroke-opacity="0.025"/>
<line x1="0" y1="112" x2="1600" y2="112" stroke="#ffffff" stroke-opacity="0.025"/>
<line x1="0" y1="168" x2="1600" y2="168" stroke="#ffffff" stroke-opacity="0.025"/>
<line x1="0" y1="224" x2="1600" y2="224" stroke="#ffffff" stroke-opacity="0.025"/>
<line x1="0" y1="280" x2="1600" y2="280" stroke="#ffffff" stroke-opacity="0.025"/>
<line x1="0" y1="336" x2="1600" y2="336" stroke="#ffffff" stroke-opacity="0.025"/>
<line x1="0" y1="392" x2="1600" y2="392" stroke="#ffffff" stroke-opacity="0.025"/>
<line x1="0" y1="448" x2="1600" y2="448" stroke="#ffffff" stroke-opacity="0.025"/>
<line x1="0" y1="504" x2="1600" y2="504" stroke="#ffffff" stroke-opacity="0.025"/>
<line x1="0" y1="560" x2="1600" y2="560" stroke="#ffffff" stroke-opacity="0.025"/>
<line x1="0" y1="616" x2="1600" y2="616" stroke="#ffffff" stroke-opacity="0.025"/>
<line x1="0" y1="672" x2="1600" y2="672" stroke="#ffffff" stroke-opacity="0.025"/>
<line x1="0" y1="728" x2="1600" y2="728" stroke="#ffffff" stroke-opacity="0.025"/>
<line x1="0" y1="784" x2="1600" y2="784" stroke="#ffffff" stroke-opacity="0.025"/>
<line x1="0" y1="840" x2="1600" y2="840" stroke="#ffffff" stroke-opacity="0.025"/>
<line x1="0" y1="896" x2="1600" y2="896" stroke="#ffffff" stroke-opacity="0.025"/>
<line x1="0" y1="952" x2="1600" y2="952" stroke="#ffffff" stroke-opacity="0.025"/>
<path d="M 743.7,847.8 L 797.3,787.2 L 800.8,781.8 L 801.7,777.4 L 801.4,773.7 L 798.8,768.6 L 794.6,764.7 L 790.2,762.4 L 784.9,760.8 L 776.9,759.7 L 769.1,760.1 L 762.2,762.0 L 755.3,765.6 L 745.2,772.4 L 729.7,787.2 L 724.6,790.7 L 718.5,792.8 L 710.9,793.9 L 704.6,793.8 L 697.7,791.7 L 691.7,789.3 L 685.4,785.8 L 678.6,780.0 L 673.1,772.9 L 666.7,760.7 L 666.5,743.4 L 666.2,731.9 L 666.2,691.0 L 666.0,685.8 L 665.7,657.2 L 665.6,647.4 L 665.5,642.8 L 665.4,634.7 L 665.4,630.5 L 665.3,619.2 L 665.2,613.7 L 665.2,612.4 L 665.2,607.7 L 665.1,600.8 L 665.1,596.4 L 665.4,564.7 L 665.4,554.1 L 665.4,547.7 L 665.3,539.9 L 665.1,523.0 L 664.9,497.5 L 664.9,494.6 L 664.8,480.3 L 664.7,479.1 L 664.7,474.4 L 664.4,438.0 L 664.4,431.2 L 664.2,393.5 L 664.2,385.7 L 666.7,385.7 L 699.1,385.8 L 702.5,385.9 L 741.2,386.8 L 769.9,387.3 L 774.4,384.2 L 778.6,381.3 L 779.8,380.5 L 793.3,367.3 L 799.4,358.9 L 803.2,350.8 L 803.8,349.2 L 807.0,342.0 L 809.1,331.8 L 810.2,320.2 L 810.2,314.3 L 805.0,313.2 L 799.7,311.9 L 796.5,311.0 L 795.0,310.2 L 793.2,308.9 L 791.4,307.4 L 789.2,305.1 L 788.1,303.1 L 787.3,300.9 L 786.6,298.6 L 786.5,296.5 L 786.4,293.0 L 786.8,290.1 L 787.6,287.1 L 788.4,284.7 L 791.2,278.6 L 797.7,265.8 L 798.4,264.0 L 798.7,262.1 L 799.0,249.3 L 799.1,247.7 L 799.2,244.7 L 785.7,244.4 L 753.5,243.8 L 732.4,243.1 L 709.6,242.4 L 700.2,242.1 L 676.6,242.1 L 675.8,242.2 L 665.8,242.2 L 662.5,242.2 L 657.9,233.9 L 653.7,233.6 L 634.3,232.7 L 617.6,228.8 L 608.1,224.0 L 597.4,214.6 L 588.8,205.7 L 585.0,199.9 L 578.9,187.0 L 567.0,155.3 L 567.0,155.2 L 563.8,146.8 L 561.7,141.0 L 558.7,134.9 L 558.1,133.9 L 555.4,129.2 L 551.4,125.0 L 543.8,118.1 L 536.0,110.9 L 528.3,105.6 L 518.2,101.8 L 514.4,100.4 L 500.4,97.0 L 486.0,94.3 L 475.7,92.3 L 470.2,91.2 L 466.0,90.6 L 461.7,90.0 L 458.1,96.9 L 452.9,107.7 L 450.8,111.8 L 431.7,148.8 L 422.3,166.6 L 414.3,181.5 L 409.8,190.0 L 407.2,195.0 L 402.4,203.3 L 390.5,224.0 L 388.6,227.2 L 382.3,238.3 L 379.1,243.8 L 378.1,245.7 L 376.7,248.5 L 362.6,281.0 L 352.2,314.4 L 350.8,319.3 L 344.8,339.8 L 343.5,344.1 L 340.7,354.6 L 340.5,355.8 L 339.2,360.7 L 337.8,366.8 L 336.8,372.1 L 334.4,383.4 L 331.9,399.1 L 328.9,425.1 L 327.8,434.8 L 327.6,438.9 L 326.2,464.7 L 326.1,466.4 L 326.1,469.3 L 325.9,473.7 L 325.9,476.1 L 325.9,489.9 L 325.8,537.7 L 326.1,585.7 L 326.1,592.3 L 325.7,600.3 L 324.3,626.8 L 323.7,673.9 L 323.0,693.6 L 322.3,712.8 L 321.9,724.3 L 321.7,732.5 L 321.3,743.9 L 320.9,753.9 L 320.8,757.9 L 320.6,765.1 L 320.4,769.8 L 320.4,777.2 L 320.2,793.8 L 320.2,797.6 L 320.1,799.4 L 320.0,819.9 L 320.1,840.6 L 320.1,854.2 L 320.0,860.9 L 319.8,869.8 L 326.2,876.1 L 332.8,883.0 L 342.0,892.2 L 350.2,899.8 L 352.8,901.9 L 355.8,904.5 L 359.0,906.4 L 362.1,907.4 L 366.3,908.2 L 370.7,908.5 L 390.0,909.1 L 404.2,909.0 L 431.0,909.2 L 434.4,909.3 L 439.7,909.3 L 443.7,909.4 L 487.0,909.9 L 490.9,909.8 L 496.2,909.8 L 519.0,909.7 L 522.3,909.7 L 524.0,909.7 L 528.6,909.7 L 579.9,909.8 L 597.7,909.7 L 617.5,910.0 L 636.5,909.8 L 658.5,909.8 L 659.9,909.8 L 663.0,909.8 L 667.7,909.0 L 677.1,905.3 L 682.5,903.4 L 689.0,900.4 L 696.2,897.2 L 702.3,893.3 L 707.7,888.4 L 713.2,882.2 L 718.2,876.6 L 743.7,847.8 Z" fill="none" stroke="#000000" stroke-opacity="0.5" stroke-width="13" stroke-linejoin="round" stroke-linecap="round"/>
<path d="M 743.7,847.8 L 797.3,787.2 L 800.8,781.8 L 801.7,777.4 L 801.4,773.7 L 798.8,768.6 L 794.6,764.7 L 790.2,762.4 L 784.9,760.8 L 776.9,759.7 L 769.1,760.1 L 762.2,762.0 L 755.3,765.6 L 745.2,772.4 L 729.7,787.2 L 724.6,790.7 L 718.5,792.8 L 710.9,793.9 L 704.6,793.8 L 697.7,791.7 L 691.7,789.3 L 685.4,785.8 L 678.6,780.0 L 673.1,772.9 L 666.7,760.7 L 666.5,743.4 L 666.2,731.9 L 666.2,691.0 L 666.0,685.8 L 665.7,657.2 L 665.6,647.4 L 665.5,642.8 L 665.4,634.7 L 665.4,630.5 L 665.3,619.2 L 665.2,613.7 L 665.2,612.4 L 665.2,607.7 L 665.1,600.8 L 665.1,596.4 L 665.4,564.7 L 665.4,554.1 L 665.4,547.7 L 665.3,539.9 L 665.1,523.0 L 664.9,497.5 L 664.9,494.6 L 664.8,480.3 L 664.7,479.1 L 664.7,474.4 L 664.4,438.0 L 664.4,431.2 L 664.2,393.5 L 664.2,385.7 L 666.7,385.7 L 699.1,385.8 L 702.5,385.9 L 741.2,386.8 L 769.9,387.3 L 774.4,384.2 L 778.6,381.3 L 779.8,380.5 L 793.3,367.3 L 799.4,358.9 L 803.2,350.8 L 803.8,349.2 L 807.0,342.0 L 809.1,331.8 L 810.2,320.2 L 810.2,314.3 L 805.0,313.2 L 799.7,311.9 L 796.5,311.0 L 795.0,310.2 L 793.2,308.9 L 791.4,307.4 L 789.2,305.1 L 788.1,303.1 L 787.3,300.9 L 786.6,298.6 L 786.5,296.5 L 786.4,293.0 L 786.8,290.1 L 787.6,287.1 L 788.4,284.7 L 791.2,278.6 L 797.7,265.8 L 798.4,264.0 L 798.7,262.1 L 799.0,249.3 L 799.1,247.7 L 799.2,244.7 L 785.7,244.4 L 753.5,243.8 L 732.4,243.1 L 709.6,242.4 L 700.2,242.1 L 676.6,242.1 L 675.8,242.2 L 665.8,242.2 L 662.5,242.2 L 657.9,233.9 L 653.7,233.6 L 634.3,232.7 L 617.6,228.8 L 608.1,224.0 L 597.4,214.6 L 588.8,205.7 L 585.0,199.9 L 578.9,187.0 L 567.0,155.3 L 567.0,155.2 L 563.8,146.8 L 561.7,141.0 L 558.7,134.9 L 558.1,133.9 L 555.4,129.2 L 551.4,125.0 L 543.8,118.1 L 536.0,110.9 L 528.3,105.6 L 518.2,101.8 L 514.4,100.4 L 500.4,97.0 L 486.0,94.3 L 475.7,92.3 L 470.2,91.2 L 466.0,90.6 L 461.7,90.0 L 458.1,96.9 L 452.9,107.7 L 450.8,111.8 L 431.7,148.8 L 422.3,166.6 L 414.3,181.5 L 409.8,190.0 L 407.2,195.0 L 402.4,203.3 L 390.5,224.0 L 388.6,227.2 L 382.3,238.3 L 379.1,243.8 L 378.1,245.7 L 376.7,248.5 L 362.6,281.0 L 352.2,314.4 L 350.8,319.3 L 344.8,339.8 L 343.5,344.1 L 340.7,354.6 L 340.5,355.8 L 339.2,360.7 L 337.8,366.8 L 336.8,372.1 L 334.4,383.4 L 331.9,399.1 L 328.9,425.1 L 327.8,434.8 L 327.6,438.9 L 326.2,464.7 L 326.1,466.4 L 326.1,469.3 L 325.9,473.7 L 325.9,476.1 L 325.9,489.9 L 325.8,537.7 L 326.1,585.7 L 326.1,592.3 L 325.7,600.3 L 324.3,626.8 L 323.7,673.9 L 323.0,693.6 L 322.3,712.8 L 321.9,724.3 L 321.7,732.5 L 321.3,743.9 L 320.9,753.9 L 320.8,757.9 L 320.6,765.1 L 320.4,769.8 L 320.4,777.2 L 320.2,793.8 L 320.2,797.6 L 320.1,799.4 L 320.0,819.9 L 320.1,840.6 L 320.1,854.2 L 320.0,860.9 L 319.8,869.8 L 326.2,876.1 L 332.8,883.0 L 342.0,892.2 L 350.2,899.8 L 352.8,901.9 L 355.8,904.5 L 359.0,906.4 L 362.1,907.4 L 366.3,908.2 L 370.7,908.5 L 390.0,909.1 L 404.2,909.0 L 431.0,909.2 L 434.4,909.3 L 439.7,909.3 L 443.7,909.4 L 487.0,909.9 L 490.9,909.8 L 496.2,909.8 L 519.0,909.7 L 522.3,909.7 L 524.0,909.7 L 528.6,909.7 L 579.9,909.8 L 597.7,909.7 L 617.5,910.0 L 636.5,909.8 L 658.5,909.8 L 659.9,909.8 L 663.0,909.8 L 667.7,909.0 L 677.1,905.3 L 682.5,903.4 L 689.0,900.4 L 696.2,897.2 L 702.3,893.3 L 707.7,888.4 L 713.2,882.2 L 718.2,876.6 L 743.7,847.8 Z" fill="none" stroke="#39404f" stroke-width="8.5" stroke-linejoin="round" stroke-linecap="round"/>
<path d="M 743.7,847.8 L 797.3,787.2 L 800.8,781.8 L 801.7,777.4 L 801.4,773.7 L 798.8,768.6 L 794.6,764.7 L 790.2,762.4 L 784.9,760.8 L 776.9,759.7 L 769.1,760.1 L 762.2,762.0 L 755.3,765.6 L 745.2,772.4 L 729.7,787.2 L 724.6,790.7 L 718.5,792.8 L 710.9,793.9 L 704.6,793.8 L 697.7,791.7 L 691.7,789.3 L 685.4,785.8 L 678.6,780.0 L 673.1,772.9 L 666.7,760.7 L 666.5,743.4 L 666.2,731.9 L 666.2,691.0 L 666.0,685.8 L 665.7,657.2 L 665.6,647.4 L 665.5,642.8 L 665.4,634.7 L 665.4,630.5 L 665.3,619.2 L 665.2,613.7 L 665.2,612.4 L 665.2,607.7 L 665.1,600.8 L 665.1,596.4 L 665.4,564.7 L 665.4,554.1 L 665.4,547.7 L 665.3,539.9 L 665.1,523.0 L 664.9,497.5 L 664.9,494.6 L 664.8,480.3 L 664.7,479.1 L 664.7,474.4 L 664.4,438.0 L 664.4,431.2 L 664.2,393.5 L 664.2,385.7 L 666.7,385.7 L 699.1,385.8 L 702.5,385.9 L 741.2,386.8 L 769.9,387.3 L 774.4,384.2 L 778.6,381.3 L 779.8,380.5 L 793.3,367.3 L 799.4,358.9 L 803.2,350.8 L 803.8,349.2 L 807.0,342.0 L 809.1,331.8 L 810.2,320.2 L 810.2,314.3 L 805.0,313.2 L 799.7,311.9 L 796.5,311.0 L 795.0,310.2 L 793.2,308.9 L 791.4,307.4 L 789.2,305.1 L 788.1,303.1 L 787.3,300.9 L 786.6,298.6 L 786.5,296.5 L 786.4,293.0 L 786.8,290.1 L 787.6,287.1 L 788.4,284.7 L 791.2,278.6 L 797.7,265.8 L 798.4,264.0 L 798.7,262.1 L 799.0,249.3 L 799.1,247.7 L 799.2,244.7 L 785.7,244.4 L 753.5,243.8 L 732.4,243.1 L 709.6,242.4 L 700.2,242.1 L 676.6,242.1 L 675.8,242.2 L 665.8,242.2 L 662.5,242.2 L 657.9,233.9 L 653.7,233.6 L 634.3,232.7 L 617.6,228.8 L 608.1,224.0 L 597.4,214.6 L 588.8,205.7 L 585.0,199.9 L 578.9,187.0 L 567.0,155.3 L 567.0,155.2 L 563.8,146.8 L 561.7,141.0 L 558.7,134.9 L 558.1,133.9 L 555.4,129.2 L 551.4,125.0 L 543.8,118.1 L 536.0,110.9 L 528.3,105.6 L 518.2,101.8 L 514.4,100.4 L 500.4,97.0 L 486.0,94.3 L 475.7,92.3 L 470.2,91.2 L 466.0,90.6 L 461.7,90.0 L 458.1,96.9 L 452.9,107.7 L 450.8,111.8 L 431.7,148.8 L 422.3,166.6 L 414.3,181.5 L 409.8,190.0 L 407.2,195.0 L 402.4,203.3 L 390.5,224.0 L 388.6,227.2 L 382.3,238.3 L 379.1,243.8 L 378.1,245.7 L 376.7,248.5 L 362.6,281.0 L 352.2,314.4 L 350.8,319.3 L 344.8,339.8 L 343.5,344.1 L 340.7,354.6 L 340.5,355.8 L 339.2,360.7 L 337.8,366.8 L 336.8,372.1 L 334.4,383.4 L 331.9,399.1 L 328.9,425.1 L 327.8,434.8 L 327.6,438.9 L 326.2,464.7 L 326.1,466.4 L 326.1,469.3 L 325.9,473.7 L 325.9,476.1 L 325.9,489.9 L 325.8,537.7 L 326.1,585.7 L 326.1,592.3 L 325.7,600.3 L 324.3,626.8 L 323.7,673.9 L 323.0,693.6 L 322.3,712.8 L 321.9,724.3 L 321.7,732.5 L 321.3,743.9 L 320.9,753.9 L 320.8,757.9 L 320.6,765.1 L 320.4,769.8 L 320.4,777.2 L 320.2,793.8 L 320.2,797.6 L 320.1,799.4 L 320.0,819.9 L 320.1,840.6 L 320.1,854.2 L 320.0,860.9 L 319.8,869.8 L 326.2,876.1 L 332.8,883.0 L 342.0,892.2 L 350.2,899.8 L 352.8,901.9 L 355.8,904.5 L 359.0,906.4 L 362.1,907.4 L 366.3,908.2 L 370.7,908.5 L 390.0,909.1 L 404.2,909.0 L 431.0,909.2 L 434.4,909.3 L 439.7,909.3 L 443.7,909.4 L 487.0,909.9 L 490.9,909.8 L 496.2,909.8 L 519.0,909.7 L 522.3,909.7 L 524.0,909.7 L 528.6,909.7 L 579.9,909.8 L 597.7,909.7 L 617.5,910.0 L 636.5,909.8 L 658.5,909.8 L 659.9,909.8 L 663.0,909.8 L 667.7,909.0 L 677.1,905.3 L 682.5,903.4 L 689.0,900.4 L 696.2,897.2 L 702.3,893.3 L 707.7,888.4 L 713.2,882.2 L 718.2,876.6 L 743.7,847.8 Z" fill="none" stroke="#e7edf8" stroke-width="2.6" stroke-linejoin="round" stroke-linecap="round"/>
<path d="M 743.7,847.8 L 797.3,787.2 L 800.8,781.8 L 801.7,777.4 L 801.4,773.7 L 798.8,768.6 L 794.6,764.7 L 790.2,762.4 L 784.9,760.8 L 776.9,759.7 L 769.1,760.1 L 762.2,762.0 L 755.3,765.6 L 745.2,772.4 L 729.7,787.2 L 724.6,790.7 L 718.5,792.8 L 710.9,793.9 L 704.6,793.8 L 697.7,791.7 L 691.7,789.3 L 685.4,785.8 L 678.6,780.0 L 673.1,772.9 L 666.7,760.7 L 666.5,743.4 L 666.2,731.9 L 666.2,691.0 L 666.0,685.8 L 665.7,657.2 L 665.6,647.4 L 665.5,642.8 L 665.4,634.7 L 665.4,630.5 L 665.3,619.2 L 665.2,613.7 L 665.2,612.4 L 665.2,607.7 L 665.1,600.8 L 665.1,596.4 L 665.4,564.7 L 665.4,554.1 L 665.4,547.7 L 665.3,539.9 L 665.1,523.0 L 664.9,497.5 L 664.9,494.6 L 664.8,480.3 L 664.7,479.1 L 664.7,474.4 L 664.4,438.0 L 664.4,431.2 L 664.2,393.5 L 664.2,385.7 L 666.7,385.7 L 699.1,385.8 L 702.5,385.9 L 741.2,386.8 L 769.9,387.3 L 774.4,384.2 L 778.6,381.3 L 779.8,380.5 L 793.3,367.3 L 799.4,358.9 L 803.2,350.8 L 803.8,349.2 L 807.0,342.0 L 809.1,331.8 L 810.2,320.2 L 810.2,314.3 L 805.0,313.2 L 799.7,311.9 L 796.5,311.0 L 795.0,310.2 L 793.2,308.9 L 791.4,307.4 L 789.2,305.1 L 788.1,303.1 L 787.3,300.9 L 786.6,298.6 L 786.5,296.5 L 786.4,293.0 L 786.8,290.1 L 787.6,287.1 L 788.4,284.7 L 791.2,278.6 L 797.7,265.8 L 798.4,264.0 L 798.7,262.1 L 799.0,249.3 L 799.1,247.7 L 799.2,244.7 L 785.7,244.4 L 753.5,243.8 L 732.4,243.1 L 709.6,242.4 L 700.2,242.1 L 676.6,242.1 L 675.8,242.2 L 665.8,242.2 L 662.5,242.2 L 657.9,233.9 L 653.7,233.6 L 634.3,232.7 L 617.6,228.8 L 608.1,224.0 L 597.4,214.6 L 588.8,205.7 L 585.0,199.9 L 578.9,187.0 L 567.0,155.3 L 567.0,155.2 L 563.8,146.8 L 561.7,141.0 L 558.7,134.9 L 558.1,133.9 L 555.4,129.2 L 551.4,125.0 L 543.8,118.1 L 536.0,110.9 L 528.3,105.6 L 518.2,101.8 L 514.4,100.4 L 500.4,97.0 L 486.0,94.3 L 475.7,92.3 L 470.2,91.2 L 466.0,90.6 L 461.7,90.0 L 458.1,96.9 L 452.9,107.7 L 450.8,111.8 L 431.7,148.8 L 422.3,166.6 L 414.3,181.5 L 409.8,190.0 L 407.2,195.0 L 402.4,203.3 L 390.5,224.0 L 388.6,227.2 L 382.3,238.3 L 379.1,243.8 L 378.1,245.7 L 376.7,248.5 L 362.6,281.0 L 352.2,314.4 L 350.8,319.3 L 344.8,339.8 L 343.5,344.1 L 340.7,354.6 L 340.5,355.8 L 339.2,360.7 L 337.8,366.8 L 336.8,372.1 L 334.4,383.4 L 331.9,399.1 L 328.9,425.1 L 327.8,434.8 L 327.6,438.9 L 326.2,464.7 L 326.1,466.4 L 326.1,469.3 L 325.9,473.7 L 325.9,476.1 L 325.9,489.9 L 325.8,537.7 L 326.1,585.7 L 326.1,592.3 L 325.7,600.3 L 324.3,626.8 L 323.7,673.9 L 323.0,693.6 L 322.3,712.8 L 321.9,724.3 L 321.7,732.5 L 321.3,743.9 L 320.9,753.9 L 320.8,757.9 L 320.6,765.1 L 320.4,769.8 L 320.4,777.2 L 320.2,793.8 L 320.2,797.6 L 320.1,799.4 L 320.0,819.9 L 320.1,840.6 L 320.1,854.2 L 320.0,860.9 L 319.8,869.8 L 326.2,876.1 L 332.8,883.0 L 342.0,892.2 L 350.2,899.8 L 352.8,901.9 L 355.8,904.5 L 359.0,906.4 L 362.1,907.4 L 366.3,908.2 L 370.7,908.5 L 390.0,909.1 L 404.2,909.0 L 431.0,909.2 L 434.4,909.3 L 439.7,909.3 L 443.7,909.4 L 487.0,909.9 L 490.9,909.8 L 496.2,909.8 L 519.0,909.7 L 522.3,909.7 L 524.0,909.7 L 528.6,909.7 L 579.9,909.8 L 597.7,909.7 L 617.5,910.0 L 636.5,909.8 L 658.5,909.8 L 659.9,909.8 L 663.0,909.8 L 667.7,909.0 L 677.1,905.3 L 682.5,903.4 L 689.0,900.4 L 696.2,897.2 L 702.3,893.3 L 707.7,888.4 L 713.2,882.2 L 718.2,876.6 L 743.7,847.8 Z" fill="none" stroke="#ff5a36" stroke-opacity="0.55" stroke-width="1.2" stroke-linejoin="round" filter="url(#glow)"/>
<circle cx="743.7" cy="847.8" r="13" fill="none" stroke="#ffffff" stroke-width="3"/>
<rect x="739.7" y="825.8" width="8" height="18" fill="#ffffff"/>
<circle cx="772.7" cy="759.9" r="7" fill="#ff5a36" stroke="#0a0c12" stroke-width="2.5" filter="url(#glow)"/>
<text x="772.7" y="763.3" font-size="9" font-weight="700" fill="#0a0c12" text-anchor="middle">1</text>
<circle cx="732.5" cy="784.6" r="7" fill="#ff5a36" stroke="#0a0c12" stroke-width="2.5" filter="url(#glow)"/>
<text x="732.5" y="788.0" font-size="9" font-weight="700" fill="#0a0c12" text-anchor="middle">2</text>
<circle cx="509.2" cy="909.7" r="7" fill="#ff5a36" stroke="#0a0c12" stroke-width="2.5" filter="url(#glow)"/>
<text x="509.2" y="913.1" font-size="9" font-weight="700" fill="#0a0c12" text-anchor="middle">3</text>
<circle cx="666.4" cy="741.5" r="7" fill="#ff5a36" stroke="#0a0c12" stroke-width="2.5" filter="url(#glow)"/>
<text x="666.4" y="744.9" font-size="9" font-weight="700" fill="#0a0c12" text-anchor="middle">4</text>
<circle cx="690.1" cy="385.8" r="7" fill="#ff5a36" stroke="#0a0c12" stroke-width="2.5" filter="url(#glow)"/>
<text x="690.1" y="389.2" font-size="9" font-weight="700" fill="#0a0c12" text-anchor="middle">5</text>
<circle cx="803.0" cy="351.1" r="7" fill="#ff5a36" stroke="#0a0c12" stroke-width="2.5" filter="url(#glow)"/>
<text x="803.0" y="354.5" font-size="9" font-weight="700" fill="#0a0c12" text-anchor="middle">6</text>
<circle cx="786.5" cy="296.3" r="7" fill="#ff5a36" stroke="#0a0c12" stroke-width="2.5" filter="url(#glow)"/>
<text x="786.5" y="299.7" font-size="9" font-weight="700" fill="#0a0c12" text-anchor="middle">7</text>
<circle cx="791.7" cy="277.5" r="7" fill="#ff5a36" stroke="#0a0c12" stroke-width="2.5" filter="url(#glow)"/>
<text x="791.7" y="280.9" font-size="9" font-weight="700" fill="#0a0c12" text-anchor="middle">8</text>
<circle cx="773.5" cy="244.2" r="7" fill="#ff5a36" stroke="#0a0c12" stroke-width="2.5" filter="url(#glow)"/>
<text x="773.5" y="247.6" font-size="9" font-weight="700" fill="#0a0c12" text-anchor="middle">9</text>
<circle cx="577.7" cy="183.9" r="7" fill="#ff5a36" stroke="#0a0c12" stroke-width="2.5" filter="url(#glow)"/>
<text x="577.7" y="187.3" font-size="9" font-weight="700" fill="#0a0c12" text-anchor="middle">10</text>
<circle cx="524.5" cy="104.1" r="7" fill="#ff5a36" stroke="#0a0c12" stroke-width="2.5" filter="url(#glow)"/>
<text x="524.5" y="107.5" font-size="9" font-weight="700" fill="#0a0c12" text-anchor="middle">11</text>
<circle cx="447.3" cy="118.6" r="7" fill="#ff5a36" stroke="#0a0c12" stroke-width="2.5" filter="url(#glow)"/>
<text x="447.3" y="122.0" font-size="9" font-weight="700" fill="#0a0c12" text-anchor="middle">12</text>
<circle cx="327.6" cy="437.9" r="7" fill="#ff5a36" stroke="#0a0c12" stroke-width="2.5" filter="url(#glow)"/>
<text x="327.6" y="441.3" font-size="9" font-weight="700" fill="#0a0c12" text-anchor="middle">13</text>
<circle cx="350.2" cy="899.9" r="7" fill="#ff5a36" stroke="#0a0c12" stroke-width="2.5" filter="url(#glow)"/>
<text x="350.2" y="903.3" font-size="9" font-weight="700" fill="#0a0c12" text-anchor="middle">14</text>
<circle cx="367.0" cy="908.2" r="7" fill="#ff5a36" stroke="#0a0c12" stroke-width="2.5" filter="url(#glow)"/>
<text x="367.0" y="911.6" font-size="9" font-weight="700" fill="#0a0c12" text-anchor="middle">15</text>
<circle cx="397.2" cy="909.0" r="7" fill="#ff5a36" stroke="#0a0c12" stroke-width="2.5" filter="url(#glow)"/>
<text x="397.2" y="912.4" font-size="9" font-weight="700" fill="#0a0c12" text-anchor="middle">16</text>
<circle cx="714.5" cy="880.7" r="7" fill="#ff5a36" stroke="#0a0c12" stroke-width="2.5" filter="url(#glow)"/>
<text x="714.5" y="884.1" font-size="9" font-weight="700" fill="#0a0c12" text-anchor="middle">17</text>
<line x1="772.7" y1="759.9" x2="805.9" y2="819.6" stroke="#ff5a36" stroke-opacity="0.45" stroke-width="1.3"/>
<text x="813.9" y="823.6" font-size="15" font-weight="600" fill="#eef2fb" text-anchor="start">T1</text>
<line x1="732.5" y1="784.6" x2="759.1" y2="849.6" stroke="#ff5a36" stroke-opacity="0.45" stroke-width="1.3"/>
<text x="767.1" y="853.6" font-size="15" font-weight="600" fill="#eef2fb" text-anchor="start">T2</text>
<line x1="509.2" y1="909.7" x2="500.3" y2="1034.5" stroke="#ff5a36" stroke-opacity="0.45" stroke-width="1.3"/>
<text x="492.3" y="1038.5" font-size="15" font-weight="600" fill="#eef2fb" text-anchor="end">T3</text>
<line x1="666.4" y1="741.5" x2="686.3" y2="789.6" stroke="#ff5a36" stroke-opacity="0.45" stroke-width="1.3"/>
<text x="694.3" y="793.6" font-size="15" font-weight="600" fill="#eef2fb" text-anchor="start">T4</text>
<line x1="690.1" y1="385.8" x2="723.3" y2="345.8" stroke="#ff5a36" stroke-opacity="0.45" stroke-width="1.3"/>
<text x="731.3" y="349.8" font-size="15" font-weight="600" fill="#eef2fb" text-anchor="start">T5</text>
<line x1="791.7" y1="277.5" x2="826.0" y2="238.4" stroke="#ff5a36" stroke-opacity="0.45" stroke-width="1.3"/>
<text x="834.0" y="242.4" font-size="15" font-weight="600" fill="#eef2fb" text-anchor="start">Sphere section</text>
<line x1="577.7" y1="183.9" x2="577.9" y2="131.9" stroke="#ff5a36" stroke-opacity="0.45" stroke-width="1.3"/>
<text x="585.9" y="135.9" font-size="15" font-weight="600" fill="#eef2fb" text-anchor="start">T10</text>
<line x1="524.5" y1="104.1" x2="518.1" y2="162.0" stroke="#ff5a36" stroke-opacity="0.45" stroke-width="1.3"/>
<text x="510.1" y="166.0" font-size="15" font-weight="600" fill="#eef2fb" text-anchor="end">T11</text>
<line x1="447.3" y1="118.6" x2="431.5" y2="192.0" stroke="#ff5a36" stroke-opacity="0.45" stroke-width="1.3"/>
<text x="423.5" y="196.0" font-size="15" font-weight="600" fill="#eef2fb" text-anchor="end">Strip entry</text>
<line x1="327.6" y1="437.9" x2="278.4" y2="421.1" stroke="#ff5a36" stroke-opacity="0.45" stroke-width="1.3"/>
<text x="270.4" y="425.1" font-size="15" font-weight="600" fill="#eef2fb" text-anchor="end">T13</text>
<line x1="350.2" y1="899.9" x2="323.5" y2="944.5" stroke="#ff5a36" stroke-opacity="0.45" stroke-width="1.3"/>
<text x="315.5" y="948.5" font-size="15" font-weight="600" fill="#eef2fb" text-anchor="end">End of the Strip</text>
<line x1="367.0" y1="908.2" x2="342.2" y2="974.5" stroke="#ff5a36" stroke-opacity="0.45" stroke-width="1.3"/>
<text x="334.2" y="978.5" font-size="15" font-weight="600" fill="#eef2fb" text-anchor="end">T15</text>
<line x1="397.2" y1="909.0" x2="375.3" y2="1004.5" stroke="#ff5a36" stroke-opacity="0.45" stroke-width="1.3"/>
<text x="367.3" y="1008.5" font-size="15" font-weight="600" fill="#eef2fb" text-anchor="end">T16</text>
<line x1="714.5" y1="880.7" x2="733.3" y2="929.2" stroke="#ff5a36" stroke-opacity="0.45" stroke-width="1.3"/>
<text x="741.3" y="933.2" font-size="15" font-weight="600" fill="#eef2fb" text-anchor="start">T17</text>
<text x="90" y="64" font-size="20" letter-spacing="5" fill="#ff5a36" font-weight="700">TRACK ATLAS</text>
<text x="90" y="108" font-size="42" font-weight="800" fill="#ffffff">LAS VEGAS STRIP CIRCUIT</text>
<text x="90" y="136" font-size="16" fill="#9aa6bd">Las Vegas</text>
<rect x="1170" y="200" width="360" height="710" rx="16" fill="#ffffff" fill-opacity="0.04" stroke="#ff5a36" stroke-opacity="0.5"/>
<text x="1198" y="250" font-size="13" letter-spacing="2" fill="#8794ab">LAYOUT</text>
<text x="1198" y="276" font-size="22" font-weight="700" fill="#eef2fb">Grand Prix Circuit</text>
<text x="1198" y="320" font-size="13" letter-spacing="2" fill="#8794ab">LENGTH</text>
<text x="1198" y="346" font-size="22" font-weight="700" fill="#eef2fb">6.201 km</text>
<text x="1198" y="390" font-size="13" letter-spacing="2" fill="#8794ab">CORNERS</text>
<text x="1198" y="416" font-size="22" font-weight="700" fill="#eef2fb">17</text>
<text x="1198" y="460" font-size="13" letter-spacing="2" fill="#8794ab">NAMED CORNERS</text>
<text x="1198" y="486" font-size="22" font-weight="700" fill="#eef2fb">17</text>
<text x="1198" y="530" font-size="13" letter-spacing="2" fill="#8794ab">DIRECTION</text>
<text x="1198" y="556" font-size="22" font-weight="700" fill="#eef2fb">Anticlockwise</text>
<text x="1198" y="600" font-size="13" letter-spacing="2" fill="#8794ab">SECTORS</text>
<text x="1198" y="626" font-size="22" font-weight="700" fill="#eef2fb">3</text>
<text x="1198" y="670" font-size="13" letter-spacing="2" fill="#8794ab">COUNTRY</text>
<text x="1198" y="696" font-size="22" font-weight="700" fill="#eef2fb">USA</text>
<text x="1198" y="740" font-size="13" letter-spacing="2" fill="#8794ab">LOCATION</text>
<text x="1198" y="766" font-size="22" font-weight="700" fill="#eef2fb">Las Vegas, Nevada</text>
<text x="1198" y="810" font-size="13" letter-spacing="2" fill="#8794ab">COMPLEXES</text>
<rect x="1198" y="816" width="126" height="24" rx="12" fill="#ff5a36" fill-opacity="0.16" stroke="#ff5a36" stroke-opacity="0.5"/>
<text x="1261" y="833" font-size="12" fill="#eef2fb" text-anchor="middle">Sphere section</text>
<text x="90" y="966" font-size="12" fill="#566177">Geometry © OpenStreetMap contributors (ODbL) · corner data: Lovely-Sim-Racing + curated · track-atlas</text>
<text x="90" y="942" font-size="12" fill="#8794ab">⚑ start / finish</text>
</svg>