<svg xmlns="http://www.w3.org/2000/svg" width="1600" height="1000" viewBox="0 0 1600 1000" font-family="Helvetica, Arial, sans-serif">
<defs>
      <radialGradient id="bg" cx="38%" cy="34%" r="85%">
        <stop offset="0%" stop-color="#1b2030"/>
        <stop offset="55%" stop-color="#12151f"/>
        <stop offset="100%" stop-color="#0a0c12"/>
      </radialGradient>
      <linearGradient id="accent" x1="0" y1="0" x2="1" y2="1">
        <stop offset="0%" stop-color="#ff5a36"/>
        <stop offset="100%" stop-color="#ffffff"/>
      </linearGradient>
      <filter id="glow" x="-40%" y="-40%" width="180%" height="180%">
        <feGaussianBlur stdDeviation="6" result="b"/>
        <feMerge><feMergeNode in="b"/><feMergeNode in="SourceGraphic"/></feMerge>
      </filter>
    </defs>
<rect width="1600" height="1000" fill="url(#bg)"/>
<line x1="0" y1="0" x2="0" y2="1000" stroke="#ffffff" stroke-opacity="0.025"/>
<line x1="56" y1="0" x2="56" y2="1000" stroke="#ffffff" stroke-opacity="0.025"/>
<line x1="112" y1="0" x2="112" y2="1000" stroke="#ffffff" stroke-opacity="0.025"/>
<line x1="168" y1="0" x2="168" y2="1000" stroke="#ffffff" stroke-opacity="0.025"/>
<line x1="224" y1="0" x2="224" y2="1000" stroke="#ffffff" stroke-opacity="0.025"/>
<line x1="280" y1="0" x2="280" y2="1000" stroke="#ffffff" stroke-opacity="0.025"/>
<line x1="336" y1="0" x2="336" y2="1000" stroke="#ffffff" stroke-opacity="0.025"/>
<line x1="392" y1="0" x2="392" y2="1000" stroke="#ffffff" stroke-opacity="0.025"/>
<line x1="448" y1="0" x2="448" y2="1000" stroke="#ffffff" stroke-opacity="0.025"/>
<line x1="504" y1="0" x2="504" y2="1000" stroke="#ffffff" stroke-opacity="0.025"/>
<line x1="560" y1="0" x2="560" y2="1000" stroke="#ffffff" stroke-opacity="0.025"/>
<line x1="616" y1="0" x2="616" y2="1000" stroke="#ffffff" stroke-opacity="0.025"/>
<line x1="672" y1="0" x2="672" y2="1000" stroke="#ffffff" stroke-opacity="0.025"/>
<line x1="728" y1="0" x2="728" y2="1000" stroke="#ffffff" stroke-opacity="0.025"/>
<line x1="784" y1="0" x2="784" y2="1000" stroke="#ffffff" stroke-opacity="0.025"/>
<line x1="840" y1="0" x2="840" y2="1000" stroke="#ffffff" stroke-opacity="0.025"/>
<line x1="896" y1="0" x2="896" y2="1000" stroke="#ffffff" stroke-opacity="0.025"/>
<line x1="952" y1="0" x2="952" y2="1000" stroke="#ffffff" stroke-opacity="0.025"/>
<line x1="1008" y1="0" x2="1008" y2="1000" stroke="#ffffff" stroke-opacity="0.025"/>
<line x1="1064" y1="0" x2="1064" y2="1000" stroke="#ffffff" stroke-opacity="0.025"/>
<line x1="1120" y1="0" x2="1120" y2="1000" stroke="#ffffff" stroke-opacity="0.025"/>
<line x1="1176" y1="0" x2="1176" y2="1000" stroke="#ffffff" stroke-opacity="0.025"/>
<line x1="1232" y1="0" x2="1232" y2="1000" stroke="#ffffff" stroke-opacity="0.025"/>
<line x1="1288" y1="0" x2="1288" y2="1000" stroke="#ffffff" stroke-opacity="0.025"/>
<line x1="1344" y1="0" x2="1344" y2="1000" stroke="#ffffff" stroke-opacity="0.025"/>
<line x1="1400" y1="0" x2="1400" y2="1000" stroke="#ffffff" stroke-opacity="0.025"/>
<line x1="1456" y1="0" x2="1456" y2="1000" stroke="#ffffff" stroke-opacity="0.025"/>
<line x1="1512" y1="0" x2="1512" y2="1000" stroke="#ffffff" stroke-opacity="0.025"/>
<line x1="1568" y1="0" x2="1568" y2="1000" stroke="#ffffff" stroke-opacity="0.025"/>
<line x1="0" y1="0" x2="1600" y2="0" stroke="#ffffff" stroke-opacity="0.025"/>
<line x1="0" y1="56" x2="1600" y2="56" stroke="#ffffff" stroke-opacity="0.025"/>
<line x1="0" y1="112" x2="1600" y2="112" stroke="#ffffff" stroke-opacity="0.025"/>
<line x1="0" y1="168" x2="1600" y2="168" stroke="#ffffff" stroke-opacity="0.025"/>
<line x1="0" y1="224" x2="1600" y2="224" stroke="#ffffff" stroke-opacity="0.025"/>
<line x1="0" y1="280" x2="1600" y2="280" stroke="#ffffff" stroke-opacity="0.025"/>
<line x1="0" y1="336" x2="1600" y2="336" stroke="#ffffff" stroke-opacity="0.025"/>
<line x1="0" y1="392" x2="1600" y2="392" stroke="#ffffff" stroke-opacity="0.025"/>
<line x1="0" y1="448" x2="1600" y2="448" stroke="#ffffff" stroke-opacity="0.025"/>
<line x1="0" y1="504" x2="1600" y2="504" stroke="#ffffff" stroke-opacity="0.025"/>
<line x1="0" y1="560" x2="1600" y2="560" stroke="#ffffff" stroke-opacity="0.025"/>
<line x1="0" y1="616" x2="1600" y2="616" stroke="#ffffff" stroke-opacity="0.025"/>
<line x1="0" y1="672" x2="1600" y2="672" stroke="#ffffff" stroke-opacity="0.025"/>
<line x1="0" y1="728" x2="1600" y2="728" stroke="#ffffff" stroke-opacity="0.025"/>
<line x1="0" y1="784" x2="1600" y2="784" stroke="#ffffff" stroke-opacity="0.025"/>
<line x1="0" y1="840" x2="1600" y2="840" stroke="#ffffff" stroke-opacity="0.025"/>
<line x1="0" y1="896" x2="1600" y2="896" stroke="#ffffff" stroke-opacity="0.025"/>
<line x1="0" y1="952" x2="1600" y2="952" stroke="#ffffff" stroke-opacity="0.025"/>
<path d="M 601.2,401.9 L 610.2,385.0 L 625.4,357.6 L 646.9,322.1 L 668.8,284.2 L 689.3,242.5 L 695.9,227.5 L 705.3,204.3 L 719.5,169.3 L 730.5,140.2 L 735.6,126.2 L 738.4,118.6 L 739.4,116.1 L 740.4,113.7 L 741.5,111.4 L 742.7,109.3 L 744.0,107.3 L 745.2,105.1 L 746.3,103.5 L 747.6,101.8 L 749.2,100.0 L 751.0,98.5 L 752.7,97.0 L 754.8,95.5 L 757.1,94.1 L 759.2,93.2 L 761.4,92.3 L 763.7,91.6 L 765.6,91.0 L 767.7,90.6 L 769.5,90.2 L 771.8,90.0 L 774.4,90.0 L 776.7,90.2 L 778.7,90.5 L 780.7,91.0 L 782.5,91.6 L 783.4,92.0 L 784.7,92.4 L 786.6,93.3 L 788.2,93.9 L 789.5,94.8 L 790.6,95.8 L 792.1,97.0 L 793.1,97.9 L 794.3,98.9 L 795.2,99.8 L 796.2,100.7 L 796.9,101.5 L 797.6,102.5 L 798.5,103.6 L 799.3,104.7 L 800.2,106.0 L 801.0,107.3 L 801.6,108.5 L 802.3,109.8 L 802.8,111.0 L 803.4,112.4 L 803.8,114.0 L 804.4,115.8 L 804.9,117.4 L 805.1,118.6 L 805.3,119.8 L 805.6,121.0 L 805.9,122.4 L 806.1,124.8 L 806.2,126.3 L 806.3,127.7 L 806.4,128.8 L 806.4,129.6 L 806.4,130.4 L 806.4,131.3 L 806.3,133.0 L 806.2,134.5 L 806.2,135.7 L 806.0,137.2 L 805.9,138.7 L 805.7,140.1 L 805.5,141.7 L 805.4,143.2 L 805.3,144.1 L 804.7,148.0 L 794.0,200.0 L 793.5,202.7 L 793.1,204.9 L 792.7,206.8 L 792.6,208.5 L 792.3,210.2 L 792.2,212.1 L 792.2,213.8 L 792.4,215.3 L 792.6,217.0 L 793.0,219.0 L 793.5,220.9 L 794.1,222.2 L 794.6,223.7 L 795.5,225.4 L 796.4,227.1 L 797.4,228.7 L 798.7,230.4 L 800.2,231.9 L 801.7,233.2 L 804.5,235.5 L 806.3,236.8 L 807.9,237.8 L 834.6,253.5 L 836.9,254.9 L 839.5,256.8 L 840.8,258.2 L 842.5,259.8 L 844.6,261.9 L 846.0,263.4 L 847.5,265.3 L 848.8,267.3 L 849.5,268.5 L 849.9,269.4 L 850.4,270.4 L 851.5,272.7 L 852.1,274.6 L 852.8,276.9 L 853.4,278.9 L 854.0,281.3 L 854.3,283.1 L 854.5,285.0 L 854.7,287.1 L 854.6,289.5 L 854.6,292.0 L 854.4,293.8 L 854.0,295.7 L 853.5,297.9 L 852.8,300.8 L 851.7,304.2 L 850.5,307.1 L 849.1,309.7 L 847.9,311.8 L 794.1,391.8 L 769.9,428.4 L 752.6,454.4 L 738.6,475.5 L 737.6,477.2 L 736.6,478.7 L 735.3,480.7 L 734.4,482.2 L 733.5,483.7 L 732.3,486.0 L 731.5,487.5 L 730.8,489.0 L 730.1,490.8 L 729.6,492.6 L 729.3,494.2 L 728.9,495.8 L 728.8,497.4 L 728.7,498.8 L 728.8,500.7 L 729.0,502.4 L 729.2,504.3 L 729.4,505.5 L 729.8,507.7 L 730.8,510.3 L 731.7,512.9 L 733.0,515.7 L 746.2,542.0 L 747.1,544.4 L 747.8,546.6 L 748.2,548.5 L 748.6,550.4 L 748.9,552.1 L 749.0,554.1 L 749.1,556.2 L 749.1,558.8 L 749.1,560.9 L 748.8,563.3 L 748.4,564.9 L 748.1,566.6 L 747.6,568.3 L 746.9,570.2 L 746.1,571.7 L 745.2,573.3 L 744.6,574.6 L 743.4,576.5 L 742.0,578.7 L 740.5,580.8 L 739.1,582.4 L 738.0,583.6 L 737.2,584.7 L 686.6,646.8 L 635.8,708.2 L 629.7,715.8 L 628.6,717.2 L 627.7,718.4 L 626.7,719.7 L 625.6,720.9 L 624.6,722.0 L 623.1,723.2 L 621.8,724.4 L 620.5,725.4 L 619.2,726.4 L 617.8,727.4 L 616.2,728.2 L 614.5,729.1 L 612.9,729.8 L 611.5,730.4 L 610.2,730.8 L 608.7,731.3 L 607.3,731.6 L 606.0,732.0 L 604.6,732.2 L 603.3,732.4 L 602.1,732.6 L 600.7,732.7 L 598.9,732.8 L 597.7,732.8 L 596.2,732.8 L 594.6,732.8 L 593.1,732.8 L 591.7,732.6 L 590.3,732.6 L 556.5,731.6 L 553.7,731.6 L 551.0,731.7 L 547.8,731.8 L 544.4,732.1 L 542.3,732.3 L 540.3,732.6 L 538.8,732.8 L 537.1,733.0 L 535.4,733.3 L 533.7,733.6 L 532.3,734.0 L 530.9,734.4 L 529.1,734.9 L 527.8,735.4 L 526.3,735.9 L 524.7,736.6 L 523.2,737.3 L 521.7,738.1 L 519.9,739.1 L 518.1,740.1 L 516.2,741.1 L 514.6,742.2 L 512.9,743.3 L 511.3,744.3 L 509.7,745.6 L 508.2,746.9 L 506.7,748.4 L 505.4,749.8 L 504.0,751.3 L 502.7,752.9 L 501.4,754.5 L 500.3,756.2 L 499.3,757.8 L 498.2,759.7 L 497.3,761.1 L 496.0,763.1 L 495.2,764.9 L 494.4,766.4 L 493.4,768.4 L 492.2,771.0 L 487.7,781.7 L 484.0,792.6 L 481.7,799.5 L 479.8,805.8 L 476.4,815.9 L 466.8,843.9 L 463.8,852.6 L 461.3,859.2 L 458.5,865.7 L 457.5,869.1 L 456.3,871.5 L 454.9,874.4 L 453.6,876.6 L 452.2,878.7 L 450.8,880.7 L 449.3,882.8 L 447.8,884.9 L 445.9,887.0 L 444.2,888.8 L 442.6,890.5 L 440.5,892.7 L 438.2,894.6 L 436.3,896.1 L 433.6,897.9 L 431.4,899.3 L 429.3,900.5 L 426.9,901.8 L 424.6,903.0 L 422.3,904.2 L 419.7,905.5 L 417.1,906.5 L 414.5,907.3 L 411.8,908.2 L 409.3,908.8 L 406.8,909.2 L 403.8,909.5 L 401.1,909.8 L 398.3,910.0 L 395.4,910.0 L 392.5,909.9 L 390.1,909.7 L 387.2,909.5 L 384.6,909.1 L 381.9,908.7 L 379.3,908.3 L 376.6,907.6 L 373.5,906.6 L 370.6,905.8 L 365.6,904.1 L 360.4,902.3 L 357.0,900.9 L 353.9,899.5 L 350.3,897.8 L 348.1,896.8 L 344.8,895.2 L 342.3,893.9 L 339.5,892.6 L 335.9,890.8 L 334.3,889.9 L 332.0,888.8 L 329.1,887.3 L 325.1,885.0 L 322.4,883.6 L 319.7,882.2 L 316.6,880.5 L 314.0,879.2 L 311.3,877.6 L 307.8,875.6 L 305.4,874.1 L 302.6,872.4 L 299.5,870.4 L 297.5,869.0 L 295.3,867.2 L 292.6,864.9 L 290.2,862.6 L 288.4,860.5 L 286.8,858.5 L 285.1,856.3 L 283.3,853.3 L 281.7,850.4 L 280.3,847.2 L 279.2,844.5 L 278.3,842.0 L 277.3,838.7 L 276.8,836.5 L 276.4,834.1 L 275.9,831.4 L 275.5,827.9 L 275.5,825.2 L 275.3,822.3 L 275.4,818.7 L 275.6,814.2 L 275.8,811.4 L 275.9,809.9 L 276.1,808.1 L 276.4,806.3 L 276.7,804.1 L 277.2,801.0 L 277.8,796.9 L 278.6,792.8 L 296.4,700.6 L 299.9,681.9 L 306.9,646.2 L 307.2,644.4 L 307.7,642.3 L 308.3,640.0 L 308.7,638.7 L 309.1,637.5 L 309.8,635.8 L 311.0,633.3 L 312.3,631.4 L 314.1,629.3 L 315.8,627.6 L 317.9,625.7 L 320.0,624.2 L 322.2,622.7 L 323.9,621.7 L 325.6,620.8 L 327.6,620.0 L 329.7,619.3 L 331.8,618.9 L 334.0,618.4 L 335.8,618.1 L 337.9,618.1 L 340.4,617.9 L 370.0,617.6 L 372.6,617.5 L 375.1,617.4 L 378.1,617.0 L 380.9,616.4 L 383.5,615.6 L 386.0,614.6 L 388.2,613.6 L 390.8,612.1 L 393.4,610.3 L 395.7,608.3 L 397.5,606.6 L 399.5,604.6 L 401.1,602.7 L 402.9,600.2 L 404.5,597.5 L 405.6,595.1 L 406.5,593.0 L 407.2,591.1 L 407.7,589.4 L 408.8,586.1 L 432.1,504.5 L 436.7,488.5 L 439.8,477.7 L 448.5,447.7 L 457.0,418.0 L 461.0,404.0 L 462.4,399.8 L 463.5,397.1 L 464.3,394.8 L 465.4,392.3 L 466.4,390.5 L 467.2,389.1 L 468.3,387.2 L 469.3,385.5 L 470.5,383.8 L 471.9,382.0 L 473.0,380.8 L 474.2,379.6 L 475.3,378.4 L 477.0,376.9 L 478.1,375.9 L 479.1,375.1 L 480.3,374.3 L 481.8,373.3 L 483.4,372.4 L 485.0,371.6 L 486.8,370.8 L 488.5,370.0 L 490.3,369.5 L 492.4,368.9 L 494.5,368.4 L 495.8,368.3 L 496.8,368.1 L 498.5,367.8 L 500.5,367.6 L 502.1,367.6 L 503.8,367.6 L 505.3,367.6 L 506.6,367.7 L 508.5,367.9 L 509.9,368.2 L 511.7,368.6 L 513.1,369.1 L 514.9,369.9 L 516.5,370.7 L 518.2,371.5 L 519.7,372.3 L 521.1,373.1 L 522.5,374.1 L 523.9,375.1 L 525.2,376.3 L 526.7,377.6 L 527.9,378.7 L 529.2,380.2 L 530.9,382.1 L 532.3,384.0 L 533.6,386.1 L 535.0,388.9 L 535.9,391.1 L 536.8,393.4 L 537.6,395.7 L 538.2,398.5 L 538.5,400.3 L 538.8,402.4 L 539.0,403.8 L 538.9,406.3 L 538.8,408.6 L 538.6,411.1 L 538.4,412.8 L 538.3,414.3 L 537.8,417.0 L 537.3,418.9 L 536.9,420.3 L 536.3,422.1 L 535.8,423.5 L 535.0,425.5 L 534.0,427.9 L 533.1,429.8 L 532.0,431.6 L 530.9,433.7 L 530.0,435.5 L 528.7,437.8 L 528.0,439.2 L 526.5,441.6 L 525.6,443.1 L 524.5,444.8 L 523.1,446.7 L 495.9,481.5 L 486.8,493.3 L 485.2,495.4 L 483.8,497.2 L 482.9,499.0 L 481.7,501.1 L 481.0,502.9 L 480.6,504.5 L 480.2,506.3 L 479.8,507.6 L 479.5,509.2 L 479.3,510.4 L 479.1,511.9 L 479.0,513.2 L 479.0,514.1 L 479.0,515.1 L 478.9,516.3 L 478.9,517.9 L 478.8,542.4 L 478.9,544.5 L 478.9,547.1 L 479.0,549.5 L 479.0,551.3 L 478.8,553.4 L 478.6,555.3 L 478.4,557.0 L 478.1,558.9 L 477.6,560.7 L 476.9,563.7 L 475.9,566.1 L 475.3,567.6 L 474.5,569.1 L 471.8,573.5 L 463.0,585.1 L 445.7,608.5 L 393.4,679.0 L 386.5,688.2 L 375.4,703.2 L 356.2,729.2 L 336.9,755.0 L 333.0,760.5 L 328.3,767.5 L 325.4,772.5 L 323.8,775.2 L 322.5,777.5 L 321.3,779.7 L 320.4,781.9 L 319.6,784.1 L 318.8,786.2 L 318.1,788.2 L 317.6,790.2 L 317.1,792.9 L 316.5,795.4 L 316.1,798.0 L 315.9,800.7 L 315.8,803.1 L 315.9,805.4 L 315.9,805.8 L 316.0,807.5 L 316.1,809.1 L 316.3,810.6 L 316.9,813.2 L 317.5,815.2 L 317.9,816.6 L 318.7,818.5 L 319.5,820.4 L 320.3,822.1 L 320.9,823.4 L 321.8,825.0 L 322.7,826.8 L 324.1,829.0 L 325.2,830.7 L 326.4,832.2 L 328.0,833.9 L 330.1,835.8 L 331.7,837.2 L 333.7,838.8 L 335.8,840.2 L 337.9,841.5 L 340.1,842.7 L 341.8,843.4 L 344.1,844.4 L 346.2,845.2 L 348.2,845.8 L 350.4,846.3 L 352.8,846.8 L 354.9,847.1 L 357.1,847.2 L 359.4,847.3 L 361.4,847.3 L 363.3,847.2 L 366.1,846.9 L 369.3,846.3 L 372.2,845.6 L 375.2,844.7 L 377.5,843.9 L 379.5,843.1 L 382.5,841.9 L 384.9,840.6 L 387.2,839.2 L 389.3,837.9 L 391.0,836.6 L 393.0,835.1 L 395.0,833.5 L 396.6,832.3 L 398.2,830.8 L 400.1,829.1 L 401.9,827.5 L 404.0,825.3 L 405.0,824.0 L 405.2,823.7 L 406.0,822.8 L 407.4,821.2 L 408.4,819.8 L 409.9,818.0 L 411.9,815.4 L 413.1,813.7 L 414.4,811.6 L 415.8,809.4 L 417.1,807.4 L 418.2,805.4 L 419.3,803.3 L 421.0,799.9 L 428.1,785.3 L 435.5,768.5 L 442.8,751.5 L 447.6,741.4 L 456.8,722.0 L 562.0,486.9 L 601.2,401.9 Z" fill="none" stroke="#000000" stroke-opacity="0.5" stroke-width="13" stroke-linejoin="round" stroke-linecap="round"/>
<path d="M 601.2,401.9 L 610.2,385.0 L 625.4,357.6 L 646.9,322.1 L 668.8,284.2 L 689.3,242.5 L 695.9,227.5 L 705.3,204.3 L 719.5,169.3 L 730.5,140.2 L 735.6,126.2 L 738.4,118.6 L 739.4,116.1 L 740.4,113.7 L 741.5,111.4 L 742.7,109.3 L 744.0,107.3 L 745.2,105.1 L 746.3,103.5 L 747.6,101.8 L 749.2,100.0 L 751.0,98.5 L 752.7,97.0 L 754.8,95.5 L 757.1,94.1 L 759.2,93.2 L 761.4,92.3 L 763.7,91.6 L 765.6,91.0 L 767.7,90.6 L 769.5,90.2 L 771.8,90.0 L 774.4,90.0 L 776.7,90.2 L 778.7,90.5 L 780.7,91.0 L 782.5,91.6 L 783.4,92.0 L 784.7,92.4 L 786.6,93.3 L 788.2,93.9 L 789.5,94.8 L 790.6,95.8 L 792.1,97.0 L 793.1,97.9 L 794.3,98.9 L 795.2,99.8 L 796.2,100.7 L 796.9,101.5 L 797.6,102.5 L 798.5,103.6 L 799.3,104.7 L 800.2,106.0 L 801.0,107.3 L 801.6,108.5 L 802.3,109.8 L 802.8,111.0 L 803.4,112.4 L 803.8,114.0 L 804.4,115.8 L 804.9,117.4 L 805.1,118.6 L 805.3,119.8 L 805.6,121.0 L 805.9,122.4 L 806.1,124.8 L 806.2,126.3 L 806.3,127.7 L 806.4,128.8 L 806.4,129.6 L 806.4,130.4 L 806.4,131.3 L 806.3,133.0 L 806.2,134.5 L 806.2,135.7 L 806.0,137.2 L 805.9,138.7 L 805.7,140.1 L 805.5,141.7 L 805.4,143.2 L 805.3,144.1 L 804.7,148.0 L 794.0,200.0 L 793.5,202.7 L 793.1,204.9 L 792.7,206.8 L 792.6,208.5 L 792.3,210.2 L 792.2,212.1 L 792.2,213.8 L 792.4,215.3 L 792.6,217.0 L 793.0,219.0 L 793.5,220.9 L 794.1,222.2 L 794.6,223.7 L 795.5,225.4 L 796.4,227.1 L 797.4,228.7 L 798.7,230.4 L 800.2,231.9 L 801.7,233.2 L 804.5,235.5 L 806.3,236.8 L 807.9,237.8 L 834.6,253.5 L 836.9,254.9 L 839.5,256.8 L 840.8,258.2 L 842.5,259.8 L 844.6,261.9 L 846.0,263.4 L 847.5,265.3 L 848.8,267.3 L 849.5,268.5 L 849.9,269.4 L 850.4,270.4 L 851.5,272.7 L 852.1,274.6 L 852.8,276.9 L 853.4,278.9 L 854.0,281.3 L 854.3,283.1 L 854.5,285.0 L 854.7,287.1 L 854.6,289.5 L 854.6,292.0 L 854.4,293.8 L 854.0,295.7 L 853.5,297.9 L 852.8,300.8 L 851.7,304.2 L 850.5,307.1 L 849.1,309.7 L 847.9,311.8 L 794.1,391.8 L 769.9,428.4 L 752.6,454.4 L 738.6,475.5 L 737.6,477.2 L 736.6,478.7 L 735.3,480.7 L 734.4,482.2 L 733.5,483.7 L 732.3,486.0 L 731.5,487.5 L 730.8,489.0 L 730.1,490.8 L 729.6,492.6 L 729.3,494.2 L 728.9,495.8 L 728.8,497.4 L 728.7,498.8 L 728.8,500.7 L 729.0,502.4 L 729.2,504.3 L 729.4,505.5 L 729.8,507.7 L 730.8,510.3 L 731.7,512.9 L 733.0,515.7 L 746.2,542.0 L 747.1,544.4 L 747.8,546.6 L 748.2,548.5 L 748.6,550.4 L 748.9,552.1 L 749.0,554.1 L 749.1,556.2 L 749.1,558.8 L 749.1,560.9 L 748.8,563.3 L 748.4,564.9 L 748.1,566.6 L 747.6,568.3 L 746.9,570.2 L 746.1,571.7 L 745.2,573.3 L 744.6,574.6 L 743.4,576.5 L 742.0,578.7 L 740.5,580.8 L 739.1,582.4 L 738.0,583.6 L 737.2,584.7 L 686.6,646.8 L 635.8,708.2 L 629.7,715.8 L 628.6,717.2 L 627.7,718.4 L 626.7,719.7 L 625.6,720.9 L 624.6,722.0 L 623.1,723.2 L 621.8,724.4 L 620.5,725.4 L 619.2,726.4 L 617.8,727.4 L 616.2,728.2 L 614.5,729.1 L 612.9,729.8 L 611.5,730.4 L 610.2,730.8 L 608.7,731.3 L 607.3,731.6 L 606.0,732.0 L 604.6,732.2 L 603.3,732.4 L 602.1,732.6 L 600.7,732.7 L 598.9,732.8 L 597.7,732.8 L 596.2,732.8 L 594.6,732.8 L 593.1,732.8 L 591.7,732.6 L 590.3,732.6 L 556.5,731.6 L 553.7,731.6 L 551.0,731.7 L 547.8,731.8 L 544.4,732.1 L 542.3,732.3 L 540.3,732.6 L 538.8,732.8 L 537.1,733.0 L 535.4,733.3 L 533.7,733.6 L 532.3,734.0 L 530.9,734.4 L 529.1,734.9 L 527.8,735.4 L 526.3,735.9 L 524.7,736.6 L 523.2,737.3 L 521.7,738.1 L 519.9,739.1 L 518.1,740.1 L 516.2,741.1 L 514.6,742.2 L 512.9,743.3 L 511.3,744.3 L 509.7,745.6 L 508.2,746.9 L 506.7,748.4 L 505.4,749.8 L 504.0,751.3 L 502.7,752.9 L 501.4,754.5 L 500.3,756.2 L 499.3,757.8 L 498.2,759.7 L 497.3,761.1 L 496.0,763.1 L 495.2,764.9 L 494.4,766.4 L 493.4,768.4 L 492.2,771.0 L 487.7,781.7 L 484.0,792.6 L 481.7,799.5 L 479.8,805.8 L 476.4,815.9 L 466.8,843.9 L 463.8,852.6 L 461.3,859.2 L 458.5,865.7 L 457.5,869.1 L 456.3,871.5 L 454.9,874.4 L 453.6,876.6 L 452.2,878.7 L 450.8,880.7 L 449.3,882.8 L 447.8,884.9 L 445.9,887.0 L 444.2,888.8 L 442.6,890.5 L 440.5,892.7 L 438.2,894.6 L 436.3,896.1 L 433.6,897.9 L 431.4,899.3 L 429.3,900.5 L 426.9,901.8 L 424.6,903.0 L 422.3,904.2 L 419.7,905.5 L 417.1,906.5 L 414.5,907.3 L 411.8,908.2 L 409.3,908.8 L 406.8,909.2 L 403.8,909.5 L 401.1,909.8 L 398.3,910.0 L 395.4,910.0 L 392.5,909.9 L 390.1,909.7 L 387.2,909.5 L 384.6,909.1 L 381.9,908.7 L 379.3,908.3 L 376.6,907.6 L 373.5,906.6 L 370.6,905.8 L 365.6,904.1 L 360.4,902.3 L 357.0,900.9 L 353.9,899.5 L 350.3,897.8 L 348.1,896.8 L 344.8,895.2 L 342.3,893.9 L 339.5,892.6 L 335.9,890.8 L 334.3,889.9 L 332.0,888.8 L 329.1,887.3 L 325.1,885.0 L 322.4,883.6 L 319.7,882.2 L 316.6,880.5 L 314.0,879.2 L 311.3,877.6 L 307.8,875.6 L 305.4,874.1 L 302.6,872.4 L 299.5,870.4 L 297.5,869.0 L 295.3,867.2 L 292.6,864.9 L 290.2,862.6 L 288.4,860.5 L 286.8,858.5 L 285.1,856.3 L 283.3,853.3 L 281.7,850.4 L 280.3,847.2 L 279.2,844.5 L 278.3,842.0 L 277.3,838.7 L 276.8,836.5 L 276.4,834.1 L 275.9,831.4 L 275.5,827.9 L 275.5,825.2 L 275.3,822.3 L 275.4,818.7 L 275.6,814.2 L 275.8,811.4 L 275.9,809.9 L 276.1,808.1 L 276.4,806.3 L 276.7,804.1 L 277.2,801.0 L 277.8,796.9 L 278.6,792.8 L 296.4,700.6 L 299.9,681.9 L 306.9,646.2 L 307.2,644.4 L 307.7,642.3 L 308.3,640.0 L 308.7,638.7 L 309.1,637.5 L 309.8,635.8 L 311.0,633.3 L 312.3,631.4 L 314.1,629.3 L 315.8,627.6 L 317.9,625.7 L 320.0,624.2 L 322.2,622.7 L 323.9,621.7 L 325.6,620.8 L 327.6,620.0 L 329.7,619.3 L 331.8,618.9 L 334.0,618.4 L 335.8,618.1 L 337.9,618.1 L 340.4,617.9 L 370.0,617.6 L 372.6,617.5 L 375.1,617.4 L 378.1,617.0 L 380.9,616.4 L 383.5,615.6 L 386.0,614.6 L 388.2,613.6 L 390.8,612.1 L 393.4,610.3 L 395.7,608.3 L 397.5,606.6 L 399.5,604.6 L 401.1,602.7 L 402.9,600.2 L 404.5,597.5 L 405.6,595.1 L 406.5,593.0 L 407.2,591.1 L 407.7,589.4 L 408.8,586.1 L 432.1,504.5 L 436.7,488.5 L 439.8,477.7 L 448.5,447.7 L 457.0,418.0 L 461.0,404.0 L 462.4,399.8 L 463.5,397.1 L 464.3,394.8 L 465.4,392.3 L 466.4,390.5 L 467.2,389.1 L 468.3,387.2 L 469.3,385.5 L 470.5,383.8 L 471.9,382.0 L 473.0,380.8 L 474.2,379.6 L 475.3,378.4 L 477.0,376.9 L 478.1,375.9 L 479.1,375.1 L 480.3,374.3 L 481.8,373.3 L 483.4,372.4 L 485.0,371.6 L 486.8,370.8 L 488.5,370.0 L 490.3,369.5 L 492.4,368.9 L 494.5,368.4 L 495.8,368.3 L 496.8,368.1 L 498.5,367.8 L 500.5,367.6 L 502.1,367.6 L 503.8,367.6 L 505.3,367.6 L 506.6,367.7 L 508.5,367.9 L 509.9,368.2 L 511.7,368.6 L 513.1,369.1 L 514.9,369.9 L 516.5,370.7 L 518.2,371.5 L 519.7,372.3 L 521.1,373.1 L 522.5,374.1 L 523.9,375.1 L 525.2,376.3 L 526.7,377.6 L 527.9,378.7 L 529.2,380.2 L 530.9,382.1 L 532.3,384.0 L 533.6,386.1 L 535.0,388.9 L 535.9,391.1 L 536.8,393.4 L 537.6,395.7 L 538.2,398.5 L 538.5,400.3 L 538.8,402.4 L 539.0,403.8 L 538.9,406.3 L 538.8,408.6 L 538.6,411.1 L 538.4,412.8 L 538.3,414.3 L 537.8,417.0 L 537.3,418.9 L 536.9,420.3 L 536.3,422.1 L 535.8,423.5 L 535.0,425.5 L 534.0,427.9 L 533.1,429.8 L 532.0,431.6 L 530.9,433.7 L 530.0,435.5 L 528.7,437.8 L 528.0,439.2 L 526.5,441.6 L 525.6,443.1 L 524.5,444.8 L 523.1,446.7 L 495.9,481.5 L 486.8,493.3 L 485.2,495.4 L 483.8,497.2 L 482.9,499.0 L 481.7,501.1 L 481.0,502.9 L 480.6,504.5 L 480.2,506.3 L 479.8,507.6 L 479.5,509.2 L 479.3,510.4 L 479.1,511.9 L 479.0,513.2 L 479.0,514.1 L 479.0,515.1 L 478.9,516.3 L 478.9,517.9 L 478.8,542.4 L 478.9,544.5 L 478.9,547.1 L 479.0,549.5 L 479.0,551.3 L 478.8,553.4 L 478.6,555.3 L 478.4,557.0 L 478.1,558.9 L 477.6,560.7 L 476.9,563.7 L 475.9,566.1 L 475.3,567.6 L 474.5,569.1 L 471.8,573.5 L 463.0,585.1 L 445.7,608.5 L 393.4,679.0 L 386.5,688.2 L 375.4,703.2 L 356.2,729.2 L 336.9,755.0 L 333.0,760.5 L 328.3,767.5 L 325.4,772.5 L 323.8,775.2 L 322.5,777.5 L 321.3,779.7 L 320.4,781.9 L 319.6,784.1 L 318.8,786.2 L 318.1,788.2 L 317.6,790.2 L 317.1,792.9 L 316.5,795.4 L 316.1,798.0 L 315.9,800.7 L 315.8,803.1 L 315.9,805.4 L 315.9,805.8 L 316.0,807.5 L 316.1,809.1 L 316.3,810.6 L 316.9,813.2 L 317.5,815.2 L 317.9,816.6 L 318.7,818.5 L 319.5,820.4 L 320.3,822.1 L 320.9,823.4 L 321.8,825.0 L 322.7,826.8 L 324.1,829.0 L 325.2,830.7 L 326.4,832.2 L 328.0,833.9 L 330.1,835.8 L 331.7,837.2 L 333.7,838.8 L 335.8,840.2 L 337.9,841.5 L 340.1,842.7 L 341.8,843.4 L 344.1,844.4 L 346.2,845.2 L 348.2,845.8 L 350.4,846.3 L 352.8,846.8 L 354.9,847.1 L 357.1,847.2 L 359.4,847.3 L 361.4,847.3 L 363.3,847.2 L 366.1,846.9 L 369.3,846.3 L 372.2,845.6 L 375.2,844.7 L 377.5,843.9 L 379.5,843.1 L 382.5,841.9 L 384.9,840.6 L 387.2,839.2 L 389.3,837.9 L 391.0,836.6 L 393.0,835.1 L 395.0,833.5 L 396.6,832.3 L 398.2,830.8 L 400.1,829.1 L 401.9,827.5 L 404.0,825.3 L 405.0,824.0 L 405.2,823.7 L 406.0,822.8 L 407.4,821.2 L 408.4,819.8 L 409.9,818.0 L 411.9,815.4 L 413.1,813.7 L 414.4,811.6 L 415.8,809.4 L 417.1,807.4 L 418.2,805.4 L 419.3,803.3 L 421.0,799.9 L 428.1,785.3 L 435.5,768.5 L 442.8,751.5 L 447.6,741.4 L 456.8,722.0 L 562.0,486.9 L 601.2,401.9 Z" fill="none" stroke="#39404f" stroke-width="8.5" stroke-linejoin="round" stroke-linecap="round"/>
<path d="M 601.2,401.9 L 610.2,385.0 L 625.4,357.6 L 646.9,322.1 L 668.8,284.2 L 689.3,242.5 L 695.9,227.5 L 705.3,204.3 L 719.5,169.3 L 730.5,140.2 L 735.6,126.2 L 738.4,118.6 L 739.4,116.1 L 740.4,113.7 L 741.5,111.4 L 742.7,109.3 L 744.0,107.3 L 745.2,105.1 L 746.3,103.5 L 747.6,101.8 L 749.2,100.0 L 751.0,98.5 L 752.7,97.0 L 754.8,95.5 L 757.1,94.1 L 759.2,93.2 L 761.4,92.3 L 763.7,91.6 L 765.6,91.0 L 767.7,90.6 L 769.5,90.2 L 771.8,90.0 L 774.4,90.0 L 776.7,90.2 L 778.7,90.5 L 780.7,91.0 L 782.5,91.6 L 783.4,92.0 L 784.7,92.4 L 786.6,93.3 L 788.2,93.9 L 789.5,94.8 L 790.6,95.8 L 792.1,97.0 L 793.1,97.9 L 794.3,98.9 L 795.2,99.8 L 796.2,100.7 L 796.9,101.5 L 797.6,102.5 L 798.5,103.6 L 799.3,104.7 L 800.2,106.0 L 801.0,107.3 L 801.6,108.5 L 802.3,109.8 L 802.8,111.0 L 803.4,112.4 L 803.8,114.0 L 804.4,115.8 L 804.9,117.4 L 805.1,118.6 L 805.3,119.8 L 805.6,121.0 L 805.9,122.4 L 806.1,124.8 L 806.2,126.3 L 806.3,127.7 L 806.4,128.8 L 806.4,129.6 L 806.4,130.4 L 806.4,131.3 L 806.3,133.0 L 806.2,134.5 L 806.2,135.7 L 806.0,137.2 L 805.9,138.7 L 805.7,140.1 L 805.5,141.7 L 805.4,143.2 L 805.3,144.1 L 804.7,148.0 L 794.0,200.0 L 793.5,202.7 L 793.1,204.9 L 792.7,206.8 L 792.6,208.5 L 792.3,210.2 L 792.2,212.1 L 792.2,213.8 L 792.4,215.3 L 792.6,217.0 L 793.0,219.0 L 793.5,220.9 L 794.1,222.2 L 794.6,223.7 L 795.5,225.4 L 796.4,227.1 L 797.4,228.7 L 798.7,230.4 L 800.2,231.9 L 801.7,233.2 L 804.5,235.5 L 806.3,236.8 L 807.9,237.8 L 834.6,253.5 L 836.9,254.9 L 839.5,256.8 L 840.8,258.2 L 842.5,259.8 L 844.6,261.9 L 846.0,263.4 L 847.5,265.3 L 848.8,267.3 L 849.5,268.5 L 849.9,269.4 L 850.4,270.4 L 851.5,272.7 L 852.1,274.6 L 852.8,276.9 L 853.4,278.9 L 854.0,281.3 L 854.3,283.1 L 854.5,285.0 L 854.7,287.1 L 854.6,289.5 L 854.6,292.0 L 854.4,293.8 L 854.0,295.7 L 853.5,297.9 L 852.8,300.8 L 851.7,304.2 L 850.5,307.1 L 849.1,309.7 L 847.9,311.8 L 794.1,391.8 L 769.9,428.4 L 752.6,454.4 L 738.6,475.5 L 737.6,477.2 L 736.6,478.7 L 735.3,480.7 L 734.4,482.2 L 733.5,483.7 L 732.3,486.0 L 731.5,487.5 L 730.8,489.0 L 730.1,490.8 L 729.6,492.6 L 729.3,494.2 L 728.9,495.8 L 728.8,497.4 L 728.7,498.8 L 728.8,500.7 L 729.0,502.4 L 729.2,504.3 L 729.4,505.5 L 729.8,507.7 L 730.8,510.3 L 731.7,512.9 L 733.0,515.7 L 746.2,542.0 L 747.1,544.4 L 747.8,546.6 L 748.2,548.5 L 748.6,550.4 L 748.9,552.1 L 749.0,554.1 L 749.1,556.2 L 749.1,558.8 L 749.1,560.9 L 748.8,563.3 L 748.4,564.9 L 748.1,566.6 L 747.6,568.3 L 746.9,570.2 L 746.1,571.7 L 745.2,573.3 L 744.6,574.6 L 743.4,576.5 L 742.0,578.7 L 740.5,580.8 L 739.1,582.4 L 738.0,583.6 L 737.2,584.7 L 686.6,646.8 L 635.8,708.2 L 629.7,715.8 L 628.6,717.2 L 627.7,718.4 L 626.7,719.7 L 625.6,720.9 L 624.6,722.0 L 623.1,723.2 L 621.8,724.4 L 620.5,725.4 L 619.2,726.4 L 617.8,727.4 L 616.2,728.2 L 614.5,729.1 L 612.9,729.8 L 611.5,730.4 L 610.2,730.8 L 608.7,731.3 L 607.3,731.6 L 606.0,732.0 L 604.6,732.2 L 603.3,732.4 L 602.1,732.6 L 600.7,732.7 L 598.9,732.8 L 597.7,732.8 L 596.2,732.8 L 594.6,732.8 L 593.1,732.8 L 591.7,732.6 L 590.3,732.6 L 556.5,731.6 L 553.7,731.6 L 551.0,731.7 L 547.8,731.8 L 544.4,732.1 L 542.3,732.3 L 540.3,732.6 L 538.8,732.8 L 537.1,733.0 L 535.4,733.3 L 533.7,733.6 L 532.3,734.0 L 530.9,734.4 L 529.1,734.9 L 527.8,735.4 L 526.3,735.9 L 524.7,736.6 L 523.2,737.3 L 521.7,738.1 L 519.9,739.1 L 518.1,740.1 L 516.2,741.1 L 514.6,742.2 L 512.9,743.3 L 511.3,744.3 L 509.7,745.6 L 508.2,746.9 L 506.7,748.4 L 505.4,749.8 L 504.0,751.3 L 502.7,752.9 L 501.4,754.5 L 500.3,756.2 L 499.3,757.8 L 498.2,759.7 L 497.3,761.1 L 496.0,763.1 L 495.2,764.9 L 494.4,766.4 L 493.4,768.4 L 492.2,771.0 L 487.7,781.7 L 484.0,792.6 L 481.7,799.5 L 479.8,805.8 L 476.4,815.9 L 466.8,843.9 L 463.8,852.6 L 461.3,859.2 L 458.5,865.7 L 457.5,869.1 L 456.3,871.5 L 454.9,874.4 L 453.6,876.6 L 452.2,878.7 L 450.8,880.7 L 449.3,882.8 L 447.8,884.9 L 445.9,887.0 L 444.2,888.8 L 442.6,890.5 L 440.5,892.7 L 438.2,894.6 L 436.3,896.1 L 433.6,897.9 L 431.4,899.3 L 429.3,900.5 L 426.9,901.8 L 424.6,903.0 L 422.3,904.2 L 419.7,905.5 L 417.1,906.5 L 414.5,907.3 L 411.8,908.2 L 409.3,908.8 L 406.8,909.2 L 403.8,909.5 L 401.1,909.8 L 398.3,910.0 L 395.4,910.0 L 392.5,909.9 L 390.1,909.7 L 387.2,909.5 L 384.6,909.1 L 381.9,908.7 L 379.3,908.3 L 376.6,907.6 L 373.5,906.6 L 370.6,905.8 L 365.6,904.1 L 360.4,902.3 L 357.0,900.9 L 353.9,899.5 L 350.3,897.8 L 348.1,896.8 L 344.8,895.2 L 342.3,893.9 L 339.5,892.6 L 335.9,890.8 L 334.3,889.9 L 332.0,888.8 L 329.1,887.3 L 325.1,885.0 L 322.4,883.6 L 319.7,882.2 L 316.6,880.5 L 314.0,879.2 L 311.3,877.6 L 307.8,875.6 L 305.4,874.1 L 302.6,872.4 L 299.5,870.4 L 297.5,869.0 L 295.3,867.2 L 292.6,864.9 L 290.2,862.6 L 288.4,860.5 L 286.8,858.5 L 285.1,856.3 L 283.3,853.3 L 281.7,850.4 L 280.3,847.2 L 279.2,844.5 L 278.3,842.0 L 277.3,838.7 L 276.8,836.5 L 276.4,834.1 L 275.9,831.4 L 275.5,827.9 L 275.5,825.2 L 275.3,822.3 L 275.4,818.7 L 275.6,814.2 L 275.8,811.4 L 275.9,809.9 L 276.1,808.1 L 276.4,806.3 L 276.7,804.1 L 277.2,801.0 L 277.8,796.9 L 278.6,792.8 L 296.4,700.6 L 299.9,681.9 L 306.9,646.2 L 307.2,644.4 L 307.7,642.3 L 308.3,640.0 L 308.7,638.7 L 309.1,637.5 L 309.8,635.8 L 311.0,633.3 L 312.3,631.4 L 314.1,629.3 L 315.8,627.6 L 317.9,625.7 L 320.0,624.2 L 322.2,622.7 L 323.9,621.7 L 325.6,620.8 L 327.6,620.0 L 329.7,619.3 L 331.8,618.9 L 334.0,618.4 L 335.8,618.1 L 337.9,618.1 L 340.4,617.9 L 370.0,617.6 L 372.6,617.5 L 375.1,617.4 L 378.1,617.0 L 380.9,616.4 L 383.5,615.6 L 386.0,614.6 L 388.2,613.6 L 390.8,612.1 L 393.4,610.3 L 395.7,608.3 L 397.5,606.6 L 399.5,604.6 L 401.1,602.7 L 402.9,600.2 L 404.5,597.5 L 405.6,595.1 L 406.5,593.0 L 407.2,591.1 L 407.7,589.4 L 408.8,586.1 L 432.1,504.5 L 436.7,488.5 L 439.8,477.7 L 448.5,447.7 L 457.0,418.0 L 461.0,404.0 L 462.4,399.8 L 463.5,397.1 L 464.3,394.8 L 465.4,392.3 L 466.4,390.5 L 467.2,389.1 L 468.3,387.2 L 469.3,385.5 L 470.5,383.8 L 471.9,382.0 L 473.0,380.8 L 474.2,379.6 L 475.3,378.4 L 477.0,376.9 L 478.1,375.9 L 479.1,375.1 L 480.3,374.3 L 481.8,373.3 L 483.4,372.4 L 485.0,371.6 L 486.8,370.8 L 488.5,370.0 L 490.3,369.5 L 492.4,368.9 L 494.5,368.4 L 495.8,368.3 L 496.8,368.1 L 498.5,367.8 L 500.5,367.6 L 502.1,367.6 L 503.8,367.6 L 505.3,367.6 L 506.6,367.7 L 508.5,367.9 L 509.9,368.2 L 511.7,368.6 L 513.1,369.1 L 514.9,369.9 L 516.5,370.7 L 518.2,371.5 L 519.7,372.3 L 521.1,373.1 L 522.5,374.1 L 523.9,375.1 L 525.2,376.3 L 526.7,377.6 L 527.9,378.7 L 529.2,380.2 L 530.9,382.1 L 532.3,384.0 L 533.6,386.1 L 535.0,388.9 L 535.9,391.1 L 536.8,393.4 L 537.6,395.7 L 538.2,398.5 L 538.5,400.3 L 538.8,402.4 L 539.0,403.8 L 538.9,406.3 L 538.8,408.6 L 538.6,411.1 L 538.4,412.8 L 538.3,414.3 L 537.8,417.0 L 537.3,418.9 L 536.9,420.3 L 536.3,422.1 L 535.8,423.5 L 535.0,425.5 L 534.0,427.9 L 533.1,429.8 L 532.0,431.6 L 530.9,433.7 L 530.0,435.5 L 528.7,437.8 L 528.0,439.2 L 526.5,441.6 L 525.6,443.1 L 524.5,444.8 L 523.1,446.7 L 495.9,481.5 L 486.8,493.3 L 485.2,495.4 L 483.8,497.2 L 482.9,499.0 L 481.7,501.1 L 481.0,502.9 L 480.6,504.5 L 480.2,506.3 L 479.8,507.6 L 479.5,509.2 L 479.3,510.4 L 479.1,511.9 L 479.0,513.2 L 479.0,514.1 L 479.0,515.1 L 478.9,516.3 L 478.9,517.9 L 478.8,542.4 L 478.9,544.5 L 478.9,547.1 L 479.0,549.5 L 479.0,551.3 L 478.8,553.4 L 478.6,555.3 L 478.4,557.0 L 478.1,558.9 L 477.6,560.7 L 476.9,563.7 L 475.9,566.1 L 475.3,567.6 L 474.5,569.1 L 471.8,573.5 L 463.0,585.1 L 445.7,608.5 L 393.4,679.0 L 386.5,688.2 L 375.4,703.2 L 356.2,729.2 L 336.9,755.0 L 333.0,760.5 L 328.3,767.5 L 325.4,772.5 L 323.8,775.2 L 322.5,777.5 L 321.3,779.7 L 320.4,781.9 L 319.6,784.1 L 318.8,786.2 L 318.1,788.2 L 317.6,790.2 L 317.1,792.9 L 316.5,795.4 L 316.1,798.0 L 315.9,800.7 L 315.8,803.1 L 315.9,805.4 L 315.9,805.8 L 316.0,807.5 L 316.1,809.1 L 316.3,810.6 L 316.9,813.2 L 317.5,815.2 L 317.9,816.6 L 318.7,818.5 L 319.5,820.4 L 320.3,822.1 L 320.9,823.4 L 321.8,825.0 L 322.7,826.8 L 324.1,829.0 L 325.2,830.7 L 326.4,832.2 L 328.0,833.9 L 330.1,835.8 L 331.7,837.2 L 333.7,838.8 L 335.8,840.2 L 337.9,841.5 L 340.1,842.7 L 341.8,843.4 L 344.1,844.4 L 346.2,845.2 L 348.2,845.8 L 350.4,846.3 L 352.8,846.8 L 354.9,847.1 L 357.1,847.2 L 359.4,847.3 L 361.4,847.3 L 363.3,847.2 L 366.1,846.9 L 369.3,846.3 L 372.2,845.6 L 375.2,844.7 L 377.5,843.9 L 379.5,843.1 L 382.5,841.9 L 384.9,840.6 L 387.2,839.2 L 389.3,837.9 L 391.0,836.6 L 393.0,835.1 L 395.0,833.5 L 396.6,832.3 L 398.2,830.8 L 400.1,829.1 L 401.9,827.5 L 404.0,825.3 L 405.0,824.0 L 405.2,823.7 L 406.0,822.8 L 407.4,821.2 L 408.4,819.8 L 409.9,818.0 L 411.9,815.4 L 413.1,813.7 L 414.4,811.6 L 415.8,809.4 L 417.1,807.4 L 418.2,805.4 L 419.3,803.3 L 421.0,799.9 L 428.1,785.3 L 435.5,768.5 L 442.8,751.5 L 447.6,741.4 L 456.8,722.0 L 562.0,486.9 L 601.2,401.9 Z" fill="none" stroke="#e7edf8" stroke-width="2.6" stroke-linejoin="round" stroke-linecap="round"/>
<path d="M 601.2,401.9 L 610.2,385.0 L 625.4,357.6 L 646.9,322.1 L 668.8,284.2 L 689.3,242.5 L 695.9,227.5 L 705.3,204.3 L 719.5,169.3 L 730.5,140.2 L 735.6,126.2 L 738.4,118.6 L 739.4,116.1 L 740.4,113.7 L 741.5,111.4 L 742.7,109.3 L 744.0,107.3 L 745.2,105.1 L 746.3,103.5 L 747.6,101.8 L 749.2,100.0 L 751.0,98.5 L 752.7,97.0 L 754.8,95.5 L 757.1,94.1 L 759.2,93.2 L 761.4,92.3 L 763.7,91.6 L 765.6,91.0 L 767.7,90.6 L 769.5,90.2 L 771.8,90.0 L 774.4,90.0 L 776.7,90.2 L 778.7,90.5 L 780.7,91.0 L 782.5,91.6 L 783.4,92.0 L 784.7,92.4 L 786.6,93.3 L 788.2,93.9 L 789.5,94.8 L 790.6,95.8 L 792.1,97.0 L 793.1,97.9 L 794.3,98.9 L 795.2,99.8 L 796.2,100.7 L 796.9,101.5 L 797.6,102.5 L 798.5,103.6 L 799.3,104.7 L 800.2,106.0 L 801.0,107.3 L 801.6,108.5 L 802.3,109.8 L 802.8,111.0 L 803.4,112.4 L 803.8,114.0 L 804.4,115.8 L 804.9,117.4 L 805.1,118.6 L 805.3,119.8 L 805.6,121.0 L 805.9,122.4 L 806.1,124.8 L 806.2,126.3 L 806.3,127.7 L 806.4,128.8 L 806.4,129.6 L 806.4,130.4 L 806.4,131.3 L 806.3,133.0 L 806.2,134.5 L 806.2,135.7 L 806.0,137.2 L 805.9,138.7 L 805.7,140.1 L 805.5,141.7 L 805.4,143.2 L 805.3,144.1 L 804.7,148.0 L 794.0,200.0 L 793.5,202.7 L 793.1,204.9 L 792.7,206.8 L 792.6,208.5 L 792.3,210.2 L 792.2,212.1 L 792.2,213.8 L 792.4,215.3 L 792.6,217.0 L 793.0,219.0 L 793.5,220.9 L 794.1,222.2 L 794.6,223.7 L 795.5,225.4 L 796.4,227.1 L 797.4,228.7 L 798.7,230.4 L 800.2,231.9 L 801.7,233.2 L 804.5,235.5 L 806.3,236.8 L 807.9,237.8 L 834.6,253.5 L 836.9,254.9 L 839.5,256.8 L 840.8,258.2 L 842.5,259.8 L 844.6,261.9 L 846.0,263.4 L 847.5,265.3 L 848.8,267.3 L 849.5,268.5 L 849.9,269.4 L 850.4,270.4 L 851.5,272.7 L 852.1,274.6 L 852.8,276.9 L 853.4,278.9 L 854.0,281.3 L 854.3,283.1 L 854.5,285.0 L 854.7,287.1 L 854.6,289.5 L 854.6,292.0 L 854.4,293.8 L 854.0,295.7 L 853.5,297.9 L 852.8,300.8 L 851.7,304.2 L 850.5,307.1 L 849.1,309.7 L 847.9,311.8 L 794.1,391.8 L 769.9,428.4 L 752.6,454.4 L 738.6,475.5 L 737.6,477.2 L 736.6,478.7 L 735.3,480.7 L 734.4,482.2 L 733.5,483.7 L 732.3,486.0 L 731.5,487.5 L 730.8,489.0 L 730.1,490.8 L 729.6,492.6 L 729.3,494.2 L 728.9,495.8 L 728.8,497.4 L 728.7,498.8 L 728.8,500.7 L 729.0,502.4 L 729.2,504.3 L 729.4,505.5 L 729.8,507.7 L 730.8,510.3 L 731.7,512.9 L 733.0,515.7 L 746.2,542.0 L 747.1,544.4 L 747.8,546.6 L 748.2,548.5 L 748.6,550.4 L 748.9,552.1 L 749.0,554.1 L 749.1,556.2 L 749.1,558.8 L 749.1,560.9 L 748.8,563.3 L 748.4,564.9 L 748.1,566.6 L 747.6,568.3 L 746.9,570.2 L 746.1,571.7 L 745.2,573.3 L 744.6,574.6 L 743.4,576.5 L 742.0,578.7 L 740.5,580.8 L 739.1,582.4 L 738.0,583.6 L 737.2,584.7 L 686.6,646.8 L 635.8,708.2 L 629.7,715.8 L 628.6,717.2 L 627.7,718.4 L 626.7,719.7 L 625.6,720.9 L 624.6,722.0 L 623.1,723.2 L 621.8,724.4 L 620.5,725.4 L 619.2,726.4 L 617.8,727.4 L 616.2,728.2 L 614.5,729.1 L 612.9,729.8 L 611.5,730.4 L 610.2,730.8 L 608.7,731.3 L 607.3,731.6 L 606.0,732.0 L 604.6,732.2 L 603.3,732.4 L 602.1,732.6 L 600.7,732.7 L 598.9,732.8 L 597.7,732.8 L 596.2,732.8 L 594.6,732.8 L 593.1,732.8 L 591.7,732.6 L 590.3,732.6 L 556.5,731.6 L 553.7,731.6 L 551.0,731.7 L 547.8,731.8 L 544.4,732.1 L 542.3,732.3 L 540.3,732.6 L 538.8,732.8 L 537.1,733.0 L 535.4,733.3 L 533.7,733.6 L 532.3,734.0 L 530.9,734.4 L 529.1,734.9 L 527.8,735.4 L 526.3,735.9 L 524.7,736.6 L 523.2,737.3 L 521.7,738.1 L 519.9,739.1 L 518.1,740.1 L 516.2,741.1 L 514.6,742.2 L 512.9,743.3 L 511.3,744.3 L 509.7,745.6 L 508.2,746.9 L 506.7,748.4 L 505.4,749.8 L 504.0,751.3 L 502.7,752.9 L 501.4,754.5 L 500.3,756.2 L 499.3,757.8 L 498.2,759.7 L 497.3,761.1 L 496.0,763.1 L 495.2,764.9 L 494.4,766.4 L 493.4,768.4 L 492.2,771.0 L 487.7,781.7 L 484.0,792.6 L 481.7,799.5 L 479.8,805.8 L 476.4,815.9 L 466.8,843.9 L 463.8,852.6 L 461.3,859.2 L 458.5,865.7 L 457.5,869.1 L 456.3,871.5 L 454.9,874.4 L 453.6,876.6 L 452.2,878.7 L 450.8,880.7 L 449.3,882.8 L 447.8,884.9 L 445.9,887.0 L 444.2,888.8 L 442.6,890.5 L 440.5,892.7 L 438.2,894.6 L 436.3,896.1 L 433.6,897.9 L 431.4,899.3 L 429.3,900.5 L 426.9,901.8 L 424.6,903.0 L 422.3,904.2 L 419.7,905.5 L 417.1,906.5 L 414.5,907.3 L 411.8,908.2 L 409.3,908.8 L 406.8,909.2 L 403.8,909.5 L 401.1,909.8 L 398.3,910.0 L 395.4,910.0 L 392.5,909.9 L 390.1,909.7 L 387.2,909.5 L 384.6,909.1 L 381.9,908.7 L 379.3,908.3 L 376.6,907.6 L 373.5,906.6 L 370.6,905.8 L 365.6,904.1 L 360.4,902.3 L 357.0,900.9 L 353.9,899.5 L 350.3,897.8 L 348.1,896.8 L 344.8,895.2 L 342.3,893.9 L 339.5,892.6 L 335.9,890.8 L 334.3,889.9 L 332.0,888.8 L 329.1,887.3 L 325.1,885.0 L 322.4,883.6 L 319.7,882.2 L 316.6,880.5 L 314.0,879.2 L 311.3,877.6 L 307.8,875.6 L 305.4,874.1 L 302.6,872.4 L 299.5,870.4 L 297.5,869.0 L 295.3,867.2 L 292.6,864.9 L 290.2,862.6 L 288.4,860.5 L 286.8,858.5 L 285.1,856.3 L 283.3,853.3 L 281.7,850.4 L 280.3,847.2 L 279.2,844.5 L 278.3,842.0 L 277.3,838.7 L 276.8,836.5 L 276.4,834.1 L 275.9,831.4 L 275.5,827.9 L 275.5,825.2 L 275.3,822.3 L 275.4,818.7 L 275.6,814.2 L 275.8,811.4 L 275.9,809.9 L 276.1,808.1 L 276.4,806.3 L 276.7,804.1 L 277.2,801.0 L 277.8,796.9 L 278.6,792.8 L 296.4,700.6 L 299.9,681.9 L 306.9,646.2 L 307.2,644.4 L 307.7,642.3 L 308.3,640.0 L 308.7,638.7 L 309.1,637.5 L 309.8,635.8 L 311.0,633.3 L 312.3,631.4 L 314.1,629.3 L 315.8,627.6 L 317.9,625.7 L 320.0,624.2 L 322.2,622.7 L 323.9,621.7 L 325.6,620.8 L 327.6,620.0 L 329.7,619.3 L 331.8,618.9 L 334.0,618.4 L 335.8,618.1 L 337.9,618.1 L 340.4,617.9 L 370.0,617.6 L 372.6,617.5 L 375.1,617.4 L 378.1,617.0 L 380.9,616.4 L 383.5,615.6 L 386.0,614.6 L 388.2,613.6 L 390.8,612.1 L 393.4,610.3 L 395.7,608.3 L 397.5,606.6 L 399.5,604.6 L 401.1,602.7 L 402.9,600.2 L 404.5,597.5 L 405.6,595.1 L 406.5,593.0 L 407.2,591.1 L 407.7,589.4 L 408.8,586.1 L 432.1,504.5 L 436.7,488.5 L 439.8,477.7 L 448.5,447.7 L 457.0,418.0 L 461.0,404.0 L 462.4,399.8 L 463.5,397.1 L 464.3,394.8 L 465.4,392.3 L 466.4,390.5 L 467.2,389.1 L 468.3,387.2 L 469.3,385.5 L 470.5,383.8 L 471.9,382.0 L 473.0,380.8 L 474.2,379.6 L 475.3,378.4 L 477.0,376.9 L 478.1,375.9 L 479.1,375.1 L 480.3,374.3 L 481.8,373.3 L 483.4,372.4 L 485.0,371.6 L 486.8,370.8 L 488.5,370.0 L 490.3,369.5 L 492.4,368.9 L 494.5,368.4 L 495.8,368.3 L 496.8,368.1 L 498.5,367.8 L 500.5,367.6 L 502.1,367.6 L 503.8,367.6 L 505.3,367.6 L 506.6,367.7 L 508.5,367.9 L 509.9,368.2 L 511.7,368.6 L 513.1,369.1 L 514.9,369.9 L 516.5,370.7 L 518.2,371.5 L 519.7,372.3 L 521.1,373.1 L 522.5,374.1 L 523.9,375.1 L 525.2,376.3 L 526.7,377.6 L 527.9,378.7 L 529.2,380.2 L 530.9,382.1 L 532.3,384.0 L 533.6,386.1 L 535.0,388.9 L 535.9,391.1 L 536.8,393.4 L 537.6,395.7 L 538.2,398.5 L 538.5,400.3 L 538.8,402.4 L 539.0,403.8 L 538.9,406.3 L 538.8,408.6 L 538.6,411.1 L 538.4,412.8 L 538.3,414.3 L 537.8,417.0 L 537.3,418.9 L 536.9,420.3 L 536.3,422.1 L 535.8,423.5 L 535.0,425.5 L 534.0,427.9 L 533.1,429.8 L 532.0,431.6 L 530.9,433.7 L 530.0,435.5 L 528.7,437.8 L 528.0,439.2 L 526.5,441.6 L 525.6,443.1 L 524.5,444.8 L 523.1,446.7 L 495.9,481.5 L 486.8,493.3 L 485.2,495.4 L 483.8,497.2 L 482.9,499.0 L 481.7,501.1 L 481.0,502.9 L 480.6,504.5 L 480.2,506.3 L 479.8,507.6 L 479.5,509.2 L 479.3,510.4 L 479.1,511.9 L 479.0,513.2 L 479.0,514.1 L 479.0,515.1 L 478.9,516.3 L 478.9,517.9 L 478.8,542.4 L 478.9,544.5 L 478.9,547.1 L 479.0,549.5 L 479.0,551.3 L 478.8,553.4 L 478.6,555.3 L 478.4,557.0 L 478.1,558.9 L 477.6,560.7 L 476.9,563.7 L 475.9,566.1 L 475.3,567.6 L 474.5,569.1 L 471.8,573.5 L 463.0,585.1 L 445.7,608.5 L 393.4,679.0 L 386.5,688.2 L 375.4,703.2 L 356.2,729.2 L 336.9,755.0 L 333.0,760.5 L 328.3,767.5 L 325.4,772.5 L 323.8,775.2 L 322.5,777.5 L 321.3,779.7 L 320.4,781.9 L 319.6,784.1 L 318.8,786.2 L 318.1,788.2 L 317.6,790.2 L 317.1,792.9 L 316.5,795.4 L 316.1,798.0 L 315.9,800.7 L 315.8,803.1 L 315.9,805.4 L 315.9,805.8 L 316.0,807.5 L 316.1,809.1 L 316.3,810.6 L 316.9,813.2 L 317.5,815.2 L 317.9,816.6 L 318.7,818.5 L 319.5,820.4 L 320.3,822.1 L 320.9,823.4 L 321.8,825.0 L 322.7,826.8 L 324.1,829.0 L 325.2,830.7 L 326.4,832.2 L 328.0,833.9 L 330.1,835.8 L 331.7,837.2 L 333.7,838.8 L 335.8,840.2 L 337.9,841.5 L 340.1,842.7 L 341.8,843.4 L 344.1,844.4 L 346.2,845.2 L 348.2,845.8 L 350.4,846.3 L 352.8,846.8 L 354.9,847.1 L 357.1,847.2 L 359.4,847.3 L 361.4,847.3 L 363.3,847.2 L 366.1,846.9 L 369.3,846.3 L 372.2,845.6 L 375.2,844.7 L 377.5,843.9 L 379.5,843.1 L 382.5,841.9 L 384.9,840.6 L 387.2,839.2 L 389.3,837.9 L 391.0,836.6 L 393.0,835.1 L 395.0,833.5 L 396.6,832.3 L 398.2,830.8 L 400.1,829.1 L 401.9,827.5 L 404.0,825.3 L 405.0,824.0 L 405.2,823.7 L 406.0,822.8 L 407.4,821.2 L 408.4,819.8 L 409.9,818.0 L 411.9,815.4 L 413.1,813.7 L 414.4,811.6 L 415.8,809.4 L 417.1,807.4 L 418.2,805.4 L 419.3,803.3 L 421.0,799.9 L 428.1,785.3 L 435.5,768.5 L 442.8,751.5 L 447.6,741.4 L 456.8,722.0 L 562.0,486.9 L 601.2,401.9 Z" fill="none" stroke="#ff5a36" stroke-opacity="0.55" stroke-width="1.2" stroke-linejoin="round" filter="url(#glow)"/>
<circle cx="601.2" cy="401.9" r="13" fill="none" stroke="#ffffff" stroke-width="3"/>
<rect x="597.2" y="379.9" width="8" height="18" fill="#ffffff"/>
<circle cx="799.3" cy="174.2" r="7" fill="#ff5a36" stroke="#0a0c12" stroke-width="2.5" filter="url(#glow)"/>
<text x="799.3" y="177.6" font-size="9" font-weight="700" fill="#0a0c12" text-anchor="middle">1</text>
<circle cx="853.4" cy="278.8" r="7" fill="#ff5a36" stroke="#0a0c12" stroke-width="2.5" filter="url(#glow)"/>
<text x="853.4" y="282.2" font-size="9" font-weight="700" fill="#0a0c12" text-anchor="middle">2</text>
<circle cx="806.4" cy="373.5" r="7" fill="#ff5a36" stroke="#0a0c12" stroke-width="2.5" filter="url(#glow)"/>
<text x="806.4" y="376.9" font-size="9" font-weight="700" fill="#0a0c12" text-anchor="middle">3</text>
<circle cx="748.6" cy="564.0" r="7" fill="#ff5a36" stroke="#0a0c12" stroke-width="2.5" filter="url(#glow)"/>
<text x="748.6" y="567.4" font-size="9" font-weight="700" fill="#0a0c12" text-anchor="middle">4</text>
<circle cx="745.8" cy="564.7" r="7" fill="#ff5a36" stroke="#0a0c12" stroke-width="2.5" filter="url(#glow)"/>
<text x="745.8" y="568.1" font-size="9" font-weight="700" fill="#0a0c12" text-anchor="middle">5</text>
<circle cx="537.3" cy="733.0" r="7" fill="#ff5a36" stroke="#0a0c12" stroke-width="2.5" filter="url(#glow)"/>
<text x="537.3" y="736.4" font-size="9" font-weight="700" fill="#0a0c12" text-anchor="middle">6</text>
<circle cx="473.9" cy="823.2" r="7" fill="#ff5a36" stroke="#0a0c12" stroke-width="2.5" filter="url(#glow)"/>
<text x="473.9" y="826.6" font-size="9" font-weight="700" fill="#0a0c12" text-anchor="middle">7</text>
<circle cx="342.7" cy="894.2" r="7" fill="#ff5a36" stroke="#0a0c12" stroke-width="2.5" filter="url(#glow)"/>
<text x="342.7" y="897.6" font-size="9" font-weight="700" fill="#0a0c12" text-anchor="middle">8</text>
<circle cx="287.0" cy="749.1" r="7" fill="#ff5a36" stroke="#0a0c12" stroke-width="2.5" filter="url(#glow)"/>
<text x="287.0" y="752.5" font-size="9" font-weight="700" fill="#0a0c12" text-anchor="middle">9</text>
<circle cx="398.3" cy="605.8" r="7" fill="#ff5a36" stroke="#0a0c12" stroke-width="2.5" filter="url(#glow)"/>
<text x="398.3" y="609.2" font-size="9" font-weight="700" fill="#0a0c12" text-anchor="middle">10</text>
<circle cx="428.4" cy="517.5" r="7" fill="#ff5a36" stroke="#0a0c12" stroke-width="2.5" filter="url(#glow)"/>
<text x="428.4" y="520.9" font-size="9" font-weight="700" fill="#0a0c12" text-anchor="middle">11</text>
<circle cx="522.5" cy="447.5" r="7" fill="#ff5a36" stroke="#0a0c12" stroke-width="2.5" filter="url(#glow)"/>
<text x="522.5" y="450.9" font-size="9" font-weight="700" fill="#0a0c12" text-anchor="middle">12</text>
<circle cx="462.7" cy="585.4" r="7" fill="#ff5a36" stroke="#0a0c12" stroke-width="2.5" filter="url(#glow)"/>
<text x="462.7" y="588.8" font-size="9" font-weight="700" fill="#0a0c12" text-anchor="middle">13</text>
<circle cx="421.5" cy="641.1" r="7" fill="#ff5a36" stroke="#0a0c12" stroke-width="2.5" filter="url(#glow)"/>
<text x="421.5" y="644.5" font-size="9" font-weight="700" fill="#0a0c12" text-anchor="middle">14</text>
<circle cx="417.2" cy="807.2" r="7" fill="#ff5a36" stroke="#0a0c12" stroke-width="2.5" filter="url(#glow)"/>
<text x="417.2" y="810.6" font-size="9" font-weight="700" fill="#0a0c12" text-anchor="middle">15</text>
<line x1="799.3" y1="174.2" x2="828.5" y2="131.1" stroke="#ff5a36" stroke-opacity="0.45" stroke-width="1.3"/>
<text x="836.5" y="135.1" font-size="15" font-weight="600" fill="#eef2fb" text-anchor="start">San Donato</text>
<line x1="853.4" y1="278.8" x2="892.1" y2="244.1" stroke="#ff5a36" stroke-opacity="0.45" stroke-width="1.3"/>
<text x="900.1" y="248.1" font-size="15" font-weight="600" fill="#eef2fb" text-anchor="start">Luco</text>
<line x1="806.4" y1="373.5" x2="849.0" y2="343.6" stroke="#ff5a36" stroke-opacity="0.45" stroke-width="1.3"/>
<text x="857.0" y="347.6" font-size="15" font-weight="600" fill="#eef2fb" text-anchor="start">Poggio Secco</text>
<line x1="748.6" y1="564.0" x2="800.6" y2="564.3" stroke="#ff5a36" stroke-opacity="0.45" stroke-width="1.3"/>
<text x="808.6" y="568.3" font-size="15" font-weight="600" fill="#eef2fb" text-anchor="start">Materassi</text>
<line x1="745.8" y1="564.7" x2="797.8" y2="594.3" stroke="#ff5a36" stroke-opacity="0.45" stroke-width="1.3"/>
<text x="805.8" y="598.3" font-size="15" font-weight="600" fill="#eef2fb" text-anchor="start">Borgo San Lorenzo</text>
<line x1="537.3" y1="733.0" x2="537.5" y2="785.0" stroke="#ff5a36" stroke-opacity="0.45" stroke-width="1.3"/>
<text x="545.5" y="789.0" font-size="15" font-weight="600" fill="#eef2fb" text-anchor="start">Casanova</text>
<line x1="473.9" y1="823.2" x2="461.7" y2="883.9" stroke="#ff5a36" stroke-opacity="0.45" stroke-width="1.3"/>
<text x="453.7" y="887.9" font-size="15" font-weight="600" fill="#eef2fb" text-anchor="end">Savelli</text>
<line x1="287.0" y1="749.1" x2="245.4" y2="780.3" stroke="#ff5a36" stroke-opacity="0.45" stroke-width="1.3"/>
<text x="237.4" y="784.3" font-size="15" font-weight="600" fill="#eef2fb" text-anchor="end">Arrabbiata</text>
<line x1="398.3" y1="605.8" x2="348.7" y2="621.3" stroke="#ff5a36" stroke-opacity="0.45" stroke-width="1.3"/>
<text x="340.7" y="625.3" font-size="15" font-weight="600" fill="#eef2fb" text-anchor="end">Scarperia</text>
<line x1="428.4" y1="517.5" x2="380.4" y2="497.4" stroke="#ff5a36" stroke-opacity="0.45" stroke-width="1.3"/>
<text x="372.4" y="501.4" font-size="15" font-weight="600" fill="#eef2fb" text-anchor="end">Palagio</text>
<line x1="522.5" y1="447.5" x2="516.2" y2="395.9" stroke="#ff5a36" stroke-opacity="0.45" stroke-width="1.3"/>
<text x="508.2" y="399.9" font-size="15" font-weight="600" fill="#eef2fb" text-anchor="end">Correntaio</text>
<line x1="421.5" y1="641.1" x2="378.5" y2="670.3" stroke="#ff5a36" stroke-opacity="0.45" stroke-width="1.3"/>
<text x="370.5" y="674.3" font-size="15" font-weight="600" fill="#eef2fb" text-anchor="end">Biondetti</text>
<line x1="417.2" y1="807.2" x2="394.4" y2="853.9" stroke="#ff5a36" stroke-opacity="0.45" stroke-width="1.3"/>
<text x="386.4" y="857.9" font-size="15" font-weight="600" fill="#eef2fb" text-anchor="end">Bucine</text>
<text x="90" y="64" font-size="20" letter-spacing="5" fill="#ff5a36" font-weight="700">TRACK ATLAS</text>
<text x="90" y="108" font-size="42" font-weight="800" fill="#ffffff">AUTODROMO INTERNAZIONALE DEL MUGELLO</text>
<text x="90" y="136" font-size="16" fill="#9aa6bd">Mugello</text>
<rect x="1170" y="200" width="360" height="710" rx="16" fill="#ffffff" fill-opacity="0.04" stroke="#ff5a36" stroke-opacity="0.5"/>
<text x="1198" y="250" font-size="13" letter-spacing="2" fill="#8794ab">LAYOUT</text>
<text x="1198" y="276" font-size="22" font-weight="700" fill="#eef2fb">Grand Prix Circuit</text>
<text x="1198" y="320" font-size="13" letter-spacing="2" fill="#8794ab">LENGTH</text>
<text x="1198" y="346" font-size="22" font-weight="700" fill="#eef2fb">5.245 km</text>
<text x="1198" y="390" font-size="13" letter-spacing="2" fill="#8794ab">CORNERS</text>
<text x="1198" y="416" font-size="22" font-weight="700" fill="#eef2fb">15</text>
<text x="1198" y="460" font-size="13" letter-spacing="2" fill="#8794ab">NAMED CORNERS</text>
<text x="1198" y="486" font-size="22" font-weight="700" fill="#eef2fb">15</text>
<text x="1198" y="530" font-size="13" letter-spacing="2" fill="#8794ab">DIRECTION</text>
<text x="1198" y="556" font-size="22" font-weight="700" fill="#eef2fb">Clockwise</text>
<text x="1198" y="600" font-size="13" letter-spacing="2" fill="#8794ab">SECTORS</text>
<text x="1198" y="626" font-size="22" font-weight="700" fill="#eef2fb">3</text>
<text x="1198" y="670" font-size="13" letter-spacing="2" fill="#8794ab">COUNTRY</text>
<text x="1198" y="696" font-size="22" font-weight="700" fill="#eef2fb">Italy</text>
<text x="1198" y="740" font-size="13" letter-spacing="2" fill="#8794ab">LOCATION</text>
<text x="1198" y="766" font-size="22" font-weight="700" fill="#eef2fb">Scarperia e San Piero</text>
<text x="1198" y="810" font-size="13" letter-spacing="2" fill="#8794ab">COMPLEXES</text>
<rect x="1198" y="816" width="94" height="24" rx="12" fill="#ff5a36" fill-opacity="0.16" stroke="#ff5a36" stroke-opacity="0.5"/>
<text x="1245" y="833" font-size="12" fill="#eef2fb" text-anchor="middle">Arrabbiata</text>
<rect x="1302" y="816" width="86" height="24" rx="12" fill="#ff5a36" fill-opacity="0.16" stroke="#ff5a36" stroke-opacity="0.5"/>
<text x="1345" y="833" font-size="12" fill="#eef2fb" text-anchor="middle">Biondetti</text>
<text x="90" y="966" font-size="12" fill="#566177">Geometry © OpenStreetMap contributors (ODbL) · corner data: Lovely-Sim-Racing + curated · track-atlas</text>
<text x="90" y="942" font-size="12" fill="#8794ab">⚑ start / finish</text>
</svg>