<svg xmlns="http://www.w3.org/2000/svg" width="1600" height="1000" viewBox="0 0 1600 1000" font-family="Helvetica, Arial, sans-serif">
<defs>
      <radialGradient id="bg" cx="38%" cy="34%" r="85%">
        <stop offset="0%" stop-color="#1b2030"/>
        <stop offset="55%" stop-color="#12151f"/>
        <stop offset="100%" stop-color="#0a0c12"/>
      </radialGradient>
      <linearGradient id="accent" x1="0" y1="0" x2="1" y2="1">
        <stop offset="0%" stop-color="#ff5a36"/>
        <stop offset="100%" stop-color="#ffffff"/>
      </linearGradient>
      <filter id="glow" x="-40%" y="-40%" width="180%" height="180%">
        <feGaussianBlur stdDeviation="6" result="b"/>
        <feMerge><feMergeNode in="b"/><feMergeNode in="SourceGraphic"/></feMerge>
      </filter>
    </defs>
<rect width="1600" height="1000" fill="url(#bg)"/>
<line x1="0" y1="0" x2="0" y2="1000" stroke="#ffffff" stroke-opacity="0.025"/>
<line x1="56" y1="0" x2="56" y2="1000" stroke="#ffffff" stroke-opacity="0.025"/>
<line x1="112" y1="0" x2="112" y2="1000" stroke="#ffffff" stroke-opacity="0.025"/>
<line x1="168" y1="0" x2="168" y2="1000" stroke="#ffffff" stroke-opacity="0.025"/>
<line x1="224" y1="0" x2="224" y2="1000" stroke="#ffffff" stroke-opacity="0.025"/>
<line x1="280" y1="0" x2="280" y2="1000" stroke="#ffffff" stroke-opacity="0.025"/>
<line x1="336" y1="0" x2="336" y2="1000" stroke="#ffffff" stroke-opacity="0.025"/>
<line x1="392" y1="0" x2="392" y2="1000" stroke="#ffffff" stroke-opacity="0.025"/>
<line x1="448" y1="0" x2="448" y2="1000" stroke="#ffffff" stroke-opacity="0.025"/>
<line x1="504" y1="0" x2="504" y2="1000" stroke="#ffffff" stroke-opacity="0.025"/>
<line x1="560" y1="0" x2="560" y2="1000" stroke="#ffffff" stroke-opacity="0.025"/>
<line x1="616" y1="0" x2="616" y2="1000" stroke="#ffffff" stroke-opacity="0.025"/>
<line x1="672" y1="0" x2="672" y2="1000" stroke="#ffffff" stroke-opacity="0.025"/>
<line x1="728" y1="0" x2="728" y2="1000" stroke="#ffffff" stroke-opacity="0.025"/>
<line x1="784" y1="0" x2="784" y2="1000" stroke="#ffffff" stroke-opacity="0.025"/>
<line x1="840" y1="0" x2="840" y2="1000" stroke="#ffffff" stroke-opacity="0.025"/>
<line x1="896" y1="0" x2="896" y2="1000" stroke="#ffffff" stroke-opacity="0.025"/>
<line x1="952" y1="0" x2="952" y2="1000" stroke="#ffffff" stroke-opacity="0.025"/>
<line x1="1008" y1="0" x2="1008" y2="1000" stroke="#ffffff" stroke-opacity="0.025"/>
<line x1="1064" y1="0" x2="1064" y2="1000" stroke="#ffffff" stroke-opacity="0.025"/>
<line x1="1120" y1="0" x2="1120" y2="1000" stroke="#ffffff" stroke-opacity="0.025"/>
<line x1="1176" y1="0" x2="1176" y2="1000" stroke="#ffffff" stroke-opacity="0.025"/>
<line x1="1232" y1="0" x2="1232" y2="1000" stroke="#ffffff" stroke-opacity="0.025"/>
<line x1="1288" y1="0" x2="1288" y2="1000" stroke="#ffffff" stroke-opacity="0.025"/>
<line x1="1344" y1="0" x2="1344" y2="1000" stroke="#ffffff" stroke-opacity="0.025"/>
<line x1="1400" y1="0" x2="1400" y2="1000" stroke="#ffffff" stroke-opacity="0.025"/>
<line x1="1456" y1="0" x2="1456" y2="1000" stroke="#ffffff" stroke-opacity="0.025"/>
<line x1="1512" y1="0" x2="1512" y2="1000" stroke="#ffffff" stroke-opacity="0.025"/>
<line x1="1568" y1="0" x2="1568" y2="1000" stroke="#ffffff" stroke-opacity="0.025"/>
<line x1="0" y1="0" x2="1600" y2="0" stroke="#ffffff" stroke-opacity="0.025"/>
<line x1="0" y1="56" x2="1600" y2="56" stroke="#ffffff" stroke-opacity="0.025"/>
<line x1="0" y1="112" x2="1600" y2="112" stroke="#ffffff" stroke-opacity="0.025"/>
<line x1="0" y1="168" x2="1600" y2="168" stroke="#ffffff" stroke-opacity="0.025"/>
<line x1="0" y1="224" x2="1600" y2="224" stroke="#ffffff" stroke-opacity="0.025"/>
<line x1="0" y1="280" x2="1600" y2="280" stroke="#ffffff" stroke-opacity="0.025"/>
<line x1="0" y1="336" x2="1600" y2="336" stroke="#ffffff" stroke-opacity="0.025"/>
<line x1="0" y1="392" x2="1600" y2="392" stroke="#ffffff" stroke-opacity="0.025"/>
<line x1="0" y1="448" x2="1600" y2="448" stroke="#ffffff" stroke-opacity="0.025"/>
<line x1="0" y1="504" x2="1600" y2="504" stroke="#ffffff" stroke-opacity="0.025"/>
<line x1="0" y1="560" x2="1600" y2="560" stroke="#ffffff" stroke-opacity="0.025"/>
<line x1="0" y1="616" x2="1600" y2="616" stroke="#ffffff" stroke-opacity="0.025"/>
<line x1="0" y1="672" x2="1600" y2="672" stroke="#ffffff" stroke-opacity="0.025"/>
<line x1="0" y1="728" x2="1600" y2="728" stroke="#ffffff" stroke-opacity="0.025"/>
<line x1="0" y1="784" x2="1600" y2="784" stroke="#ffffff" stroke-opacity="0.025"/>
<line x1="0" y1="840" x2="1600" y2="840" stroke="#ffffff" stroke-opacity="0.025"/>
<line x1="0" y1="896" x2="1600" y2="896" stroke="#ffffff" stroke-opacity="0.025"/>
<line x1="0" y1="952" x2="1600" y2="952" stroke="#ffffff" stroke-opacity="0.025"/>
<path d="M 96.8,224.8 L 93.3,221.3 L 91.7,219.2 L 90.5,217.0 L 90.0,214.8 L 90.0,212.6 L 90.3,210.6 L 91.0,208.9 L 92.0,207.6 L 93.8,206.1 L 96.0,205.0 L 98.4,204.4 L 101.0,203.9 L 109.9,202.5 L 132.5,199.4 L 139.7,198.3 L 162.3,196.4 L 177.4,195.8 L 196.2,195.1 L 213.4,195.2 L 230.6,195.4 L 246.6,196.4 L 248.3,196.6 L 268.7,198.5 L 286.0,200.6 L 310.8,205.3 L 333.4,209.5 L 383.3,219.0 L 392.3,220.7 L 478.5,236.7 L 482.9,237.4 L 506.0,240.8 L 523.4,243.0 L 538.5,244.5 L 619.9,248.4 L 667.8,250.4 L 675.1,250.7 L 680.4,251.1 L 683.6,251.9 L 686.7,253.0 L 689.4,254.3 L 691.7,256.1 L 693.3,257.8 L 694.8,260.4 L 696.2,263.4 L 697.1,266.0 L 697.6,268.9 L 697.6,273.3 L 697.3,276.8 L 696.4,280.1 L 694.0,286.0 L 691.8,290.5 L 688.5,295.4 L 686.3,298.4 L 683.5,302.1 L 678.4,309.1 L 672.4,316.6 L 664.3,325.3 L 659.1,330.0 L 652.1,335.4 L 642.3,342.3 L 631.9,348.4 L 620.0,354.3 L 614.2,356.8 L 609.0,358.6 L 603.2,360.6 L 593.4,363.0 L 584.9,364.7 L 575.7,365.9 L 565.3,367.1 L 555.8,367.3 L 548.1,366.7 L 538.8,365.6 L 493.9,358.2 L 485.1,356.8 L 445.3,350.5 L 430.8,348.3 L 425.5,347.5 L 416.4,346.0 L 411.8,345.9 L 407.8,346.1 L 402.1,346.4 L 396.9,347.8 L 389.0,350.4 L 384.8,352.6 L 377.8,356.8 L 370.2,363.5 L 364.2,369.7 L 360.4,374.7 L 357.2,380.3 L 355.2,384.8 L 353.0,390.9 L 352.0,396.1 L 351.4,402.2 L 351.4,408.5 L 352.2,414.8 L 353.4,421.4 L 355.0,427.2 L 357.8,433.6 L 384.4,482.2 L 411.4,527.1 L 416.6,535.8 L 421.7,541.7 L 428.9,548.0 L 437.5,553.4 L 446.8,557.4 L 457.3,559.5 L 466.7,559.9 L 476.4,558.3 L 486.6,555.3 L 494.3,551.8 L 499.1,549.1 L 504.4,544.5 L 508.1,541.0 L 511.0,537.8 L 515.8,531.1 L 519.6,525.7 L 523.1,521.6 L 527.3,516.3 L 531.5,511.6 L 536.2,506.5 L 543.1,501.1 L 551.7,494.9 L 559.4,490.4 L 565.9,486.9 L 576.1,482.2 L 584.4,479.0 L 592.9,475.6 L 603.2,472.6 L 611.8,471.0 L 622.4,469.9 L 637.0,469.4 L 662.5,469.1 L 687.5,468.7 L 730.3,468.1 L 758.2,468.0 L 767.2,467.8 L 831.8,465.9 L 947.6,463.1 L 957.8,462.9 L 964.2,463.2 L 965.7,463.3 L 969.5,464.2 L 970.5,464.4 L 972.9,465.2 L 975.6,466.1 L 976.7,466.7 L 980.6,468.6 L 981.5,469.1 L 985.1,471.3 L 988.2,473.2 L 989.2,473.8 L 992.3,476.8 L 995.6,480.1 L 997.9,482.3 L 1001.9,487.8 L 1002.6,488.7 L 1003.2,489.9 L 1005.3,493.6 L 1006.0,494.9 L 1008.0,500.2 L 1008.6,502.3 L 1010.0,507.4 L 1016.2,528.9 L 1023.5,553.7 L 1028.2,569.7 L 1035.4,594.3 L 1038.4,605.2 L 1039.5,609.2 L 1040.0,612.1 L 1040.0,615.1 L 1039.6,618.4 L 1038.8,621.0 L 1036.6,623.5 L 1033.9,626.2 L 1030.8,628.8 L 1026.7,631.8 L 1019.7,636.7 L 1010.8,642.6 L 998.9,648.8 L 989.5,653.3 L 978.6,657.8 L 968.5,662.0 L 959.8,665.2 L 951.0,668.4 L 939.1,672.4 L 895.1,686.2 L 817.0,707.4 L 729.3,731.1 L 555.5,778.2 L 501.2,792.9 L 494.2,794.8 L 493.6,794.9 L 493.0,795.1 L 492.1,795.2 L 490.8,795.3 L 490.1,795.4 L 489.3,795.4 L 488.7,795.4 L 488.0,795.3 L 487.3,795.1 L 486.6,794.9 L 486.2,794.8 L 485.8,794.6 L 485.3,794.4 L 484.7,794.1 L 484.1,793.7 L 483.6,793.4 L 483.0,792.9 L 482.5,792.5 L 482.0,792.0 L 481.5,791.6 L 481.1,791.1 L 480.7,790.6 L 480.4,790.2 L 480.2,789.8 L 480.0,789.4 L 479.7,789.0 L 479.2,788.2 L 476.3,783.0 L 470.3,771.9 L 466.2,764.6 L 462.2,758.3 L 457.9,751.9 L 454.2,746.6 L 446.5,736.2 L 424.1,704.8 L 405.5,679.1 L 381.7,646.0 L 366.6,624.7 L 353.1,604.6 L 328.0,559.0 L 311.9,526.6 L 302.9,508.1 L 275.4,449.0 L 255.8,407.6 L 252.7,401.4 L 249.9,396.4 L 245.1,389.0 L 241.6,384.1 L 225.9,361.0 L 221.8,355.2 L 218.1,350.0 L 209.0,339.1 L 192.8,322.5 L 141.9,270.4 L 106.5,235.0 L 96.8,224.8 L 424.1,704.8 L 443.4,727.3 L 452.2,737.6 L 460.9,747.6 L 475.1,763.9 L 476.5,765.5 L 484.1,777.1 L 489.8,782.4 L 494.3,783.9 L 499.3,783.9 L 503.0,783.4 L 593.3,758.0 L 631.3,746.5 L 846.0,688.4 L 931.4,665.3 L 938.3,662.6 L 944.0,659.2 L 957.6,651.3 L 974.2,642.1 L 986.0,635.2 L 991.0,631.1 L 997.7,624.6 L 1001.6,619.0 L 1004.9,613.4 L 1008.2,606.9 L 1009.8,598.8 L 1010.5,593.1 L 1010.6,582.2 L 1010.0,532.8 L 1009.9,522.2 L 1009.9,513.8 L 1010.0,507.4 L 493.6,794.9 L 483.5,800.7 L 471.3,803.9 L 465.0,804.9 L 460.8,804.7 L 457.9,803.4 L 456.2,802.0 L 453.8,798.8 L 452.1,793.1 L 452.1,786.4 L 452.9,777.9 L 452.7,772.9 L 452.1,769.0 L 450.6,764.7 L 447.0,754.9 L 440.9,742.7 L 433.9,731.2 L 424.8,716.5 L 421.3,710.7 L 417.0,704.1 L 405.5,679.1 L 311.9,526.6 L 302.2,513.2 L 295.5,505.2 L 268.7,473.3 L 267.5,470.8 L 268.0,467.5 L 275.4,449.0 L 283.7,430.7 L 285.0,424.0 L 284.3,419.6 L 282.7,416.3 L 279.5,413.0 L 221.8,355.2 Z" fill="none" stroke="#000000" stroke-opacity="0.5" stroke-width="13" stroke-linejoin="round" stroke-linecap="round"/>
<path d="M 96.8,224.8 L 93.3,221.3 L 91.7,219.2 L 90.5,217.0 L 90.0,214.8 L 90.0,212.6 L 90.3,210.6 L 91.0,208.9 L 92.0,207.6 L 93.8,206.1 L 96.0,205.0 L 98.4,204.4 L 101.0,203.9 L 109.9,202.5 L 132.5,199.4 L 139.7,198.3 L 162.3,196.4 L 177.4,195.8 L 196.2,195.1 L 213.4,195.2 L 230.6,195.4 L 246.6,196.4 L 248.3,196.6 L 268.7,198.5 L 286.0,200.6 L 310.8,205.3 L 333.4,209.5 L 383.3,219.0 L 392.3,220.7 L 478.5,236.7 L 482.9,237.4 L 506.0,240.8 L 523.4,243.0 L 538.5,244.5 L 619.9,248.4 L 667.8,250.4 L 675.1,250.7 L 680.4,251.1 L 683.6,251.9 L 686.7,253.0 L 689.4,254.3 L 691.7,256.1 L 693.3,257.8 L 694.8,260.4 L 696.2,263.4 L 697.1,266.0 L 697.6,268.9 L 697.6,273.3 L 697.3,276.8 L 696.4,280.1 L 694.0,286.0 L 691.8,290.5 L 688.5,295.4 L 686.3,298.4 L 683.5,302.1 L 678.4,309.1 L 672.4,316.6 L 664.3,325.3 L 659.1,330.0 L 652.1,335.4 L 642.3,342.3 L 631.9,348.4 L 620.0,354.3 L 614.2,356.8 L 609.0,358.6 L 603.2,360.6 L 593.4,363.0 L 584.9,364.7 L 575.7,365.9 L 565.3,367.1 L 555.8,367.3 L 548.1,366.7 L 538.8,365.6 L 493.9,358.2 L 485.1,356.8 L 445.3,350.5 L 430.8,348.3 L 425.5,347.5 L 416.4,346.0 L 411.8,345.9 L 407.8,346.1 L 402.1,346.4 L 396.9,347.8 L 389.0,350.4 L 384.8,352.6 L 377.8,356.8 L 370.2,363.5 L 364.2,369.7 L 360.4,374.7 L 357.2,380.3 L 355.2,384.8 L 353.0,390.9 L 352.0,396.1 L 351.4,402.2 L 351.4,408.5 L 352.2,414.8 L 353.4,421.4 L 355.0,427.2 L 357.8,433.6 L 384.4,482.2 L 411.4,527.1 L 416.6,535.8 L 421.7,541.7 L 428.9,548.0 L 437.5,553.4 L 446.8,557.4 L 457.3,559.5 L 466.7,559.9 L 476.4,558.3 L 486.6,555.3 L 494.3,551.8 L 499.1,549.1 L 504.4,544.5 L 508.1,541.0 L 511.0,537.8 L 515.8,531.1 L 519.6,525.7 L 523.1,521.6 L 527.3,516.3 L 531.5,511.6 L 536.2,506.5 L 543.1,501.1 L 551.7,494.9 L 559.4,490.4 L 565.9,486.9 L 576.1,482.2 L 584.4,479.0 L 592.9,475.6 L 603.2,472.6 L 611.8,471.0 L 622.4,469.9 L 637.0,469.4 L 662.5,469.1 L 687.5,468.7 L 730.3,468.1 L 758.2,468.0 L 767.2,467.8 L 831.8,465.9 L 947.6,463.1 L 957.8,462.9 L 964.2,463.2 L 965.7,463.3 L 969.5,464.2 L 970.5,464.4 L 972.9,465.2 L 975.6,466.1 L 976.7,466.7 L 980.6,468.6 L 981.5,469.1 L 985.1,471.3 L 988.2,473.2 L 989.2,473.8 L 992.3,476.8 L 995.6,480.1 L 997.9,482.3 L 1001.9,487.8 L 1002.6,488.7 L 1003.2,489.9 L 1005.3,493.6 L 1006.0,494.9 L 1008.0,500.2 L 1008.6,502.3 L 1010.0,507.4 L 1016.2,528.9 L 1023.5,553.7 L 1028.2,569.7 L 1035.4,594.3 L 1038.4,605.2 L 1039.5,609.2 L 1040.0,612.1 L 1040.0,615.1 L 1039.6,618.4 L 1038.8,621.0 L 1036.6,623.5 L 1033.9,626.2 L 1030.8,628.8 L 1026.7,631.8 L 1019.7,636.7 L 1010.8,642.6 L 998.9,648.8 L 989.5,653.3 L 978.6,657.8 L 968.5,662.0 L 959.8,665.2 L 951.0,668.4 L 939.1,672.4 L 895.1,686.2 L 817.0,707.4 L 729.3,731.1 L 555.5,778.2 L 501.2,792.9 L 494.2,794.8 L 493.6,794.9 L 493.0,795.1 L 492.1,795.2 L 490.8,795.3 L 490.1,795.4 L 489.3,795.4 L 488.7,795.4 L 488.0,795.3 L 487.3,795.1 L 486.6,794.9 L 486.2,794.8 L 485.8,794.6 L 485.3,794.4 L 484.7,794.1 L 484.1,793.7 L 483.6,793.4 L 483.0,792.9 L 482.5,792.5 L 482.0,792.0 L 481.5,791.6 L 481.1,791.1 L 480.7,790.6 L 480.4,790.2 L 480.2,789.8 L 480.0,789.4 L 479.7,789.0 L 479.2,788.2 L 476.3,783.0 L 470.3,771.9 L 466.2,764.6 L 462.2,758.3 L 457.9,751.9 L 454.2,746.6 L 446.5,736.2 L 424.1,704.8 L 405.5,679.1 L 381.7,646.0 L 366.6,624.7 L 353.1,604.6 L 328.0,559.0 L 311.9,526.6 L 302.9,508.1 L 275.4,449.0 L 255.8,407.6 L 252.7,401.4 L 249.9,396.4 L 245.1,389.0 L 241.6,384.1 L 225.9,361.0 L 221.8,355.2 L 218.1,350.0 L 209.0,339.1 L 192.8,322.5 L 141.9,270.4 L 106.5,235.0 L 96.8,224.8 L 424.1,704.8 L 443.4,727.3 L 452.2,737.6 L 460.9,747.6 L 475.1,763.9 L 476.5,765.5 L 484.1,777.1 L 489.8,782.4 L 494.3,783.9 L 499.3,783.9 L 503.0,783.4 L 593.3,758.0 L 631.3,746.5 L 846.0,688.4 L 931.4,665.3 L 938.3,662.6 L 944.0,659.2 L 957.6,651.3 L 974.2,642.1 L 986.0,635.2 L 991.0,631.1 L 997.7,624.6 L 1001.6,619.0 L 1004.9,613.4 L 1008.2,606.9 L 1009.8,598.8 L 1010.5,593.1 L 1010.6,582.2 L 1010.0,532.8 L 1009.9,522.2 L 1009.9,513.8 L 1010.0,507.4 L 493.6,794.9 L 483.5,800.7 L 471.3,803.9 L 465.0,804.9 L 460.8,804.7 L 457.9,803.4 L 456.2,802.0 L 453.8,798.8 L 452.1,793.1 L 452.1,786.4 L 452.9,777.9 L 452.7,772.9 L 452.1,769.0 L 450.6,764.7 L 447.0,754.9 L 440.9,742.7 L 433.9,731.2 L 424.8,716.5 L 421.3,710.7 L 417.0,704.1 L 405.5,679.1 L 311.9,526.6 L 302.2,513.2 L 295.5,505.2 L 268.7,473.3 L 267.5,470.8 L 268.0,467.5 L 275.4,449.0 L 283.7,430.7 L 285.0,424.0 L 284.3,419.6 L 282.7,416.3 L 279.5,413.0 L 221.8,355.2 Z" fill="none" stroke="#39404f" stroke-width="8.5" stroke-linejoin="round" stroke-linecap="round"/>
<path d="M 96.8,224.8 L 93.3,221.3 L 91.7,219.2 L 90.5,217.0 L 90.0,214.8 L 90.0,212.6 L 90.3,210.6 L 91.0,208.9 L 92.0,207.6 L 93.8,206.1 L 96.0,205.0 L 98.4,204.4 L 101.0,203.9 L 109.9,202.5 L 132.5,199.4 L 139.7,198.3 L 162.3,196.4 L 177.4,195.8 L 196.2,195.1 L 213.4,195.2 L 230.6,195.4 L 246.6,196.4 L 248.3,196.6 L 268.7,198.5 L 286.0,200.6 L 310.8,205.3 L 333.4,209.5 L 383.3,219.0 L 392.3,220.7 L 478.5,236.7 L 482.9,237.4 L 506.0,240.8 L 523.4,243.0 L 538.5,244.5 L 619.9,248.4 L 667.8,250.4 L 675.1,250.7 L 680.4,251.1 L 683.6,251.9 L 686.7,253.0 L 689.4,254.3 L 691.7,256.1 L 693.3,257.8 L 694.8,260.4 L 696.2,263.4 L 697.1,266.0 L 697.6,268.9 L 697.6,273.3 L 697.3,276.8 L 696.4,280.1 L 694.0,286.0 L 691.8,290.5 L 688.5,295.4 L 686.3,298.4 L 683.5,302.1 L 678.4,309.1 L 672.4,316.6 L 664.3,325.3 L 659.1,330.0 L 652.1,335.4 L 642.3,342.3 L 631.9,348.4 L 620.0,354.3 L 614.2,356.8 L 609.0,358.6 L 603.2,360.6 L 593.4,363.0 L 584.9,364.7 L 575.7,365.9 L 565.3,367.1 L 555.8,367.3 L 548.1,366.7 L 538.8,365.6 L 493.9,358.2 L 485.1,356.8 L 445.3,350.5 L 430.8,348.3 L 425.5,347.5 L 416.4,346.0 L 411.8,345.9 L 407.8,346.1 L 402.1,346.4 L 396.9,347.8 L 389.0,350.4 L 384.8,352.6 L 377.8,356.8 L 370.2,363.5 L 364.2,369.7 L 360.4,374.7 L 357.2,380.3 L 355.2,384.8 L 353.0,390.9 L 352.0,396.1 L 351.4,402.2 L 351.4,408.5 L 352.2,414.8 L 353.4,421.4 L 355.0,427.2 L 357.8,433.6 L 384.4,482.2 L 411.4,527.1 L 416.6,535.8 L 421.7,541.7 L 428.9,548.0 L 437.5,553.4 L 446.8,557.4 L 457.3,559.5 L 466.7,559.9 L 476.4,558.3 L 486.6,555.3 L 494.3,551.8 L 499.1,549.1 L 504.4,544.5 L 508.1,541.0 L 511.0,537.8 L 515.8,531.1 L 519.6,525.7 L 523.1,521.6 L 527.3,516.3 L 531.5,511.6 L 536.2,506.5 L 543.1,501.1 L 551.7,494.9 L 559.4,490.4 L 565.9,486.9 L 576.1,482.2 L 584.4,479.0 L 592.9,475.6 L 603.2,472.6 L 611.8,471.0 L 622.4,469.9 L 637.0,469.4 L 662.5,469.1 L 687.5,468.7 L 730.3,468.1 L 758.2,468.0 L 767.2,467.8 L 831.8,465.9 L 947.6,463.1 L 957.8,462.9 L 964.2,463.2 L 965.7,463.3 L 969.5,464.2 L 970.5,464.4 L 972.9,465.2 L 975.6,466.1 L 976.7,466.7 L 980.6,468.6 L 981.5,469.1 L 985.1,471.3 L 988.2,473.2 L 989.2,473.8 L 992.3,476.8 L 995.6,480.1 L 997.9,482.3 L 1001.9,487.8 L 1002.6,488.7 L 1003.2,489.9 L 1005.3,493.6 L 1006.0,494.9 L 1008.0,500.2 L 1008.6,502.3 L 1010.0,507.4 L 1016.2,528.9 L 1023.5,553.7 L 1028.2,569.7 L 1035.4,594.3 L 1038.4,605.2 L 1039.5,609.2 L 1040.0,612.1 L 1040.0,615.1 L 1039.6,618.4 L 1038.8,621.0 L 1036.6,623.5 L 1033.9,626.2 L 1030.8,628.8 L 1026.7,631.8 L 1019.7,636.7 L 1010.8,642.6 L 998.9,648.8 L 989.5,653.3 L 978.6,657.8 L 968.5,662.0 L 959.8,665.2 L 951.0,668.4 L 939.1,672.4 L 895.1,686.2 L 817.0,707.4 L 729.3,731.1 L 555.5,778.2 L 501.2,792.9 L 494.2,794.8 L 493.6,794.9 L 493.0,795.1 L 492.1,795.2 L 490.8,795.3 L 490.1,795.4 L 489.3,795.4 L 488.7,795.4 L 488.0,795.3 L 487.3,795.1 L 486.6,794.9 L 486.2,794.8 L 485.8,794.6 L 485.3,794.4 L 484.7,794.1 L 484.1,793.7 L 483.6,793.4 L 483.0,792.9 L 482.5,792.5 L 482.0,792.0 L 481.5,791.6 L 481.1,791.1 L 480.7,790.6 L 480.4,790.2 L 480.2,789.8 L 480.0,789.4 L 479.7,789.0 L 479.2,788.2 L 476.3,783.0 L 470.3,771.9 L 466.2,764.6 L 462.2,758.3 L 457.9,751.9 L 454.2,746.6 L 446.5,736.2 L 424.1,704.8 L 405.5,679.1 L 381.7,646.0 L 366.6,624.7 L 353.1,604.6 L 328.0,559.0 L 311.9,526.6 L 302.9,508.1 L 275.4,449.0 L 255.8,407.6 L 252.7,401.4 L 249.9,396.4 L 245.1,389.0 L 241.6,384.1 L 225.9,361.0 L 221.8,355.2 L 218.1,350.0 L 209.0,339.1 L 192.8,322.5 L 141.9,270.4 L 106.5,235.0 L 96.8,224.8 L 424.1,704.8 L 443.4,727.3 L 452.2,737.6 L 460.9,747.6 L 475.1,763.9 L 476.5,765.5 L 484.1,777.1 L 489.8,782.4 L 494.3,783.9 L 499.3,783.9 L 503.0,783.4 L 593.3,758.0 L 631.3,746.5 L 846.0,688.4 L 931.4,665.3 L 938.3,662.6 L 944.0,659.2 L 957.6,651.3 L 974.2,642.1 L 986.0,635.2 L 991.0,631.1 L 997.7,624.6 L 1001.6,619.0 L 1004.9,613.4 L 1008.2,606.9 L 1009.8,598.8 L 1010.5,593.1 L 1010.6,582.2 L 1010.0,532.8 L 1009.9,522.2 L 1009.9,513.8 L 1010.0,507.4 L 493.6,794.9 L 483.5,800.7 L 471.3,803.9 L 465.0,804.9 L 460.8,804.7 L 457.9,803.4 L 456.2,802.0 L 453.8,798.8 L 452.1,793.1 L 452.1,786.4 L 452.9,777.9 L 452.7,772.9 L 452.1,769.0 L 450.6,764.7 L 447.0,754.9 L 440.9,742.7 L 433.9,731.2 L 424.8,716.5 L 421.3,710.7 L 417.0,704.1 L 405.5,679.1 L 311.9,526.6 L 302.2,513.2 L 295.5,505.2 L 268.7,473.3 L 267.5,470.8 L 268.0,467.5 L 275.4,449.0 L 283.7,430.7 L 285.0,424.0 L 284.3,419.6 L 282.7,416.3 L 279.5,413.0 L 221.8,355.2 Z" fill="none" stroke="#e7edf8" stroke-width="2.6" stroke-linejoin="round" stroke-linecap="round"/>
<path d="M 96.8,224.8 L 93.3,221.3 L 91.7,219.2 L 90.5,217.0 L 90.0,214.8 L 90.0,212.6 L 90.3,210.6 L 91.0,208.9 L 92.0,207.6 L 93.8,206.1 L 96.0,205.0 L 98.4,204.4 L 101.0,203.9 L 109.9,202.5 L 132.5,199.4 L 139.7,198.3 L 162.3,196.4 L 177.4,195.8 L 196.2,195.1 L 213.4,195.2 L 230.6,195.4 L 246.6,196.4 L 248.3,196.6 L 268.7,198.5 L 286.0,200.6 L 310.8,205.3 L 333.4,209.5 L 383.3,219.0 L 392.3,220.7 L 478.5,236.7 L 482.9,237.4 L 506.0,240.8 L 523.4,243.0 L 538.5,244.5 L 619.9,248.4 L 667.8,250.4 L 675.1,250.7 L 680.4,251.1 L 683.6,251.9 L 686.7,253.0 L 689.4,254.3 L 691.7,256.1 L 693.3,257.8 L 694.8,260.4 L 696.2,263.4 L 697.1,266.0 L 697.6,268.9 L 697.6,273.3 L 697.3,276.8 L 696.4,280.1 L 694.0,286.0 L 691.8,290.5 L 688.5,295.4 L 686.3,298.4 L 683.5,302.1 L 678.4,309.1 L 672.4,316.6 L 664.3,325.3 L 659.1,330.0 L 652.1,335.4 L 642.3,342.3 L 631.9,348.4 L 620.0,354.3 L 614.2,356.8 L 609.0,358.6 L 603.2,360.6 L 593.4,363.0 L 584.9,364.7 L 575.7,365.9 L 565.3,367.1 L 555.8,367.3 L 548.1,366.7 L 538.8,365.6 L 493.9,358.2 L 485.1,356.8 L 445.3,350.5 L 430.8,348.3 L 425.5,347.5 L 416.4,346.0 L 411.8,345.9 L 407.8,346.1 L 402.1,346.4 L 396.9,347.8 L 389.0,350.4 L 384.8,352.6 L 377.8,356.8 L 370.2,363.5 L 364.2,369.7 L 360.4,374.7 L 357.2,380.3 L 355.2,384.8 L 353.0,390.9 L 352.0,396.1 L 351.4,402.2 L 351.4,408.5 L 352.2,414.8 L 353.4,421.4 L 355.0,427.2 L 357.8,433.6 L 384.4,482.2 L 411.4,527.1 L 416.6,535.8 L 421.7,541.7 L 428.9,548.0 L 437.5,553.4 L 446.8,557.4 L 457.3,559.5 L 466.7,559.9 L 476.4,558.3 L 486.6,555.3 L 494.3,551.8 L 499.1,549.1 L 504.4,544.5 L 508.1,541.0 L 511.0,537.8 L 515.8,531.1 L 519.6,525.7 L 523.1,521.6 L 527.3,516.3 L 531.5,511.6 L 536.2,506.5 L 543.1,501.1 L 551.7,494.9 L 559.4,490.4 L 565.9,486.9 L 576.1,482.2 L 584.4,479.0 L 592.9,475.6 L 603.2,472.6 L 611.8,471.0 L 622.4,469.9 L 637.0,469.4 L 662.5,469.1 L 687.5,468.7 L 730.3,468.1 L 758.2,468.0 L 767.2,467.8 L 831.8,465.9 L 947.6,463.1 L 957.8,462.9 L 964.2,463.2 L 965.7,463.3 L 969.5,464.2 L 970.5,464.4 L 972.9,465.2 L 975.6,466.1 L 976.7,466.7 L 980.6,468.6 L 981.5,469.1 L 985.1,471.3 L 988.2,473.2 L 989.2,473.8 L 992.3,476.8 L 995.6,480.1 L 997.9,482.3 L 1001.9,487.8 L 1002.6,488.7 L 1003.2,489.9 L 1005.3,493.6 L 1006.0,494.9 L 1008.0,500.2 L 1008.6,502.3 L 1010.0,507.4 L 1016.2,528.9 L 1023.5,553.7 L 1028.2,569.7 L 1035.4,594.3 L 1038.4,605.2 L 1039.5,609.2 L 1040.0,612.1 L 1040.0,615.1 L 1039.6,618.4 L 1038.8,621.0 L 1036.6,623.5 L 1033.9,626.2 L 1030.8,628.8 L 1026.7,631.8 L 1019.7,636.7 L 1010.8,642.6 L 998.9,648.8 L 989.5,653.3 L 978.6,657.8 L 968.5,662.0 L 959.8,665.2 L 951.0,668.4 L 939.1,672.4 L 895.1,686.2 L 817.0,707.4 L 729.3,731.1 L 555.5,778.2 L 501.2,792.9 L 494.2,794.8 L 493.6,794.9 L 493.0,795.1 L 492.1,795.2 L 490.8,795.3 L 490.1,795.4 L 489.3,795.4 L 488.7,795.4 L 488.0,795.3 L 487.3,795.1 L 486.6,794.9 L 486.2,794.8 L 485.8,794.6 L 485.3,794.4 L 484.7,794.1 L 484.1,793.7 L 483.6,793.4 L 483.0,792.9 L 482.5,792.5 L 482.0,792.0 L 481.5,791.6 L 481.1,791.1 L 480.7,790.6 L 480.4,790.2 L 480.2,789.8 L 480.0,789.4 L 479.7,789.0 L 479.2,788.2 L 476.3,783.0 L 470.3,771.9 L 466.2,764.6 L 462.2,758.3 L 457.9,751.9 L 454.2,746.6 L 446.5,736.2 L 424.1,704.8 L 405.5,679.1 L 381.7,646.0 L 366.6,624.7 L 353.1,604.6 L 328.0,559.0 L 311.9,526.6 L 302.9,508.1 L 275.4,449.0 L 255.8,407.6 L 252.7,401.4 L 249.9,396.4 L 245.1,389.0 L 241.6,384.1 L 225.9,361.0 L 221.8,355.2 L 218.1,350.0 L 209.0,339.1 L 192.8,322.5 L 141.9,270.4 L 106.5,235.0 L 96.8,224.8 L 424.1,704.8 L 443.4,727.3 L 452.2,737.6 L 460.9,747.6 L 475.1,763.9 L 476.5,765.5 L 484.1,777.1 L 489.8,782.4 L 494.3,783.9 L 499.3,783.9 L 503.0,783.4 L 593.3,758.0 L 631.3,746.5 L 846.0,688.4 L 931.4,665.3 L 938.3,662.6 L 944.0,659.2 L 957.6,651.3 L 974.2,642.1 L 986.0,635.2 L 991.0,631.1 L 997.7,624.6 L 1001.6,619.0 L 1004.9,613.4 L 1008.2,606.9 L 1009.8,598.8 L 1010.5,593.1 L 1010.6,582.2 L 1010.0,532.8 L 1009.9,522.2 L 1009.9,513.8 L 1010.0,507.4 L 493.6,794.9 L 483.5,800.7 L 471.3,803.9 L 465.0,804.9 L 460.8,804.7 L 457.9,803.4 L 456.2,802.0 L 453.8,798.8 L 452.1,793.1 L 452.1,786.4 L 452.9,777.9 L 452.7,772.9 L 452.1,769.0 L 450.6,764.7 L 447.0,754.9 L 440.9,742.7 L 433.9,731.2 L 424.8,716.5 L 421.3,710.7 L 417.0,704.1 L 405.5,679.1 L 311.9,526.6 L 302.2,513.2 L 295.5,505.2 L 268.7,473.3 L 267.5,470.8 L 268.0,467.5 L 275.4,449.0 L 283.7,430.7 L 285.0,424.0 L 284.3,419.6 L 282.7,416.3 L 279.5,413.0 L 221.8,355.2 Z" fill="none" stroke="#ff5a36" stroke-opacity="0.55" stroke-width="1.2" stroke-linejoin="round" filter="url(#glow)"/>
<circle cx="805.4" cy="710.5" r="13" fill="none" stroke="#ffffff" stroke-width="3"/>
<rect x="801.4" y="688.5" width="8" height="18" fill="#ffffff"/>
<circle cx="485.2" cy="792.1" r="7" fill="#ff5a36" stroke="#0a0c12" stroke-width="2.5" filter="url(#glow)"/>
<text x="485.2" y="795.5" font-size="9" font-weight="700" fill="#0a0c12" text-anchor="middle">1</text>
<circle cx="236.3" cy="376.4" r="7" fill="#ff5a36" stroke="#0a0c12" stroke-width="2.5" filter="url(#glow)"/>
<text x="236.3" y="379.8" font-size="9" font-weight="700" fill="#0a0c12" text-anchor="middle">2</text>
<circle cx="94.6" cy="211.3" r="7" fill="#ff5a36" stroke="#0a0c12" stroke-width="2.5" filter="url(#glow)"/>
<text x="94.6" y="214.7" font-size="9" font-weight="700" fill="#0a0c12" text-anchor="middle">3</text>
<circle cx="688.9" cy="271.2" r="7" fill="#ff5a36" stroke="#0a0c12" stroke-width="2.5" filter="url(#glow)"/>
<text x="688.9" y="274.6" font-size="9" font-weight="700" fill="#0a0c12" text-anchor="middle">4</text>
<circle cx="602.4" cy="360.8" r="7" fill="#ff5a36" stroke="#0a0c12" stroke-width="2.5" filter="url(#glow)"/>
<text x="602.4" y="364.2" font-size="9" font-weight="700" fill="#0a0c12" text-anchor="middle">5</text>
<circle cx="377.2" cy="376.3" r="7" fill="#ff5a36" stroke="#0a0c12" stroke-width="2.5" filter="url(#glow)"/>
<text x="377.2" y="379.7" font-size="9" font-weight="700" fill="#0a0c12" text-anchor="middle">6</text>
<circle cx="458.2" cy="559.5" r="7" fill="#ff5a36" stroke="#0a0c12" stroke-width="2.5" filter="url(#glow)"/>
<text x="458.2" y="562.9" font-size="9" font-weight="700" fill="#0a0c12" text-anchor="middle">7</text>
<circle cx="572.4" cy="483.9" r="7" fill="#ff5a36" stroke="#0a0c12" stroke-width="2.5" filter="url(#glow)"/>
<text x="572.4" y="487.3" font-size="9" font-weight="700" fill="#0a0c12" text-anchor="middle">8</text>
<circle cx="987.9" cy="478.2" r="7" fill="#ff5a36" stroke="#0a0c12" stroke-width="2.5" filter="url(#glow)"/>
<text x="987.9" y="481.6" font-size="9" font-weight="700" fill="#0a0c12" text-anchor="middle">9</text>
<circle cx="1014.5" cy="632.6" r="7" fill="#ff5a36" stroke="#0a0c12" stroke-width="2.5" filter="url(#glow)"/>
<text x="1014.5" y="636.0" font-size="9" font-weight="700" fill="#0a0c12" text-anchor="middle">10</text>
<line x1="485.2" y1="792.1" x2="471.7" y2="842.3" stroke="#ff5a36" stroke-opacity="0.45" stroke-width="1.3"/>
<text x="463.7" y="846.3" font-size="15" font-weight="600" fill="#eef2fb" text-anchor="end">Turn 1</text>
<line x1="236.3" y1="376.4" x2="188.0" y2="376.5" stroke="#ff5a36" stroke-opacity="0.45" stroke-width="1.3"/>
<text x="180.0" y="380.5" font-size="15" font-weight="600" fill="#eef2fb" text-anchor="end">Remus Kurve</text>
<line x1="94.6" y1="211.3" x2="50.6" y2="183.6" stroke="#ff5a36" stroke-opacity="0.45" stroke-width="1.3"/>
<text x="42.6" y="187.6" font-size="15" font-weight="600" fill="#eef2fb" text-anchor="end">Remus</text>
<line x1="688.9" y1="271.2" x2="713.6" y2="225.5" stroke="#ff5a36" stroke-opacity="0.45" stroke-width="1.3"/>
<text x="721.6" y="229.5" font-size="15" font-weight="600" fill="#eef2fb" text-anchor="start">Schlossgold</text>
<line x1="602.4" y1="360.8" x2="616.2" y2="310.6" stroke="#ff5a36" stroke-opacity="0.45" stroke-width="1.3"/>
<text x="624.2" y="314.6" font-size="15" font-weight="600" fill="#eef2fb" text-anchor="start">Turn 5</text>
<line x1="377.2" y1="376.3" x2="334.6" y2="346.5" stroke="#ff5a36" stroke-opacity="0.45" stroke-width="1.3"/>
<text x="326.6" y="350.5" font-size="15" font-weight="600" fill="#eef2fb" text-anchor="end">Rauch Kurve</text>
<line x1="458.2" y1="559.5" x2="412.0" y2="583.3" stroke="#ff5a36" stroke-opacity="0.45" stroke-width="1.3"/>
<text x="404.0" y="587.3" font-size="15" font-weight="600" fill="#eef2fb" text-anchor="end">Würth Kurve</text>
<line x1="572.4" y1="483.9" x2="593.9" y2="436.5" stroke="#ff5a36" stroke-opacity="0.45" stroke-width="1.3"/>
<text x="601.9" y="440.5" font-size="15" font-weight="600" fill="#eef2fb" text-anchor="start">Turn 8</text>
<line x1="987.9" y1="478.2" x2="1039.8" y2="474.8" stroke="#ff5a36" stroke-opacity="0.45" stroke-width="1.3"/>
<text x="1047.8" y="478.8" font-size="15" font-weight="600" fill="#eef2fb" text-anchor="start">Rindt</text>
<line x1="1014.5" y1="632.6" x2="1064.6" y2="646.7" stroke="#ff5a36" stroke-opacity="0.45" stroke-width="1.3"/>
<text x="1072.6" y="650.7" font-size="15" font-weight="600" fill="#eef2fb" text-anchor="start">Mobilkurve</text>
<text x="90" y="64" font-size="20" letter-spacing="5" fill="#ff5a36" font-weight="700">TRACK ATLAS</text>
<text x="90" y="108" font-size="42" font-weight="800" fill="#ffffff">RED BULL RING</text>
<text x="90" y="136" font-size="16" fill="#9aa6bd">Spielberg, A1-Ring</text>
<rect x="1170" y="200" width="360" height="710" rx="16" fill="#ffffff" fill-opacity="0.04" stroke="#ff5a36" stroke-opacity="0.5"/>
<text x="1198" y="250" font-size="13" letter-spacing="2" fill="#8794ab">LAYOUT</text>
<text x="1198" y="276" font-size="22" font-weight="700" fill="#eef2fb">Grand Prix Circuit</text>
<text x="1198" y="320" font-size="13" letter-spacing="2" fill="#8794ab">LENGTH</text>
<text x="1198" y="346" font-size="22" font-weight="700" fill="#eef2fb">4.318 km</text>
<text x="1198" y="390" font-size="13" letter-spacing="2" fill="#8794ab">CORNERS</text>
<text x="1198" y="416" font-size="22" font-weight="700" fill="#eef2fb">10</text>
<text x="1198" y="460" font-size="13" letter-spacing="2" fill="#8794ab">NAMED CORNERS</text>
<text x="1198" y="486" font-size="22" font-weight="700" fill="#eef2fb">10</text>
<text x="1198" y="530" font-size="13" letter-spacing="2" fill="#8794ab">DIRECTION</text>
<text x="1198" y="556" font-size="22" font-weight="700" fill="#eef2fb">Clockwise</text>
<text x="1198" y="600" font-size="13" letter-spacing="2" fill="#8794ab">SECTORS</text>
<text x="1198" y="626" font-size="22" font-weight="700" fill="#eef2fb">3</text>
<text x="1198" y="670" font-size="13" letter-spacing="2" fill="#8794ab">COUNTRY</text>
<text x="1198" y="696" font-size="22" font-weight="700" fill="#eef2fb">AT</text>
<text x="1198" y="740" font-size="13" letter-spacing="2" fill="#8794ab">LOCATION</text>
<text x="1198" y="766" font-size="22" font-weight="700" fill="#eef2fb">Spielberg</text>
<text x="90" y="966" font-size="12" fill="#566177">Geometry © OpenStreetMap contributors (ODbL) · corner data: Lovely-Sim-Racing + curated · track-atlas</text>
<text x="90" y="942" font-size="12" fill="#8794ab">⚑ start / finish</text>
</svg>