<svg xmlns="http://www.w3.org/2000/svg" width="1600" height="1000" viewBox="0 0 1600 1000" font-family="Helvetica, Arial, sans-serif">
<defs>
      <radialGradient id="bg" cx="38%" cy="34%" r="85%">
        <stop offset="0%" stop-color="#1b2030"/>
        <stop offset="55%" stop-color="#12151f"/>
        <stop offset="100%" stop-color="#0a0c12"/>
      </radialGradient>
      <linearGradient id="accent" x1="0" y1="0" x2="1" y2="1">
        <stop offset="0%" stop-color="#ff5a36"/>
        <stop offset="100%" stop-color="#ffffff"/>
      </linearGradient>
      <filter id="glow" x="-40%" y="-40%" width="180%" height="180%">
        <feGaussianBlur stdDeviation="6" result="b"/>
        <feMerge><feMergeNode in="b"/><feMergeNode in="SourceGraphic"/></feMerge>
      </filter>
    </defs>
<rect width="1600" height="1000" fill="url(#bg)"/>
<path d="M 946.8,168.0 C 1070.3,87.3 949.5,200.7 924.0,248.8 C 898.5,296.9 811.3,399.4 793.7,456.6 C 776.2,513.8 834.2,563.6 818.8,592.0 C 803.5,620.4 736.8,634.3 701.6,626.8 C 666.4,619.3 626.0,546.6 607.5,546.9 C 588.9,547.2 595.9,592.0 590.5,628.6 C 585.0,665.2 588.0,727.8 575.0,766.5 C 562.1,805.1 546.7,836.9 512.8,860.4 C 478.8,883.9 399.5,899.1 371.3,907.3 C 343.1,915.6 357.1,912.4 343.7,910.0 C 330.2,907.6 299.4,909.0 290.8,892.8 C 282.2,876.7 285.9,833.4 292.0,813.2 C 298.2,792.9 328.7,786.6 327.6,771.4 C 326.5,756.2 309.6,728.1 285.5,721.7 C 261.5,715.4 73.0,825.3 183.2,733.0 C 293.4,640.8 823.3,248.7 946.8,168.0 Z" fill="none" stroke="#000000" stroke-opacity="0.5" stroke-width="13" stroke-linejoin="round" stroke-linecap="round"/>
<path d="M 946.8,168.0 C 1070.3,87.3 949.5,200.7 924.0,248.8 C 898.5,296.9 811.3,399.4 793.7,456.6 C 776.2,513.8 834.2,563.6 818.8,592.0 C 803.5,620.4 736.8,634.3 701.6,626.8 C 666.4,619.3 626.0,546.6 607.5,546.9 C 588.9,547.2 595.9,592.0 590.5,628.6 C 585.0,665.2 588.0,727.8 575.0,766.5 C 562.1,805.1 546.7,836.9 512.8,860.4 C 478.8,883.9 399.5,899.1 371.3,907.3 C 343.1,915.6 357.1,912.4 343.7,910.0 C 330.2,907.6 299.4,909.0 290.8,892.8 C 282.2,876.7 285.9,833.4 292.0,813.2 C 298.2,792.9 328.7,786.6 327.6,771.4 C 326.5,756.2 309.6,728.1 285.5,721.7 C 261.5,715.4 73.0,825.3 183.2,733.0 C 293.4,640.8 823.3,248.7 946.8,168.0 Z" fill="none" stroke="#39404f" stroke-width="8.5" stroke-linejoin="round" stroke-linecap="round"/>
<path d="M 946.8,168.0 C 1070.3,87.3 949.5,200.7 924.0,248.8 C 898.5,296.9 811.3,399.4 793.7,456.6 C 776.2,513.8 834.2,563.6 818.8,592.0 C 803.5,620.4 736.8,634.3 701.6,626.8 C 666.4,619.3 626.0,546.6 607.5,546.9 C 588.9,547.2 595.9,592.0 590.5,628.6 C 585.0,665.2 588.0,727.8 575.0,766.5 C 562.1,805.1 546.7,836.9 512.8,860.4 C 478.8,883.9 399.5,899.1 371.3,907.3 C 343.1,915.6 357.1,912.4 343.7,910.0 C 330.2,907.6 299.4,909.0 290.8,892.8 C 282.2,876.7 285.9,833.4 292.0,813.2 C 298.2,792.9 328.7,786.6 327.6,771.4 C 326.5,756.2 309.6,728.1 285.5,721.7 C 261.5,715.4 73.0,825.3 183.2,733.0 C 293.4,640.8 823.3,248.7 946.8,168.0 Z" fill="none" stroke="#e7edf8" stroke-width="2.6" stroke-linejoin="round" stroke-linecap="round"/>
<path d="M 946.8,168.0 C 1070.3,87.3 949.5,200.7 924.0,248.8 C 898.5,296.9 811.3,399.4 793.7,456.6 C 776.2,513.8 834.2,563.6 818.8,592.0 C 803.5,620.4 736.8,634.3 701.6,626.8 C 666.4,619.3 626.0,546.6 607.5,546.9 C 588.9,547.2 595.9,592.0 590.5,628.6 C 585.0,665.2 588.0,727.8 575.0,766.5 C 562.1,805.1 546.7,836.9 512.8,860.4 C 478.8,883.9 399.5,899.1 371.3,907.3 C 343.1,915.6 357.1,912.4 343.7,910.0 C 330.2,907.6 299.4,909.0 290.8,892.8 C 282.2,876.7 285.9,833.4 292.0,813.2 C 298.2,792.9 328.7,786.6 327.6,771.4 C 326.5,756.2 309.6,728.1 285.5,721.7 C 261.5,715.4 73.0,825.3 183.2,733.0 C 293.4,640.8 823.3,248.7 946.8,168.0 Z" fill="none" stroke="#ff5a36" stroke-opacity="0.55" stroke-width="1.2" stroke-linejoin="round" filter="url(#glow)"/>
<circle cx="584.1" cy="411.1" r="13" fill="none" stroke="#ffffff" stroke-width="3"/>
<rect x="580.1" y="389.1" width="8" height="18" fill="#ffffff"/>
<circle cx="946.8" cy="168.0" r="7" fill="#ff5a36" stroke="#0a0c12" stroke-width="2.5" filter="url(#glow)"/>
<text x="946.8" y="171.4" font-size="9" font-weight="700" fill="#0a0c12" text-anchor="middle">1</text>
<circle cx="924.0" cy="248.8" r="7" fill="#ff5a36" stroke="#0a0c12" stroke-width="2.5" filter="url(#glow)"/>
<text x="924.0" y="252.2" font-size="9" font-weight="700" fill="#0a0c12" text-anchor="middle">2</text>
<circle cx="793.7" cy="456.6" r="7" fill="#ff5a36" stroke="#0a0c12" stroke-width="2.5" filter="url(#glow)"/>
<text x="793.7" y="460.0" font-size="9" font-weight="700" fill="#0a0c12" text-anchor="middle">3</text>
<circle cx="818.8" cy="592.0" r="7" fill="#ff5a36" stroke="#0a0c12" stroke-width="2.5" filter="url(#glow)"/>
<text x="818.8" y="595.4" font-size="9" font-weight="700" fill="#0a0c12" text-anchor="middle">4</text>
<circle cx="701.6" cy="626.8" r="7" fill="#ff5a36" stroke="#0a0c12" stroke-width="2.5" filter="url(#glow)"/>
<text x="701.6" y="630.2" font-size="9" font-weight="700" fill="#0a0c12" text-anchor="middle">5</text>
<circle cx="607.5" cy="546.9" r="7" fill="#ff5a36" stroke="#0a0c12" stroke-width="2.5" filter="url(#glow)"/>
<text x="607.5" y="550.3" font-size="9" font-weight="700" fill="#0a0c12" text-anchor="middle">6</text>
<circle cx="590.5" cy="628.6" r="7" fill="#ff5a36" stroke="#0a0c12" stroke-width="2.5" filter="url(#glow)"/>
<text x="590.5" y="632.0" font-size="9" font-weight="700" fill="#0a0c12" text-anchor="middle">7</text>
<circle cx="575.0" cy="766.5" r="7" fill="#ff5a36" stroke="#0a0c12" stroke-width="2.5" filter="url(#glow)"/>
<text x="575.0" y="769.9" font-size="9" font-weight="700" fill="#0a0c12" text-anchor="middle">8</text>
<circle cx="512.8" cy="860.4" r="7" fill="#ff5a36" stroke="#0a0c12" stroke-width="2.5" filter="url(#glow)"/>
<text x="512.8" y="863.8" font-size="9" font-weight="700" fill="#0a0c12" text-anchor="middle">9</text>
<circle cx="371.3" cy="907.3" r="7" fill="#ff5a36" stroke="#0a0c12" stroke-width="2.5" filter="url(#glow)"/>
<text x="371.3" y="910.7" font-size="9" font-weight="700" fill="#0a0c12" text-anchor="middle">10</text>
<circle cx="343.7" cy="910.0" r="7" fill="#ff5a36" stroke="#0a0c12" stroke-width="2.5" filter="url(#glow)"/>
<text x="343.7" y="913.4" font-size="9" font-weight="700" fill="#0a0c12" text-anchor="middle">11</text>
<circle cx="290.8" cy="892.8" r="7" fill="#ff5a36" stroke="#0a0c12" stroke-width="2.5" filter="url(#glow)"/>
<text x="290.8" y="896.2" font-size="9" font-weight="700" fill="#0a0c12" text-anchor="middle">12</text>
<circle cx="292.0" cy="813.2" r="7" fill="#ff5a36" stroke="#0a0c12" stroke-width="2.5" filter="url(#glow)"/>
<text x="292.0" y="816.6" font-size="9" font-weight="700" fill="#0a0c12" text-anchor="middle">13</text>
<circle cx="327.6" cy="771.4" r="7" fill="#ff5a36" stroke="#0a0c12" stroke-width="2.5" filter="url(#glow)"/>
<text x="327.6" y="774.8" font-size="9" font-weight="700" fill="#0a0c12" text-anchor="middle">14</text>
<circle cx="285.5" cy="721.7" r="7" fill="#ff5a36" stroke="#0a0c12" stroke-width="2.5" filter="url(#glow)"/>
<text x="285.5" y="725.1" font-size="9" font-weight="700" fill="#0a0c12" text-anchor="middle">15</text>
<circle cx="183.2" cy="733.0" r="7" fill="#ff5a36" stroke="#0a0c12" stroke-width="2.5" filter="url(#glow)"/>
<text x="183.2" y="736.4" font-size="9" font-weight="700" fill="#0a0c12" text-anchor="middle">16</text>
<line x1="946.8" y1="168.0" x2="979.9" y2="127.9" stroke="#ff5a36" stroke-opacity="0.45" stroke-width="1.3"/>
<text x="987.9" y="131.9" font-size="15" font-weight="600" fill="#eef2fb" text-anchor="start">First Corner</text>
<line x1="793.7" y1="456.6" x2="834.2" y2="424.0" stroke="#ff5a36" stroke-opacity="0.45" stroke-width="1.3"/>
<text x="842.2" y="428.0" font-size="15" font-weight="600" fill="#eef2fb" text-anchor="start">Coca-Cola</text>
<line x1="701.6" y1="626.8" x2="752.3" y2="615.1" stroke="#ff5a36" stroke-opacity="0.45" stroke-width="1.3"/>
<text x="760.3" y="619.1" font-size="15" font-weight="600" fill="#eef2fb" text-anchor="start">100R</text>
<line x1="607.5" y1="546.9" x2="634.5" y2="502.5" stroke="#ff5a36" stroke-opacity="0.45" stroke-width="1.3"/>
<text x="642.5" y="506.5" font-size="15" font-weight="600" fill="#eef2fb" text-anchor="start">Hairpin</text>
<line x1="512.8" y1="860.4" x2="506.8" y2="912.1" stroke="#ff5a36" stroke-opacity="0.45" stroke-width="1.3"/>
<text x="498.8" y="916.1" font-size="15" font-weight="600" fill="#eef2fb" text-anchor="end">300R</text>
<line x1="343.7" y1="910.0" x2="311.6" y2="930.0" stroke="#ff5a36" stroke-opacity="0.45" stroke-width="1.3"/>
<text x="303.6" y="934.0" font-size="15" font-weight="600" fill="#eef2fb" text-anchor="end">Dunlop Chicane</text>
<line x1="292.0" y1="813.2" x2="247.6" y2="840.2" stroke="#ff5a36" stroke-opacity="0.45" stroke-width="1.3"/>
<text x="239.6" y="844.2" font-size="15" font-weight="600" fill="#eef2fb" text-anchor="end">13th Corner</text>
<line x1="285.5" y1="721.7" x2="234.8" y2="733.2" stroke="#ff5a36" stroke-opacity="0.45" stroke-width="1.3"/>
<text x="226.8" y="737.2" font-size="15" font-weight="600" fill="#eef2fb" text-anchor="end">Netz</text>
<line x1="183.2" y1="733.0" x2="132.2" y2="765.2" stroke="#ff5a36" stroke-opacity="0.45" stroke-width="1.3"/>
<text x="124.2" y="769.2" font-size="15" font-weight="600" fill="#eef2fb" text-anchor="end">Panasonic</text>
<text x="90" y="64" font-size="20" letter-spacing="5" fill="#ff5a36" font-weight="700">TRACK ATLAS</text>
<text x="90" y="108" font-size="42" font-weight="800" fill="#ffffff">FUJI SPEEDWAY</text>
<text x="90" y="136" font-size="16" fill="#9aa6bd">Fuji</text>
<rect x="1170" y="200" width="360" height="710" rx="16" fill="#ffffff" fill-opacity="0.04" stroke="#ff5a36" stroke-opacity="0.5"/>
<text x="1198" y="250" font-size="13" letter-spacing="2" fill="#8794ab">LAYOUT</text>
<text x="1198" y="276" font-size="22" font-weight="700" fill="#eef2fb">Grand Prix Circuit</text>
<text x="1198" y="320" font-size="13" letter-spacing="2" fill="#8794ab">LENGTH</text>
<text x="1198" y="346" font-size="22" font-weight="700" fill="#eef2fb">4.549 km</text>
<text x="1198" y="390" font-size="13" letter-spacing="2" fill="#8794ab">CORNERS</text>
<text x="1198" y="416" font-size="22" font-weight="700" fill="#eef2fb">16</text>
<text x="1198" y="460" font-size="13" letter-spacing="2" fill="#8794ab">NAMED CORNERS</text>
<text x="1198" y="486" font-size="22" font-weight="700" fill="#eef2fb">11</text>
<text x="1198" y="530" font-size="13" letter-spacing="2" fill="#8794ab">DIRECTION</text>
<text x="1198" y="556" font-size="22" font-weight="700" fill="#eef2fb">Clockwise</text>
<text x="1198" y="600" font-size="13" letter-spacing="2" fill="#8794ab">SECTORS</text>
<text x="1198" y="626" font-size="22" font-weight="700" fill="#eef2fb">3</text>
<text x="1198" y="670" font-size="13" letter-spacing="2" fill="#8794ab">COUNTRY</text>
<text x="1198" y="696" font-size="22" font-weight="700" fill="#eef2fb">Japan</text>
<text x="1198" y="740" font-size="13" letter-spacing="2" fill="#8794ab">LOCATION</text>
<text x="1198" y="766" font-size="22" font-weight="700" fill="#eef2fb">Oyama, Shizuoka</text>
<text x="1198" y="810" font-size="13" letter-spacing="2" fill="#8794ab">COMPLEXES</text>
<rect x="1198" y="816" width="46" height="24" rx="12" fill="#ff5a36" fill-opacity="0.16" stroke="#ff5a36" stroke-opacity="0.5"/>
<text x="1221" y="833" font-size="12" fill="#eef2fb" text-anchor="middle">100R</text>
<rect x="1254" y="816" width="126" height="24" rx="12" fill="#ff5a36" fill-opacity="0.16" stroke="#ff5a36" stroke-opacity="0.5"/>
<text x="1317" y="833" font-size="12" fill="#eef2fb" text-anchor="middle">Dunlop Chicane</text>
<rect x="1390" y="816" width="46" height="24" rx="12" fill="#ff5a36" fill-opacity="0.16" stroke="#ff5a36" stroke-opacity="0.5"/>
<text x="1413" y="833" font-size="12" fill="#eef2fb" text-anchor="middle">Netz</text>
<text x="90" y="966" font-size="12" fill="#566177">Geometry © OpenStreetMap contributors (ODbL) · corner data: Lovely-Sim-Racing + curated · track-atlas</text>
<text x="90" y="942" font-size="12" fill="#8794ab">⚑ start / finish</text>
</svg>