<svg xmlns="http://www.w3.org/2000/svg" width="1600" height="1000" viewBox="0 0 1600 1000" font-family="Helvetica, Arial, sans-serif">
<defs>
      <radialGradient id="bg" cx="38%" cy="34%" r="85%">
        <stop offset="0%" stop-color="#1b2030"/>
        <stop offset="55%" stop-color="#12151f"/>
        <stop offset="100%" stop-color="#0a0c12"/>
      </radialGradient>
      <linearGradient id="accent" x1="0" y1="0" x2="1" y2="1">
        <stop offset="0%" stop-color="#e6007e"/>
        <stop offset="100%" stop-color="#ffffff"/>
      </linearGradient>
      <filter id="glow" x="-40%" y="-40%" width="180%" height="180%">
        <feGaussianBlur stdDeviation="6" result="b"/>
        <feMerge><feMergeNode in="b"/><feMergeNode in="SourceGraphic"/></feMerge>
      </filter>
    </defs>
<rect width="1600" height="1000" fill="url(#bg)"/>
<path d="M 408.2,486.3 L 409.2,493.7 L 409.8,497.8 L 409.9,498.9 L 410.1,500.0 L 410.1,501.0 L 410.2,501.9 L 410.2,502.6 L 410.2,503.2 L 410.2,503.7 L 410.1,504.2 L 410.0,504.7 L 409.9,505.3 L 409.7,505.9 L 409.5,506.7 L 409.2,507.4 L 408.9,508.2 L 408.6,508.9 L 408.2,509.5 L 407.9,510.2 L 407.5,510.8 L 407.1,511.3 L 406.7,511.8 L 406.0,512.4 L 405.3,513.1 L 401.8,516.1 L 400.9,516.9 L 400.4,517.3 L 400.0,517.7 L 399.6,518.1 L 399.2,518.5 L 398.9,518.9 L 398.6,519.2 L 398.2,519.7 L 397.9,520.1 L 397.6,520.6 L 397.2,521.1 L 396.8,521.6 L 396.5,522.2 L 396.2,522.8 L 395.9,523.4 L 395.6,523.9 L 395.3,524.5 L 395.0,525.3 L 394.8,525.9 L 394.7,526.4 L 394.5,527.0 L 394.4,527.7 L 394.2,528.3 L 394.1,528.9 L 394.0,529.5 L 394.0,530.1 L 393.9,530.7 L 393.9,531.3 L 393.9,531.9 L 393.9,532.4 L 393.9,533.2 L 394.0,533.9 L 394.0,534.5 L 394.1,535.2 L 394.2,536.0 L 394.3,536.7 L 394.5,537.4 L 394.6,538.0 L 394.8,538.7 L 395.0,539.3 L 395.2,539.8 L 395.4,540.3 L 395.6,540.8 L 395.9,541.3 L 396.2,541.9 L 396.5,542.5 L 396.8,543.0 L 397.1,543.5 L 397.5,544.0 L 397.9,544.6 L 398.2,545.1 L 398.6,545.5 L 398.9,546.0 L 399.4,546.5 L 399.9,547.0 L 400.5,547.5 L 401.3,548.2 L 402.1,548.9 L 405.8,552.0 L 406.7,552.8 L 407.8,553.9 L 408.5,554.8 L 408.8,555.2 L 409.2,555.6 L 409.5,556.0 L 409.8,556.4 L 410.1,557.0 L 410.5,557.7 L 410.9,558.4 L 411.4,560.1 L 411.8,561.4 L 412.0,562.9 L 412.3,564.7 L 412.7,568.9 L 413.2,575.1 L 413.4,577.5 L 413.5,579.6 L 413.4,580.3 L 413.3,581.2 L 413.2,582.0 L 413.0,582.8 L 412.8,583.7 L 412.5,584.6 L 412.2,585.5 L 411.9,586.3 L 411.6,587.0 L 411.2,587.7 L 411.0,588.1 L 410.7,588.7 L 410.3,589.2 L 409.8,589.9 L 409.3,590.6 L 408.7,591.3 L 400.0,600.7 L 399.3,601.4 L 398.7,602.1 L 398.2,602.7 L 397.5,603.7 L 396.9,604.5 L 396.3,605.6 L 395.9,606.5 L 395.4,607.5 L 395.0,608.6 L 394.6,609.6 L 394.3,610.7 L 394.1,611.9 L 394.0,613.0 L 393.9,614.5 L 393.9,616.0 L 394.0,617.3 L 394.1,618.6 L 394.3,619.8 L 394.7,621.2 L 396.3,624.5 L 397.5,626.8 L 398.3,628.4 L 399.1,629.8 L 400.1,631.5 L 401.5,633.7 L 403.3,636.5 L 405.0,638.7 L 407.0,641.4 L 408.6,643.5 L 410.4,646.2 L 411.6,648.0 L 412.5,649.4 L 413.4,650.8 L 414.4,652.7 L 415.2,654.2 L 416.4,656.4 L 420.0,664.1 L 422.2,668.7 L 423.8,672.2 L 425.4,675.3 L 438.3,700.7 L 439.1,702.4 L 439.9,704.0 L 440.6,705.6 L 441.3,707.3 L 441.9,708.9 L 442.5,710.7 L 443.0,712.4 L 443.5,714.1 L 444.4,717.3 L 459.5,781.4 L 460.1,783.9 L 460.5,785.3 L 460.6,785.7 L 460.8,785.9 L 460.9,786.1 L 460.9,786.2 L 461.1,786.4 L 461.2,786.5 L 461.3,786.7 L 461.5,786.8 L 461.6,786.8 L 461.8,786.9 L 461.9,787.0 L 462.1,787.0 L 462.2,787.1 L 462.4,787.1 L 462.6,787.1 L 462.8,787.2 L 463.0,787.2 L 463.3,787.1 L 463.5,787.1 L 463.8,787.0 L 485.3,778.6 L 497.0,774.0 L 497.9,773.7 L 498.8,773.4 L 499.5,773.3 L 500.2,773.2 L 500.8,773.2 L 501.4,773.2 L 502.0,773.4 L 502.4,773.5 L 502.9,773.7 L 503.3,774.0 L 503.8,774.3 L 504.2,774.6 L 504.6,775.0 L 504.8,775.4 L 505.1,775.8 L 505.4,776.3 L 505.6,776.8 L 506.0,777.9 L 507.5,782.6 L 509.1,787.9 L 510.6,792.7 L 511.1,794.3 L 511.6,795.4 L 512.2,796.6 L 513.0,797.8 L 513.8,798.7 L 514.6,799.6 L 515.7,800.7 L 516.5,801.4 L 517.1,801.9 L 527.1,810.1 L 533.5,815.2 L 537.7,818.3 L 543.9,823.0 L 550.4,827.8 L 565.9,839.3 L 567.8,840.6 L 574.8,845.8 L 576.3,846.9 L 577.8,847.8 L 579.3,848.8 L 580.9,849.6 L 586.2,852.4 L 589.0,853.9 L 613.6,866.4 L 639.9,879.9 L 643.6,881.7 L 645.2,882.4 L 646.9,883.1 L 648.4,883.7 L 650.2,884.3 L 653.5,885.3 L 728.9,905.8 L 732.3,906.7 L 738.5,908.4 L 743.3,909.8 L 743.8,909.9 L 744.2,910.0 L 744.6,910.0 L 745.0,909.9 L 745.4,909.8 L 745.7,909.7 L 746.1,909.5 L 746.4,909.2 L 746.7,909.0 L 746.9,908.6 L 747.1,907.8 L 750.5,895.6 L 750.8,894.4 L 751.0,893.5 L 751.2,892.9 L 751.3,892.4 L 751.4,891.8 L 751.5,891.1 L 751.6,890.3 L 751.6,889.5 L 751.7,888.4 L 751.8,887.3 L 751.8,886.1 L 748.7,829.2 L 744.6,759.6 L 743.6,744.7 L 743.5,742.9 L 743.3,740.9 L 743.0,739.2 L 742.8,737.6 L 742.5,736.0 L 742.2,734.5 L 741.8,733.0 L 741.5,731.6 L 740.8,729.4 L 733.5,706.9 L 733.1,705.4 L 733.0,705.1 L 732.9,704.8 L 732.9,704.4 L 732.8,704.1 L 732.8,703.8 L 732.8,703.4 L 732.8,702.9 L 732.8,702.4 L 732.8,702.0 L 732.8,701.7 L 732.8,701.3 L 732.8,701.0 L 732.9,700.6 L 732.9,700.3 L 732.9,699.9 L 732.9,699.6 L 733.0,699.3 L 733.0,699.0 L 733.1,698.8 L 733.1,698.5 L 733.2,698.1 L 733.4,697.2 L 733.7,696.4 L 735.1,691.4 L 735.2,691.1 L 735.2,690.7 L 735.3,690.4 L 735.3,690.1 L 735.3,689.8 L 735.4,689.6 L 735.4,689.3 L 735.4,689.0 L 735.3,688.7 L 735.3,688.3 L 735.2,688.1 L 735.2,687.7 L 735.1,687.4 L 735.0,687.1 L 734.9,686.8 L 734.8,686.6 L 734.6,686.3 L 734.5,686.1 L 734.3,685.9 L 734.1,685.6 L 733.9,685.4 L 733.7,685.2 L 733.4,684.9 L 733.2,684.7 L 733.0,684.5 L 732.8,684.3 L 732.6,684.2 L 732.3,684.1 L 732.1,683.9 L 731.8,683.8 L 731.5,683.7 L 731.2,683.6 L 730.9,683.5 L 729.5,683.0 L 728.8,682.8 L 728.4,682.7 L 728.1,682.6 L 727.9,682.4 L 727.6,682.3 L 727.3,682.1 L 727.0,681.9 L 726.7,681.7 L 726.4,681.4 L 726.1,681.2 L 725.9,681.0 L 725.8,680.9 L 725.6,680.8 L 725.5,680.7 L 725.4,680.6 L 725.4,680.5 L 725.3,680.5 L 725.2,680.4 L 725.1,680.2 L 725.0,680.1 L 724.9,679.9 L 724.8,679.7 L 724.7,679.5 L 722.9,674.1 L 721.7,670.3 L 698.6,598.7 L 686.1,559.5 L 684.3,553.8 L 674.7,523.9 L 663.2,488.6 L 662.8,487.5 L 654.9,462.7 L 651.7,452.9 L 651.2,451.6 L 650.9,450.8 L 650.6,450.2 L 650.3,449.5 L 650.0,449.1 L 649.8,448.7 L 649.5,448.3 L 649.3,448.0 L 649.0,447.6 L 648.7,447.2 L 648.4,446.9 L 648.0,446.5 L 647.6,446.1 L 647.3,445.8 L 647.0,445.5 L 646.0,444.6 L 642.7,441.8 L 641.3,440.5 L 641.2,440.4 L 641.0,440.2 L 640.7,440.0 L 640.6,439.8 L 640.5,439.7 L 640.4,439.6 L 640.3,439.4 L 640.2,439.3 L 640.1,439.2 L 640.0,439.1 L 640.0,439.0 L 639.9,438.9 L 639.9,438.8 L 639.8,438.7 L 639.8,438.6 L 639.7,438.5 L 639.6,438.3 L 639.6,438.2 L 639.5,438.0 L 639.5,437.9 L 639.4,437.7 L 639.4,437.6 L 639.4,437.5 L 639.3,437.3 L 639.3,437.1 L 639.3,436.9 L 639.3,436.8 L 639.2,436.6 L 639.2,436.5 L 639.2,436.3 L 639.2,436.2 L 639.2,436.1 L 639.2,435.9 L 639.2,435.8 L 639.2,435.7 L 639.2,435.5 L 639.2,435.4 L 639.2,435.3 L 639.2,435.2 L 639.2,435.1 L 639.2,434.9 L 639.2,434.8 L 639.3,434.7 L 639.3,434.6 L 639.3,434.5 L 639.3,434.4 L 639.3,434.3 L 639.4,434.1 L 639.4,434.0 L 639.4,433.9 L 639.4,433.8 L 639.5,433.6 L 639.5,433.5 L 639.5,433.4 L 639.6,433.3 L 639.6,433.2 L 639.7,433.1 L 639.7,433.0 L 639.8,432.9 L 639.8,432.8 L 639.9,432.7 L 639.9,432.7 L 640.0,432.6 L 640.0,432.5 L 640.1,432.4 L 640.1,432.4 L 640.2,432.3 L 640.2,432.2 L 641.4,430.8 L 641.5,430.7 L 641.6,430.5 L 641.8,430.3 L 641.9,430.2 L 641.9,430.1 L 642.0,429.9 L 642.2,429.6 L 642.3,429.4 L 642.4,429.1 L 642.5,428.9 L 642.6,428.6 L 642.7,428.3 L 642.7,428.1 L 642.8,428.0 L 642.8,427.8 L 642.8,427.6 L 642.8,427.5 L 642.8,427.3 L 642.8,427.2 L 642.8,427.0 L 642.8,426.8 L 642.8,426.6 L 642.8,426.3 L 642.7,425.9 L 642.7,425.4 L 642.6,424.8 L 635.7,403.4 L 628.2,379.8 L 627.7,378.3 L 625.8,372.7 L 617.4,346.6 L 615.0,338.9 L 610.2,324.2 L 603.5,303.4 L 585.2,246.5 L 584.0,243.1 L 582.8,240.2 L 581.7,237.9 L 580.6,235.6 L 579.8,233.9 L 578.9,232.3 L 578.0,230.6 L 576.8,228.3 L 573.9,223.7 L 568.7,215.5 L 559.4,200.7 L 555.0,193.8 L 553.9,192.3 L 552.8,191.0 L 551.9,189.8 L 550.8,188.5 L 549.8,187.3 L 549.1,186.5 L 548.1,185.6 L 547.8,185.2 L 547.4,184.9 L 547.2,184.6 L 546.6,184.1 L 545.3,182.9 L 544.3,182.0 L 543.4,181.1 L 542.5,180.4 L 541.6,179.7 L 539.8,178.4 L 539.0,177.8 L 538.8,177.7 L 537.8,177.0 L 536.2,175.9 L 534.7,174.9 L 533.4,174.1 L 531.9,173.2 L 530.5,172.2 L 529.0,171.3 L 527.2,170.3 L 525.4,169.3 L 524.3,168.8 L 523.5,168.4 L 522.8,168.2 L 522.2,168.1 L 521.6,168.0 L 521.0,168.0 L 520.3,168.1 L 519.6,168.3 L 519.0,168.5 L 504.7,173.8 L 503.2,174.4 L 502.2,174.8 L 501.0,175.4 L 500.0,175.9 L 498.7,176.5 L 498.0,176.9 L 497.6,177.1 L 497.2,177.3 L 496.7,177.6 L 496.0,178.0 L 495.4,178.4 L 494.3,179.2 L 493.3,180.0 L 491.0,181.7 L 487.2,184.6 L 486.8,184.9 L 486.6,185.1 L 486.3,185.3 L 486.1,185.5 L 485.9,185.7 L 485.7,185.9 L 485.5,186.1 L 485.2,186.4 L 485.0,186.6 L 484.8,186.8 L 484.7,187.0 L 484.5,187.2 L 484.3,187.5 L 484.1,187.8 L 484.0,188.1 L 483.9,188.4 L 483.7,188.7 L 483.6,189.0 L 483.5,189.3 L 483.3,189.7 L 483.2,190.0 L 483.1,190.4 L 483.0,190.8 L 482.9,191.1 L 482.8,191.6 L 482.7,191.9 L 482.6,192.3 L 482.6,192.7 L 482.5,193.1 L 482.5,193.4 L 482.5,193.7 L 482.4,194.1 L 482.4,194.5 L 482.4,194.9 L 482.4,196.3 L 482.4,196.9 L 482.4,197.3 L 482.4,197.6 L 482.4,197.8 L 482.3,198.0 L 482.3,198.2 L 482.3,198.5 L 482.2,198.8 L 482.1,199.1 L 481.9,199.5 L 481.8,200.0 L 481.6,200.4 L 481.4,200.8 L 481.2,201.3 L 481.0,201.7 L 480.8,202.1 L 480.5,202.5 L 480.3,202.9 L 480.0,203.2 L 479.8,203.5 L 479.5,203.9 L 479.2,204.2 L 478.8,204.5 L 478.4,204.9 L 478.0,205.2 L 477.7,205.4 L 477.2,205.7 L 476.9,206.0 L 476.5,206.2 L 476.2,206.3 L 475.9,206.5 L 475.6,206.6 L 475.2,206.7 L 474.8,206.8 L 474.4,206.9 L 473.9,206.9 L 473.3,207.0 L 472.3,207.1 L 470.7,207.2 L 469.3,207.2 L 466.3,207.4 L 462.1,207.5 L 460.0,207.6 L 458.5,207.8 L 457.9,207.9 L 457.3,208.0 L 456.6,208.1 L 456.0,208.3 L 455.5,208.4 L 455.0,208.6 L 454.3,208.9 L 453.8,209.1 L 453.1,209.4 L 452.2,209.7 L 450.6,210.4 L 449.1,211.2 L 448.9,211.3 L 448.7,211.4 L 448.5,211.6 L 448.2,211.7 L 447.8,212.0 L 447.5,212.2 L 447.2,212.4 L 446.8,212.8 L 446.1,213.4 L 445.5,213.9 L 444.8,214.6 L 444.2,215.2 L 443.6,215.9 L 442.9,216.9 L 440.9,219.8 L 439.0,222.6 L 438.5,223.3 L 438.0,223.9 L 437.6,224.4 L 437.0,225.1 L 436.4,225.7 L 435.8,226.3 L 435.0,226.9 L 434.3,227.5 L 433.3,228.2 L 432.0,229.1 L 430.0,230.3 L 428.0,231.6 L 415.3,239.7 L 415.1,239.8 L 415.1,239.9 L 415.0,240.0 L 414.9,240.0 L 414.8,240.1 L 414.8,240.2 L 414.7,240.3 L 414.6,240.3 L 414.5,240.4 L 414.5,240.5 L 414.4,240.6 L 414.3,240.7 L 414.3,240.8 L 414.2,240.9 L 414.1,241.0 L 414.1,241.1 L 414.0,241.3 L 414.0,241.4 L 413.9,241.5 L 413.9,241.6 L 413.9,241.7 L 413.8,241.8 L 413.8,241.9 L 413.8,242.0 L 413.8,242.1 L 413.8,242.2 L 413.8,242.3 L 413.8,242.4 L 413.8,242.5 L 413.8,242.7 L 413.8,242.8 L 413.8,243.0 L 413.8,243.1 L 413.8,243.2 L 413.8,243.3 L 413.9,243.5 L 414.8,247.7 L 414.9,248.0 L 414.9,248.1 L 415.0,248.3 L 415.0,248.4 L 415.0,248.5 L 415.0,248.6 L 415.0,248.7 L 415.0,248.9 L 415.0,249.0 L 415.0,249.1 L 415.0,249.2 L 415.0,249.3 L 414.9,249.4 L 414.9,249.5 L 414.9,249.6 L 414.9,249.7 L 414.8,249.8 L 414.8,249.9 L 414.7,250.0 L 414.7,250.1 L 414.6,250.2 L 414.6,250.3 L 414.5,250.4 L 414.4,250.5 L 414.3,250.6 L 414.2,250.7 L 414.1,250.8 L 414.0,250.9 L 413.9,251.0 L 413.8,251.1 L 413.6,251.2 L 398.1,260.7 L 396.6,261.7 L 396.0,262.1 L 395.3,262.7 L 395.0,263.0 L 394.6,263.4 L 394.2,263.7 L 393.7,264.2 L 393.1,264.9 L 392.5,265.6 L 392.0,266.4 L 391.6,267.0 L 391.2,267.6 L 390.9,268.1 L 390.6,268.6 L 390.3,269.1 L 390.0,269.8 L 389.6,270.5 L 388.9,272.2 L 388.1,274.4 L 387.2,276.5 L 386.3,279.0 L 385.5,281.6 L 384.8,284.1 L 384.2,286.1 L 383.7,288.1 L 383.4,289.4 L 382.5,293.9 L 382.0,296.3 L 381.7,298.4 L 381.4,300.0 L 381.2,301.7 L 381.0,303.1 L 380.9,304.4 L 380.8,305.5 L 380.6,307.3 L 380.5,309.2 L 379.7,332.0 L 379.3,343.8 L 379.1,351.8 L 378.8,360.0 L 378.6,367.5 L 378.5,370.4 L 378.3,373.1 L 378.2,374.8 L 378.2,375.8 L 378.2,376.0 L 378.2,376.1 L 378.2,376.2 L 378.3,376.4 L 378.3,376.5 L 378.4,376.7 L 378.5,376.8 L 378.5,376.9 L 378.6,377.1 L 378.8,377.2 L 378.9,377.3 L 379.0,377.4 L 379.1,377.5 L 379.2,377.6 L 379.4,377.6 L 379.5,377.7 L 379.6,377.8 L 379.8,377.8 L 380.0,377.9 L 381.2,378.2 L 381.3,378.2 L 381.4,378.3 L 381.5,378.3 L 381.6,378.4 L 381.7,378.4 L 381.9,378.5 L 382.0,378.6 L 382.1,378.7 L 382.2,378.8 L 382.2,378.9 L 382.3,379.0 L 382.4,379.1 L 382.5,379.2 L 382.6,379.3 L 382.7,379.4 L 382.8,379.5 L 382.8,379.7 L 382.9,379.8 L 382.9,379.9 L 383.0,380.0 L 383.0,380.2 L 383.1,380.3 L 384.9,390.1 L 384.9,390.3 L 385.0,390.7 L 385.1,391.0 L 385.1,391.2 L 385.2,391.4 L 385.3,391.5 L 385.3,391.7 L 385.4,391.9 L 385.5,392.1 L 385.6,392.3 L 385.7,392.5 L 385.9,392.7 L 386.0,392.9 L 386.1,393.1 L 386.2,393.2 L 386.4,393.4 L 386.5,393.5 L 386.6,393.6 L 386.7,393.7 L 386.8,393.8 L 387.0,393.9 L 387.1,394.0 L 387.2,394.1 L 387.3,394.2 L 387.5,394.3 L 387.6,394.4 L 387.8,394.5 L 387.9,394.5 L 388.1,394.6 L 389.4,395.2 L 389.5,395.2 L 389.7,395.3 L 389.9,395.4 L 390.1,395.5 L 390.2,395.5 L 390.3,395.6 L 390.4,395.6 L 390.5,395.7 L 390.6,395.8 L 390.6,395.9 L 390.8,396.0 L 390.9,396.1 L 391.0,396.2 L 391.1,396.4 L 391.2,396.5 L 391.3,396.6 L 391.4,396.8 L 391.5,396.9 L 391.6,397.1 L 391.7,397.3 L 391.8,397.4 L 391.9,397.6 L 392.0,397.8 L 392.1,398.1 L 392.2,398.4 L 392.4,398.8 L 392.5,399.2 L 394.0,404.7 L 397.9,419.2 L 399.9,426.6 L 405.7,447.7 L 407.2,453.5 L 407.6,455.2 L 407.8,455.9 L 407.9,456.7 L 408.0,457.3 L 408.1,457.8 L 408.1,458.6 L 408.1,459.3 L 408.0,460.8 L 408.0,461.8 L 407.9,462.8 L 407.7,463.7 L 407.6,464.4 L 406.9,469.3 L 406.7,470.8 L 406.6,471.6 L 406.5,472.4 L 406.5,473.3 L 406.5,474.4 L 406.5,475.0 L 406.5,475.6 L 406.6,476.3 L 406.8,477.4 L 408.2,486.3 Z" fill="none" stroke="#000000" stroke-opacity="0.5" stroke-width="13" stroke-linejoin="round" stroke-linecap="round"/>
<path d="M 408.2,486.3 L 409.2,493.7 L 409.8,497.8 L 409.9,498.9 L 410.1,500.0 L 410.1,501.0 L 410.2,501.9 L 410.2,502.6 L 410.2,503.2 L 410.2,503.7 L 410.1,504.2 L 410.0,504.7 L 409.9,505.3 L 409.7,505.9 L 409.5,506.7 L 409.2,507.4 L 408.9,508.2 L 408.6,508.9 L 408.2,509.5 L 407.9,510.2 L 407.5,510.8 L 407.1,511.3 L 406.7,511.8 L 406.0,512.4 L 405.3,513.1 L 401.8,516.1 L 400.9,516.9 L 400.4,517.3 L 400.0,517.7 L 399.6,518.1 L 399.2,518.5 L 398.9,518.9 L 398.6,519.2 L 398.2,519.7 L 397.9,520.1 L 397.6,520.6 L 397.2,521.1 L 396.8,521.6 L 396.5,522.2 L 396.2,522.8 L 395.9,523.4 L 395.6,523.9 L 395.3,524.5 L 395.0,525.3 L 394.8,525.9 L 394.7,526.4 L 394.5,527.0 L 394.4,527.7 L 394.2,528.3 L 394.1,528.9 L 394.0,529.5 L 394.0,530.1 L 393.9,530.7 L 393.9,531.3 L 393.9,531.9 L 393.9,532.4 L 393.9,533.2 L 394.0,533.9 L 394.0,534.5 L 394.1,535.2 L 394.2,536.0 L 394.3,536.7 L 394.5,537.4 L 394.6,538.0 L 394.8,538.7 L 395.0,539.3 L 395.2,539.8 L 395.4,540.3 L 395.6,540.8 L 395.9,541.3 L 396.2,541.9 L 396.5,542.5 L 396.8,543.0 L 397.1,543.5 L 397.5,544.0 L 397.9,544.6 L 398.2,545.1 L 398.6,545.5 L 398.9,546.0 L 399.4,546.5 L 399.9,547.0 L 400.5,547.5 L 401.3,548.2 L 402.1,548.9 L 405.8,552.0 L 406.7,552.8 L 407.8,553.9 L 408.5,554.8 L 408.8,555.2 L 409.2,555.6 L 409.5,556.0 L 409.8,556.4 L 410.1,557.0 L 410.5,557.7 L 410.9,558.4 L 411.4,560.1 L 411.8,561.4 L 412.0,562.9 L 412.3,564.7 L 412.7,568.9 L 413.2,575.1 L 413.4,577.5 L 413.5,579.6 L 413.4,580.3 L 413.3,581.2 L 413.2,582.0 L 413.0,582.8 L 412.8,583.7 L 412.5,584.6 L 412.2,585.5 L 411.9,586.3 L 411.6,587.0 L 411.2,587.7 L 411.0,588.1 L 410.7,588.7 L 410.3,589.2 L 409.8,589.9 L 409.3,590.6 L 408.7,591.3 L 400.0,600.7 L 399.3,601.4 L 398.7,602.1 L 398.2,602.7 L 397.5,603.7 L 396.9,604.5 L 396.3,605.6 L 395.9,606.5 L 395.4,607.5 L 395.0,608.6 L 394.6,609.6 L 394.3,610.7 L 394.1,611.9 L 394.0,613.0 L 393.9,614.5 L 393.9,616.0 L 394.0,617.3 L 394.1,618.6 L 394.3,619.8 L 394.7,621.2 L 396.3,624.5 L 397.5,626.8 L 398.3,628.4 L 399.1,629.8 L 400.1,631.5 L 401.5,633.7 L 403.3,636.5 L 405.0,638.7 L 407.0,641.4 L 408.6,643.5 L 410.4,646.2 L 411.6,648.0 L 412.5,649.4 L 413.4,650.8 L 414.4,652.7 L 415.2,654.2 L 416.4,656.4 L 420.0,664.1 L 422.2,668.7 L 423.8,672.2 L 425.4,675.3 L 438.3,700.7 L 439.1,702.4 L 439.9,704.0 L 440.6,705.6 L 441.3,707.3 L 441.9,708.9 L 442.5,710.7 L 443.0,712.4 L 443.5,714.1 L 444.4,717.3 L 459.5,781.4 L 460.1,783.9 L 460.5,785.3 L 460.6,785.7 L 460.8,785.9 L 460.9,786.1 L 460.9,786.2 L 461.1,786.4 L 461.2,786.5 L 461.3,786.7 L 461.5,786.8 L 461.6,786.8 L 461.8,786.9 L 461.9,787.0 L 462.1,787.0 L 462.2,787.1 L 462.4,787.1 L 462.6,787.1 L 462.8,787.2 L 463.0,787.2 L 463.3,787.1 L 463.5,787.1 L 463.8,787.0 L 485.3,778.6 L 497.0,774.0 L 497.9,773.7 L 498.8,773.4 L 499.5,773.3 L 500.2,773.2 L 500.8,773.2 L 501.4,773.2 L 502.0,773.4 L 502.4,773.5 L 502.9,773.7 L 503.3,774.0 L 503.8,774.3 L 504.2,774.6 L 504.6,775.0 L 504.8,775.4 L 505.1,775.8 L 505.4,776.3 L 505.6,776.8 L 506.0,777.9 L 507.5,782.6 L 509.1,787.9 L 510.6,792.7 L 511.1,794.3 L 511.6,795.4 L 512.2,796.6 L 513.0,797.8 L 513.8,798.7 L 514.6,799.6 L 515.7,800.7 L 516.5,801.4 L 517.1,801.9 L 527.1,810.1 L 533.5,815.2 L 537.7,818.3 L 543.9,823.0 L 550.4,827.8 L 565.9,839.3 L 567.8,840.6 L 574.8,845.8 L 576.3,846.9 L 577.8,847.8 L 579.3,848.8 L 580.9,849.6 L 586.2,852.4 L 589.0,853.9 L 613.6,866.4 L 639.9,879.9 L 643.6,881.7 L 645.2,882.4 L 646.9,883.1 L 648.4,883.7 L 650.2,884.3 L 653.5,885.3 L 728.9,905.8 L 732.3,906.7 L 738.5,908.4 L 743.3,909.8 L 743.8,909.9 L 744.2,910.0 L 744.6,910.0 L 745.0,909.9 L 745.4,909.8 L 745.7,909.7 L 746.1,909.5 L 746.4,909.2 L 746.7,909.0 L 746.9,908.6 L 747.1,907.8 L 750.5,895.6 L 750.8,894.4 L 751.0,893.5 L 751.2,892.9 L 751.3,892.4 L 751.4,891.8 L 751.5,891.1 L 751.6,890.3 L 751.6,889.5 L 751.7,888.4 L 751.8,887.3 L 751.8,886.1 L 748.7,829.2 L 744.6,759.6 L 743.6,744.7 L 743.5,742.9 L 743.3,740.9 L 743.0,739.2 L 742.8,737.6 L 742.5,736.0 L 742.2,734.5 L 741.8,733.0 L 741.5,731.6 L 740.8,729.4 L 733.5,706.9 L 733.1,705.4 L 733.0,705.1 L 732.9,704.8 L 732.9,704.4 L 732.8,704.1 L 732.8,703.8 L 732.8,703.4 L 732.8,702.9 L 732.8,702.4 L 732.8,702.0 L 732.8,701.7 L 732.8,701.3 L 732.8,701.0 L 732.9,700.6 L 732.9,700.3 L 732.9,699.9 L 732.9,699.6 L 733.0,699.3 L 733.0,699.0 L 733.1,698.8 L 733.1,698.5 L 733.2,698.1 L 733.4,697.2 L 733.7,696.4 L 735.1,691.4 L 735.2,691.1 L 735.2,690.7 L 735.3,690.4 L 735.3,690.1 L 735.3,689.8 L 735.4,689.6 L 735.4,689.3 L 735.4,689.0 L 735.3,688.7 L 735.3,688.3 L 735.2,688.1 L 735.2,687.7 L 735.1,687.4 L 735.0,687.1 L 734.9,686.8 L 734.8,686.6 L 734.6,686.3 L 734.5,686.1 L 734.3,685.9 L 734.1,685.6 L 733.9,685.4 L 733.7,685.2 L 733.4,684.9 L 733.2,684.7 L 733.0,684.5 L 732.8,684.3 L 732.6,684.2 L 732.3,684.1 L 732.1,683.9 L 731.8,683.8 L 731.5,683.7 L 731.2,683.6 L 730.9,683.5 L 729.5,683.0 L 728.8,682.8 L 728.4,682.7 L 728.1,682.6 L 727.9,682.4 L 727.6,682.3 L 727.3,682.1 L 727.0,681.9 L 726.7,681.7 L 726.4,681.4 L 726.1,681.2 L 725.9,681.0 L 725.8,680.9 L 725.6,680.8 L 725.5,680.7 L 725.4,680.6 L 725.4,680.5 L 725.3,680.5 L 725.2,680.4 L 725.1,680.2 L 725.0,680.1 L 724.9,679.9 L 724.8,679.7 L 724.7,679.5 L 722.9,674.1 L 721.7,670.3 L 698.6,598.7 L 686.1,559.5 L 684.3,553.8 L 674.7,523.9 L 663.2,488.6 L 662.8,487.5 L 654.9,462.7 L 651.7,452.9 L 651.2,451.6 L 650.9,450.8 L 650.6,450.2 L 650.3,449.5 L 650.0,449.1 L 649.8,448.7 L 649.5,448.3 L 649.3,448.0 L 649.0,447.6 L 648.7,447.2 L 648.4,446.9 L 648.0,446.5 L 647.6,446.1 L 647.3,445.8 L 647.0,445.5 L 646.0,444.6 L 642.7,441.8 L 641.3,440.5 L 641.2,440.4 L 641.0,440.2 L 640.7,440.0 L 640.6,439.8 L 640.5,439.7 L 640.4,439.6 L 640.3,439.4 L 640.2,439.3 L 640.1,439.2 L 640.0,439.1 L 640.0,439.0 L 639.9,438.9 L 639.9,438.8 L 639.8,438.7 L 639.8,438.6 L 639.7,438.5 L 639.6,438.3 L 639.6,438.2 L 639.5,438.0 L 639.5,437.9 L 639.4,437.7 L 639.4,437.6 L 639.4,437.5 L 639.3,437.3 L 639.3,437.1 L 639.3,436.9 L 639.3,436.8 L 639.2,436.6 L 639.2,436.5 L 639.2,436.3 L 639.2,436.2 L 639.2,436.1 L 639.2,435.9 L 639.2,435.8 L 639.2,435.7 L 639.2,435.5 L 639.2,435.4 L 639.2,435.3 L 639.2,435.2 L 639.2,435.1 L 639.2,434.9 L 639.2,434.8 L 639.3,434.7 L 639.3,434.6 L 639.3,434.5 L 639.3,434.4 L 639.3,434.3 L 639.4,434.1 L 639.4,434.0 L 639.4,433.9 L 639.4,433.8 L 639.5,433.6 L 639.5,433.5 L 639.5,433.4 L 639.6,433.3 L 639.6,433.2 L 639.7,433.1 L 639.7,433.0 L 639.8,432.9 L 639.8,432.8 L 639.9,432.7 L 639.9,432.7 L 640.0,432.6 L 640.0,432.5 L 640.1,432.4 L 640.1,432.4 L 640.2,432.3 L 640.2,432.2 L 641.4,430.8 L 641.5,430.7 L 641.6,430.5 L 641.8,430.3 L 641.9,430.2 L 641.9,430.1 L 642.0,429.9 L 642.2,429.6 L 642.3,429.4 L 642.4,429.1 L 642.5,428.9 L 642.6,428.6 L 642.7,428.3 L 642.7,428.1 L 642.8,428.0 L 642.8,427.8 L 642.8,427.6 L 642.8,427.5 L 642.8,427.3 L 642.8,427.2 L 642.8,427.0 L 642.8,426.8 L 642.8,426.6 L 642.8,426.3 L 642.7,425.9 L 642.7,425.4 L 642.6,424.8 L 635.7,403.4 L 628.2,379.8 L 627.7,378.3 L 625.8,372.7 L 617.4,346.6 L 615.0,338.9 L 610.2,324.2 L 603.5,303.4 L 585.2,246.5 L 584.0,243.1 L 582.8,240.2 L 581.7,237.9 L 580.6,235.6 L 579.8,233.9 L 578.9,232.3 L 578.0,230.6 L 576.8,228.3 L 573.9,223.7 L 568.7,215.5 L 559.4,200.7 L 555.0,193.8 L 553.9,192.3 L 552.8,191.0 L 551.9,189.8 L 550.8,188.5 L 549.8,187.3 L 549.1,186.5 L 548.1,185.6 L 547.8,185.2 L 547.4,184.9 L 547.2,184.6 L 546.6,184.1 L 545.3,182.9 L 544.3,182.0 L 543.4,181.1 L 542.5,180.4 L 541.6,179.7 L 539.8,178.4 L 539.0,177.8 L 538.8,177.7 L 537.8,177.0 L 536.2,175.9 L 534.7,174.9 L 533.4,174.1 L 531.9,173.2 L 530.5,172.2 L 529.0,171.3 L 527.2,170.3 L 525.4,169.3 L 524.3,168.8 L 523.5,168.4 L 522.8,168.2 L 522.2,168.1 L 521.6,168.0 L 521.0,168.0 L 520.3,168.1 L 519.6,168.3 L 519.0,168.5 L 504.7,173.8 L 503.2,174.4 L 502.2,174.8 L 501.0,175.4 L 500.0,175.9 L 498.7,176.5 L 498.0,176.9 L 497.6,177.1 L 497.2,177.3 L 496.7,177.6 L 496.0,178.0 L 495.4,178.4 L 494.3,179.2 L 493.3,180.0 L 491.0,181.7 L 487.2,184.6 L 486.8,184.9 L 486.6,185.1 L 486.3,185.3 L 486.1,185.5 L 485.9,185.7 L 485.7,185.9 L 485.5,186.1 L 485.2,186.4 L 485.0,186.6 L 484.8,186.8 L 484.7,187.0 L 484.5,187.2 L 484.3,187.5 L 484.1,187.8 L 484.0,188.1 L 483.9,188.4 L 483.7,188.7 L 483.6,189.0 L 483.5,189.3 L 483.3,189.7 L 483.2,190.0 L 483.1,190.4 L 483.0,190.8 L 482.9,191.1 L 482.8,191.6 L 482.7,191.9 L 482.6,192.3 L 482.6,192.7 L 482.5,193.1 L 482.5,193.4 L 482.5,193.7 L 482.4,194.1 L 482.4,194.5 L 482.4,194.9 L 482.4,196.3 L 482.4,196.9 L 482.4,197.3 L 482.4,197.6 L 482.4,197.8 L 482.3,198.0 L 482.3,198.2 L 482.3,198.5 L 482.2,198.8 L 482.1,199.1 L 481.9,199.5 L 481.8,200.0 L 481.6,200.4 L 481.4,200.8 L 481.2,201.3 L 481.0,201.7 L 480.8,202.1 L 480.5,202.5 L 480.3,202.9 L 480.0,203.2 L 479.8,203.5 L 479.5,203.9 L 479.2,204.2 L 478.8,204.5 L 478.4,204.9 L 478.0,205.2 L 477.7,205.4 L 477.2,205.7 L 476.9,206.0 L 476.5,206.2 L 476.2,206.3 L 475.9,206.5 L 475.6,206.6 L 475.2,206.7 L 474.8,206.8 L 474.4,206.9 L 473.9,206.9 L 473.3,207.0 L 472.3,207.1 L 470.7,207.2 L 469.3,207.2 L 466.3,207.4 L 462.1,207.5 L 460.0,207.6 L 458.5,207.8 L 457.9,207.9 L 457.3,208.0 L 456.6,208.1 L 456.0,208.3 L 455.5,208.4 L 455.0,208.6 L 454.3,208.9 L 453.8,209.1 L 453.1,209.4 L 452.2,209.7 L 450.6,210.4 L 449.1,211.2 L 448.9,211.3 L 448.7,211.4 L 448.5,211.6 L 448.2,211.7 L 447.8,212.0 L 447.5,212.2 L 447.2,212.4 L 446.8,212.8 L 446.1,213.4 L 445.5,213.9 L 444.8,214.6 L 444.2,215.2 L 443.6,215.9 L 442.9,216.9 L 440.9,219.8 L 439.0,222.6 L 438.5,223.3 L 438.0,223.9 L 437.6,224.4 L 437.0,225.1 L 436.4,225.7 L 435.8,226.3 L 435.0,226.9 L 434.3,227.5 L 433.3,228.2 L 432.0,229.1 L 430.0,230.3 L 428.0,231.6 L 415.3,239.7 L 415.1,239.8 L 415.1,239.9 L 415.0,240.0 L 414.9,240.0 L 414.8,240.1 L 414.8,240.2 L 414.7,240.3 L 414.6,240.3 L 414.5,240.4 L 414.5,240.5 L 414.4,240.6 L 414.3,240.7 L 414.3,240.8 L 414.2,240.9 L 414.1,241.0 L 414.1,241.1 L 414.0,241.3 L 414.0,241.4 L 413.9,241.5 L 413.9,241.6 L 413.9,241.7 L 413.8,241.8 L 413.8,241.9 L 413.8,242.0 L 413.8,242.1 L 413.8,242.2 L 413.8,242.3 L 413.8,242.4 L 413.8,242.5 L 413.8,242.7 L 413.8,242.8 L 413.8,243.0 L 413.8,243.1 L 413.8,243.2 L 413.8,243.3 L 413.9,243.5 L 414.8,247.7 L 414.9,248.0 L 414.9,248.1 L 415.0,248.3 L 415.0,248.4 L 415.0,248.5 L 415.0,248.6 L 415.0,248.7 L 415.0,248.9 L 415.0,249.0 L 415.0,249.1 L 415.0,249.2 L 415.0,249.3 L 414.9,249.4 L 414.9,249.5 L 414.9,249.6 L 414.9,249.7 L 414.8,249.8 L 414.8,249.9 L 414.7,250.0 L 414.7,250.1 L 414.6,250.2 L 414.6,250.3 L 414.5,250.4 L 414.4,250.5 L 414.3,250.6 L 414.2,250.7 L 414.1,250.8 L 414.0,250.9 L 413.9,251.0 L 413.8,251.1 L 413.6,251.2 L 398.1,260.7 L 396.6,261.7 L 396.0,262.1 L 395.3,262.7 L 395.0,263.0 L 394.6,263.4 L 394.2,263.7 L 393.7,264.2 L 393.1,264.9 L 392.5,265.6 L 392.0,266.4 L 391.6,267.0 L 391.2,267.6 L 390.9,268.1 L 390.6,268.6 L 390.3,269.1 L 390.0,269.8 L 389.6,270.5 L 388.9,272.2 L 388.1,274.4 L 387.2,276.5 L 386.3,279.0 L 385.5,281.6 L 384.8,284.1 L 384.2,286.1 L 383.7,288.1 L 383.4,289.4 L 382.5,293.9 L 382.0,296.3 L 381.7,298.4 L 381.4,300.0 L 381.2,301.7 L 381.0,303.1 L 380.9,304.4 L 380.8,305.5 L 380.6,307.3 L 380.5,309.2 L 379.7,332.0 L 379.3,343.8 L 379.1,351.8 L 378.8,360.0 L 378.6,367.5 L 378.5,370.4 L 378.3,373.1 L 378.2,374.8 L 378.2,375.8 L 378.2,376.0 L 378.2,376.1 L 378.2,376.2 L 378.3,376.4 L 378.3,376.5 L 378.4,376.7 L 378.5,376.8 L 378.5,376.9 L 378.6,377.1 L 378.8,377.2 L 378.9,377.3 L 379.0,377.4 L 379.1,377.5 L 379.2,377.6 L 379.4,377.6 L 379.5,377.7 L 379.6,377.8 L 379.8,377.8 L 380.0,377.9 L 381.2,378.2 L 381.3,378.2 L 381.4,378.3 L 381.5,378.3 L 381.6,378.4 L 381.7,378.4 L 381.9,378.5 L 382.0,378.6 L 382.1,378.7 L 382.2,378.8 L 382.2,378.9 L 382.3,379.0 L 382.4,379.1 L 382.5,379.2 L 382.6,379.3 L 382.7,379.4 L 382.8,379.5 L 382.8,379.7 L 382.9,379.8 L 382.9,379.9 L 383.0,380.0 L 383.0,380.2 L 383.1,380.3 L 384.9,390.1 L 384.9,390.3 L 385.0,390.7 L 385.1,391.0 L 385.1,391.2 L 385.2,391.4 L 385.3,391.5 L 385.3,391.7 L 385.4,391.9 L 385.5,392.1 L 385.6,392.3 L 385.7,392.5 L 385.9,392.7 L 386.0,392.9 L 386.1,393.1 L 386.2,393.2 L 386.4,393.4 L 386.5,393.5 L 386.6,393.6 L 386.7,393.7 L 386.8,393.8 L 387.0,393.9 L 387.1,394.0 L 387.2,394.1 L 387.3,394.2 L 387.5,394.3 L 387.6,394.4 L 387.8,394.5 L 387.9,394.5 L 388.1,394.6 L 389.4,395.2 L 389.5,395.2 L 389.7,395.3 L 389.9,395.4 L 390.1,395.5 L 390.2,395.5 L 390.3,395.6 L 390.4,395.6 L 390.5,395.7 L 390.6,395.8 L 390.6,395.9 L 390.8,396.0 L 390.9,396.1 L 391.0,396.2 L 391.1,396.4 L 391.2,396.5 L 391.3,396.6 L 391.4,396.8 L 391.5,396.9 L 391.6,397.1 L 391.7,397.3 L 391.8,397.4 L 391.9,397.6 L 392.0,397.8 L 392.1,398.1 L 392.2,398.4 L 392.4,398.8 L 392.5,399.2 L 394.0,404.7 L 397.9,419.2 L 399.9,426.6 L 405.7,447.7 L 407.2,453.5 L 407.6,455.2 L 407.8,455.9 L 407.9,456.7 L 408.0,457.3 L 408.1,457.8 L 408.1,458.6 L 408.1,459.3 L 408.0,460.8 L 408.0,461.8 L 407.9,462.8 L 407.7,463.7 L 407.6,464.4 L 406.9,469.3 L 406.7,470.8 L 406.6,471.6 L 406.5,472.4 L 406.5,473.3 L 406.5,474.4 L 406.5,475.0 L 406.5,475.6 L 406.6,476.3 L 406.8,477.4 L 408.2,486.3 Z" fill="none" stroke="#39404f" stroke-width="8.5" stroke-linejoin="round" stroke-linecap="round"/>
<path d="M 408.2,486.3 L 409.2,493.7 L 409.8,497.8 L 409.9,498.9 L 410.1,500.0 L 410.1,501.0 L 410.2,501.9 L 410.2,502.6 L 410.2,503.2 L 410.2,503.7 L 410.1,504.2 L 410.0,504.7 L 409.9,505.3 L 409.7,505.9 L 409.5,506.7 L 409.2,507.4 L 408.9,508.2 L 408.6,508.9 L 408.2,509.5 L 407.9,510.2 L 407.5,510.8 L 407.1,511.3 L 406.7,511.8 L 406.0,512.4 L 405.3,513.1 L 401.8,516.1 L 400.9,516.9 L 400.4,517.3 L 400.0,517.7 L 399.6,518.1 L 399.2,518.5 L 398.9,518.9 L 398.6,519.2 L 398.2,519.7 L 397.9,520.1 L 397.6,520.6 L 397.2,521.1 L 396.8,521.6 L 396.5,522.2 L 396.2,522.8 L 395.9,523.4 L 395.6,523.9 L 395.3,524.5 L 395.0,525.3 L 394.8,525.9 L 394.7,526.4 L 394.5,527.0 L 394.4,527.7 L 394.2,528.3 L 394.1,528.9 L 394.0,529.5 L 394.0,530.1 L 393.9,530.7 L 393.9,531.3 L 393.9,531.9 L 393.9,532.4 L 393.9,533.2 L 394.0,533.9 L 394.0,534.5 L 394.1,535.2 L 394.2,536.0 L 394.3,536.7 L 394.5,537.4 L 394.6,538.0 L 394.8,538.7 L 395.0,539.3 L 395.2,539.8 L 395.4,540.3 L 395.6,540.8 L 395.9,541.3 L 396.2,541.9 L 396.5,542.5 L 396.8,543.0 L 397.1,543.5 L 397.5,544.0 L 397.9,544.6 L 398.2,545.1 L 398.6,545.5 L 398.9,546.0 L 399.4,546.5 L 399.9,547.0 L 400.5,547.5 L 401.3,548.2 L 402.1,548.9 L 405.8,552.0 L 406.7,552.8 L 407.8,553.9 L 408.5,554.8 L 408.8,555.2 L 409.2,555.6 L 409.5,556.0 L 409.8,556.4 L 410.1,557.0 L 410.5,557.7 L 410.9,558.4 L 411.4,560.1 L 411.8,561.4 L 412.0,562.9 L 412.3,564.7 L 412.7,568.9 L 413.2,575.1 L 413.4,577.5 L 413.5,579.6 L 413.4,580.3 L 413.3,581.2 L 413.2,582.0 L 413.0,582.8 L 412.8,583.7 L 412.5,584.6 L 412.2,585.5 L 411.9,586.3 L 411.6,587.0 L 411.2,587.7 L 411.0,588.1 L 410.7,588.7 L 410.3,589.2 L 409.8,589.9 L 409.3,590.6 L 408.7,591.3 L 400.0,600.7 L 399.3,601.4 L 398.7,602.1 L 398.2,602.7 L 397.5,603.7 L 396.9,604.5 L 396.3,605.6 L 395.9,606.5 L 395.4,607.5 L 395.0,608.6 L 394.6,609.6 L 394.3,610.7 L 394.1,611.9 L 394.0,613.0 L 393.9,614.5 L 393.9,616.0 L 394.0,617.3 L 394.1,618.6 L 394.3,619.8 L 394.7,621.2 L 396.3,624.5 L 397.5,626.8 L 398.3,628.4 L 399.1,629.8 L 400.1,631.5 L 401.5,633.7 L 403.3,636.5 L 405.0,638.7 L 407.0,641.4 L 408.6,643.5 L 410.4,646.2 L 411.6,648.0 L 412.5,649.4 L 413.4,650.8 L 414.4,652.7 L 415.2,654.2 L 416.4,656.4 L 420.0,664.1 L 422.2,668.7 L 423.8,672.2 L 425.4,675.3 L 438.3,700.7 L 439.1,702.4 L 439.9,704.0 L 440.6,705.6 L 441.3,707.3 L 441.9,708.9 L 442.5,710.7 L 443.0,712.4 L 443.5,714.1 L 444.4,717.3 L 459.5,781.4 L 460.1,783.9 L 460.5,785.3 L 460.6,785.7 L 460.8,785.9 L 460.9,786.1 L 460.9,786.2 L 461.1,786.4 L 461.2,786.5 L 461.3,786.7 L 461.5,786.8 L 461.6,786.8 L 461.8,786.9 L 461.9,787.0 L 462.1,787.0 L 462.2,787.1 L 462.4,787.1 L 462.6,787.1 L 462.8,787.2 L 463.0,787.2 L 463.3,787.1 L 463.5,787.1 L 463.8,787.0 L 485.3,778.6 L 497.0,774.0 L 497.9,773.7 L 498.8,773.4 L 499.5,773.3 L 500.2,773.2 L 500.8,773.2 L 501.4,773.2 L 502.0,773.4 L 502.4,773.5 L 502.9,773.7 L 503.3,774.0 L 503.8,774.3 L 504.2,774.6 L 504.6,775.0 L 504.8,775.4 L 505.1,775.8 L 505.4,776.3 L 505.6,776.8 L 506.0,777.9 L 507.5,782.6 L 509.1,787.9 L 510.6,792.7 L 511.1,794.3 L 511.6,795.4 L 512.2,796.6 L 513.0,797.8 L 513.8,798.7 L 514.6,799.6 L 515.7,800.7 L 516.5,801.4 L 517.1,801.9 L 527.1,810.1 L 533.5,815.2 L 537.7,818.3 L 543.9,823.0 L 550.4,827.8 L 565.9,839.3 L 567.8,840.6 L 574.8,845.8 L 576.3,846.9 L 577.8,847.8 L 579.3,848.8 L 580.9,849.6 L 586.2,852.4 L 589.0,853.9 L 613.6,866.4 L 639.9,879.9 L 643.6,881.7 L 645.2,882.4 L 646.9,883.1 L 648.4,883.7 L 650.2,884.3 L 653.5,885.3 L 728.9,905.8 L 732.3,906.7 L 738.5,908.4 L 743.3,909.8 L 743.8,909.9 L 744.2,910.0 L 744.6,910.0 L 745.0,909.9 L 745.4,909.8 L 745.7,909.7 L 746.1,909.5 L 746.4,909.2 L 746.7,909.0 L 746.9,908.6 L 747.1,907.8 L 750.5,895.6 L 750.8,894.4 L 751.0,893.5 L 751.2,892.9 L 751.3,892.4 L 751.4,891.8 L 751.5,891.1 L 751.6,890.3 L 751.6,889.5 L 751.7,888.4 L 751.8,887.3 L 751.8,886.1 L 748.7,829.2 L 744.6,759.6 L 743.6,744.7 L 743.5,742.9 L 743.3,740.9 L 743.0,739.2 L 742.8,737.6 L 742.5,736.0 L 742.2,734.5 L 741.8,733.0 L 741.5,731.6 L 740.8,729.4 L 733.5,706.9 L 733.1,705.4 L 733.0,705.1 L 732.9,704.8 L 732.9,704.4 L 732.8,704.1 L 732.8,703.8 L 732.8,703.4 L 732.8,702.9 L 732.8,702.4 L 732.8,702.0 L 732.8,701.7 L 732.8,701.3 L 732.8,701.0 L 732.9,700.6 L 732.9,700.3 L 732.9,699.9 L 732.9,699.6 L 733.0,699.3 L 733.0,699.0 L 733.1,698.8 L 733.1,698.5 L 733.2,698.1 L 733.4,697.2 L 733.7,696.4 L 735.1,691.4 L 735.2,691.1 L 735.2,690.7 L 735.3,690.4 L 735.3,690.1 L 735.3,689.8 L 735.4,689.6 L 735.4,689.3 L 735.4,689.0 L 735.3,688.7 L 735.3,688.3 L 735.2,688.1 L 735.2,687.7 L 735.1,687.4 L 735.0,687.1 L 734.9,686.8 L 734.8,686.6 L 734.6,686.3 L 734.5,686.1 L 734.3,685.9 L 734.1,685.6 L 733.9,685.4 L 733.7,685.2 L 733.4,684.9 L 733.2,684.7 L 733.0,684.5 L 732.8,684.3 L 732.6,684.2 L 732.3,684.1 L 732.1,683.9 L 731.8,683.8 L 731.5,683.7 L 731.2,683.6 L 730.9,683.5 L 729.5,683.0 L 728.8,682.8 L 728.4,682.7 L 728.1,682.6 L 727.9,682.4 L 727.6,682.3 L 727.3,682.1 L 727.0,681.9 L 726.7,681.7 L 726.4,681.4 L 726.1,681.2 L 725.9,681.0 L 725.8,680.9 L 725.6,680.8 L 725.5,680.7 L 725.4,680.6 L 725.4,680.5 L 725.3,680.5 L 725.2,680.4 L 725.1,680.2 L 725.0,680.1 L 724.9,679.9 L 724.8,679.7 L 724.7,679.5 L 722.9,674.1 L 721.7,670.3 L 698.6,598.7 L 686.1,559.5 L 684.3,553.8 L 674.7,523.9 L 663.2,488.6 L 662.8,487.5 L 654.9,462.7 L 651.7,452.9 L 651.2,451.6 L 650.9,450.8 L 650.6,450.2 L 650.3,449.5 L 650.0,449.1 L 649.8,448.7 L 649.5,448.3 L 649.3,448.0 L 649.0,447.6 L 648.7,447.2 L 648.4,446.9 L 648.0,446.5 L 647.6,446.1 L 647.3,445.8 L 647.0,445.5 L 646.0,444.6 L 642.7,441.8 L 641.3,440.5 L 641.2,440.4 L 641.0,440.2 L 640.7,440.0 L 640.6,439.8 L 640.5,439.7 L 640.4,439.6 L 640.3,439.4 L 640.2,439.3 L 640.1,439.2 L 640.0,439.1 L 640.0,439.0 L 639.9,438.9 L 639.9,438.8 L 639.8,438.7 L 639.8,438.6 L 639.7,438.5 L 639.6,438.3 L 639.6,438.2 L 639.5,438.0 L 639.5,437.9 L 639.4,437.7 L 639.4,437.6 L 639.4,437.5 L 639.3,437.3 L 639.3,437.1 L 639.3,436.9 L 639.3,436.8 L 639.2,436.6 L 639.2,436.5 L 639.2,436.3 L 639.2,436.2 L 639.2,436.1 L 639.2,435.9 L 639.2,435.8 L 639.2,435.7 L 639.2,435.5 L 639.2,435.4 L 639.2,435.3 L 639.2,435.2 L 639.2,435.1 L 639.2,434.9 L 639.2,434.8 L 639.3,434.7 L 639.3,434.6 L 639.3,434.5 L 639.3,434.4 L 639.3,434.3 L 639.4,434.1 L 639.4,434.0 L 639.4,433.9 L 639.4,433.8 L 639.5,433.6 L 639.5,433.5 L 639.5,433.4 L 639.6,433.3 L 639.6,433.2 L 639.7,433.1 L 639.7,433.0 L 639.8,432.9 L 639.8,432.8 L 639.9,432.7 L 639.9,432.7 L 640.0,432.6 L 640.0,432.5 L 640.1,432.4 L 640.1,432.4 L 640.2,432.3 L 640.2,432.2 L 641.4,430.8 L 641.5,430.7 L 641.6,430.5 L 641.8,430.3 L 641.9,430.2 L 641.9,430.1 L 642.0,429.9 L 642.2,429.6 L 642.3,429.4 L 642.4,429.1 L 642.5,428.9 L 642.6,428.6 L 642.7,428.3 L 642.7,428.1 L 642.8,428.0 L 642.8,427.8 L 642.8,427.6 L 642.8,427.5 L 642.8,427.3 L 642.8,427.2 L 642.8,427.0 L 642.8,426.8 L 642.8,426.6 L 642.8,426.3 L 642.7,425.9 L 642.7,425.4 L 642.6,424.8 L 635.7,403.4 L 628.2,379.8 L 627.7,378.3 L 625.8,372.7 L 617.4,346.6 L 615.0,338.9 L 610.2,324.2 L 603.5,303.4 L 585.2,246.5 L 584.0,243.1 L 582.8,240.2 L 581.7,237.9 L 580.6,235.6 L 579.8,233.9 L 578.9,232.3 L 578.0,230.6 L 576.8,228.3 L 573.9,223.7 L 568.7,215.5 L 559.4,200.7 L 555.0,193.8 L 553.9,192.3 L 552.8,191.0 L 551.9,189.8 L 550.8,188.5 L 549.8,187.3 L 549.1,186.5 L 548.1,185.6 L 547.8,185.2 L 547.4,184.9 L 547.2,184.6 L 546.6,184.1 L 545.3,182.9 L 544.3,182.0 L 543.4,181.1 L 542.5,180.4 L 541.6,179.7 L 539.8,178.4 L 539.0,177.8 L 538.8,177.7 L 537.8,177.0 L 536.2,175.9 L 534.7,174.9 L 533.4,174.1 L 531.9,173.2 L 530.5,172.2 L 529.0,171.3 L 527.2,170.3 L 525.4,169.3 L 524.3,168.8 L 523.5,168.4 L 522.8,168.2 L 522.2,168.1 L 521.6,168.0 L 521.0,168.0 L 520.3,168.1 L 519.6,168.3 L 519.0,168.5 L 504.7,173.8 L 503.2,174.4 L 502.2,174.8 L 501.0,175.4 L 500.0,175.9 L 498.7,176.5 L 498.0,176.9 L 497.6,177.1 L 497.2,177.3 L 496.7,177.6 L 496.0,178.0 L 495.4,178.4 L 494.3,179.2 L 493.3,180.0 L 491.0,181.7 L 487.2,184.6 L 486.8,184.9 L 486.6,185.1 L 486.3,185.3 L 486.1,185.5 L 485.9,185.7 L 485.7,185.9 L 485.5,186.1 L 485.2,186.4 L 485.0,186.6 L 484.8,186.8 L 484.7,187.0 L 484.5,187.2 L 484.3,187.5 L 484.1,187.8 L 484.0,188.1 L 483.9,188.4 L 483.7,188.7 L 483.6,189.0 L 483.5,189.3 L 483.3,189.7 L 483.2,190.0 L 483.1,190.4 L 483.0,190.8 L 482.9,191.1 L 482.8,191.6 L 482.7,191.9 L 482.6,192.3 L 482.6,192.7 L 482.5,193.1 L 482.5,193.4 L 482.5,193.7 L 482.4,194.1 L 482.4,194.5 L 482.4,194.9 L 482.4,196.3 L 482.4,196.9 L 482.4,197.3 L 482.4,197.6 L 482.4,197.8 L 482.3,198.0 L 482.3,198.2 L 482.3,198.5 L 482.2,198.8 L 482.1,199.1 L 481.9,199.5 L 481.8,200.0 L 481.6,200.4 L 481.4,200.8 L 481.2,201.3 L 481.0,201.7 L 480.8,202.1 L 480.5,202.5 L 480.3,202.9 L 480.0,203.2 L 479.8,203.5 L 479.5,203.9 L 479.2,204.2 L 478.8,204.5 L 478.4,204.9 L 478.0,205.2 L 477.7,205.4 L 477.2,205.7 L 476.9,206.0 L 476.5,206.2 L 476.2,206.3 L 475.9,206.5 L 475.6,206.6 L 475.2,206.7 L 474.8,206.8 L 474.4,206.9 L 473.9,206.9 L 473.3,207.0 L 472.3,207.1 L 470.7,207.2 L 469.3,207.2 L 466.3,207.4 L 462.1,207.5 L 460.0,207.6 L 458.5,207.8 L 457.9,207.9 L 457.3,208.0 L 456.6,208.1 L 456.0,208.3 L 455.5,208.4 L 455.0,208.6 L 454.3,208.9 L 453.8,209.1 L 453.1,209.4 L 452.2,209.7 L 450.6,210.4 L 449.1,211.2 L 448.9,211.3 L 448.7,211.4 L 448.5,211.6 L 448.2,211.7 L 447.8,212.0 L 447.5,212.2 L 447.2,212.4 L 446.8,212.8 L 446.1,213.4 L 445.5,213.9 L 444.8,214.6 L 444.2,215.2 L 443.6,215.9 L 442.9,216.9 L 440.9,219.8 L 439.0,222.6 L 438.5,223.3 L 438.0,223.9 L 437.6,224.4 L 437.0,225.1 L 436.4,225.7 L 435.8,226.3 L 435.0,226.9 L 434.3,227.5 L 433.3,228.2 L 432.0,229.1 L 430.0,230.3 L 428.0,231.6 L 415.3,239.7 L 415.1,239.8 L 415.1,239.9 L 415.0,240.0 L 414.9,240.0 L 414.8,240.1 L 414.8,240.2 L 414.7,240.3 L 414.6,240.3 L 414.5,240.4 L 414.5,240.5 L 414.4,240.6 L 414.3,240.7 L 414.3,240.8 L 414.2,240.9 L 414.1,241.0 L 414.1,241.1 L 414.0,241.3 L 414.0,241.4 L 413.9,241.5 L 413.9,241.6 L 413.9,241.7 L 413.8,241.8 L 413.8,241.9 L 413.8,242.0 L 413.8,242.1 L 413.8,242.2 L 413.8,242.3 L 413.8,242.4 L 413.8,242.5 L 413.8,242.7 L 413.8,242.8 L 413.8,243.0 L 413.8,243.1 L 413.8,243.2 L 413.8,243.3 L 413.9,243.5 L 414.8,247.7 L 414.9,248.0 L 414.9,248.1 L 415.0,248.3 L 415.0,248.4 L 415.0,248.5 L 415.0,248.6 L 415.0,248.7 L 415.0,248.9 L 415.0,249.0 L 415.0,249.1 L 415.0,249.2 L 415.0,249.3 L 414.9,249.4 L 414.9,249.5 L 414.9,249.6 L 414.9,249.7 L 414.8,249.8 L 414.8,249.9 L 414.7,250.0 L 414.7,250.1 L 414.6,250.2 L 414.6,250.3 L 414.5,250.4 L 414.4,250.5 L 414.3,250.6 L 414.2,250.7 L 414.1,250.8 L 414.0,250.9 L 413.9,251.0 L 413.8,251.1 L 413.6,251.2 L 398.1,260.7 L 396.6,261.7 L 396.0,262.1 L 395.3,262.7 L 395.0,263.0 L 394.6,263.4 L 394.2,263.7 L 393.7,264.2 L 393.1,264.9 L 392.5,265.6 L 392.0,266.4 L 391.6,267.0 L 391.2,267.6 L 390.9,268.1 L 390.6,268.6 L 390.3,269.1 L 390.0,269.8 L 389.6,270.5 L 388.9,272.2 L 388.1,274.4 L 387.2,276.5 L 386.3,279.0 L 385.5,281.6 L 384.8,284.1 L 384.2,286.1 L 383.7,288.1 L 383.4,289.4 L 382.5,293.9 L 382.0,296.3 L 381.7,298.4 L 381.4,300.0 L 381.2,301.7 L 381.0,303.1 L 380.9,304.4 L 380.8,305.5 L 380.6,307.3 L 380.5,309.2 L 379.7,332.0 L 379.3,343.8 L 379.1,351.8 L 378.8,360.0 L 378.6,367.5 L 378.5,370.4 L 378.3,373.1 L 378.2,374.8 L 378.2,375.8 L 378.2,376.0 L 378.2,376.1 L 378.2,376.2 L 378.3,376.4 L 378.3,376.5 L 378.4,376.7 L 378.5,376.8 L 378.5,376.9 L 378.6,377.1 L 378.8,377.2 L 378.9,377.3 L 379.0,377.4 L 379.1,377.5 L 379.2,377.6 L 379.4,377.6 L 379.5,377.7 L 379.6,377.8 L 379.8,377.8 L 380.0,377.9 L 381.2,378.2 L 381.3,378.2 L 381.4,378.3 L 381.5,378.3 L 381.6,378.4 L 381.7,378.4 L 381.9,378.5 L 382.0,378.6 L 382.1,378.7 L 382.2,378.8 L 382.2,378.9 L 382.3,379.0 L 382.4,379.1 L 382.5,379.2 L 382.6,379.3 L 382.7,379.4 L 382.8,379.5 L 382.8,379.7 L 382.9,379.8 L 382.9,379.9 L 383.0,380.0 L 383.0,380.2 L 383.1,380.3 L 384.9,390.1 L 384.9,390.3 L 385.0,390.7 L 385.1,391.0 L 385.1,391.2 L 385.2,391.4 L 385.3,391.5 L 385.3,391.7 L 385.4,391.9 L 385.5,392.1 L 385.6,392.3 L 385.7,392.5 L 385.9,392.7 L 386.0,392.9 L 386.1,393.1 L 386.2,393.2 L 386.4,393.4 L 386.5,393.5 L 386.6,393.6 L 386.7,393.7 L 386.8,393.8 L 387.0,393.9 L 387.1,394.0 L 387.2,394.1 L 387.3,394.2 L 387.5,394.3 L 387.6,394.4 L 387.8,394.5 L 387.9,394.5 L 388.1,394.6 L 389.4,395.2 L 389.5,395.2 L 389.7,395.3 L 389.9,395.4 L 390.1,395.5 L 390.2,395.5 L 390.3,395.6 L 390.4,395.6 L 390.5,395.7 L 390.6,395.8 L 390.6,395.9 L 390.8,396.0 L 390.9,396.1 L 391.0,396.2 L 391.1,396.4 L 391.2,396.5 L 391.3,396.6 L 391.4,396.8 L 391.5,396.9 L 391.6,397.1 L 391.7,397.3 L 391.8,397.4 L 391.9,397.6 L 392.0,397.8 L 392.1,398.1 L 392.2,398.4 L 392.4,398.8 L 392.5,399.2 L 394.0,404.7 L 397.9,419.2 L 399.9,426.6 L 405.7,447.7 L 407.2,453.5 L 407.6,455.2 L 407.8,455.9 L 407.9,456.7 L 408.0,457.3 L 408.1,457.8 L 408.1,458.6 L 408.1,459.3 L 408.0,460.8 L 408.0,461.8 L 407.9,462.8 L 407.7,463.7 L 407.6,464.4 L 406.9,469.3 L 406.7,470.8 L 406.6,471.6 L 406.5,472.4 L 406.5,473.3 L 406.5,474.4 L 406.5,475.0 L 406.5,475.6 L 406.6,476.3 L 406.8,477.4 L 408.2,486.3 Z" fill="none" stroke="#e7edf8" stroke-width="2.6" stroke-linejoin="round" stroke-linecap="round"/>
<path d="M 408.2,486.3 L 409.2,493.7 L 409.8,497.8 L 409.9,498.9 L 410.1,500.0 L 410.1,501.0 L 410.2,501.9 L 410.2,502.6 L 410.2,503.2 L 410.2,503.7 L 410.1,504.2 L 410.0,504.7 L 409.9,505.3 L 409.7,505.9 L 409.5,506.7 L 409.2,507.4 L 408.9,508.2 L 408.6,508.9 L 408.2,509.5 L 407.9,510.2 L 407.5,510.8 L 407.1,511.3 L 406.7,511.8 L 406.0,512.4 L 405.3,513.1 L 401.8,516.1 L 400.9,516.9 L 400.4,517.3 L 400.0,517.7 L 399.6,518.1 L 399.2,518.5 L 398.9,518.9 L 398.6,519.2 L 398.2,519.7 L 397.9,520.1 L 397.6,520.6 L 397.2,521.1 L 396.8,521.6 L 396.5,522.2 L 396.2,522.8 L 395.9,523.4 L 395.6,523.9 L 395.3,524.5 L 395.0,525.3 L 394.8,525.9 L 394.7,526.4 L 394.5,527.0 L 394.4,527.7 L 394.2,528.3 L 394.1,528.9 L 394.0,529.5 L 394.0,530.1 L 393.9,530.7 L 393.9,531.3 L 393.9,531.9 L 393.9,532.4 L 393.9,533.2 L 394.0,533.9 L 394.0,534.5 L 394.1,535.2 L 394.2,536.0 L 394.3,536.7 L 394.5,537.4 L 394.6,538.0 L 394.8,538.7 L 395.0,539.3 L 395.2,539.8 L 395.4,540.3 L 395.6,540.8 L 395.9,541.3 L 396.2,541.9 L 396.5,542.5 L 396.8,543.0 L 397.1,543.5 L 397.5,544.0 L 397.9,544.6 L 398.2,545.1 L 398.6,545.5 L 398.9,546.0 L 399.4,546.5 L 399.9,547.0 L 400.5,547.5 L 401.3,548.2 L 402.1,548.9 L 405.8,552.0 L 406.7,552.8 L 407.8,553.9 L 408.5,554.8 L 408.8,555.2 L 409.2,555.6 L 409.5,556.0 L 409.8,556.4 L 410.1,557.0 L 410.5,557.7 L 410.9,558.4 L 411.4,560.1 L 411.8,561.4 L 412.0,562.9 L 412.3,564.7 L 412.7,568.9 L 413.2,575.1 L 413.4,577.5 L 413.5,579.6 L 413.4,580.3 L 413.3,581.2 L 413.2,582.0 L 413.0,582.8 L 412.8,583.7 L 412.5,584.6 L 412.2,585.5 L 411.9,586.3 L 411.6,587.0 L 411.2,587.7 L 411.0,588.1 L 410.7,588.7 L 410.3,589.2 L 409.8,589.9 L 409.3,590.6 L 408.7,591.3 L 400.0,600.7 L 399.3,601.4 L 398.7,602.1 L 398.2,602.7 L 397.5,603.7 L 396.9,604.5 L 396.3,605.6 L 395.9,606.5 L 395.4,607.5 L 395.0,608.6 L 394.6,609.6 L 394.3,610.7 L 394.1,611.9 L 394.0,613.0 L 393.9,614.5 L 393.9,616.0 L 394.0,617.3 L 394.1,618.6 L 394.3,619.8 L 394.7,621.2 L 396.3,624.5 L 397.5,626.8 L 398.3,628.4 L 399.1,629.8 L 400.1,631.5 L 401.5,633.7 L 403.3,636.5 L 405.0,638.7 L 407.0,641.4 L 408.6,643.5 L 410.4,646.2 L 411.6,648.0 L 412.5,649.4 L 413.4,650.8 L 414.4,652.7 L 415.2,654.2 L 416.4,656.4 L 420.0,664.1 L 422.2,668.7 L 423.8,672.2 L 425.4,675.3 L 438.3,700.7 L 439.1,702.4 L 439.9,704.0 L 440.6,705.6 L 441.3,707.3 L 441.9,708.9 L 442.5,710.7 L 443.0,712.4 L 443.5,714.1 L 444.4,717.3 L 459.5,781.4 L 460.1,783.9 L 460.5,785.3 L 460.6,785.7 L 460.8,785.9 L 460.9,786.1 L 460.9,786.2 L 461.1,786.4 L 461.2,786.5 L 461.3,786.7 L 461.5,786.8 L 461.6,786.8 L 461.8,786.9 L 461.9,787.0 L 462.1,787.0 L 462.2,787.1 L 462.4,787.1 L 462.6,787.1 L 462.8,787.2 L 463.0,787.2 L 463.3,787.1 L 463.5,787.1 L 463.8,787.0 L 485.3,778.6 L 497.0,774.0 L 497.9,773.7 L 498.8,773.4 L 499.5,773.3 L 500.2,773.2 L 500.8,773.2 L 501.4,773.2 L 502.0,773.4 L 502.4,773.5 L 502.9,773.7 L 503.3,774.0 L 503.8,774.3 L 504.2,774.6 L 504.6,775.0 L 504.8,775.4 L 505.1,775.8 L 505.4,776.3 L 505.6,776.8 L 506.0,777.9 L 507.5,782.6 L 509.1,787.9 L 510.6,792.7 L 511.1,794.3 L 511.6,795.4 L 512.2,796.6 L 513.0,797.8 L 513.8,798.7 L 514.6,799.6 L 515.7,800.7 L 516.5,801.4 L 517.1,801.9 L 527.1,810.1 L 533.5,815.2 L 537.7,818.3 L 543.9,823.0 L 550.4,827.8 L 565.9,839.3 L 567.8,840.6 L 574.8,845.8 L 576.3,846.9 L 577.8,847.8 L 579.3,848.8 L 580.9,849.6 L 586.2,852.4 L 589.0,853.9 L 613.6,866.4 L 639.9,879.9 L 643.6,881.7 L 645.2,882.4 L 646.9,883.1 L 648.4,883.7 L 650.2,884.3 L 653.5,885.3 L 728.9,905.8 L 732.3,906.7 L 738.5,908.4 L 743.3,909.8 L 743.8,909.9 L 744.2,910.0 L 744.6,910.0 L 745.0,909.9 L 745.4,909.8 L 745.7,909.7 L 746.1,909.5 L 746.4,909.2 L 746.7,909.0 L 746.9,908.6 L 747.1,907.8 L 750.5,895.6 L 750.8,894.4 L 751.0,893.5 L 751.2,892.9 L 751.3,892.4 L 751.4,891.8 L 751.5,891.1 L 751.6,890.3 L 751.6,889.5 L 751.7,888.4 L 751.8,887.3 L 751.8,886.1 L 748.7,829.2 L 744.6,759.6 L 743.6,744.7 L 743.5,742.9 L 743.3,740.9 L 743.0,739.2 L 742.8,737.6 L 742.5,736.0 L 742.2,734.5 L 741.8,733.0 L 741.5,731.6 L 740.8,729.4 L 733.5,706.9 L 733.1,705.4 L 733.0,705.1 L 732.9,704.8 L 732.9,704.4 L 732.8,704.1 L 732.8,703.8 L 732.8,703.4 L 732.8,702.9 L 732.8,702.4 L 732.8,702.0 L 732.8,701.7 L 732.8,701.3 L 732.8,701.0 L 732.9,700.6 L 732.9,700.3 L 732.9,699.9 L 732.9,699.6 L 733.0,699.3 L 733.0,699.0 L 733.1,698.8 L 733.1,698.5 L 733.2,698.1 L 733.4,697.2 L 733.7,696.4 L 735.1,691.4 L 735.2,691.1 L 735.2,690.7 L 735.3,690.4 L 735.3,690.1 L 735.3,689.8 L 735.4,689.6 L 735.4,689.3 L 735.4,689.0 L 735.3,688.7 L 735.3,688.3 L 735.2,688.1 L 735.2,687.7 L 735.1,687.4 L 735.0,687.1 L 734.9,686.8 L 734.8,686.6 L 734.6,686.3 L 734.5,686.1 L 734.3,685.9 L 734.1,685.6 L 733.9,685.4 L 733.7,685.2 L 733.4,684.9 L 733.2,684.7 L 733.0,684.5 L 732.8,684.3 L 732.6,684.2 L 732.3,684.1 L 732.1,683.9 L 731.8,683.8 L 731.5,683.7 L 731.2,683.6 L 730.9,683.5 L 729.5,683.0 L 728.8,682.8 L 728.4,682.7 L 728.1,682.6 L 727.9,682.4 L 727.6,682.3 L 727.3,682.1 L 727.0,681.9 L 726.7,681.7 L 726.4,681.4 L 726.1,681.2 L 725.9,681.0 L 725.8,680.9 L 725.6,680.8 L 725.5,680.7 L 725.4,680.6 L 725.4,680.5 L 725.3,680.5 L 725.2,680.4 L 725.1,680.2 L 725.0,680.1 L 724.9,679.9 L 724.8,679.7 L 724.7,679.5 L 722.9,674.1 L 721.7,670.3 L 698.6,598.7 L 686.1,559.5 L 684.3,553.8 L 674.7,523.9 L 663.2,488.6 L 662.8,487.5 L 654.9,462.7 L 651.7,452.9 L 651.2,451.6 L 650.9,450.8 L 650.6,450.2 L 650.3,449.5 L 650.0,449.1 L 649.8,448.7 L 649.5,448.3 L 649.3,448.0 L 649.0,447.6 L 648.7,447.2 L 648.4,446.9 L 648.0,446.5 L 647.6,446.1 L 647.3,445.8 L 647.0,445.5 L 646.0,444.6 L 642.7,441.8 L 641.3,440.5 L 641.2,440.4 L 641.0,440.2 L 640.7,440.0 L 640.6,439.8 L 640.5,439.7 L 640.4,439.6 L 640.3,439.4 L 640.2,439.3 L 640.1,439.2 L 640.0,439.1 L 640.0,439.0 L 639.9,438.9 L 639.9,438.8 L 639.8,438.7 L 639.8,438.6 L 639.7,438.5 L 639.6,438.3 L 639.6,438.2 L 639.5,438.0 L 639.5,437.9 L 639.4,437.7 L 639.4,437.6 L 639.4,437.5 L 639.3,437.3 L 639.3,437.1 L 639.3,436.9 L 639.3,436.8 L 639.2,436.6 L 639.2,436.5 L 639.2,436.3 L 639.2,436.2 L 639.2,436.1 L 639.2,435.9 L 639.2,435.8 L 639.2,435.7 L 639.2,435.5 L 639.2,435.4 L 639.2,435.3 L 639.2,435.2 L 639.2,435.1 L 639.2,434.9 L 639.2,434.8 L 639.3,434.7 L 639.3,434.6 L 639.3,434.5 L 639.3,434.4 L 639.3,434.3 L 639.4,434.1 L 639.4,434.0 L 639.4,433.9 L 639.4,433.8 L 639.5,433.6 L 639.5,433.5 L 639.5,433.4 L 639.6,433.3 L 639.6,433.2 L 639.7,433.1 L 639.7,433.0 L 639.8,432.9 L 639.8,432.8 L 639.9,432.7 L 639.9,432.7 L 640.0,432.6 L 640.0,432.5 L 640.1,432.4 L 640.1,432.4 L 640.2,432.3 L 640.2,432.2 L 641.4,430.8 L 641.5,430.7 L 641.6,430.5 L 641.8,430.3 L 641.9,430.2 L 641.9,430.1 L 642.0,429.9 L 642.2,429.6 L 642.3,429.4 L 642.4,429.1 L 642.5,428.9 L 642.6,428.6 L 642.7,428.3 L 642.7,428.1 L 642.8,428.0 L 642.8,427.8 L 642.8,427.6 L 642.8,427.5 L 642.8,427.3 L 642.8,427.2 L 642.8,427.0 L 642.8,426.8 L 642.8,426.6 L 642.8,426.3 L 642.7,425.9 L 642.7,425.4 L 642.6,424.8 L 635.7,403.4 L 628.2,379.8 L 627.7,378.3 L 625.8,372.7 L 617.4,346.6 L 615.0,338.9 L 610.2,324.2 L 603.5,303.4 L 585.2,246.5 L 584.0,243.1 L 582.8,240.2 L 581.7,237.9 L 580.6,235.6 L 579.8,233.9 L 578.9,232.3 L 578.0,230.6 L 576.8,228.3 L 573.9,223.7 L 568.7,215.5 L 559.4,200.7 L 555.0,193.8 L 553.9,192.3 L 552.8,191.0 L 551.9,189.8 L 550.8,188.5 L 549.8,187.3 L 549.1,186.5 L 548.1,185.6 L 547.8,185.2 L 547.4,184.9 L 547.2,184.6 L 546.6,184.1 L 545.3,182.9 L 544.3,182.0 L 543.4,181.1 L 542.5,180.4 L 541.6,179.7 L 539.8,178.4 L 539.0,177.8 L 538.8,177.7 L 537.8,177.0 L 536.2,175.9 L 534.7,174.9 L 533.4,174.1 L 531.9,173.2 L 530.5,172.2 L 529.0,171.3 L 527.2,170.3 L 525.4,169.3 L 524.3,168.8 L 523.5,168.4 L 522.8,168.2 L 522.2,168.1 L 521.6,168.0 L 521.0,168.0 L 520.3,168.1 L 519.6,168.3 L 519.0,168.5 L 504.7,173.8 L 503.2,174.4 L 502.2,174.8 L 501.0,175.4 L 500.0,175.9 L 498.7,176.5 L 498.0,176.9 L 497.6,177.1 L 497.2,177.3 L 496.7,177.6 L 496.0,178.0 L 495.4,178.4 L 494.3,179.2 L 493.3,180.0 L 491.0,181.7 L 487.2,184.6 L 486.8,184.9 L 486.6,185.1 L 486.3,185.3 L 486.1,185.5 L 485.9,185.7 L 485.7,185.9 L 485.5,186.1 L 485.2,186.4 L 485.0,186.6 L 484.8,186.8 L 484.7,187.0 L 484.5,187.2 L 484.3,187.5 L 484.1,187.8 L 484.0,188.1 L 483.9,188.4 L 483.7,188.7 L 483.6,189.0 L 483.5,189.3 L 483.3,189.7 L 483.2,190.0 L 483.1,190.4 L 483.0,190.8 L 482.9,191.1 L 482.8,191.6 L 482.7,191.9 L 482.6,192.3 L 482.6,192.7 L 482.5,193.1 L 482.5,193.4 L 482.5,193.7 L 482.4,194.1 L 482.4,194.5 L 482.4,194.9 L 482.4,196.3 L 482.4,196.9 L 482.4,197.3 L 482.4,197.6 L 482.4,197.8 L 482.3,198.0 L 482.3,198.2 L 482.3,198.5 L 482.2,198.8 L 482.1,199.1 L 481.9,199.5 L 481.8,200.0 L 481.6,200.4 L 481.4,200.8 L 481.2,201.3 L 481.0,201.7 L 480.8,202.1 L 480.5,202.5 L 480.3,202.9 L 480.0,203.2 L 479.8,203.5 L 479.5,203.9 L 479.2,204.2 L 478.8,204.5 L 478.4,204.9 L 478.0,205.2 L 477.7,205.4 L 477.2,205.7 L 476.9,206.0 L 476.5,206.2 L 476.2,206.3 L 475.9,206.5 L 475.6,206.6 L 475.2,206.7 L 474.8,206.8 L 474.4,206.9 L 473.9,206.9 L 473.3,207.0 L 472.3,207.1 L 470.7,207.2 L 469.3,207.2 L 466.3,207.4 L 462.1,207.5 L 460.0,207.6 L 458.5,207.8 L 457.9,207.9 L 457.3,208.0 L 456.6,208.1 L 456.0,208.3 L 455.5,208.4 L 455.0,208.6 L 454.3,208.9 L 453.8,209.1 L 453.1,209.4 L 452.2,209.7 L 450.6,210.4 L 449.1,211.2 L 448.9,211.3 L 448.7,211.4 L 448.5,211.6 L 448.2,211.7 L 447.8,212.0 L 447.5,212.2 L 447.2,212.4 L 446.8,212.8 L 446.1,213.4 L 445.5,213.9 L 444.8,214.6 L 444.2,215.2 L 443.6,215.9 L 442.9,216.9 L 440.9,219.8 L 439.0,222.6 L 438.5,223.3 L 438.0,223.9 L 437.6,224.4 L 437.0,225.1 L 436.4,225.7 L 435.8,226.3 L 435.0,226.9 L 434.3,227.5 L 433.3,228.2 L 432.0,229.1 L 430.0,230.3 L 428.0,231.6 L 415.3,239.7 L 415.1,239.8 L 415.1,239.9 L 415.0,240.0 L 414.9,240.0 L 414.8,240.1 L 414.8,240.2 L 414.7,240.3 L 414.6,240.3 L 414.5,240.4 L 414.5,240.5 L 414.4,240.6 L 414.3,240.7 L 414.3,240.8 L 414.2,240.9 L 414.1,241.0 L 414.1,241.1 L 414.0,241.3 L 414.0,241.4 L 413.9,241.5 L 413.9,241.6 L 413.9,241.7 L 413.8,241.8 L 413.8,241.9 L 413.8,242.0 L 413.8,242.1 L 413.8,242.2 L 413.8,242.3 L 413.8,242.4 L 413.8,242.5 L 413.8,242.7 L 413.8,242.8 L 413.8,243.0 L 413.8,243.1 L 413.8,243.2 L 413.8,243.3 L 413.9,243.5 L 414.8,247.7 L 414.9,248.0 L 414.9,248.1 L 415.0,248.3 L 415.0,248.4 L 415.0,248.5 L 415.0,248.6 L 415.0,248.7 L 415.0,248.9 L 415.0,249.0 L 415.0,249.1 L 415.0,249.2 L 415.0,249.3 L 414.9,249.4 L 414.9,249.5 L 414.9,249.6 L 414.9,249.7 L 414.8,249.8 L 414.8,249.9 L 414.7,250.0 L 414.7,250.1 L 414.6,250.2 L 414.6,250.3 L 414.5,250.4 L 414.4,250.5 L 414.3,250.6 L 414.2,250.7 L 414.1,250.8 L 414.0,250.9 L 413.9,251.0 L 413.8,251.1 L 413.6,251.2 L 398.1,260.7 L 396.6,261.7 L 396.0,262.1 L 395.3,262.7 L 395.0,263.0 L 394.6,263.4 L 394.2,263.7 L 393.7,264.2 L 393.1,264.9 L 392.5,265.6 L 392.0,266.4 L 391.6,267.0 L 391.2,267.6 L 390.9,268.1 L 390.6,268.6 L 390.3,269.1 L 390.0,269.8 L 389.6,270.5 L 388.9,272.2 L 388.1,274.4 L 387.2,276.5 L 386.3,279.0 L 385.5,281.6 L 384.8,284.1 L 384.2,286.1 L 383.7,288.1 L 383.4,289.4 L 382.5,293.9 L 382.0,296.3 L 381.7,298.4 L 381.4,300.0 L 381.2,301.7 L 381.0,303.1 L 380.9,304.4 L 380.8,305.5 L 380.6,307.3 L 380.5,309.2 L 379.7,332.0 L 379.3,343.8 L 379.1,351.8 L 378.8,360.0 L 378.6,367.5 L 378.5,370.4 L 378.3,373.1 L 378.2,374.8 L 378.2,375.8 L 378.2,376.0 L 378.2,376.1 L 378.2,376.2 L 378.3,376.4 L 378.3,376.5 L 378.4,376.7 L 378.5,376.8 L 378.5,376.9 L 378.6,377.1 L 378.8,377.2 L 378.9,377.3 L 379.0,377.4 L 379.1,377.5 L 379.2,377.6 L 379.4,377.6 L 379.5,377.7 L 379.6,377.8 L 379.8,377.8 L 380.0,377.9 L 381.2,378.2 L 381.3,378.2 L 381.4,378.3 L 381.5,378.3 L 381.6,378.4 L 381.7,378.4 L 381.9,378.5 L 382.0,378.6 L 382.1,378.7 L 382.2,378.8 L 382.2,378.9 L 382.3,379.0 L 382.4,379.1 L 382.5,379.2 L 382.6,379.3 L 382.7,379.4 L 382.8,379.5 L 382.8,379.7 L 382.9,379.8 L 382.9,379.9 L 383.0,380.0 L 383.0,380.2 L 383.1,380.3 L 384.9,390.1 L 384.9,390.3 L 385.0,390.7 L 385.1,391.0 L 385.1,391.2 L 385.2,391.4 L 385.3,391.5 L 385.3,391.7 L 385.4,391.9 L 385.5,392.1 L 385.6,392.3 L 385.7,392.5 L 385.9,392.7 L 386.0,392.9 L 386.1,393.1 L 386.2,393.2 L 386.4,393.4 L 386.5,393.5 L 386.6,393.6 L 386.7,393.7 L 386.8,393.8 L 387.0,393.9 L 387.1,394.0 L 387.2,394.1 L 387.3,394.2 L 387.5,394.3 L 387.6,394.4 L 387.8,394.5 L 387.9,394.5 L 388.1,394.6 L 389.4,395.2 L 389.5,395.2 L 389.7,395.3 L 389.9,395.4 L 390.1,395.5 L 390.2,395.5 L 390.3,395.6 L 390.4,395.6 L 390.5,395.7 L 390.6,395.8 L 390.6,395.9 L 390.8,396.0 L 390.9,396.1 L 391.0,396.2 L 391.1,396.4 L 391.2,396.5 L 391.3,396.6 L 391.4,396.8 L 391.5,396.9 L 391.6,397.1 L 391.7,397.3 L 391.8,397.4 L 391.9,397.6 L 392.0,397.8 L 392.1,398.1 L 392.2,398.4 L 392.4,398.8 L 392.5,399.2 L 394.0,404.7 L 397.9,419.2 L 399.9,426.6 L 405.7,447.7 L 407.2,453.5 L 407.6,455.2 L 407.8,455.9 L 407.9,456.7 L 408.0,457.3 L 408.1,457.8 L 408.1,458.6 L 408.1,459.3 L 408.0,460.8 L 408.0,461.8 L 407.9,462.8 L 407.7,463.7 L 407.6,464.4 L 406.9,469.3 L 406.7,470.8 L 406.6,471.6 L 406.5,472.4 L 406.5,473.3 L 406.5,474.4 L 406.5,475.0 L 406.5,475.6 L 406.6,476.3 L 406.8,477.4 L 408.2,486.3 Z" fill="none" stroke="#e6007e" stroke-opacity="0.55" stroke-width="1.2" stroke-linejoin="round" filter="url(#glow)"/>
<circle cx="379.6" cy="335.7" r="13" fill="none" stroke="#ffffff" stroke-width="3"/>
<rect x="375.6" y="313.7" width="8" height="18" fill="#ffffff"/>
<circle cx="414.4" cy="245.2" r="7" fill="#e6007e" stroke="#0a0c12" stroke-width="2.5" filter="url(#glow)"/>
<text x="414.4" y="248.6" font-size="9" font-weight="700" fill="#0a0c12" text-anchor="middle">1</text>
<circle cx="414.4" cy="245.2" r="7" fill="#e6007e" stroke="#0a0c12" stroke-width="2.5" filter="url(#glow)"/>
<text x="414.4" y="248.6" font-size="9" font-weight="700" fill="#0a0c12" text-anchor="middle">2</text>
<circle cx="425.3" cy="233.3" r="7" fill="#e6007e" stroke="#0a0c12" stroke-width="2.5" filter="url(#glow)"/>
<text x="425.3" y="236.7" font-size="9" font-weight="700" fill="#0a0c12" text-anchor="middle">3</text>
<circle cx="481.4" cy="196.1" r="7" fill="#e6007e" stroke="#0a0c12" stroke-width="2.5" filter="url(#glow)"/>
<text x="481.4" y="199.5" font-size="9" font-weight="700" fill="#0a0c12" text-anchor="middle">4</text>
<circle cx="488.7" cy="183.5" r="7" fill="#e6007e" stroke="#0a0c12" stroke-width="2.5" filter="url(#glow)"/>
<text x="488.7" y="186.9" font-size="9" font-weight="700" fill="#0a0c12" text-anchor="middle">5</text>
<circle cx="517.8" cy="173.7" r="7" fill="#e6007e" stroke="#0a0c12" stroke-width="2.5" filter="url(#glow)"/>
<text x="517.8" y="177.1" font-size="9" font-weight="700" fill="#0a0c12" text-anchor="middle">6</text>
<circle cx="641.6" cy="438.0" r="7" fill="#e6007e" stroke="#0a0c12" stroke-width="2.5" filter="url(#glow)"/>
<text x="641.6" y="441.4" font-size="9" font-weight="700" fill="#0a0c12" text-anchor="middle">7</text>
<circle cx="731.5" cy="689.6" r="7" fill="#e6007e" stroke="#0a0c12" stroke-width="2.5" filter="url(#glow)"/>
<text x="731.5" y="693.0" font-size="9" font-weight="700" fill="#0a0c12" text-anchor="middle">8</text>
<circle cx="748.0" cy="900.6" r="7" fill="#e6007e" stroke="#0a0c12" stroke-width="2.5" filter="url(#glow)"/>
<text x="748.0" y="904.0" font-size="9" font-weight="700" fill="#0a0c12" text-anchor="middle">9</text>
<circle cx="520.3" cy="804.5" r="7" fill="#e6007e" stroke="#0a0c12" stroke-width="2.5" filter="url(#glow)"/>
<text x="520.3" y="807.9" font-size="9" font-weight="700" fill="#0a0c12" text-anchor="middle">10</text>
<circle cx="499.3" cy="773.3" r="7" fill="#e6007e" stroke="#0a0c12" stroke-width="2.5" filter="url(#glow)"/>
<text x="499.3" y="776.7" font-size="9" font-weight="700" fill="#0a0c12" text-anchor="middle">11</text>
<circle cx="461.9" cy="786.7" r="7" fill="#e6007e" stroke="#0a0c12" stroke-width="2.5" filter="url(#glow)"/>
<text x="461.9" y="790.1" font-size="9" font-weight="700" fill="#0a0c12" text-anchor="middle">12</text>
<circle cx="416.0" cy="655.8" r="7" fill="#e6007e" stroke="#0a0c12" stroke-width="2.5" filter="url(#glow)"/>
<text x="416.0" y="659.2" font-size="9" font-weight="700" fill="#0a0c12" text-anchor="middle">13</text>
<circle cx="395.8" cy="609.8" r="7" fill="#e6007e" stroke="#0a0c12" stroke-width="2.5" filter="url(#glow)"/>
<text x="395.8" y="613.2" font-size="9" font-weight="700" fill="#0a0c12" text-anchor="middle">14</text>
<circle cx="410.7" cy="571.9" r="7" fill="#e6007e" stroke="#0a0c12" stroke-width="2.5" filter="url(#glow)"/>
<text x="410.7" y="575.3" font-size="9" font-weight="700" fill="#0a0c12" text-anchor="middle">15</text>
<circle cx="396.6" cy="532.2" r="7" fill="#e6007e" stroke="#0a0c12" stroke-width="2.5" filter="url(#glow)"/>
<text x="396.6" y="535.6" font-size="9" font-weight="700" fill="#0a0c12" text-anchor="middle">16</text>
<circle cx="408.6" cy="505.2" r="7" fill="#e6007e" stroke="#0a0c12" stroke-width="2.5" filter="url(#glow)"/>
<text x="408.6" y="508.6" font-size="9" font-weight="700" fill="#0a0c12" text-anchor="middle">17</text>
<circle cx="388.7" cy="394.8" r="7" fill="#e6007e" stroke="#0a0c12" stroke-width="2.5" filter="url(#glow)"/>
<text x="388.7" y="398.2" font-size="9" font-weight="700" fill="#0a0c12" text-anchor="middle">18</text>
<circle cx="378.8" cy="377.2" r="7" fill="#e6007e" stroke="#0a0c12" stroke-width="2.5" filter="url(#glow)"/>
<text x="378.8" y="380.6" font-size="9" font-weight="700" fill="#0a0c12" text-anchor="middle">19</text>
<circle cx="378.9" cy="377.1" r="7" fill="#e6007e" stroke="#0a0c12" stroke-width="2.5" filter="url(#glow)"/>
<text x="378.9" y="380.5" font-size="9" font-weight="700" fill="#0a0c12" text-anchor="middle">20</text>
<circle cx="378.9" cy="356.5" r="7" fill="#e6007e" stroke="#0a0c12" stroke-width="2.5" filter="url(#glow)"/>
<text x="378.9" y="359.9" font-size="9" font-weight="700" fill="#0a0c12" text-anchor="middle">21</text>
<line x1="414.4" y1="245.2" x2="394.0" y2="232.0" stroke="#e6007e" stroke-opacity="0.45" stroke-width="1.3"/>
<text x="386.0" y="236.0" font-size="15" font-weight="600" fill="#eef2fb" text-anchor="end">Dunlop Curve</text>
<line x1="425.3" y1="233.3" x2="407.8" y2="200.0" stroke="#e6007e" stroke-opacity="0.45" stroke-width="1.3"/>
<text x="399.8" y="204.0" font-size="15" font-weight="600" fill="#eef2fb" text-anchor="end">Dunlop Chicane</text>
<line x1="488.7" y1="183.5" x2="485.4" y2="168.0" stroke="#e6007e" stroke-opacity="0.45" stroke-width="1.3"/>
<text x="477.4" y="172.0" font-size="15" font-weight="600" fill="#eef2fb" text-anchor="end">Esses de la Forêt</text>
<line x1="517.8" y1="173.7" x2="520.0" y2="121.8" stroke="#e6007e" stroke-opacity="0.45" stroke-width="1.3"/>
<text x="528.0" y="125.8" font-size="15" font-weight="600" fill="#eef2fb" text-anchor="start">Tertre Rouge</text>
<line x1="731.5" y1="689.6" x2="767.9" y2="726.8" stroke="#e6007e" stroke-opacity="0.45" stroke-width="1.3"/>
<text x="775.9" y="730.8" font-size="15" font-weight="600" fill="#eef2fb" text-anchor="start">Mulsanne Straight Chicanes</text>
<line x1="748.0" y1="900.6" x2="773.0" y2="930.0" stroke="#e6007e" stroke-opacity="0.45" stroke-width="1.3"/>
<text x="781.0" y="934.0" font-size="15" font-weight="600" fill="#eef2fb" text-anchor="start">Mulsanne</text>
<line x1="499.3" y1="773.3" x2="498.2" y2="825.3" stroke="#e6007e" stroke-opacity="0.45" stroke-width="1.3"/>
<text x="490.2" y="829.3" font-size="15" font-weight="600" fill="#eef2fb" text-anchor="end">Indianapolis</text>
<line x1="461.9" y1="786.7" x2="455.0" y2="857.3" stroke="#e6007e" stroke-opacity="0.45" stroke-width="1.3"/>
<text x="447.0" y="861.3" font-size="15" font-weight="600" fill="#eef2fb" text-anchor="end">Arnage</text>
<line x1="396.6" y1="532.2" x2="353.3" y2="561.0" stroke="#e6007e" stroke-opacity="0.45" stroke-width="1.3"/>
<text x="345.3" y="565.0" font-size="15" font-weight="600" fill="#eef2fb" text-anchor="end">Porsche Curves</text>
<line x1="378.9" y1="377.1" x2="335.3" y2="348.8" stroke="#e6007e" stroke-opacity="0.45" stroke-width="1.3"/>
<text x="327.3" y="352.8" font-size="15" font-weight="600" fill="#eef2fb" text-anchor="end">Ford Chicanes</text>
<text x="90" y="64" font-size="20" letter-spacing="5" fill="#e6007e" font-weight="700">TRACK ATLAS</text>
<text x="90" y="108" font-size="42" font-weight="800" fill="#ffffff">CIRCUIT DE LA SARTHE</text>
<text x="90" y="136" font-size="16" fill="#9aa6bd">La Sarthe, Circuit des 24 Heures du Mans</text>
<rect x="1170" y="200" width="360" height="710" rx="16" fill="#ffffff" fill-opacity="0.04" stroke="#e6007e" stroke-opacity="0.5"/>
<text x="1198" y="250" font-size="13" letter-spacing="2" fill="#8794ab">LAYOUT</text>
<text x="1198" y="276" font-size="22" font-weight="700" fill="#eef2fb">Circuit des 24 Heures</text>
<text x="1198" y="320" font-size="13" letter-spacing="2" fill="#8794ab">LENGTH</text>
<text x="1198" y="346" font-size="22" font-weight="700" fill="#eef2fb">13.626 km</text>
<text x="1198" y="390" font-size="13" letter-spacing="2" fill="#8794ab">CORNERS</text>
<text x="1198" y="416" font-size="22" font-weight="700" fill="#eef2fb">21</text>
<text x="1198" y="460" font-size="13" letter-spacing="2" fill="#8794ab">NAMED CORNERS</text>
<text x="1198" y="486" font-size="22" font-weight="700" fill="#eef2fb">20</text>
<text x="1198" y="530" font-size="13" letter-spacing="2" fill="#8794ab">DIRECTION</text>
<text x="1198" y="556" font-size="22" font-weight="700" fill="#eef2fb">Clockwise</text>
<text x="1198" y="600" font-size="13" letter-spacing="2" fill="#8794ab">SECTORS</text>
<text x="1198" y="626" font-size="22" font-weight="700" fill="#eef2fb">3</text>
<text x="1198" y="670" font-size="13" letter-spacing="2" fill="#8794ab">COUNTRY</text>
<text x="1198" y="696" font-size="22" font-weight="700" fill="#eef2fb">France</text>
<text x="1198" y="740" font-size="13" letter-spacing="2" fill="#8794ab">LOCATION</text>
<text x="1198" y="766" font-size="22" font-weight="700" fill="#eef2fb">Le Mans</text>
<text x="1198" y="810" font-size="13" letter-spacing="2" fill="#8794ab">COMPLEXES</text>
<rect x="1198" y="816" width="126" height="24" rx="12" fill="#e6007e" fill-opacity="0.16" stroke="#e6007e" stroke-opacity="0.5"/>
<text x="1261" y="833" font-size="12" fill="#eef2fb" text-anchor="middle">Dunlop Chicane</text>
<rect x="1334" y="816" width="150" height="24" rx="12" fill="#e6007e" fill-opacity="0.16" stroke="#e6007e" stroke-opacity="0.5"/>
<text x="1409" y="833" font-size="12" fill="#eef2fb" text-anchor="middle">Esses de la Forêt</text>
<rect x="1198" y="850" width="222" height="24" rx="12" fill="#e6007e" fill-opacity="0.16" stroke="#e6007e" stroke-opacity="0.5"/>
<text x="1309" y="867" font-size="12" fill="#eef2fb" text-anchor="middle">Mulsanne Straight Chicanes</text>
<rect x="1198" y="884" width="110" height="24" rx="12" fill="#e6007e" fill-opacity="0.16" stroke="#e6007e" stroke-opacity="0.5"/>
<text x="1253" y="901" font-size="12" fill="#eef2fb" text-anchor="middle">Indianapolis</text>
<rect x="1318" y="884" width="126" height="24" rx="12" fill="#e6007e" fill-opacity="0.16" stroke="#e6007e" stroke-opacity="0.5"/>
<text x="1381" y="901" font-size="12" fill="#eef2fb" text-anchor="middle">Porsche Curves</text>
<rect x="1198" y="918" width="118" height="24" rx="12" fill="#e6007e" fill-opacity="0.16" stroke="#e6007e" stroke-opacity="0.5"/>
<text x="1257" y="935" font-size="12" fill="#eef2fb" text-anchor="middle">Ford Chicanes</text>
<text x="90" y="966" font-size="12" fill="#566177">Geometry © OpenStreetMap contributors (ODbL) · corner data: Lovely-Sim-Racing + curated · track-atlas</text>
<text x="90" y="942" font-size="12" fill="#8794ab">⚑ start / finish</text>
</svg>