<svg xmlns="http://www.w3.org/2000/svg" width="1600" height="1000" viewBox="0 0 1600 1000" font-family="Helvetica, Arial, sans-serif">
<defs>
      <radialGradient id="bg" cx="38%" cy="34%" r="85%">
        <stop offset="0%" stop-color="#1b2030"/>
        <stop offset="55%" stop-color="#12151f"/>
        <stop offset="100%" stop-color="#0a0c12"/>
      </radialGradient>
      <linearGradient id="accent" x1="0" y1="0" x2="1" y2="1">
        <stop offset="0%" stop-color="#ff5a36"/>
        <stop offset="100%" stop-color="#ffffff"/>
      </linearGradient>
      <filter id="glow" x="-40%" y="-40%" width="180%" height="180%">
        <feGaussianBlur stdDeviation="6" result="b"/>
        <feMerge><feMergeNode in="b"/><feMergeNode in="SourceGraphic"/></feMerge>
      </filter>
    </defs>
<rect width="1600" height="1000" fill="url(#bg)"/>
<path d="M 273.1,516.9 C 243.3,602.8 295.9,687.8 306.7,683.5 C 317.4,679.1 299.7,515.5 337.8,490.9 C 376.0,466.3 505.4,466.1 535.4,536.0 C 565.4,605.8 470.2,855.5 518.0,910.0 C 565.9,964.5 766.1,933.4 822.6,862.9 C 879.1,792.4 859.7,577.0 856.9,487.0 C 854.1,397.0 846.6,345.0 805.9,323.0 C 765.2,301.0 666.0,380.9 612.7,355.0 C 559.3,329.2 542.3,141.0 485.7,168.0 C 429.1,195.0 303.0,431.0 273.1,516.9 Z" fill="none" stroke="#000000" stroke-opacity="0.5" stroke-width="13" stroke-linejoin="round" stroke-linecap="round"/>
<path d="M 273.1,516.9 C 243.3,602.8 295.9,687.8 306.7,683.5 C 317.4,679.1 299.7,515.5 337.8,490.9 C 376.0,466.3 505.4,466.1 535.4,536.0 C 565.4,605.8 470.2,855.5 518.0,910.0 C 565.9,964.5 766.1,933.4 822.6,862.9 C 879.1,792.4 859.7,577.0 856.9,487.0 C 854.1,397.0 846.6,345.0 805.9,323.0 C 765.2,301.0 666.0,380.9 612.7,355.0 C 559.3,329.2 542.3,141.0 485.7,168.0 C 429.1,195.0 303.0,431.0 273.1,516.9 Z" fill="none" stroke="#39404f" stroke-width="8.5" stroke-linejoin="round" stroke-linecap="round"/>
<path d="M 273.1,516.9 C 243.3,602.8 295.9,687.8 306.7,683.5 C 317.4,679.1 299.7,515.5 337.8,490.9 C 376.0,466.3 505.4,466.1 535.4,536.0 C 565.4,605.8 470.2,855.5 518.0,910.0 C 565.9,964.5 766.1,933.4 822.6,862.9 C 879.1,792.4 859.7,577.0 856.9,487.0 C 854.1,397.0 846.6,345.0 805.9,323.0 C 765.2,301.0 666.0,380.9 612.7,355.0 C 559.3,329.2 542.3,141.0 485.7,168.0 C 429.1,195.0 303.0,431.0 273.1,516.9 Z" fill="none" stroke="#e7edf8" stroke-width="2.6" stroke-linejoin="round" stroke-linecap="round"/>
<path d="M 273.1,516.9 C 243.3,602.8 295.9,687.8 306.7,683.5 C 317.4,679.1 299.7,515.5 337.8,490.9 C 376.0,466.3 505.4,466.1 535.4,536.0 C 565.4,605.8 470.2,855.5 518.0,910.0 C 565.9,964.5 766.1,933.4 822.6,862.9 C 879.1,792.4 859.7,577.0 856.9,487.0 C 854.1,397.0 846.6,345.0 805.9,323.0 C 765.2,301.0 666.0,380.9 612.7,355.0 C 559.3,329.2 542.3,141.0 485.7,168.0 C 429.1,195.0 303.0,431.0 273.1,516.9 Z" fill="none" stroke="#ff5a36" stroke-opacity="0.55" stroke-width="1.2" stroke-linejoin="round" filter="url(#glow)"/>
<circle cx="346.4" cy="359.5" r="13" fill="none" stroke="#ffffff" stroke-width="3"/>
<rect x="342.4" y="337.5" width="8" height="18" fill="#ffffff"/>
<circle cx="273.1" cy="516.9" r="7" fill="#ff5a36" stroke="#0a0c12" stroke-width="2.5" filter="url(#glow)"/>
<text x="273.1" y="520.3" font-size="9" font-weight="700" fill="#0a0c12" text-anchor="middle">1</text>
<circle cx="306.7" cy="683.5" r="7" fill="#ff5a36" stroke="#0a0c12" stroke-width="2.5" filter="url(#glow)"/>
<text x="306.7" y="686.9" font-size="9" font-weight="700" fill="#0a0c12" text-anchor="middle">2</text>
<circle cx="337.8" cy="490.9" r="7" fill="#ff5a36" stroke="#0a0c12" stroke-width="2.5" filter="url(#glow)"/>
<text x="337.8" y="494.3" font-size="9" font-weight="700" fill="#0a0c12" text-anchor="middle">3</text>
<circle cx="535.4" cy="536.0" r="7" fill="#ff5a36" stroke="#0a0c12" stroke-width="2.5" filter="url(#glow)"/>
<text x="535.4" y="539.4" font-size="9" font-weight="700" fill="#0a0c12" text-anchor="middle">4</text>
<circle cx="518.0" cy="910.0" r="7" fill="#ff5a36" stroke="#0a0c12" stroke-width="2.5" filter="url(#glow)"/>
<text x="518.0" y="913.4" font-size="9" font-weight="700" fill="#0a0c12" text-anchor="middle">5</text>
<circle cx="822.6" cy="862.9" r="7" fill="#ff5a36" stroke="#0a0c12" stroke-width="2.5" filter="url(#glow)"/>
<text x="822.6" y="866.3" font-size="9" font-weight="700" fill="#0a0c12" text-anchor="middle">6</text>
<circle cx="856.9" cy="487.0" r="7" fill="#ff5a36" stroke="#0a0c12" stroke-width="2.5" filter="url(#glow)"/>
<text x="856.9" y="490.4" font-size="9" font-weight="700" fill="#0a0c12" text-anchor="middle">7</text>
<circle cx="805.9" cy="323.0" r="7" fill="#ff5a36" stroke="#0a0c12" stroke-width="2.5" filter="url(#glow)"/>
<text x="805.9" y="326.4" font-size="9" font-weight="700" fill="#0a0c12" text-anchor="middle">8</text>
<circle cx="612.7" cy="355.0" r="7" fill="#ff5a36" stroke="#0a0c12" stroke-width="2.5" filter="url(#glow)"/>
<text x="612.7" y="358.4" font-size="9" font-weight="700" fill="#0a0c12" text-anchor="middle">9</text>
<circle cx="485.7" cy="168.0" r="7" fill="#ff5a36" stroke="#0a0c12" stroke-width="2.5" filter="url(#glow)"/>
<text x="485.7" y="171.4" font-size="9" font-weight="700" fill="#0a0c12" text-anchor="middle">10</text>
<line x1="306.7" y1="683.5" x2="262.1" y2="710.3" stroke="#ff5a36" stroke-opacity="0.45" stroke-width="1.3"/>
<text x="254.1" y="714.3" font-size="15" font-weight="600" fill="#eef2fb" text-anchor="end">Andretti Hairpin</text>
<line x1="856.9" y1="487.0" x2="908.3" y2="479.1" stroke="#ff5a36" stroke-opacity="0.45" stroke-width="1.3"/>
<text x="916.3" y="483.1" font-size="15" font-weight="600" fill="#eef2fb" text-anchor="start">The Corkscrew</text>
<line x1="805.9" y1="323.0" x2="845.7" y2="289.5" stroke="#ff5a36" stroke-opacity="0.45" stroke-width="1.3"/>
<text x="853.7" y="293.5" font-size="15" font-weight="600" fill="#eef2fb" text-anchor="start">Rainey Curve</text>
<line x1="612.7" y1="355.0" x2="628.6" y2="321.5" stroke="#ff5a36" stroke-opacity="0.45" stroke-width="1.3"/>
<text x="636.6" y="325.5" font-size="15" font-weight="600" fill="#eef2fb" text-anchor="start">Turn 10</text>
<line x1="485.7" y1="168.0" x2="476.0" y2="168.0" stroke="#ff5a36" stroke-opacity="0.45" stroke-width="1.3"/>
<text x="468.0" y="172.0" font-size="15" font-weight="600" fill="#eef2fb" text-anchor="end">Turn 11</text>
<text x="90" y="64" font-size="20" letter-spacing="5" fill="#ff5a36" font-weight="700">TRACK ATLAS</text>
<text x="90" y="108" font-size="42" font-weight="800" fill="#ffffff">WEATHERTECH RACEWAY LAGUNA SECA</text>
<text x="90" y="136" font-size="16" fill="#9aa6bd">Laguna Seca</text>
<rect x="1170" y="200" width="360" height="710" rx="16" fill="#ffffff" fill-opacity="0.04" stroke="#ff5a36" stroke-opacity="0.5"/>
<text x="1198" y="250" font-size="13" letter-spacing="2" fill="#8794ab">LAYOUT</text>
<text x="1198" y="276" font-size="22" font-weight="700" fill="#eef2fb">Full Course</text>
<text x="1198" y="320" font-size="13" letter-spacing="2" fill="#8794ab">LENGTH</text>
<text x="1198" y="346" font-size="22" font-weight="700" fill="#eef2fb">3.602 km</text>
<text x="1198" y="390" font-size="13" letter-spacing="2" fill="#8794ab">CORNERS</text>
<text x="1198" y="416" font-size="22" font-weight="700" fill="#eef2fb">10</text>
<text x="1198" y="460" font-size="13" letter-spacing="2" fill="#8794ab">NAMED CORNERS</text>
<text x="1198" y="486" font-size="22" font-weight="700" fill="#eef2fb">5</text>
<text x="1198" y="530" font-size="13" letter-spacing="2" fill="#8794ab">DIRECTION</text>
<text x="1198" y="556" font-size="22" font-weight="700" fill="#eef2fb">Anticlockwise</text>
<text x="1198" y="600" font-size="13" letter-spacing="2" fill="#8794ab">SECTORS</text>
<text x="1198" y="626" font-size="22" font-weight="700" fill="#eef2fb">5</text>
<text x="1198" y="670" font-size="13" letter-spacing="2" fill="#8794ab">COUNTRY</text>
<text x="1198" y="696" font-size="22" font-weight="700" fill="#eef2fb">USA</text>
<text x="1198" y="740" font-size="13" letter-spacing="2" fill="#8794ab">LOCATION</text>
<text x="1198" y="766" font-size="22" font-weight="700" fill="#eef2fb">Monterey, California</text>
<text x="1198" y="810" font-size="13" letter-spacing="2" fill="#8794ab">COMPLEXES</text>
<rect x="1198" y="816" width="118" height="24" rx="12" fill="#ff5a36" fill-opacity="0.16" stroke="#ff5a36" stroke-opacity="0.5"/>
<text x="1257" y="833" font-size="12" fill="#eef2fb" text-anchor="middle">The Corkscrew</text>
<text x="90" y="966" font-size="12" fill="#566177">Geometry © OpenStreetMap contributors (ODbL) · corner data: Lovely-Sim-Racing + curated · track-atlas</text>
<text x="90" y="942" font-size="12" fill="#8794ab">⚑ start / finish</text>
</svg>