<svg xmlns="http://www.w3.org/2000/svg" width="1600" height="1000" viewBox="0 0 1600 1000" font-family="Helvetica, Arial, sans-serif">
<defs>
      <radialGradient id="bg" cx="38%" cy="34%" r="85%">
        <stop offset="0%" stop-color="#1b2030"/>
        <stop offset="55%" stop-color="#12151f"/>
        <stop offset="100%" stop-color="#0a0c12"/>
      </radialGradient>
      <linearGradient id="accent" x1="0" y1="0" x2="1" y2="1">
        <stop offset="0%" stop-color="#ff5a36"/>
        <stop offset="100%" stop-color="#ffffff"/>
      </linearGradient>
      <filter id="glow" x="-40%" y="-40%" width="180%" height="180%">
        <feGaussianBlur stdDeviation="6" result="b"/>
        <feMerge><feMergeNode in="b"/><feMergeNode in="SourceGraphic"/></feMerge>
      </filter>
    </defs>
<rect width="1600" height="1000" fill="url(#bg)"/>
<path d="M 597.7,450.2 L 605.9,435.0 L 619.6,410.1 L 639.1,378.0 L 658.9,343.7 L 677.5,306.0 L 683.4,292.4 L 692.0,271.4 L 704.8,239.8 L 714.8,213.4 L 719.4,200.7 L 721.9,193.9 L 722.8,191.6 L 723.7,189.4 L 724.7,187.3 L 725.8,185.5 L 727.0,183.6 L 728.1,181.7 L 729.0,180.2 L 730.2,178.7 L 731.7,177.0 L 733.3,175.7 L 734.9,174.3 L 736.7,173.0 L 738.8,171.7 L 740.7,170.9 L 742.7,170.1 L 744.8,169.4 L 746.5,168.9 L 748.4,168.6 L 750.1,168.2 L 752.2,168.0 L 754.5,168.0 L 756.6,168.2 L 758.4,168.5 L 760.2,168.9 L 761.8,169.5 L 762.7,169.8 L 763.8,170.2 L 765.5,171.0 L 766.9,171.6 L 768.1,172.4 L 769.2,173.2 L 770.5,174.4 L 771.4,175.2 L 772.5,176.0 L 773.3,176.9 L 774.2,177.7 L 774.9,178.4 L 775.5,179.3 L 776.3,180.3 L 777.0,181.3 L 777.8,182.5 L 778.5,183.7 L 779.1,184.7 L 779.7,185.9 L 780.2,187.0 L 780.7,188.3 L 781.1,189.7 L 781.6,191.3 L 782.0,192.8 L 782.2,193.9 L 782.5,195.0 L 782.7,196.0 L 783.0,197.3 L 783.2,199.5 L 783.3,200.9 L 783.3,202.1 L 783.4,203.1 L 783.4,203.9 L 783.4,204.6 L 783.4,205.4 L 783.4,206.9 L 783.3,208.3 L 783.2,209.4 L 783.1,210.7 L 783.0,212.0 L 782.8,213.3 L 782.6,214.8 L 782.5,216.1 L 782.4,217.0 L 781.9,220.4 L 772.2,267.6 L 771.8,270.0 L 771.4,272.0 L 771.1,273.7 L 770.9,275.2 L 770.7,276.8 L 770.6,278.5 L 770.6,280.0 L 770.7,281.4 L 770.9,282.9 L 771.3,284.7 L 771.7,286.4 L 772.3,287.6 L 772.8,288.9 L 773.5,290.5 L 774.4,292.0 L 775.3,293.5 L 776.5,295.0 L 777.8,296.4 L 779.2,297.6 L 781.7,299.7 L 783.4,300.8 L 784.8,301.8 L 809.0,315.9 L 811.0,317.3 L 813.3,319.0 L 814.6,320.2 L 816.1,321.7 L 818.0,323.5 L 819.2,324.9 L 820.6,326.6 L 821.8,328.4 L 822.4,329.6 L 822.8,330.3 L 823.3,331.2 L 824.2,333.3 L 824.8,335.1 L 825.4,337.1 L 826.0,338.9 L 826.5,341.1 L 826.7,342.8 L 827.0,344.4 L 827.1,346.3 L 827.0,348.6 L 827.0,350.7 L 826.8,352.4 L 826.5,354.1 L 826.1,356.2 L 825.4,358.7 L 824.4,361.8 L 823.4,364.5 L 822.1,366.8 L 821.0,368.7 L 772.3,441.1 L 750.4,474.2 L 734.7,497.7 L 722.1,516.8 L 721.2,518.4 L 720.3,519.7 L 719.1,521.5 L 718.3,522.9 L 717.5,524.2 L 716.4,526.3 L 715.7,527.6 L 715.0,529.0 L 714.4,530.6 L 713.9,532.3 L 713.6,533.7 L 713.3,535.2 L 713.2,536.6 L 713.1,537.9 L 713.2,539.7 L 713.4,541.2 L 713.6,542.9 L 713.8,543.9 L 714.2,546.0 L 715.0,548.3 L 715.9,550.7 L 717.0,553.2 L 728.9,577.0 L 729.7,579.2 L 730.4,581.2 L 730.8,582.9 L 731.2,584.6 L 731.4,586.1 L 731.5,588.0 L 731.6,589.8 L 731.6,592.2 L 731.6,594.1 L 731.3,596.3 L 730.9,597.7 L 730.7,599.3 L 730.2,600.8 L 729.6,602.5 L 728.9,603.9 L 728.1,605.3 L 727.5,606.5 L 726.4,608.2 L 725.2,610.2 L 723.8,612.1 L 722.5,613.6 L 721.6,614.7 L 720.8,615.7 L 675.0,671.9 L 629.0,727.4 L 623.6,734.3 L 622.6,735.6 L 621.8,736.6 L 620.8,737.8 L 619.8,738.9 L 618.9,739.8 L 617.6,741.0 L 616.4,742.0 L 615.2,743.0 L 614.1,743.9 L 612.8,744.7 L 611.3,745.5 L 609.8,746.3 L 608.3,746.9 L 607.0,747.4 L 605.9,747.9 L 604.5,748.3 L 603.3,748.6 L 602.1,748.9 L 600.8,749.1 L 599.7,749.3 L 598.6,749.4 L 597.3,749.5 L 595.7,749.6 L 594.6,749.7 L 593.2,749.7 L 591.8,749.7 L 590.5,749.6 L 589.2,749.5 L 587.9,749.5 L 557.3,748.5 L 554.8,748.6 L 552.3,748.7 L 549.4,748.8 L 546.3,749.0 L 544.5,749.2 L 542.7,749.4 L 541.3,749.6 L 539.7,749.8 L 538.2,750.1 L 536.7,750.4 L 535.4,750.8 L 534.1,751.1 L 532.5,751.6 L 531.3,752.0 L 530.0,752.5 L 528.6,753.1 L 527.2,753.8 L 525.8,754.4 L 524.2,755.4 L 522.6,756.3 L 520.9,757.2 L 519.4,758.1 L 517.9,759.1 L 516.4,760.1 L 514.9,761.2 L 513.6,762.5 L 512.3,763.7 L 511.0,765.1 L 509.8,766.4 L 508.6,767.8 L 507.5,769.3 L 506.4,770.8 L 505.6,772.3 L 504.5,774.0 L 503.7,775.3 L 502.6,777.0 L 501.8,778.7 L 501.1,780.0 L 500.2,781.9 L 499.1,784.2 L 495.0,793.9 L 491.7,803.8 L 489.6,810.1 L 487.9,815.7 L 484.8,824.9 L 476.1,850.2 L 473.4,858.1 L 471.1,864.1 L 468.6,869.9 L 467.7,873.0 L 466.7,875.2 L 465.3,877.7 L 464.2,879.7 L 462.9,881.7 L 461.6,883.5 L 460.3,885.4 L 458.9,887.3 L 457.3,889.2 L 455.7,890.8 L 454.3,892.4 L 452.3,894.3 L 450.3,896.0 L 448.5,897.4 L 446.1,899.1 L 444.1,900.3 L 442.2,901.4 L 440.0,902.6 L 438.0,903.6 L 435.9,904.8 L 433.5,905.9 L 431.1,906.8 L 428.8,907.6 L 426.4,908.4 L 424.1,908.9 L 421.9,909.3 L 419.2,909.6 L 416.7,909.9 L 414.2,910.0 L 411.5,910.0 L 408.9,909.9 L 406.7,909.7 L 404.1,909.5 L 401.8,909.2 L 399.3,908.8 L 397.0,908.4 L 394.5,907.8 L 391.7,906.9 L 389.1,906.2 L 384.6,904.7 L 379.9,903.0 L 376.8,901.7 L 374.0,900.5 L 370.7,899.0 L 368.7,898.1 L 365.8,896.6 L 363.5,895.5 L 360.9,894.3 L 357.7,892.6 L 356.2,891.8 L 354.1,890.8 L 351.5,889.4 L 348.0,887.4 L 345.5,886.1 L 343.1,884.8 L 340.3,883.3 L 337.9,882.1 L 335.4,880.7 L 332.3,878.9 L 330.1,877.5 L 327.6,876.0 L 324.8,874.2 L 322.9,872.9 L 321.0,871.3 L 318.5,869.2 L 316.3,867.1 L 314.7,865.2 L 313.2,863.4 L 311.7,861.4 L 310.1,858.7 L 308.7,856.1 L 307.3,853.2 L 306.4,850.7 L 305.6,848.5 L 304.7,845.5 L 304.2,843.5 L 303.8,841.3 L 303.4,838.9 L 303.1,835.7 L 303.0,833.3 L 302.9,830.7 L 302.9,827.4 L 303.2,823.4 L 303.3,820.8 L 303.4,819.4 L 303.6,817.8 L 303.9,816.2 L 304.1,814.2 L 304.5,811.3 L 305.1,807.6 L 305.9,803.9 L 322.0,720.5 L 325.1,703.6 L 331.4,671.3 L 331.8,669.6 L 332.2,667.7 L 332.7,665.7 L 333.1,664.5 L 333.5,663.4 L 334.1,661.8 L 335.2,659.6 L 336.3,657.9 L 338.0,656.0 L 339.5,654.4 L 341.4,652.7 L 343.3,651.3 L 345.3,650.0 L 346.9,649.1 L 348.4,648.3 L 350.2,647.6 L 352.1,646.9 L 354.0,646.5 L 356.0,646.1 L 357.6,645.9 L 359.5,645.8 L 361.8,645.7 L 388.5,645.5 L 390.9,645.3 L 393.2,645.2 L 395.9,644.9 L 398.4,644.3 L 400.7,643.6 L 403.0,642.7 L 405.0,641.8 L 407.3,640.5 L 409.7,638.8 L 411.8,637.0 L 413.5,635.5 L 415.2,633.7 L 416.7,632.0 L 418.3,629.6 L 419.8,627.2 L 420.8,625.1 L 421.5,623.1 L 422.2,621.4 L 422.7,619.9 L 423.6,616.9 L 444.8,543.1 L 448.9,528.6 L 451.7,518.9 L 459.6,491.7 L 467.3,464.8 L 470.9,452.1 L 472.1,448.4 L 473.1,445.9 L 473.9,443.8 L 474.9,441.5 L 475.8,439.9 L 476.5,438.6 L 477.5,436.9 L 478.4,435.4 L 479.5,433.8 L 480.8,432.2 L 481.8,431.1 L 482.8,430.1 L 483.9,429.0 L 485.3,427.6 L 486.3,426.7 L 487.3,426.0 L 488.3,425.2 L 489.7,424.3 L 491.2,423.5 L 492.6,422.8 L 494.2,422.1 L 495.8,421.4 L 497.4,420.9 L 499.3,420.4 L 501.2,419.9 L 502.4,419.8 L 503.3,419.6 L 504.8,419.4 L 506.6,419.2 L 508.1,419.1 L 509.6,419.2 L 510.9,419.2 L 512.2,419.2 L 513.9,419.5 L 515.2,419.8 L 516.8,420.1 L 518.0,420.6 L 519.7,421.3 L 521.1,422.0 L 522.7,422.7 L 524.0,423.5 L 525.3,424.2 L 526.5,425.1 L 527.8,426.0 L 529.0,427.0 L 530.4,428.2 L 531.4,429.3 L 532.6,430.6 L 534.2,432.3 L 535.4,434.0 L 536.5,435.9 L 537.9,438.5 L 538.7,440.4 L 539.5,442.6 L 540.2,444.6 L 540.8,447.1 L 541.0,448.8 L 541.3,450.7 L 541.4,452.0 L 541.4,454.2 L 541.3,456.3 L 541.1,458.6 L 540.9,460.1 L 540.9,461.4 L 540.4,463.9 L 539.9,465.6 L 539.6,466.9 L 539.1,468.5 L 538.6,469.8 L 537.8,471.6 L 536.9,473.8 L 536.1,475.5 L 535.2,477.1 L 534.2,479.0 L 533.4,480.6 L 532.2,482.7 L 531.5,484.0 L 530.2,486.1 L 529.4,487.5 L 528.4,489.1 L 527.1,490.8 L 502.5,522.3 L 494.2,532.9 L 492.8,534.8 L 491.6,536.5 L 490.7,538.1 L 489.7,540.0 L 489.0,541.6 L 488.6,543.0 L 488.2,544.7 L 487.9,545.8 L 487.6,547.4 L 487.5,548.4 L 487.2,549.8 L 487.2,550.9 L 487.2,551.7 L 487.1,552.7 L 487.1,553.8 L 487.1,555.2 L 487.0,577.4 L 487.1,579.2 L 487.1,581.6 L 487.2,583.8 L 487.2,585.5 L 487.0,587.3 L 486.9,589.0 L 486.6,590.6 L 486.4,592.3 L 485.9,593.9 L 485.3,596.6 L 484.4,598.8 L 483.8,600.1 L 483.1,601.5 L 480.6,605.5 L 472.7,616.0 L 457.0,637.2 L 409.7,700.9 L 403.5,709.3 L 393.4,722.9 L 376.0,746.4 L 358.6,769.8 L 355.1,774.8 L 350.8,781.1 L 348.2,785.6 L 346.7,788.0 L 345.6,790.1 L 344.5,792.1 L 343.7,794.1 L 342.9,796.1 L 342.2,798.0 L 341.6,799.8 L 341.1,801.6 L 340.6,804.0 L 340.2,806.3 L 339.8,808.7 L 339.6,811.1 L 339.5,813.3 L 339.6,815.3 L 339.6,815.7 L 339.6,817.2 L 339.8,818.7 L 340.0,820.0 L 340.5,822.4 L 341.0,824.2 L 341.4,825.5 L 342.1,827.2 L 342.8,828.9 L 343.5,830.5 L 344.1,831.7 L 344.9,833.1 L 345.7,834.7 L 347.0,836.7 L 348.0,838.2 L 349.1,839.6 L 350.6,841.1 L 352.4,842.9 L 353.9,844.2 L 355.7,845.5 L 357.6,846.8 L 359.5,848.0 L 361.5,849.1 L 363.0,849.7 L 365.1,850.7 L 367.0,851.4 L 368.8,851.9 L 370.8,852.4 L 372.9,852.8 L 374.9,853.1 L 376.8,853.2 L 378.9,853.3 L 380.8,853.3 L 382.5,853.2 L 385.0,852.9 L 387.9,852.4 L 390.5,851.7 L 393.2,850.9 L 395.3,850.2 L 397.1,849.5 L 399.8,848.3 L 402.0,847.2 L 404.1,845.9 L 406.0,844.7 L 407.5,843.6 L 409.4,842.3 L 411.2,840.8 L 412.7,839.7 L 414.1,838.3 L 415.8,836.8 L 417.4,835.3 L 419.3,833.3 L 420.2,832.2 L 420.4,831.9 L 421.1,831.1 L 422.4,829.6 L 423.3,828.4 L 424.6,826.7 L 426.4,824.4 L 427.6,822.8 L 428.8,820.9 L 430.0,819.0 L 431.1,817.2 L 432.2,815.4 L 433.2,813.4 L 434.7,810.4 L 441.1,797.2 L 447.8,781.9 L 454.5,766.6 L 458.7,757.4 L 467.1,739.9 L 562.3,527.1 L 597.7,450.2 Z" fill="none" stroke="#000000" stroke-opacity="0.5" stroke-width="13" stroke-linejoin="round" stroke-linecap="round"/>
<path d="M 597.7,450.2 L 605.9,435.0 L 619.6,410.1 L 639.1,378.0 L 658.9,343.7 L 677.5,306.0 L 683.4,292.4 L 692.0,271.4 L 704.8,239.8 L 714.8,213.4 L 719.4,200.7 L 721.9,193.9 L 722.8,191.6 L 723.7,189.4 L 724.7,187.3 L 725.8,185.5 L 727.0,183.6 L 728.1,181.7 L 729.0,180.2 L 730.2,178.7 L 731.7,177.0 L 733.3,175.7 L 734.9,174.3 L 736.7,173.0 L 738.8,171.7 L 740.7,170.9 L 742.7,170.1 L 744.8,169.4 L 746.5,168.9 L 748.4,168.6 L 750.1,168.2 L 752.2,168.0 L 754.5,168.0 L 756.6,168.2 L 758.4,168.5 L 760.2,168.9 L 761.8,169.5 L 762.7,169.8 L 763.8,170.2 L 765.5,171.0 L 766.9,171.6 L 768.1,172.4 L 769.2,173.2 L 770.5,174.4 L 771.4,175.2 L 772.5,176.0 L 773.3,176.9 L 774.2,177.7 L 774.9,178.4 L 775.5,179.3 L 776.3,180.3 L 777.0,181.3 L 777.8,182.5 L 778.5,183.7 L 779.1,184.7 L 779.7,185.9 L 780.2,187.0 L 780.7,188.3 L 781.1,189.7 L 781.6,191.3 L 782.0,192.8 L 782.2,193.9 L 782.5,195.0 L 782.7,196.0 L 783.0,197.3 L 783.2,199.5 L 783.3,200.9 L 783.3,202.1 L 783.4,203.1 L 783.4,203.9 L 783.4,204.6 L 783.4,205.4 L 783.4,206.9 L 783.3,208.3 L 783.2,209.4 L 783.1,210.7 L 783.0,212.0 L 782.8,213.3 L 782.6,214.8 L 782.5,216.1 L 782.4,217.0 L 781.9,220.4 L 772.2,267.6 L 771.8,270.0 L 771.4,272.0 L 771.1,273.7 L 770.9,275.2 L 770.7,276.8 L 770.6,278.5 L 770.6,280.0 L 770.7,281.4 L 770.9,282.9 L 771.3,284.7 L 771.7,286.4 L 772.3,287.6 L 772.8,288.9 L 773.5,290.5 L 774.4,292.0 L 775.3,293.5 L 776.5,295.0 L 777.8,296.4 L 779.2,297.6 L 781.7,299.7 L 783.4,300.8 L 784.8,301.8 L 809.0,315.9 L 811.0,317.3 L 813.3,319.0 L 814.6,320.2 L 816.1,321.7 L 818.0,323.5 L 819.2,324.9 L 820.6,326.6 L 821.8,328.4 L 822.4,329.6 L 822.8,330.3 L 823.3,331.2 L 824.2,333.3 L 824.8,335.1 L 825.4,337.1 L 826.0,338.9 L 826.5,341.1 L 826.7,342.8 L 827.0,344.4 L 827.1,346.3 L 827.0,348.6 L 827.0,350.7 L 826.8,352.4 L 826.5,354.1 L 826.1,356.2 L 825.4,358.7 L 824.4,361.8 L 823.4,364.5 L 822.1,366.8 L 821.0,368.7 L 772.3,441.1 L 750.4,474.2 L 734.7,497.7 L 722.1,516.8 L 721.2,518.4 L 720.3,519.7 L 719.1,521.5 L 718.3,522.9 L 717.5,524.2 L 716.4,526.3 L 715.7,527.6 L 715.0,529.0 L 714.4,530.6 L 713.9,532.3 L 713.6,533.7 L 713.3,535.2 L 713.2,536.6 L 713.1,537.9 L 713.2,539.7 L 713.4,541.2 L 713.6,542.9 L 713.8,543.9 L 714.2,546.0 L 715.0,548.3 L 715.9,550.7 L 717.0,553.2 L 728.9,577.0 L 729.7,579.2 L 730.4,581.2 L 730.8,582.9 L 731.2,584.6 L 731.4,586.1 L 731.5,588.0 L 731.6,589.8 L 731.6,592.2 L 731.6,594.1 L 731.3,596.3 L 730.9,597.7 L 730.7,599.3 L 730.2,600.8 L 729.6,602.5 L 728.9,603.9 L 728.1,605.3 L 727.5,606.5 L 726.4,608.2 L 725.2,610.2 L 723.8,612.1 L 722.5,613.6 L 721.6,614.7 L 720.8,615.7 L 675.0,671.9 L 629.0,727.4 L 623.6,734.3 L 622.6,735.6 L 621.8,736.6 L 620.8,737.8 L 619.8,738.9 L 618.9,739.8 L 617.6,741.0 L 616.4,742.0 L 615.2,743.0 L 614.1,743.9 L 612.8,744.7 L 611.3,745.5 L 609.8,746.3 L 608.3,746.9 L 607.0,747.4 L 605.9,747.9 L 604.5,748.3 L 603.3,748.6 L 602.1,748.9 L 600.8,749.1 L 599.7,749.3 L 598.6,749.4 L 597.3,749.5 L 595.7,749.6 L 594.6,749.7 L 593.2,749.7 L 591.8,749.7 L 590.5,749.6 L 589.2,749.5 L 587.9,749.5 L 557.3,748.5 L 554.8,748.6 L 552.3,748.7 L 549.4,748.8 L 546.3,749.0 L 544.5,749.2 L 542.7,749.4 L 541.3,749.6 L 539.7,749.8 L 538.2,750.1 L 536.7,750.4 L 535.4,750.8 L 534.1,751.1 L 532.5,751.6 L 531.3,752.0 L 530.0,752.5 L 528.6,753.1 L 527.2,753.8 L 525.8,754.4 L 524.2,755.4 L 522.6,756.3 L 520.9,757.2 L 519.4,758.1 L 517.9,759.1 L 516.4,760.1 L 514.9,761.2 L 513.6,762.5 L 512.3,763.7 L 511.0,765.1 L 509.8,766.4 L 508.6,767.8 L 507.5,769.3 L 506.4,770.8 L 505.6,772.3 L 504.5,774.0 L 503.7,775.3 L 502.6,777.0 L 501.8,778.7 L 501.1,780.0 L 500.2,781.9 L 499.1,784.2 L 495.0,793.9 L 491.7,803.8 L 489.6,810.1 L 487.9,815.7 L 484.8,824.9 L 476.1,850.2 L 473.4,858.1 L 471.1,864.1 L 468.6,869.9 L 467.7,873.0 L 466.7,875.2 L 465.3,877.7 L 464.2,879.7 L 462.9,881.7 L 461.6,883.5 L 460.3,885.4 L 458.9,887.3 L 457.3,889.2 L 455.7,890.8 L 454.3,892.4 L 452.3,894.3 L 450.3,896.0 L 448.5,897.4 L 446.1,899.1 L 444.1,900.3 L 442.2,901.4 L 440.0,902.6 L 438.0,903.6 L 435.9,904.8 L 433.5,905.9 L 431.1,906.8 L 428.8,907.6 L 426.4,908.4 L 424.1,908.9 L 421.9,909.3 L 419.2,909.6 L 416.7,909.9 L 414.2,910.0 L 411.5,910.0 L 408.9,909.9 L 406.7,909.7 L 404.1,909.5 L 401.8,909.2 L 399.3,908.8 L 397.0,908.4 L 394.5,907.8 L 391.7,906.9 L 389.1,906.2 L 384.6,904.7 L 379.9,903.0 L 376.8,901.7 L 374.0,900.5 L 370.7,899.0 L 368.7,898.1 L 365.8,896.6 L 363.5,895.5 L 360.9,894.3 L 357.7,892.6 L 356.2,891.8 L 354.1,890.8 L 351.5,889.4 L 348.0,887.4 L 345.5,886.1 L 343.1,884.8 L 340.3,883.3 L 337.9,882.1 L 335.4,880.7 L 332.3,878.9 L 330.1,877.5 L 327.6,876.0 L 324.8,874.2 L 322.9,872.9 L 321.0,871.3 L 318.5,869.2 L 316.3,867.1 L 314.7,865.2 L 313.2,863.4 L 311.7,861.4 L 310.1,858.7 L 308.7,856.1 L 307.3,853.2 L 306.4,850.7 L 305.6,848.5 L 304.7,845.5 L 304.2,843.5 L 303.8,841.3 L 303.4,838.9 L 303.1,835.7 L 303.0,833.3 L 302.9,830.7 L 302.9,827.4 L 303.2,823.4 L 303.3,820.8 L 303.4,819.4 L 303.6,817.8 L 303.9,816.2 L 304.1,814.2 L 304.5,811.3 L 305.1,807.6 L 305.9,803.9 L 322.0,720.5 L 325.1,703.6 L 331.4,671.3 L 331.8,669.6 L 332.2,667.7 L 332.7,665.7 L 333.1,664.5 L 333.5,663.4 L 334.1,661.8 L 335.2,659.6 L 336.3,657.9 L 338.0,656.0 L 339.5,654.4 L 341.4,652.7 L 343.3,651.3 L 345.3,650.0 L 346.9,649.1 L 348.4,648.3 L 350.2,647.6 L 352.1,646.9 L 354.0,646.5 L 356.0,646.1 L 357.6,645.9 L 359.5,645.8 L 361.8,645.7 L 388.5,645.5 L 390.9,645.3 L 393.2,645.2 L 395.9,644.9 L 398.4,644.3 L 400.7,643.6 L 403.0,642.7 L 405.0,641.8 L 407.3,640.5 L 409.7,638.8 L 411.8,637.0 L 413.5,635.5 L 415.2,633.7 L 416.7,632.0 L 418.3,629.6 L 419.8,627.2 L 420.8,625.1 L 421.5,623.1 L 422.2,621.4 L 422.7,619.9 L 423.6,616.9 L 444.8,543.1 L 448.9,528.6 L 451.7,518.9 L 459.6,491.7 L 467.3,464.8 L 470.9,452.1 L 472.1,448.4 L 473.1,445.9 L 473.9,443.8 L 474.9,441.5 L 475.8,439.9 L 476.5,438.6 L 477.5,436.9 L 478.4,435.4 L 479.5,433.8 L 480.8,432.2 L 481.8,431.1 L 482.8,430.1 L 483.9,429.0 L 485.3,427.6 L 486.3,426.7 L 487.3,426.0 L 488.3,425.2 L 489.7,424.3 L 491.2,423.5 L 492.6,422.8 L 494.2,422.1 L 495.8,421.4 L 497.4,420.9 L 499.3,420.4 L 501.2,419.9 L 502.4,419.8 L 503.3,419.6 L 504.8,419.4 L 506.6,419.2 L 508.1,419.1 L 509.6,419.2 L 510.9,419.2 L 512.2,419.2 L 513.9,419.5 L 515.2,419.8 L 516.8,420.1 L 518.0,420.6 L 519.7,421.3 L 521.1,422.0 L 522.7,422.7 L 524.0,423.5 L 525.3,424.2 L 526.5,425.1 L 527.8,426.0 L 529.0,427.0 L 530.4,428.2 L 531.4,429.3 L 532.6,430.6 L 534.2,432.3 L 535.4,434.0 L 536.5,435.9 L 537.9,438.5 L 538.7,440.4 L 539.5,442.6 L 540.2,444.6 L 540.8,447.1 L 541.0,448.8 L 541.3,450.7 L 541.4,452.0 L 541.4,454.2 L 541.3,456.3 L 541.1,458.6 L 540.9,460.1 L 540.9,461.4 L 540.4,463.9 L 539.9,465.6 L 539.6,466.9 L 539.1,468.5 L 538.6,469.8 L 537.8,471.6 L 536.9,473.8 L 536.1,475.5 L 535.2,477.1 L 534.2,479.0 L 533.4,480.6 L 532.2,482.7 L 531.5,484.0 L 530.2,486.1 L 529.4,487.5 L 528.4,489.1 L 527.1,490.8 L 502.5,522.3 L 494.2,532.9 L 492.8,534.8 L 491.6,536.5 L 490.7,538.1 L 489.7,540.0 L 489.0,541.6 L 488.6,543.0 L 488.2,544.7 L 487.9,545.8 L 487.6,547.4 L 487.5,548.4 L 487.2,549.8 L 487.2,550.9 L 487.2,551.7 L 487.1,552.7 L 487.1,553.8 L 487.1,555.2 L 487.0,577.4 L 487.1,579.2 L 487.1,581.6 L 487.2,583.8 L 487.2,585.5 L 487.0,587.3 L 486.9,589.0 L 486.6,590.6 L 486.4,592.3 L 485.9,593.9 L 485.3,596.6 L 484.4,598.8 L 483.8,600.1 L 483.1,601.5 L 480.6,605.5 L 472.7,616.0 L 457.0,637.2 L 409.7,700.9 L 403.5,709.3 L 393.4,722.9 L 376.0,746.4 L 358.6,769.8 L 355.1,774.8 L 350.8,781.1 L 348.2,785.6 L 346.7,788.0 L 345.6,790.1 L 344.5,792.1 L 343.7,794.1 L 342.9,796.1 L 342.2,798.0 L 341.6,799.8 L 341.1,801.6 L 340.6,804.0 L 340.2,806.3 L 339.8,808.7 L 339.6,811.1 L 339.5,813.3 L 339.6,815.3 L 339.6,815.7 L 339.6,817.2 L 339.8,818.7 L 340.0,820.0 L 340.5,822.4 L 341.0,824.2 L 341.4,825.5 L 342.1,827.2 L 342.8,828.9 L 343.5,830.5 L 344.1,831.7 L 344.9,833.1 L 345.7,834.7 L 347.0,836.7 L 348.0,838.2 L 349.1,839.6 L 350.6,841.1 L 352.4,842.9 L 353.9,844.2 L 355.7,845.5 L 357.6,846.8 L 359.5,848.0 L 361.5,849.1 L 363.0,849.7 L 365.1,850.7 L 367.0,851.4 L 368.8,851.9 L 370.8,852.4 L 372.9,852.8 L 374.9,853.1 L 376.8,853.2 L 378.9,853.3 L 380.8,853.3 L 382.5,853.2 L 385.0,852.9 L 387.9,852.4 L 390.5,851.7 L 393.2,850.9 L 395.3,850.2 L 397.1,849.5 L 399.8,848.3 L 402.0,847.2 L 404.1,845.9 L 406.0,844.7 L 407.5,843.6 L 409.4,842.3 L 411.2,840.8 L 412.7,839.7 L 414.1,838.3 L 415.8,836.8 L 417.4,835.3 L 419.3,833.3 L 420.2,832.2 L 420.4,831.9 L 421.1,831.1 L 422.4,829.6 L 423.3,828.4 L 424.6,826.7 L 426.4,824.4 L 427.6,822.8 L 428.8,820.9 L 430.0,819.0 L 431.1,817.2 L 432.2,815.4 L 433.2,813.4 L 434.7,810.4 L 441.1,797.2 L 447.8,781.9 L 454.5,766.6 L 458.7,757.4 L 467.1,739.9 L 562.3,527.1 L 597.7,450.2 Z" fill="none" stroke="#39404f" stroke-width="8.5" stroke-linejoin="round" stroke-linecap="round"/>
<path d="M 597.7,450.2 L 605.9,435.0 L 619.6,410.1 L 639.1,378.0 L 658.9,343.7 L 677.5,306.0 L 683.4,292.4 L 692.0,271.4 L 704.8,239.8 L 714.8,213.4 L 719.4,200.7 L 721.9,193.9 L 722.8,191.6 L 723.7,189.4 L 724.7,187.3 L 725.8,185.5 L 727.0,183.6 L 728.1,181.7 L 729.0,180.2 L 730.2,178.7 L 731.7,177.0 L 733.3,175.7 L 734.9,174.3 L 736.7,173.0 L 738.8,171.7 L 740.7,170.9 L 742.7,170.1 L 744.8,169.4 L 746.5,168.9 L 748.4,168.6 L 750.1,168.2 L 752.2,168.0 L 754.5,168.0 L 756.6,168.2 L 758.4,168.5 L 760.2,168.9 L 761.8,169.5 L 762.7,169.8 L 763.8,170.2 L 765.5,171.0 L 766.9,171.6 L 768.1,172.4 L 769.2,173.2 L 770.5,174.4 L 771.4,175.2 L 772.5,176.0 L 773.3,176.9 L 774.2,177.7 L 774.9,178.4 L 775.5,179.3 L 776.3,180.3 L 777.0,181.3 L 777.8,182.5 L 778.5,183.7 L 779.1,184.7 L 779.7,185.9 L 780.2,187.0 L 780.7,188.3 L 781.1,189.7 L 781.6,191.3 L 782.0,192.8 L 782.2,193.9 L 782.5,195.0 L 782.7,196.0 L 783.0,197.3 L 783.2,199.5 L 783.3,200.9 L 783.3,202.1 L 783.4,203.1 L 783.4,203.9 L 783.4,204.6 L 783.4,205.4 L 783.4,206.9 L 783.3,208.3 L 783.2,209.4 L 783.1,210.7 L 783.0,212.0 L 782.8,213.3 L 782.6,214.8 L 782.5,216.1 L 782.4,217.0 L 781.9,220.4 L 772.2,267.6 L 771.8,270.0 L 771.4,272.0 L 771.1,273.7 L 770.9,275.2 L 770.7,276.8 L 770.6,278.5 L 770.6,280.0 L 770.7,281.4 L 770.9,282.9 L 771.3,284.7 L 771.7,286.4 L 772.3,287.6 L 772.8,288.9 L 773.5,290.5 L 774.4,292.0 L 775.3,293.5 L 776.5,295.0 L 777.8,296.4 L 779.2,297.6 L 781.7,299.7 L 783.4,300.8 L 784.8,301.8 L 809.0,315.9 L 811.0,317.3 L 813.3,319.0 L 814.6,320.2 L 816.1,321.7 L 818.0,323.5 L 819.2,324.9 L 820.6,326.6 L 821.8,328.4 L 822.4,329.6 L 822.8,330.3 L 823.3,331.2 L 824.2,333.3 L 824.8,335.1 L 825.4,337.1 L 826.0,338.9 L 826.5,341.1 L 826.7,342.8 L 827.0,344.4 L 827.1,346.3 L 827.0,348.6 L 827.0,350.7 L 826.8,352.4 L 826.5,354.1 L 826.1,356.2 L 825.4,358.7 L 824.4,361.8 L 823.4,364.5 L 822.1,366.8 L 821.0,368.7 L 772.3,441.1 L 750.4,474.2 L 734.7,497.7 L 722.1,516.8 L 721.2,518.4 L 720.3,519.7 L 719.1,521.5 L 718.3,522.9 L 717.5,524.2 L 716.4,526.3 L 715.7,527.6 L 715.0,529.0 L 714.4,530.6 L 713.9,532.3 L 713.6,533.7 L 713.3,535.2 L 713.2,536.6 L 713.1,537.9 L 713.2,539.7 L 713.4,541.2 L 713.6,542.9 L 713.8,543.9 L 714.2,546.0 L 715.0,548.3 L 715.9,550.7 L 717.0,553.2 L 728.9,577.0 L 729.7,579.2 L 730.4,581.2 L 730.8,582.9 L 731.2,584.6 L 731.4,586.1 L 731.5,588.0 L 731.6,589.8 L 731.6,592.2 L 731.6,594.1 L 731.3,596.3 L 730.9,597.7 L 730.7,599.3 L 730.2,600.8 L 729.6,602.5 L 728.9,603.9 L 728.1,605.3 L 727.5,606.5 L 726.4,608.2 L 725.2,610.2 L 723.8,612.1 L 722.5,613.6 L 721.6,614.7 L 720.8,615.7 L 675.0,671.9 L 629.0,727.4 L 623.6,734.3 L 622.6,735.6 L 621.8,736.6 L 620.8,737.8 L 619.8,738.9 L 618.9,739.8 L 617.6,741.0 L 616.4,742.0 L 615.2,743.0 L 614.1,743.9 L 612.8,744.7 L 611.3,745.5 L 609.8,746.3 L 608.3,746.9 L 607.0,747.4 L 605.9,747.9 L 604.5,748.3 L 603.3,748.6 L 602.1,748.9 L 600.8,749.1 L 599.7,749.3 L 598.6,749.4 L 597.3,749.5 L 595.7,749.6 L 594.6,749.7 L 593.2,749.7 L 591.8,749.7 L 590.5,749.6 L 589.2,749.5 L 587.9,749.5 L 557.3,748.5 L 554.8,748.6 L 552.3,748.7 L 549.4,748.8 L 546.3,749.0 L 544.5,749.2 L 542.7,749.4 L 541.3,749.6 L 539.7,749.8 L 538.2,750.1 L 536.7,750.4 L 535.4,750.8 L 534.1,751.1 L 532.5,751.6 L 531.3,752.0 L 530.0,752.5 L 528.6,753.1 L 527.2,753.8 L 525.8,754.4 L 524.2,755.4 L 522.6,756.3 L 520.9,757.2 L 519.4,758.1 L 517.9,759.1 L 516.4,760.1 L 514.9,761.2 L 513.6,762.5 L 512.3,763.7 L 511.0,765.1 L 509.8,766.4 L 508.6,767.8 L 507.5,769.3 L 506.4,770.8 L 505.6,772.3 L 504.5,774.0 L 503.7,775.3 L 502.6,777.0 L 501.8,778.7 L 501.1,780.0 L 500.2,781.9 L 499.1,784.2 L 495.0,793.9 L 491.7,803.8 L 489.6,810.1 L 487.9,815.7 L 484.8,824.9 L 476.1,850.2 L 473.4,858.1 L 471.1,864.1 L 468.6,869.9 L 467.7,873.0 L 466.7,875.2 L 465.3,877.7 L 464.2,879.7 L 462.9,881.7 L 461.6,883.5 L 460.3,885.4 L 458.9,887.3 L 457.3,889.2 L 455.7,890.8 L 454.3,892.4 L 452.3,894.3 L 450.3,896.0 L 448.5,897.4 L 446.1,899.1 L 444.1,900.3 L 442.2,901.4 L 440.0,902.6 L 438.0,903.6 L 435.9,904.8 L 433.5,905.9 L 431.1,906.8 L 428.8,907.6 L 426.4,908.4 L 424.1,908.9 L 421.9,909.3 L 419.2,909.6 L 416.7,909.9 L 414.2,910.0 L 411.5,910.0 L 408.9,909.9 L 406.7,909.7 L 404.1,909.5 L 401.8,909.2 L 399.3,908.8 L 397.0,908.4 L 394.5,907.8 L 391.7,906.9 L 389.1,906.2 L 384.6,904.7 L 379.9,903.0 L 376.8,901.7 L 374.0,900.5 L 370.7,899.0 L 368.7,898.1 L 365.8,896.6 L 363.5,895.5 L 360.9,894.3 L 357.7,892.6 L 356.2,891.8 L 354.1,890.8 L 351.5,889.4 L 348.0,887.4 L 345.5,886.1 L 343.1,884.8 L 340.3,883.3 L 337.9,882.1 L 335.4,880.7 L 332.3,878.9 L 330.1,877.5 L 327.6,876.0 L 324.8,874.2 L 322.9,872.9 L 321.0,871.3 L 318.5,869.2 L 316.3,867.1 L 314.7,865.2 L 313.2,863.4 L 311.7,861.4 L 310.1,858.7 L 308.7,856.1 L 307.3,853.2 L 306.4,850.7 L 305.6,848.5 L 304.7,845.5 L 304.2,843.5 L 303.8,841.3 L 303.4,838.9 L 303.1,835.7 L 303.0,833.3 L 302.9,830.7 L 302.9,827.4 L 303.2,823.4 L 303.3,820.8 L 303.4,819.4 L 303.6,817.8 L 303.9,816.2 L 304.1,814.2 L 304.5,811.3 L 305.1,807.6 L 305.9,803.9 L 322.0,720.5 L 325.1,703.6 L 331.4,671.3 L 331.8,669.6 L 332.2,667.7 L 332.7,665.7 L 333.1,664.5 L 333.5,663.4 L 334.1,661.8 L 335.2,659.6 L 336.3,657.9 L 338.0,656.0 L 339.5,654.4 L 341.4,652.7 L 343.3,651.3 L 345.3,650.0 L 346.9,649.1 L 348.4,648.3 L 350.2,647.6 L 352.1,646.9 L 354.0,646.5 L 356.0,646.1 L 357.6,645.9 L 359.5,645.8 L 361.8,645.7 L 388.5,645.5 L 390.9,645.3 L 393.2,645.2 L 395.9,644.9 L 398.4,644.3 L 400.7,643.6 L 403.0,642.7 L 405.0,641.8 L 407.3,640.5 L 409.7,638.8 L 411.8,637.0 L 413.5,635.5 L 415.2,633.7 L 416.7,632.0 L 418.3,629.6 L 419.8,627.2 L 420.8,625.1 L 421.5,623.1 L 422.2,621.4 L 422.7,619.9 L 423.6,616.9 L 444.8,543.1 L 448.9,528.6 L 451.7,518.9 L 459.6,491.7 L 467.3,464.8 L 470.9,452.1 L 472.1,448.4 L 473.1,445.9 L 473.9,443.8 L 474.9,441.5 L 475.8,439.9 L 476.5,438.6 L 477.5,436.9 L 478.4,435.4 L 479.5,433.8 L 480.8,432.2 L 481.8,431.1 L 482.8,430.1 L 483.9,429.0 L 485.3,427.6 L 486.3,426.7 L 487.3,426.0 L 488.3,425.2 L 489.7,424.3 L 491.2,423.5 L 492.6,422.8 L 494.2,422.1 L 495.8,421.4 L 497.4,420.9 L 499.3,420.4 L 501.2,419.9 L 502.4,419.8 L 503.3,419.6 L 504.8,419.4 L 506.6,419.2 L 508.1,419.1 L 509.6,419.2 L 510.9,419.2 L 512.2,419.2 L 513.9,419.5 L 515.2,419.8 L 516.8,420.1 L 518.0,420.6 L 519.7,421.3 L 521.1,422.0 L 522.7,422.7 L 524.0,423.5 L 525.3,424.2 L 526.5,425.1 L 527.8,426.0 L 529.0,427.0 L 530.4,428.2 L 531.4,429.3 L 532.6,430.6 L 534.2,432.3 L 535.4,434.0 L 536.5,435.9 L 537.9,438.5 L 538.7,440.4 L 539.5,442.6 L 540.2,444.6 L 540.8,447.1 L 541.0,448.8 L 541.3,450.7 L 541.4,452.0 L 541.4,454.2 L 541.3,456.3 L 541.1,458.6 L 540.9,460.1 L 540.9,461.4 L 540.4,463.9 L 539.9,465.6 L 539.6,466.9 L 539.1,468.5 L 538.6,469.8 L 537.8,471.6 L 536.9,473.8 L 536.1,475.5 L 535.2,477.1 L 534.2,479.0 L 533.4,480.6 L 532.2,482.7 L 531.5,484.0 L 530.2,486.1 L 529.4,487.5 L 528.4,489.1 L 527.1,490.8 L 502.5,522.3 L 494.2,532.9 L 492.8,534.8 L 491.6,536.5 L 490.7,538.1 L 489.7,540.0 L 489.0,541.6 L 488.6,543.0 L 488.2,544.7 L 487.9,545.8 L 487.6,547.4 L 487.5,548.4 L 487.2,549.8 L 487.2,550.9 L 487.2,551.7 L 487.1,552.7 L 487.1,553.8 L 487.1,555.2 L 487.0,577.4 L 487.1,579.2 L 487.1,581.6 L 487.2,583.8 L 487.2,585.5 L 487.0,587.3 L 486.9,589.0 L 486.6,590.6 L 486.4,592.3 L 485.9,593.9 L 485.3,596.6 L 484.4,598.8 L 483.8,600.1 L 483.1,601.5 L 480.6,605.5 L 472.7,616.0 L 457.0,637.2 L 409.7,700.9 L 403.5,709.3 L 393.4,722.9 L 376.0,746.4 L 358.6,769.8 L 355.1,774.8 L 350.8,781.1 L 348.2,785.6 L 346.7,788.0 L 345.6,790.1 L 344.5,792.1 L 343.7,794.1 L 342.9,796.1 L 342.2,798.0 L 341.6,799.8 L 341.1,801.6 L 340.6,804.0 L 340.2,806.3 L 339.8,808.7 L 339.6,811.1 L 339.5,813.3 L 339.6,815.3 L 339.6,815.7 L 339.6,817.2 L 339.8,818.7 L 340.0,820.0 L 340.5,822.4 L 341.0,824.2 L 341.4,825.5 L 342.1,827.2 L 342.8,828.9 L 343.5,830.5 L 344.1,831.7 L 344.9,833.1 L 345.7,834.7 L 347.0,836.7 L 348.0,838.2 L 349.1,839.6 L 350.6,841.1 L 352.4,842.9 L 353.9,844.2 L 355.7,845.5 L 357.6,846.8 L 359.5,848.0 L 361.5,849.1 L 363.0,849.7 L 365.1,850.7 L 367.0,851.4 L 368.8,851.9 L 370.8,852.4 L 372.9,852.8 L 374.9,853.1 L 376.8,853.2 L 378.9,853.3 L 380.8,853.3 L 382.5,853.2 L 385.0,852.9 L 387.9,852.4 L 390.5,851.7 L 393.2,850.9 L 395.3,850.2 L 397.1,849.5 L 399.8,848.3 L 402.0,847.2 L 404.1,845.9 L 406.0,844.7 L 407.5,843.6 L 409.4,842.3 L 411.2,840.8 L 412.7,839.7 L 414.1,838.3 L 415.8,836.8 L 417.4,835.3 L 419.3,833.3 L 420.2,832.2 L 420.4,831.9 L 421.1,831.1 L 422.4,829.6 L 423.3,828.4 L 424.6,826.7 L 426.4,824.4 L 427.6,822.8 L 428.8,820.9 L 430.0,819.0 L 431.1,817.2 L 432.2,815.4 L 433.2,813.4 L 434.7,810.4 L 441.1,797.2 L 447.8,781.9 L 454.5,766.6 L 458.7,757.4 L 467.1,739.9 L 562.3,527.1 L 597.7,450.2 Z" fill="none" stroke="#e7edf8" stroke-width="2.6" stroke-linejoin="round" stroke-linecap="round"/>
<path d="M 597.7,450.2 L 605.9,435.0 L 619.6,410.1 L 639.1,378.0 L 658.9,343.7 L 677.5,306.0 L 683.4,292.4 L 692.0,271.4 L 704.8,239.8 L 714.8,213.4 L 719.4,200.7 L 721.9,193.9 L 722.8,191.6 L 723.7,189.4 L 724.7,187.3 L 725.8,185.5 L 727.0,183.6 L 728.1,181.7 L 729.0,180.2 L 730.2,178.7 L 731.7,177.0 L 733.3,175.7 L 734.9,174.3 L 736.7,173.0 L 738.8,171.7 L 740.7,170.9 L 742.7,170.1 L 744.8,169.4 L 746.5,168.9 L 748.4,168.6 L 750.1,168.2 L 752.2,168.0 L 754.5,168.0 L 756.6,168.2 L 758.4,168.5 L 760.2,168.9 L 761.8,169.5 L 762.7,169.8 L 763.8,170.2 L 765.5,171.0 L 766.9,171.6 L 768.1,172.4 L 769.2,173.2 L 770.5,174.4 L 771.4,175.2 L 772.5,176.0 L 773.3,176.9 L 774.2,177.7 L 774.9,178.4 L 775.5,179.3 L 776.3,180.3 L 777.0,181.3 L 777.8,182.5 L 778.5,183.7 L 779.1,184.7 L 779.7,185.9 L 780.2,187.0 L 780.7,188.3 L 781.1,189.7 L 781.6,191.3 L 782.0,192.8 L 782.2,193.9 L 782.5,195.0 L 782.7,196.0 L 783.0,197.3 L 783.2,199.5 L 783.3,200.9 L 783.3,202.1 L 783.4,203.1 L 783.4,203.9 L 783.4,204.6 L 783.4,205.4 L 783.4,206.9 L 783.3,208.3 L 783.2,209.4 L 783.1,210.7 L 783.0,212.0 L 782.8,213.3 L 782.6,214.8 L 782.5,216.1 L 782.4,217.0 L 781.9,220.4 L 772.2,267.6 L 771.8,270.0 L 771.4,272.0 L 771.1,273.7 L 770.9,275.2 L 770.7,276.8 L 770.6,278.5 L 770.6,280.0 L 770.7,281.4 L 770.9,282.9 L 771.3,284.7 L 771.7,286.4 L 772.3,287.6 L 772.8,288.9 L 773.5,290.5 L 774.4,292.0 L 775.3,293.5 L 776.5,295.0 L 777.8,296.4 L 779.2,297.6 L 781.7,299.7 L 783.4,300.8 L 784.8,301.8 L 809.0,315.9 L 811.0,317.3 L 813.3,319.0 L 814.6,320.2 L 816.1,321.7 L 818.0,323.5 L 819.2,324.9 L 820.6,326.6 L 821.8,328.4 L 822.4,329.6 L 822.8,330.3 L 823.3,331.2 L 824.2,333.3 L 824.8,335.1 L 825.4,337.1 L 826.0,338.9 L 826.5,341.1 L 826.7,342.8 L 827.0,344.4 L 827.1,346.3 L 827.0,348.6 L 827.0,350.7 L 826.8,352.4 L 826.5,354.1 L 826.1,356.2 L 825.4,358.7 L 824.4,361.8 L 823.4,364.5 L 822.1,366.8 L 821.0,368.7 L 772.3,441.1 L 750.4,474.2 L 734.7,497.7 L 722.1,516.8 L 721.2,518.4 L 720.3,519.7 L 719.1,521.5 L 718.3,522.9 L 717.5,524.2 L 716.4,526.3 L 715.7,527.6 L 715.0,529.0 L 714.4,530.6 L 713.9,532.3 L 713.6,533.7 L 713.3,535.2 L 713.2,536.6 L 713.1,537.9 L 713.2,539.7 L 713.4,541.2 L 713.6,542.9 L 713.8,543.9 L 714.2,546.0 L 715.0,548.3 L 715.9,550.7 L 717.0,553.2 L 728.9,577.0 L 729.7,579.2 L 730.4,581.2 L 730.8,582.9 L 731.2,584.6 L 731.4,586.1 L 731.5,588.0 L 731.6,589.8 L 731.6,592.2 L 731.6,594.1 L 731.3,596.3 L 730.9,597.7 L 730.7,599.3 L 730.2,600.8 L 729.6,602.5 L 728.9,603.9 L 728.1,605.3 L 727.5,606.5 L 726.4,608.2 L 725.2,610.2 L 723.8,612.1 L 722.5,613.6 L 721.6,614.7 L 720.8,615.7 L 675.0,671.9 L 629.0,727.4 L 623.6,734.3 L 622.6,735.6 L 621.8,736.6 L 620.8,737.8 L 619.8,738.9 L 618.9,739.8 L 617.6,741.0 L 616.4,742.0 L 615.2,743.0 L 614.1,743.9 L 612.8,744.7 L 611.3,745.5 L 609.8,746.3 L 608.3,746.9 L 607.0,747.4 L 605.9,747.9 L 604.5,748.3 L 603.3,748.6 L 602.1,748.9 L 600.8,749.1 L 599.7,749.3 L 598.6,749.4 L 597.3,749.5 L 595.7,749.6 L 594.6,749.7 L 593.2,749.7 L 591.8,749.7 L 590.5,749.6 L 589.2,749.5 L 587.9,749.5 L 557.3,748.5 L 554.8,748.6 L 552.3,748.7 L 549.4,748.8 L 546.3,749.0 L 544.5,749.2 L 542.7,749.4 L 541.3,749.6 L 539.7,749.8 L 538.2,750.1 L 536.7,750.4 L 535.4,750.8 L 534.1,751.1 L 532.5,751.6 L 531.3,752.0 L 530.0,752.5 L 528.6,753.1 L 527.2,753.8 L 525.8,754.4 L 524.2,755.4 L 522.6,756.3 L 520.9,757.2 L 519.4,758.1 L 517.9,759.1 L 516.4,760.1 L 514.9,761.2 L 513.6,762.5 L 512.3,763.7 L 511.0,765.1 L 509.8,766.4 L 508.6,767.8 L 507.5,769.3 L 506.4,770.8 L 505.6,772.3 L 504.5,774.0 L 503.7,775.3 L 502.6,777.0 L 501.8,778.7 L 501.1,780.0 L 500.2,781.9 L 499.1,784.2 L 495.0,793.9 L 491.7,803.8 L 489.6,810.1 L 487.9,815.7 L 484.8,824.9 L 476.1,850.2 L 473.4,858.1 L 471.1,864.1 L 468.6,869.9 L 467.7,873.0 L 466.7,875.2 L 465.3,877.7 L 464.2,879.7 L 462.9,881.7 L 461.6,883.5 L 460.3,885.4 L 458.9,887.3 L 457.3,889.2 L 455.7,890.8 L 454.3,892.4 L 452.3,894.3 L 450.3,896.0 L 448.5,897.4 L 446.1,899.1 L 444.1,900.3 L 442.2,901.4 L 440.0,902.6 L 438.0,903.6 L 435.9,904.8 L 433.5,905.9 L 431.1,906.8 L 428.8,907.6 L 426.4,908.4 L 424.1,908.9 L 421.9,909.3 L 419.2,909.6 L 416.7,909.9 L 414.2,910.0 L 411.5,910.0 L 408.9,909.9 L 406.7,909.7 L 404.1,909.5 L 401.8,909.2 L 399.3,908.8 L 397.0,908.4 L 394.5,907.8 L 391.7,906.9 L 389.1,906.2 L 384.6,904.7 L 379.9,903.0 L 376.8,901.7 L 374.0,900.5 L 370.7,899.0 L 368.7,898.1 L 365.8,896.6 L 363.5,895.5 L 360.9,894.3 L 357.7,892.6 L 356.2,891.8 L 354.1,890.8 L 351.5,889.4 L 348.0,887.4 L 345.5,886.1 L 343.1,884.8 L 340.3,883.3 L 337.9,882.1 L 335.4,880.7 L 332.3,878.9 L 330.1,877.5 L 327.6,876.0 L 324.8,874.2 L 322.9,872.9 L 321.0,871.3 L 318.5,869.2 L 316.3,867.1 L 314.7,865.2 L 313.2,863.4 L 311.7,861.4 L 310.1,858.7 L 308.7,856.1 L 307.3,853.2 L 306.4,850.7 L 305.6,848.5 L 304.7,845.5 L 304.2,843.5 L 303.8,841.3 L 303.4,838.9 L 303.1,835.7 L 303.0,833.3 L 302.9,830.7 L 302.9,827.4 L 303.2,823.4 L 303.3,820.8 L 303.4,819.4 L 303.6,817.8 L 303.9,816.2 L 304.1,814.2 L 304.5,811.3 L 305.1,807.6 L 305.9,803.9 L 322.0,720.5 L 325.1,703.6 L 331.4,671.3 L 331.8,669.6 L 332.2,667.7 L 332.7,665.7 L 333.1,664.5 L 333.5,663.4 L 334.1,661.8 L 335.2,659.6 L 336.3,657.9 L 338.0,656.0 L 339.5,654.4 L 341.4,652.7 L 343.3,651.3 L 345.3,650.0 L 346.9,649.1 L 348.4,648.3 L 350.2,647.6 L 352.1,646.9 L 354.0,646.5 L 356.0,646.1 L 357.6,645.9 L 359.5,645.8 L 361.8,645.7 L 388.5,645.5 L 390.9,645.3 L 393.2,645.2 L 395.9,644.9 L 398.4,644.3 L 400.7,643.6 L 403.0,642.7 L 405.0,641.8 L 407.3,640.5 L 409.7,638.8 L 411.8,637.0 L 413.5,635.5 L 415.2,633.7 L 416.7,632.0 L 418.3,629.6 L 419.8,627.2 L 420.8,625.1 L 421.5,623.1 L 422.2,621.4 L 422.7,619.9 L 423.6,616.9 L 444.8,543.1 L 448.9,528.6 L 451.7,518.9 L 459.6,491.7 L 467.3,464.8 L 470.9,452.1 L 472.1,448.4 L 473.1,445.9 L 473.9,443.8 L 474.9,441.5 L 475.8,439.9 L 476.5,438.6 L 477.5,436.9 L 478.4,435.4 L 479.5,433.8 L 480.8,432.2 L 481.8,431.1 L 482.8,430.1 L 483.9,429.0 L 485.3,427.6 L 486.3,426.7 L 487.3,426.0 L 488.3,425.2 L 489.7,424.3 L 491.2,423.5 L 492.6,422.8 L 494.2,422.1 L 495.8,421.4 L 497.4,420.9 L 499.3,420.4 L 501.2,419.9 L 502.4,419.8 L 503.3,419.6 L 504.8,419.4 L 506.6,419.2 L 508.1,419.1 L 509.6,419.2 L 510.9,419.2 L 512.2,419.2 L 513.9,419.5 L 515.2,419.8 L 516.8,420.1 L 518.0,420.6 L 519.7,421.3 L 521.1,422.0 L 522.7,422.7 L 524.0,423.5 L 525.3,424.2 L 526.5,425.1 L 527.8,426.0 L 529.0,427.0 L 530.4,428.2 L 531.4,429.3 L 532.6,430.6 L 534.2,432.3 L 535.4,434.0 L 536.5,435.9 L 537.9,438.5 L 538.7,440.4 L 539.5,442.6 L 540.2,444.6 L 540.8,447.1 L 541.0,448.8 L 541.3,450.7 L 541.4,452.0 L 541.4,454.2 L 541.3,456.3 L 541.1,458.6 L 540.9,460.1 L 540.9,461.4 L 540.4,463.9 L 539.9,465.6 L 539.6,466.9 L 539.1,468.5 L 538.6,469.8 L 537.8,471.6 L 536.9,473.8 L 536.1,475.5 L 535.2,477.1 L 534.2,479.0 L 533.4,480.6 L 532.2,482.7 L 531.5,484.0 L 530.2,486.1 L 529.4,487.5 L 528.4,489.1 L 527.1,490.8 L 502.5,522.3 L 494.2,532.9 L 492.8,534.8 L 491.6,536.5 L 490.7,538.1 L 489.7,540.0 L 489.0,541.6 L 488.6,543.0 L 488.2,544.7 L 487.9,545.8 L 487.6,547.4 L 487.5,548.4 L 487.2,549.8 L 487.2,550.9 L 487.2,551.7 L 487.1,552.7 L 487.1,553.8 L 487.1,555.2 L 487.0,577.4 L 487.1,579.2 L 487.1,581.6 L 487.2,583.8 L 487.2,585.5 L 487.0,587.3 L 486.9,589.0 L 486.6,590.6 L 486.4,592.3 L 485.9,593.9 L 485.3,596.6 L 484.4,598.8 L 483.8,600.1 L 483.1,601.5 L 480.6,605.5 L 472.7,616.0 L 457.0,637.2 L 409.7,700.9 L 403.5,709.3 L 393.4,722.9 L 376.0,746.4 L 358.6,769.8 L 355.1,774.8 L 350.8,781.1 L 348.2,785.6 L 346.7,788.0 L 345.6,790.1 L 344.5,792.1 L 343.7,794.1 L 342.9,796.1 L 342.2,798.0 L 341.6,799.8 L 341.1,801.6 L 340.6,804.0 L 340.2,806.3 L 339.8,808.7 L 339.6,811.1 L 339.5,813.3 L 339.6,815.3 L 339.6,815.7 L 339.6,817.2 L 339.8,818.7 L 340.0,820.0 L 340.5,822.4 L 341.0,824.2 L 341.4,825.5 L 342.1,827.2 L 342.8,828.9 L 343.5,830.5 L 344.1,831.7 L 344.9,833.1 L 345.7,834.7 L 347.0,836.7 L 348.0,838.2 L 349.1,839.6 L 350.6,841.1 L 352.4,842.9 L 353.9,844.2 L 355.7,845.5 L 357.6,846.8 L 359.5,848.0 L 361.5,849.1 L 363.0,849.7 L 365.1,850.7 L 367.0,851.4 L 368.8,851.9 L 370.8,852.4 L 372.9,852.8 L 374.9,853.1 L 376.8,853.2 L 378.9,853.3 L 380.8,853.3 L 382.5,853.2 L 385.0,852.9 L 387.9,852.4 L 390.5,851.7 L 393.2,850.9 L 395.3,850.2 L 397.1,849.5 L 399.8,848.3 L 402.0,847.2 L 404.1,845.9 L 406.0,844.7 L 407.5,843.6 L 409.4,842.3 L 411.2,840.8 L 412.7,839.7 L 414.1,838.3 L 415.8,836.8 L 417.4,835.3 L 419.3,833.3 L 420.2,832.2 L 420.4,831.9 L 421.1,831.1 L 422.4,829.6 L 423.3,828.4 L 424.6,826.7 L 426.4,824.4 L 427.6,822.8 L 428.8,820.9 L 430.0,819.0 L 431.1,817.2 L 432.2,815.4 L 433.2,813.4 L 434.7,810.4 L 441.1,797.2 L 447.8,781.9 L 454.5,766.6 L 458.7,757.4 L 467.1,739.9 L 562.3,527.1 L 597.7,450.2 Z" fill="none" stroke="#ff5a36" stroke-opacity="0.55" stroke-width="1.2" stroke-linejoin="round" filter="url(#glow)"/>
<circle cx="597.7" cy="450.2" r="13" fill="none" stroke="#ffffff" stroke-width="3"/>
<rect x="593.7" y="428.2" width="8" height="18" fill="#ffffff"/>
<circle cx="777.0" cy="244.2" r="7" fill="#ff5a36" stroke="#0a0c12" stroke-width="2.5" filter="url(#glow)"/>
<text x="777.0" y="247.6" font-size="9" font-weight="700" fill="#0a0c12" text-anchor="middle">1</text>
<circle cx="826.0" cy="338.8" r="7" fill="#ff5a36" stroke="#0a0c12" stroke-width="2.5" filter="url(#glow)"/>
<text x="826.0" y="342.2" font-size="9" font-weight="700" fill="#0a0c12" text-anchor="middle">2</text>
<circle cx="783.5" cy="424.5" r="7" fill="#ff5a36" stroke="#0a0c12" stroke-width="2.5" filter="url(#glow)"/>
<text x="783.5" y="427.9" font-size="9" font-weight="700" fill="#0a0c12" text-anchor="middle">3</text>
<circle cx="731.1" cy="596.9" r="7" fill="#ff5a36" stroke="#0a0c12" stroke-width="2.5" filter="url(#glow)"/>
<text x="731.1" y="600.3" font-size="9" font-weight="700" fill="#0a0c12" text-anchor="middle">4</text>
<circle cx="728.6" cy="597.6" r="7" fill="#ff5a36" stroke="#0a0c12" stroke-width="2.5" filter="url(#glow)"/>
<text x="728.6" y="601.0" font-size="9" font-weight="700" fill="#0a0c12" text-anchor="middle">5</text>
<circle cx="539.9" cy="749.8" r="7" fill="#ff5a36" stroke="#0a0c12" stroke-width="2.5" filter="url(#glow)"/>
<text x="539.9" y="753.2" font-size="9" font-weight="700" fill="#0a0c12" text-anchor="middle">6</text>
<circle cx="482.6" cy="831.4" r="7" fill="#ff5a36" stroke="#0a0c12" stroke-width="2.5" filter="url(#glow)"/>
<text x="482.6" y="834.8" font-size="9" font-weight="700" fill="#0a0c12" text-anchor="middle">7</text>
<circle cx="363.8" cy="895.7" r="7" fill="#ff5a36" stroke="#0a0c12" stroke-width="2.5" filter="url(#glow)"/>
<text x="363.8" y="899.1" font-size="9" font-weight="700" fill="#0a0c12" text-anchor="middle">8</text>
<circle cx="313.5" cy="764.4" r="7" fill="#ff5a36" stroke="#0a0c12" stroke-width="2.5" filter="url(#glow)"/>
<text x="313.5" y="767.8" font-size="9" font-weight="700" fill="#0a0c12" text-anchor="middle">9</text>
<circle cx="414.2" cy="634.8" r="7" fill="#ff5a36" stroke="#0a0c12" stroke-width="2.5" filter="url(#glow)"/>
<text x="414.2" y="638.2" font-size="9" font-weight="700" fill="#0a0c12" text-anchor="middle">10</text>
<circle cx="441.4" cy="554.8" r="7" fill="#ff5a36" stroke="#0a0c12" stroke-width="2.5" filter="url(#glow)"/>
<text x="441.4" y="558.2" font-size="9" font-weight="700" fill="#0a0c12" text-anchor="middle">11</text>
<circle cx="526.5" cy="491.5" r="7" fill="#ff5a36" stroke="#0a0c12" stroke-width="2.5" filter="url(#glow)"/>
<text x="526.5" y="494.9" font-size="9" font-weight="700" fill="#0a0c12" text-anchor="middle">12</text>
<circle cx="472.5" cy="616.3" r="7" fill="#ff5a36" stroke="#0a0c12" stroke-width="2.5" filter="url(#glow)"/>
<text x="472.5" y="619.7" font-size="9" font-weight="700" fill="#0a0c12" text-anchor="middle">13</text>
<circle cx="435.1" cy="666.6" r="7" fill="#ff5a36" stroke="#0a0c12" stroke-width="2.5" filter="url(#glow)"/>
<text x="435.1" y="670.0" font-size="9" font-weight="700" fill="#0a0c12" text-anchor="middle">14</text>
<circle cx="431.3" cy="816.9" r="7" fill="#ff5a36" stroke="#0a0c12" stroke-width="2.5" filter="url(#glow)"/>
<text x="431.3" y="820.3" font-size="9" font-weight="700" fill="#0a0c12" text-anchor="middle">15</text>
<line x1="777.0" y1="244.2" x2="806.2" y2="201.1" stroke="#ff5a36" stroke-opacity="0.45" stroke-width="1.3"/>
<text x="814.2" y="205.1" font-size="15" font-weight="600" fill="#eef2fb" text-anchor="start">San Donato</text>
<line x1="826.0" y1="338.8" x2="864.7" y2="304.1" stroke="#ff5a36" stroke-opacity="0.45" stroke-width="1.3"/>
<text x="872.7" y="308.1" font-size="15" font-weight="600" fill="#eef2fb" text-anchor="start">Luco</text>
<line x1="783.5" y1="424.5" x2="826.0" y2="394.7" stroke="#ff5a36" stroke-opacity="0.45" stroke-width="1.3"/>
<text x="834.0" y="398.7" font-size="15" font-weight="600" fill="#eef2fb" text-anchor="start">Poggio Secco</text>
<line x1="731.1" y1="596.9" x2="783.1" y2="597.2" stroke="#ff5a36" stroke-opacity="0.45" stroke-width="1.3"/>
<text x="791.1" y="601.2" font-size="15" font-weight="600" fill="#eef2fb" text-anchor="start">Materassi</text>
<line x1="728.6" y1="597.6" x2="780.6" y2="629.2" stroke="#ff5a36" stroke-opacity="0.45" stroke-width="1.3"/>
<text x="788.6" y="633.2" font-size="15" font-weight="600" fill="#eef2fb" text-anchor="start">Borgo San Lorenzo</text>
<line x1="539.9" y1="749.8" x2="540.1" y2="801.8" stroke="#ff5a36" stroke-opacity="0.45" stroke-width="1.3"/>
<text x="548.1" y="805.8" font-size="15" font-weight="600" fill="#eef2fb" text-anchor="start">Casanova</text>
<line x1="482.6" y1="831.4" x2="470.4" y2="895.7" stroke="#ff5a36" stroke-opacity="0.45" stroke-width="1.3"/>
<text x="462.4" y="899.7" font-size="15" font-weight="600" fill="#eef2fb" text-anchor="end">Savelli</text>
<line x1="313.5" y1="764.4" x2="271.8" y2="795.6" stroke="#ff5a36" stroke-opacity="0.45" stroke-width="1.3"/>
<text x="263.8" y="799.6" font-size="15" font-weight="600" fill="#eef2fb" text-anchor="end">Arrabbiata</text>
<line x1="414.2" y1="634.8" x2="364.5" y2="650.3" stroke="#ff5a36" stroke-opacity="0.45" stroke-width="1.3"/>
<text x="356.5" y="654.3" font-size="15" font-weight="600" fill="#eef2fb" text-anchor="end">Scarperia</text>
<line x1="441.4" y1="554.8" x2="393.4" y2="534.8" stroke="#ff5a36" stroke-opacity="0.45" stroke-width="1.3"/>
<text x="385.4" y="538.8" font-size="15" font-weight="600" fill="#eef2fb" text-anchor="end">Palagio</text>
<line x1="526.5" y1="491.5" x2="520.2" y2="439.9" stroke="#ff5a36" stroke-opacity="0.45" stroke-width="1.3"/>
<text x="512.2" y="443.9" font-size="15" font-weight="600" fill="#eef2fb" text-anchor="end">Correntaio</text>
<line x1="435.1" y1="666.6" x2="392.2" y2="695.9" stroke="#ff5a36" stroke-opacity="0.45" stroke-width="1.3"/>
<text x="384.2" y="699.9" font-size="15" font-weight="600" fill="#eef2fb" text-anchor="end">Biondetti</text>
<line x1="431.3" y1="816.9" x2="408.5" y2="863.7" stroke="#ff5a36" stroke-opacity="0.45" stroke-width="1.3"/>
<text x="400.5" y="867.7" font-size="15" font-weight="600" fill="#eef2fb" text-anchor="end">Bucine</text>
<text x="90" y="64" font-size="20" letter-spacing="5" fill="#ff5a36" font-weight="700">TRACK ATLAS</text>
<text x="90" y="108" font-size="42" font-weight="800" fill="#ffffff">AUTODROMO INTERNAZIONALE DEL MUGELLO</text>
<text x="90" y="136" font-size="16" fill="#9aa6bd">Mugello</text>
<rect x="1170" y="200" width="360" height="710" rx="16" fill="#ffffff" fill-opacity="0.04" stroke="#ff5a36" stroke-opacity="0.5"/>
<text x="1198" y="250" font-size="13" letter-spacing="2" fill="#8794ab">LAYOUT</text>
<text x="1198" y="276" font-size="22" font-weight="700" fill="#eef2fb">Grand Prix Circuit</text>
<text x="1198" y="320" font-size="13" letter-spacing="2" fill="#8794ab">LENGTH</text>
<text x="1198" y="346" font-size="22" font-weight="700" fill="#eef2fb">5.245 km</text>
<text x="1198" y="390" font-size="13" letter-spacing="2" fill="#8794ab">CORNERS</text>
<text x="1198" y="416" font-size="22" font-weight="700" fill="#eef2fb">15</text>
<text x="1198" y="460" font-size="13" letter-spacing="2" fill="#8794ab">NAMED CORNERS</text>
<text x="1198" y="486" font-size="22" font-weight="700" fill="#eef2fb">15</text>
<text x="1198" y="530" font-size="13" letter-spacing="2" fill="#8794ab">DIRECTION</text>
<text x="1198" y="556" font-size="22" font-weight="700" fill="#eef2fb">Clockwise</text>
<text x="1198" y="600" font-size="13" letter-spacing="2" fill="#8794ab">SECTORS</text>
<text x="1198" y="626" font-size="22" font-weight="700" fill="#eef2fb">3</text>
<text x="1198" y="670" font-size="13" letter-spacing="2" fill="#8794ab">COUNTRY</text>
<text x="1198" y="696" font-size="22" font-weight="700" fill="#eef2fb">Italy</text>
<text x="1198" y="740" font-size="13" letter-spacing="2" fill="#8794ab">LOCATION</text>
<text x="1198" y="766" font-size="22" font-weight="700" fill="#eef2fb">Scarperia e San Piero</text>
<text x="1198" y="810" font-size="13" letter-spacing="2" fill="#8794ab">COMPLEXES</text>
<rect x="1198" y="816" width="94" height="24" rx="12" fill="#ff5a36" fill-opacity="0.16" stroke="#ff5a36" stroke-opacity="0.5"/>
<text x="1245" y="833" font-size="12" fill="#eef2fb" text-anchor="middle">Arrabbiata</text>
<rect x="1302" y="816" width="86" height="24" rx="12" fill="#ff5a36" fill-opacity="0.16" stroke="#ff5a36" stroke-opacity="0.5"/>
<text x="1345" y="833" font-size="12" fill="#eef2fb" text-anchor="middle">Biondetti</text>
<text x="90" y="966" font-size="12" fill="#566177">Geometry © OpenStreetMap contributors (ODbL) · corner data: Lovely-Sim-Racing + curated · track-atlas</text>
<text x="90" y="942" font-size="12" fill="#8794ab">⚑ start / finish</text>
</svg>