<svg xmlns="http://www.w3.org/2000/svg" width="1600" height="1000" viewBox="0 0 1600 1000" font-family="Helvetica, Arial, sans-serif">
<defs>
      <radialGradient id="bg" cx="38%" cy="34%" r="85%">
        <stop offset="0%" stop-color="#1b2030"/>
        <stop offset="55%" stop-color="#12151f"/>
        <stop offset="100%" stop-color="#0a0c12"/>
      </radialGradient>
      <linearGradient id="accent" x1="0" y1="0" x2="1" y2="1">
        <stop offset="0%" stop-color="#ff5a36"/>
        <stop offset="100%" stop-color="#ffffff"/>
      </linearGradient>
      <filter id="glow" x="-40%" y="-40%" width="180%" height="180%">
        <feGaussianBlur stdDeviation="6" result="b"/>
        <feMerge><feMergeNode in="b"/><feMergeNode in="SourceGraphic"/></feMerge>
      </filter>
    </defs>
<rect width="1600" height="1000" fill="url(#bg)"/>
<line x1="0" y1="0" x2="0" y2="1000" stroke="#ffffff" stroke-opacity="0.025"/>
<line x1="56" y1="0" x2="56" y2="1000" stroke="#ffffff" stroke-opacity="0.025"/>
<line x1="112" y1="0" x2="112" y2="1000" stroke="#ffffff" stroke-opacity="0.025"/>
<line x1="168" y1="0" x2="168" y2="1000" stroke="#ffffff" stroke-opacity="0.025"/>
<line x1="224" y1="0" x2="224" y2="1000" stroke="#ffffff" stroke-opacity="0.025"/>
<line x1="280" y1="0" x2="280" y2="1000" stroke="#ffffff" stroke-opacity="0.025"/>
<line x1="336" y1="0" x2="336" y2="1000" stroke="#ffffff" stroke-opacity="0.025"/>
<line x1="392" y1="0" x2="392" y2="1000" stroke="#ffffff" stroke-opacity="0.025"/>
<line x1="448" y1="0" x2="448" y2="1000" stroke="#ffffff" stroke-opacity="0.025"/>
<line x1="504" y1="0" x2="504" y2="1000" stroke="#ffffff" stroke-opacity="0.025"/>
<line x1="560" y1="0" x2="560" y2="1000" stroke="#ffffff" stroke-opacity="0.025"/>
<line x1="616" y1="0" x2="616" y2="1000" stroke="#ffffff" stroke-opacity="0.025"/>
<line x1="672" y1="0" x2="672" y2="1000" stroke="#ffffff" stroke-opacity="0.025"/>
<line x1="728" y1="0" x2="728" y2="1000" stroke="#ffffff" stroke-opacity="0.025"/>
<line x1="784" y1="0" x2="784" y2="1000" stroke="#ffffff" stroke-opacity="0.025"/>
<line x1="840" y1="0" x2="840" y2="1000" stroke="#ffffff" stroke-opacity="0.025"/>
<line x1="896" y1="0" x2="896" y2="1000" stroke="#ffffff" stroke-opacity="0.025"/>
<line x1="952" y1="0" x2="952" y2="1000" stroke="#ffffff" stroke-opacity="0.025"/>
<line x1="1008" y1="0" x2="1008" y2="1000" stroke="#ffffff" stroke-opacity="0.025"/>
<line x1="1064" y1="0" x2="1064" y2="1000" stroke="#ffffff" stroke-opacity="0.025"/>
<line x1="1120" y1="0" x2="1120" y2="1000" stroke="#ffffff" stroke-opacity="0.025"/>
<line x1="1176" y1="0" x2="1176" y2="1000" stroke="#ffffff" stroke-opacity="0.025"/>
<line x1="1232" y1="0" x2="1232" y2="1000" stroke="#ffffff" stroke-opacity="0.025"/>
<line x1="1288" y1="0" x2="1288" y2="1000" stroke="#ffffff" stroke-opacity="0.025"/>
<line x1="1344" y1="0" x2="1344" y2="1000" stroke="#ffffff" stroke-opacity="0.025"/>
<line x1="1400" y1="0" x2="1400" y2="1000" stroke="#ffffff" stroke-opacity="0.025"/>
<line x1="1456" y1="0" x2="1456" y2="1000" stroke="#ffffff" stroke-opacity="0.025"/>
<line x1="1512" y1="0" x2="1512" y2="1000" stroke="#ffffff" stroke-opacity="0.025"/>
<line x1="1568" y1="0" x2="1568" y2="1000" stroke="#ffffff" stroke-opacity="0.025"/>
<line x1="0" y1="0" x2="1600" y2="0" stroke="#ffffff" stroke-opacity="0.025"/>
<line x1="0" y1="56" x2="1600" y2="56" stroke="#ffffff" stroke-opacity="0.025"/>
<line x1="0" y1="112" x2="1600" y2="112" stroke="#ffffff" stroke-opacity="0.025"/>
<line x1="0" y1="168" x2="1600" y2="168" stroke="#ffffff" stroke-opacity="0.025"/>
<line x1="0" y1="224" x2="1600" y2="224" stroke="#ffffff" stroke-opacity="0.025"/>
<line x1="0" y1="280" x2="1600" y2="280" stroke="#ffffff" stroke-opacity="0.025"/>
<line x1="0" y1="336" x2="1600" y2="336" stroke="#ffffff" stroke-opacity="0.025"/>
<line x1="0" y1="392" x2="1600" y2="392" stroke="#ffffff" stroke-opacity="0.025"/>
<line x1="0" y1="448" x2="1600" y2="448" stroke="#ffffff" stroke-opacity="0.025"/>
<line x1="0" y1="504" x2="1600" y2="504" stroke="#ffffff" stroke-opacity="0.025"/>
<line x1="0" y1="560" x2="1600" y2="560" stroke="#ffffff" stroke-opacity="0.025"/>
<line x1="0" y1="616" x2="1600" y2="616" stroke="#ffffff" stroke-opacity="0.025"/>
<line x1="0" y1="672" x2="1600" y2="672" stroke="#ffffff" stroke-opacity="0.025"/>
<line x1="0" y1="728" x2="1600" y2="728" stroke="#ffffff" stroke-opacity="0.025"/>
<line x1="0" y1="784" x2="1600" y2="784" stroke="#ffffff" stroke-opacity="0.025"/>
<line x1="0" y1="840" x2="1600" y2="840" stroke="#ffffff" stroke-opacity="0.025"/>
<line x1="0" y1="896" x2="1600" y2="896" stroke="#ffffff" stroke-opacity="0.025"/>
<line x1="0" y1="952" x2="1600" y2="952" stroke="#ffffff" stroke-opacity="0.025"/>
<path d="M 986.9,90.0 C 1123.4,0.8 990.0,126.1 961.8,179.3 C 933.6,232.4 837.2,345.7 817.8,409.0 C 798.4,472.2 862.5,527.2 845.5,558.6 C 828.5,589.9 754.9,605.4 715.9,597.0 C 677.0,588.7 632.4,508.4 611.9,508.7 C 591.5,509.0 599.1,558.6 593.1,599.1 C 587.2,639.5 590.4,708.7 576.1,751.4 C 561.8,794.1 544.8,829.2 507.3,855.2 C 469.7,881.1 382.1,897.9 350.9,907.1 C 319.8,916.2 335.2,912.7 320.4,910.0 C 305.6,907.3 271.5,908.9 261.9,891.0 C 252.4,873.2 256.5,825.4 263.3,803.0 C 270.1,780.6 303.9,773.7 302.7,756.8 C 301.5,740.0 282.8,709.0 256.2,702.0 C 229.6,694.9 21.3,816.4 143.1,714.4 C 264.9,612.5 850.5,179.2 986.9,90.0 Z" fill="none" stroke="#000000" stroke-opacity="0.5" stroke-width="13" stroke-linejoin="round" stroke-linecap="round"/>
<path d="M 986.9,90.0 C 1123.4,0.8 990.0,126.1 961.8,179.3 C 933.6,232.4 837.2,345.7 817.8,409.0 C 798.4,472.2 862.5,527.2 845.5,558.6 C 828.5,589.9 754.9,605.4 715.9,597.0 C 677.0,588.7 632.4,508.4 611.9,508.7 C 591.5,509.0 599.1,558.6 593.1,599.1 C 587.2,639.5 590.4,708.7 576.1,751.4 C 561.8,794.1 544.8,829.2 507.3,855.2 C 469.7,881.1 382.1,897.9 350.9,907.1 C 319.8,916.2 335.2,912.7 320.4,910.0 C 305.6,907.3 271.5,908.9 261.9,891.0 C 252.4,873.2 256.5,825.4 263.3,803.0 C 270.1,780.6 303.9,773.7 302.7,756.8 C 301.5,740.0 282.8,709.0 256.2,702.0 C 229.6,694.9 21.3,816.4 143.1,714.4 C 264.9,612.5 850.5,179.2 986.9,90.0 Z" fill="none" stroke="#39404f" stroke-width="8.5" stroke-linejoin="round" stroke-linecap="round"/>
<path d="M 986.9,90.0 C 1123.4,0.8 990.0,126.1 961.8,179.3 C 933.6,232.4 837.2,345.7 817.8,409.0 C 798.4,472.2 862.5,527.2 845.5,558.6 C 828.5,589.9 754.9,605.4 715.9,597.0 C 677.0,588.7 632.4,508.4 611.9,508.7 C 591.5,509.0 599.1,558.6 593.1,599.1 C 587.2,639.5 590.4,708.7 576.1,751.4 C 561.8,794.1 544.8,829.2 507.3,855.2 C 469.7,881.1 382.1,897.9 350.9,907.1 C 319.8,916.2 335.2,912.7 320.4,910.0 C 305.6,907.3 271.5,908.9 261.9,891.0 C 252.4,873.2 256.5,825.4 263.3,803.0 C 270.1,780.6 303.9,773.7 302.7,756.8 C 301.5,740.0 282.8,709.0 256.2,702.0 C 229.6,694.9 21.3,816.4 143.1,714.4 C 264.9,612.5 850.5,179.2 986.9,90.0 Z" fill="none" stroke="#e7edf8" stroke-width="2.6" stroke-linejoin="round" stroke-linecap="round"/>
<path d="M 986.9,90.0 C 1123.4,0.8 990.0,126.1 961.8,179.3 C 933.6,232.4 837.2,345.7 817.8,409.0 C 798.4,472.2 862.5,527.2 845.5,558.6 C 828.5,589.9 754.9,605.4 715.9,597.0 C 677.0,588.7 632.4,508.4 611.9,508.7 C 591.5,509.0 599.1,558.6 593.1,599.1 C 587.2,639.5 590.4,708.7 576.1,751.4 C 561.8,794.1 544.8,829.2 507.3,855.2 C 469.7,881.1 382.1,897.9 350.9,907.1 C 319.8,916.2 335.2,912.7 320.4,910.0 C 305.6,907.3 271.5,908.9 261.9,891.0 C 252.4,873.2 256.5,825.4 263.3,803.0 C 270.1,780.6 303.9,773.7 302.7,756.8 C 301.5,740.0 282.8,709.0 256.2,702.0 C 229.6,694.9 21.3,816.4 143.1,714.4 C 264.9,612.5 850.5,179.2 986.9,90.0 Z" fill="none" stroke="#ff5a36" stroke-opacity="0.55" stroke-width="1.2" stroke-linejoin="round" filter="url(#glow)"/>
<circle cx="586.1" cy="358.7" r="13" fill="none" stroke="#ffffff" stroke-width="3"/>
<rect x="582.1" y="336.7" width="8" height="18" fill="#ffffff"/>
<circle cx="986.9" cy="90.0" r="7" fill="#ff5a36" stroke="#0a0c12" stroke-width="2.5" filter="url(#glow)"/>
<text x="986.9" y="93.4" font-size="9" font-weight="700" fill="#0a0c12" text-anchor="middle">1</text>
<circle cx="961.8" cy="179.3" r="7" fill="#ff5a36" stroke="#0a0c12" stroke-width="2.5" filter="url(#glow)"/>
<text x="961.8" y="182.7" font-size="9" font-weight="700" fill="#0a0c12" text-anchor="middle">2</text>
<circle cx="817.8" cy="409.0" r="7" fill="#ff5a36" stroke="#0a0c12" stroke-width="2.5" filter="url(#glow)"/>
<text x="817.8" y="412.4" font-size="9" font-weight="700" fill="#0a0c12" text-anchor="middle">3</text>
<circle cx="845.5" cy="558.6" r="7" fill="#ff5a36" stroke="#0a0c12" stroke-width="2.5" filter="url(#glow)"/>
<text x="845.5" y="562.0" font-size="9" font-weight="700" fill="#0a0c12" text-anchor="middle">4</text>
<circle cx="715.9" cy="597.0" r="7" fill="#ff5a36" stroke="#0a0c12" stroke-width="2.5" filter="url(#glow)"/>
<text x="715.9" y="600.4" font-size="9" font-weight="700" fill="#0a0c12" text-anchor="middle">5</text>
<circle cx="611.9" cy="508.7" r="7" fill="#ff5a36" stroke="#0a0c12" stroke-width="2.5" filter="url(#glow)"/>
<text x="611.9" y="512.1" font-size="9" font-weight="700" fill="#0a0c12" text-anchor="middle">6</text>
<circle cx="593.1" cy="599.1" r="7" fill="#ff5a36" stroke="#0a0c12" stroke-width="2.5" filter="url(#glow)"/>
<text x="593.1" y="602.5" font-size="9" font-weight="700" fill="#0a0c12" text-anchor="middle">7</text>
<circle cx="576.1" cy="751.4" r="7" fill="#ff5a36" stroke="#0a0c12" stroke-width="2.5" filter="url(#glow)"/>
<text x="576.1" y="754.8" font-size="9" font-weight="700" fill="#0a0c12" text-anchor="middle">8</text>
<circle cx="507.3" cy="855.2" r="7" fill="#ff5a36" stroke="#0a0c12" stroke-width="2.5" filter="url(#glow)"/>
<text x="507.3" y="858.6" font-size="9" font-weight="700" fill="#0a0c12" text-anchor="middle">9</text>
<circle cx="350.9" cy="907.1" r="7" fill="#ff5a36" stroke="#0a0c12" stroke-width="2.5" filter="url(#glow)"/>
<text x="350.9" y="910.5" font-size="9" font-weight="700" fill="#0a0c12" text-anchor="middle">10</text>
<circle cx="320.4" cy="910.0" r="7" fill="#ff5a36" stroke="#0a0c12" stroke-width="2.5" filter="url(#glow)"/>
<text x="320.4" y="913.4" font-size="9" font-weight="700" fill="#0a0c12" text-anchor="middle">11</text>
<circle cx="261.9" cy="891.0" r="7" fill="#ff5a36" stroke="#0a0c12" stroke-width="2.5" filter="url(#glow)"/>
<text x="261.9" y="894.4" font-size="9" font-weight="700" fill="#0a0c12" text-anchor="middle">12</text>
<circle cx="263.3" cy="803.0" r="7" fill="#ff5a36" stroke="#0a0c12" stroke-width="2.5" filter="url(#glow)"/>
<text x="263.3" y="806.4" font-size="9" font-weight="700" fill="#0a0c12" text-anchor="middle">13</text>
<circle cx="302.7" cy="756.8" r="7" fill="#ff5a36" stroke="#0a0c12" stroke-width="2.5" filter="url(#glow)"/>
<text x="302.7" y="760.2" font-size="9" font-weight="700" fill="#0a0c12" text-anchor="middle">14</text>
<circle cx="256.2" cy="702.0" r="7" fill="#ff5a36" stroke="#0a0c12" stroke-width="2.5" filter="url(#glow)"/>
<text x="256.2" y="705.4" font-size="9" font-weight="700" fill="#0a0c12" text-anchor="middle">15</text>
<circle cx="143.1" cy="714.4" r="7" fill="#ff5a36" stroke="#0a0c12" stroke-width="2.5" filter="url(#glow)"/>
<text x="143.1" y="717.8" font-size="9" font-weight="700" fill="#0a0c12" text-anchor="middle">16</text>
<line x1="986.9" y1="90.0" x2="1020.1" y2="49.9" stroke="#ff5a36" stroke-opacity="0.45" stroke-width="1.3"/>
<text x="1028.1" y="53.9" font-size="15" font-weight="600" fill="#eef2fb" text-anchor="start">1st</text>
<line x1="817.8" y1="409.0" x2="858.2" y2="376.3" stroke="#ff5a36" stroke-opacity="0.45" stroke-width="1.3"/>
<text x="866.2" y="380.3" font-size="15" font-weight="600" fill="#eef2fb" text-anchor="start">Coca Cola</text>
<line x1="845.5" y1="558.6" x2="895.8" y2="545.6" stroke="#ff5a36" stroke-opacity="0.45" stroke-width="1.3"/>
<text x="903.8" y="549.6" font-size="15" font-weight="600" fill="#eef2fb" text-anchor="start">100 R</text>
<line x1="611.9" y1="508.7" x2="639.0" y2="464.3" stroke="#ff5a36" stroke-opacity="0.45" stroke-width="1.3"/>
<text x="647.0" y="468.3" font-size="15" font-weight="600" fill="#eef2fb" text-anchor="start">Hairpin</text>
<line x1="507.3" y1="855.2" x2="501.3" y2="906.9" stroke="#ff5a36" stroke-opacity="0.45" stroke-width="1.3"/>
<text x="493.3" y="910.9" font-size="15" font-weight="600" fill="#eef2fb" text-anchor="end">300 R</text>
<line x1="350.9" y1="907.1" x2="321.8" y2="950.1" stroke="#ff5a36" stroke-opacity="0.45" stroke-width="1.3"/>
<text x="313.8" y="954.1" font-size="15" font-weight="600" fill="#eef2fb" text-anchor="end">Dunlop</text>
<line x1="263.3" y1="803.0" x2="218.9" y2="830.0" stroke="#ff5a36" stroke-opacity="0.45" stroke-width="1.3"/>
<text x="210.9" y="834.0" font-size="15" font-weight="600" fill="#eef2fb" text-anchor="end">13th</text>
<line x1="256.2" y1="702.0" x2="205.4" y2="713.4" stroke="#ff5a36" stroke-opacity="0.45" stroke-width="1.3"/>
<text x="197.4" y="717.4" font-size="15" font-weight="600" fill="#eef2fb" text-anchor="end">Netz</text>
<line x1="143.1" y1="714.4" x2="92.0" y2="743.4" stroke="#ff5a36" stroke-opacity="0.45" stroke-width="1.3"/>
<text x="84.0" y="747.4" font-size="15" font-weight="600" fill="#eef2fb" text-anchor="end">Panasonic</text>
<text x="90" y="64" font-size="20" letter-spacing="5" fill="#ff5a36" font-weight="700">TRACK ATLAS</text>
<text x="90" y="108" font-size="42" font-weight="800" fill="#ffffff">FUJI SPEEDWAY</text>
<text x="90" y="136" font-size="16" fill="#9aa6bd">Fuji</text>
<rect x="1170" y="200" width="360" height="710" rx="16" fill="#ffffff" fill-opacity="0.04" stroke="#ff5a36" stroke-opacity="0.5"/>
<text x="1198" y="250" font-size="13" letter-spacing="2" fill="#8794ab">LAYOUT</text>
<text x="1198" y="276" font-size="22" font-weight="700" fill="#eef2fb">Grand Prix Circuit</text>
<text x="1198" y="320" font-size="13" letter-spacing="2" fill="#8794ab">LENGTH</text>
<text x="1198" y="346" font-size="22" font-weight="700" fill="#eef2fb">4.549 km</text>
<text x="1198" y="390" font-size="13" letter-spacing="2" fill="#8794ab">CORNERS</text>
<text x="1198" y="416" font-size="22" font-weight="700" fill="#eef2fb">16</text>
<text x="1198" y="460" font-size="13" letter-spacing="2" fill="#8794ab">NAMED CORNERS</text>
<text x="1198" y="486" font-size="22" font-weight="700" fill="#eef2fb">9</text>
<text x="1198" y="530" font-size="13" letter-spacing="2" fill="#8794ab">DIRECTION</text>
<text x="1198" y="556" font-size="22" font-weight="700" fill="#eef2fb">Clockwise</text>
<text x="1198" y="600" font-size="13" letter-spacing="2" fill="#8794ab">SECTORS</text>
<text x="1198" y="626" font-size="22" font-weight="700" fill="#eef2fb">3</text>
<text x="1198" y="670" font-size="13" letter-spacing="2" fill="#8794ab">COUNTRY</text>
<text x="1198" y="696" font-size="22" font-weight="700" fill="#eef2fb">Japan</text>
<text x="1198" y="740" font-size="13" letter-spacing="2" fill="#8794ab">LOCATION</text>
<text x="1198" y="766" font-size="22" font-weight="700" fill="#eef2fb">Oyama, Shizuoka</text>
<text x="90" y="966" font-size="12" fill="#566177">Geometry © OpenStreetMap contributors (ODbL) · corner data: Lovely-Sim-Racing + curated · track-atlas</text>
<text x="90" y="942" font-size="12" fill="#8794ab">⚑ start / finish</text>
</svg>