<svg xmlns="http://www.w3.org/2000/svg" width="1600" height="1000" viewBox="0 0 1600 1000" font-family="Helvetica, Arial, sans-serif">
<defs>
      <radialGradient id="bg" cx="38%" cy="34%" r="85%">
        <stop offset="0%" stop-color="#1b2030"/>
        <stop offset="55%" stop-color="#12151f"/>
        <stop offset="100%" stop-color="#0a0c12"/>
      </radialGradient>
      <linearGradient id="accent" x1="0" y1="0" x2="1" y2="1">
        <stop offset="0%" stop-color="#ff5a36"/>
        <stop offset="100%" stop-color="#ffffff"/>
      </linearGradient>
      <filter id="glow" x="-40%" y="-40%" width="180%" height="180%">
        <feGaussianBlur stdDeviation="6" result="b"/>
        <feMerge><feMergeNode in="b"/><feMergeNode in="SourceGraphic"/></feMerge>
      </filter>
    </defs>
<rect width="1600" height="1000" fill="url(#bg)"/>
<line x1="0" y1="0" x2="0" y2="1000" stroke="#ffffff" stroke-opacity="0.025"/>
<line x1="56" y1="0" x2="56" y2="1000" stroke="#ffffff" stroke-opacity="0.025"/>
<line x1="112" y1="0" x2="112" y2="1000" stroke="#ffffff" stroke-opacity="0.025"/>
<line x1="168" y1="0" x2="168" y2="1000" stroke="#ffffff" stroke-opacity="0.025"/>
<line x1="224" y1="0" x2="224" y2="1000" stroke="#ffffff" stroke-opacity="0.025"/>
<line x1="280" y1="0" x2="280" y2="1000" stroke="#ffffff" stroke-opacity="0.025"/>
<line x1="336" y1="0" x2="336" y2="1000" stroke="#ffffff" stroke-opacity="0.025"/>
<line x1="392" y1="0" x2="392" y2="1000" stroke="#ffffff" stroke-opacity="0.025"/>
<line x1="448" y1="0" x2="448" y2="1000" stroke="#ffffff" stroke-opacity="0.025"/>
<line x1="504" y1="0" x2="504" y2="1000" stroke="#ffffff" stroke-opacity="0.025"/>
<line x1="560" y1="0" x2="560" y2="1000" stroke="#ffffff" stroke-opacity="0.025"/>
<line x1="616" y1="0" x2="616" y2="1000" stroke="#ffffff" stroke-opacity="0.025"/>
<line x1="672" y1="0" x2="672" y2="1000" stroke="#ffffff" stroke-opacity="0.025"/>
<line x1="728" y1="0" x2="728" y2="1000" stroke="#ffffff" stroke-opacity="0.025"/>
<line x1="784" y1="0" x2="784" y2="1000" stroke="#ffffff" stroke-opacity="0.025"/>
<line x1="840" y1="0" x2="840" y2="1000" stroke="#ffffff" stroke-opacity="0.025"/>
<line x1="896" y1="0" x2="896" y2="1000" stroke="#ffffff" stroke-opacity="0.025"/>
<line x1="952" y1="0" x2="952" y2="1000" stroke="#ffffff" stroke-opacity="0.025"/>
<line x1="1008" y1="0" x2="1008" y2="1000" stroke="#ffffff" stroke-opacity="0.025"/>
<line x1="1064" y1="0" x2="1064" y2="1000" stroke="#ffffff" stroke-opacity="0.025"/>
<line x1="1120" y1="0" x2="1120" y2="1000" stroke="#ffffff" stroke-opacity="0.025"/>
<line x1="1176" y1="0" x2="1176" y2="1000" stroke="#ffffff" stroke-opacity="0.025"/>
<line x1="1232" y1="0" x2="1232" y2="1000" stroke="#ffffff" stroke-opacity="0.025"/>
<line x1="1288" y1="0" x2="1288" y2="1000" stroke="#ffffff" stroke-opacity="0.025"/>
<line x1="1344" y1="0" x2="1344" y2="1000" stroke="#ffffff" stroke-opacity="0.025"/>
<line x1="1400" y1="0" x2="1400" y2="1000" stroke="#ffffff" stroke-opacity="0.025"/>
<line x1="1456" y1="0" x2="1456" y2="1000" stroke="#ffffff" stroke-opacity="0.025"/>
<line x1="1512" y1="0" x2="1512" y2="1000" stroke="#ffffff" stroke-opacity="0.025"/>
<line x1="1568" y1="0" x2="1568" y2="1000" stroke="#ffffff" stroke-opacity="0.025"/>
<line x1="0" y1="0" x2="1600" y2="0" stroke="#ffffff" stroke-opacity="0.025"/>
<line x1="0" y1="56" x2="1600" y2="56" stroke="#ffffff" stroke-opacity="0.025"/>
<line x1="0" y1="112" x2="1600" y2="112" stroke="#ffffff" stroke-opacity="0.025"/>
<line x1="0" y1="168" x2="1600" y2="168" stroke="#ffffff" stroke-opacity="0.025"/>
<line x1="0" y1="224" x2="1600" y2="224" stroke="#ffffff" stroke-opacity="0.025"/>
<line x1="0" y1="280" x2="1600" y2="280" stroke="#ffffff" stroke-opacity="0.025"/>
<line x1="0" y1="336" x2="1600" y2="336" stroke="#ffffff" stroke-opacity="0.025"/>
<line x1="0" y1="392" x2="1600" y2="392" stroke="#ffffff" stroke-opacity="0.025"/>
<line x1="0" y1="448" x2="1600" y2="448" stroke="#ffffff" stroke-opacity="0.025"/>
<line x1="0" y1="504" x2="1600" y2="504" stroke="#ffffff" stroke-opacity="0.025"/>
<line x1="0" y1="560" x2="1600" y2="560" stroke="#ffffff" stroke-opacity="0.025"/>
<line x1="0" y1="616" x2="1600" y2="616" stroke="#ffffff" stroke-opacity="0.025"/>
<line x1="0" y1="672" x2="1600" y2="672" stroke="#ffffff" stroke-opacity="0.025"/>
<line x1="0" y1="728" x2="1600" y2="728" stroke="#ffffff" stroke-opacity="0.025"/>
<line x1="0" y1="784" x2="1600" y2="784" stroke="#ffffff" stroke-opacity="0.025"/>
<line x1="0" y1="840" x2="1600" y2="840" stroke="#ffffff" stroke-opacity="0.025"/>
<line x1="0" y1="896" x2="1600" y2="896" stroke="#ffffff" stroke-opacity="0.025"/>
<line x1="0" y1="952" x2="1600" y2="952" stroke="#ffffff" stroke-opacity="0.025"/>
<path d="M 507.6,90.0 L 513.9,92.8 L 517.1,95.4 L 519.7,99.8 L 520.6,104.6 L 519.9,108.7 L 518.4,111.5 L 514.3,116.4 L 507.9,121.1 L 570.4,179.7 L 574.5,176.4 L 579.1,174.5 L 584.8,173.7 L 589.7,174.0 L 594.6,175.6 L 599.1,178.3 L 602.7,181.9 L 605.6,186.7 L 607.1,191.2 L 637.3,402.1 L 639.9,411.8 L 642.4,418.7 L 645.2,424.3 L 649.4,431.0 L 654.3,437.1 L 659.6,442.7 L 666.1,448.2 L 674.7,453.9 L 681.1,457.6 L 768.6,501.9 L 777.2,507.3 L 782.7,511.4 L 788.2,516.5 L 793.8,523.4 L 797.1,528.2 L 799.4,532.5 L 801.6,536.9 L 808.2,557.0 L 809.4,562.5 L 809.3,568.8 L 808.2,573.6 L 806.3,577.5 L 803.3,580.4 L 799.5,583.5 L 794.8,586.1 L 734.4,703.3 L 739.5,698.7 L 744.7,695.3 L 749.7,693.2 L 754.8,692.2 L 760.6,692.2 L 766.5,693.4 L 772.0,695.8 L 777.6,699.6 L 783.3,705.3 L 787.0,710.3 L 790.4,715.4 L 793.5,722.4 L 795.7,729.8 L 796.7,735.5 L 797.2,742.2 L 797.1,748.3 L 796.1,754.4 L 794.3,762.3 L 791.5,768.3 L 785.8,777.9 L 781.6,784.0 L 702.6,877.4 L 687.2,890.2 L 674.2,898.0 L 664.1,902.3 L 651.4,906.4 L 636.9,909.3 L 623.6,910.0 L 610.9,909.6 L 600.7,908.2 L 591.5,906.0 L 581.5,902.8 L 572.1,898.6 L 562.4,894.0 L 553.4,888.2 L 545.1,881.1 Z" fill="none" stroke="#000000" stroke-opacity="0.5" stroke-width="13" stroke-linejoin="round" stroke-linecap="round"/>
<path d="M 507.6,90.0 L 513.9,92.8 L 517.1,95.4 L 519.7,99.8 L 520.6,104.6 L 519.9,108.7 L 518.4,111.5 L 514.3,116.4 L 507.9,121.1 L 570.4,179.7 L 574.5,176.4 L 579.1,174.5 L 584.8,173.7 L 589.7,174.0 L 594.6,175.6 L 599.1,178.3 L 602.7,181.9 L 605.6,186.7 L 607.1,191.2 L 637.3,402.1 L 639.9,411.8 L 642.4,418.7 L 645.2,424.3 L 649.4,431.0 L 654.3,437.1 L 659.6,442.7 L 666.1,448.2 L 674.7,453.9 L 681.1,457.6 L 768.6,501.9 L 777.2,507.3 L 782.7,511.4 L 788.2,516.5 L 793.8,523.4 L 797.1,528.2 L 799.4,532.5 L 801.6,536.9 L 808.2,557.0 L 809.4,562.5 L 809.3,568.8 L 808.2,573.6 L 806.3,577.5 L 803.3,580.4 L 799.5,583.5 L 794.8,586.1 L 734.4,703.3 L 739.5,698.7 L 744.7,695.3 L 749.7,693.2 L 754.8,692.2 L 760.6,692.2 L 766.5,693.4 L 772.0,695.8 L 777.6,699.6 L 783.3,705.3 L 787.0,710.3 L 790.4,715.4 L 793.5,722.4 L 795.7,729.8 L 796.7,735.5 L 797.2,742.2 L 797.1,748.3 L 796.1,754.4 L 794.3,762.3 L 791.5,768.3 L 785.8,777.9 L 781.6,784.0 L 702.6,877.4 L 687.2,890.2 L 674.2,898.0 L 664.1,902.3 L 651.4,906.4 L 636.9,909.3 L 623.6,910.0 L 610.9,909.6 L 600.7,908.2 L 591.5,906.0 L 581.5,902.8 L 572.1,898.6 L 562.4,894.0 L 553.4,888.2 L 545.1,881.1 Z" fill="none" stroke="#39404f" stroke-width="8.5" stroke-linejoin="round" stroke-linecap="round"/>
<path d="M 507.6,90.0 L 513.9,92.8 L 517.1,95.4 L 519.7,99.8 L 520.6,104.6 L 519.9,108.7 L 518.4,111.5 L 514.3,116.4 L 507.9,121.1 L 570.4,179.7 L 574.5,176.4 L 579.1,174.5 L 584.8,173.7 L 589.7,174.0 L 594.6,175.6 L 599.1,178.3 L 602.7,181.9 L 605.6,186.7 L 607.1,191.2 L 637.3,402.1 L 639.9,411.8 L 642.4,418.7 L 645.2,424.3 L 649.4,431.0 L 654.3,437.1 L 659.6,442.7 L 666.1,448.2 L 674.7,453.9 L 681.1,457.6 L 768.6,501.9 L 777.2,507.3 L 782.7,511.4 L 788.2,516.5 L 793.8,523.4 L 797.1,528.2 L 799.4,532.5 L 801.6,536.9 L 808.2,557.0 L 809.4,562.5 L 809.3,568.8 L 808.2,573.6 L 806.3,577.5 L 803.3,580.4 L 799.5,583.5 L 794.8,586.1 L 734.4,703.3 L 739.5,698.7 L 744.7,695.3 L 749.7,693.2 L 754.8,692.2 L 760.6,692.2 L 766.5,693.4 L 772.0,695.8 L 777.6,699.6 L 783.3,705.3 L 787.0,710.3 L 790.4,715.4 L 793.5,722.4 L 795.7,729.8 L 796.7,735.5 L 797.2,742.2 L 797.1,748.3 L 796.1,754.4 L 794.3,762.3 L 791.5,768.3 L 785.8,777.9 L 781.6,784.0 L 702.6,877.4 L 687.2,890.2 L 674.2,898.0 L 664.1,902.3 L 651.4,906.4 L 636.9,909.3 L 623.6,910.0 L 610.9,909.6 L 600.7,908.2 L 591.5,906.0 L 581.5,902.8 L 572.1,898.6 L 562.4,894.0 L 553.4,888.2 L 545.1,881.1 Z" fill="none" stroke="#e7edf8" stroke-width="2.6" stroke-linejoin="round" stroke-linecap="round"/>
<path d="M 507.6,90.0 L 513.9,92.8 L 517.1,95.4 L 519.7,99.8 L 520.6,104.6 L 519.9,108.7 L 518.4,111.5 L 514.3,116.4 L 507.9,121.1 L 570.4,179.7 L 574.5,176.4 L 579.1,174.5 L 584.8,173.7 L 589.7,174.0 L 594.6,175.6 L 599.1,178.3 L 602.7,181.9 L 605.6,186.7 L 607.1,191.2 L 637.3,402.1 L 639.9,411.8 L 642.4,418.7 L 645.2,424.3 L 649.4,431.0 L 654.3,437.1 L 659.6,442.7 L 666.1,448.2 L 674.7,453.9 L 681.1,457.6 L 768.6,501.9 L 777.2,507.3 L 782.7,511.4 L 788.2,516.5 L 793.8,523.4 L 797.1,528.2 L 799.4,532.5 L 801.6,536.9 L 808.2,557.0 L 809.4,562.5 L 809.3,568.8 L 808.2,573.6 L 806.3,577.5 L 803.3,580.4 L 799.5,583.5 L 794.8,586.1 L 734.4,703.3 L 739.5,698.7 L 744.7,695.3 L 749.7,693.2 L 754.8,692.2 L 760.6,692.2 L 766.5,693.4 L 772.0,695.8 L 777.6,699.6 L 783.3,705.3 L 787.0,710.3 L 790.4,715.4 L 793.5,722.4 L 795.7,729.8 L 796.7,735.5 L 797.2,742.2 L 797.1,748.3 L 796.1,754.4 L 794.3,762.3 L 791.5,768.3 L 785.8,777.9 L 781.6,784.0 L 702.6,877.4 L 687.2,890.2 L 674.2,898.0 L 664.1,902.3 L 651.4,906.4 L 636.9,909.3 L 623.6,910.0 L 610.9,909.6 L 600.7,908.2 L 591.5,906.0 L 581.5,902.8 L 572.1,898.6 L 562.4,894.0 L 553.4,888.2 L 545.1,881.1 Z" fill="none" stroke="#ff5a36" stroke-opacity="0.55" stroke-width="1.2" stroke-linejoin="round" filter="url(#glow)"/>
<circle cx="470.7" cy="687.6" r="13" fill="none" stroke="#ffffff" stroke-width="3"/>
<rect x="466.7" y="665.6" width="8" height="18" fill="#ffffff"/>
<circle cx="386.9" cy="394.5" r="7" fill="#ff5a36" stroke="#0a0c12" stroke-width="2.5" filter="url(#glow)"/>
<text x="386.9" y="397.9" font-size="9" font-weight="700" fill="#0a0c12" text-anchor="middle">1</text>
<circle cx="358.4" cy="296.9" r="7" fill="#ff5a36" stroke="#0a0c12" stroke-width="2.5" filter="url(#glow)"/>
<text x="358.4" y="300.3" font-size="9" font-weight="700" fill="#0a0c12" text-anchor="middle">2</text>
<circle cx="320.6" cy="166.8" r="7" fill="#ff5a36" stroke="#0a0c12" stroke-width="2.5" filter="url(#glow)"/>
<text x="320.6" y="170.2" font-size="9" font-weight="700" fill="#0a0c12" text-anchor="middle">3</text>
<circle cx="371.4" cy="93.4" r="7" fill="#ff5a36" stroke="#0a0c12" stroke-width="2.5" filter="url(#glow)"/>
<text x="371.4" y="96.8" font-size="9" font-weight="700" fill="#0a0c12" text-anchor="middle">4</text>
<circle cx="479.4" cy="137.8" r="7" fill="#ff5a36" stroke="#0a0c12" stroke-width="2.5" filter="url(#glow)"/>
<text x="479.4" y="141.2" font-size="9" font-weight="700" fill="#0a0c12" text-anchor="middle">5</text>
<circle cx="478.0" cy="319.3" r="7" fill="#ff5a36" stroke="#0a0c12" stroke-width="2.5" filter="url(#glow)"/>
<text x="478.0" y="322.7" font-size="9" font-weight="700" fill="#0a0c12" text-anchor="middle">6</text>
<circle cx="524.9" cy="482.0" r="7" fill="#ff5a36" stroke="#0a0c12" stroke-width="2.5" filter="url(#glow)"/>
<text x="524.9" y="485.4" font-size="9" font-weight="700" fill="#0a0c12" text-anchor="middle">7</text>
<circle cx="566.6" cy="555.2" r="7" fill="#ff5a36" stroke="#0a0c12" stroke-width="2.5" filter="url(#glow)"/>
<text x="566.6" y="558.6" font-size="9" font-weight="700" fill="#0a0c12" text-anchor="middle">8</text>
<circle cx="616.2" cy="331.3" r="7" fill="#ff5a36" stroke="#0a0c12" stroke-width="2.5" filter="url(#glow)"/>
<text x="616.2" y="334.7" font-size="9" font-weight="700" fill="#0a0c12" text-anchor="middle">9</text>
<circle cx="700.2" cy="467.3" r="7" fill="#ff5a36" stroke="#0a0c12" stroke-width="2.5" filter="url(#glow)"/>
<text x="700.2" y="470.7" font-size="9" font-weight="700" fill="#0a0c12" text-anchor="middle">10</text>
<circle cx="760.6" cy="497.9" r="7" fill="#ff5a36" stroke="#0a0c12" stroke-width="2.5" filter="url(#glow)"/>
<text x="760.6" y="501.3" font-size="9" font-weight="700" fill="#0a0c12" text-anchor="middle">11</text>
<circle cx="742.5" cy="601.9" r="7" fill="#ff5a36" stroke="#0a0c12" stroke-width="2.5" filter="url(#glow)"/>
<text x="742.5" y="605.3" font-size="9" font-weight="700" fill="#0a0c12" text-anchor="middle">12</text>
<circle cx="644.8" cy="679.9" r="7" fill="#ff5a36" stroke="#0a0c12" stroke-width="2.5" filter="url(#glow)"/>
<text x="644.8" y="683.3" font-size="9" font-weight="700" fill="#0a0c12" text-anchor="middle">13</text>
<circle cx="656.5" cy="787.8" r="7" fill="#ff5a36" stroke="#0a0c12" stroke-width="2.5" filter="url(#glow)"/>
<text x="656.5" y="791.2" font-size="9" font-weight="700" fill="#0a0c12" text-anchor="middle">14</text>
<circle cx="791.7" cy="718.3" r="7" fill="#ff5a36" stroke="#0a0c12" stroke-width="2.5" filter="url(#glow)"/>
<text x="791.7" y="721.7" font-size="9" font-weight="700" fill="#0a0c12" text-anchor="middle">15</text>
<line x1="386.9" y1="394.5" x2="340.4" y2="371.4" stroke="#ff5a36" stroke-opacity="0.45" stroke-width="1.3"/>
<text x="332.4" y="375.4" font-size="15" font-weight="600" fill="#eef2fb" text-anchor="end">Turn 1</text>
<line x1="358.4" y1="296.9" x2="317.2" y2="265.2" stroke="#ff5a36" stroke-opacity="0.45" stroke-width="1.3"/>
<text x="309.2" y="269.2" font-size="15" font-weight="600" fill="#eef2fb" text-anchor="end">Curva 2</text>
<line x1="320.6" y1="166.8" x2="285.0" y2="222.0" stroke="#ff5a36" stroke-opacity="0.45" stroke-width="1.3"/>
<text x="277.0" y="226.0" font-size="15" font-weight="600" fill="#eef2fb" text-anchor="end">Lagos</text>
<line x1="371.4" y1="93.4" x2="342.5" y2="162.0" stroke="#ff5a36" stroke-opacity="0.45" stroke-width="1.3"/>
<text x="334.5" y="166.0" font-size="15" font-weight="600" fill="#eef2fb" text-anchor="end">Curva 4</text>
<line x1="479.4" y1="137.8" x2="457.3" y2="192.0" stroke="#ff5a36" stroke-opacity="0.45" stroke-width="1.3"/>
<text x="449.3" y="196.0" font-size="15" font-weight="600" fill="#eef2fb" text-anchor="end">Torre VIP</text>
<line x1="478.0" y1="319.3" x2="443.7" y2="295.2" stroke="#ff5a36" stroke-opacity="0.45" stroke-width="1.3"/>
<text x="435.7" y="299.2" font-size="15" font-weight="600" fill="#eef2fb" text-anchor="end">Curva 6</text>
<line x1="524.9" y1="482.0" x2="476.1" y2="464.2" stroke="#ff5a36" stroke-opacity="0.45" stroke-width="1.3"/>
<text x="468.1" y="468.2" font-size="15" font-weight="600" fill="#eef2fb" text-anchor="end">Curva 7</text>
<line x1="566.6" y1="555.2" x2="515.8" y2="566.3" stroke="#ff5a36" stroke-opacity="0.45" stroke-width="1.3"/>
<text x="507.8" y="570.3" font-size="15" font-weight="600" fill="#eef2fb" text-anchor="end">Samsung</text>
<line x1="616.2" y1="331.3" x2="603.8" y2="325.2" stroke="#ff5a36" stroke-opacity="0.45" stroke-width="1.3"/>
<text x="595.8" y="329.2" font-size="15" font-weight="600" fill="#eef2fb" text-anchor="end">Craig Jones</text>
<line x1="700.2" y1="467.3" x2="724.1" y2="421.1" stroke="#ff5a36" stroke-opacity="0.45" stroke-width="1.3"/>
<text x="732.1" y="425.1" font-size="15" font-weight="600" fill="#eef2fb" text-anchor="start">Portimão</text>
<line x1="760.6" y1="497.9" x2="809.3" y2="479.7" stroke="#ff5a36" stroke-opacity="0.45" stroke-width="1.3"/>
<text x="817.3" y="483.7" font-size="15" font-weight="600" fill="#eef2fb" text-anchor="start">Curva 11</text>
<line x1="742.5" y1="601.9" x2="781.3" y2="636.6" stroke="#ff5a36" stroke-opacity="0.45" stroke-width="1.3"/>
<text x="789.3" y="640.6" font-size="15" font-weight="600" fill="#eef2fb" text-anchor="start">Curva 12</text>
<line x1="644.8" y1="679.9" x2="637.3" y2="731.3" stroke="#ff5a36" stroke-opacity="0.45" stroke-width="1.3"/>
<text x="629.3" y="735.3" font-size="15" font-weight="600" fill="#eef2fb" text-anchor="end">Curva 13</text>
<line x1="656.5" y1="787.8" x2="654.6" y2="839.8" stroke="#ff5a36" stroke-opacity="0.45" stroke-width="1.3"/>
<text x="646.6" y="843.8" font-size="15" font-weight="600" fill="#eef2fb" text-anchor="end">Sagres</text>
<line x1="791.7" y1="718.3" x2="820.9" y2="761.3" stroke="#ff5a36" stroke-opacity="0.45" stroke-width="1.3"/>
<text x="828.9" y="765.3" font-size="15" font-weight="600" fill="#eef2fb" text-anchor="start">Galp</text>
<text x="90" y="64" font-size="20" letter-spacing="5" fill="#ff5a36" font-weight="700">TRACK ATLAS</text>
<text x="90" y="108" font-size="42" font-weight="800" fill="#ffffff">AUTODROMO INTERNACIONAL DO ALGARVE</text>
<text x="90" y="136" font-size="16" fill="#9aa6bd">Portimao</text>
<rect x="1170" y="200" width="360" height="710" rx="16" fill="#ffffff" fill-opacity="0.04" stroke="#ff5a36" stroke-opacity="0.5"/>
<text x="1198" y="250" font-size="13" letter-spacing="2" fill="#8794ab">LAYOUT</text>
<text x="1198" y="276" font-size="22" font-weight="700" fill="#eef2fb">Grand Prix Circuit</text>
<text x="1198" y="320" font-size="13" letter-spacing="2" fill="#8794ab">LENGTH</text>
<text x="1198" y="346" font-size="22" font-weight="700" fill="#eef2fb">4.653 km</text>
<text x="1198" y="390" font-size="13" letter-spacing="2" fill="#8794ab">CORNERS</text>
<text x="1198" y="416" font-size="22" font-weight="700" fill="#eef2fb">15</text>
<text x="1198" y="460" font-size="13" letter-spacing="2" fill="#8794ab">NAMED CORNERS</text>
<text x="1198" y="486" font-size="22" font-weight="700" fill="#eef2fb">15</text>
<text x="1198" y="530" font-size="13" letter-spacing="2" fill="#8794ab">DIRECTION</text>
<text x="1198" y="556" font-size="22" font-weight="700" fill="#eef2fb">Clockwise</text>
<text x="1198" y="600" font-size="13" letter-spacing="2" fill="#8794ab">SECTORS</text>
<text x="1198" y="626" font-size="22" font-weight="700" fill="#eef2fb">3</text>
<text x="1198" y="670" font-size="13" letter-spacing="2" fill="#8794ab">COUNTRY</text>
<text x="1198" y="696" font-size="22" font-weight="700" fill="#eef2fb">PT</text>
<text x="1198" y="740" font-size="13" letter-spacing="2" fill="#8794ab">LOCATION</text>
<text x="1198" y="766" font-size="22" font-weight="700" fill="#eef2fb">Portimao</text>
<text x="90" y="966" font-size="12" fill="#566177">Geometry © OpenStreetMap contributors (ODbL) · corner data: Lovely-Sim-Racing + curated · track-atlas</text>
<text x="90" y="942" font-size="12" fill="#8794ab">⚑ start / finish</text>
</svg>