<svg xmlns="http://www.w3.org/2000/svg" width="1600" height="1000" viewBox="0 0 1600 1000" font-family="Helvetica, Arial, sans-serif">
<defs>
      <radialGradient id="bg" cx="38%" cy="34%" r="85%">
        <stop offset="0%" stop-color="#1b2030"/>
        <stop offset="55%" stop-color="#12151f"/>
        <stop offset="100%" stop-color="#0a0c12"/>
      </radialGradient>
      <linearGradient id="accent" x1="0" y1="0" x2="1" y2="1">
        <stop offset="0%" stop-color="#ff5a36"/>
        <stop offset="100%" stop-color="#ffffff"/>
      </linearGradient>
      <filter id="glow" x="-40%" y="-40%" width="180%" height="180%">
        <feGaussianBlur stdDeviation="6" result="b"/>
        <feMerge><feMergeNode in="b"/><feMergeNode in="SourceGraphic"/></feMerge>
      </filter>
    </defs>
<rect width="1600" height="1000" fill="url(#bg)"/>
<line x1="0" y1="0" x2="0" y2="1000" stroke="#ffffff" stroke-opacity="0.025"/>
<line x1="56" y1="0" x2="56" y2="1000" stroke="#ffffff" stroke-opacity="0.025"/>
<line x1="112" y1="0" x2="112" y2="1000" stroke="#ffffff" stroke-opacity="0.025"/>
<line x1="168" y1="0" x2="168" y2="1000" stroke="#ffffff" stroke-opacity="0.025"/>
<line x1="224" y1="0" x2="224" y2="1000" stroke="#ffffff" stroke-opacity="0.025"/>
<line x1="280" y1="0" x2="280" y2="1000" stroke="#ffffff" stroke-opacity="0.025"/>
<line x1="336" y1="0" x2="336" y2="1000" stroke="#ffffff" stroke-opacity="0.025"/>
<line x1="392" y1="0" x2="392" y2="1000" stroke="#ffffff" stroke-opacity="0.025"/>
<line x1="448" y1="0" x2="448" y2="1000" stroke="#ffffff" stroke-opacity="0.025"/>
<line x1="504" y1="0" x2="504" y2="1000" stroke="#ffffff" stroke-opacity="0.025"/>
<line x1="560" y1="0" x2="560" y2="1000" stroke="#ffffff" stroke-opacity="0.025"/>
<line x1="616" y1="0" x2="616" y2="1000" stroke="#ffffff" stroke-opacity="0.025"/>
<line x1="672" y1="0" x2="672" y2="1000" stroke="#ffffff" stroke-opacity="0.025"/>
<line x1="728" y1="0" x2="728" y2="1000" stroke="#ffffff" stroke-opacity="0.025"/>
<line x1="784" y1="0" x2="784" y2="1000" stroke="#ffffff" stroke-opacity="0.025"/>
<line x1="840" y1="0" x2="840" y2="1000" stroke="#ffffff" stroke-opacity="0.025"/>
<line x1="896" y1="0" x2="896" y2="1000" stroke="#ffffff" stroke-opacity="0.025"/>
<line x1="952" y1="0" x2="952" y2="1000" stroke="#ffffff" stroke-opacity="0.025"/>
<line x1="1008" y1="0" x2="1008" y2="1000" stroke="#ffffff" stroke-opacity="0.025"/>
<line x1="1064" y1="0" x2="1064" y2="1000" stroke="#ffffff" stroke-opacity="0.025"/>
<line x1="1120" y1="0" x2="1120" y2="1000" stroke="#ffffff" stroke-opacity="0.025"/>
<line x1="1176" y1="0" x2="1176" y2="1000" stroke="#ffffff" stroke-opacity="0.025"/>
<line x1="1232" y1="0" x2="1232" y2="1000" stroke="#ffffff" stroke-opacity="0.025"/>
<line x1="1288" y1="0" x2="1288" y2="1000" stroke="#ffffff" stroke-opacity="0.025"/>
<line x1="1344" y1="0" x2="1344" y2="1000" stroke="#ffffff" stroke-opacity="0.025"/>
<line x1="1400" y1="0" x2="1400" y2="1000" stroke="#ffffff" stroke-opacity="0.025"/>
<line x1="1456" y1="0" x2="1456" y2="1000" stroke="#ffffff" stroke-opacity="0.025"/>
<line x1="1512" y1="0" x2="1512" y2="1000" stroke="#ffffff" stroke-opacity="0.025"/>
<line x1="1568" y1="0" x2="1568" y2="1000" stroke="#ffffff" stroke-opacity="0.025"/>
<line x1="0" y1="0" x2="1600" y2="0" stroke="#ffffff" stroke-opacity="0.025"/>
<line x1="0" y1="56" x2="1600" y2="56" stroke="#ffffff" stroke-opacity="0.025"/>
<line x1="0" y1="112" x2="1600" y2="112" stroke="#ffffff" stroke-opacity="0.025"/>
<line x1="0" y1="168" x2="1600" y2="168" stroke="#ffffff" stroke-opacity="0.025"/>
<line x1="0" y1="224" x2="1600" y2="224" stroke="#ffffff" stroke-opacity="0.025"/>
<line x1="0" y1="280" x2="1600" y2="280" stroke="#ffffff" stroke-opacity="0.025"/>
<line x1="0" y1="336" x2="1600" y2="336" stroke="#ffffff" stroke-opacity="0.025"/>
<line x1="0" y1="392" x2="1600" y2="392" stroke="#ffffff" stroke-opacity="0.025"/>
<line x1="0" y1="448" x2="1600" y2="448" stroke="#ffffff" stroke-opacity="0.025"/>
<line x1="0" y1="504" x2="1600" y2="504" stroke="#ffffff" stroke-opacity="0.025"/>
<line x1="0" y1="560" x2="1600" y2="560" stroke="#ffffff" stroke-opacity="0.025"/>
<line x1="0" y1="616" x2="1600" y2="616" stroke="#ffffff" stroke-opacity="0.025"/>
<line x1="0" y1="672" x2="1600" y2="672" stroke="#ffffff" stroke-opacity="0.025"/>
<line x1="0" y1="728" x2="1600" y2="728" stroke="#ffffff" stroke-opacity="0.025"/>
<line x1="0" y1="784" x2="1600" y2="784" stroke="#ffffff" stroke-opacity="0.025"/>
<line x1="0" y1="840" x2="1600" y2="840" stroke="#ffffff" stroke-opacity="0.025"/>
<line x1="0" y1="896" x2="1600" y2="896" stroke="#ffffff" stroke-opacity="0.025"/>
<line x1="0" y1="952" x2="1600" y2="952" stroke="#ffffff" stroke-opacity="0.025"/>
<path d="M 365.2,445.6 C 279.9,362.6 344.5,375.2 331.5,330.3 C 318.4,285.5 284.3,216.7 286.9,176.7 C 289.4,136.6 315.6,95.7 346.8,90.0 C 378.1,84.3 453.4,97.9 474.4,142.4 C 495.4,186.8 463.7,289.0 472.7,356.7 C 481.6,424.5 510.7,502.5 528.1,548.9 C 545.6,595.3 559.4,664.9 577.4,635.3 C 595.3,605.6 609.7,388.1 635.9,370.9 C 662.2,353.6 706.7,498.7 735.1,531.5 C 763.5,564.3 798.1,541.2 806.5,567.7 C 814.8,594.2 807.9,654.7 785.1,690.5 C 762.3,726.3 686.6,745.9 669.7,782.5 C 652.7,819.1 654.6,902.4 683.5,910.0 C 712.4,917.6 896.2,905.3 843.1,827.9 C 790.1,750.5 450.4,528.5 365.2,445.6 Z" fill="none" stroke="#000000" stroke-opacity="0.5" stroke-width="13" stroke-linejoin="round" stroke-linecap="round"/>
<path d="M 365.2,445.6 C 279.9,362.6 344.5,375.2 331.5,330.3 C 318.4,285.5 284.3,216.7 286.9,176.7 C 289.4,136.6 315.6,95.7 346.8,90.0 C 378.1,84.3 453.4,97.9 474.4,142.4 C 495.4,186.8 463.7,289.0 472.7,356.7 C 481.6,424.5 510.7,502.5 528.1,548.9 C 545.6,595.3 559.4,664.9 577.4,635.3 C 595.3,605.6 609.7,388.1 635.9,370.9 C 662.2,353.6 706.7,498.7 735.1,531.5 C 763.5,564.3 798.1,541.2 806.5,567.7 C 814.8,594.2 807.9,654.7 785.1,690.5 C 762.3,726.3 686.6,745.9 669.7,782.5 C 652.7,819.1 654.6,902.4 683.5,910.0 C 712.4,917.6 896.2,905.3 843.1,827.9 C 790.1,750.5 450.4,528.5 365.2,445.6 Z" fill="none" stroke="#39404f" stroke-width="8.5" stroke-linejoin="round" stroke-linecap="round"/>
<path d="M 365.2,445.6 C 279.9,362.6 344.5,375.2 331.5,330.3 C 318.4,285.5 284.3,216.7 286.9,176.7 C 289.4,136.6 315.6,95.7 346.8,90.0 C 378.1,84.3 453.4,97.9 474.4,142.4 C 495.4,186.8 463.7,289.0 472.7,356.7 C 481.6,424.5 510.7,502.5 528.1,548.9 C 545.6,595.3 559.4,664.9 577.4,635.3 C 595.3,605.6 609.7,388.1 635.9,370.9 C 662.2,353.6 706.7,498.7 735.1,531.5 C 763.5,564.3 798.1,541.2 806.5,567.7 C 814.8,594.2 807.9,654.7 785.1,690.5 C 762.3,726.3 686.6,745.9 669.7,782.5 C 652.7,819.1 654.6,902.4 683.5,910.0 C 712.4,917.6 896.2,905.3 843.1,827.9 C 790.1,750.5 450.4,528.5 365.2,445.6 Z" fill="none" stroke="#e7edf8" stroke-width="2.6" stroke-linejoin="round" stroke-linecap="round"/>
<path d="M 365.2,445.6 C 279.9,362.6 344.5,375.2 331.5,330.3 C 318.4,285.5 284.3,216.7 286.9,176.7 C 289.4,136.6 315.6,95.7 346.8,90.0 C 378.1,84.3 453.4,97.9 474.4,142.4 C 495.4,186.8 463.7,289.0 472.7,356.7 C 481.6,424.5 510.7,502.5 528.1,548.9 C 545.6,595.3 559.4,664.9 577.4,635.3 C 595.3,605.6 609.7,388.1 635.9,370.9 C 662.2,353.6 706.7,498.7 735.1,531.5 C 763.5,564.3 798.1,541.2 806.5,567.7 C 814.8,594.2 807.9,654.7 785.1,690.5 C 762.3,726.3 686.6,745.9 669.7,782.5 C 652.7,819.1 654.6,902.4 683.5,910.0 C 712.4,917.6 896.2,905.3 843.1,827.9 C 790.1,750.5 450.4,528.5 365.2,445.6 Z" fill="none" stroke="#ff5a36" stroke-opacity="0.55" stroke-width="1.2" stroke-linejoin="round" filter="url(#glow)"/>
<circle cx="464.1" cy="791.7" r="13" fill="none" stroke="#ffffff" stroke-width="3"/>
<rect x="460.1" y="769.7" width="8" height="18" fill="#ffffff"/>
<circle cx="365.2" cy="445.6" r="7" fill="#ff5a36" stroke="#0a0c12" stroke-width="2.5" filter="url(#glow)"/>
<text x="365.2" y="449.0" font-size="9" font-weight="700" fill="#0a0c12" text-anchor="middle">1</text>
<circle cx="331.5" cy="330.3" r="7" fill="#ff5a36" stroke="#0a0c12" stroke-width="2.5" filter="url(#glow)"/>
<text x="331.5" y="333.7" font-size="9" font-weight="700" fill="#0a0c12" text-anchor="middle">2</text>
<circle cx="286.9" cy="176.7" r="7" fill="#ff5a36" stroke="#0a0c12" stroke-width="2.5" filter="url(#glow)"/>
<text x="286.9" y="180.1" font-size="9" font-weight="700" fill="#0a0c12" text-anchor="middle">3</text>
<circle cx="346.8" cy="90.0" r="7" fill="#ff5a36" stroke="#0a0c12" stroke-width="2.5" filter="url(#glow)"/>
<text x="346.8" y="93.4" font-size="9" font-weight="700" fill="#0a0c12" text-anchor="middle">4</text>
<circle cx="474.4" cy="142.4" r="7" fill="#ff5a36" stroke="#0a0c12" stroke-width="2.5" filter="url(#glow)"/>
<text x="474.4" y="145.8" font-size="9" font-weight="700" fill="#0a0c12" text-anchor="middle">5</text>
<circle cx="472.7" cy="356.7" r="7" fill="#ff5a36" stroke="#0a0c12" stroke-width="2.5" filter="url(#glow)"/>
<text x="472.7" y="360.1" font-size="9" font-weight="700" fill="#0a0c12" text-anchor="middle">6</text>
<circle cx="528.1" cy="548.9" r="7" fill="#ff5a36" stroke="#0a0c12" stroke-width="2.5" filter="url(#glow)"/>
<text x="528.1" y="552.3" font-size="9" font-weight="700" fill="#0a0c12" text-anchor="middle">7</text>
<circle cx="577.4" cy="635.3" r="7" fill="#ff5a36" stroke="#0a0c12" stroke-width="2.5" filter="url(#glow)"/>
<text x="577.4" y="638.7" font-size="9" font-weight="700" fill="#0a0c12" text-anchor="middle">8</text>
<circle cx="635.9" cy="370.9" r="7" fill="#ff5a36" stroke="#0a0c12" stroke-width="2.5" filter="url(#glow)"/>
<text x="635.9" y="374.3" font-size="9" font-weight="700" fill="#0a0c12" text-anchor="middle">9</text>
<circle cx="735.1" cy="531.5" r="7" fill="#ff5a36" stroke="#0a0c12" stroke-width="2.5" filter="url(#glow)"/>
<text x="735.1" y="534.9" font-size="9" font-weight="700" fill="#0a0c12" text-anchor="middle">10</text>
<circle cx="806.5" cy="567.7" r="7" fill="#ff5a36" stroke="#0a0c12" stroke-width="2.5" filter="url(#glow)"/>
<text x="806.5" y="571.1" font-size="9" font-weight="700" fill="#0a0c12" text-anchor="middle">11</text>
<circle cx="785.1" cy="690.5" r="7" fill="#ff5a36" stroke="#0a0c12" stroke-width="2.5" filter="url(#glow)"/>
<text x="785.1" y="693.9" font-size="9" font-weight="700" fill="#0a0c12" text-anchor="middle">12</text>
<circle cx="669.7" cy="782.5" r="7" fill="#ff5a36" stroke="#0a0c12" stroke-width="2.5" filter="url(#glow)"/>
<text x="669.7" y="785.9" font-size="9" font-weight="700" fill="#0a0c12" text-anchor="middle">13</text>
<circle cx="683.5" cy="910.0" r="7" fill="#ff5a36" stroke="#0a0c12" stroke-width="2.5" filter="url(#glow)"/>
<text x="683.5" y="913.4" font-size="9" font-weight="700" fill="#0a0c12" text-anchor="middle">14</text>
<circle cx="843.1" cy="827.9" r="7" fill="#ff5a36" stroke="#0a0c12" stroke-width="2.5" filter="url(#glow)"/>
<text x="843.1" y="831.3" font-size="9" font-weight="700" fill="#0a0c12" text-anchor="middle">15</text>
<line x1="365.2" y1="445.6" x2="314.6" y2="433.6" stroke="#ff5a36" stroke-opacity="0.45" stroke-width="1.3"/>
<text x="306.6" y="437.6" font-size="15" font-weight="600" fill="#eef2fb" text-anchor="end">Primeira</text>
<line x1="286.9" y1="176.7" x2="252.3" y2="192.0" stroke="#ff5a36" stroke-opacity="0.45" stroke-width="1.3"/>
<text x="244.3" y="196.0" font-size="15" font-weight="600" fill="#eef2fb" text-anchor="end">Lagos</text>
<line x1="474.4" y1="142.4" x2="460.8" y2="162.0" stroke="#ff5a36" stroke-opacity="0.45" stroke-width="1.3"/>
<text x="452.8" y="166.0" font-size="15" font-weight="600" fill="#eef2fb" text-anchor="end">Torre Vip</text>
<line x1="577.4" y1="635.3" x2="580.3" y2="687.2" stroke="#ff5a36" stroke-opacity="0.45" stroke-width="1.3"/>
<text x="588.3" y="691.2" font-size="15" font-weight="600" fill="#eef2fb" text-anchor="start">Samsung</text>
<line x1="635.9" y1="370.9" x2="660.7" y2="325.1" stroke="#ff5a36" stroke-opacity="0.45" stroke-width="1.3"/>
<text x="668.7" y="329.1" font-size="15" font-weight="600" fill="#eef2fb" text-anchor="start">Craig Jones</text>
<line x1="735.1" y1="531.5" x2="785.8" y2="543.0" stroke="#ff5a36" stroke-opacity="0.45" stroke-width="1.3"/>
<text x="793.8" y="547.0" font-size="15" font-weight="600" fill="#eef2fb" text-anchor="start">Portimão</text>
<line x1="683.5" y1="910.0" x2="697.2" y2="960.2" stroke="#ff5a36" stroke-opacity="0.45" stroke-width="1.3"/>
<text x="705.2" y="964.2" font-size="15" font-weight="600" fill="#eef2fb" text-anchor="start">Sagres</text>
<line x1="843.1" y1="827.9" x2="876.1" y2="868.1" stroke="#ff5a36" stroke-opacity="0.45" stroke-width="1.3"/>
<text x="884.1" y="872.1" font-size="15" font-weight="600" fill="#eef2fb" text-anchor="start">Galp</text>
<text x="90" y="64" font-size="20" letter-spacing="5" fill="#ff5a36" font-weight="700">TRACK ATLAS</text>
<text x="90" y="108" font-size="42" font-weight="800" fill="#ffffff">AUTODROMO INTERNACIONAL DO ALGARVE</text>
<text x="90" y="136" font-size="16" fill="#9aa6bd">Portimao</text>
<rect x="1170" y="200" width="360" height="710" rx="16" fill="#ffffff" fill-opacity="0.04" stroke="#ff5a36" stroke-opacity="0.5"/>
<text x="1198" y="250" font-size="13" letter-spacing="2" fill="#8794ab">LAYOUT</text>
<text x="1198" y="276" font-size="22" font-weight="700" fill="#eef2fb">Grand Prix Circuit</text>
<text x="1198" y="320" font-size="13" letter-spacing="2" fill="#8794ab">LENGTH</text>
<text x="1198" y="346" font-size="22" font-weight="700" fill="#eef2fb">4.653 km</text>
<text x="1198" y="390" font-size="13" letter-spacing="2" fill="#8794ab">CORNERS</text>
<text x="1198" y="416" font-size="22" font-weight="700" fill="#eef2fb">15</text>
<text x="1198" y="460" font-size="13" letter-spacing="2" fill="#8794ab">NAMED CORNERS</text>
<text x="1198" y="486" font-size="22" font-weight="700" fill="#eef2fb">8</text>
<text x="1198" y="530" font-size="13" letter-spacing="2" fill="#8794ab">DIRECTION</text>
<text x="1198" y="556" font-size="22" font-weight="700" fill="#eef2fb">Clockwise</text>
<text x="1198" y="600" font-size="13" letter-spacing="2" fill="#8794ab">SECTORS</text>
<text x="1198" y="626" font-size="22" font-weight="700" fill="#eef2fb">3</text>
<text x="1198" y="670" font-size="13" letter-spacing="2" fill="#8794ab">COUNTRY</text>
<text x="1198" y="696" font-size="22" font-weight="700" fill="#eef2fb">PT</text>
<text x="1198" y="740" font-size="13" letter-spacing="2" fill="#8794ab">LOCATION</text>
<text x="1198" y="766" font-size="22" font-weight="700" fill="#eef2fb">Portimao</text>
<text x="90" y="966" font-size="12" fill="#566177">Geometry © OpenStreetMap contributors (ODbL) · corner data: Lovely-Sim-Racing + curated · track-atlas</text>
<text x="90" y="942" font-size="12" fill="#8794ab">⚑ start / finish</text>
</svg>