<svg xmlns="http://www.w3.org/2000/svg" width="1600" height="1000" viewBox="0 0 1600 1000" font-family="Helvetica, Arial, sans-serif">
<defs>
      <radialGradient id="bg" cx="38%" cy="34%" r="85%">
        <stop offset="0%" stop-color="#1b2030"/>
        <stop offset="55%" stop-color="#12151f"/>
        <stop offset="100%" stop-color="#0a0c12"/>
      </radialGradient>
      <linearGradient id="accent" x1="0" y1="0" x2="1" y2="1">
        <stop offset="0%" stop-color="#ff5a36"/>
        <stop offset="100%" stop-color="#ffffff"/>
      </linearGradient>
      <filter id="glow" x="-40%" y="-40%" width="180%" height="180%">
        <feGaussianBlur stdDeviation="6" result="b"/>
        <feMerge><feMergeNode in="b"/><feMergeNode in="SourceGraphic"/></feMerge>
      </filter>
    </defs>
<rect width="1600" height="1000" fill="url(#bg)"/>
<line x1="0" y1="0" x2="0" y2="1000" stroke="#ffffff" stroke-opacity="0.025"/>
<line x1="56" y1="0" x2="56" y2="1000" stroke="#ffffff" stroke-opacity="0.025"/>
<line x1="112" y1="0" x2="112" y2="1000" stroke="#ffffff" stroke-opacity="0.025"/>
<line x1="168" y1="0" x2="168" y2="1000" stroke="#ffffff" stroke-opacity="0.025"/>
<line x1="224" y1="0" x2="224" y2="1000" stroke="#ffffff" stroke-opacity="0.025"/>
<line x1="280" y1="0" x2="280" y2="1000" stroke="#ffffff" stroke-opacity="0.025"/>
<line x1="336" y1="0" x2="336" y2="1000" stroke="#ffffff" stroke-opacity="0.025"/>
<line x1="392" y1="0" x2="392" y2="1000" stroke="#ffffff" stroke-opacity="0.025"/>
<line x1="448" y1="0" x2="448" y2="1000" stroke="#ffffff" stroke-opacity="0.025"/>
<line x1="504" y1="0" x2="504" y2="1000" stroke="#ffffff" stroke-opacity="0.025"/>
<line x1="560" y1="0" x2="560" y2="1000" stroke="#ffffff" stroke-opacity="0.025"/>
<line x1="616" y1="0" x2="616" y2="1000" stroke="#ffffff" stroke-opacity="0.025"/>
<line x1="672" y1="0" x2="672" y2="1000" stroke="#ffffff" stroke-opacity="0.025"/>
<line x1="728" y1="0" x2="728" y2="1000" stroke="#ffffff" stroke-opacity="0.025"/>
<line x1="784" y1="0" x2="784" y2="1000" stroke="#ffffff" stroke-opacity="0.025"/>
<line x1="840" y1="0" x2="840" y2="1000" stroke="#ffffff" stroke-opacity="0.025"/>
<line x1="896" y1="0" x2="896" y2="1000" stroke="#ffffff" stroke-opacity="0.025"/>
<line x1="952" y1="0" x2="952" y2="1000" stroke="#ffffff" stroke-opacity="0.025"/>
<line x1="1008" y1="0" x2="1008" y2="1000" stroke="#ffffff" stroke-opacity="0.025"/>
<line x1="1064" y1="0" x2="1064" y2="1000" stroke="#ffffff" stroke-opacity="0.025"/>
<line x1="1120" y1="0" x2="1120" y2="1000" stroke="#ffffff" stroke-opacity="0.025"/>
<line x1="1176" y1="0" x2="1176" y2="1000" stroke="#ffffff" stroke-opacity="0.025"/>
<line x1="1232" y1="0" x2="1232" y2="1000" stroke="#ffffff" stroke-opacity="0.025"/>
<line x1="1288" y1="0" x2="1288" y2="1000" stroke="#ffffff" stroke-opacity="0.025"/>
<line x1="1344" y1="0" x2="1344" y2="1000" stroke="#ffffff" stroke-opacity="0.025"/>
<line x1="1400" y1="0" x2="1400" y2="1000" stroke="#ffffff" stroke-opacity="0.025"/>
<line x1="1456" y1="0" x2="1456" y2="1000" stroke="#ffffff" stroke-opacity="0.025"/>
<line x1="1512" y1="0" x2="1512" y2="1000" stroke="#ffffff" stroke-opacity="0.025"/>
<line x1="1568" y1="0" x2="1568" y2="1000" stroke="#ffffff" stroke-opacity="0.025"/>
<line x1="0" y1="0" x2="1600" y2="0" stroke="#ffffff" stroke-opacity="0.025"/>
<line x1="0" y1="56" x2="1600" y2="56" stroke="#ffffff" stroke-opacity="0.025"/>
<line x1="0" y1="112" x2="1600" y2="112" stroke="#ffffff" stroke-opacity="0.025"/>
<line x1="0" y1="168" x2="1600" y2="168" stroke="#ffffff" stroke-opacity="0.025"/>
<line x1="0" y1="224" x2="1600" y2="224" stroke="#ffffff" stroke-opacity="0.025"/>
<line x1="0" y1="280" x2="1600" y2="280" stroke="#ffffff" stroke-opacity="0.025"/>
<line x1="0" y1="336" x2="1600" y2="336" stroke="#ffffff" stroke-opacity="0.025"/>
<line x1="0" y1="392" x2="1600" y2="392" stroke="#ffffff" stroke-opacity="0.025"/>
<line x1="0" y1="448" x2="1600" y2="448" stroke="#ffffff" stroke-opacity="0.025"/>
<line x1="0" y1="504" x2="1600" y2="504" stroke="#ffffff" stroke-opacity="0.025"/>
<line x1="0" y1="560" x2="1600" y2="560" stroke="#ffffff" stroke-opacity="0.025"/>
<line x1="0" y1="616" x2="1600" y2="616" stroke="#ffffff" stroke-opacity="0.025"/>
<line x1="0" y1="672" x2="1600" y2="672" stroke="#ffffff" stroke-opacity="0.025"/>
<line x1="0" y1="728" x2="1600" y2="728" stroke="#ffffff" stroke-opacity="0.025"/>
<line x1="0" y1="784" x2="1600" y2="784" stroke="#ffffff" stroke-opacity="0.025"/>
<line x1="0" y1="840" x2="1600" y2="840" stroke="#ffffff" stroke-opacity="0.025"/>
<line x1="0" y1="896" x2="1600" y2="896" stroke="#ffffff" stroke-opacity="0.025"/>
<line x1="0" y1="952" x2="1600" y2="952" stroke="#ffffff" stroke-opacity="0.025"/>
<path d="M 407.9,624.1 C 379.0,706.4 419.1,618.8 467.7,648.6 C 516.3,678.4 644.6,759.4 699.6,802.9 C 754.7,846.5 786.4,931.8 797.9,910.0 C 809.4,888.2 786.4,759.6 768.5,672.4 C 750.5,585.2 720.0,396.8 690.2,386.7 C 660.4,376.6 641.4,594.2 589.6,611.6 C 537.7,629.0 356.4,577.9 379.0,491.0 C 401.6,404.0 662.1,85.7 725.1,90.0 C 788.2,94.3 750.0,417.0 757.2,516.6 C 764.3,616.1 818.0,672.9 768.1,687.3 C 718.2,701.6 530.4,637.8 457.8,602.8 C 385.1,567.8 323.7,482.7 332.1,477.2 C 340.5,471.8 456.4,623.9 507.9,570.1 C 559.4,516.3 657.8,145.5 641.1,154.5 C 624.4,163.5 436.8,541.7 407.9,624.1 Z" fill="none" stroke="#000000" stroke-opacity="0.5" stroke-width="13" stroke-linejoin="round" stroke-linecap="round"/>
<path d="M 407.9,624.1 C 379.0,706.4 419.1,618.8 467.7,648.6 C 516.3,678.4 644.6,759.4 699.6,802.9 C 754.7,846.5 786.4,931.8 797.9,910.0 C 809.4,888.2 786.4,759.6 768.5,672.4 C 750.5,585.2 720.0,396.8 690.2,386.7 C 660.4,376.6 641.4,594.2 589.6,611.6 C 537.7,629.0 356.4,577.9 379.0,491.0 C 401.6,404.0 662.1,85.7 725.1,90.0 C 788.2,94.3 750.0,417.0 757.2,516.6 C 764.3,616.1 818.0,672.9 768.1,687.3 C 718.2,701.6 530.4,637.8 457.8,602.8 C 385.1,567.8 323.7,482.7 332.1,477.2 C 340.5,471.8 456.4,623.9 507.9,570.1 C 559.4,516.3 657.8,145.5 641.1,154.5 C 624.4,163.5 436.8,541.7 407.9,624.1 Z" fill="none" stroke="#39404f" stroke-width="8.5" stroke-linejoin="round" stroke-linecap="round"/>
<path d="M 407.9,624.1 C 379.0,706.4 419.1,618.8 467.7,648.6 C 516.3,678.4 644.6,759.4 699.6,802.9 C 754.7,846.5 786.4,931.8 797.9,910.0 C 809.4,888.2 786.4,759.6 768.5,672.4 C 750.5,585.2 720.0,396.8 690.2,386.7 C 660.4,376.6 641.4,594.2 589.6,611.6 C 537.7,629.0 356.4,577.9 379.0,491.0 C 401.6,404.0 662.1,85.7 725.1,90.0 C 788.2,94.3 750.0,417.0 757.2,516.6 C 764.3,616.1 818.0,672.9 768.1,687.3 C 718.2,701.6 530.4,637.8 457.8,602.8 C 385.1,567.8 323.7,482.7 332.1,477.2 C 340.5,471.8 456.4,623.9 507.9,570.1 C 559.4,516.3 657.8,145.5 641.1,154.5 C 624.4,163.5 436.8,541.7 407.9,624.1 Z" fill="none" stroke="#e7edf8" stroke-width="2.6" stroke-linejoin="round" stroke-linecap="round"/>
<path d="M 407.9,624.1 C 379.0,706.4 419.1,618.8 467.7,648.6 C 516.3,678.4 644.6,759.4 699.6,802.9 C 754.7,846.5 786.4,931.8 797.9,910.0 C 809.4,888.2 786.4,759.6 768.5,672.4 C 750.5,585.2 720.0,396.8 690.2,386.7 C 660.4,376.6 641.4,594.2 589.6,611.6 C 537.7,629.0 356.4,577.9 379.0,491.0 C 401.6,404.0 662.1,85.7 725.1,90.0 C 788.2,94.3 750.0,417.0 757.2,516.6 C 764.3,616.1 818.0,672.9 768.1,687.3 C 718.2,701.6 530.4,637.8 457.8,602.8 C 385.1,567.8 323.7,482.7 332.1,477.2 C 340.5,471.8 456.4,623.9 507.9,570.1 C 559.4,516.3 657.8,145.5 641.1,154.5 C 624.4,163.5 436.8,541.7 407.9,624.1 Z" fill="none" stroke="#ff5a36" stroke-opacity="0.55" stroke-width="1.2" stroke-linejoin="round" filter="url(#glow)"/>
<circle cx="870.3" cy="1168.9" r="13" fill="none" stroke="#ffffff" stroke-width="3"/>
<rect x="866.3" y="1146.9" width="8" height="18" fill="#ffffff"/>
<circle cx="407.9" cy="624.1" r="7" fill="#ff5a36" stroke="#0a0c12" stroke-width="2.5" filter="url(#glow)"/>
<text x="407.9" y="627.5" font-size="9" font-weight="700" fill="#0a0c12" text-anchor="middle">1</text>
<circle cx="467.7" cy="648.6" r="7" fill="#ff5a36" stroke="#0a0c12" stroke-width="2.5" filter="url(#glow)"/>
<text x="467.7" y="652.0" font-size="9" font-weight="700" fill="#0a0c12" text-anchor="middle">2</text>
<circle cx="699.6" cy="802.9" r="7" fill="#ff5a36" stroke="#0a0c12" stroke-width="2.5" filter="url(#glow)"/>
<text x="699.6" y="806.3" font-size="9" font-weight="700" fill="#0a0c12" text-anchor="middle">3</text>
<circle cx="797.9" cy="910.0" r="7" fill="#ff5a36" stroke="#0a0c12" stroke-width="2.5" filter="url(#glow)"/>
<text x="797.9" y="913.4" font-size="9" font-weight="700" fill="#0a0c12" text-anchor="middle">4</text>
<circle cx="768.5" cy="672.4" r="7" fill="#ff5a36" stroke="#0a0c12" stroke-width="2.5" filter="url(#glow)"/>
<text x="768.5" y="675.8" font-size="9" font-weight="700" fill="#0a0c12" text-anchor="middle">5</text>
<circle cx="690.2" cy="386.7" r="7" fill="#ff5a36" stroke="#0a0c12" stroke-width="2.5" filter="url(#glow)"/>
<text x="690.2" y="390.1" font-size="9" font-weight="700" fill="#0a0c12" text-anchor="middle">6</text>
<circle cx="589.6" cy="611.6" r="7" fill="#ff5a36" stroke="#0a0c12" stroke-width="2.5" filter="url(#glow)"/>
<text x="589.6" y="615.0" font-size="9" font-weight="700" fill="#0a0c12" text-anchor="middle">7</text>
<circle cx="379.0" cy="491.0" r="7" fill="#ff5a36" stroke="#0a0c12" stroke-width="2.5" filter="url(#glow)"/>
<text x="379.0" y="494.4" font-size="9" font-weight="700" fill="#0a0c12" text-anchor="middle">8</text>
<circle cx="725.1" cy="90.0" r="7" fill="#ff5a36" stroke="#0a0c12" stroke-width="2.5" filter="url(#glow)"/>
<text x="725.1" y="93.4" font-size="9" font-weight="700" fill="#0a0c12" text-anchor="middle">9</text>
<circle cx="757.2" cy="516.6" r="7" fill="#ff5a36" stroke="#0a0c12" stroke-width="2.5" filter="url(#glow)"/>
<text x="757.2" y="520.0" font-size="9" font-weight="700" fill="#0a0c12" text-anchor="middle">10</text>
<circle cx="768.1" cy="687.3" r="7" fill="#ff5a36" stroke="#0a0c12" stroke-width="2.5" filter="url(#glow)"/>
<text x="768.1" y="690.7" font-size="9" font-weight="700" fill="#0a0c12" text-anchor="middle">11</text>
<circle cx="457.8" cy="602.8" r="7" fill="#ff5a36" stroke="#0a0c12" stroke-width="2.5" filter="url(#glow)"/>
<text x="457.8" y="606.2" font-size="9" font-weight="700" fill="#0a0c12" text-anchor="middle">12</text>
<circle cx="332.1" cy="477.2" r="7" fill="#ff5a36" stroke="#0a0c12" stroke-width="2.5" filter="url(#glow)"/>
<text x="332.1" y="480.6" font-size="9" font-weight="700" fill="#0a0c12" text-anchor="middle">13</text>
<circle cx="507.9" cy="570.1" r="7" fill="#ff5a36" stroke="#0a0c12" stroke-width="2.5" filter="url(#glow)"/>
<text x="507.9" y="573.5" font-size="9" font-weight="700" fill="#0a0c12" text-anchor="middle">14</text>
<circle cx="641.1" cy="154.5" r="7" fill="#ff5a36" stroke="#0a0c12" stroke-width="2.5" filter="url(#glow)"/>
<text x="641.1" y="157.9" font-size="9" font-weight="700" fill="#0a0c12" text-anchor="middle">15</text>
<line x1="407.9" y1="624.1" x2="359.5" y2="642.9" stroke="#ff5a36" stroke-opacity="0.45" stroke-width="1.3"/>
<text x="351.5" y="646.9" font-size="15" font-weight="600" fill="#eef2fb" text-anchor="end">Primeira</text>
<line x1="699.6" y1="802.9" x2="718.8" y2="851.3" stroke="#ff5a36" stroke-opacity="0.45" stroke-width="1.3"/>
<text x="726.8" y="855.3" font-size="15" font-weight="600" fill="#eef2fb" text-anchor="start">Lagos</text>
<line x1="768.5" y1="672.4" x2="810.5" y2="703.0" stroke="#ff5a36" stroke-opacity="0.45" stroke-width="1.3"/>
<text x="818.5" y="707.0" font-size="15" font-weight="600" fill="#eef2fb" text-anchor="start">Torre Vip</text>
<line x1="379.0" y1="491.0" x2="328.8" y2="477.6" stroke="#ff5a36" stroke-opacity="0.45" stroke-width="1.3"/>
<text x="320.8" y="481.6" font-size="15" font-weight="600" fill="#eef2fb" text-anchor="end">Samsung</text>
<line x1="725.1" y1="90.0" x2="738.9" y2="39.8" stroke="#ff5a36" stroke-opacity="0.45" stroke-width="1.3"/>
<text x="746.9" y="43.8" font-size="15" font-weight="600" fill="#eef2fb" text-anchor="start">Craig Jones</text>
<line x1="757.2" y1="516.6" x2="808.0" y2="505.9" stroke="#ff5a36" stroke-opacity="0.45" stroke-width="1.3"/>
<text x="816.0" y="509.9" font-size="15" font-weight="600" fill="#eef2fb" text-anchor="start">Portimão</text>
<line x1="507.9" y1="570.1" x2="457.2" y2="581.4" stroke="#ff5a36" stroke-opacity="0.45" stroke-width="1.3"/>
<text x="449.2" y="585.4" font-size="15" font-weight="600" fill="#eef2fb" text-anchor="end">Sagres</text>
<line x1="641.1" y1="154.5" x2="646.6" y2="102.8" stroke="#ff5a36" stroke-opacity="0.45" stroke-width="1.3"/>
<text x="654.6" y="106.8" font-size="15" font-weight="600" fill="#eef2fb" text-anchor="start">Galp</text>
<text x="90" y="64" font-size="20" letter-spacing="5" fill="#ff5a36" font-weight="700">TRACK ATLAS</text>
<text x="90" y="108" font-size="42" font-weight="800" fill="#ffffff">AUTODROMO INTERNACIONAL DO ALGARVE</text>
<text x="90" y="136" font-size="16" fill="#9aa6bd">Portimao</text>
<rect x="1170" y="200" width="360" height="710" rx="16" fill="#ffffff" fill-opacity="0.04" stroke="#ff5a36" stroke-opacity="0.5"/>
<text x="1198" y="250" font-size="13" letter-spacing="2" fill="#8794ab">LAYOUT</text>
<text x="1198" y="276" font-size="22" font-weight="700" fill="#eef2fb">Grand Prix Circuit</text>
<text x="1198" y="320" font-size="13" letter-spacing="2" fill="#8794ab">LENGTH</text>
<text x="1198" y="346" font-size="22" font-weight="700" fill="#eef2fb">4.653 km</text>
<text x="1198" y="390" font-size="13" letter-spacing="2" fill="#8794ab">CORNERS</text>
<text x="1198" y="416" font-size="22" font-weight="700" fill="#eef2fb">15</text>
<text x="1198" y="460" font-size="13" letter-spacing="2" fill="#8794ab">NAMED CORNERS</text>
<text x="1198" y="486" font-size="22" font-weight="700" fill="#eef2fb">8</text>
<text x="1198" y="530" font-size="13" letter-spacing="2" fill="#8794ab">DIRECTION</text>
<text x="1198" y="556" font-size="22" font-weight="700" fill="#eef2fb">Clockwise</text>
<text x="1198" y="600" font-size="13" letter-spacing="2" fill="#8794ab">SECTORS</text>
<text x="1198" y="626" font-size="22" font-weight="700" fill="#eef2fb">3</text>
<text x="1198" y="670" font-size="13" letter-spacing="2" fill="#8794ab">COUNTRY</text>
<text x="1198" y="696" font-size="22" font-weight="700" fill="#eef2fb">PT</text>
<text x="1198" y="740" font-size="13" letter-spacing="2" fill="#8794ab">LOCATION</text>
<text x="1198" y="766" font-size="22" font-weight="700" fill="#eef2fb">Portimao</text>
<text x="90" y="966" font-size="12" fill="#566177">Geometry © OpenStreetMap contributors (ODbL) · corner data: Lovely-Sim-Racing + curated · track-atlas</text>
<text x="90" y="942" font-size="12" fill="#8794ab">⚑ start / finish</text>
</svg>