<svg xmlns="http://www.w3.org/2000/svg" width="1600" height="1000" viewBox="0 0 1600 1000" font-family="Helvetica, Arial, sans-serif">
<defs>
      <radialGradient id="bg" cx="38%" cy="34%" r="85%">
        <stop offset="0%" stop-color="#1b2030"/>
        <stop offset="55%" stop-color="#12151f"/>
        <stop offset="100%" stop-color="#0a0c12"/>
      </radialGradient>
      <linearGradient id="accent" x1="0" y1="0" x2="1" y2="1">
        <stop offset="0%" stop-color="#ff5a36"/>
        <stop offset="100%" stop-color="#ffffff"/>
      </linearGradient>
      <filter id="glow" x="-40%" y="-40%" width="180%" height="180%">
        <feGaussianBlur stdDeviation="6" result="b"/>
        <feMerge><feMergeNode in="b"/><feMergeNode in="SourceGraphic"/></feMerge>
      </filter>
    </defs>
<rect width="1600" height="1000" fill="url(#bg)"/>
<line x1="0" y1="0" x2="0" y2="1000" stroke="#ffffff" stroke-opacity="0.025"/>
<line x1="56" y1="0" x2="56" y2="1000" stroke="#ffffff" stroke-opacity="0.025"/>
<line x1="112" y1="0" x2="112" y2="1000" stroke="#ffffff" stroke-opacity="0.025"/>
<line x1="168" y1="0" x2="168" y2="1000" stroke="#ffffff" stroke-opacity="0.025"/>
<line x1="224" y1="0" x2="224" y2="1000" stroke="#ffffff" stroke-opacity="0.025"/>
<line x1="280" y1="0" x2="280" y2="1000" stroke="#ffffff" stroke-opacity="0.025"/>
<line x1="336" y1="0" x2="336" y2="1000" stroke="#ffffff" stroke-opacity="0.025"/>
<line x1="392" y1="0" x2="392" y2="1000" stroke="#ffffff" stroke-opacity="0.025"/>
<line x1="448" y1="0" x2="448" y2="1000" stroke="#ffffff" stroke-opacity="0.025"/>
<line x1="504" y1="0" x2="504" y2="1000" stroke="#ffffff" stroke-opacity="0.025"/>
<line x1="560" y1="0" x2="560" y2="1000" stroke="#ffffff" stroke-opacity="0.025"/>
<line x1="616" y1="0" x2="616" y2="1000" stroke="#ffffff" stroke-opacity="0.025"/>
<line x1="672" y1="0" x2="672" y2="1000" stroke="#ffffff" stroke-opacity="0.025"/>
<line x1="728" y1="0" x2="728" y2="1000" stroke="#ffffff" stroke-opacity="0.025"/>
<line x1="784" y1="0" x2="784" y2="1000" stroke="#ffffff" stroke-opacity="0.025"/>
<line x1="840" y1="0" x2="840" y2="1000" stroke="#ffffff" stroke-opacity="0.025"/>
<line x1="896" y1="0" x2="896" y2="1000" stroke="#ffffff" stroke-opacity="0.025"/>
<line x1="952" y1="0" x2="952" y2="1000" stroke="#ffffff" stroke-opacity="0.025"/>
<line x1="1008" y1="0" x2="1008" y2="1000" stroke="#ffffff" stroke-opacity="0.025"/>
<line x1="1064" y1="0" x2="1064" y2="1000" stroke="#ffffff" stroke-opacity="0.025"/>
<line x1="1120" y1="0" x2="1120" y2="1000" stroke="#ffffff" stroke-opacity="0.025"/>
<line x1="1176" y1="0" x2="1176" y2="1000" stroke="#ffffff" stroke-opacity="0.025"/>
<line x1="1232" y1="0" x2="1232" y2="1000" stroke="#ffffff" stroke-opacity="0.025"/>
<line x1="1288" y1="0" x2="1288" y2="1000" stroke="#ffffff" stroke-opacity="0.025"/>
<line x1="1344" y1="0" x2="1344" y2="1000" stroke="#ffffff" stroke-opacity="0.025"/>
<line x1="1400" y1="0" x2="1400" y2="1000" stroke="#ffffff" stroke-opacity="0.025"/>
<line x1="1456" y1="0" x2="1456" y2="1000" stroke="#ffffff" stroke-opacity="0.025"/>
<line x1="1512" y1="0" x2="1512" y2="1000" stroke="#ffffff" stroke-opacity="0.025"/>
<line x1="1568" y1="0" x2="1568" y2="1000" stroke="#ffffff" stroke-opacity="0.025"/>
<line x1="0" y1="0" x2="1600" y2="0" stroke="#ffffff" stroke-opacity="0.025"/>
<line x1="0" y1="56" x2="1600" y2="56" stroke="#ffffff" stroke-opacity="0.025"/>
<line x1="0" y1="112" x2="1600" y2="112" stroke="#ffffff" stroke-opacity="0.025"/>
<line x1="0" y1="168" x2="1600" y2="168" stroke="#ffffff" stroke-opacity="0.025"/>
<line x1="0" y1="224" x2="1600" y2="224" stroke="#ffffff" stroke-opacity="0.025"/>
<line x1="0" y1="280" x2="1600" y2="280" stroke="#ffffff" stroke-opacity="0.025"/>
<line x1="0" y1="336" x2="1600" y2="336" stroke="#ffffff" stroke-opacity="0.025"/>
<line x1="0" y1="392" x2="1600" y2="392" stroke="#ffffff" stroke-opacity="0.025"/>
<line x1="0" y1="448" x2="1600" y2="448" stroke="#ffffff" stroke-opacity="0.025"/>
<line x1="0" y1="504" x2="1600" y2="504" stroke="#ffffff" stroke-opacity="0.025"/>
<line x1="0" y1="560" x2="1600" y2="560" stroke="#ffffff" stroke-opacity="0.025"/>
<line x1="0" y1="616" x2="1600" y2="616" stroke="#ffffff" stroke-opacity="0.025"/>
<line x1="0" y1="672" x2="1600" y2="672" stroke="#ffffff" stroke-opacity="0.025"/>
<line x1="0" y1="728" x2="1600" y2="728" stroke="#ffffff" stroke-opacity="0.025"/>
<line x1="0" y1="784" x2="1600" y2="784" stroke="#ffffff" stroke-opacity="0.025"/>
<line x1="0" y1="840" x2="1600" y2="840" stroke="#ffffff" stroke-opacity="0.025"/>
<line x1="0" y1="896" x2="1600" y2="896" stroke="#ffffff" stroke-opacity="0.025"/>
<line x1="0" y1="952" x2="1600" y2="952" stroke="#ffffff" stroke-opacity="0.025"/>
<path d="M 100.1,530.9 L 150.0,569.7 L 271.2,664.9 L 379.9,750.0 L 390.5,757.7 L 400.5,764.1 L 409.8,769.4 L 412.3,770.7 L 414.3,771.3 L 416.2,771.5 L 417.9,771.4 L 419.5,770.9 L 420.3,770.7 L 421.7,769.9 L 423.0,768.7 L 424.0,767.3 L 424.4,765.6 L 424.3,763.4 L 424.0,761.4 L 423.3,758.5 L 420.9,750.5 L 417.2,740.3 L 400.9,691.9 L 398.0,683.4 L 396.9,679.3 L 396.2,675.2 L 395.8,671.4 L 395.8,667.7 L 396.0,663.5 L 396.5,659.2 L 397.4,655.0 L 398.8,650.5 L 400.3,646.3 L 402.2,642.2 L 404.2,638.4 L 406.5,634.7 L 409.1,631.2 L 412.1,627.8 L 415.2,624.7 L 419.0,621.8 L 423.1,618.9 L 428.2,615.7 L 437.9,609.8 L 488.4,579.0 L 495.4,574.4 L 499.0,571.9 L 502.7,569.0 L 505.8,566.0 L 508.7,562.6 L 511.0,559.1 L 513.0,555.6 L 515.1,550.7 L 517.1,545.5 L 518.7,541.0 L 520.2,536.8 L 522.0,532.4 L 524.1,528.4 L 526.5,524.8 L 529.3,521.2 L 532.9,517.9 L 537.1,515.4 L 541.8,513.1 L 548.5,510.6 L 555.1,508.2 L 559.0,506.5 L 562.3,504.5 L 565.4,502.1 L 568.2,499.4 L 570.9,496.5 L 572.8,493.8 L 574.5,490.3 L 575.7,486.7 L 576.5,483.1 L 577.2,478.0 L 578.2,470.3 L 579.2,462.8 L 580.4,456.7 L 581.8,452.4 L 584.0,447.9 L 586.5,443.6 L 590.2,438.9 L 594.1,434.9 L 597.5,431.7 L 601.9,428.5 L 606.0,425.8 L 610.0,423.5 L 614.6,421.2 L 620.1,418.8 L 624.9,417.3 L 629.2,416.3 L 633.1,415.8 L 636.4,415.6 L 639.6,415.7 L 642.5,416.1 L 645.5,416.7 L 648.5,417.5 L 651.9,418.7 L 663.9,424.2 L 680.1,431.7 L 695.6,438.7 L 699.0,440.3 L 701.3,441.2 L 703.0,441.6 L 705.0,441.8 L 706.8,441.8 L 708.8,441.4 L 711.2,440.4 L 714.3,438.8 L 721.9,434.0 L 727.8,429.3 L 732.9,425.0 L 737.4,420.8 L 743.2,414.3 L 745.9,410.8 L 748.4,407.2 L 750.5,404.0 L 753.0,400.5 L 755.2,398.1 L 758.3,395.5 L 761.2,393.8 L 764.4,392.4 L 768.1,391.3 L 772.3,390.5 L 776.0,390.3 L 780.1,390.7 L 783.6,391.4 L 786.8,392.5 L 789.1,393.5 L 791.2,394.7 L 793.4,396.2 L 795.0,397.7 L 797.0,399.7 L 798.5,401.5 L 800.3,403.9 L 802.2,406.8 L 803.4,409.0 L 804.4,411.0 L 805.5,412.5 L 806.9,413.7 L 808.7,415.1 L 810.5,416.1 L 812.6,416.7 L 814.5,417.1 L 816.9,417.2 L 819.3,416.9 L 822.4,416.4 L 828.8,414.9 L 897.8,399.8 L 904.3,398.4 L 907.5,397.7 L 910.0,396.9 L 912.1,396.0 L 913.9,394.9 L 915.5,393.6 L 917.2,391.9 L 921.7,386.4 L 1010.8,278.5 L 1031.7,253.1 L 1037.0,246.0 L 1038.7,243.2 L 1039.6,240.7 L 1040.0,238.2 L 1039.9,236.0 L 1039.1,233.6 L 1038.1,231.7 L 1036.5,230.1 L 1034.9,229.2 L 1033.2,228.6 L 1031.3,228.5 L 1029.3,228.5 L 1027.1,228.8 L 1023.3,229.8 L 1008.7,234.3 L 972.2,246.0 L 931.4,258.7 L 867.3,276.6 L 827.7,286.5 L 771.6,299.4 L 707.2,312.2 L 644.2,322.6 L 628.0,324.8 L 610.2,327.3 L 609.1,327.4 L 607.2,327.6 L 572.3,331.9 L 555.7,333.6 L 549.2,334.3 L 530.1,336.5 L 515.3,338.2 L 481.2,342.0 L 449.1,345.6 L 439.8,346.7 L 437.1,347.2 L 435.3,347.8 L 434.2,348.5 L 433.0,349.9 L 432.4,351.1 L 432.0,352.6 L 431.9,353.9 L 432.2,355.4 L 432.8,356.9 L 433.8,358.7 L 439.6,365.9 L 451.4,380.9 L 459.9,392.1 L 473.3,411.2 L 486.0,431.6 L 489.6,437.1 L 490.7,438.3 L 491.3,442.0 L 491.4,444.1 L 491.4,446.0 L 491.0,447.7 L 490.4,449.6 L 489.5,451.0 L 488.4,452.4 L 487.0,453.7 L 485.7,454.5 L 484.0,455.1 L 482.3,455.5 L 480.3,455.6 L 477.8,455.5 L 467.0,454.8 L 458.8,454.3 L 454.2,454.0 L 450.9,453.7 L 448.9,453.3 L 447.1,452.7 L 445.4,451.8 L 443.6,450.6 L 441.4,448.8 L 440.1,447.2 L 438.9,445.1 L 437.9,442.6 L 435.2,435.2 L 433.4,430.4 L 431.8,426.1 L 430.1,422.5 L 428.1,419.4 L 426.1,417.0 L 421.6,412.2 L 412.7,402.5 L 410.6,400.4 L 408.4,398.5 L 406.4,397.1 L 403.8,395.7 L 401.3,394.9 L 398.3,394.1 L 395.0,393.6 L 390.8,393.0 L 384.1,392.4 L 382.1,392.3 L 380.0,392.3 L 378.4,392.6 L 377.2,393.1 L 376.1,393.9 L 375.2,394.6 L 374.6,395.6 L 374.1,396.7 L 373.7,397.9 L 373.6,399.1 L 373.7,400.4 L 373.9,401.8 L 374.3,403.3 L 375.2,405.3 L 382.5,418.1 L 412.9,470.9 L 418.0,480.3 L 419.7,484.0 L 420.7,486.6 L 422.0,490.2 L 422.7,493.7 L 423.0,497.6 L 423.1,501.4 L 422.7,505.2 L 422.1,509.1 L 420.9,514.2 L 418.8,520.1 L 415.4,528.6 L 413.6,532.5 L 411.6,536.1 L 409.5,539.2 L 407.5,541.9 L 405.8,543.5 L 404.1,544.9 L 401.6,546.3 L 381.8,555.8 L 374.6,559.0 L 370.0,560.9 L 367.6,561.9 L 365.2,562.8 L 362.3,563.4 L 358.8,563.7 L 355.3,563.8 L 351.5,563.6 L 345.3,563.0 L 339.1,562.0 L 334.2,560.7 L 327.6,558.8 L 321.5,556.5 L 316.4,554.3 L 312.5,552.5 L 309.2,550.5 L 305.5,547.9 L 302.1,544.8 L 299.7,542.3 L 297.7,539.7 L 294.6,535.4 L 286.7,523.6 L 281.0,515.7 L 275.5,508.4 L 270.6,501.2 L 264.2,492.8 L 257.1,483.6 L 246.3,470.2 L 239.5,462.0 L 237.1,459.6 L 234.9,457.8 L 233.0,456.6 L 231.2,455.8 L 229.4,455.3 L 227.3,454.9 L 224.9,454.8 L 222.6,455.0 L 219.8,455.5 L 216.1,456.3 L 212.0,457.5 L 207.1,459.3 L 202.2,461.3 L 192.9,465.5 L 106.3,503.8 L 97.2,507.7 L 95.3,508.7 L 93.9,509.7 L 92.8,510.7 L 91.8,511.8 L 91.1,512.9 L 90.7,514.0 L 90.3,515.4 L 90.1,516.6 L 90.0,517.9 L 90.1,519.2 L 90.5,520.7 L 91.0,521.9 L 92.0,523.6 L 93.6,525.5 L 100.1,530.9 Z" fill="none" stroke="#000000" stroke-opacity="0.5" stroke-width="13" stroke-linejoin="round" stroke-linecap="round"/>
<path d="M 100.1,530.9 L 150.0,569.7 L 271.2,664.9 L 379.9,750.0 L 390.5,757.7 L 400.5,764.1 L 409.8,769.4 L 412.3,770.7 L 414.3,771.3 L 416.2,771.5 L 417.9,771.4 L 419.5,770.9 L 420.3,770.7 L 421.7,769.9 L 423.0,768.7 L 424.0,767.3 L 424.4,765.6 L 424.3,763.4 L 424.0,761.4 L 423.3,758.5 L 420.9,750.5 L 417.2,740.3 L 400.9,691.9 L 398.0,683.4 L 396.9,679.3 L 396.2,675.2 L 395.8,671.4 L 395.8,667.7 L 396.0,663.5 L 396.5,659.2 L 397.4,655.0 L 398.8,650.5 L 400.3,646.3 L 402.2,642.2 L 404.2,638.4 L 406.5,634.7 L 409.1,631.2 L 412.1,627.8 L 415.2,624.7 L 419.0,621.8 L 423.1,618.9 L 428.2,615.7 L 437.9,609.8 L 488.4,579.0 L 495.4,574.4 L 499.0,571.9 L 502.7,569.0 L 505.8,566.0 L 508.7,562.6 L 511.0,559.1 L 513.0,555.6 L 515.1,550.7 L 517.1,545.5 L 518.7,541.0 L 520.2,536.8 L 522.0,532.4 L 524.1,528.4 L 526.5,524.8 L 529.3,521.2 L 532.9,517.9 L 537.1,515.4 L 541.8,513.1 L 548.5,510.6 L 555.1,508.2 L 559.0,506.5 L 562.3,504.5 L 565.4,502.1 L 568.2,499.4 L 570.9,496.5 L 572.8,493.8 L 574.5,490.3 L 575.7,486.7 L 576.5,483.1 L 577.2,478.0 L 578.2,470.3 L 579.2,462.8 L 580.4,456.7 L 581.8,452.4 L 584.0,447.9 L 586.5,443.6 L 590.2,438.9 L 594.1,434.9 L 597.5,431.7 L 601.9,428.5 L 606.0,425.8 L 610.0,423.5 L 614.6,421.2 L 620.1,418.8 L 624.9,417.3 L 629.2,416.3 L 633.1,415.8 L 636.4,415.6 L 639.6,415.7 L 642.5,416.1 L 645.5,416.7 L 648.5,417.5 L 651.9,418.7 L 663.9,424.2 L 680.1,431.7 L 695.6,438.7 L 699.0,440.3 L 701.3,441.2 L 703.0,441.6 L 705.0,441.8 L 706.8,441.8 L 708.8,441.4 L 711.2,440.4 L 714.3,438.8 L 721.9,434.0 L 727.8,429.3 L 732.9,425.0 L 737.4,420.8 L 743.2,414.3 L 745.9,410.8 L 748.4,407.2 L 750.5,404.0 L 753.0,400.5 L 755.2,398.1 L 758.3,395.5 L 761.2,393.8 L 764.4,392.4 L 768.1,391.3 L 772.3,390.5 L 776.0,390.3 L 780.1,390.7 L 783.6,391.4 L 786.8,392.5 L 789.1,393.5 L 791.2,394.7 L 793.4,396.2 L 795.0,397.7 L 797.0,399.7 L 798.5,401.5 L 800.3,403.9 L 802.2,406.8 L 803.4,409.0 L 804.4,411.0 L 805.5,412.5 L 806.9,413.7 L 808.7,415.1 L 810.5,416.1 L 812.6,416.7 L 814.5,417.1 L 816.9,417.2 L 819.3,416.9 L 822.4,416.4 L 828.8,414.9 L 897.8,399.8 L 904.3,398.4 L 907.5,397.7 L 910.0,396.9 L 912.1,396.0 L 913.9,394.9 L 915.5,393.6 L 917.2,391.9 L 921.7,386.4 L 1010.8,278.5 L 1031.7,253.1 L 1037.0,246.0 L 1038.7,243.2 L 1039.6,240.7 L 1040.0,238.2 L 1039.9,236.0 L 1039.1,233.6 L 1038.1,231.7 L 1036.5,230.1 L 1034.9,229.2 L 1033.2,228.6 L 1031.3,228.5 L 1029.3,228.5 L 1027.1,228.8 L 1023.3,229.8 L 1008.7,234.3 L 972.2,246.0 L 931.4,258.7 L 867.3,276.6 L 827.7,286.5 L 771.6,299.4 L 707.2,312.2 L 644.2,322.6 L 628.0,324.8 L 610.2,327.3 L 609.1,327.4 L 607.2,327.6 L 572.3,331.9 L 555.7,333.6 L 549.2,334.3 L 530.1,336.5 L 515.3,338.2 L 481.2,342.0 L 449.1,345.6 L 439.8,346.7 L 437.1,347.2 L 435.3,347.8 L 434.2,348.5 L 433.0,349.9 L 432.4,351.1 L 432.0,352.6 L 431.9,353.9 L 432.2,355.4 L 432.8,356.9 L 433.8,358.7 L 439.6,365.9 L 451.4,380.9 L 459.9,392.1 L 473.3,411.2 L 486.0,431.6 L 489.6,437.1 L 490.7,438.3 L 491.3,442.0 L 491.4,444.1 L 491.4,446.0 L 491.0,447.7 L 490.4,449.6 L 489.5,451.0 L 488.4,452.4 L 487.0,453.7 L 485.7,454.5 L 484.0,455.1 L 482.3,455.5 L 480.3,455.6 L 477.8,455.5 L 467.0,454.8 L 458.8,454.3 L 454.2,454.0 L 450.9,453.7 L 448.9,453.3 L 447.1,452.7 L 445.4,451.8 L 443.6,450.6 L 441.4,448.8 L 440.1,447.2 L 438.9,445.1 L 437.9,442.6 L 435.2,435.2 L 433.4,430.4 L 431.8,426.1 L 430.1,422.5 L 428.1,419.4 L 426.1,417.0 L 421.6,412.2 L 412.7,402.5 L 410.6,400.4 L 408.4,398.5 L 406.4,397.1 L 403.8,395.7 L 401.3,394.9 L 398.3,394.1 L 395.0,393.6 L 390.8,393.0 L 384.1,392.4 L 382.1,392.3 L 380.0,392.3 L 378.4,392.6 L 377.2,393.1 L 376.1,393.9 L 375.2,394.6 L 374.6,395.6 L 374.1,396.7 L 373.7,397.9 L 373.6,399.1 L 373.7,400.4 L 373.9,401.8 L 374.3,403.3 L 375.2,405.3 L 382.5,418.1 L 412.9,470.9 L 418.0,480.3 L 419.7,484.0 L 420.7,486.6 L 422.0,490.2 L 422.7,493.7 L 423.0,497.6 L 423.1,501.4 L 422.7,505.2 L 422.1,509.1 L 420.9,514.2 L 418.8,520.1 L 415.4,528.6 L 413.6,532.5 L 411.6,536.1 L 409.5,539.2 L 407.5,541.9 L 405.8,543.5 L 404.1,544.9 L 401.6,546.3 L 381.8,555.8 L 374.6,559.0 L 370.0,560.9 L 367.6,561.9 L 365.2,562.8 L 362.3,563.4 L 358.8,563.7 L 355.3,563.8 L 351.5,563.6 L 345.3,563.0 L 339.1,562.0 L 334.2,560.7 L 327.6,558.8 L 321.5,556.5 L 316.4,554.3 L 312.5,552.5 L 309.2,550.5 L 305.5,547.9 L 302.1,544.8 L 299.7,542.3 L 297.7,539.7 L 294.6,535.4 L 286.7,523.6 L 281.0,515.7 L 275.5,508.4 L 270.6,501.2 L 264.2,492.8 L 257.1,483.6 L 246.3,470.2 L 239.5,462.0 L 237.1,459.6 L 234.9,457.8 L 233.0,456.6 L 231.2,455.8 L 229.4,455.3 L 227.3,454.9 L 224.9,454.8 L 222.6,455.0 L 219.8,455.5 L 216.1,456.3 L 212.0,457.5 L 207.1,459.3 L 202.2,461.3 L 192.9,465.5 L 106.3,503.8 L 97.2,507.7 L 95.3,508.7 L 93.9,509.7 L 92.8,510.7 L 91.8,511.8 L 91.1,512.9 L 90.7,514.0 L 90.3,515.4 L 90.1,516.6 L 90.0,517.9 L 90.1,519.2 L 90.5,520.7 L 91.0,521.9 L 92.0,523.6 L 93.6,525.5 L 100.1,530.9 Z" fill="none" stroke="#39404f" stroke-width="8.5" stroke-linejoin="round" stroke-linecap="round"/>
<path d="M 100.1,530.9 L 150.0,569.7 L 271.2,664.9 L 379.9,750.0 L 390.5,757.7 L 400.5,764.1 L 409.8,769.4 L 412.3,770.7 L 414.3,771.3 L 416.2,771.5 L 417.9,771.4 L 419.5,770.9 L 420.3,770.7 L 421.7,769.9 L 423.0,768.7 L 424.0,767.3 L 424.4,765.6 L 424.3,763.4 L 424.0,761.4 L 423.3,758.5 L 420.9,750.5 L 417.2,740.3 L 400.9,691.9 L 398.0,683.4 L 396.9,679.3 L 396.2,675.2 L 395.8,671.4 L 395.8,667.7 L 396.0,663.5 L 396.5,659.2 L 397.4,655.0 L 398.8,650.5 L 400.3,646.3 L 402.2,642.2 L 404.2,638.4 L 406.5,634.7 L 409.1,631.2 L 412.1,627.8 L 415.2,624.7 L 419.0,621.8 L 423.1,618.9 L 428.2,615.7 L 437.9,609.8 L 488.4,579.0 L 495.4,574.4 L 499.0,571.9 L 502.7,569.0 L 505.8,566.0 L 508.7,562.6 L 511.0,559.1 L 513.0,555.6 L 515.1,550.7 L 517.1,545.5 L 518.7,541.0 L 520.2,536.8 L 522.0,532.4 L 524.1,528.4 L 526.5,524.8 L 529.3,521.2 L 532.9,517.9 L 537.1,515.4 L 541.8,513.1 L 548.5,510.6 L 555.1,508.2 L 559.0,506.5 L 562.3,504.5 L 565.4,502.1 L 568.2,499.4 L 570.9,496.5 L 572.8,493.8 L 574.5,490.3 L 575.7,486.7 L 576.5,483.1 L 577.2,478.0 L 578.2,470.3 L 579.2,462.8 L 580.4,456.7 L 581.8,452.4 L 584.0,447.9 L 586.5,443.6 L 590.2,438.9 L 594.1,434.9 L 597.5,431.7 L 601.9,428.5 L 606.0,425.8 L 610.0,423.5 L 614.6,421.2 L 620.1,418.8 L 624.9,417.3 L 629.2,416.3 L 633.1,415.8 L 636.4,415.6 L 639.6,415.7 L 642.5,416.1 L 645.5,416.7 L 648.5,417.5 L 651.9,418.7 L 663.9,424.2 L 680.1,431.7 L 695.6,438.7 L 699.0,440.3 L 701.3,441.2 L 703.0,441.6 L 705.0,441.8 L 706.8,441.8 L 708.8,441.4 L 711.2,440.4 L 714.3,438.8 L 721.9,434.0 L 727.8,429.3 L 732.9,425.0 L 737.4,420.8 L 743.2,414.3 L 745.9,410.8 L 748.4,407.2 L 750.5,404.0 L 753.0,400.5 L 755.2,398.1 L 758.3,395.5 L 761.2,393.8 L 764.4,392.4 L 768.1,391.3 L 772.3,390.5 L 776.0,390.3 L 780.1,390.7 L 783.6,391.4 L 786.8,392.5 L 789.1,393.5 L 791.2,394.7 L 793.4,396.2 L 795.0,397.7 L 797.0,399.7 L 798.5,401.5 L 800.3,403.9 L 802.2,406.8 L 803.4,409.0 L 804.4,411.0 L 805.5,412.5 L 806.9,413.7 L 808.7,415.1 L 810.5,416.1 L 812.6,416.7 L 814.5,417.1 L 816.9,417.2 L 819.3,416.9 L 822.4,416.4 L 828.8,414.9 L 897.8,399.8 L 904.3,398.4 L 907.5,397.7 L 910.0,396.9 L 912.1,396.0 L 913.9,394.9 L 915.5,393.6 L 917.2,391.9 L 921.7,386.4 L 1010.8,278.5 L 1031.7,253.1 L 1037.0,246.0 L 1038.7,243.2 L 1039.6,240.7 L 1040.0,238.2 L 1039.9,236.0 L 1039.1,233.6 L 1038.1,231.7 L 1036.5,230.1 L 1034.9,229.2 L 1033.2,228.6 L 1031.3,228.5 L 1029.3,228.5 L 1027.1,228.8 L 1023.3,229.8 L 1008.7,234.3 L 972.2,246.0 L 931.4,258.7 L 867.3,276.6 L 827.7,286.5 L 771.6,299.4 L 707.2,312.2 L 644.2,322.6 L 628.0,324.8 L 610.2,327.3 L 609.1,327.4 L 607.2,327.6 L 572.3,331.9 L 555.7,333.6 L 549.2,334.3 L 530.1,336.5 L 515.3,338.2 L 481.2,342.0 L 449.1,345.6 L 439.8,346.7 L 437.1,347.2 L 435.3,347.8 L 434.2,348.5 L 433.0,349.9 L 432.4,351.1 L 432.0,352.6 L 431.9,353.9 L 432.2,355.4 L 432.8,356.9 L 433.8,358.7 L 439.6,365.9 L 451.4,380.9 L 459.9,392.1 L 473.3,411.2 L 486.0,431.6 L 489.6,437.1 L 490.7,438.3 L 491.3,442.0 L 491.4,444.1 L 491.4,446.0 L 491.0,447.7 L 490.4,449.6 L 489.5,451.0 L 488.4,452.4 L 487.0,453.7 L 485.7,454.5 L 484.0,455.1 L 482.3,455.5 L 480.3,455.6 L 477.8,455.5 L 467.0,454.8 L 458.8,454.3 L 454.2,454.0 L 450.9,453.7 L 448.9,453.3 L 447.1,452.7 L 445.4,451.8 L 443.6,450.6 L 441.4,448.8 L 440.1,447.2 L 438.9,445.1 L 437.9,442.6 L 435.2,435.2 L 433.4,430.4 L 431.8,426.1 L 430.1,422.5 L 428.1,419.4 L 426.1,417.0 L 421.6,412.2 L 412.7,402.5 L 410.6,400.4 L 408.4,398.5 L 406.4,397.1 L 403.8,395.7 L 401.3,394.9 L 398.3,394.1 L 395.0,393.6 L 390.8,393.0 L 384.1,392.4 L 382.1,392.3 L 380.0,392.3 L 378.4,392.6 L 377.2,393.1 L 376.1,393.9 L 375.2,394.6 L 374.6,395.6 L 374.1,396.7 L 373.7,397.9 L 373.6,399.1 L 373.7,400.4 L 373.9,401.8 L 374.3,403.3 L 375.2,405.3 L 382.5,418.1 L 412.9,470.9 L 418.0,480.3 L 419.7,484.0 L 420.7,486.6 L 422.0,490.2 L 422.7,493.7 L 423.0,497.6 L 423.1,501.4 L 422.7,505.2 L 422.1,509.1 L 420.9,514.2 L 418.8,520.1 L 415.4,528.6 L 413.6,532.5 L 411.6,536.1 L 409.5,539.2 L 407.5,541.9 L 405.8,543.5 L 404.1,544.9 L 401.6,546.3 L 381.8,555.8 L 374.6,559.0 L 370.0,560.9 L 367.6,561.9 L 365.2,562.8 L 362.3,563.4 L 358.8,563.7 L 355.3,563.8 L 351.5,563.6 L 345.3,563.0 L 339.1,562.0 L 334.2,560.7 L 327.6,558.8 L 321.5,556.5 L 316.4,554.3 L 312.5,552.5 L 309.2,550.5 L 305.5,547.9 L 302.1,544.8 L 299.7,542.3 L 297.7,539.7 L 294.6,535.4 L 286.7,523.6 L 281.0,515.7 L 275.5,508.4 L 270.6,501.2 L 264.2,492.8 L 257.1,483.6 L 246.3,470.2 L 239.5,462.0 L 237.1,459.6 L 234.9,457.8 L 233.0,456.6 L 231.2,455.8 L 229.4,455.3 L 227.3,454.9 L 224.9,454.8 L 222.6,455.0 L 219.8,455.5 L 216.1,456.3 L 212.0,457.5 L 207.1,459.3 L 202.2,461.3 L 192.9,465.5 L 106.3,503.8 L 97.2,507.7 L 95.3,508.7 L 93.9,509.7 L 92.8,510.7 L 91.8,511.8 L 91.1,512.9 L 90.7,514.0 L 90.3,515.4 L 90.1,516.6 L 90.0,517.9 L 90.1,519.2 L 90.5,520.7 L 91.0,521.9 L 92.0,523.6 L 93.6,525.5 L 100.1,530.9 Z" fill="none" stroke="#e7edf8" stroke-width="2.6" stroke-linejoin="round" stroke-linecap="round"/>
<path d="M 100.1,530.9 L 150.0,569.7 L 271.2,664.9 L 379.9,750.0 L 390.5,757.7 L 400.5,764.1 L 409.8,769.4 L 412.3,770.7 L 414.3,771.3 L 416.2,771.5 L 417.9,771.4 L 419.5,770.9 L 420.3,770.7 L 421.7,769.9 L 423.0,768.7 L 424.0,767.3 L 424.4,765.6 L 424.3,763.4 L 424.0,761.4 L 423.3,758.5 L 420.9,750.5 L 417.2,740.3 L 400.9,691.9 L 398.0,683.4 L 396.9,679.3 L 396.2,675.2 L 395.8,671.4 L 395.8,667.7 L 396.0,663.5 L 396.5,659.2 L 397.4,655.0 L 398.8,650.5 L 400.3,646.3 L 402.2,642.2 L 404.2,638.4 L 406.5,634.7 L 409.1,631.2 L 412.1,627.8 L 415.2,624.7 L 419.0,621.8 L 423.1,618.9 L 428.2,615.7 L 437.9,609.8 L 488.4,579.0 L 495.4,574.4 L 499.0,571.9 L 502.7,569.0 L 505.8,566.0 L 508.7,562.6 L 511.0,559.1 L 513.0,555.6 L 515.1,550.7 L 517.1,545.5 L 518.7,541.0 L 520.2,536.8 L 522.0,532.4 L 524.1,528.4 L 526.5,524.8 L 529.3,521.2 L 532.9,517.9 L 537.1,515.4 L 541.8,513.1 L 548.5,510.6 L 555.1,508.2 L 559.0,506.5 L 562.3,504.5 L 565.4,502.1 L 568.2,499.4 L 570.9,496.5 L 572.8,493.8 L 574.5,490.3 L 575.7,486.7 L 576.5,483.1 L 577.2,478.0 L 578.2,470.3 L 579.2,462.8 L 580.4,456.7 L 581.8,452.4 L 584.0,447.9 L 586.5,443.6 L 590.2,438.9 L 594.1,434.9 L 597.5,431.7 L 601.9,428.5 L 606.0,425.8 L 610.0,423.5 L 614.6,421.2 L 620.1,418.8 L 624.9,417.3 L 629.2,416.3 L 633.1,415.8 L 636.4,415.6 L 639.6,415.7 L 642.5,416.1 L 645.5,416.7 L 648.5,417.5 L 651.9,418.7 L 663.9,424.2 L 680.1,431.7 L 695.6,438.7 L 699.0,440.3 L 701.3,441.2 L 703.0,441.6 L 705.0,441.8 L 706.8,441.8 L 708.8,441.4 L 711.2,440.4 L 714.3,438.8 L 721.9,434.0 L 727.8,429.3 L 732.9,425.0 L 737.4,420.8 L 743.2,414.3 L 745.9,410.8 L 748.4,407.2 L 750.5,404.0 L 753.0,400.5 L 755.2,398.1 L 758.3,395.5 L 761.2,393.8 L 764.4,392.4 L 768.1,391.3 L 772.3,390.5 L 776.0,390.3 L 780.1,390.7 L 783.6,391.4 L 786.8,392.5 L 789.1,393.5 L 791.2,394.7 L 793.4,396.2 L 795.0,397.7 L 797.0,399.7 L 798.5,401.5 L 800.3,403.9 L 802.2,406.8 L 803.4,409.0 L 804.4,411.0 L 805.5,412.5 L 806.9,413.7 L 808.7,415.1 L 810.5,416.1 L 812.6,416.7 L 814.5,417.1 L 816.9,417.2 L 819.3,416.9 L 822.4,416.4 L 828.8,414.9 L 897.8,399.8 L 904.3,398.4 L 907.5,397.7 L 910.0,396.9 L 912.1,396.0 L 913.9,394.9 L 915.5,393.6 L 917.2,391.9 L 921.7,386.4 L 1010.8,278.5 L 1031.7,253.1 L 1037.0,246.0 L 1038.7,243.2 L 1039.6,240.7 L 1040.0,238.2 L 1039.9,236.0 L 1039.1,233.6 L 1038.1,231.7 L 1036.5,230.1 L 1034.9,229.2 L 1033.2,228.6 L 1031.3,228.5 L 1029.3,228.5 L 1027.1,228.8 L 1023.3,229.8 L 1008.7,234.3 L 972.2,246.0 L 931.4,258.7 L 867.3,276.6 L 827.7,286.5 L 771.6,299.4 L 707.2,312.2 L 644.2,322.6 L 628.0,324.8 L 610.2,327.3 L 609.1,327.4 L 607.2,327.6 L 572.3,331.9 L 555.7,333.6 L 549.2,334.3 L 530.1,336.5 L 515.3,338.2 L 481.2,342.0 L 449.1,345.6 L 439.8,346.7 L 437.1,347.2 L 435.3,347.8 L 434.2,348.5 L 433.0,349.9 L 432.4,351.1 L 432.0,352.6 L 431.9,353.9 L 432.2,355.4 L 432.8,356.9 L 433.8,358.7 L 439.6,365.9 L 451.4,380.9 L 459.9,392.1 L 473.3,411.2 L 486.0,431.6 L 489.6,437.1 L 490.7,438.3 L 491.3,442.0 L 491.4,444.1 L 491.4,446.0 L 491.0,447.7 L 490.4,449.6 L 489.5,451.0 L 488.4,452.4 L 487.0,453.7 L 485.7,454.5 L 484.0,455.1 L 482.3,455.5 L 480.3,455.6 L 477.8,455.5 L 467.0,454.8 L 458.8,454.3 L 454.2,454.0 L 450.9,453.7 L 448.9,453.3 L 447.1,452.7 L 445.4,451.8 L 443.6,450.6 L 441.4,448.8 L 440.1,447.2 L 438.9,445.1 L 437.9,442.6 L 435.2,435.2 L 433.4,430.4 L 431.8,426.1 L 430.1,422.5 L 428.1,419.4 L 426.1,417.0 L 421.6,412.2 L 412.7,402.5 L 410.6,400.4 L 408.4,398.5 L 406.4,397.1 L 403.8,395.7 L 401.3,394.9 L 398.3,394.1 L 395.0,393.6 L 390.8,393.0 L 384.1,392.4 L 382.1,392.3 L 380.0,392.3 L 378.4,392.6 L 377.2,393.1 L 376.1,393.9 L 375.2,394.6 L 374.6,395.6 L 374.1,396.7 L 373.7,397.9 L 373.6,399.1 L 373.7,400.4 L 373.9,401.8 L 374.3,403.3 L 375.2,405.3 L 382.5,418.1 L 412.9,470.9 L 418.0,480.3 L 419.7,484.0 L 420.7,486.6 L 422.0,490.2 L 422.7,493.7 L 423.0,497.6 L 423.1,501.4 L 422.7,505.2 L 422.1,509.1 L 420.9,514.2 L 418.8,520.1 L 415.4,528.6 L 413.6,532.5 L 411.6,536.1 L 409.5,539.2 L 407.5,541.9 L 405.8,543.5 L 404.1,544.9 L 401.6,546.3 L 381.8,555.8 L 374.6,559.0 L 370.0,560.9 L 367.6,561.9 L 365.2,562.8 L 362.3,563.4 L 358.8,563.7 L 355.3,563.8 L 351.5,563.6 L 345.3,563.0 L 339.1,562.0 L 334.2,560.7 L 327.6,558.8 L 321.5,556.5 L 316.4,554.3 L 312.5,552.5 L 309.2,550.5 L 305.5,547.9 L 302.1,544.8 L 299.7,542.3 L 297.7,539.7 L 294.6,535.4 L 286.7,523.6 L 281.0,515.7 L 275.5,508.4 L 270.6,501.2 L 264.2,492.8 L 257.1,483.6 L 246.3,470.2 L 239.5,462.0 L 237.1,459.6 L 234.9,457.8 L 233.0,456.6 L 231.2,455.8 L 229.4,455.3 L 227.3,454.9 L 224.9,454.8 L 222.6,455.0 L 219.8,455.5 L 216.1,456.3 L 212.0,457.5 L 207.1,459.3 L 202.2,461.3 L 192.9,465.5 L 106.3,503.8 L 97.2,507.7 L 95.3,508.7 L 93.9,509.7 L 92.8,510.7 L 91.8,511.8 L 91.1,512.9 L 90.7,514.0 L 90.3,515.4 L 90.1,516.6 L 90.0,517.9 L 90.1,519.2 L 90.5,520.7 L 91.0,521.9 L 92.0,523.6 L 93.6,525.5 L 100.1,530.9 Z" fill="none" stroke="#ff5a36" stroke-opacity="0.55" stroke-width="1.2" stroke-linejoin="round" filter="url(#glow)"/>
<circle cx="100.1" cy="530.9" r="13" fill="none" stroke="#ffffff" stroke-width="3"/>
<rect x="96.1" y="508.9" width="8" height="18" fill="#ffffff"/>
<circle cx="370.7" cy="742.7" r="7" fill="#ff5a36" stroke="#0a0c12" stroke-width="2.5" filter="url(#glow)"/>
<text x="370.7" y="746.1" font-size="9" font-weight="700" fill="#0a0c12" text-anchor="middle">1</text>
<circle cx="409.9" cy="718.6" r="7" fill="#ff5a36" stroke="#0a0c12" stroke-width="2.5" filter="url(#glow)"/>
<text x="409.9" y="722.0" font-size="9" font-weight="700" fill="#0a0c12" text-anchor="middle">2</text>
<circle cx="450.3" cy="602.2" r="7" fill="#ff5a36" stroke="#0a0c12" stroke-width="2.5" filter="url(#glow)"/>
<text x="450.3" y="605.6" font-size="9" font-weight="700" fill="#0a0c12" text-anchor="middle">3</text>
<circle cx="498.9" cy="571.9" r="7" fill="#ff5a36" stroke="#0a0c12" stroke-width="2.5" filter="url(#glow)"/>
<text x="498.9" y="575.3" font-size="9" font-weight="700" fill="#0a0c12" text-anchor="middle">4</text>
<circle cx="527.6" cy="523.4" r="7" fill="#ff5a36" stroke="#0a0c12" stroke-width="2.5" filter="url(#glow)"/>
<text x="527.6" y="526.8" font-size="9" font-weight="700" fill="#0a0c12" text-anchor="middle">5</text>
<circle cx="573.7" cy="492.0" r="7" fill="#ff5a36" stroke="#0a0c12" stroke-width="2.5" filter="url(#glow)"/>
<text x="573.7" y="495.4" font-size="9" font-weight="700" fill="#0a0c12" text-anchor="middle">6</text>
<circle cx="641.4" cy="415.9" r="7" fill="#ff5a36" stroke="#0a0c12" stroke-width="2.5" filter="url(#glow)"/>
<text x="641.4" y="419.3" font-size="9" font-weight="700" fill="#0a0c12" text-anchor="middle">7</text>
<circle cx="720.3" cy="435.1" r="7" fill="#ff5a36" stroke="#0a0c12" stroke-width="2.5" filter="url(#glow)"/>
<text x="720.3" y="438.5" font-size="9" font-weight="700" fill="#0a0c12" text-anchor="middle">8</text>
<circle cx="760.1" cy="394.4" r="7" fill="#ff5a36" stroke="#0a0c12" stroke-width="2.5" filter="url(#glow)"/>
<text x="760.1" y="397.8" font-size="9" font-weight="700" fill="#0a0c12" text-anchor="middle">9</text>
<circle cx="834.0" cy="413.8" r="7" fill="#ff5a36" stroke="#0a0c12" stroke-width="2.5" filter="url(#glow)"/>
<text x="834.0" y="417.2" font-size="9" font-weight="700" fill="#0a0c12" text-anchor="middle">10</text>
<circle cx="1007.8" cy="282.0" r="7" fill="#ff5a36" stroke="#0a0c12" stroke-width="2.5" filter="url(#glow)"/>
<text x="1007.8" y="285.4" font-size="9" font-weight="700" fill="#0a0c12" text-anchor="middle">11</text>
<circle cx="483.7" cy="341.7" r="7" fill="#ff5a36" stroke="#0a0c12" stroke-width="2.5" filter="url(#glow)"/>
<text x="483.7" y="345.1" font-size="9" font-weight="700" fill="#0a0c12" text-anchor="middle">12</text>
<circle cx="449.0" cy="377.9" r="7" fill="#ff5a36" stroke="#0a0c12" stroke-width="2.5" filter="url(#glow)"/>
<text x="449.0" y="381.3" font-size="9" font-weight="700" fill="#0a0c12" text-anchor="middle">13</text>
<circle cx="481.8" cy="424.8" r="7" fill="#ff5a36" stroke="#0a0c12" stroke-width="2.5" filter="url(#glow)"/>
<text x="481.8" y="428.2" font-size="9" font-weight="700" fill="#0a0c12" text-anchor="middle">14</text>
<circle cx="463.1" cy="454.6" r="7" fill="#ff5a36" stroke="#0a0c12" stroke-width="2.5" filter="url(#glow)"/>
<text x="463.1" y="458.0" font-size="9" font-weight="700" fill="#0a0c12" text-anchor="middle">15</text>
<circle cx="427.0" cy="418.1" r="7" fill="#ff5a36" stroke="#0a0c12" stroke-width="2.5" filter="url(#glow)"/>
<text x="427.0" y="421.5" font-size="9" font-weight="700" fill="#0a0c12" text-anchor="middle">16</text>
<circle cx="381.4" cy="416.3" r="7" fill="#ff5a36" stroke="#0a0c12" stroke-width="2.5" filter="url(#glow)"/>
<text x="381.4" y="419.7" font-size="9" font-weight="700" fill="#0a0c12" text-anchor="middle">17</text>
<circle cx="404.8" cy="544.3" r="7" fill="#ff5a36" stroke="#0a0c12" stroke-width="2.5" filter="url(#glow)"/>
<text x="404.8" y="547.7" font-size="9" font-weight="700" fill="#0a0c12" text-anchor="middle">18</text>
<circle cx="283.4" cy="519.0" r="7" fill="#ff5a36" stroke="#0a0c12" stroke-width="2.5" filter="url(#glow)"/>
<text x="283.4" y="522.4" font-size="9" font-weight="700" fill="#0a0c12" text-anchor="middle">19</text>
<circle cx="174.3" cy="473.7" r="7" fill="#ff5a36" stroke="#0a0c12" stroke-width="2.5" filter="url(#glow)"/>
<text x="174.3" y="477.1" font-size="9" font-weight="700" fill="#0a0c12" text-anchor="middle">20</text>
<text x="90" y="64" font-size="20" letter-spacing="5" fill="#ff5a36" font-weight="700">TRACK ATLAS</text>
<text x="90" y="108" font-size="42" font-weight="800" fill="#ffffff">CIRCUIT OF THE AMERICAS</text>
<text x="90" y="136" font-size="16" fill="#9aa6bd">COTA</text>
<rect x="1170" y="200" width="360" height="710" rx="16" fill="#ffffff" fill-opacity="0.04" stroke="#ff5a36" stroke-opacity="0.5"/>
<text x="1198" y="250" font-size="13" letter-spacing="2" fill="#8794ab">LAYOUT</text>
<text x="1198" y="276" font-size="22" font-weight="700" fill="#eef2fb">Grand Prix Circuit</text>
<text x="1198" y="320" font-size="13" letter-spacing="2" fill="#8794ab">LENGTH</text>
<text x="1198" y="346" font-size="22" font-weight="700" fill="#eef2fb">5.515 km</text>
<text x="1198" y="390" font-size="13" letter-spacing="2" fill="#8794ab">CORNERS</text>
<text x="1198" y="416" font-size="22" font-weight="700" fill="#eef2fb">20</text>
<text x="1198" y="460" font-size="13" letter-spacing="2" fill="#8794ab">NAMED CORNERS</text>
<text x="1198" y="486" font-size="22" font-weight="700" fill="#eef2fb">0</text>
<text x="1198" y="530" font-size="13" letter-spacing="2" fill="#8794ab">DIRECTION</text>
<text x="1198" y="556" font-size="22" font-weight="700" fill="#eef2fb">Anticlockwise</text>
<text x="1198" y="600" font-size="13" letter-spacing="2" fill="#8794ab">SECTORS</text>
<text x="1198" y="626" font-size="22" font-weight="700" fill="#eef2fb">3</text>
<text x="1198" y="670" font-size="13" letter-spacing="2" fill="#8794ab">COUNTRY</text>
<text x="1198" y="696" font-size="22" font-weight="700" fill="#eef2fb">USA</text>
<text x="1198" y="740" font-size="13" letter-spacing="2" fill="#8794ab">LOCATION</text>
<text x="1198" y="766" font-size="22" font-weight="700" fill="#eef2fb">Austin, Texas</text>
<text x="90" y="966" font-size="12" fill="#566177">Geometry © OpenStreetMap contributors (ODbL) · corner data: Lovely-Sim-Racing + curated · track-atlas</text>
<text x="90" y="942" font-size="12" fill="#8794ab">⚑ start / finish</text>
</svg>