<svg xmlns="http://www.w3.org/2000/svg" width="1600" height="1000" viewBox="0 0 1600 1000" font-family="Helvetica, Arial, sans-serif">
<defs>
      <radialGradient id="bg" cx="38%" cy="34%" r="85%">
        <stop offset="0%" stop-color="#1b2030"/>
        <stop offset="55%" stop-color="#12151f"/>
        <stop offset="100%" stop-color="#0a0c12"/>
      </radialGradient>
      <linearGradient id="accent" x1="0" y1="0" x2="1" y2="1">
        <stop offset="0%" stop-color="#ff5a36"/>
        <stop offset="100%" stop-color="#ffffff"/>
      </linearGradient>
      <filter id="glow" x="-40%" y="-40%" width="180%" height="180%">
        <feGaussianBlur stdDeviation="6" result="b"/>
        <feMerge><feMergeNode in="b"/><feMergeNode in="SourceGraphic"/></feMerge>
      </filter>
    </defs>
<rect width="1600" height="1000" fill="url(#bg)"/>
<line x1="0" y1="0" x2="0" y2="1000" stroke="#ffffff" stroke-opacity="0.025"/>
<line x1="56" y1="0" x2="56" y2="1000" stroke="#ffffff" stroke-opacity="0.025"/>
<line x1="112" y1="0" x2="112" y2="1000" stroke="#ffffff" stroke-opacity="0.025"/>
<line x1="168" y1="0" x2="168" y2="1000" stroke="#ffffff" stroke-opacity="0.025"/>
<line x1="224" y1="0" x2="224" y2="1000" stroke="#ffffff" stroke-opacity="0.025"/>
<line x1="280" y1="0" x2="280" y2="1000" stroke="#ffffff" stroke-opacity="0.025"/>
<line x1="336" y1="0" x2="336" y2="1000" stroke="#ffffff" stroke-opacity="0.025"/>
<line x1="392" y1="0" x2="392" y2="1000" stroke="#ffffff" stroke-opacity="0.025"/>
<line x1="448" y1="0" x2="448" y2="1000" stroke="#ffffff" stroke-opacity="0.025"/>
<line x1="504" y1="0" x2="504" y2="1000" stroke="#ffffff" stroke-opacity="0.025"/>
<line x1="560" y1="0" x2="560" y2="1000" stroke="#ffffff" stroke-opacity="0.025"/>
<line x1="616" y1="0" x2="616" y2="1000" stroke="#ffffff" stroke-opacity="0.025"/>
<line x1="672" y1="0" x2="672" y2="1000" stroke="#ffffff" stroke-opacity="0.025"/>
<line x1="728" y1="0" x2="728" y2="1000" stroke="#ffffff" stroke-opacity="0.025"/>
<line x1="784" y1="0" x2="784" y2="1000" stroke="#ffffff" stroke-opacity="0.025"/>
<line x1="840" y1="0" x2="840" y2="1000" stroke="#ffffff" stroke-opacity="0.025"/>
<line x1="896" y1="0" x2="896" y2="1000" stroke="#ffffff" stroke-opacity="0.025"/>
<line x1="952" y1="0" x2="952" y2="1000" stroke="#ffffff" stroke-opacity="0.025"/>
<line x1="1008" y1="0" x2="1008" y2="1000" stroke="#ffffff" stroke-opacity="0.025"/>
<line x1="1064" y1="0" x2="1064" y2="1000" stroke="#ffffff" stroke-opacity="0.025"/>
<line x1="1120" y1="0" x2="1120" y2="1000" stroke="#ffffff" stroke-opacity="0.025"/>
<line x1="1176" y1="0" x2="1176" y2="1000" stroke="#ffffff" stroke-opacity="0.025"/>
<line x1="1232" y1="0" x2="1232" y2="1000" stroke="#ffffff" stroke-opacity="0.025"/>
<line x1="1288" y1="0" x2="1288" y2="1000" stroke="#ffffff" stroke-opacity="0.025"/>
<line x1="1344" y1="0" x2="1344" y2="1000" stroke="#ffffff" stroke-opacity="0.025"/>
<line x1="1400" y1="0" x2="1400" y2="1000" stroke="#ffffff" stroke-opacity="0.025"/>
<line x1="1456" y1="0" x2="1456" y2="1000" stroke="#ffffff" stroke-opacity="0.025"/>
<line x1="1512" y1="0" x2="1512" y2="1000" stroke="#ffffff" stroke-opacity="0.025"/>
<line x1="1568" y1="0" x2="1568" y2="1000" stroke="#ffffff" stroke-opacity="0.025"/>
<line x1="0" y1="0" x2="1600" y2="0" stroke="#ffffff" stroke-opacity="0.025"/>
<line x1="0" y1="56" x2="1600" y2="56" stroke="#ffffff" stroke-opacity="0.025"/>
<line x1="0" y1="112" x2="1600" y2="112" stroke="#ffffff" stroke-opacity="0.025"/>
<line x1="0" y1="168" x2="1600" y2="168" stroke="#ffffff" stroke-opacity="0.025"/>
<line x1="0" y1="224" x2="1600" y2="224" stroke="#ffffff" stroke-opacity="0.025"/>
<line x1="0" y1="280" x2="1600" y2="280" stroke="#ffffff" stroke-opacity="0.025"/>
<line x1="0" y1="336" x2="1600" y2="336" stroke="#ffffff" stroke-opacity="0.025"/>
<line x1="0" y1="392" x2="1600" y2="392" stroke="#ffffff" stroke-opacity="0.025"/>
<line x1="0" y1="448" x2="1600" y2="448" stroke="#ffffff" stroke-opacity="0.025"/>
<line x1="0" y1="504" x2="1600" y2="504" stroke="#ffffff" stroke-opacity="0.025"/>
<line x1="0" y1="560" x2="1600" y2="560" stroke="#ffffff" stroke-opacity="0.025"/>
<line x1="0" y1="616" x2="1600" y2="616" stroke="#ffffff" stroke-opacity="0.025"/>
<line x1="0" y1="672" x2="1600" y2="672" stroke="#ffffff" stroke-opacity="0.025"/>
<line x1="0" y1="728" x2="1600" y2="728" stroke="#ffffff" stroke-opacity="0.025"/>
<line x1="0" y1="784" x2="1600" y2="784" stroke="#ffffff" stroke-opacity="0.025"/>
<line x1="0" y1="840" x2="1600" y2="840" stroke="#ffffff" stroke-opacity="0.025"/>
<line x1="0" y1="896" x2="1600" y2="896" stroke="#ffffff" stroke-opacity="0.025"/>
<line x1="0" y1="952" x2="1600" y2="952" stroke="#ffffff" stroke-opacity="0.025"/>
<path d="M 154.6,348.3 C 75.6,328.8 98.3,321.0 90.0,308.4 C 81.7,295.7 19.4,274.4 104.5,272.1 C 189.6,269.8 503.1,290.0 600.8,294.4 C 698.4,298.8 658.9,298.0 690.4,298.7 C 721.9,299.4 748.6,297.5 789.9,298.5 C 831.2,299.6 902.7,303.4 938.0,305.0 C 973.3,306.5 984.7,274.7 1001.7,307.7 C 1018.7,340.7 1046.3,445.3 1040.0,502.9 C 1033.7,560.6 1060.8,616.2 964.1,653.7 C 867.4,691.2 552.6,718.6 459.8,727.9 C 367.0,737.2 438.1,714.0 407.2,709.4 C 376.2,704.7 309.1,701.0 274.0,699.7 C 239.0,698.5 213.6,701.5 196.8,701.9 C 180.1,702.4 190.1,703.6 173.6,702.6 C 157.2,701.5 17.8,711.2 97.9,695.6 C 178.1,680.0 554.5,640.2 654.5,608.7 C 754.6,577.3 713.3,537.5 698.3,506.9 C 683.2,476.3 654.7,451.6 564.1,425.1 C 473.5,398.7 233.6,367.7 154.6,348.3 Z" fill="none" stroke="#000000" stroke-opacity="0.5" stroke-width="13" stroke-linejoin="round" stroke-linecap="round"/>
<path d="M 154.6,348.3 C 75.6,328.8 98.3,321.0 90.0,308.4 C 81.7,295.7 19.4,274.4 104.5,272.1 C 189.6,269.8 503.1,290.0 600.8,294.4 C 698.4,298.8 658.9,298.0 690.4,298.7 C 721.9,299.4 748.6,297.5 789.9,298.5 C 831.2,299.6 902.7,303.4 938.0,305.0 C 973.3,306.5 984.7,274.7 1001.7,307.7 C 1018.7,340.7 1046.3,445.3 1040.0,502.9 C 1033.7,560.6 1060.8,616.2 964.1,653.7 C 867.4,691.2 552.6,718.6 459.8,727.9 C 367.0,737.2 438.1,714.0 407.2,709.4 C 376.2,704.7 309.1,701.0 274.0,699.7 C 239.0,698.5 213.6,701.5 196.8,701.9 C 180.1,702.4 190.1,703.6 173.6,702.6 C 157.2,701.5 17.8,711.2 97.9,695.6 C 178.1,680.0 554.5,640.2 654.5,608.7 C 754.6,577.3 713.3,537.5 698.3,506.9 C 683.2,476.3 654.7,451.6 564.1,425.1 C 473.5,398.7 233.6,367.7 154.6,348.3 Z" fill="none" stroke="#39404f" stroke-width="8.5" stroke-linejoin="round" stroke-linecap="round"/>
<path d="M 154.6,348.3 C 75.6,328.8 98.3,321.0 90.0,308.4 C 81.7,295.7 19.4,274.4 104.5,272.1 C 189.6,269.8 503.1,290.0 600.8,294.4 C 698.4,298.8 658.9,298.0 690.4,298.7 C 721.9,299.4 748.6,297.5 789.9,298.5 C 831.2,299.6 902.7,303.4 938.0,305.0 C 973.3,306.5 984.7,274.7 1001.7,307.7 C 1018.7,340.7 1046.3,445.3 1040.0,502.9 C 1033.7,560.6 1060.8,616.2 964.1,653.7 C 867.4,691.2 552.6,718.6 459.8,727.9 C 367.0,737.2 438.1,714.0 407.2,709.4 C 376.2,704.7 309.1,701.0 274.0,699.7 C 239.0,698.5 213.6,701.5 196.8,701.9 C 180.1,702.4 190.1,703.6 173.6,702.6 C 157.2,701.5 17.8,711.2 97.9,695.6 C 178.1,680.0 554.5,640.2 654.5,608.7 C 754.6,577.3 713.3,537.5 698.3,506.9 C 683.2,476.3 654.7,451.6 564.1,425.1 C 473.5,398.7 233.6,367.7 154.6,348.3 Z" fill="none" stroke="#e7edf8" stroke-width="2.6" stroke-linejoin="round" stroke-linecap="round"/>
<path d="M 154.6,348.3 C 75.6,328.8 98.3,321.0 90.0,308.4 C 81.7,295.7 19.4,274.4 104.5,272.1 C 189.6,269.8 503.1,290.0 600.8,294.4 C 698.4,298.8 658.9,298.0 690.4,298.7 C 721.9,299.4 748.6,297.5 789.9,298.5 C 831.2,299.6 902.7,303.4 938.0,305.0 C 973.3,306.5 984.7,274.7 1001.7,307.7 C 1018.7,340.7 1046.3,445.3 1040.0,502.9 C 1033.7,560.6 1060.8,616.2 964.1,653.7 C 867.4,691.2 552.6,718.6 459.8,727.9 C 367.0,737.2 438.1,714.0 407.2,709.4 C 376.2,704.7 309.1,701.0 274.0,699.7 C 239.0,698.5 213.6,701.5 196.8,701.9 C 180.1,702.4 190.1,703.6 173.6,702.6 C 157.2,701.5 17.8,711.2 97.9,695.6 C 178.1,680.0 554.5,640.2 654.5,608.7 C 754.6,577.3 713.3,537.5 698.3,506.9 C 683.2,476.3 654.7,451.6 564.1,425.1 C 473.5,398.7 233.6,367.7 154.6,348.3 Z" fill="none" stroke="#ff5a36" stroke-opacity="0.55" stroke-width="1.2" stroke-linejoin="round" filter="url(#glow)"/>
<circle cx="497.6" cy="385.0" r="13" fill="none" stroke="#ffffff" stroke-width="3"/>
<rect x="493.6" y="363.0" width="8" height="18" fill="#ffffff"/>
<circle cx="154.6" cy="348.3" r="7" fill="#ff5a36" stroke="#0a0c12" stroke-width="2.5" filter="url(#glow)"/>
<text x="154.6" y="351.7" font-size="9" font-weight="700" fill="#0a0c12" text-anchor="middle">1</text>
<circle cx="90.0" cy="308.4" r="7" fill="#ff5a36" stroke="#0a0c12" stroke-width="2.5" filter="url(#glow)"/>
<text x="90.0" y="311.8" font-size="9" font-weight="700" fill="#0a0c12" text-anchor="middle">2</text>
<circle cx="104.5" cy="272.1" r="7" fill="#ff5a36" stroke="#0a0c12" stroke-width="2.5" filter="url(#glow)"/>
<text x="104.5" y="275.5" font-size="9" font-weight="700" fill="#0a0c12" text-anchor="middle">3</text>
<circle cx="600.8" cy="294.4" r="7" fill="#ff5a36" stroke="#0a0c12" stroke-width="2.5" filter="url(#glow)"/>
<text x="600.8" y="297.8" font-size="9" font-weight="700" fill="#0a0c12" text-anchor="middle">4</text>
<circle cx="690.4" cy="298.7" r="7" fill="#ff5a36" stroke="#0a0c12" stroke-width="2.5" filter="url(#glow)"/>
<text x="690.4" y="302.1" font-size="9" font-weight="700" fill="#0a0c12" text-anchor="middle">5</text>
<circle cx="789.9" cy="298.5" r="7" fill="#ff5a36" stroke="#0a0c12" stroke-width="2.5" filter="url(#glow)"/>
<text x="789.9" y="301.9" font-size="9" font-weight="700" fill="#0a0c12" text-anchor="middle">6</text>
<circle cx="938.0" cy="305.0" r="7" fill="#ff5a36" stroke="#0a0c12" stroke-width="2.5" filter="url(#glow)"/>
<text x="938.0" y="308.4" font-size="9" font-weight="700" fill="#0a0c12" text-anchor="middle">7</text>
<circle cx="1001.7" cy="307.7" r="7" fill="#ff5a36" stroke="#0a0c12" stroke-width="2.5" filter="url(#glow)"/>
<text x="1001.7" y="311.1" font-size="9" font-weight="700" fill="#0a0c12" text-anchor="middle">8</text>
<circle cx="1040.0" cy="502.9" r="7" fill="#ff5a36" stroke="#0a0c12" stroke-width="2.5" filter="url(#glow)"/>
<text x="1040.0" y="506.3" font-size="9" font-weight="700" fill="#0a0c12" text-anchor="middle">9</text>
<circle cx="964.1" cy="653.7" r="7" fill="#ff5a36" stroke="#0a0c12" stroke-width="2.5" filter="url(#glow)"/>
<text x="964.1" y="657.1" font-size="9" font-weight="700" fill="#0a0c12" text-anchor="middle">10</text>
<circle cx="459.8" cy="727.9" r="7" fill="#ff5a36" stroke="#0a0c12" stroke-width="2.5" filter="url(#glow)"/>
<text x="459.8" y="731.3" font-size="9" font-weight="700" fill="#0a0c12" text-anchor="middle">11</text>
<circle cx="407.2" cy="709.4" r="7" fill="#ff5a36" stroke="#0a0c12" stroke-width="2.5" filter="url(#glow)"/>
<text x="407.2" y="712.8" font-size="9" font-weight="700" fill="#0a0c12" text-anchor="middle">12</text>
<circle cx="274.0" cy="699.7" r="7" fill="#ff5a36" stroke="#0a0c12" stroke-width="2.5" filter="url(#glow)"/>
<text x="274.0" y="703.1" font-size="9" font-weight="700" fill="#0a0c12" text-anchor="middle">13</text>
<circle cx="196.8" cy="701.9" r="7" fill="#ff5a36" stroke="#0a0c12" stroke-width="2.5" filter="url(#glow)"/>
<text x="196.8" y="705.3" font-size="9" font-weight="700" fill="#0a0c12" text-anchor="middle">14</text>
<circle cx="173.6" cy="702.6" r="7" fill="#ff5a36" stroke="#0a0c12" stroke-width="2.5" filter="url(#glow)"/>
<text x="173.6" y="706.0" font-size="9" font-weight="700" fill="#0a0c12" text-anchor="middle">15</text>
<circle cx="97.9" cy="695.6" r="7" fill="#ff5a36" stroke="#0a0c12" stroke-width="2.5" filter="url(#glow)"/>
<text x="97.9" y="699.0" font-size="9" font-weight="700" fill="#0a0c12" text-anchor="middle">16</text>
<circle cx="654.5" cy="608.7" r="7" fill="#ff5a36" stroke="#0a0c12" stroke-width="2.5" filter="url(#glow)"/>
<text x="654.5" y="612.1" font-size="9" font-weight="700" fill="#0a0c12" text-anchor="middle">17</text>
<circle cx="698.3" cy="506.9" r="7" fill="#ff5a36" stroke="#0a0c12" stroke-width="2.5" filter="url(#glow)"/>
<text x="698.3" y="510.3" font-size="9" font-weight="700" fill="#0a0c12" text-anchor="middle">18</text>
<circle cx="564.1" cy="425.1" r="7" fill="#ff5a36" stroke="#0a0c12" stroke-width="2.5" filter="url(#glow)"/>
<text x="564.1" y="428.5" font-size="9" font-weight="700" fill="#0a0c12" text-anchor="middle">19</text>
<line x1="154.6" y1="348.3" x2="106.2" y2="329.2" stroke="#ff5a36" stroke-opacity="0.45" stroke-width="1.3"/>
<text x="98.2" y="333.2" font-size="15" font-weight="600" fill="#eef2fb" text-anchor="end">Turn 1</text>
<line x1="90.0" y1="308.4" x2="42.2" y2="287.9" stroke="#ff5a36" stroke-opacity="0.45" stroke-width="1.3"/>
<text x="34.2" y="291.9" font-size="15" font-weight="600" fill="#eef2fb" text-anchor="end">Turn 2</text>
<line x1="104.5" y1="272.1" x2="58.6" y2="247.7" stroke="#ff5a36" stroke-opacity="0.45" stroke-width="1.3"/>
<text x="50.6" y="251.7" font-size="15" font-weight="600" fill="#eef2fb" text-anchor="end">Turn 3</text>
<line x1="600.8" y1="294.4" x2="620.1" y2="246.1" stroke="#ff5a36" stroke-opacity="0.45" stroke-width="1.3"/>
<text x="628.1" y="250.1" font-size="15" font-weight="600" fill="#eef2fb" text-anchor="start">Turn 4</text>
<line x1="690.4" y1="298.7" x2="724.6" y2="276.1" stroke="#ff5a36" stroke-opacity="0.45" stroke-width="1.3"/>
<text x="732.6" y="280.1" font-size="15" font-weight="600" fill="#eef2fb" text-anchor="start">Turn 5</text>
<line x1="789.9" y1="298.5" x2="832.0" y2="306.1" stroke="#ff5a36" stroke-opacity="0.45" stroke-width="1.3"/>
<text x="840.0" y="310.1" font-size="15" font-weight="600" fill="#eef2fb" text-anchor="start">Turn 6</text>
<line x1="938.0" y1="305.0" x2="985.4" y2="336.1" stroke="#ff5a36" stroke-opacity="0.45" stroke-width="1.3"/>
<text x="993.4" y="340.1" font-size="15" font-weight="600" fill="#eef2fb" text-anchor="start">Turn 7</text>
<line x1="1001.7" y1="307.7" x2="1050.2" y2="366.1" stroke="#ff5a36" stroke-opacity="0.45" stroke-width="1.3"/>
<text x="1058.2" y="370.1" font-size="15" font-weight="600" fill="#eef2fb" text-anchor="start">Turn 8</text>
<line x1="1040.0" y1="502.9" x2="1092.0" y2="503.9" stroke="#ff5a36" stroke-opacity="0.45" stroke-width="1.3"/>
<text x="1100.0" y="507.9" font-size="15" font-weight="600" fill="#eef2fb" text-anchor="start">Turn 9</text>
<line x1="964.1" y1="653.7" x2="1013.0" y2="672.8" stroke="#ff5a36" stroke-opacity="0.45" stroke-width="1.3"/>
<text x="1021.0" y="676.8" font-size="15" font-weight="600" fill="#eef2fb" text-anchor="start">Turn 10</text>
<line x1="459.8" y1="727.9" x2="446.7" y2="868.0" stroke="#ff5a36" stroke-opacity="0.45" stroke-width="1.3"/>
<text x="438.7" y="872.0" font-size="15" font-weight="600" fill="#eef2fb" text-anchor="end">Turn 11</text>
<line x1="407.2" y1="709.4" x2="382.9" y2="838.0" stroke="#ff5a36" stroke-opacity="0.45" stroke-width="1.3"/>
<text x="374.9" y="842.0" font-size="15" font-weight="600" fill="#eef2fb" text-anchor="end">Turn 12</text>
<line x1="274.0" y1="699.7" x2="234.1" y2="808.0" stroke="#ff5a36" stroke-opacity="0.45" stroke-width="1.3"/>
<text x="226.1" y="812.0" font-size="15" font-weight="600" fill="#eef2fb" text-anchor="end">Turn 13</text>
<line x1="196.8" y1="701.9" x2="153.1" y2="778.0" stroke="#ff5a36" stroke-opacity="0.45" stroke-width="1.3"/>
<text x="145.1" y="782.0" font-size="15" font-weight="600" fill="#eef2fb" text-anchor="end">Turn 14</text>
<line x1="173.6" y1="702.6" x2="129.1" y2="748.0" stroke="#ff5a36" stroke-opacity="0.45" stroke-width="1.3"/>
<text x="121.1" y="752.0" font-size="15" font-weight="600" fill="#eef2fb" text-anchor="end">Turn 15</text>
<line x1="97.9" y1="695.6" x2="51.0" y2="718.0" stroke="#ff5a36" stroke-opacity="0.45" stroke-width="1.3"/>
<text x="43.0" y="722.0" font-size="15" font-weight="600" fill="#eef2fb" text-anchor="end">Turn 16</text>
<line x1="654.5" y1="608.7" x2="693.8" y2="642.8" stroke="#ff5a36" stroke-opacity="0.45" stroke-width="1.3"/>
<text x="701.8" y="646.8" font-size="15" font-weight="600" fill="#eef2fb" text-anchor="start">Turn 17</text>
<line x1="698.3" y1="506.9" x2="750.1" y2="533.9" stroke="#ff5a36" stroke-opacity="0.45" stroke-width="1.3"/>
<text x="758.1" y="537.9" font-size="15" font-weight="600" fill="#eef2fb" text-anchor="start">Turn 18</text>
<line x1="564.1" y1="425.1" x2="592.0" y2="396.1" stroke="#ff5a36" stroke-opacity="0.45" stroke-width="1.3"/>
<text x="600.0" y="400.1" font-size="15" font-weight="600" fill="#eef2fb" text-anchor="start">Turn 19</text>
<text x="90" y="64" font-size="20" letter-spacing="5" fill="#ff5a36" font-weight="700">TRACK ATLAS</text>
<text x="90" y="108" font-size="42" font-weight="800" fill="#ffffff">MIAMI INTERNATIONAL AUTODROME</text>
<text x="90" y="136" font-size="16" fill="#9aa6bd">Miami</text>
<rect x="1170" y="200" width="360" height="710" rx="16" fill="#ffffff" fill-opacity="0.04" stroke="#ff5a36" stroke-opacity="0.5"/>
<text x="1198" y="250" font-size="13" letter-spacing="2" fill="#8794ab">LAYOUT</text>
<text x="1198" y="276" font-size="22" font-weight="700" fill="#eef2fb">Grand Prix Circuit</text>
<text x="1198" y="320" font-size="13" letter-spacing="2" fill="#8794ab">LENGTH</text>
<text x="1198" y="346" font-size="22" font-weight="700" fill="#eef2fb">5.412 km</text>
<text x="1198" y="390" font-size="13" letter-spacing="2" fill="#8794ab">CORNERS</text>
<text x="1198" y="416" font-size="22" font-weight="700" fill="#eef2fb">19</text>
<text x="1198" y="460" font-size="13" letter-spacing="2" fill="#8794ab">NAMED CORNERS</text>
<text x="1198" y="486" font-size="22" font-weight="700" fill="#eef2fb">19</text>
<text x="1198" y="530" font-size="13" letter-spacing="2" fill="#8794ab">DIRECTION</text>
<text x="1198" y="556" font-size="22" font-weight="700" fill="#eef2fb">Clockwise</text>
<text x="1198" y="600" font-size="13" letter-spacing="2" fill="#8794ab">SECTORS</text>
<text x="1198" y="626" font-size="22" font-weight="700" fill="#eef2fb">3</text>
<text x="1198" y="670" font-size="13" letter-spacing="2" fill="#8794ab">COUNTRY</text>
<text x="1198" y="696" font-size="22" font-weight="700" fill="#eef2fb">USA</text>
<text x="1198" y="740" font-size="13" letter-spacing="2" fill="#8794ab">LOCATION</text>
<text x="1198" y="766" font-size="22" font-weight="700" fill="#eef2fb">Miami Gardens, Florida</text>
<text x="90" y="966" font-size="12" fill="#566177">Geometry © OpenStreetMap contributors (ODbL) · corner data: Lovely-Sim-Racing + curated · track-atlas</text>
<text x="90" y="942" font-size="12" fill="#8794ab">⚑ start / finish</text>
</svg>