<svg xmlns="http://www.w3.org/2000/svg" width="1600" height="1000" viewBox="0 0 1600 1000" font-family="Helvetica, Arial, sans-serif">
<defs>
      <radialGradient id="bg" cx="38%" cy="34%" r="85%">
        <stop offset="0%" stop-color="#1b2030"/>
        <stop offset="55%" stop-color="#12151f"/>
        <stop offset="100%" stop-color="#0a0c12"/>
      </radialGradient>
      <linearGradient id="accent" x1="0" y1="0" x2="1" y2="1">
        <stop offset="0%" stop-color="#ff5a36"/>
        <stop offset="100%" stop-color="#ffffff"/>
      </linearGradient>
      <filter id="glow" x="-40%" y="-40%" width="180%" height="180%">
        <feGaussianBlur stdDeviation="6" result="b"/>
        <feMerge><feMergeNode in="b"/><feMergeNode in="SourceGraphic"/></feMerge>
      </filter>
    </defs>
<rect width="1600" height="1000" fill="url(#bg)"/>
<path d="M 590.2,168.0 C 655.9,155.8 578.9,237.6 600.1,242.8 C 621.4,248.1 705.1,176.9 717.7,199.4 C 730.2,221.8 696.6,342.5 675.2,377.6 C 653.8,412.7 592.8,386.3 589.4,410.2 C 586.1,434.1 604.3,499.3 655.3,520.8 C 706.2,542.3 850.4,521.8 895.2,539.2 C 940.1,556.5 928.0,597.5 924.3,624.9 C 920.6,652.4 901.9,692.3 873.2,704.0 C 844.4,715.6 788.9,690.6 751.8,694.9 C 714.7,699.3 686.5,694.4 650.5,730.2 C 614.5,766.1 567.2,896.0 535.9,910.0 C 504.6,924.0 485.2,848.5 462.9,814.2 C 440.7,779.8 427.6,750.0 402.3,704.1 C 377.0,658.2 344.1,603.6 311.4,538.9 C 278.6,474.2 159.2,377.6 205.7,315.8 C 252.2,253.9 524.5,180.2 590.2,168.0 Z" fill="none" stroke="#000000" stroke-opacity="0.5" stroke-width="13" stroke-linejoin="round" stroke-linecap="round"/>
<path d="M 590.2,168.0 C 655.9,155.8 578.9,237.6 600.1,242.8 C 621.4,248.1 705.1,176.9 717.7,199.4 C 730.2,221.8 696.6,342.5 675.2,377.6 C 653.8,412.7 592.8,386.3 589.4,410.2 C 586.1,434.1 604.3,499.3 655.3,520.8 C 706.2,542.3 850.4,521.8 895.2,539.2 C 940.1,556.5 928.0,597.5 924.3,624.9 C 920.6,652.4 901.9,692.3 873.2,704.0 C 844.4,715.6 788.9,690.6 751.8,694.9 C 714.7,699.3 686.5,694.4 650.5,730.2 C 614.5,766.1 567.2,896.0 535.9,910.0 C 504.6,924.0 485.2,848.5 462.9,814.2 C 440.7,779.8 427.6,750.0 402.3,704.1 C 377.0,658.2 344.1,603.6 311.4,538.9 C 278.6,474.2 159.2,377.6 205.7,315.8 C 252.2,253.9 524.5,180.2 590.2,168.0 Z" fill="none" stroke="#39404f" stroke-width="8.5" stroke-linejoin="round" stroke-linecap="round"/>
<path d="M 590.2,168.0 C 655.9,155.8 578.9,237.6 600.1,242.8 C 621.4,248.1 705.1,176.9 717.7,199.4 C 730.2,221.8 696.6,342.5 675.2,377.6 C 653.8,412.7 592.8,386.3 589.4,410.2 C 586.1,434.1 604.3,499.3 655.3,520.8 C 706.2,542.3 850.4,521.8 895.2,539.2 C 940.1,556.5 928.0,597.5 924.3,624.9 C 920.6,652.4 901.9,692.3 873.2,704.0 C 844.4,715.6 788.9,690.6 751.8,694.9 C 714.7,699.3 686.5,694.4 650.5,730.2 C 614.5,766.1 567.2,896.0 535.9,910.0 C 504.6,924.0 485.2,848.5 462.9,814.2 C 440.7,779.8 427.6,750.0 402.3,704.1 C 377.0,658.2 344.1,603.6 311.4,538.9 C 278.6,474.2 159.2,377.6 205.7,315.8 C 252.2,253.9 524.5,180.2 590.2,168.0 Z" fill="none" stroke="#e7edf8" stroke-width="2.6" stroke-linejoin="round" stroke-linecap="round"/>
<path d="M 590.2,168.0 C 655.9,155.8 578.9,237.6 600.1,242.8 C 621.4,248.1 705.1,176.9 717.7,199.4 C 730.2,221.8 696.6,342.5 675.2,377.6 C 653.8,412.7 592.8,386.3 589.4,410.2 C 586.1,434.1 604.3,499.3 655.3,520.8 C 706.2,542.3 850.4,521.8 895.2,539.2 C 940.1,556.5 928.0,597.5 924.3,624.9 C 920.6,652.4 901.9,692.3 873.2,704.0 C 844.4,715.6 788.9,690.6 751.8,694.9 C 714.7,699.3 686.5,694.4 650.5,730.2 C 614.5,766.1 567.2,896.0 535.9,910.0 C 504.6,924.0 485.2,848.5 462.9,814.2 C 440.7,779.8 427.6,750.0 402.3,704.1 C 377.0,658.2 344.1,603.6 311.4,538.9 C 278.6,474.2 159.2,377.6 205.7,315.8 C 252.2,253.9 524.5,180.2 590.2,168.0 Z" fill="none" stroke="#ff5a36" stroke-opacity="0.55" stroke-width="1.2" stroke-linejoin="round" filter="url(#glow)"/>
<circle cx="389.4" cy="296.3" r="13" fill="none" stroke="#ffffff" stroke-width="3"/>
<rect x="385.4" y="274.3" width="8" height="18" fill="#ffffff"/>
<circle cx="590.2" cy="168.0" r="7" fill="#ff5a36" stroke="#0a0c12" stroke-width="2.5" filter="url(#glow)"/>
<text x="590.2" y="171.4" font-size="9" font-weight="700" fill="#0a0c12" text-anchor="middle">1</text>
<circle cx="600.1" cy="242.8" r="7" fill="#ff5a36" stroke="#0a0c12" stroke-width="2.5" filter="url(#glow)"/>
<text x="600.1" y="246.2" font-size="9" font-weight="700" fill="#0a0c12" text-anchor="middle">2</text>
<circle cx="717.7" cy="199.4" r="7" fill="#ff5a36" stroke="#0a0c12" stroke-width="2.5" filter="url(#glow)"/>
<text x="717.7" y="202.8" font-size="9" font-weight="700" fill="#0a0c12" text-anchor="middle">3</text>
<circle cx="675.2" cy="377.6" r="7" fill="#ff5a36" stroke="#0a0c12" stroke-width="2.5" filter="url(#glow)"/>
<text x="675.2" y="381.0" font-size="9" font-weight="700" fill="#0a0c12" text-anchor="middle">4</text>
<circle cx="589.4" cy="410.2" r="7" fill="#ff5a36" stroke="#0a0c12" stroke-width="2.5" filter="url(#glow)"/>
<text x="589.4" y="413.6" font-size="9" font-weight="700" fill="#0a0c12" text-anchor="middle">5</text>
<circle cx="655.3" cy="520.8" r="7" fill="#ff5a36" stroke="#0a0c12" stroke-width="2.5" filter="url(#glow)"/>
<text x="655.3" y="524.2" font-size="9" font-weight="700" fill="#0a0c12" text-anchor="middle">6</text>
<circle cx="895.2" cy="539.2" r="7" fill="#ff5a36" stroke="#0a0c12" stroke-width="2.5" filter="url(#glow)"/>
<text x="895.2" y="542.6" font-size="9" font-weight="700" fill="#0a0c12" text-anchor="middle">7</text>
<circle cx="924.3" cy="624.9" r="7" fill="#ff5a36" stroke="#0a0c12" stroke-width="2.5" filter="url(#glow)"/>
<text x="924.3" y="628.3" font-size="9" font-weight="700" fill="#0a0c12" text-anchor="middle">8</text>
<circle cx="873.2" cy="704.0" r="7" fill="#ff5a36" stroke="#0a0c12" stroke-width="2.5" filter="url(#glow)"/>
<text x="873.2" y="707.4" font-size="9" font-weight="700" fill="#0a0c12" text-anchor="middle">9</text>
<circle cx="751.8" cy="694.9" r="7" fill="#ff5a36" stroke="#0a0c12" stroke-width="2.5" filter="url(#glow)"/>
<text x="751.8" y="698.3" font-size="9" font-weight="700" fill="#0a0c12" text-anchor="middle">10</text>
<circle cx="650.5" cy="730.2" r="7" fill="#ff5a36" stroke="#0a0c12" stroke-width="2.5" filter="url(#glow)"/>
<text x="650.5" y="733.6" font-size="9" font-weight="700" fill="#0a0c12" text-anchor="middle">11</text>
<circle cx="535.9" cy="910.0" r="7" fill="#ff5a36" stroke="#0a0c12" stroke-width="2.5" filter="url(#glow)"/>
<text x="535.9" y="913.4" font-size="9" font-weight="700" fill="#0a0c12" text-anchor="middle">12</text>
<circle cx="462.9" cy="814.2" r="7" fill="#ff5a36" stroke="#0a0c12" stroke-width="2.5" filter="url(#glow)"/>
<text x="462.9" y="817.6" font-size="9" font-weight="700" fill="#0a0c12" text-anchor="middle">13</text>
<circle cx="402.3" cy="704.1" r="7" fill="#ff5a36" stroke="#0a0c12" stroke-width="2.5" filter="url(#glow)"/>
<text x="402.3" y="707.5" font-size="9" font-weight="700" fill="#0a0c12" text-anchor="middle">14</text>
<circle cx="311.4" cy="538.9" r="7" fill="#ff5a36" stroke="#0a0c12" stroke-width="2.5" filter="url(#glow)"/>
<text x="311.4" y="542.3" font-size="9" font-weight="700" fill="#0a0c12" text-anchor="middle">15</text>
<circle cx="205.7" cy="315.8" r="7" fill="#ff5a36" stroke="#0a0c12" stroke-width="2.5" filter="url(#glow)"/>
<text x="205.7" y="319.2" font-size="9" font-weight="700" fill="#0a0c12" text-anchor="middle">16</text>
<text x="90" y="64" font-size="20" letter-spacing="5" fill="#ff5a36" font-weight="700">TRACK ATLAS</text>
<text x="90" y="108" font-size="42" font-weight="800" fill="#ffffff">LUSAIL INTERNATIONAL CIRCUIT</text>
<text x="90" y="136" font-size="16" fill="#9aa6bd">Losail, Qatar</text>
<rect x="1170" y="200" width="360" height="710" rx="16" fill="#ffffff" fill-opacity="0.04" stroke="#ff5a36" stroke-opacity="0.5"/>
<text x="1198" y="250" font-size="13" letter-spacing="2" fill="#8794ab">LAYOUT</text>
<text x="1198" y="276" font-size="22" font-weight="700" fill="#eef2fb">Grand Prix Circuit</text>
<text x="1198" y="320" font-size="13" letter-spacing="2" fill="#8794ab">LENGTH</text>
<text x="1198" y="346" font-size="22" font-weight="700" fill="#eef2fb">5.419 km</text>
<text x="1198" y="390" font-size="13" letter-spacing="2" fill="#8794ab">CORNERS</text>
<text x="1198" y="416" font-size="22" font-weight="700" fill="#eef2fb">16</text>
<text x="1198" y="460" font-size="13" letter-spacing="2" fill="#8794ab">NAMED CORNERS</text>
<text x="1198" y="486" font-size="22" font-weight="700" fill="#eef2fb">0</text>
<text x="1198" y="530" font-size="13" letter-spacing="2" fill="#8794ab">DIRECTION</text>
<text x="1198" y="556" font-size="22" font-weight="700" fill="#eef2fb">Clockwise</text>
<text x="1198" y="600" font-size="13" letter-spacing="2" fill="#8794ab">SECTORS</text>
<text x="1198" y="626" font-size="22" font-weight="700" fill="#eef2fb">3</text>
<text x="1198" y="670" font-size="13" letter-spacing="2" fill="#8794ab">COUNTRY</text>
<text x="1198" y="696" font-size="22" font-weight="700" fill="#eef2fb">QA</text>
<text x="1198" y="740" font-size="13" letter-spacing="2" fill="#8794ab">LOCATION</text>
<text x="1198" y="766" font-size="22" font-weight="700" fill="#eef2fb">Lusail</text>
<text x="90" y="966" font-size="12" fill="#566177">Geometry © OpenStreetMap contributors (ODbL) · corner data: Lovely-Sim-Racing + curated · track-atlas</text>
<text x="90" y="942" font-size="12" fill="#8794ab">⚑ start / finish</text>
</svg>