<svg xmlns="http://www.w3.org/2000/svg" width="1600" height="1000" viewBox="0 0 1600 1000" font-family="Helvetica, Arial, sans-serif">
<defs>
      <radialGradient id="bg" cx="38%" cy="34%" r="85%">
        <stop offset="0%" stop-color="#1b2030"/>
        <stop offset="55%" stop-color="#12151f"/>
        <stop offset="100%" stop-color="#0a0c12"/>
      </radialGradient>
      <linearGradient id="accent" x1="0" y1="0" x2="1" y2="1">
        <stop offset="0%" stop-color="#ff5a36"/>
        <stop offset="100%" stop-color="#ffffff"/>
      </linearGradient>
      <filter id="glow" x="-40%" y="-40%" width="180%" height="180%">
        <feGaussianBlur stdDeviation="6" result="b"/>
        <feMerge><feMergeNode in="b"/><feMergeNode in="SourceGraphic"/></feMerge>
      </filter>
    </defs>
<rect width="1600" height="1000" fill="url(#bg)"/>
<line x1="0" y1="0" x2="0" y2="1000" stroke="#ffffff" stroke-opacity="0.025"/>
<line x1="56" y1="0" x2="56" y2="1000" stroke="#ffffff" stroke-opacity="0.025"/>
<line x1="112" y1="0" x2="112" y2="1000" stroke="#ffffff" stroke-opacity="0.025"/>
<line x1="168" y1="0" x2="168" y2="1000" stroke="#ffffff" stroke-opacity="0.025"/>
<line x1="224" y1="0" x2="224" y2="1000" stroke="#ffffff" stroke-opacity="0.025"/>
<line x1="280" y1="0" x2="280" y2="1000" stroke="#ffffff" stroke-opacity="0.025"/>
<line x1="336" y1="0" x2="336" y2="1000" stroke="#ffffff" stroke-opacity="0.025"/>
<line x1="392" y1="0" x2="392" y2="1000" stroke="#ffffff" stroke-opacity="0.025"/>
<line x1="448" y1="0" x2="448" y2="1000" stroke="#ffffff" stroke-opacity="0.025"/>
<line x1="504" y1="0" x2="504" y2="1000" stroke="#ffffff" stroke-opacity="0.025"/>
<line x1="560" y1="0" x2="560" y2="1000" stroke="#ffffff" stroke-opacity="0.025"/>
<line x1="616" y1="0" x2="616" y2="1000" stroke="#ffffff" stroke-opacity="0.025"/>
<line x1="672" y1="0" x2="672" y2="1000" stroke="#ffffff" stroke-opacity="0.025"/>
<line x1="728" y1="0" x2="728" y2="1000" stroke="#ffffff" stroke-opacity="0.025"/>
<line x1="784" y1="0" x2="784" y2="1000" stroke="#ffffff" stroke-opacity="0.025"/>
<line x1="840" y1="0" x2="840" y2="1000" stroke="#ffffff" stroke-opacity="0.025"/>
<line x1="896" y1="0" x2="896" y2="1000" stroke="#ffffff" stroke-opacity="0.025"/>
<line x1="952" y1="0" x2="952" y2="1000" stroke="#ffffff" stroke-opacity="0.025"/>
<line x1="1008" y1="0" x2="1008" y2="1000" stroke="#ffffff" stroke-opacity="0.025"/>
<line x1="1064" y1="0" x2="1064" y2="1000" stroke="#ffffff" stroke-opacity="0.025"/>
<line x1="1120" y1="0" x2="1120" y2="1000" stroke="#ffffff" stroke-opacity="0.025"/>
<line x1="1176" y1="0" x2="1176" y2="1000" stroke="#ffffff" stroke-opacity="0.025"/>
<line x1="1232" y1="0" x2="1232" y2="1000" stroke="#ffffff" stroke-opacity="0.025"/>
<line x1="1288" y1="0" x2="1288" y2="1000" stroke="#ffffff" stroke-opacity="0.025"/>
<line x1="1344" y1="0" x2="1344" y2="1000" stroke="#ffffff" stroke-opacity="0.025"/>
<line x1="1400" y1="0" x2="1400" y2="1000" stroke="#ffffff" stroke-opacity="0.025"/>
<line x1="1456" y1="0" x2="1456" y2="1000" stroke="#ffffff" stroke-opacity="0.025"/>
<line x1="1512" y1="0" x2="1512" y2="1000" stroke="#ffffff" stroke-opacity="0.025"/>
<line x1="1568" y1="0" x2="1568" y2="1000" stroke="#ffffff" stroke-opacity="0.025"/>
<line x1="0" y1="0" x2="1600" y2="0" stroke="#ffffff" stroke-opacity="0.025"/>
<line x1="0" y1="56" x2="1600" y2="56" stroke="#ffffff" stroke-opacity="0.025"/>
<line x1="0" y1="112" x2="1600" y2="112" stroke="#ffffff" stroke-opacity="0.025"/>
<line x1="0" y1="168" x2="1600" y2="168" stroke="#ffffff" stroke-opacity="0.025"/>
<line x1="0" y1="224" x2="1600" y2="224" stroke="#ffffff" stroke-opacity="0.025"/>
<line x1="0" y1="280" x2="1600" y2="280" stroke="#ffffff" stroke-opacity="0.025"/>
<line x1="0" y1="336" x2="1600" y2="336" stroke="#ffffff" stroke-opacity="0.025"/>
<line x1="0" y1="392" x2="1600" y2="392" stroke="#ffffff" stroke-opacity="0.025"/>
<line x1="0" y1="448" x2="1600" y2="448" stroke="#ffffff" stroke-opacity="0.025"/>
<line x1="0" y1="504" x2="1600" y2="504" stroke="#ffffff" stroke-opacity="0.025"/>
<line x1="0" y1="560" x2="1600" y2="560" stroke="#ffffff" stroke-opacity="0.025"/>
<line x1="0" y1="616" x2="1600" y2="616" stroke="#ffffff" stroke-opacity="0.025"/>
<line x1="0" y1="672" x2="1600" y2="672" stroke="#ffffff" stroke-opacity="0.025"/>
<line x1="0" y1="728" x2="1600" y2="728" stroke="#ffffff" stroke-opacity="0.025"/>
<line x1="0" y1="784" x2="1600" y2="784" stroke="#ffffff" stroke-opacity="0.025"/>
<line x1="0" y1="840" x2="1600" y2="840" stroke="#ffffff" stroke-opacity="0.025"/>
<line x1="0" y1="896" x2="1600" y2="896" stroke="#ffffff" stroke-opacity="0.025"/>
<line x1="0" y1="952" x2="1600" y2="952" stroke="#ffffff" stroke-opacity="0.025"/>
<path d="M 911.4,341.6 L 919.7,345.4 L 925.6,349.5 L 930.2,354.5 L 932.2,357.6 L 934.4,361.6 L 936.0,367.9 L 936.8,372.9 L 937.1,379.4 L 936.0,387.0 L 935.4,401.4 L 934.7,409.5 L 934.5,416.0 L 934.8,422.1 L 935.1,429.9 L 936.4,437.8 L 937.8,444.6 L 941.1,452.5 L 945.6,459.9 L 952.8,466.9 L 960.3,471.1 L 970.9,475.1 L 980.5,476.8 L 988.7,477.1 L 997.4,476.5 L 1007.1,474.6 L 1019.3,469.1 L 1028.6,457.7 L 1031.7,456.2 L 1034.9,456.4 L 1038.8,459.3 L 1040.0,462.5 L 1039.1,466.6 L 1013.9,493.0 L 995.6,508.8 L 945.4,543.9 L 938.0,549.1 L 935.6,550.8 L 814.9,635.1 L 806.4,641.1 L 788.7,650.7 L 772.1,658.4 L 749.3,666.1 L 721.8,672.6 L 697.3,676.3 L 672.8,677.7 L 663.5,677.6 L 658.3,677.1 L 653.7,676.7 L 652.3,676.6 L 636.8,675.2 L 607.8,669.1 L 581.3,659.2 L 544.9,643.8 L 474.2,608.4 L 429.0,586.5 L 418.5,581.4 L 411.4,577.6 L 401.1,572.2 L 398.9,571.0 L 377.6,559.7 L 358.6,548.7 L 297.9,514.9 L 286.8,508.7 L 281.5,518.1 L 280.9,519.1 L 275.1,529.1 L 266.9,539.8 L 259.6,548.0 L 249.8,554.4 L 237.9,560.3 L 223.8,565.1 L 209.6,567.4 L 197.5,567.8 L 197.6,573.3 L 195.9,578.5 L 192.6,582.8 L 188.0,585.7 L 182.6,586.9 L 177.2,586.2 L 172.4,583.7 L 168.6,579.7 L 166.5,574.7 L 166.1,569.3 L 167.6,564.0 L 156.6,557.6 L 154.4,556.3 L 139.2,547.3 L 132.7,539.6 L 130.8,538.3 L 127.3,535.8 L 117.0,528.7 L 113.6,526.5 L 111.7,525.3 L 96.2,516.0 L 95.5,514.7 L 92.9,511.5 L 92.1,508.6 L 90.0,499.0 L 95.8,482.2 L 103.0,464.9 L 107.4,456.4 L 111.6,448.3 L 114.4,443.0 L 118.2,437.0 L 126.0,426.3 L 127.6,424.3 L 133.8,415.7 L 142.8,402.5 L 150.8,408.2 L 152.5,409.3 L 191.9,435.6 L 224.4,454.3 L 293.7,495.5 L 305.2,502.2 L 306.5,502.9 L 352.8,529.2 L 379.8,544.2 L 408.1,558.6 L 417.9,563.2 L 425.9,567.4 L 430.6,559.0 L 436.2,547.3 L 441.7,534.4 L 444.9,524.2 L 447.7,511.4 L 444.6,503.0 L 445.3,487.8 L 445.7,471.9 L 445.6,453.4 L 445.6,447.0 L 445.6,440.8 L 445.9,399.0 L 446.1,370.6 L 446.6,336.8 L 446.7,326.4 L 456.5,326.4 L 486.6,326.3 L 490.1,326.3 L 499.3,326.3 L 545.1,326.2 L 599.2,323.4 L 611.9,322.9 L 627.3,322.7 L 635.2,322.4 L 638.1,322.4 L 642.7,322.3 L 676.6,322.4 L 684.0,322.5 L 691.5,322.7 L 704.3,323.6 L 711.4,324.1 L 717.2,324.6 L 747.7,327.1 L 846.2,335.0 L 865.9,336.7 L 868.7,336.9 L 876.9,337.7 L 911.4,341.6 Z" fill="none" stroke="#000000" stroke-opacity="0.5" stroke-width="13" stroke-linejoin="round" stroke-linecap="round"/>
<path d="M 911.4,341.6 L 919.7,345.4 L 925.6,349.5 L 930.2,354.5 L 932.2,357.6 L 934.4,361.6 L 936.0,367.9 L 936.8,372.9 L 937.1,379.4 L 936.0,387.0 L 935.4,401.4 L 934.7,409.5 L 934.5,416.0 L 934.8,422.1 L 935.1,429.9 L 936.4,437.8 L 937.8,444.6 L 941.1,452.5 L 945.6,459.9 L 952.8,466.9 L 960.3,471.1 L 970.9,475.1 L 980.5,476.8 L 988.7,477.1 L 997.4,476.5 L 1007.1,474.6 L 1019.3,469.1 L 1028.6,457.7 L 1031.7,456.2 L 1034.9,456.4 L 1038.8,459.3 L 1040.0,462.5 L 1039.1,466.6 L 1013.9,493.0 L 995.6,508.8 L 945.4,543.9 L 938.0,549.1 L 935.6,550.8 L 814.9,635.1 L 806.4,641.1 L 788.7,650.7 L 772.1,658.4 L 749.3,666.1 L 721.8,672.6 L 697.3,676.3 L 672.8,677.7 L 663.5,677.6 L 658.3,677.1 L 653.7,676.7 L 652.3,676.6 L 636.8,675.2 L 607.8,669.1 L 581.3,659.2 L 544.9,643.8 L 474.2,608.4 L 429.0,586.5 L 418.5,581.4 L 411.4,577.6 L 401.1,572.2 L 398.9,571.0 L 377.6,559.7 L 358.6,548.7 L 297.9,514.9 L 286.8,508.7 L 281.5,518.1 L 280.9,519.1 L 275.1,529.1 L 266.9,539.8 L 259.6,548.0 L 249.8,554.4 L 237.9,560.3 L 223.8,565.1 L 209.6,567.4 L 197.5,567.8 L 197.6,573.3 L 195.9,578.5 L 192.6,582.8 L 188.0,585.7 L 182.6,586.9 L 177.2,586.2 L 172.4,583.7 L 168.6,579.7 L 166.5,574.7 L 166.1,569.3 L 167.6,564.0 L 156.6,557.6 L 154.4,556.3 L 139.2,547.3 L 132.7,539.6 L 130.8,538.3 L 127.3,535.8 L 117.0,528.7 L 113.6,526.5 L 111.7,525.3 L 96.2,516.0 L 95.5,514.7 L 92.9,511.5 L 92.1,508.6 L 90.0,499.0 L 95.8,482.2 L 103.0,464.9 L 107.4,456.4 L 111.6,448.3 L 114.4,443.0 L 118.2,437.0 L 126.0,426.3 L 127.6,424.3 L 133.8,415.7 L 142.8,402.5 L 150.8,408.2 L 152.5,409.3 L 191.9,435.6 L 224.4,454.3 L 293.7,495.5 L 305.2,502.2 L 306.5,502.9 L 352.8,529.2 L 379.8,544.2 L 408.1,558.6 L 417.9,563.2 L 425.9,567.4 L 430.6,559.0 L 436.2,547.3 L 441.7,534.4 L 444.9,524.2 L 447.7,511.4 L 444.6,503.0 L 445.3,487.8 L 445.7,471.9 L 445.6,453.4 L 445.6,447.0 L 445.6,440.8 L 445.9,399.0 L 446.1,370.6 L 446.6,336.8 L 446.7,326.4 L 456.5,326.4 L 486.6,326.3 L 490.1,326.3 L 499.3,326.3 L 545.1,326.2 L 599.2,323.4 L 611.9,322.9 L 627.3,322.7 L 635.2,322.4 L 638.1,322.4 L 642.7,322.3 L 676.6,322.4 L 684.0,322.5 L 691.5,322.7 L 704.3,323.6 L 711.4,324.1 L 717.2,324.6 L 747.7,327.1 L 846.2,335.0 L 865.9,336.7 L 868.7,336.9 L 876.9,337.7 L 911.4,341.6 Z" fill="none" stroke="#39404f" stroke-width="8.5" stroke-linejoin="round" stroke-linecap="round"/>
<path d="M 911.4,341.6 L 919.7,345.4 L 925.6,349.5 L 930.2,354.5 L 932.2,357.6 L 934.4,361.6 L 936.0,367.9 L 936.8,372.9 L 937.1,379.4 L 936.0,387.0 L 935.4,401.4 L 934.7,409.5 L 934.5,416.0 L 934.8,422.1 L 935.1,429.9 L 936.4,437.8 L 937.8,444.6 L 941.1,452.5 L 945.6,459.9 L 952.8,466.9 L 960.3,471.1 L 970.9,475.1 L 980.5,476.8 L 988.7,477.1 L 997.4,476.5 L 1007.1,474.6 L 1019.3,469.1 L 1028.6,457.7 L 1031.7,456.2 L 1034.9,456.4 L 1038.8,459.3 L 1040.0,462.5 L 1039.1,466.6 L 1013.9,493.0 L 995.6,508.8 L 945.4,543.9 L 938.0,549.1 L 935.6,550.8 L 814.9,635.1 L 806.4,641.1 L 788.7,650.7 L 772.1,658.4 L 749.3,666.1 L 721.8,672.6 L 697.3,676.3 L 672.8,677.7 L 663.5,677.6 L 658.3,677.1 L 653.7,676.7 L 652.3,676.6 L 636.8,675.2 L 607.8,669.1 L 581.3,659.2 L 544.9,643.8 L 474.2,608.4 L 429.0,586.5 L 418.5,581.4 L 411.4,577.6 L 401.1,572.2 L 398.9,571.0 L 377.6,559.7 L 358.6,548.7 L 297.9,514.9 L 286.8,508.7 L 281.5,518.1 L 280.9,519.1 L 275.1,529.1 L 266.9,539.8 L 259.6,548.0 L 249.8,554.4 L 237.9,560.3 L 223.8,565.1 L 209.6,567.4 L 197.5,567.8 L 197.6,573.3 L 195.9,578.5 L 192.6,582.8 L 188.0,585.7 L 182.6,586.9 L 177.2,586.2 L 172.4,583.7 L 168.6,579.7 L 166.5,574.7 L 166.1,569.3 L 167.6,564.0 L 156.6,557.6 L 154.4,556.3 L 139.2,547.3 L 132.7,539.6 L 130.8,538.3 L 127.3,535.8 L 117.0,528.7 L 113.6,526.5 L 111.7,525.3 L 96.2,516.0 L 95.5,514.7 L 92.9,511.5 L 92.1,508.6 L 90.0,499.0 L 95.8,482.2 L 103.0,464.9 L 107.4,456.4 L 111.6,448.3 L 114.4,443.0 L 118.2,437.0 L 126.0,426.3 L 127.6,424.3 L 133.8,415.7 L 142.8,402.5 L 150.8,408.2 L 152.5,409.3 L 191.9,435.6 L 224.4,454.3 L 293.7,495.5 L 305.2,502.2 L 306.5,502.9 L 352.8,529.2 L 379.8,544.2 L 408.1,558.6 L 417.9,563.2 L 425.9,567.4 L 430.6,559.0 L 436.2,547.3 L 441.7,534.4 L 444.9,524.2 L 447.7,511.4 L 444.6,503.0 L 445.3,487.8 L 445.7,471.9 L 445.6,453.4 L 445.6,447.0 L 445.6,440.8 L 445.9,399.0 L 446.1,370.6 L 446.6,336.8 L 446.7,326.4 L 456.5,326.4 L 486.6,326.3 L 490.1,326.3 L 499.3,326.3 L 545.1,326.2 L 599.2,323.4 L 611.9,322.9 L 627.3,322.7 L 635.2,322.4 L 638.1,322.4 L 642.7,322.3 L 676.6,322.4 L 684.0,322.5 L 691.5,322.7 L 704.3,323.6 L 711.4,324.1 L 717.2,324.6 L 747.7,327.1 L 846.2,335.0 L 865.9,336.7 L 868.7,336.9 L 876.9,337.7 L 911.4,341.6 Z" fill="none" stroke="#e7edf8" stroke-width="2.6" stroke-linejoin="round" stroke-linecap="round"/>
<path d="M 911.4,341.6 L 919.7,345.4 L 925.6,349.5 L 930.2,354.5 L 932.2,357.6 L 934.4,361.6 L 936.0,367.9 L 936.8,372.9 L 937.1,379.4 L 936.0,387.0 L 935.4,401.4 L 934.7,409.5 L 934.5,416.0 L 934.8,422.1 L 935.1,429.9 L 936.4,437.8 L 937.8,444.6 L 941.1,452.5 L 945.6,459.9 L 952.8,466.9 L 960.3,471.1 L 970.9,475.1 L 980.5,476.8 L 988.7,477.1 L 997.4,476.5 L 1007.1,474.6 L 1019.3,469.1 L 1028.6,457.7 L 1031.7,456.2 L 1034.9,456.4 L 1038.8,459.3 L 1040.0,462.5 L 1039.1,466.6 L 1013.9,493.0 L 995.6,508.8 L 945.4,543.9 L 938.0,549.1 L 935.6,550.8 L 814.9,635.1 L 806.4,641.1 L 788.7,650.7 L 772.1,658.4 L 749.3,666.1 L 721.8,672.6 L 697.3,676.3 L 672.8,677.7 L 663.5,677.6 L 658.3,677.1 L 653.7,676.7 L 652.3,676.6 L 636.8,675.2 L 607.8,669.1 L 581.3,659.2 L 544.9,643.8 L 474.2,608.4 L 429.0,586.5 L 418.5,581.4 L 411.4,577.6 L 401.1,572.2 L 398.9,571.0 L 377.6,559.7 L 358.6,548.7 L 297.9,514.9 L 286.8,508.7 L 281.5,518.1 L 280.9,519.1 L 275.1,529.1 L 266.9,539.8 L 259.6,548.0 L 249.8,554.4 L 237.9,560.3 L 223.8,565.1 L 209.6,567.4 L 197.5,567.8 L 197.6,573.3 L 195.9,578.5 L 192.6,582.8 L 188.0,585.7 L 182.6,586.9 L 177.2,586.2 L 172.4,583.7 L 168.6,579.7 L 166.5,574.7 L 166.1,569.3 L 167.6,564.0 L 156.6,557.6 L 154.4,556.3 L 139.2,547.3 L 132.7,539.6 L 130.8,538.3 L 127.3,535.8 L 117.0,528.7 L 113.6,526.5 L 111.7,525.3 L 96.2,516.0 L 95.5,514.7 L 92.9,511.5 L 92.1,508.6 L 90.0,499.0 L 95.8,482.2 L 103.0,464.9 L 107.4,456.4 L 111.6,448.3 L 114.4,443.0 L 118.2,437.0 L 126.0,426.3 L 127.6,424.3 L 133.8,415.7 L 142.8,402.5 L 150.8,408.2 L 152.5,409.3 L 191.9,435.6 L 224.4,454.3 L 293.7,495.5 L 305.2,502.2 L 306.5,502.9 L 352.8,529.2 L 379.8,544.2 L 408.1,558.6 L 417.9,563.2 L 425.9,567.4 L 430.6,559.0 L 436.2,547.3 L 441.7,534.4 L 444.9,524.2 L 447.7,511.4 L 444.6,503.0 L 445.3,487.8 L 445.7,471.9 L 445.6,453.4 L 445.6,447.0 L 445.6,440.8 L 445.9,399.0 L 446.1,370.6 L 446.6,336.8 L 446.7,326.4 L 456.5,326.4 L 486.6,326.3 L 490.1,326.3 L 499.3,326.3 L 545.1,326.2 L 599.2,323.4 L 611.9,322.9 L 627.3,322.7 L 635.2,322.4 L 638.1,322.4 L 642.7,322.3 L 676.6,322.4 L 684.0,322.5 L 691.5,322.7 L 704.3,323.6 L 711.4,324.1 L 717.2,324.6 L 747.7,327.1 L 846.2,335.0 L 865.9,336.7 L 868.7,336.9 L 876.9,337.7 L 911.4,341.6 Z" fill="none" stroke="#ff5a36" stroke-opacity="0.55" stroke-width="1.2" stroke-linejoin="round" filter="url(#glow)"/>
<circle cx="911.4" cy="341.6" r="13" fill="none" stroke="#ffffff" stroke-width="3"/>
<rect x="907.4" y="319.6" width="8" height="18" fill="#ffffff"/>
<circle cx="782.4" cy="653.6" r="7" fill="#ff5a36" stroke="#0a0c12" stroke-width="2.5" filter="url(#glow)"/>
<text x="782.4" y="657.0" font-size="9" font-weight="700" fill="#0a0c12" text-anchor="middle">1</text>
<circle cx="634.0" cy="674.7" r="7" fill="#ff5a36" stroke="#0a0c12" stroke-width="2.5" filter="url(#glow)"/>
<text x="634.0" y="678.1" font-size="9" font-weight="700" fill="#0a0c12" text-anchor="middle">2</text>
<circle cx="604.5" cy="667.9" r="7" fill="#ff5a36" stroke="#0a0c12" stroke-width="2.5" filter="url(#glow)"/>
<text x="604.5" y="671.3" font-size="9" font-weight="700" fill="#0a0c12" text-anchor="middle">3</text>
<circle cx="520.8" cy="631.8" r="7" fill="#ff5a36" stroke="#0a0c12" stroke-width="2.5" filter="url(#glow)"/>
<text x="520.8" y="635.2" font-size="9" font-weight="700" fill="#0a0c12" text-anchor="middle">4</text>
<circle cx="414.1" cy="579.1" r="7" fill="#ff5a36" stroke="#0a0c12" stroke-width="2.5" filter="url(#glow)"/>
<text x="414.1" y="582.5" font-size="9" font-weight="700" fill="#0a0c12" text-anchor="middle">5</text>
<circle cx="166.3" cy="563.2" r="7" fill="#ff5a36" stroke="#0a0c12" stroke-width="2.5" filter="url(#glow)"/>
<text x="166.3" y="566.6" font-size="9" font-weight="700" fill="#0a0c12" text-anchor="middle">6</text>
<circle cx="101.8" cy="519.3" r="7" fill="#ff5a36" stroke="#0a0c12" stroke-width="2.5" filter="url(#glow)"/>
<text x="101.8" y="522.7" font-size="9" font-weight="700" fill="#0a0c12" text-anchor="middle">7</text>
<circle cx="168.9" cy="420.3" r="7" fill="#ff5a36" stroke="#0a0c12" stroke-width="2.5" filter="url(#glow)"/>
<text x="168.9" y="423.7" font-size="9" font-weight="700" fill="#0a0c12" text-anchor="middle">8</text>
<circle cx="446.2" cy="364.7" r="7" fill="#ff5a36" stroke="#0a0c12" stroke-width="2.5" filter="url(#glow)"/>
<text x="446.2" y="368.1" font-size="9" font-weight="700" fill="#0a0c12" text-anchor="middle">9</text>
<circle cx="512.2" cy="326.3" r="7" fill="#ff5a36" stroke="#0a0c12" stroke-width="2.5" filter="url(#glow)"/>
<text x="512.2" y="329.7" font-size="9" font-weight="700" fill="#0a0c12" text-anchor="middle">10</text>
<circle cx="613.4" cy="322.9" r="7" fill="#ff5a36" stroke="#0a0c12" stroke-width="2.5" filter="url(#glow)"/>
<text x="613.4" y="326.3" font-size="9" font-weight="700" fill="#0a0c12" text-anchor="middle">11</text>
<line x1="782.4" y1="653.6" x2="825.9" y2="682.1" stroke="#ff5a36" stroke-opacity="0.45" stroke-width="1.3"/>
<text x="833.9" y="686.1" font-size="15" font-weight="600" fill="#eef2fb" text-anchor="start">Shoreline</text>
<line x1="634.0" y1="674.7" x2="659.7" y2="745.7" stroke="#ff5a36" stroke-opacity="0.45" stroke-width="1.3"/>
<text x="667.7" y="749.7" font-size="15" font-weight="600" fill="#eef2fb" text-anchor="start">Aquarium</text>
<line x1="604.5" y1="667.9" x2="624.9" y2="715.7" stroke="#ff5a36" stroke-opacity="0.45" stroke-width="1.3"/>
<text x="632.9" y="719.7" font-size="15" font-weight="600" fill="#eef2fb" text-anchor="start">T3</text>
<line x1="520.8" y1="631.8" x2="518.6" y2="683.7" stroke="#ff5a36" stroke-opacity="0.45" stroke-width="1.3"/>
<text x="510.6" y="687.7" font-size="15" font-weight="600" fill="#eef2fb" text-anchor="end">T4</text>
<line x1="414.1" y1="579.1" x2="373.9" y2="612.0" stroke="#ff5a36" stroke-opacity="0.45" stroke-width="1.3"/>
<text x="365.9" y="616.0" font-size="15" font-weight="600" fill="#eef2fb" text-anchor="end">T5</text>
<line x1="166.3" y1="563.2" x2="115.4" y2="574.1" stroke="#ff5a36" stroke-opacity="0.45" stroke-width="1.3"/>
<text x="107.4" y="578.1" font-size="15" font-weight="600" fill="#eef2fb" text-anchor="end">T6</text>
<line x1="101.8" y1="519.3" x2="49.9" y2="523.3" stroke="#ff5a36" stroke-opacity="0.45" stroke-width="1.3"/>
<text x="41.9" y="527.3" font-size="15" font-weight="600" fill="#eef2fb" text-anchor="end">T7</text>
<line x1="168.9" y1="420.3" x2="117.8" y2="410.8" stroke="#ff5a36" stroke-opacity="0.45" stroke-width="1.3"/>
<text x="109.8" y="414.8" font-size="15" font-weight="600" fill="#eef2fb" text-anchor="end">The Fountain</text>
<line x1="446.2" y1="364.7" x2="417.4" y2="321.4" stroke="#ff5a36" stroke-opacity="0.45" stroke-width="1.3"/>
<text x="409.4" y="325.4" font-size="15" font-weight="600" fill="#eef2fb" text-anchor="end">T9</text>
<line x1="512.2" y1="326.3" x2="507.4" y2="274.5" stroke="#ff5a36" stroke-opacity="0.45" stroke-width="1.3"/>
<text x="499.4" y="278.5" font-size="15" font-weight="600" fill="#eef2fb" text-anchor="end">T10</text>
<line x1="613.4" y1="322.9" x2="637.7" y2="276.9" stroke="#ff5a36" stroke-opacity="0.45" stroke-width="1.3"/>
<text x="645.7" y="280.9" font-size="15" font-weight="600" fill="#eef2fb" text-anchor="start">The Hairpin</text>
<text x="90" y="64" font-size="20" letter-spacing="5" fill="#ff5a36" font-weight="700">TRACK ATLAS</text>
<text x="90" y="108" font-size="42" font-weight="800" fill="#ffffff">LONG BEACH STREET CIRCUIT</text>
<text x="90" y="136" font-size="16" fill="#9aa6bd">Long Beach</text>
<rect x="1170" y="200" width="360" height="710" rx="16" fill="#ffffff" fill-opacity="0.04" stroke="#ff5a36" stroke-opacity="0.5"/>
<text x="1198" y="250" font-size="13" letter-spacing="2" fill="#8794ab">LAYOUT</text>
<text x="1198" y="276" font-size="22" font-weight="700" fill="#eef2fb">Street Circuit</text>
<text x="1198" y="320" font-size="13" letter-spacing="2" fill="#8794ab">LENGTH</text>
<text x="1198" y="346" font-size="22" font-weight="700" fill="#eef2fb">3.167 km</text>
<text x="1198" y="390" font-size="13" letter-spacing="2" fill="#8794ab">CORNERS</text>
<text x="1198" y="416" font-size="22" font-weight="700" fill="#eef2fb">11</text>
<text x="1198" y="460" font-size="13" letter-spacing="2" fill="#8794ab">NAMED CORNERS</text>
<text x="1198" y="486" font-size="22" font-weight="700" fill="#eef2fb">11</text>
<text x="1198" y="530" font-size="13" letter-spacing="2" fill="#8794ab">DIRECTION</text>
<text x="1198" y="556" font-size="22" font-weight="700" fill="#eef2fb">Clockwise</text>
<text x="1198" y="600" font-size="13" letter-spacing="2" fill="#8794ab">SECTORS</text>
<text x="1198" y="626" font-size="22" font-weight="700" fill="#eef2fb">4</text>
<text x="1198" y="670" font-size="13" letter-spacing="2" fill="#8794ab">COUNTRY</text>
<text x="1198" y="696" font-size="22" font-weight="700" fill="#eef2fb">USA</text>
<text x="1198" y="740" font-size="13" letter-spacing="2" fill="#8794ab">LOCATION</text>
<text x="1198" y="766" font-size="22" font-weight="700" fill="#eef2fb">Long Beach, California</text>
<text x="90" y="966" font-size="12" fill="#566177">Geometry © OpenStreetMap contributors (ODbL) · corner data: Lovely-Sim-Racing + curated · track-atlas</text>
<text x="90" y="942" font-size="12" fill="#8794ab">⚑ start / finish</text>
</svg>