<svg xmlns="http://www.w3.org/2000/svg" width="1600" height="1000" viewBox="0 0 1600 1000" font-family="Helvetica, Arial, sans-serif">
<defs>
      <radialGradient id="bg" cx="38%" cy="34%" r="85%">
        <stop offset="0%" stop-color="#1b2030"/>
        <stop offset="55%" stop-color="#12151f"/>
        <stop offset="100%" stop-color="#0a0c12"/>
      </radialGradient>
      <linearGradient id="accent" x1="0" y1="0" x2="1" y2="1">
        <stop offset="0%" stop-color="#ff5a36"/>
        <stop offset="100%" stop-color="#ffffff"/>
      </linearGradient>
      <filter id="glow" x="-40%" y="-40%" width="180%" height="180%">
        <feGaussianBlur stdDeviation="6" result="b"/>
        <feMerge><feMergeNode in="b"/><feMergeNode in="SourceGraphic"/></feMerge>
      </filter>
    </defs>
<rect width="1600" height="1000" fill="url(#bg)"/>
<line x1="0" y1="0" x2="0" y2="1000" stroke="#ffffff" stroke-opacity="0.025"/>
<line x1="56" y1="0" x2="56" y2="1000" stroke="#ffffff" stroke-opacity="0.025"/>
<line x1="112" y1="0" x2="112" y2="1000" stroke="#ffffff" stroke-opacity="0.025"/>
<line x1="168" y1="0" x2="168" y2="1000" stroke="#ffffff" stroke-opacity="0.025"/>
<line x1="224" y1="0" x2="224" y2="1000" stroke="#ffffff" stroke-opacity="0.025"/>
<line x1="280" y1="0" x2="280" y2="1000" stroke="#ffffff" stroke-opacity="0.025"/>
<line x1="336" y1="0" x2="336" y2="1000" stroke="#ffffff" stroke-opacity="0.025"/>
<line x1="392" y1="0" x2="392" y2="1000" stroke="#ffffff" stroke-opacity="0.025"/>
<line x1="448" y1="0" x2="448" y2="1000" stroke="#ffffff" stroke-opacity="0.025"/>
<line x1="504" y1="0" x2="504" y2="1000" stroke="#ffffff" stroke-opacity="0.025"/>
<line x1="560" y1="0" x2="560" y2="1000" stroke="#ffffff" stroke-opacity="0.025"/>
<line x1="616" y1="0" x2="616" y2="1000" stroke="#ffffff" stroke-opacity="0.025"/>
<line x1="672" y1="0" x2="672" y2="1000" stroke="#ffffff" stroke-opacity="0.025"/>
<line x1="728" y1="0" x2="728" y2="1000" stroke="#ffffff" stroke-opacity="0.025"/>
<line x1="784" y1="0" x2="784" y2="1000" stroke="#ffffff" stroke-opacity="0.025"/>
<line x1="840" y1="0" x2="840" y2="1000" stroke="#ffffff" stroke-opacity="0.025"/>
<line x1="896" y1="0" x2="896" y2="1000" stroke="#ffffff" stroke-opacity="0.025"/>
<line x1="952" y1="0" x2="952" y2="1000" stroke="#ffffff" stroke-opacity="0.025"/>
<line x1="1008" y1="0" x2="1008" y2="1000" stroke="#ffffff" stroke-opacity="0.025"/>
<line x1="1064" y1="0" x2="1064" y2="1000" stroke="#ffffff" stroke-opacity="0.025"/>
<line x1="1120" y1="0" x2="1120" y2="1000" stroke="#ffffff" stroke-opacity="0.025"/>
<line x1="1176" y1="0" x2="1176" y2="1000" stroke="#ffffff" stroke-opacity="0.025"/>
<line x1="1232" y1="0" x2="1232" y2="1000" stroke="#ffffff" stroke-opacity="0.025"/>
<line x1="1288" y1="0" x2="1288" y2="1000" stroke="#ffffff" stroke-opacity="0.025"/>
<line x1="1344" y1="0" x2="1344" y2="1000" stroke="#ffffff" stroke-opacity="0.025"/>
<line x1="1400" y1="0" x2="1400" y2="1000" stroke="#ffffff" stroke-opacity="0.025"/>
<line x1="1456" y1="0" x2="1456" y2="1000" stroke="#ffffff" stroke-opacity="0.025"/>
<line x1="1512" y1="0" x2="1512" y2="1000" stroke="#ffffff" stroke-opacity="0.025"/>
<line x1="1568" y1="0" x2="1568" y2="1000" stroke="#ffffff" stroke-opacity="0.025"/>
<line x1="0" y1="0" x2="1600" y2="0" stroke="#ffffff" stroke-opacity="0.025"/>
<line x1="0" y1="56" x2="1600" y2="56" stroke="#ffffff" stroke-opacity="0.025"/>
<line x1="0" y1="112" x2="1600" y2="112" stroke="#ffffff" stroke-opacity="0.025"/>
<line x1="0" y1="168" x2="1600" y2="168" stroke="#ffffff" stroke-opacity="0.025"/>
<line x1="0" y1="224" x2="1600" y2="224" stroke="#ffffff" stroke-opacity="0.025"/>
<line x1="0" y1="280" x2="1600" y2="280" stroke="#ffffff" stroke-opacity="0.025"/>
<line x1="0" y1="336" x2="1600" y2="336" stroke="#ffffff" stroke-opacity="0.025"/>
<line x1="0" y1="392" x2="1600" y2="392" stroke="#ffffff" stroke-opacity="0.025"/>
<line x1="0" y1="448" x2="1600" y2="448" stroke="#ffffff" stroke-opacity="0.025"/>
<line x1="0" y1="504" x2="1600" y2="504" stroke="#ffffff" stroke-opacity="0.025"/>
<line x1="0" y1="560" x2="1600" y2="560" stroke="#ffffff" stroke-opacity="0.025"/>
<line x1="0" y1="616" x2="1600" y2="616" stroke="#ffffff" stroke-opacity="0.025"/>
<line x1="0" y1="672" x2="1600" y2="672" stroke="#ffffff" stroke-opacity="0.025"/>
<line x1="0" y1="728" x2="1600" y2="728" stroke="#ffffff" stroke-opacity="0.025"/>
<line x1="0" y1="784" x2="1600" y2="784" stroke="#ffffff" stroke-opacity="0.025"/>
<line x1="0" y1="840" x2="1600" y2="840" stroke="#ffffff" stroke-opacity="0.025"/>
<line x1="0" y1="896" x2="1600" y2="896" stroke="#ffffff" stroke-opacity="0.025"/>
<line x1="0" y1="952" x2="1600" y2="952" stroke="#ffffff" stroke-opacity="0.025"/>
<path d="M 671.2,341.5 L 680.8,356.5 L 709.9,402.0 L 716.3,411.6 L 719.3,415.9 L 721.8,419.7 L 724.1,423.5 L 726.0,426.9 L 727.8,430.4 L 729.8,434.5 L 731.5,438.5 L 734.5,446.3 L 737.1,456.8 L 745.1,485.0 L 774.0,586.0 L 810.6,715.1 L 813.1,723.0 L 815.1,729.9 L 816.8,735.8 L 817.3,738.5 L 817.6,740.6 L 817.7,742.7 L 817.5,744.3 L 816.8,746.9 L 815.9,749.6 L 814.5,751.9 L 812.6,754.3 L 810.4,756.5 L 808.8,757.5 L 806.5,758.8 L 803.1,760.5 L 801.7,761.5 L 800.5,762.6 L 798.4,764.5 L 796.3,767.3 L 795.2,769.5 L 794.2,771.8 L 793.6,773.9 L 793.3,776.0 L 793.3,777.9 L 793.4,779.7 L 793.7,781.5 L 794.5,785.5 L 801.5,813.8 L 802.6,819.2 L 803.1,822.6 L 802.8,825.6 L 802.3,827.2 L 801.8,829.5 L 801.1,830.9 L 800.2,832.8 L 799.1,834.7 L 797.9,836.1 L 796.8,837.5 L 795.3,838.8 L 790.4,842.4 L 784.1,846.7 L 700.6,904.8 L 696.6,907.5 L 693.8,908.9 L 691.8,909.5 L 688.8,910.0 L 686.0,910.0 L 683.2,909.7 L 680.3,908.9 L 677.1,907.5 L 674.6,905.9 L 672.5,903.9 L 670.6,901.4 L 669.1,898.7 L 668.1,896.1 L 667.6,893.5 L 667.3,890.8 L 667.4,888.0 L 667.9,885.3 L 668.7,882.7 L 669.8,880.5 L 671.3,878.3 L 673.0,876.3 L 674.4,875.1 L 676.8,873.3 L 679.7,871.4 L 682.6,869.7 L 699.7,858.8 L 710.2,852.3 L 712.5,851.0 L 716.4,848.6 L 719.9,846.1 L 722.0,844.2 L 723.9,841.8 L 725.3,839.1 L 726.2,836.4 L 726.8,833.3 L 727.0,830.8 L 726.9,828.2 L 726.1,825.4 L 724.1,819.4 L 717.5,799.7 L 710.7,778.2 L 707.1,766.5 L 705.1,759.5 L 703.8,754.2 L 701.4,740.6 L 692.8,694.4 L 686.8,659.0 L 685.6,653.5 L 684.4,648.5 L 682.6,644.3 L 680.4,640.4 L 677.3,636.3 L 673.9,632.8 L 671.1,630.5 L 668.4,628.3 L 663.8,625.8 L 660.0,624.2 L 656.3,623.3 L 653.2,622.8 L 631.7,621.1 L 629.2,620.9 L 625.6,620.8 L 622.3,621.0 L 617.0,621.7 L 611.7,622.9 L 607.7,624.1 L 604.0,625.5 L 599.4,627.7 L 595.3,630.0 L 591.9,632.3 L 589.0,634.6 L 585.4,638.0 L 582.2,641.4 L 578.3,646.2 L 575.7,650.8 L 572.7,656.8 L 559.8,688.7 L 529.4,763.6 L 528.0,767.4 L 527.4,768.8 L 526.0,772.1 L 524.2,775.4 L 522.5,778.1 L 520.6,780.4 L 517.4,783.4 L 514.1,785.9 L 510.8,787.6 L 506.5,789.2 L 501.9,790.0 L 499.0,790.3 L 495.9,790.1 L 492.9,789.6 L 489.4,788.8 L 485.8,787.5 L 482.3,785.7 L 478.8,783.3 L 473.9,780.1 L 468.9,777.6 L 466.2,776.8 L 462.9,776.2 L 459.1,775.9 L 454.3,776.2 L 449.9,777.2 L 446.0,778.7 L 442.4,780.7 L 439.3,783.2 L 436.4,785.9 L 433.8,789.6 L 417.7,814.5 L 410.5,825.6 L 402.6,838.3 L 395.6,849.4 L 393.7,852.4 L 392.3,854.5 L 389.3,857.4 L 387.2,858.8 L 385.1,860.1 L 383.0,860.9 L 380.7,861.6 L 377.3,862.0 L 374.1,861.9 L 370.2,861.2 L 366.6,859.4 L 363.5,857.3 L 333.8,835.8 L 329.6,832.6 L 326.7,830.6 L 324.5,828.6 L 320.7,824.4 L 318.4,821.0 L 316.3,817.2 L 315.0,814.5 L 314.0,811.7 L 313.2,808.8 L 312.7,805.9 L 312.3,800.3 L 312.6,795.3 L 313.4,790.7 L 314.6,786.5 L 323.1,764.0 L 326.3,756.5 L 329.0,751.4 L 332.5,745.4 L 335.6,741.0 L 340.3,733.8 L 346.0,726.4 L 352.0,719.5 L 360.7,710.3 L 369.8,701.3 L 379.3,692.2 L 383.4,688.3 L 387.7,684.6 L 392.5,680.8 L 397.5,677.4 L 403.7,673.3 L 407.8,671.0 L 411.4,669.0 L 435.6,656.4 L 459.8,643.7 L 472.8,636.8 L 478.7,633.5 L 484.3,629.8 L 489.0,626.5 L 494.0,622.3 L 500.5,616.1 L 507.2,609.0 L 511.0,603.9 L 514.0,599.5 L 516.7,595.3 L 519.3,590.8 L 524.6,580.1 L 538.6,548.9 L 545.9,532.2 L 547.5,528.4 L 549.2,523.7 L 550.3,519.4 L 550.9,515.8 L 551.2,511.5 L 551.3,508.4 L 551.1,504.5 L 550.5,499.4 L 549.1,494.1 L 546.8,487.6 L 518.5,413.1 L 515.4,402.5 L 513.2,393.0 L 512.1,386.7 L 511.1,380.2 L 509.5,368.7 L 508.3,353.4 L 506.5,330.3 L 504.6,309.3 L 504.3,304.4 L 504.3,302.8 L 504.7,301.4 L 505.2,300.2 L 505.8,299.4 L 506.7,298.5 L 508.0,297.8 L 509.8,297.4 L 511.7,297.4 L 512.9,297.6 L 515.2,297.8 L 522.3,298.2 L 524.0,297.9 L 525.8,297.4 L 527.0,296.3 L 528.1,294.9 L 528.6,293.4 L 528.8,291.7 L 528.7,290.1 L 528.2,288.5 L 527.3,286.9 L 523.0,280.9 L 493.7,229.6 L 469.4,186.9 L 431.3,119.9 L 421.0,101.8 L 418.2,96.6 L 418.1,94.7 L 418.7,92.8 L 419.4,91.7 L 420.4,90.6 L 423.7,90.0 L 426.7,91.2 L 430.0,92.5 L 447.1,100.2 L 464.2,108.6 L 476.3,115.5 L 484.3,119.6 L 492.8,124.7 L 500.8,129.8 L 511.1,137.4 L 516.7,141.9 L 521.6,146.0 L 526.2,150.0 L 533.1,156.3 L 541.8,165.8 L 568.3,196.5 L 601.6,235.9 L 606.0,241.3 L 613.1,249.6 L 615.8,252.6 L 617.0,253.9 L 619.3,255.8 L 625.0,259.8 L 628.4,261.9 L 633.7,265.0 L 635.8,266.4 L 638.9,268.5 L 641.7,270.6 L 644.1,272.6 L 646.3,274.8 L 648.4,277.5 L 649.8,279.3 L 651.4,282.1 L 652.9,284.8 L 654.5,287.8 L 656.2,292.0 L 658.1,297.5 L 659.3,302.8 L 660.0,307.2 L 660.6,311.3 L 661.3,316.6 L 662.0,320.7 L 662.4,323.3 L 662.9,325.6 L 664.0,328.5 L 665.3,331.5 L 666.5,333.7 L 667.6,335.6 L 671.2,341.5 Z" fill="none" stroke="#000000" stroke-opacity="0.5" stroke-width="13" stroke-linejoin="round" stroke-linecap="round"/>
<path d="M 671.2,341.5 L 680.8,356.5 L 709.9,402.0 L 716.3,411.6 L 719.3,415.9 L 721.8,419.7 L 724.1,423.5 L 726.0,426.9 L 727.8,430.4 L 729.8,434.5 L 731.5,438.5 L 734.5,446.3 L 737.1,456.8 L 745.1,485.0 L 774.0,586.0 L 810.6,715.1 L 813.1,723.0 L 815.1,729.9 L 816.8,735.8 L 817.3,738.5 L 817.6,740.6 L 817.7,742.7 L 817.5,744.3 L 816.8,746.9 L 815.9,749.6 L 814.5,751.9 L 812.6,754.3 L 810.4,756.5 L 808.8,757.5 L 806.5,758.8 L 803.1,760.5 L 801.7,761.5 L 800.5,762.6 L 798.4,764.5 L 796.3,767.3 L 795.2,769.5 L 794.2,771.8 L 793.6,773.9 L 793.3,776.0 L 793.3,777.9 L 793.4,779.7 L 793.7,781.5 L 794.5,785.5 L 801.5,813.8 L 802.6,819.2 L 803.1,822.6 L 802.8,825.6 L 802.3,827.2 L 801.8,829.5 L 801.1,830.9 L 800.2,832.8 L 799.1,834.7 L 797.9,836.1 L 796.8,837.5 L 795.3,838.8 L 790.4,842.4 L 784.1,846.7 L 700.6,904.8 L 696.6,907.5 L 693.8,908.9 L 691.8,909.5 L 688.8,910.0 L 686.0,910.0 L 683.2,909.7 L 680.3,908.9 L 677.1,907.5 L 674.6,905.9 L 672.5,903.9 L 670.6,901.4 L 669.1,898.7 L 668.1,896.1 L 667.6,893.5 L 667.3,890.8 L 667.4,888.0 L 667.9,885.3 L 668.7,882.7 L 669.8,880.5 L 671.3,878.3 L 673.0,876.3 L 674.4,875.1 L 676.8,873.3 L 679.7,871.4 L 682.6,869.7 L 699.7,858.8 L 710.2,852.3 L 712.5,851.0 L 716.4,848.6 L 719.9,846.1 L 722.0,844.2 L 723.9,841.8 L 725.3,839.1 L 726.2,836.4 L 726.8,833.3 L 727.0,830.8 L 726.9,828.2 L 726.1,825.4 L 724.1,819.4 L 717.5,799.7 L 710.7,778.2 L 707.1,766.5 L 705.1,759.5 L 703.8,754.2 L 701.4,740.6 L 692.8,694.4 L 686.8,659.0 L 685.6,653.5 L 684.4,648.5 L 682.6,644.3 L 680.4,640.4 L 677.3,636.3 L 673.9,632.8 L 671.1,630.5 L 668.4,628.3 L 663.8,625.8 L 660.0,624.2 L 656.3,623.3 L 653.2,622.8 L 631.7,621.1 L 629.2,620.9 L 625.6,620.8 L 622.3,621.0 L 617.0,621.7 L 611.7,622.9 L 607.7,624.1 L 604.0,625.5 L 599.4,627.7 L 595.3,630.0 L 591.9,632.3 L 589.0,634.6 L 585.4,638.0 L 582.2,641.4 L 578.3,646.2 L 575.7,650.8 L 572.7,656.8 L 559.8,688.7 L 529.4,763.6 L 528.0,767.4 L 527.4,768.8 L 526.0,772.1 L 524.2,775.4 L 522.5,778.1 L 520.6,780.4 L 517.4,783.4 L 514.1,785.9 L 510.8,787.6 L 506.5,789.2 L 501.9,790.0 L 499.0,790.3 L 495.9,790.1 L 492.9,789.6 L 489.4,788.8 L 485.8,787.5 L 482.3,785.7 L 478.8,783.3 L 473.9,780.1 L 468.9,777.6 L 466.2,776.8 L 462.9,776.2 L 459.1,775.9 L 454.3,776.2 L 449.9,777.2 L 446.0,778.7 L 442.4,780.7 L 439.3,783.2 L 436.4,785.9 L 433.8,789.6 L 417.7,814.5 L 410.5,825.6 L 402.6,838.3 L 395.6,849.4 L 393.7,852.4 L 392.3,854.5 L 389.3,857.4 L 387.2,858.8 L 385.1,860.1 L 383.0,860.9 L 380.7,861.6 L 377.3,862.0 L 374.1,861.9 L 370.2,861.2 L 366.6,859.4 L 363.5,857.3 L 333.8,835.8 L 329.6,832.6 L 326.7,830.6 L 324.5,828.6 L 320.7,824.4 L 318.4,821.0 L 316.3,817.2 L 315.0,814.5 L 314.0,811.7 L 313.2,808.8 L 312.7,805.9 L 312.3,800.3 L 312.6,795.3 L 313.4,790.7 L 314.6,786.5 L 323.1,764.0 L 326.3,756.5 L 329.0,751.4 L 332.5,745.4 L 335.6,741.0 L 340.3,733.8 L 346.0,726.4 L 352.0,719.5 L 360.7,710.3 L 369.8,701.3 L 379.3,692.2 L 383.4,688.3 L 387.7,684.6 L 392.5,680.8 L 397.5,677.4 L 403.7,673.3 L 407.8,671.0 L 411.4,669.0 L 435.6,656.4 L 459.8,643.7 L 472.8,636.8 L 478.7,633.5 L 484.3,629.8 L 489.0,626.5 L 494.0,622.3 L 500.5,616.1 L 507.2,609.0 L 511.0,603.9 L 514.0,599.5 L 516.7,595.3 L 519.3,590.8 L 524.6,580.1 L 538.6,548.9 L 545.9,532.2 L 547.5,528.4 L 549.2,523.7 L 550.3,519.4 L 550.9,515.8 L 551.2,511.5 L 551.3,508.4 L 551.1,504.5 L 550.5,499.4 L 549.1,494.1 L 546.8,487.6 L 518.5,413.1 L 515.4,402.5 L 513.2,393.0 L 512.1,386.7 L 511.1,380.2 L 509.5,368.7 L 508.3,353.4 L 506.5,330.3 L 504.6,309.3 L 504.3,304.4 L 504.3,302.8 L 504.7,301.4 L 505.2,300.2 L 505.8,299.4 L 506.7,298.5 L 508.0,297.8 L 509.8,297.4 L 511.7,297.4 L 512.9,297.6 L 515.2,297.8 L 522.3,298.2 L 524.0,297.9 L 525.8,297.4 L 527.0,296.3 L 528.1,294.9 L 528.6,293.4 L 528.8,291.7 L 528.7,290.1 L 528.2,288.5 L 527.3,286.9 L 523.0,280.9 L 493.7,229.6 L 469.4,186.9 L 431.3,119.9 L 421.0,101.8 L 418.2,96.6 L 418.1,94.7 L 418.7,92.8 L 419.4,91.7 L 420.4,90.6 L 423.7,90.0 L 426.7,91.2 L 430.0,92.5 L 447.1,100.2 L 464.2,108.6 L 476.3,115.5 L 484.3,119.6 L 492.8,124.7 L 500.8,129.8 L 511.1,137.4 L 516.7,141.9 L 521.6,146.0 L 526.2,150.0 L 533.1,156.3 L 541.8,165.8 L 568.3,196.5 L 601.6,235.9 L 606.0,241.3 L 613.1,249.6 L 615.8,252.6 L 617.0,253.9 L 619.3,255.8 L 625.0,259.8 L 628.4,261.9 L 633.7,265.0 L 635.8,266.4 L 638.9,268.5 L 641.7,270.6 L 644.1,272.6 L 646.3,274.8 L 648.4,277.5 L 649.8,279.3 L 651.4,282.1 L 652.9,284.8 L 654.5,287.8 L 656.2,292.0 L 658.1,297.5 L 659.3,302.8 L 660.0,307.2 L 660.6,311.3 L 661.3,316.6 L 662.0,320.7 L 662.4,323.3 L 662.9,325.6 L 664.0,328.5 L 665.3,331.5 L 666.5,333.7 L 667.6,335.6 L 671.2,341.5 Z" fill="none" stroke="#39404f" stroke-width="8.5" stroke-linejoin="round" stroke-linecap="round"/>
<path d="M 671.2,341.5 L 680.8,356.5 L 709.9,402.0 L 716.3,411.6 L 719.3,415.9 L 721.8,419.7 L 724.1,423.5 L 726.0,426.9 L 727.8,430.4 L 729.8,434.5 L 731.5,438.5 L 734.5,446.3 L 737.1,456.8 L 745.1,485.0 L 774.0,586.0 L 810.6,715.1 L 813.1,723.0 L 815.1,729.9 L 816.8,735.8 L 817.3,738.5 L 817.6,740.6 L 817.7,742.7 L 817.5,744.3 L 816.8,746.9 L 815.9,749.6 L 814.5,751.9 L 812.6,754.3 L 810.4,756.5 L 808.8,757.5 L 806.5,758.8 L 803.1,760.5 L 801.7,761.5 L 800.5,762.6 L 798.4,764.5 L 796.3,767.3 L 795.2,769.5 L 794.2,771.8 L 793.6,773.9 L 793.3,776.0 L 793.3,777.9 L 793.4,779.7 L 793.7,781.5 L 794.5,785.5 L 801.5,813.8 L 802.6,819.2 L 803.1,822.6 L 802.8,825.6 L 802.3,827.2 L 801.8,829.5 L 801.1,830.9 L 800.2,832.8 L 799.1,834.7 L 797.9,836.1 L 796.8,837.5 L 795.3,838.8 L 790.4,842.4 L 784.1,846.7 L 700.6,904.8 L 696.6,907.5 L 693.8,908.9 L 691.8,909.5 L 688.8,910.0 L 686.0,910.0 L 683.2,909.7 L 680.3,908.9 L 677.1,907.5 L 674.6,905.9 L 672.5,903.9 L 670.6,901.4 L 669.1,898.7 L 668.1,896.1 L 667.6,893.5 L 667.3,890.8 L 667.4,888.0 L 667.9,885.3 L 668.7,882.7 L 669.8,880.5 L 671.3,878.3 L 673.0,876.3 L 674.4,875.1 L 676.8,873.3 L 679.7,871.4 L 682.6,869.7 L 699.7,858.8 L 710.2,852.3 L 712.5,851.0 L 716.4,848.6 L 719.9,846.1 L 722.0,844.2 L 723.9,841.8 L 725.3,839.1 L 726.2,836.4 L 726.8,833.3 L 727.0,830.8 L 726.9,828.2 L 726.1,825.4 L 724.1,819.4 L 717.5,799.7 L 710.7,778.2 L 707.1,766.5 L 705.1,759.5 L 703.8,754.2 L 701.4,740.6 L 692.8,694.4 L 686.8,659.0 L 685.6,653.5 L 684.4,648.5 L 682.6,644.3 L 680.4,640.4 L 677.3,636.3 L 673.9,632.8 L 671.1,630.5 L 668.4,628.3 L 663.8,625.8 L 660.0,624.2 L 656.3,623.3 L 653.2,622.8 L 631.7,621.1 L 629.2,620.9 L 625.6,620.8 L 622.3,621.0 L 617.0,621.7 L 611.7,622.9 L 607.7,624.1 L 604.0,625.5 L 599.4,627.7 L 595.3,630.0 L 591.9,632.3 L 589.0,634.6 L 585.4,638.0 L 582.2,641.4 L 578.3,646.2 L 575.7,650.8 L 572.7,656.8 L 559.8,688.7 L 529.4,763.6 L 528.0,767.4 L 527.4,768.8 L 526.0,772.1 L 524.2,775.4 L 522.5,778.1 L 520.6,780.4 L 517.4,783.4 L 514.1,785.9 L 510.8,787.6 L 506.5,789.2 L 501.9,790.0 L 499.0,790.3 L 495.9,790.1 L 492.9,789.6 L 489.4,788.8 L 485.8,787.5 L 482.3,785.7 L 478.8,783.3 L 473.9,780.1 L 468.9,777.6 L 466.2,776.8 L 462.9,776.2 L 459.1,775.9 L 454.3,776.2 L 449.9,777.2 L 446.0,778.7 L 442.4,780.7 L 439.3,783.2 L 436.4,785.9 L 433.8,789.6 L 417.7,814.5 L 410.5,825.6 L 402.6,838.3 L 395.6,849.4 L 393.7,852.4 L 392.3,854.5 L 389.3,857.4 L 387.2,858.8 L 385.1,860.1 L 383.0,860.9 L 380.7,861.6 L 377.3,862.0 L 374.1,861.9 L 370.2,861.2 L 366.6,859.4 L 363.5,857.3 L 333.8,835.8 L 329.6,832.6 L 326.7,830.6 L 324.5,828.6 L 320.7,824.4 L 318.4,821.0 L 316.3,817.2 L 315.0,814.5 L 314.0,811.7 L 313.2,808.8 L 312.7,805.9 L 312.3,800.3 L 312.6,795.3 L 313.4,790.7 L 314.6,786.5 L 323.1,764.0 L 326.3,756.5 L 329.0,751.4 L 332.5,745.4 L 335.6,741.0 L 340.3,733.8 L 346.0,726.4 L 352.0,719.5 L 360.7,710.3 L 369.8,701.3 L 379.3,692.2 L 383.4,688.3 L 387.7,684.6 L 392.5,680.8 L 397.5,677.4 L 403.7,673.3 L 407.8,671.0 L 411.4,669.0 L 435.6,656.4 L 459.8,643.7 L 472.8,636.8 L 478.7,633.5 L 484.3,629.8 L 489.0,626.5 L 494.0,622.3 L 500.5,616.1 L 507.2,609.0 L 511.0,603.9 L 514.0,599.5 L 516.7,595.3 L 519.3,590.8 L 524.6,580.1 L 538.6,548.9 L 545.9,532.2 L 547.5,528.4 L 549.2,523.7 L 550.3,519.4 L 550.9,515.8 L 551.2,511.5 L 551.3,508.4 L 551.1,504.5 L 550.5,499.4 L 549.1,494.1 L 546.8,487.6 L 518.5,413.1 L 515.4,402.5 L 513.2,393.0 L 512.1,386.7 L 511.1,380.2 L 509.5,368.7 L 508.3,353.4 L 506.5,330.3 L 504.6,309.3 L 504.3,304.4 L 504.3,302.8 L 504.7,301.4 L 505.2,300.2 L 505.8,299.4 L 506.7,298.5 L 508.0,297.8 L 509.8,297.4 L 511.7,297.4 L 512.9,297.6 L 515.2,297.8 L 522.3,298.2 L 524.0,297.9 L 525.8,297.4 L 527.0,296.3 L 528.1,294.9 L 528.6,293.4 L 528.8,291.7 L 528.7,290.1 L 528.2,288.5 L 527.3,286.9 L 523.0,280.9 L 493.7,229.6 L 469.4,186.9 L 431.3,119.9 L 421.0,101.8 L 418.2,96.6 L 418.1,94.7 L 418.7,92.8 L 419.4,91.7 L 420.4,90.6 L 423.7,90.0 L 426.7,91.2 L 430.0,92.5 L 447.1,100.2 L 464.2,108.6 L 476.3,115.5 L 484.3,119.6 L 492.8,124.7 L 500.8,129.8 L 511.1,137.4 L 516.7,141.9 L 521.6,146.0 L 526.2,150.0 L 533.1,156.3 L 541.8,165.8 L 568.3,196.5 L 601.6,235.9 L 606.0,241.3 L 613.1,249.6 L 615.8,252.6 L 617.0,253.9 L 619.3,255.8 L 625.0,259.8 L 628.4,261.9 L 633.7,265.0 L 635.8,266.4 L 638.9,268.5 L 641.7,270.6 L 644.1,272.6 L 646.3,274.8 L 648.4,277.5 L 649.8,279.3 L 651.4,282.1 L 652.9,284.8 L 654.5,287.8 L 656.2,292.0 L 658.1,297.5 L 659.3,302.8 L 660.0,307.2 L 660.6,311.3 L 661.3,316.6 L 662.0,320.7 L 662.4,323.3 L 662.9,325.6 L 664.0,328.5 L 665.3,331.5 L 666.5,333.7 L 667.6,335.6 L 671.2,341.5 Z" fill="none" stroke="#e7edf8" stroke-width="2.6" stroke-linejoin="round" stroke-linecap="round"/>
<path d="M 671.2,341.5 L 680.8,356.5 L 709.9,402.0 L 716.3,411.6 L 719.3,415.9 L 721.8,419.7 L 724.1,423.5 L 726.0,426.9 L 727.8,430.4 L 729.8,434.5 L 731.5,438.5 L 734.5,446.3 L 737.1,456.8 L 745.1,485.0 L 774.0,586.0 L 810.6,715.1 L 813.1,723.0 L 815.1,729.9 L 816.8,735.8 L 817.3,738.5 L 817.6,740.6 L 817.7,742.7 L 817.5,744.3 L 816.8,746.9 L 815.9,749.6 L 814.5,751.9 L 812.6,754.3 L 810.4,756.5 L 808.8,757.5 L 806.5,758.8 L 803.1,760.5 L 801.7,761.5 L 800.5,762.6 L 798.4,764.5 L 796.3,767.3 L 795.2,769.5 L 794.2,771.8 L 793.6,773.9 L 793.3,776.0 L 793.3,777.9 L 793.4,779.7 L 793.7,781.5 L 794.5,785.5 L 801.5,813.8 L 802.6,819.2 L 803.1,822.6 L 802.8,825.6 L 802.3,827.2 L 801.8,829.5 L 801.1,830.9 L 800.2,832.8 L 799.1,834.7 L 797.9,836.1 L 796.8,837.5 L 795.3,838.8 L 790.4,842.4 L 784.1,846.7 L 700.6,904.8 L 696.6,907.5 L 693.8,908.9 L 691.8,909.5 L 688.8,910.0 L 686.0,910.0 L 683.2,909.7 L 680.3,908.9 L 677.1,907.5 L 674.6,905.9 L 672.5,903.9 L 670.6,901.4 L 669.1,898.7 L 668.1,896.1 L 667.6,893.5 L 667.3,890.8 L 667.4,888.0 L 667.9,885.3 L 668.7,882.7 L 669.8,880.5 L 671.3,878.3 L 673.0,876.3 L 674.4,875.1 L 676.8,873.3 L 679.7,871.4 L 682.6,869.7 L 699.7,858.8 L 710.2,852.3 L 712.5,851.0 L 716.4,848.6 L 719.9,846.1 L 722.0,844.2 L 723.9,841.8 L 725.3,839.1 L 726.2,836.4 L 726.8,833.3 L 727.0,830.8 L 726.9,828.2 L 726.1,825.4 L 724.1,819.4 L 717.5,799.7 L 710.7,778.2 L 707.1,766.5 L 705.1,759.5 L 703.8,754.2 L 701.4,740.6 L 692.8,694.4 L 686.8,659.0 L 685.6,653.5 L 684.4,648.5 L 682.6,644.3 L 680.4,640.4 L 677.3,636.3 L 673.9,632.8 L 671.1,630.5 L 668.4,628.3 L 663.8,625.8 L 660.0,624.2 L 656.3,623.3 L 653.2,622.8 L 631.7,621.1 L 629.2,620.9 L 625.6,620.8 L 622.3,621.0 L 617.0,621.7 L 611.7,622.9 L 607.7,624.1 L 604.0,625.5 L 599.4,627.7 L 595.3,630.0 L 591.9,632.3 L 589.0,634.6 L 585.4,638.0 L 582.2,641.4 L 578.3,646.2 L 575.7,650.8 L 572.7,656.8 L 559.8,688.7 L 529.4,763.6 L 528.0,767.4 L 527.4,768.8 L 526.0,772.1 L 524.2,775.4 L 522.5,778.1 L 520.6,780.4 L 517.4,783.4 L 514.1,785.9 L 510.8,787.6 L 506.5,789.2 L 501.9,790.0 L 499.0,790.3 L 495.9,790.1 L 492.9,789.6 L 489.4,788.8 L 485.8,787.5 L 482.3,785.7 L 478.8,783.3 L 473.9,780.1 L 468.9,777.6 L 466.2,776.8 L 462.9,776.2 L 459.1,775.9 L 454.3,776.2 L 449.9,777.2 L 446.0,778.7 L 442.4,780.7 L 439.3,783.2 L 436.4,785.9 L 433.8,789.6 L 417.7,814.5 L 410.5,825.6 L 402.6,838.3 L 395.6,849.4 L 393.7,852.4 L 392.3,854.5 L 389.3,857.4 L 387.2,858.8 L 385.1,860.1 L 383.0,860.9 L 380.7,861.6 L 377.3,862.0 L 374.1,861.9 L 370.2,861.2 L 366.6,859.4 L 363.5,857.3 L 333.8,835.8 L 329.6,832.6 L 326.7,830.6 L 324.5,828.6 L 320.7,824.4 L 318.4,821.0 L 316.3,817.2 L 315.0,814.5 L 314.0,811.7 L 313.2,808.8 L 312.7,805.9 L 312.3,800.3 L 312.6,795.3 L 313.4,790.7 L 314.6,786.5 L 323.1,764.0 L 326.3,756.5 L 329.0,751.4 L 332.5,745.4 L 335.6,741.0 L 340.3,733.8 L 346.0,726.4 L 352.0,719.5 L 360.7,710.3 L 369.8,701.3 L 379.3,692.2 L 383.4,688.3 L 387.7,684.6 L 392.5,680.8 L 397.5,677.4 L 403.7,673.3 L 407.8,671.0 L 411.4,669.0 L 435.6,656.4 L 459.8,643.7 L 472.8,636.8 L 478.7,633.5 L 484.3,629.8 L 489.0,626.5 L 494.0,622.3 L 500.5,616.1 L 507.2,609.0 L 511.0,603.9 L 514.0,599.5 L 516.7,595.3 L 519.3,590.8 L 524.6,580.1 L 538.6,548.9 L 545.9,532.2 L 547.5,528.4 L 549.2,523.7 L 550.3,519.4 L 550.9,515.8 L 551.2,511.5 L 551.3,508.4 L 551.1,504.5 L 550.5,499.4 L 549.1,494.1 L 546.8,487.6 L 518.5,413.1 L 515.4,402.5 L 513.2,393.0 L 512.1,386.7 L 511.1,380.2 L 509.5,368.7 L 508.3,353.4 L 506.5,330.3 L 504.6,309.3 L 504.3,304.4 L 504.3,302.8 L 504.7,301.4 L 505.2,300.2 L 505.8,299.4 L 506.7,298.5 L 508.0,297.8 L 509.8,297.4 L 511.7,297.4 L 512.9,297.6 L 515.2,297.8 L 522.3,298.2 L 524.0,297.9 L 525.8,297.4 L 527.0,296.3 L 528.1,294.9 L 528.6,293.4 L 528.8,291.7 L 528.7,290.1 L 528.2,288.5 L 527.3,286.9 L 523.0,280.9 L 493.7,229.6 L 469.4,186.9 L 431.3,119.9 L 421.0,101.8 L 418.2,96.6 L 418.1,94.7 L 418.7,92.8 L 419.4,91.7 L 420.4,90.6 L 423.7,90.0 L 426.7,91.2 L 430.0,92.5 L 447.1,100.2 L 464.2,108.6 L 476.3,115.5 L 484.3,119.6 L 492.8,124.7 L 500.8,129.8 L 511.1,137.4 L 516.7,141.9 L 521.6,146.0 L 526.2,150.0 L 533.1,156.3 L 541.8,165.8 L 568.3,196.5 L 601.6,235.9 L 606.0,241.3 L 613.1,249.6 L 615.8,252.6 L 617.0,253.9 L 619.3,255.8 L 625.0,259.8 L 628.4,261.9 L 633.7,265.0 L 635.8,266.4 L 638.9,268.5 L 641.7,270.6 L 644.1,272.6 L 646.3,274.8 L 648.4,277.5 L 649.8,279.3 L 651.4,282.1 L 652.9,284.8 L 654.5,287.8 L 656.2,292.0 L 658.1,297.5 L 659.3,302.8 L 660.0,307.2 L 660.6,311.3 L 661.3,316.6 L 662.0,320.7 L 662.4,323.3 L 662.9,325.6 L 664.0,328.5 L 665.3,331.5 L 666.5,333.7 L 667.6,335.6 L 671.2,341.5 Z" fill="none" stroke="#ff5a36" stroke-opacity="0.55" stroke-width="1.2" stroke-linejoin="round" filter="url(#glow)"/>
<circle cx="471.7" cy="191.0" r="13" fill="none" stroke="#ffffff" stroke-width="3"/>
<rect x="467.7" y="169.0" width="8" height="18" fill="#ffffff"/>
<circle cx="421.8" cy="93.6" r="7" fill="#ff5a36" stroke="#0a0c12" stroke-width="2.5" filter="url(#glow)"/>
<text x="421.8" y="97.0" font-size="9" font-weight="700" fill="#0a0c12" text-anchor="middle">1</text>
<circle cx="521.4" cy="145.9" r="7" fill="#ff5a36" stroke="#0a0c12" stroke-width="2.5" filter="url(#glow)"/>
<text x="521.4" y="149.3" font-size="9" font-weight="700" fill="#0a0c12" text-anchor="middle">2</text>
<circle cx="619.8" cy="255.0" r="7" fill="#ff5a36" stroke="#0a0c12" stroke-width="2.5" filter="url(#glow)"/>
<text x="619.8" y="258.4" font-size="9" font-weight="700" fill="#0a0c12" text-anchor="middle">3</text>
<circle cx="643.7" cy="272.3" r="7" fill="#ff5a36" stroke="#0a0c12" stroke-width="2.5" filter="url(#glow)"/>
<text x="643.7" y="275.7" font-size="9" font-weight="700" fill="#0a0c12" text-anchor="middle">4</text>
<circle cx="655.0" cy="299.9" r="7" fill="#ff5a36" stroke="#0a0c12" stroke-width="2.5" filter="url(#glow)"/>
<text x="655.0" y="303.3" font-size="9" font-weight="700" fill="#0a0c12" text-anchor="middle">5</text>
<circle cx="714.7" cy="409.1" r="7" fill="#ff5a36" stroke="#0a0c12" stroke-width="2.5" filter="url(#glow)"/>
<text x="714.7" y="412.5" font-size="9" font-weight="700" fill="#0a0c12" text-anchor="middle">6</text>
<circle cx="800.2" cy="767.3" r="7" fill="#ff5a36" stroke="#0a0c12" stroke-width="2.5" filter="url(#glow)"/>
<text x="800.2" y="770.7" font-size="9" font-weight="700" fill="#0a0c12" text-anchor="middle">7</text>
<circle cx="795.3" cy="788.8" r="7" fill="#ff5a36" stroke="#0a0c12" stroke-width="2.5" filter="url(#glow)"/>
<text x="795.3" y="792.2" font-size="9" font-weight="700" fill="#0a0c12" text-anchor="middle">8</text>
<circle cx="796.6" cy="837.7" r="7" fill="#ff5a36" stroke="#0a0c12" stroke-width="2.5" filter="url(#glow)"/>
<text x="796.6" y="841.1" font-size="9" font-weight="700" fill="#0a0c12" text-anchor="middle">9</text>
<circle cx="677.5" cy="895.1" r="7" fill="#ff5a36" stroke="#0a0c12" stroke-width="2.5" filter="url(#glow)"/>
<text x="677.5" y="898.5" font-size="9" font-weight="700" fill="#0a0c12" text-anchor="middle">10</text>
<circle cx="721.8" cy="844.4" r="7" fill="#ff5a36" stroke="#0a0c12" stroke-width="2.5" filter="url(#glow)"/>
<text x="721.8" y="847.8" font-size="9" font-weight="700" fill="#0a0c12" text-anchor="middle">11</text>
<circle cx="650.4" cy="622.6" r="7" fill="#ff5a36" stroke="#0a0c12" stroke-width="2.5" filter="url(#glow)"/>
<text x="650.4" y="626.0" font-size="9" font-weight="700" fill="#0a0c12" text-anchor="middle">12</text>
<circle cx="502.5" cy="789.9" r="7" fill="#ff5a36" stroke="#0a0c12" stroke-width="2.5" filter="url(#glow)"/>
<text x="502.5" y="793.3" font-size="9" font-weight="700" fill="#0a0c12" text-anchor="middle">13</text>
<circle cx="450.8" cy="777.0" r="7" fill="#ff5a36" stroke="#0a0c12" stroke-width="2.5" filter="url(#glow)"/>
<text x="450.8" y="780.4" font-size="9" font-weight="700" fill="#0a0c12" text-anchor="middle">14</text>
<circle cx="381.4" cy="858.2" r="7" fill="#ff5a36" stroke="#0a0c12" stroke-width="2.5" filter="url(#glow)"/>
<text x="381.4" y="861.6" font-size="9" font-weight="700" fill="#0a0c12" text-anchor="middle">15</text>
<circle cx="321.5" cy="825.2" r="7" fill="#ff5a36" stroke="#0a0c12" stroke-width="2.5" filter="url(#glow)"/>
<text x="321.5" y="828.6" font-size="9" font-weight="700" fill="#0a0c12" text-anchor="middle">16</text>
<circle cx="455.0" cy="646.2" r="7" fill="#ff5a36" stroke="#0a0c12" stroke-width="2.5" filter="url(#glow)"/>
<text x="455.0" y="649.6" font-size="9" font-weight="700" fill="#0a0c12" text-anchor="middle">17</text>
<circle cx="518.9" cy="569.9" r="7" fill="#ff5a36" stroke="#0a0c12" stroke-width="2.5" filter="url(#glow)"/>
<text x="518.9" y="573.3" font-size="9" font-weight="700" fill="#0a0c12" text-anchor="middle">18</text>
<circle cx="508.1" cy="299.5" r="7" fill="#ff5a36" stroke="#0a0c12" stroke-width="2.5" filter="url(#glow)"/>
<text x="508.1" y="302.9" font-size="9" font-weight="700" fill="#0a0c12" text-anchor="middle">19</text>
<circle cx="528.5" cy="289.5" r="7" fill="#ff5a36" stroke="#0a0c12" stroke-width="2.5" filter="url(#glow)"/>
<text x="528.5" y="292.9" font-size="9" font-weight="700" fill="#0a0c12" text-anchor="middle">20</text>
<line x1="421.8" y1="93.6" x2="406.2" y2="162.0" stroke="#ff5a36" stroke-opacity="0.45" stroke-width="1.3"/>
<text x="398.2" y="166.0" font-size="15" font-weight="600" fill="#eef2fb" text-anchor="end">La Source</text>
<line x1="619.8" y1="255.0" x2="625.4" y2="203.3" stroke="#ff5a36" stroke-opacity="0.45" stroke-width="1.3"/>
<text x="633.4" y="207.3" font-size="15" font-weight="600" fill="#eef2fb" text-anchor="start">Eau Rouge</text>
<line x1="655.0" y1="299.9" x2="667.2" y2="249.3" stroke="#ff5a36" stroke-opacity="0.45" stroke-width="1.3"/>
<text x="675.2" y="253.3" font-size="15" font-weight="600" fill="#eef2fb" text-anchor="start">Raidillon</text>
<line x1="800.2" y1="767.3" x2="841.7" y2="798.6" stroke="#ff5a36" stroke-opacity="0.45" stroke-width="1.3"/>
<text x="849.7" y="802.6" font-size="15" font-weight="600" fill="#eef2fb" text-anchor="start">Les Combes</text>
<line x1="677.5" y1="895.1" x2="693.6" y2="944.5" stroke="#ff5a36" stroke-opacity="0.45" stroke-width="1.3"/>
<text x="701.6" y="948.5" font-size="15" font-weight="600" fill="#eef2fb" text-anchor="start">Bruxelles</text>
<line x1="650.4" y1="622.6" x2="700.3" y2="637.4" stroke="#ff5a36" stroke-opacity="0.45" stroke-width="1.3"/>
<text x="708.3" y="641.4" font-size="15" font-weight="600" fill="#eef2fb" text-anchor="start">Pouhon</text>
<line x1="381.4" y1="858.2" x2="349.4" y2="899.2" stroke="#ff5a36" stroke-opacity="0.45" stroke-width="1.3"/>
<text x="341.4" y="903.2" font-size="15" font-weight="600" fill="#eef2fb" text-anchor="end">Campus</text>
<line x1="321.5" y1="825.2" x2="282.0" y2="859.0" stroke="#ff5a36" stroke-opacity="0.45" stroke-width="1.3"/>
<text x="274.0" y="863.0" font-size="15" font-weight="600" fill="#eef2fb" text-anchor="end">Stavelot</text>
<line x1="518.9" y1="569.9" x2="472.6" y2="546.2" stroke="#ff5a36" stroke-opacity="0.45" stroke-width="1.3"/>
<text x="464.6" y="550.2" font-size="15" font-weight="600" fill="#eef2fb" text-anchor="end">Blanchimont</text>
<line x1="508.1" y1="299.5" x2="495.8" y2="249.0" stroke="#ff5a36" stroke-opacity="0.45" stroke-width="1.3"/>
<text x="487.8" y="253.0" font-size="15" font-weight="600" fill="#eef2fb" text-anchor="end">Chicane</text>
<text x="90" y="64" font-size="20" letter-spacing="5" fill="#ff5a36" font-weight="700">TRACK ATLAS</text>
<text x="90" y="108" font-size="42" font-weight="800" fill="#ffffff">CIRCUIT DE SPA-FRANCORCHAMPS</text>
<text x="90" y="136" font-size="16" fill="#9aa6bd">Spa</text>
<rect x="1170" y="200" width="360" height="710" rx="16" fill="#ffffff" fill-opacity="0.04" stroke="#ff5a36" stroke-opacity="0.5"/>
<text x="1198" y="250" font-size="13" letter-spacing="2" fill="#8794ab">LAYOUT</text>
<text x="1198" y="276" font-size="22" font-weight="700" fill="#eef2fb">Grand Prix Circuit</text>
<text x="1198" y="320" font-size="13" letter-spacing="2" fill="#8794ab">LENGTH</text>
<text x="1198" y="346" font-size="22" font-weight="700" fill="#eef2fb">7.004 km</text>
<text x="1198" y="390" font-size="13" letter-spacing="2" fill="#8794ab">CORNERS</text>
<text x="1198" y="416" font-size="22" font-weight="700" fill="#eef2fb">20</text>
<text x="1198" y="460" font-size="13" letter-spacing="2" fill="#8794ab">NAMED CORNERS</text>
<text x="1198" y="486" font-size="22" font-weight="700" fill="#eef2fb">10</text>
<text x="1198" y="530" font-size="13" letter-spacing="2" fill="#8794ab">DIRECTION</text>
<text x="1198" y="556" font-size="22" font-weight="700" fill="#eef2fb">Clockwise</text>
<text x="1198" y="600" font-size="13" letter-spacing="2" fill="#8794ab">SECTORS</text>
<text x="1198" y="626" font-size="22" font-weight="700" fill="#eef2fb">3</text>
<text x="1198" y="670" font-size="13" letter-spacing="2" fill="#8794ab">COUNTRY</text>
<text x="1198" y="696" font-size="22" font-weight="700" fill="#eef2fb">Belgium</text>
<text x="1198" y="740" font-size="13" letter-spacing="2" fill="#8794ab">LOCATION</text>
<text x="1198" y="766" font-size="22" font-weight="700" fill="#eef2fb">Stavelot</text>
<text x="90" y="966" font-size="12" fill="#566177">Geometry © OpenStreetMap contributors (ODbL) · corner data: Lovely-Sim-Racing + curated · track-atlas</text>
<text x="90" y="942" font-size="12" fill="#8794ab">⚑ start / finish</text>
</svg>