<svg xmlns="http://www.w3.org/2000/svg" width="1600" height="1000" viewBox="0 0 1600 1000" font-family="Helvetica, Arial, sans-serif">
<defs>
      <radialGradient id="bg" cx="38%" cy="34%" r="85%">
        <stop offset="0%" stop-color="#1b2030"/>
        <stop offset="55%" stop-color="#12151f"/>
        <stop offset="100%" stop-color="#0a0c12"/>
      </radialGradient>
      <linearGradient id="accent" x1="0" y1="0" x2="1" y2="1">
        <stop offset="0%" stop-color="#ff5a36"/>
        <stop offset="100%" stop-color="#ffffff"/>
      </linearGradient>
      <filter id="glow" x="-40%" y="-40%" width="180%" height="180%">
        <feGaussianBlur stdDeviation="6" result="b"/>
        <feMerge><feMergeNode in="b"/><feMergeNode in="SourceGraphic"/></feMerge>
      </filter>
    </defs>
<rect width="1600" height="1000" fill="url(#bg)"/>
<line x1="0" y1="0" x2="0" y2="1000" stroke="#ffffff" stroke-opacity="0.025"/>
<line x1="56" y1="0" x2="56" y2="1000" stroke="#ffffff" stroke-opacity="0.025"/>
<line x1="112" y1="0" x2="112" y2="1000" stroke="#ffffff" stroke-opacity="0.025"/>
<line x1="168" y1="0" x2="168" y2="1000" stroke="#ffffff" stroke-opacity="0.025"/>
<line x1="224" y1="0" x2="224" y2="1000" stroke="#ffffff" stroke-opacity="0.025"/>
<line x1="280" y1="0" x2="280" y2="1000" stroke="#ffffff" stroke-opacity="0.025"/>
<line x1="336" y1="0" x2="336" y2="1000" stroke="#ffffff" stroke-opacity="0.025"/>
<line x1="392" y1="0" x2="392" y2="1000" stroke="#ffffff" stroke-opacity="0.025"/>
<line x1="448" y1="0" x2="448" y2="1000" stroke="#ffffff" stroke-opacity="0.025"/>
<line x1="504" y1="0" x2="504" y2="1000" stroke="#ffffff" stroke-opacity="0.025"/>
<line x1="560" y1="0" x2="560" y2="1000" stroke="#ffffff" stroke-opacity="0.025"/>
<line x1="616" y1="0" x2="616" y2="1000" stroke="#ffffff" stroke-opacity="0.025"/>
<line x1="672" y1="0" x2="672" y2="1000" stroke="#ffffff" stroke-opacity="0.025"/>
<line x1="728" y1="0" x2="728" y2="1000" stroke="#ffffff" stroke-opacity="0.025"/>
<line x1="784" y1="0" x2="784" y2="1000" stroke="#ffffff" stroke-opacity="0.025"/>
<line x1="840" y1="0" x2="840" y2="1000" stroke="#ffffff" stroke-opacity="0.025"/>
<line x1="896" y1="0" x2="896" y2="1000" stroke="#ffffff" stroke-opacity="0.025"/>
<line x1="952" y1="0" x2="952" y2="1000" stroke="#ffffff" stroke-opacity="0.025"/>
<line x1="1008" y1="0" x2="1008" y2="1000" stroke="#ffffff" stroke-opacity="0.025"/>
<line x1="1064" y1="0" x2="1064" y2="1000" stroke="#ffffff" stroke-opacity="0.025"/>
<line x1="1120" y1="0" x2="1120" y2="1000" stroke="#ffffff" stroke-opacity="0.025"/>
<line x1="1176" y1="0" x2="1176" y2="1000" stroke="#ffffff" stroke-opacity="0.025"/>
<line x1="1232" y1="0" x2="1232" y2="1000" stroke="#ffffff" stroke-opacity="0.025"/>
<line x1="1288" y1="0" x2="1288" y2="1000" stroke="#ffffff" stroke-opacity="0.025"/>
<line x1="1344" y1="0" x2="1344" y2="1000" stroke="#ffffff" stroke-opacity="0.025"/>
<line x1="1400" y1="0" x2="1400" y2="1000" stroke="#ffffff" stroke-opacity="0.025"/>
<line x1="1456" y1="0" x2="1456" y2="1000" stroke="#ffffff" stroke-opacity="0.025"/>
<line x1="1512" y1="0" x2="1512" y2="1000" stroke="#ffffff" stroke-opacity="0.025"/>
<line x1="1568" y1="0" x2="1568" y2="1000" stroke="#ffffff" stroke-opacity="0.025"/>
<line x1="0" y1="0" x2="1600" y2="0" stroke="#ffffff" stroke-opacity="0.025"/>
<line x1="0" y1="56" x2="1600" y2="56" stroke="#ffffff" stroke-opacity="0.025"/>
<line x1="0" y1="112" x2="1600" y2="112" stroke="#ffffff" stroke-opacity="0.025"/>
<line x1="0" y1="168" x2="1600" y2="168" stroke="#ffffff" stroke-opacity="0.025"/>
<line x1="0" y1="224" x2="1600" y2="224" stroke="#ffffff" stroke-opacity="0.025"/>
<line x1="0" y1="280" x2="1600" y2="280" stroke="#ffffff" stroke-opacity="0.025"/>
<line x1="0" y1="336" x2="1600" y2="336" stroke="#ffffff" stroke-opacity="0.025"/>
<line x1="0" y1="392" x2="1600" y2="392" stroke="#ffffff" stroke-opacity="0.025"/>
<line x1="0" y1="448" x2="1600" y2="448" stroke="#ffffff" stroke-opacity="0.025"/>
<line x1="0" y1="504" x2="1600" y2="504" stroke="#ffffff" stroke-opacity="0.025"/>
<line x1="0" y1="560" x2="1600" y2="560" stroke="#ffffff" stroke-opacity="0.025"/>
<line x1="0" y1="616" x2="1600" y2="616" stroke="#ffffff" stroke-opacity="0.025"/>
<line x1="0" y1="672" x2="1600" y2="672" stroke="#ffffff" stroke-opacity="0.025"/>
<line x1="0" y1="728" x2="1600" y2="728" stroke="#ffffff" stroke-opacity="0.025"/>
<line x1="0" y1="784" x2="1600" y2="784" stroke="#ffffff" stroke-opacity="0.025"/>
<line x1="0" y1="840" x2="1600" y2="840" stroke="#ffffff" stroke-opacity="0.025"/>
<line x1="0" y1="896" x2="1600" y2="896" stroke="#ffffff" stroke-opacity="0.025"/>
<line x1="0" y1="952" x2="1600" y2="952" stroke="#ffffff" stroke-opacity="0.025"/>
<path d="M 417.7,220.8 L 505.7,261.8 L 607.8,307.7 L 659.4,330.2 L 767.8,378.8 L 908.9,441.1 L 1007.6,486.0 L 1024.0,504.3 L 1031.9,517.8 L 1035.0,526.3 L 1037.2,534.4 L 1039.7,547.0 L 1040.0,564.2 L 1038.3,574.9 L 1033.3,590.2 L 1024.7,605.5 L 1015.7,618.7 L 1005.4,629.9 L 993.9,638.1 L 967.1,646.7 L 945.8,645.4 L 921.6,635.3 L 873.1,603.8 L 822.6,575.4 L 808.1,570.2 L 793.1,568.5 L 778.5,569.4 L 763.7,573.1 L 744.9,583.4 L 738.1,588.8 L 729.9,598.1 L 725.3,606.9 L 722.7,615.0 L 720.2,629.1 L 722.4,660.3 L 723.9,687.5 L 722.1,713.3 L 714.7,730.2 L 704.2,740.7 L 689.9,751.6 L 673.4,760.0 L 605.9,785.0 L 582.1,792.5 L 564.3,795.2 L 543.9,795.3 L 518.0,791.2 L 492.0,786.8 L 468.2,784.3 L 434.8,784.0 L 324.8,794.5 L 311.4,795.9 L 306.8,794.9 L 303.2,792.9 L 298.6,789.7 L 295.7,784.9 L 294.3,779.8 L 293.3,773.7 L 292.2,768.1 L 289.7,763.3 L 285.9,760.0 L 280.0,757.3 L 265.6,753.4 L 258.6,751.5 L 253.7,749.2 L 249.0,744.9 L 244.3,738.0 L 234.7,719.8 L 218.5,688.8 L 212.0,679.1 L 200.2,664.6 L 182.0,646.5 L 159.8,624.6 L 90.8,482.9 L 90.0,448.3 L 93.4,435.5 L 96.4,427.3 L 107.5,407.1 L 133.3,376.5 L 154.1,353.7 L 205.1,298.5 L 240.7,261.0 L 251.1,252.2 L 271.0,235.8 L 296.8,218.4 L 319.4,208.6 L 346.7,204.1 L 371.7,205.6 L 383.6,207.7 L 417.7,220.8 Z" fill="none" stroke="#000000" stroke-opacity="0.5" stroke-width="13" stroke-linejoin="round" stroke-linecap="round"/>
<path d="M 417.7,220.8 L 505.7,261.8 L 607.8,307.7 L 659.4,330.2 L 767.8,378.8 L 908.9,441.1 L 1007.6,486.0 L 1024.0,504.3 L 1031.9,517.8 L 1035.0,526.3 L 1037.2,534.4 L 1039.7,547.0 L 1040.0,564.2 L 1038.3,574.9 L 1033.3,590.2 L 1024.7,605.5 L 1015.7,618.7 L 1005.4,629.9 L 993.9,638.1 L 967.1,646.7 L 945.8,645.4 L 921.6,635.3 L 873.1,603.8 L 822.6,575.4 L 808.1,570.2 L 793.1,568.5 L 778.5,569.4 L 763.7,573.1 L 744.9,583.4 L 738.1,588.8 L 729.9,598.1 L 725.3,606.9 L 722.7,615.0 L 720.2,629.1 L 722.4,660.3 L 723.9,687.5 L 722.1,713.3 L 714.7,730.2 L 704.2,740.7 L 689.9,751.6 L 673.4,760.0 L 605.9,785.0 L 582.1,792.5 L 564.3,795.2 L 543.9,795.3 L 518.0,791.2 L 492.0,786.8 L 468.2,784.3 L 434.8,784.0 L 324.8,794.5 L 311.4,795.9 L 306.8,794.9 L 303.2,792.9 L 298.6,789.7 L 295.7,784.9 L 294.3,779.8 L 293.3,773.7 L 292.2,768.1 L 289.7,763.3 L 285.9,760.0 L 280.0,757.3 L 265.6,753.4 L 258.6,751.5 L 253.7,749.2 L 249.0,744.9 L 244.3,738.0 L 234.7,719.8 L 218.5,688.8 L 212.0,679.1 L 200.2,664.6 L 182.0,646.5 L 159.8,624.6 L 90.8,482.9 L 90.0,448.3 L 93.4,435.5 L 96.4,427.3 L 107.5,407.1 L 133.3,376.5 L 154.1,353.7 L 205.1,298.5 L 240.7,261.0 L 251.1,252.2 L 271.0,235.8 L 296.8,218.4 L 319.4,208.6 L 346.7,204.1 L 371.7,205.6 L 383.6,207.7 L 417.7,220.8 Z" fill="none" stroke="#39404f" stroke-width="8.5" stroke-linejoin="round" stroke-linecap="round"/>
<path d="M 417.7,220.8 L 505.7,261.8 L 607.8,307.7 L 659.4,330.2 L 767.8,378.8 L 908.9,441.1 L 1007.6,486.0 L 1024.0,504.3 L 1031.9,517.8 L 1035.0,526.3 L 1037.2,534.4 L 1039.7,547.0 L 1040.0,564.2 L 1038.3,574.9 L 1033.3,590.2 L 1024.7,605.5 L 1015.7,618.7 L 1005.4,629.9 L 993.9,638.1 L 967.1,646.7 L 945.8,645.4 L 921.6,635.3 L 873.1,603.8 L 822.6,575.4 L 808.1,570.2 L 793.1,568.5 L 778.5,569.4 L 763.7,573.1 L 744.9,583.4 L 738.1,588.8 L 729.9,598.1 L 725.3,606.9 L 722.7,615.0 L 720.2,629.1 L 722.4,660.3 L 723.9,687.5 L 722.1,713.3 L 714.7,730.2 L 704.2,740.7 L 689.9,751.6 L 673.4,760.0 L 605.9,785.0 L 582.1,792.5 L 564.3,795.2 L 543.9,795.3 L 518.0,791.2 L 492.0,786.8 L 468.2,784.3 L 434.8,784.0 L 324.8,794.5 L 311.4,795.9 L 306.8,794.9 L 303.2,792.9 L 298.6,789.7 L 295.7,784.9 L 294.3,779.8 L 293.3,773.7 L 292.2,768.1 L 289.7,763.3 L 285.9,760.0 L 280.0,757.3 L 265.6,753.4 L 258.6,751.5 L 253.7,749.2 L 249.0,744.9 L 244.3,738.0 L 234.7,719.8 L 218.5,688.8 L 212.0,679.1 L 200.2,664.6 L 182.0,646.5 L 159.8,624.6 L 90.8,482.9 L 90.0,448.3 L 93.4,435.5 L 96.4,427.3 L 107.5,407.1 L 133.3,376.5 L 154.1,353.7 L 205.1,298.5 L 240.7,261.0 L 251.1,252.2 L 271.0,235.8 L 296.8,218.4 L 319.4,208.6 L 346.7,204.1 L 371.7,205.6 L 383.6,207.7 L 417.7,220.8 Z" fill="none" stroke="#e7edf8" stroke-width="2.6" stroke-linejoin="round" stroke-linecap="round"/>
<path d="M 417.7,220.8 L 505.7,261.8 L 607.8,307.7 L 659.4,330.2 L 767.8,378.8 L 908.9,441.1 L 1007.6,486.0 L 1024.0,504.3 L 1031.9,517.8 L 1035.0,526.3 L 1037.2,534.4 L 1039.7,547.0 L 1040.0,564.2 L 1038.3,574.9 L 1033.3,590.2 L 1024.7,605.5 L 1015.7,618.7 L 1005.4,629.9 L 993.9,638.1 L 967.1,646.7 L 945.8,645.4 L 921.6,635.3 L 873.1,603.8 L 822.6,575.4 L 808.1,570.2 L 793.1,568.5 L 778.5,569.4 L 763.7,573.1 L 744.9,583.4 L 738.1,588.8 L 729.9,598.1 L 725.3,606.9 L 722.7,615.0 L 720.2,629.1 L 722.4,660.3 L 723.9,687.5 L 722.1,713.3 L 714.7,730.2 L 704.2,740.7 L 689.9,751.6 L 673.4,760.0 L 605.9,785.0 L 582.1,792.5 L 564.3,795.2 L 543.9,795.3 L 518.0,791.2 L 492.0,786.8 L 468.2,784.3 L 434.8,784.0 L 324.8,794.5 L 311.4,795.9 L 306.8,794.9 L 303.2,792.9 L 298.6,789.7 L 295.7,784.9 L 294.3,779.8 L 293.3,773.7 L 292.2,768.1 L 289.7,763.3 L 285.9,760.0 L 280.0,757.3 L 265.6,753.4 L 258.6,751.5 L 253.7,749.2 L 249.0,744.9 L 244.3,738.0 L 234.7,719.8 L 218.5,688.8 L 212.0,679.1 L 200.2,664.6 L 182.0,646.5 L 159.8,624.6 L 90.8,482.9 L 90.0,448.3 L 93.4,435.5 L 96.4,427.3 L 107.5,407.1 L 133.3,376.5 L 154.1,353.7 L 205.1,298.5 L 240.7,261.0 L 251.1,252.2 L 271.0,235.8 L 296.8,218.4 L 319.4,208.6 L 346.7,204.1 L 371.7,205.6 L 383.6,207.7 L 417.7,220.8 Z" fill="none" stroke="#ff5a36" stroke-opacity="0.55" stroke-width="1.2" stroke-linejoin="round" filter="url(#glow)"/>
<circle cx="784.9" cy="386.4" r="13" fill="none" stroke="#ffffff" stroke-width="3"/>
<rect x="780.9" y="364.4" width="8" height="18" fill="#ffffff"/>
<circle cx="988.4" cy="626.3" r="7" fill="#ff5a36" stroke="#0a0c12" stroke-width="2.5" filter="url(#glow)"/>
<text x="988.4" y="629.7" font-size="9" font-weight="700" fill="#0a0c12" text-anchor="middle">1</text>
<circle cx="723.8" cy="687.8" r="7" fill="#ff5a36" stroke="#0a0c12" stroke-width="2.5" filter="url(#glow)"/>
<text x="723.8" y="691.2" font-size="9" font-weight="700" fill="#0a0c12" text-anchor="middle">2</text>
<circle cx="269.4" cy="754.5" r="7" fill="#ff5a36" stroke="#0a0c12" stroke-width="2.5" filter="url(#glow)"/>
<text x="269.4" y="757.9" font-size="9" font-weight="700" fill="#0a0c12" text-anchor="middle">3</text>
<circle cx="101.9" cy="429.6" r="7" fill="#ff5a36" stroke="#0a0c12" stroke-width="2.5" filter="url(#glow)"/>
<text x="101.9" y="433.0" font-size="9" font-weight="700" fill="#0a0c12" text-anchor="middle">4</text>
<circle cx="332.3" cy="219.2" r="7" fill="#ff5a36" stroke="#0a0c12" stroke-width="2.5" filter="url(#glow)"/>
<text x="332.3" y="222.6" font-size="9" font-weight="700" fill="#0a0c12" text-anchor="middle">5</text>
<line x1="988.4" y1="626.3" x2="1040.2" y2="631.4" stroke="#ff5a36" stroke-opacity="0.45" stroke-width="1.3"/>
<text x="1048.2" y="635.4" font-size="15" font-weight="600" fill="#eef2fb" text-anchor="start">Big Bend</text>
<line x1="723.8" y1="687.8" x2="768.9" y2="713.7" stroke="#ff5a36" stroke-opacity="0.45" stroke-width="1.3"/>
<text x="776.9" y="717.7" font-size="15" font-weight="600" fill="#eef2fb" text-anchor="start">Esses</text>
<line x1="269.4" y1="754.5" x2="225.5" y2="782.4" stroke="#ff5a36" stroke-opacity="0.45" stroke-width="1.3"/>
<text x="217.5" y="786.4" font-size="15" font-weight="600" fill="#eef2fb" text-anchor="end">The Uphill</text>
<line x1="101.9" y1="429.6" x2="52.8" y2="412.4" stroke="#ff5a36" stroke-opacity="0.45" stroke-width="1.3"/>
<text x="44.8" y="416.4" font-size="15" font-weight="600" fill="#eef2fb" text-anchor="end">West Bend</text>
<line x1="332.3" y1="219.2" x2="306.4" y2="174.0" stroke="#ff5a36" stroke-opacity="0.45" stroke-width="1.3"/>
<text x="298.4" y="178.0" font-size="15" font-weight="600" fill="#eef2fb" text-anchor="end">The Downhill</text>
<text x="90" y="64" font-size="20" letter-spacing="5" fill="#ff5a36" font-weight="700">TRACK ATLAS</text>
<text x="90" y="108" font-size="42" font-weight="800" fill="#ffffff">LIME ROCK PARK</text>
<text x="90" y="136" font-size="16" fill="#9aa6bd">Lime Rock</text>
<rect x="1170" y="200" width="360" height="710" rx="16" fill="#ffffff" fill-opacity="0.04" stroke="#ff5a36" stroke-opacity="0.5"/>
<text x="1198" y="250" font-size="13" letter-spacing="2" fill="#8794ab">LAYOUT</text>
<text x="1198" y="276" font-size="22" font-weight="700" fill="#eef2fb">Classic</text>
<text x="1198" y="320" font-size="13" letter-spacing="2" fill="#8794ab">LENGTH</text>
<text x="1198" y="346" font-size="22" font-weight="700" fill="#eef2fb">2.462 km</text>
<text x="1198" y="390" font-size="13" letter-spacing="2" fill="#8794ab">CORNERS</text>
<text x="1198" y="416" font-size="22" font-weight="700" fill="#eef2fb">5</text>
<text x="1198" y="460" font-size="13" letter-spacing="2" fill="#8794ab">NAMED CORNERS</text>
<text x="1198" y="486" font-size="22" font-weight="700" fill="#eef2fb">5</text>
<text x="1198" y="530" font-size="13" letter-spacing="2" fill="#8794ab">DIRECTION</text>
<text x="1198" y="556" font-size="22" font-weight="700" fill="#eef2fb">Clockwise</text>
<text x="1198" y="600" font-size="13" letter-spacing="2" fill="#8794ab">SECTORS</text>
<text x="1198" y="626" font-size="22" font-weight="700" fill="#eef2fb">4</text>
<text x="1198" y="670" font-size="13" letter-spacing="2" fill="#8794ab">COUNTRY</text>
<text x="1198" y="696" font-size="22" font-weight="700" fill="#eef2fb">USA</text>
<text x="1198" y="740" font-size="13" letter-spacing="2" fill="#8794ab">LOCATION</text>
<text x="1198" y="766" font-size="22" font-weight="700" fill="#eef2fb">Lakeville, Connecticut</text>
<text x="1198" y="810" font-size="13" letter-spacing="2" fill="#8794ab">COMPLEXES</text>
<rect x="1198" y="816" width="54" height="24" rx="12" fill="#ff5a36" fill-opacity="0.16" stroke="#ff5a36" stroke-opacity="0.5"/>
<text x="1225" y="833" font-size="12" fill="#eef2fb" text-anchor="middle">Esses</text>
<text x="90" y="966" font-size="12" fill="#566177">Geometry © OpenStreetMap contributors (ODbL) · corner data: Lovely-Sim-Racing + curated · track-atlas</text>
<text x="90" y="942" font-size="12" fill="#8794ab">⚑ start / finish</text>
</svg>