<svg xmlns="http://www.w3.org/2000/svg" width="1600" height="1000" viewBox="0 0 1600 1000" font-family="Helvetica, Arial, sans-serif">
<defs>
      <radialGradient id="bg" cx="38%" cy="34%" r="85%">
        <stop offset="0%" stop-color="#1b2030"/>
        <stop offset="55%" stop-color="#12151f"/>
        <stop offset="100%" stop-color="#0a0c12"/>
      </radialGradient>
      <linearGradient id="accent" x1="0" y1="0" x2="1" y2="1">
        <stop offset="0%" stop-color="#e6007e"/>
        <stop offset="100%" stop-color="#ffffff"/>
      </linearGradient>
      <filter id="glow" x="-40%" y="-40%" width="180%" height="180%">
        <feGaussianBlur stdDeviation="6" result="b"/>
        <feMerge><feMergeNode in="b"/><feMergeNode in="SourceGraphic"/></feMerge>
      </filter>
    </defs>
<rect width="1600" height="1000" fill="url(#bg)"/>
<line x1="0" y1="0" x2="0" y2="1000" stroke="#ffffff" stroke-opacity="0.025"/>
<line x1="56" y1="0" x2="56" y2="1000" stroke="#ffffff" stroke-opacity="0.025"/>
<line x1="112" y1="0" x2="112" y2="1000" stroke="#ffffff" stroke-opacity="0.025"/>
<line x1="168" y1="0" x2="168" y2="1000" stroke="#ffffff" stroke-opacity="0.025"/>
<line x1="224" y1="0" x2="224" y2="1000" stroke="#ffffff" stroke-opacity="0.025"/>
<line x1="280" y1="0" x2="280" y2="1000" stroke="#ffffff" stroke-opacity="0.025"/>
<line x1="336" y1="0" x2="336" y2="1000" stroke="#ffffff" stroke-opacity="0.025"/>
<line x1="392" y1="0" x2="392" y2="1000" stroke="#ffffff" stroke-opacity="0.025"/>
<line x1="448" y1="0" x2="448" y2="1000" stroke="#ffffff" stroke-opacity="0.025"/>
<line x1="504" y1="0" x2="504" y2="1000" stroke="#ffffff" stroke-opacity="0.025"/>
<line x1="560" y1="0" x2="560" y2="1000" stroke="#ffffff" stroke-opacity="0.025"/>
<line x1="616" y1="0" x2="616" y2="1000" stroke="#ffffff" stroke-opacity="0.025"/>
<line x1="672" y1="0" x2="672" y2="1000" stroke="#ffffff" stroke-opacity="0.025"/>
<line x1="728" y1="0" x2="728" y2="1000" stroke="#ffffff" stroke-opacity="0.025"/>
<line x1="784" y1="0" x2="784" y2="1000" stroke="#ffffff" stroke-opacity="0.025"/>
<line x1="840" y1="0" x2="840" y2="1000" stroke="#ffffff" stroke-opacity="0.025"/>
<line x1="896" y1="0" x2="896" y2="1000" stroke="#ffffff" stroke-opacity="0.025"/>
<line x1="952" y1="0" x2="952" y2="1000" stroke="#ffffff" stroke-opacity="0.025"/>
<line x1="1008" y1="0" x2="1008" y2="1000" stroke="#ffffff" stroke-opacity="0.025"/>
<line x1="1064" y1="0" x2="1064" y2="1000" stroke="#ffffff" stroke-opacity="0.025"/>
<line x1="1120" y1="0" x2="1120" y2="1000" stroke="#ffffff" stroke-opacity="0.025"/>
<line x1="1176" y1="0" x2="1176" y2="1000" stroke="#ffffff" stroke-opacity="0.025"/>
<line x1="1232" y1="0" x2="1232" y2="1000" stroke="#ffffff" stroke-opacity="0.025"/>
<line x1="1288" y1="0" x2="1288" y2="1000" stroke="#ffffff" stroke-opacity="0.025"/>
<line x1="1344" y1="0" x2="1344" y2="1000" stroke="#ffffff" stroke-opacity="0.025"/>
<line x1="1400" y1="0" x2="1400" y2="1000" stroke="#ffffff" stroke-opacity="0.025"/>
<line x1="1456" y1="0" x2="1456" y2="1000" stroke="#ffffff" stroke-opacity="0.025"/>
<line x1="1512" y1="0" x2="1512" y2="1000" stroke="#ffffff" stroke-opacity="0.025"/>
<line x1="1568" y1="0" x2="1568" y2="1000" stroke="#ffffff" stroke-opacity="0.025"/>
<line x1="0" y1="0" x2="1600" y2="0" stroke="#ffffff" stroke-opacity="0.025"/>
<line x1="0" y1="56" x2="1600" y2="56" stroke="#ffffff" stroke-opacity="0.025"/>
<line x1="0" y1="112" x2="1600" y2="112" stroke="#ffffff" stroke-opacity="0.025"/>
<line x1="0" y1="168" x2="1600" y2="168" stroke="#ffffff" stroke-opacity="0.025"/>
<line x1="0" y1="224" x2="1600" y2="224" stroke="#ffffff" stroke-opacity="0.025"/>
<line x1="0" y1="280" x2="1600" y2="280" stroke="#ffffff" stroke-opacity="0.025"/>
<line x1="0" y1="336" x2="1600" y2="336" stroke="#ffffff" stroke-opacity="0.025"/>
<line x1="0" y1="392" x2="1600" y2="392" stroke="#ffffff" stroke-opacity="0.025"/>
<line x1="0" y1="448" x2="1600" y2="448" stroke="#ffffff" stroke-opacity="0.025"/>
<line x1="0" y1="504" x2="1600" y2="504" stroke="#ffffff" stroke-opacity="0.025"/>
<line x1="0" y1="560" x2="1600" y2="560" stroke="#ffffff" stroke-opacity="0.025"/>
<line x1="0" y1="616" x2="1600" y2="616" stroke="#ffffff" stroke-opacity="0.025"/>
<line x1="0" y1="672" x2="1600" y2="672" stroke="#ffffff" stroke-opacity="0.025"/>
<line x1="0" y1="728" x2="1600" y2="728" stroke="#ffffff" stroke-opacity="0.025"/>
<line x1="0" y1="784" x2="1600" y2="784" stroke="#ffffff" stroke-opacity="0.025"/>
<line x1="0" y1="840" x2="1600" y2="840" stroke="#ffffff" stroke-opacity="0.025"/>
<line x1="0" y1="896" x2="1600" y2="896" stroke="#ffffff" stroke-opacity="0.025"/>
<line x1="0" y1="952" x2="1600" y2="952" stroke="#ffffff" stroke-opacity="0.025"/>
<path d="M 396.8,170.6 C 403.5,145.8 384.2,179.9 396.8,170.6 C 409.4,161.4 453.0,128.6 472.4,115.2 C 491.9,101.8 483.4,44.5 513.5,90.0 C 543.6,135.5 612.9,291.2 653.1,388.2 C 693.3,485.2 734.6,585.0 754.6,672.0 C 774.6,758.9 823.9,891.7 773.2,910.0 C 722.5,928.3 516.6,836.2 450.4,781.5 C 384.2,726.8 385.4,622.3 375.8,581.9 C 366.2,541.5 392.5,553.8 392.6,539.2 C 392.8,524.6 377.1,506.9 376.7,494.3 C 376.3,481.8 391.8,489.8 390.3,464.0 C 388.8,438.1 373.4,363.5 367.8,339.4 C 362.2,315.3 352.0,347.5 356.8,319.4 C 361.7,291.3 390.2,195.4 396.8,170.6 Z" fill="none" stroke="#000000" stroke-opacity="0.5" stroke-width="22" stroke-linejoin="round"/>
<path d="M 396.8,170.6 C 403.5,145.8 384.2,179.9 396.8,170.6 C 409.4,161.4 453.0,128.6 472.4,115.2 C 491.9,101.8 483.4,44.5 513.5,90.0 C 543.6,135.5 612.9,291.2 653.1,388.2 C 693.3,485.2 734.6,585.0 754.6,672.0 C 774.6,758.9 823.9,891.7 773.2,910.0 C 722.5,928.3 516.6,836.2 450.4,781.5 C 384.2,726.8 385.4,622.3 375.8,581.9 C 366.2,541.5 392.5,553.8 392.6,539.2 C 392.8,524.6 377.1,506.9 376.7,494.3 C 376.3,481.8 391.8,489.8 390.3,464.0 C 388.8,438.1 373.4,363.5 367.8,339.4 C 362.2,315.3 352.0,347.5 356.8,319.4 C 361.7,291.3 390.2,195.4 396.8,170.6 Z" fill="none" stroke="#39404f" stroke-width="16" stroke-linejoin="round"/>
<path d="M 396.8,170.6 C 403.5,145.8 384.2,179.9 396.8,170.6 C 409.4,161.4 453.0,128.6 472.4,115.2 C 491.9,101.8 483.4,44.5 513.5,90.0 C 543.6,135.5 612.9,291.2 653.1,388.2 C 693.3,485.2 734.6,585.0 754.6,672.0 C 774.6,758.9 823.9,891.7 773.2,910.0 C 722.5,928.3 516.6,836.2 450.4,781.5 C 384.2,726.8 385.4,622.3 375.8,581.9 C 366.2,541.5 392.5,553.8 392.6,539.2 C 392.8,524.6 377.1,506.9 376.7,494.3 C 376.3,481.8 391.8,489.8 390.3,464.0 C 388.8,438.1 373.4,363.5 367.8,339.4 C 362.2,315.3 352.0,347.5 356.8,319.4 C 361.7,291.3 390.2,195.4 396.8,170.6 Z" fill="none" stroke="#e7edf8" stroke-width="3.5" stroke-linejoin="round"/>
<path d="M 396.8,170.6 C 403.5,145.8 384.2,179.9 396.8,170.6 C 409.4,161.4 453.0,128.6 472.4,115.2 C 491.9,101.8 483.4,44.5 513.5,90.0 C 543.6,135.5 612.9,291.2 653.1,388.2 C 693.3,485.2 734.6,585.0 754.6,672.0 C 774.6,758.9 823.9,891.7 773.2,910.0 C 722.5,928.3 516.6,836.2 450.4,781.5 C 384.2,726.8 385.4,622.3 375.8,581.9 C 366.2,541.5 392.5,553.8 392.6,539.2 C 392.8,524.6 377.1,506.9 376.7,494.3 C 376.3,481.8 391.8,489.8 390.3,464.0 C 388.8,438.1 373.4,363.5 367.8,339.4 C 362.2,315.3 352.0,347.5 356.8,319.4 C 361.7,291.3 390.2,195.4 396.8,170.6 Z" fill="none" stroke="#e6007e" stroke-opacity="0.5" stroke-width="1.5" stroke-linejoin="round" filter="url(#glow)"/>
<circle cx="396.8" cy="170.6" r="13" fill="none" stroke="#ffffff" stroke-width="3"/>
<rect x="392.8" y="148.6" width="8" height="18" fill="#ffffff"/>
<circle cx="396.8" cy="170.6" r="7" fill="#e6007e" stroke="#0a0c12" stroke-width="2.5" filter="url(#glow)"/>
<text x="396.8" y="174.0" font-size="9" font-weight="700" fill="#0a0c12" text-anchor="middle">1</text>
<circle cx="396.8" cy="170.6" r="7" fill="#e6007e" stroke="#0a0c12" stroke-width="2.5" filter="url(#glow)"/>
<text x="396.8" y="174.0" font-size="9" font-weight="700" fill="#0a0c12" text-anchor="middle">2</text>
<circle cx="472.4" cy="115.2" r="7" fill="#e6007e" stroke="#0a0c12" stroke-width="2.5" filter="url(#glow)"/>
<text x="472.4" y="118.6" font-size="9" font-weight="700" fill="#0a0c12" text-anchor="middle">4</text>
<circle cx="513.5" cy="90.0" r="7" fill="#e6007e" stroke="#0a0c12" stroke-width="2.5" filter="url(#glow)"/>
<text x="513.5" y="93.4" font-size="9" font-weight="700" fill="#0a0c12" text-anchor="middle">6</text>
<circle cx="653.1" cy="388.2" r="7" fill="#e6007e" stroke="#0a0c12" stroke-width="2.5" filter="url(#glow)"/>
<text x="653.1" y="391.6" font-size="9" font-weight="700" fill="#0a0c12" text-anchor="middle">7</text>
<circle cx="754.6" cy="672.0" r="7" fill="#e6007e" stroke="#0a0c12" stroke-width="2.5" filter="url(#glow)"/>
<text x="754.6" y="675.4" font-size="9" font-weight="700" fill="#0a0c12" text-anchor="middle">8</text>
<circle cx="773.2" cy="910.0" r="7" fill="#e6007e" stroke="#0a0c12" stroke-width="2.5" filter="url(#glow)"/>
<text x="773.2" y="913.4" font-size="9" font-weight="700" fill="#0a0c12" text-anchor="middle">9</text>
<circle cx="450.4" cy="781.5" r="7" fill="#e6007e" stroke="#0a0c12" stroke-width="2.5" filter="url(#glow)"/>
<text x="450.4" y="784.9" font-size="9" font-weight="700" fill="#0a0c12" text-anchor="middle">12</text>
<circle cx="375.8" cy="581.9" r="7" fill="#e6007e" stroke="#0a0c12" stroke-width="2.5" filter="url(#glow)"/>
<text x="375.8" y="585.3" font-size="9" font-weight="700" fill="#0a0c12" text-anchor="middle">14</text>
<circle cx="392.6" cy="539.2" r="7" fill="#e6007e" stroke="#0a0c12" stroke-width="2.5" filter="url(#glow)"/>
<text x="392.6" y="542.6" font-size="9" font-weight="700" fill="#0a0c12" text-anchor="middle">15</text>
<circle cx="376.7" cy="494.3" r="7" fill="#e6007e" stroke="#0a0c12" stroke-width="2.5" filter="url(#glow)"/>
<text x="376.7" y="497.7" font-size="9" font-weight="700" fill="#0a0c12" text-anchor="middle">16</text>
<circle cx="390.3" cy="464.0" r="7" fill="#e6007e" stroke="#0a0c12" stroke-width="2.5" filter="url(#glow)"/>
<text x="390.3" y="467.4" font-size="9" font-weight="700" fill="#0a0c12" text-anchor="middle">17</text>
<circle cx="367.8" cy="339.4" r="7" fill="#e6007e" stroke="#0a0c12" stroke-width="2.5" filter="url(#glow)"/>
<text x="367.8" y="342.8" font-size="9" font-weight="700" fill="#0a0c12" text-anchor="middle">18</text>
<circle cx="356.8" cy="319.4" r="7" fill="#e6007e" stroke="#0a0c12" stroke-width="2.5" filter="url(#glow)"/>
<text x="356.8" y="322.8" font-size="9" font-weight="700" fill="#0a0c12" text-anchor="middle">20</text>
<line x1="396.8" y1="170.6" x2="381.6" y2="192.0" stroke="#e6007e" stroke-opacity="0.45" stroke-width="1.3"/>
<text x="373.6" y="196.0" font-size="15" font-weight="600" fill="#eef2fb" text-anchor="end">Dunlop Curve</text>
<line x1="396.8" y1="170.6" x2="381.6" y2="222.0" stroke="#e6007e" stroke-opacity="0.45" stroke-width="1.3"/>
<text x="373.6" y="226.0" font-size="15" font-weight="600" fill="#eef2fb" text-anchor="end">Dunlop</text>
<line x1="472.4" y1="115.2" x2="471.8" y2="162.0" stroke="#e6007e" stroke-opacity="0.45" stroke-width="1.3"/>
<text x="463.8" y="166.0" font-size="15" font-weight="600" fill="#eef2fb" text-anchor="end">Esses de la Forêt</text>
<line x1="513.5" y1="90.0" x2="519.1" y2="38.3" stroke="#e6007e" stroke-opacity="0.45" stroke-width="1.3"/>
<text x="527.1" y="42.3" font-size="15" font-weight="600" fill="#eef2fb" text-anchor="start">Tertre Rouge</text>
<line x1="754.6" y1="672.0" x2="793.9" y2="706.0" stroke="#e6007e" stroke-opacity="0.45" stroke-width="1.3"/>
<text x="801.9" y="710.0" font-size="15" font-weight="600" fill="#eef2fb" text-anchor="start">Mulsanne Straight Chicanes</text>
<line x1="773.2" y1="910.0" x2="800.6" y2="954.2" stroke="#e6007e" stroke-opacity="0.45" stroke-width="1.3"/>
<text x="808.6" y="958.2" font-size="15" font-weight="600" fill="#eef2fb" text-anchor="start">Mulsanne</text>
<line x1="450.4" y1="781.5" x2="446.5" y2="833.3" stroke="#e6007e" stroke-opacity="0.45" stroke-width="1.3"/>
<text x="438.5" y="837.3" font-size="15" font-weight="600" fill="#eef2fb" text-anchor="end">Indianapolis / Arnage</text>
<line x1="376.7" y1="494.3" x2="332.8" y2="522.2" stroke="#e6007e" stroke-opacity="0.45" stroke-width="1.3"/>
<text x="324.8" y="526.2" font-size="15" font-weight="600" fill="#eef2fb" text-anchor="end">Porsche Curves</text>
<line x1="356.8" y1="319.4" x2="318.8" y2="283.9" stroke="#e6007e" stroke-opacity="0.45" stroke-width="1.3"/>
<text x="310.8" y="287.9" font-size="15" font-weight="600" fill="#eef2fb" text-anchor="end">Ford Chicanes</text>
<text x="90" y="64" font-size="20" letter-spacing="5" fill="#e6007e" font-weight="700">TRACK ATLAS</text>
<text x="90" y="108" font-size="42" font-weight="800" fill="#ffffff">CIRCUIT DE LA SARTHE</text>
<text x="90" y="136" font-size="16" fill="#9aa6bd">La Sarthe, Circuit des 24 Heures du Mans</text>
<rect x="1170" y="200" width="360" height="710" rx="16" fill="#ffffff" fill-opacity="0.04" stroke="#e6007e" stroke-opacity="0.5"/>
<text x="1198" y="250" font-size="13" letter-spacing="2" fill="#8794ab">LAYOUT</text>
<text x="1198" y="276" font-size="22" font-weight="700" fill="#eef2fb">Circuit des 24 Heures</text>
<text x="1198" y="320" font-size="13" letter-spacing="2" fill="#8794ab">LENGTH</text>
<text x="1198" y="346" font-size="22" font-weight="700" fill="#eef2fb">13.626 km</text>
<text x="1198" y="390" font-size="13" letter-spacing="2" fill="#8794ab">CORNERS</text>
<text x="1198" y="416" font-size="22" font-weight="700" fill="#eef2fb">21</text>
<text x="1198" y="460" font-size="13" letter-spacing="2" fill="#8794ab">NAMED CORNERS</text>
<text x="1198" y="486" font-size="22" font-weight="700" fill="#eef2fb">15</text>
<text x="1198" y="530" font-size="13" letter-spacing="2" fill="#8794ab">DIRECTION</text>
<text x="1198" y="556" font-size="22" font-weight="700" fill="#eef2fb">Clockwise</text>
<text x="1198" y="600" font-size="13" letter-spacing="2" fill="#8794ab">SECTORS</text>
<text x="1198" y="626" font-size="22" font-weight="700" fill="#eef2fb">3</text>
<text x="1198" y="670" font-size="13" letter-spacing="2" fill="#8794ab">COUNTRY</text>
<text x="1198" y="696" font-size="22" font-weight="700" fill="#eef2fb">France</text>
<text x="1198" y="740" font-size="13" letter-spacing="2" fill="#8794ab">LOCATION</text>
<text x="1198" y="766" font-size="22" font-weight="700" fill="#eef2fb">Le Mans</text>
<text x="1198" y="810" font-size="13" letter-spacing="2" fill="#8794ab">COMPLEXES</text>
<rect x="1198" y="816" width="62" height="24" rx="12" fill="#e6007e" fill-opacity="0.16" stroke="#e6007e" stroke-opacity="0.5"/>
<text x="1229" y="833" font-size="12" fill="#eef2fb" text-anchor="middle">Dunlop</text>
<rect x="1270" y="816" width="222" height="24" rx="12" fill="#e6007e" fill-opacity="0.16" stroke="#e6007e" stroke-opacity="0.5"/>
<text x="1381" y="833" font-size="12" fill="#eef2fb" text-anchor="middle">Mulsanne Straight Chicanes</text>
<rect x="1198" y="850" width="182" height="24" rx="12" fill="#e6007e" fill-opacity="0.16" stroke="#e6007e" stroke-opacity="0.5"/>
<text x="1289" y="867" font-size="12" fill="#eef2fb" text-anchor="middle">Indianapolis / Arnage</text>
<rect x="1390" y="850" width="126" height="24" rx="12" fill="#e6007e" fill-opacity="0.16" stroke="#e6007e" stroke-opacity="0.5"/>
<text x="1453" y="867" font-size="12" fill="#eef2fb" text-anchor="middle">Porsche Curves</text>
<rect x="1198" y="884" width="118" height="24" rx="12" fill="#e6007e" fill-opacity="0.16" stroke="#e6007e" stroke-opacity="0.5"/>
<text x="1257" y="901" font-size="12" fill="#eef2fb" text-anchor="middle">Ford Chicanes</text>
<text x="90" y="966" font-size="12" fill="#566177">Geometry © OpenStreetMap contributors (ODbL) · corner data: Lovely-Sim-Racing + curated · track-atlas</text>
<text x="90" y="942" font-size="12" fill="#8794ab">⚑ start / finish</text>
</svg>