<svg xmlns="http://www.w3.org/2000/svg" width="1600" height="1000" viewBox="0 0 1600 1000" font-family="Helvetica, Arial, sans-serif">
<defs>
      <radialGradient id="bg" cx="38%" cy="34%" r="85%">
        <stop offset="0%" stop-color="#1b2030"/>
        <stop offset="55%" stop-color="#12151f"/>
        <stop offset="100%" stop-color="#0a0c12"/>
      </radialGradient>
      <linearGradient id="accent" x1="0" y1="0" x2="1" y2="1">
        <stop offset="0%" stop-color="#e6007e"/>
        <stop offset="100%" stop-color="#ffffff"/>
      </linearGradient>
      <filter id="glow" x="-40%" y="-40%" width="180%" height="180%">
        <feGaussianBlur stdDeviation="6" result="b"/>
        <feMerge><feMergeNode in="b"/><feMergeNode in="SourceGraphic"/></feMerge>
      </filter>
    </defs>
<rect width="1600" height="1000" fill="url(#bg)"/>
<line x1="0" y1="0" x2="0" y2="1000" stroke="#ffffff" stroke-opacity="0.025"/>
<line x1="56" y1="0" x2="56" y2="1000" stroke="#ffffff" stroke-opacity="0.025"/>
<line x1="112" y1="0" x2="112" y2="1000" stroke="#ffffff" stroke-opacity="0.025"/>
<line x1="168" y1="0" x2="168" y2="1000" stroke="#ffffff" stroke-opacity="0.025"/>
<line x1="224" y1="0" x2="224" y2="1000" stroke="#ffffff" stroke-opacity="0.025"/>
<line x1="280" y1="0" x2="280" y2="1000" stroke="#ffffff" stroke-opacity="0.025"/>
<line x1="336" y1="0" x2="336" y2="1000" stroke="#ffffff" stroke-opacity="0.025"/>
<line x1="392" y1="0" x2="392" y2="1000" stroke="#ffffff" stroke-opacity="0.025"/>
<line x1="448" y1="0" x2="448" y2="1000" stroke="#ffffff" stroke-opacity="0.025"/>
<line x1="504" y1="0" x2="504" y2="1000" stroke="#ffffff" stroke-opacity="0.025"/>
<line x1="560" y1="0" x2="560" y2="1000" stroke="#ffffff" stroke-opacity="0.025"/>
<line x1="616" y1="0" x2="616" y2="1000" stroke="#ffffff" stroke-opacity="0.025"/>
<line x1="672" y1="0" x2="672" y2="1000" stroke="#ffffff" stroke-opacity="0.025"/>
<line x1="728" y1="0" x2="728" y2="1000" stroke="#ffffff" stroke-opacity="0.025"/>
<line x1="784" y1="0" x2="784" y2="1000" stroke="#ffffff" stroke-opacity="0.025"/>
<line x1="840" y1="0" x2="840" y2="1000" stroke="#ffffff" stroke-opacity="0.025"/>
<line x1="896" y1="0" x2="896" y2="1000" stroke="#ffffff" stroke-opacity="0.025"/>
<line x1="952" y1="0" x2="952" y2="1000" stroke="#ffffff" stroke-opacity="0.025"/>
<line x1="1008" y1="0" x2="1008" y2="1000" stroke="#ffffff" stroke-opacity="0.025"/>
<line x1="1064" y1="0" x2="1064" y2="1000" stroke="#ffffff" stroke-opacity="0.025"/>
<line x1="1120" y1="0" x2="1120" y2="1000" stroke="#ffffff" stroke-opacity="0.025"/>
<line x1="1176" y1="0" x2="1176" y2="1000" stroke="#ffffff" stroke-opacity="0.025"/>
<line x1="1232" y1="0" x2="1232" y2="1000" stroke="#ffffff" stroke-opacity="0.025"/>
<line x1="1288" y1="0" x2="1288" y2="1000" stroke="#ffffff" stroke-opacity="0.025"/>
<line x1="1344" y1="0" x2="1344" y2="1000" stroke="#ffffff" stroke-opacity="0.025"/>
<line x1="1400" y1="0" x2="1400" y2="1000" stroke="#ffffff" stroke-opacity="0.025"/>
<line x1="1456" y1="0" x2="1456" y2="1000" stroke="#ffffff" stroke-opacity="0.025"/>
<line x1="1512" y1="0" x2="1512" y2="1000" stroke="#ffffff" stroke-opacity="0.025"/>
<line x1="1568" y1="0" x2="1568" y2="1000" stroke="#ffffff" stroke-opacity="0.025"/>
<line x1="0" y1="0" x2="1600" y2="0" stroke="#ffffff" stroke-opacity="0.025"/>
<line x1="0" y1="56" x2="1600" y2="56" stroke="#ffffff" stroke-opacity="0.025"/>
<line x1="0" y1="112" x2="1600" y2="112" stroke="#ffffff" stroke-opacity="0.025"/>
<line x1="0" y1="168" x2="1600" y2="168" stroke="#ffffff" stroke-opacity="0.025"/>
<line x1="0" y1="224" x2="1600" y2="224" stroke="#ffffff" stroke-opacity="0.025"/>
<line x1="0" y1="280" x2="1600" y2="280" stroke="#ffffff" stroke-opacity="0.025"/>
<line x1="0" y1="336" x2="1600" y2="336" stroke="#ffffff" stroke-opacity="0.025"/>
<line x1="0" y1="392" x2="1600" y2="392" stroke="#ffffff" stroke-opacity="0.025"/>
<line x1="0" y1="448" x2="1600" y2="448" stroke="#ffffff" stroke-opacity="0.025"/>
<line x1="0" y1="504" x2="1600" y2="504" stroke="#ffffff" stroke-opacity="0.025"/>
<line x1="0" y1="560" x2="1600" y2="560" stroke="#ffffff" stroke-opacity="0.025"/>
<line x1="0" y1="616" x2="1600" y2="616" stroke="#ffffff" stroke-opacity="0.025"/>
<line x1="0" y1="672" x2="1600" y2="672" stroke="#ffffff" stroke-opacity="0.025"/>
<line x1="0" y1="728" x2="1600" y2="728" stroke="#ffffff" stroke-opacity="0.025"/>
<line x1="0" y1="784" x2="1600" y2="784" stroke="#ffffff" stroke-opacity="0.025"/>
<line x1="0" y1="840" x2="1600" y2="840" stroke="#ffffff" stroke-opacity="0.025"/>
<line x1="0" y1="896" x2="1600" y2="896" stroke="#ffffff" stroke-opacity="0.025"/>
<line x1="0" y1="952" x2="1600" y2="952" stroke="#ffffff" stroke-opacity="0.025"/>
<path d="M 397.2,181.9 L 397.4,181.8 L 397.6,181.7 L 397.7,181.6 L 397.8,181.5 L 397.9,181.4 L 398.1,181.3 L 398.2,181.2 L 398.3,181.1 L 398.3,181.0 L 398.4,180.8 L 398.5,180.7 L 398.5,180.6 L 398.6,180.5 L 398.6,180.4 L 398.7,180.3 L 398.7,180.2 L 398.7,180.0 L 398.8,179.9 L 398.8,179.8 L 398.8,179.7 L 398.8,179.6 L 398.8,179.5 L 398.8,179.4 L 398.8,179.2 L 398.8,179.1 L 398.8,178.9 L 398.8,178.8 L 398.8,178.7 L 398.8,178.6 L 398.7,178.4 L 398.6,178.1 L 397.6,173.4 L 397.5,173.2 L 397.5,173.1 L 397.5,173.0 L 397.5,172.8 L 397.5,172.7 L 397.4,172.5 L 397.4,172.4 L 397.4,172.3 L 397.5,172.1 L 397.5,172.0 L 397.5,171.9 L 397.5,171.7 L 397.5,171.6 L 397.5,171.5 L 397.6,171.4 L 397.6,171.3 L 397.6,171.2 L 397.7,171.1 L 397.7,171.0 L 397.8,170.8 L 397.9,170.7 L 397.9,170.6 L 398.0,170.5 L 398.1,170.4 L 398.2,170.3 L 398.2,170.1 L 398.3,170.0 L 398.4,169.9 L 398.5,169.8 L 398.6,169.8 L 398.7,169.7 L 398.7,169.6 L 398.8,169.5 L 398.9,169.5 L 399.0,169.4 L 399.2,169.3 L 455.5,133.5 L 458.8,133.4 L 460.4,133.3 L 462.2,133.2 L 463.3,133.1 L 463.9,133.0 L 464.4,133.0 L 464.9,132.8 L 465.4,132.7 L 465.8,132.6 L 466.1,132.5 L 466.4,132.4 L 466.8,132.2 L 467.2,132.0 L 467.6,131.7 L 468.1,131.4 L 468.5,131.1 L 468.9,130.8 L 469.3,130.4 L 469.8,130.0 L 470.1,129.6 L 470.4,129.3 L 470.7,128.9 L 471.0,128.5 L 471.3,128.1 L 471.5,127.7 L 471.7,127.3 L 472.0,126.8 L 472.2,126.3 L 472.4,125.8 L 472.6,125.3 L 472.8,124.8 L 473.0,124.4 L 473.1,124.0 L 473.2,123.7 L 473.2,123.4 L 473.3,123.1 L 473.3,122.9 L 473.3,122.7 L 473.3,122.4 L 473.3,121.9 L 473.3,121.3 L 473.3,119.7 L 473.3,119.3 L 473.4,118.9 L 473.4,118.4 L 473.4,118.0 L 473.5,117.7 L 473.5,117.3 L 473.6,116.8 L 473.6,116.4 L 473.7,116.0 L 473.8,115.6 L 473.9,115.2 L 474.1,114.8 L 474.2,114.3 L 474.3,113.9 L 474.5,113.5 L 474.6,113.2 L 474.8,112.8 L 474.9,112.5 L 475.0,112.2 L 475.2,111.9 L 475.4,111.6 L 475.6,111.3 L 475.8,111.0 L 476.0,110.7 L 476.2,110.5 L 476.4,110.3 L 476.7,110.0 L 477.0,109.8 L 477.2,109.6 L 477.4,109.4 L 477.7,109.1 L 477.9,108.9 L 478.2,108.7 L 478.6,108.4 L 482.8,105.1 L 485.3,103.2 L 486.5,102.4 L 486.5,102.4 L 487.6,101.5 L 488.4,101.0 L 489.1,100.6 L 489.7,100.3 L 490.1,100.0 L 490.6,99.8 L 491.3,99.4 L 492.7,98.7 L 493.9,98.1 L 495.2,97.6 L 496.3,97.1 L 498.0,96.4 L 513.7,90.5 L 514.4,90.3 L 515.2,90.1 L 515.9,90.0 L 516.6,90.0 L 517.3,90.1 L 518.0,90.2 L 518.7,90.4 L 519.6,90.8 L 520.8,91.5 L 522.8,92.6 L 524.8,93.7 L 526.4,94.7 L 528.1,95.7 L 529.7,96.7 L 531.2,97.7 L 532.8,98.7 L 534.5,99.9 L 535.7,100.7 L 535.8,100.8 L 536.8,101.5 L 538.7,102.9 L 649.5,379.7 L 649.4,379.9 L 649.3,380.1 L 649.2,380.3 L 649.1,380.4 L 647.7,382.0 L 647.7,382.1 L 647.6,382.1 L 647.6,382.2 L 647.5,382.3 L 647.5,382.4 L 647.4,382.5 L 647.3,382.6 L 647.3,382.7 L 647.2,382.8 L 647.2,382.9 L 647.1,383.0 L 647.1,383.1 L 647.0,383.2 L 647.0,383.3 L 646.9,383.4 L 646.9,383.6 L 646.9,383.7 L 646.8,383.8 L 646.8,384.0 L 646.8,384.1 L 646.7,384.2 L 646.7,384.4 L 646.7,384.5 L 646.7,384.6 L 646.7,384.8 L 646.6,384.9 L 646.6,385.0 L 646.6,385.1 L 646.6,385.3 L 646.6,385.4 L 646.6,385.6 L 646.6,385.7 L 646.6,385.8 L 646.6,385.9 L 646.6,386.1 L 646.6,386.2 L 646.6,386.4 L 646.6,386.5 L 646.6,386.7 L 646.6,386.8 L 646.7,387.0 L 646.7,387.2 L 646.7,387.4 L 646.8,387.6 L 646.8,387.8 L 646.8,387.9 L 646.9,388.1 L 646.9,388.3 L 647.0,388.4 L 647.0,388.6 L 647.1,388.7 L 647.1,388.9 L 647.2,389.0 L 647.3,389.2 L 647.3,389.3 L 647.4,389.4 L 647.4,389.5 L 647.5,389.6 L 647.6,389.7 L 647.7,389.9 L 647.8,390.0 L 647.9,390.1 L 648.0,390.3 L 648.1,390.4 L 648.3,390.6 L 648.6,390.9 L 648.8,391.1 L 648.9,391.2 L 650.5,392.6 L 654.1,395.7 L 655.2,396.7 L 655.5,397.0 L 655.9,397.3 L 656.3,397.7 L 656.8,398.2 L 657.1,398.6 L 657.5,399.0 L 657.8,399.4 L 658.0,399.8 L 658.3,400.2 L 658.6,400.6 L 658.8,401.1 L 659.2,401.9 L 659.5,402.5 L 659.8,403.4 L 660.4,404.8 L 741.1,655.3 L 741.2,655.5 L 741.3,655.7 L 741.4,655.9 L 741.5,656.1 L 741.7,656.3 L 741.7,656.4 L 741.8,656.4 L 741.9,656.5 L 742.0,656.6 L 742.1,656.7 L 742.3,656.8 L 742.4,657.0 L 742.7,657.2 L 742.9,657.4 L 743.3,657.7 L 743.6,657.9 L 744.0,658.1 L 744.3,658.3 L 744.6,658.5 L 744.9,658.7 L 745.2,658.8 L 745.6,658.9 L 746.3,659.2 L 747.9,659.7 L 748.2,659.8 L 748.6,659.9 L 748.9,660.0 L 749.2,660.2 L 749.5,660.3 L 749.8,660.5 L 750.0,660.6 L 750.2,660.8 L 750.5,661.0 L 750.7,661.2 L 751.0,661.5 L 751.2,661.8 L 751.5,662.0 L 751.7,662.3 L 751.9,662.6 L 752.0,662.8 L 752.2,663.1 L 752.3,663.4 L 752.4,663.6 L 752.5,664.0 L 752.6,664.3 L 752.7,664.7 L 752.8,665.0 L 752.8,665.4 L 752.9,665.8 L 752.9,666.1 L 752.9,666.4 L 752.8,666.7 L 752.8,666.9 L 752.8,667.3 L 752.7,667.7 L 752.6,668.0 L 752.6,668.4 L 751.0,673.9 L 750.7,674.9 L 750.5,675.8 L 750.4,676.2 L 750.3,676.5 L 750.3,676.8 L 750.2,677.2 L 750.2,677.5 L 750.1,677.9 L 750.1,678.2 L 750.1,678.6 L 750.1,679.0 L 750.0,679.4 L 750.0,679.8 L 750.0,680.2 L 750.0,680.6 L 750.0,681.1 L 750.0,681.7 L 750.0,682.1 L 750.1,682.5 L 750.1,682.8 L 750.2,683.2 L 750.3,683.5 L 750.4,683.9 L 750.8,685.5 L 771.0,883.5 L 771.0,884.9 L 770.9,886.1 L 770.8,887.4 L 770.8,888.2 L 770.7,889.1 L 770.6,889.8 L 770.5,890.5 L 770.4,891.1 L 770.2,891.8 L 769.9,892.7 L 769.6,894.0 L 765.9,907.6 L 765.6,908.5 L 765.3,908.9 L 765.1,909.2 L 764.7,909.4 L 764.3,909.6 L 763.9,909.8 L 763.5,909.9 L 763.1,910.0 L 762.7,910.0 L 762.2,909.9 L 761.7,909.8 L 756.3,908.3 L 452.8,774.0 L 452.5,774.1 L 452.2,774.2 L 451.9,774.2 L 451.7,774.2 L 451.4,774.2 L 451.2,774.2 L 451.0,774.1 L 450.8,774.1 L 450.6,774.0 L 450.5,774.0 L 450.3,773.9 L 450.2,773.8 L 450.0,773.7 L 449.9,773.6 L 449.7,773.4 L 449.6,773.2 L 449.5,773.1 L 449.4,772.9 L 449.3,772.7 L 449.1,772.1 L 376.4,590.9 L 376.0,589.3 L 375.7,588.0 L 375.6,586.5 L 375.5,585.1 L 375.5,583.4 L 375.6,581.8 L 375.7,580.5 L 376.0,579.2 L 376.3,578.0 L 376.7,576.9 L 377.2,575.7 L 377.7,574.6 L 378.2,573.6 L 378.9,572.4 L 379.5,571.5 L 380.2,570.4 L 380.8,569.8 L 381.5,569.0 L 382.2,568.2 L 391.8,557.8 L 392.5,557.0 L 393.1,556.2 L 393.7,555.4 L 394.0,554.9 L 394.4,554.3 L 394.6,553.9 L 395.0,553.0 L 395.4,552.3 L 395.7,551.4 L 396.1,550.4 L 396.4,549.4 L 396.6,548.4 L 396.8,547.5 L 397.0,546.6 L 397.1,545.7 L 397.1,544.8 L 397.1,542.6 L 396.9,539.9 L 396.3,533.0 L 395.8,528.4 L 395.5,526.4 L 395.2,524.7 L 394.8,523.3 L 394.3,521.5 L 393.9,520.7 L 393.5,519.9 L 393.1,519.2 L 392.7,518.8 L 392.4,518.3 L 392.0,517.9 L 391.6,517.4 L 390.9,516.5 L 389.6,515.3 L 388.6,514.3 L 384.5,510.9 L 384.2,474.7 L 388.1,471.4 L 388.9,470.6 L 389.6,469.9 L 390.1,469.4 L 390.5,468.8 L 390.9,468.1 L 391.4,467.4 L 391.7,466.7 L 392.1,466.0 L 392.5,465.1 L 392.7,464.3 L 393.0,463.4 L 393.2,462.7 L 393.3,462.1 L 393.4,461.6 L 393.5,461.0 L 393.5,460.4 L 393.5,459.8 L 393.5,459.0 L 393.5,458.0 L 393.4,456.9 L 393.2,455.7 L 393.1,454.5 L 392.4,450.0 L 391.3,441.8 L 375.6,351.6 L 373.9,345.5 L 373.8,345.0 L 373.7,344.6 L 373.5,344.3 L 373.4,343.9 L 373.3,343.7 L 373.2,343.5 L 373.1,343.4 L 373.0,343.2 L 372.9,343.0 L 372.8,342.8 L 372.6,342.6 L 372.6,342.5 L 372.4,342.4 L 372.3,342.2 L 372.2,342.1 L 372.0,342.0 L 371.9,341.8 L 371.8,341.7 L 371.7,341.7 L 371.6,341.6 L 371.5,341.5 L 371.4,341.4 L 371.3,341.4 L 371.1,341.3 L 370.9,341.2 L 370.7,341.1 L 370.5,341.0 L 369.1,340.4 L 368.9,340.3 L 368.7,340.3 L 368.6,340.2 L 368.4,340.1 L 368.2,340.0 L 368.1,339.9 L 368.0,339.8 L 367.8,339.7 L 367.7,339.6 L 367.6,339.5 L 367.4,339.3 L 367.3,339.2 L 367.2,339.1 L 367.0,338.9 L 366.9,338.7 L 366.8,338.6 L 366.6,338.3 L 366.5,338.1 L 366.4,337.9 L 366.2,337.6 L 366.1,337.4 L 366.0,337.2 L 366.0,337.0 L 365.9,336.8 L 365.8,336.6 L 365.8,336.4 L 365.7,336.1 L 365.6,335.7 L 365.5,335.4 L 361.4,322.3 L 361.9,322.4 L 366.4,323.4 L 367.6,323.6 L 367.8,323.7 L 368.0,323.7 L 368.1,323.8 L 368.2,323.8 L 368.3,323.8 L 368.4,323.7 L 368.6,323.7 L 368.8,323.7 L 368.9,323.6 L 369.1,323.5 L 369.2,323.5 L 369.4,323.4 L 369.5,323.3 L 369.6,323.2 L 369.7,323.0 L 369.8,322.9 L 369.9,322.7 L 370.0,322.6 L 370.1,322.4 L 370.1,322.2 L 370.2,322.0 Z" fill="none" stroke="#000000" stroke-opacity="0.5" stroke-width="13" stroke-linejoin="round" stroke-linecap="round"/>
<path d="M 397.2,181.9 L 397.4,181.8 L 397.6,181.7 L 397.7,181.6 L 397.8,181.5 L 397.9,181.4 L 398.1,181.3 L 398.2,181.2 L 398.3,181.1 L 398.3,181.0 L 398.4,180.8 L 398.5,180.7 L 398.5,180.6 L 398.6,180.5 L 398.6,180.4 L 398.7,180.3 L 398.7,180.2 L 398.7,180.0 L 398.8,179.9 L 398.8,179.8 L 398.8,179.7 L 398.8,179.6 L 398.8,179.5 L 398.8,179.4 L 398.8,179.2 L 398.8,179.1 L 398.8,178.9 L 398.8,178.8 L 398.8,178.7 L 398.8,178.6 L 398.7,178.4 L 398.6,178.1 L 397.6,173.4 L 397.5,173.2 L 397.5,173.1 L 397.5,173.0 L 397.5,172.8 L 397.5,172.7 L 397.4,172.5 L 397.4,172.4 L 397.4,172.3 L 397.5,172.1 L 397.5,172.0 L 397.5,171.9 L 397.5,171.7 L 397.5,171.6 L 397.5,171.5 L 397.6,171.4 L 397.6,171.3 L 397.6,171.2 L 397.7,171.1 L 397.7,171.0 L 397.8,170.8 L 397.9,170.7 L 397.9,170.6 L 398.0,170.5 L 398.1,170.4 L 398.2,170.3 L 398.2,170.1 L 398.3,170.0 L 398.4,169.9 L 398.5,169.8 L 398.6,169.8 L 398.7,169.7 L 398.7,169.6 L 398.8,169.5 L 398.9,169.5 L 399.0,169.4 L 399.2,169.3 L 455.5,133.5 L 458.8,133.4 L 460.4,133.3 L 462.2,133.2 L 463.3,133.1 L 463.9,133.0 L 464.4,133.0 L 464.9,132.8 L 465.4,132.7 L 465.8,132.6 L 466.1,132.5 L 466.4,132.4 L 466.8,132.2 L 467.2,132.0 L 467.6,131.7 L 468.1,131.4 L 468.5,131.1 L 468.9,130.8 L 469.3,130.4 L 469.8,130.0 L 470.1,129.6 L 470.4,129.3 L 470.7,128.9 L 471.0,128.5 L 471.3,128.1 L 471.5,127.7 L 471.7,127.3 L 472.0,126.8 L 472.2,126.3 L 472.4,125.8 L 472.6,125.3 L 472.8,124.8 L 473.0,124.4 L 473.1,124.0 L 473.2,123.7 L 473.2,123.4 L 473.3,123.1 L 473.3,122.9 L 473.3,122.7 L 473.3,122.4 L 473.3,121.9 L 473.3,121.3 L 473.3,119.7 L 473.3,119.3 L 473.4,118.9 L 473.4,118.4 L 473.4,118.0 L 473.5,117.7 L 473.5,117.3 L 473.6,116.8 L 473.6,116.4 L 473.7,116.0 L 473.8,115.6 L 473.9,115.2 L 474.1,114.8 L 474.2,114.3 L 474.3,113.9 L 474.5,113.5 L 474.6,113.2 L 474.8,112.8 L 474.9,112.5 L 475.0,112.2 L 475.2,111.9 L 475.4,111.6 L 475.6,111.3 L 475.8,111.0 L 476.0,110.7 L 476.2,110.5 L 476.4,110.3 L 476.7,110.0 L 477.0,109.8 L 477.2,109.6 L 477.4,109.4 L 477.7,109.1 L 477.9,108.9 L 478.2,108.7 L 478.6,108.4 L 482.8,105.1 L 485.3,103.2 L 486.5,102.4 L 486.5,102.4 L 487.6,101.5 L 488.4,101.0 L 489.1,100.6 L 489.7,100.3 L 490.1,100.0 L 490.6,99.8 L 491.3,99.4 L 492.7,98.7 L 493.9,98.1 L 495.2,97.6 L 496.3,97.1 L 498.0,96.4 L 513.7,90.5 L 514.4,90.3 L 515.2,90.1 L 515.9,90.0 L 516.6,90.0 L 517.3,90.1 L 518.0,90.2 L 518.7,90.4 L 519.6,90.8 L 520.8,91.5 L 522.8,92.6 L 524.8,93.7 L 526.4,94.7 L 528.1,95.7 L 529.7,96.7 L 531.2,97.7 L 532.8,98.7 L 534.5,99.9 L 535.7,100.7 L 535.8,100.8 L 536.8,101.5 L 538.7,102.9 L 649.5,379.7 L 649.4,379.9 L 649.3,380.1 L 649.2,380.3 L 649.1,380.4 L 647.7,382.0 L 647.7,382.1 L 647.6,382.1 L 647.6,382.2 L 647.5,382.3 L 647.5,382.4 L 647.4,382.5 L 647.3,382.6 L 647.3,382.7 L 647.2,382.8 L 647.2,382.9 L 647.1,383.0 L 647.1,383.1 L 647.0,383.2 L 647.0,383.3 L 646.9,383.4 L 646.9,383.6 L 646.9,383.7 L 646.8,383.8 L 646.8,384.0 L 646.8,384.1 L 646.7,384.2 L 646.7,384.4 L 646.7,384.5 L 646.7,384.6 L 646.7,384.8 L 646.6,384.9 L 646.6,385.0 L 646.6,385.1 L 646.6,385.3 L 646.6,385.4 L 646.6,385.6 L 646.6,385.7 L 646.6,385.8 L 646.6,385.9 L 646.6,386.1 L 646.6,386.2 L 646.6,386.4 L 646.6,386.5 L 646.6,386.7 L 646.6,386.8 L 646.7,387.0 L 646.7,387.2 L 646.7,387.4 L 646.8,387.6 L 646.8,387.8 L 646.8,387.9 L 646.9,388.1 L 646.9,388.3 L 647.0,388.4 L 647.0,388.6 L 647.1,388.7 L 647.1,388.9 L 647.2,389.0 L 647.3,389.2 L 647.3,389.3 L 647.4,389.4 L 647.4,389.5 L 647.5,389.6 L 647.6,389.7 L 647.7,389.9 L 647.8,390.0 L 647.9,390.1 L 648.0,390.3 L 648.1,390.4 L 648.3,390.6 L 648.6,390.9 L 648.8,391.1 L 648.9,391.2 L 650.5,392.6 L 654.1,395.7 L 655.2,396.7 L 655.5,397.0 L 655.9,397.3 L 656.3,397.7 L 656.8,398.2 L 657.1,398.6 L 657.5,399.0 L 657.8,399.4 L 658.0,399.8 L 658.3,400.2 L 658.6,400.6 L 658.8,401.1 L 659.2,401.9 L 659.5,402.5 L 659.8,403.4 L 660.4,404.8 L 741.1,655.3 L 741.2,655.5 L 741.3,655.7 L 741.4,655.9 L 741.5,656.1 L 741.7,656.3 L 741.7,656.4 L 741.8,656.4 L 741.9,656.5 L 742.0,656.6 L 742.1,656.7 L 742.3,656.8 L 742.4,657.0 L 742.7,657.2 L 742.9,657.4 L 743.3,657.7 L 743.6,657.9 L 744.0,658.1 L 744.3,658.3 L 744.6,658.5 L 744.9,658.7 L 745.2,658.8 L 745.6,658.9 L 746.3,659.2 L 747.9,659.7 L 748.2,659.8 L 748.6,659.9 L 748.9,660.0 L 749.2,660.2 L 749.5,660.3 L 749.8,660.5 L 750.0,660.6 L 750.2,660.8 L 750.5,661.0 L 750.7,661.2 L 751.0,661.5 L 751.2,661.8 L 751.5,662.0 L 751.7,662.3 L 751.9,662.6 L 752.0,662.8 L 752.2,663.1 L 752.3,663.4 L 752.4,663.6 L 752.5,664.0 L 752.6,664.3 L 752.7,664.7 L 752.8,665.0 L 752.8,665.4 L 752.9,665.8 L 752.9,666.1 L 752.9,666.4 L 752.8,666.7 L 752.8,666.9 L 752.8,667.3 L 752.7,667.7 L 752.6,668.0 L 752.6,668.4 L 751.0,673.9 L 750.7,674.9 L 750.5,675.8 L 750.4,676.2 L 750.3,676.5 L 750.3,676.8 L 750.2,677.2 L 750.2,677.5 L 750.1,677.9 L 750.1,678.2 L 750.1,678.6 L 750.1,679.0 L 750.0,679.4 L 750.0,679.8 L 750.0,680.2 L 750.0,680.6 L 750.0,681.1 L 750.0,681.7 L 750.0,682.1 L 750.1,682.5 L 750.1,682.8 L 750.2,683.2 L 750.3,683.5 L 750.4,683.9 L 750.8,685.5 L 771.0,883.5 L 771.0,884.9 L 770.9,886.1 L 770.8,887.4 L 770.8,888.2 L 770.7,889.1 L 770.6,889.8 L 770.5,890.5 L 770.4,891.1 L 770.2,891.8 L 769.9,892.7 L 769.6,894.0 L 765.9,907.6 L 765.6,908.5 L 765.3,908.9 L 765.1,909.2 L 764.7,909.4 L 764.3,909.6 L 763.9,909.8 L 763.5,909.9 L 763.1,910.0 L 762.7,910.0 L 762.2,909.9 L 761.7,909.8 L 756.3,908.3 L 452.8,774.0 L 452.5,774.1 L 452.2,774.2 L 451.9,774.2 L 451.7,774.2 L 451.4,774.2 L 451.2,774.2 L 451.0,774.1 L 450.8,774.1 L 450.6,774.0 L 450.5,774.0 L 450.3,773.9 L 450.2,773.8 L 450.0,773.7 L 449.9,773.6 L 449.7,773.4 L 449.6,773.2 L 449.5,773.1 L 449.4,772.9 L 449.3,772.7 L 449.1,772.1 L 376.4,590.9 L 376.0,589.3 L 375.7,588.0 L 375.6,586.5 L 375.5,585.1 L 375.5,583.4 L 375.6,581.8 L 375.7,580.5 L 376.0,579.2 L 376.3,578.0 L 376.7,576.9 L 377.2,575.7 L 377.7,574.6 L 378.2,573.6 L 378.9,572.4 L 379.5,571.5 L 380.2,570.4 L 380.8,569.8 L 381.5,569.0 L 382.2,568.2 L 391.8,557.8 L 392.5,557.0 L 393.1,556.2 L 393.7,555.4 L 394.0,554.9 L 394.4,554.3 L 394.6,553.9 L 395.0,553.0 L 395.4,552.3 L 395.7,551.4 L 396.1,550.4 L 396.4,549.4 L 396.6,548.4 L 396.8,547.5 L 397.0,546.6 L 397.1,545.7 L 397.1,544.8 L 397.1,542.6 L 396.9,539.9 L 396.3,533.0 L 395.8,528.4 L 395.5,526.4 L 395.2,524.7 L 394.8,523.3 L 394.3,521.5 L 393.9,520.7 L 393.5,519.9 L 393.1,519.2 L 392.7,518.8 L 392.4,518.3 L 392.0,517.9 L 391.6,517.4 L 390.9,516.5 L 389.6,515.3 L 388.6,514.3 L 384.5,510.9 L 384.2,474.7 L 388.1,471.4 L 388.9,470.6 L 389.6,469.9 L 390.1,469.4 L 390.5,468.8 L 390.9,468.1 L 391.4,467.4 L 391.7,466.7 L 392.1,466.0 L 392.5,465.1 L 392.7,464.3 L 393.0,463.4 L 393.2,462.7 L 393.3,462.1 L 393.4,461.6 L 393.5,461.0 L 393.5,460.4 L 393.5,459.8 L 393.5,459.0 L 393.5,458.0 L 393.4,456.9 L 393.2,455.7 L 393.1,454.5 L 392.4,450.0 L 391.3,441.8 L 375.6,351.6 L 373.9,345.5 L 373.8,345.0 L 373.7,344.6 L 373.5,344.3 L 373.4,343.9 L 373.3,343.7 L 373.2,343.5 L 373.1,343.4 L 373.0,343.2 L 372.9,343.0 L 372.8,342.8 L 372.6,342.6 L 372.6,342.5 L 372.4,342.4 L 372.3,342.2 L 372.2,342.1 L 372.0,342.0 L 371.9,341.8 L 371.8,341.7 L 371.7,341.7 L 371.6,341.6 L 371.5,341.5 L 371.4,341.4 L 371.3,341.4 L 371.1,341.3 L 370.9,341.2 L 370.7,341.1 L 370.5,341.0 L 369.1,340.4 L 368.9,340.3 L 368.7,340.3 L 368.6,340.2 L 368.4,340.1 L 368.2,340.0 L 368.1,339.9 L 368.0,339.8 L 367.8,339.7 L 367.7,339.6 L 367.6,339.5 L 367.4,339.3 L 367.3,339.2 L 367.2,339.1 L 367.0,338.9 L 366.9,338.7 L 366.8,338.6 L 366.6,338.3 L 366.5,338.1 L 366.4,337.9 L 366.2,337.6 L 366.1,337.4 L 366.0,337.2 L 366.0,337.0 L 365.9,336.8 L 365.8,336.6 L 365.8,336.4 L 365.7,336.1 L 365.6,335.7 L 365.5,335.4 L 361.4,322.3 L 361.9,322.4 L 366.4,323.4 L 367.6,323.6 L 367.8,323.7 L 368.0,323.7 L 368.1,323.8 L 368.2,323.8 L 368.3,323.8 L 368.4,323.7 L 368.6,323.7 L 368.8,323.7 L 368.9,323.6 L 369.1,323.5 L 369.2,323.5 L 369.4,323.4 L 369.5,323.3 L 369.6,323.2 L 369.7,323.0 L 369.8,322.9 L 369.9,322.7 L 370.0,322.6 L 370.1,322.4 L 370.1,322.2 L 370.2,322.0 Z" fill="none" stroke="#39404f" stroke-width="8.5" stroke-linejoin="round" stroke-linecap="round"/>
<path d="M 397.2,181.9 L 397.4,181.8 L 397.6,181.7 L 397.7,181.6 L 397.8,181.5 L 397.9,181.4 L 398.1,181.3 L 398.2,181.2 L 398.3,181.1 L 398.3,181.0 L 398.4,180.8 L 398.5,180.7 L 398.5,180.6 L 398.6,180.5 L 398.6,180.4 L 398.7,180.3 L 398.7,180.2 L 398.7,180.0 L 398.8,179.9 L 398.8,179.8 L 398.8,179.7 L 398.8,179.6 L 398.8,179.5 L 398.8,179.4 L 398.8,179.2 L 398.8,179.1 L 398.8,178.9 L 398.8,178.8 L 398.8,178.7 L 398.8,178.6 L 398.7,178.4 L 398.6,178.1 L 397.6,173.4 L 397.5,173.2 L 397.5,173.1 L 397.5,173.0 L 397.5,172.8 L 397.5,172.7 L 397.4,172.5 L 397.4,172.4 L 397.4,172.3 L 397.5,172.1 L 397.5,172.0 L 397.5,171.9 L 397.5,171.7 L 397.5,171.6 L 397.5,171.5 L 397.6,171.4 L 397.6,171.3 L 397.6,171.2 L 397.7,171.1 L 397.7,171.0 L 397.8,170.8 L 397.9,170.7 L 397.9,170.6 L 398.0,170.5 L 398.1,170.4 L 398.2,170.3 L 398.2,170.1 L 398.3,170.0 L 398.4,169.9 L 398.5,169.8 L 398.6,169.8 L 398.7,169.7 L 398.7,169.6 L 398.8,169.5 L 398.9,169.5 L 399.0,169.4 L 399.2,169.3 L 455.5,133.5 L 458.8,133.4 L 460.4,133.3 L 462.2,133.2 L 463.3,133.1 L 463.9,133.0 L 464.4,133.0 L 464.9,132.8 L 465.4,132.7 L 465.8,132.6 L 466.1,132.5 L 466.4,132.4 L 466.8,132.2 L 467.2,132.0 L 467.6,131.7 L 468.1,131.4 L 468.5,131.1 L 468.9,130.8 L 469.3,130.4 L 469.8,130.0 L 470.1,129.6 L 470.4,129.3 L 470.7,128.9 L 471.0,128.5 L 471.3,128.1 L 471.5,127.7 L 471.7,127.3 L 472.0,126.8 L 472.2,126.3 L 472.4,125.8 L 472.6,125.3 L 472.8,124.8 L 473.0,124.4 L 473.1,124.0 L 473.2,123.7 L 473.2,123.4 L 473.3,123.1 L 473.3,122.9 L 473.3,122.7 L 473.3,122.4 L 473.3,121.9 L 473.3,121.3 L 473.3,119.7 L 473.3,119.3 L 473.4,118.9 L 473.4,118.4 L 473.4,118.0 L 473.5,117.7 L 473.5,117.3 L 473.6,116.8 L 473.6,116.4 L 473.7,116.0 L 473.8,115.6 L 473.9,115.2 L 474.1,114.8 L 474.2,114.3 L 474.3,113.9 L 474.5,113.5 L 474.6,113.2 L 474.8,112.8 L 474.9,112.5 L 475.0,112.2 L 475.2,111.9 L 475.4,111.6 L 475.6,111.3 L 475.8,111.0 L 476.0,110.7 L 476.2,110.5 L 476.4,110.3 L 476.7,110.0 L 477.0,109.8 L 477.2,109.6 L 477.4,109.4 L 477.7,109.1 L 477.9,108.9 L 478.2,108.7 L 478.6,108.4 L 482.8,105.1 L 485.3,103.2 L 486.5,102.4 L 486.5,102.4 L 487.6,101.5 L 488.4,101.0 L 489.1,100.6 L 489.7,100.3 L 490.1,100.0 L 490.6,99.8 L 491.3,99.4 L 492.7,98.7 L 493.9,98.1 L 495.2,97.6 L 496.3,97.1 L 498.0,96.4 L 513.7,90.5 L 514.4,90.3 L 515.2,90.1 L 515.9,90.0 L 516.6,90.0 L 517.3,90.1 L 518.0,90.2 L 518.7,90.4 L 519.6,90.8 L 520.8,91.5 L 522.8,92.6 L 524.8,93.7 L 526.4,94.7 L 528.1,95.7 L 529.7,96.7 L 531.2,97.7 L 532.8,98.7 L 534.5,99.9 L 535.7,100.7 L 535.8,100.8 L 536.8,101.5 L 538.7,102.9 L 649.5,379.7 L 649.4,379.9 L 649.3,380.1 L 649.2,380.3 L 649.1,380.4 L 647.7,382.0 L 647.7,382.1 L 647.6,382.1 L 647.6,382.2 L 647.5,382.3 L 647.5,382.4 L 647.4,382.5 L 647.3,382.6 L 647.3,382.7 L 647.2,382.8 L 647.2,382.9 L 647.1,383.0 L 647.1,383.1 L 647.0,383.2 L 647.0,383.3 L 646.9,383.4 L 646.9,383.6 L 646.9,383.7 L 646.8,383.8 L 646.8,384.0 L 646.8,384.1 L 646.7,384.2 L 646.7,384.4 L 646.7,384.5 L 646.7,384.6 L 646.7,384.8 L 646.6,384.9 L 646.6,385.0 L 646.6,385.1 L 646.6,385.3 L 646.6,385.4 L 646.6,385.6 L 646.6,385.7 L 646.6,385.8 L 646.6,385.9 L 646.6,386.1 L 646.6,386.2 L 646.6,386.4 L 646.6,386.5 L 646.6,386.7 L 646.6,386.8 L 646.7,387.0 L 646.7,387.2 L 646.7,387.4 L 646.8,387.6 L 646.8,387.8 L 646.8,387.9 L 646.9,388.1 L 646.9,388.3 L 647.0,388.4 L 647.0,388.6 L 647.1,388.7 L 647.1,388.9 L 647.2,389.0 L 647.3,389.2 L 647.3,389.3 L 647.4,389.4 L 647.4,389.5 L 647.5,389.6 L 647.6,389.7 L 647.7,389.9 L 647.8,390.0 L 647.9,390.1 L 648.0,390.3 L 648.1,390.4 L 648.3,390.6 L 648.6,390.9 L 648.8,391.1 L 648.9,391.2 L 650.5,392.6 L 654.1,395.7 L 655.2,396.7 L 655.5,397.0 L 655.9,397.3 L 656.3,397.7 L 656.8,398.2 L 657.1,398.6 L 657.5,399.0 L 657.8,399.4 L 658.0,399.8 L 658.3,400.2 L 658.6,400.6 L 658.8,401.1 L 659.2,401.9 L 659.5,402.5 L 659.8,403.4 L 660.4,404.8 L 741.1,655.3 L 741.2,655.5 L 741.3,655.7 L 741.4,655.9 L 741.5,656.1 L 741.7,656.3 L 741.7,656.4 L 741.8,656.4 L 741.9,656.5 L 742.0,656.6 L 742.1,656.7 L 742.3,656.8 L 742.4,657.0 L 742.7,657.2 L 742.9,657.4 L 743.3,657.7 L 743.6,657.9 L 744.0,658.1 L 744.3,658.3 L 744.6,658.5 L 744.9,658.7 L 745.2,658.8 L 745.6,658.9 L 746.3,659.2 L 747.9,659.7 L 748.2,659.8 L 748.6,659.9 L 748.9,660.0 L 749.2,660.2 L 749.5,660.3 L 749.8,660.5 L 750.0,660.6 L 750.2,660.8 L 750.5,661.0 L 750.7,661.2 L 751.0,661.5 L 751.2,661.8 L 751.5,662.0 L 751.7,662.3 L 751.9,662.6 L 752.0,662.8 L 752.2,663.1 L 752.3,663.4 L 752.4,663.6 L 752.5,664.0 L 752.6,664.3 L 752.7,664.7 L 752.8,665.0 L 752.8,665.4 L 752.9,665.8 L 752.9,666.1 L 752.9,666.4 L 752.8,666.7 L 752.8,666.9 L 752.8,667.3 L 752.7,667.7 L 752.6,668.0 L 752.6,668.4 L 751.0,673.9 L 750.7,674.9 L 750.5,675.8 L 750.4,676.2 L 750.3,676.5 L 750.3,676.8 L 750.2,677.2 L 750.2,677.5 L 750.1,677.9 L 750.1,678.2 L 750.1,678.6 L 750.1,679.0 L 750.0,679.4 L 750.0,679.8 L 750.0,680.2 L 750.0,680.6 L 750.0,681.1 L 750.0,681.7 L 750.0,682.1 L 750.1,682.5 L 750.1,682.8 L 750.2,683.2 L 750.3,683.5 L 750.4,683.9 L 750.8,685.5 L 771.0,883.5 L 771.0,884.9 L 770.9,886.1 L 770.8,887.4 L 770.8,888.2 L 770.7,889.1 L 770.6,889.8 L 770.5,890.5 L 770.4,891.1 L 770.2,891.8 L 769.9,892.7 L 769.6,894.0 L 765.9,907.6 L 765.6,908.5 L 765.3,908.9 L 765.1,909.2 L 764.7,909.4 L 764.3,909.6 L 763.9,909.8 L 763.5,909.9 L 763.1,910.0 L 762.7,910.0 L 762.2,909.9 L 761.7,909.8 L 756.3,908.3 L 452.8,774.0 L 452.5,774.1 L 452.2,774.2 L 451.9,774.2 L 451.7,774.2 L 451.4,774.2 L 451.2,774.2 L 451.0,774.1 L 450.8,774.1 L 450.6,774.0 L 450.5,774.0 L 450.3,773.9 L 450.2,773.8 L 450.0,773.7 L 449.9,773.6 L 449.7,773.4 L 449.6,773.2 L 449.5,773.1 L 449.4,772.9 L 449.3,772.7 L 449.1,772.1 L 376.4,590.9 L 376.0,589.3 L 375.7,588.0 L 375.6,586.5 L 375.5,585.1 L 375.5,583.4 L 375.6,581.8 L 375.7,580.5 L 376.0,579.2 L 376.3,578.0 L 376.7,576.9 L 377.2,575.7 L 377.7,574.6 L 378.2,573.6 L 378.9,572.4 L 379.5,571.5 L 380.2,570.4 L 380.8,569.8 L 381.5,569.0 L 382.2,568.2 L 391.8,557.8 L 392.5,557.0 L 393.1,556.2 L 393.7,555.4 L 394.0,554.9 L 394.4,554.3 L 394.6,553.9 L 395.0,553.0 L 395.4,552.3 L 395.7,551.4 L 396.1,550.4 L 396.4,549.4 L 396.6,548.4 L 396.8,547.5 L 397.0,546.6 L 397.1,545.7 L 397.1,544.8 L 397.1,542.6 L 396.9,539.9 L 396.3,533.0 L 395.8,528.4 L 395.5,526.4 L 395.2,524.7 L 394.8,523.3 L 394.3,521.5 L 393.9,520.7 L 393.5,519.9 L 393.1,519.2 L 392.7,518.8 L 392.4,518.3 L 392.0,517.9 L 391.6,517.4 L 390.9,516.5 L 389.6,515.3 L 388.6,514.3 L 384.5,510.9 L 384.2,474.7 L 388.1,471.4 L 388.9,470.6 L 389.6,469.9 L 390.1,469.4 L 390.5,468.8 L 390.9,468.1 L 391.4,467.4 L 391.7,466.7 L 392.1,466.0 L 392.5,465.1 L 392.7,464.3 L 393.0,463.4 L 393.2,462.7 L 393.3,462.1 L 393.4,461.6 L 393.5,461.0 L 393.5,460.4 L 393.5,459.8 L 393.5,459.0 L 393.5,458.0 L 393.4,456.9 L 393.2,455.7 L 393.1,454.5 L 392.4,450.0 L 391.3,441.8 L 375.6,351.6 L 373.9,345.5 L 373.8,345.0 L 373.7,344.6 L 373.5,344.3 L 373.4,343.9 L 373.3,343.7 L 373.2,343.5 L 373.1,343.4 L 373.0,343.2 L 372.9,343.0 L 372.8,342.8 L 372.6,342.6 L 372.6,342.5 L 372.4,342.4 L 372.3,342.2 L 372.2,342.1 L 372.0,342.0 L 371.9,341.8 L 371.8,341.7 L 371.7,341.7 L 371.6,341.6 L 371.5,341.5 L 371.4,341.4 L 371.3,341.4 L 371.1,341.3 L 370.9,341.2 L 370.7,341.1 L 370.5,341.0 L 369.1,340.4 L 368.9,340.3 L 368.7,340.3 L 368.6,340.2 L 368.4,340.1 L 368.2,340.0 L 368.1,339.9 L 368.0,339.8 L 367.8,339.7 L 367.7,339.6 L 367.6,339.5 L 367.4,339.3 L 367.3,339.2 L 367.2,339.1 L 367.0,338.9 L 366.9,338.7 L 366.8,338.6 L 366.6,338.3 L 366.5,338.1 L 366.4,337.9 L 366.2,337.6 L 366.1,337.4 L 366.0,337.2 L 366.0,337.0 L 365.9,336.8 L 365.8,336.6 L 365.8,336.4 L 365.7,336.1 L 365.6,335.7 L 365.5,335.4 L 361.4,322.3 L 361.9,322.4 L 366.4,323.4 L 367.6,323.6 L 367.8,323.7 L 368.0,323.7 L 368.1,323.8 L 368.2,323.8 L 368.3,323.8 L 368.4,323.7 L 368.6,323.7 L 368.8,323.7 L 368.9,323.6 L 369.1,323.5 L 369.2,323.5 L 369.4,323.4 L 369.5,323.3 L 369.6,323.2 L 369.7,323.0 L 369.8,322.9 L 369.9,322.7 L 370.0,322.6 L 370.1,322.4 L 370.1,322.2 L 370.2,322.0 Z" fill="none" stroke="#e7edf8" stroke-width="2.6" stroke-linejoin="round" stroke-linecap="round"/>
<path d="M 397.2,181.9 L 397.4,181.8 L 397.6,181.7 L 397.7,181.6 L 397.8,181.5 L 397.9,181.4 L 398.1,181.3 L 398.2,181.2 L 398.3,181.1 L 398.3,181.0 L 398.4,180.8 L 398.5,180.7 L 398.5,180.6 L 398.6,180.5 L 398.6,180.4 L 398.7,180.3 L 398.7,180.2 L 398.7,180.0 L 398.8,179.9 L 398.8,179.8 L 398.8,179.7 L 398.8,179.6 L 398.8,179.5 L 398.8,179.4 L 398.8,179.2 L 398.8,179.1 L 398.8,178.9 L 398.8,178.8 L 398.8,178.7 L 398.8,178.6 L 398.7,178.4 L 398.6,178.1 L 397.6,173.4 L 397.5,173.2 L 397.5,173.1 L 397.5,173.0 L 397.5,172.8 L 397.5,172.7 L 397.4,172.5 L 397.4,172.4 L 397.4,172.3 L 397.5,172.1 L 397.5,172.0 L 397.5,171.9 L 397.5,171.7 L 397.5,171.6 L 397.5,171.5 L 397.6,171.4 L 397.6,171.3 L 397.6,171.2 L 397.7,171.1 L 397.7,171.0 L 397.8,170.8 L 397.9,170.7 L 397.9,170.6 L 398.0,170.5 L 398.1,170.4 L 398.2,170.3 L 398.2,170.1 L 398.3,170.0 L 398.4,169.9 L 398.5,169.8 L 398.6,169.8 L 398.7,169.7 L 398.7,169.6 L 398.8,169.5 L 398.9,169.5 L 399.0,169.4 L 399.2,169.3 L 455.5,133.5 L 458.8,133.4 L 460.4,133.3 L 462.2,133.2 L 463.3,133.1 L 463.9,133.0 L 464.4,133.0 L 464.9,132.8 L 465.4,132.7 L 465.8,132.6 L 466.1,132.5 L 466.4,132.4 L 466.8,132.2 L 467.2,132.0 L 467.6,131.7 L 468.1,131.4 L 468.5,131.1 L 468.9,130.8 L 469.3,130.4 L 469.8,130.0 L 470.1,129.6 L 470.4,129.3 L 470.7,128.9 L 471.0,128.5 L 471.3,128.1 L 471.5,127.7 L 471.7,127.3 L 472.0,126.8 L 472.2,126.3 L 472.4,125.8 L 472.6,125.3 L 472.8,124.8 L 473.0,124.4 L 473.1,124.0 L 473.2,123.7 L 473.2,123.4 L 473.3,123.1 L 473.3,122.9 L 473.3,122.7 L 473.3,122.4 L 473.3,121.9 L 473.3,121.3 L 473.3,119.7 L 473.3,119.3 L 473.4,118.9 L 473.4,118.4 L 473.4,118.0 L 473.5,117.7 L 473.5,117.3 L 473.6,116.8 L 473.6,116.4 L 473.7,116.0 L 473.8,115.6 L 473.9,115.2 L 474.1,114.8 L 474.2,114.3 L 474.3,113.9 L 474.5,113.5 L 474.6,113.2 L 474.8,112.8 L 474.9,112.5 L 475.0,112.2 L 475.2,111.9 L 475.4,111.6 L 475.6,111.3 L 475.8,111.0 L 476.0,110.7 L 476.2,110.5 L 476.4,110.3 L 476.7,110.0 L 477.0,109.8 L 477.2,109.6 L 477.4,109.4 L 477.7,109.1 L 477.9,108.9 L 478.2,108.7 L 478.6,108.4 L 482.8,105.1 L 485.3,103.2 L 486.5,102.4 L 486.5,102.4 L 487.6,101.5 L 488.4,101.0 L 489.1,100.6 L 489.7,100.3 L 490.1,100.0 L 490.6,99.8 L 491.3,99.4 L 492.7,98.7 L 493.9,98.1 L 495.2,97.6 L 496.3,97.1 L 498.0,96.4 L 513.7,90.5 L 514.4,90.3 L 515.2,90.1 L 515.9,90.0 L 516.6,90.0 L 517.3,90.1 L 518.0,90.2 L 518.7,90.4 L 519.6,90.8 L 520.8,91.5 L 522.8,92.6 L 524.8,93.7 L 526.4,94.7 L 528.1,95.7 L 529.7,96.7 L 531.2,97.7 L 532.8,98.7 L 534.5,99.9 L 535.7,100.7 L 535.8,100.8 L 536.8,101.5 L 538.7,102.9 L 649.5,379.7 L 649.4,379.9 L 649.3,380.1 L 649.2,380.3 L 649.1,380.4 L 647.7,382.0 L 647.7,382.1 L 647.6,382.1 L 647.6,382.2 L 647.5,382.3 L 647.5,382.4 L 647.4,382.5 L 647.3,382.6 L 647.3,382.7 L 647.2,382.8 L 647.2,382.9 L 647.1,383.0 L 647.1,383.1 L 647.0,383.2 L 647.0,383.3 L 646.9,383.4 L 646.9,383.6 L 646.9,383.7 L 646.8,383.8 L 646.8,384.0 L 646.8,384.1 L 646.7,384.2 L 646.7,384.4 L 646.7,384.5 L 646.7,384.6 L 646.7,384.8 L 646.6,384.9 L 646.6,385.0 L 646.6,385.1 L 646.6,385.3 L 646.6,385.4 L 646.6,385.6 L 646.6,385.7 L 646.6,385.8 L 646.6,385.9 L 646.6,386.1 L 646.6,386.2 L 646.6,386.4 L 646.6,386.5 L 646.6,386.7 L 646.6,386.8 L 646.7,387.0 L 646.7,387.2 L 646.7,387.4 L 646.8,387.6 L 646.8,387.8 L 646.8,387.9 L 646.9,388.1 L 646.9,388.3 L 647.0,388.4 L 647.0,388.6 L 647.1,388.7 L 647.1,388.9 L 647.2,389.0 L 647.3,389.2 L 647.3,389.3 L 647.4,389.4 L 647.4,389.5 L 647.5,389.6 L 647.6,389.7 L 647.7,389.9 L 647.8,390.0 L 647.9,390.1 L 648.0,390.3 L 648.1,390.4 L 648.3,390.6 L 648.6,390.9 L 648.8,391.1 L 648.9,391.2 L 650.5,392.6 L 654.1,395.7 L 655.2,396.7 L 655.5,397.0 L 655.9,397.3 L 656.3,397.7 L 656.8,398.2 L 657.1,398.6 L 657.5,399.0 L 657.8,399.4 L 658.0,399.8 L 658.3,400.2 L 658.6,400.6 L 658.8,401.1 L 659.2,401.9 L 659.5,402.5 L 659.8,403.4 L 660.4,404.8 L 741.1,655.3 L 741.2,655.5 L 741.3,655.7 L 741.4,655.9 L 741.5,656.1 L 741.7,656.3 L 741.7,656.4 L 741.8,656.4 L 741.9,656.5 L 742.0,656.6 L 742.1,656.7 L 742.3,656.8 L 742.4,657.0 L 742.7,657.2 L 742.9,657.4 L 743.3,657.7 L 743.6,657.9 L 744.0,658.1 L 744.3,658.3 L 744.6,658.5 L 744.9,658.7 L 745.2,658.8 L 745.6,658.9 L 746.3,659.2 L 747.9,659.7 L 748.2,659.8 L 748.6,659.9 L 748.9,660.0 L 749.2,660.2 L 749.5,660.3 L 749.8,660.5 L 750.0,660.6 L 750.2,660.8 L 750.5,661.0 L 750.7,661.2 L 751.0,661.5 L 751.2,661.8 L 751.5,662.0 L 751.7,662.3 L 751.9,662.6 L 752.0,662.8 L 752.2,663.1 L 752.3,663.4 L 752.4,663.6 L 752.5,664.0 L 752.6,664.3 L 752.7,664.7 L 752.8,665.0 L 752.8,665.4 L 752.9,665.8 L 752.9,666.1 L 752.9,666.4 L 752.8,666.7 L 752.8,666.9 L 752.8,667.3 L 752.7,667.7 L 752.6,668.0 L 752.6,668.4 L 751.0,673.9 L 750.7,674.9 L 750.5,675.8 L 750.4,676.2 L 750.3,676.5 L 750.3,676.8 L 750.2,677.2 L 750.2,677.5 L 750.1,677.9 L 750.1,678.2 L 750.1,678.6 L 750.1,679.0 L 750.0,679.4 L 750.0,679.8 L 750.0,680.2 L 750.0,680.6 L 750.0,681.1 L 750.0,681.7 L 750.0,682.1 L 750.1,682.5 L 750.1,682.8 L 750.2,683.2 L 750.3,683.5 L 750.4,683.9 L 750.8,685.5 L 771.0,883.5 L 771.0,884.9 L 770.9,886.1 L 770.8,887.4 L 770.8,888.2 L 770.7,889.1 L 770.6,889.8 L 770.5,890.5 L 770.4,891.1 L 770.2,891.8 L 769.9,892.7 L 769.6,894.0 L 765.9,907.6 L 765.6,908.5 L 765.3,908.9 L 765.1,909.2 L 764.7,909.4 L 764.3,909.6 L 763.9,909.8 L 763.5,909.9 L 763.1,910.0 L 762.7,910.0 L 762.2,909.9 L 761.7,909.8 L 756.3,908.3 L 452.8,774.0 L 452.5,774.1 L 452.2,774.2 L 451.9,774.2 L 451.7,774.2 L 451.4,774.2 L 451.2,774.2 L 451.0,774.1 L 450.8,774.1 L 450.6,774.0 L 450.5,774.0 L 450.3,773.9 L 450.2,773.8 L 450.0,773.7 L 449.9,773.6 L 449.7,773.4 L 449.6,773.2 L 449.5,773.1 L 449.4,772.9 L 449.3,772.7 L 449.1,772.1 L 376.4,590.9 L 376.0,589.3 L 375.7,588.0 L 375.6,586.5 L 375.5,585.1 L 375.5,583.4 L 375.6,581.8 L 375.7,580.5 L 376.0,579.2 L 376.3,578.0 L 376.7,576.9 L 377.2,575.7 L 377.7,574.6 L 378.2,573.6 L 378.9,572.4 L 379.5,571.5 L 380.2,570.4 L 380.8,569.8 L 381.5,569.0 L 382.2,568.2 L 391.8,557.8 L 392.5,557.0 L 393.1,556.2 L 393.7,555.4 L 394.0,554.9 L 394.4,554.3 L 394.6,553.9 L 395.0,553.0 L 395.4,552.3 L 395.7,551.4 L 396.1,550.4 L 396.4,549.4 L 396.6,548.4 L 396.8,547.5 L 397.0,546.6 L 397.1,545.7 L 397.1,544.8 L 397.1,542.6 L 396.9,539.9 L 396.3,533.0 L 395.8,528.4 L 395.5,526.4 L 395.2,524.7 L 394.8,523.3 L 394.3,521.5 L 393.9,520.7 L 393.5,519.9 L 393.1,519.2 L 392.7,518.8 L 392.4,518.3 L 392.0,517.9 L 391.6,517.4 L 390.9,516.5 L 389.6,515.3 L 388.6,514.3 L 384.5,510.9 L 384.2,474.7 L 388.1,471.4 L 388.9,470.6 L 389.6,469.9 L 390.1,469.4 L 390.5,468.8 L 390.9,468.1 L 391.4,467.4 L 391.7,466.7 L 392.1,466.0 L 392.5,465.1 L 392.7,464.3 L 393.0,463.4 L 393.2,462.7 L 393.3,462.1 L 393.4,461.6 L 393.5,461.0 L 393.5,460.4 L 393.5,459.8 L 393.5,459.0 L 393.5,458.0 L 393.4,456.9 L 393.2,455.7 L 393.1,454.5 L 392.4,450.0 L 391.3,441.8 L 375.6,351.6 L 373.9,345.5 L 373.8,345.0 L 373.7,344.6 L 373.5,344.3 L 373.4,343.9 L 373.3,343.7 L 373.2,343.5 L 373.1,343.4 L 373.0,343.2 L 372.9,343.0 L 372.8,342.8 L 372.6,342.6 L 372.6,342.5 L 372.4,342.4 L 372.3,342.2 L 372.2,342.1 L 372.0,342.0 L 371.9,341.8 L 371.8,341.7 L 371.7,341.7 L 371.6,341.6 L 371.5,341.5 L 371.4,341.4 L 371.3,341.4 L 371.1,341.3 L 370.9,341.2 L 370.7,341.1 L 370.5,341.0 L 369.1,340.4 L 368.9,340.3 L 368.7,340.3 L 368.6,340.2 L 368.4,340.1 L 368.2,340.0 L 368.1,339.9 L 368.0,339.8 L 367.8,339.7 L 367.7,339.6 L 367.6,339.5 L 367.4,339.3 L 367.3,339.2 L 367.2,339.1 L 367.0,338.9 L 366.9,338.7 L 366.8,338.6 L 366.6,338.3 L 366.5,338.1 L 366.4,337.9 L 366.2,337.6 L 366.1,337.4 L 366.0,337.2 L 366.0,337.0 L 365.9,336.8 L 365.8,336.6 L 365.8,336.4 L 365.7,336.1 L 365.6,335.7 L 365.5,335.4 L 361.4,322.3 L 361.9,322.4 L 366.4,323.4 L 367.6,323.6 L 367.8,323.7 L 368.0,323.7 L 368.1,323.8 L 368.2,323.8 L 368.3,323.8 L 368.4,323.7 L 368.6,323.7 L 368.8,323.7 L 368.9,323.6 L 369.1,323.5 L 369.2,323.5 L 369.4,323.4 L 369.5,323.3 L 369.6,323.2 L 369.7,323.0 L 369.8,322.9 L 369.9,322.7 L 370.0,322.6 L 370.1,322.4 L 370.1,322.2 L 370.2,322.0 Z" fill="none" stroke="#e6007e" stroke-opacity="0.55" stroke-width="1.2" stroke-linejoin="round" filter="url(#glow)"/>
<circle cx="398.2" cy="175.3" r="13" fill="none" stroke="#ffffff" stroke-width="3"/>
<rect x="394.2" y="153.3" width="8" height="18" fill="#ffffff"/>
<circle cx="398.2" cy="175.3" r="7" fill="#e6007e" stroke="#0a0c12" stroke-width="2.5" filter="url(#glow)"/>
<text x="398.2" y="178.7" font-size="9" font-weight="700" fill="#0a0c12" text-anchor="middle">1</text>
<circle cx="398.2" cy="175.3" r="7" fill="#e6007e" stroke="#0a0c12" stroke-width="2.5" filter="url(#glow)"/>
<text x="398.2" y="178.7" font-size="9" font-weight="700" fill="#0a0c12" text-anchor="middle">2</text>
<circle cx="472.2" cy="121.0" r="7" fill="#e6007e" stroke="#0a0c12" stroke-width="2.5" filter="url(#glow)"/>
<text x="472.2" y="124.4" font-size="9" font-weight="700" fill="#0a0c12" text-anchor="middle">4</text>
<circle cx="512.5" cy="96.4" r="7" fill="#e6007e" stroke="#0a0c12" stroke-width="2.5" filter="url(#glow)"/>
<text x="512.5" y="99.8" font-size="9" font-weight="700" fill="#0a0c12" text-anchor="middle">6</text>
<circle cx="649.2" cy="388.4" r="7" fill="#e6007e" stroke="#0a0c12" stroke-width="2.5" filter="url(#glow)"/>
<text x="649.2" y="391.8" font-size="9" font-weight="700" fill="#0a0c12" text-anchor="middle">7</text>
<circle cx="748.6" cy="666.4" r="7" fill="#e6007e" stroke="#0a0c12" stroke-width="2.5" filter="url(#glow)"/>
<text x="748.6" y="669.8" font-size="9" font-weight="700" fill="#0a0c12" text-anchor="middle">8</text>
<circle cx="766.8" cy="899.6" r="7" fill="#e6007e" stroke="#0a0c12" stroke-width="2.5" filter="url(#glow)"/>
<text x="766.8" y="903.0" font-size="9" font-weight="700" fill="#0a0c12" text-anchor="middle">9</text>
<circle cx="450.6" cy="773.7" r="7" fill="#e6007e" stroke="#0a0c12" stroke-width="2.5" filter="url(#glow)"/>
<text x="450.6" y="777.1" font-size="9" font-weight="700" fill="#0a0c12" text-anchor="middle">12</text>
<circle cx="377.6" cy="578.2" r="7" fill="#e6007e" stroke="#0a0c12" stroke-width="2.5" filter="url(#glow)"/>
<text x="377.6" y="581.6" font-size="9" font-weight="700" fill="#0a0c12" text-anchor="middle">14</text>
<circle cx="394.1" cy="536.3" r="7" fill="#e6007e" stroke="#0a0c12" stroke-width="2.5" filter="url(#glow)"/>
<text x="394.1" y="539.7" font-size="9" font-weight="700" fill="#0a0c12" text-anchor="middle">15</text>
<circle cx="378.5" cy="492.4" r="7" fill="#e6007e" stroke="#0a0c12" stroke-width="2.5" filter="url(#glow)"/>
<text x="378.5" y="495.8" font-size="9" font-weight="700" fill="#0a0c12" text-anchor="middle">16</text>
<circle cx="391.8" cy="462.7" r="7" fill="#e6007e" stroke="#0a0c12" stroke-width="2.5" filter="url(#glow)"/>
<text x="391.8" y="466.1" font-size="9" font-weight="700" fill="#0a0c12" text-anchor="middle">17</text>
<circle cx="369.7" cy="340.7" r="7" fill="#e6007e" stroke="#0a0c12" stroke-width="2.5" filter="url(#glow)"/>
<text x="369.7" y="344.1" font-size="9" font-weight="700" fill="#0a0c12" text-anchor="middle">18</text>
<circle cx="359.0" cy="321.1" r="7" fill="#e6007e" stroke="#0a0c12" stroke-width="2.5" filter="url(#glow)"/>
<text x="359.0" y="324.5" font-size="9" font-weight="700" fill="#0a0c12" text-anchor="middle">20</text>
<line x1="398.2" y1="175.3" x2="373.3" y2="222.0" stroke="#e6007e" stroke-opacity="0.45" stroke-width="1.3"/>
<text x="365.3" y="226.0" font-size="15" font-weight="600" fill="#eef2fb" text-anchor="end">Dunlop Curve</text>
<line x1="398.2" y1="175.3" x2="373.3" y2="252.0" stroke="#e6007e" stroke-opacity="0.45" stroke-width="1.3"/>
<text x="365.3" y="256.0" font-size="15" font-weight="600" fill="#eef2fb" text-anchor="end">Dunlop</text>
<line x1="472.2" y1="121.0" x2="463.6" y2="192.0" stroke="#e6007e" stroke-opacity="0.45" stroke-width="1.3"/>
<text x="455.6" y="196.0" font-size="15" font-weight="600" fill="#eef2fb" text-anchor="end">Esses de la Forêt</text>
<line x1="512.5" y1="96.4" x2="511.4" y2="162.0" stroke="#e6007e" stroke-opacity="0.45" stroke-width="1.3"/>
<text x="503.4" y="166.0" font-size="15" font-weight="600" fill="#eef2fb" text-anchor="end">Tertre Rouge</text>
<line x1="748.6" y1="666.4" x2="782.4" y2="706.0" stroke="#e6007e" stroke-opacity="0.45" stroke-width="1.3"/>
<text x="790.4" y="710.0" font-size="15" font-weight="600" fill="#eef2fb" text-anchor="start">Mulsanne Straight Chicanes</text>
<line x1="766.8" y1="899.6" x2="789.8" y2="946.2" stroke="#e6007e" stroke-opacity="0.45" stroke-width="1.3"/>
<text x="797.8" y="950.2" font-size="15" font-weight="600" fill="#eef2fb" text-anchor="start">Mulsanne</text>
<line x1="450.6" y1="773.7" x2="441.4" y2="824.9" stroke="#e6007e" stroke-opacity="0.45" stroke-width="1.3"/>
<text x="433.4" y="828.9" font-size="15" font-weight="600" fill="#eef2fb" text-anchor="end">Indianapolis / Arnage</text>
<line x1="378.5" y1="492.4" x2="335.6" y2="521.8" stroke="#e6007e" stroke-opacity="0.45" stroke-width="1.3"/>
<text x="327.6" y="525.8" font-size="15" font-weight="600" fill="#eef2fb" text-anchor="end">Porsche Curves</text>
<line x1="359.0" y1="321.1" x2="312.0" y2="298.8" stroke="#e6007e" stroke-opacity="0.45" stroke-width="1.3"/>
<text x="304.0" y="302.8" font-size="15" font-weight="600" fill="#eef2fb" text-anchor="end">Ford Chicanes</text>
<text x="90" y="64" font-size="20" letter-spacing="5" fill="#e6007e" font-weight="700">TRACK ATLAS</text>
<text x="90" y="108" font-size="42" font-weight="800" fill="#ffffff">CIRCUIT DE LA SARTHE</text>
<text x="90" y="136" font-size="16" fill="#9aa6bd">La Sarthe, Circuit des 24 Heures du Mans</text>
<rect x="1170" y="200" width="360" height="710" rx="16" fill="#ffffff" fill-opacity="0.04" stroke="#e6007e" stroke-opacity="0.5"/>
<text x="1198" y="250" font-size="13" letter-spacing="2" fill="#8794ab">LAYOUT</text>
<text x="1198" y="276" font-size="22" font-weight="700" fill="#eef2fb">Circuit des 24 Heures</text>
<text x="1198" y="320" font-size="13" letter-spacing="2" fill="#8794ab">LENGTH</text>
<text x="1198" y="346" font-size="22" font-weight="700" fill="#eef2fb">13.626 km</text>
<text x="1198" y="390" font-size="13" letter-spacing="2" fill="#8794ab">CORNERS</text>
<text x="1198" y="416" font-size="22" font-weight="700" fill="#eef2fb">21</text>
<text x="1198" y="460" font-size="13" letter-spacing="2" fill="#8794ab">NAMED CORNERS</text>
<text x="1198" y="486" font-size="22" font-weight="700" fill="#eef2fb">15</text>
<text x="1198" y="530" font-size="13" letter-spacing="2" fill="#8794ab">DIRECTION</text>
<text x="1198" y="556" font-size="22" font-weight="700" fill="#eef2fb">Clockwise</text>
<text x="1198" y="600" font-size="13" letter-spacing="2" fill="#8794ab">SECTORS</text>
<text x="1198" y="626" font-size="22" font-weight="700" fill="#eef2fb">3</text>
<text x="1198" y="670" font-size="13" letter-spacing="2" fill="#8794ab">COUNTRY</text>
<text x="1198" y="696" font-size="22" font-weight="700" fill="#eef2fb">France</text>
<text x="1198" y="740" font-size="13" letter-spacing="2" fill="#8794ab">LOCATION</text>
<text x="1198" y="766" font-size="22" font-weight="700" fill="#eef2fb">Le Mans</text>
<text x="1198" y="810" font-size="13" letter-spacing="2" fill="#8794ab">COMPLEXES</text>
<rect x="1198" y="816" width="62" height="24" rx="12" fill="#e6007e" fill-opacity="0.16" stroke="#e6007e" stroke-opacity="0.5"/>
<text x="1229" y="833" font-size="12" fill="#eef2fb" text-anchor="middle">Dunlop</text>
<rect x="1270" y="816" width="222" height="24" rx="12" fill="#e6007e" fill-opacity="0.16" stroke="#e6007e" stroke-opacity="0.5"/>
<text x="1381" y="833" font-size="12" fill="#eef2fb" text-anchor="middle">Mulsanne Straight Chicanes</text>
<rect x="1198" y="850" width="182" height="24" rx="12" fill="#e6007e" fill-opacity="0.16" stroke="#e6007e" stroke-opacity="0.5"/>
<text x="1289" y="867" font-size="12" fill="#eef2fb" text-anchor="middle">Indianapolis / Arnage</text>
<rect x="1390" y="850" width="126" height="24" rx="12" fill="#e6007e" fill-opacity="0.16" stroke="#e6007e" stroke-opacity="0.5"/>
<text x="1453" y="867" font-size="12" fill="#eef2fb" text-anchor="middle">Porsche Curves</text>
<rect x="1198" y="884" width="118" height="24" rx="12" fill="#e6007e" fill-opacity="0.16" stroke="#e6007e" stroke-opacity="0.5"/>
<text x="1257" y="901" font-size="12" fill="#eef2fb" text-anchor="middle">Ford Chicanes</text>
<text x="90" y="966" font-size="12" fill="#566177">Geometry © OpenStreetMap contributors (ODbL) · corner data: Lovely-Sim-Racing + curated · track-atlas</text>
<text x="90" y="942" font-size="12" fill="#8794ab">⚑ start / finish</text>
</svg>