<svg xmlns="http://www.w3.org/2000/svg" width="1600" height="1000" viewBox="0 0 1600 1000" font-family="Helvetica, Arial, sans-serif">
<defs>
      <radialGradient id="bg" cx="38%" cy="34%" r="85%">
        <stop offset="0%" stop-color="#1b2030"/>
        <stop offset="55%" stop-color="#12151f"/>
        <stop offset="100%" stop-color="#0a0c12"/>
      </radialGradient>
      <linearGradient id="accent" x1="0" y1="0" x2="1" y2="1">
        <stop offset="0%" stop-color="#e6007e"/>
        <stop offset="100%" stop-color="#ffffff"/>
      </linearGradient>
      <filter id="glow" x="-40%" y="-40%" width="180%" height="180%">
        <feGaussianBlur stdDeviation="6" result="b"/>
        <feMerge><feMergeNode in="b"/><feMergeNode in="SourceGraphic"/></feMerge>
      </filter>
    </defs>
<rect width="1600" height="1000" fill="url(#bg)"/>
<line x1="0" y1="0" x2="0" y2="1000" stroke="#ffffff" stroke-opacity="0.025"/>
<line x1="56" y1="0" x2="56" y2="1000" stroke="#ffffff" stroke-opacity="0.025"/>
<line x1="112" y1="0" x2="112" y2="1000" stroke="#ffffff" stroke-opacity="0.025"/>
<line x1="168" y1="0" x2="168" y2="1000" stroke="#ffffff" stroke-opacity="0.025"/>
<line x1="224" y1="0" x2="224" y2="1000" stroke="#ffffff" stroke-opacity="0.025"/>
<line x1="280" y1="0" x2="280" y2="1000" stroke="#ffffff" stroke-opacity="0.025"/>
<line x1="336" y1="0" x2="336" y2="1000" stroke="#ffffff" stroke-opacity="0.025"/>
<line x1="392" y1="0" x2="392" y2="1000" stroke="#ffffff" stroke-opacity="0.025"/>
<line x1="448" y1="0" x2="448" y2="1000" stroke="#ffffff" stroke-opacity="0.025"/>
<line x1="504" y1="0" x2="504" y2="1000" stroke="#ffffff" stroke-opacity="0.025"/>
<line x1="560" y1="0" x2="560" y2="1000" stroke="#ffffff" stroke-opacity="0.025"/>
<line x1="616" y1="0" x2="616" y2="1000" stroke="#ffffff" stroke-opacity="0.025"/>
<line x1="672" y1="0" x2="672" y2="1000" stroke="#ffffff" stroke-opacity="0.025"/>
<line x1="728" y1="0" x2="728" y2="1000" stroke="#ffffff" stroke-opacity="0.025"/>
<line x1="784" y1="0" x2="784" y2="1000" stroke="#ffffff" stroke-opacity="0.025"/>
<line x1="840" y1="0" x2="840" y2="1000" stroke="#ffffff" stroke-opacity="0.025"/>
<line x1="896" y1="0" x2="896" y2="1000" stroke="#ffffff" stroke-opacity="0.025"/>
<line x1="952" y1="0" x2="952" y2="1000" stroke="#ffffff" stroke-opacity="0.025"/>
<line x1="1008" y1="0" x2="1008" y2="1000" stroke="#ffffff" stroke-opacity="0.025"/>
<line x1="1064" y1="0" x2="1064" y2="1000" stroke="#ffffff" stroke-opacity="0.025"/>
<line x1="1120" y1="0" x2="1120" y2="1000" stroke="#ffffff" stroke-opacity="0.025"/>
<line x1="1176" y1="0" x2="1176" y2="1000" stroke="#ffffff" stroke-opacity="0.025"/>
<line x1="1232" y1="0" x2="1232" y2="1000" stroke="#ffffff" stroke-opacity="0.025"/>
<line x1="1288" y1="0" x2="1288" y2="1000" stroke="#ffffff" stroke-opacity="0.025"/>
<line x1="1344" y1="0" x2="1344" y2="1000" stroke="#ffffff" stroke-opacity="0.025"/>
<line x1="1400" y1="0" x2="1400" y2="1000" stroke="#ffffff" stroke-opacity="0.025"/>
<line x1="1456" y1="0" x2="1456" y2="1000" stroke="#ffffff" stroke-opacity="0.025"/>
<line x1="1512" y1="0" x2="1512" y2="1000" stroke="#ffffff" stroke-opacity="0.025"/>
<line x1="1568" y1="0" x2="1568" y2="1000" stroke="#ffffff" stroke-opacity="0.025"/>
<line x1="0" y1="0" x2="1600" y2="0" stroke="#ffffff" stroke-opacity="0.025"/>
<line x1="0" y1="56" x2="1600" y2="56" stroke="#ffffff" stroke-opacity="0.025"/>
<line x1="0" y1="112" x2="1600" y2="112" stroke="#ffffff" stroke-opacity="0.025"/>
<line x1="0" y1="168" x2="1600" y2="168" stroke="#ffffff" stroke-opacity="0.025"/>
<line x1="0" y1="224" x2="1600" y2="224" stroke="#ffffff" stroke-opacity="0.025"/>
<line x1="0" y1="280" x2="1600" y2="280" stroke="#ffffff" stroke-opacity="0.025"/>
<line x1="0" y1="336" x2="1600" y2="336" stroke="#ffffff" stroke-opacity="0.025"/>
<line x1="0" y1="392" x2="1600" y2="392" stroke="#ffffff" stroke-opacity="0.025"/>
<line x1="0" y1="448" x2="1600" y2="448" stroke="#ffffff" stroke-opacity="0.025"/>
<line x1="0" y1="504" x2="1600" y2="504" stroke="#ffffff" stroke-opacity="0.025"/>
<line x1="0" y1="560" x2="1600" y2="560" stroke="#ffffff" stroke-opacity="0.025"/>
<line x1="0" y1="616" x2="1600" y2="616" stroke="#ffffff" stroke-opacity="0.025"/>
<line x1="0" y1="672" x2="1600" y2="672" stroke="#ffffff" stroke-opacity="0.025"/>
<line x1="0" y1="728" x2="1600" y2="728" stroke="#ffffff" stroke-opacity="0.025"/>
<line x1="0" y1="784" x2="1600" y2="784" stroke="#ffffff" stroke-opacity="0.025"/>
<line x1="0" y1="840" x2="1600" y2="840" stroke="#ffffff" stroke-opacity="0.025"/>
<line x1="0" y1="896" x2="1600" y2="896" stroke="#ffffff" stroke-opacity="0.025"/>
<line x1="0" y1="952" x2="1600" y2="952" stroke="#ffffff" stroke-opacity="0.025"/>
<path d="M 391.7,441.8 L 392.8,450.0 L 393.5,454.5 L 393.6,455.7 L 393.8,456.9 L 393.9,458.0 L 393.9,459.0 L 393.9,459.8 L 393.9,460.4 L 393.9,461.0 L 393.8,461.6 L 393.7,462.1 L 393.6,462.7 L 393.4,463.4 L 393.1,464.3 L 392.9,465.1 L 392.5,466.0 L 392.1,466.7 L 391.8,467.4 L 391.3,468.1 L 390.9,468.8 L 390.5,469.4 L 390.0,469.9 L 389.3,470.6 L 388.5,471.4 L 384.6,474.7 L 383.7,475.5 L 383.1,476.0 L 382.7,476.4 L 382.2,476.9 L 381.8,477.4 L 381.4,477.8 L 381.1,478.2 L 380.7,478.7 L 380.3,479.1 L 380.0,479.6 L 379.6,480.2 L 379.2,480.8 L 378.8,481.5 L 378.4,482.1 L 378.1,482.7 L 377.8,483.4 L 377.5,484.0 L 377.2,484.8 L 377.0,485.5 L 376.7,486.1 L 376.6,486.7 L 376.4,487.5 L 376.3,488.2 L 376.2,488.8 L 376.1,489.5 L 376.0,490.2 L 375.9,490.8 L 375.9,491.5 L 375.9,492.1 L 375.9,492.8 L 375.9,493.6 L 376.0,494.3 L 376.0,495.0 L 376.1,495.8 L 376.2,496.6 L 376.4,497.5 L 376.5,498.3 L 376.7,498.9 L 376.9,499.7 L 377.1,500.3 L 377.3,500.9 L 377.6,501.4 L 377.8,502.0 L 378.1,502.6 L 378.4,503.2 L 378.8,503.8 L 379.2,504.4 L 379.5,505.0 L 379.9,505.5 L 380.3,506.2 L 380.7,506.7 L 381.1,507.2 L 381.5,507.7 L 382.0,508.2 L 382.5,508.8 L 383.2,509.4 L 384.1,510.1 L 384.9,510.9 L 389.0,514.3 L 390.0,515.3 L 391.3,516.5 L 392.0,517.4 L 392.4,517.9 L 392.8,518.3 L 393.1,518.8 L 393.5,519.2 L 393.9,519.9 L 394.3,520.7 L 394.7,521.5 L 395.2,523.3 L 395.6,524.7 L 395.9,526.4 L 396.2,528.4 L 396.7,533.0 L 397.3,539.9 L 397.5,542.6 L 397.5,544.8 L 397.5,545.7 L 397.4,546.6 L 397.2,547.5 L 397.0,548.4 L 396.8,549.4 L 396.5,550.4 L 396.1,551.4 L 395.8,552.3 L 395.4,553.0 L 395.0,553.9 L 394.8,554.3 L 394.4,554.9 L 394.1,555.4 L 393.5,556.2 L 392.9,557.0 L 392.2,557.8 L 382.7,568.2 L 381.9,569.0 L 381.2,569.8 L 380.6,570.4 L 379.9,571.5 L 379.3,572.4 L 378.6,573.6 L 378.1,574.6 L 377.6,575.7 L 377.1,576.9 L 376.7,578.0 L 376.4,579.2 L 376.2,580.5 L 376.0,581.8 L 375.9,583.4 L 375.9,585.1 L 376.0,586.5 L 376.1,588.0 L 376.4,589.3 L 376.8,590.9 L 378.6,594.5 L 379.9,597.1 L 380.8,598.8 L 381.7,600.4 L 382.8,602.2 L 384.3,604.7 L 386.3,607.7 L 388.2,610.2 L 390.4,613.2 L 392.1,615.5 L 394.1,618.4 L 395.5,620.5 L 396.5,622.0 L 397.5,623.6 L 398.6,625.6 L 399.5,627.4 L 400.8,629.8 L 404.8,638.3 L 407.2,643.4 L 409.0,647.2 L 410.7,650.6 L 425.0,678.7 L 425.9,680.5 L 426.7,682.3 L 427.5,684.2 L 428.3,686.0 L 429.0,687.8 L 429.6,689.7 L 430.2,691.6 L 430.8,693.5 L 431.7,697.0 L 448.4,767.9 L 449.1,770.7 L 449.5,772.1 L 449.7,772.7 L 449.8,772.9 L 449.9,773.1 L 450.0,773.2 L 450.1,773.4 L 450.3,773.6 L 450.4,773.7 L 450.6,773.8 L 450.7,773.9 L 450.9,774.0 L 451.1,774.0 L 451.2,774.1 L 451.4,774.1 L 451.6,774.2 L 451.8,774.2 L 452.1,774.2 L 452.3,774.2 L 452.6,774.2 L 452.9,774.1 L 453.2,774.0 L 476.9,764.7 L 489.9,759.7 L 490.8,759.4 L 491.9,759.1 L 492.6,758.9 L 493.4,758.8 L 494.1,758.8 L 494.8,758.9 L 495.3,759.0 L 495.8,759.1 L 496.3,759.4 L 496.9,759.6 L 497.4,760.0 L 497.8,760.4 L 498.2,760.8 L 498.5,761.2 L 498.8,761.7 L 499.1,762.2 L 499.3,762.8 L 499.8,764.0 L 501.4,769.2 L 503.3,775.1 L 504.9,780.4 L 505.4,782.2 L 506.0,783.3 L 506.7,784.7 L 507.5,786.0 L 508.4,787.0 L 509.3,788.0 L 510.5,789.2 L 511.4,789.9 L 512.1,790.6 L 523.1,799.6 L 530.2,805.2 L 534.8,808.7 L 541.7,813.8 L 548.8,819.1 L 566.0,831.8 L 568.1,833.4 L 575.9,839.1 L 577.5,840.2 L 579.1,841.3 L 580.8,842.3 L 582.5,843.3 L 588.4,846.3 L 591.5,848.0 L 618.7,861.9 L 647.7,876.7 L 651.9,878.8 L 653.7,879.5 L 655.5,880.3 L 657.2,880.9 L 659.2,881.6 L 662.9,882.7 L 746.1,905.4 L 749.9,906.4 L 756.7,908.3 L 762.1,909.8 L 762.6,909.9 L 763.1,910.0 L 763.5,910.0 L 763.9,909.9 L 764.3,909.8 L 764.7,909.6 L 765.1,909.4 L 765.5,909.2 L 765.8,908.9 L 766.0,908.5 L 766.3,907.6 L 770.0,894.0 L 770.3,892.7 L 770.6,891.8 L 770.8,891.1 L 770.9,890.5 L 771.0,889.8 L 771.1,889.1 L 771.2,888.2 L 771.2,887.4 L 771.3,886.1 L 771.4,884.9 L 771.4,883.5 L 768.1,820.7 L 763.5,743.8 L 762.4,727.3 L 762.3,725.3 L 762.0,723.2 L 761.7,721.2 L 761.5,719.5 L 761.2,717.7 L 760.8,716.1 L 760.4,714.4 L 760.0,712.9 L 759.3,710.4 L 751.2,685.5 L 750.8,683.9 L 750.7,683.5 L 750.6,683.2 L 750.5,682.8 L 750.5,682.5 L 750.5,682.1 L 750.4,681.7 L 750.4,681.1 L 750.4,680.6 L 750.4,680.2 L 750.4,679.8 L 750.4,679.4 L 750.5,679.0 L 750.5,678.6 L 750.5,678.2 L 750.6,677.9 L 750.6,677.5 L 750.6,677.2 L 750.7,676.8 L 750.7,676.5 L 750.8,676.2 L 750.9,675.8 L 751.1,674.9 L 751.4,673.9 L 753.0,668.4 L 753.0,668.0 L 753.1,667.7 L 753.2,667.3 L 753.2,666.9 L 753.2,666.7 L 753.3,666.4 L 753.3,666.1 L 753.3,665.8 L 753.2,665.4 L 753.2,665.0 L 753.1,664.7 L 753.1,664.3 L 752.9,664.0 L 752.8,663.6 L 752.7,663.4 L 752.6,663.1 L 752.4,662.8 L 752.3,662.6 L 752.1,662.3 L 751.9,662.0 L 751.6,661.8 L 751.4,661.5 L 751.2,661.2 L 750.9,661.0 L 750.7,660.8 L 750.4,660.6 L 750.2,660.5 L 749.9,660.3 L 749.6,660.2 L 749.3,660.0 L 749.0,659.9 L 748.7,659.8 L 748.3,659.7 L 746.8,659.2 L 746.0,658.9 L 745.6,658.8 L 745.3,658.7 L 745.0,658.5 L 744.7,658.3 L 744.4,658.1 L 744.0,657.9 L 743.7,657.7 L 743.4,657.4 L 743.1,657.2 L 742.8,657.0 L 742.7,656.8 L 742.5,656.7 L 742.4,656.6 L 742.3,656.5 L 742.2,656.4 L 742.2,656.4 L 742.1,656.3 L 741.9,656.1 L 741.8,655.9 L 741.7,655.7 L 741.6,655.5 L 741.5,655.3 L 739.5,649.3 L 738.2,645.2 L 712.7,566.0 L 698.9,522.7 L 696.8,516.3 L 686.2,483.3 L 673.6,444.4 L 673.1,443.1 L 664.3,415.7 L 660.8,404.8 L 660.2,403.4 L 659.9,402.5 L 659.6,401.9 L 659.2,401.1 L 659.0,400.6 L 658.7,400.2 L 658.4,399.8 L 658.2,399.4 L 657.9,399.0 L 657.5,398.6 L 657.2,398.2 L 656.7,397.7 L 656.3,397.3 L 655.9,397.0 L 655.6,396.7 L 654.5,395.7 L 650.9,392.6 L 649.3,391.2 L 649.2,391.1 L 649.0,390.9 L 648.7,390.6 L 648.5,390.4 L 648.4,390.3 L 648.3,390.1 L 648.2,390.0 L 648.1,389.9 L 648.0,389.7 L 647.9,389.6 L 647.8,389.5 L 647.8,389.4 L 647.7,389.3 L 647.7,389.2 L 647.6,389.0 L 647.5,388.9 L 647.5,388.7 L 647.4,388.6 L 647.4,388.4 L 647.3,388.3 L 647.3,388.1 L 647.2,387.9 L 647.2,387.8 L 647.2,387.6 L 647.1,387.4 L 647.1,387.2 L 647.1,387.0 L 647.1,386.8 L 647.0,386.7 L 647.0,386.5 L 647.0,386.4 L 647.0,386.2 L 647.0,386.1 L 647.0,385.9 L 647.0,385.8 L 647.0,385.7 L 647.0,385.6 L 647.0,385.4 L 647.0,385.3 L 647.0,385.1 L 647.0,385.0 L 647.0,384.9 L 647.1,384.8 L 647.1,384.6 L 647.1,384.5 L 647.1,384.4 L 647.1,384.2 L 647.2,384.1 L 647.2,384.0 L 647.2,383.8 L 647.3,383.7 L 647.3,383.6 L 647.3,383.4 L 647.4,383.3 L 647.4,383.2 L 647.5,383.1 L 647.5,383.0 L 647.6,382.9 L 647.6,382.8 L 647.7,382.7 L 647.7,382.6 L 647.8,382.5 L 647.9,382.4 L 647.9,382.3 L 648.0,382.2 L 648.0,382.1 L 648.1,382.1 L 648.1,382.0 L 649.5,380.4 L 649.6,380.3 L 649.7,380.1 L 649.8,379.9 L 649.9,379.7 L 650.0,379.7 L 650.1,379.4 L 650.3,379.1 L 650.4,378.8 L 650.5,378.6 L 650.6,378.3 L 650.7,378.0 L 650.8,377.6 L 650.9,377.5 L 650.9,377.3 L 651.0,377.1 L 651.0,376.9 L 651.0,376.8 L 651.0,376.6 L 651.0,376.4 L 651.0,376.3 L 651.0,376.0 L 651.0,375.8 L 651.0,375.4 L 650.9,375.0 L 650.8,374.5 L 650.8,373.8 L 643.2,350.1 L 634.8,324.0 L 634.3,322.4 L 632.2,316.2 L 622.9,287.3 L 620.2,278.9 L 615.0,262.7 L 607.6,239.6 L 587.4,176.7 L 586.0,173.0 L 584.7,169.8 L 583.5,167.2 L 582.3,164.7 L 581.3,162.8 L 580.4,161.0 L 579.4,159.2 L 578.0,156.7 L 574.9,151.5 L 569.1,142.5 L 558.8,126.1 L 554.0,118.5 L 552.7,116.9 L 551.5,115.4 L 550.5,114.1 L 549.3,112.6 L 548.2,111.3 L 547.4,110.4 L 546.3,109.4 L 545.9,109.0 L 545.6,108.7 L 545.3,108.4 L 544.6,107.8 L 543.2,106.5 L 542.2,105.5 L 541.1,104.5 L 540.1,103.7 L 539.1,102.9 L 537.2,101.5 L 536.3,100.8 L 536.1,100.7 L 534.9,99.9 L 533.2,98.7 L 531.6,97.7 L 530.1,96.7 L 528.5,95.7 L 526.9,94.7 L 525.2,93.7 L 523.2,92.6 L 521.2,91.5 L 520.0,90.8 L 519.1,90.4 L 518.4,90.2 L 517.7,90.1 L 517.0,90.0 L 516.3,90.0 L 515.6,90.1 L 514.8,90.3 L 514.1,90.5 L 498.4,96.4 L 496.7,97.1 L 495.6,97.6 L 494.3,98.1 L 493.1,98.7 L 491.7,99.4 L 491.0,99.8 L 490.5,100.0 L 490.1,100.3 L 489.5,100.6 L 488.8,101.0 L 488.0,101.5 L 486.9,102.4 L 485.7,103.2 L 483.2,105.1 L 479.0,108.4 L 478.6,108.7 L 478.3,108.9 L 478.1,109.1 L 477.8,109.4 L 477.6,109.6 L 477.4,109.8 L 477.1,110.0 L 476.8,110.3 L 476.6,110.5 L 476.4,110.7 L 476.2,111.0 L 476.0,111.3 L 475.8,111.6 L 475.6,111.9 L 475.5,112.2 L 475.3,112.5 L 475.2,112.8 L 475.0,113.2 L 474.9,113.5 L 474.8,113.9 L 474.6,114.3 L 474.5,114.8 L 474.3,115.2 L 474.2,115.6 L 474.1,116.0 L 474.1,116.4 L 474.0,116.8 L 473.9,117.3 L 473.9,117.7 L 473.8,118.0 L 473.8,118.4 L 473.8,118.9 L 473.7,119.3 L 473.7,119.7 L 473.7,121.3 L 473.7,121.9 L 473.7,122.4 L 473.7,122.7 L 473.7,122.9 L 473.7,123.1 L 473.6,123.4 L 473.6,123.7 L 473.5,124.0 L 473.4,124.4 L 473.2,124.8 L 473.0,125.3 L 472.8,125.8 L 472.6,126.3 L 472.4,126.8 L 472.1,127.3 L 471.9,127.7 L 471.7,128.1 L 471.4,128.5 L 471.1,128.9 L 470.8,129.3 L 470.5,129.6 L 470.2,130.0 L 469.7,130.4 L 469.3,130.8 L 468.9,131.1 L 468.5,131.4 L 468.0,131.7 L 467.6,132.0 L 467.2,132.2 L 466.8,132.4 L 466.5,132.5 L 466.2,132.6 L 465.8,132.7 L 465.4,132.8 L 464.9,133.0 L 464.3,133.0 L 463.7,133.1 L 462.6,133.2 L 460.8,133.3 L 459.2,133.4 L 455.9,133.5 L 451.3,133.7 L 449.0,133.8 L 447.3,134.0 L 446.6,134.1 L 446.0,134.2 L 445.2,134.3 L 444.5,134.5 L 444.0,134.7 L 443.4,134.9 L 442.7,135.2 L 442.1,135.4 L 441.3,135.7 L 440.4,136.1 L 438.6,136.9 L 436.9,137.8 L 436.7,137.8 L 436.5,138.0 L 436.2,138.1 L 435.9,138.3 L 435.5,138.6 L 435.1,138.8 L 434.8,139.1 L 434.3,139.5 L 433.6,140.2 L 432.9,140.7 L 432.2,141.5 L 431.5,142.2 L 430.8,143.0 L 430.1,144.0 L 427.9,147.2 L 425.7,150.3 L 425.2,151.1 L 424.7,151.7 L 424.2,152.4 L 423.5,153.1 L 422.9,153.8 L 422.2,154.4 L 421.4,155.1 L 420.5,155.8 L 419.5,156.5 L 418.0,157.5 L 415.8,158.9 L 413.6,160.3 L 399.6,169.3 L 399.4,169.4 L 399.3,169.5 L 399.2,169.5 L 399.1,169.6 L 399.1,169.7 L 399.0,169.8 L 398.9,169.8 L 398.8,169.9 L 398.7,170.0 L 398.6,170.1 L 398.6,170.3 L 398.5,170.4 L 398.4,170.5 L 398.3,170.6 L 398.3,170.7 L 398.2,170.8 L 398.2,171.0 L 398.1,171.1 L 398.1,171.2 L 398.0,171.3 L 398.0,171.4 L 397.9,171.5 L 397.9,171.6 L 397.9,171.7 L 397.9,171.9 L 397.9,172.0 L 397.9,172.1 L 397.9,172.3 L 397.9,172.4 L 397.9,172.5 L 397.9,172.7 L 397.9,172.8 L 397.9,173.0 L 397.9,173.1 L 397.9,173.2 L 398.0,173.4 L 399.1,178.1 L 399.1,178.4 L 399.2,178.6 L 399.2,178.7 L 399.2,178.8 L 399.2,178.9 L 399.2,179.1 L 399.2,179.2 L 399.2,179.4 L 399.2,179.5 L 399.2,179.6 L 399.2,179.7 L 399.2,179.8 L 399.2,179.9 L 399.1,180.0 L 399.1,180.2 L 399.1,180.3 L 399.0,180.4 L 399.0,180.5 L 398.9,180.6 L 398.9,180.7 L 398.8,180.8 L 398.7,181.0 L 398.7,181.1 L 398.6,181.2 L 398.5,181.3 L 398.3,181.4 L 398.3,181.5 L 398.1,181.6 L 398.0,181.7 L 397.9,181.8 L 397.6,181.9 L 380.6,192.4 L 378.9,193.5 L 378.2,194.0 L 377.5,194.6 L 377.1,195.0 L 376.7,195.4 L 376.3,195.8 L 375.7,196.4 L 375.1,197.1 L 374.4,197.9 L 373.9,198.7 L 373.4,199.4 L 372.9,200.1 L 372.6,200.6 L 372.3,201.2 L 371.9,201.8 L 371.6,202.5 L 371.2,203.3 L 370.4,205.2 L 369.5,207.6 L 368.5,209.9 L 367.6,212.6 L 366.6,215.5 L 365.8,218.3 L 365.2,220.6 L 364.7,222.7 L 364.3,224.2 L 363.3,229.1 L 362.8,231.8 L 362.4,234.1 L 362.1,235.8 L 361.8,237.8 L 361.7,239.3 L 361.5,240.8 L 361.4,241.9 L 361.2,244.0 L 361.1,246.0 L 360.3,271.2 L 359.8,284.2 L 359.5,293.1 L 359.2,302.2 L 359.0,310.5 L 358.8,313.6 L 358.7,316.7 L 358.6,318.6 L 358.6,319.7 L 358.6,319.8 L 358.6,320.0 L 358.6,320.1 L 358.6,320.3 L 358.7,320.4 L 358.8,320.6 L 358.8,320.7 L 358.9,320.9 L 359.0,321.0 L 359.2,321.2 L 359.3,321.3 L 359.5,321.4 L 359.6,321.5 L 359.7,321.6 L 359.8,321.7 L 360.0,321.7 L 360.1,321.8 L 360.3,321.9 L 360.5,321.9 L 361.8,322.3 L 362.0,322.3 L 362.1,322.4 L 362.2,322.4 L 362.3,322.5 L 362.5,322.6 L 362.6,322.7 L 362.7,322.7 L 362.8,322.8 L 362.9,322.9 L 363.0,323.0 L 363.1,323.2 L 363.2,323.3 L 363.3,323.4 L 363.4,323.5 L 363.5,323.7 L 363.6,323.8 L 363.7,323.9 L 363.8,324.0 L 363.8,324.2 L 363.9,324.3 L 363.9,324.5 L 363.9,324.7 L 366.0,335.4 L 366.0,335.7 L 366.1,336.1 L 366.2,336.4 L 366.2,336.6 L 366.3,336.8 L 366.4,337.0 L 366.5,337.2 L 366.5,337.4 L 366.6,337.6 L 366.8,337.9 L 366.9,338.1 L 367.0,338.3 L 367.2,338.6 L 367.3,338.7 L 367.5,338.9 L 367.6,339.1 L 367.7,339.2 L 367.8,339.3 L 368.0,339.5 L 368.1,339.6 L 368.2,339.7 L 368.4,339.8 L 368.5,339.9 L 368.7,340.0 L 368.8,340.1 L 369.0,340.2 L 369.1,340.3 L 369.3,340.3 L 369.5,340.4 L 371.0,341.0 L 371.1,341.1 L 371.3,341.2 L 371.5,341.3 L 371.7,341.4 L 371.8,341.4 L 371.9,341.5 L 372.0,341.6 L 372.1,341.7 L 372.2,341.7 L 372.3,341.8 L 372.5,342.0 L 372.6,342.1 L 372.7,342.2 L 372.8,342.4 L 373.0,342.5 L 373.1,342.6 L 373.2,342.8 L 373.3,343.0 L 373.4,343.2 L 373.5,343.4 L 373.6,343.5 L 373.7,343.7 L 373.8,343.9 L 373.9,344.3 L 374.1,344.6 L 374.2,345.0 L 374.3,345.5 L 376.0,351.6 L 380.4,367.7 L 382.6,375.8 L 389.0,399.1 L 390.6,405.5 L 391.1,407.4 L 391.2,408.2 L 391.4,409.1 L 391.5,409.7 L 391.6,410.3 L 391.6,411.2 L 391.6,412.0 L 391.5,413.6 L 391.4,414.7 L 391.3,415.8 L 391.2,416.7 L 391.1,417.6 L 390.2,423.0 L 390.0,424.6 L 389.9,425.5 L 389.8,426.4 L 389.8,427.4 L 389.8,428.6 L 389.8,429.3 L 389.9,429.9 L 390.0,430.7 L 390.1,432.0 L 391.7,441.8 Z" fill="none" stroke="#000000" stroke-opacity="0.5" stroke-width="13" stroke-linejoin="round" stroke-linecap="round"/>
<path d="M 391.7,441.8 L 392.8,450.0 L 393.5,454.5 L 393.6,455.7 L 393.8,456.9 L 393.9,458.0 L 393.9,459.0 L 393.9,459.8 L 393.9,460.4 L 393.9,461.0 L 393.8,461.6 L 393.7,462.1 L 393.6,462.7 L 393.4,463.4 L 393.1,464.3 L 392.9,465.1 L 392.5,466.0 L 392.1,466.7 L 391.8,467.4 L 391.3,468.1 L 390.9,468.8 L 390.5,469.4 L 390.0,469.9 L 389.3,470.6 L 388.5,471.4 L 384.6,474.7 L 383.7,475.5 L 383.1,476.0 L 382.7,476.4 L 382.2,476.9 L 381.8,477.4 L 381.4,477.8 L 381.1,478.2 L 380.7,478.7 L 380.3,479.1 L 380.0,479.6 L 379.6,480.2 L 379.2,480.8 L 378.8,481.5 L 378.4,482.1 L 378.1,482.7 L 377.8,483.4 L 377.5,484.0 L 377.2,484.8 L 377.0,485.5 L 376.7,486.1 L 376.6,486.7 L 376.4,487.5 L 376.3,488.2 L 376.2,488.8 L 376.1,489.5 L 376.0,490.2 L 375.9,490.8 L 375.9,491.5 L 375.9,492.1 L 375.9,492.8 L 375.9,493.6 L 376.0,494.3 L 376.0,495.0 L 376.1,495.8 L 376.2,496.6 L 376.4,497.5 L 376.5,498.3 L 376.7,498.9 L 376.9,499.7 L 377.1,500.3 L 377.3,500.9 L 377.6,501.4 L 377.8,502.0 L 378.1,502.6 L 378.4,503.2 L 378.8,503.8 L 379.2,504.4 L 379.5,505.0 L 379.9,505.5 L 380.3,506.2 L 380.7,506.7 L 381.1,507.2 L 381.5,507.7 L 382.0,508.2 L 382.5,508.8 L 383.2,509.4 L 384.1,510.1 L 384.9,510.9 L 389.0,514.3 L 390.0,515.3 L 391.3,516.5 L 392.0,517.4 L 392.4,517.9 L 392.8,518.3 L 393.1,518.8 L 393.5,519.2 L 393.9,519.9 L 394.3,520.7 L 394.7,521.5 L 395.2,523.3 L 395.6,524.7 L 395.9,526.4 L 396.2,528.4 L 396.7,533.0 L 397.3,539.9 L 397.5,542.6 L 397.5,544.8 L 397.5,545.7 L 397.4,546.6 L 397.2,547.5 L 397.0,548.4 L 396.8,549.4 L 396.5,550.4 L 396.1,551.4 L 395.8,552.3 L 395.4,553.0 L 395.0,553.9 L 394.8,554.3 L 394.4,554.9 L 394.1,555.4 L 393.5,556.2 L 392.9,557.0 L 392.2,557.8 L 382.7,568.2 L 381.9,569.0 L 381.2,569.8 L 380.6,570.4 L 379.9,571.5 L 379.3,572.4 L 378.6,573.6 L 378.1,574.6 L 377.6,575.7 L 377.1,576.9 L 376.7,578.0 L 376.4,579.2 L 376.2,580.5 L 376.0,581.8 L 375.9,583.4 L 375.9,585.1 L 376.0,586.5 L 376.1,588.0 L 376.4,589.3 L 376.8,590.9 L 378.6,594.5 L 379.9,597.1 L 380.8,598.8 L 381.7,600.4 L 382.8,602.2 L 384.3,604.7 L 386.3,607.7 L 388.2,610.2 L 390.4,613.2 L 392.1,615.5 L 394.1,618.4 L 395.5,620.5 L 396.5,622.0 L 397.5,623.6 L 398.6,625.6 L 399.5,627.4 L 400.8,629.8 L 404.8,638.3 L 407.2,643.4 L 409.0,647.2 L 410.7,650.6 L 425.0,678.7 L 425.9,680.5 L 426.7,682.3 L 427.5,684.2 L 428.3,686.0 L 429.0,687.8 L 429.6,689.7 L 430.2,691.6 L 430.8,693.5 L 431.7,697.0 L 448.4,767.9 L 449.1,770.7 L 449.5,772.1 L 449.7,772.7 L 449.8,772.9 L 449.9,773.1 L 450.0,773.2 L 450.1,773.4 L 450.3,773.6 L 450.4,773.7 L 450.6,773.8 L 450.7,773.9 L 450.9,774.0 L 451.1,774.0 L 451.2,774.1 L 451.4,774.1 L 451.6,774.2 L 451.8,774.2 L 452.1,774.2 L 452.3,774.2 L 452.6,774.2 L 452.9,774.1 L 453.2,774.0 L 476.9,764.7 L 489.9,759.7 L 490.8,759.4 L 491.9,759.1 L 492.6,758.9 L 493.4,758.8 L 494.1,758.8 L 494.8,758.9 L 495.3,759.0 L 495.8,759.1 L 496.3,759.4 L 496.9,759.6 L 497.4,760.0 L 497.8,760.4 L 498.2,760.8 L 498.5,761.2 L 498.8,761.7 L 499.1,762.2 L 499.3,762.8 L 499.8,764.0 L 501.4,769.2 L 503.3,775.1 L 504.9,780.4 L 505.4,782.2 L 506.0,783.3 L 506.7,784.7 L 507.5,786.0 L 508.4,787.0 L 509.3,788.0 L 510.5,789.2 L 511.4,789.9 L 512.1,790.6 L 523.1,799.6 L 530.2,805.2 L 534.8,808.7 L 541.7,813.8 L 548.8,819.1 L 566.0,831.8 L 568.1,833.4 L 575.9,839.1 L 577.5,840.2 L 579.1,841.3 L 580.8,842.3 L 582.5,843.3 L 588.4,846.3 L 591.5,848.0 L 618.7,861.9 L 647.7,876.7 L 651.9,878.8 L 653.7,879.5 L 655.5,880.3 L 657.2,880.9 L 659.2,881.6 L 662.9,882.7 L 746.1,905.4 L 749.9,906.4 L 756.7,908.3 L 762.1,909.8 L 762.6,909.9 L 763.1,910.0 L 763.5,910.0 L 763.9,909.9 L 764.3,909.8 L 764.7,909.6 L 765.1,909.4 L 765.5,909.2 L 765.8,908.9 L 766.0,908.5 L 766.3,907.6 L 770.0,894.0 L 770.3,892.7 L 770.6,891.8 L 770.8,891.1 L 770.9,890.5 L 771.0,889.8 L 771.1,889.1 L 771.2,888.2 L 771.2,887.4 L 771.3,886.1 L 771.4,884.9 L 771.4,883.5 L 768.1,820.7 L 763.5,743.8 L 762.4,727.3 L 762.3,725.3 L 762.0,723.2 L 761.7,721.2 L 761.5,719.5 L 761.2,717.7 L 760.8,716.1 L 760.4,714.4 L 760.0,712.9 L 759.3,710.4 L 751.2,685.5 L 750.8,683.9 L 750.7,683.5 L 750.6,683.2 L 750.5,682.8 L 750.5,682.5 L 750.5,682.1 L 750.4,681.7 L 750.4,681.1 L 750.4,680.6 L 750.4,680.2 L 750.4,679.8 L 750.4,679.4 L 750.5,679.0 L 750.5,678.6 L 750.5,678.2 L 750.6,677.9 L 750.6,677.5 L 750.6,677.2 L 750.7,676.8 L 750.7,676.5 L 750.8,676.2 L 750.9,675.8 L 751.1,674.9 L 751.4,673.9 L 753.0,668.4 L 753.0,668.0 L 753.1,667.7 L 753.2,667.3 L 753.2,666.9 L 753.2,666.7 L 753.3,666.4 L 753.3,666.1 L 753.3,665.8 L 753.2,665.4 L 753.2,665.0 L 753.1,664.7 L 753.1,664.3 L 752.9,664.0 L 752.8,663.6 L 752.7,663.4 L 752.6,663.1 L 752.4,662.8 L 752.3,662.6 L 752.1,662.3 L 751.9,662.0 L 751.6,661.8 L 751.4,661.5 L 751.2,661.2 L 750.9,661.0 L 750.7,660.8 L 750.4,660.6 L 750.2,660.5 L 749.9,660.3 L 749.6,660.2 L 749.3,660.0 L 749.0,659.9 L 748.7,659.8 L 748.3,659.7 L 746.8,659.2 L 746.0,658.9 L 745.6,658.8 L 745.3,658.7 L 745.0,658.5 L 744.7,658.3 L 744.4,658.1 L 744.0,657.9 L 743.7,657.7 L 743.4,657.4 L 743.1,657.2 L 742.8,657.0 L 742.7,656.8 L 742.5,656.7 L 742.4,656.6 L 742.3,656.5 L 742.2,656.4 L 742.2,656.4 L 742.1,656.3 L 741.9,656.1 L 741.8,655.9 L 741.7,655.7 L 741.6,655.5 L 741.5,655.3 L 739.5,649.3 L 738.2,645.2 L 712.7,566.0 L 698.9,522.7 L 696.8,516.3 L 686.2,483.3 L 673.6,444.4 L 673.1,443.1 L 664.3,415.7 L 660.8,404.8 L 660.2,403.4 L 659.9,402.5 L 659.6,401.9 L 659.2,401.1 L 659.0,400.6 L 658.7,400.2 L 658.4,399.8 L 658.2,399.4 L 657.9,399.0 L 657.5,398.6 L 657.2,398.2 L 656.7,397.7 L 656.3,397.3 L 655.9,397.0 L 655.6,396.7 L 654.5,395.7 L 650.9,392.6 L 649.3,391.2 L 649.2,391.1 L 649.0,390.9 L 648.7,390.6 L 648.5,390.4 L 648.4,390.3 L 648.3,390.1 L 648.2,390.0 L 648.1,389.9 L 648.0,389.7 L 647.9,389.6 L 647.8,389.5 L 647.8,389.4 L 647.7,389.3 L 647.7,389.2 L 647.6,389.0 L 647.5,388.9 L 647.5,388.7 L 647.4,388.6 L 647.4,388.4 L 647.3,388.3 L 647.3,388.1 L 647.2,387.9 L 647.2,387.8 L 647.2,387.6 L 647.1,387.4 L 647.1,387.2 L 647.1,387.0 L 647.1,386.8 L 647.0,386.7 L 647.0,386.5 L 647.0,386.4 L 647.0,386.2 L 647.0,386.1 L 647.0,385.9 L 647.0,385.8 L 647.0,385.7 L 647.0,385.6 L 647.0,385.4 L 647.0,385.3 L 647.0,385.1 L 647.0,385.0 L 647.0,384.9 L 647.1,384.8 L 647.1,384.6 L 647.1,384.5 L 647.1,384.4 L 647.1,384.2 L 647.2,384.1 L 647.2,384.0 L 647.2,383.8 L 647.3,383.7 L 647.3,383.6 L 647.3,383.4 L 647.4,383.3 L 647.4,383.2 L 647.5,383.1 L 647.5,383.0 L 647.6,382.9 L 647.6,382.8 L 647.7,382.7 L 647.7,382.6 L 647.8,382.5 L 647.9,382.4 L 647.9,382.3 L 648.0,382.2 L 648.0,382.1 L 648.1,382.1 L 648.1,382.0 L 649.5,380.4 L 649.6,380.3 L 649.7,380.1 L 649.8,379.9 L 649.9,379.7 L 650.0,379.7 L 650.1,379.4 L 650.3,379.1 L 650.4,378.8 L 650.5,378.6 L 650.6,378.3 L 650.7,378.0 L 650.8,377.6 L 650.9,377.5 L 650.9,377.3 L 651.0,377.1 L 651.0,376.9 L 651.0,376.8 L 651.0,376.6 L 651.0,376.4 L 651.0,376.3 L 651.0,376.0 L 651.0,375.8 L 651.0,375.4 L 650.9,375.0 L 650.8,374.5 L 650.8,373.8 L 643.2,350.1 L 634.8,324.0 L 634.3,322.4 L 632.2,316.2 L 622.9,287.3 L 620.2,278.9 L 615.0,262.7 L 607.6,239.6 L 587.4,176.7 L 586.0,173.0 L 584.7,169.8 L 583.5,167.2 L 582.3,164.7 L 581.3,162.8 L 580.4,161.0 L 579.4,159.2 L 578.0,156.7 L 574.9,151.5 L 569.1,142.5 L 558.8,126.1 L 554.0,118.5 L 552.7,116.9 L 551.5,115.4 L 550.5,114.1 L 549.3,112.6 L 548.2,111.3 L 547.4,110.4 L 546.3,109.4 L 545.9,109.0 L 545.6,108.7 L 545.3,108.4 L 544.6,107.8 L 543.2,106.5 L 542.2,105.5 L 541.1,104.5 L 540.1,103.7 L 539.1,102.9 L 537.2,101.5 L 536.3,100.8 L 536.1,100.7 L 534.9,99.9 L 533.2,98.7 L 531.6,97.7 L 530.1,96.7 L 528.5,95.7 L 526.9,94.7 L 525.2,93.7 L 523.2,92.6 L 521.2,91.5 L 520.0,90.8 L 519.1,90.4 L 518.4,90.2 L 517.7,90.1 L 517.0,90.0 L 516.3,90.0 L 515.6,90.1 L 514.8,90.3 L 514.1,90.5 L 498.4,96.4 L 496.7,97.1 L 495.6,97.6 L 494.3,98.1 L 493.1,98.7 L 491.7,99.4 L 491.0,99.8 L 490.5,100.0 L 490.1,100.3 L 489.5,100.6 L 488.8,101.0 L 488.0,101.5 L 486.9,102.4 L 485.7,103.2 L 483.2,105.1 L 479.0,108.4 L 478.6,108.7 L 478.3,108.9 L 478.1,109.1 L 477.8,109.4 L 477.6,109.6 L 477.4,109.8 L 477.1,110.0 L 476.8,110.3 L 476.6,110.5 L 476.4,110.7 L 476.2,111.0 L 476.0,111.3 L 475.8,111.6 L 475.6,111.9 L 475.5,112.2 L 475.3,112.5 L 475.2,112.8 L 475.0,113.2 L 474.9,113.5 L 474.8,113.9 L 474.6,114.3 L 474.5,114.8 L 474.3,115.2 L 474.2,115.6 L 474.1,116.0 L 474.1,116.4 L 474.0,116.8 L 473.9,117.3 L 473.9,117.7 L 473.8,118.0 L 473.8,118.4 L 473.8,118.9 L 473.7,119.3 L 473.7,119.7 L 473.7,121.3 L 473.7,121.9 L 473.7,122.4 L 473.7,122.7 L 473.7,122.9 L 473.7,123.1 L 473.6,123.4 L 473.6,123.7 L 473.5,124.0 L 473.4,124.4 L 473.2,124.8 L 473.0,125.3 L 472.8,125.8 L 472.6,126.3 L 472.4,126.8 L 472.1,127.3 L 471.9,127.7 L 471.7,128.1 L 471.4,128.5 L 471.1,128.9 L 470.8,129.3 L 470.5,129.6 L 470.2,130.0 L 469.7,130.4 L 469.3,130.8 L 468.9,131.1 L 468.5,131.4 L 468.0,131.7 L 467.6,132.0 L 467.2,132.2 L 466.8,132.4 L 466.5,132.5 L 466.2,132.6 L 465.8,132.7 L 465.4,132.8 L 464.9,133.0 L 464.3,133.0 L 463.7,133.1 L 462.6,133.2 L 460.8,133.3 L 459.2,133.4 L 455.9,133.5 L 451.3,133.7 L 449.0,133.8 L 447.3,134.0 L 446.6,134.1 L 446.0,134.2 L 445.2,134.3 L 444.5,134.5 L 444.0,134.7 L 443.4,134.9 L 442.7,135.2 L 442.1,135.4 L 441.3,135.7 L 440.4,136.1 L 438.6,136.9 L 436.9,137.8 L 436.7,137.8 L 436.5,138.0 L 436.2,138.1 L 435.9,138.3 L 435.5,138.6 L 435.1,138.8 L 434.8,139.1 L 434.3,139.5 L 433.6,140.2 L 432.9,140.7 L 432.2,141.5 L 431.5,142.2 L 430.8,143.0 L 430.1,144.0 L 427.9,147.2 L 425.7,150.3 L 425.2,151.1 L 424.7,151.7 L 424.2,152.4 L 423.5,153.1 L 422.9,153.8 L 422.2,154.4 L 421.4,155.1 L 420.5,155.8 L 419.5,156.5 L 418.0,157.5 L 415.8,158.9 L 413.6,160.3 L 399.6,169.3 L 399.4,169.4 L 399.3,169.5 L 399.2,169.5 L 399.1,169.6 L 399.1,169.7 L 399.0,169.8 L 398.9,169.8 L 398.8,169.9 L 398.7,170.0 L 398.6,170.1 L 398.6,170.3 L 398.5,170.4 L 398.4,170.5 L 398.3,170.6 L 398.3,170.7 L 398.2,170.8 L 398.2,171.0 L 398.1,171.1 L 398.1,171.2 L 398.0,171.3 L 398.0,171.4 L 397.9,171.5 L 397.9,171.6 L 397.9,171.7 L 397.9,171.9 L 397.9,172.0 L 397.9,172.1 L 397.9,172.3 L 397.9,172.4 L 397.9,172.5 L 397.9,172.7 L 397.9,172.8 L 397.9,173.0 L 397.9,173.1 L 397.9,173.2 L 398.0,173.4 L 399.1,178.1 L 399.1,178.4 L 399.2,178.6 L 399.2,178.7 L 399.2,178.8 L 399.2,178.9 L 399.2,179.1 L 399.2,179.2 L 399.2,179.4 L 399.2,179.5 L 399.2,179.6 L 399.2,179.7 L 399.2,179.8 L 399.2,179.9 L 399.1,180.0 L 399.1,180.2 L 399.1,180.3 L 399.0,180.4 L 399.0,180.5 L 398.9,180.6 L 398.9,180.7 L 398.8,180.8 L 398.7,181.0 L 398.7,181.1 L 398.6,181.2 L 398.5,181.3 L 398.3,181.4 L 398.3,181.5 L 398.1,181.6 L 398.0,181.7 L 397.9,181.8 L 397.6,181.9 L 380.6,192.4 L 378.9,193.5 L 378.2,194.0 L 377.5,194.6 L 377.1,195.0 L 376.7,195.4 L 376.3,195.8 L 375.7,196.4 L 375.1,197.1 L 374.4,197.9 L 373.9,198.7 L 373.4,199.4 L 372.9,200.1 L 372.6,200.6 L 372.3,201.2 L 371.9,201.8 L 371.6,202.5 L 371.2,203.3 L 370.4,205.2 L 369.5,207.6 L 368.5,209.9 L 367.6,212.6 L 366.6,215.5 L 365.8,218.3 L 365.2,220.6 L 364.7,222.7 L 364.3,224.2 L 363.3,229.1 L 362.8,231.8 L 362.4,234.1 L 362.1,235.8 L 361.8,237.8 L 361.7,239.3 L 361.5,240.8 L 361.4,241.9 L 361.2,244.0 L 361.1,246.0 L 360.3,271.2 L 359.8,284.2 L 359.5,293.1 L 359.2,302.2 L 359.0,310.5 L 358.8,313.6 L 358.7,316.7 L 358.6,318.6 L 358.6,319.7 L 358.6,319.8 L 358.6,320.0 L 358.6,320.1 L 358.6,320.3 L 358.7,320.4 L 358.8,320.6 L 358.8,320.7 L 358.9,320.9 L 359.0,321.0 L 359.2,321.2 L 359.3,321.3 L 359.5,321.4 L 359.6,321.5 L 359.7,321.6 L 359.8,321.7 L 360.0,321.7 L 360.1,321.8 L 360.3,321.9 L 360.5,321.9 L 361.8,322.3 L 362.0,322.3 L 362.1,322.4 L 362.2,322.4 L 362.3,322.5 L 362.5,322.6 L 362.6,322.7 L 362.7,322.7 L 362.8,322.8 L 362.9,322.9 L 363.0,323.0 L 363.1,323.2 L 363.2,323.3 L 363.3,323.4 L 363.4,323.5 L 363.5,323.7 L 363.6,323.8 L 363.7,323.9 L 363.8,324.0 L 363.8,324.2 L 363.9,324.3 L 363.9,324.5 L 363.9,324.7 L 366.0,335.4 L 366.0,335.7 L 366.1,336.1 L 366.2,336.4 L 366.2,336.6 L 366.3,336.8 L 366.4,337.0 L 366.5,337.2 L 366.5,337.4 L 366.6,337.6 L 366.8,337.9 L 366.9,338.1 L 367.0,338.3 L 367.2,338.6 L 367.3,338.7 L 367.5,338.9 L 367.6,339.1 L 367.7,339.2 L 367.8,339.3 L 368.0,339.5 L 368.1,339.6 L 368.2,339.7 L 368.4,339.8 L 368.5,339.9 L 368.7,340.0 L 368.8,340.1 L 369.0,340.2 L 369.1,340.3 L 369.3,340.3 L 369.5,340.4 L 371.0,341.0 L 371.1,341.1 L 371.3,341.2 L 371.5,341.3 L 371.7,341.4 L 371.8,341.4 L 371.9,341.5 L 372.0,341.6 L 372.1,341.7 L 372.2,341.7 L 372.3,341.8 L 372.5,342.0 L 372.6,342.1 L 372.7,342.2 L 372.8,342.4 L 373.0,342.5 L 373.1,342.6 L 373.2,342.8 L 373.3,343.0 L 373.4,343.2 L 373.5,343.4 L 373.6,343.5 L 373.7,343.7 L 373.8,343.9 L 373.9,344.3 L 374.1,344.6 L 374.2,345.0 L 374.3,345.5 L 376.0,351.6 L 380.4,367.7 L 382.6,375.8 L 389.0,399.1 L 390.6,405.5 L 391.1,407.4 L 391.2,408.2 L 391.4,409.1 L 391.5,409.7 L 391.6,410.3 L 391.6,411.2 L 391.6,412.0 L 391.5,413.6 L 391.4,414.7 L 391.3,415.8 L 391.2,416.7 L 391.1,417.6 L 390.2,423.0 L 390.0,424.6 L 389.9,425.5 L 389.8,426.4 L 389.8,427.4 L 389.8,428.6 L 389.8,429.3 L 389.9,429.9 L 390.0,430.7 L 390.1,432.0 L 391.7,441.8 Z" fill="none" stroke="#39404f" stroke-width="8.5" stroke-linejoin="round" stroke-linecap="round"/>
<path d="M 391.7,441.8 L 392.8,450.0 L 393.5,454.5 L 393.6,455.7 L 393.8,456.9 L 393.9,458.0 L 393.9,459.0 L 393.9,459.8 L 393.9,460.4 L 393.9,461.0 L 393.8,461.6 L 393.7,462.1 L 393.6,462.7 L 393.4,463.4 L 393.1,464.3 L 392.9,465.1 L 392.5,466.0 L 392.1,466.7 L 391.8,467.4 L 391.3,468.1 L 390.9,468.8 L 390.5,469.4 L 390.0,469.9 L 389.3,470.6 L 388.5,471.4 L 384.6,474.7 L 383.7,475.5 L 383.1,476.0 L 382.7,476.4 L 382.2,476.9 L 381.8,477.4 L 381.4,477.8 L 381.1,478.2 L 380.7,478.7 L 380.3,479.1 L 380.0,479.6 L 379.6,480.2 L 379.2,480.8 L 378.8,481.5 L 378.4,482.1 L 378.1,482.7 L 377.8,483.4 L 377.5,484.0 L 377.2,484.8 L 377.0,485.5 L 376.7,486.1 L 376.6,486.7 L 376.4,487.5 L 376.3,488.2 L 376.2,488.8 L 376.1,489.5 L 376.0,490.2 L 375.9,490.8 L 375.9,491.5 L 375.9,492.1 L 375.9,492.8 L 375.9,493.6 L 376.0,494.3 L 376.0,495.0 L 376.1,495.8 L 376.2,496.6 L 376.4,497.5 L 376.5,498.3 L 376.7,498.9 L 376.9,499.7 L 377.1,500.3 L 377.3,500.9 L 377.6,501.4 L 377.8,502.0 L 378.1,502.6 L 378.4,503.2 L 378.8,503.8 L 379.2,504.4 L 379.5,505.0 L 379.9,505.5 L 380.3,506.2 L 380.7,506.7 L 381.1,507.2 L 381.5,507.7 L 382.0,508.2 L 382.5,508.8 L 383.2,509.4 L 384.1,510.1 L 384.9,510.9 L 389.0,514.3 L 390.0,515.3 L 391.3,516.5 L 392.0,517.4 L 392.4,517.9 L 392.8,518.3 L 393.1,518.8 L 393.5,519.2 L 393.9,519.9 L 394.3,520.7 L 394.7,521.5 L 395.2,523.3 L 395.6,524.7 L 395.9,526.4 L 396.2,528.4 L 396.7,533.0 L 397.3,539.9 L 397.5,542.6 L 397.5,544.8 L 397.5,545.7 L 397.4,546.6 L 397.2,547.5 L 397.0,548.4 L 396.8,549.4 L 396.5,550.4 L 396.1,551.4 L 395.8,552.3 L 395.4,553.0 L 395.0,553.9 L 394.8,554.3 L 394.4,554.9 L 394.1,555.4 L 393.5,556.2 L 392.9,557.0 L 392.2,557.8 L 382.7,568.2 L 381.9,569.0 L 381.2,569.8 L 380.6,570.4 L 379.9,571.5 L 379.3,572.4 L 378.6,573.6 L 378.1,574.6 L 377.6,575.7 L 377.1,576.9 L 376.7,578.0 L 376.4,579.2 L 376.2,580.5 L 376.0,581.8 L 375.9,583.4 L 375.9,585.1 L 376.0,586.5 L 376.1,588.0 L 376.4,589.3 L 376.8,590.9 L 378.6,594.5 L 379.9,597.1 L 380.8,598.8 L 381.7,600.4 L 382.8,602.2 L 384.3,604.7 L 386.3,607.7 L 388.2,610.2 L 390.4,613.2 L 392.1,615.5 L 394.1,618.4 L 395.5,620.5 L 396.5,622.0 L 397.5,623.6 L 398.6,625.6 L 399.5,627.4 L 400.8,629.8 L 404.8,638.3 L 407.2,643.4 L 409.0,647.2 L 410.7,650.6 L 425.0,678.7 L 425.9,680.5 L 426.7,682.3 L 427.5,684.2 L 428.3,686.0 L 429.0,687.8 L 429.6,689.7 L 430.2,691.6 L 430.8,693.5 L 431.7,697.0 L 448.4,767.9 L 449.1,770.7 L 449.5,772.1 L 449.7,772.7 L 449.8,772.9 L 449.9,773.1 L 450.0,773.2 L 450.1,773.4 L 450.3,773.6 L 450.4,773.7 L 450.6,773.8 L 450.7,773.9 L 450.9,774.0 L 451.1,774.0 L 451.2,774.1 L 451.4,774.1 L 451.6,774.2 L 451.8,774.2 L 452.1,774.2 L 452.3,774.2 L 452.6,774.2 L 452.9,774.1 L 453.2,774.0 L 476.9,764.7 L 489.9,759.7 L 490.8,759.4 L 491.9,759.1 L 492.6,758.9 L 493.4,758.8 L 494.1,758.8 L 494.8,758.9 L 495.3,759.0 L 495.8,759.1 L 496.3,759.4 L 496.9,759.6 L 497.4,760.0 L 497.8,760.4 L 498.2,760.8 L 498.5,761.2 L 498.8,761.7 L 499.1,762.2 L 499.3,762.8 L 499.8,764.0 L 501.4,769.2 L 503.3,775.1 L 504.9,780.4 L 505.4,782.2 L 506.0,783.3 L 506.7,784.7 L 507.5,786.0 L 508.4,787.0 L 509.3,788.0 L 510.5,789.2 L 511.4,789.9 L 512.1,790.6 L 523.1,799.6 L 530.2,805.2 L 534.8,808.7 L 541.7,813.8 L 548.8,819.1 L 566.0,831.8 L 568.1,833.4 L 575.9,839.1 L 577.5,840.2 L 579.1,841.3 L 580.8,842.3 L 582.5,843.3 L 588.4,846.3 L 591.5,848.0 L 618.7,861.9 L 647.7,876.7 L 651.9,878.8 L 653.7,879.5 L 655.5,880.3 L 657.2,880.9 L 659.2,881.6 L 662.9,882.7 L 746.1,905.4 L 749.9,906.4 L 756.7,908.3 L 762.1,909.8 L 762.6,909.9 L 763.1,910.0 L 763.5,910.0 L 763.9,909.9 L 764.3,909.8 L 764.7,909.6 L 765.1,909.4 L 765.5,909.2 L 765.8,908.9 L 766.0,908.5 L 766.3,907.6 L 770.0,894.0 L 770.3,892.7 L 770.6,891.8 L 770.8,891.1 L 770.9,890.5 L 771.0,889.8 L 771.1,889.1 L 771.2,888.2 L 771.2,887.4 L 771.3,886.1 L 771.4,884.9 L 771.4,883.5 L 768.1,820.7 L 763.5,743.8 L 762.4,727.3 L 762.3,725.3 L 762.0,723.2 L 761.7,721.2 L 761.5,719.5 L 761.2,717.7 L 760.8,716.1 L 760.4,714.4 L 760.0,712.9 L 759.3,710.4 L 751.2,685.5 L 750.8,683.9 L 750.7,683.5 L 750.6,683.2 L 750.5,682.8 L 750.5,682.5 L 750.5,682.1 L 750.4,681.7 L 750.4,681.1 L 750.4,680.6 L 750.4,680.2 L 750.4,679.8 L 750.4,679.4 L 750.5,679.0 L 750.5,678.6 L 750.5,678.2 L 750.6,677.9 L 750.6,677.5 L 750.6,677.2 L 750.7,676.8 L 750.7,676.5 L 750.8,676.2 L 750.9,675.8 L 751.1,674.9 L 751.4,673.9 L 753.0,668.4 L 753.0,668.0 L 753.1,667.7 L 753.2,667.3 L 753.2,666.9 L 753.2,666.7 L 753.3,666.4 L 753.3,666.1 L 753.3,665.8 L 753.2,665.4 L 753.2,665.0 L 753.1,664.7 L 753.1,664.3 L 752.9,664.0 L 752.8,663.6 L 752.7,663.4 L 752.6,663.1 L 752.4,662.8 L 752.3,662.6 L 752.1,662.3 L 751.9,662.0 L 751.6,661.8 L 751.4,661.5 L 751.2,661.2 L 750.9,661.0 L 750.7,660.8 L 750.4,660.6 L 750.2,660.5 L 749.9,660.3 L 749.6,660.2 L 749.3,660.0 L 749.0,659.9 L 748.7,659.8 L 748.3,659.7 L 746.8,659.2 L 746.0,658.9 L 745.6,658.8 L 745.3,658.7 L 745.0,658.5 L 744.7,658.3 L 744.4,658.1 L 744.0,657.9 L 743.7,657.7 L 743.4,657.4 L 743.1,657.2 L 742.8,657.0 L 742.7,656.8 L 742.5,656.7 L 742.4,656.6 L 742.3,656.5 L 742.2,656.4 L 742.2,656.4 L 742.1,656.3 L 741.9,656.1 L 741.8,655.9 L 741.7,655.7 L 741.6,655.5 L 741.5,655.3 L 739.5,649.3 L 738.2,645.2 L 712.7,566.0 L 698.9,522.7 L 696.8,516.3 L 686.2,483.3 L 673.6,444.4 L 673.1,443.1 L 664.3,415.7 L 660.8,404.8 L 660.2,403.4 L 659.9,402.5 L 659.6,401.9 L 659.2,401.1 L 659.0,400.6 L 658.7,400.2 L 658.4,399.8 L 658.2,399.4 L 657.9,399.0 L 657.5,398.6 L 657.2,398.2 L 656.7,397.7 L 656.3,397.3 L 655.9,397.0 L 655.6,396.7 L 654.5,395.7 L 650.9,392.6 L 649.3,391.2 L 649.2,391.1 L 649.0,390.9 L 648.7,390.6 L 648.5,390.4 L 648.4,390.3 L 648.3,390.1 L 648.2,390.0 L 648.1,389.9 L 648.0,389.7 L 647.9,389.6 L 647.8,389.5 L 647.8,389.4 L 647.7,389.3 L 647.7,389.2 L 647.6,389.0 L 647.5,388.9 L 647.5,388.7 L 647.4,388.6 L 647.4,388.4 L 647.3,388.3 L 647.3,388.1 L 647.2,387.9 L 647.2,387.8 L 647.2,387.6 L 647.1,387.4 L 647.1,387.2 L 647.1,387.0 L 647.1,386.8 L 647.0,386.7 L 647.0,386.5 L 647.0,386.4 L 647.0,386.2 L 647.0,386.1 L 647.0,385.9 L 647.0,385.8 L 647.0,385.7 L 647.0,385.6 L 647.0,385.4 L 647.0,385.3 L 647.0,385.1 L 647.0,385.0 L 647.0,384.9 L 647.1,384.8 L 647.1,384.6 L 647.1,384.5 L 647.1,384.4 L 647.1,384.2 L 647.2,384.1 L 647.2,384.0 L 647.2,383.8 L 647.3,383.7 L 647.3,383.6 L 647.3,383.4 L 647.4,383.3 L 647.4,383.2 L 647.5,383.1 L 647.5,383.0 L 647.6,382.9 L 647.6,382.8 L 647.7,382.7 L 647.7,382.6 L 647.8,382.5 L 647.9,382.4 L 647.9,382.3 L 648.0,382.2 L 648.0,382.1 L 648.1,382.1 L 648.1,382.0 L 649.5,380.4 L 649.6,380.3 L 649.7,380.1 L 649.8,379.9 L 649.9,379.7 L 650.0,379.7 L 650.1,379.4 L 650.3,379.1 L 650.4,378.8 L 650.5,378.6 L 650.6,378.3 L 650.7,378.0 L 650.8,377.6 L 650.9,377.5 L 650.9,377.3 L 651.0,377.1 L 651.0,376.9 L 651.0,376.8 L 651.0,376.6 L 651.0,376.4 L 651.0,376.3 L 651.0,376.0 L 651.0,375.8 L 651.0,375.4 L 650.9,375.0 L 650.8,374.5 L 650.8,373.8 L 643.2,350.1 L 634.8,324.0 L 634.3,322.4 L 632.2,316.2 L 622.9,287.3 L 620.2,278.9 L 615.0,262.7 L 607.6,239.6 L 587.4,176.7 L 586.0,173.0 L 584.7,169.8 L 583.5,167.2 L 582.3,164.7 L 581.3,162.8 L 580.4,161.0 L 579.4,159.2 L 578.0,156.7 L 574.9,151.5 L 569.1,142.5 L 558.8,126.1 L 554.0,118.5 L 552.7,116.9 L 551.5,115.4 L 550.5,114.1 L 549.3,112.6 L 548.2,111.3 L 547.4,110.4 L 546.3,109.4 L 545.9,109.0 L 545.6,108.7 L 545.3,108.4 L 544.6,107.8 L 543.2,106.5 L 542.2,105.5 L 541.1,104.5 L 540.1,103.7 L 539.1,102.9 L 537.2,101.5 L 536.3,100.8 L 536.1,100.7 L 534.9,99.9 L 533.2,98.7 L 531.6,97.7 L 530.1,96.7 L 528.5,95.7 L 526.9,94.7 L 525.2,93.7 L 523.2,92.6 L 521.2,91.5 L 520.0,90.8 L 519.1,90.4 L 518.4,90.2 L 517.7,90.1 L 517.0,90.0 L 516.3,90.0 L 515.6,90.1 L 514.8,90.3 L 514.1,90.5 L 498.4,96.4 L 496.7,97.1 L 495.6,97.6 L 494.3,98.1 L 493.1,98.7 L 491.7,99.4 L 491.0,99.8 L 490.5,100.0 L 490.1,100.3 L 489.5,100.6 L 488.8,101.0 L 488.0,101.5 L 486.9,102.4 L 485.7,103.2 L 483.2,105.1 L 479.0,108.4 L 478.6,108.7 L 478.3,108.9 L 478.1,109.1 L 477.8,109.4 L 477.6,109.6 L 477.4,109.8 L 477.1,110.0 L 476.8,110.3 L 476.6,110.5 L 476.4,110.7 L 476.2,111.0 L 476.0,111.3 L 475.8,111.6 L 475.6,111.9 L 475.5,112.2 L 475.3,112.5 L 475.2,112.8 L 475.0,113.2 L 474.9,113.5 L 474.8,113.9 L 474.6,114.3 L 474.5,114.8 L 474.3,115.2 L 474.2,115.6 L 474.1,116.0 L 474.1,116.4 L 474.0,116.8 L 473.9,117.3 L 473.9,117.7 L 473.8,118.0 L 473.8,118.4 L 473.8,118.9 L 473.7,119.3 L 473.7,119.7 L 473.7,121.3 L 473.7,121.9 L 473.7,122.4 L 473.7,122.7 L 473.7,122.9 L 473.7,123.1 L 473.6,123.4 L 473.6,123.7 L 473.5,124.0 L 473.4,124.4 L 473.2,124.8 L 473.0,125.3 L 472.8,125.8 L 472.6,126.3 L 472.4,126.8 L 472.1,127.3 L 471.9,127.7 L 471.7,128.1 L 471.4,128.5 L 471.1,128.9 L 470.8,129.3 L 470.5,129.6 L 470.2,130.0 L 469.7,130.4 L 469.3,130.8 L 468.9,131.1 L 468.5,131.4 L 468.0,131.7 L 467.6,132.0 L 467.2,132.2 L 466.8,132.4 L 466.5,132.5 L 466.2,132.6 L 465.8,132.7 L 465.4,132.8 L 464.9,133.0 L 464.3,133.0 L 463.7,133.1 L 462.6,133.2 L 460.8,133.3 L 459.2,133.4 L 455.9,133.5 L 451.3,133.7 L 449.0,133.8 L 447.3,134.0 L 446.6,134.1 L 446.0,134.2 L 445.2,134.3 L 444.5,134.5 L 444.0,134.7 L 443.4,134.9 L 442.7,135.2 L 442.1,135.4 L 441.3,135.7 L 440.4,136.1 L 438.6,136.9 L 436.9,137.8 L 436.7,137.8 L 436.5,138.0 L 436.2,138.1 L 435.9,138.3 L 435.5,138.6 L 435.1,138.8 L 434.8,139.1 L 434.3,139.5 L 433.6,140.2 L 432.9,140.7 L 432.2,141.5 L 431.5,142.2 L 430.8,143.0 L 430.1,144.0 L 427.9,147.2 L 425.7,150.3 L 425.2,151.1 L 424.7,151.7 L 424.2,152.4 L 423.5,153.1 L 422.9,153.8 L 422.2,154.4 L 421.4,155.1 L 420.5,155.8 L 419.5,156.5 L 418.0,157.5 L 415.8,158.9 L 413.6,160.3 L 399.6,169.3 L 399.4,169.4 L 399.3,169.5 L 399.2,169.5 L 399.1,169.6 L 399.1,169.7 L 399.0,169.8 L 398.9,169.8 L 398.8,169.9 L 398.7,170.0 L 398.6,170.1 L 398.6,170.3 L 398.5,170.4 L 398.4,170.5 L 398.3,170.6 L 398.3,170.7 L 398.2,170.8 L 398.2,171.0 L 398.1,171.1 L 398.1,171.2 L 398.0,171.3 L 398.0,171.4 L 397.9,171.5 L 397.9,171.6 L 397.9,171.7 L 397.9,171.9 L 397.9,172.0 L 397.9,172.1 L 397.9,172.3 L 397.9,172.4 L 397.9,172.5 L 397.9,172.7 L 397.9,172.8 L 397.9,173.0 L 397.9,173.1 L 397.9,173.2 L 398.0,173.4 L 399.1,178.1 L 399.1,178.4 L 399.2,178.6 L 399.2,178.7 L 399.2,178.8 L 399.2,178.9 L 399.2,179.1 L 399.2,179.2 L 399.2,179.4 L 399.2,179.5 L 399.2,179.6 L 399.2,179.7 L 399.2,179.8 L 399.2,179.9 L 399.1,180.0 L 399.1,180.2 L 399.1,180.3 L 399.0,180.4 L 399.0,180.5 L 398.9,180.6 L 398.9,180.7 L 398.8,180.8 L 398.7,181.0 L 398.7,181.1 L 398.6,181.2 L 398.5,181.3 L 398.3,181.4 L 398.3,181.5 L 398.1,181.6 L 398.0,181.7 L 397.9,181.8 L 397.6,181.9 L 380.6,192.4 L 378.9,193.5 L 378.2,194.0 L 377.5,194.6 L 377.1,195.0 L 376.7,195.4 L 376.3,195.8 L 375.7,196.4 L 375.1,197.1 L 374.4,197.9 L 373.9,198.7 L 373.4,199.4 L 372.9,200.1 L 372.6,200.6 L 372.3,201.2 L 371.9,201.8 L 371.6,202.5 L 371.2,203.3 L 370.4,205.2 L 369.5,207.6 L 368.5,209.9 L 367.6,212.6 L 366.6,215.5 L 365.8,218.3 L 365.2,220.6 L 364.7,222.7 L 364.3,224.2 L 363.3,229.1 L 362.8,231.8 L 362.4,234.1 L 362.1,235.8 L 361.8,237.8 L 361.7,239.3 L 361.5,240.8 L 361.4,241.9 L 361.2,244.0 L 361.1,246.0 L 360.3,271.2 L 359.8,284.2 L 359.5,293.1 L 359.2,302.2 L 359.0,310.5 L 358.8,313.6 L 358.7,316.7 L 358.6,318.6 L 358.6,319.7 L 358.6,319.8 L 358.6,320.0 L 358.6,320.1 L 358.6,320.3 L 358.7,320.4 L 358.8,320.6 L 358.8,320.7 L 358.9,320.9 L 359.0,321.0 L 359.2,321.2 L 359.3,321.3 L 359.5,321.4 L 359.6,321.5 L 359.7,321.6 L 359.8,321.7 L 360.0,321.7 L 360.1,321.8 L 360.3,321.9 L 360.5,321.9 L 361.8,322.3 L 362.0,322.3 L 362.1,322.4 L 362.2,322.4 L 362.3,322.5 L 362.5,322.6 L 362.6,322.7 L 362.7,322.7 L 362.8,322.8 L 362.9,322.9 L 363.0,323.0 L 363.1,323.2 L 363.2,323.3 L 363.3,323.4 L 363.4,323.5 L 363.5,323.7 L 363.6,323.8 L 363.7,323.9 L 363.8,324.0 L 363.8,324.2 L 363.9,324.3 L 363.9,324.5 L 363.9,324.7 L 366.0,335.4 L 366.0,335.7 L 366.1,336.1 L 366.2,336.4 L 366.2,336.6 L 366.3,336.8 L 366.4,337.0 L 366.5,337.2 L 366.5,337.4 L 366.6,337.6 L 366.8,337.9 L 366.9,338.1 L 367.0,338.3 L 367.2,338.6 L 367.3,338.7 L 367.5,338.9 L 367.6,339.1 L 367.7,339.2 L 367.8,339.3 L 368.0,339.5 L 368.1,339.6 L 368.2,339.7 L 368.4,339.8 L 368.5,339.9 L 368.7,340.0 L 368.8,340.1 L 369.0,340.2 L 369.1,340.3 L 369.3,340.3 L 369.5,340.4 L 371.0,341.0 L 371.1,341.1 L 371.3,341.2 L 371.5,341.3 L 371.7,341.4 L 371.8,341.4 L 371.9,341.5 L 372.0,341.6 L 372.1,341.7 L 372.2,341.7 L 372.3,341.8 L 372.5,342.0 L 372.6,342.1 L 372.7,342.2 L 372.8,342.4 L 373.0,342.5 L 373.1,342.6 L 373.2,342.8 L 373.3,343.0 L 373.4,343.2 L 373.5,343.4 L 373.6,343.5 L 373.7,343.7 L 373.8,343.9 L 373.9,344.3 L 374.1,344.6 L 374.2,345.0 L 374.3,345.5 L 376.0,351.6 L 380.4,367.7 L 382.6,375.8 L 389.0,399.1 L 390.6,405.5 L 391.1,407.4 L 391.2,408.2 L 391.4,409.1 L 391.5,409.7 L 391.6,410.3 L 391.6,411.2 L 391.6,412.0 L 391.5,413.6 L 391.4,414.7 L 391.3,415.8 L 391.2,416.7 L 391.1,417.6 L 390.2,423.0 L 390.0,424.6 L 389.9,425.5 L 389.8,426.4 L 389.8,427.4 L 389.8,428.6 L 389.8,429.3 L 389.9,429.9 L 390.0,430.7 L 390.1,432.0 L 391.7,441.8 Z" fill="none" stroke="#e7edf8" stroke-width="2.6" stroke-linejoin="round" stroke-linecap="round"/>
<path d="M 391.7,441.8 L 392.8,450.0 L 393.5,454.5 L 393.6,455.7 L 393.8,456.9 L 393.9,458.0 L 393.9,459.0 L 393.9,459.8 L 393.9,460.4 L 393.9,461.0 L 393.8,461.6 L 393.7,462.1 L 393.6,462.7 L 393.4,463.4 L 393.1,464.3 L 392.9,465.1 L 392.5,466.0 L 392.1,466.7 L 391.8,467.4 L 391.3,468.1 L 390.9,468.8 L 390.5,469.4 L 390.0,469.9 L 389.3,470.6 L 388.5,471.4 L 384.6,474.7 L 383.7,475.5 L 383.1,476.0 L 382.7,476.4 L 382.2,476.9 L 381.8,477.4 L 381.4,477.8 L 381.1,478.2 L 380.7,478.7 L 380.3,479.1 L 380.0,479.6 L 379.6,480.2 L 379.2,480.8 L 378.8,481.5 L 378.4,482.1 L 378.1,482.7 L 377.8,483.4 L 377.5,484.0 L 377.2,484.8 L 377.0,485.5 L 376.7,486.1 L 376.6,486.7 L 376.4,487.5 L 376.3,488.2 L 376.2,488.8 L 376.1,489.5 L 376.0,490.2 L 375.9,490.8 L 375.9,491.5 L 375.9,492.1 L 375.9,492.8 L 375.9,493.6 L 376.0,494.3 L 376.0,495.0 L 376.1,495.8 L 376.2,496.6 L 376.4,497.5 L 376.5,498.3 L 376.7,498.9 L 376.9,499.7 L 377.1,500.3 L 377.3,500.9 L 377.6,501.4 L 377.8,502.0 L 378.1,502.6 L 378.4,503.2 L 378.8,503.8 L 379.2,504.4 L 379.5,505.0 L 379.9,505.5 L 380.3,506.2 L 380.7,506.7 L 381.1,507.2 L 381.5,507.7 L 382.0,508.2 L 382.5,508.8 L 383.2,509.4 L 384.1,510.1 L 384.9,510.9 L 389.0,514.3 L 390.0,515.3 L 391.3,516.5 L 392.0,517.4 L 392.4,517.9 L 392.8,518.3 L 393.1,518.8 L 393.5,519.2 L 393.9,519.9 L 394.3,520.7 L 394.7,521.5 L 395.2,523.3 L 395.6,524.7 L 395.9,526.4 L 396.2,528.4 L 396.7,533.0 L 397.3,539.9 L 397.5,542.6 L 397.5,544.8 L 397.5,545.7 L 397.4,546.6 L 397.2,547.5 L 397.0,548.4 L 396.8,549.4 L 396.5,550.4 L 396.1,551.4 L 395.8,552.3 L 395.4,553.0 L 395.0,553.9 L 394.8,554.3 L 394.4,554.9 L 394.1,555.4 L 393.5,556.2 L 392.9,557.0 L 392.2,557.8 L 382.7,568.2 L 381.9,569.0 L 381.2,569.8 L 380.6,570.4 L 379.9,571.5 L 379.3,572.4 L 378.6,573.6 L 378.1,574.6 L 377.6,575.7 L 377.1,576.9 L 376.7,578.0 L 376.4,579.2 L 376.2,580.5 L 376.0,581.8 L 375.9,583.4 L 375.9,585.1 L 376.0,586.5 L 376.1,588.0 L 376.4,589.3 L 376.8,590.9 L 378.6,594.5 L 379.9,597.1 L 380.8,598.8 L 381.7,600.4 L 382.8,602.2 L 384.3,604.7 L 386.3,607.7 L 388.2,610.2 L 390.4,613.2 L 392.1,615.5 L 394.1,618.4 L 395.5,620.5 L 396.5,622.0 L 397.5,623.6 L 398.6,625.6 L 399.5,627.4 L 400.8,629.8 L 404.8,638.3 L 407.2,643.4 L 409.0,647.2 L 410.7,650.6 L 425.0,678.7 L 425.9,680.5 L 426.7,682.3 L 427.5,684.2 L 428.3,686.0 L 429.0,687.8 L 429.6,689.7 L 430.2,691.6 L 430.8,693.5 L 431.7,697.0 L 448.4,767.9 L 449.1,770.7 L 449.5,772.1 L 449.7,772.7 L 449.8,772.9 L 449.9,773.1 L 450.0,773.2 L 450.1,773.4 L 450.3,773.6 L 450.4,773.7 L 450.6,773.8 L 450.7,773.9 L 450.9,774.0 L 451.1,774.0 L 451.2,774.1 L 451.4,774.1 L 451.6,774.2 L 451.8,774.2 L 452.1,774.2 L 452.3,774.2 L 452.6,774.2 L 452.9,774.1 L 453.2,774.0 L 476.9,764.7 L 489.9,759.7 L 490.8,759.4 L 491.9,759.1 L 492.6,758.9 L 493.4,758.8 L 494.1,758.8 L 494.8,758.9 L 495.3,759.0 L 495.8,759.1 L 496.3,759.4 L 496.9,759.6 L 497.4,760.0 L 497.8,760.4 L 498.2,760.8 L 498.5,761.2 L 498.8,761.7 L 499.1,762.2 L 499.3,762.8 L 499.8,764.0 L 501.4,769.2 L 503.3,775.1 L 504.9,780.4 L 505.4,782.2 L 506.0,783.3 L 506.7,784.7 L 507.5,786.0 L 508.4,787.0 L 509.3,788.0 L 510.5,789.2 L 511.4,789.9 L 512.1,790.6 L 523.1,799.6 L 530.2,805.2 L 534.8,808.7 L 541.7,813.8 L 548.8,819.1 L 566.0,831.8 L 568.1,833.4 L 575.9,839.1 L 577.5,840.2 L 579.1,841.3 L 580.8,842.3 L 582.5,843.3 L 588.4,846.3 L 591.5,848.0 L 618.7,861.9 L 647.7,876.7 L 651.9,878.8 L 653.7,879.5 L 655.5,880.3 L 657.2,880.9 L 659.2,881.6 L 662.9,882.7 L 746.1,905.4 L 749.9,906.4 L 756.7,908.3 L 762.1,909.8 L 762.6,909.9 L 763.1,910.0 L 763.5,910.0 L 763.9,909.9 L 764.3,909.8 L 764.7,909.6 L 765.1,909.4 L 765.5,909.2 L 765.8,908.9 L 766.0,908.5 L 766.3,907.6 L 770.0,894.0 L 770.3,892.7 L 770.6,891.8 L 770.8,891.1 L 770.9,890.5 L 771.0,889.8 L 771.1,889.1 L 771.2,888.2 L 771.2,887.4 L 771.3,886.1 L 771.4,884.9 L 771.4,883.5 L 768.1,820.7 L 763.5,743.8 L 762.4,727.3 L 762.3,725.3 L 762.0,723.2 L 761.7,721.2 L 761.5,719.5 L 761.2,717.7 L 760.8,716.1 L 760.4,714.4 L 760.0,712.9 L 759.3,710.4 L 751.2,685.5 L 750.8,683.9 L 750.7,683.5 L 750.6,683.2 L 750.5,682.8 L 750.5,682.5 L 750.5,682.1 L 750.4,681.7 L 750.4,681.1 L 750.4,680.6 L 750.4,680.2 L 750.4,679.8 L 750.4,679.4 L 750.5,679.0 L 750.5,678.6 L 750.5,678.2 L 750.6,677.9 L 750.6,677.5 L 750.6,677.2 L 750.7,676.8 L 750.7,676.5 L 750.8,676.2 L 750.9,675.8 L 751.1,674.9 L 751.4,673.9 L 753.0,668.4 L 753.0,668.0 L 753.1,667.7 L 753.2,667.3 L 753.2,666.9 L 753.2,666.7 L 753.3,666.4 L 753.3,666.1 L 753.3,665.8 L 753.2,665.4 L 753.2,665.0 L 753.1,664.7 L 753.1,664.3 L 752.9,664.0 L 752.8,663.6 L 752.7,663.4 L 752.6,663.1 L 752.4,662.8 L 752.3,662.6 L 752.1,662.3 L 751.9,662.0 L 751.6,661.8 L 751.4,661.5 L 751.2,661.2 L 750.9,661.0 L 750.7,660.8 L 750.4,660.6 L 750.2,660.5 L 749.9,660.3 L 749.6,660.2 L 749.3,660.0 L 749.0,659.9 L 748.7,659.8 L 748.3,659.7 L 746.8,659.2 L 746.0,658.9 L 745.6,658.8 L 745.3,658.7 L 745.0,658.5 L 744.7,658.3 L 744.4,658.1 L 744.0,657.9 L 743.7,657.7 L 743.4,657.4 L 743.1,657.2 L 742.8,657.0 L 742.7,656.8 L 742.5,656.7 L 742.4,656.6 L 742.3,656.5 L 742.2,656.4 L 742.2,656.4 L 742.1,656.3 L 741.9,656.1 L 741.8,655.9 L 741.7,655.7 L 741.6,655.5 L 741.5,655.3 L 739.5,649.3 L 738.2,645.2 L 712.7,566.0 L 698.9,522.7 L 696.8,516.3 L 686.2,483.3 L 673.6,444.4 L 673.1,443.1 L 664.3,415.7 L 660.8,404.8 L 660.2,403.4 L 659.9,402.5 L 659.6,401.9 L 659.2,401.1 L 659.0,400.6 L 658.7,400.2 L 658.4,399.8 L 658.2,399.4 L 657.9,399.0 L 657.5,398.6 L 657.2,398.2 L 656.7,397.7 L 656.3,397.3 L 655.9,397.0 L 655.6,396.7 L 654.5,395.7 L 650.9,392.6 L 649.3,391.2 L 649.2,391.1 L 649.0,390.9 L 648.7,390.6 L 648.5,390.4 L 648.4,390.3 L 648.3,390.1 L 648.2,390.0 L 648.1,389.9 L 648.0,389.7 L 647.9,389.6 L 647.8,389.5 L 647.8,389.4 L 647.7,389.3 L 647.7,389.2 L 647.6,389.0 L 647.5,388.9 L 647.5,388.7 L 647.4,388.6 L 647.4,388.4 L 647.3,388.3 L 647.3,388.1 L 647.2,387.9 L 647.2,387.8 L 647.2,387.6 L 647.1,387.4 L 647.1,387.2 L 647.1,387.0 L 647.1,386.8 L 647.0,386.7 L 647.0,386.5 L 647.0,386.4 L 647.0,386.2 L 647.0,386.1 L 647.0,385.9 L 647.0,385.8 L 647.0,385.7 L 647.0,385.6 L 647.0,385.4 L 647.0,385.3 L 647.0,385.1 L 647.0,385.0 L 647.0,384.9 L 647.1,384.8 L 647.1,384.6 L 647.1,384.5 L 647.1,384.4 L 647.1,384.2 L 647.2,384.1 L 647.2,384.0 L 647.2,383.8 L 647.3,383.7 L 647.3,383.6 L 647.3,383.4 L 647.4,383.3 L 647.4,383.2 L 647.5,383.1 L 647.5,383.0 L 647.6,382.9 L 647.6,382.8 L 647.7,382.7 L 647.7,382.6 L 647.8,382.5 L 647.9,382.4 L 647.9,382.3 L 648.0,382.2 L 648.0,382.1 L 648.1,382.1 L 648.1,382.0 L 649.5,380.4 L 649.6,380.3 L 649.7,380.1 L 649.8,379.9 L 649.9,379.7 L 650.0,379.7 L 650.1,379.4 L 650.3,379.1 L 650.4,378.8 L 650.5,378.6 L 650.6,378.3 L 650.7,378.0 L 650.8,377.6 L 650.9,377.5 L 650.9,377.3 L 651.0,377.1 L 651.0,376.9 L 651.0,376.8 L 651.0,376.6 L 651.0,376.4 L 651.0,376.3 L 651.0,376.0 L 651.0,375.8 L 651.0,375.4 L 650.9,375.0 L 650.8,374.5 L 650.8,373.8 L 643.2,350.1 L 634.8,324.0 L 634.3,322.4 L 632.2,316.2 L 622.9,287.3 L 620.2,278.9 L 615.0,262.7 L 607.6,239.6 L 587.4,176.7 L 586.0,173.0 L 584.7,169.8 L 583.5,167.2 L 582.3,164.7 L 581.3,162.8 L 580.4,161.0 L 579.4,159.2 L 578.0,156.7 L 574.9,151.5 L 569.1,142.5 L 558.8,126.1 L 554.0,118.5 L 552.7,116.9 L 551.5,115.4 L 550.5,114.1 L 549.3,112.6 L 548.2,111.3 L 547.4,110.4 L 546.3,109.4 L 545.9,109.0 L 545.6,108.7 L 545.3,108.4 L 544.6,107.8 L 543.2,106.5 L 542.2,105.5 L 541.1,104.5 L 540.1,103.7 L 539.1,102.9 L 537.2,101.5 L 536.3,100.8 L 536.1,100.7 L 534.9,99.9 L 533.2,98.7 L 531.6,97.7 L 530.1,96.7 L 528.5,95.7 L 526.9,94.7 L 525.2,93.7 L 523.2,92.6 L 521.2,91.5 L 520.0,90.8 L 519.1,90.4 L 518.4,90.2 L 517.7,90.1 L 517.0,90.0 L 516.3,90.0 L 515.6,90.1 L 514.8,90.3 L 514.1,90.5 L 498.4,96.4 L 496.7,97.1 L 495.6,97.6 L 494.3,98.1 L 493.1,98.7 L 491.7,99.4 L 491.0,99.8 L 490.5,100.0 L 490.1,100.3 L 489.5,100.6 L 488.8,101.0 L 488.0,101.5 L 486.9,102.4 L 485.7,103.2 L 483.2,105.1 L 479.0,108.4 L 478.6,108.7 L 478.3,108.9 L 478.1,109.1 L 477.8,109.4 L 477.6,109.6 L 477.4,109.8 L 477.1,110.0 L 476.8,110.3 L 476.6,110.5 L 476.4,110.7 L 476.2,111.0 L 476.0,111.3 L 475.8,111.6 L 475.6,111.9 L 475.5,112.2 L 475.3,112.5 L 475.2,112.8 L 475.0,113.2 L 474.9,113.5 L 474.8,113.9 L 474.6,114.3 L 474.5,114.8 L 474.3,115.2 L 474.2,115.6 L 474.1,116.0 L 474.1,116.4 L 474.0,116.8 L 473.9,117.3 L 473.9,117.7 L 473.8,118.0 L 473.8,118.4 L 473.8,118.9 L 473.7,119.3 L 473.7,119.7 L 473.7,121.3 L 473.7,121.9 L 473.7,122.4 L 473.7,122.7 L 473.7,122.9 L 473.7,123.1 L 473.6,123.4 L 473.6,123.7 L 473.5,124.0 L 473.4,124.4 L 473.2,124.8 L 473.0,125.3 L 472.8,125.8 L 472.6,126.3 L 472.4,126.8 L 472.1,127.3 L 471.9,127.7 L 471.7,128.1 L 471.4,128.5 L 471.1,128.9 L 470.8,129.3 L 470.5,129.6 L 470.2,130.0 L 469.7,130.4 L 469.3,130.8 L 468.9,131.1 L 468.5,131.4 L 468.0,131.7 L 467.6,132.0 L 467.2,132.2 L 466.8,132.4 L 466.5,132.5 L 466.2,132.6 L 465.8,132.7 L 465.4,132.8 L 464.9,133.0 L 464.3,133.0 L 463.7,133.1 L 462.6,133.2 L 460.8,133.3 L 459.2,133.4 L 455.9,133.5 L 451.3,133.7 L 449.0,133.8 L 447.3,134.0 L 446.6,134.1 L 446.0,134.2 L 445.2,134.3 L 444.5,134.5 L 444.0,134.7 L 443.4,134.9 L 442.7,135.2 L 442.1,135.4 L 441.3,135.7 L 440.4,136.1 L 438.6,136.9 L 436.9,137.8 L 436.7,137.8 L 436.5,138.0 L 436.2,138.1 L 435.9,138.3 L 435.5,138.6 L 435.1,138.8 L 434.8,139.1 L 434.3,139.5 L 433.6,140.2 L 432.9,140.7 L 432.2,141.5 L 431.5,142.2 L 430.8,143.0 L 430.1,144.0 L 427.9,147.2 L 425.7,150.3 L 425.2,151.1 L 424.7,151.7 L 424.2,152.4 L 423.5,153.1 L 422.9,153.8 L 422.2,154.4 L 421.4,155.1 L 420.5,155.8 L 419.5,156.5 L 418.0,157.5 L 415.8,158.9 L 413.6,160.3 L 399.6,169.3 L 399.4,169.4 L 399.3,169.5 L 399.2,169.5 L 399.1,169.6 L 399.1,169.7 L 399.0,169.8 L 398.9,169.8 L 398.8,169.9 L 398.7,170.0 L 398.6,170.1 L 398.6,170.3 L 398.5,170.4 L 398.4,170.5 L 398.3,170.6 L 398.3,170.7 L 398.2,170.8 L 398.2,171.0 L 398.1,171.1 L 398.1,171.2 L 398.0,171.3 L 398.0,171.4 L 397.9,171.5 L 397.9,171.6 L 397.9,171.7 L 397.9,171.9 L 397.9,172.0 L 397.9,172.1 L 397.9,172.3 L 397.9,172.4 L 397.9,172.5 L 397.9,172.7 L 397.9,172.8 L 397.9,173.0 L 397.9,173.1 L 397.9,173.2 L 398.0,173.4 L 399.1,178.1 L 399.1,178.4 L 399.2,178.6 L 399.2,178.7 L 399.2,178.8 L 399.2,178.9 L 399.2,179.1 L 399.2,179.2 L 399.2,179.4 L 399.2,179.5 L 399.2,179.6 L 399.2,179.7 L 399.2,179.8 L 399.2,179.9 L 399.1,180.0 L 399.1,180.2 L 399.1,180.3 L 399.0,180.4 L 399.0,180.5 L 398.9,180.6 L 398.9,180.7 L 398.8,180.8 L 398.7,181.0 L 398.7,181.1 L 398.6,181.2 L 398.5,181.3 L 398.3,181.4 L 398.3,181.5 L 398.1,181.6 L 398.0,181.7 L 397.9,181.8 L 397.6,181.9 L 380.6,192.4 L 378.9,193.5 L 378.2,194.0 L 377.5,194.6 L 377.1,195.0 L 376.7,195.4 L 376.3,195.8 L 375.7,196.4 L 375.1,197.1 L 374.4,197.9 L 373.9,198.7 L 373.4,199.4 L 372.9,200.1 L 372.6,200.6 L 372.3,201.2 L 371.9,201.8 L 371.6,202.5 L 371.2,203.3 L 370.4,205.2 L 369.5,207.6 L 368.5,209.9 L 367.6,212.6 L 366.6,215.5 L 365.8,218.3 L 365.2,220.6 L 364.7,222.7 L 364.3,224.2 L 363.3,229.1 L 362.8,231.8 L 362.4,234.1 L 362.1,235.8 L 361.8,237.8 L 361.7,239.3 L 361.5,240.8 L 361.4,241.9 L 361.2,244.0 L 361.1,246.0 L 360.3,271.2 L 359.8,284.2 L 359.5,293.1 L 359.2,302.2 L 359.0,310.5 L 358.8,313.6 L 358.7,316.7 L 358.6,318.6 L 358.6,319.7 L 358.6,319.8 L 358.6,320.0 L 358.6,320.1 L 358.6,320.3 L 358.7,320.4 L 358.8,320.6 L 358.8,320.7 L 358.9,320.9 L 359.0,321.0 L 359.2,321.2 L 359.3,321.3 L 359.5,321.4 L 359.6,321.5 L 359.7,321.6 L 359.8,321.7 L 360.0,321.7 L 360.1,321.8 L 360.3,321.9 L 360.5,321.9 L 361.8,322.3 L 362.0,322.3 L 362.1,322.4 L 362.2,322.4 L 362.3,322.5 L 362.5,322.6 L 362.6,322.7 L 362.7,322.7 L 362.8,322.8 L 362.9,322.9 L 363.0,323.0 L 363.1,323.2 L 363.2,323.3 L 363.3,323.4 L 363.4,323.5 L 363.5,323.7 L 363.6,323.8 L 363.7,323.9 L 363.8,324.0 L 363.8,324.2 L 363.9,324.3 L 363.9,324.5 L 363.9,324.7 L 366.0,335.4 L 366.0,335.7 L 366.1,336.1 L 366.2,336.4 L 366.2,336.6 L 366.3,336.8 L 366.4,337.0 L 366.5,337.2 L 366.5,337.4 L 366.6,337.6 L 366.8,337.9 L 366.9,338.1 L 367.0,338.3 L 367.2,338.6 L 367.3,338.7 L 367.5,338.9 L 367.6,339.1 L 367.7,339.2 L 367.8,339.3 L 368.0,339.5 L 368.1,339.6 L 368.2,339.7 L 368.4,339.8 L 368.5,339.9 L 368.7,340.0 L 368.8,340.1 L 369.0,340.2 L 369.1,340.3 L 369.3,340.3 L 369.5,340.4 L 371.0,341.0 L 371.1,341.1 L 371.3,341.2 L 371.5,341.3 L 371.7,341.4 L 371.8,341.4 L 371.9,341.5 L 372.0,341.6 L 372.1,341.7 L 372.2,341.7 L 372.3,341.8 L 372.5,342.0 L 372.6,342.1 L 372.7,342.2 L 372.8,342.4 L 373.0,342.5 L 373.1,342.6 L 373.2,342.8 L 373.3,343.0 L 373.4,343.2 L 373.5,343.4 L 373.6,343.5 L 373.7,343.7 L 373.8,343.9 L 373.9,344.3 L 374.1,344.6 L 374.2,345.0 L 374.3,345.5 L 376.0,351.6 L 380.4,367.7 L 382.6,375.8 L 389.0,399.1 L 390.6,405.5 L 391.1,407.4 L 391.2,408.2 L 391.4,409.1 L 391.5,409.7 L 391.6,410.3 L 391.6,411.2 L 391.6,412.0 L 391.5,413.6 L 391.4,414.7 L 391.3,415.8 L 391.2,416.7 L 391.1,417.6 L 390.2,423.0 L 390.0,424.6 L 389.9,425.5 L 389.8,426.4 L 389.8,427.4 L 389.8,428.6 L 389.8,429.3 L 389.9,429.9 L 390.0,430.7 L 390.1,432.0 L 391.7,441.8 Z" fill="none" stroke="#e6007e" stroke-opacity="0.55" stroke-width="1.2" stroke-linejoin="round" filter="url(#glow)"/>
<circle cx="360.1" cy="275.4" r="13" fill="none" stroke="#ffffff" stroke-width="3"/>
<rect x="356.1" y="253.4" width="8" height="18" fill="#ffffff"/>
<circle cx="398.6" cy="175.3" r="7" fill="#e6007e" stroke="#0a0c12" stroke-width="2.5" filter="url(#glow)"/>
<text x="398.6" y="178.7" font-size="9" font-weight="700" fill="#0a0c12" text-anchor="middle">1</text>
<circle cx="398.6" cy="175.3" r="7" fill="#e6007e" stroke="#0a0c12" stroke-width="2.5" filter="url(#glow)"/>
<text x="398.6" y="178.7" font-size="9" font-weight="700" fill="#0a0c12" text-anchor="middle">2</text>
<circle cx="410.6" cy="162.2" r="7" fill="#e6007e" stroke="#0a0c12" stroke-width="2.5" filter="url(#glow)"/>
<text x="410.6" y="165.6" font-size="9" font-weight="700" fill="#0a0c12" text-anchor="middle">3</text>
<circle cx="472.6" cy="121.0" r="7" fill="#e6007e" stroke="#0a0c12" stroke-width="2.5" filter="url(#glow)"/>
<text x="472.6" y="124.4" font-size="9" font-weight="700" fill="#0a0c12" text-anchor="middle">4</text>
<circle cx="480.7" cy="107.1" r="7" fill="#e6007e" stroke="#0a0c12" stroke-width="2.5" filter="url(#glow)"/>
<text x="480.7" y="110.5" font-size="9" font-weight="700" fill="#0a0c12" text-anchor="middle">5</text>
<circle cx="512.9" cy="96.4" r="7" fill="#e6007e" stroke="#0a0c12" stroke-width="2.5" filter="url(#glow)"/>
<text x="512.9" y="99.8" font-size="9" font-weight="700" fill="#0a0c12" text-anchor="middle">6</text>
<circle cx="649.6" cy="388.4" r="7" fill="#e6007e" stroke="#0a0c12" stroke-width="2.5" filter="url(#glow)"/>
<text x="649.6" y="391.8" font-size="9" font-weight="700" fill="#0a0c12" text-anchor="middle">7</text>
<circle cx="749.0" cy="666.4" r="7" fill="#e6007e" stroke="#0a0c12" stroke-width="2.5" filter="url(#glow)"/>
<text x="749.0" y="669.8" font-size="9" font-weight="700" fill="#0a0c12" text-anchor="middle">8</text>
<circle cx="767.2" cy="899.6" r="7" fill="#e6007e" stroke="#0a0c12" stroke-width="2.5" filter="url(#glow)"/>
<text x="767.2" y="903.0" font-size="9" font-weight="700" fill="#0a0c12" text-anchor="middle">9</text>
<circle cx="515.6" cy="793.4" r="7" fill="#e6007e" stroke="#0a0c12" stroke-width="2.5" filter="url(#glow)"/>
<text x="515.6" y="796.8" font-size="9" font-weight="700" fill="#0a0c12" text-anchor="middle">10</text>
<circle cx="492.4" cy="759.0" r="7" fill="#e6007e" stroke="#0a0c12" stroke-width="2.5" filter="url(#glow)"/>
<text x="492.4" y="762.4" font-size="9" font-weight="700" fill="#0a0c12" text-anchor="middle">11</text>
<circle cx="451.0" cy="773.7" r="7" fill="#e6007e" stroke="#0a0c12" stroke-width="2.5" filter="url(#glow)"/>
<text x="451.0" y="777.1" font-size="9" font-weight="700" fill="#0a0c12" text-anchor="middle">12</text>
<circle cx="400.4" cy="629.0" r="7" fill="#e6007e" stroke="#0a0c12" stroke-width="2.5" filter="url(#glow)"/>
<text x="400.4" y="632.4" font-size="9" font-weight="700" fill="#0a0c12" text-anchor="middle">13</text>
<circle cx="378.0" cy="578.2" r="7" fill="#e6007e" stroke="#0a0c12" stroke-width="2.5" filter="url(#glow)"/>
<text x="378.0" y="581.6" font-size="9" font-weight="700" fill="#0a0c12" text-anchor="middle">14</text>
<circle cx="394.5" cy="536.3" r="7" fill="#e6007e" stroke="#0a0c12" stroke-width="2.5" filter="url(#glow)"/>
<text x="394.5" y="539.7" font-size="9" font-weight="700" fill="#0a0c12" text-anchor="middle">15</text>
<circle cx="378.9" cy="492.4" r="7" fill="#e6007e" stroke="#0a0c12" stroke-width="2.5" filter="url(#glow)"/>
<text x="378.9" y="495.8" font-size="9" font-weight="700" fill="#0a0c12" text-anchor="middle">16</text>
<circle cx="392.2" cy="462.7" r="7" fill="#e6007e" stroke="#0a0c12" stroke-width="2.5" filter="url(#glow)"/>
<text x="392.2" y="466.1" font-size="9" font-weight="700" fill="#0a0c12" text-anchor="middle">17</text>
<circle cx="370.1" cy="340.7" r="7" fill="#e6007e" stroke="#0a0c12" stroke-width="2.5" filter="url(#glow)"/>
<text x="370.1" y="344.1" font-size="9" font-weight="700" fill="#0a0c12" text-anchor="middle">18</text>
<circle cx="359.2" cy="321.2" r="7" fill="#e6007e" stroke="#0a0c12" stroke-width="2.5" filter="url(#glow)"/>
<text x="359.2" y="324.6" font-size="9" font-weight="700" fill="#0a0c12" text-anchor="middle">19</text>
<circle cx="359.4" cy="321.1" r="7" fill="#e6007e" stroke="#0a0c12" stroke-width="2.5" filter="url(#glow)"/>
<text x="359.4" y="324.5" font-size="9" font-weight="700" fill="#0a0c12" text-anchor="middle">20</text>
<circle cx="359.4" cy="298.4" r="7" fill="#e6007e" stroke="#0a0c12" stroke-width="2.5" filter="url(#glow)"/>
<text x="359.4" y="301.8" font-size="9" font-weight="700" fill="#0a0c12" text-anchor="middle">21</text>
<line x1="398.6" y1="175.3" x2="378.1" y2="192.0" stroke="#e6007e" stroke-opacity="0.45" stroke-width="1.3"/>
<text x="370.1" y="196.0" font-size="15" font-weight="600" fill="#eef2fb" text-anchor="end">Dunlop Curve</text>
<line x1="398.6" y1="175.3" x2="378.1" y2="222.0" stroke="#e6007e" stroke-opacity="0.45" stroke-width="1.3"/>
<text x="370.1" y="226.0" font-size="15" font-weight="600" fill="#eef2fb" text-anchor="end">Dunlop</text>
<line x1="472.6" y1="121.0" x2="467.8" y2="162.0" stroke="#e6007e" stroke-opacity="0.45" stroke-width="1.3"/>
<text x="459.8" y="166.0" font-size="15" font-weight="600" fill="#eef2fb" text-anchor="end">Esses de la Forêt</text>
<line x1="512.9" y1="96.4" x2="515.1" y2="44.4" stroke="#e6007e" stroke-opacity="0.45" stroke-width="1.3"/>
<text x="523.1" y="48.4" font-size="15" font-weight="600" fill="#eef2fb" text-anchor="start">Tertre Rouge</text>
<line x1="749.0" y1="666.4" x2="785.4" y2="703.6" stroke="#e6007e" stroke-opacity="0.45" stroke-width="1.3"/>
<text x="793.4" y="707.6" font-size="15" font-weight="600" fill="#eef2fb" text-anchor="start">Mulsanne Straight Chicanes</text>
<line x1="767.2" y1="899.6" x2="792.2" y2="945.2" stroke="#e6007e" stroke-opacity="0.45" stroke-width="1.3"/>
<text x="800.2" y="949.2" font-size="15" font-weight="600" fill="#eef2fb" text-anchor="start">Mulsanne</text>
<line x1="492.4" y1="759.0" x2="491.3" y2="811.0" stroke="#e6007e" stroke-opacity="0.45" stroke-width="1.3"/>
<text x="483.3" y="815.0" font-size="15" font-weight="600" fill="#eef2fb" text-anchor="end">Indianapolis</text>
<line x1="451.0" y1="773.7" x2="444.1" y2="841.0" stroke="#e6007e" stroke-opacity="0.45" stroke-width="1.3"/>
<text x="436.1" y="845.0" font-size="15" font-weight="600" fill="#eef2fb" text-anchor="end">Arnage</text>
<line x1="378.9" y1="492.4" x2="335.6" y2="521.3" stroke="#e6007e" stroke-opacity="0.45" stroke-width="1.3"/>
<text x="327.6" y="525.3" font-size="15" font-weight="600" fill="#eef2fb" text-anchor="end">Porsche Curves</text>
<line x1="359.4" y1="321.1" x2="315.7" y2="292.8" stroke="#e6007e" stroke-opacity="0.45" stroke-width="1.3"/>
<text x="307.7" y="296.8" font-size="15" font-weight="600" fill="#eef2fb" text-anchor="end">Ford Chicanes</text>
<text x="90" y="64" font-size="20" letter-spacing="5" fill="#e6007e" font-weight="700">TRACK ATLAS</text>
<text x="90" y="108" font-size="42" font-weight="800" fill="#ffffff">CIRCUIT DE LA SARTHE</text>
<text x="90" y="136" font-size="16" fill="#9aa6bd">La Sarthe, Circuit des 24 Heures du Mans</text>
<rect x="1170" y="200" width="360" height="710" rx="16" fill="#ffffff" fill-opacity="0.04" stroke="#e6007e" stroke-opacity="0.5"/>
<text x="1198" y="250" font-size="13" letter-spacing="2" fill="#8794ab">LAYOUT</text>
<text x="1198" y="276" font-size="22" font-weight="700" fill="#eef2fb">Circuit des 24 Heures</text>
<text x="1198" y="320" font-size="13" letter-spacing="2" fill="#8794ab">LENGTH</text>
<text x="1198" y="346" font-size="22" font-weight="700" fill="#eef2fb">13.626 km</text>
<text x="1198" y="390" font-size="13" letter-spacing="2" fill="#8794ab">CORNERS</text>
<text x="1198" y="416" font-size="22" font-weight="700" fill="#eef2fb">21</text>
<text x="1198" y="460" font-size="13" letter-spacing="2" fill="#8794ab">NAMED CORNERS</text>
<text x="1198" y="486" font-size="22" font-weight="700" fill="#eef2fb">15</text>
<text x="1198" y="530" font-size="13" letter-spacing="2" fill="#8794ab">DIRECTION</text>
<text x="1198" y="556" font-size="22" font-weight="700" fill="#eef2fb">Clockwise</text>
<text x="1198" y="600" font-size="13" letter-spacing="2" fill="#8794ab">SECTORS</text>
<text x="1198" y="626" font-size="22" font-weight="700" fill="#eef2fb">3</text>
<text x="1198" y="670" font-size="13" letter-spacing="2" fill="#8794ab">COUNTRY</text>
<text x="1198" y="696" font-size="22" font-weight="700" fill="#eef2fb">France</text>
<text x="1198" y="740" font-size="13" letter-spacing="2" fill="#8794ab">LOCATION</text>
<text x="1198" y="766" font-size="22" font-weight="700" fill="#eef2fb">Le Mans</text>
<text x="1198" y="810" font-size="13" letter-spacing="2" fill="#8794ab">COMPLEXES</text>
<rect x="1198" y="816" width="62" height="24" rx="12" fill="#e6007e" fill-opacity="0.16" stroke="#e6007e" stroke-opacity="0.5"/>
<text x="1229" y="833" font-size="12" fill="#eef2fb" text-anchor="middle">Dunlop</text>
<rect x="1270" y="816" width="222" height="24" rx="12" fill="#e6007e" fill-opacity="0.16" stroke="#e6007e" stroke-opacity="0.5"/>
<text x="1381" y="833" font-size="12" fill="#eef2fb" text-anchor="middle">Mulsanne Straight Chicanes</text>
<rect x="1198" y="850" width="126" height="24" rx="12" fill="#e6007e" fill-opacity="0.16" stroke="#e6007e" stroke-opacity="0.5"/>
<text x="1261" y="867" font-size="12" fill="#eef2fb" text-anchor="middle">Porsche Curves</text>
<rect x="1334" y="850" width="118" height="24" rx="12" fill="#e6007e" fill-opacity="0.16" stroke="#e6007e" stroke-opacity="0.5"/>
<text x="1393" y="867" font-size="12" fill="#eef2fb" text-anchor="middle">Ford Chicanes</text>
<text x="90" y="966" font-size="12" fill="#566177">Geometry © OpenStreetMap contributors (ODbL) · corner data: Lovely-Sim-Racing + curated · track-atlas</text>
<text x="90" y="942" font-size="12" fill="#8794ab">⚑ start / finish</text>
</svg>