<svg xmlns="http://www.w3.org/2000/svg" width="1600" height="1000" viewBox="0 0 1600 1000" font-family="Helvetica, Arial, sans-serif">
<defs>
      <radialGradient id="bg" cx="38%" cy="34%" r="85%">
        <stop offset="0%" stop-color="#1b2030"/>
        <stop offset="55%" stop-color="#12151f"/>
        <stop offset="100%" stop-color="#0a0c12"/>
      </radialGradient>
      <linearGradient id="accent" x1="0" y1="0" x2="1" y2="1">
        <stop offset="0%" stop-color="#ff5a36"/>
        <stop offset="100%" stop-color="#ffffff"/>
      </linearGradient>
      <filter id="glow" x="-40%" y="-40%" width="180%" height="180%">
        <feGaussianBlur stdDeviation="6" result="b"/>
        <feMerge><feMergeNode in="b"/><feMergeNode in="SourceGraphic"/></feMerge>
      </filter>
    </defs>
<rect width="1600" height="1000" fill="url(#bg)"/>
<line x1="0" y1="0" x2="0" y2="1000" stroke="#ffffff" stroke-opacity="0.025"/>
<line x1="56" y1="0" x2="56" y2="1000" stroke="#ffffff" stroke-opacity="0.025"/>
<line x1="112" y1="0" x2="112" y2="1000" stroke="#ffffff" stroke-opacity="0.025"/>
<line x1="168" y1="0" x2="168" y2="1000" stroke="#ffffff" stroke-opacity="0.025"/>
<line x1="224" y1="0" x2="224" y2="1000" stroke="#ffffff" stroke-opacity="0.025"/>
<line x1="280" y1="0" x2="280" y2="1000" stroke="#ffffff" stroke-opacity="0.025"/>
<line x1="336" y1="0" x2="336" y2="1000" stroke="#ffffff" stroke-opacity="0.025"/>
<line x1="392" y1="0" x2="392" y2="1000" stroke="#ffffff" stroke-opacity="0.025"/>
<line x1="448" y1="0" x2="448" y2="1000" stroke="#ffffff" stroke-opacity="0.025"/>
<line x1="504" y1="0" x2="504" y2="1000" stroke="#ffffff" stroke-opacity="0.025"/>
<line x1="560" y1="0" x2="560" y2="1000" stroke="#ffffff" stroke-opacity="0.025"/>
<line x1="616" y1="0" x2="616" y2="1000" stroke="#ffffff" stroke-opacity="0.025"/>
<line x1="672" y1="0" x2="672" y2="1000" stroke="#ffffff" stroke-opacity="0.025"/>
<line x1="728" y1="0" x2="728" y2="1000" stroke="#ffffff" stroke-opacity="0.025"/>
<line x1="784" y1="0" x2="784" y2="1000" stroke="#ffffff" stroke-opacity="0.025"/>
<line x1="840" y1="0" x2="840" y2="1000" stroke="#ffffff" stroke-opacity="0.025"/>
<line x1="896" y1="0" x2="896" y2="1000" stroke="#ffffff" stroke-opacity="0.025"/>
<line x1="952" y1="0" x2="952" y2="1000" stroke="#ffffff" stroke-opacity="0.025"/>
<line x1="1008" y1="0" x2="1008" y2="1000" stroke="#ffffff" stroke-opacity="0.025"/>
<line x1="1064" y1="0" x2="1064" y2="1000" stroke="#ffffff" stroke-opacity="0.025"/>
<line x1="1120" y1="0" x2="1120" y2="1000" stroke="#ffffff" stroke-opacity="0.025"/>
<line x1="1176" y1="0" x2="1176" y2="1000" stroke="#ffffff" stroke-opacity="0.025"/>
<line x1="1232" y1="0" x2="1232" y2="1000" stroke="#ffffff" stroke-opacity="0.025"/>
<line x1="1288" y1="0" x2="1288" y2="1000" stroke="#ffffff" stroke-opacity="0.025"/>
<line x1="1344" y1="0" x2="1344" y2="1000" stroke="#ffffff" stroke-opacity="0.025"/>
<line x1="1400" y1="0" x2="1400" y2="1000" stroke="#ffffff" stroke-opacity="0.025"/>
<line x1="1456" y1="0" x2="1456" y2="1000" stroke="#ffffff" stroke-opacity="0.025"/>
<line x1="1512" y1="0" x2="1512" y2="1000" stroke="#ffffff" stroke-opacity="0.025"/>
<line x1="1568" y1="0" x2="1568" y2="1000" stroke="#ffffff" stroke-opacity="0.025"/>
<line x1="0" y1="0" x2="1600" y2="0" stroke="#ffffff" stroke-opacity="0.025"/>
<line x1="0" y1="56" x2="1600" y2="56" stroke="#ffffff" stroke-opacity="0.025"/>
<line x1="0" y1="112" x2="1600" y2="112" stroke="#ffffff" stroke-opacity="0.025"/>
<line x1="0" y1="168" x2="1600" y2="168" stroke="#ffffff" stroke-opacity="0.025"/>
<line x1="0" y1="224" x2="1600" y2="224" stroke="#ffffff" stroke-opacity="0.025"/>
<line x1="0" y1="280" x2="1600" y2="280" stroke="#ffffff" stroke-opacity="0.025"/>
<line x1="0" y1="336" x2="1600" y2="336" stroke="#ffffff" stroke-opacity="0.025"/>
<line x1="0" y1="392" x2="1600" y2="392" stroke="#ffffff" stroke-opacity="0.025"/>
<line x1="0" y1="448" x2="1600" y2="448" stroke="#ffffff" stroke-opacity="0.025"/>
<line x1="0" y1="504" x2="1600" y2="504" stroke="#ffffff" stroke-opacity="0.025"/>
<line x1="0" y1="560" x2="1600" y2="560" stroke="#ffffff" stroke-opacity="0.025"/>
<line x1="0" y1="616" x2="1600" y2="616" stroke="#ffffff" stroke-opacity="0.025"/>
<line x1="0" y1="672" x2="1600" y2="672" stroke="#ffffff" stroke-opacity="0.025"/>
<line x1="0" y1="728" x2="1600" y2="728" stroke="#ffffff" stroke-opacity="0.025"/>
<line x1="0" y1="784" x2="1600" y2="784" stroke="#ffffff" stroke-opacity="0.025"/>
<line x1="0" y1="840" x2="1600" y2="840" stroke="#ffffff" stroke-opacity="0.025"/>
<line x1="0" y1="896" x2="1600" y2="896" stroke="#ffffff" stroke-opacity="0.025"/>
<line x1="0" y1="952" x2="1600" y2="952" stroke="#ffffff" stroke-opacity="0.025"/>
<path d="M 264.5,723.0 L 330.8,722.8 L 416.1,722.6 L 567.8,721.7 L 723.1,721.3 L 776.6,721.1 L 787.2,720.2 L 797.7,719.2 L 810.3,716.3 L 820.7,711.1 L 831.6,702.3 L 840.1,692.1 L 846.0,681.2 L 850.6,666.4 L 852.9,649.6 L 853.1,636.9 L 851.6,610.6 L 850.7,603.8 L 849.5,595.9 L 845.8,577.3 L 834.7,517.3 L 831.3,503.4 L 828.6,483.9 L 825.7,466.3 L 824.1,453.9 L 823.2,423.3 L 823.2,368.1 L 820.3,356.4 L 815.5,349.7 L 800.4,342.2 L 775.8,342.0 L 768.2,341.3 L 756.1,337.6 L 742.7,329.0 L 730.0,319.8 L 714.3,309.4 L 707.8,306.0 L 701.6,304.1 L 696.3,302.9 L 690.3,302.9 L 683.0,303.1 L 673.6,306.0 L 666.7,309.1 L 658.5,318.8 L 653.7,326.1 L 648.1,339.9 L 637.8,364.5 L 633.2,373.7 L 627.2,383.1 L 621.7,390.4 L 611.1,404.0 L 592.2,426.2 L 584.3,434.6 L 548.8,465.1 L 532.9,475.7 L 499.7,491.6 L 470.0,501.9 L 443.7,507.3 L 404.4,511.1 L 365.9,511.3 L 299.8,511.1 L 248.9,511.4 L 206.2,511.7 L 130.5,512.0 L 112.0,512.3 L 104.0,511.9 L 98.6,509.4 L 94.6,505.8 L 91.5,500.6 L 90.2,495.2 L 90.0,491.0 L 91.0,485.8 L 92.5,482.2 L 95.9,478.7 L 101.3,473.8 L 106.5,467.6 L 108.8,463.0 L 110.3,458.6 L 110.7,454.2 L 111.1,446.5 L 111.3,439.8 L 117.0,421.6 L 122.8,412.2 L 133.7,397.8 L 172.2,357.9 L 179.9,350.4 L 190.1,343.3 L 198.0,339.1 L 206.3,334.7 L 216.9,330.1 L 222.4,328.0 L 323.1,292.9 L 331.8,289.0 L 341.1,284.1 L 349.2,279.5 L 358.1,273.4 L 369.1,264.4 L 403.3,229.9 L 462.3,171.0 L 513.9,119.4 L 523.3,110.0 L 528.9,106.6 L 533.9,105.6 L 540.6,106.6 L 545.0,108.3 L 549.6,110.8 L 560.3,121.0 L 567.2,129.6 L 584.5,153.2 L 589.5,158.0 L 602.7,165.4 L 632.2,176.2 L 652.5,181.0 L 659.1,181.2 L 675.7,177.9 L 693.0,172.0 L 706.8,167.0 L 759.5,139.4 L 768.7,136.7 L 778.3,135.9 L 842.0,134.6 L 862.6,133.9 L 870.4,134.9 L 876.8,136.6 L 881.4,138.3 L 886.1,140.7 L 890.7,144.2 L 893.9,148.4 L 896.2,154.1 L 897.5,159.4 L 898.2,164.8 L 899.0,171.2 L 899.8,321.3 L 899.7,420.1 L 899.4,426.8 L 899.1,434.2 L 898.3,442.5 L 896.6,453.4 L 895.5,459.4 L 894.7,466.2 L 894.8,473.3 L 895.4,478.2 L 896.6,483.2 L 898.4,488.2 L 901.8,496.8 L 936.9,579.0 L 939.8,584.7 L 942.9,589.0 L 946.7,593.3 L 1025.5,671.6 L 1030.1,677.4 L 1033.7,682.9 L 1036.1,688.0 L 1037.8,693.0 L 1039.4,699.0 L 1040.0,705.9 L 1039.9,712.4 L 1038.9,719.1 L 1037.4,724.1 L 1034.3,730.3 L 1024.8,746.1 L 1020.5,752.7 L 1015.3,760.7 L 1011.6,767.0 L 1008.8,772.5 L 1006.8,778.3 L 1005.1,785.4 L 995.3,858.6 L 994.1,864.2 L 991.4,870.7 L 987.9,876.4 L 983.0,881.3 L 977.8,885.3 L 973.0,888.0 L 966.3,890.2 L 957.4,891.1 L 329.8,893.6 L 245.5,894.4 L 235.2,891.5 L 225.3,887.4 L 174.9,855.7 L 162.2,846.0 L 153.5,837.4 L 149.2,830.1 L 145.0,819.8 L 143.4,810.5 L 143.2,801.7 L 144.4,794.4 L 146.4,787.5 L 156.3,767.3 L 163.5,756.0 L 168.2,749.3 L 171.1,745.6 L 174.4,742.4 L 181.1,737.8 L 189.1,734.3 L 197.8,730.7 L 212.9,727.2 L 235.1,725.3 L 264.5,723.0 Z" fill="none" stroke="#000000" stroke-opacity="0.5" stroke-width="13" stroke-linejoin="round" stroke-linecap="round"/>
<path d="M 264.5,723.0 L 330.8,722.8 L 416.1,722.6 L 567.8,721.7 L 723.1,721.3 L 776.6,721.1 L 787.2,720.2 L 797.7,719.2 L 810.3,716.3 L 820.7,711.1 L 831.6,702.3 L 840.1,692.1 L 846.0,681.2 L 850.6,666.4 L 852.9,649.6 L 853.1,636.9 L 851.6,610.6 L 850.7,603.8 L 849.5,595.9 L 845.8,577.3 L 834.7,517.3 L 831.3,503.4 L 828.6,483.9 L 825.7,466.3 L 824.1,453.9 L 823.2,423.3 L 823.2,368.1 L 820.3,356.4 L 815.5,349.7 L 800.4,342.2 L 775.8,342.0 L 768.2,341.3 L 756.1,337.6 L 742.7,329.0 L 730.0,319.8 L 714.3,309.4 L 707.8,306.0 L 701.6,304.1 L 696.3,302.9 L 690.3,302.9 L 683.0,303.1 L 673.6,306.0 L 666.7,309.1 L 658.5,318.8 L 653.7,326.1 L 648.1,339.9 L 637.8,364.5 L 633.2,373.7 L 627.2,383.1 L 621.7,390.4 L 611.1,404.0 L 592.2,426.2 L 584.3,434.6 L 548.8,465.1 L 532.9,475.7 L 499.7,491.6 L 470.0,501.9 L 443.7,507.3 L 404.4,511.1 L 365.9,511.3 L 299.8,511.1 L 248.9,511.4 L 206.2,511.7 L 130.5,512.0 L 112.0,512.3 L 104.0,511.9 L 98.6,509.4 L 94.6,505.8 L 91.5,500.6 L 90.2,495.2 L 90.0,491.0 L 91.0,485.8 L 92.5,482.2 L 95.9,478.7 L 101.3,473.8 L 106.5,467.6 L 108.8,463.0 L 110.3,458.6 L 110.7,454.2 L 111.1,446.5 L 111.3,439.8 L 117.0,421.6 L 122.8,412.2 L 133.7,397.8 L 172.2,357.9 L 179.9,350.4 L 190.1,343.3 L 198.0,339.1 L 206.3,334.7 L 216.9,330.1 L 222.4,328.0 L 323.1,292.9 L 331.8,289.0 L 341.1,284.1 L 349.2,279.5 L 358.1,273.4 L 369.1,264.4 L 403.3,229.9 L 462.3,171.0 L 513.9,119.4 L 523.3,110.0 L 528.9,106.6 L 533.9,105.6 L 540.6,106.6 L 545.0,108.3 L 549.6,110.8 L 560.3,121.0 L 567.2,129.6 L 584.5,153.2 L 589.5,158.0 L 602.7,165.4 L 632.2,176.2 L 652.5,181.0 L 659.1,181.2 L 675.7,177.9 L 693.0,172.0 L 706.8,167.0 L 759.5,139.4 L 768.7,136.7 L 778.3,135.9 L 842.0,134.6 L 862.6,133.9 L 870.4,134.9 L 876.8,136.6 L 881.4,138.3 L 886.1,140.7 L 890.7,144.2 L 893.9,148.4 L 896.2,154.1 L 897.5,159.4 L 898.2,164.8 L 899.0,171.2 L 899.8,321.3 L 899.7,420.1 L 899.4,426.8 L 899.1,434.2 L 898.3,442.5 L 896.6,453.4 L 895.5,459.4 L 894.7,466.2 L 894.8,473.3 L 895.4,478.2 L 896.6,483.2 L 898.4,488.2 L 901.8,496.8 L 936.9,579.0 L 939.8,584.7 L 942.9,589.0 L 946.7,593.3 L 1025.5,671.6 L 1030.1,677.4 L 1033.7,682.9 L 1036.1,688.0 L 1037.8,693.0 L 1039.4,699.0 L 1040.0,705.9 L 1039.9,712.4 L 1038.9,719.1 L 1037.4,724.1 L 1034.3,730.3 L 1024.8,746.1 L 1020.5,752.7 L 1015.3,760.7 L 1011.6,767.0 L 1008.8,772.5 L 1006.8,778.3 L 1005.1,785.4 L 995.3,858.6 L 994.1,864.2 L 991.4,870.7 L 987.9,876.4 L 983.0,881.3 L 977.8,885.3 L 973.0,888.0 L 966.3,890.2 L 957.4,891.1 L 329.8,893.6 L 245.5,894.4 L 235.2,891.5 L 225.3,887.4 L 174.9,855.7 L 162.2,846.0 L 153.5,837.4 L 149.2,830.1 L 145.0,819.8 L 143.4,810.5 L 143.2,801.7 L 144.4,794.4 L 146.4,787.5 L 156.3,767.3 L 163.5,756.0 L 168.2,749.3 L 171.1,745.6 L 174.4,742.4 L 181.1,737.8 L 189.1,734.3 L 197.8,730.7 L 212.9,727.2 L 235.1,725.3 L 264.5,723.0 Z" fill="none" stroke="#39404f" stroke-width="8.5" stroke-linejoin="round" stroke-linecap="round"/>
<path d="M 264.5,723.0 L 330.8,722.8 L 416.1,722.6 L 567.8,721.7 L 723.1,721.3 L 776.6,721.1 L 787.2,720.2 L 797.7,719.2 L 810.3,716.3 L 820.7,711.1 L 831.6,702.3 L 840.1,692.1 L 846.0,681.2 L 850.6,666.4 L 852.9,649.6 L 853.1,636.9 L 851.6,610.6 L 850.7,603.8 L 849.5,595.9 L 845.8,577.3 L 834.7,517.3 L 831.3,503.4 L 828.6,483.9 L 825.7,466.3 L 824.1,453.9 L 823.2,423.3 L 823.2,368.1 L 820.3,356.4 L 815.5,349.7 L 800.4,342.2 L 775.8,342.0 L 768.2,341.3 L 756.1,337.6 L 742.7,329.0 L 730.0,319.8 L 714.3,309.4 L 707.8,306.0 L 701.6,304.1 L 696.3,302.9 L 690.3,302.9 L 683.0,303.1 L 673.6,306.0 L 666.7,309.1 L 658.5,318.8 L 653.7,326.1 L 648.1,339.9 L 637.8,364.5 L 633.2,373.7 L 627.2,383.1 L 621.7,390.4 L 611.1,404.0 L 592.2,426.2 L 584.3,434.6 L 548.8,465.1 L 532.9,475.7 L 499.7,491.6 L 470.0,501.9 L 443.7,507.3 L 404.4,511.1 L 365.9,511.3 L 299.8,511.1 L 248.9,511.4 L 206.2,511.7 L 130.5,512.0 L 112.0,512.3 L 104.0,511.9 L 98.6,509.4 L 94.6,505.8 L 91.5,500.6 L 90.2,495.2 L 90.0,491.0 L 91.0,485.8 L 92.5,482.2 L 95.9,478.7 L 101.3,473.8 L 106.5,467.6 L 108.8,463.0 L 110.3,458.6 L 110.7,454.2 L 111.1,446.5 L 111.3,439.8 L 117.0,421.6 L 122.8,412.2 L 133.7,397.8 L 172.2,357.9 L 179.9,350.4 L 190.1,343.3 L 198.0,339.1 L 206.3,334.7 L 216.9,330.1 L 222.4,328.0 L 323.1,292.9 L 331.8,289.0 L 341.1,284.1 L 349.2,279.5 L 358.1,273.4 L 369.1,264.4 L 403.3,229.9 L 462.3,171.0 L 513.9,119.4 L 523.3,110.0 L 528.9,106.6 L 533.9,105.6 L 540.6,106.6 L 545.0,108.3 L 549.6,110.8 L 560.3,121.0 L 567.2,129.6 L 584.5,153.2 L 589.5,158.0 L 602.7,165.4 L 632.2,176.2 L 652.5,181.0 L 659.1,181.2 L 675.7,177.9 L 693.0,172.0 L 706.8,167.0 L 759.5,139.4 L 768.7,136.7 L 778.3,135.9 L 842.0,134.6 L 862.6,133.9 L 870.4,134.9 L 876.8,136.6 L 881.4,138.3 L 886.1,140.7 L 890.7,144.2 L 893.9,148.4 L 896.2,154.1 L 897.5,159.4 L 898.2,164.8 L 899.0,171.2 L 899.8,321.3 L 899.7,420.1 L 899.4,426.8 L 899.1,434.2 L 898.3,442.5 L 896.6,453.4 L 895.5,459.4 L 894.7,466.2 L 894.8,473.3 L 895.4,478.2 L 896.6,483.2 L 898.4,488.2 L 901.8,496.8 L 936.9,579.0 L 939.8,584.7 L 942.9,589.0 L 946.7,593.3 L 1025.5,671.6 L 1030.1,677.4 L 1033.7,682.9 L 1036.1,688.0 L 1037.8,693.0 L 1039.4,699.0 L 1040.0,705.9 L 1039.9,712.4 L 1038.9,719.1 L 1037.4,724.1 L 1034.3,730.3 L 1024.8,746.1 L 1020.5,752.7 L 1015.3,760.7 L 1011.6,767.0 L 1008.8,772.5 L 1006.8,778.3 L 1005.1,785.4 L 995.3,858.6 L 994.1,864.2 L 991.4,870.7 L 987.9,876.4 L 983.0,881.3 L 977.8,885.3 L 973.0,888.0 L 966.3,890.2 L 957.4,891.1 L 329.8,893.6 L 245.5,894.4 L 235.2,891.5 L 225.3,887.4 L 174.9,855.7 L 162.2,846.0 L 153.5,837.4 L 149.2,830.1 L 145.0,819.8 L 143.4,810.5 L 143.2,801.7 L 144.4,794.4 L 146.4,787.5 L 156.3,767.3 L 163.5,756.0 L 168.2,749.3 L 171.1,745.6 L 174.4,742.4 L 181.1,737.8 L 189.1,734.3 L 197.8,730.7 L 212.9,727.2 L 235.1,725.3 L 264.5,723.0 Z" fill="none" stroke="#e7edf8" stroke-width="2.6" stroke-linejoin="round" stroke-linecap="round"/>
<path d="M 264.5,723.0 L 330.8,722.8 L 416.1,722.6 L 567.8,721.7 L 723.1,721.3 L 776.6,721.1 L 787.2,720.2 L 797.7,719.2 L 810.3,716.3 L 820.7,711.1 L 831.6,702.3 L 840.1,692.1 L 846.0,681.2 L 850.6,666.4 L 852.9,649.6 L 853.1,636.9 L 851.6,610.6 L 850.7,603.8 L 849.5,595.9 L 845.8,577.3 L 834.7,517.3 L 831.3,503.4 L 828.6,483.9 L 825.7,466.3 L 824.1,453.9 L 823.2,423.3 L 823.2,368.1 L 820.3,356.4 L 815.5,349.7 L 800.4,342.2 L 775.8,342.0 L 768.2,341.3 L 756.1,337.6 L 742.7,329.0 L 730.0,319.8 L 714.3,309.4 L 707.8,306.0 L 701.6,304.1 L 696.3,302.9 L 690.3,302.9 L 683.0,303.1 L 673.6,306.0 L 666.7,309.1 L 658.5,318.8 L 653.7,326.1 L 648.1,339.9 L 637.8,364.5 L 633.2,373.7 L 627.2,383.1 L 621.7,390.4 L 611.1,404.0 L 592.2,426.2 L 584.3,434.6 L 548.8,465.1 L 532.9,475.7 L 499.7,491.6 L 470.0,501.9 L 443.7,507.3 L 404.4,511.1 L 365.9,511.3 L 299.8,511.1 L 248.9,511.4 L 206.2,511.7 L 130.5,512.0 L 112.0,512.3 L 104.0,511.9 L 98.6,509.4 L 94.6,505.8 L 91.5,500.6 L 90.2,495.2 L 90.0,491.0 L 91.0,485.8 L 92.5,482.2 L 95.9,478.7 L 101.3,473.8 L 106.5,467.6 L 108.8,463.0 L 110.3,458.6 L 110.7,454.2 L 111.1,446.5 L 111.3,439.8 L 117.0,421.6 L 122.8,412.2 L 133.7,397.8 L 172.2,357.9 L 179.9,350.4 L 190.1,343.3 L 198.0,339.1 L 206.3,334.7 L 216.9,330.1 L 222.4,328.0 L 323.1,292.9 L 331.8,289.0 L 341.1,284.1 L 349.2,279.5 L 358.1,273.4 L 369.1,264.4 L 403.3,229.9 L 462.3,171.0 L 513.9,119.4 L 523.3,110.0 L 528.9,106.6 L 533.9,105.6 L 540.6,106.6 L 545.0,108.3 L 549.6,110.8 L 560.3,121.0 L 567.2,129.6 L 584.5,153.2 L 589.5,158.0 L 602.7,165.4 L 632.2,176.2 L 652.5,181.0 L 659.1,181.2 L 675.7,177.9 L 693.0,172.0 L 706.8,167.0 L 759.5,139.4 L 768.7,136.7 L 778.3,135.9 L 842.0,134.6 L 862.6,133.9 L 870.4,134.9 L 876.8,136.6 L 881.4,138.3 L 886.1,140.7 L 890.7,144.2 L 893.9,148.4 L 896.2,154.1 L 897.5,159.4 L 898.2,164.8 L 899.0,171.2 L 899.8,321.3 L 899.7,420.1 L 899.4,426.8 L 899.1,434.2 L 898.3,442.5 L 896.6,453.4 L 895.5,459.4 L 894.7,466.2 L 894.8,473.3 L 895.4,478.2 L 896.6,483.2 L 898.4,488.2 L 901.8,496.8 L 936.9,579.0 L 939.8,584.7 L 942.9,589.0 L 946.7,593.3 L 1025.5,671.6 L 1030.1,677.4 L 1033.7,682.9 L 1036.1,688.0 L 1037.8,693.0 L 1039.4,699.0 L 1040.0,705.9 L 1039.9,712.4 L 1038.9,719.1 L 1037.4,724.1 L 1034.3,730.3 L 1024.8,746.1 L 1020.5,752.7 L 1015.3,760.7 L 1011.6,767.0 L 1008.8,772.5 L 1006.8,778.3 L 1005.1,785.4 L 995.3,858.6 L 994.1,864.2 L 991.4,870.7 L 987.9,876.4 L 983.0,881.3 L 977.8,885.3 L 973.0,888.0 L 966.3,890.2 L 957.4,891.1 L 329.8,893.6 L 245.5,894.4 L 235.2,891.5 L 225.3,887.4 L 174.9,855.7 L 162.2,846.0 L 153.5,837.4 L 149.2,830.1 L 145.0,819.8 L 143.4,810.5 L 143.2,801.7 L 144.4,794.4 L 146.4,787.5 L 156.3,767.3 L 163.5,756.0 L 168.2,749.3 L 171.1,745.6 L 174.4,742.4 L 181.1,737.8 L 189.1,734.3 L 197.8,730.7 L 212.9,727.2 L 235.1,725.3 L 264.5,723.0 Z" fill="none" stroke="#ff5a36" stroke-opacity="0.55" stroke-width="1.2" stroke-linejoin="round" filter="url(#glow)"/>
<circle cx="469.5" cy="722.3" r="13" fill="none" stroke="#ffffff" stroke-width="3"/>
<rect x="465.5" y="700.3" width="8" height="18" fill="#ffffff"/>
<circle cx="852.7" cy="650.9" r="7" fill="#ff5a36" stroke="#0a0c12" stroke-width="2.5" filter="url(#glow)"/>
<text x="852.7" y="654.3" font-size="9" font-weight="700" fill="#0a0c12" text-anchor="middle">1</text>
<circle cx="823.2" cy="418.1" r="7" fill="#ff5a36" stroke="#0a0c12" stroke-width="2.5" filter="url(#glow)"/>
<text x="823.2" y="421.5" font-size="9" font-weight="700" fill="#0a0c12" text-anchor="middle">2</text>
<circle cx="793.4" cy="342.1" r="7" fill="#ff5a36" stroke="#0a0c12" stroke-width="2.5" filter="url(#glow)"/>
<text x="793.4" y="345.5" font-size="9" font-weight="700" fill="#0a0c12" text-anchor="middle">3</text>
<circle cx="748.4" cy="332.6" r="7" fill="#ff5a36" stroke="#0a0c12" stroke-width="2.5" filter="url(#glow)"/>
<text x="748.4" y="336.0" font-size="9" font-weight="700" fill="#0a0c12" text-anchor="middle">4</text>
<circle cx="664.8" cy="311.4" r="7" fill="#ff5a36" stroke="#0a0c12" stroke-width="2.5" filter="url(#glow)"/>
<text x="664.8" y="314.8" font-size="9" font-weight="700" fill="#0a0c12" text-anchor="middle">5</text>
<circle cx="423.8" cy="509.2" r="7" fill="#ff5a36" stroke="#0a0c12" stroke-width="2.5" filter="url(#glow)"/>
<text x="423.8" y="512.6" font-size="9" font-weight="700" fill="#0a0c12" text-anchor="middle">6</text>
<circle cx="105.9" cy="472.4" r="7" fill="#ff5a36" stroke="#0a0c12" stroke-width="2.5" filter="url(#glow)"/>
<text x="105.9" y="475.8" font-size="9" font-weight="700" fill="#0a0c12" text-anchor="middle">7</text>
<circle cx="918.1" cy="891.2" r="7" fill="#ff5a36" stroke="#0a0c12" stroke-width="2.5" filter="url(#glow)"/>
<text x="918.1" y="894.6" font-size="9" font-weight="700" fill="#0a0c12" text-anchor="middle">8</text>
<circle cx="204.8" cy="341.6" r="7" fill="#ff5a36" stroke="#0a0c12" stroke-width="2.5" filter="url(#glow)"/>
<text x="204.8" y="345.0" font-size="9" font-weight="700" fill="#0a0c12" text-anchor="middle">9</text>
<circle cx="90.1" cy="494.0" r="7" fill="#ff5a36" stroke="#0a0c12" stroke-width="2.5" filter="url(#glow)"/>
<text x="90.1" y="497.4" font-size="9" font-weight="700" fill="#0a0c12" text-anchor="middle">10</text>
<circle cx="244.8" cy="511.4" r="7" fill="#ff5a36" stroke="#0a0c12" stroke-width="2.5" filter="url(#glow)"/>
<text x="244.8" y="514.8" font-size="9" font-weight="700" fill="#0a0c12" text-anchor="middle">11</text>
<circle cx="327.3" cy="511.2" r="7" fill="#ff5a36" stroke="#0a0c12" stroke-width="2.5" filter="url(#glow)"/>
<text x="327.3" y="514.6" font-size="9" font-weight="700" fill="#0a0c12" text-anchor="middle">12</text>
<circle cx="450.8" cy="505.8" r="7" fill="#ff5a36" stroke="#0a0c12" stroke-width="2.5" filter="url(#glow)"/>
<text x="450.8" y="509.2" font-size="9" font-weight="700" fill="#0a0c12" text-anchor="middle">13</text>
<circle cx="656.3" cy="322.0" r="7" fill="#ff5a36" stroke="#0a0c12" stroke-width="2.5" filter="url(#glow)"/>
<text x="656.3" y="325.4" font-size="9" font-weight="700" fill="#0a0c12" text-anchor="middle">14</text>
<circle cx="823.2" cy="416.6" r="7" fill="#ff5a36" stroke="#0a0c12" stroke-width="2.5" filter="url(#glow)"/>
<text x="823.2" y="420.0" font-size="9" font-weight="700" fill="#0a0c12" text-anchor="middle">15</text>
<circle cx="846.2" cy="579.6" r="7" fill="#ff5a36" stroke="#0a0c12" stroke-width="2.5" filter="url(#glow)"/>
<text x="846.2" y="583.0" font-size="9" font-weight="700" fill="#0a0c12" text-anchor="middle">16</text>
<circle cx="181.8" cy="791.1" r="7" fill="#ff5a36" stroke="#0a0c12" stroke-width="2.5" filter="url(#glow)"/>
<text x="181.8" y="794.5" font-size="9" font-weight="700" fill="#0a0c12" text-anchor="middle">17</text>
<line x1="423.8" y1="509.2" x2="372.1" y2="571.2" stroke="#ff5a36" stroke-opacity="0.45" stroke-width="1.3"/>
<text x="364.1" y="575.2" font-size="15" font-weight="600" fill="#eef2fb" text-anchor="end">Big Bend</text>
<line x1="105.9" y1="472.4" x2="54.0" y2="470.4" stroke="#ff5a36" stroke-opacity="0.45" stroke-width="1.3"/>
<text x="46.0" y="474.4" font-size="15" font-weight="600" fill="#eef2fb" text-anchor="end">Hairpin</text>
<line x1="204.8" y1="341.6" x2="156.2" y2="323.0" stroke="#ff5a36" stroke-opacity="0.45" stroke-width="1.3"/>
<text x="148.2" y="327.0" font-size="15" font-weight="600" fill="#eef2fb" text-anchor="end">Fangio</text>
<line x1="244.8" y1="511.4" x2="192.9" y2="541.2" stroke="#ff5a36" stroke-opacity="0.45" stroke-width="1.3"/>
<text x="184.9" y="545.2" font-size="15" font-weight="600" fill="#eef2fb" text-anchor="end">Collier</text>
<line x1="450.8" y1="505.8" x2="399.0" y2="511.2" stroke="#ff5a36" stroke-opacity="0.45" stroke-width="1.3"/>
<text x="391.0" y="515.2" font-size="15" font-weight="600" fill="#eef2fb" text-anchor="end">Tower</text>
<line x1="656.3" y1="322.0" x2="674.1" y2="273.1" stroke="#ff5a36" stroke-opacity="0.45" stroke-width="1.3"/>
<text x="682.1" y="277.1" font-size="15" font-weight="600" fill="#eef2fb" text-anchor="start">Bishop</text>
<line x1="846.2" y1="579.6" x2="895.3" y2="596.9" stroke="#ff5a36" stroke-opacity="0.45" stroke-width="1.3"/>
<text x="903.3" y="600.9" font-size="15" font-weight="600" fill="#eef2fb" text-anchor="start">Le Mans</text>
<line x1="181.8" y1="791.1" x2="139.8" y2="821.7" stroke="#ff5a36" stroke-opacity="0.45" stroke-width="1.3"/>
<text x="131.8" y="825.7" font-size="15" font-weight="600" fill="#eef2fb" text-anchor="end">Sunset Bend</text>
<text x="90" y="64" font-size="20" letter-spacing="5" fill="#ff5a36" font-weight="700">TRACK ATLAS</text>
<text x="90" y="108" font-size="42" font-weight="800" fill="#ffffff">SEBRING INTERNATIONAL RACEWAY</text>
<text x="90" y="136" font-size="16" fill="#9aa6bd">Sebring</text>
<rect x="1170" y="200" width="360" height="710" rx="16" fill="#ffffff" fill-opacity="0.04" stroke="#ff5a36" stroke-opacity="0.5"/>
<text x="1198" y="250" font-size="13" letter-spacing="2" fill="#8794ab">LAYOUT</text>
<text x="1198" y="276" font-size="22" font-weight="700" fill="#eef2fb">International Circuit</text>
<text x="1198" y="320" font-size="13" letter-spacing="2" fill="#8794ab">LENGTH</text>
<text x="1198" y="346" font-size="22" font-weight="700" fill="#eef2fb">5.954 km</text>
<text x="1198" y="390" font-size="13" letter-spacing="2" fill="#8794ab">CORNERS</text>
<text x="1198" y="416" font-size="22" font-weight="700" fill="#eef2fb">17</text>
<text x="1198" y="460" font-size="13" letter-spacing="2" fill="#8794ab">NAMED CORNERS</text>
<text x="1198" y="486" font-size="22" font-weight="700" fill="#eef2fb">8</text>
<text x="1198" y="530" font-size="13" letter-spacing="2" fill="#8794ab">DIRECTION</text>
<text x="1198" y="556" font-size="22" font-weight="700" fill="#eef2fb">Clockwise</text>
<text x="1198" y="600" font-size="13" letter-spacing="2" fill="#8794ab">SECTORS</text>
<text x="1198" y="626" font-size="22" font-weight="700" fill="#eef2fb">3</text>
<text x="1198" y="670" font-size="13" letter-spacing="2" fill="#8794ab">COUNTRY</text>
<text x="1198" y="696" font-size="22" font-weight="700" fill="#eef2fb">USA</text>
<text x="1198" y="740" font-size="13" letter-spacing="2" fill="#8794ab">LOCATION</text>
<text x="1198" y="766" font-size="22" font-weight="700" fill="#eef2fb">Sebring, Florida</text>
<text x="90" y="966" font-size="12" fill="#566177">Geometry © OpenStreetMap contributors (ODbL) · corner data: Lovely-Sim-Racing + curated · track-atlas</text>
<text x="90" y="942" font-size="12" fill="#8794ab">⚑ start / finish</text>
</svg>