<svg xmlns="http://www.w3.org/2000/svg" width="1600" height="1000" viewBox="0 0 1600 1000" font-family="Helvetica, Arial, sans-serif">
<defs>
      <radialGradient id="bg" cx="38%" cy="34%" r="85%">
        <stop offset="0%" stop-color="#1b2030"/>
        <stop offset="55%" stop-color="#12151f"/>
        <stop offset="100%" stop-color="#0a0c12"/>
      </radialGradient>
      <linearGradient id="accent" x1="0" y1="0" x2="1" y2="1">
        <stop offset="0%" stop-color="#ff5a36"/>
        <stop offset="100%" stop-color="#ffffff"/>
      </linearGradient>
      <filter id="glow" x="-40%" y="-40%" width="180%" height="180%">
        <feGaussianBlur stdDeviation="6" result="b"/>
        <feMerge><feMergeNode in="b"/><feMergeNode in="SourceGraphic"/></feMerge>
      </filter>
    </defs>
<rect width="1600" height="1000" fill="url(#bg)"/>
<line x1="0" y1="0" x2="0" y2="1000" stroke="#ffffff" stroke-opacity="0.025"/>
<line x1="56" y1="0" x2="56" y2="1000" stroke="#ffffff" stroke-opacity="0.025"/>
<line x1="112" y1="0" x2="112" y2="1000" stroke="#ffffff" stroke-opacity="0.025"/>
<line x1="168" y1="0" x2="168" y2="1000" stroke="#ffffff" stroke-opacity="0.025"/>
<line x1="224" y1="0" x2="224" y2="1000" stroke="#ffffff" stroke-opacity="0.025"/>
<line x1="280" y1="0" x2="280" y2="1000" stroke="#ffffff" stroke-opacity="0.025"/>
<line x1="336" y1="0" x2="336" y2="1000" stroke="#ffffff" stroke-opacity="0.025"/>
<line x1="392" y1="0" x2="392" y2="1000" stroke="#ffffff" stroke-opacity="0.025"/>
<line x1="448" y1="0" x2="448" y2="1000" stroke="#ffffff" stroke-opacity="0.025"/>
<line x1="504" y1="0" x2="504" y2="1000" stroke="#ffffff" stroke-opacity="0.025"/>
<line x1="560" y1="0" x2="560" y2="1000" stroke="#ffffff" stroke-opacity="0.025"/>
<line x1="616" y1="0" x2="616" y2="1000" stroke="#ffffff" stroke-opacity="0.025"/>
<line x1="672" y1="0" x2="672" y2="1000" stroke="#ffffff" stroke-opacity="0.025"/>
<line x1="728" y1="0" x2="728" y2="1000" stroke="#ffffff" stroke-opacity="0.025"/>
<line x1="784" y1="0" x2="784" y2="1000" stroke="#ffffff" stroke-opacity="0.025"/>
<line x1="840" y1="0" x2="840" y2="1000" stroke="#ffffff" stroke-opacity="0.025"/>
<line x1="896" y1="0" x2="896" y2="1000" stroke="#ffffff" stroke-opacity="0.025"/>
<line x1="952" y1="0" x2="952" y2="1000" stroke="#ffffff" stroke-opacity="0.025"/>
<line x1="1008" y1="0" x2="1008" y2="1000" stroke="#ffffff" stroke-opacity="0.025"/>
<line x1="1064" y1="0" x2="1064" y2="1000" stroke="#ffffff" stroke-opacity="0.025"/>
<line x1="1120" y1="0" x2="1120" y2="1000" stroke="#ffffff" stroke-opacity="0.025"/>
<line x1="1176" y1="0" x2="1176" y2="1000" stroke="#ffffff" stroke-opacity="0.025"/>
<line x1="1232" y1="0" x2="1232" y2="1000" stroke="#ffffff" stroke-opacity="0.025"/>
<line x1="1288" y1="0" x2="1288" y2="1000" stroke="#ffffff" stroke-opacity="0.025"/>
<line x1="1344" y1="0" x2="1344" y2="1000" stroke="#ffffff" stroke-opacity="0.025"/>
<line x1="1400" y1="0" x2="1400" y2="1000" stroke="#ffffff" stroke-opacity="0.025"/>
<line x1="1456" y1="0" x2="1456" y2="1000" stroke="#ffffff" stroke-opacity="0.025"/>
<line x1="1512" y1="0" x2="1512" y2="1000" stroke="#ffffff" stroke-opacity="0.025"/>
<line x1="1568" y1="0" x2="1568" y2="1000" stroke="#ffffff" stroke-opacity="0.025"/>
<line x1="0" y1="0" x2="1600" y2="0" stroke="#ffffff" stroke-opacity="0.025"/>
<line x1="0" y1="56" x2="1600" y2="56" stroke="#ffffff" stroke-opacity="0.025"/>
<line x1="0" y1="112" x2="1600" y2="112" stroke="#ffffff" stroke-opacity="0.025"/>
<line x1="0" y1="168" x2="1600" y2="168" stroke="#ffffff" stroke-opacity="0.025"/>
<line x1="0" y1="224" x2="1600" y2="224" stroke="#ffffff" stroke-opacity="0.025"/>
<line x1="0" y1="280" x2="1600" y2="280" stroke="#ffffff" stroke-opacity="0.025"/>
<line x1="0" y1="336" x2="1600" y2="336" stroke="#ffffff" stroke-opacity="0.025"/>
<line x1="0" y1="392" x2="1600" y2="392" stroke="#ffffff" stroke-opacity="0.025"/>
<line x1="0" y1="448" x2="1600" y2="448" stroke="#ffffff" stroke-opacity="0.025"/>
<line x1="0" y1="504" x2="1600" y2="504" stroke="#ffffff" stroke-opacity="0.025"/>
<line x1="0" y1="560" x2="1600" y2="560" stroke="#ffffff" stroke-opacity="0.025"/>
<line x1="0" y1="616" x2="1600" y2="616" stroke="#ffffff" stroke-opacity="0.025"/>
<line x1="0" y1="672" x2="1600" y2="672" stroke="#ffffff" stroke-opacity="0.025"/>
<line x1="0" y1="728" x2="1600" y2="728" stroke="#ffffff" stroke-opacity="0.025"/>
<line x1="0" y1="784" x2="1600" y2="784" stroke="#ffffff" stroke-opacity="0.025"/>
<line x1="0" y1="840" x2="1600" y2="840" stroke="#ffffff" stroke-opacity="0.025"/>
<line x1="0" y1="896" x2="1600" y2="896" stroke="#ffffff" stroke-opacity="0.025"/>
<line x1="0" y1="952" x2="1600" y2="952" stroke="#ffffff" stroke-opacity="0.025"/>
<path d="M 511.4,457.6 L 428.5,452.7 L 423.0,452.1 L 418.2,450.7 L 413.9,448.3 L 408.8,444.1 L 404.0,438.3 L 400.5,432.4 L 398.3,426.9 L 397.1,419.3 L 397.4,399.2 L 398.6,385.9 L 415.3,121.9 L 417.0,105.3 L 417.8,101.5 L 419.1,99.0 L 421.0,96.4 L 424.5,93.5 L 428.5,91.4 L 432.8,90.4 L 439.7,90.0 L 446.1,90.7 L 452.0,91.7 L 494.5,98.6 L 501.3,100.8 L 504.1,101.4 L 526.4,105.6 L 538.5,108.0 L 544.1,109.1 L 551.6,111.2 L 557.2,113.2 L 562.8,115.3 L 569.3,118.4 L 575.5,122.1 L 580.8,126.5 L 584.7,130.3 L 589.2,135.0 L 593.4,140.8 L 598.1,148.8 L 600.8,154.4 L 603.9,162.4 L 606.4,169.9 L 608.1,177.1 L 609.5,187.7 L 611.6,205.6 L 612.4,211.2 L 613.2,215.1 L 614.2,219.0 L 615.4,222.7 L 617.3,227.6 L 620.5,234.8 L 624.3,241.7 L 627.5,246.5 L 631.4,251.9 L 637.2,258.5 L 640.9,262.2 L 646.0,266.8 L 657.9,276.3 L 671.2,287.1 L 677.1,292.8 L 683.9,300.6 L 688.9,307.0 L 693.8,314.1 L 698.0,320.5 L 702.3,328.2 L 704.5,332.3 L 706.9,337.2 L 709.7,344.2 L 711.9,350.0 L 715.0,359.1 L 716.4,364.2 L 717.8,371.1 L 719.4,381.9 L 719.6,388.3 L 719.9,394.2 L 728.8,638.2 L 727.4,646.5 L 725.6,650.5 L 721.8,655.7 L 717.2,659.7 L 714.8,662.4 L 713.5,665.4 L 713.2,669.8 L 713.4,679.3 L 713.4,686.9 L 713.5,693.9 L 713.8,698.4 L 714.9,701.9 L 718.7,706.6 L 725.1,713.6 L 728.4,720.7 L 729.7,726.7 L 731.8,741.1 L 732.9,762.7 L 731.7,778.1 L 729.2,786.3 L 724.9,793.7 L 718.8,801.2 L 711.7,808.3 L 700.3,815.6 L 689.5,818.5 L 679.1,820.3 L 668.9,819.4 L 657.3,816.1 L 646.1,810.3 L 636.7,802.4 L 628.1,792.5 L 604.8,764.2 L 567.5,715.9 L 562.5,709.4 L 558.6,705.8 L 554.5,703.6 L 548.2,700.2 L 541.3,698.5 L 536.8,697.9 L 531.5,698.1 L 526.2,698.9 L 520.3,700.3 L 516.3,702.4 L 511.6,705.6 L 507.9,709.7 L 505.1,714.0 L 503.0,717.8 L 501.6,723.5 L 500.2,730.5 L 499.8,738.6 L 499.9,745.7 L 506.6,865.1 L 506.9,878.7 L 506.3,886.8 L 504.4,893.5 L 501.0,899.2 L 495.3,904.8 L 488.3,907.8 L 479.4,910.0 L 469.5,908.8 L 461.4,904.8 L 455.6,899.6 L 452.3,895.6 L 448.4,887.7 L 446.5,881.2 L 444.6,868.6 L 424.3,633.3 L 423.8,625.9 L 424.6,619.0 L 428.1,612.0 L 434.3,607.2 L 440.9,603.9 L 448.3,602.7 L 456.3,603.8 L 463.8,606.1 L 474.1,611.3 L 546.4,647.1 L 552.5,649.8 L 559.0,651.1 L 563.3,650.7 L 570.7,648.5 L 576.6,645.0 L 584.1,637.0 L 587.4,629.1 L 588.8,621.7 L 560.2,494.0 L 558.5,487.8 L 556.4,482.4 L 553.2,476.9 L 550.5,473.5 L 547.3,469.9 L 542.6,466.2 L 537.0,462.7 L 533.0,460.8 L 527.4,459.2 L 521.8,458.4 L 511.4,457.6 Z" fill="none" stroke="#000000" stroke-opacity="0.5" stroke-width="13" stroke-linejoin="round" stroke-linecap="round"/>
<path d="M 511.4,457.6 L 428.5,452.7 L 423.0,452.1 L 418.2,450.7 L 413.9,448.3 L 408.8,444.1 L 404.0,438.3 L 400.5,432.4 L 398.3,426.9 L 397.1,419.3 L 397.4,399.2 L 398.6,385.9 L 415.3,121.9 L 417.0,105.3 L 417.8,101.5 L 419.1,99.0 L 421.0,96.4 L 424.5,93.5 L 428.5,91.4 L 432.8,90.4 L 439.7,90.0 L 446.1,90.7 L 452.0,91.7 L 494.5,98.6 L 501.3,100.8 L 504.1,101.4 L 526.4,105.6 L 538.5,108.0 L 544.1,109.1 L 551.6,111.2 L 557.2,113.2 L 562.8,115.3 L 569.3,118.4 L 575.5,122.1 L 580.8,126.5 L 584.7,130.3 L 589.2,135.0 L 593.4,140.8 L 598.1,148.8 L 600.8,154.4 L 603.9,162.4 L 606.4,169.9 L 608.1,177.1 L 609.5,187.7 L 611.6,205.6 L 612.4,211.2 L 613.2,215.1 L 614.2,219.0 L 615.4,222.7 L 617.3,227.6 L 620.5,234.8 L 624.3,241.7 L 627.5,246.5 L 631.4,251.9 L 637.2,258.5 L 640.9,262.2 L 646.0,266.8 L 657.9,276.3 L 671.2,287.1 L 677.1,292.8 L 683.9,300.6 L 688.9,307.0 L 693.8,314.1 L 698.0,320.5 L 702.3,328.2 L 704.5,332.3 L 706.9,337.2 L 709.7,344.2 L 711.9,350.0 L 715.0,359.1 L 716.4,364.2 L 717.8,371.1 L 719.4,381.9 L 719.6,388.3 L 719.9,394.2 L 728.8,638.2 L 727.4,646.5 L 725.6,650.5 L 721.8,655.7 L 717.2,659.7 L 714.8,662.4 L 713.5,665.4 L 713.2,669.8 L 713.4,679.3 L 713.4,686.9 L 713.5,693.9 L 713.8,698.4 L 714.9,701.9 L 718.7,706.6 L 725.1,713.6 L 728.4,720.7 L 729.7,726.7 L 731.8,741.1 L 732.9,762.7 L 731.7,778.1 L 729.2,786.3 L 724.9,793.7 L 718.8,801.2 L 711.7,808.3 L 700.3,815.6 L 689.5,818.5 L 679.1,820.3 L 668.9,819.4 L 657.3,816.1 L 646.1,810.3 L 636.7,802.4 L 628.1,792.5 L 604.8,764.2 L 567.5,715.9 L 562.5,709.4 L 558.6,705.8 L 554.5,703.6 L 548.2,700.2 L 541.3,698.5 L 536.8,697.9 L 531.5,698.1 L 526.2,698.9 L 520.3,700.3 L 516.3,702.4 L 511.6,705.6 L 507.9,709.7 L 505.1,714.0 L 503.0,717.8 L 501.6,723.5 L 500.2,730.5 L 499.8,738.6 L 499.9,745.7 L 506.6,865.1 L 506.9,878.7 L 506.3,886.8 L 504.4,893.5 L 501.0,899.2 L 495.3,904.8 L 488.3,907.8 L 479.4,910.0 L 469.5,908.8 L 461.4,904.8 L 455.6,899.6 L 452.3,895.6 L 448.4,887.7 L 446.5,881.2 L 444.6,868.6 L 424.3,633.3 L 423.8,625.9 L 424.6,619.0 L 428.1,612.0 L 434.3,607.2 L 440.9,603.9 L 448.3,602.7 L 456.3,603.8 L 463.8,606.1 L 474.1,611.3 L 546.4,647.1 L 552.5,649.8 L 559.0,651.1 L 563.3,650.7 L 570.7,648.5 L 576.6,645.0 L 584.1,637.0 L 587.4,629.1 L 588.8,621.7 L 560.2,494.0 L 558.5,487.8 L 556.4,482.4 L 553.2,476.9 L 550.5,473.5 L 547.3,469.9 L 542.6,466.2 L 537.0,462.7 L 533.0,460.8 L 527.4,459.2 L 521.8,458.4 L 511.4,457.6 Z" fill="none" stroke="#39404f" stroke-width="8.5" stroke-linejoin="round" stroke-linecap="round"/>
<path d="M 511.4,457.6 L 428.5,452.7 L 423.0,452.1 L 418.2,450.7 L 413.9,448.3 L 408.8,444.1 L 404.0,438.3 L 400.5,432.4 L 398.3,426.9 L 397.1,419.3 L 397.4,399.2 L 398.6,385.9 L 415.3,121.9 L 417.0,105.3 L 417.8,101.5 L 419.1,99.0 L 421.0,96.4 L 424.5,93.5 L 428.5,91.4 L 432.8,90.4 L 439.7,90.0 L 446.1,90.7 L 452.0,91.7 L 494.5,98.6 L 501.3,100.8 L 504.1,101.4 L 526.4,105.6 L 538.5,108.0 L 544.1,109.1 L 551.6,111.2 L 557.2,113.2 L 562.8,115.3 L 569.3,118.4 L 575.5,122.1 L 580.8,126.5 L 584.7,130.3 L 589.2,135.0 L 593.4,140.8 L 598.1,148.8 L 600.8,154.4 L 603.9,162.4 L 606.4,169.9 L 608.1,177.1 L 609.5,187.7 L 611.6,205.6 L 612.4,211.2 L 613.2,215.1 L 614.2,219.0 L 615.4,222.7 L 617.3,227.6 L 620.5,234.8 L 624.3,241.7 L 627.5,246.5 L 631.4,251.9 L 637.2,258.5 L 640.9,262.2 L 646.0,266.8 L 657.9,276.3 L 671.2,287.1 L 677.1,292.8 L 683.9,300.6 L 688.9,307.0 L 693.8,314.1 L 698.0,320.5 L 702.3,328.2 L 704.5,332.3 L 706.9,337.2 L 709.7,344.2 L 711.9,350.0 L 715.0,359.1 L 716.4,364.2 L 717.8,371.1 L 719.4,381.9 L 719.6,388.3 L 719.9,394.2 L 728.8,638.2 L 727.4,646.5 L 725.6,650.5 L 721.8,655.7 L 717.2,659.7 L 714.8,662.4 L 713.5,665.4 L 713.2,669.8 L 713.4,679.3 L 713.4,686.9 L 713.5,693.9 L 713.8,698.4 L 714.9,701.9 L 718.7,706.6 L 725.1,713.6 L 728.4,720.7 L 729.7,726.7 L 731.8,741.1 L 732.9,762.7 L 731.7,778.1 L 729.2,786.3 L 724.9,793.7 L 718.8,801.2 L 711.7,808.3 L 700.3,815.6 L 689.5,818.5 L 679.1,820.3 L 668.9,819.4 L 657.3,816.1 L 646.1,810.3 L 636.7,802.4 L 628.1,792.5 L 604.8,764.2 L 567.5,715.9 L 562.5,709.4 L 558.6,705.8 L 554.5,703.6 L 548.2,700.2 L 541.3,698.5 L 536.8,697.9 L 531.5,698.1 L 526.2,698.9 L 520.3,700.3 L 516.3,702.4 L 511.6,705.6 L 507.9,709.7 L 505.1,714.0 L 503.0,717.8 L 501.6,723.5 L 500.2,730.5 L 499.8,738.6 L 499.9,745.7 L 506.6,865.1 L 506.9,878.7 L 506.3,886.8 L 504.4,893.5 L 501.0,899.2 L 495.3,904.8 L 488.3,907.8 L 479.4,910.0 L 469.5,908.8 L 461.4,904.8 L 455.6,899.6 L 452.3,895.6 L 448.4,887.7 L 446.5,881.2 L 444.6,868.6 L 424.3,633.3 L 423.8,625.9 L 424.6,619.0 L 428.1,612.0 L 434.3,607.2 L 440.9,603.9 L 448.3,602.7 L 456.3,603.8 L 463.8,606.1 L 474.1,611.3 L 546.4,647.1 L 552.5,649.8 L 559.0,651.1 L 563.3,650.7 L 570.7,648.5 L 576.6,645.0 L 584.1,637.0 L 587.4,629.1 L 588.8,621.7 L 560.2,494.0 L 558.5,487.8 L 556.4,482.4 L 553.2,476.9 L 550.5,473.5 L 547.3,469.9 L 542.6,466.2 L 537.0,462.7 L 533.0,460.8 L 527.4,459.2 L 521.8,458.4 L 511.4,457.6 Z" fill="none" stroke="#e7edf8" stroke-width="2.6" stroke-linejoin="round" stroke-linecap="round"/>
<path d="M 511.4,457.6 L 428.5,452.7 L 423.0,452.1 L 418.2,450.7 L 413.9,448.3 L 408.8,444.1 L 404.0,438.3 L 400.5,432.4 L 398.3,426.9 L 397.1,419.3 L 397.4,399.2 L 398.6,385.9 L 415.3,121.9 L 417.0,105.3 L 417.8,101.5 L 419.1,99.0 L 421.0,96.4 L 424.5,93.5 L 428.5,91.4 L 432.8,90.4 L 439.7,90.0 L 446.1,90.7 L 452.0,91.7 L 494.5,98.6 L 501.3,100.8 L 504.1,101.4 L 526.4,105.6 L 538.5,108.0 L 544.1,109.1 L 551.6,111.2 L 557.2,113.2 L 562.8,115.3 L 569.3,118.4 L 575.5,122.1 L 580.8,126.5 L 584.7,130.3 L 589.2,135.0 L 593.4,140.8 L 598.1,148.8 L 600.8,154.4 L 603.9,162.4 L 606.4,169.9 L 608.1,177.1 L 609.5,187.7 L 611.6,205.6 L 612.4,211.2 L 613.2,215.1 L 614.2,219.0 L 615.4,222.7 L 617.3,227.6 L 620.5,234.8 L 624.3,241.7 L 627.5,246.5 L 631.4,251.9 L 637.2,258.5 L 640.9,262.2 L 646.0,266.8 L 657.9,276.3 L 671.2,287.1 L 677.1,292.8 L 683.9,300.6 L 688.9,307.0 L 693.8,314.1 L 698.0,320.5 L 702.3,328.2 L 704.5,332.3 L 706.9,337.2 L 709.7,344.2 L 711.9,350.0 L 715.0,359.1 L 716.4,364.2 L 717.8,371.1 L 719.4,381.9 L 719.6,388.3 L 719.9,394.2 L 728.8,638.2 L 727.4,646.5 L 725.6,650.5 L 721.8,655.7 L 717.2,659.7 L 714.8,662.4 L 713.5,665.4 L 713.2,669.8 L 713.4,679.3 L 713.4,686.9 L 713.5,693.9 L 713.8,698.4 L 714.9,701.9 L 718.7,706.6 L 725.1,713.6 L 728.4,720.7 L 729.7,726.7 L 731.8,741.1 L 732.9,762.7 L 731.7,778.1 L 729.2,786.3 L 724.9,793.7 L 718.8,801.2 L 711.7,808.3 L 700.3,815.6 L 689.5,818.5 L 679.1,820.3 L 668.9,819.4 L 657.3,816.1 L 646.1,810.3 L 636.7,802.4 L 628.1,792.5 L 604.8,764.2 L 567.5,715.9 L 562.5,709.4 L 558.6,705.8 L 554.5,703.6 L 548.2,700.2 L 541.3,698.5 L 536.8,697.9 L 531.5,698.1 L 526.2,698.9 L 520.3,700.3 L 516.3,702.4 L 511.6,705.6 L 507.9,709.7 L 505.1,714.0 L 503.0,717.8 L 501.6,723.5 L 500.2,730.5 L 499.8,738.6 L 499.9,745.7 L 506.6,865.1 L 506.9,878.7 L 506.3,886.8 L 504.4,893.5 L 501.0,899.2 L 495.3,904.8 L 488.3,907.8 L 479.4,910.0 L 469.5,908.8 L 461.4,904.8 L 455.6,899.6 L 452.3,895.6 L 448.4,887.7 L 446.5,881.2 L 444.6,868.6 L 424.3,633.3 L 423.8,625.9 L 424.6,619.0 L 428.1,612.0 L 434.3,607.2 L 440.9,603.9 L 448.3,602.7 L 456.3,603.8 L 463.8,606.1 L 474.1,611.3 L 546.4,647.1 L 552.5,649.8 L 559.0,651.1 L 563.3,650.7 L 570.7,648.5 L 576.6,645.0 L 584.1,637.0 L 587.4,629.1 L 588.8,621.7 L 560.2,494.0 L 558.5,487.8 L 556.4,482.4 L 553.2,476.9 L 550.5,473.5 L 547.3,469.9 L 542.6,466.2 L 537.0,462.7 L 533.0,460.8 L 527.4,459.2 L 521.8,458.4 L 511.4,457.6 Z" fill="none" stroke="#ff5a36" stroke-opacity="0.55" stroke-width="1.2" stroke-linejoin="round" filter="url(#glow)"/>
<circle cx="405.8" cy="271.1" r="13" fill="none" stroke="#ffffff" stroke-width="3"/>
<rect x="401.8" y="249.1" width="8" height="18" fill="#ffffff"/>
<circle cx="417.0" cy="105.5" r="7" fill="#ff5a36" stroke="#0a0c12" stroke-width="2.5" filter="url(#glow)"/>
<text x="417.0" y="108.9" font-size="9" font-weight="700" fill="#0a0c12" text-anchor="middle">1</text>
<circle cx="625.3" cy="235.2" r="7" fill="#ff5a36" stroke="#0a0c12" stroke-width="2.5" filter="url(#glow)"/>
<text x="625.3" y="238.6" font-size="9" font-weight="700" fill="#0a0c12" text-anchor="middle">2</text>
<circle cx="720.3" cy="684.3" r="7" fill="#ff5a36" stroke="#0a0c12" stroke-width="2.5" filter="url(#glow)"/>
<text x="720.3" y="687.7" font-size="9" font-weight="700" fill="#0a0c12" text-anchor="middle">3</text>
<circle cx="692.5" cy="797.8" r="7" fill="#ff5a36" stroke="#0a0c12" stroke-width="2.5" filter="url(#glow)"/>
<text x="692.5" y="801.2" font-size="9" font-weight="700" fill="#0a0c12" text-anchor="middle">4</text>
<circle cx="525.9" cy="711.4" r="7" fill="#ff5a36" stroke="#0a0c12" stroke-width="2.5" filter="url(#glow)"/>
<text x="525.9" y="714.8" font-size="9" font-weight="700" fill="#0a0c12" text-anchor="middle">5</text>
<circle cx="477.8" cy="892.8" r="7" fill="#ff5a36" stroke="#0a0c12" stroke-width="2.5" filter="url(#glow)"/>
<text x="477.8" y="896.2" font-size="9" font-weight="700" fill="#0a0c12" text-anchor="middle">6</text>
<circle cx="441.9" cy="612.5" r="7" fill="#ff5a36" stroke="#0a0c12" stroke-width="2.5" filter="url(#glow)"/>
<text x="441.9" y="615.9" font-size="9" font-weight="700" fill="#0a0c12" text-anchor="middle">7</text>
<circle cx="579.6" cy="641.8" r="7" fill="#ff5a36" stroke="#0a0c12" stroke-width="2.5" filter="url(#glow)"/>
<text x="579.6" y="645.2" font-size="9" font-weight="700" fill="#0a0c12" text-anchor="middle">8</text>
<circle cx="552.3" cy="475.8" r="7" fill="#ff5a36" stroke="#0a0c12" stroke-width="2.5" filter="url(#glow)"/>
<text x="552.3" y="479.2" font-size="9" font-weight="700" fill="#0a0c12" text-anchor="middle">9</text>
<circle cx="399.6" cy="430.2" r="7" fill="#ff5a36" stroke="#0a0c12" stroke-width="2.5" filter="url(#glow)"/>
<text x="399.6" y="433.6" font-size="9" font-weight="700" fill="#0a0c12" text-anchor="middle">10</text>
<line x1="417.0" y1="105.5" x2="398.4" y2="162.0" stroke="#ff5a36" stroke-opacity="0.45" stroke-width="1.3"/>
<text x="390.4" y="166.0" font-size="15" font-weight="600" fill="#eef2fb" text-anchor="end">Turn 1</text>
<line x1="692.5" y1="797.8" x2="712.6" y2="845.7" stroke="#ff5a36" stroke-opacity="0.45" stroke-width="1.3"/>
<text x="720.6" y="849.7" font-size="15" font-weight="600" fill="#eef2fb" text-anchor="start">The Esses</text>
<line x1="441.9" y1="612.5" x2="402.0" y2="646.0" stroke="#ff5a36" stroke-opacity="0.45" stroke-width="1.3"/>
<text x="394.0" y="650.0" font-size="15" font-weight="600" fill="#eef2fb" text-anchor="end">The Loop</text>
<line x1="552.3" y1="475.8" x2="526.3" y2="439.2" stroke="#ff5a36" stroke-opacity="0.45" stroke-width="1.3"/>
<text x="518.3" y="443.2" font-size="15" font-weight="600" fill="#eef2fb" text-anchor="end">The Bus Stop</text>
<line x1="399.6" y1="430.2" x2="352.1" y2="409.2" stroke="#ff5a36" stroke-opacity="0.45" stroke-width="1.3"/>
<text x="344.1" y="413.2" font-size="15" font-weight="600" fill="#eef2fb" text-anchor="end">Turn 10</text>
<text x="90" y="64" font-size="20" letter-spacing="5" fill="#ff5a36" font-weight="700">TRACK ATLAS</text>
<text x="90" y="108" font-size="42" font-weight="800" fill="#ffffff">WATKINS GLEN INTERNATIONAL</text>
<text x="90" y="136" font-size="16" fill="#9aa6bd">The Glen</text>
<rect x="1170" y="200" width="360" height="710" rx="16" fill="#ffffff" fill-opacity="0.04" stroke="#ff5a36" stroke-opacity="0.5"/>
<text x="1198" y="250" font-size="13" letter-spacing="2" fill="#8794ab">LAYOUT</text>
<text x="1198" y="276" font-size="22" font-weight="700" fill="#eef2fb">Full Course (Boot)</text>
<text x="1198" y="320" font-size="13" letter-spacing="2" fill="#8794ab">LENGTH</text>
<text x="1198" y="346" font-size="22" font-weight="700" fill="#eef2fb">5.435 km</text>
<text x="1198" y="390" font-size="13" letter-spacing="2" fill="#8794ab">CORNERS</text>
<text x="1198" y="416" font-size="22" font-weight="700" fill="#eef2fb">10</text>
<text x="1198" y="460" font-size="13" letter-spacing="2" fill="#8794ab">NAMED CORNERS</text>
<text x="1198" y="486" font-size="22" font-weight="700" fill="#eef2fb">10</text>
<text x="1198" y="530" font-size="13" letter-spacing="2" fill="#8794ab">DIRECTION</text>
<text x="1198" y="556" font-size="22" font-weight="700" fill="#eef2fb">Clockwise</text>
<text x="1198" y="600" font-size="13" letter-spacing="2" fill="#8794ab">SECTORS</text>
<text x="1198" y="626" font-size="22" font-weight="700" fill="#eef2fb">5</text>
<text x="1198" y="670" font-size="13" letter-spacing="2" fill="#8794ab">COUNTRY</text>
<text x="1198" y="696" font-size="22" font-weight="700" fill="#eef2fb">USA</text>
<text x="1198" y="740" font-size="13" letter-spacing="2" fill="#8794ab">LOCATION</text>
<text x="1198" y="766" font-size="22" font-weight="700" fill="#eef2fb">Watkins Glen, New York</text>
<text x="1198" y="810" font-size="13" letter-spacing="2" fill="#8794ab">COMPLEXES</text>
<rect x="1198" y="816" width="86" height="24" rx="12" fill="#ff5a36" fill-opacity="0.16" stroke="#ff5a36" stroke-opacity="0.5"/>
<text x="1241" y="833" font-size="12" fill="#eef2fb" text-anchor="middle">The Esses</text>
<rect x="1294" y="816" width="78" height="24" rx="12" fill="#ff5a36" fill-opacity="0.16" stroke="#ff5a36" stroke-opacity="0.5"/>
<text x="1333" y="833" font-size="12" fill="#eef2fb" text-anchor="middle">The Loop</text>
<rect x="1382" y="816" width="110" height="24" rx="12" fill="#ff5a36" fill-opacity="0.16" stroke="#ff5a36" stroke-opacity="0.5"/>
<text x="1437" y="833" font-size="12" fill="#eef2fb" text-anchor="middle">The Bus Stop</text>
<text x="90" y="966" font-size="12" fill="#566177">Geometry © OpenStreetMap contributors (ODbL) · corner data: Lovely-Sim-Racing + curated · track-atlas</text>
<text x="90" y="942" font-size="12" fill="#8794ab">⚑ start / finish</text>
</svg>