<svg xmlns="http://www.w3.org/2000/svg" width="1600" height="1000" viewBox="0 0 1600 1000" font-family="Helvetica, Arial, sans-serif">
<defs>
      <radialGradient id="bg" cx="38%" cy="34%" r="85%">
        <stop offset="0%" stop-color="#1b2030"/>
        <stop offset="55%" stop-color="#12151f"/>
        <stop offset="100%" stop-color="#0a0c12"/>
      </radialGradient>
      <linearGradient id="accent" x1="0" y1="0" x2="1" y2="1">
        <stop offset="0%" stop-color="#ff5a36"/>
        <stop offset="100%" stop-color="#ffffff"/>
      </linearGradient>
      <filter id="glow" x="-40%" y="-40%" width="180%" height="180%">
        <feGaussianBlur stdDeviation="6" result="b"/>
        <feMerge><feMergeNode in="b"/><feMergeNode in="SourceGraphic"/></feMerge>
      </filter>
    </defs>
<rect width="1600" height="1000" fill="url(#bg)"/>
<path d="M 282.4,748.8 L 344.7,748.6 L 424.9,748.4 L 567.6,747.6 L 713.7,747.2 L 764.0,747.0 L 774.0,746.1 L 783.9,745.2 L 795.7,742.5 L 805.5,737.6 L 815.8,729.3 L 823.8,719.7 L 829.3,709.4 L 833.6,695.5 L 835.8,679.8 L 836.0,667.8 L 834.6,643.0 L 833.7,636.6 L 832.7,629.2 L 829.1,611.7 L 818.7,555.3 L 815.5,542.2 L 813.0,523.8 L 810.2,507.3 L 808.7,495.6 L 807.9,466.8 L 807.9,414.9 L 805.1,403.9 L 800.6,397.6 L 786.5,390.5 L 763.3,390.3 L 756.2,389.8 L 744.8,386.2 L 732.2,378.2 L 720.2,369.5 L 705.5,359.7 L 699.4,356.5 L 693.5,354.8 L 688.5,353.6 L 682.8,353.6 L 676.0,353.8 L 667.1,356.5 L 660.6,359.5 L 653.0,368.5 L 648.4,375.4 L 643.1,388.4 L 633.5,411.6 L 629.2,420.2 L 623.5,429.1 L 618.4,436.0 L 608.3,448.7 L 590.6,469.6 L 583.2,477.4 L 549.7,506.1 L 534.8,516.2 L 503.5,531.1 L 475.6,540.8 L 450.9,545.9 L 413.9,549.4 L 377.7,549.6 L 315.6,549.4 L 267.6,549.7 L 227.5,550.0 L 156.3,550.3 L 138.9,550.6 L 131.4,550.2 L 126.3,547.8 L 122.5,544.5 L 119.6,539.6 L 118.4,534.5 L 118.2,530.5 L 119.2,525.6 L 120.6,522.3 L 123.7,518.9 L 128.8,514.4 L 133.7,508.5 L 135.9,504.2 L 137.3,500.1 L 137.7,495.9 L 138.1,488.6 L 138.3,482.4 L 143.6,465.3 L 149.1,456.4 L 159.3,442.8 L 195.5,405.3 L 202.8,398.3 L 212.4,391.6 L 219.7,387.6 L 227.6,383.5 L 237.5,379.2 L 242.8,377.2 L 337.4,344.2 L 345.7,340.5 L 354.4,336.0 L 362.0,331.6 L 370.4,325.9 L 380.7,317.4 L 412.9,284.9 L 468.4,229.5 L 516.9,181.0 L 525.8,172.1 L 531.1,169.0 L 535.8,168.0 L 542.1,169.0 L 546.2,170.6 L 550.5,172.9 L 560.6,182.5 L 567.0,190.6 L 583.4,212.8 L 588.1,217.3 L 600.5,224.2 L 628.2,234.4 L 647.3,239.0 L 653.5,239.2 L 669.1,236.0 L 685.4,230.5 L 698.4,225.8 L 747.9,199.8 L 756.6,197.3 L 765.6,196.5 L 825.5,195.3 L 844.9,194.7 L 852.3,195.5 L 858.3,197.2 L 862.6,198.8 L 867.0,201.0 L 871.4,204.3 L 874.4,208.3 L 876.5,213.6 L 877.7,218.6 L 878.4,223.7 L 879.1,229.8 L 879.9,370.9 L 879.8,463.8 L 879.6,470.2 L 879.3,477.1 L 878.5,484.9 L 876.9,495.2 L 875.9,500.8 L 875.1,507.2 L 875.2,513.9 L 875.8,518.5 L 876.9,523.2 L 878.6,527.9 L 881.8,536.0 L 914.8,613.3 L 917.6,618.7 L 920.5,622.7 L 924.1,626.8 L 998.2,700.5 L 1002.5,705.9 L 1005.9,711.0 L 1008.1,715.9 L 1009.7,720.5 L 1011.2,726.2 L 1011.8,732.6 L 1011.7,738.8 L 1010.7,745.1 L 1009.4,749.8 L 1006.5,755.7 L 997.5,770.5 L 993.4,776.7 L 988.6,784.2 L 985.1,790.2 L 982.4,795.3 L 980.6,800.7 L 978.9,807.5 L 969.7,876.3 L 968.7,881.6 L 966.1,887.7 L 962.8,893.0 L 958.2,897.7 L 953.3,901.4 L 948.7,903.9 L 942.4,906.0 L 934.1,906.8 L 343.8,909.2 L 264.5,910.0 L 254.7,907.2 L 245.4,903.4 L 198.1,873.5 L 186.1,864.4 L 178.0,856.4 L 173.9,849.5 L 170.0,839.8 L 168.5,831.0 L 168.2,822.8 L 169.3,816.0 L 171.2,809.4 L 180.6,790.5 L 187.3,779.8 L 191.8,773.5 L 194.5,770.0 L 197.6,767.0 L 203.9,762.7 L 211.4,759.4 L 219.6,756.0 L 233.8,752.7 L 254.6,750.9 L 282.4,748.8 Z" fill="none" stroke="#000000" stroke-opacity="0.5" stroke-width="13" stroke-linejoin="round" stroke-linecap="round"/>
<path d="M 282.4,748.8 L 344.7,748.6 L 424.9,748.4 L 567.6,747.6 L 713.7,747.2 L 764.0,747.0 L 774.0,746.1 L 783.9,745.2 L 795.7,742.5 L 805.5,737.6 L 815.8,729.3 L 823.8,719.7 L 829.3,709.4 L 833.6,695.5 L 835.8,679.8 L 836.0,667.8 L 834.6,643.0 L 833.7,636.6 L 832.7,629.2 L 829.1,611.7 L 818.7,555.3 L 815.5,542.2 L 813.0,523.8 L 810.2,507.3 L 808.7,495.6 L 807.9,466.8 L 807.9,414.9 L 805.1,403.9 L 800.6,397.6 L 786.5,390.5 L 763.3,390.3 L 756.2,389.8 L 744.8,386.2 L 732.2,378.2 L 720.2,369.5 L 705.5,359.7 L 699.4,356.5 L 693.5,354.8 L 688.5,353.6 L 682.8,353.6 L 676.0,353.8 L 667.1,356.5 L 660.6,359.5 L 653.0,368.5 L 648.4,375.4 L 643.1,388.4 L 633.5,411.6 L 629.2,420.2 L 623.5,429.1 L 618.4,436.0 L 608.3,448.7 L 590.6,469.6 L 583.2,477.4 L 549.7,506.1 L 534.8,516.2 L 503.5,531.1 L 475.6,540.8 L 450.9,545.9 L 413.9,549.4 L 377.7,549.6 L 315.6,549.4 L 267.6,549.7 L 227.5,550.0 L 156.3,550.3 L 138.9,550.6 L 131.4,550.2 L 126.3,547.8 L 122.5,544.5 L 119.6,539.6 L 118.4,534.5 L 118.2,530.5 L 119.2,525.6 L 120.6,522.3 L 123.7,518.9 L 128.8,514.4 L 133.7,508.5 L 135.9,504.2 L 137.3,500.1 L 137.7,495.9 L 138.1,488.6 L 138.3,482.4 L 143.6,465.3 L 149.1,456.4 L 159.3,442.8 L 195.5,405.3 L 202.8,398.3 L 212.4,391.6 L 219.7,387.6 L 227.6,383.5 L 237.5,379.2 L 242.8,377.2 L 337.4,344.2 L 345.7,340.5 L 354.4,336.0 L 362.0,331.6 L 370.4,325.9 L 380.7,317.4 L 412.9,284.9 L 468.4,229.5 L 516.9,181.0 L 525.8,172.1 L 531.1,169.0 L 535.8,168.0 L 542.1,169.0 L 546.2,170.6 L 550.5,172.9 L 560.6,182.5 L 567.0,190.6 L 583.4,212.8 L 588.1,217.3 L 600.5,224.2 L 628.2,234.4 L 647.3,239.0 L 653.5,239.2 L 669.1,236.0 L 685.4,230.5 L 698.4,225.8 L 747.9,199.8 L 756.6,197.3 L 765.6,196.5 L 825.5,195.3 L 844.9,194.7 L 852.3,195.5 L 858.3,197.2 L 862.6,198.8 L 867.0,201.0 L 871.4,204.3 L 874.4,208.3 L 876.5,213.6 L 877.7,218.6 L 878.4,223.7 L 879.1,229.8 L 879.9,370.9 L 879.8,463.8 L 879.6,470.2 L 879.3,477.1 L 878.5,484.9 L 876.9,495.2 L 875.9,500.8 L 875.1,507.2 L 875.2,513.9 L 875.8,518.5 L 876.9,523.2 L 878.6,527.9 L 881.8,536.0 L 914.8,613.3 L 917.6,618.7 L 920.5,622.7 L 924.1,626.8 L 998.2,700.5 L 1002.5,705.9 L 1005.9,711.0 L 1008.1,715.9 L 1009.7,720.5 L 1011.2,726.2 L 1011.8,732.6 L 1011.7,738.8 L 1010.7,745.1 L 1009.4,749.8 L 1006.5,755.7 L 997.5,770.5 L 993.4,776.7 L 988.6,784.2 L 985.1,790.2 L 982.4,795.3 L 980.6,800.7 L 978.9,807.5 L 969.7,876.3 L 968.7,881.6 L 966.1,887.7 L 962.8,893.0 L 958.2,897.7 L 953.3,901.4 L 948.7,903.9 L 942.4,906.0 L 934.1,906.8 L 343.8,909.2 L 264.5,910.0 L 254.7,907.2 L 245.4,903.4 L 198.1,873.5 L 186.1,864.4 L 178.0,856.4 L 173.9,849.5 L 170.0,839.8 L 168.5,831.0 L 168.2,822.8 L 169.3,816.0 L 171.2,809.4 L 180.6,790.5 L 187.3,779.8 L 191.8,773.5 L 194.5,770.0 L 197.6,767.0 L 203.9,762.7 L 211.4,759.4 L 219.6,756.0 L 233.8,752.7 L 254.6,750.9 L 282.4,748.8 Z" fill="none" stroke="#39404f" stroke-width="8.5" stroke-linejoin="round" stroke-linecap="round"/>
<path d="M 282.4,748.8 L 344.7,748.6 L 424.9,748.4 L 567.6,747.6 L 713.7,747.2 L 764.0,747.0 L 774.0,746.1 L 783.9,745.2 L 795.7,742.5 L 805.5,737.6 L 815.8,729.3 L 823.8,719.7 L 829.3,709.4 L 833.6,695.5 L 835.8,679.8 L 836.0,667.8 L 834.6,643.0 L 833.7,636.6 L 832.7,629.2 L 829.1,611.7 L 818.7,555.3 L 815.5,542.2 L 813.0,523.8 L 810.2,507.3 L 808.7,495.6 L 807.9,466.8 L 807.9,414.9 L 805.1,403.9 L 800.6,397.6 L 786.5,390.5 L 763.3,390.3 L 756.2,389.8 L 744.8,386.2 L 732.2,378.2 L 720.2,369.5 L 705.5,359.7 L 699.4,356.5 L 693.5,354.8 L 688.5,353.6 L 682.8,353.6 L 676.0,353.8 L 667.1,356.5 L 660.6,359.5 L 653.0,368.5 L 648.4,375.4 L 643.1,388.4 L 633.5,411.6 L 629.2,420.2 L 623.5,429.1 L 618.4,436.0 L 608.3,448.7 L 590.6,469.6 L 583.2,477.4 L 549.7,506.1 L 534.8,516.2 L 503.5,531.1 L 475.6,540.8 L 450.9,545.9 L 413.9,549.4 L 377.7,549.6 L 315.6,549.4 L 267.6,549.7 L 227.5,550.0 L 156.3,550.3 L 138.9,550.6 L 131.4,550.2 L 126.3,547.8 L 122.5,544.5 L 119.6,539.6 L 118.4,534.5 L 118.2,530.5 L 119.2,525.6 L 120.6,522.3 L 123.7,518.9 L 128.8,514.4 L 133.7,508.5 L 135.9,504.2 L 137.3,500.1 L 137.7,495.9 L 138.1,488.6 L 138.3,482.4 L 143.6,465.3 L 149.1,456.4 L 159.3,442.8 L 195.5,405.3 L 202.8,398.3 L 212.4,391.6 L 219.7,387.6 L 227.6,383.5 L 237.5,379.2 L 242.8,377.2 L 337.4,344.2 L 345.7,340.5 L 354.4,336.0 L 362.0,331.6 L 370.4,325.9 L 380.7,317.4 L 412.9,284.9 L 468.4,229.5 L 516.9,181.0 L 525.8,172.1 L 531.1,169.0 L 535.8,168.0 L 542.1,169.0 L 546.2,170.6 L 550.5,172.9 L 560.6,182.5 L 567.0,190.6 L 583.4,212.8 L 588.1,217.3 L 600.5,224.2 L 628.2,234.4 L 647.3,239.0 L 653.5,239.2 L 669.1,236.0 L 685.4,230.5 L 698.4,225.8 L 747.9,199.8 L 756.6,197.3 L 765.6,196.5 L 825.5,195.3 L 844.9,194.7 L 852.3,195.5 L 858.3,197.2 L 862.6,198.8 L 867.0,201.0 L 871.4,204.3 L 874.4,208.3 L 876.5,213.6 L 877.7,218.6 L 878.4,223.7 L 879.1,229.8 L 879.9,370.9 L 879.8,463.8 L 879.6,470.2 L 879.3,477.1 L 878.5,484.9 L 876.9,495.2 L 875.9,500.8 L 875.1,507.2 L 875.2,513.9 L 875.8,518.5 L 876.9,523.2 L 878.6,527.9 L 881.8,536.0 L 914.8,613.3 L 917.6,618.7 L 920.5,622.7 L 924.1,626.8 L 998.2,700.5 L 1002.5,705.9 L 1005.9,711.0 L 1008.1,715.9 L 1009.7,720.5 L 1011.2,726.2 L 1011.8,732.6 L 1011.7,738.8 L 1010.7,745.1 L 1009.4,749.8 L 1006.5,755.7 L 997.5,770.5 L 993.4,776.7 L 988.6,784.2 L 985.1,790.2 L 982.4,795.3 L 980.6,800.7 L 978.9,807.5 L 969.7,876.3 L 968.7,881.6 L 966.1,887.7 L 962.8,893.0 L 958.2,897.7 L 953.3,901.4 L 948.7,903.9 L 942.4,906.0 L 934.1,906.8 L 343.8,909.2 L 264.5,910.0 L 254.7,907.2 L 245.4,903.4 L 198.1,873.5 L 186.1,864.4 L 178.0,856.4 L 173.9,849.5 L 170.0,839.8 L 168.5,831.0 L 168.2,822.8 L 169.3,816.0 L 171.2,809.4 L 180.6,790.5 L 187.3,779.8 L 191.8,773.5 L 194.5,770.0 L 197.6,767.0 L 203.9,762.7 L 211.4,759.4 L 219.6,756.0 L 233.8,752.7 L 254.6,750.9 L 282.4,748.8 Z" fill="none" stroke="#e7edf8" stroke-width="2.6" stroke-linejoin="round" stroke-linecap="round"/>
<path d="M 282.4,748.8 L 344.7,748.6 L 424.9,748.4 L 567.6,747.6 L 713.7,747.2 L 764.0,747.0 L 774.0,746.1 L 783.9,745.2 L 795.7,742.5 L 805.5,737.6 L 815.8,729.3 L 823.8,719.7 L 829.3,709.4 L 833.6,695.5 L 835.8,679.8 L 836.0,667.8 L 834.6,643.0 L 833.7,636.6 L 832.7,629.2 L 829.1,611.7 L 818.7,555.3 L 815.5,542.2 L 813.0,523.8 L 810.2,507.3 L 808.7,495.6 L 807.9,466.8 L 807.9,414.9 L 805.1,403.9 L 800.6,397.6 L 786.5,390.5 L 763.3,390.3 L 756.2,389.8 L 744.8,386.2 L 732.2,378.2 L 720.2,369.5 L 705.5,359.7 L 699.4,356.5 L 693.5,354.8 L 688.5,353.6 L 682.8,353.6 L 676.0,353.8 L 667.1,356.5 L 660.6,359.5 L 653.0,368.5 L 648.4,375.4 L 643.1,388.4 L 633.5,411.6 L 629.2,420.2 L 623.5,429.1 L 618.4,436.0 L 608.3,448.7 L 590.6,469.6 L 583.2,477.4 L 549.7,506.1 L 534.8,516.2 L 503.5,531.1 L 475.6,540.8 L 450.9,545.9 L 413.9,549.4 L 377.7,549.6 L 315.6,549.4 L 267.6,549.7 L 227.5,550.0 L 156.3,550.3 L 138.9,550.6 L 131.4,550.2 L 126.3,547.8 L 122.5,544.5 L 119.6,539.6 L 118.4,534.5 L 118.2,530.5 L 119.2,525.6 L 120.6,522.3 L 123.7,518.9 L 128.8,514.4 L 133.7,508.5 L 135.9,504.2 L 137.3,500.1 L 137.7,495.9 L 138.1,488.6 L 138.3,482.4 L 143.6,465.3 L 149.1,456.4 L 159.3,442.8 L 195.5,405.3 L 202.8,398.3 L 212.4,391.6 L 219.7,387.6 L 227.6,383.5 L 237.5,379.2 L 242.8,377.2 L 337.4,344.2 L 345.7,340.5 L 354.4,336.0 L 362.0,331.6 L 370.4,325.9 L 380.7,317.4 L 412.9,284.9 L 468.4,229.5 L 516.9,181.0 L 525.8,172.1 L 531.1,169.0 L 535.8,168.0 L 542.1,169.0 L 546.2,170.6 L 550.5,172.9 L 560.6,182.5 L 567.0,190.6 L 583.4,212.8 L 588.1,217.3 L 600.5,224.2 L 628.2,234.4 L 647.3,239.0 L 653.5,239.2 L 669.1,236.0 L 685.4,230.5 L 698.4,225.8 L 747.9,199.8 L 756.6,197.3 L 765.6,196.5 L 825.5,195.3 L 844.9,194.7 L 852.3,195.5 L 858.3,197.2 L 862.6,198.8 L 867.0,201.0 L 871.4,204.3 L 874.4,208.3 L 876.5,213.6 L 877.7,218.6 L 878.4,223.7 L 879.1,229.8 L 879.9,370.9 L 879.8,463.8 L 879.6,470.2 L 879.3,477.1 L 878.5,484.9 L 876.9,495.2 L 875.9,500.8 L 875.1,507.2 L 875.2,513.9 L 875.8,518.5 L 876.9,523.2 L 878.6,527.9 L 881.8,536.0 L 914.8,613.3 L 917.6,618.7 L 920.5,622.7 L 924.1,626.8 L 998.2,700.5 L 1002.5,705.9 L 1005.9,711.0 L 1008.1,715.9 L 1009.7,720.5 L 1011.2,726.2 L 1011.8,732.6 L 1011.7,738.8 L 1010.7,745.1 L 1009.4,749.8 L 1006.5,755.7 L 997.5,770.5 L 993.4,776.7 L 988.6,784.2 L 985.1,790.2 L 982.4,795.3 L 980.6,800.7 L 978.9,807.5 L 969.7,876.3 L 968.7,881.6 L 966.1,887.7 L 962.8,893.0 L 958.2,897.7 L 953.3,901.4 L 948.7,903.9 L 942.4,906.0 L 934.1,906.8 L 343.8,909.2 L 264.5,910.0 L 254.7,907.2 L 245.4,903.4 L 198.1,873.5 L 186.1,864.4 L 178.0,856.4 L 173.9,849.5 L 170.0,839.8 L 168.5,831.0 L 168.2,822.8 L 169.3,816.0 L 171.2,809.4 L 180.6,790.5 L 187.3,779.8 L 191.8,773.5 L 194.5,770.0 L 197.6,767.0 L 203.9,762.7 L 211.4,759.4 L 219.6,756.0 L 233.8,752.7 L 254.6,750.9 L 282.4,748.8 Z" fill="none" stroke="#ff5a36" stroke-opacity="0.55" stroke-width="1.2" stroke-linejoin="round" filter="url(#glow)"/>
<circle cx="475.2" cy="748.1" r="13" fill="none" stroke="#ffffff" stroke-width="3"/>
<rect x="471.2" y="726.1" width="8" height="18" fill="#ffffff"/>
<circle cx="835.6" cy="680.9" r="7" fill="#ff5a36" stroke="#0a0c12" stroke-width="2.5" filter="url(#glow)"/>
<text x="835.6" y="684.3" font-size="9" font-weight="700" fill="#0a0c12" text-anchor="middle">1</text>
<circle cx="807.9" cy="461.9" r="7" fill="#ff5a36" stroke="#0a0c12" stroke-width="2.5" filter="url(#glow)"/>
<text x="807.9" y="465.3" font-size="9" font-weight="700" fill="#0a0c12" text-anchor="middle">2</text>
<circle cx="779.8" cy="390.5" r="7" fill="#ff5a36" stroke="#0a0c12" stroke-width="2.5" filter="url(#glow)"/>
<text x="779.8" y="393.9" font-size="9" font-weight="700" fill="#0a0c12" text-anchor="middle">3</text>
<circle cx="737.5" cy="381.6" r="7" fill="#ff5a36" stroke="#0a0c12" stroke-width="2.5" filter="url(#glow)"/>
<text x="737.5" y="385.0" font-size="9" font-weight="700" fill="#0a0c12" text-anchor="middle">4</text>
<circle cx="658.9" cy="361.6" r="7" fill="#ff5a36" stroke="#0a0c12" stroke-width="2.5" filter="url(#glow)"/>
<text x="658.9" y="365.0" font-size="9" font-weight="700" fill="#0a0c12" text-anchor="middle">5</text>
<circle cx="432.2" cy="547.6" r="7" fill="#ff5a36" stroke="#0a0c12" stroke-width="2.5" filter="url(#glow)"/>
<text x="432.2" y="551.0" font-size="9" font-weight="700" fill="#0a0c12" text-anchor="middle">6</text>
<circle cx="133.2" cy="513.0" r="7" fill="#ff5a36" stroke="#0a0c12" stroke-width="2.5" filter="url(#glow)"/>
<text x="133.2" y="516.4" font-size="9" font-weight="700" fill="#0a0c12" text-anchor="middle">7</text>
<circle cx="180.1" cy="421.3" r="7" fill="#ff5a36" stroke="#0a0c12" stroke-width="2.5" filter="url(#glow)"/>
<text x="180.1" y="424.7" font-size="9" font-weight="700" fill="#0a0c12" text-anchor="middle">8</text>
<circle cx="226.1" cy="390.0" r="7" fill="#ff5a36" stroke="#0a0c12" stroke-width="2.5" filter="url(#glow)"/>
<text x="226.1" y="393.4" font-size="9" font-weight="700" fill="#0a0c12" text-anchor="middle">9</text>
<circle cx="426.8" cy="271.0" r="7" fill="#ff5a36" stroke="#0a0c12" stroke-width="2.5" filter="url(#glow)"/>
<text x="426.8" y="274.4" font-size="9" font-weight="700" fill="#0a0c12" text-anchor="middle">10</text>
<circle cx="564.3" cy="187.3" r="7" fill="#ff5a36" stroke="#0a0c12" stroke-width="2.5" filter="url(#glow)"/>
<text x="564.3" y="190.7" font-size="9" font-weight="700" fill="#0a0c12" text-anchor="middle">11</text>
<circle cx="639.0" cy="237.0" r="7" fill="#ff5a36" stroke="#0a0c12" stroke-width="2.5" filter="url(#glow)"/>
<text x="639.0" y="240.4" font-size="9" font-weight="700" fill="#0a0c12" text-anchor="middle">12</text>
<circle cx="769.9" cy="196.4" r="7" fill="#ff5a36" stroke="#0a0c12" stroke-width="2.5" filter="url(#glow)"/>
<text x="769.9" y="199.8" font-size="9" font-weight="700" fill="#0a0c12" text-anchor="middle">13</text>
<circle cx="879.8" cy="425.4" r="7" fill="#ff5a36" stroke="#0a0c12" stroke-width="2.5" filter="url(#glow)"/>
<text x="879.8" y="428.8" font-size="9" font-weight="700" fill="#0a0c12" text-anchor="middle">14</text>
<circle cx="971.8" cy="674.2" r="7" fill="#ff5a36" stroke="#0a0c12" stroke-width="2.5" filter="url(#glow)"/>
<text x="971.8" y="677.6" font-size="9" font-weight="700" fill="#0a0c12" text-anchor="middle">15</text>
<circle cx="974.9" cy="837.9" r="7" fill="#ff5a36" stroke="#0a0c12" stroke-width="2.5" filter="url(#glow)"/>
<text x="974.9" y="841.3" font-size="9" font-weight="700" fill="#0a0c12" text-anchor="middle">16</text>
<circle cx="204.6" cy="812.8" r="7" fill="#ff5a36" stroke="#0a0c12" stroke-width="2.5" filter="url(#glow)"/>
<text x="204.6" y="816.2" font-size="9" font-weight="700" fill="#0a0c12" text-anchor="middle">17</text>
<line x1="835.6" y1="680.9" x2="879.1" y2="725.6" stroke="#ff5a36" stroke-opacity="0.45" stroke-width="1.3"/>
<text x="887.1" y="729.6" font-size="15" font-weight="600" fill="#eef2fb" text-anchor="start">Tower Turn</text>
<line x1="779.8" y1="390.5" x2="821.7" y2="359.6" stroke="#ff5a36" stroke-opacity="0.45" stroke-width="1.3"/>
<text x="829.7" y="363.6" font-size="15" font-weight="600" fill="#eef2fb" text-anchor="start">Bend</text>
<line x1="658.9" y1="361.6" x2="677.1" y2="312.9" stroke="#ff5a36" stroke-opacity="0.45" stroke-width="1.3"/>
<text x="685.1" y="316.9" font-size="15" font-weight="600" fill="#eef2fb" text-anchor="start">Warehouse</text>
<line x1="432.2" y1="547.6" x2="380.7" y2="554.8" stroke="#ff5a36" stroke-opacity="0.45" stroke-width="1.3"/>
<text x="372.7" y="558.8" font-size="15" font-weight="600" fill="#eef2fb" text-anchor="end">Big Bend</text>
<line x1="133.2" y1="513.0" x2="81.2" y2="511.7" stroke="#ff5a36" stroke-opacity="0.45" stroke-width="1.3"/>
<text x="73.2" y="515.7" font-size="15" font-weight="600" fill="#eef2fb" text-anchor="end">Hairpin</text>
<line x1="180.1" y1="421.3" x2="129.6" y2="408.8" stroke="#ff5a36" stroke-opacity="0.45" stroke-width="1.3"/>
<text x="121.6" y="412.8" font-size="15" font-weight="600" fill="#eef2fb" text-anchor="end">Bishop Bend</text>
<line x1="226.1" y1="390.0" x2="177.2" y2="372.3" stroke="#ff5a36" stroke-opacity="0.45" stroke-width="1.3"/>
<text x="169.2" y="376.3" font-size="15" font-weight="600" fill="#eef2fb" text-anchor="end">Cunningham</text>
<line x1="426.8" y1="271.0" x2="397.7" y2="227.9" stroke="#ff5a36" stroke-opacity="0.45" stroke-width="1.3"/>
<text x="389.7" y="231.9" font-size="15" font-weight="600" fill="#eef2fb" text-anchor="end">Gendebien</text>
<line x1="564.3" y1="187.3" x2="559.2" y2="168.0" stroke="#ff5a36" stroke-opacity="0.45" stroke-width="1.3"/>
<text x="551.2" y="172.0" font-size="15" font-weight="600" fill="#eef2fb" text-anchor="end">Collier</text>
<line x1="769.9" y1="196.4" x2="794.0" y2="150.3" stroke="#ff5a36" stroke-opacity="0.45" stroke-width="1.3"/>
<text x="802.0" y="154.3" font-size="15" font-weight="600" fill="#eef2fb" text-anchor="start">Tower</text>
<line x1="879.8" y1="425.4" x2="928.9" y2="408.2" stroke="#ff5a36" stroke-opacity="0.45" stroke-width="1.3"/>
<text x="936.9" y="412.2" font-size="15" font-weight="600" fill="#eef2fb" text-anchor="start">Bishop</text>
<line x1="971.8" y1="674.2" x2="1020.1" y2="693.6" stroke="#ff5a36" stroke-opacity="0.45" stroke-width="1.3"/>
<text x="1028.1" y="697.6" font-size="15" font-weight="600" fill="#eef2fb" text-anchor="start">Coca-Cola</text>
<line x1="974.9" y1="837.9" x2="1014.9" y2="871.1" stroke="#ff5a36" stroke-opacity="0.45" stroke-width="1.3"/>
<text x="1022.9" y="875.1" font-size="15" font-weight="600" fill="#eef2fb" text-anchor="start">Le Mans</text>
<line x1="204.6" y1="812.8" x2="162.7" y2="843.6" stroke="#ff5a36" stroke-opacity="0.45" stroke-width="1.3"/>
<text x="154.7" y="847.6" font-size="15" font-weight="600" fill="#eef2fb" text-anchor="end">Turn 17</text>
<text x="90" y="64" font-size="20" letter-spacing="5" fill="#ff5a36" font-weight="700">TRACK ATLAS</text>
<text x="90" y="108" font-size="42" font-weight="800" fill="#ffffff">SEBRING INTERNATIONAL RACEWAY</text>
<text x="90" y="136" font-size="16" fill="#9aa6bd">Sebring</text>
<rect x="1170" y="200" width="360" height="710" rx="16" fill="#ffffff" fill-opacity="0.04" stroke="#ff5a36" stroke-opacity="0.5"/>
<text x="1198" y="250" font-size="13" letter-spacing="2" fill="#8794ab">LAYOUT</text>
<text x="1198" y="276" font-size="22" font-weight="700" fill="#eef2fb">International Circuit</text>
<text x="1198" y="320" font-size="13" letter-spacing="2" fill="#8794ab">LENGTH</text>
<text x="1198" y="346" font-size="22" font-weight="700" fill="#eef2fb">5.954 km</text>
<text x="1198" y="390" font-size="13" letter-spacing="2" fill="#8794ab">CORNERS</text>
<text x="1198" y="416" font-size="22" font-weight="700" fill="#eef2fb">17</text>
<text x="1198" y="460" font-size="13" letter-spacing="2" fill="#8794ab">NAMED CORNERS</text>
<text x="1198" y="486" font-size="22" font-weight="700" fill="#eef2fb">14</text>
<text x="1198" y="530" font-size="13" letter-spacing="2" fill="#8794ab">DIRECTION</text>
<text x="1198" y="556" font-size="22" font-weight="700" fill="#eef2fb">Clockwise</text>
<text x="1198" y="600" font-size="13" letter-spacing="2" fill="#8794ab">SECTORS</text>
<text x="1198" y="626" font-size="22" font-weight="700" fill="#eef2fb">3</text>
<text x="1198" y="670" font-size="13" letter-spacing="2" fill="#8794ab">COUNTRY</text>
<text x="1198" y="696" font-size="22" font-weight="700" fill="#eef2fb">USA</text>
<text x="1198" y="740" font-size="13" letter-spacing="2" fill="#8794ab">LOCATION</text>
<text x="1198" y="766" font-size="22" font-weight="700" fill="#eef2fb">Sebring, Florida</text>
<text x="90" y="966" font-size="12" fill="#566177">Geometry © OpenStreetMap contributors (ODbL) · corner data: Lovely-Sim-Racing + curated · track-atlas</text>
<text x="90" y="942" font-size="12" fill="#8794ab">⚑ start / finish</text>
</svg>