<svg xmlns="http://www.w3.org/2000/svg" width="1600" height="1000" viewBox="0 0 1600 1000" font-family="Helvetica, Arial, sans-serif">
<defs>
      <radialGradient id="bg" cx="38%" cy="34%" r="85%">
        <stop offset="0%" stop-color="#1b2030"/>
        <stop offset="55%" stop-color="#12151f"/>
        <stop offset="100%" stop-color="#0a0c12"/>
      </radialGradient>
      <linearGradient id="accent" x1="0" y1="0" x2="1" y2="1">
        <stop offset="0%" stop-color="#ff5a36"/>
        <stop offset="100%" stop-color="#ffffff"/>
      </linearGradient>
      <filter id="glow" x="-40%" y="-40%" width="180%" height="180%">
        <feGaussianBlur stdDeviation="6" result="b"/>
        <feMerge><feMergeNode in="b"/><feMergeNode in="SourceGraphic"/></feMerge>
      </filter>
    </defs>
<rect width="1600" height="1000" fill="url(#bg)"/>
<path d="M 99.4,343.4 L 101.2,345.4 L 107.8,353.0 L 115.5,359.7 L 123.5,366.4 L 138.4,378.1 L 148.5,385.6 L 157.4,391.7 L 178.4,405.4 L 197.5,416.8 L 215.5,426.4 L 229.8,433.4 L 233.9,435.4 L 245.9,440.7 L 261.7,447.4 L 286.0,456.0 L 328.2,470.9 L 381.6,489.9 L 466.3,519.7 L 482.9,525.7 L 487.8,527.2 L 491.0,528.0 L 497.0,528.6 L 503.5,528.1 L 509.8,526.7 L 517.8,524.3 L 525.0,522.0 L 532.5,519.2 L 538.7,516.4 L 544.9,513.7 L 550.2,510.7 L 560.1,504.4 L 566.0,500.4 L 570.4,497.1 L 579.4,489.5 L 598.2,472.0 L 607.1,463.7 L 638.3,434.9 L 640.9,432.7 L 649.3,426.1 L 652.9,423.6 L 656.6,421.1 L 659.1,419.6 L 660.9,419.0 L 662.7,418.6 L 664.4,418.6 L 666.0,419.0 L 667.4,419.8 L 678.7,429.7 L 680.9,431.2 L 683.4,432.0 L 686.0,432.2 L 688.6,431.7 L 691.0,430.6 L 693.1,428.9 L 703.1,420.0 L 709.9,415.4 L 715.8,412.4 L 722.1,410.0 L 730.2,408.8 L 736.5,408.6 L 742.7,408.9 L 747.4,409.5 L 749.6,409.8 L 754.5,410.5 L 757.3,411.2 L 765.3,413.7 L 770.7,415.8 L 782.7,422.5 L 792.5,429.5 L 799.8,435.8 L 807.3,443.0 L 817.1,454.1 L 830.6,470.0 L 937.8,600.0 L 1019.0,699.5 L 1027.3,709.7 L 1031.9,715.5 L 1035.6,722.2 L 1037.7,727.4 L 1038.8,731.0 L 1039.4,733.8 L 1039.9,738.0 L 1040.0,740.9 L 1039.6,745.8 L 1038.8,750.4 L 1037.7,754.7 L 1035.3,762.6 L 1030.6,776.3 L 1028.0,780.8 L 1025.6,784.3 L 1021.9,787.5 L 1017.6,790.1 L 1013.0,791.8 L 1008.1,792.8 L 1003.1,792.8 L 998.2,792.1 L 993.5,790.5 L 989.2,788.2 L 985.3,785.1 L 981.2,780.9 L 974.2,769.2 L 943.2,721.0 L 937.2,712.5 L 933.6,708.5 L 929.5,705.1 L 924.9,702.4 L 919.9,700.4 L 914.7,699.2 L 909.4,698.8 L 896.5,698.5 L 891.7,698.1 L 886.9,697.0 L 882.4,695.2 L 878.1,692.9 L 874.2,690.0 L 870.8,686.5 L 867.8,682.7 L 865.4,678.4 L 863.6,673.9 L 862.1,669.1 L 855.1,643.1 L 853.6,638.1 L 851.5,633.3 L 848.7,628.9 L 845.4,624.9 L 841.5,621.4 L 837.3,618.4 L 835.6,617.5 L 832.6,616.0 L 827.7,614.2 L 822.6,613.2 L 817.4,612.8 L 798.9,612.2 L 795.8,612.0 L 792.0,611.7 L 785.7,610.0 L 780.2,607.5 L 774.7,604.2 L 769.9,600.2 L 765.2,595.0 L 761.6,589.8 L 759.0,584.1 L 757.5,578.0 L 757.0,571.8 L 757.7,565.5 L 759.4,559.5 L 761.3,554.7 L 769.9,531.8 L 771.6,526.2 L 772.5,520.5 L 772.6,514.6 L 771.7,508.8 L 770.1,503.2 L 767.6,497.9 L 764.4,493.0 L 760.5,488.7 L 756.1,484.9 L 748.4,480.4 L 739.4,475.9 L 732.3,472.7 L 725.1,469.8 L 720.0,467.9 L 715.3,466.8 L 711.0,465.8 L 704.8,464.9 L 699.6,464.4 L 688.5,464.2 L 682.7,464.5 L 676.0,464.9 L 668.7,466.2 L 661.2,468.8 L 645.3,475.8 L 638.1,479.5 L 630.6,484.1 L 624.5,488.7 L 620.8,492.1 L 618.2,494.6 L 615.6,497.1 L 609.1,503.8 L 566.2,555.7 L 564.3,558.0 L 561.3,560.9 L 558.6,562.0 L 495.5,567.6 L 490.4,567.6 L 488.0,566.8 L 485.8,565.5 L 484.0,563.8 L 482.6,561.6 L 481.7,559.2 L 481.1,556.7 L 458.4,441.0 L 455.9,428.2 L 455.0,420.7 L 455.1,414.6 L 456.1,408.4 L 459.2,398.9 L 464.2,388.2 L 475.3,362.9 L 476.3,359.3 L 475.9,355.4 L 474.5,352.4 L 472.3,350.0 L 469.3,348.4 L 466.0,347.9 L 462.9,348.4 L 459.7,349.8 L 457.2,352.3 L 455.1,355.0 L 442.1,376.9 L 439.4,380.9 L 430.9,394.4 L 421.7,409.2 L 416.4,415.7 L 411.8,421.1 L 405.0,428.0 L 401.2,431.4 L 397.3,434.3 L 385.4,441.3 L 373.9,444.9 L 360.3,446.5 L 351.5,447.3 L 342.5,447.7 L 335.8,447.6 L 327.7,446.8 L 315.7,445.2 L 299.0,441.1 L 284.1,436.1 L 269.0,430.6 L 258.6,425.8 L 248.3,419.8 L 239.6,413.9 L 229.7,405.8 L 224.1,400.0 L 219.2,394.4 L 215.3,389.6 L 211.0,383.7 L 205.6,374.8 L 200.8,365.2 L 186.5,331.9 L 173.2,301.6 L 171.5,298.7 L 169.7,296.5 L 167.6,294.2 L 165.1,292.0 L 162.1,289.9 L 159.2,288.4 L 155.9,287.0 L 152.3,286.1 L 144.7,285.2 L 134.9,285.5 L 128.6,286.2 L 121.5,287.5 L 112.9,289.7 L 107.9,291.7 L 103.2,293.9 L 100.8,295.3 L 98.2,297.5 L 95.9,300.3 L 93.5,304.3 L 91.8,308.1 L 90.3,313.3 L 90.0,318.8 L 90.4,323.6 L 91.8,329.2 L 93.6,334.0 L 96.9,340.0 L 99.4,343.4 Z" fill="none" stroke="#000000" stroke-opacity="0.5" stroke-width="13" stroke-linejoin="round" stroke-linecap="round"/>
<path d="M 99.4,343.4 L 101.2,345.4 L 107.8,353.0 L 115.5,359.7 L 123.5,366.4 L 138.4,378.1 L 148.5,385.6 L 157.4,391.7 L 178.4,405.4 L 197.5,416.8 L 215.5,426.4 L 229.8,433.4 L 233.9,435.4 L 245.9,440.7 L 261.7,447.4 L 286.0,456.0 L 328.2,470.9 L 381.6,489.9 L 466.3,519.7 L 482.9,525.7 L 487.8,527.2 L 491.0,528.0 L 497.0,528.6 L 503.5,528.1 L 509.8,526.7 L 517.8,524.3 L 525.0,522.0 L 532.5,519.2 L 538.7,516.4 L 544.9,513.7 L 550.2,510.7 L 560.1,504.4 L 566.0,500.4 L 570.4,497.1 L 579.4,489.5 L 598.2,472.0 L 607.1,463.7 L 638.3,434.9 L 640.9,432.7 L 649.3,426.1 L 652.9,423.6 L 656.6,421.1 L 659.1,419.6 L 660.9,419.0 L 662.7,418.6 L 664.4,418.6 L 666.0,419.0 L 667.4,419.8 L 678.7,429.7 L 680.9,431.2 L 683.4,432.0 L 686.0,432.2 L 688.6,431.7 L 691.0,430.6 L 693.1,428.9 L 703.1,420.0 L 709.9,415.4 L 715.8,412.4 L 722.1,410.0 L 730.2,408.8 L 736.5,408.6 L 742.7,408.9 L 747.4,409.5 L 749.6,409.8 L 754.5,410.5 L 757.3,411.2 L 765.3,413.7 L 770.7,415.8 L 782.7,422.5 L 792.5,429.5 L 799.8,435.8 L 807.3,443.0 L 817.1,454.1 L 830.6,470.0 L 937.8,600.0 L 1019.0,699.5 L 1027.3,709.7 L 1031.9,715.5 L 1035.6,722.2 L 1037.7,727.4 L 1038.8,731.0 L 1039.4,733.8 L 1039.9,738.0 L 1040.0,740.9 L 1039.6,745.8 L 1038.8,750.4 L 1037.7,754.7 L 1035.3,762.6 L 1030.6,776.3 L 1028.0,780.8 L 1025.6,784.3 L 1021.9,787.5 L 1017.6,790.1 L 1013.0,791.8 L 1008.1,792.8 L 1003.1,792.8 L 998.2,792.1 L 993.5,790.5 L 989.2,788.2 L 985.3,785.1 L 981.2,780.9 L 974.2,769.2 L 943.2,721.0 L 937.2,712.5 L 933.6,708.5 L 929.5,705.1 L 924.9,702.4 L 919.9,700.4 L 914.7,699.2 L 909.4,698.8 L 896.5,698.5 L 891.7,698.1 L 886.9,697.0 L 882.4,695.2 L 878.1,692.9 L 874.2,690.0 L 870.8,686.5 L 867.8,682.7 L 865.4,678.4 L 863.6,673.9 L 862.1,669.1 L 855.1,643.1 L 853.6,638.1 L 851.5,633.3 L 848.7,628.9 L 845.4,624.9 L 841.5,621.4 L 837.3,618.4 L 835.6,617.5 L 832.6,616.0 L 827.7,614.2 L 822.6,613.2 L 817.4,612.8 L 798.9,612.2 L 795.8,612.0 L 792.0,611.7 L 785.7,610.0 L 780.2,607.5 L 774.7,604.2 L 769.9,600.2 L 765.2,595.0 L 761.6,589.8 L 759.0,584.1 L 757.5,578.0 L 757.0,571.8 L 757.7,565.5 L 759.4,559.5 L 761.3,554.7 L 769.9,531.8 L 771.6,526.2 L 772.5,520.5 L 772.6,514.6 L 771.7,508.8 L 770.1,503.2 L 767.6,497.9 L 764.4,493.0 L 760.5,488.7 L 756.1,484.9 L 748.4,480.4 L 739.4,475.9 L 732.3,472.7 L 725.1,469.8 L 720.0,467.9 L 715.3,466.8 L 711.0,465.8 L 704.8,464.9 L 699.6,464.4 L 688.5,464.2 L 682.7,464.5 L 676.0,464.9 L 668.7,466.2 L 661.2,468.8 L 645.3,475.8 L 638.1,479.5 L 630.6,484.1 L 624.5,488.7 L 620.8,492.1 L 618.2,494.6 L 615.6,497.1 L 609.1,503.8 L 566.2,555.7 L 564.3,558.0 L 561.3,560.9 L 558.6,562.0 L 495.5,567.6 L 490.4,567.6 L 488.0,566.8 L 485.8,565.5 L 484.0,563.8 L 482.6,561.6 L 481.7,559.2 L 481.1,556.7 L 458.4,441.0 L 455.9,428.2 L 455.0,420.7 L 455.1,414.6 L 456.1,408.4 L 459.2,398.9 L 464.2,388.2 L 475.3,362.9 L 476.3,359.3 L 475.9,355.4 L 474.5,352.4 L 472.3,350.0 L 469.3,348.4 L 466.0,347.9 L 462.9,348.4 L 459.7,349.8 L 457.2,352.3 L 455.1,355.0 L 442.1,376.9 L 439.4,380.9 L 430.9,394.4 L 421.7,409.2 L 416.4,415.7 L 411.8,421.1 L 405.0,428.0 L 401.2,431.4 L 397.3,434.3 L 385.4,441.3 L 373.9,444.9 L 360.3,446.5 L 351.5,447.3 L 342.5,447.7 L 335.8,447.6 L 327.7,446.8 L 315.7,445.2 L 299.0,441.1 L 284.1,436.1 L 269.0,430.6 L 258.6,425.8 L 248.3,419.8 L 239.6,413.9 L 229.7,405.8 L 224.1,400.0 L 219.2,394.4 L 215.3,389.6 L 211.0,383.7 L 205.6,374.8 L 200.8,365.2 L 186.5,331.9 L 173.2,301.6 L 171.5,298.7 L 169.7,296.5 L 167.6,294.2 L 165.1,292.0 L 162.1,289.9 L 159.2,288.4 L 155.9,287.0 L 152.3,286.1 L 144.7,285.2 L 134.9,285.5 L 128.6,286.2 L 121.5,287.5 L 112.9,289.7 L 107.9,291.7 L 103.2,293.9 L 100.8,295.3 L 98.2,297.5 L 95.9,300.3 L 93.5,304.3 L 91.8,308.1 L 90.3,313.3 L 90.0,318.8 L 90.4,323.6 L 91.8,329.2 L 93.6,334.0 L 96.9,340.0 L 99.4,343.4 Z" fill="none" stroke="#39404f" stroke-width="8.5" stroke-linejoin="round" stroke-linecap="round"/>
<path d="M 99.4,343.4 L 101.2,345.4 L 107.8,353.0 L 115.5,359.7 L 123.5,366.4 L 138.4,378.1 L 148.5,385.6 L 157.4,391.7 L 178.4,405.4 L 197.5,416.8 L 215.5,426.4 L 229.8,433.4 L 233.9,435.4 L 245.9,440.7 L 261.7,447.4 L 286.0,456.0 L 328.2,470.9 L 381.6,489.9 L 466.3,519.7 L 482.9,525.7 L 487.8,527.2 L 491.0,528.0 L 497.0,528.6 L 503.5,528.1 L 509.8,526.7 L 517.8,524.3 L 525.0,522.0 L 532.5,519.2 L 538.7,516.4 L 544.9,513.7 L 550.2,510.7 L 560.1,504.4 L 566.0,500.4 L 570.4,497.1 L 579.4,489.5 L 598.2,472.0 L 607.1,463.7 L 638.3,434.9 L 640.9,432.7 L 649.3,426.1 L 652.9,423.6 L 656.6,421.1 L 659.1,419.6 L 660.9,419.0 L 662.7,418.6 L 664.4,418.6 L 666.0,419.0 L 667.4,419.8 L 678.7,429.7 L 680.9,431.2 L 683.4,432.0 L 686.0,432.2 L 688.6,431.7 L 691.0,430.6 L 693.1,428.9 L 703.1,420.0 L 709.9,415.4 L 715.8,412.4 L 722.1,410.0 L 730.2,408.8 L 736.5,408.6 L 742.7,408.9 L 747.4,409.5 L 749.6,409.8 L 754.5,410.5 L 757.3,411.2 L 765.3,413.7 L 770.7,415.8 L 782.7,422.5 L 792.5,429.5 L 799.8,435.8 L 807.3,443.0 L 817.1,454.1 L 830.6,470.0 L 937.8,600.0 L 1019.0,699.5 L 1027.3,709.7 L 1031.9,715.5 L 1035.6,722.2 L 1037.7,727.4 L 1038.8,731.0 L 1039.4,733.8 L 1039.9,738.0 L 1040.0,740.9 L 1039.6,745.8 L 1038.8,750.4 L 1037.7,754.7 L 1035.3,762.6 L 1030.6,776.3 L 1028.0,780.8 L 1025.6,784.3 L 1021.9,787.5 L 1017.6,790.1 L 1013.0,791.8 L 1008.1,792.8 L 1003.1,792.8 L 998.2,792.1 L 993.5,790.5 L 989.2,788.2 L 985.3,785.1 L 981.2,780.9 L 974.2,769.2 L 943.2,721.0 L 937.2,712.5 L 933.6,708.5 L 929.5,705.1 L 924.9,702.4 L 919.9,700.4 L 914.7,699.2 L 909.4,698.8 L 896.5,698.5 L 891.7,698.1 L 886.9,697.0 L 882.4,695.2 L 878.1,692.9 L 874.2,690.0 L 870.8,686.5 L 867.8,682.7 L 865.4,678.4 L 863.6,673.9 L 862.1,669.1 L 855.1,643.1 L 853.6,638.1 L 851.5,633.3 L 848.7,628.9 L 845.4,624.9 L 841.5,621.4 L 837.3,618.4 L 835.6,617.5 L 832.6,616.0 L 827.7,614.2 L 822.6,613.2 L 817.4,612.8 L 798.9,612.2 L 795.8,612.0 L 792.0,611.7 L 785.7,610.0 L 780.2,607.5 L 774.7,604.2 L 769.9,600.2 L 765.2,595.0 L 761.6,589.8 L 759.0,584.1 L 757.5,578.0 L 757.0,571.8 L 757.7,565.5 L 759.4,559.5 L 761.3,554.7 L 769.9,531.8 L 771.6,526.2 L 772.5,520.5 L 772.6,514.6 L 771.7,508.8 L 770.1,503.2 L 767.6,497.9 L 764.4,493.0 L 760.5,488.7 L 756.1,484.9 L 748.4,480.4 L 739.4,475.9 L 732.3,472.7 L 725.1,469.8 L 720.0,467.9 L 715.3,466.8 L 711.0,465.8 L 704.8,464.9 L 699.6,464.4 L 688.5,464.2 L 682.7,464.5 L 676.0,464.9 L 668.7,466.2 L 661.2,468.8 L 645.3,475.8 L 638.1,479.5 L 630.6,484.1 L 624.5,488.7 L 620.8,492.1 L 618.2,494.6 L 615.6,497.1 L 609.1,503.8 L 566.2,555.7 L 564.3,558.0 L 561.3,560.9 L 558.6,562.0 L 495.5,567.6 L 490.4,567.6 L 488.0,566.8 L 485.8,565.5 L 484.0,563.8 L 482.6,561.6 L 481.7,559.2 L 481.1,556.7 L 458.4,441.0 L 455.9,428.2 L 455.0,420.7 L 455.1,414.6 L 456.1,408.4 L 459.2,398.9 L 464.2,388.2 L 475.3,362.9 L 476.3,359.3 L 475.9,355.4 L 474.5,352.4 L 472.3,350.0 L 469.3,348.4 L 466.0,347.9 L 462.9,348.4 L 459.7,349.8 L 457.2,352.3 L 455.1,355.0 L 442.1,376.9 L 439.4,380.9 L 430.9,394.4 L 421.7,409.2 L 416.4,415.7 L 411.8,421.1 L 405.0,428.0 L 401.2,431.4 L 397.3,434.3 L 385.4,441.3 L 373.9,444.9 L 360.3,446.5 L 351.5,447.3 L 342.5,447.7 L 335.8,447.6 L 327.7,446.8 L 315.7,445.2 L 299.0,441.1 L 284.1,436.1 L 269.0,430.6 L 258.6,425.8 L 248.3,419.8 L 239.6,413.9 L 229.7,405.8 L 224.1,400.0 L 219.2,394.4 L 215.3,389.6 L 211.0,383.7 L 205.6,374.8 L 200.8,365.2 L 186.5,331.9 L 173.2,301.6 L 171.5,298.7 L 169.7,296.5 L 167.6,294.2 L 165.1,292.0 L 162.1,289.9 L 159.2,288.4 L 155.9,287.0 L 152.3,286.1 L 144.7,285.2 L 134.9,285.5 L 128.6,286.2 L 121.5,287.5 L 112.9,289.7 L 107.9,291.7 L 103.2,293.9 L 100.8,295.3 L 98.2,297.5 L 95.9,300.3 L 93.5,304.3 L 91.8,308.1 L 90.3,313.3 L 90.0,318.8 L 90.4,323.6 L 91.8,329.2 L 93.6,334.0 L 96.9,340.0 L 99.4,343.4 Z" fill="none" stroke="#e7edf8" stroke-width="2.6" stroke-linejoin="round" stroke-linecap="round"/>
<path d="M 99.4,343.4 L 101.2,345.4 L 107.8,353.0 L 115.5,359.7 L 123.5,366.4 L 138.4,378.1 L 148.5,385.6 L 157.4,391.7 L 178.4,405.4 L 197.5,416.8 L 215.5,426.4 L 229.8,433.4 L 233.9,435.4 L 245.9,440.7 L 261.7,447.4 L 286.0,456.0 L 328.2,470.9 L 381.6,489.9 L 466.3,519.7 L 482.9,525.7 L 487.8,527.2 L 491.0,528.0 L 497.0,528.6 L 503.5,528.1 L 509.8,526.7 L 517.8,524.3 L 525.0,522.0 L 532.5,519.2 L 538.7,516.4 L 544.9,513.7 L 550.2,510.7 L 560.1,504.4 L 566.0,500.4 L 570.4,497.1 L 579.4,489.5 L 598.2,472.0 L 607.1,463.7 L 638.3,434.9 L 640.9,432.7 L 649.3,426.1 L 652.9,423.6 L 656.6,421.1 L 659.1,419.6 L 660.9,419.0 L 662.7,418.6 L 664.4,418.6 L 666.0,419.0 L 667.4,419.8 L 678.7,429.7 L 680.9,431.2 L 683.4,432.0 L 686.0,432.2 L 688.6,431.7 L 691.0,430.6 L 693.1,428.9 L 703.1,420.0 L 709.9,415.4 L 715.8,412.4 L 722.1,410.0 L 730.2,408.8 L 736.5,408.6 L 742.7,408.9 L 747.4,409.5 L 749.6,409.8 L 754.5,410.5 L 757.3,411.2 L 765.3,413.7 L 770.7,415.8 L 782.7,422.5 L 792.5,429.5 L 799.8,435.8 L 807.3,443.0 L 817.1,454.1 L 830.6,470.0 L 937.8,600.0 L 1019.0,699.5 L 1027.3,709.7 L 1031.9,715.5 L 1035.6,722.2 L 1037.7,727.4 L 1038.8,731.0 L 1039.4,733.8 L 1039.9,738.0 L 1040.0,740.9 L 1039.6,745.8 L 1038.8,750.4 L 1037.7,754.7 L 1035.3,762.6 L 1030.6,776.3 L 1028.0,780.8 L 1025.6,784.3 L 1021.9,787.5 L 1017.6,790.1 L 1013.0,791.8 L 1008.1,792.8 L 1003.1,792.8 L 998.2,792.1 L 993.5,790.5 L 989.2,788.2 L 985.3,785.1 L 981.2,780.9 L 974.2,769.2 L 943.2,721.0 L 937.2,712.5 L 933.6,708.5 L 929.5,705.1 L 924.9,702.4 L 919.9,700.4 L 914.7,699.2 L 909.4,698.8 L 896.5,698.5 L 891.7,698.1 L 886.9,697.0 L 882.4,695.2 L 878.1,692.9 L 874.2,690.0 L 870.8,686.5 L 867.8,682.7 L 865.4,678.4 L 863.6,673.9 L 862.1,669.1 L 855.1,643.1 L 853.6,638.1 L 851.5,633.3 L 848.7,628.9 L 845.4,624.9 L 841.5,621.4 L 837.3,618.4 L 835.6,617.5 L 832.6,616.0 L 827.7,614.2 L 822.6,613.2 L 817.4,612.8 L 798.9,612.2 L 795.8,612.0 L 792.0,611.7 L 785.7,610.0 L 780.2,607.5 L 774.7,604.2 L 769.9,600.2 L 765.2,595.0 L 761.6,589.8 L 759.0,584.1 L 757.5,578.0 L 757.0,571.8 L 757.7,565.5 L 759.4,559.5 L 761.3,554.7 L 769.9,531.8 L 771.6,526.2 L 772.5,520.5 L 772.6,514.6 L 771.7,508.8 L 770.1,503.2 L 767.6,497.9 L 764.4,493.0 L 760.5,488.7 L 756.1,484.9 L 748.4,480.4 L 739.4,475.9 L 732.3,472.7 L 725.1,469.8 L 720.0,467.9 L 715.3,466.8 L 711.0,465.8 L 704.8,464.9 L 699.6,464.4 L 688.5,464.2 L 682.7,464.5 L 676.0,464.9 L 668.7,466.2 L 661.2,468.8 L 645.3,475.8 L 638.1,479.5 L 630.6,484.1 L 624.5,488.7 L 620.8,492.1 L 618.2,494.6 L 615.6,497.1 L 609.1,503.8 L 566.2,555.7 L 564.3,558.0 L 561.3,560.9 L 558.6,562.0 L 495.5,567.6 L 490.4,567.6 L 488.0,566.8 L 485.8,565.5 L 484.0,563.8 L 482.6,561.6 L 481.7,559.2 L 481.1,556.7 L 458.4,441.0 L 455.9,428.2 L 455.0,420.7 L 455.1,414.6 L 456.1,408.4 L 459.2,398.9 L 464.2,388.2 L 475.3,362.9 L 476.3,359.3 L 475.9,355.4 L 474.5,352.4 L 472.3,350.0 L 469.3,348.4 L 466.0,347.9 L 462.9,348.4 L 459.7,349.8 L 457.2,352.3 L 455.1,355.0 L 442.1,376.9 L 439.4,380.9 L 430.9,394.4 L 421.7,409.2 L 416.4,415.7 L 411.8,421.1 L 405.0,428.0 L 401.2,431.4 L 397.3,434.3 L 385.4,441.3 L 373.9,444.9 L 360.3,446.5 L 351.5,447.3 L 342.5,447.7 L 335.8,447.6 L 327.7,446.8 L 315.7,445.2 L 299.0,441.1 L 284.1,436.1 L 269.0,430.6 L 258.6,425.8 L 248.3,419.8 L 239.6,413.9 L 229.7,405.8 L 224.1,400.0 L 219.2,394.4 L 215.3,389.6 L 211.0,383.7 L 205.6,374.8 L 200.8,365.2 L 186.5,331.9 L 173.2,301.6 L 171.5,298.7 L 169.7,296.5 L 167.6,294.2 L 165.1,292.0 L 162.1,289.9 L 159.2,288.4 L 155.9,287.0 L 152.3,286.1 L 144.7,285.2 L 134.9,285.5 L 128.6,286.2 L 121.5,287.5 L 112.9,289.7 L 107.9,291.7 L 103.2,293.9 L 100.8,295.3 L 98.2,297.5 L 95.9,300.3 L 93.5,304.3 L 91.8,308.1 L 90.3,313.3 L 90.0,318.8 L 90.4,323.6 L 91.8,329.2 L 93.6,334.0 L 96.9,340.0 L 99.4,343.4 Z" fill="none" stroke="#ff5a36" stroke-opacity="0.55" stroke-width="1.2" stroke-linejoin="round" filter="url(#glow)"/>
<circle cx="99.4" cy="343.4" r="13" fill="none" stroke="#ffffff" stroke-width="3"/>
<rect x="95.4" y="321.4" width="8" height="18" fill="#ffffff"/>
<circle cx="394.9" cy="494.6" r="7" fill="#ff5a36" stroke="#0a0c12" stroke-width="2.5" filter="url(#glow)"/>
<text x="394.9" y="498.0" font-size="9" font-weight="700" fill="#0a0c12" text-anchor="middle">1</text>
<circle cx="465.2" cy="519.3" r="7" fill="#ff5a36" stroke="#0a0c12" stroke-width="2.5" filter="url(#glow)"/>
<text x="465.2" y="522.7" font-size="9" font-weight="700" fill="#0a0c12" text-anchor="middle">2</text>
<circle cx="583.9" cy="485.3" r="7" fill="#ff5a36" stroke="#0a0c12" stroke-width="2.5" filter="url(#glow)"/>
<text x="583.9" y="488.7" font-size="9" font-weight="700" fill="#0a0c12" text-anchor="middle">3</text>
<circle cx="622.1" cy="449.9" r="7" fill="#ff5a36" stroke="#0a0c12" stroke-width="2.5" filter="url(#glow)"/>
<text x="622.1" y="453.3" font-size="9" font-weight="700" fill="#0a0c12" text-anchor="middle">4</text>
<circle cx="680.6" cy="431.0" r="7" fill="#ff5a36" stroke="#0a0c12" stroke-width="2.5" filter="url(#glow)"/>
<text x="680.6" y="434.4" font-size="9" font-weight="700" fill="#0a0c12" text-anchor="middle">5</text>
<circle cx="759.2" cy="411.8" r="7" fill="#ff5a36" stroke="#0a0c12" stroke-width="2.5" filter="url(#glow)"/>
<text x="759.2" y="415.2" font-size="9" font-weight="700" fill="#0a0c12" text-anchor="middle">6</text>
<circle cx="833.3" cy="473.2" r="7" fill="#ff5a36" stroke="#0a0c12" stroke-width="2.5" filter="url(#glow)"/>
<text x="833.3" y="476.6" font-size="9" font-weight="700" fill="#0a0c12" text-anchor="middle">7</text>
<circle cx="999.3" cy="675.3" r="7" fill="#ff5a36" stroke="#0a0c12" stroke-width="2.5" filter="url(#glow)"/>
<text x="999.3" y="678.7" font-size="9" font-weight="700" fill="#0a0c12" text-anchor="middle">8</text>
<circle cx="1040.0" cy="741.1" r="7" fill="#ff5a36" stroke="#0a0c12" stroke-width="2.5" filter="url(#glow)"/>
<text x="1040.0" y="744.5" font-size="9" font-weight="700" fill="#0a0c12" text-anchor="middle">9</text>
<circle cx="947.4" cy="727.4" r="7" fill="#ff5a36" stroke="#0a0c12" stroke-width="2.5" filter="url(#glow)"/>
<text x="947.4" y="730.8" font-size="9" font-weight="700" fill="#0a0c12" text-anchor="middle">10</text>
<circle cx="894.0" cy="698.3" r="7" fill="#ff5a36" stroke="#0a0c12" stroke-width="2.5" filter="url(#glow)"/>
<text x="894.0" y="701.7" font-size="9" font-weight="700" fill="#0a0c12" text-anchor="middle">11</text>
<circle cx="817.8" cy="612.8" r="7" fill="#ff5a36" stroke="#0a0c12" stroke-width="2.5" filter="url(#glow)"/>
<text x="817.8" y="616.2" font-size="9" font-weight="700" fill="#0a0c12" text-anchor="middle">12</text>
<circle cx="635.9" cy="480.9" r="7" fill="#ff5a36" stroke="#0a0c12" stroke-width="2.5" filter="url(#glow)"/>
<text x="635.9" y="484.3" font-size="9" font-weight="700" fill="#0a0c12" text-anchor="middle">13</text>
<circle cx="580.3" cy="538.7" r="7" fill="#ff5a36" stroke="#0a0c12" stroke-width="2.5" filter="url(#glow)"/>
<text x="580.3" y="542.1" font-size="9" font-weight="700" fill="#0a0c12" text-anchor="middle">14</text>
<circle cx="528.5" cy="516.4" r="7" fill="#ff5a36" stroke="#0a0c12" stroke-width="2.5" filter="url(#glow)"/>
<text x="528.5" y="519.8" font-size="9" font-weight="700" fill="#0a0c12" text-anchor="middle">15</text>
<circle cx="198.2" cy="359.3" r="7" fill="#ff5a36" stroke="#0a0c12" stroke-width="2.5" filter="url(#glow)"/>
<text x="198.2" y="362.7" font-size="9" font-weight="700" fill="#0a0c12" text-anchor="middle">16</text>
<circle cx="188.3" cy="336.3" r="7" fill="#ff5a36" stroke="#0a0c12" stroke-width="2.5" filter="url(#glow)"/>
<text x="188.3" y="339.7" font-size="9" font-weight="700" fill="#0a0c12" text-anchor="middle">17</text>
<circle cx="172.1" cy="299.8" r="7" fill="#ff5a36" stroke="#0a0c12" stroke-width="2.5" filter="url(#glow)"/>
<text x="172.1" y="303.2" font-size="9" font-weight="700" fill="#0a0c12" text-anchor="middle">18</text>
<line x1="394.9" y1="494.6" x2="342.9" y2="493.5" stroke="#ff5a36" stroke-opacity="0.45" stroke-width="1.3"/>
<text x="334.9" y="497.5" font-size="15" font-weight="600" fill="#eef2fb" text-anchor="end">First Corner</text>
<line x1="465.2" y1="519.3" x2="413.9" y2="528.0" stroke="#ff5a36" stroke-opacity="0.45" stroke-width="1.3"/>
<text x="405.9" y="532.0" font-size="15" font-weight="600" fill="#eef2fb" text-anchor="end">Second Corner</text>
<line x1="680.6" y1="431.0" x2="722.5" y2="400.2" stroke="#ff5a36" stroke-opacity="0.45" stroke-width="1.3"/>
<text x="730.5" y="404.2" font-size="15" font-weight="600" fill="#eef2fb" text-anchor="start">S Curves</text>
<line x1="833.3" y1="473.2" x2="885.0" y2="467.9" stroke="#ff5a36" stroke-opacity="0.45" stroke-width="1.3"/>
<text x="893.0" y="471.9" font-size="15" font-weight="600" fill="#eef2fb" text-anchor="start">Dunlop</text>
<line x1="1040.0" y1="741.1" x2="1085.8" y2="765.8" stroke="#ff5a36" stroke-opacity="0.45" stroke-width="1.3"/>
<text x="1093.8" y="769.8" font-size="15" font-weight="600" fill="#eef2fb" text-anchor="start">Degner</text>
<line x1="894.0" y1="698.3" x2="937.5" y2="726.8" stroke="#ff5a36" stroke-opacity="0.45" stroke-width="1.3"/>
<text x="945.5" y="730.8" font-size="15" font-weight="600" fill="#eef2fb" text-anchor="start">Hairpin</text>
<line x1="580.3" y1="538.7" x2="569.4" y2="592.0" stroke="#ff5a36" stroke-opacity="0.45" stroke-width="1.3"/>
<text x="561.4" y="596.0" font-size="15" font-weight="600" fill="#eef2fb" text-anchor="end">Spoon</text>
<line x1="528.5" y1="516.4" x2="478.7" y2="560.0" stroke="#ff5a36" stroke-opacity="0.45" stroke-width="1.3"/>
<text x="470.7" y="564.0" font-size="15" font-weight="600" fill="#eef2fb" text-anchor="end">130R</text>
<line x1="188.3" y1="336.3" x2="140.2" y2="316.7" stroke="#ff5a36" stroke-opacity="0.45" stroke-width="1.3"/>
<text x="132.2" y="320.7" font-size="15" font-weight="600" fill="#eef2fb" text-anchor="end">Casio Triangle</text>
<line x1="172.1" y1="299.8" x2="125.1" y2="277.4" stroke="#ff5a36" stroke-opacity="0.45" stroke-width="1.3"/>
<text x="117.1" y="281.4" font-size="15" font-weight="600" fill="#eef2fb" text-anchor="end">Chicane</text>
<text x="90" y="64" font-size="20" letter-spacing="5" fill="#ff5a36" font-weight="700">TRACK ATLAS</text>
<text x="90" y="108" font-size="42" font-weight="800" fill="#ffffff">SUZUKA INTERNATIONAL RACING COURSE</text>
<text x="90" y="136" font-size="16" fill="#9aa6bd">Suzuka</text>
<rect x="1170" y="200" width="360" height="710" rx="16" fill="#ffffff" fill-opacity="0.04" stroke="#ff5a36" stroke-opacity="0.5"/>
<text x="1198" y="250" font-size="13" letter-spacing="2" fill="#8794ab">LAYOUT</text>
<text x="1198" y="276" font-size="22" font-weight="700" fill="#eef2fb">Grand Prix Circuit</text>
<text x="1198" y="320" font-size="13" letter-spacing="2" fill="#8794ab">LENGTH</text>
<text x="1198" y="346" font-size="22" font-weight="700" fill="#eef2fb">5.807 km</text>
<text x="1198" y="390" font-size="13" letter-spacing="2" fill="#8794ab">CORNERS</text>
<text x="1198" y="416" font-size="22" font-weight="700" fill="#eef2fb">18</text>
<text x="1198" y="460" font-size="13" letter-spacing="2" fill="#8794ab">NAMED CORNERS</text>
<text x="1198" y="486" font-size="22" font-weight="700" fill="#eef2fb">16</text>
<text x="1198" y="530" font-size="13" letter-spacing="2" fill="#8794ab">DIRECTION</text>
<text x="1198" y="556" font-size="22" font-weight="700" fill="#eef2fb">Clockwise</text>
<text x="1198" y="600" font-size="13" letter-spacing="2" fill="#8794ab">SECTORS</text>
<text x="1198" y="626" font-size="22" font-weight="700" fill="#eef2fb">3</text>
<text x="1198" y="670" font-size="13" letter-spacing="2" fill="#8794ab">COUNTRY</text>
<text x="1198" y="696" font-size="22" font-weight="700" fill="#eef2fb">Japan</text>
<text x="1198" y="740" font-size="13" letter-spacing="2" fill="#8794ab">LOCATION</text>
<text x="1198" y="766" font-size="22" font-weight="700" fill="#eef2fb">Suzuka, Mie</text>
<text x="1198" y="810" font-size="13" letter-spacing="2" fill="#8794ab">COMPLEXES</text>
<rect x="1198" y="816" width="78" height="24" rx="12" fill="#ff5a36" fill-opacity="0.16" stroke="#ff5a36" stroke-opacity="0.5"/>
<text x="1237" y="833" font-size="12" fill="#eef2fb" text-anchor="middle">S Curves</text>
<rect x="1286" y="816" width="62" height="24" rx="12" fill="#ff5a36" fill-opacity="0.16" stroke="#ff5a36" stroke-opacity="0.5"/>
<text x="1317" y="833" font-size="12" fill="#eef2fb" text-anchor="middle">Degner</text>
<rect x="1358" y="816" width="54" height="24" rx="12" fill="#ff5a36" fill-opacity="0.16" stroke="#ff5a36" stroke-opacity="0.5"/>
<text x="1385" y="833" font-size="12" fill="#eef2fb" text-anchor="middle">Spoon</text>
<rect x="1198" y="850" width="126" height="24" rx="12" fill="#ff5a36" fill-opacity="0.16" stroke="#ff5a36" stroke-opacity="0.5"/>
<text x="1261" y="867" font-size="12" fill="#eef2fb" text-anchor="middle">Casio Triangle</text>
<text x="90" y="966" font-size="12" fill="#566177">Geometry © OpenStreetMap contributors (ODbL) · corner data: Lovely-Sim-Racing + curated · track-atlas</text>
<text x="90" y="942" font-size="12" fill="#8794ab">⚑ start / finish</text>
</svg>