<svg xmlns="http://www.w3.org/2000/svg" width="1600" height="1000" viewBox="0 0 1600 1000" font-family="Helvetica, Arial, sans-serif">
<defs>
      <radialGradient id="bg" cx="38%" cy="34%" r="85%">
        <stop offset="0%" stop-color="#1b2030"/>
        <stop offset="55%" stop-color="#12151f"/>
        <stop offset="100%" stop-color="#0a0c12"/>
      </radialGradient>
      <linearGradient id="accent" x1="0" y1="0" x2="1" y2="1">
        <stop offset="0%" stop-color="#ff5a36"/>
        <stop offset="100%" stop-color="#ffffff"/>
      </linearGradient>
      <filter id="glow" x="-40%" y="-40%" width="180%" height="180%">
        <feGaussianBlur stdDeviation="6" result="b"/>
        <feMerge><feMergeNode in="b"/><feMergeNode in="SourceGraphic"/></feMerge>
      </filter>
    </defs>
<rect width="1600" height="1000" fill="url(#bg)"/>
<path d="M 642.1,899.3 L 627.8,874.8 L 619.5,860.8 L 606.0,837.6 L 587.7,807.4 L 560.6,761.8 L 552.9,746.9 L 530.5,702.2 L 522.5,685.4 L 515.8,670.1 L 502.1,639.1 L 479.1,586.0 L 450.4,519.5 L 442.0,499.5 L 434.9,484.2 L 433.5,482.1 L 427.9,474.4 L 419.9,467.6 L 413.9,462.1 L 410.3,458.8 L 408.8,456.9 L 407.4,454.1 L 406.8,450.7 L 407.3,445.5 L 409.0,441.4 L 411.3,438.3 L 413.4,436.4 L 415.4,434.5 L 421.6,428.7 L 424.4,425.7 L 426.3,422.7 L 427.5,418.9 L 428.0,412.7 L 428.0,407.6 L 427.3,402.3 L 424.8,391.0 L 421.5,380.0 L 418.2,370.8 L 416.4,366.1 L 413.5,358.2 L 410.6,352.0 L 408.7,348.6 L 404.4,343.7 L 399.2,339.8 L 386.1,331.7 L 383.0,328.7 L 380.6,324.9 L 379.1,320.9 L 378.5,316.6 L 378.6,303.8 L 380.9,289.5 L 384.7,278.0 L 385.9,276.2 L 388.5,272.8 L 393.3,268.5 L 397.3,265.2 L 402.9,260.8 L 414.0,252.8 L 425.4,244.3 L 434.2,238.0 L 446.4,231.5 L 463.2,222.8 L 489.8,209.1 L 514.7,196.7 L 525.0,191.5 L 534.9,186.9 L 542.8,183.3 L 549.4,180.6 L 554.7,178.9 L 560.2,177.1 L 564.9,175.8 L 569.6,174.5 L 575.7,173.3 L 580.6,172.5 L 585.6,171.7 L 594.1,170.6 L 606.8,169.6 L 612.6,169.2 L 616.1,169.0 L 622.0,168.7 L 644.3,168.0 L 655.3,168.4 L 677.2,169.6 L 696.1,170.8 L 710.4,171.9 L 717.5,172.5 L 721.9,172.8 L 728.3,173.2 L 733.3,173.6 L 737.7,174.2 L 741.0,174.9 L 743.8,176.2 L 746.4,177.8 L 748.0,179.4 L 749.2,181.0 L 750.2,182.6 L 750.6,183.9 L 751.0,185.1 L 751.2,185.9 L 751.2,186.2 L 751.4,187.3 L 751.5,188.2 L 751.5,188.5 L 751.4,190.4 L 751.0,192.5 L 749.9,195.8 L 748.3,198.3 L 746.2,200.9 L 745.1,202.3 L 741.9,205.5 L 738.2,208.1 L 736.5,209.1 L 735.0,209.9 L 730.5,211.8 L 726.4,212.7 L 722.4,213.0 L 717.3,212.8 L 712.1,212.4 L 704.6,211.3 L 701.0,210.6 L 697.5,209.4 L 692.9,207.8 L 675.5,201.2 L 661.5,196.1 L 654.1,194.6 L 647.9,194.5 L 643.0,195.2 L 639.4,195.9 L 634.1,197.6 L 627.7,199.8 L 620.2,203.2 L 614.7,206.1 L 609.7,209.9 L 606.5,212.6 L 604.7,215.0 L 603.8,216.6 L 603.3,218.4 L 603.0,220.2 L 603.0,224.2 L 603.3,227.7 L 603.7,229.7 L 605.1,236.4 L 606.3,241.0 L 610.2,255.5 L 613.7,268.0 L 615.9,274.3 L 619.8,284.2 L 622.0,287.7 L 625.1,290.2 L 627.1,290.8 L 629.4,291.1 L 631.8,290.8 L 638.8,288.7 L 643.9,286.8 L 648.6,285.6 L 652.0,285.6 L 654.7,286.1 L 657.1,287.2 L 659.2,288.4 L 661.0,289.8 L 663.9,292.3 L 665.9,294.4 L 668.4,297.2 L 670.5,300.0 L 671.8,301.9 L 673.8,305.1 L 675.5,308.0 L 677.5,311.1 L 678.6,313.1 L 679.6,315.2 L 680.7,318.0 L 681.5,320.4 L 681.7,322.4 L 682.0,325.5 L 681.5,329.2 L 680.7,331.6 L 674.6,342.9 L 673.1,346.7 L 671.4,352.6 L 670.8,357.6 L 670.7,362.7 L 670.8,368.1 L 670.5,373.6 L 670.0,377.7 L 668.7,382.3 L 664.8,392.7 L 664.1,396.2 L 664.0,399.7 L 666.1,439.2 L 666.4,448.3 L 666.3,464.6 L 665.5,475.9 L 663.6,492.0 L 661.8,507.7 L 659.3,536.6 L 657.3,566.2 L 657.3,572.1 L 658.0,578.0 L 658.7,581.5 L 664.0,601.8 L 665.4,609.3 L 665.8,614.3 L 665.8,620.6 L 665.7,621.7 L 665.6,623.1 L 665.4,625.6 L 662.1,639.0 L 661.2,645.4 L 661.0,651.7 L 661.3,657.0 L 662.0,660.8 L 665.5,676.9 L 666.2,682.9 L 666.3,688.9 L 665.8,694.8 L 664.6,700.7 L 660.1,714.3 L 655.0,727.7 L 650.3,739.2 L 645.7,750.6 L 640.6,764.3 L 639.7,769.5 L 639.6,774.0 L 640.3,778.4 L 641.4,782.7 L 642.3,785.2 L 661.1,827.8 L 664.6,837.2 L 667.1,846.9 L 669.1,854.8 L 672.1,869.0 L 673.8,876.5 L 675.2,882.6 L 675.5,886.6 L 675.1,890.1 L 674.1,893.7 L 672.7,895.8 L 669.8,899.0 L 664.5,903.9 L 662.7,905.5 L 658.3,908.1 L 654.6,909.5 L 652.0,910.0 L 650.5,909.8 L 648.9,909.3 L 646.9,907.8 L 642.1,899.3 Z" fill="none" stroke="#000000" stroke-opacity="0.5" stroke-width="13" stroke-linejoin="round" stroke-linecap="round"/>
<path d="M 642.1,899.3 L 627.8,874.8 L 619.5,860.8 L 606.0,837.6 L 587.7,807.4 L 560.6,761.8 L 552.9,746.9 L 530.5,702.2 L 522.5,685.4 L 515.8,670.1 L 502.1,639.1 L 479.1,586.0 L 450.4,519.5 L 442.0,499.5 L 434.9,484.2 L 433.5,482.1 L 427.9,474.4 L 419.9,467.6 L 413.9,462.1 L 410.3,458.8 L 408.8,456.9 L 407.4,454.1 L 406.8,450.7 L 407.3,445.5 L 409.0,441.4 L 411.3,438.3 L 413.4,436.4 L 415.4,434.5 L 421.6,428.7 L 424.4,425.7 L 426.3,422.7 L 427.5,418.9 L 428.0,412.7 L 428.0,407.6 L 427.3,402.3 L 424.8,391.0 L 421.5,380.0 L 418.2,370.8 L 416.4,366.1 L 413.5,358.2 L 410.6,352.0 L 408.7,348.6 L 404.4,343.7 L 399.2,339.8 L 386.1,331.7 L 383.0,328.7 L 380.6,324.9 L 379.1,320.9 L 378.5,316.6 L 378.6,303.8 L 380.9,289.5 L 384.7,278.0 L 385.9,276.2 L 388.5,272.8 L 393.3,268.5 L 397.3,265.2 L 402.9,260.8 L 414.0,252.8 L 425.4,244.3 L 434.2,238.0 L 446.4,231.5 L 463.2,222.8 L 489.8,209.1 L 514.7,196.7 L 525.0,191.5 L 534.9,186.9 L 542.8,183.3 L 549.4,180.6 L 554.7,178.9 L 560.2,177.1 L 564.9,175.8 L 569.6,174.5 L 575.7,173.3 L 580.6,172.5 L 585.6,171.7 L 594.1,170.6 L 606.8,169.6 L 612.6,169.2 L 616.1,169.0 L 622.0,168.7 L 644.3,168.0 L 655.3,168.4 L 677.2,169.6 L 696.1,170.8 L 710.4,171.9 L 717.5,172.5 L 721.9,172.8 L 728.3,173.2 L 733.3,173.6 L 737.7,174.2 L 741.0,174.9 L 743.8,176.2 L 746.4,177.8 L 748.0,179.4 L 749.2,181.0 L 750.2,182.6 L 750.6,183.9 L 751.0,185.1 L 751.2,185.9 L 751.2,186.2 L 751.4,187.3 L 751.5,188.2 L 751.5,188.5 L 751.4,190.4 L 751.0,192.5 L 749.9,195.8 L 748.3,198.3 L 746.2,200.9 L 745.1,202.3 L 741.9,205.5 L 738.2,208.1 L 736.5,209.1 L 735.0,209.9 L 730.5,211.8 L 726.4,212.7 L 722.4,213.0 L 717.3,212.8 L 712.1,212.4 L 704.6,211.3 L 701.0,210.6 L 697.5,209.4 L 692.9,207.8 L 675.5,201.2 L 661.5,196.1 L 654.1,194.6 L 647.9,194.5 L 643.0,195.2 L 639.4,195.9 L 634.1,197.6 L 627.7,199.8 L 620.2,203.2 L 614.7,206.1 L 609.7,209.9 L 606.5,212.6 L 604.7,215.0 L 603.8,216.6 L 603.3,218.4 L 603.0,220.2 L 603.0,224.2 L 603.3,227.7 L 603.7,229.7 L 605.1,236.4 L 606.3,241.0 L 610.2,255.5 L 613.7,268.0 L 615.9,274.3 L 619.8,284.2 L 622.0,287.7 L 625.1,290.2 L 627.1,290.8 L 629.4,291.1 L 631.8,290.8 L 638.8,288.7 L 643.9,286.8 L 648.6,285.6 L 652.0,285.6 L 654.7,286.1 L 657.1,287.2 L 659.2,288.4 L 661.0,289.8 L 663.9,292.3 L 665.9,294.4 L 668.4,297.2 L 670.5,300.0 L 671.8,301.9 L 673.8,305.1 L 675.5,308.0 L 677.5,311.1 L 678.6,313.1 L 679.6,315.2 L 680.7,318.0 L 681.5,320.4 L 681.7,322.4 L 682.0,325.5 L 681.5,329.2 L 680.7,331.6 L 674.6,342.9 L 673.1,346.7 L 671.4,352.6 L 670.8,357.6 L 670.7,362.7 L 670.8,368.1 L 670.5,373.6 L 670.0,377.7 L 668.7,382.3 L 664.8,392.7 L 664.1,396.2 L 664.0,399.7 L 666.1,439.2 L 666.4,448.3 L 666.3,464.6 L 665.5,475.9 L 663.6,492.0 L 661.8,507.7 L 659.3,536.6 L 657.3,566.2 L 657.3,572.1 L 658.0,578.0 L 658.7,581.5 L 664.0,601.8 L 665.4,609.3 L 665.8,614.3 L 665.8,620.6 L 665.7,621.7 L 665.6,623.1 L 665.4,625.6 L 662.1,639.0 L 661.2,645.4 L 661.0,651.7 L 661.3,657.0 L 662.0,660.8 L 665.5,676.9 L 666.2,682.9 L 666.3,688.9 L 665.8,694.8 L 664.6,700.7 L 660.1,714.3 L 655.0,727.7 L 650.3,739.2 L 645.7,750.6 L 640.6,764.3 L 639.7,769.5 L 639.6,774.0 L 640.3,778.4 L 641.4,782.7 L 642.3,785.2 L 661.1,827.8 L 664.6,837.2 L 667.1,846.9 L 669.1,854.8 L 672.1,869.0 L 673.8,876.5 L 675.2,882.6 L 675.5,886.6 L 675.1,890.1 L 674.1,893.7 L 672.7,895.8 L 669.8,899.0 L 664.5,903.9 L 662.7,905.5 L 658.3,908.1 L 654.6,909.5 L 652.0,910.0 L 650.5,909.8 L 648.9,909.3 L 646.9,907.8 L 642.1,899.3 Z" fill="none" stroke="#39404f" stroke-width="8.5" stroke-linejoin="round" stroke-linecap="round"/>
<path d="M 642.1,899.3 L 627.8,874.8 L 619.5,860.8 L 606.0,837.6 L 587.7,807.4 L 560.6,761.8 L 552.9,746.9 L 530.5,702.2 L 522.5,685.4 L 515.8,670.1 L 502.1,639.1 L 479.1,586.0 L 450.4,519.5 L 442.0,499.5 L 434.9,484.2 L 433.5,482.1 L 427.9,474.4 L 419.9,467.6 L 413.9,462.1 L 410.3,458.8 L 408.8,456.9 L 407.4,454.1 L 406.8,450.7 L 407.3,445.5 L 409.0,441.4 L 411.3,438.3 L 413.4,436.4 L 415.4,434.5 L 421.6,428.7 L 424.4,425.7 L 426.3,422.7 L 427.5,418.9 L 428.0,412.7 L 428.0,407.6 L 427.3,402.3 L 424.8,391.0 L 421.5,380.0 L 418.2,370.8 L 416.4,366.1 L 413.5,358.2 L 410.6,352.0 L 408.7,348.6 L 404.4,343.7 L 399.2,339.8 L 386.1,331.7 L 383.0,328.7 L 380.6,324.9 L 379.1,320.9 L 378.5,316.6 L 378.6,303.8 L 380.9,289.5 L 384.7,278.0 L 385.9,276.2 L 388.5,272.8 L 393.3,268.5 L 397.3,265.2 L 402.9,260.8 L 414.0,252.8 L 425.4,244.3 L 434.2,238.0 L 446.4,231.5 L 463.2,222.8 L 489.8,209.1 L 514.7,196.7 L 525.0,191.5 L 534.9,186.9 L 542.8,183.3 L 549.4,180.6 L 554.7,178.9 L 560.2,177.1 L 564.9,175.8 L 569.6,174.5 L 575.7,173.3 L 580.6,172.5 L 585.6,171.7 L 594.1,170.6 L 606.8,169.6 L 612.6,169.2 L 616.1,169.0 L 622.0,168.7 L 644.3,168.0 L 655.3,168.4 L 677.2,169.6 L 696.1,170.8 L 710.4,171.9 L 717.5,172.5 L 721.9,172.8 L 728.3,173.2 L 733.3,173.6 L 737.7,174.2 L 741.0,174.9 L 743.8,176.2 L 746.4,177.8 L 748.0,179.4 L 749.2,181.0 L 750.2,182.6 L 750.6,183.9 L 751.0,185.1 L 751.2,185.9 L 751.2,186.2 L 751.4,187.3 L 751.5,188.2 L 751.5,188.5 L 751.4,190.4 L 751.0,192.5 L 749.9,195.8 L 748.3,198.3 L 746.2,200.9 L 745.1,202.3 L 741.9,205.5 L 738.2,208.1 L 736.5,209.1 L 735.0,209.9 L 730.5,211.8 L 726.4,212.7 L 722.4,213.0 L 717.3,212.8 L 712.1,212.4 L 704.6,211.3 L 701.0,210.6 L 697.5,209.4 L 692.9,207.8 L 675.5,201.2 L 661.5,196.1 L 654.1,194.6 L 647.9,194.5 L 643.0,195.2 L 639.4,195.9 L 634.1,197.6 L 627.7,199.8 L 620.2,203.2 L 614.7,206.1 L 609.7,209.9 L 606.5,212.6 L 604.7,215.0 L 603.8,216.6 L 603.3,218.4 L 603.0,220.2 L 603.0,224.2 L 603.3,227.7 L 603.7,229.7 L 605.1,236.4 L 606.3,241.0 L 610.2,255.5 L 613.7,268.0 L 615.9,274.3 L 619.8,284.2 L 622.0,287.7 L 625.1,290.2 L 627.1,290.8 L 629.4,291.1 L 631.8,290.8 L 638.8,288.7 L 643.9,286.8 L 648.6,285.6 L 652.0,285.6 L 654.7,286.1 L 657.1,287.2 L 659.2,288.4 L 661.0,289.8 L 663.9,292.3 L 665.9,294.4 L 668.4,297.2 L 670.5,300.0 L 671.8,301.9 L 673.8,305.1 L 675.5,308.0 L 677.5,311.1 L 678.6,313.1 L 679.6,315.2 L 680.7,318.0 L 681.5,320.4 L 681.7,322.4 L 682.0,325.5 L 681.5,329.2 L 680.7,331.6 L 674.6,342.9 L 673.1,346.7 L 671.4,352.6 L 670.8,357.6 L 670.7,362.7 L 670.8,368.1 L 670.5,373.6 L 670.0,377.7 L 668.7,382.3 L 664.8,392.7 L 664.1,396.2 L 664.0,399.7 L 666.1,439.2 L 666.4,448.3 L 666.3,464.6 L 665.5,475.9 L 663.6,492.0 L 661.8,507.7 L 659.3,536.6 L 657.3,566.2 L 657.3,572.1 L 658.0,578.0 L 658.7,581.5 L 664.0,601.8 L 665.4,609.3 L 665.8,614.3 L 665.8,620.6 L 665.7,621.7 L 665.6,623.1 L 665.4,625.6 L 662.1,639.0 L 661.2,645.4 L 661.0,651.7 L 661.3,657.0 L 662.0,660.8 L 665.5,676.9 L 666.2,682.9 L 666.3,688.9 L 665.8,694.8 L 664.6,700.7 L 660.1,714.3 L 655.0,727.7 L 650.3,739.2 L 645.7,750.6 L 640.6,764.3 L 639.7,769.5 L 639.6,774.0 L 640.3,778.4 L 641.4,782.7 L 642.3,785.2 L 661.1,827.8 L 664.6,837.2 L 667.1,846.9 L 669.1,854.8 L 672.1,869.0 L 673.8,876.5 L 675.2,882.6 L 675.5,886.6 L 675.1,890.1 L 674.1,893.7 L 672.7,895.8 L 669.8,899.0 L 664.5,903.9 L 662.7,905.5 L 658.3,908.1 L 654.6,909.5 L 652.0,910.0 L 650.5,909.8 L 648.9,909.3 L 646.9,907.8 L 642.1,899.3 Z" fill="none" stroke="#e7edf8" stroke-width="2.6" stroke-linejoin="round" stroke-linecap="round"/>
<path d="M 642.1,899.3 L 627.8,874.8 L 619.5,860.8 L 606.0,837.6 L 587.7,807.4 L 560.6,761.8 L 552.9,746.9 L 530.5,702.2 L 522.5,685.4 L 515.8,670.1 L 502.1,639.1 L 479.1,586.0 L 450.4,519.5 L 442.0,499.5 L 434.9,484.2 L 433.5,482.1 L 427.9,474.4 L 419.9,467.6 L 413.9,462.1 L 410.3,458.8 L 408.8,456.9 L 407.4,454.1 L 406.8,450.7 L 407.3,445.5 L 409.0,441.4 L 411.3,438.3 L 413.4,436.4 L 415.4,434.5 L 421.6,428.7 L 424.4,425.7 L 426.3,422.7 L 427.5,418.9 L 428.0,412.7 L 428.0,407.6 L 427.3,402.3 L 424.8,391.0 L 421.5,380.0 L 418.2,370.8 L 416.4,366.1 L 413.5,358.2 L 410.6,352.0 L 408.7,348.6 L 404.4,343.7 L 399.2,339.8 L 386.1,331.7 L 383.0,328.7 L 380.6,324.9 L 379.1,320.9 L 378.5,316.6 L 378.6,303.8 L 380.9,289.5 L 384.7,278.0 L 385.9,276.2 L 388.5,272.8 L 393.3,268.5 L 397.3,265.2 L 402.9,260.8 L 414.0,252.8 L 425.4,244.3 L 434.2,238.0 L 446.4,231.5 L 463.2,222.8 L 489.8,209.1 L 514.7,196.7 L 525.0,191.5 L 534.9,186.9 L 542.8,183.3 L 549.4,180.6 L 554.7,178.9 L 560.2,177.1 L 564.9,175.8 L 569.6,174.5 L 575.7,173.3 L 580.6,172.5 L 585.6,171.7 L 594.1,170.6 L 606.8,169.6 L 612.6,169.2 L 616.1,169.0 L 622.0,168.7 L 644.3,168.0 L 655.3,168.4 L 677.2,169.6 L 696.1,170.8 L 710.4,171.9 L 717.5,172.5 L 721.9,172.8 L 728.3,173.2 L 733.3,173.6 L 737.7,174.2 L 741.0,174.9 L 743.8,176.2 L 746.4,177.8 L 748.0,179.4 L 749.2,181.0 L 750.2,182.6 L 750.6,183.9 L 751.0,185.1 L 751.2,185.9 L 751.2,186.2 L 751.4,187.3 L 751.5,188.2 L 751.5,188.5 L 751.4,190.4 L 751.0,192.5 L 749.9,195.8 L 748.3,198.3 L 746.2,200.9 L 745.1,202.3 L 741.9,205.5 L 738.2,208.1 L 736.5,209.1 L 735.0,209.9 L 730.5,211.8 L 726.4,212.7 L 722.4,213.0 L 717.3,212.8 L 712.1,212.4 L 704.6,211.3 L 701.0,210.6 L 697.5,209.4 L 692.9,207.8 L 675.5,201.2 L 661.5,196.1 L 654.1,194.6 L 647.9,194.5 L 643.0,195.2 L 639.4,195.9 L 634.1,197.6 L 627.7,199.8 L 620.2,203.2 L 614.7,206.1 L 609.7,209.9 L 606.5,212.6 L 604.7,215.0 L 603.8,216.6 L 603.3,218.4 L 603.0,220.2 L 603.0,224.2 L 603.3,227.7 L 603.7,229.7 L 605.1,236.4 L 606.3,241.0 L 610.2,255.5 L 613.7,268.0 L 615.9,274.3 L 619.8,284.2 L 622.0,287.7 L 625.1,290.2 L 627.1,290.8 L 629.4,291.1 L 631.8,290.8 L 638.8,288.7 L 643.9,286.8 L 648.6,285.6 L 652.0,285.6 L 654.7,286.1 L 657.1,287.2 L 659.2,288.4 L 661.0,289.8 L 663.9,292.3 L 665.9,294.4 L 668.4,297.2 L 670.5,300.0 L 671.8,301.9 L 673.8,305.1 L 675.5,308.0 L 677.5,311.1 L 678.6,313.1 L 679.6,315.2 L 680.7,318.0 L 681.5,320.4 L 681.7,322.4 L 682.0,325.5 L 681.5,329.2 L 680.7,331.6 L 674.6,342.9 L 673.1,346.7 L 671.4,352.6 L 670.8,357.6 L 670.7,362.7 L 670.8,368.1 L 670.5,373.6 L 670.0,377.7 L 668.7,382.3 L 664.8,392.7 L 664.1,396.2 L 664.0,399.7 L 666.1,439.2 L 666.4,448.3 L 666.3,464.6 L 665.5,475.9 L 663.6,492.0 L 661.8,507.7 L 659.3,536.6 L 657.3,566.2 L 657.3,572.1 L 658.0,578.0 L 658.7,581.5 L 664.0,601.8 L 665.4,609.3 L 665.8,614.3 L 665.8,620.6 L 665.7,621.7 L 665.6,623.1 L 665.4,625.6 L 662.1,639.0 L 661.2,645.4 L 661.0,651.7 L 661.3,657.0 L 662.0,660.8 L 665.5,676.9 L 666.2,682.9 L 666.3,688.9 L 665.8,694.8 L 664.6,700.7 L 660.1,714.3 L 655.0,727.7 L 650.3,739.2 L 645.7,750.6 L 640.6,764.3 L 639.7,769.5 L 639.6,774.0 L 640.3,778.4 L 641.4,782.7 L 642.3,785.2 L 661.1,827.8 L 664.6,837.2 L 667.1,846.9 L 669.1,854.8 L 672.1,869.0 L 673.8,876.5 L 675.2,882.6 L 675.5,886.6 L 675.1,890.1 L 674.1,893.7 L 672.7,895.8 L 669.8,899.0 L 664.5,903.9 L 662.7,905.5 L 658.3,908.1 L 654.6,909.5 L 652.0,910.0 L 650.5,909.8 L 648.9,909.3 L 646.9,907.8 L 642.1,899.3 Z" fill="none" stroke="#ff5a36" stroke-opacity="0.55" stroke-width="1.2" stroke-linejoin="round" filter="url(#glow)"/>
<circle cx="606.8" cy="169.6" r="13" fill="none" stroke="#ffffff" stroke-width="3"/>
<rect x="602.8" y="147.6" width="8" height="18" fill="#ffffff"/>
<circle cx="736.9" cy="195.3" r="7" fill="#ff5a36" stroke="#0a0c12" stroke-width="2.5" filter="url(#glow)"/>
<text x="736.9" y="198.7" font-size="9" font-weight="700" fill="#0a0c12" text-anchor="middle">1</text>
<circle cx="653.7" cy="194.6" r="7" fill="#ff5a36" stroke="#0a0c12" stroke-width="2.5" filter="url(#glow)"/>
<text x="653.7" y="198.0" font-size="9" font-weight="700" fill="#0a0c12" text-anchor="middle">2</text>
<circle cx="605.6" cy="218.0" r="7" fill="#ff5a36" stroke="#0a0c12" stroke-width="2.5" filter="url(#glow)"/>
<text x="605.6" y="221.4" font-size="9" font-weight="700" fill="#0a0c12" text-anchor="middle">3</text>
<circle cx="627.7" cy="289.1" r="7" fill="#ff5a36" stroke="#0a0c12" stroke-width="2.5" filter="url(#glow)"/>
<text x="627.7" y="292.5" font-size="9" font-weight="700" fill="#0a0c12" text-anchor="middle">4</text>
<circle cx="653.9" cy="286.0" r="7" fill="#ff5a36" stroke="#0a0c12" stroke-width="2.5" filter="url(#glow)"/>
<text x="653.9" y="289.4" font-size="9" font-weight="700" fill="#0a0c12" text-anchor="middle">5</text>
<circle cx="670.8" cy="300.5" r="7" fill="#ff5a36" stroke="#0a0c12" stroke-width="2.5" filter="url(#glow)"/>
<text x="670.8" y="303.9" font-size="9" font-weight="700" fill="#0a0c12" text-anchor="middle">6</text>
<circle cx="674.1" cy="349.5" r="7" fill="#ff5a36" stroke="#0a0c12" stroke-width="2.5" filter="url(#glow)"/>
<text x="674.1" y="352.9" font-size="9" font-weight="700" fill="#0a0c12" text-anchor="middle">7</text>
<circle cx="659.2" cy="538.3" r="7" fill="#ff5a36" stroke="#0a0c12" stroke-width="2.5" filter="url(#glow)"/>
<text x="659.2" y="541.7" font-size="9" font-weight="700" fill="#0a0c12" text-anchor="middle">8</text>
<circle cx="659.8" cy="585.8" r="7" fill="#ff5a36" stroke="#0a0c12" stroke-width="2.5" filter="url(#glow)"/>
<text x="659.8" y="589.2" font-size="9" font-weight="700" fill="#0a0c12" text-anchor="middle">9</text>
<circle cx="664.5" cy="629.1" r="7" fill="#ff5a36" stroke="#0a0c12" stroke-width="2.5" filter="url(#glow)"/>
<text x="664.5" y="632.5" font-size="9" font-weight="700" fill="#0a0c12" text-anchor="middle">10</text>
<circle cx="666.0" cy="680.8" r="7" fill="#ff5a36" stroke="#0a0c12" stroke-width="2.5" filter="url(#glow)"/>
<text x="666.0" y="684.2" font-size="9" font-weight="700" fill="#0a0c12" text-anchor="middle">11</text>
<circle cx="640.6" cy="775.7" r="7" fill="#ff5a36" stroke="#0a0c12" stroke-width="2.5" filter="url(#glow)"/>
<text x="640.6" y="779.1" font-size="9" font-weight="700" fill="#0a0c12" text-anchor="middle">12</text>
<circle cx="664.8" cy="903.7" r="7" fill="#ff5a36" stroke="#0a0c12" stroke-width="2.5" filter="url(#glow)"/>
<text x="664.8" y="907.1" font-size="9" font-weight="700" fill="#0a0c12" text-anchor="middle">13</text>
<circle cx="412.1" cy="447.9" r="7" fill="#ff5a36" stroke="#0a0c12" stroke-width="2.5" filter="url(#glow)"/>
<text x="412.1" y="451.3" font-size="9" font-weight="700" fill="#0a0c12" text-anchor="middle">14</text>
<circle cx="389.5" cy="304.4" r="7" fill="#ff5a36" stroke="#0a0c12" stroke-width="2.5" filter="url(#glow)"/>
<text x="389.5" y="307.8" font-size="9" font-weight="700" fill="#0a0c12" text-anchor="middle">15</text>
<circle cx="742.5" cy="204.9" r="7" fill="#ff5a36" stroke="#0a0c12" stroke-width="2.5" filter="url(#glow)"/>
<text x="742.5" y="208.3" font-size="9" font-weight="700" fill="#0a0c12" text-anchor="middle">16</text>
<line x1="736.9" y1="195.3" x2="763.8" y2="150.8" stroke="#ff5a36" stroke-opacity="0.45" stroke-width="1.3"/>
<text x="771.8" y="154.8" font-size="15" font-weight="600" fill="#eef2fb" text-anchor="start">Horseshoe</text>
<line x1="605.6" y1="218.0" x2="604.8" y2="166.0" stroke="#ff5a36" stroke-opacity="0.45" stroke-width="1.3"/>
<text x="596.8" y="170.0" font-size="15" font-weight="600" fill="#eef2fb" text-anchor="end">NASCAR</text>
<line x1="627.7" y1="289.1" x2="636.1" y2="237.7" stroke="#ff5a36" stroke-opacity="0.45" stroke-width="1.3"/>
<text x="644.1" y="241.7" font-size="15" font-weight="600" fill="#eef2fb" text-anchor="start">Left Hook</text>
<line x1="670.8" y1="300.5" x2="696.9" y2="269.7" stroke="#ff5a36" stroke-opacity="0.45" stroke-width="1.3"/>
<text x="704.9" y="273.7" font-size="15" font-weight="600" fill="#eef2fb" text-anchor="start">Climbing Esses</text>
<line x1="674.1" y1="349.5" x2="712.9" y2="314.9" stroke="#ff5a36" stroke-opacity="0.45" stroke-width="1.3"/>
<text x="720.9" y="318.9" font-size="15" font-weight="600" fill="#eef2fb" text-anchor="start">Snake</text>
<line x1="659.2" y1="538.3" x2="678.1" y2="586.8" stroke="#ff5a36" stroke-opacity="0.45" stroke-width="1.3"/>
<text x="686.1" y="590.8" font-size="15" font-weight="600" fill="#eef2fb" text-anchor="start">Spiral</text>
<line x1="659.8" y1="585.8" x2="674.3" y2="635.7" stroke="#ff5a36" stroke-opacity="0.45" stroke-width="1.3"/>
<text x="682.3" y="639.7" font-size="15" font-weight="600" fill="#eef2fb" text-anchor="start">Spiral</text>
<line x1="664.5" y1="629.1" x2="677.4" y2="679.5" stroke="#ff5a36" stroke-opacity="0.45" stroke-width="1.3"/>
<text x="685.4" y="683.5" font-size="15" font-weight="600" fill="#eef2fb" text-anchor="start">Spiral</text>
<line x1="666.0" y1="680.8" x2="676.7" y2="731.6" stroke="#ff5a36" stroke-opacity="0.45" stroke-width="1.3"/>
<text x="684.7" y="735.6" font-size="15" font-weight="600" fill="#eef2fb" text-anchor="start">Spiral</text>
<line x1="640.6" y1="775.7" x2="645.2" y2="827.5" stroke="#ff5a36" stroke-opacity="0.45" stroke-width="1.3"/>
<text x="653.2" y="831.5" font-size="15" font-weight="600" fill="#eef2fb" text-anchor="start">South Bend</text>
<line x1="664.8" y1="903.7" x2="670.7" y2="930.0" stroke="#ff5a36" stroke-opacity="0.45" stroke-width="1.3"/>
<text x="678.7" y="934.0" font-size="15" font-weight="600" fill="#eef2fb" text-anchor="start">Oak Tree</text>
<line x1="412.1" y1="447.9" x2="361.1" y2="458.2" stroke="#ff5a36" stroke-opacity="0.45" stroke-width="1.3"/>
<text x="353.1" y="462.2" font-size="15" font-weight="600" fill="#eef2fb" text-anchor="end">Roller Coaster</text>
<line x1="389.5" y1="304.4" x2="342.5" y2="282.0" stroke="#ff5a36" stroke-opacity="0.45" stroke-width="1.3"/>
<text x="334.5" y="286.0" font-size="15" font-weight="600" fill="#eef2fb" text-anchor="end">Hog Pen</text>
<line x1="742.5" y1="204.9" x2="771.1" y2="182.8" stroke="#ff5a36" stroke-opacity="0.45" stroke-width="1.3"/>
<text x="779.1" y="186.8" font-size="15" font-weight="600" fill="#eef2fb" text-anchor="start">Turn 17</text>
<text x="90" y="64" font-size="20" letter-spacing="5" fill="#ff5a36" font-weight="700">TRACK ATLAS</text>
<text x="90" y="108" font-size="42" font-weight="800" fill="#ffffff">VIRGINIA INTERNATIONAL RACEWAY</text>
<text x="90" y="136" font-size="16" fill="#9aa6bd">VIR</text>
<rect x="1170" y="200" width="360" height="710" rx="16" fill="#ffffff" fill-opacity="0.04" stroke="#ff5a36" stroke-opacity="0.5"/>
<text x="1198" y="250" font-size="13" letter-spacing="2" fill="#8794ab">LAYOUT</text>
<text x="1198" y="276" font-size="22" font-weight="700" fill="#eef2fb">Full Course</text>
<text x="1198" y="320" font-size="13" letter-spacing="2" fill="#8794ab">LENGTH</text>
<text x="1198" y="346" font-size="22" font-weight="700" fill="#eef2fb">5.262 km</text>
<text x="1198" y="390" font-size="13" letter-spacing="2" fill="#8794ab">CORNERS</text>
<text x="1198" y="416" font-size="22" font-weight="700" fill="#eef2fb">16</text>
<text x="1198" y="460" font-size="13" letter-spacing="2" fill="#8794ab">NAMED CORNERS</text>
<text x="1198" y="486" font-size="22" font-weight="700" fill="#eef2fb">15</text>
<text x="1198" y="530" font-size="13" letter-spacing="2" fill="#8794ab">DIRECTION</text>
<text x="1198" y="556" font-size="22" font-weight="700" fill="#eef2fb">Clockwise</text>
<text x="1198" y="600" font-size="13" letter-spacing="2" fill="#8794ab">SECTORS</text>
<text x="1198" y="626" font-size="22" font-weight="700" fill="#eef2fb">6</text>
<text x="1198" y="670" font-size="13" letter-spacing="2" fill="#8794ab">COUNTRY</text>
<text x="1198" y="696" font-size="22" font-weight="700" fill="#eef2fb">USA</text>
<text x="1198" y="740" font-size="13" letter-spacing="2" fill="#8794ab">LOCATION</text>
<text x="1198" y="766" font-size="22" font-weight="700" fill="#eef2fb">Alton, Virginia</text>
<text x="1198" y="810" font-size="13" letter-spacing="2" fill="#8794ab">COMPLEXES</text>
<rect x="1198" y="816" width="126" height="24" rx="12" fill="#ff5a36" fill-opacity="0.16" stroke="#ff5a36" stroke-opacity="0.5"/>
<text x="1261" y="833" font-size="12" fill="#eef2fb" text-anchor="middle">Climbing Esses</text>
<text x="90" y="966" font-size="12" fill="#566177">Geometry © OpenStreetMap contributors (ODbL) · corner data: Lovely-Sim-Racing + curated · track-atlas</text>
<text x="90" y="942" font-size="12" fill="#8794ab">⚑ start / finish</text>
</svg>