<svg xmlns="http://www.w3.org/2000/svg" width="1600" height="1000" viewBox="0 0 1600 1000" font-family="Helvetica, Arial, sans-serif">
<defs>
      <radialGradient id="bg" cx="38%" cy="34%" r="85%">
        <stop offset="0%" stop-color="#1b2030"/>
        <stop offset="55%" stop-color="#12151f"/>
        <stop offset="100%" stop-color="#0a0c12"/>
      </radialGradient>
      <linearGradient id="accent" x1="0" y1="0" x2="1" y2="1">
        <stop offset="0%" stop-color="#ff5a36"/>
        <stop offset="100%" stop-color="#ffffff"/>
      </linearGradient>
      <filter id="glow" x="-40%" y="-40%" width="180%" height="180%">
        <feGaussianBlur stdDeviation="6" result="b"/>
        <feMerge><feMergeNode in="b"/><feMergeNode in="SourceGraphic"/></feMerge>
      </filter>
    </defs>
<rect width="1600" height="1000" fill="url(#bg)"/>
<line x1="0" y1="0" x2="0" y2="1000" stroke="#ffffff" stroke-opacity="0.025"/>
<line x1="56" y1="0" x2="56" y2="1000" stroke="#ffffff" stroke-opacity="0.025"/>
<line x1="112" y1="0" x2="112" y2="1000" stroke="#ffffff" stroke-opacity="0.025"/>
<line x1="168" y1="0" x2="168" y2="1000" stroke="#ffffff" stroke-opacity="0.025"/>
<line x1="224" y1="0" x2="224" y2="1000" stroke="#ffffff" stroke-opacity="0.025"/>
<line x1="280" y1="0" x2="280" y2="1000" stroke="#ffffff" stroke-opacity="0.025"/>
<line x1="336" y1="0" x2="336" y2="1000" stroke="#ffffff" stroke-opacity="0.025"/>
<line x1="392" y1="0" x2="392" y2="1000" stroke="#ffffff" stroke-opacity="0.025"/>
<line x1="448" y1="0" x2="448" y2="1000" stroke="#ffffff" stroke-opacity="0.025"/>
<line x1="504" y1="0" x2="504" y2="1000" stroke="#ffffff" stroke-opacity="0.025"/>
<line x1="560" y1="0" x2="560" y2="1000" stroke="#ffffff" stroke-opacity="0.025"/>
<line x1="616" y1="0" x2="616" y2="1000" stroke="#ffffff" stroke-opacity="0.025"/>
<line x1="672" y1="0" x2="672" y2="1000" stroke="#ffffff" stroke-opacity="0.025"/>
<line x1="728" y1="0" x2="728" y2="1000" stroke="#ffffff" stroke-opacity="0.025"/>
<line x1="784" y1="0" x2="784" y2="1000" stroke="#ffffff" stroke-opacity="0.025"/>
<line x1="840" y1="0" x2="840" y2="1000" stroke="#ffffff" stroke-opacity="0.025"/>
<line x1="896" y1="0" x2="896" y2="1000" stroke="#ffffff" stroke-opacity="0.025"/>
<line x1="952" y1="0" x2="952" y2="1000" stroke="#ffffff" stroke-opacity="0.025"/>
<line x1="1008" y1="0" x2="1008" y2="1000" stroke="#ffffff" stroke-opacity="0.025"/>
<line x1="1064" y1="0" x2="1064" y2="1000" stroke="#ffffff" stroke-opacity="0.025"/>
<line x1="1120" y1="0" x2="1120" y2="1000" stroke="#ffffff" stroke-opacity="0.025"/>
<line x1="1176" y1="0" x2="1176" y2="1000" stroke="#ffffff" stroke-opacity="0.025"/>
<line x1="1232" y1="0" x2="1232" y2="1000" stroke="#ffffff" stroke-opacity="0.025"/>
<line x1="1288" y1="0" x2="1288" y2="1000" stroke="#ffffff" stroke-opacity="0.025"/>
<line x1="1344" y1="0" x2="1344" y2="1000" stroke="#ffffff" stroke-opacity="0.025"/>
<line x1="1400" y1="0" x2="1400" y2="1000" stroke="#ffffff" stroke-opacity="0.025"/>
<line x1="1456" y1="0" x2="1456" y2="1000" stroke="#ffffff" stroke-opacity="0.025"/>
<line x1="1512" y1="0" x2="1512" y2="1000" stroke="#ffffff" stroke-opacity="0.025"/>
<line x1="1568" y1="0" x2="1568" y2="1000" stroke="#ffffff" stroke-opacity="0.025"/>
<line x1="0" y1="0" x2="1600" y2="0" stroke="#ffffff" stroke-opacity="0.025"/>
<line x1="0" y1="56" x2="1600" y2="56" stroke="#ffffff" stroke-opacity="0.025"/>
<line x1="0" y1="112" x2="1600" y2="112" stroke="#ffffff" stroke-opacity="0.025"/>
<line x1="0" y1="168" x2="1600" y2="168" stroke="#ffffff" stroke-opacity="0.025"/>
<line x1="0" y1="224" x2="1600" y2="224" stroke="#ffffff" stroke-opacity="0.025"/>
<line x1="0" y1="280" x2="1600" y2="280" stroke="#ffffff" stroke-opacity="0.025"/>
<line x1="0" y1="336" x2="1600" y2="336" stroke="#ffffff" stroke-opacity="0.025"/>
<line x1="0" y1="392" x2="1600" y2="392" stroke="#ffffff" stroke-opacity="0.025"/>
<line x1="0" y1="448" x2="1600" y2="448" stroke="#ffffff" stroke-opacity="0.025"/>
<line x1="0" y1="504" x2="1600" y2="504" stroke="#ffffff" stroke-opacity="0.025"/>
<line x1="0" y1="560" x2="1600" y2="560" stroke="#ffffff" stroke-opacity="0.025"/>
<line x1="0" y1="616" x2="1600" y2="616" stroke="#ffffff" stroke-opacity="0.025"/>
<line x1="0" y1="672" x2="1600" y2="672" stroke="#ffffff" stroke-opacity="0.025"/>
<line x1="0" y1="728" x2="1600" y2="728" stroke="#ffffff" stroke-opacity="0.025"/>
<line x1="0" y1="784" x2="1600" y2="784" stroke="#ffffff" stroke-opacity="0.025"/>
<line x1="0" y1="840" x2="1600" y2="840" stroke="#ffffff" stroke-opacity="0.025"/>
<line x1="0" y1="896" x2="1600" y2="896" stroke="#ffffff" stroke-opacity="0.025"/>
<line x1="0" y1="952" x2="1600" y2="952" stroke="#ffffff" stroke-opacity="0.025"/>
<path d="M 810.5,312.9 L 750.7,311.5 L 690.7,311.2 L 676.6,310.9 L 670.4,309.8 L 665.4,308.7 L 581.1,290.7 L 570.5,288.4 L 563.5,287.3 L 556.6,286.3 L 550.3,285.6 L 543.9,285.0 L 535.4,284.4 L 527.9,284.0 L 522.2,283.8 L 514.7,283.8 L 506.3,284.1 L 485.0,285.9 L 454.7,288.5 L 439.8,289.7 L 404.3,293.1 L 400.6,293.7 L 396.5,294.6 L 349.2,306.1 L 346.7,306.8 L 343.8,308.0 L 342.0,309.3 L 340.6,310.8 L 339.3,312.5 L 338.4,314.4 L 337.8,316.1 L 337.1,319.1 L 336.0,324.7 L 335.0,330.4 L 333.7,335.0 L 332.5,338.1 L 331.3,340.4 L 329.6,342.5 L 327.8,344.0 L 325.7,345.7 L 323.0,347.7 L 303.2,357.1 L 283.6,366.1 L 280.7,367.5 L 278.1,368.9 L 276.1,370.0 L 273.7,371.8 L 271.5,373.8 L 269.6,375.6 L 268.0,377.4 L 267.1,378.9 L 266.1,380.8 L 265.0,383.0 L 263.6,386.6 L 187.4,575.2 L 186.9,576.4 L 186.3,578.4 L 185.9,580.2 L 185.7,582.1 L 185.6,584.4 L 185.9,586.9 L 186.4,589.2 L 187.0,591.6 L 190.4,604.3 L 193.8,617.0 L 194.1,618.4 L 194.5,620.7 L 194.4,622.9 L 194.2,624.7 L 193.9,626.7 L 193.1,628.7 L 192.1,630.6 L 190.7,632.3 L 188.7,634.3 L 186.9,636.0 L 185.2,637.4 L 183.4,639.0 L 157.9,660.2 L 136.7,678.3 L 103.2,706.8 L 98.6,711.4 L 95.1,715.2 L 92.8,717.9 L 91.2,721.2 L 90.3,724.1 L 90.0,727.4 L 90.4,730.4 L 91.2,733.0 L 92.3,735.9 L 94.0,738.7 L 96.3,741.4 L 98.4,743.2 L 100.9,744.4 L 103.5,745.5 L 106.5,746.1 L 109.2,746.3 L 113.9,746.2 L 196.4,734.6 L 224.6,730.4 L 264.8,725.3 L 270.5,724.6 L 278.8,724.1 L 288.0,723.8 L 295.5,724.0 L 302.9,724.3 L 310.8,725.1 L 319.0,726.2 L 380.6,737.3 L 388.5,738.5 L 392.6,738.6 L 396.0,738.3 L 399.3,737.4 L 402.4,735.9 L 405.6,734.0 L 409.4,731.2 L 412.5,727.9 L 414.9,724.7 L 416.6,721.9 L 418.7,718.3 L 427.4,700.2 L 430.7,693.6 L 433.0,688.0 L 435.4,681.5 L 436.9,675.6 L 438.4,669.1 L 439.4,661.9 L 439.6,655.3 L 439.7,649.5 L 439.4,644.0 L 438.3,636.5 L 437.0,630.0 L 435.2,623.0 L 419.0,548.7 L 418.6,546.2 L 418.5,543.3 L 418.9,540.4 L 419.6,538.1 L 420.4,536.2 L 421.8,533.8 L 423.7,530.9 L 434.9,513.1 L 446.2,495.4 L 447.2,494.1 L 448.7,492.9 L 450.2,492.1 L 451.9,491.6 L 453.3,491.4 L 455.4,491.6 L 457.2,491.9 L 460.0,492.9 L 467.6,496.1 L 475.3,499.4 L 478.0,500.5 L 480.9,501.4 L 484.4,502.0 L 487.9,502.2 L 494.9,502.1 L 702.2,500.5 L 706.2,500.8 L 708.0,501.1 L 709.3,501.7 L 710.5,502.8 L 711.5,504.7 L 713.3,510.6 L 714.0,512.7 L 715.1,514.1 L 716.0,515.1 L 717.2,515.9 L 718.9,516.2 L 720.7,516.4 L 722.5,516.0 L 724.6,515.1 L 804.9,482.3 L 810.0,480.0 L 815.4,477.2 L 821.5,473.6 L 827.1,470.2 L 832.1,466.8 L 854.3,450.6 L 860.9,445.4 L 867.6,439.8 L 871.1,436.8 L 876.4,432.0 L 882.4,426.0 L 940.2,368.5 L 943.7,365.1 L 950.5,359.6 L 958.0,354.3 L 962.0,351.9 L 965.7,350.0 L 975.2,345.4 L 978.6,343.9 L 1002.4,333.5 L 1026.6,323.3 L 1031.4,321.2 L 1033.2,320.1 L 1035.3,318.8 L 1036.9,317.4 L 1038.2,315.4 L 1039.2,313.5 L 1039.6,312.2 L 1040.0,310.8 L 1040.0,308.9 L 1039.9,307.0 L 1039.7,305.4 L 1039.2,303.5 L 1038.1,300.8 L 1030.2,282.6 L 1022.3,264.4 L 1020.6,261.8 L 1019.1,259.8 L 1016.9,257.8 L 1014.2,256.0 L 1012.0,255.0 L 1009.6,254.2 L 1006.9,253.7 L 1004.6,253.7 L 1002.0,254.0 L 999.7,254.5 L 996.4,255.6 L 962.6,268.2 L 878.2,302.3 L 868.8,305.7 L 860.6,308.1 L 853.7,309.9 L 850.2,310.5 L 846.3,311.1 L 841.8,311.8 L 837.9,312.4 L 833.9,313.0 L 829.2,313.4 L 810.5,312.9 Z" fill="none" stroke="#000000" stroke-opacity="0.5" stroke-width="13" stroke-linejoin="round" stroke-linecap="round"/>
<path d="M 810.5,312.9 L 750.7,311.5 L 690.7,311.2 L 676.6,310.9 L 670.4,309.8 L 665.4,308.7 L 581.1,290.7 L 570.5,288.4 L 563.5,287.3 L 556.6,286.3 L 550.3,285.6 L 543.9,285.0 L 535.4,284.4 L 527.9,284.0 L 522.2,283.8 L 514.7,283.8 L 506.3,284.1 L 485.0,285.9 L 454.7,288.5 L 439.8,289.7 L 404.3,293.1 L 400.6,293.7 L 396.5,294.6 L 349.2,306.1 L 346.7,306.8 L 343.8,308.0 L 342.0,309.3 L 340.6,310.8 L 339.3,312.5 L 338.4,314.4 L 337.8,316.1 L 337.1,319.1 L 336.0,324.7 L 335.0,330.4 L 333.7,335.0 L 332.5,338.1 L 331.3,340.4 L 329.6,342.5 L 327.8,344.0 L 325.7,345.7 L 323.0,347.7 L 303.2,357.1 L 283.6,366.1 L 280.7,367.5 L 278.1,368.9 L 276.1,370.0 L 273.7,371.8 L 271.5,373.8 L 269.6,375.6 L 268.0,377.4 L 267.1,378.9 L 266.1,380.8 L 265.0,383.0 L 263.6,386.6 L 187.4,575.2 L 186.9,576.4 L 186.3,578.4 L 185.9,580.2 L 185.7,582.1 L 185.6,584.4 L 185.9,586.9 L 186.4,589.2 L 187.0,591.6 L 190.4,604.3 L 193.8,617.0 L 194.1,618.4 L 194.5,620.7 L 194.4,622.9 L 194.2,624.7 L 193.9,626.7 L 193.1,628.7 L 192.1,630.6 L 190.7,632.3 L 188.7,634.3 L 186.9,636.0 L 185.2,637.4 L 183.4,639.0 L 157.9,660.2 L 136.7,678.3 L 103.2,706.8 L 98.6,711.4 L 95.1,715.2 L 92.8,717.9 L 91.2,721.2 L 90.3,724.1 L 90.0,727.4 L 90.4,730.4 L 91.2,733.0 L 92.3,735.9 L 94.0,738.7 L 96.3,741.4 L 98.4,743.2 L 100.9,744.4 L 103.5,745.5 L 106.5,746.1 L 109.2,746.3 L 113.9,746.2 L 196.4,734.6 L 224.6,730.4 L 264.8,725.3 L 270.5,724.6 L 278.8,724.1 L 288.0,723.8 L 295.5,724.0 L 302.9,724.3 L 310.8,725.1 L 319.0,726.2 L 380.6,737.3 L 388.5,738.5 L 392.6,738.6 L 396.0,738.3 L 399.3,737.4 L 402.4,735.9 L 405.6,734.0 L 409.4,731.2 L 412.5,727.9 L 414.9,724.7 L 416.6,721.9 L 418.7,718.3 L 427.4,700.2 L 430.7,693.6 L 433.0,688.0 L 435.4,681.5 L 436.9,675.6 L 438.4,669.1 L 439.4,661.9 L 439.6,655.3 L 439.7,649.5 L 439.4,644.0 L 438.3,636.5 L 437.0,630.0 L 435.2,623.0 L 419.0,548.7 L 418.6,546.2 L 418.5,543.3 L 418.9,540.4 L 419.6,538.1 L 420.4,536.2 L 421.8,533.8 L 423.7,530.9 L 434.9,513.1 L 446.2,495.4 L 447.2,494.1 L 448.7,492.9 L 450.2,492.1 L 451.9,491.6 L 453.3,491.4 L 455.4,491.6 L 457.2,491.9 L 460.0,492.9 L 467.6,496.1 L 475.3,499.4 L 478.0,500.5 L 480.9,501.4 L 484.4,502.0 L 487.9,502.2 L 494.9,502.1 L 702.2,500.5 L 706.2,500.8 L 708.0,501.1 L 709.3,501.7 L 710.5,502.8 L 711.5,504.7 L 713.3,510.6 L 714.0,512.7 L 715.1,514.1 L 716.0,515.1 L 717.2,515.9 L 718.9,516.2 L 720.7,516.4 L 722.5,516.0 L 724.6,515.1 L 804.9,482.3 L 810.0,480.0 L 815.4,477.2 L 821.5,473.6 L 827.1,470.2 L 832.1,466.8 L 854.3,450.6 L 860.9,445.4 L 867.6,439.8 L 871.1,436.8 L 876.4,432.0 L 882.4,426.0 L 940.2,368.5 L 943.7,365.1 L 950.5,359.6 L 958.0,354.3 L 962.0,351.9 L 965.7,350.0 L 975.2,345.4 L 978.6,343.9 L 1002.4,333.5 L 1026.6,323.3 L 1031.4,321.2 L 1033.2,320.1 L 1035.3,318.8 L 1036.9,317.4 L 1038.2,315.4 L 1039.2,313.5 L 1039.6,312.2 L 1040.0,310.8 L 1040.0,308.9 L 1039.9,307.0 L 1039.7,305.4 L 1039.2,303.5 L 1038.1,300.8 L 1030.2,282.6 L 1022.3,264.4 L 1020.6,261.8 L 1019.1,259.8 L 1016.9,257.8 L 1014.2,256.0 L 1012.0,255.0 L 1009.6,254.2 L 1006.9,253.7 L 1004.6,253.7 L 1002.0,254.0 L 999.7,254.5 L 996.4,255.6 L 962.6,268.2 L 878.2,302.3 L 868.8,305.7 L 860.6,308.1 L 853.7,309.9 L 850.2,310.5 L 846.3,311.1 L 841.8,311.8 L 837.9,312.4 L 833.9,313.0 L 829.2,313.4 L 810.5,312.9 Z" fill="none" stroke="#39404f" stroke-width="8.5" stroke-linejoin="round" stroke-linecap="round"/>
<path d="M 810.5,312.9 L 750.7,311.5 L 690.7,311.2 L 676.6,310.9 L 670.4,309.8 L 665.4,308.7 L 581.1,290.7 L 570.5,288.4 L 563.5,287.3 L 556.6,286.3 L 550.3,285.6 L 543.9,285.0 L 535.4,284.4 L 527.9,284.0 L 522.2,283.8 L 514.7,283.8 L 506.3,284.1 L 485.0,285.9 L 454.7,288.5 L 439.8,289.7 L 404.3,293.1 L 400.6,293.7 L 396.5,294.6 L 349.2,306.1 L 346.7,306.8 L 343.8,308.0 L 342.0,309.3 L 340.6,310.8 L 339.3,312.5 L 338.4,314.4 L 337.8,316.1 L 337.1,319.1 L 336.0,324.7 L 335.0,330.4 L 333.7,335.0 L 332.5,338.1 L 331.3,340.4 L 329.6,342.5 L 327.8,344.0 L 325.7,345.7 L 323.0,347.7 L 303.2,357.1 L 283.6,366.1 L 280.7,367.5 L 278.1,368.9 L 276.1,370.0 L 273.7,371.8 L 271.5,373.8 L 269.6,375.6 L 268.0,377.4 L 267.1,378.9 L 266.1,380.8 L 265.0,383.0 L 263.6,386.6 L 187.4,575.2 L 186.9,576.4 L 186.3,578.4 L 185.9,580.2 L 185.7,582.1 L 185.6,584.4 L 185.9,586.9 L 186.4,589.2 L 187.0,591.6 L 190.4,604.3 L 193.8,617.0 L 194.1,618.4 L 194.5,620.7 L 194.4,622.9 L 194.2,624.7 L 193.9,626.7 L 193.1,628.7 L 192.1,630.6 L 190.7,632.3 L 188.7,634.3 L 186.9,636.0 L 185.2,637.4 L 183.4,639.0 L 157.9,660.2 L 136.7,678.3 L 103.2,706.8 L 98.6,711.4 L 95.1,715.2 L 92.8,717.9 L 91.2,721.2 L 90.3,724.1 L 90.0,727.4 L 90.4,730.4 L 91.2,733.0 L 92.3,735.9 L 94.0,738.7 L 96.3,741.4 L 98.4,743.2 L 100.9,744.4 L 103.5,745.5 L 106.5,746.1 L 109.2,746.3 L 113.9,746.2 L 196.4,734.6 L 224.6,730.4 L 264.8,725.3 L 270.5,724.6 L 278.8,724.1 L 288.0,723.8 L 295.5,724.0 L 302.9,724.3 L 310.8,725.1 L 319.0,726.2 L 380.6,737.3 L 388.5,738.5 L 392.6,738.6 L 396.0,738.3 L 399.3,737.4 L 402.4,735.9 L 405.6,734.0 L 409.4,731.2 L 412.5,727.9 L 414.9,724.7 L 416.6,721.9 L 418.7,718.3 L 427.4,700.2 L 430.7,693.6 L 433.0,688.0 L 435.4,681.5 L 436.9,675.6 L 438.4,669.1 L 439.4,661.9 L 439.6,655.3 L 439.7,649.5 L 439.4,644.0 L 438.3,636.5 L 437.0,630.0 L 435.2,623.0 L 419.0,548.7 L 418.6,546.2 L 418.5,543.3 L 418.9,540.4 L 419.6,538.1 L 420.4,536.2 L 421.8,533.8 L 423.7,530.9 L 434.9,513.1 L 446.2,495.4 L 447.2,494.1 L 448.7,492.9 L 450.2,492.1 L 451.9,491.6 L 453.3,491.4 L 455.4,491.6 L 457.2,491.9 L 460.0,492.9 L 467.6,496.1 L 475.3,499.4 L 478.0,500.5 L 480.9,501.4 L 484.4,502.0 L 487.9,502.2 L 494.9,502.1 L 702.2,500.5 L 706.2,500.8 L 708.0,501.1 L 709.3,501.7 L 710.5,502.8 L 711.5,504.7 L 713.3,510.6 L 714.0,512.7 L 715.1,514.1 L 716.0,515.1 L 717.2,515.9 L 718.9,516.2 L 720.7,516.4 L 722.5,516.0 L 724.6,515.1 L 804.9,482.3 L 810.0,480.0 L 815.4,477.2 L 821.5,473.6 L 827.1,470.2 L 832.1,466.8 L 854.3,450.6 L 860.9,445.4 L 867.6,439.8 L 871.1,436.8 L 876.4,432.0 L 882.4,426.0 L 940.2,368.5 L 943.7,365.1 L 950.5,359.6 L 958.0,354.3 L 962.0,351.9 L 965.7,350.0 L 975.2,345.4 L 978.6,343.9 L 1002.4,333.5 L 1026.6,323.3 L 1031.4,321.2 L 1033.2,320.1 L 1035.3,318.8 L 1036.9,317.4 L 1038.2,315.4 L 1039.2,313.5 L 1039.6,312.2 L 1040.0,310.8 L 1040.0,308.9 L 1039.9,307.0 L 1039.7,305.4 L 1039.2,303.5 L 1038.1,300.8 L 1030.2,282.6 L 1022.3,264.4 L 1020.6,261.8 L 1019.1,259.8 L 1016.9,257.8 L 1014.2,256.0 L 1012.0,255.0 L 1009.6,254.2 L 1006.9,253.7 L 1004.6,253.7 L 1002.0,254.0 L 999.7,254.5 L 996.4,255.6 L 962.6,268.2 L 878.2,302.3 L 868.8,305.7 L 860.6,308.1 L 853.7,309.9 L 850.2,310.5 L 846.3,311.1 L 841.8,311.8 L 837.9,312.4 L 833.9,313.0 L 829.2,313.4 L 810.5,312.9 Z" fill="none" stroke="#e7edf8" stroke-width="2.6" stroke-linejoin="round" stroke-linecap="round"/>
<path d="M 810.5,312.9 L 750.7,311.5 L 690.7,311.2 L 676.6,310.9 L 670.4,309.8 L 665.4,308.7 L 581.1,290.7 L 570.5,288.4 L 563.5,287.3 L 556.6,286.3 L 550.3,285.6 L 543.9,285.0 L 535.4,284.4 L 527.9,284.0 L 522.2,283.8 L 514.7,283.8 L 506.3,284.1 L 485.0,285.9 L 454.7,288.5 L 439.8,289.7 L 404.3,293.1 L 400.6,293.7 L 396.5,294.6 L 349.2,306.1 L 346.7,306.8 L 343.8,308.0 L 342.0,309.3 L 340.6,310.8 L 339.3,312.5 L 338.4,314.4 L 337.8,316.1 L 337.1,319.1 L 336.0,324.7 L 335.0,330.4 L 333.7,335.0 L 332.5,338.1 L 331.3,340.4 L 329.6,342.5 L 327.8,344.0 L 325.7,345.7 L 323.0,347.7 L 303.2,357.1 L 283.6,366.1 L 280.7,367.5 L 278.1,368.9 L 276.1,370.0 L 273.7,371.8 L 271.5,373.8 L 269.6,375.6 L 268.0,377.4 L 267.1,378.9 L 266.1,380.8 L 265.0,383.0 L 263.6,386.6 L 187.4,575.2 L 186.9,576.4 L 186.3,578.4 L 185.9,580.2 L 185.7,582.1 L 185.6,584.4 L 185.9,586.9 L 186.4,589.2 L 187.0,591.6 L 190.4,604.3 L 193.8,617.0 L 194.1,618.4 L 194.5,620.7 L 194.4,622.9 L 194.2,624.7 L 193.9,626.7 L 193.1,628.7 L 192.1,630.6 L 190.7,632.3 L 188.7,634.3 L 186.9,636.0 L 185.2,637.4 L 183.4,639.0 L 157.9,660.2 L 136.7,678.3 L 103.2,706.8 L 98.6,711.4 L 95.1,715.2 L 92.8,717.9 L 91.2,721.2 L 90.3,724.1 L 90.0,727.4 L 90.4,730.4 L 91.2,733.0 L 92.3,735.9 L 94.0,738.7 L 96.3,741.4 L 98.4,743.2 L 100.9,744.4 L 103.5,745.5 L 106.5,746.1 L 109.2,746.3 L 113.9,746.2 L 196.4,734.6 L 224.6,730.4 L 264.8,725.3 L 270.5,724.6 L 278.8,724.1 L 288.0,723.8 L 295.5,724.0 L 302.9,724.3 L 310.8,725.1 L 319.0,726.2 L 380.6,737.3 L 388.5,738.5 L 392.6,738.6 L 396.0,738.3 L 399.3,737.4 L 402.4,735.9 L 405.6,734.0 L 409.4,731.2 L 412.5,727.9 L 414.9,724.7 L 416.6,721.9 L 418.7,718.3 L 427.4,700.2 L 430.7,693.6 L 433.0,688.0 L 435.4,681.5 L 436.9,675.6 L 438.4,669.1 L 439.4,661.9 L 439.6,655.3 L 439.7,649.5 L 439.4,644.0 L 438.3,636.5 L 437.0,630.0 L 435.2,623.0 L 419.0,548.7 L 418.6,546.2 L 418.5,543.3 L 418.9,540.4 L 419.6,538.1 L 420.4,536.2 L 421.8,533.8 L 423.7,530.9 L 434.9,513.1 L 446.2,495.4 L 447.2,494.1 L 448.7,492.9 L 450.2,492.1 L 451.9,491.6 L 453.3,491.4 L 455.4,491.6 L 457.2,491.9 L 460.0,492.9 L 467.6,496.1 L 475.3,499.4 L 478.0,500.5 L 480.9,501.4 L 484.4,502.0 L 487.9,502.2 L 494.9,502.1 L 702.2,500.5 L 706.2,500.8 L 708.0,501.1 L 709.3,501.7 L 710.5,502.8 L 711.5,504.7 L 713.3,510.6 L 714.0,512.7 L 715.1,514.1 L 716.0,515.1 L 717.2,515.9 L 718.9,516.2 L 720.7,516.4 L 722.5,516.0 L 724.6,515.1 L 804.9,482.3 L 810.0,480.0 L 815.4,477.2 L 821.5,473.6 L 827.1,470.2 L 832.1,466.8 L 854.3,450.6 L 860.9,445.4 L 867.6,439.8 L 871.1,436.8 L 876.4,432.0 L 882.4,426.0 L 940.2,368.5 L 943.7,365.1 L 950.5,359.6 L 958.0,354.3 L 962.0,351.9 L 965.7,350.0 L 975.2,345.4 L 978.6,343.9 L 1002.4,333.5 L 1026.6,323.3 L 1031.4,321.2 L 1033.2,320.1 L 1035.3,318.8 L 1036.9,317.4 L 1038.2,315.4 L 1039.2,313.5 L 1039.6,312.2 L 1040.0,310.8 L 1040.0,308.9 L 1039.9,307.0 L 1039.7,305.4 L 1039.2,303.5 L 1038.1,300.8 L 1030.2,282.6 L 1022.3,264.4 L 1020.6,261.8 L 1019.1,259.8 L 1016.9,257.8 L 1014.2,256.0 L 1012.0,255.0 L 1009.6,254.2 L 1006.9,253.7 L 1004.6,253.7 L 1002.0,254.0 L 999.7,254.5 L 996.4,255.6 L 962.6,268.2 L 878.2,302.3 L 868.8,305.7 L 860.6,308.1 L 853.7,309.9 L 850.2,310.5 L 846.3,311.1 L 841.8,311.8 L 837.9,312.4 L 833.9,313.0 L 829.2,313.4 L 810.5,312.9 Z" fill="none" stroke="#ff5a36" stroke-opacity="0.55" stroke-width="1.2" stroke-linejoin="round" filter="url(#glow)"/>
<circle cx="710.4" cy="311.3" r="13" fill="none" stroke="#ffffff" stroke-width="3"/>
<rect x="706.4" y="289.3" width="8" height="18" fill="#ffffff"/>
<circle cx="700.5" cy="316.5" r="7" fill="#ff5a36" stroke="#0a0c12" stroke-width="2.5" filter="url(#glow)"/>
<text x="700.5" y="319.9" font-size="9" font-weight="700" fill="#0a0c12" text-anchor="middle">1</text>
<circle cx="274.3" cy="373.7" r="7" fill="#ff5a36" stroke="#0a0c12" stroke-width="2.5" filter="url(#glow)"/>
<text x="274.3" y="377.1" font-size="9" font-weight="700" fill="#0a0c12" text-anchor="middle">2</text>
<circle cx="262.5" cy="389.3" r="7" fill="#ff5a36" stroke="#0a0c12" stroke-width="2.5" filter="url(#glow)"/>
<text x="262.5" y="392.7" font-size="9" font-weight="700" fill="#0a0c12" text-anchor="middle">3</text>
<circle cx="238.8" cy="448.1" r="7" fill="#ff5a36" stroke="#0a0c12" stroke-width="2.5" filter="url(#glow)"/>
<text x="238.8" y="451.5" font-size="9" font-weight="700" fill="#0a0c12" text-anchor="middle">4</text>
<circle cx="191.1" cy="626.7" r="7" fill="#ff5a36" stroke="#0a0c12" stroke-width="2.5" filter="url(#glow)"/>
<text x="191.1" y="630.1" font-size="9" font-weight="700" fill="#0a0c12" text-anchor="middle">5</text>
<circle cx="162.5" cy="656.3" r="7" fill="#ff5a36" stroke="#0a0c12" stroke-width="2.5" filter="url(#glow)"/>
<text x="162.5" y="659.7" font-size="9" font-weight="700" fill="#0a0c12" text-anchor="middle">6</text>
<circle cx="97.7" cy="732.0" r="7" fill="#ff5a36" stroke="#0a0c12" stroke-width="2.5" filter="url(#glow)"/>
<text x="97.7" y="735.4" font-size="9" font-weight="700" fill="#0a0c12" text-anchor="middle">7</text>
<circle cx="363.4" cy="734.2" r="7" fill="#ff5a36" stroke="#0a0c12" stroke-width="2.5" filter="url(#glow)"/>
<text x="363.4" y="737.6" font-size="9" font-weight="700" fill="#0a0c12" text-anchor="middle">8</text>
<circle cx="436.2" cy="662.2" r="7" fill="#ff5a36" stroke="#0a0c12" stroke-width="2.5" filter="url(#glow)"/>
<text x="436.2" y="665.6" font-size="9" font-weight="700" fill="#0a0c12" text-anchor="middle">9</text>
<circle cx="429.4" cy="596.2" r="7" fill="#ff5a36" stroke="#0a0c12" stroke-width="2.5" filter="url(#glow)"/>
<text x="429.4" y="599.6" font-size="9" font-weight="700" fill="#0a0c12" text-anchor="middle">10</text>
<circle cx="423.1" cy="531.7" r="7" fill="#ff5a36" stroke="#0a0c12" stroke-width="2.5" filter="url(#glow)"/>
<text x="423.1" y="535.1" font-size="9" font-weight="700" fill="#0a0c12" text-anchor="middle">11</text>
<circle cx="452.1" cy="494.8" r="7" fill="#ff5a36" stroke="#0a0c12" stroke-width="2.5" filter="url(#glow)"/>
<text x="452.1" y="498.2" font-size="9" font-weight="700" fill="#0a0c12" text-anchor="middle">12</text>
<circle cx="478.1" cy="500.6" r="7" fill="#ff5a36" stroke="#0a0c12" stroke-width="2.5" filter="url(#glow)"/>
<text x="478.1" y="504.0" font-size="9" font-weight="700" fill="#0a0c12" text-anchor="middle">13</text>
<circle cx="720.8" cy="516.4" r="7" fill="#ff5a36" stroke="#0a0c12" stroke-width="2.5" filter="url(#glow)"/>
<text x="720.8" y="519.8" font-size="9" font-weight="700" fill="#0a0c12" text-anchor="middle">14</text>
<circle cx="746.8" cy="506.1" r="7" fill="#ff5a36" stroke="#0a0c12" stroke-width="2.5" filter="url(#glow)"/>
<text x="746.8" y="509.5" font-size="9" font-weight="700" fill="#0a0c12" text-anchor="middle">15</text>
<circle cx="1024.0" cy="324.4" r="7" fill="#ff5a36" stroke="#0a0c12" stroke-width="2.5" filter="url(#glow)"/>
<text x="1024.0" y="327.8" font-size="9" font-weight="700" fill="#0a0c12" text-anchor="middle">16</text>
<circle cx="1011.9" cy="258.7" r="7" fill="#ff5a36" stroke="#0a0c12" stroke-width="2.5" filter="url(#glow)"/>
<text x="1011.9" y="262.1" font-size="9" font-weight="700" fill="#0a0c12" text-anchor="middle">17</text>
<circle cx="958.4" cy="269.9" r="7" fill="#ff5a36" stroke="#0a0c12" stroke-width="2.5" filter="url(#glow)"/>
<text x="958.4" y="273.3" font-size="9" font-weight="700" fill="#0a0c12" text-anchor="middle">18</text>
<circle cx="828.4" cy="313.3" r="7" fill="#ff5a36" stroke="#0a0c12" stroke-width="2.5" filter="url(#glow)"/>
<text x="828.4" y="316.7" font-size="9" font-weight="700" fill="#0a0c12" text-anchor="middle">19</text>
<line x1="700.5" y1="316.5" x2="739.0" y2="281.6" stroke="#ff5a36" stroke-opacity="0.45" stroke-width="1.3"/>
<text x="747.0" y="285.6" font-size="15" font-weight="600" fill="#eef2fb" text-anchor="start">Variante Bassa</text>
<line x1="274.3" y1="373.7" x2="226.6" y2="353.1" stroke="#ff5a36" stroke-opacity="0.45" stroke-width="1.3"/>
<text x="218.6" y="357.1" font-size="15" font-weight="600" fill="#eef2fb" text-anchor="end">Variante Tamburello</text>
<line x1="191.1" y1="626.7" x2="143.6" y2="647.9" stroke="#ff5a36" stroke-opacity="0.45" stroke-width="1.3"/>
<text x="135.6" y="651.9" font-size="15" font-weight="600" fill="#eef2fb" text-anchor="end">Variante Villeneuve</text>
<line x1="97.7" y1="732.0" x2="53.0" y2="758.6" stroke="#ff5a36" stroke-opacity="0.45" stroke-width="1.3"/>
<text x="45.0" y="762.6" font-size="15" font-weight="600" fill="#eef2fb" text-anchor="end">Tosa</text>
<line x1="436.2" y1="662.2" x2="414.4" y2="709.4" stroke="#ff5a36" stroke-opacity="0.45" stroke-width="1.3"/>
<text x="406.4" y="713.4" font-size="15" font-weight="600" fill="#eef2fb" text-anchor="end">Piratella</text>
<line x1="452.1" y1="494.8" x2="401.3" y2="506.2" stroke="#ff5a36" stroke-opacity="0.45" stroke-width="1.3"/>
<text x="393.3" y="510.2" font-size="15" font-weight="600" fill="#eef2fb" text-anchor="end">Acque Minerali</text>
<line x1="720.8" y1="516.4" x2="771.9" y2="525.8" stroke="#ff5a36" stroke-opacity="0.45" stroke-width="1.3"/>
<text x="779.9" y="529.8" font-size="15" font-weight="600" fill="#eef2fb" text-anchor="start">Variante Alta</text>
<line x1="1011.9" y1="258.7" x2="1059.3" y2="237.4" stroke="#ff5a36" stroke-opacity="0.45" stroke-width="1.3"/>
<text x="1067.3" y="241.4" font-size="15" font-weight="600" fill="#eef2fb" text-anchor="start">Rivazza</text>
<text x="90" y="64" font-size="20" letter-spacing="5" fill="#ff5a36" font-weight="700">TRACK ATLAS</text>
<text x="90" y="108" font-size="42" font-weight="800" fill="#ffffff">AUTODROMO ENZO E DINO FERRARI</text>
<text x="90" y="136" font-size="16" fill="#9aa6bd">Imola</text>
<rect x="1170" y="200" width="360" height="710" rx="16" fill="#ffffff" fill-opacity="0.04" stroke="#ff5a36" stroke-opacity="0.5"/>
<text x="1198" y="250" font-size="13" letter-spacing="2" fill="#8794ab">LAYOUT</text>
<text x="1198" y="276" font-size="22" font-weight="700" fill="#eef2fb">Grand Prix Circuit</text>
<text x="1198" y="320" font-size="13" letter-spacing="2" fill="#8794ab">LENGTH</text>
<text x="1198" y="346" font-size="22" font-weight="700" fill="#eef2fb">4.909 km</text>
<text x="1198" y="390" font-size="13" letter-spacing="2" fill="#8794ab">CORNERS</text>
<text x="1198" y="416" font-size="22" font-weight="700" fill="#eef2fb">19</text>
<text x="1198" y="460" font-size="13" letter-spacing="2" fill="#8794ab">NAMED CORNERS</text>
<text x="1198" y="486" font-size="22" font-weight="700" fill="#eef2fb">8</text>
<text x="1198" y="530" font-size="13" letter-spacing="2" fill="#8794ab">DIRECTION</text>
<text x="1198" y="556" font-size="22" font-weight="700" fill="#eef2fb">Anticlockwise</text>
<text x="1198" y="600" font-size="13" letter-spacing="2" fill="#8794ab">SECTORS</text>
<text x="1198" y="626" font-size="22" font-weight="700" fill="#eef2fb">3</text>
<text x="1198" y="670" font-size="13" letter-spacing="2" fill="#8794ab">COUNTRY</text>
<text x="1198" y="696" font-size="22" font-weight="700" fill="#eef2fb">Italy</text>
<text x="1198" y="740" font-size="13" letter-spacing="2" fill="#8794ab">LOCATION</text>
<text x="1198" y="766" font-size="22" font-weight="700" fill="#eef2fb">Imola</text>
<text x="90" y="966" font-size="12" fill="#566177">Geometry © OpenStreetMap contributors (ODbL) · corner data: Lovely-Sim-Racing + curated · track-atlas</text>
<text x="90" y="942" font-size="12" fill="#8794ab">⚑ start / finish</text>
</svg>