<svg xmlns="http://www.w3.org/2000/svg" width="1600" height="1000" viewBox="0 0 1600 1000" font-family="Helvetica, Arial, sans-serif">
<defs>
      <radialGradient id="bg" cx="38%" cy="34%" r="85%">
        <stop offset="0%" stop-color="#1b2030"/>
        <stop offset="55%" stop-color="#12151f"/>
        <stop offset="100%" stop-color="#0a0c12"/>
      </radialGradient>
      <linearGradient id="accent" x1="0" y1="0" x2="1" y2="1">
        <stop offset="0%" stop-color="#ff5a36"/>
        <stop offset="100%" stop-color="#ffffff"/>
      </linearGradient>
      <filter id="glow" x="-40%" y="-40%" width="180%" height="180%">
        <feGaussianBlur stdDeviation="6" result="b"/>
        <feMerge><feMergeNode in="b"/><feMergeNode in="SourceGraphic"/></feMerge>
      </filter>
    </defs>
<rect width="1600" height="1000" fill="url(#bg)"/>
<line x1="0" y1="0" x2="0" y2="1000" stroke="#ffffff" stroke-opacity="0.025"/>
<line x1="56" y1="0" x2="56" y2="1000" stroke="#ffffff" stroke-opacity="0.025"/>
<line x1="112" y1="0" x2="112" y2="1000" stroke="#ffffff" stroke-opacity="0.025"/>
<line x1="168" y1="0" x2="168" y2="1000" stroke="#ffffff" stroke-opacity="0.025"/>
<line x1="224" y1="0" x2="224" y2="1000" stroke="#ffffff" stroke-opacity="0.025"/>
<line x1="280" y1="0" x2="280" y2="1000" stroke="#ffffff" stroke-opacity="0.025"/>
<line x1="336" y1="0" x2="336" y2="1000" stroke="#ffffff" stroke-opacity="0.025"/>
<line x1="392" y1="0" x2="392" y2="1000" stroke="#ffffff" stroke-opacity="0.025"/>
<line x1="448" y1="0" x2="448" y2="1000" stroke="#ffffff" stroke-opacity="0.025"/>
<line x1="504" y1="0" x2="504" y2="1000" stroke="#ffffff" stroke-opacity="0.025"/>
<line x1="560" y1="0" x2="560" y2="1000" stroke="#ffffff" stroke-opacity="0.025"/>
<line x1="616" y1="0" x2="616" y2="1000" stroke="#ffffff" stroke-opacity="0.025"/>
<line x1="672" y1="0" x2="672" y2="1000" stroke="#ffffff" stroke-opacity="0.025"/>
<line x1="728" y1="0" x2="728" y2="1000" stroke="#ffffff" stroke-opacity="0.025"/>
<line x1="784" y1="0" x2="784" y2="1000" stroke="#ffffff" stroke-opacity="0.025"/>
<line x1="840" y1="0" x2="840" y2="1000" stroke="#ffffff" stroke-opacity="0.025"/>
<line x1="896" y1="0" x2="896" y2="1000" stroke="#ffffff" stroke-opacity="0.025"/>
<line x1="952" y1="0" x2="952" y2="1000" stroke="#ffffff" stroke-opacity="0.025"/>
<line x1="1008" y1="0" x2="1008" y2="1000" stroke="#ffffff" stroke-opacity="0.025"/>
<line x1="1064" y1="0" x2="1064" y2="1000" stroke="#ffffff" stroke-opacity="0.025"/>
<line x1="1120" y1="0" x2="1120" y2="1000" stroke="#ffffff" stroke-opacity="0.025"/>
<line x1="1176" y1="0" x2="1176" y2="1000" stroke="#ffffff" stroke-opacity="0.025"/>
<line x1="1232" y1="0" x2="1232" y2="1000" stroke="#ffffff" stroke-opacity="0.025"/>
<line x1="1288" y1="0" x2="1288" y2="1000" stroke="#ffffff" stroke-opacity="0.025"/>
<line x1="1344" y1="0" x2="1344" y2="1000" stroke="#ffffff" stroke-opacity="0.025"/>
<line x1="1400" y1="0" x2="1400" y2="1000" stroke="#ffffff" stroke-opacity="0.025"/>
<line x1="1456" y1="0" x2="1456" y2="1000" stroke="#ffffff" stroke-opacity="0.025"/>
<line x1="1512" y1="0" x2="1512" y2="1000" stroke="#ffffff" stroke-opacity="0.025"/>
<line x1="1568" y1="0" x2="1568" y2="1000" stroke="#ffffff" stroke-opacity="0.025"/>
<line x1="0" y1="0" x2="1600" y2="0" stroke="#ffffff" stroke-opacity="0.025"/>
<line x1="0" y1="56" x2="1600" y2="56" stroke="#ffffff" stroke-opacity="0.025"/>
<line x1="0" y1="112" x2="1600" y2="112" stroke="#ffffff" stroke-opacity="0.025"/>
<line x1="0" y1="168" x2="1600" y2="168" stroke="#ffffff" stroke-opacity="0.025"/>
<line x1="0" y1="224" x2="1600" y2="224" stroke="#ffffff" stroke-opacity="0.025"/>
<line x1="0" y1="280" x2="1600" y2="280" stroke="#ffffff" stroke-opacity="0.025"/>
<line x1="0" y1="336" x2="1600" y2="336" stroke="#ffffff" stroke-opacity="0.025"/>
<line x1="0" y1="392" x2="1600" y2="392" stroke="#ffffff" stroke-opacity="0.025"/>
<line x1="0" y1="448" x2="1600" y2="448" stroke="#ffffff" stroke-opacity="0.025"/>
<line x1="0" y1="504" x2="1600" y2="504" stroke="#ffffff" stroke-opacity="0.025"/>
<line x1="0" y1="560" x2="1600" y2="560" stroke="#ffffff" stroke-opacity="0.025"/>
<line x1="0" y1="616" x2="1600" y2="616" stroke="#ffffff" stroke-opacity="0.025"/>
<line x1="0" y1="672" x2="1600" y2="672" stroke="#ffffff" stroke-opacity="0.025"/>
<line x1="0" y1="728" x2="1600" y2="728" stroke="#ffffff" stroke-opacity="0.025"/>
<line x1="0" y1="784" x2="1600" y2="784" stroke="#ffffff" stroke-opacity="0.025"/>
<line x1="0" y1="840" x2="1600" y2="840" stroke="#ffffff" stroke-opacity="0.025"/>
<line x1="0" y1="896" x2="1600" y2="896" stroke="#ffffff" stroke-opacity="0.025"/>
<line x1="0" y1="952" x2="1600" y2="952" stroke="#ffffff" stroke-opacity="0.025"/>
<path d="M 768.5,646.0 L 766.8,649.2 L 764.7,652.0 L 761.9,655.1 L 756.4,660.4 L 750.6,665.2 L 745.9,668.4 L 741.1,671.3 L 729.0,678.1 L 635.5,730.6 L 616.8,741.1 L 551.9,777.5 L 459.8,829.3 L 335.4,899.0 L 319.4,908.0 L 316.5,909.3 L 313.4,910.0 L 310.2,910.0 L 307.1,909.4 L 304.3,908.3 L 301.9,906.7 L 299.8,904.6 L 298.1,902.3 L 285.3,874.1 L 283.1,868.2 L 281.3,862.3 L 280.0,856.2 L 279.1,850.1 L 278.8,843.8 L 278.8,837.6 L 279.4,831.4 L 280.2,809.6 L 283.0,730.1 L 283.1,727.8 L 303.8,202.0 L 305.9,153.4 L 308.1,100.7 L 308.1,98.4 L 308.5,96.1 L 309.5,94.0 L 311.1,92.2 L 313.0,90.9 L 315.1,90.2 L 317.3,90.0 L 319.5,90.4 L 321.5,91.3 L 323.3,92.7 L 326.4,95.5 L 360.0,127.9 L 362.0,129.5 L 364.3,130.8 L 366.7,131.7 L 369.3,132.2 L 372.4,132.2 L 375.4,131.6 L 378.2,130.4 L 425.6,114.5 L 431.8,113.1 L 438.0,112.2 L 444.2,111.9 L 451.3,112.1 L 458.3,113.0 L 462.2,113.9 L 485.1,118.3 L 591.8,138.7 L 703.7,159.5 L 744.6,167.4 L 819.8,182.0 L 822.1,182.6 L 824.2,183.6 L 826.1,185.1 L 827.7,186.9 L 828.8,189.1 L 829.5,191.4 L 829.6,193.8 L 829.2,201.0 L 828.5,205.8 L 827.2,210.5 L 825.2,215.6 L 822.5,220.4 L 819.6,224.2 L 814.6,228.8 L 799.4,256.9 L 797.3,261.4 L 795.9,266.1 L 795.0,271.0 L 794.7,275.9 L 795.2,281.1 L 796.3,286.2 L 798.1,291.1 L 800.5,295.7 L 837.7,366.5 L 841.0,372.7 L 843.9,379.2 L 846.3,385.8 L 848.4,393.3 L 850.0,401.0 L 850.9,408.8 L 851.2,416.6 L 851.0,424.4 L 850.1,432.1 L 848.6,439.8 L 846.6,447.3 L 844.2,453.6 L 840.9,461.5 L 837.3,468.2 L 833.2,474.5 L 828.7,480.6 L 817.1,492.9 L 815.0,494.9 L 813.3,497.3 L 812.0,499.9 L 811.2,502.6 L 810.8,505.9 L 810.9,509.1 L 811.7,512.3 L 813.0,515.2 L 823.6,533.0 L 825.5,536.0 L 826.9,539.3 L 827.6,542.7 L 827.7,545.7 L 827.3,548.6 L 826.4,551.4 L 825.1,554.0 L 809.1,579.1 L 807.4,580.9 L 805.4,582.3 L 803.1,583.2 L 800.6,583.5 L 798.2,583.4 L 795.8,582.7 L 793.6,581.6 L 791.7,579.9 L 787.1,573.8 L 781.5,565.4 L 777.1,559.3 L 772.4,553.5 L 767.3,548.0 L 762.3,543.0 L 757.0,538.4 L 750.6,533.4 L 743.9,528.9 L 739.4,526.4 L 734.8,524.0 L 731.6,522.7 L 728.6,521.0 L 726.4,519.5 L 724.3,517.8 L 722.1,515.2 L 720.2,512.4 L 718.9,509.3 L 718.0,506.1 L 717.7,502.5 L 717.9,498.9 L 719.1,495.2 L 720.6,491.7 L 722.5,488.3 L 725.4,484.6 L 728.7,481.2 L 740.2,469.5 L 755.1,454.1 L 756.9,452.4 L 758.4,450.4 L 759.5,448.2 L 760.1,445.8 L 760.4,443.0 L 760.1,440.2 L 759.2,437.6 L 758.2,434.1 L 756.2,427.3 L 753.8,415.0 L 752.0,404.3 L 750.7,393.6 L 750.3,386.1 L 750.1,383.4 L 750.0,373.3 L 750.4,365.6 L 750.6,349.3 L 750.3,344.8 L 750.0,339.8 L 749.3,336.3 L 748.0,332.9 L 746.2,329.7 L 744.0,326.8 L 741.5,324.5 L 738.6,322.5 L 735.5,321.0 L 732.2,320.0 L 728.7,319.5 L 713.4,318.0 L 709.2,324.0 L 704.8,331.6 L 701.1,339.5 L 694.4,355.6 L 692.0,360.9 L 690.2,364.4 L 687.2,368.3 L 683.9,371.8 L 680.1,375.0 L 675.6,377.8 L 670.7,380.0 L 665.7,381.5 L 660.4,382.3 L 655.1,382.4 L 649.9,381.9 L 625.9,377.8 L 621.0,376.8 L 614.9,376.1 L 607.6,376.2 L 601.1,377.3 L 596.6,378.7 L 592.3,380.6 L 588.1,382.9 L 582.9,386.7 L 578.0,390.9 L 573.5,395.5 L 569.3,400.4 L 496.4,495.5 L 494.4,497.6 L 492.0,499.2 L 489.3,500.3 L 486.4,500.8 L 483.5,500.6 L 480.7,499.9 L 478.2,498.6 L 476.0,496.8 L 474.2,494.6 L 472.9,492.1 L 472.1,489.3 L 471.1,484.6 L 470.5,479.8 L 470.3,475.0 L 470.5,469.5 L 471.2,464.0 L 487.6,361.7 L 500.4,280.6 L 500.9,275.4 L 501.0,270.2 L 500.5,265.0 L 499.6,259.9 L 498.3,255.4 L 496.6,251.2 L 494.6,247.1 L 492.2,243.1 L 486.5,236.5 L 480.4,230.3 L 475.9,226.3 L 471.2,222.6 L 466.3,219.1 L 455.4,210.6 L 454.0,209.8 L 452.5,209.3 L 450.9,209.4 L 449.4,209.8 L 447.8,210.9 L 446.7,212.4 L 446.1,214.2 L 440.6,253.8 L 436.1,287.6 L 434.0,308.3 L 432.5,328.9 L 431.3,354.3 L 427.8,454.8 L 423.6,556.1 L 419.4,657.6 L 418.8,675.6 L 418.7,679.8 L 418.8,684.0 L 419.6,688.1 L 421.0,692.0 L 422.7,695.3 L 424.8,698.3 L 427.2,701.1 L 430.1,703.4 L 434.4,705.7 L 439.8,707.0 L 445.3,708.0 L 450.8,708.6 L 456.2,708.8 L 459.9,708.8 L 467.0,708.3 L 473.9,707.2 L 480.7,705.6 L 487.4,703.4 L 494.4,700.5 L 501.2,696.9 L 507.7,692.8 L 513.8,688.1 L 519.7,682.9 L 525.1,677.3 L 530.2,671.3 L 534.4,665.8 L 538.2,660.0 L 541.6,653.9 L 544.6,647.7 L 548.1,639.4 L 550.9,631.0 L 561.2,603.0 L 564.3,596.8 L 567.9,590.9 L 572.0,585.3 L 576.5,580.0 L 581.1,575.6 L 586.0,571.5 L 591.2,567.8 L 596.7,564.5 L 602.4,561.6 L 608.3,559.2 L 614.3,557.2 L 620.5,555.7 L 626.8,554.6 L 633.4,554.0 L 640.1,553.8 L 646.7,554.2 L 653.3,555.1 L 660.8,556.9 L 668.2,559.3 L 674.2,561.7 L 679.9,564.5 L 689.8,569.8 L 730.5,589.6 L 736.0,592.2 L 741.2,595.2 L 746.2,598.6 L 750.8,602.5 L 755.1,606.8 L 758.7,611.0 L 761.9,615.5 L 764.7,620.3 L 767.2,625.2 L 768.8,628.5 L 769.8,631.9 L 770.3,635.5 L 770.3,639.1 L 769.7,642.6 L 768.5,646.0 Z" fill="none" stroke="#000000" stroke-opacity="0.5" stroke-width="13" stroke-linejoin="round" stroke-linecap="round"/>
<path d="M 768.5,646.0 L 766.8,649.2 L 764.7,652.0 L 761.9,655.1 L 756.4,660.4 L 750.6,665.2 L 745.9,668.4 L 741.1,671.3 L 729.0,678.1 L 635.5,730.6 L 616.8,741.1 L 551.9,777.5 L 459.8,829.3 L 335.4,899.0 L 319.4,908.0 L 316.5,909.3 L 313.4,910.0 L 310.2,910.0 L 307.1,909.4 L 304.3,908.3 L 301.9,906.7 L 299.8,904.6 L 298.1,902.3 L 285.3,874.1 L 283.1,868.2 L 281.3,862.3 L 280.0,856.2 L 279.1,850.1 L 278.8,843.8 L 278.8,837.6 L 279.4,831.4 L 280.2,809.6 L 283.0,730.1 L 283.1,727.8 L 303.8,202.0 L 305.9,153.4 L 308.1,100.7 L 308.1,98.4 L 308.5,96.1 L 309.5,94.0 L 311.1,92.2 L 313.0,90.9 L 315.1,90.2 L 317.3,90.0 L 319.5,90.4 L 321.5,91.3 L 323.3,92.7 L 326.4,95.5 L 360.0,127.9 L 362.0,129.5 L 364.3,130.8 L 366.7,131.7 L 369.3,132.2 L 372.4,132.2 L 375.4,131.6 L 378.2,130.4 L 425.6,114.5 L 431.8,113.1 L 438.0,112.2 L 444.2,111.9 L 451.3,112.1 L 458.3,113.0 L 462.2,113.9 L 485.1,118.3 L 591.8,138.7 L 703.7,159.5 L 744.6,167.4 L 819.8,182.0 L 822.1,182.6 L 824.2,183.6 L 826.1,185.1 L 827.7,186.9 L 828.8,189.1 L 829.5,191.4 L 829.6,193.8 L 829.2,201.0 L 828.5,205.8 L 827.2,210.5 L 825.2,215.6 L 822.5,220.4 L 819.6,224.2 L 814.6,228.8 L 799.4,256.9 L 797.3,261.4 L 795.9,266.1 L 795.0,271.0 L 794.7,275.9 L 795.2,281.1 L 796.3,286.2 L 798.1,291.1 L 800.5,295.7 L 837.7,366.5 L 841.0,372.7 L 843.9,379.2 L 846.3,385.8 L 848.4,393.3 L 850.0,401.0 L 850.9,408.8 L 851.2,416.6 L 851.0,424.4 L 850.1,432.1 L 848.6,439.8 L 846.6,447.3 L 844.2,453.6 L 840.9,461.5 L 837.3,468.2 L 833.2,474.5 L 828.7,480.6 L 817.1,492.9 L 815.0,494.9 L 813.3,497.3 L 812.0,499.9 L 811.2,502.6 L 810.8,505.9 L 810.9,509.1 L 811.7,512.3 L 813.0,515.2 L 823.6,533.0 L 825.5,536.0 L 826.9,539.3 L 827.6,542.7 L 827.7,545.7 L 827.3,548.6 L 826.4,551.4 L 825.1,554.0 L 809.1,579.1 L 807.4,580.9 L 805.4,582.3 L 803.1,583.2 L 800.6,583.5 L 798.2,583.4 L 795.8,582.7 L 793.6,581.6 L 791.7,579.9 L 787.1,573.8 L 781.5,565.4 L 777.1,559.3 L 772.4,553.5 L 767.3,548.0 L 762.3,543.0 L 757.0,538.4 L 750.6,533.4 L 743.9,528.9 L 739.4,526.4 L 734.8,524.0 L 731.6,522.7 L 728.6,521.0 L 726.4,519.5 L 724.3,517.8 L 722.1,515.2 L 720.2,512.4 L 718.9,509.3 L 718.0,506.1 L 717.7,502.5 L 717.9,498.9 L 719.1,495.2 L 720.6,491.7 L 722.5,488.3 L 725.4,484.6 L 728.7,481.2 L 740.2,469.5 L 755.1,454.1 L 756.9,452.4 L 758.4,450.4 L 759.5,448.2 L 760.1,445.8 L 760.4,443.0 L 760.1,440.2 L 759.2,437.6 L 758.2,434.1 L 756.2,427.3 L 753.8,415.0 L 752.0,404.3 L 750.7,393.6 L 750.3,386.1 L 750.1,383.4 L 750.0,373.3 L 750.4,365.6 L 750.6,349.3 L 750.3,344.8 L 750.0,339.8 L 749.3,336.3 L 748.0,332.9 L 746.2,329.7 L 744.0,326.8 L 741.5,324.5 L 738.6,322.5 L 735.5,321.0 L 732.2,320.0 L 728.7,319.5 L 713.4,318.0 L 709.2,324.0 L 704.8,331.6 L 701.1,339.5 L 694.4,355.6 L 692.0,360.9 L 690.2,364.4 L 687.2,368.3 L 683.9,371.8 L 680.1,375.0 L 675.6,377.8 L 670.7,380.0 L 665.7,381.5 L 660.4,382.3 L 655.1,382.4 L 649.9,381.9 L 625.9,377.8 L 621.0,376.8 L 614.9,376.1 L 607.6,376.2 L 601.1,377.3 L 596.6,378.7 L 592.3,380.6 L 588.1,382.9 L 582.9,386.7 L 578.0,390.9 L 573.5,395.5 L 569.3,400.4 L 496.4,495.5 L 494.4,497.6 L 492.0,499.2 L 489.3,500.3 L 486.4,500.8 L 483.5,500.6 L 480.7,499.9 L 478.2,498.6 L 476.0,496.8 L 474.2,494.6 L 472.9,492.1 L 472.1,489.3 L 471.1,484.6 L 470.5,479.8 L 470.3,475.0 L 470.5,469.5 L 471.2,464.0 L 487.6,361.7 L 500.4,280.6 L 500.9,275.4 L 501.0,270.2 L 500.5,265.0 L 499.6,259.9 L 498.3,255.4 L 496.6,251.2 L 494.6,247.1 L 492.2,243.1 L 486.5,236.5 L 480.4,230.3 L 475.9,226.3 L 471.2,222.6 L 466.3,219.1 L 455.4,210.6 L 454.0,209.8 L 452.5,209.3 L 450.9,209.4 L 449.4,209.8 L 447.8,210.9 L 446.7,212.4 L 446.1,214.2 L 440.6,253.8 L 436.1,287.6 L 434.0,308.3 L 432.5,328.9 L 431.3,354.3 L 427.8,454.8 L 423.6,556.1 L 419.4,657.6 L 418.8,675.6 L 418.7,679.8 L 418.8,684.0 L 419.6,688.1 L 421.0,692.0 L 422.7,695.3 L 424.8,698.3 L 427.2,701.1 L 430.1,703.4 L 434.4,705.7 L 439.8,707.0 L 445.3,708.0 L 450.8,708.6 L 456.2,708.8 L 459.9,708.8 L 467.0,708.3 L 473.9,707.2 L 480.7,705.6 L 487.4,703.4 L 494.4,700.5 L 501.2,696.9 L 507.7,692.8 L 513.8,688.1 L 519.7,682.9 L 525.1,677.3 L 530.2,671.3 L 534.4,665.8 L 538.2,660.0 L 541.6,653.9 L 544.6,647.7 L 548.1,639.4 L 550.9,631.0 L 561.2,603.0 L 564.3,596.8 L 567.9,590.9 L 572.0,585.3 L 576.5,580.0 L 581.1,575.6 L 586.0,571.5 L 591.2,567.8 L 596.7,564.5 L 602.4,561.6 L 608.3,559.2 L 614.3,557.2 L 620.5,555.7 L 626.8,554.6 L 633.4,554.0 L 640.1,553.8 L 646.7,554.2 L 653.3,555.1 L 660.8,556.9 L 668.2,559.3 L 674.2,561.7 L 679.9,564.5 L 689.8,569.8 L 730.5,589.6 L 736.0,592.2 L 741.2,595.2 L 746.2,598.6 L 750.8,602.5 L 755.1,606.8 L 758.7,611.0 L 761.9,615.5 L 764.7,620.3 L 767.2,625.2 L 768.8,628.5 L 769.8,631.9 L 770.3,635.5 L 770.3,639.1 L 769.7,642.6 L 768.5,646.0 Z" fill="none" stroke="#39404f" stroke-width="8.5" stroke-linejoin="round" stroke-linecap="round"/>
<path d="M 768.5,646.0 L 766.8,649.2 L 764.7,652.0 L 761.9,655.1 L 756.4,660.4 L 750.6,665.2 L 745.9,668.4 L 741.1,671.3 L 729.0,678.1 L 635.5,730.6 L 616.8,741.1 L 551.9,777.5 L 459.8,829.3 L 335.4,899.0 L 319.4,908.0 L 316.5,909.3 L 313.4,910.0 L 310.2,910.0 L 307.1,909.4 L 304.3,908.3 L 301.9,906.7 L 299.8,904.6 L 298.1,902.3 L 285.3,874.1 L 283.1,868.2 L 281.3,862.3 L 280.0,856.2 L 279.1,850.1 L 278.8,843.8 L 278.8,837.6 L 279.4,831.4 L 280.2,809.6 L 283.0,730.1 L 283.1,727.8 L 303.8,202.0 L 305.9,153.4 L 308.1,100.7 L 308.1,98.4 L 308.5,96.1 L 309.5,94.0 L 311.1,92.2 L 313.0,90.9 L 315.1,90.2 L 317.3,90.0 L 319.5,90.4 L 321.5,91.3 L 323.3,92.7 L 326.4,95.5 L 360.0,127.9 L 362.0,129.5 L 364.3,130.8 L 366.7,131.7 L 369.3,132.2 L 372.4,132.2 L 375.4,131.6 L 378.2,130.4 L 425.6,114.5 L 431.8,113.1 L 438.0,112.2 L 444.2,111.9 L 451.3,112.1 L 458.3,113.0 L 462.2,113.9 L 485.1,118.3 L 591.8,138.7 L 703.7,159.5 L 744.6,167.4 L 819.8,182.0 L 822.1,182.6 L 824.2,183.6 L 826.1,185.1 L 827.7,186.9 L 828.8,189.1 L 829.5,191.4 L 829.6,193.8 L 829.2,201.0 L 828.5,205.8 L 827.2,210.5 L 825.2,215.6 L 822.5,220.4 L 819.6,224.2 L 814.6,228.8 L 799.4,256.9 L 797.3,261.4 L 795.9,266.1 L 795.0,271.0 L 794.7,275.9 L 795.2,281.1 L 796.3,286.2 L 798.1,291.1 L 800.5,295.7 L 837.7,366.5 L 841.0,372.7 L 843.9,379.2 L 846.3,385.8 L 848.4,393.3 L 850.0,401.0 L 850.9,408.8 L 851.2,416.6 L 851.0,424.4 L 850.1,432.1 L 848.6,439.8 L 846.6,447.3 L 844.2,453.6 L 840.9,461.5 L 837.3,468.2 L 833.2,474.5 L 828.7,480.6 L 817.1,492.9 L 815.0,494.9 L 813.3,497.3 L 812.0,499.9 L 811.2,502.6 L 810.8,505.9 L 810.9,509.1 L 811.7,512.3 L 813.0,515.2 L 823.6,533.0 L 825.5,536.0 L 826.9,539.3 L 827.6,542.7 L 827.7,545.7 L 827.3,548.6 L 826.4,551.4 L 825.1,554.0 L 809.1,579.1 L 807.4,580.9 L 805.4,582.3 L 803.1,583.2 L 800.6,583.5 L 798.2,583.4 L 795.8,582.7 L 793.6,581.6 L 791.7,579.9 L 787.1,573.8 L 781.5,565.4 L 777.1,559.3 L 772.4,553.5 L 767.3,548.0 L 762.3,543.0 L 757.0,538.4 L 750.6,533.4 L 743.9,528.9 L 739.4,526.4 L 734.8,524.0 L 731.6,522.7 L 728.6,521.0 L 726.4,519.5 L 724.3,517.8 L 722.1,515.2 L 720.2,512.4 L 718.9,509.3 L 718.0,506.1 L 717.7,502.5 L 717.9,498.9 L 719.1,495.2 L 720.6,491.7 L 722.5,488.3 L 725.4,484.6 L 728.7,481.2 L 740.2,469.5 L 755.1,454.1 L 756.9,452.4 L 758.4,450.4 L 759.5,448.2 L 760.1,445.8 L 760.4,443.0 L 760.1,440.2 L 759.2,437.6 L 758.2,434.1 L 756.2,427.3 L 753.8,415.0 L 752.0,404.3 L 750.7,393.6 L 750.3,386.1 L 750.1,383.4 L 750.0,373.3 L 750.4,365.6 L 750.6,349.3 L 750.3,344.8 L 750.0,339.8 L 749.3,336.3 L 748.0,332.9 L 746.2,329.7 L 744.0,326.8 L 741.5,324.5 L 738.6,322.5 L 735.5,321.0 L 732.2,320.0 L 728.7,319.5 L 713.4,318.0 L 709.2,324.0 L 704.8,331.6 L 701.1,339.5 L 694.4,355.6 L 692.0,360.9 L 690.2,364.4 L 687.2,368.3 L 683.9,371.8 L 680.1,375.0 L 675.6,377.8 L 670.7,380.0 L 665.7,381.5 L 660.4,382.3 L 655.1,382.4 L 649.9,381.9 L 625.9,377.8 L 621.0,376.8 L 614.9,376.1 L 607.6,376.2 L 601.1,377.3 L 596.6,378.7 L 592.3,380.6 L 588.1,382.9 L 582.9,386.7 L 578.0,390.9 L 573.5,395.5 L 569.3,400.4 L 496.4,495.5 L 494.4,497.6 L 492.0,499.2 L 489.3,500.3 L 486.4,500.8 L 483.5,500.6 L 480.7,499.9 L 478.2,498.6 L 476.0,496.8 L 474.2,494.6 L 472.9,492.1 L 472.1,489.3 L 471.1,484.6 L 470.5,479.8 L 470.3,475.0 L 470.5,469.5 L 471.2,464.0 L 487.6,361.7 L 500.4,280.6 L 500.9,275.4 L 501.0,270.2 L 500.5,265.0 L 499.6,259.9 L 498.3,255.4 L 496.6,251.2 L 494.6,247.1 L 492.2,243.1 L 486.5,236.5 L 480.4,230.3 L 475.9,226.3 L 471.2,222.6 L 466.3,219.1 L 455.4,210.6 L 454.0,209.8 L 452.5,209.3 L 450.9,209.4 L 449.4,209.8 L 447.8,210.9 L 446.7,212.4 L 446.1,214.2 L 440.6,253.8 L 436.1,287.6 L 434.0,308.3 L 432.5,328.9 L 431.3,354.3 L 427.8,454.8 L 423.6,556.1 L 419.4,657.6 L 418.8,675.6 L 418.7,679.8 L 418.8,684.0 L 419.6,688.1 L 421.0,692.0 L 422.7,695.3 L 424.8,698.3 L 427.2,701.1 L 430.1,703.4 L 434.4,705.7 L 439.8,707.0 L 445.3,708.0 L 450.8,708.6 L 456.2,708.8 L 459.9,708.8 L 467.0,708.3 L 473.9,707.2 L 480.7,705.6 L 487.4,703.4 L 494.4,700.5 L 501.2,696.9 L 507.7,692.8 L 513.8,688.1 L 519.7,682.9 L 525.1,677.3 L 530.2,671.3 L 534.4,665.8 L 538.2,660.0 L 541.6,653.9 L 544.6,647.7 L 548.1,639.4 L 550.9,631.0 L 561.2,603.0 L 564.3,596.8 L 567.9,590.9 L 572.0,585.3 L 576.5,580.0 L 581.1,575.6 L 586.0,571.5 L 591.2,567.8 L 596.7,564.5 L 602.4,561.6 L 608.3,559.2 L 614.3,557.2 L 620.5,555.7 L 626.8,554.6 L 633.4,554.0 L 640.1,553.8 L 646.7,554.2 L 653.3,555.1 L 660.8,556.9 L 668.2,559.3 L 674.2,561.7 L 679.9,564.5 L 689.8,569.8 L 730.5,589.6 L 736.0,592.2 L 741.2,595.2 L 746.2,598.6 L 750.8,602.5 L 755.1,606.8 L 758.7,611.0 L 761.9,615.5 L 764.7,620.3 L 767.2,625.2 L 768.8,628.5 L 769.8,631.9 L 770.3,635.5 L 770.3,639.1 L 769.7,642.6 L 768.5,646.0 Z" fill="none" stroke="#e7edf8" stroke-width="2.6" stroke-linejoin="round" stroke-linecap="round"/>
<path d="M 768.5,646.0 L 766.8,649.2 L 764.7,652.0 L 761.9,655.1 L 756.4,660.4 L 750.6,665.2 L 745.9,668.4 L 741.1,671.3 L 729.0,678.1 L 635.5,730.6 L 616.8,741.1 L 551.9,777.5 L 459.8,829.3 L 335.4,899.0 L 319.4,908.0 L 316.5,909.3 L 313.4,910.0 L 310.2,910.0 L 307.1,909.4 L 304.3,908.3 L 301.9,906.7 L 299.8,904.6 L 298.1,902.3 L 285.3,874.1 L 283.1,868.2 L 281.3,862.3 L 280.0,856.2 L 279.1,850.1 L 278.8,843.8 L 278.8,837.6 L 279.4,831.4 L 280.2,809.6 L 283.0,730.1 L 283.1,727.8 L 303.8,202.0 L 305.9,153.4 L 308.1,100.7 L 308.1,98.4 L 308.5,96.1 L 309.5,94.0 L 311.1,92.2 L 313.0,90.9 L 315.1,90.2 L 317.3,90.0 L 319.5,90.4 L 321.5,91.3 L 323.3,92.7 L 326.4,95.5 L 360.0,127.9 L 362.0,129.5 L 364.3,130.8 L 366.7,131.7 L 369.3,132.2 L 372.4,132.2 L 375.4,131.6 L 378.2,130.4 L 425.6,114.5 L 431.8,113.1 L 438.0,112.2 L 444.2,111.9 L 451.3,112.1 L 458.3,113.0 L 462.2,113.9 L 485.1,118.3 L 591.8,138.7 L 703.7,159.5 L 744.6,167.4 L 819.8,182.0 L 822.1,182.6 L 824.2,183.6 L 826.1,185.1 L 827.7,186.9 L 828.8,189.1 L 829.5,191.4 L 829.6,193.8 L 829.2,201.0 L 828.5,205.8 L 827.2,210.5 L 825.2,215.6 L 822.5,220.4 L 819.6,224.2 L 814.6,228.8 L 799.4,256.9 L 797.3,261.4 L 795.9,266.1 L 795.0,271.0 L 794.7,275.9 L 795.2,281.1 L 796.3,286.2 L 798.1,291.1 L 800.5,295.7 L 837.7,366.5 L 841.0,372.7 L 843.9,379.2 L 846.3,385.8 L 848.4,393.3 L 850.0,401.0 L 850.9,408.8 L 851.2,416.6 L 851.0,424.4 L 850.1,432.1 L 848.6,439.8 L 846.6,447.3 L 844.2,453.6 L 840.9,461.5 L 837.3,468.2 L 833.2,474.5 L 828.7,480.6 L 817.1,492.9 L 815.0,494.9 L 813.3,497.3 L 812.0,499.9 L 811.2,502.6 L 810.8,505.9 L 810.9,509.1 L 811.7,512.3 L 813.0,515.2 L 823.6,533.0 L 825.5,536.0 L 826.9,539.3 L 827.6,542.7 L 827.7,545.7 L 827.3,548.6 L 826.4,551.4 L 825.1,554.0 L 809.1,579.1 L 807.4,580.9 L 805.4,582.3 L 803.1,583.2 L 800.6,583.5 L 798.2,583.4 L 795.8,582.7 L 793.6,581.6 L 791.7,579.9 L 787.1,573.8 L 781.5,565.4 L 777.1,559.3 L 772.4,553.5 L 767.3,548.0 L 762.3,543.0 L 757.0,538.4 L 750.6,533.4 L 743.9,528.9 L 739.4,526.4 L 734.8,524.0 L 731.6,522.7 L 728.6,521.0 L 726.4,519.5 L 724.3,517.8 L 722.1,515.2 L 720.2,512.4 L 718.9,509.3 L 718.0,506.1 L 717.7,502.5 L 717.9,498.9 L 719.1,495.2 L 720.6,491.7 L 722.5,488.3 L 725.4,484.6 L 728.7,481.2 L 740.2,469.5 L 755.1,454.1 L 756.9,452.4 L 758.4,450.4 L 759.5,448.2 L 760.1,445.8 L 760.4,443.0 L 760.1,440.2 L 759.2,437.6 L 758.2,434.1 L 756.2,427.3 L 753.8,415.0 L 752.0,404.3 L 750.7,393.6 L 750.3,386.1 L 750.1,383.4 L 750.0,373.3 L 750.4,365.6 L 750.6,349.3 L 750.3,344.8 L 750.0,339.8 L 749.3,336.3 L 748.0,332.9 L 746.2,329.7 L 744.0,326.8 L 741.5,324.5 L 738.6,322.5 L 735.5,321.0 L 732.2,320.0 L 728.7,319.5 L 713.4,318.0 L 709.2,324.0 L 704.8,331.6 L 701.1,339.5 L 694.4,355.6 L 692.0,360.9 L 690.2,364.4 L 687.2,368.3 L 683.9,371.8 L 680.1,375.0 L 675.6,377.8 L 670.7,380.0 L 665.7,381.5 L 660.4,382.3 L 655.1,382.4 L 649.9,381.9 L 625.9,377.8 L 621.0,376.8 L 614.9,376.1 L 607.6,376.2 L 601.1,377.3 L 596.6,378.7 L 592.3,380.6 L 588.1,382.9 L 582.9,386.7 L 578.0,390.9 L 573.5,395.5 L 569.3,400.4 L 496.4,495.5 L 494.4,497.6 L 492.0,499.2 L 489.3,500.3 L 486.4,500.8 L 483.5,500.6 L 480.7,499.9 L 478.2,498.6 L 476.0,496.8 L 474.2,494.6 L 472.9,492.1 L 472.1,489.3 L 471.1,484.6 L 470.5,479.8 L 470.3,475.0 L 470.5,469.5 L 471.2,464.0 L 487.6,361.7 L 500.4,280.6 L 500.9,275.4 L 501.0,270.2 L 500.5,265.0 L 499.6,259.9 L 498.3,255.4 L 496.6,251.2 L 494.6,247.1 L 492.2,243.1 L 486.5,236.5 L 480.4,230.3 L 475.9,226.3 L 471.2,222.6 L 466.3,219.1 L 455.4,210.6 L 454.0,209.8 L 452.5,209.3 L 450.9,209.4 L 449.4,209.8 L 447.8,210.9 L 446.7,212.4 L 446.1,214.2 L 440.6,253.8 L 436.1,287.6 L 434.0,308.3 L 432.5,328.9 L 431.3,354.3 L 427.8,454.8 L 423.6,556.1 L 419.4,657.6 L 418.8,675.6 L 418.7,679.8 L 418.8,684.0 L 419.6,688.1 L 421.0,692.0 L 422.7,695.3 L 424.8,698.3 L 427.2,701.1 L 430.1,703.4 L 434.4,705.7 L 439.8,707.0 L 445.3,708.0 L 450.8,708.6 L 456.2,708.8 L 459.9,708.8 L 467.0,708.3 L 473.9,707.2 L 480.7,705.6 L 487.4,703.4 L 494.4,700.5 L 501.2,696.9 L 507.7,692.8 L 513.8,688.1 L 519.7,682.9 L 525.1,677.3 L 530.2,671.3 L 534.4,665.8 L 538.2,660.0 L 541.6,653.9 L 544.6,647.7 L 548.1,639.4 L 550.9,631.0 L 561.2,603.0 L 564.3,596.8 L 567.9,590.9 L 572.0,585.3 L 576.5,580.0 L 581.1,575.6 L 586.0,571.5 L 591.2,567.8 L 596.7,564.5 L 602.4,561.6 L 608.3,559.2 L 614.3,557.2 L 620.5,555.7 L 626.8,554.6 L 633.4,554.0 L 640.1,553.8 L 646.7,554.2 L 653.3,555.1 L 660.8,556.9 L 668.2,559.3 L 674.2,561.7 L 679.9,564.5 L 689.8,569.8 L 730.5,589.6 L 736.0,592.2 L 741.2,595.2 L 746.2,598.6 L 750.8,602.5 L 755.1,606.8 L 758.7,611.0 L 761.9,615.5 L 764.7,620.3 L 767.2,625.2 L 768.8,628.5 L 769.8,631.9 L 770.3,635.5 L 770.3,639.1 L 769.7,642.6 L 768.5,646.0 Z" fill="none" stroke="#ff5a36" stroke-opacity="0.55" stroke-width="1.2" stroke-linejoin="round" filter="url(#glow)"/>
<circle cx="290.3" cy="545.8" r="13" fill="none" stroke="#ffffff" stroke-width="3"/>
<rect x="286.3" y="523.8" width="8" height="18" fill="#ffffff"/>
<circle cx="491.0" cy="119.4" r="7" fill="#ff5a36" stroke="#0a0c12" stroke-width="2.5" filter="url(#glow)"/>
<text x="491.0" y="122.8" font-size="9" font-weight="700" fill="#0a0c12" text-anchor="middle">1</text>
<circle cx="582.9" cy="136.9" r="7" fill="#ff5a36" stroke="#0a0c12" stroke-width="2.5" filter="url(#glow)"/>
<text x="582.9" y="140.3" font-size="9" font-weight="700" fill="#0a0c12" text-anchor="middle">2</text>
<circle cx="628.9" cy="145.6" r="7" fill="#ff5a36" stroke="#0a0c12" stroke-width="2.5" filter="url(#glow)"/>
<text x="628.9" y="149.0" font-size="9" font-weight="700" fill="#0a0c12" text-anchor="middle">3</text>
<circle cx="834.6" cy="472.3" r="7" fill="#ff5a36" stroke="#0a0c12" stroke-width="2.5" filter="url(#glow)"/>
<text x="834.6" y="475.7" font-size="9" font-weight="700" fill="#0a0c12" text-anchor="middle">4</text>
<circle cx="727.0" cy="519.9" r="7" fill="#ff5a36" stroke="#0a0c12" stroke-width="2.5" filter="url(#glow)"/>
<text x="727.0" y="523.3" font-size="9" font-weight="700" fill="#0a0c12" text-anchor="middle">5</text>
<circle cx="701.6" cy="473.8" r="7" fill="#ff5a36" stroke="#0a0c12" stroke-width="2.5" filter="url(#glow)"/>
<text x="701.6" y="477.2" font-size="9" font-weight="700" fill="#0a0c12" text-anchor="middle">6</text>
<circle cx="629.2" cy="532.8" r="7" fill="#ff5a36" stroke="#0a0c12" stroke-width="2.5" filter="url(#glow)"/>
<text x="629.2" y="536.2" font-size="9" font-weight="700" fill="#0a0c12" text-anchor="middle">7</text>
<circle cx="723.1" cy="476.7" r="7" fill="#ff5a36" stroke="#0a0c12" stroke-width="2.5" filter="url(#glow)"/>
<text x="723.1" y="480.1" font-size="9" font-weight="700" fill="#0a0c12" text-anchor="middle">8</text>
<circle cx="624.7" cy="377.5" r="7" fill="#ff5a36" stroke="#0a0c12" stroke-width="2.5" filter="url(#glow)"/>
<text x="624.7" y="380.9" font-size="9" font-weight="700" fill="#0a0c12" text-anchor="middle">9</text>
<circle cx="551.1" cy="424.1" r="7" fill="#ff5a36" stroke="#0a0c12" stroke-width="2.5" filter="url(#glow)"/>
<text x="551.1" y="427.5" font-size="9" font-weight="700" fill="#0a0c12" text-anchor="middle">10</text>
<circle cx="430.1" cy="388.0" r="7" fill="#ff5a36" stroke="#0a0c12" stroke-width="2.5" filter="url(#glow)"/>
<text x="430.1" y="391.4" font-size="9" font-weight="700" fill="#0a0c12" text-anchor="middle">11</text>
<circle cx="419.0" cy="668.5" r="7" fill="#ff5a36" stroke="#0a0c12" stroke-width="2.5" filter="url(#glow)"/>
<text x="419.0" y="671.9" font-size="9" font-weight="700" fill="#0a0c12" text-anchor="middle">12</text>
<circle cx="597.2" cy="564.2" r="7" fill="#ff5a36" stroke="#0a0c12" stroke-width="2.5" filter="url(#glow)"/>
<text x="597.2" y="567.6" font-size="9" font-weight="700" fill="#0a0c12" text-anchor="middle">13</text>
<circle cx="351.1" cy="890.2" r="7" fill="#ff5a36" stroke="#0a0c12" stroke-width="2.5" filter="url(#glow)"/>
<text x="351.1" y="893.6" font-size="9" font-weight="700" fill="#0a0c12" text-anchor="middle">14</text>
<circle cx="284.7" cy="872.4" r="7" fill="#ff5a36" stroke="#0a0c12" stroke-width="2.5" filter="url(#glow)"/>
<text x="284.7" y="875.8" font-size="9" font-weight="700" fill="#0a0c12" text-anchor="middle">15</text>
<text x="90" y="64" font-size="20" letter-spacing="5" fill="#ff5a36" font-weight="700">TRACK ATLAS</text>
<text x="90" y="108" font-size="42" font-weight="800" fill="#ffffff">BAHRAIN INTERNATIONAL CIRCUIT</text>
<text x="90" y="136" font-size="16" fill="#9aa6bd">Sakhir</text>
<rect x="1170" y="200" width="360" height="710" rx="16" fill="#ffffff" fill-opacity="0.04" stroke="#ff5a36" stroke-opacity="0.5"/>
<text x="1198" y="250" font-size="13" letter-spacing="2" fill="#8794ab">LAYOUT</text>
<text x="1198" y="276" font-size="22" font-weight="700" fill="#eef2fb">Grand Prix Circuit</text>
<text x="1198" y="320" font-size="13" letter-spacing="2" fill="#8794ab">LENGTH</text>
<text x="1198" y="346" font-size="22" font-weight="700" fill="#eef2fb">5.412 km</text>
<text x="1198" y="390" font-size="13" letter-spacing="2" fill="#8794ab">CORNERS</text>
<text x="1198" y="416" font-size="22" font-weight="700" fill="#eef2fb">15</text>
<text x="1198" y="460" font-size="13" letter-spacing="2" fill="#8794ab">NAMED CORNERS</text>
<text x="1198" y="486" font-size="22" font-weight="700" fill="#eef2fb">0</text>
<text x="1198" y="530" font-size="13" letter-spacing="2" fill="#8794ab">DIRECTION</text>
<text x="1198" y="556" font-size="22" font-weight="700" fill="#eef2fb">Clockwise</text>
<text x="1198" y="600" font-size="13" letter-spacing="2" fill="#8794ab">SECTORS</text>
<text x="1198" y="626" font-size="22" font-weight="700" fill="#eef2fb">3</text>
<text x="1198" y="670" font-size="13" letter-spacing="2" fill="#8794ab">COUNTRY</text>
<text x="1198" y="696" font-size="22" font-weight="700" fill="#eef2fb">BH</text>
<text x="1198" y="740" font-size="13" letter-spacing="2" fill="#8794ab">LOCATION</text>
<text x="1198" y="766" font-size="22" font-weight="700" fill="#eef2fb">Sakhir</text>
<text x="90" y="966" font-size="12" fill="#566177">Geometry © OpenStreetMap contributors (ODbL) · corner data: Lovely-Sim-Racing + curated · track-atlas</text>
<text x="90" y="942" font-size="12" fill="#8794ab">⚑ start / finish</text>
</svg>