<svg xmlns="http://www.w3.org/2000/svg" width="1600" height="1000" viewBox="0 0 1600 1000" font-family="Helvetica, Arial, sans-serif">
<defs>
      <radialGradient id="bg" cx="38%" cy="34%" r="85%">
        <stop offset="0%" stop-color="#1b2030"/>
        <stop offset="55%" stop-color="#12151f"/>
        <stop offset="100%" stop-color="#0a0c12"/>
      </radialGradient>
      <linearGradient id="accent" x1="0" y1="0" x2="1" y2="1">
        <stop offset="0%" stop-color="#ff5a36"/>
        <stop offset="100%" stop-color="#ffffff"/>
      </linearGradient>
      <filter id="glow" x="-40%" y="-40%" width="180%" height="180%">
        <feGaussianBlur stdDeviation="6" result="b"/>
        <feMerge><feMergeNode in="b"/><feMergeNode in="SourceGraphic"/></feMerge>
      </filter>
    </defs>
<rect width="1600" height="1000" fill="url(#bg)"/>
<path d="M 740.7,333.8 C 754.6,377.9 688.5,425.5 668.9,449.3 C 649.3,473.1 633.9,464.3 623.0,476.5 C 612.0,488.8 617.5,502.2 603.3,522.8 C 589.0,543.5 557.8,571.8 537.4,600.2 C 517.1,628.7 498.4,642.1 481.2,693.7 C 463.9,745.3 446.8,882.7 434.0,910.0 C 421.3,937.3 408.3,886.3 404.5,857.2 C 400.7,828.1 413.8,807.0 411.2,735.2 C 408.7,663.5 389.0,503.3 389.3,426.6 C 389.6,349.8 406.7,310.2 412.9,274.8 C 419.1,239.4 413.5,231.8 426.3,214.0 C 439.2,196.2 463.6,172.8 490.1,168.0 C 516.7,163.2 543.7,157.3 585.5,184.9 C 627.2,212.5 726.8,289.8 740.7,333.8 Z" fill="none" stroke="#000000" stroke-opacity="0.5" stroke-width="13" stroke-linejoin="round" stroke-linecap="round"/>
<path d="M 740.7,333.8 C 754.6,377.9 688.5,425.5 668.9,449.3 C 649.3,473.1 633.9,464.3 623.0,476.5 C 612.0,488.8 617.5,502.2 603.3,522.8 C 589.0,543.5 557.8,571.8 537.4,600.2 C 517.1,628.7 498.4,642.1 481.2,693.7 C 463.9,745.3 446.8,882.7 434.0,910.0 C 421.3,937.3 408.3,886.3 404.5,857.2 C 400.7,828.1 413.8,807.0 411.2,735.2 C 408.7,663.5 389.0,503.3 389.3,426.6 C 389.6,349.8 406.7,310.2 412.9,274.8 C 419.1,239.4 413.5,231.8 426.3,214.0 C 439.2,196.2 463.6,172.8 490.1,168.0 C 516.7,163.2 543.7,157.3 585.5,184.9 C 627.2,212.5 726.8,289.8 740.7,333.8 Z" fill="none" stroke="#39404f" stroke-width="8.5" stroke-linejoin="round" stroke-linecap="round"/>
<path d="M 740.7,333.8 C 754.6,377.9 688.5,425.5 668.9,449.3 C 649.3,473.1 633.9,464.3 623.0,476.5 C 612.0,488.8 617.5,502.2 603.3,522.8 C 589.0,543.5 557.8,571.8 537.4,600.2 C 517.1,628.7 498.4,642.1 481.2,693.7 C 463.9,745.3 446.8,882.7 434.0,910.0 C 421.3,937.3 408.3,886.3 404.5,857.2 C 400.7,828.1 413.8,807.0 411.2,735.2 C 408.7,663.5 389.0,503.3 389.3,426.6 C 389.6,349.8 406.7,310.2 412.9,274.8 C 419.1,239.4 413.5,231.8 426.3,214.0 C 439.2,196.2 463.6,172.8 490.1,168.0 C 516.7,163.2 543.7,157.3 585.5,184.9 C 627.2,212.5 726.8,289.8 740.7,333.8 Z" fill="none" stroke="#e7edf8" stroke-width="2.6" stroke-linejoin="round" stroke-linecap="round"/>
<path d="M 740.7,333.8 C 754.6,377.9 688.5,425.5 668.9,449.3 C 649.3,473.1 633.9,464.3 623.0,476.5 C 612.0,488.8 617.5,502.2 603.3,522.8 C 589.0,543.5 557.8,571.8 537.4,600.2 C 517.1,628.7 498.4,642.1 481.2,693.7 C 463.9,745.3 446.8,882.7 434.0,910.0 C 421.3,937.3 408.3,886.3 404.5,857.2 C 400.7,828.1 413.8,807.0 411.2,735.2 C 408.7,663.5 389.0,503.3 389.3,426.6 C 389.6,349.8 406.7,310.2 412.9,274.8 C 419.1,239.4 413.5,231.8 426.3,214.0 C 439.2,196.2 463.6,172.8 490.1,168.0 C 516.7,163.2 543.7,157.3 585.5,184.9 C 627.2,212.5 726.8,289.8 740.7,333.8 Z" fill="none" stroke="#ff5a36" stroke-opacity="0.55" stroke-width="1.2" stroke-linejoin="round" filter="url(#glow)"/>
<circle cx="618.1" cy="205.8" r="13" fill="none" stroke="#ffffff" stroke-width="3"/>
<rect x="614.1" y="183.8" width="8" height="18" fill="#ffffff"/>
<circle cx="740.7" cy="333.8" r="7" fill="#ff5a36" stroke="#0a0c12" stroke-width="2.5" filter="url(#glow)"/>
<text x="740.7" y="337.2" font-size="9" font-weight="700" fill="#0a0c12" text-anchor="middle">1</text>
<circle cx="668.9" cy="449.3" r="7" fill="#ff5a36" stroke="#0a0c12" stroke-width="2.5" filter="url(#glow)"/>
<text x="668.9" y="452.7" font-size="9" font-weight="700" fill="#0a0c12" text-anchor="middle">2</text>
<circle cx="623.0" cy="476.5" r="7" fill="#ff5a36" stroke="#0a0c12" stroke-width="2.5" filter="url(#glow)"/>
<text x="623.0" y="479.9" font-size="9" font-weight="700" fill="#0a0c12" text-anchor="middle">3</text>
<circle cx="603.3" cy="522.8" r="7" fill="#ff5a36" stroke="#0a0c12" stroke-width="2.5" filter="url(#glow)"/>
<text x="603.3" y="526.2" font-size="9" font-weight="700" fill="#0a0c12" text-anchor="middle">4</text>
<circle cx="537.4" cy="600.2" r="7" fill="#ff5a36" stroke="#0a0c12" stroke-width="2.5" filter="url(#glow)"/>
<text x="537.4" y="603.6" font-size="9" font-weight="700" fill="#0a0c12" text-anchor="middle">5</text>
<circle cx="481.2" cy="693.7" r="7" fill="#ff5a36" stroke="#0a0c12" stroke-width="2.5" filter="url(#glow)"/>
<text x="481.2" y="697.1" font-size="9" font-weight="700" fill="#0a0c12" text-anchor="middle">6</text>
<circle cx="434.0" cy="910.0" r="7" fill="#ff5a36" stroke="#0a0c12" stroke-width="2.5" filter="url(#glow)"/>
<text x="434.0" y="913.4" font-size="9" font-weight="700" fill="#0a0c12" text-anchor="middle">7</text>
<circle cx="404.5" cy="857.2" r="7" fill="#ff5a36" stroke="#0a0c12" stroke-width="2.5" filter="url(#glow)"/>
<text x="404.5" y="860.6" font-size="9" font-weight="700" fill="#0a0c12" text-anchor="middle">8</text>
<circle cx="411.2" cy="735.2" r="7" fill="#ff5a36" stroke="#0a0c12" stroke-width="2.5" filter="url(#glow)"/>
<text x="411.2" y="738.6" font-size="9" font-weight="700" fill="#0a0c12" text-anchor="middle">9</text>
<circle cx="389.3" cy="426.6" r="7" fill="#ff5a36" stroke="#0a0c12" stroke-width="2.5" filter="url(#glow)"/>
<text x="389.3" y="430.0" font-size="9" font-weight="700" fill="#0a0c12" text-anchor="middle">10</text>
<circle cx="412.9" cy="274.8" r="7" fill="#ff5a36" stroke="#0a0c12" stroke-width="2.5" filter="url(#glow)"/>
<text x="412.9" y="278.2" font-size="9" font-weight="700" fill="#0a0c12" text-anchor="middle">11</text>
<circle cx="426.3" cy="214.0" r="7" fill="#ff5a36" stroke="#0a0c12" stroke-width="2.5" filter="url(#glow)"/>
<text x="426.3" y="217.4" font-size="9" font-weight="700" fill="#0a0c12" text-anchor="middle">12</text>
<circle cx="490.1" cy="168.0" r="7" fill="#ff5a36" stroke="#0a0c12" stroke-width="2.5" filter="url(#glow)"/>
<text x="490.1" y="171.4" font-size="9" font-weight="700" fill="#0a0c12" text-anchor="middle">13</text>
<circle cx="585.5" cy="184.9" r="7" fill="#ff5a36" stroke="#0a0c12" stroke-width="2.5" filter="url(#glow)"/>
<text x="585.5" y="188.3" font-size="9" font-weight="700" fill="#0a0c12" text-anchor="middle">14</text>
<line x1="412.9" y1="274.8" x2="390.5" y2="227.9" stroke="#ff5a36" stroke-opacity="0.45" stroke-width="1.3"/>
<text x="382.5" y="231.9" font-size="15" font-weight="600" fill="#eef2fb" text-anchor="end">Turn 10</text>
<line x1="490.1" y1="168.0" x2="486.1" y2="168.0" stroke="#ff5a36" stroke-opacity="0.45" stroke-width="1.3"/>
<text x="478.1" y="172.0" font-size="15" font-weight="600" fill="#eef2fb" text-anchor="end">Turn 11</text>
<line x1="585.5" y1="184.9" x2="597.2" y2="134.3" stroke="#ff5a36" stroke-opacity="0.45" stroke-width="1.3"/>
<text x="605.2" y="138.3" font-size="15" font-weight="600" fill="#eef2fb" text-anchor="start">Turn 12</text>
<text x="90" y="64" font-size="20" letter-spacing="5" fill="#ff5a36" font-weight="700">TRACK ATLAS</text>
<text x="90" y="108" font-size="42" font-weight="800" fill="#ffffff">MICHELIN RACEWAY ROAD ATLANTA</text>
<text x="90" y="136" font-size="16" fill="#9aa6bd">Road Atlanta</text>
<rect x="1170" y="200" width="360" height="710" rx="16" fill="#ffffff" fill-opacity="0.04" stroke="#ff5a36" stroke-opacity="0.5"/>
<text x="1198" y="250" font-size="13" letter-spacing="2" fill="#8794ab">LAYOUT</text>
<text x="1198" y="276" font-size="22" font-weight="700" fill="#eef2fb">Full Course</text>
<text x="1198" y="320" font-size="13" letter-spacing="2" fill="#8794ab">LENGTH</text>
<text x="1198" y="346" font-size="22" font-weight="700" fill="#eef2fb">4.088 km</text>
<text x="1198" y="390" font-size="13" letter-spacing="2" fill="#8794ab">CORNERS</text>
<text x="1198" y="416" font-size="22" font-weight="700" fill="#eef2fb">14</text>
<text x="1198" y="460" font-size="13" letter-spacing="2" fill="#8794ab">NAMED CORNERS</text>
<text x="1198" y="486" font-size="22" font-weight="700" fill="#eef2fb">4</text>
<text x="1198" y="530" font-size="13" letter-spacing="2" fill="#8794ab">DIRECTION</text>
<text x="1198" y="556" font-size="22" font-weight="700" fill="#eef2fb">Clockwise</text>
<text x="1198" y="600" font-size="13" letter-spacing="2" fill="#8794ab">SECTORS</text>
<text x="1198" y="626" font-size="22" font-weight="700" fill="#eef2fb">3</text>
<text x="1198" y="670" font-size="13" letter-spacing="2" fill="#8794ab">COUNTRY</text>
<text x="1198" y="696" font-size="22" font-weight="700" fill="#eef2fb">USA</text>
<text x="1198" y="740" font-size="13" letter-spacing="2" fill="#8794ab">LOCATION</text>
<text x="1198" y="766" font-size="22" font-weight="700" fill="#eef2fb">Braselton, Georgia</text>
<text x="1198" y="810" font-size="13" letter-spacing="2" fill="#8794ab">COMPLEXES</text>
<rect x="1198" y="816" width="70" height="24" rx="12" fill="#ff5a36" fill-opacity="0.16" stroke="#ff5a36" stroke-opacity="0.5"/>
<text x="1233" y="833" font-size="12" fill="#eef2fb" text-anchor="middle">Turn 10</text>
<text x="90" y="966" font-size="12" fill="#566177">Geometry © OpenStreetMap contributors (ODbL) · corner data: Lovely-Sim-Racing + curated · track-atlas</text>
<text x="90" y="942" font-size="12" fill="#8794ab">⚑ start / finish</text>
</svg>