<svg xmlns="http://www.w3.org/2000/svg" width="1600" height="1000" viewBox="0 0 1600 1000" font-family="Helvetica, Arial, sans-serif">
<defs>
      <radialGradient id="bg" cx="38%" cy="34%" r="85%">
        <stop offset="0%" stop-color="#1b2030"/>
        <stop offset="55%" stop-color="#12151f"/>
        <stop offset="100%" stop-color="#0a0c12"/>
      </radialGradient>
      <linearGradient id="accent" x1="0" y1="0" x2="1" y2="1">
        <stop offset="0%" stop-color="#ff5a36"/>
        <stop offset="100%" stop-color="#ffffff"/>
      </linearGradient>
      <filter id="glow" x="-40%" y="-40%" width="180%" height="180%">
        <feGaussianBlur stdDeviation="6" result="b"/>
        <feMerge><feMergeNode in="b"/><feMergeNode in="SourceGraphic"/></feMerge>
      </filter>
    </defs>
<rect width="1600" height="1000" fill="url(#bg)"/>
<line x1="0" y1="0" x2="0" y2="1000" stroke="#ffffff" stroke-opacity="0.025"/>
<line x1="56" y1="0" x2="56" y2="1000" stroke="#ffffff" stroke-opacity="0.025"/>
<line x1="112" y1="0" x2="112" y2="1000" stroke="#ffffff" stroke-opacity="0.025"/>
<line x1="168" y1="0" x2="168" y2="1000" stroke="#ffffff" stroke-opacity="0.025"/>
<line x1="224" y1="0" x2="224" y2="1000" stroke="#ffffff" stroke-opacity="0.025"/>
<line x1="280" y1="0" x2="280" y2="1000" stroke="#ffffff" stroke-opacity="0.025"/>
<line x1="336" y1="0" x2="336" y2="1000" stroke="#ffffff" stroke-opacity="0.025"/>
<line x1="392" y1="0" x2="392" y2="1000" stroke="#ffffff" stroke-opacity="0.025"/>
<line x1="448" y1="0" x2="448" y2="1000" stroke="#ffffff" stroke-opacity="0.025"/>
<line x1="504" y1="0" x2="504" y2="1000" stroke="#ffffff" stroke-opacity="0.025"/>
<line x1="560" y1="0" x2="560" y2="1000" stroke="#ffffff" stroke-opacity="0.025"/>
<line x1="616" y1="0" x2="616" y2="1000" stroke="#ffffff" stroke-opacity="0.025"/>
<line x1="672" y1="0" x2="672" y2="1000" stroke="#ffffff" stroke-opacity="0.025"/>
<line x1="728" y1="0" x2="728" y2="1000" stroke="#ffffff" stroke-opacity="0.025"/>
<line x1="784" y1="0" x2="784" y2="1000" stroke="#ffffff" stroke-opacity="0.025"/>
<line x1="840" y1="0" x2="840" y2="1000" stroke="#ffffff" stroke-opacity="0.025"/>
<line x1="896" y1="0" x2="896" y2="1000" stroke="#ffffff" stroke-opacity="0.025"/>
<line x1="952" y1="0" x2="952" y2="1000" stroke="#ffffff" stroke-opacity="0.025"/>
<line x1="1008" y1="0" x2="1008" y2="1000" stroke="#ffffff" stroke-opacity="0.025"/>
<line x1="1064" y1="0" x2="1064" y2="1000" stroke="#ffffff" stroke-opacity="0.025"/>
<line x1="1120" y1="0" x2="1120" y2="1000" stroke="#ffffff" stroke-opacity="0.025"/>
<line x1="1176" y1="0" x2="1176" y2="1000" stroke="#ffffff" stroke-opacity="0.025"/>
<line x1="1232" y1="0" x2="1232" y2="1000" stroke="#ffffff" stroke-opacity="0.025"/>
<line x1="1288" y1="0" x2="1288" y2="1000" stroke="#ffffff" stroke-opacity="0.025"/>
<line x1="1344" y1="0" x2="1344" y2="1000" stroke="#ffffff" stroke-opacity="0.025"/>
<line x1="1400" y1="0" x2="1400" y2="1000" stroke="#ffffff" stroke-opacity="0.025"/>
<line x1="1456" y1="0" x2="1456" y2="1000" stroke="#ffffff" stroke-opacity="0.025"/>
<line x1="1512" y1="0" x2="1512" y2="1000" stroke="#ffffff" stroke-opacity="0.025"/>
<line x1="1568" y1="0" x2="1568" y2="1000" stroke="#ffffff" stroke-opacity="0.025"/>
<line x1="0" y1="0" x2="1600" y2="0" stroke="#ffffff" stroke-opacity="0.025"/>
<line x1="0" y1="56" x2="1600" y2="56" stroke="#ffffff" stroke-opacity="0.025"/>
<line x1="0" y1="112" x2="1600" y2="112" stroke="#ffffff" stroke-opacity="0.025"/>
<line x1="0" y1="168" x2="1600" y2="168" stroke="#ffffff" stroke-opacity="0.025"/>
<line x1="0" y1="224" x2="1600" y2="224" stroke="#ffffff" stroke-opacity="0.025"/>
<line x1="0" y1="280" x2="1600" y2="280" stroke="#ffffff" stroke-opacity="0.025"/>
<line x1="0" y1="336" x2="1600" y2="336" stroke="#ffffff" stroke-opacity="0.025"/>
<line x1="0" y1="392" x2="1600" y2="392" stroke="#ffffff" stroke-opacity="0.025"/>
<line x1="0" y1="448" x2="1600" y2="448" stroke="#ffffff" stroke-opacity="0.025"/>
<line x1="0" y1="504" x2="1600" y2="504" stroke="#ffffff" stroke-opacity="0.025"/>
<line x1="0" y1="560" x2="1600" y2="560" stroke="#ffffff" stroke-opacity="0.025"/>
<line x1="0" y1="616" x2="1600" y2="616" stroke="#ffffff" stroke-opacity="0.025"/>
<line x1="0" y1="672" x2="1600" y2="672" stroke="#ffffff" stroke-opacity="0.025"/>
<line x1="0" y1="728" x2="1600" y2="728" stroke="#ffffff" stroke-opacity="0.025"/>
<line x1="0" y1="784" x2="1600" y2="784" stroke="#ffffff" stroke-opacity="0.025"/>
<line x1="0" y1="840" x2="1600" y2="840" stroke="#ffffff" stroke-opacity="0.025"/>
<line x1="0" y1="896" x2="1600" y2="896" stroke="#ffffff" stroke-opacity="0.025"/>
<line x1="0" y1="952" x2="1600" y2="952" stroke="#ffffff" stroke-opacity="0.025"/>
<path d="M 759.2,273.3 C 774.5,322.0 701.5,374.6 679.8,400.9 C 658.2,427.2 641.2,417.4 629.1,431.0 C 617.0,444.5 623.0,459.3 607.3,482.1 C 591.5,504.9 557.0,536.2 534.5,567.7 C 512.0,599.2 491.4,613.9 472.4,671.0 C 453.3,728.0 434.4,879.9 420.3,910.0 C 406.1,940.1 391.9,883.9 387.7,851.7 C 383.5,819.5 397.9,796.2 395.1,716.9 C 392.3,637.5 370.5,460.5 370.8,375.7 C 371.2,290.9 390.1,247.2 396.9,208.0 C 403.7,168.9 397.5,160.5 411.8,140.8 C 426.0,121.1 453.0,95.3 482.3,90.0 C 511.6,84.7 541.5,78.1 587.6,108.7 C 633.8,139.2 743.8,224.6 759.2,273.3 Z" fill="none" stroke="#000000" stroke-opacity="0.5" stroke-width="13" stroke-linejoin="round" stroke-linecap="round"/>
<path d="M 759.2,273.3 C 774.5,322.0 701.5,374.6 679.8,400.9 C 658.2,427.2 641.2,417.4 629.1,431.0 C 617.0,444.5 623.0,459.3 607.3,482.1 C 591.5,504.9 557.0,536.2 534.5,567.7 C 512.0,599.2 491.4,613.9 472.4,671.0 C 453.3,728.0 434.4,879.9 420.3,910.0 C 406.1,940.1 391.9,883.9 387.7,851.7 C 383.5,819.5 397.9,796.2 395.1,716.9 C 392.3,637.5 370.5,460.5 370.8,375.7 C 371.2,290.9 390.1,247.2 396.9,208.0 C 403.7,168.9 397.5,160.5 411.8,140.8 C 426.0,121.1 453.0,95.3 482.3,90.0 C 511.6,84.7 541.5,78.1 587.6,108.7 C 633.8,139.2 743.8,224.6 759.2,273.3 Z" fill="none" stroke="#39404f" stroke-width="8.5" stroke-linejoin="round" stroke-linecap="round"/>
<path d="M 759.2,273.3 C 774.5,322.0 701.5,374.6 679.8,400.9 C 658.2,427.2 641.2,417.4 629.1,431.0 C 617.0,444.5 623.0,459.3 607.3,482.1 C 591.5,504.9 557.0,536.2 534.5,567.7 C 512.0,599.2 491.4,613.9 472.4,671.0 C 453.3,728.0 434.4,879.9 420.3,910.0 C 406.1,940.1 391.9,883.9 387.7,851.7 C 383.5,819.5 397.9,796.2 395.1,716.9 C 392.3,637.5 370.5,460.5 370.8,375.7 C 371.2,290.9 390.1,247.2 396.9,208.0 C 403.7,168.9 397.5,160.5 411.8,140.8 C 426.0,121.1 453.0,95.3 482.3,90.0 C 511.6,84.7 541.5,78.1 587.6,108.7 C 633.8,139.2 743.8,224.6 759.2,273.3 Z" fill="none" stroke="#e7edf8" stroke-width="2.6" stroke-linejoin="round" stroke-linecap="round"/>
<path d="M 759.2,273.3 C 774.5,322.0 701.5,374.6 679.8,400.9 C 658.2,427.2 641.2,417.4 629.1,431.0 C 617.0,444.5 623.0,459.3 607.3,482.1 C 591.5,504.9 557.0,536.2 534.5,567.7 C 512.0,599.2 491.4,613.9 472.4,671.0 C 453.3,728.0 434.4,879.9 420.3,910.0 C 406.1,940.1 391.9,883.9 387.7,851.7 C 383.5,819.5 397.9,796.2 395.1,716.9 C 392.3,637.5 370.5,460.5 370.8,375.7 C 371.2,290.9 390.1,247.2 396.9,208.0 C 403.7,168.9 397.5,160.5 411.8,140.8 C 426.0,121.1 453.0,95.3 482.3,90.0 C 511.6,84.7 541.5,78.1 587.6,108.7 C 633.8,139.2 743.8,224.6 759.2,273.3 Z" fill="none" stroke="#ff5a36" stroke-opacity="0.55" stroke-width="1.2" stroke-linejoin="round" filter="url(#glow)"/>
<circle cx="623.7" cy="131.8" r="13" fill="none" stroke="#ffffff" stroke-width="3"/>
<rect x="619.7" y="109.8" width="8" height="18" fill="#ffffff"/>
<circle cx="759.2" cy="273.3" r="7" fill="#ff5a36" stroke="#0a0c12" stroke-width="2.5" filter="url(#glow)"/>
<text x="759.2" y="276.7" font-size="9" font-weight="700" fill="#0a0c12" text-anchor="middle">1</text>
<circle cx="679.8" cy="400.9" r="7" fill="#ff5a36" stroke="#0a0c12" stroke-width="2.5" filter="url(#glow)"/>
<text x="679.8" y="404.3" font-size="9" font-weight="700" fill="#0a0c12" text-anchor="middle">2</text>
<circle cx="629.1" cy="431.0" r="7" fill="#ff5a36" stroke="#0a0c12" stroke-width="2.5" filter="url(#glow)"/>
<text x="629.1" y="434.4" font-size="9" font-weight="700" fill="#0a0c12" text-anchor="middle">3</text>
<circle cx="607.3" cy="482.1" r="7" fill="#ff5a36" stroke="#0a0c12" stroke-width="2.5" filter="url(#glow)"/>
<text x="607.3" y="485.5" font-size="9" font-weight="700" fill="#0a0c12" text-anchor="middle">4</text>
<circle cx="534.5" cy="567.7" r="7" fill="#ff5a36" stroke="#0a0c12" stroke-width="2.5" filter="url(#glow)"/>
<text x="534.5" y="571.1" font-size="9" font-weight="700" fill="#0a0c12" text-anchor="middle">5</text>
<circle cx="472.4" cy="671.0" r="7" fill="#ff5a36" stroke="#0a0c12" stroke-width="2.5" filter="url(#glow)"/>
<text x="472.4" y="674.4" font-size="9" font-weight="700" fill="#0a0c12" text-anchor="middle">6</text>
<circle cx="420.3" cy="910.0" r="7" fill="#ff5a36" stroke="#0a0c12" stroke-width="2.5" filter="url(#glow)"/>
<text x="420.3" y="913.4" font-size="9" font-weight="700" fill="#0a0c12" text-anchor="middle">7</text>
<circle cx="387.7" cy="851.7" r="7" fill="#ff5a36" stroke="#0a0c12" stroke-width="2.5" filter="url(#glow)"/>
<text x="387.7" y="855.1" font-size="9" font-weight="700" fill="#0a0c12" text-anchor="middle">8</text>
<circle cx="395.1" cy="716.9" r="7" fill="#ff5a36" stroke="#0a0c12" stroke-width="2.5" filter="url(#glow)"/>
<text x="395.1" y="720.3" font-size="9" font-weight="700" fill="#0a0c12" text-anchor="middle">9</text>
<circle cx="370.8" cy="375.7" r="7" fill="#ff5a36" stroke="#0a0c12" stroke-width="2.5" filter="url(#glow)"/>
<text x="370.8" y="379.1" font-size="9" font-weight="700" fill="#0a0c12" text-anchor="middle">10</text>
<circle cx="396.9" cy="208.0" r="7" fill="#ff5a36" stroke="#0a0c12" stroke-width="2.5" filter="url(#glow)"/>
<text x="396.9" y="211.4" font-size="9" font-weight="700" fill="#0a0c12" text-anchor="middle">11</text>
<circle cx="411.8" cy="140.8" r="7" fill="#ff5a36" stroke="#0a0c12" stroke-width="2.5" filter="url(#glow)"/>
<text x="411.8" y="144.2" font-size="9" font-weight="700" fill="#0a0c12" text-anchor="middle">12</text>
<circle cx="482.3" cy="90.0" r="7" fill="#ff5a36" stroke="#0a0c12" stroke-width="2.5" filter="url(#glow)"/>
<text x="482.3" y="93.4" font-size="9" font-weight="700" fill="#0a0c12" text-anchor="middle">13</text>
<circle cx="587.6" cy="108.7" r="7" fill="#ff5a36" stroke="#0a0c12" stroke-width="2.5" filter="url(#glow)"/>
<text x="587.6" y="112.1" font-size="9" font-weight="700" fill="#0a0c12" text-anchor="middle">14</text>
<line x1="759.2" y1="273.3" x2="802.0" y2="243.8" stroke="#ff5a36" stroke-opacity="0.45" stroke-width="1.3"/>
<text x="810.0" y="247.8" font-size="15" font-weight="600" fill="#eef2fb" text-anchor="start">Turn 1</text>
<line x1="679.8" y1="400.9" x2="730.2" y2="387.9" stroke="#ff5a36" stroke-opacity="0.45" stroke-width="1.3"/>
<text x="738.2" y="391.9" font-size="15" font-weight="600" fill="#eef2fb" text-anchor="start">Turn 2</text>
<line x1="629.1" y1="431.0" x2="680.7" y2="424.9" stroke="#ff5a36" stroke-opacity="0.45" stroke-width="1.3"/>
<text x="688.7" y="428.9" font-size="15" font-weight="600" fill="#eef2fb" text-anchor="start">Turn 3</text>
<line x1="607.3" y1="482.1" x2="655.9" y2="500.7" stroke="#ff5a36" stroke-opacity="0.45" stroke-width="1.3"/>
<text x="663.9" y="504.7" font-size="15" font-weight="600" fill="#eef2fb" text-anchor="start">Turn 4</text>
<line x1="534.5" y1="567.7" x2="544.8" y2="618.6" stroke="#ff5a36" stroke-opacity="0.45" stroke-width="1.3"/>
<text x="552.8" y="622.6" font-size="15" font-weight="600" fill="#eef2fb" text-anchor="start">The Esses</text>
<line x1="472.4" y1="671.0" x2="463.9" y2="722.3" stroke="#ff5a36" stroke-opacity="0.45" stroke-width="1.3"/>
<text x="455.9" y="726.3" font-size="15" font-weight="600" fill="#eef2fb" text-anchor="end">Turn 5</text>
<line x1="420.3" y1="910.0" x2="410.5" y2="961.1" stroke="#ff5a36" stroke-opacity="0.45" stroke-width="1.3"/>
<text x="402.5" y="965.1" font-size="15" font-weight="600" fill="#eef2fb" text-anchor="end">Turn 6</text>
<line x1="387.7" y1="851.7" x2="372.7" y2="901.5" stroke="#ff5a36" stroke-opacity="0.45" stroke-width="1.3"/>
<text x="364.7" y="905.5" font-size="15" font-weight="600" fill="#eef2fb" text-anchor="end">Turn 7</text>
<line x1="395.1" y1="716.9" x2="374.9" y2="764.8" stroke="#ff5a36" stroke-opacity="0.45" stroke-width="1.3"/>
<text x="366.9" y="768.8" font-size="15" font-weight="600" fill="#eef2fb" text-anchor="end">Turn 8</text>
<line x1="370.8" y1="375.7" x2="324.3" y2="352.6" stroke="#ff5a36" stroke-opacity="0.45" stroke-width="1.3"/>
<text x="316.3" y="356.6" font-size="15" font-weight="600" fill="#eef2fb" text-anchor="end">Turn 9</text>
<line x1="396.9" y1="208.0" x2="374.5" y2="222.0" stroke="#ff5a36" stroke-opacity="0.45" stroke-width="1.3"/>
<text x="366.5" y="226.0" font-size="15" font-weight="600" fill="#eef2fb" text-anchor="end">Turn 10A</text>
<line x1="411.8" y1="140.8" x2="395.8" y2="192.0" stroke="#ff5a36" stroke-opacity="0.45" stroke-width="1.3"/>
<text x="387.8" y="196.0" font-size="15" font-weight="600" fill="#eef2fb" text-anchor="end">Turn 10B</text>
<line x1="482.3" y1="90.0" x2="478.3" y2="162.0" stroke="#ff5a36" stroke-opacity="0.45" stroke-width="1.3"/>
<text x="470.3" y="166.0" font-size="15" font-weight="600" fill="#eef2fb" text-anchor="end">Turn 11</text>
<line x1="587.6" y1="108.7" x2="599.4" y2="58.0" stroke="#ff5a36" stroke-opacity="0.45" stroke-width="1.3"/>
<text x="607.4" y="62.0" font-size="15" font-weight="600" fill="#eef2fb" text-anchor="start">Turn 12</text>
<text x="90" y="64" font-size="20" letter-spacing="5" fill="#ff5a36" font-weight="700">TRACK ATLAS</text>
<text x="90" y="108" font-size="42" font-weight="800" fill="#ffffff">MICHELIN RACEWAY ROAD ATLANTA</text>
<text x="90" y="136" font-size="16" fill="#9aa6bd">Road Atlanta</text>
<rect x="1170" y="200" width="360" height="710" rx="16" fill="#ffffff" fill-opacity="0.04" stroke="#ff5a36" stroke-opacity="0.5"/>
<text x="1198" y="250" font-size="13" letter-spacing="2" fill="#8794ab">LAYOUT</text>
<text x="1198" y="276" font-size="22" font-weight="700" fill="#eef2fb">Full Course</text>
<text x="1198" y="320" font-size="13" letter-spacing="2" fill="#8794ab">LENGTH</text>
<text x="1198" y="346" font-size="22" font-weight="700" fill="#eef2fb">4.088 km</text>
<text x="1198" y="390" font-size="13" letter-spacing="2" fill="#8794ab">CORNERS</text>
<text x="1198" y="416" font-size="22" font-weight="700" fill="#eef2fb">14</text>
<text x="1198" y="460" font-size="13" letter-spacing="2" fill="#8794ab">NAMED CORNERS</text>
<text x="1198" y="486" font-size="22" font-weight="700" fill="#eef2fb">14</text>
<text x="1198" y="530" font-size="13" letter-spacing="2" fill="#8794ab">DIRECTION</text>
<text x="1198" y="556" font-size="22" font-weight="700" fill="#eef2fb">Clockwise</text>
<text x="1198" y="600" font-size="13" letter-spacing="2" fill="#8794ab">SECTORS</text>
<text x="1198" y="626" font-size="22" font-weight="700" fill="#eef2fb">4</text>
<text x="1198" y="670" font-size="13" letter-spacing="2" fill="#8794ab">COUNTRY</text>
<text x="1198" y="696" font-size="22" font-weight="700" fill="#eef2fb">USA</text>
<text x="1198" y="740" font-size="13" letter-spacing="2" fill="#8794ab">LOCATION</text>
<text x="1198" y="766" font-size="22" font-weight="700" fill="#eef2fb">Braselton, Georgia</text>
<text x="90" y="966" font-size="12" fill="#566177">Geometry © OpenStreetMap contributors (ODbL) · corner data: Lovely-Sim-Racing + curated · track-atlas</text>
<text x="90" y="942" font-size="12" fill="#8794ab">⚑ start / finish</text>
</svg>