<svg xmlns="http://www.w3.org/2000/svg" width="1600" height="1000" viewBox="0 0 1600 1000" font-family="Helvetica, Arial, sans-serif">
<defs>
      <radialGradient id="bg" cx="38%" cy="34%" r="85%">
        <stop offset="0%" stop-color="#1b2030"/>
        <stop offset="55%" stop-color="#12151f"/>
        <stop offset="100%" stop-color="#0a0c12"/>
      </radialGradient>
      <linearGradient id="accent" x1="0" y1="0" x2="1" y2="1">
        <stop offset="0%" stop-color="#ff5a36"/>
        <stop offset="100%" stop-color="#ffffff"/>
      </linearGradient>
      <filter id="glow" x="-40%" y="-40%" width="180%" height="180%">
        <feGaussianBlur stdDeviation="6" result="b"/>
        <feMerge><feMergeNode in="b"/><feMergeNode in="SourceGraphic"/></feMerge>
      </filter>
    </defs>
<rect width="1600" height="1000" fill="url(#bg)"/>
<line x1="0" y1="0" x2="0" y2="1000" stroke="#ffffff" stroke-opacity="0.025"/>
<line x1="56" y1="0" x2="56" y2="1000" stroke="#ffffff" stroke-opacity="0.025"/>
<line x1="112" y1="0" x2="112" y2="1000" stroke="#ffffff" stroke-opacity="0.025"/>
<line x1="168" y1="0" x2="168" y2="1000" stroke="#ffffff" stroke-opacity="0.025"/>
<line x1="224" y1="0" x2="224" y2="1000" stroke="#ffffff" stroke-opacity="0.025"/>
<line x1="280" y1="0" x2="280" y2="1000" stroke="#ffffff" stroke-opacity="0.025"/>
<line x1="336" y1="0" x2="336" y2="1000" stroke="#ffffff" stroke-opacity="0.025"/>
<line x1="392" y1="0" x2="392" y2="1000" stroke="#ffffff" stroke-opacity="0.025"/>
<line x1="448" y1="0" x2="448" y2="1000" stroke="#ffffff" stroke-opacity="0.025"/>
<line x1="504" y1="0" x2="504" y2="1000" stroke="#ffffff" stroke-opacity="0.025"/>
<line x1="560" y1="0" x2="560" y2="1000" stroke="#ffffff" stroke-opacity="0.025"/>
<line x1="616" y1="0" x2="616" y2="1000" stroke="#ffffff" stroke-opacity="0.025"/>
<line x1="672" y1="0" x2="672" y2="1000" stroke="#ffffff" stroke-opacity="0.025"/>
<line x1="728" y1="0" x2="728" y2="1000" stroke="#ffffff" stroke-opacity="0.025"/>
<line x1="784" y1="0" x2="784" y2="1000" stroke="#ffffff" stroke-opacity="0.025"/>
<line x1="840" y1="0" x2="840" y2="1000" stroke="#ffffff" stroke-opacity="0.025"/>
<line x1="896" y1="0" x2="896" y2="1000" stroke="#ffffff" stroke-opacity="0.025"/>
<line x1="952" y1="0" x2="952" y2="1000" stroke="#ffffff" stroke-opacity="0.025"/>
<line x1="1008" y1="0" x2="1008" y2="1000" stroke="#ffffff" stroke-opacity="0.025"/>
<line x1="1064" y1="0" x2="1064" y2="1000" stroke="#ffffff" stroke-opacity="0.025"/>
<line x1="1120" y1="0" x2="1120" y2="1000" stroke="#ffffff" stroke-opacity="0.025"/>
<line x1="1176" y1="0" x2="1176" y2="1000" stroke="#ffffff" stroke-opacity="0.025"/>
<line x1="1232" y1="0" x2="1232" y2="1000" stroke="#ffffff" stroke-opacity="0.025"/>
<line x1="1288" y1="0" x2="1288" y2="1000" stroke="#ffffff" stroke-opacity="0.025"/>
<line x1="1344" y1="0" x2="1344" y2="1000" stroke="#ffffff" stroke-opacity="0.025"/>
<line x1="1400" y1="0" x2="1400" y2="1000" stroke="#ffffff" stroke-opacity="0.025"/>
<line x1="1456" y1="0" x2="1456" y2="1000" stroke="#ffffff" stroke-opacity="0.025"/>
<line x1="1512" y1="0" x2="1512" y2="1000" stroke="#ffffff" stroke-opacity="0.025"/>
<line x1="1568" y1="0" x2="1568" y2="1000" stroke="#ffffff" stroke-opacity="0.025"/>
<line x1="0" y1="0" x2="1600" y2="0" stroke="#ffffff" stroke-opacity="0.025"/>
<line x1="0" y1="56" x2="1600" y2="56" stroke="#ffffff" stroke-opacity="0.025"/>
<line x1="0" y1="112" x2="1600" y2="112" stroke="#ffffff" stroke-opacity="0.025"/>
<line x1="0" y1="168" x2="1600" y2="168" stroke="#ffffff" stroke-opacity="0.025"/>
<line x1="0" y1="224" x2="1600" y2="224" stroke="#ffffff" stroke-opacity="0.025"/>
<line x1="0" y1="280" x2="1600" y2="280" stroke="#ffffff" stroke-opacity="0.025"/>
<line x1="0" y1="336" x2="1600" y2="336" stroke="#ffffff" stroke-opacity="0.025"/>
<line x1="0" y1="392" x2="1600" y2="392" stroke="#ffffff" stroke-opacity="0.025"/>
<line x1="0" y1="448" x2="1600" y2="448" stroke="#ffffff" stroke-opacity="0.025"/>
<line x1="0" y1="504" x2="1600" y2="504" stroke="#ffffff" stroke-opacity="0.025"/>
<line x1="0" y1="560" x2="1600" y2="560" stroke="#ffffff" stroke-opacity="0.025"/>
<line x1="0" y1="616" x2="1600" y2="616" stroke="#ffffff" stroke-opacity="0.025"/>
<line x1="0" y1="672" x2="1600" y2="672" stroke="#ffffff" stroke-opacity="0.025"/>
<line x1="0" y1="728" x2="1600" y2="728" stroke="#ffffff" stroke-opacity="0.025"/>
<line x1="0" y1="784" x2="1600" y2="784" stroke="#ffffff" stroke-opacity="0.025"/>
<line x1="0" y1="840" x2="1600" y2="840" stroke="#ffffff" stroke-opacity="0.025"/>
<line x1="0" y1="896" x2="1600" y2="896" stroke="#ffffff" stroke-opacity="0.025"/>
<line x1="0" y1="952" x2="1600" y2="952" stroke="#ffffff" stroke-opacity="0.025"/>
<path d="M 760.3,288.7 C 770.8,341.4 678.7,384.4 655.2,414.5 C 631.7,444.5 624.7,460.3 619.2,469.0 C 613.7,477.6 635.0,450.4 622.3,466.4 C 609.5,482.4 554.8,550.3 542.9,565.0 C 530.9,579.7 561.4,510.4 550.5,554.7 C 539.6,599.0 495.9,771.4 477.7,830.6 C 459.5,889.9 454.1,913.7 441.5,910.0 C 428.9,906.3 414.2,889.4 402.3,808.7 C 390.3,727.9 367.5,522.1 369.7,425.7 C 371.9,329.2 409.5,274.7 415.5,230.0 C 421.6,185.3 396.3,180.8 406.2,157.5 C 416.0,134.1 443.5,99.8 474.6,90.0 C 505.6,80.2 545.0,65.3 592.6,98.4 C 640.2,131.6 749.9,236.1 760.3,288.7 Z" fill="none" stroke="#000000" stroke-opacity="0.5" stroke-width="13" stroke-linejoin="round" stroke-linecap="round"/>
<path d="M 760.3,288.7 C 770.8,341.4 678.7,384.4 655.2,414.5 C 631.7,444.5 624.7,460.3 619.2,469.0 C 613.7,477.6 635.0,450.4 622.3,466.4 C 609.5,482.4 554.8,550.3 542.9,565.0 C 530.9,579.7 561.4,510.4 550.5,554.7 C 539.6,599.0 495.9,771.4 477.7,830.6 C 459.5,889.9 454.1,913.7 441.5,910.0 C 428.9,906.3 414.2,889.4 402.3,808.7 C 390.3,727.9 367.5,522.1 369.7,425.7 C 371.9,329.2 409.5,274.7 415.5,230.0 C 421.6,185.3 396.3,180.8 406.2,157.5 C 416.0,134.1 443.5,99.8 474.6,90.0 C 505.6,80.2 545.0,65.3 592.6,98.4 C 640.2,131.6 749.9,236.1 760.3,288.7 Z" fill="none" stroke="#39404f" stroke-width="8.5" stroke-linejoin="round" stroke-linecap="round"/>
<path d="M 760.3,288.7 C 770.8,341.4 678.7,384.4 655.2,414.5 C 631.7,444.5 624.7,460.3 619.2,469.0 C 613.7,477.6 635.0,450.4 622.3,466.4 C 609.5,482.4 554.8,550.3 542.9,565.0 C 530.9,579.7 561.4,510.4 550.5,554.7 C 539.6,599.0 495.9,771.4 477.7,830.6 C 459.5,889.9 454.1,913.7 441.5,910.0 C 428.9,906.3 414.2,889.4 402.3,808.7 C 390.3,727.9 367.5,522.1 369.7,425.7 C 371.9,329.2 409.5,274.7 415.5,230.0 C 421.6,185.3 396.3,180.8 406.2,157.5 C 416.0,134.1 443.5,99.8 474.6,90.0 C 505.6,80.2 545.0,65.3 592.6,98.4 C 640.2,131.6 749.9,236.1 760.3,288.7 Z" fill="none" stroke="#e7edf8" stroke-width="2.6" stroke-linejoin="round" stroke-linecap="round"/>
<path d="M 760.3,288.7 C 770.8,341.4 678.7,384.4 655.2,414.5 C 631.7,444.5 624.7,460.3 619.2,469.0 C 613.7,477.6 635.0,450.4 622.3,466.4 C 609.5,482.4 554.8,550.3 542.9,565.0 C 530.9,579.7 561.4,510.4 550.5,554.7 C 539.6,599.0 495.9,771.4 477.7,830.6 C 459.5,889.9 454.1,913.7 441.5,910.0 C 428.9,906.3 414.2,889.4 402.3,808.7 C 390.3,727.9 367.5,522.1 369.7,425.7 C 371.9,329.2 409.5,274.7 415.5,230.0 C 421.6,185.3 396.3,180.8 406.2,157.5 C 416.0,134.1 443.5,99.8 474.6,90.0 C 505.6,80.2 545.0,65.3 592.6,98.4 C 640.2,131.6 749.9,236.1 760.3,288.7 Z" fill="none" stroke="#ff5a36" stroke-opacity="0.55" stroke-width="1.2" stroke-linejoin="round" filter="url(#glow)"/>
<circle cx="633.0" cy="124.3" r="13" fill="none" stroke="#ffffff" stroke-width="3"/>
<rect x="629.0" y="102.3" width="8" height="18" fill="#ffffff"/>
<circle cx="760.3" cy="288.7" r="7" fill="#ff5a36" stroke="#0a0c12" stroke-width="2.5" filter="url(#glow)"/>
<text x="760.3" y="292.1" font-size="9" font-weight="700" fill="#0a0c12" text-anchor="middle">1</text>
<circle cx="655.2" cy="414.5" r="7" fill="#ff5a36" stroke="#0a0c12" stroke-width="2.5" filter="url(#glow)"/>
<text x="655.2" y="417.9" font-size="9" font-weight="700" fill="#0a0c12" text-anchor="middle">2</text>
<circle cx="619.2" cy="469.0" r="7" fill="#ff5a36" stroke="#0a0c12" stroke-width="2.5" filter="url(#glow)"/>
<text x="619.2" y="472.4" font-size="9" font-weight="700" fill="#0a0c12" text-anchor="middle">3</text>
<circle cx="622.3" cy="466.4" r="7" fill="#ff5a36" stroke="#0a0c12" stroke-width="2.5" filter="url(#glow)"/>
<text x="622.3" y="469.8" font-size="9" font-weight="700" fill="#0a0c12" text-anchor="middle">4</text>
<circle cx="542.9" cy="565.0" r="7" fill="#ff5a36" stroke="#0a0c12" stroke-width="2.5" filter="url(#glow)"/>
<text x="542.9" y="568.4" font-size="9" font-weight="700" fill="#0a0c12" text-anchor="middle">5</text>
<circle cx="550.5" cy="554.7" r="7" fill="#ff5a36" stroke="#0a0c12" stroke-width="2.5" filter="url(#glow)"/>
<text x="550.5" y="558.1" font-size="9" font-weight="700" fill="#0a0c12" text-anchor="middle">6</text>
<circle cx="477.7" cy="830.6" r="7" fill="#ff5a36" stroke="#0a0c12" stroke-width="2.5" filter="url(#glow)"/>
<text x="477.7" y="834.0" font-size="9" font-weight="700" fill="#0a0c12" text-anchor="middle">7</text>
<circle cx="441.5" cy="910.0" r="7" fill="#ff5a36" stroke="#0a0c12" stroke-width="2.5" filter="url(#glow)"/>
<text x="441.5" y="913.4" font-size="9" font-weight="700" fill="#0a0c12" text-anchor="middle">8</text>
<circle cx="402.3" cy="808.7" r="7" fill="#ff5a36" stroke="#0a0c12" stroke-width="2.5" filter="url(#glow)"/>
<text x="402.3" y="812.1" font-size="9" font-weight="700" fill="#0a0c12" text-anchor="middle">9</text>
<circle cx="369.7" cy="425.7" r="7" fill="#ff5a36" stroke="#0a0c12" stroke-width="2.5" filter="url(#glow)"/>
<text x="369.7" y="429.1" font-size="9" font-weight="700" fill="#0a0c12" text-anchor="middle">10</text>
<circle cx="415.5" cy="230.0" r="7" fill="#ff5a36" stroke="#0a0c12" stroke-width="2.5" filter="url(#glow)"/>
<text x="415.5" y="233.4" font-size="9" font-weight="700" fill="#0a0c12" text-anchor="middle">11</text>
<circle cx="406.2" cy="157.5" r="7" fill="#ff5a36" stroke="#0a0c12" stroke-width="2.5" filter="url(#glow)"/>
<text x="406.2" y="160.9" font-size="9" font-weight="700" fill="#0a0c12" text-anchor="middle">12</text>
<circle cx="474.6" cy="90.0" r="7" fill="#ff5a36" stroke="#0a0c12" stroke-width="2.5" filter="url(#glow)"/>
<text x="474.6" y="93.4" font-size="9" font-weight="700" fill="#0a0c12" text-anchor="middle">13</text>
<circle cx="592.6" cy="98.4" r="7" fill="#ff5a36" stroke="#0a0c12" stroke-width="2.5" filter="url(#glow)"/>
<text x="592.6" y="101.8" font-size="9" font-weight="700" fill="#0a0c12" text-anchor="middle">14</text>
<line x1="760.3" y1="288.7" x2="803.2" y2="259.4" stroke="#ff5a36" stroke-opacity="0.45" stroke-width="1.3"/>
<text x="811.2" y="263.4" font-size="15" font-weight="600" fill="#eef2fb" text-anchor="start">Turn 1</text>
<line x1="655.2" y1="414.5" x2="705.3" y2="400.7" stroke="#ff5a36" stroke-opacity="0.45" stroke-width="1.3"/>
<text x="713.3" y="404.7" font-size="15" font-weight="600" fill="#eef2fb" text-anchor="start">Turn 2</text>
<line x1="619.2" y1="469.0" x2="670.3" y2="504.7" stroke="#ff5a36" stroke-opacity="0.45" stroke-width="1.3"/>
<text x="678.3" y="508.7" font-size="15" font-weight="600" fill="#eef2fb" text-anchor="start">Turn 3</text>
<line x1="622.3" y1="466.4" x2="673.6" y2="474.7" stroke="#ff5a36" stroke-opacity="0.45" stroke-width="1.3"/>
<text x="681.6" y="478.7" font-size="15" font-weight="600" fill="#eef2fb" text-anchor="start">Turn 4</text>
<line x1="542.9" y1="565.0" x2="551.5" y2="635.0" stroke="#ff5a36" stroke-opacity="0.45" stroke-width="1.3"/>
<text x="559.5" y="639.0" font-size="15" font-weight="600" fill="#eef2fb" text-anchor="start">The Esses</text>
<line x1="550.5" y1="554.7" x2="563.5" y2="605.0" stroke="#ff5a36" stroke-opacity="0.45" stroke-width="1.3"/>
<text x="571.5" y="609.0" font-size="15" font-weight="600" fill="#eef2fb" text-anchor="start">Turn 5</text>
<line x1="477.7" y1="830.6" x2="471.5" y2="887.9" stroke="#ff5a36" stroke-opacity="0.45" stroke-width="1.3"/>
<text x="463.5" y="891.9" font-size="15" font-weight="600" fill="#eef2fb" text-anchor="end">Turn 6</text>
<line x1="441.5" y1="910.0" x2="432.3" y2="961.2" stroke="#ff5a36" stroke-opacity="0.45" stroke-width="1.3"/>
<text x="424.3" y="965.2" font-size="15" font-weight="600" fill="#eef2fb" text-anchor="end">Turn 7</text>
<line x1="402.3" y1="808.7" x2="385.6" y2="857.9" stroke="#ff5a36" stroke-opacity="0.45" stroke-width="1.3"/>
<text x="377.6" y="861.9" font-size="15" font-weight="600" fill="#eef2fb" text-anchor="end">Turn 8</text>
<line x1="369.7" y1="425.7" x2="318.4" y2="417.3" stroke="#ff5a36" stroke-opacity="0.45" stroke-width="1.3"/>
<text x="310.4" y="421.3" font-size="15" font-weight="600" fill="#eef2fb" text-anchor="end">Turn 9</text>
<line x1="415.5" y1="230.0" x2="392.7" y2="222.0" stroke="#ff5a36" stroke-opacity="0.45" stroke-width="1.3"/>
<text x="384.7" y="226.0" font-size="15" font-weight="600" fill="#eef2fb" text-anchor="end">Turn 10A</text>
<line x1="406.2" y1="157.5" x2="386.8" y2="192.0" stroke="#ff5a36" stroke-opacity="0.45" stroke-width="1.3"/>
<text x="378.8" y="196.0" font-size="15" font-weight="600" fill="#eef2fb" text-anchor="end">Turn 10B</text>
<line x1="474.6" y1="90.0" x2="467.6" y2="162.0" stroke="#ff5a36" stroke-opacity="0.45" stroke-width="1.3"/>
<text x="459.6" y="166.0" font-size="15" font-weight="600" fill="#eef2fb" text-anchor="end">Turn 11</text>
<line x1="592.6" y1="98.4" x2="602.6" y2="47.4" stroke="#ff5a36" stroke-opacity="0.45" stroke-width="1.3"/>
<text x="610.6" y="51.4" font-size="15" font-weight="600" fill="#eef2fb" text-anchor="start">Turn 12</text>
<text x="90" y="64" font-size="20" letter-spacing="5" fill="#ff5a36" font-weight="700">TRACK ATLAS</text>
<text x="90" y="108" font-size="42" font-weight="800" fill="#ffffff">MICHELIN RACEWAY ROAD ATLANTA</text>
<text x="90" y="136" font-size="16" fill="#9aa6bd">Road Atlanta</text>
<rect x="1170" y="200" width="360" height="710" rx="16" fill="#ffffff" fill-opacity="0.04" stroke="#ff5a36" stroke-opacity="0.5"/>
<text x="1198" y="250" font-size="13" letter-spacing="2" fill="#8794ab">LAYOUT</text>
<text x="1198" y="276" font-size="22" font-weight="700" fill="#eef2fb">Full Course</text>
<text x="1198" y="320" font-size="13" letter-spacing="2" fill="#8794ab">LENGTH</text>
<text x="1198" y="346" font-size="22" font-weight="700" fill="#eef2fb">4.088 km</text>
<text x="1198" y="390" font-size="13" letter-spacing="2" fill="#8794ab">CORNERS</text>
<text x="1198" y="416" font-size="22" font-weight="700" fill="#eef2fb">14</text>
<text x="1198" y="460" font-size="13" letter-spacing="2" fill="#8794ab">NAMED CORNERS</text>
<text x="1198" y="486" font-size="22" font-weight="700" fill="#eef2fb">14</text>
<text x="1198" y="530" font-size="13" letter-spacing="2" fill="#8794ab">DIRECTION</text>
<text x="1198" y="556" font-size="22" font-weight="700" fill="#eef2fb">Clockwise</text>
<text x="1198" y="600" font-size="13" letter-spacing="2" fill="#8794ab">SECTORS</text>
<text x="1198" y="626" font-size="22" font-weight="700" fill="#eef2fb">4</text>
<text x="1198" y="670" font-size="13" letter-spacing="2" fill="#8794ab">COUNTRY</text>
<text x="1198" y="696" font-size="22" font-weight="700" fill="#eef2fb">USA</text>
<text x="1198" y="740" font-size="13" letter-spacing="2" fill="#8794ab">LOCATION</text>
<text x="1198" y="766" font-size="22" font-weight="700" fill="#eef2fb">Braselton, Georgia</text>
<text x="90" y="966" font-size="12" fill="#566177">Geometry © OpenStreetMap contributors (ODbL) · corner data: Lovely-Sim-Racing + curated · track-atlas</text>
<text x="90" y="942" font-size="12" fill="#8794ab">⚑ start / finish</text>
</svg>