<svg xmlns="http://www.w3.org/2000/svg" width="1600" height="1000" viewBox="0 0 1600 1000" font-family="Helvetica, Arial, sans-serif">
<defs>
      <radialGradient id="bg" cx="38%" cy="34%" r="85%">
        <stop offset="0%" stop-color="#1b2030"/>
        <stop offset="55%" stop-color="#12151f"/>
        <stop offset="100%" stop-color="#0a0c12"/>
      </radialGradient>
      <linearGradient id="accent" x1="0" y1="0" x2="1" y2="1">
        <stop offset="0%" stop-color="#ff5a36"/>
        <stop offset="100%" stop-color="#ffffff"/>
      </linearGradient>
      <filter id="glow" x="-40%" y="-40%" width="180%" height="180%">
        <feGaussianBlur stdDeviation="6" result="b"/>
        <feMerge><feMergeNode in="b"/><feMergeNode in="SourceGraphic"/></feMerge>
      </filter>
    </defs>
<rect width="1600" height="1000" fill="url(#bg)"/>
<line x1="0" y1="0" x2="0" y2="1000" stroke="#ffffff" stroke-opacity="0.025"/>
<line x1="56" y1="0" x2="56" y2="1000" stroke="#ffffff" stroke-opacity="0.025"/>
<line x1="112" y1="0" x2="112" y2="1000" stroke="#ffffff" stroke-opacity="0.025"/>
<line x1="168" y1="0" x2="168" y2="1000" stroke="#ffffff" stroke-opacity="0.025"/>
<line x1="224" y1="0" x2="224" y2="1000" stroke="#ffffff" stroke-opacity="0.025"/>
<line x1="280" y1="0" x2="280" y2="1000" stroke="#ffffff" stroke-opacity="0.025"/>
<line x1="336" y1="0" x2="336" y2="1000" stroke="#ffffff" stroke-opacity="0.025"/>
<line x1="392" y1="0" x2="392" y2="1000" stroke="#ffffff" stroke-opacity="0.025"/>
<line x1="448" y1="0" x2="448" y2="1000" stroke="#ffffff" stroke-opacity="0.025"/>
<line x1="504" y1="0" x2="504" y2="1000" stroke="#ffffff" stroke-opacity="0.025"/>
<line x1="560" y1="0" x2="560" y2="1000" stroke="#ffffff" stroke-opacity="0.025"/>
<line x1="616" y1="0" x2="616" y2="1000" stroke="#ffffff" stroke-opacity="0.025"/>
<line x1="672" y1="0" x2="672" y2="1000" stroke="#ffffff" stroke-opacity="0.025"/>
<line x1="728" y1="0" x2="728" y2="1000" stroke="#ffffff" stroke-opacity="0.025"/>
<line x1="784" y1="0" x2="784" y2="1000" stroke="#ffffff" stroke-opacity="0.025"/>
<line x1="840" y1="0" x2="840" y2="1000" stroke="#ffffff" stroke-opacity="0.025"/>
<line x1="896" y1="0" x2="896" y2="1000" stroke="#ffffff" stroke-opacity="0.025"/>
<line x1="952" y1="0" x2="952" y2="1000" stroke="#ffffff" stroke-opacity="0.025"/>
<line x1="1008" y1="0" x2="1008" y2="1000" stroke="#ffffff" stroke-opacity="0.025"/>
<line x1="1064" y1="0" x2="1064" y2="1000" stroke="#ffffff" stroke-opacity="0.025"/>
<line x1="1120" y1="0" x2="1120" y2="1000" stroke="#ffffff" stroke-opacity="0.025"/>
<line x1="1176" y1="0" x2="1176" y2="1000" stroke="#ffffff" stroke-opacity="0.025"/>
<line x1="1232" y1="0" x2="1232" y2="1000" stroke="#ffffff" stroke-opacity="0.025"/>
<line x1="1288" y1="0" x2="1288" y2="1000" stroke="#ffffff" stroke-opacity="0.025"/>
<line x1="1344" y1="0" x2="1344" y2="1000" stroke="#ffffff" stroke-opacity="0.025"/>
<line x1="1400" y1="0" x2="1400" y2="1000" stroke="#ffffff" stroke-opacity="0.025"/>
<line x1="1456" y1="0" x2="1456" y2="1000" stroke="#ffffff" stroke-opacity="0.025"/>
<line x1="1512" y1="0" x2="1512" y2="1000" stroke="#ffffff" stroke-opacity="0.025"/>
<line x1="1568" y1="0" x2="1568" y2="1000" stroke="#ffffff" stroke-opacity="0.025"/>
<line x1="0" y1="0" x2="1600" y2="0" stroke="#ffffff" stroke-opacity="0.025"/>
<line x1="0" y1="56" x2="1600" y2="56" stroke="#ffffff" stroke-opacity="0.025"/>
<line x1="0" y1="112" x2="1600" y2="112" stroke="#ffffff" stroke-opacity="0.025"/>
<line x1="0" y1="168" x2="1600" y2="168" stroke="#ffffff" stroke-opacity="0.025"/>
<line x1="0" y1="224" x2="1600" y2="224" stroke="#ffffff" stroke-opacity="0.025"/>
<line x1="0" y1="280" x2="1600" y2="280" stroke="#ffffff" stroke-opacity="0.025"/>
<line x1="0" y1="336" x2="1600" y2="336" stroke="#ffffff" stroke-opacity="0.025"/>
<line x1="0" y1="392" x2="1600" y2="392" stroke="#ffffff" stroke-opacity="0.025"/>
<line x1="0" y1="448" x2="1600" y2="448" stroke="#ffffff" stroke-opacity="0.025"/>
<line x1="0" y1="504" x2="1600" y2="504" stroke="#ffffff" stroke-opacity="0.025"/>
<line x1="0" y1="560" x2="1600" y2="560" stroke="#ffffff" stroke-opacity="0.025"/>
<line x1="0" y1="616" x2="1600" y2="616" stroke="#ffffff" stroke-opacity="0.025"/>
<line x1="0" y1="672" x2="1600" y2="672" stroke="#ffffff" stroke-opacity="0.025"/>
<line x1="0" y1="728" x2="1600" y2="728" stroke="#ffffff" stroke-opacity="0.025"/>
<line x1="0" y1="784" x2="1600" y2="784" stroke="#ffffff" stroke-opacity="0.025"/>
<line x1="0" y1="840" x2="1600" y2="840" stroke="#ffffff" stroke-opacity="0.025"/>
<line x1="0" y1="896" x2="1600" y2="896" stroke="#ffffff" stroke-opacity="0.025"/>
<line x1="0" y1="952" x2="1600" y2="952" stroke="#ffffff" stroke-opacity="0.025"/>
<path d="M 429.5,443.6 L 423.6,461.6 L 420.3,473.8 L 415.9,490.4 L 411.2,506.7 L 372.3,623.6 L 372.0,625.0 L 372.0,626.3 L 372.4,627.7 L 373.1,628.8 L 374.1,629.8 L 375.3,630.5 L 376.6,630.8 L 378.0,630.8 L 399.3,627.3 L 400.6,627.2 L 402.0,627.5 L 403.2,627.9 L 404.4,628.6 L 405.3,629.4 L 405.9,630.5 L 406.3,631.8 L 406.6,633.3 L 412.4,654.5 L 414.1,661.9 L 418.9,678.1 L 423.7,695.3 L 426.4,700.9 L 429.8,706.6 L 436.5,717.3 L 444.5,727.8 L 455.3,739.1 L 463.4,746.8 L 476.6,757.8 L 510.2,783.6 L 554.7,819.0 L 572.7,832.4 L 585.6,842.2 L 593.7,847.7 L 612.9,860.1 L 624.0,866.4 L 640.4,874.3 L 715.6,907.7 L 718.2,908.6 L 721.1,909.3 L 724.8,909.9 L 726.9,910.0 L 729.5,909.8 L 732.9,909.5 L 736.7,908.6 L 740.3,907.0 L 744.0,904.7 L 746.1,903.0 L 749.0,900.3 L 750.8,898.0 L 753.2,894.0 L 754.8,890.9 L 756.1,887.0 L 757.1,883.3 L 757.9,877.0 L 758.0,872.7 L 757.5,867.9 L 756.4,862.7 L 755.0,858.6 L 752.6,854.0 L 750.1,850.6 L 747.4,847.4 L 746.1,845.9 L 743.8,844.0 L 740.0,841.3 L 736.9,839.3 L 733.3,837.7 L 728.3,836.0 L 723.2,835.1 L 718.3,834.6 L 704.6,833.6 L 640.8,829.2 L 634.4,828.4 L 630.4,828.1 L 627.3,827.6 L 623.5,826.6 L 621.4,826.0 L 619.0,824.9 L 574.6,796.5 L 572.4,794.6 L 570.7,792.8 L 568.5,789.8 L 566.6,786.6 L 564.7,781.4 L 553.7,732.4 L 553.6,731.2 L 553.8,730.2 L 554.3,728.9 L 554.9,728.2 L 555.9,727.6 L 558.1,727.1 L 597.2,721.7 L 599.2,721.1 L 601.7,720.2 L 603.9,718.9 L 605.8,717.2 L 607.3,715.3 L 609.1,712.3 L 609.9,710.6 L 610.4,709.1 L 610.8,706.3 L 610.8,688.9 L 610.1,675.4 L 609.9,672.0 L 609.6,670.3 L 608.9,668.2 L 608.2,666.5 L 606.9,664.2 L 606.0,662.9 L 605.4,662.2 L 604.5,661.4 L 602.6,660.4 L 601.5,660.0 L 600.2,659.4 L 598.5,658.9 L 596.6,658.4 L 593.0,657.8 L 588.8,657.4 L 584.0,657.1 L 579.5,657.1 L 575.6,657.1 L 567.8,657.8 L 494.5,668.4 L 490.2,668.8 L 484.3,668.8 L 480.6,668.5 L 474.9,667.2 L 471.0,665.9 L 466.3,664.2 L 463.8,662.7 L 460.9,659.9 L 439.6,622.7 L 427.3,602.1 L 426.4,600.3 L 425.4,597.3 L 424.5,593.5 L 423.6,588.0 L 423.3,583.8 L 423.2,581.9 L 423.2,580.4 L 423.3,578.9 L 423.5,577.4 L 423.9,575.7 L 424.5,573.9 L 425.1,572.7 L 426.2,571.1 L 427.4,569.9 L 428.7,569.1 L 430.5,568.5 L 434.6,567.6 L 485.1,560.4 L 497.8,558.5 L 550.0,551.0 L 675.3,533.1 L 677.4,532.5 L 679.3,531.8 L 681.3,530.5 L 683.4,528.5 L 685.2,526.2 L 687.0,523.2 L 688.1,520.4 L 688.5,518.2 L 688.6,515.9 L 688.5,513.6 L 687.8,509.8 L 673.0,448.6 L 668.8,430.5 L 668.0,426.6 L 667.0,423.1 L 666.1,420.7 L 665.0,418.3 L 663.8,416.7 L 662.3,414.9 L 659.3,412.0 L 655.7,409.5 L 651.9,407.6 L 647.8,406.2 L 618.5,396.8 L 613.4,394.9 L 609.3,393.0 L 606.0,391.1 L 602.6,388.9 L 599.3,386.5 L 596.0,383.8 L 592.4,380.5 L 590.2,378.3 L 587.6,375.3 L 584.8,371.8 L 582.2,368.2 L 577.9,362.1 L 576.3,357.7 L 575.4,353.7 L 574.2,347.1 L 574.0,344.2 L 573.8,342.0 L 573.8,336.1 L 574.7,329.8 L 575.8,324.3 L 579.1,312.5 L 583.2,298.1 L 584.6,292.6 L 586.7,284.3 L 588.3,275.7 L 589.4,266.9 L 589.5,265.3 L 590.1,258.1 L 590.4,249.3 L 590.1,240.5 L 589.5,231.7 L 588.4,222.9 L 585.0,194.3 L 580.8,157.7 L 579.3,146.5 L 575.0,111.0 L 573.7,105.3 L 572.4,101.2 L 571.5,99.5 L 570.3,97.7 L 568.8,95.9 L 567.1,94.3 L 564.8,92.5 L 562.8,91.4 L 559.6,90.5 L 557.9,90.2 L 555.5,90.0 L 553.6,90.2 L 551.7,90.7 L 549.8,91.4 L 548.1,92.5 L 546.6,93.6 L 545.0,95.2 L 543.4,97.4 L 542.1,99.6 L 540.5,103.1 L 533.8,123.2 L 532.9,126.6 L 525.3,156.9 L 518.7,177.7 L 501.1,231.2 L 472.6,315.5 L 470.1,322.8 L 466.2,334.5 L 446.2,393.0 L 434.4,428.0 L 429.5,443.6 Z" fill="none" stroke="#000000" stroke-opacity="0.5" stroke-width="13" stroke-linejoin="round" stroke-linecap="round"/>
<path d="M 429.5,443.6 L 423.6,461.6 L 420.3,473.8 L 415.9,490.4 L 411.2,506.7 L 372.3,623.6 L 372.0,625.0 L 372.0,626.3 L 372.4,627.7 L 373.1,628.8 L 374.1,629.8 L 375.3,630.5 L 376.6,630.8 L 378.0,630.8 L 399.3,627.3 L 400.6,627.2 L 402.0,627.5 L 403.2,627.9 L 404.4,628.6 L 405.3,629.4 L 405.9,630.5 L 406.3,631.8 L 406.6,633.3 L 412.4,654.5 L 414.1,661.9 L 418.9,678.1 L 423.7,695.3 L 426.4,700.9 L 429.8,706.6 L 436.5,717.3 L 444.5,727.8 L 455.3,739.1 L 463.4,746.8 L 476.6,757.8 L 510.2,783.6 L 554.7,819.0 L 572.7,832.4 L 585.6,842.2 L 593.7,847.7 L 612.9,860.1 L 624.0,866.4 L 640.4,874.3 L 715.6,907.7 L 718.2,908.6 L 721.1,909.3 L 724.8,909.9 L 726.9,910.0 L 729.5,909.8 L 732.9,909.5 L 736.7,908.6 L 740.3,907.0 L 744.0,904.7 L 746.1,903.0 L 749.0,900.3 L 750.8,898.0 L 753.2,894.0 L 754.8,890.9 L 756.1,887.0 L 757.1,883.3 L 757.9,877.0 L 758.0,872.7 L 757.5,867.9 L 756.4,862.7 L 755.0,858.6 L 752.6,854.0 L 750.1,850.6 L 747.4,847.4 L 746.1,845.9 L 743.8,844.0 L 740.0,841.3 L 736.9,839.3 L 733.3,837.7 L 728.3,836.0 L 723.2,835.1 L 718.3,834.6 L 704.6,833.6 L 640.8,829.2 L 634.4,828.4 L 630.4,828.1 L 627.3,827.6 L 623.5,826.6 L 621.4,826.0 L 619.0,824.9 L 574.6,796.5 L 572.4,794.6 L 570.7,792.8 L 568.5,789.8 L 566.6,786.6 L 564.7,781.4 L 553.7,732.4 L 553.6,731.2 L 553.8,730.2 L 554.3,728.9 L 554.9,728.2 L 555.9,727.6 L 558.1,727.1 L 597.2,721.7 L 599.2,721.1 L 601.7,720.2 L 603.9,718.9 L 605.8,717.2 L 607.3,715.3 L 609.1,712.3 L 609.9,710.6 L 610.4,709.1 L 610.8,706.3 L 610.8,688.9 L 610.1,675.4 L 609.9,672.0 L 609.6,670.3 L 608.9,668.2 L 608.2,666.5 L 606.9,664.2 L 606.0,662.9 L 605.4,662.2 L 604.5,661.4 L 602.6,660.4 L 601.5,660.0 L 600.2,659.4 L 598.5,658.9 L 596.6,658.4 L 593.0,657.8 L 588.8,657.4 L 584.0,657.1 L 579.5,657.1 L 575.6,657.1 L 567.8,657.8 L 494.5,668.4 L 490.2,668.8 L 484.3,668.8 L 480.6,668.5 L 474.9,667.2 L 471.0,665.9 L 466.3,664.2 L 463.8,662.7 L 460.9,659.9 L 439.6,622.7 L 427.3,602.1 L 426.4,600.3 L 425.4,597.3 L 424.5,593.5 L 423.6,588.0 L 423.3,583.8 L 423.2,581.9 L 423.2,580.4 L 423.3,578.9 L 423.5,577.4 L 423.9,575.7 L 424.5,573.9 L 425.1,572.7 L 426.2,571.1 L 427.4,569.9 L 428.7,569.1 L 430.5,568.5 L 434.6,567.6 L 485.1,560.4 L 497.8,558.5 L 550.0,551.0 L 675.3,533.1 L 677.4,532.5 L 679.3,531.8 L 681.3,530.5 L 683.4,528.5 L 685.2,526.2 L 687.0,523.2 L 688.1,520.4 L 688.5,518.2 L 688.6,515.9 L 688.5,513.6 L 687.8,509.8 L 673.0,448.6 L 668.8,430.5 L 668.0,426.6 L 667.0,423.1 L 666.1,420.7 L 665.0,418.3 L 663.8,416.7 L 662.3,414.9 L 659.3,412.0 L 655.7,409.5 L 651.9,407.6 L 647.8,406.2 L 618.5,396.8 L 613.4,394.9 L 609.3,393.0 L 606.0,391.1 L 602.6,388.9 L 599.3,386.5 L 596.0,383.8 L 592.4,380.5 L 590.2,378.3 L 587.6,375.3 L 584.8,371.8 L 582.2,368.2 L 577.9,362.1 L 576.3,357.7 L 575.4,353.7 L 574.2,347.1 L 574.0,344.2 L 573.8,342.0 L 573.8,336.1 L 574.7,329.8 L 575.8,324.3 L 579.1,312.5 L 583.2,298.1 L 584.6,292.6 L 586.7,284.3 L 588.3,275.7 L 589.4,266.9 L 589.5,265.3 L 590.1,258.1 L 590.4,249.3 L 590.1,240.5 L 589.5,231.7 L 588.4,222.9 L 585.0,194.3 L 580.8,157.7 L 579.3,146.5 L 575.0,111.0 L 573.7,105.3 L 572.4,101.2 L 571.5,99.5 L 570.3,97.7 L 568.8,95.9 L 567.1,94.3 L 564.8,92.5 L 562.8,91.4 L 559.6,90.5 L 557.9,90.2 L 555.5,90.0 L 553.6,90.2 L 551.7,90.7 L 549.8,91.4 L 548.1,92.5 L 546.6,93.6 L 545.0,95.2 L 543.4,97.4 L 542.1,99.6 L 540.5,103.1 L 533.8,123.2 L 532.9,126.6 L 525.3,156.9 L 518.7,177.7 L 501.1,231.2 L 472.6,315.5 L 470.1,322.8 L 466.2,334.5 L 446.2,393.0 L 434.4,428.0 L 429.5,443.6 Z" fill="none" stroke="#39404f" stroke-width="8.5" stroke-linejoin="round" stroke-linecap="round"/>
<path d="M 429.5,443.6 L 423.6,461.6 L 420.3,473.8 L 415.9,490.4 L 411.2,506.7 L 372.3,623.6 L 372.0,625.0 L 372.0,626.3 L 372.4,627.7 L 373.1,628.8 L 374.1,629.8 L 375.3,630.5 L 376.6,630.8 L 378.0,630.8 L 399.3,627.3 L 400.6,627.2 L 402.0,627.5 L 403.2,627.9 L 404.4,628.6 L 405.3,629.4 L 405.9,630.5 L 406.3,631.8 L 406.6,633.3 L 412.4,654.5 L 414.1,661.9 L 418.9,678.1 L 423.7,695.3 L 426.4,700.9 L 429.8,706.6 L 436.5,717.3 L 444.5,727.8 L 455.3,739.1 L 463.4,746.8 L 476.6,757.8 L 510.2,783.6 L 554.7,819.0 L 572.7,832.4 L 585.6,842.2 L 593.7,847.7 L 612.9,860.1 L 624.0,866.4 L 640.4,874.3 L 715.6,907.7 L 718.2,908.6 L 721.1,909.3 L 724.8,909.9 L 726.9,910.0 L 729.5,909.8 L 732.9,909.5 L 736.7,908.6 L 740.3,907.0 L 744.0,904.7 L 746.1,903.0 L 749.0,900.3 L 750.8,898.0 L 753.2,894.0 L 754.8,890.9 L 756.1,887.0 L 757.1,883.3 L 757.9,877.0 L 758.0,872.7 L 757.5,867.9 L 756.4,862.7 L 755.0,858.6 L 752.6,854.0 L 750.1,850.6 L 747.4,847.4 L 746.1,845.9 L 743.8,844.0 L 740.0,841.3 L 736.9,839.3 L 733.3,837.7 L 728.3,836.0 L 723.2,835.1 L 718.3,834.6 L 704.6,833.6 L 640.8,829.2 L 634.4,828.4 L 630.4,828.1 L 627.3,827.6 L 623.5,826.6 L 621.4,826.0 L 619.0,824.9 L 574.6,796.5 L 572.4,794.6 L 570.7,792.8 L 568.5,789.8 L 566.6,786.6 L 564.7,781.4 L 553.7,732.4 L 553.6,731.2 L 553.8,730.2 L 554.3,728.9 L 554.9,728.2 L 555.9,727.6 L 558.1,727.1 L 597.2,721.7 L 599.2,721.1 L 601.7,720.2 L 603.9,718.9 L 605.8,717.2 L 607.3,715.3 L 609.1,712.3 L 609.9,710.6 L 610.4,709.1 L 610.8,706.3 L 610.8,688.9 L 610.1,675.4 L 609.9,672.0 L 609.6,670.3 L 608.9,668.2 L 608.2,666.5 L 606.9,664.2 L 606.0,662.9 L 605.4,662.2 L 604.5,661.4 L 602.6,660.4 L 601.5,660.0 L 600.2,659.4 L 598.5,658.9 L 596.6,658.4 L 593.0,657.8 L 588.8,657.4 L 584.0,657.1 L 579.5,657.1 L 575.6,657.1 L 567.8,657.8 L 494.5,668.4 L 490.2,668.8 L 484.3,668.8 L 480.6,668.5 L 474.9,667.2 L 471.0,665.9 L 466.3,664.2 L 463.8,662.7 L 460.9,659.9 L 439.6,622.7 L 427.3,602.1 L 426.4,600.3 L 425.4,597.3 L 424.5,593.5 L 423.6,588.0 L 423.3,583.8 L 423.2,581.9 L 423.2,580.4 L 423.3,578.9 L 423.5,577.4 L 423.9,575.7 L 424.5,573.9 L 425.1,572.7 L 426.2,571.1 L 427.4,569.9 L 428.7,569.1 L 430.5,568.5 L 434.6,567.6 L 485.1,560.4 L 497.8,558.5 L 550.0,551.0 L 675.3,533.1 L 677.4,532.5 L 679.3,531.8 L 681.3,530.5 L 683.4,528.5 L 685.2,526.2 L 687.0,523.2 L 688.1,520.4 L 688.5,518.2 L 688.6,515.9 L 688.5,513.6 L 687.8,509.8 L 673.0,448.6 L 668.8,430.5 L 668.0,426.6 L 667.0,423.1 L 666.1,420.7 L 665.0,418.3 L 663.8,416.7 L 662.3,414.9 L 659.3,412.0 L 655.7,409.5 L 651.9,407.6 L 647.8,406.2 L 618.5,396.8 L 613.4,394.9 L 609.3,393.0 L 606.0,391.1 L 602.6,388.9 L 599.3,386.5 L 596.0,383.8 L 592.4,380.5 L 590.2,378.3 L 587.6,375.3 L 584.8,371.8 L 582.2,368.2 L 577.9,362.1 L 576.3,357.7 L 575.4,353.7 L 574.2,347.1 L 574.0,344.2 L 573.8,342.0 L 573.8,336.1 L 574.7,329.8 L 575.8,324.3 L 579.1,312.5 L 583.2,298.1 L 584.6,292.6 L 586.7,284.3 L 588.3,275.7 L 589.4,266.9 L 589.5,265.3 L 590.1,258.1 L 590.4,249.3 L 590.1,240.5 L 589.5,231.7 L 588.4,222.9 L 585.0,194.3 L 580.8,157.7 L 579.3,146.5 L 575.0,111.0 L 573.7,105.3 L 572.4,101.2 L 571.5,99.5 L 570.3,97.7 L 568.8,95.9 L 567.1,94.3 L 564.8,92.5 L 562.8,91.4 L 559.6,90.5 L 557.9,90.2 L 555.5,90.0 L 553.6,90.2 L 551.7,90.7 L 549.8,91.4 L 548.1,92.5 L 546.6,93.6 L 545.0,95.2 L 543.4,97.4 L 542.1,99.6 L 540.5,103.1 L 533.8,123.2 L 532.9,126.6 L 525.3,156.9 L 518.7,177.7 L 501.1,231.2 L 472.6,315.5 L 470.1,322.8 L 466.2,334.5 L 446.2,393.0 L 434.4,428.0 L 429.5,443.6 Z" fill="none" stroke="#e7edf8" stroke-width="2.6" stroke-linejoin="round" stroke-linecap="round"/>
<path d="M 429.5,443.6 L 423.6,461.6 L 420.3,473.8 L 415.9,490.4 L 411.2,506.7 L 372.3,623.6 L 372.0,625.0 L 372.0,626.3 L 372.4,627.7 L 373.1,628.8 L 374.1,629.8 L 375.3,630.5 L 376.6,630.8 L 378.0,630.8 L 399.3,627.3 L 400.6,627.2 L 402.0,627.5 L 403.2,627.9 L 404.4,628.6 L 405.3,629.4 L 405.9,630.5 L 406.3,631.8 L 406.6,633.3 L 412.4,654.5 L 414.1,661.9 L 418.9,678.1 L 423.7,695.3 L 426.4,700.9 L 429.8,706.6 L 436.5,717.3 L 444.5,727.8 L 455.3,739.1 L 463.4,746.8 L 476.6,757.8 L 510.2,783.6 L 554.7,819.0 L 572.7,832.4 L 585.6,842.2 L 593.7,847.7 L 612.9,860.1 L 624.0,866.4 L 640.4,874.3 L 715.6,907.7 L 718.2,908.6 L 721.1,909.3 L 724.8,909.9 L 726.9,910.0 L 729.5,909.8 L 732.9,909.5 L 736.7,908.6 L 740.3,907.0 L 744.0,904.7 L 746.1,903.0 L 749.0,900.3 L 750.8,898.0 L 753.2,894.0 L 754.8,890.9 L 756.1,887.0 L 757.1,883.3 L 757.9,877.0 L 758.0,872.7 L 757.5,867.9 L 756.4,862.7 L 755.0,858.6 L 752.6,854.0 L 750.1,850.6 L 747.4,847.4 L 746.1,845.9 L 743.8,844.0 L 740.0,841.3 L 736.9,839.3 L 733.3,837.7 L 728.3,836.0 L 723.2,835.1 L 718.3,834.6 L 704.6,833.6 L 640.8,829.2 L 634.4,828.4 L 630.4,828.1 L 627.3,827.6 L 623.5,826.6 L 621.4,826.0 L 619.0,824.9 L 574.6,796.5 L 572.4,794.6 L 570.7,792.8 L 568.5,789.8 L 566.6,786.6 L 564.7,781.4 L 553.7,732.4 L 553.6,731.2 L 553.8,730.2 L 554.3,728.9 L 554.9,728.2 L 555.9,727.6 L 558.1,727.1 L 597.2,721.7 L 599.2,721.1 L 601.7,720.2 L 603.9,718.9 L 605.8,717.2 L 607.3,715.3 L 609.1,712.3 L 609.9,710.6 L 610.4,709.1 L 610.8,706.3 L 610.8,688.9 L 610.1,675.4 L 609.9,672.0 L 609.6,670.3 L 608.9,668.2 L 608.2,666.5 L 606.9,664.2 L 606.0,662.9 L 605.4,662.2 L 604.5,661.4 L 602.6,660.4 L 601.5,660.0 L 600.2,659.4 L 598.5,658.9 L 596.6,658.4 L 593.0,657.8 L 588.8,657.4 L 584.0,657.1 L 579.5,657.1 L 575.6,657.1 L 567.8,657.8 L 494.5,668.4 L 490.2,668.8 L 484.3,668.8 L 480.6,668.5 L 474.9,667.2 L 471.0,665.9 L 466.3,664.2 L 463.8,662.7 L 460.9,659.9 L 439.6,622.7 L 427.3,602.1 L 426.4,600.3 L 425.4,597.3 L 424.5,593.5 L 423.6,588.0 L 423.3,583.8 L 423.2,581.9 L 423.2,580.4 L 423.3,578.9 L 423.5,577.4 L 423.9,575.7 L 424.5,573.9 L 425.1,572.7 L 426.2,571.1 L 427.4,569.9 L 428.7,569.1 L 430.5,568.5 L 434.6,567.6 L 485.1,560.4 L 497.8,558.5 L 550.0,551.0 L 675.3,533.1 L 677.4,532.5 L 679.3,531.8 L 681.3,530.5 L 683.4,528.5 L 685.2,526.2 L 687.0,523.2 L 688.1,520.4 L 688.5,518.2 L 688.6,515.9 L 688.5,513.6 L 687.8,509.8 L 673.0,448.6 L 668.8,430.5 L 668.0,426.6 L 667.0,423.1 L 666.1,420.7 L 665.0,418.3 L 663.8,416.7 L 662.3,414.9 L 659.3,412.0 L 655.7,409.5 L 651.9,407.6 L 647.8,406.2 L 618.5,396.8 L 613.4,394.9 L 609.3,393.0 L 606.0,391.1 L 602.6,388.9 L 599.3,386.5 L 596.0,383.8 L 592.4,380.5 L 590.2,378.3 L 587.6,375.3 L 584.8,371.8 L 582.2,368.2 L 577.9,362.1 L 576.3,357.7 L 575.4,353.7 L 574.2,347.1 L 574.0,344.2 L 573.8,342.0 L 573.8,336.1 L 574.7,329.8 L 575.8,324.3 L 579.1,312.5 L 583.2,298.1 L 584.6,292.6 L 586.7,284.3 L 588.3,275.7 L 589.4,266.9 L 589.5,265.3 L 590.1,258.1 L 590.4,249.3 L 590.1,240.5 L 589.5,231.7 L 588.4,222.9 L 585.0,194.3 L 580.8,157.7 L 579.3,146.5 L 575.0,111.0 L 573.7,105.3 L 572.4,101.2 L 571.5,99.5 L 570.3,97.7 L 568.8,95.9 L 567.1,94.3 L 564.8,92.5 L 562.8,91.4 L 559.6,90.5 L 557.9,90.2 L 555.5,90.0 L 553.6,90.2 L 551.7,90.7 L 549.8,91.4 L 548.1,92.5 L 546.6,93.6 L 545.0,95.2 L 543.4,97.4 L 542.1,99.6 L 540.5,103.1 L 533.8,123.2 L 532.9,126.6 L 525.3,156.9 L 518.7,177.7 L 501.1,231.2 L 472.6,315.5 L 470.1,322.8 L 466.2,334.5 L 446.2,393.0 L 434.4,428.0 L 429.5,443.6 Z" fill="none" stroke="#ff5a36" stroke-opacity="0.55" stroke-width="1.2" stroke-linejoin="round" filter="url(#glow)"/>
<circle cx="429.5" cy="443.6" r="13" fill="none" stroke="#ffffff" stroke-width="3"/>
<rect x="425.5" y="421.6" width="8" height="18" fill="#ffffff"/>
<circle cx="373.7" cy="629.4" r="7" fill="#ff5a36" stroke="#0a0c12" stroke-width="2.5" filter="url(#glow)"/>
<text x="373.7" y="632.8" font-size="9" font-weight="700" fill="#0a0c12" text-anchor="middle">1</text>
<circle cx="431.0" cy="708.6" r="7" fill="#ff5a36" stroke="#0a0c12" stroke-width="2.5" filter="url(#glow)"/>
<text x="431.0" y="712.0" font-size="9" font-weight="700" fill="#0a0c12" text-anchor="middle">2</text>
<circle cx="495.8" cy="772.6" r="7" fill="#ff5a36" stroke="#0a0c12" stroke-width="2.5" filter="url(#glow)"/>
<text x="495.8" y="776.0" font-size="9" font-weight="700" fill="#0a0c12" text-anchor="middle">3</text>
<circle cx="572.9" cy="832.5" r="7" fill="#ff5a36" stroke="#0a0c12" stroke-width="2.5" filter="url(#glow)"/>
<text x="572.9" y="835.9" font-size="9" font-weight="700" fill="#0a0c12" text-anchor="middle">4</text>
<circle cx="749.4" cy="899.8" r="7" fill="#ff5a36" stroke="#0a0c12" stroke-width="2.5" filter="url(#glow)"/>
<text x="749.4" y="903.2" font-size="9" font-weight="700" fill="#0a0c12" text-anchor="middle">5</text>
<circle cx="463.4" cy="662.4" r="7" fill="#ff5a36" stroke="#0a0c12" stroke-width="2.5" filter="url(#glow)"/>
<text x="463.4" y="665.8" font-size="9" font-weight="700" fill="#0a0c12" text-anchor="middle">6</text>
<circle cx="446.6" cy="635.0" r="7" fill="#ff5a36" stroke="#0a0c12" stroke-width="2.5" filter="url(#glow)"/>
<text x="446.6" y="638.4" font-size="9" font-weight="700" fill="#0a0c12" text-anchor="middle">7</text>
<circle cx="447.9" cy="565.7" r="7" fill="#ff5a36" stroke="#0a0c12" stroke-width="2.5" filter="url(#glow)"/>
<text x="447.9" y="569.1" font-size="9" font-weight="700" fill="#0a0c12" text-anchor="middle">8</text>
<circle cx="656.8" cy="410.3" r="7" fill="#ff5a36" stroke="#0a0c12" stroke-width="2.5" filter="url(#glow)"/>
<text x="656.8" y="413.7" font-size="9" font-weight="700" fill="#0a0c12" text-anchor="middle">9</text>
<circle cx="590.2" cy="254.4" r="7" fill="#ff5a36" stroke="#0a0c12" stroke-width="2.5" filter="url(#glow)"/>
<text x="590.2" y="257.8" font-size="9" font-weight="700" fill="#0a0c12" text-anchor="middle">10</text>
<circle cx="584.7" cy="192.2" r="7" fill="#ff5a36" stroke="#0a0c12" stroke-width="2.5" filter="url(#glow)"/>
<text x="584.7" y="195.6" font-size="9" font-weight="700" fill="#0a0c12" text-anchor="middle">11</text>
<circle cx="577.4" cy="130.9" r="7" fill="#ff5a36" stroke="#0a0c12" stroke-width="2.5" filter="url(#glow)"/>
<text x="577.4" y="134.3" font-size="9" font-weight="700" fill="#0a0c12" text-anchor="middle">12</text>
<circle cx="557.7" cy="90.2" r="7" fill="#ff5a36" stroke="#0a0c12" stroke-width="2.5" filter="url(#glow)"/>
<text x="557.7" y="93.6" font-size="9" font-weight="700" fill="#0a0c12" text-anchor="middle">13</text>
<circle cx="530.9" cy="134.5" r="7" fill="#ff5a36" stroke="#0a0c12" stroke-width="2.5" filter="url(#glow)"/>
<text x="530.9" y="137.9" font-size="9" font-weight="700" fill="#0a0c12" text-anchor="middle">14</text>
<circle cx="487.4" cy="271.5" r="7" fill="#ff5a36" stroke="#0a0c12" stroke-width="2.5" filter="url(#glow)"/>
<text x="487.4" y="274.9" font-size="9" font-weight="700" fill="#0a0c12" text-anchor="middle">15</text>
<circle cx="453.2" cy="372.6" r="7" fill="#ff5a36" stroke="#0a0c12" stroke-width="2.5" filter="url(#glow)"/>
<text x="453.2" y="376.0" font-size="9" font-weight="700" fill="#0a0c12" text-anchor="middle">16</text>
<line x1="373.7" y1="629.4" x2="324.8" y2="647.1" stroke="#ff5a36" stroke-opacity="0.45" stroke-width="1.3"/>
<text x="316.8" y="651.1" font-size="15" font-weight="600" fill="#eef2fb" text-anchor="end">T1</text>
<line x1="431.0" y1="708.6" x2="396.0" y2="747.0" stroke="#ff5a36" stroke-opacity="0.45" stroke-width="1.3"/>
<text x="388.0" y="751.0" font-size="15" font-weight="600" fill="#eef2fb" text-anchor="end">T2</text>
<line x1="495.8" y1="772.6" x2="479.4" y2="821.9" stroke="#ff5a36" stroke-opacity="0.45" stroke-width="1.3"/>
<text x="471.4" y="825.9" font-size="15" font-weight="600" fill="#eef2fb" text-anchor="end">T3</text>
<line x1="572.9" y1="832.5" x2="574.0" y2="884.5" stroke="#ff5a36" stroke-opacity="0.45" stroke-width="1.3"/>
<text x="582.0" y="888.5" font-size="15" font-weight="600" fill="#eef2fb" text-anchor="start">T4</text>
<line x1="749.4" y1="899.8" x2="774.0" y2="945.6" stroke="#ff5a36" stroke-opacity="0.45" stroke-width="1.3"/>
<text x="782.0" y="949.6" font-size="15" font-weight="600" fill="#eef2fb" text-anchor="start">T5</text>
<line x1="463.4" y1="662.4" x2="426.6" y2="707.1" stroke="#ff5a36" stroke-opacity="0.45" stroke-width="1.3"/>
<text x="418.6" y="711.1" font-size="15" font-weight="600" fill="#eef2fb" text-anchor="end">T6</text>
<line x1="446.6" y1="635.0" x2="402.6" y2="677.1" stroke="#ff5a36" stroke-opacity="0.45" stroke-width="1.3"/>
<text x="394.6" y="681.1" font-size="15" font-weight="600" fill="#eef2fb" text-anchor="end">T7</text>
<line x1="447.9" y1="565.7" x2="396.0" y2="568.5" stroke="#ff5a36" stroke-opacity="0.45" stroke-width="1.3"/>
<text x="388.0" y="572.5" font-size="15" font-weight="600" fill="#eef2fb" text-anchor="end">T8</text>
<line x1="656.8" y1="410.3" x2="683.7" y2="365.7" stroke="#ff5a36" stroke-opacity="0.45" stroke-width="1.3"/>
<text x="691.7" y="369.7" font-size="15" font-weight="600" fill="#eef2fb" text-anchor="start">T9</text>
<line x1="590.2" y1="254.4" x2="594.2" y2="202.6" stroke="#ff5a36" stroke-opacity="0.45" stroke-width="1.3"/>
<text x="602.2" y="206.6" font-size="15" font-weight="600" fill="#eef2fb" text-anchor="start">T10</text>
<line x1="584.7" y1="192.2" x2="587.3" y2="140.3" stroke="#ff5a36" stroke-opacity="0.45" stroke-width="1.3"/>
<text x="595.3" y="144.3" font-size="15" font-weight="600" fill="#eef2fb" text-anchor="start">T11</text>
<line x1="577.4" y1="130.9" x2="578.7" y2="78.9" stroke="#ff5a36" stroke-opacity="0.45" stroke-width="1.3"/>
<text x="586.7" y="82.9" font-size="15" font-weight="600" fill="#eef2fb" text-anchor="start">T12</text>
<line x1="557.7" y1="90.2" x2="556.6" y2="162.0" stroke="#ff5a36" stroke-opacity="0.45" stroke-width="1.3"/>
<text x="548.6" y="166.0" font-size="15" font-weight="600" fill="#eef2fb" text-anchor="end">T13</text>
<line x1="530.9" y1="134.5" x2="526.5" y2="192.0" stroke="#ff5a36" stroke-opacity="0.45" stroke-width="1.3"/>
<text x="518.5" y="196.0" font-size="15" font-weight="600" fill="#eef2fb" text-anchor="end">T14</text>
<line x1="487.4" y1="271.5" x2="473.6" y2="222.0" stroke="#ff5a36" stroke-opacity="0.45" stroke-width="1.3"/>
<text x="465.6" y="226.0" font-size="15" font-weight="600" fill="#eef2fb" text-anchor="end">T15</text>
<line x1="453.2" y1="372.6" x2="426.2" y2="328.1" stroke="#ff5a36" stroke-opacity="0.45" stroke-width="1.3"/>
<text x="418.2" y="332.1" font-size="15" font-weight="600" fill="#eef2fb" text-anchor="end">T16</text>
<text x="90" y="64" font-size="20" letter-spacing="5" fill="#ff5a36" font-weight="700">TRACK ATLAS</text>
<text x="90" y="108" font-size="42" font-weight="800" fill="#ffffff">YAS MARINA CIRCUIT</text>
<text x="90" y="136" font-size="16" fill="#9aa6bd">Abu Dhabi</text>
<rect x="1170" y="200" width="360" height="710" rx="16" fill="#ffffff" fill-opacity="0.04" stroke="#ff5a36" stroke-opacity="0.5"/>
<text x="1198" y="250" font-size="13" letter-spacing="2" fill="#8794ab">LAYOUT</text>
<text x="1198" y="276" font-size="22" font-weight="700" fill="#eef2fb">Grand Prix Circuit</text>
<text x="1198" y="320" font-size="13" letter-spacing="2" fill="#8794ab">LENGTH</text>
<text x="1198" y="346" font-size="22" font-weight="700" fill="#eef2fb">5.281 km</text>
<text x="1198" y="390" font-size="13" letter-spacing="2" fill="#8794ab">CORNERS</text>
<text x="1198" y="416" font-size="22" font-weight="700" fill="#eef2fb">16</text>
<text x="1198" y="460" font-size="13" letter-spacing="2" fill="#8794ab">NAMED CORNERS</text>
<text x="1198" y="486" font-size="22" font-weight="700" fill="#eef2fb">16</text>
<text x="1198" y="530" font-size="13" letter-spacing="2" fill="#8794ab">DIRECTION</text>
<text x="1198" y="556" font-size="22" font-weight="700" fill="#eef2fb">Anticlockwise</text>
<text x="1198" y="600" font-size="13" letter-spacing="2" fill="#8794ab">SECTORS</text>
<text x="1198" y="626" font-size="22" font-weight="700" fill="#eef2fb">3</text>
<text x="1198" y="670" font-size="13" letter-spacing="2" fill="#8794ab">COUNTRY</text>
<text x="1198" y="696" font-size="22" font-weight="700" fill="#eef2fb">AE</text>
<text x="1198" y="740" font-size="13" letter-spacing="2" fill="#8794ab">LOCATION</text>
<text x="1198" y="766" font-size="22" font-weight="700" fill="#eef2fb">Abu Dhabi</text>
<text x="90" y="966" font-size="12" fill="#566177">Geometry © OpenStreetMap contributors (ODbL) · corner data: Lovely-Sim-Racing + curated · track-atlas</text>
<text x="90" y="942" font-size="12" fill="#8794ab">⚑ start / finish</text>
</svg>