<svg xmlns="http://www.w3.org/2000/svg" width="1600" height="1000" viewBox="0 0 1600 1000" font-family="Helvetica, Arial, sans-serif">
<defs>
      <radialGradient id="bg" cx="38%" cy="34%" r="85%">
        <stop offset="0%" stop-color="#1b2030"/>
        <stop offset="55%" stop-color="#12151f"/>
        <stop offset="100%" stop-color="#0a0c12"/>
      </radialGradient>
      <linearGradient id="accent" x1="0" y1="0" x2="1" y2="1">
        <stop offset="0%" stop-color="#ff5a36"/>
        <stop offset="100%" stop-color="#ffffff"/>
      </linearGradient>
      <filter id="glow" x="-40%" y="-40%" width="180%" height="180%">
        <feGaussianBlur stdDeviation="6" result="b"/>
        <feMerge><feMergeNode in="b"/><feMergeNode in="SourceGraphic"/></feMerge>
      </filter>
    </defs>
<rect width="1600" height="1000" fill="url(#bg)"/>
<line x1="0" y1="0" x2="0" y2="1000" stroke="#ffffff" stroke-opacity="0.025"/>
<line x1="56" y1="0" x2="56" y2="1000" stroke="#ffffff" stroke-opacity="0.025"/>
<line x1="112" y1="0" x2="112" y2="1000" stroke="#ffffff" stroke-opacity="0.025"/>
<line x1="168" y1="0" x2="168" y2="1000" stroke="#ffffff" stroke-opacity="0.025"/>
<line x1="224" y1="0" x2="224" y2="1000" stroke="#ffffff" stroke-opacity="0.025"/>
<line x1="280" y1="0" x2="280" y2="1000" stroke="#ffffff" stroke-opacity="0.025"/>
<line x1="336" y1="0" x2="336" y2="1000" stroke="#ffffff" stroke-opacity="0.025"/>
<line x1="392" y1="0" x2="392" y2="1000" stroke="#ffffff" stroke-opacity="0.025"/>
<line x1="448" y1="0" x2="448" y2="1000" stroke="#ffffff" stroke-opacity="0.025"/>
<line x1="504" y1="0" x2="504" y2="1000" stroke="#ffffff" stroke-opacity="0.025"/>
<line x1="560" y1="0" x2="560" y2="1000" stroke="#ffffff" stroke-opacity="0.025"/>
<line x1="616" y1="0" x2="616" y2="1000" stroke="#ffffff" stroke-opacity="0.025"/>
<line x1="672" y1="0" x2="672" y2="1000" stroke="#ffffff" stroke-opacity="0.025"/>
<line x1="728" y1="0" x2="728" y2="1000" stroke="#ffffff" stroke-opacity="0.025"/>
<line x1="784" y1="0" x2="784" y2="1000" stroke="#ffffff" stroke-opacity="0.025"/>
<line x1="840" y1="0" x2="840" y2="1000" stroke="#ffffff" stroke-opacity="0.025"/>
<line x1="896" y1="0" x2="896" y2="1000" stroke="#ffffff" stroke-opacity="0.025"/>
<line x1="952" y1="0" x2="952" y2="1000" stroke="#ffffff" stroke-opacity="0.025"/>
<line x1="1008" y1="0" x2="1008" y2="1000" stroke="#ffffff" stroke-opacity="0.025"/>
<line x1="1064" y1="0" x2="1064" y2="1000" stroke="#ffffff" stroke-opacity="0.025"/>
<line x1="1120" y1="0" x2="1120" y2="1000" stroke="#ffffff" stroke-opacity="0.025"/>
<line x1="1176" y1="0" x2="1176" y2="1000" stroke="#ffffff" stroke-opacity="0.025"/>
<line x1="1232" y1="0" x2="1232" y2="1000" stroke="#ffffff" stroke-opacity="0.025"/>
<line x1="1288" y1="0" x2="1288" y2="1000" stroke="#ffffff" stroke-opacity="0.025"/>
<line x1="1344" y1="0" x2="1344" y2="1000" stroke="#ffffff" stroke-opacity="0.025"/>
<line x1="1400" y1="0" x2="1400" y2="1000" stroke="#ffffff" stroke-opacity="0.025"/>
<line x1="1456" y1="0" x2="1456" y2="1000" stroke="#ffffff" stroke-opacity="0.025"/>
<line x1="1512" y1="0" x2="1512" y2="1000" stroke="#ffffff" stroke-opacity="0.025"/>
<line x1="1568" y1="0" x2="1568" y2="1000" stroke="#ffffff" stroke-opacity="0.025"/>
<line x1="0" y1="0" x2="1600" y2="0" stroke="#ffffff" stroke-opacity="0.025"/>
<line x1="0" y1="56" x2="1600" y2="56" stroke="#ffffff" stroke-opacity="0.025"/>
<line x1="0" y1="112" x2="1600" y2="112" stroke="#ffffff" stroke-opacity="0.025"/>
<line x1="0" y1="168" x2="1600" y2="168" stroke="#ffffff" stroke-opacity="0.025"/>
<line x1="0" y1="224" x2="1600" y2="224" stroke="#ffffff" stroke-opacity="0.025"/>
<line x1="0" y1="280" x2="1600" y2="280" stroke="#ffffff" stroke-opacity="0.025"/>
<line x1="0" y1="336" x2="1600" y2="336" stroke="#ffffff" stroke-opacity="0.025"/>
<line x1="0" y1="392" x2="1600" y2="392" stroke="#ffffff" stroke-opacity="0.025"/>
<line x1="0" y1="448" x2="1600" y2="448" stroke="#ffffff" stroke-opacity="0.025"/>
<line x1="0" y1="504" x2="1600" y2="504" stroke="#ffffff" stroke-opacity="0.025"/>
<line x1="0" y1="560" x2="1600" y2="560" stroke="#ffffff" stroke-opacity="0.025"/>
<line x1="0" y1="616" x2="1600" y2="616" stroke="#ffffff" stroke-opacity="0.025"/>
<line x1="0" y1="672" x2="1600" y2="672" stroke="#ffffff" stroke-opacity="0.025"/>
<line x1="0" y1="728" x2="1600" y2="728" stroke="#ffffff" stroke-opacity="0.025"/>
<line x1="0" y1="784" x2="1600" y2="784" stroke="#ffffff" stroke-opacity="0.025"/>
<line x1="0" y1="840" x2="1600" y2="840" stroke="#ffffff" stroke-opacity="0.025"/>
<line x1="0" y1="896" x2="1600" y2="896" stroke="#ffffff" stroke-opacity="0.025"/>
<line x1="0" y1="952" x2="1600" y2="952" stroke="#ffffff" stroke-opacity="0.025"/>
<path d="M 826.5,437.7 L 868.4,380.5 L 880.1,361.2 L 889.6,344.3 L 892.9,337.6 L 896.5,328.4 L 901.7,312.6 L 904.9,300.2 L 906.9,290.6 L 908.1,283.4 L 908.8,277.1 L 909.2,268.1 L 909.3,258.1 L 908.6,246.0 L 906.8,233.0 L 904.2,222.1 L 899.5,205.1 L 895.3,195.1 L 889.8,184.0 L 882.3,171.1 L 874.9,159.9 L 867.4,150.1 L 858.5,140.3 L 850.5,133.2 L 839.7,124.6 L 827.6,116.2 L 817.5,110.1 L 808.2,105.7 L 799.0,101.6 L 786.8,97.5 L 776.3,94.6 L 763.4,92.1 L 751.8,90.6 L 743.5,90.2 L 735.0,90.0 L 723.2,90.6 L 715.9,91.6 L 706.0,93.2 L 696.5,95.2 L 688.4,97.5 L 679.1,100.7 L 668.5,104.5 L 660.2,107.9 L 650.8,112.1 L 640.5,117.5 L 603.4,138.4 L 572.2,158.2 L 566.3,161.7 L 515.1,194.1 L 482.5,214.8 L 441.8,240.6 L 426.6,250.7 L 412.6,260.7 L 401.3,267.7 L 396.5,271.4 L 392.2,274.9 L 387.2,279.1 L 382.0,283.7 L 376.8,288.4 L 371.6,293.5 L 366.5,298.6 L 361.4,304.0 L 356.1,309.7 L 351.2,315.5 L 345.6,322.2 L 340.8,328.3 L 336.6,334.0 L 331.9,340.7 L 327.7,347.0 L 323.6,353.6 L 320.4,360.6 L 314.5,371.1 L 309.4,380.5 L 303.6,392.4 L 298.0,407.2 L 288.7,436.8 L 279.6,466.3 L 270.6,499.2 L 272.1,518.6 L 272.3,524.3 L 272.9,528.9 L 274.1,534.3 L 278.0,548.0 L 280.8,556.9 L 284.0,564.6 L 287.1,570.4 L 289.6,573.8 L 293.6,577.3 L 296.1,578.9 L 300.1,580.6 L 304.0,581.7 L 307.4,582.4 L 310.4,582.5 L 313.2,582.3 L 316.1,581.8 L 319.4,580.7 L 323.0,579.4 L 330.4,575.8 L 339.2,570.5 L 344.7,566.6 L 349.5,562.5 L 366.2,544.9 L 371.3,539.9 L 375.1,536.8 L 378.1,534.9 L 382.1,533.0 L 386.5,531.4 L 394.0,529.2 L 397.8,528.0 L 401.3,526.3 L 405.0,523.8 L 408.4,520.4 L 411.4,516.3 L 466.0,444.5 L 478.7,427.7 L 483.0,422.7 L 488.0,418.2 L 491.1,416.2 L 494.1,415.0 L 497.4,414.1 L 500.1,414.0 L 503.3,414.2 L 505.6,415.1 L 508.5,416.7 L 511.4,418.9 L 514.6,422.7 L 516.2,425.4 L 517.0,428.3 L 517.5,431.9 L 517.4,435.6 L 517.0,439.7 L 516.0,443.7 L 514.4,448.2 L 511.5,456.3 L 507.9,465.0 L 505.6,469.6 L 502.6,475.6 L 496.5,485.8 L 491.1,493.9 L 483.6,505.0 L 443.4,560.4 L 400.8,619.0 L 395.6,626.2 L 390.0,634.4 L 385.8,641.6 L 382.9,648.0 L 381.7,651.2 L 380.7,654.7 L 379.9,659.3 L 379.3,663.8 L 378.7,670.1 L 378.4,679.9 L 379.2,698.4 L 380.5,712.9 L 384.5,742.1 L 385.7,750.1 L 388.8,773.6 L 389.5,783.2 L 389.5,791.0 L 388.6,800.4 L 387.6,804.3 L 385.6,808.9 L 380.8,817.0 L 377.2,820.8 L 374.8,822.4 L 372.1,823.8 L 369.5,824.9 L 367.2,825.4 L 364.4,825.5 L 362.2,825.2 L 358.7,824.4 L 356.1,823.2 L 352.9,821.5 L 350.2,819.5 L 346.9,816.3 L 343.9,813.1 L 340.7,809.7 L 338.5,806.2 L 336.2,801.2 L 333.8,793.4 L 332.6,786.2 L 327.2,748.4 L 319.3,692.6 L 317.4,678.8 L 313.9,653.0 L 311.0,637.7 L 309.7,630.5 L 308.3,627.1 L 306.7,625.3 L 304.9,623.8 L 302.5,622.7 L 299.3,621.8 L 296.8,621.7 L 294.3,621.8 L 289.8,622.3 L 284.0,623.4 L 278.3,625.1 L 270.3,628.0 L 259.6,633.3 L 248.8,639.7 L 241.0,645.8 L 235.7,651.9 L 230.6,660.3 L 228.0,673.5 L 224.9,689.1 L 222.9,705.2 L 221.0,725.4 L 220.7,734.4 L 220.8,744.3 L 221.3,754.3 L 221.8,761.1 L 222.7,768.4 L 224.5,777.0 L 227.0,786.6 L 230.8,797.6 L 234.9,807.9 L 239.6,817.1 L 246.6,828.3 L 254.0,839.2 L 261.1,847.7 L 269.6,857.2 L 278.6,865.7 L 288.5,874.1 L 297.9,880.7 L 307.6,886.6 L 321.5,893.9 L 330.3,897.6 L 341.1,901.4 L 353.9,905.1 L 368.2,908.0 L 379.7,909.5 L 392.5,910.0 L 404.9,909.5 L 417.4,908.2 L 429.7,905.9 L 441.5,902.9 L 456.1,898.0 L 470.7,891.6 L 483.3,884.5 L 491.6,879.1 L 500.1,872.8 L 508.4,865.8 L 517.9,856.8 L 527.3,847.3 L 539.1,833.8 L 551.2,817.9 L 563.2,801.4 L 611.5,735.1 L 743.8,552.2 L 744.9,549.6 L 745.5,547.8 L 746.3,545.3 L 746.7,542.8 L 747.0,540.4 L 747.0,538.1 L 746.9,535.6 L 746.6,532.9 L 746.1,530.1 L 745.5,526.7 L 743.4,517.6 L 743.1,515.5 L 742.9,513.9 L 743.1,512.2 L 743.3,510.3 L 743.8,508.4 L 744.5,506.5 L 746.8,502.8 L 763.1,475.4 L 764.0,474.5 L 765.2,473.5 L 766.7,472.6 L 768.9,471.8 L 771.3,471.3 L 778.6,469.5 L 787.1,467.4 L 790.4,466.6 L 793.3,465.8 L 797.2,464.0 L 801.4,461.0 L 805.5,456.9 L 809.0,453.3 L 816.5,445.1 L 826.5,437.7 Z" fill="none" stroke="#000000" stroke-opacity="0.5" stroke-width="13" stroke-linejoin="round" stroke-linecap="round"/>
<path d="M 826.5,437.7 L 868.4,380.5 L 880.1,361.2 L 889.6,344.3 L 892.9,337.6 L 896.5,328.4 L 901.7,312.6 L 904.9,300.2 L 906.9,290.6 L 908.1,283.4 L 908.8,277.1 L 909.2,268.1 L 909.3,258.1 L 908.6,246.0 L 906.8,233.0 L 904.2,222.1 L 899.5,205.1 L 895.3,195.1 L 889.8,184.0 L 882.3,171.1 L 874.9,159.9 L 867.4,150.1 L 858.5,140.3 L 850.5,133.2 L 839.7,124.6 L 827.6,116.2 L 817.5,110.1 L 808.2,105.7 L 799.0,101.6 L 786.8,97.5 L 776.3,94.6 L 763.4,92.1 L 751.8,90.6 L 743.5,90.2 L 735.0,90.0 L 723.2,90.6 L 715.9,91.6 L 706.0,93.2 L 696.5,95.2 L 688.4,97.5 L 679.1,100.7 L 668.5,104.5 L 660.2,107.9 L 650.8,112.1 L 640.5,117.5 L 603.4,138.4 L 572.2,158.2 L 566.3,161.7 L 515.1,194.1 L 482.5,214.8 L 441.8,240.6 L 426.6,250.7 L 412.6,260.7 L 401.3,267.7 L 396.5,271.4 L 392.2,274.9 L 387.2,279.1 L 382.0,283.7 L 376.8,288.4 L 371.6,293.5 L 366.5,298.6 L 361.4,304.0 L 356.1,309.7 L 351.2,315.5 L 345.6,322.2 L 340.8,328.3 L 336.6,334.0 L 331.9,340.7 L 327.7,347.0 L 323.6,353.6 L 320.4,360.6 L 314.5,371.1 L 309.4,380.5 L 303.6,392.4 L 298.0,407.2 L 288.7,436.8 L 279.6,466.3 L 270.6,499.2 L 272.1,518.6 L 272.3,524.3 L 272.9,528.9 L 274.1,534.3 L 278.0,548.0 L 280.8,556.9 L 284.0,564.6 L 287.1,570.4 L 289.6,573.8 L 293.6,577.3 L 296.1,578.9 L 300.1,580.6 L 304.0,581.7 L 307.4,582.4 L 310.4,582.5 L 313.2,582.3 L 316.1,581.8 L 319.4,580.7 L 323.0,579.4 L 330.4,575.8 L 339.2,570.5 L 344.7,566.6 L 349.5,562.5 L 366.2,544.9 L 371.3,539.9 L 375.1,536.8 L 378.1,534.9 L 382.1,533.0 L 386.5,531.4 L 394.0,529.2 L 397.8,528.0 L 401.3,526.3 L 405.0,523.8 L 408.4,520.4 L 411.4,516.3 L 466.0,444.5 L 478.7,427.7 L 483.0,422.7 L 488.0,418.2 L 491.1,416.2 L 494.1,415.0 L 497.4,414.1 L 500.1,414.0 L 503.3,414.2 L 505.6,415.1 L 508.5,416.7 L 511.4,418.9 L 514.6,422.7 L 516.2,425.4 L 517.0,428.3 L 517.5,431.9 L 517.4,435.6 L 517.0,439.7 L 516.0,443.7 L 514.4,448.2 L 511.5,456.3 L 507.9,465.0 L 505.6,469.6 L 502.6,475.6 L 496.5,485.8 L 491.1,493.9 L 483.6,505.0 L 443.4,560.4 L 400.8,619.0 L 395.6,626.2 L 390.0,634.4 L 385.8,641.6 L 382.9,648.0 L 381.7,651.2 L 380.7,654.7 L 379.9,659.3 L 379.3,663.8 L 378.7,670.1 L 378.4,679.9 L 379.2,698.4 L 380.5,712.9 L 384.5,742.1 L 385.7,750.1 L 388.8,773.6 L 389.5,783.2 L 389.5,791.0 L 388.6,800.4 L 387.6,804.3 L 385.6,808.9 L 380.8,817.0 L 377.2,820.8 L 374.8,822.4 L 372.1,823.8 L 369.5,824.9 L 367.2,825.4 L 364.4,825.5 L 362.2,825.2 L 358.7,824.4 L 356.1,823.2 L 352.9,821.5 L 350.2,819.5 L 346.9,816.3 L 343.9,813.1 L 340.7,809.7 L 338.5,806.2 L 336.2,801.2 L 333.8,793.4 L 332.6,786.2 L 327.2,748.4 L 319.3,692.6 L 317.4,678.8 L 313.9,653.0 L 311.0,637.7 L 309.7,630.5 L 308.3,627.1 L 306.7,625.3 L 304.9,623.8 L 302.5,622.7 L 299.3,621.8 L 296.8,621.7 L 294.3,621.8 L 289.8,622.3 L 284.0,623.4 L 278.3,625.1 L 270.3,628.0 L 259.6,633.3 L 248.8,639.7 L 241.0,645.8 L 235.7,651.9 L 230.6,660.3 L 228.0,673.5 L 224.9,689.1 L 222.9,705.2 L 221.0,725.4 L 220.7,734.4 L 220.8,744.3 L 221.3,754.3 L 221.8,761.1 L 222.7,768.4 L 224.5,777.0 L 227.0,786.6 L 230.8,797.6 L 234.9,807.9 L 239.6,817.1 L 246.6,828.3 L 254.0,839.2 L 261.1,847.7 L 269.6,857.2 L 278.6,865.7 L 288.5,874.1 L 297.9,880.7 L 307.6,886.6 L 321.5,893.9 L 330.3,897.6 L 341.1,901.4 L 353.9,905.1 L 368.2,908.0 L 379.7,909.5 L 392.5,910.0 L 404.9,909.5 L 417.4,908.2 L 429.7,905.9 L 441.5,902.9 L 456.1,898.0 L 470.7,891.6 L 483.3,884.5 L 491.6,879.1 L 500.1,872.8 L 508.4,865.8 L 517.9,856.8 L 527.3,847.3 L 539.1,833.8 L 551.2,817.9 L 563.2,801.4 L 611.5,735.1 L 743.8,552.2 L 744.9,549.6 L 745.5,547.8 L 746.3,545.3 L 746.7,542.8 L 747.0,540.4 L 747.0,538.1 L 746.9,535.6 L 746.6,532.9 L 746.1,530.1 L 745.5,526.7 L 743.4,517.6 L 743.1,515.5 L 742.9,513.9 L 743.1,512.2 L 743.3,510.3 L 743.8,508.4 L 744.5,506.5 L 746.8,502.8 L 763.1,475.4 L 764.0,474.5 L 765.2,473.5 L 766.7,472.6 L 768.9,471.8 L 771.3,471.3 L 778.6,469.5 L 787.1,467.4 L 790.4,466.6 L 793.3,465.8 L 797.2,464.0 L 801.4,461.0 L 805.5,456.9 L 809.0,453.3 L 816.5,445.1 L 826.5,437.7 Z" fill="none" stroke="#39404f" stroke-width="8.5" stroke-linejoin="round" stroke-linecap="round"/>
<path d="M 826.5,437.7 L 868.4,380.5 L 880.1,361.2 L 889.6,344.3 L 892.9,337.6 L 896.5,328.4 L 901.7,312.6 L 904.9,300.2 L 906.9,290.6 L 908.1,283.4 L 908.8,277.1 L 909.2,268.1 L 909.3,258.1 L 908.6,246.0 L 906.8,233.0 L 904.2,222.1 L 899.5,205.1 L 895.3,195.1 L 889.8,184.0 L 882.3,171.1 L 874.9,159.9 L 867.4,150.1 L 858.5,140.3 L 850.5,133.2 L 839.7,124.6 L 827.6,116.2 L 817.5,110.1 L 808.2,105.7 L 799.0,101.6 L 786.8,97.5 L 776.3,94.6 L 763.4,92.1 L 751.8,90.6 L 743.5,90.2 L 735.0,90.0 L 723.2,90.6 L 715.9,91.6 L 706.0,93.2 L 696.5,95.2 L 688.4,97.5 L 679.1,100.7 L 668.5,104.5 L 660.2,107.9 L 650.8,112.1 L 640.5,117.5 L 603.4,138.4 L 572.2,158.2 L 566.3,161.7 L 515.1,194.1 L 482.5,214.8 L 441.8,240.6 L 426.6,250.7 L 412.6,260.7 L 401.3,267.7 L 396.5,271.4 L 392.2,274.9 L 387.2,279.1 L 382.0,283.7 L 376.8,288.4 L 371.6,293.5 L 366.5,298.6 L 361.4,304.0 L 356.1,309.7 L 351.2,315.5 L 345.6,322.2 L 340.8,328.3 L 336.6,334.0 L 331.9,340.7 L 327.7,347.0 L 323.6,353.6 L 320.4,360.6 L 314.5,371.1 L 309.4,380.5 L 303.6,392.4 L 298.0,407.2 L 288.7,436.8 L 279.6,466.3 L 270.6,499.2 L 272.1,518.6 L 272.3,524.3 L 272.9,528.9 L 274.1,534.3 L 278.0,548.0 L 280.8,556.9 L 284.0,564.6 L 287.1,570.4 L 289.6,573.8 L 293.6,577.3 L 296.1,578.9 L 300.1,580.6 L 304.0,581.7 L 307.4,582.4 L 310.4,582.5 L 313.2,582.3 L 316.1,581.8 L 319.4,580.7 L 323.0,579.4 L 330.4,575.8 L 339.2,570.5 L 344.7,566.6 L 349.5,562.5 L 366.2,544.9 L 371.3,539.9 L 375.1,536.8 L 378.1,534.9 L 382.1,533.0 L 386.5,531.4 L 394.0,529.2 L 397.8,528.0 L 401.3,526.3 L 405.0,523.8 L 408.4,520.4 L 411.4,516.3 L 466.0,444.5 L 478.7,427.7 L 483.0,422.7 L 488.0,418.2 L 491.1,416.2 L 494.1,415.0 L 497.4,414.1 L 500.1,414.0 L 503.3,414.2 L 505.6,415.1 L 508.5,416.7 L 511.4,418.9 L 514.6,422.7 L 516.2,425.4 L 517.0,428.3 L 517.5,431.9 L 517.4,435.6 L 517.0,439.7 L 516.0,443.7 L 514.4,448.2 L 511.5,456.3 L 507.9,465.0 L 505.6,469.6 L 502.6,475.6 L 496.5,485.8 L 491.1,493.9 L 483.6,505.0 L 443.4,560.4 L 400.8,619.0 L 395.6,626.2 L 390.0,634.4 L 385.8,641.6 L 382.9,648.0 L 381.7,651.2 L 380.7,654.7 L 379.9,659.3 L 379.3,663.8 L 378.7,670.1 L 378.4,679.9 L 379.2,698.4 L 380.5,712.9 L 384.5,742.1 L 385.7,750.1 L 388.8,773.6 L 389.5,783.2 L 389.5,791.0 L 388.6,800.4 L 387.6,804.3 L 385.6,808.9 L 380.8,817.0 L 377.2,820.8 L 374.8,822.4 L 372.1,823.8 L 369.5,824.9 L 367.2,825.4 L 364.4,825.5 L 362.2,825.2 L 358.7,824.4 L 356.1,823.2 L 352.9,821.5 L 350.2,819.5 L 346.9,816.3 L 343.9,813.1 L 340.7,809.7 L 338.5,806.2 L 336.2,801.2 L 333.8,793.4 L 332.6,786.2 L 327.2,748.4 L 319.3,692.6 L 317.4,678.8 L 313.9,653.0 L 311.0,637.7 L 309.7,630.5 L 308.3,627.1 L 306.7,625.3 L 304.9,623.8 L 302.5,622.7 L 299.3,621.8 L 296.8,621.7 L 294.3,621.8 L 289.8,622.3 L 284.0,623.4 L 278.3,625.1 L 270.3,628.0 L 259.6,633.3 L 248.8,639.7 L 241.0,645.8 L 235.7,651.9 L 230.6,660.3 L 228.0,673.5 L 224.9,689.1 L 222.9,705.2 L 221.0,725.4 L 220.7,734.4 L 220.8,744.3 L 221.3,754.3 L 221.8,761.1 L 222.7,768.4 L 224.5,777.0 L 227.0,786.6 L 230.8,797.6 L 234.9,807.9 L 239.6,817.1 L 246.6,828.3 L 254.0,839.2 L 261.1,847.7 L 269.6,857.2 L 278.6,865.7 L 288.5,874.1 L 297.9,880.7 L 307.6,886.6 L 321.5,893.9 L 330.3,897.6 L 341.1,901.4 L 353.9,905.1 L 368.2,908.0 L 379.7,909.5 L 392.5,910.0 L 404.9,909.5 L 417.4,908.2 L 429.7,905.9 L 441.5,902.9 L 456.1,898.0 L 470.7,891.6 L 483.3,884.5 L 491.6,879.1 L 500.1,872.8 L 508.4,865.8 L 517.9,856.8 L 527.3,847.3 L 539.1,833.8 L 551.2,817.9 L 563.2,801.4 L 611.5,735.1 L 743.8,552.2 L 744.9,549.6 L 745.5,547.8 L 746.3,545.3 L 746.7,542.8 L 747.0,540.4 L 747.0,538.1 L 746.9,535.6 L 746.6,532.9 L 746.1,530.1 L 745.5,526.7 L 743.4,517.6 L 743.1,515.5 L 742.9,513.9 L 743.1,512.2 L 743.3,510.3 L 743.8,508.4 L 744.5,506.5 L 746.8,502.8 L 763.1,475.4 L 764.0,474.5 L 765.2,473.5 L 766.7,472.6 L 768.9,471.8 L 771.3,471.3 L 778.6,469.5 L 787.1,467.4 L 790.4,466.6 L 793.3,465.8 L 797.2,464.0 L 801.4,461.0 L 805.5,456.9 L 809.0,453.3 L 816.5,445.1 L 826.5,437.7 Z" fill="none" stroke="#e7edf8" stroke-width="2.6" stroke-linejoin="round" stroke-linecap="round"/>
<path d="M 826.5,437.7 L 868.4,380.5 L 880.1,361.2 L 889.6,344.3 L 892.9,337.6 L 896.5,328.4 L 901.7,312.6 L 904.9,300.2 L 906.9,290.6 L 908.1,283.4 L 908.8,277.1 L 909.2,268.1 L 909.3,258.1 L 908.6,246.0 L 906.8,233.0 L 904.2,222.1 L 899.5,205.1 L 895.3,195.1 L 889.8,184.0 L 882.3,171.1 L 874.9,159.9 L 867.4,150.1 L 858.5,140.3 L 850.5,133.2 L 839.7,124.6 L 827.6,116.2 L 817.5,110.1 L 808.2,105.7 L 799.0,101.6 L 786.8,97.5 L 776.3,94.6 L 763.4,92.1 L 751.8,90.6 L 743.5,90.2 L 735.0,90.0 L 723.2,90.6 L 715.9,91.6 L 706.0,93.2 L 696.5,95.2 L 688.4,97.5 L 679.1,100.7 L 668.5,104.5 L 660.2,107.9 L 650.8,112.1 L 640.5,117.5 L 603.4,138.4 L 572.2,158.2 L 566.3,161.7 L 515.1,194.1 L 482.5,214.8 L 441.8,240.6 L 426.6,250.7 L 412.6,260.7 L 401.3,267.7 L 396.5,271.4 L 392.2,274.9 L 387.2,279.1 L 382.0,283.7 L 376.8,288.4 L 371.6,293.5 L 366.5,298.6 L 361.4,304.0 L 356.1,309.7 L 351.2,315.5 L 345.6,322.2 L 340.8,328.3 L 336.6,334.0 L 331.9,340.7 L 327.7,347.0 L 323.6,353.6 L 320.4,360.6 L 314.5,371.1 L 309.4,380.5 L 303.6,392.4 L 298.0,407.2 L 288.7,436.8 L 279.6,466.3 L 270.6,499.2 L 272.1,518.6 L 272.3,524.3 L 272.9,528.9 L 274.1,534.3 L 278.0,548.0 L 280.8,556.9 L 284.0,564.6 L 287.1,570.4 L 289.6,573.8 L 293.6,577.3 L 296.1,578.9 L 300.1,580.6 L 304.0,581.7 L 307.4,582.4 L 310.4,582.5 L 313.2,582.3 L 316.1,581.8 L 319.4,580.7 L 323.0,579.4 L 330.4,575.8 L 339.2,570.5 L 344.7,566.6 L 349.5,562.5 L 366.2,544.9 L 371.3,539.9 L 375.1,536.8 L 378.1,534.9 L 382.1,533.0 L 386.5,531.4 L 394.0,529.2 L 397.8,528.0 L 401.3,526.3 L 405.0,523.8 L 408.4,520.4 L 411.4,516.3 L 466.0,444.5 L 478.7,427.7 L 483.0,422.7 L 488.0,418.2 L 491.1,416.2 L 494.1,415.0 L 497.4,414.1 L 500.1,414.0 L 503.3,414.2 L 505.6,415.1 L 508.5,416.7 L 511.4,418.9 L 514.6,422.7 L 516.2,425.4 L 517.0,428.3 L 517.5,431.9 L 517.4,435.6 L 517.0,439.7 L 516.0,443.7 L 514.4,448.2 L 511.5,456.3 L 507.9,465.0 L 505.6,469.6 L 502.6,475.6 L 496.5,485.8 L 491.1,493.9 L 483.6,505.0 L 443.4,560.4 L 400.8,619.0 L 395.6,626.2 L 390.0,634.4 L 385.8,641.6 L 382.9,648.0 L 381.7,651.2 L 380.7,654.7 L 379.9,659.3 L 379.3,663.8 L 378.7,670.1 L 378.4,679.9 L 379.2,698.4 L 380.5,712.9 L 384.5,742.1 L 385.7,750.1 L 388.8,773.6 L 389.5,783.2 L 389.5,791.0 L 388.6,800.4 L 387.6,804.3 L 385.6,808.9 L 380.8,817.0 L 377.2,820.8 L 374.8,822.4 L 372.1,823.8 L 369.5,824.9 L 367.2,825.4 L 364.4,825.5 L 362.2,825.2 L 358.7,824.4 L 356.1,823.2 L 352.9,821.5 L 350.2,819.5 L 346.9,816.3 L 343.9,813.1 L 340.7,809.7 L 338.5,806.2 L 336.2,801.2 L 333.8,793.4 L 332.6,786.2 L 327.2,748.4 L 319.3,692.6 L 317.4,678.8 L 313.9,653.0 L 311.0,637.7 L 309.7,630.5 L 308.3,627.1 L 306.7,625.3 L 304.9,623.8 L 302.5,622.7 L 299.3,621.8 L 296.8,621.7 L 294.3,621.8 L 289.8,622.3 L 284.0,623.4 L 278.3,625.1 L 270.3,628.0 L 259.6,633.3 L 248.8,639.7 L 241.0,645.8 L 235.7,651.9 L 230.6,660.3 L 228.0,673.5 L 224.9,689.1 L 222.9,705.2 L 221.0,725.4 L 220.7,734.4 L 220.8,744.3 L 221.3,754.3 L 221.8,761.1 L 222.7,768.4 L 224.5,777.0 L 227.0,786.6 L 230.8,797.6 L 234.9,807.9 L 239.6,817.1 L 246.6,828.3 L 254.0,839.2 L 261.1,847.7 L 269.6,857.2 L 278.6,865.7 L 288.5,874.1 L 297.9,880.7 L 307.6,886.6 L 321.5,893.9 L 330.3,897.6 L 341.1,901.4 L 353.9,905.1 L 368.2,908.0 L 379.7,909.5 L 392.5,910.0 L 404.9,909.5 L 417.4,908.2 L 429.7,905.9 L 441.5,902.9 L 456.1,898.0 L 470.7,891.6 L 483.3,884.5 L 491.6,879.1 L 500.1,872.8 L 508.4,865.8 L 517.9,856.8 L 527.3,847.3 L 539.1,833.8 L 551.2,817.9 L 563.2,801.4 L 611.5,735.1 L 743.8,552.2 L 744.9,549.6 L 745.5,547.8 L 746.3,545.3 L 746.7,542.8 L 747.0,540.4 L 747.0,538.1 L 746.9,535.6 L 746.6,532.9 L 746.1,530.1 L 745.5,526.7 L 743.4,517.6 L 743.1,515.5 L 742.9,513.9 L 743.1,512.2 L 743.3,510.3 L 743.8,508.4 L 744.5,506.5 L 746.8,502.8 L 763.1,475.4 L 764.0,474.5 L 765.2,473.5 L 766.7,472.6 L 768.9,471.8 L 771.3,471.3 L 778.6,469.5 L 787.1,467.4 L 790.4,466.6 L 793.3,465.8 L 797.2,464.0 L 801.4,461.0 L 805.5,456.9 L 809.0,453.3 L 816.5,445.1 L 826.5,437.7 Z" fill="none" stroke="#ff5a36" stroke-opacity="0.55" stroke-width="1.2" stroke-linejoin="round" filter="url(#glow)"/>
<circle cx="826.5" cy="437.7" r="13" fill="none" stroke="#ffffff" stroke-width="3"/>
<rect x="822.5" y="415.7" width="8" height="18" fill="#ffffff"/>
<circle cx="889.4" cy="183.3" r="7" fill="#ff5a36" stroke="#0a0c12" stroke-width="2.5" filter="url(#glow)"/>
<text x="889.4" y="186.7" font-size="9" font-weight="700" fill="#0a0c12" text-anchor="middle">1</text>
<circle cx="822.0" cy="112.9" r="7" fill="#ff5a36" stroke="#0a0c12" stroke-width="2.5" filter="url(#glow)"/>
<text x="822.0" y="116.3" font-size="9" font-weight="700" fill="#0a0c12" text-anchor="middle">2</text>
<circle cx="651.5" cy="111.8" r="7" fill="#ff5a36" stroke="#0a0c12" stroke-width="2.5" filter="url(#glow)"/>
<text x="651.5" y="115.2" font-size="9" font-weight="700" fill="#0a0c12" text-anchor="middle">3</text>
<circle cx="411.0" cy="261.7" r="7" fill="#ff5a36" stroke="#0a0c12" stroke-width="2.5" filter="url(#glow)"/>
<text x="411.0" y="265.1" font-size="9" font-weight="700" fill="#0a0c12" text-anchor="middle">4</text>
<circle cx="301.3" cy="398.4" r="7" fill="#ff5a36" stroke="#0a0c12" stroke-width="2.5" filter="url(#glow)"/>
<text x="301.3" y="401.8" font-size="9" font-weight="700" fill="#0a0c12" text-anchor="middle">5</text>
<circle cx="324.1" cy="578.8" r="7" fill="#ff5a36" stroke="#0a0c12" stroke-width="2.5" filter="url(#glow)"/>
<text x="324.1" y="582.2" font-size="9" font-weight="700" fill="#0a0c12" text-anchor="middle">6</text>
<circle cx="500.4" cy="414.0" r="7" fill="#ff5a36" stroke="#0a0c12" stroke-width="2.5" filter="url(#glow)"/>
<text x="500.4" y="417.4" font-size="9" font-weight="700" fill="#0a0c12" text-anchor="middle">7</text>
<circle cx="278.9" cy="624.9" r="7" fill="#ff5a36" stroke="#0a0c12" stroke-width="2.5" filter="url(#glow)"/>
<text x="278.9" y="628.3" font-size="9" font-weight="700" fill="#0a0c12" text-anchor="middle">8</text>
<circle cx="249.4" cy="639.4" r="7" fill="#ff5a36" stroke="#0a0c12" stroke-width="2.5" filter="url(#glow)"/>
<text x="249.4" y="642.8" font-size="9" font-weight="700" fill="#0a0c12" text-anchor="middle">9</text>
<circle cx="228.4" cy="671.2" r="7" fill="#ff5a36" stroke="#0a0c12" stroke-width="2.5" filter="url(#glow)"/>
<text x="228.4" y="674.6" font-size="9" font-weight="700" fill="#0a0c12" text-anchor="middle">10</text>
<circle cx="222.7" cy="707.0" r="7" fill="#ff5a36" stroke="#0a0c12" stroke-width="2.5" filter="url(#glow)"/>
<text x="222.7" y="710.4" font-size="9" font-weight="700" fill="#0a0c12" text-anchor="middle">11</text>
<circle cx="443.6" cy="902.2" r="7" fill="#ff5a36" stroke="#0a0c12" stroke-width="2.5" filter="url(#glow)"/>
<text x="443.6" y="905.6" font-size="9" font-weight="700" fill="#0a0c12" text-anchor="middle">12</text>
<line x1="889.4" y1="183.3" x2="928.9" y2="149.5" stroke="#ff5a36" stroke-opacity="0.45" stroke-width="1.3"/>
<text x="936.9" y="153.5" font-size="15" font-weight="600" fill="#eef2fb" text-anchor="start">Turn 1</text>
<line x1="822.0" y1="112.9" x2="854.7" y2="93.4" stroke="#ff5a36" stroke-opacity="0.45" stroke-width="1.3"/>
<text x="862.7" y="97.4" font-size="15" font-weight="600" fill="#eef2fb" text-anchor="start">Turn 2</text>
<line x1="651.5" y1="111.8" x2="670.5" y2="63.4" stroke="#ff5a36" stroke-opacity="0.45" stroke-width="1.3"/>
<text x="678.5" y="67.4" font-size="15" font-weight="600" fill="#eef2fb" text-anchor="start">International Horseshoe</text>
<line x1="411.0" y1="261.7" x2="396.4" y2="211.8" stroke="#ff5a36" stroke-opacity="0.45" stroke-width="1.3"/>
<text x="388.4" y="215.8" font-size="15" font-weight="600" fill="#eef2fb" text-anchor="end">The Kink</text>
<line x1="301.3" y1="398.4" x2="258.4" y2="369.0" stroke="#ff5a36" stroke-opacity="0.45" stroke-width="1.3"/>
<text x="250.4" y="373.0" font-size="15" font-weight="600" fill="#eef2fb" text-anchor="end">West Horseshoe</text>
<line x1="324.1" y1="578.8" x2="274.5" y2="594.6" stroke="#ff5a36" stroke-opacity="0.45" stroke-width="1.3"/>
<text x="266.5" y="598.6" font-size="15" font-weight="600" fill="#eef2fb" text-anchor="end">NASCAR 1</text>
<line x1="500.4" y1="414.0" x2="506.0" y2="362.3" stroke="#ff5a36" stroke-opacity="0.45" stroke-width="1.3"/>
<text x="514.0" y="366.3" font-size="15" font-weight="600" fill="#eef2fb" text-anchor="start">NASCAR 2</text>
<line x1="228.4" y1="671.2" x2="183.0" y2="696.5" stroke="#ff5a36" stroke-opacity="0.45" stroke-width="1.3"/>
<text x="175.0" y="700.5" font-size="15" font-weight="600" fill="#eef2fb" text-anchor="end">Bus Stop (Le Mans Chicane)</text>
<line x1="443.6" y1="902.2" x2="437.5" y2="953.8" stroke="#ff5a36" stroke-opacity="0.45" stroke-width="1.3"/>
<text x="429.5" y="957.8" font-size="15" font-weight="600" fill="#eef2fb" text-anchor="end">NASCAR 3</text>
<text x="90" y="64" font-size="20" letter-spacing="5" fill="#ff5a36" font-weight="700">TRACK ATLAS</text>
<text x="90" y="108" font-size="42" font-weight="800" fill="#ffffff">DAYTONA INTERNATIONAL SPEEDWAY</text>
<text x="90" y="136" font-size="16" fill="#9aa6bd">Daytona</text>
<rect x="1170" y="200" width="360" height="710" rx="16" fill="#ffffff" fill-opacity="0.04" stroke="#ff5a36" stroke-opacity="0.5"/>
<text x="1198" y="250" font-size="13" letter-spacing="2" fill="#8794ab">LAYOUT</text>
<text x="1198" y="276" font-size="22" font-weight="700" fill="#eef2fb">Road Course</text>
<text x="1198" y="320" font-size="13" letter-spacing="2" fill="#8794ab">LENGTH</text>
<text x="1198" y="346" font-size="22" font-weight="700" fill="#eef2fb">5.729 km</text>
<text x="1198" y="390" font-size="13" letter-spacing="2" fill="#8794ab">CORNERS</text>
<text x="1198" y="416" font-size="22" font-weight="700" fill="#eef2fb">12</text>
<text x="1198" y="460" font-size="13" letter-spacing="2" fill="#8794ab">NAMED CORNERS</text>
<text x="1198" y="486" font-size="22" font-weight="700" fill="#eef2fb">12</text>
<text x="1198" y="530" font-size="13" letter-spacing="2" fill="#8794ab">DIRECTION</text>
<text x="1198" y="556" font-size="22" font-weight="700" fill="#eef2fb">Clockwise</text>
<text x="1198" y="600" font-size="13" letter-spacing="2" fill="#8794ab">SECTORS</text>
<text x="1198" y="626" font-size="22" font-weight="700" fill="#eef2fb">5</text>
<text x="1198" y="670" font-size="13" letter-spacing="2" fill="#8794ab">COUNTRY</text>
<text x="1198" y="696" font-size="22" font-weight="700" fill="#eef2fb">USA</text>
<text x="1198" y="740" font-size="13" letter-spacing="2" fill="#8794ab">LOCATION</text>
<text x="1198" y="766" font-size="22" font-weight="700" fill="#eef2fb">Daytona Beach, Florida</text>
<text x="1198" y="810" font-size="13" letter-spacing="2" fill="#8794ab">COMPLEXES</text>
<rect x="1198" y="816" width="222" height="24" rx="12" fill="#ff5a36" fill-opacity="0.16" stroke="#ff5a36" stroke-opacity="0.5"/>
<text x="1309" y="833" font-size="12" fill="#eef2fb" text-anchor="middle">Bus Stop (Le Mans Chicane)</text>
<text x="90" y="966" font-size="12" fill="#566177">Geometry © OpenStreetMap contributors (ODbL) · corner data: Lovely-Sim-Racing + curated · track-atlas</text>
<text x="90" y="942" font-size="12" fill="#8794ab">⚑ start / finish</text>
</svg>