<svg xmlns="http://www.w3.org/2000/svg" width="1600" height="1000" viewBox="0 0 1600 1000" font-family="Helvetica, Arial, sans-serif">
<defs>
      <radialGradient id="bg" cx="38%" cy="34%" r="85%">
        <stop offset="0%" stop-color="#1b2030"/>
        <stop offset="55%" stop-color="#12151f"/>
        <stop offset="100%" stop-color="#0a0c12"/>
      </radialGradient>
      <linearGradient id="accent" x1="0" y1="0" x2="1" y2="1">
        <stop offset="0%" stop-color="#ff5a36"/>
        <stop offset="100%" stop-color="#ffffff"/>
      </linearGradient>
      <filter id="glow" x="-40%" y="-40%" width="180%" height="180%">
        <feGaussianBlur stdDeviation="6" result="b"/>
        <feMerge><feMergeNode in="b"/><feMergeNode in="SourceGraphic"/></feMerge>
      </filter>
    </defs>
<rect width="1600" height="1000" fill="url(#bg)"/>
<path d="M 726.7,853.7 L 775.2,798.9 L 778.3,794.0 L 779.2,790.0 L 778.9,786.7 L 776.6,782.0 L 772.8,778.5 L 768.8,776.5 L 764.0,775.0 L 756.7,774.0 L 749.7,774.4 L 743.5,776.1 L 737.2,779.4 L 728.1,785.5 L 714.1,798.9 L 709.5,802.1 L 703.9,803.9 L 697.0,804.9 L 691.3,804.9 L 685.1,802.9 L 679.6,800.8 L 673.9,797.6 L 667.8,792.3 L 662.8,785.9 L 657.0,774.9 L 656.8,759.2 L 656.6,748.9 L 656.6,711.9 L 656.4,707.1 L 656.1,681.2 L 656.0,672.4 L 656.0,668.3 L 655.9,660.9 L 655.9,657.1 L 655.7,646.8 L 655.7,641.9 L 655.6,640.7 L 655.7,636.5 L 655.6,630.2 L 655.6,626.3 L 655.8,597.5 L 655.8,588.0 L 655.8,582.1 L 655.8,575.1 L 655.6,559.8 L 655.4,536.7 L 655.4,534.1 L 655.3,521.2 L 655.3,520.1 L 655.2,515.8 L 655.0,482.9 L 655.0,476.7 L 654.7,442.6 L 654.7,435.6 L 657.0,435.6 L 686.3,435.7 L 689.4,435.7 L 724.4,436.6 L 750.4,437.1 L 754.5,434.2 L 758.3,431.6 L 759.3,430.9 L 771.6,418.9 L 777.1,411.3 L 780.5,404.0 L 781.1,402.5 L 784.0,396.0 L 785.9,386.8 L 786.9,376.3 L 786.9,371.0 L 782.2,369.9 L 777.4,368.8 L 774.5,368.0 L 773.1,367.2 L 771.5,366.1 L 769.9,364.7 L 767.9,362.6 L 766.9,360.8 L 766.2,358.9 L 765.6,356.8 L 765.4,354.8 L 765.3,351.7 L 765.7,349.0 L 766.4,346.3 L 767.1,344.2 L 769.7,338.6 L 775.6,327.1 L 776.2,325.5 L 776.5,323.8 L 776.8,312.2 L 776.9,310.7 L 776.9,308.0 L 764.7,307.8 L 735.6,307.2 L 716.4,306.5 L 695.9,305.9 L 687.3,305.6 L 666.0,305.7 L 665.2,305.7 L 656.2,305.7 L 653.2,305.7 L 649.1,298.2 L 645.3,298.0 L 627.7,297.1 L 612.6,293.6 L 604.0,289.3 L 594.3,280.8 L 586.5,272.7 L 583.1,267.5 L 577.6,255.8 L 566.8,227.1 L 566.8,227.0 L 564.0,219.4 L 562.0,214.2 L 559.3,208.6 L 558.7,207.7 L 556.3,203.5 L 552.7,199.7 L 545.9,193.4 L 538.7,186.9 L 531.8,182.1 L 522.6,178.7 L 519.2,177.4 L 506.6,174.3 L 493.5,171.9 L 484.2,170.1 L 479.2,169.1 L 475.4,168.6 L 471.5,168.0 L 468.3,174.2 L 463.5,184.0 L 461.6,187.7 L 444.4,221.2 L 435.8,237.3 L 428.7,250.8 L 424.6,258.5 L 422.2,263.0 L 417.9,270.5 L 407.1,289.3 L 405.4,292.2 L 399.6,302.2 L 396.8,307.2 L 395.9,308.8 L 394.6,311.4 L 381.8,340.9 L 372.4,371.1 L 371.1,375.5 L 365.7,394.0 L 364.6,397.9 L 362.1,407.4 L 361.8,408.5 L 360.7,412.9 L 359.4,418.5 L 358.5,423.3 L 356.3,433.5 L 354.1,447.7 L 351.4,471.2 L 350.4,480.0 L 350.2,483.7 L 348.9,507.1 L 348.8,508.6 L 348.8,511.2 L 348.6,515.2 L 348.6,517.3 L 348.7,529.9 L 348.5,573.1 L 348.8,616.5 L 348.8,622.5 L 348.5,629.7 L 347.2,653.8 L 346.6,696.4 L 346.0,714.2 L 345.4,731.5 L 345.0,742.0 L 344.8,749.3 L 344.5,759.7 L 344.2,768.8 L 344.0,772.4 L 343.8,778.8 L 343.7,783.2 L 343.6,789.8 L 343.5,804.9 L 343.5,808.3 L 343.4,809.9 L 343.3,828.4 L 343.4,847.2 L 343.4,859.5 L 343.3,865.6 L 343.1,873.6 L 348.9,879.3 L 354.9,885.6 L 363.2,893.9 L 370.6,900.8 L 372.9,902.7 L 375.7,905.0 L 378.6,906.7 L 381.4,907.7 L 385.2,908.4 L 389.2,908.6 L 406.7,909.2 L 419.5,909.1 L 443.7,909.3 L 446.8,909.3 L 451.6,909.4 L 455.2,909.4 L 494.4,909.9 L 498.0,909.9 L 502.8,909.8 L 523.4,909.7 L 526.3,909.7 L 527.9,909.7 L 532.1,909.7 L 578.5,909.8 L 594.6,909.7 L 612.5,910.0 L 629.7,909.8 L 649.6,909.8 L 650.9,909.8 L 653.7,909.8 L 657.9,909.1 L 666.4,905.8 L 671.3,904.0 L 677.2,901.3 L 683.7,898.4 L 689.2,894.9 L 694.2,890.4 L 699.1,884.9 L 703.6,879.8 L 726.7,853.7 Z" fill="none" stroke="#000000" stroke-opacity="0.5" stroke-width="13" stroke-linejoin="round" stroke-linecap="round"/>
<path d="M 726.7,853.7 L 775.2,798.9 L 778.3,794.0 L 779.2,790.0 L 778.9,786.7 L 776.6,782.0 L 772.8,778.5 L 768.8,776.5 L 764.0,775.0 L 756.7,774.0 L 749.7,774.4 L 743.5,776.1 L 737.2,779.4 L 728.1,785.5 L 714.1,798.9 L 709.5,802.1 L 703.9,803.9 L 697.0,804.9 L 691.3,804.9 L 685.1,802.9 L 679.6,800.8 L 673.9,797.6 L 667.8,792.3 L 662.8,785.9 L 657.0,774.9 L 656.8,759.2 L 656.6,748.9 L 656.6,711.9 L 656.4,707.1 L 656.1,681.2 L 656.0,672.4 L 656.0,668.3 L 655.9,660.9 L 655.9,657.1 L 655.7,646.8 L 655.7,641.9 L 655.6,640.7 L 655.7,636.5 L 655.6,630.2 L 655.6,626.3 L 655.8,597.5 L 655.8,588.0 L 655.8,582.1 L 655.8,575.1 L 655.6,559.8 L 655.4,536.7 L 655.4,534.1 L 655.3,521.2 L 655.3,520.1 L 655.2,515.8 L 655.0,482.9 L 655.0,476.7 L 654.7,442.6 L 654.7,435.6 L 657.0,435.6 L 686.3,435.7 L 689.4,435.7 L 724.4,436.6 L 750.4,437.1 L 754.5,434.2 L 758.3,431.6 L 759.3,430.9 L 771.6,418.9 L 777.1,411.3 L 780.5,404.0 L 781.1,402.5 L 784.0,396.0 L 785.9,386.8 L 786.9,376.3 L 786.9,371.0 L 782.2,369.9 L 777.4,368.8 L 774.5,368.0 L 773.1,367.2 L 771.5,366.1 L 769.9,364.7 L 767.9,362.6 L 766.9,360.8 L 766.2,358.9 L 765.6,356.8 L 765.4,354.8 L 765.3,351.7 L 765.7,349.0 L 766.4,346.3 L 767.1,344.2 L 769.7,338.6 L 775.6,327.1 L 776.2,325.5 L 776.5,323.8 L 776.8,312.2 L 776.9,310.7 L 776.9,308.0 L 764.7,307.8 L 735.6,307.2 L 716.4,306.5 L 695.9,305.9 L 687.3,305.6 L 666.0,305.7 L 665.2,305.7 L 656.2,305.7 L 653.2,305.7 L 649.1,298.2 L 645.3,298.0 L 627.7,297.1 L 612.6,293.6 L 604.0,289.3 L 594.3,280.8 L 586.5,272.7 L 583.1,267.5 L 577.6,255.8 L 566.8,227.1 L 566.8,227.0 L 564.0,219.4 L 562.0,214.2 L 559.3,208.6 L 558.7,207.7 L 556.3,203.5 L 552.7,199.7 L 545.9,193.4 L 538.7,186.9 L 531.8,182.1 L 522.6,178.7 L 519.2,177.4 L 506.6,174.3 L 493.5,171.9 L 484.2,170.1 L 479.2,169.1 L 475.4,168.6 L 471.5,168.0 L 468.3,174.2 L 463.5,184.0 L 461.6,187.7 L 444.4,221.2 L 435.8,237.3 L 428.7,250.8 L 424.6,258.5 L 422.2,263.0 L 417.9,270.5 L 407.1,289.3 L 405.4,292.2 L 399.6,302.2 L 396.8,307.2 L 395.9,308.8 L 394.6,311.4 L 381.8,340.9 L 372.4,371.1 L 371.1,375.5 L 365.7,394.0 L 364.6,397.9 L 362.1,407.4 L 361.8,408.5 L 360.7,412.9 L 359.4,418.5 L 358.5,423.3 L 356.3,433.5 L 354.1,447.7 L 351.4,471.2 L 350.4,480.0 L 350.2,483.7 L 348.9,507.1 L 348.8,508.6 L 348.8,511.2 L 348.6,515.2 L 348.6,517.3 L 348.7,529.9 L 348.5,573.1 L 348.8,616.5 L 348.8,622.5 L 348.5,629.7 L 347.2,653.8 L 346.6,696.4 L 346.0,714.2 L 345.4,731.5 L 345.0,742.0 L 344.8,749.3 L 344.5,759.7 L 344.2,768.8 L 344.0,772.4 L 343.8,778.8 L 343.7,783.2 L 343.6,789.8 L 343.5,804.9 L 343.5,808.3 L 343.4,809.9 L 343.3,828.4 L 343.4,847.2 L 343.4,859.5 L 343.3,865.6 L 343.1,873.6 L 348.9,879.3 L 354.9,885.6 L 363.2,893.9 L 370.6,900.8 L 372.9,902.7 L 375.7,905.0 L 378.6,906.7 L 381.4,907.7 L 385.2,908.4 L 389.2,908.6 L 406.7,909.2 L 419.5,909.1 L 443.7,909.3 L 446.8,909.3 L 451.6,909.4 L 455.2,909.4 L 494.4,909.9 L 498.0,909.9 L 502.8,909.8 L 523.4,909.7 L 526.3,909.7 L 527.9,909.7 L 532.1,909.7 L 578.5,909.8 L 594.6,909.7 L 612.5,910.0 L 629.7,909.8 L 649.6,909.8 L 650.9,909.8 L 653.7,909.8 L 657.9,909.1 L 666.4,905.8 L 671.3,904.0 L 677.2,901.3 L 683.7,898.4 L 689.2,894.9 L 694.2,890.4 L 699.1,884.9 L 703.6,879.8 L 726.7,853.7 Z" fill="none" stroke="#39404f" stroke-width="8.5" stroke-linejoin="round" stroke-linecap="round"/>
<path d="M 726.7,853.7 L 775.2,798.9 L 778.3,794.0 L 779.2,790.0 L 778.9,786.7 L 776.6,782.0 L 772.8,778.5 L 768.8,776.5 L 764.0,775.0 L 756.7,774.0 L 749.7,774.4 L 743.5,776.1 L 737.2,779.4 L 728.1,785.5 L 714.1,798.9 L 709.5,802.1 L 703.9,803.9 L 697.0,804.9 L 691.3,804.9 L 685.1,802.9 L 679.6,800.8 L 673.9,797.6 L 667.8,792.3 L 662.8,785.9 L 657.0,774.9 L 656.8,759.2 L 656.6,748.9 L 656.6,711.9 L 656.4,707.1 L 656.1,681.2 L 656.0,672.4 L 656.0,668.3 L 655.9,660.9 L 655.9,657.1 L 655.7,646.8 L 655.7,641.9 L 655.6,640.7 L 655.7,636.5 L 655.6,630.2 L 655.6,626.3 L 655.8,597.5 L 655.8,588.0 L 655.8,582.1 L 655.8,575.1 L 655.6,559.8 L 655.4,536.7 L 655.4,534.1 L 655.3,521.2 L 655.3,520.1 L 655.2,515.8 L 655.0,482.9 L 655.0,476.7 L 654.7,442.6 L 654.7,435.6 L 657.0,435.6 L 686.3,435.7 L 689.4,435.7 L 724.4,436.6 L 750.4,437.1 L 754.5,434.2 L 758.3,431.6 L 759.3,430.9 L 771.6,418.9 L 777.1,411.3 L 780.5,404.0 L 781.1,402.5 L 784.0,396.0 L 785.9,386.8 L 786.9,376.3 L 786.9,371.0 L 782.2,369.9 L 777.4,368.8 L 774.5,368.0 L 773.1,367.2 L 771.5,366.1 L 769.9,364.7 L 767.9,362.6 L 766.9,360.8 L 766.2,358.9 L 765.6,356.8 L 765.4,354.8 L 765.3,351.7 L 765.7,349.0 L 766.4,346.3 L 767.1,344.2 L 769.7,338.6 L 775.6,327.1 L 776.2,325.5 L 776.5,323.8 L 776.8,312.2 L 776.9,310.7 L 776.9,308.0 L 764.7,307.8 L 735.6,307.2 L 716.4,306.5 L 695.9,305.9 L 687.3,305.6 L 666.0,305.7 L 665.2,305.7 L 656.2,305.7 L 653.2,305.7 L 649.1,298.2 L 645.3,298.0 L 627.7,297.1 L 612.6,293.6 L 604.0,289.3 L 594.3,280.8 L 586.5,272.7 L 583.1,267.5 L 577.6,255.8 L 566.8,227.1 L 566.8,227.0 L 564.0,219.4 L 562.0,214.2 L 559.3,208.6 L 558.7,207.7 L 556.3,203.5 L 552.7,199.7 L 545.9,193.4 L 538.7,186.9 L 531.8,182.1 L 522.6,178.7 L 519.2,177.4 L 506.6,174.3 L 493.5,171.9 L 484.2,170.1 L 479.2,169.1 L 475.4,168.6 L 471.5,168.0 L 468.3,174.2 L 463.5,184.0 L 461.6,187.7 L 444.4,221.2 L 435.8,237.3 L 428.7,250.8 L 424.6,258.5 L 422.2,263.0 L 417.9,270.5 L 407.1,289.3 L 405.4,292.2 L 399.6,302.2 L 396.8,307.2 L 395.9,308.8 L 394.6,311.4 L 381.8,340.9 L 372.4,371.1 L 371.1,375.5 L 365.7,394.0 L 364.6,397.9 L 362.1,407.4 L 361.8,408.5 L 360.7,412.9 L 359.4,418.5 L 358.5,423.3 L 356.3,433.5 L 354.1,447.7 L 351.4,471.2 L 350.4,480.0 L 350.2,483.7 L 348.9,507.1 L 348.8,508.6 L 348.8,511.2 L 348.6,515.2 L 348.6,517.3 L 348.7,529.9 L 348.5,573.1 L 348.8,616.5 L 348.8,622.5 L 348.5,629.7 L 347.2,653.8 L 346.6,696.4 L 346.0,714.2 L 345.4,731.5 L 345.0,742.0 L 344.8,749.3 L 344.5,759.7 L 344.2,768.8 L 344.0,772.4 L 343.8,778.8 L 343.7,783.2 L 343.6,789.8 L 343.5,804.9 L 343.5,808.3 L 343.4,809.9 L 343.3,828.4 L 343.4,847.2 L 343.4,859.5 L 343.3,865.6 L 343.1,873.6 L 348.9,879.3 L 354.9,885.6 L 363.2,893.9 L 370.6,900.8 L 372.9,902.7 L 375.7,905.0 L 378.6,906.7 L 381.4,907.7 L 385.2,908.4 L 389.2,908.6 L 406.7,909.2 L 419.5,909.1 L 443.7,909.3 L 446.8,909.3 L 451.6,909.4 L 455.2,909.4 L 494.4,909.9 L 498.0,909.9 L 502.8,909.8 L 523.4,909.7 L 526.3,909.7 L 527.9,909.7 L 532.1,909.7 L 578.5,909.8 L 594.6,909.7 L 612.5,910.0 L 629.7,909.8 L 649.6,909.8 L 650.9,909.8 L 653.7,909.8 L 657.9,909.1 L 666.4,905.8 L 671.3,904.0 L 677.2,901.3 L 683.7,898.4 L 689.2,894.9 L 694.2,890.4 L 699.1,884.9 L 703.6,879.8 L 726.7,853.7 Z" fill="none" stroke="#e7edf8" stroke-width="2.6" stroke-linejoin="round" stroke-linecap="round"/>
<path d="M 726.7,853.7 L 775.2,798.9 L 778.3,794.0 L 779.2,790.0 L 778.9,786.7 L 776.6,782.0 L 772.8,778.5 L 768.8,776.5 L 764.0,775.0 L 756.7,774.0 L 749.7,774.4 L 743.5,776.1 L 737.2,779.4 L 728.1,785.5 L 714.1,798.9 L 709.5,802.1 L 703.9,803.9 L 697.0,804.9 L 691.3,804.9 L 685.1,802.9 L 679.6,800.8 L 673.9,797.6 L 667.8,792.3 L 662.8,785.9 L 657.0,774.9 L 656.8,759.2 L 656.6,748.9 L 656.6,711.9 L 656.4,707.1 L 656.1,681.2 L 656.0,672.4 L 656.0,668.3 L 655.9,660.9 L 655.9,657.1 L 655.7,646.8 L 655.7,641.9 L 655.6,640.7 L 655.7,636.5 L 655.6,630.2 L 655.6,626.3 L 655.8,597.5 L 655.8,588.0 L 655.8,582.1 L 655.8,575.1 L 655.6,559.8 L 655.4,536.7 L 655.4,534.1 L 655.3,521.2 L 655.3,520.1 L 655.2,515.8 L 655.0,482.9 L 655.0,476.7 L 654.7,442.6 L 654.7,435.6 L 657.0,435.6 L 686.3,435.7 L 689.4,435.7 L 724.4,436.6 L 750.4,437.1 L 754.5,434.2 L 758.3,431.6 L 759.3,430.9 L 771.6,418.9 L 777.1,411.3 L 780.5,404.0 L 781.1,402.5 L 784.0,396.0 L 785.9,386.8 L 786.9,376.3 L 786.9,371.0 L 782.2,369.9 L 777.4,368.8 L 774.5,368.0 L 773.1,367.2 L 771.5,366.1 L 769.9,364.7 L 767.9,362.6 L 766.9,360.8 L 766.2,358.9 L 765.6,356.8 L 765.4,354.8 L 765.3,351.7 L 765.7,349.0 L 766.4,346.3 L 767.1,344.2 L 769.7,338.6 L 775.6,327.1 L 776.2,325.5 L 776.5,323.8 L 776.8,312.2 L 776.9,310.7 L 776.9,308.0 L 764.7,307.8 L 735.6,307.2 L 716.4,306.5 L 695.9,305.9 L 687.3,305.6 L 666.0,305.7 L 665.2,305.7 L 656.2,305.7 L 653.2,305.7 L 649.1,298.2 L 645.3,298.0 L 627.7,297.1 L 612.6,293.6 L 604.0,289.3 L 594.3,280.8 L 586.5,272.7 L 583.1,267.5 L 577.6,255.8 L 566.8,227.1 L 566.8,227.0 L 564.0,219.4 L 562.0,214.2 L 559.3,208.6 L 558.7,207.7 L 556.3,203.5 L 552.7,199.7 L 545.9,193.4 L 538.7,186.9 L 531.8,182.1 L 522.6,178.7 L 519.2,177.4 L 506.6,174.3 L 493.5,171.9 L 484.2,170.1 L 479.2,169.1 L 475.4,168.6 L 471.5,168.0 L 468.3,174.2 L 463.5,184.0 L 461.6,187.7 L 444.4,221.2 L 435.8,237.3 L 428.7,250.8 L 424.6,258.5 L 422.2,263.0 L 417.9,270.5 L 407.1,289.3 L 405.4,292.2 L 399.6,302.2 L 396.8,307.2 L 395.9,308.8 L 394.6,311.4 L 381.8,340.9 L 372.4,371.1 L 371.1,375.5 L 365.7,394.0 L 364.6,397.9 L 362.1,407.4 L 361.8,408.5 L 360.7,412.9 L 359.4,418.5 L 358.5,423.3 L 356.3,433.5 L 354.1,447.7 L 351.4,471.2 L 350.4,480.0 L 350.2,483.7 L 348.9,507.1 L 348.8,508.6 L 348.8,511.2 L 348.6,515.2 L 348.6,517.3 L 348.7,529.9 L 348.5,573.1 L 348.8,616.5 L 348.8,622.5 L 348.5,629.7 L 347.2,653.8 L 346.6,696.4 L 346.0,714.2 L 345.4,731.5 L 345.0,742.0 L 344.8,749.3 L 344.5,759.7 L 344.2,768.8 L 344.0,772.4 L 343.8,778.8 L 343.7,783.2 L 343.6,789.8 L 343.5,804.9 L 343.5,808.3 L 343.4,809.9 L 343.3,828.4 L 343.4,847.2 L 343.4,859.5 L 343.3,865.6 L 343.1,873.6 L 348.9,879.3 L 354.9,885.6 L 363.2,893.9 L 370.6,900.8 L 372.9,902.7 L 375.7,905.0 L 378.6,906.7 L 381.4,907.7 L 385.2,908.4 L 389.2,908.6 L 406.7,909.2 L 419.5,909.1 L 443.7,909.3 L 446.8,909.3 L 451.6,909.4 L 455.2,909.4 L 494.4,909.9 L 498.0,909.9 L 502.8,909.8 L 523.4,909.7 L 526.3,909.7 L 527.9,909.7 L 532.1,909.7 L 578.5,909.8 L 594.6,909.7 L 612.5,910.0 L 629.7,909.8 L 649.6,909.8 L 650.9,909.8 L 653.7,909.8 L 657.9,909.1 L 666.4,905.8 L 671.3,904.0 L 677.2,901.3 L 683.7,898.4 L 689.2,894.9 L 694.2,890.4 L 699.1,884.9 L 703.6,879.8 L 726.7,853.7 Z" fill="none" stroke="#ff5a36" stroke-opacity="0.55" stroke-width="1.2" stroke-linejoin="round" filter="url(#glow)"/>
<circle cx="665.2" cy="305.7" r="13" fill="none" stroke="#ffffff" stroke-width="3"/>
<rect x="661.2" y="283.7" width="8" height="18" fill="#ffffff"/>
<circle cx="776.7" cy="313.7" r="7" fill="#ff5a36" stroke="#0a0c12" stroke-width="2.5" filter="url(#glow)"/>
<text x="776.7" y="317.1" font-size="9" font-weight="700" fill="#0a0c12" text-anchor="middle">1</text>
<circle cx="765.4" cy="355.1" r="7" fill="#ff5a36" stroke="#0a0c12" stroke-width="2.5" filter="url(#glow)"/>
<text x="765.4" y="358.5" font-size="9" font-weight="700" fill="#0a0c12" text-anchor="middle">2</text>
<circle cx="499.0" cy="172.9" r="7" fill="#ff5a36" stroke="#0a0c12" stroke-width="2.5" filter="url(#glow)"/>
<text x="499.0" y="176.3" font-size="9" font-weight="700" fill="#0a0c12" text-anchor="middle">3</text>
<circle cx="763.2" cy="427.1" r="7" fill="#ff5a36" stroke="#0a0c12" stroke-width="2.5" filter="url(#glow)"/>
<text x="763.2" y="430.5" font-size="9" font-weight="700" fill="#0a0c12" text-anchor="middle">4</text>
<circle cx="656.0" cy="669.1" r="7" fill="#ff5a36" stroke="#0a0c12" stroke-width="2.5" filter="url(#glow)"/>
<text x="656.0" y="672.5" font-size="9" font-weight="700" fill="#0a0c12" text-anchor="middle">5</text>
<circle cx="662.4" cy="785.1" r="7" fill="#ff5a36" stroke="#0a0c12" stroke-width="2.5" filter="url(#glow)"/>
<text x="662.4" y="788.5" font-size="9" font-weight="700" fill="#0a0c12" text-anchor="middle">6</text>
<circle cx="716.9" cy="796.2" r="7" fill="#ff5a36" stroke="#0a0c12" stroke-width="2.5" filter="url(#glow)"/>
<text x="716.9" y="799.6" font-size="9" font-weight="700" fill="#0a0c12" text-anchor="middle">7</text>
<circle cx="730.0" cy="784.2" r="7" fill="#ff5a36" stroke="#0a0c12" stroke-width="2.5" filter="url(#glow)"/>
<text x="730.0" y="787.6" font-size="9" font-weight="700" fill="#0a0c12" text-anchor="middle">8</text>
<circle cx="778.0" cy="784.8" r="7" fill="#ff5a36" stroke="#0a0c12" stroke-width="2.5" filter="url(#glow)"/>
<text x="778.0" y="788.2" font-size="9" font-weight="700" fill="#0a0c12" text-anchor="middle">9</text>
<circle cx="634.8" cy="909.8" r="7" fill="#ff5a36" stroke="#0a0c12" stroke-width="2.5" filter="url(#glow)"/>
<text x="634.8" y="913.2" font-size="9" font-weight="700" fill="#0a0c12" text-anchor="middle">10</text>
<circle cx="544.9" cy="909.7" r="7" fill="#ff5a36" stroke="#0a0c12" stroke-width="2.5" filter="url(#glow)"/>
<text x="544.9" y="913.1" font-size="9" font-weight="700" fill="#0a0c12" text-anchor="middle">11</text>
<circle cx="457.6" cy="909.5" r="7" fill="#ff5a36" stroke="#0a0c12" stroke-width="2.5" filter="url(#glow)"/>
<text x="457.6" y="912.9" font-size="9" font-weight="700" fill="#0a0c12" text-anchor="middle">12</text>
<circle cx="346.7" cy="689.8" r="7" fill="#ff5a36" stroke="#0a0c12" stroke-width="2.5" filter="url(#glow)"/>
<text x="346.7" y="693.2" font-size="9" font-weight="700" fill="#0a0c12" text-anchor="middle">13</text>
<circle cx="416.7" cy="272.6" r="7" fill="#ff5a36" stroke="#0a0c12" stroke-width="2.5" filter="url(#glow)"/>
<text x="416.7" y="276.0" font-size="9" font-weight="700" fill="#0a0c12" text-anchor="middle">14</text>
<circle cx="425.1" cy="257.4" r="7" fill="#ff5a36" stroke="#0a0c12" stroke-width="2.5" filter="url(#glow)"/>
<text x="425.1" y="260.8" font-size="9" font-weight="700" fill="#0a0c12" text-anchor="middle">15</text>
<circle cx="437.9" cy="233.3" r="7" fill="#ff5a36" stroke="#0a0c12" stroke-width="2.5" filter="url(#glow)"/>
<text x="437.9" y="236.7" font-size="9" font-weight="700" fill="#0a0c12" text-anchor="middle">16</text>
<circle cx="629.9" cy="297.2" r="7" fill="#ff5a36" stroke="#0a0c12" stroke-width="2.5" filter="url(#glow)"/>
<text x="629.9" y="300.6" font-size="9" font-weight="700" fill="#0a0c12" text-anchor="middle">17</text>
<line x1="776.7" y1="313.7" x2="809.7" y2="278.3" stroke="#ff5a36" stroke-opacity="0.45" stroke-width="1.3"/>
<text x="817.7" y="282.3" font-size="15" font-weight="600" fill="#eef2fb" text-anchor="start">T1</text>
<line x1="765.4" y1="355.1" x2="800.9" y2="317.1" stroke="#ff5a36" stroke-opacity="0.45" stroke-width="1.3"/>
<text x="808.9" y="321.1" font-size="15" font-weight="600" fill="#eef2fb" text-anchor="start">T2</text>
<line x1="499.0" y1="172.9" x2="488.9" y2="168.0" stroke="#ff5a36" stroke-opacity="0.45" stroke-width="1.3"/>
<text x="480.9" y="172.0" font-size="15" font-weight="600" fill="#eef2fb" text-anchor="end">T3</text>
<line x1="763.2" y1="427.1" x2="805.8" y2="397.2" stroke="#ff5a36" stroke-opacity="0.45" stroke-width="1.3"/>
<text x="813.8" y="401.2" font-size="15" font-weight="600" fill="#eef2fb" text-anchor="start">T4</text>
<line x1="656.0" y1="669.1" x2="686.6" y2="711.1" stroke="#ff5a36" stroke-opacity="0.45" stroke-width="1.3"/>
<text x="694.6" y="715.1" font-size="15" font-weight="600" fill="#eef2fb" text-anchor="start">T5</text>
<line x1="730.0" y1="784.2" x2="759.4" y2="827.0" stroke="#ff5a36" stroke-opacity="0.45" stroke-width="1.3"/>
<text x="767.4" y="831.0" font-size="15" font-weight="600" fill="#eef2fb" text-anchor="start">Sphere section</text>
<line x1="634.8" y1="909.8" x2="643.4" y2="930.0" stroke="#ff5a36" stroke-opacity="0.45" stroke-width="1.3"/>
<text x="651.4" y="934.0" font-size="15" font-weight="600" fill="#eef2fb" text-anchor="start">T10</text>
<line x1="544.9" y1="909.7" x2="540.4" y2="930.0" stroke="#ff5a36" stroke-opacity="0.45" stroke-width="1.3"/>
<text x="532.4" y="934.0" font-size="15" font-weight="600" fill="#eef2fb" text-anchor="end">T11</text>
<line x1="457.6" y1="909.5" x2="441.0" y2="930.0" stroke="#ff5a36" stroke-opacity="0.45" stroke-width="1.3"/>
<text x="433.0" y="934.0" font-size="15" font-weight="600" fill="#eef2fb" text-anchor="end">Strip entry</text>
<line x1="346.7" y1="689.8" x2="301.6" y2="715.6" stroke="#ff5a36" stroke-opacity="0.45" stroke-width="1.3"/>
<text x="293.6" y="719.6" font-size="15" font-weight="600" fill="#eef2fb" text-anchor="end">T13</text>
<line x1="416.7" y1="272.6" x2="391.4" y2="264.0" stroke="#ff5a36" stroke-opacity="0.45" stroke-width="1.3"/>
<text x="383.4" y="268.0" font-size="15" font-weight="600" fill="#eef2fb" text-anchor="end">End of the Strip</text>
<line x1="425.1" y1="257.4" x2="401.9" y2="232.0" stroke="#ff5a36" stroke-opacity="0.45" stroke-width="1.3"/>
<text x="393.9" y="236.0" font-size="15" font-weight="600" fill="#eef2fb" text-anchor="end">T15</text>
<line x1="437.9" y1="233.3" x2="417.7" y2="200.0" stroke="#ff5a36" stroke-opacity="0.45" stroke-width="1.3"/>
<text x="409.7" y="204.0" font-size="15" font-weight="600" fill="#eef2fb" text-anchor="end">T16</text>
<line x1="629.9" y1="297.2" x2="640.5" y2="246.3" stroke="#ff5a36" stroke-opacity="0.45" stroke-width="1.3"/>
<text x="648.5" y="250.3" font-size="15" font-weight="600" fill="#eef2fb" text-anchor="start">T17</text>
<text x="90" y="64" font-size="20" letter-spacing="5" fill="#ff5a36" font-weight="700">TRACK ATLAS</text>
<text x="90" y="108" font-size="42" font-weight="800" fill="#ffffff">LAS VEGAS STRIP CIRCUIT</text>
<text x="90" y="136" font-size="16" fill="#9aa6bd">Las Vegas</text>
<rect x="1170" y="200" width="360" height="710" rx="16" fill="#ffffff" fill-opacity="0.04" stroke="#ff5a36" stroke-opacity="0.5"/>
<text x="1198" y="250" font-size="13" letter-spacing="2" fill="#8794ab">LAYOUT</text>
<text x="1198" y="276" font-size="22" font-weight="700" fill="#eef2fb">Grand Prix Circuit</text>
<text x="1198" y="320" font-size="13" letter-spacing="2" fill="#8794ab">LENGTH</text>
<text x="1198" y="346" font-size="22" font-weight="700" fill="#eef2fb">6.201 km</text>
<text x="1198" y="390" font-size="13" letter-spacing="2" fill="#8794ab">CORNERS</text>
<text x="1198" y="416" font-size="22" font-weight="700" fill="#eef2fb">17</text>
<text x="1198" y="460" font-size="13" letter-spacing="2" fill="#8794ab">NAMED CORNERS</text>
<text x="1198" y="486" font-size="22" font-weight="700" fill="#eef2fb">17</text>
<text x="1198" y="530" font-size="13" letter-spacing="2" fill="#8794ab">DIRECTION</text>
<text x="1198" y="556" font-size="22" font-weight="700" fill="#eef2fb">Anticlockwise</text>
<text x="1198" y="600" font-size="13" letter-spacing="2" fill="#8794ab">SECTORS</text>
<text x="1198" y="626" font-size="22" font-weight="700" fill="#eef2fb">3</text>
<text x="1198" y="670" font-size="13" letter-spacing="2" fill="#8794ab">COUNTRY</text>
<text x="1198" y="696" font-size="22" font-weight="700" fill="#eef2fb">USA</text>
<text x="1198" y="740" font-size="13" letter-spacing="2" fill="#8794ab">LOCATION</text>
<text x="1198" y="766" font-size="22" font-weight="700" fill="#eef2fb">Las Vegas, Nevada</text>
<text x="1198" y="810" font-size="13" letter-spacing="2" fill="#8794ab">COMPLEXES</text>
<rect x="1198" y="816" width="126" height="24" rx="12" fill="#ff5a36" fill-opacity="0.16" stroke="#ff5a36" stroke-opacity="0.5"/>
<text x="1261" y="833" font-size="12" fill="#eef2fb" text-anchor="middle">Sphere section</text>
<text x="90" y="966" font-size="12" fill="#566177">Geometry © OpenStreetMap contributors (ODbL) · corner data: Lovely-Sim-Racing + curated · track-atlas</text>
<text x="90" y="942" font-size="12" fill="#8794ab">⚑ start / finish</text>
</svg>