<svg xmlns="http://www.w3.org/2000/svg" width="1600" height="1000" viewBox="0 0 1600 1000" font-family="Helvetica, Arial, sans-serif">
<defs>
      <radialGradient id="bg" cx="38%" cy="34%" r="85%">
        <stop offset="0%" stop-color="#1b2030"/>
        <stop offset="55%" stop-color="#12151f"/>
        <stop offset="100%" stop-color="#0a0c12"/>
      </radialGradient>
      <linearGradient id="accent" x1="0" y1="0" x2="1" y2="1">
        <stop offset="0%" stop-color="#ff5a36"/>
        <stop offset="100%" stop-color="#ffffff"/>
      </linearGradient>
      <filter id="glow" x="-40%" y="-40%" width="180%" height="180%">
        <feGaussianBlur stdDeviation="6" result="b"/>
        <feMerge><feMergeNode in="b"/><feMergeNode in="SourceGraphic"/></feMerge>
      </filter>
    </defs>
<rect width="1600" height="1000" fill="url(#bg)"/>
<line x1="0" y1="0" x2="0" y2="1000" stroke="#ffffff" stroke-opacity="0.025"/>
<line x1="56" y1="0" x2="56" y2="1000" stroke="#ffffff" stroke-opacity="0.025"/>
<line x1="112" y1="0" x2="112" y2="1000" stroke="#ffffff" stroke-opacity="0.025"/>
<line x1="168" y1="0" x2="168" y2="1000" stroke="#ffffff" stroke-opacity="0.025"/>
<line x1="224" y1="0" x2="224" y2="1000" stroke="#ffffff" stroke-opacity="0.025"/>
<line x1="280" y1="0" x2="280" y2="1000" stroke="#ffffff" stroke-opacity="0.025"/>
<line x1="336" y1="0" x2="336" y2="1000" stroke="#ffffff" stroke-opacity="0.025"/>
<line x1="392" y1="0" x2="392" y2="1000" stroke="#ffffff" stroke-opacity="0.025"/>
<line x1="448" y1="0" x2="448" y2="1000" stroke="#ffffff" stroke-opacity="0.025"/>
<line x1="504" y1="0" x2="504" y2="1000" stroke="#ffffff" stroke-opacity="0.025"/>
<line x1="560" y1="0" x2="560" y2="1000" stroke="#ffffff" stroke-opacity="0.025"/>
<line x1="616" y1="0" x2="616" y2="1000" stroke="#ffffff" stroke-opacity="0.025"/>
<line x1="672" y1="0" x2="672" y2="1000" stroke="#ffffff" stroke-opacity="0.025"/>
<line x1="728" y1="0" x2="728" y2="1000" stroke="#ffffff" stroke-opacity="0.025"/>
<line x1="784" y1="0" x2="784" y2="1000" stroke="#ffffff" stroke-opacity="0.025"/>
<line x1="840" y1="0" x2="840" y2="1000" stroke="#ffffff" stroke-opacity="0.025"/>
<line x1="896" y1="0" x2="896" y2="1000" stroke="#ffffff" stroke-opacity="0.025"/>
<line x1="952" y1="0" x2="952" y2="1000" stroke="#ffffff" stroke-opacity="0.025"/>
<line x1="1008" y1="0" x2="1008" y2="1000" stroke="#ffffff" stroke-opacity="0.025"/>
<line x1="1064" y1="0" x2="1064" y2="1000" stroke="#ffffff" stroke-opacity="0.025"/>
<line x1="1120" y1="0" x2="1120" y2="1000" stroke="#ffffff" stroke-opacity="0.025"/>
<line x1="1176" y1="0" x2="1176" y2="1000" stroke="#ffffff" stroke-opacity="0.025"/>
<line x1="1232" y1="0" x2="1232" y2="1000" stroke="#ffffff" stroke-opacity="0.025"/>
<line x1="1288" y1="0" x2="1288" y2="1000" stroke="#ffffff" stroke-opacity="0.025"/>
<line x1="1344" y1="0" x2="1344" y2="1000" stroke="#ffffff" stroke-opacity="0.025"/>
<line x1="1400" y1="0" x2="1400" y2="1000" stroke="#ffffff" stroke-opacity="0.025"/>
<line x1="1456" y1="0" x2="1456" y2="1000" stroke="#ffffff" stroke-opacity="0.025"/>
<line x1="1512" y1="0" x2="1512" y2="1000" stroke="#ffffff" stroke-opacity="0.025"/>
<line x1="1568" y1="0" x2="1568" y2="1000" stroke="#ffffff" stroke-opacity="0.025"/>
<line x1="0" y1="0" x2="1600" y2="0" stroke="#ffffff" stroke-opacity="0.025"/>
<line x1="0" y1="56" x2="1600" y2="56" stroke="#ffffff" stroke-opacity="0.025"/>
<line x1="0" y1="112" x2="1600" y2="112" stroke="#ffffff" stroke-opacity="0.025"/>
<line x1="0" y1="168" x2="1600" y2="168" stroke="#ffffff" stroke-opacity="0.025"/>
<line x1="0" y1="224" x2="1600" y2="224" stroke="#ffffff" stroke-opacity="0.025"/>
<line x1="0" y1="280" x2="1600" y2="280" stroke="#ffffff" stroke-opacity="0.025"/>
<line x1="0" y1="336" x2="1600" y2="336" stroke="#ffffff" stroke-opacity="0.025"/>
<line x1="0" y1="392" x2="1600" y2="392" stroke="#ffffff" stroke-opacity="0.025"/>
<line x1="0" y1="448" x2="1600" y2="448" stroke="#ffffff" stroke-opacity="0.025"/>
<line x1="0" y1="504" x2="1600" y2="504" stroke="#ffffff" stroke-opacity="0.025"/>
<line x1="0" y1="560" x2="1600" y2="560" stroke="#ffffff" stroke-opacity="0.025"/>
<line x1="0" y1="616" x2="1600" y2="616" stroke="#ffffff" stroke-opacity="0.025"/>
<line x1="0" y1="672" x2="1600" y2="672" stroke="#ffffff" stroke-opacity="0.025"/>
<line x1="0" y1="728" x2="1600" y2="728" stroke="#ffffff" stroke-opacity="0.025"/>
<line x1="0" y1="784" x2="1600" y2="784" stroke="#ffffff" stroke-opacity="0.025"/>
<line x1="0" y1="840" x2="1600" y2="840" stroke="#ffffff" stroke-opacity="0.025"/>
<line x1="0" y1="896" x2="1600" y2="896" stroke="#ffffff" stroke-opacity="0.025"/>
<line x1="0" y1="952" x2="1600" y2="952" stroke="#ffffff" stroke-opacity="0.025"/>
<path d="M 624.6,898.9 L 373.4,700.8 L 314.8,654.4 L 209.6,571.3 L 208.1,569.9 L 206.5,568.2 L 205.2,566.8 L 204.3,565.5 L 203.5,564.3 L 202.7,562.7 L 202.0,561.0 L 201.5,559.4 L 201.2,557.9 L 201.0,556.3 L 201.0,554.8 L 201.1,553.3 L 201.3,552.0 L 201.5,551.1 L 201.8,550.0 L 202.2,549.0 L 202.5,548.1 L 203.0,547.1 L 203.5,546.2 L 204.1,545.2 L 204.7,544.4 L 205.3,543.7 L 205.9,543.1 L 206.6,542.4 L 207.2,541.8 L 207.9,541.3 L 208.9,540.7 L 209.9,540.1 L 211.1,539.6 L 212.4,539.1 L 213.7,538.7 L 215.1,538.5 L 216.9,538.2 L 219.7,537.9 L 223.2,537.6 L 226.6,537.4 L 235.1,537.5 L 243.1,537.8 L 252.5,538.2 L 261.0,538.7 L 266.6,539.3 L 273.4,540.2 L 282.5,542.0 L 291.8,544.0 L 299.6,546.2 L 305.4,548.1 L 310.7,550.2 L 315.9,552.1 L 322.0,555.0 L 330.2,559.0 L 336.6,562.9 L 344.4,568.1 L 352.2,574.0 L 371.5,589.3 L 413.8,622.8 L 457.3,657.3 L 460.1,659.5 L 462.7,661.4 L 465.6,663.0 L 468.3,664.2 L 470.9,665.2 L 473.7,666.1 L 476.4,666.6 L 479.4,666.9 L 482.4,666.7 L 485.1,666.3 L 488.2,665.5 L 491.7,664.4 L 494.8,663.3 L 497.4,661.9 L 499.4,660.8 L 501.8,659.0 L 504.7,656.5 L 507.4,653.4 L 509.9,649.4 L 511.5,645.7 L 512.6,641.7 L 513.3,637.6 L 513.8,633.5 L 513.7,629.8 L 513.5,625.7 L 512.4,621.8 L 510.3,616.6 L 479.4,561.8 L 477.9,558.7 L 476.7,556.0 L 475.8,553.7 L 474.9,551.1 L 474.1,548.6 L 473.6,546.4 L 473.4,544.7 L 473.1,542.8 L 473.1,541.4 L 473.1,539.3 L 473.4,536.8 L 473.8,533.8 L 474.4,531.3 L 475.3,528.5 L 476.7,525.3 L 510.2,457.0 L 567.3,340.7 L 572.0,331.7 L 576.6,323.0 L 581.3,315.0 L 586.3,307.0 L 592.3,298.2 L 599.2,289.3 L 607.4,279.0 L 609.6,276.7 L 619.0,267.0 L 621.1,264.4 L 622.2,262.2 L 623.0,260.3 L 623.6,258.6 L 624.1,256.8 L 624.4,254.9 L 624.6,252.9 L 624.6,251.0 L 624.6,249.2 L 624.5,247.7 L 624.3,246.1 L 624.0,244.2 L 623.5,242.5 L 623.1,240.7 L 597.0,145.5 L 595.5,137.7 L 595.2,134.9 L 595.0,132.8 L 594.8,130.4 L 594.9,128.2 L 595.2,125.5 L 595.6,123.5 L 596.0,122.1 L 596.4,120.3 L 597.0,118.4 L 597.7,116.5 L 598.4,114.8 L 599.2,112.9 L 600.0,111.2 L 600.9,109.4 L 601.9,107.8 L 603.1,106.1 L 604.5,104.3 L 605.9,102.7 L 607.4,101.2 L 608.6,100.1 L 610.3,98.7 L 612.3,97.2 L 614.0,96.1 L 616.0,95.0 L 617.8,94.0 L 620.2,92.9 L 623.0,91.9 L 625.6,91.0 L 628.5,90.4 L 631.1,90.0 L 633.4,90.0 L 636.2,90.0 L 638.7,90.1 L 641.7,90.5 L 644.7,91.0 L 647.3,91.8 L 650.7,93.2 L 653.4,94.4 L 674.1,106.9 L 683.3,113.3 L 690.9,119.6 L 698.6,126.5 L 708.2,135.7 L 771.7,203.9 L 772.5,205.0 L 773.2,206.0 L 773.9,207.1 L 774.4,208.3 L 774.8,209.7 L 775.1,211.1 L 775.1,212.8 L 775.0,214.5 L 774.9,216.1 L 774.7,217.6 L 774.5,218.5 L 774.2,219.3 L 773.9,220.1 L 773.4,220.9 L 772.9,221.6 L 772.1,222.6 L 771.3,223.3 L 767.0,228.1 L 766.2,229.0 L 765.3,230.1 L 764.6,231.0 L 763.9,232.1 L 763.4,233.3 L 762.9,234.8 L 762.6,236.4 L 762.4,237.9 L 762.4,239.8 L 762.6,242.2 L 763.0,244.4 L 763.6,247.1 L 787.0,334.0 L 787.5,335.6 L 788.2,337.2 L 788.8,338.7 L 789.4,340.1 L 790.2,341.3 L 791.1,342.8 L 792.1,344.2 L 793.1,345.5 L 794.4,347.0 L 795.6,348.4 L 796.9,349.4 L 798.6,350.7 L 800.1,351.7 L 801.9,352.7 L 803.9,353.5 L 805.7,354.0 L 807.3,354.4 L 809.0,354.7 L 855.4,360.1 L 857.9,360.5 L 860.3,361.0 L 862.7,361.6 L 864.7,362.2 L 866.4,362.9 L 868.1,363.7 L 870.1,364.8 L 872.1,366.1 L 873.8,367.4 L 876.0,369.2 L 877.8,370.9 L 879.6,372.7 L 881.4,374.9 L 882.4,376.4 L 883.4,378.2 L 884.3,380.2 L 885.2,382.8 L 886.1,386.3 L 886.5,389.2 L 886.6,392.0 L 886.6,394.6 L 886.4,396.7 L 886.1,398.8 L 874.3,485.8 L 874.0,489.1 L 873.7,492.6 L 873.6,494.8 L 873.6,496.8 L 873.7,498.9 L 873.9,501.1 L 874.1,503.1 L 874.3,505.1 L 874.6,506.9 L 875.0,509.3 L 875.6,511.7 L 876.3,514.3 L 877.1,516.9 L 878.1,519.6 L 879.3,522.6 L 880.8,526.0 L 882.1,528.4 L 883.3,530.5 L 884.7,532.8 L 886.3,535.2 L 922.5,590.1 L 924.3,593.3 L 925.1,594.9 L 925.8,596.4 L 926.5,598.4 L 927.2,600.4 L 927.8,602.6 L 928.3,604.9 L 928.6,607.2 L 928.8,609.4 L 929.0,611.7 L 929.0,614.3 L 928.8,616.8 L 928.5,619.2 L 928.1,621.8 L 927.6,624.1 L 927.1,626.3 L 926.2,629.0 L 925.2,631.9 L 923.6,635.2 L 921.9,638.2 L 920.0,641.2 L 917.5,644.7 L 914.4,648.7 L 904.9,659.7 L 825.3,748.5 L 760.0,821.3 L 759.0,822.4 L 757.8,823.4 L 756.7,824.5 L 755.6,825.4 L 754.3,826.2 L 753.1,826.9 L 751.6,827.5 L 749.9,828.1 L 748.2,828.5 L 746.6,828.6 L 745.0,828.5 L 743.5,828.3 L 742.3,828.0 L 740.9,827.5 L 739.5,827.1 L 738.3,826.5 L 737.1,825.8 L 736.1,825.2 L 735.6,824.9 L 735.0,824.4 L 734.2,823.7 L 733.1,822.8 L 731.9,821.6 L 687.0,771.9 L 683.9,769.0 L 679.2,764.6 L 646.8,738.8 L 645.8,738.0 L 644.9,737.4 L 643.9,736.7 L 642.7,736.1 L 641.4,735.5 L 639.9,734.9 L 638.4,734.4 L 636.9,734.0 L 635.4,733.7 L 634.2,733.5 L 632.9,733.4 L 631.2,733.3 L 629.4,733.3 L 627.2,733.4 L 625.0,733.7 L 623.5,733.9 L 622.0,734.2 L 620.7,734.6 L 619.4,735.0 L 618.3,735.5 L 616.9,736.1 L 615.5,737.0 L 614.2,737.8 L 613.1,738.6 L 612.0,739.5 L 610.9,740.4 L 609.7,741.4 L 608.8,742.3 L 607.9,743.5 L 607.0,744.7 L 606.2,746.1 L 605.4,747.8 L 604.1,750.8 L 603.2,754.4 L 603.0,756.1 L 602.9,758.1 L 602.8,760.1 L 602.9,762.0 L 603.0,763.8 L 603.2,765.7 L 603.5,767.4 L 604.0,769.1 L 604.8,771.2 L 605.7,773.1 L 606.7,774.9 L 608.0,776.8 L 609.1,778.2 L 610.2,779.4 L 611.1,780.3 L 611.7,780.8 L 682.7,836.1 L 687.1,840.2 L 688.5,841.6 L 689.7,842.9 L 690.5,844.1 L 691.4,845.4 L 692.2,846.9 L 692.9,848.5 L 693.8,850.3 L 694.7,852.5 L 695.4,854.6 L 696.0,856.7 L 696.5,858.8 L 696.8,861.0 L 697.1,863.1 L 697.3,865.2 L 697.3,867.6 L 697.3,870.0 L 697.1,872.2 L 696.9,874.2 L 696.6,876.3 L 696.1,878.4 L 695.5,880.7 L 694.7,883.1 L 693.7,885.6 L 692.8,887.6 L 691.7,889.6 L 690.5,891.4 L 689.4,892.9 L 688.3,894.3 L 686.8,895.9 L 685.2,897.4 L 683.7,898.8 L 681.9,900.3 L 680.4,901.6 L 678.8,902.8 L 677.3,903.8 L 675.6,904.8 L 673.9,905.7 L 672.2,906.5 L 670.4,907.2 L 668.5,907.8 L 666.6,908.4 L 664.6,908.9 L 662.3,909.4 L 660.3,909.7 L 658.0,909.9 L 655.7,910.0 L 653.0,909.8 L 649.9,909.6 L 647.7,909.3 L 645.4,908.9 L 643.2,908.4 L 637.7,906.5 L 633.0,904.4 L 628.0,901.3 L 624.6,898.9 Z" fill="none" stroke="#000000" stroke-opacity="0.5" stroke-width="13" stroke-linejoin="round" stroke-linecap="round"/>
<path d="M 624.6,898.9 L 373.4,700.8 L 314.8,654.4 L 209.6,571.3 L 208.1,569.9 L 206.5,568.2 L 205.2,566.8 L 204.3,565.5 L 203.5,564.3 L 202.7,562.7 L 202.0,561.0 L 201.5,559.4 L 201.2,557.9 L 201.0,556.3 L 201.0,554.8 L 201.1,553.3 L 201.3,552.0 L 201.5,551.1 L 201.8,550.0 L 202.2,549.0 L 202.5,548.1 L 203.0,547.1 L 203.5,546.2 L 204.1,545.2 L 204.7,544.4 L 205.3,543.7 L 205.9,543.1 L 206.6,542.4 L 207.2,541.8 L 207.9,541.3 L 208.9,540.7 L 209.9,540.1 L 211.1,539.6 L 212.4,539.1 L 213.7,538.7 L 215.1,538.5 L 216.9,538.2 L 219.7,537.9 L 223.2,537.6 L 226.6,537.4 L 235.1,537.5 L 243.1,537.8 L 252.5,538.2 L 261.0,538.7 L 266.6,539.3 L 273.4,540.2 L 282.5,542.0 L 291.8,544.0 L 299.6,546.2 L 305.4,548.1 L 310.7,550.2 L 315.9,552.1 L 322.0,555.0 L 330.2,559.0 L 336.6,562.9 L 344.4,568.1 L 352.2,574.0 L 371.5,589.3 L 413.8,622.8 L 457.3,657.3 L 460.1,659.5 L 462.7,661.4 L 465.6,663.0 L 468.3,664.2 L 470.9,665.2 L 473.7,666.1 L 476.4,666.6 L 479.4,666.9 L 482.4,666.7 L 485.1,666.3 L 488.2,665.5 L 491.7,664.4 L 494.8,663.3 L 497.4,661.9 L 499.4,660.8 L 501.8,659.0 L 504.7,656.5 L 507.4,653.4 L 509.9,649.4 L 511.5,645.7 L 512.6,641.7 L 513.3,637.6 L 513.8,633.5 L 513.7,629.8 L 513.5,625.7 L 512.4,621.8 L 510.3,616.6 L 479.4,561.8 L 477.9,558.7 L 476.7,556.0 L 475.8,553.7 L 474.9,551.1 L 474.1,548.6 L 473.6,546.4 L 473.4,544.7 L 473.1,542.8 L 473.1,541.4 L 473.1,539.3 L 473.4,536.8 L 473.8,533.8 L 474.4,531.3 L 475.3,528.5 L 476.7,525.3 L 510.2,457.0 L 567.3,340.7 L 572.0,331.7 L 576.6,323.0 L 581.3,315.0 L 586.3,307.0 L 592.3,298.2 L 599.2,289.3 L 607.4,279.0 L 609.6,276.7 L 619.0,267.0 L 621.1,264.4 L 622.2,262.2 L 623.0,260.3 L 623.6,258.6 L 624.1,256.8 L 624.4,254.9 L 624.6,252.9 L 624.6,251.0 L 624.6,249.2 L 624.5,247.7 L 624.3,246.1 L 624.0,244.2 L 623.5,242.5 L 623.1,240.7 L 597.0,145.5 L 595.5,137.7 L 595.2,134.9 L 595.0,132.8 L 594.8,130.4 L 594.9,128.2 L 595.2,125.5 L 595.6,123.5 L 596.0,122.1 L 596.4,120.3 L 597.0,118.4 L 597.7,116.5 L 598.4,114.8 L 599.2,112.9 L 600.0,111.2 L 600.9,109.4 L 601.9,107.8 L 603.1,106.1 L 604.5,104.3 L 605.9,102.7 L 607.4,101.2 L 608.6,100.1 L 610.3,98.7 L 612.3,97.2 L 614.0,96.1 L 616.0,95.0 L 617.8,94.0 L 620.2,92.9 L 623.0,91.9 L 625.6,91.0 L 628.5,90.4 L 631.1,90.0 L 633.4,90.0 L 636.2,90.0 L 638.7,90.1 L 641.7,90.5 L 644.7,91.0 L 647.3,91.8 L 650.7,93.2 L 653.4,94.4 L 674.1,106.9 L 683.3,113.3 L 690.9,119.6 L 698.6,126.5 L 708.2,135.7 L 771.7,203.9 L 772.5,205.0 L 773.2,206.0 L 773.9,207.1 L 774.4,208.3 L 774.8,209.7 L 775.1,211.1 L 775.1,212.8 L 775.0,214.5 L 774.9,216.1 L 774.7,217.6 L 774.5,218.5 L 774.2,219.3 L 773.9,220.1 L 773.4,220.9 L 772.9,221.6 L 772.1,222.6 L 771.3,223.3 L 767.0,228.1 L 766.2,229.0 L 765.3,230.1 L 764.6,231.0 L 763.9,232.1 L 763.4,233.3 L 762.9,234.8 L 762.6,236.4 L 762.4,237.9 L 762.4,239.8 L 762.6,242.2 L 763.0,244.4 L 763.6,247.1 L 787.0,334.0 L 787.5,335.6 L 788.2,337.2 L 788.8,338.7 L 789.4,340.1 L 790.2,341.3 L 791.1,342.8 L 792.1,344.2 L 793.1,345.5 L 794.4,347.0 L 795.6,348.4 L 796.9,349.4 L 798.6,350.7 L 800.1,351.7 L 801.9,352.7 L 803.9,353.5 L 805.7,354.0 L 807.3,354.4 L 809.0,354.7 L 855.4,360.1 L 857.9,360.5 L 860.3,361.0 L 862.7,361.6 L 864.7,362.2 L 866.4,362.9 L 868.1,363.7 L 870.1,364.8 L 872.1,366.1 L 873.8,367.4 L 876.0,369.2 L 877.8,370.9 L 879.6,372.7 L 881.4,374.9 L 882.4,376.4 L 883.4,378.2 L 884.3,380.2 L 885.2,382.8 L 886.1,386.3 L 886.5,389.2 L 886.6,392.0 L 886.6,394.6 L 886.4,396.7 L 886.1,398.8 L 874.3,485.8 L 874.0,489.1 L 873.7,492.6 L 873.6,494.8 L 873.6,496.8 L 873.7,498.9 L 873.9,501.1 L 874.1,503.1 L 874.3,505.1 L 874.6,506.9 L 875.0,509.3 L 875.6,511.7 L 876.3,514.3 L 877.1,516.9 L 878.1,519.6 L 879.3,522.6 L 880.8,526.0 L 882.1,528.4 L 883.3,530.5 L 884.7,532.8 L 886.3,535.2 L 922.5,590.1 L 924.3,593.3 L 925.1,594.9 L 925.8,596.4 L 926.5,598.4 L 927.2,600.4 L 927.8,602.6 L 928.3,604.9 L 928.6,607.2 L 928.8,609.4 L 929.0,611.7 L 929.0,614.3 L 928.8,616.8 L 928.5,619.2 L 928.1,621.8 L 927.6,624.1 L 927.1,626.3 L 926.2,629.0 L 925.2,631.9 L 923.6,635.2 L 921.9,638.2 L 920.0,641.2 L 917.5,644.7 L 914.4,648.7 L 904.9,659.7 L 825.3,748.5 L 760.0,821.3 L 759.0,822.4 L 757.8,823.4 L 756.7,824.5 L 755.6,825.4 L 754.3,826.2 L 753.1,826.9 L 751.6,827.5 L 749.9,828.1 L 748.2,828.5 L 746.6,828.6 L 745.0,828.5 L 743.5,828.3 L 742.3,828.0 L 740.9,827.5 L 739.5,827.1 L 738.3,826.5 L 737.1,825.8 L 736.1,825.2 L 735.6,824.9 L 735.0,824.4 L 734.2,823.7 L 733.1,822.8 L 731.9,821.6 L 687.0,771.9 L 683.9,769.0 L 679.2,764.6 L 646.8,738.8 L 645.8,738.0 L 644.9,737.4 L 643.9,736.7 L 642.7,736.1 L 641.4,735.5 L 639.9,734.9 L 638.4,734.4 L 636.9,734.0 L 635.4,733.7 L 634.2,733.5 L 632.9,733.4 L 631.2,733.3 L 629.4,733.3 L 627.2,733.4 L 625.0,733.7 L 623.5,733.9 L 622.0,734.2 L 620.7,734.6 L 619.4,735.0 L 618.3,735.5 L 616.9,736.1 L 615.5,737.0 L 614.2,737.8 L 613.1,738.6 L 612.0,739.5 L 610.9,740.4 L 609.7,741.4 L 608.8,742.3 L 607.9,743.5 L 607.0,744.7 L 606.2,746.1 L 605.4,747.8 L 604.1,750.8 L 603.2,754.4 L 603.0,756.1 L 602.9,758.1 L 602.8,760.1 L 602.9,762.0 L 603.0,763.8 L 603.2,765.7 L 603.5,767.4 L 604.0,769.1 L 604.8,771.2 L 605.7,773.1 L 606.7,774.9 L 608.0,776.8 L 609.1,778.2 L 610.2,779.4 L 611.1,780.3 L 611.7,780.8 L 682.7,836.1 L 687.1,840.2 L 688.5,841.6 L 689.7,842.9 L 690.5,844.1 L 691.4,845.4 L 692.2,846.9 L 692.9,848.5 L 693.8,850.3 L 694.7,852.5 L 695.4,854.6 L 696.0,856.7 L 696.5,858.8 L 696.8,861.0 L 697.1,863.1 L 697.3,865.2 L 697.3,867.6 L 697.3,870.0 L 697.1,872.2 L 696.9,874.2 L 696.6,876.3 L 696.1,878.4 L 695.5,880.7 L 694.7,883.1 L 693.7,885.6 L 692.8,887.6 L 691.7,889.6 L 690.5,891.4 L 689.4,892.9 L 688.3,894.3 L 686.8,895.9 L 685.2,897.4 L 683.7,898.8 L 681.9,900.3 L 680.4,901.6 L 678.8,902.8 L 677.3,903.8 L 675.6,904.8 L 673.9,905.7 L 672.2,906.5 L 670.4,907.2 L 668.5,907.8 L 666.6,908.4 L 664.6,908.9 L 662.3,909.4 L 660.3,909.7 L 658.0,909.9 L 655.7,910.0 L 653.0,909.8 L 649.9,909.6 L 647.7,909.3 L 645.4,908.9 L 643.2,908.4 L 637.7,906.5 L 633.0,904.4 L 628.0,901.3 L 624.6,898.9 Z" fill="none" stroke="#39404f" stroke-width="8.5" stroke-linejoin="round" stroke-linecap="round"/>
<path d="M 624.6,898.9 L 373.4,700.8 L 314.8,654.4 L 209.6,571.3 L 208.1,569.9 L 206.5,568.2 L 205.2,566.8 L 204.3,565.5 L 203.5,564.3 L 202.7,562.7 L 202.0,561.0 L 201.5,559.4 L 201.2,557.9 L 201.0,556.3 L 201.0,554.8 L 201.1,553.3 L 201.3,552.0 L 201.5,551.1 L 201.8,550.0 L 202.2,549.0 L 202.5,548.1 L 203.0,547.1 L 203.5,546.2 L 204.1,545.2 L 204.7,544.4 L 205.3,543.7 L 205.9,543.1 L 206.6,542.4 L 207.2,541.8 L 207.9,541.3 L 208.9,540.7 L 209.9,540.1 L 211.1,539.6 L 212.4,539.1 L 213.7,538.7 L 215.1,538.5 L 216.9,538.2 L 219.7,537.9 L 223.2,537.6 L 226.6,537.4 L 235.1,537.5 L 243.1,537.8 L 252.5,538.2 L 261.0,538.7 L 266.6,539.3 L 273.4,540.2 L 282.5,542.0 L 291.8,544.0 L 299.6,546.2 L 305.4,548.1 L 310.7,550.2 L 315.9,552.1 L 322.0,555.0 L 330.2,559.0 L 336.6,562.9 L 344.4,568.1 L 352.2,574.0 L 371.5,589.3 L 413.8,622.8 L 457.3,657.3 L 460.1,659.5 L 462.7,661.4 L 465.6,663.0 L 468.3,664.2 L 470.9,665.2 L 473.7,666.1 L 476.4,666.6 L 479.4,666.9 L 482.4,666.7 L 485.1,666.3 L 488.2,665.5 L 491.7,664.4 L 494.8,663.3 L 497.4,661.9 L 499.4,660.8 L 501.8,659.0 L 504.7,656.5 L 507.4,653.4 L 509.9,649.4 L 511.5,645.7 L 512.6,641.7 L 513.3,637.6 L 513.8,633.5 L 513.7,629.8 L 513.5,625.7 L 512.4,621.8 L 510.3,616.6 L 479.4,561.8 L 477.9,558.7 L 476.7,556.0 L 475.8,553.7 L 474.9,551.1 L 474.1,548.6 L 473.6,546.4 L 473.4,544.7 L 473.1,542.8 L 473.1,541.4 L 473.1,539.3 L 473.4,536.8 L 473.8,533.8 L 474.4,531.3 L 475.3,528.5 L 476.7,525.3 L 510.2,457.0 L 567.3,340.7 L 572.0,331.7 L 576.6,323.0 L 581.3,315.0 L 586.3,307.0 L 592.3,298.2 L 599.2,289.3 L 607.4,279.0 L 609.6,276.7 L 619.0,267.0 L 621.1,264.4 L 622.2,262.2 L 623.0,260.3 L 623.6,258.6 L 624.1,256.8 L 624.4,254.9 L 624.6,252.9 L 624.6,251.0 L 624.6,249.2 L 624.5,247.7 L 624.3,246.1 L 624.0,244.2 L 623.5,242.5 L 623.1,240.7 L 597.0,145.5 L 595.5,137.7 L 595.2,134.9 L 595.0,132.8 L 594.8,130.4 L 594.9,128.2 L 595.2,125.5 L 595.6,123.5 L 596.0,122.1 L 596.4,120.3 L 597.0,118.4 L 597.7,116.5 L 598.4,114.8 L 599.2,112.9 L 600.0,111.2 L 600.9,109.4 L 601.9,107.8 L 603.1,106.1 L 604.5,104.3 L 605.9,102.7 L 607.4,101.2 L 608.6,100.1 L 610.3,98.7 L 612.3,97.2 L 614.0,96.1 L 616.0,95.0 L 617.8,94.0 L 620.2,92.9 L 623.0,91.9 L 625.6,91.0 L 628.5,90.4 L 631.1,90.0 L 633.4,90.0 L 636.2,90.0 L 638.7,90.1 L 641.7,90.5 L 644.7,91.0 L 647.3,91.8 L 650.7,93.2 L 653.4,94.4 L 674.1,106.9 L 683.3,113.3 L 690.9,119.6 L 698.6,126.5 L 708.2,135.7 L 771.7,203.9 L 772.5,205.0 L 773.2,206.0 L 773.9,207.1 L 774.4,208.3 L 774.8,209.7 L 775.1,211.1 L 775.1,212.8 L 775.0,214.5 L 774.9,216.1 L 774.7,217.6 L 774.5,218.5 L 774.2,219.3 L 773.9,220.1 L 773.4,220.9 L 772.9,221.6 L 772.1,222.6 L 771.3,223.3 L 767.0,228.1 L 766.2,229.0 L 765.3,230.1 L 764.6,231.0 L 763.9,232.1 L 763.4,233.3 L 762.9,234.8 L 762.6,236.4 L 762.4,237.9 L 762.4,239.8 L 762.6,242.2 L 763.0,244.4 L 763.6,247.1 L 787.0,334.0 L 787.5,335.6 L 788.2,337.2 L 788.8,338.7 L 789.4,340.1 L 790.2,341.3 L 791.1,342.8 L 792.1,344.2 L 793.1,345.5 L 794.4,347.0 L 795.6,348.4 L 796.9,349.4 L 798.6,350.7 L 800.1,351.7 L 801.9,352.7 L 803.9,353.5 L 805.7,354.0 L 807.3,354.4 L 809.0,354.7 L 855.4,360.1 L 857.9,360.5 L 860.3,361.0 L 862.7,361.6 L 864.7,362.2 L 866.4,362.9 L 868.1,363.7 L 870.1,364.8 L 872.1,366.1 L 873.8,367.4 L 876.0,369.2 L 877.8,370.9 L 879.6,372.7 L 881.4,374.9 L 882.4,376.4 L 883.4,378.2 L 884.3,380.2 L 885.2,382.8 L 886.1,386.3 L 886.5,389.2 L 886.6,392.0 L 886.6,394.6 L 886.4,396.7 L 886.1,398.8 L 874.3,485.8 L 874.0,489.1 L 873.7,492.6 L 873.6,494.8 L 873.6,496.8 L 873.7,498.9 L 873.9,501.1 L 874.1,503.1 L 874.3,505.1 L 874.6,506.9 L 875.0,509.3 L 875.6,511.7 L 876.3,514.3 L 877.1,516.9 L 878.1,519.6 L 879.3,522.6 L 880.8,526.0 L 882.1,528.4 L 883.3,530.5 L 884.7,532.8 L 886.3,535.2 L 922.5,590.1 L 924.3,593.3 L 925.1,594.9 L 925.8,596.4 L 926.5,598.4 L 927.2,600.4 L 927.8,602.6 L 928.3,604.9 L 928.6,607.2 L 928.8,609.4 L 929.0,611.7 L 929.0,614.3 L 928.8,616.8 L 928.5,619.2 L 928.1,621.8 L 927.6,624.1 L 927.1,626.3 L 926.2,629.0 L 925.2,631.9 L 923.6,635.2 L 921.9,638.2 L 920.0,641.2 L 917.5,644.7 L 914.4,648.7 L 904.9,659.7 L 825.3,748.5 L 760.0,821.3 L 759.0,822.4 L 757.8,823.4 L 756.7,824.5 L 755.6,825.4 L 754.3,826.2 L 753.1,826.9 L 751.6,827.5 L 749.9,828.1 L 748.2,828.5 L 746.6,828.6 L 745.0,828.5 L 743.5,828.3 L 742.3,828.0 L 740.9,827.5 L 739.5,827.1 L 738.3,826.5 L 737.1,825.8 L 736.1,825.2 L 735.6,824.9 L 735.0,824.4 L 734.2,823.7 L 733.1,822.8 L 731.9,821.6 L 687.0,771.9 L 683.9,769.0 L 679.2,764.6 L 646.8,738.8 L 645.8,738.0 L 644.9,737.4 L 643.9,736.7 L 642.7,736.1 L 641.4,735.5 L 639.9,734.9 L 638.4,734.4 L 636.9,734.0 L 635.4,733.7 L 634.2,733.5 L 632.9,733.4 L 631.2,733.3 L 629.4,733.3 L 627.2,733.4 L 625.0,733.7 L 623.5,733.9 L 622.0,734.2 L 620.7,734.6 L 619.4,735.0 L 618.3,735.5 L 616.9,736.1 L 615.5,737.0 L 614.2,737.8 L 613.1,738.6 L 612.0,739.5 L 610.9,740.4 L 609.7,741.4 L 608.8,742.3 L 607.9,743.5 L 607.0,744.7 L 606.2,746.1 L 605.4,747.8 L 604.1,750.8 L 603.2,754.4 L 603.0,756.1 L 602.9,758.1 L 602.8,760.1 L 602.9,762.0 L 603.0,763.8 L 603.2,765.7 L 603.5,767.4 L 604.0,769.1 L 604.8,771.2 L 605.7,773.1 L 606.7,774.9 L 608.0,776.8 L 609.1,778.2 L 610.2,779.4 L 611.1,780.3 L 611.7,780.8 L 682.7,836.1 L 687.1,840.2 L 688.5,841.6 L 689.7,842.9 L 690.5,844.1 L 691.4,845.4 L 692.2,846.9 L 692.9,848.5 L 693.8,850.3 L 694.7,852.5 L 695.4,854.6 L 696.0,856.7 L 696.5,858.8 L 696.8,861.0 L 697.1,863.1 L 697.3,865.2 L 697.3,867.6 L 697.3,870.0 L 697.1,872.2 L 696.9,874.2 L 696.6,876.3 L 696.1,878.4 L 695.5,880.7 L 694.7,883.1 L 693.7,885.6 L 692.8,887.6 L 691.7,889.6 L 690.5,891.4 L 689.4,892.9 L 688.3,894.3 L 686.8,895.9 L 685.2,897.4 L 683.7,898.8 L 681.9,900.3 L 680.4,901.6 L 678.8,902.8 L 677.3,903.8 L 675.6,904.8 L 673.9,905.7 L 672.2,906.5 L 670.4,907.2 L 668.5,907.8 L 666.6,908.4 L 664.6,908.9 L 662.3,909.4 L 660.3,909.7 L 658.0,909.9 L 655.7,910.0 L 653.0,909.8 L 649.9,909.6 L 647.7,909.3 L 645.4,908.9 L 643.2,908.4 L 637.7,906.5 L 633.0,904.4 L 628.0,901.3 L 624.6,898.9 Z" fill="none" stroke="#e7edf8" stroke-width="2.6" stroke-linejoin="round" stroke-linecap="round"/>
<path d="M 624.6,898.9 L 373.4,700.8 L 314.8,654.4 L 209.6,571.3 L 208.1,569.9 L 206.5,568.2 L 205.2,566.8 L 204.3,565.5 L 203.5,564.3 L 202.7,562.7 L 202.0,561.0 L 201.5,559.4 L 201.2,557.9 L 201.0,556.3 L 201.0,554.8 L 201.1,553.3 L 201.3,552.0 L 201.5,551.1 L 201.8,550.0 L 202.2,549.0 L 202.5,548.1 L 203.0,547.1 L 203.5,546.2 L 204.1,545.2 L 204.7,544.4 L 205.3,543.7 L 205.9,543.1 L 206.6,542.4 L 207.2,541.8 L 207.9,541.3 L 208.9,540.7 L 209.9,540.1 L 211.1,539.6 L 212.4,539.1 L 213.7,538.7 L 215.1,538.5 L 216.9,538.2 L 219.7,537.9 L 223.2,537.6 L 226.6,537.4 L 235.1,537.5 L 243.1,537.8 L 252.5,538.2 L 261.0,538.7 L 266.6,539.3 L 273.4,540.2 L 282.5,542.0 L 291.8,544.0 L 299.6,546.2 L 305.4,548.1 L 310.7,550.2 L 315.9,552.1 L 322.0,555.0 L 330.2,559.0 L 336.6,562.9 L 344.4,568.1 L 352.2,574.0 L 371.5,589.3 L 413.8,622.8 L 457.3,657.3 L 460.1,659.5 L 462.7,661.4 L 465.6,663.0 L 468.3,664.2 L 470.9,665.2 L 473.7,666.1 L 476.4,666.6 L 479.4,666.9 L 482.4,666.7 L 485.1,666.3 L 488.2,665.5 L 491.7,664.4 L 494.8,663.3 L 497.4,661.9 L 499.4,660.8 L 501.8,659.0 L 504.7,656.5 L 507.4,653.4 L 509.9,649.4 L 511.5,645.7 L 512.6,641.7 L 513.3,637.6 L 513.8,633.5 L 513.7,629.8 L 513.5,625.7 L 512.4,621.8 L 510.3,616.6 L 479.4,561.8 L 477.9,558.7 L 476.7,556.0 L 475.8,553.7 L 474.9,551.1 L 474.1,548.6 L 473.6,546.4 L 473.4,544.7 L 473.1,542.8 L 473.1,541.4 L 473.1,539.3 L 473.4,536.8 L 473.8,533.8 L 474.4,531.3 L 475.3,528.5 L 476.7,525.3 L 510.2,457.0 L 567.3,340.7 L 572.0,331.7 L 576.6,323.0 L 581.3,315.0 L 586.3,307.0 L 592.3,298.2 L 599.2,289.3 L 607.4,279.0 L 609.6,276.7 L 619.0,267.0 L 621.1,264.4 L 622.2,262.2 L 623.0,260.3 L 623.6,258.6 L 624.1,256.8 L 624.4,254.9 L 624.6,252.9 L 624.6,251.0 L 624.6,249.2 L 624.5,247.7 L 624.3,246.1 L 624.0,244.2 L 623.5,242.5 L 623.1,240.7 L 597.0,145.5 L 595.5,137.7 L 595.2,134.9 L 595.0,132.8 L 594.8,130.4 L 594.9,128.2 L 595.2,125.5 L 595.6,123.5 L 596.0,122.1 L 596.4,120.3 L 597.0,118.4 L 597.7,116.5 L 598.4,114.8 L 599.2,112.9 L 600.0,111.2 L 600.9,109.4 L 601.9,107.8 L 603.1,106.1 L 604.5,104.3 L 605.9,102.7 L 607.4,101.2 L 608.6,100.1 L 610.3,98.7 L 612.3,97.2 L 614.0,96.1 L 616.0,95.0 L 617.8,94.0 L 620.2,92.9 L 623.0,91.9 L 625.6,91.0 L 628.5,90.4 L 631.1,90.0 L 633.4,90.0 L 636.2,90.0 L 638.7,90.1 L 641.7,90.5 L 644.7,91.0 L 647.3,91.8 L 650.7,93.2 L 653.4,94.4 L 674.1,106.9 L 683.3,113.3 L 690.9,119.6 L 698.6,126.5 L 708.2,135.7 L 771.7,203.9 L 772.5,205.0 L 773.2,206.0 L 773.9,207.1 L 774.4,208.3 L 774.8,209.7 L 775.1,211.1 L 775.1,212.8 L 775.0,214.5 L 774.9,216.1 L 774.7,217.6 L 774.5,218.5 L 774.2,219.3 L 773.9,220.1 L 773.4,220.9 L 772.9,221.6 L 772.1,222.6 L 771.3,223.3 L 767.0,228.1 L 766.2,229.0 L 765.3,230.1 L 764.6,231.0 L 763.9,232.1 L 763.4,233.3 L 762.9,234.8 L 762.6,236.4 L 762.4,237.9 L 762.4,239.8 L 762.6,242.2 L 763.0,244.4 L 763.6,247.1 L 787.0,334.0 L 787.5,335.6 L 788.2,337.2 L 788.8,338.7 L 789.4,340.1 L 790.2,341.3 L 791.1,342.8 L 792.1,344.2 L 793.1,345.5 L 794.4,347.0 L 795.6,348.4 L 796.9,349.4 L 798.6,350.7 L 800.1,351.7 L 801.9,352.7 L 803.9,353.5 L 805.7,354.0 L 807.3,354.4 L 809.0,354.7 L 855.4,360.1 L 857.9,360.5 L 860.3,361.0 L 862.7,361.6 L 864.7,362.2 L 866.4,362.9 L 868.1,363.7 L 870.1,364.8 L 872.1,366.1 L 873.8,367.4 L 876.0,369.2 L 877.8,370.9 L 879.6,372.7 L 881.4,374.9 L 882.4,376.4 L 883.4,378.2 L 884.3,380.2 L 885.2,382.8 L 886.1,386.3 L 886.5,389.2 L 886.6,392.0 L 886.6,394.6 L 886.4,396.7 L 886.1,398.8 L 874.3,485.8 L 874.0,489.1 L 873.7,492.6 L 873.6,494.8 L 873.6,496.8 L 873.7,498.9 L 873.9,501.1 L 874.1,503.1 L 874.3,505.1 L 874.6,506.9 L 875.0,509.3 L 875.6,511.7 L 876.3,514.3 L 877.1,516.9 L 878.1,519.6 L 879.3,522.6 L 880.8,526.0 L 882.1,528.4 L 883.3,530.5 L 884.7,532.8 L 886.3,535.2 L 922.5,590.1 L 924.3,593.3 L 925.1,594.9 L 925.8,596.4 L 926.5,598.4 L 927.2,600.4 L 927.8,602.6 L 928.3,604.9 L 928.6,607.2 L 928.8,609.4 L 929.0,611.7 L 929.0,614.3 L 928.8,616.8 L 928.5,619.2 L 928.1,621.8 L 927.6,624.1 L 927.1,626.3 L 926.2,629.0 L 925.2,631.9 L 923.6,635.2 L 921.9,638.2 L 920.0,641.2 L 917.5,644.7 L 914.4,648.7 L 904.9,659.7 L 825.3,748.5 L 760.0,821.3 L 759.0,822.4 L 757.8,823.4 L 756.7,824.5 L 755.6,825.4 L 754.3,826.2 L 753.1,826.9 L 751.6,827.5 L 749.9,828.1 L 748.2,828.5 L 746.6,828.6 L 745.0,828.5 L 743.5,828.3 L 742.3,828.0 L 740.9,827.5 L 739.5,827.1 L 738.3,826.5 L 737.1,825.8 L 736.1,825.2 L 735.6,824.9 L 735.0,824.4 L 734.2,823.7 L 733.1,822.8 L 731.9,821.6 L 687.0,771.9 L 683.9,769.0 L 679.2,764.6 L 646.8,738.8 L 645.8,738.0 L 644.9,737.4 L 643.9,736.7 L 642.7,736.1 L 641.4,735.5 L 639.9,734.9 L 638.4,734.4 L 636.9,734.0 L 635.4,733.7 L 634.2,733.5 L 632.9,733.4 L 631.2,733.3 L 629.4,733.3 L 627.2,733.4 L 625.0,733.7 L 623.5,733.9 L 622.0,734.2 L 620.7,734.6 L 619.4,735.0 L 618.3,735.5 L 616.9,736.1 L 615.5,737.0 L 614.2,737.8 L 613.1,738.6 L 612.0,739.5 L 610.9,740.4 L 609.7,741.4 L 608.8,742.3 L 607.9,743.5 L 607.0,744.7 L 606.2,746.1 L 605.4,747.8 L 604.1,750.8 L 603.2,754.4 L 603.0,756.1 L 602.9,758.1 L 602.8,760.1 L 602.9,762.0 L 603.0,763.8 L 603.2,765.7 L 603.5,767.4 L 604.0,769.1 L 604.8,771.2 L 605.7,773.1 L 606.7,774.9 L 608.0,776.8 L 609.1,778.2 L 610.2,779.4 L 611.1,780.3 L 611.7,780.8 L 682.7,836.1 L 687.1,840.2 L 688.5,841.6 L 689.7,842.9 L 690.5,844.1 L 691.4,845.4 L 692.2,846.9 L 692.9,848.5 L 693.8,850.3 L 694.7,852.5 L 695.4,854.6 L 696.0,856.7 L 696.5,858.8 L 696.8,861.0 L 697.1,863.1 L 697.3,865.2 L 697.3,867.6 L 697.3,870.0 L 697.1,872.2 L 696.9,874.2 L 696.6,876.3 L 696.1,878.4 L 695.5,880.7 L 694.7,883.1 L 693.7,885.6 L 692.8,887.6 L 691.7,889.6 L 690.5,891.4 L 689.4,892.9 L 688.3,894.3 L 686.8,895.9 L 685.2,897.4 L 683.7,898.8 L 681.9,900.3 L 680.4,901.6 L 678.8,902.8 L 677.3,903.8 L 675.6,904.8 L 673.9,905.7 L 672.2,906.5 L 670.4,907.2 L 668.5,907.8 L 666.6,908.4 L 664.6,908.9 L 662.3,909.4 L 660.3,909.7 L 658.0,909.9 L 655.7,910.0 L 653.0,909.8 L 649.9,909.6 L 647.7,909.3 L 645.4,908.9 L 643.2,908.4 L 637.7,906.5 L 633.0,904.4 L 628.0,901.3 L 624.6,898.9 Z" fill="none" stroke="#ff5a36" stroke-opacity="0.55" stroke-width="1.2" stroke-linejoin="round" filter="url(#glow)"/>
<circle cx="624.6" cy="898.9" r="13" fill="none" stroke="#ffffff" stroke-width="3"/>
<rect x="620.6" y="876.9" width="8" height="18" fill="#ffffff"/>
<circle cx="290.3" cy="635.0" r="7" fill="#ff5a36" stroke="#0a0c12" stroke-width="2.5" filter="url(#glow)"/>
<text x="290.3" y="638.4" font-size="9" font-weight="700" fill="#0a0c12" text-anchor="middle">1</text>
<circle cx="392.9" cy="606.2" r="7" fill="#ff5a36" stroke="#0a0c12" stroke-width="2.5" filter="url(#glow)"/>
<text x="392.9" y="609.6" font-size="9" font-weight="700" fill="#0a0c12" text-anchor="middle">2</text>
<circle cx="494.9" cy="663.2" r="7" fill="#ff5a36" stroke="#0a0c12" stroke-width="2.5" filter="url(#glow)"/>
<text x="494.9" y="666.6" font-size="9" font-weight="700" fill="#0a0c12" text-anchor="middle">3</text>
<circle cx="552.9" cy="370.1" r="7" fill="#ff5a36" stroke="#0a0c12" stroke-width="2.5" filter="url(#glow)"/>
<text x="552.9" y="373.5" font-size="9" font-weight="700" fill="#0a0c12" text-anchor="middle">4</text>
<circle cx="616.0" cy="214.8" r="7" fill="#ff5a36" stroke="#0a0c12" stroke-width="2.5" filter="url(#glow)"/>
<text x="616.0" y="218.2" font-size="9" font-weight="700" fill="#0a0c12" text-anchor="middle">5</text>
<circle cx="690.2" cy="119.0" r="7" fill="#ff5a36" stroke="#0a0c12" stroke-width="2.5" filter="url(#glow)"/>
<text x="690.2" y="122.4" font-size="9" font-weight="700" fill="#0a0c12" text-anchor="middle">6</text>
<circle cx="707.4" cy="135.0" r="7" fill="#ff5a36" stroke="#0a0c12" stroke-width="2.5" filter="url(#glow)"/>
<text x="707.4" y="138.4" font-size="9" font-weight="700" fill="#0a0c12" text-anchor="middle">7</text>
<circle cx="768.2" cy="226.8" r="7" fill="#ff5a36" stroke="#0a0c12" stroke-width="2.5" filter="url(#glow)"/>
<text x="768.2" y="230.2" font-size="9" font-weight="700" fill="#0a0c12" text-anchor="middle">8</text>
<circle cx="780.5" cy="309.9" r="7" fill="#ff5a36" stroke="#0a0c12" stroke-width="2.5" filter="url(#glow)"/>
<text x="780.5" y="313.3" font-size="9" font-weight="700" fill="#0a0c12" text-anchor="middle">9</text>
<circle cx="885.9" cy="385.6" r="7" fill="#ff5a36" stroke="#0a0c12" stroke-width="2.5" filter="url(#glow)"/>
<text x="885.9" y="389.0" font-size="9" font-weight="700" fill="#0a0c12" text-anchor="middle">10</text>
<circle cx="873.7" cy="496.1" r="7" fill="#ff5a36" stroke="#0a0c12" stroke-width="2.5" filter="url(#glow)"/>
<text x="873.7" y="499.5" font-size="9" font-weight="700" fill="#0a0c12" text-anchor="middle">11</text>
<circle cx="835.5" cy="737.2" r="7" fill="#ff5a36" stroke="#0a0c12" stroke-width="2.5" filter="url(#glow)"/>
<text x="835.5" y="740.6" font-size="9" font-weight="700" fill="#0a0c12" text-anchor="middle">12</text>
<circle cx="712.5" cy="800.1" r="7" fill="#ff5a36" stroke="#0a0c12" stroke-width="2.5" filter="url(#glow)"/>
<text x="712.5" y="803.5" font-size="9" font-weight="700" fill="#0a0c12" text-anchor="middle">13</text>
<circle cx="633.6" cy="797.8" r="7" fill="#ff5a36" stroke="#0a0c12" stroke-width="2.5" filter="url(#glow)"/>
<text x="633.6" y="801.2" font-size="9" font-weight="700" fill="#0a0c12" text-anchor="middle">14</text>
<line x1="290.3" y1="635.0" x2="240.2" y2="650.2" stroke="#ff5a36" stroke-opacity="0.45" stroke-width="1.3"/>
<text x="232.2" y="654.2" font-size="15" font-weight="600" fill="#eef2fb" text-anchor="end">T1</text>
<line x1="392.9" y1="606.2" x2="342.8" y2="620.2" stroke="#ff5a36" stroke-opacity="0.45" stroke-width="1.3"/>
<text x="334.8" y="624.2" font-size="15" font-weight="600" fill="#eef2fb" text-anchor="end">T2</text>
<line x1="494.9" y1="663.2" x2="456.1" y2="697.8" stroke="#ff5a36" stroke-opacity="0.45" stroke-width="1.3"/>
<text x="448.1" y="701.8" font-size="15" font-weight="600" fill="#eef2fb" text-anchor="end">T3</text>
<line x1="552.9" y1="370.1" x2="530.3" y2="323.3" stroke="#ff5a36" stroke-opacity="0.45" stroke-width="1.3"/>
<text x="522.3" y="327.3" font-size="15" font-weight="600" fill="#eef2fb" text-anchor="end">T4</text>
<line x1="616.0" y1="214.8" x2="613.0" y2="162.9" stroke="#ff5a36" stroke-opacity="0.45" stroke-width="1.3"/>
<text x="605.0" y="166.9" font-size="15" font-weight="600" fill="#eef2fb" text-anchor="end">T5</text>
<line x1="690.2" y1="119.0" x2="697.1" y2="67.5" stroke="#ff5a36" stroke-opacity="0.45" stroke-width="1.3"/>
<text x="705.1" y="71.5" font-size="15" font-weight="600" fill="#eef2fb" text-anchor="start">T6</text>
<line x1="707.4" y1="135.0" x2="716.7" y2="97.5" stroke="#ff5a36" stroke-opacity="0.45" stroke-width="1.3"/>
<text x="724.7" y="101.5" font-size="15" font-weight="600" fill="#eef2fb" text-anchor="start">T7</text>
<line x1="768.2" y1="226.8" x2="788.7" y2="179.0" stroke="#ff5a36" stroke-opacity="0.45" stroke-width="1.3"/>
<text x="796.7" y="183.0" font-size="15" font-weight="600" fill="#eef2fb" text-anchor="start">T8</text>
<line x1="780.5" y1="309.9" x2="808.5" y2="266.0" stroke="#ff5a36" stroke-opacity="0.45" stroke-width="1.3"/>
<text x="816.5" y="270.0" font-size="15" font-weight="600" fill="#eef2fb" text-anchor="start">T9</text>
<line x1="885.9" y1="385.6" x2="930.3" y2="358.5" stroke="#ff5a36" stroke-opacity="0.45" stroke-width="1.3"/>
<text x="938.3" y="362.5" font-size="15" font-weight="600" fill="#eef2fb" text-anchor="start">T10</text>
<line x1="873.7" y1="496.1" x2="924.8" y2="487.0" stroke="#ff5a36" stroke-opacity="0.45" stroke-width="1.3"/>
<text x="932.8" y="491.0" font-size="15" font-weight="600" fill="#eef2fb" text-anchor="start">T11</text>
<line x1="835.5" y1="737.2" x2="872.5" y2="773.7" stroke="#ff5a36" stroke-opacity="0.45" stroke-width="1.3"/>
<text x="880.5" y="777.7" font-size="15" font-weight="600" fill="#eef2fb" text-anchor="start">T12</text>
<line x1="712.5" y1="800.1" x2="727.4" y2="849.9" stroke="#ff5a36" stroke-opacity="0.45" stroke-width="1.3"/>
<text x="735.4" y="853.9" font-size="15" font-weight="600" fill="#eef2fb" text-anchor="start">T13</text>
<line x1="633.6" y1="797.8" x2="633.4" y2="849.8" stroke="#ff5a36" stroke-opacity="0.45" stroke-width="1.3"/>
<text x="625.4" y="853.8" font-size="15" font-weight="600" fill="#eef2fb" text-anchor="end">T14</text>
<text x="90" y="64" font-size="20" letter-spacing="5" fill="#ff5a36" font-weight="700">TRACK ATLAS</text>
<text x="90" y="108" font-size="42" font-weight="800" fill="#ffffff">HUNGARORING</text>
<text x="90" y="136" font-size="16" fill="#9aa6bd">Budapest</text>
<rect x="1170" y="200" width="360" height="710" rx="16" fill="#ffffff" fill-opacity="0.04" stroke="#ff5a36" stroke-opacity="0.5"/>
<text x="1198" y="250" font-size="13" letter-spacing="2" fill="#8794ab">LAYOUT</text>
<text x="1198" y="276" font-size="22" font-weight="700" fill="#eef2fb">Grand Prix Circuit</text>
<text x="1198" y="320" font-size="13" letter-spacing="2" fill="#8794ab">LENGTH</text>
<text x="1198" y="346" font-size="22" font-weight="700" fill="#eef2fb">4.381 km</text>
<text x="1198" y="390" font-size="13" letter-spacing="2" fill="#8794ab">CORNERS</text>
<text x="1198" y="416" font-size="22" font-weight="700" fill="#eef2fb">14</text>
<text x="1198" y="460" font-size="13" letter-spacing="2" fill="#8794ab">NAMED CORNERS</text>
<text x="1198" y="486" font-size="22" font-weight="700" fill="#eef2fb">14</text>
<text x="1198" y="530" font-size="13" letter-spacing="2" fill="#8794ab">DIRECTION</text>
<text x="1198" y="556" font-size="22" font-weight="700" fill="#eef2fb">Clockwise</text>
<text x="1198" y="600" font-size="13" letter-spacing="2" fill="#8794ab">SECTORS</text>
<text x="1198" y="626" font-size="22" font-weight="700" fill="#eef2fb">3</text>
<text x="1198" y="670" font-size="13" letter-spacing="2" fill="#8794ab">COUNTRY</text>
<text x="1198" y="696" font-size="22" font-weight="700" fill="#eef2fb">HU</text>
<text x="1198" y="740" font-size="13" letter-spacing="2" fill="#8794ab">LOCATION</text>
<text x="1198" y="766" font-size="22" font-weight="700" fill="#eef2fb">Mogyorod</text>
<text x="90" y="966" font-size="12" fill="#566177">Geometry © OpenStreetMap contributors (ODbL) · corner data: Lovely-Sim-Racing + curated · track-atlas</text>
<text x="90" y="942" font-size="12" fill="#8794ab">⚑ start / finish</text>
</svg>