<svg xmlns="http://www.w3.org/2000/svg" width="1600" height="1000" viewBox="0 0 1600 1000" font-family="Helvetica, Arial, sans-serif">
<defs>
      <radialGradient id="bg" cx="38%" cy="34%" r="85%">
        <stop offset="0%" stop-color="#1b2030"/>
        <stop offset="55%" stop-color="#12151f"/>
        <stop offset="100%" stop-color="#0a0c12"/>
      </radialGradient>
      <linearGradient id="accent" x1="0" y1="0" x2="1" y2="1">
        <stop offset="0%" stop-color="#ff5a36"/>
        <stop offset="100%" stop-color="#ffffff"/>
      </linearGradient>
      <filter id="glow" x="-40%" y="-40%" width="180%" height="180%">
        <feGaussianBlur stdDeviation="6" result="b"/>
        <feMerge><feMergeNode in="b"/><feMergeNode in="SourceGraphic"/></feMerge>
      </filter>
    </defs>
<rect width="1600" height="1000" fill="url(#bg)"/>
<path d="M 368.2,188.9 L 369.9,185.9 L 371.7,182.9 L 374.5,179.5 L 378.4,176.0 L 382.5,173.2 L 386.7,171.0 L 391.3,169.4 L 396.2,168.4 L 401.6,168.0 L 406.4,168.4 L 412.3,169.8 L 417.4,172.1 L 421.7,174.7 L 425.3,178.0 L 428.2,181.1 L 431.7,185.7 L 434.2,190.4 L 435.9,195.1 L 436.8,199.9 L 437.3,205.0 L 437.2,209.2 L 436.8,212.6 L 436.0,215.8 L 434.9,219.2 L 414.2,270.9 L 398.4,306.1 L 395.1,315.7 L 391.6,326.0 L 389.1,334.5 L 387.1,342.7 L 385.6,350.1 L 384.7,355.8 L 383.8,362.5 L 383.1,370.2 L 382.8,377.6 L 382.7,384.5 L 382.7,421.4 L 382.6,423.6 L 382.3,425.8 L 381.7,428.3 L 381.0,430.5 L 380.1,432.5 L 379.1,434.6 L 377.7,437.0 L 375.4,440.6 L 372.8,443.9 L 370.0,446.9 L 367.2,449.4 L 363.6,451.9 L 360.3,454.0 L 356.4,456.0 L 351.7,458.0 L 307.7,475.0 L 303.9,476.5 L 298.9,478.3 L 295.8,479.9 L 292.6,482.2 L 290.3,484.2 L 287.6,487.5 L 285.5,490.9 L 283.8,494.6 L 282.6,498.4 L 282.0,502.6 L 281.9,506.6 L 282.6,511.4 L 283.7,516.1 L 285.3,519.9 L 287.6,523.7 L 290.6,527.5 L 294.1,530.5 L 297.9,533.2 L 302.7,535.5 L 307.0,536.7 L 310.9,537.2 L 314.0,537.2 L 317.7,537.0 L 321.3,536.2 L 326.0,535.1 L 330.4,533.8 L 338.6,531.1 L 385.1,515.8 L 395.4,512.8 L 406.1,509.8 L 417.5,506.9 L 429.0,504.3 L 438.7,502.8 L 447.9,501.8 L 456.0,501.2 L 464.5,500.8 L 473.0,500.9 L 481.8,501.1 L 490.3,501.5 L 497.3,502.2 L 506.3,503.3 L 513.8,504.4 L 523.3,506.2 L 532.8,508.2 L 541.7,510.3 L 576.3,518.4 L 583.5,519.7 L 589.4,520.7 L 595.0,521.4 L 601.8,522.0 L 608.5,522.5 L 615.1,522.6 L 621.2,522.5 L 628.5,521.6 L 634.9,520.7 L 642.3,519.2 L 649.8,517.2 L 657.1,514.7 L 672.9,508.0 L 677.9,505.7 L 684.6,502.1 L 690.7,498.7 L 696.2,495.2 L 704.2,490.1 L 707.0,488.3 L 708.9,487.0 L 713.7,483.9 L 716.7,482.0 L 723.8,477.7 L 730.6,473.7 L 736.6,470.4 L 743.0,467.1 L 749.9,463.7 L 756.7,461.1 L 764.1,458.7 L 772.9,456.2 L 782.1,454.6 L 792.2,453.4 L 798.0,452.9 L 806.1,452.7 L 814.5,452.7 L 822.1,453.0 L 831.7,453.5 L 842.7,454.1 L 902.8,457.6 L 908.8,458.1 L 914.3,458.7 L 919.5,459.4 L 924.9,460.3 L 930.0,461.3 L 935.5,462.8 L 941.4,464.8 L 946.9,467.0 L 951.4,469.2 L 955.5,471.5 L 960.2,474.4 L 965.4,478.2 L 970.3,482.4 L 974.4,486.3 L 978.3,490.5 L 982.3,495.5 L 985.0,499.4 L 987.7,503.8 L 990.2,508.3 L 991.9,512.0 L 993.9,516.6 L 995.4,521.2 L 996.9,526.4 L 998.0,531.0 L 998.8,535.3 L 999.3,540.2 L 999.6,544.6 L 999.7,549.3 L 999.7,553.5 L 999.3,558.3 L 998.6,563.1 L 997.7,567.9 L 996.7,571.9 L 995.5,576.0 L 994.4,579.3 L 992.7,583.5 L 991.0,587.2 L 988.6,591.7 L 986.6,595.2 L 984.7,598.4 L 982.0,602.7 L 979.3,606.6 L 942.6,659.4 L 939.0,664.8 L 935.5,670.1 L 932.5,674.7 L 930.1,678.9 L 927.8,683.0 L 925.5,687.4 L 922.4,693.5 L 919.6,699.6 L 916.6,705.9 L 913.6,712.6 L 911.3,717.5 L 891.0,758.5 L 889.2,761.8 L 887.9,763.9 L 886.5,765.7 L 884.4,767.8 L 882.7,769.2 L 880.3,770.8 L 877.3,772.3 L 874.8,773.3 L 871.4,774.2 L 867.4,774.9 L 862.6,775.4 L 857.1,775.9 L 850.5,776.1 L 843.3,776.0 L 835.9,775.7 L 828.2,775.0 L 821.1,774.2 L 813.0,772.8 L 805.9,771.2 L 798.4,769.3 L 791.5,767.2 L 784.4,764.9 L 780.9,763.6 L 776.0,761.7 L 769.6,758.9 L 762.7,755.5 L 756.0,751.9 L 748.4,747.4 L 740.3,742.1 L 733.9,737.4 L 729.4,733.8 L 724.4,729.5 L 720.2,725.7 L 716.8,722.6 L 714.2,720.0 L 712.1,717.7 L 710.2,715.4 L 708.6,713.0 L 707.5,710.8 L 706.5,708.1 L 705.7,705.2 L 705.4,703.0 L 705.2,700.7 L 705.2,698.4 L 705.4,696.1 L 706.2,693.2 L 707.2,690.9 L 708.4,688.5 L 710.0,686.2 L 711.7,683.9 L 713.6,681.7 L 715.6,679.7 L 717.3,678.2 L 719.3,676.5 L 721.5,674.7 L 723.6,673.2 L 725.8,671.6 L 728.5,669.8 L 730.6,668.4 L 732.5,667.3 L 734.7,666.1 L 736.9,664.9 L 740.0,663.3 L 742.5,662.2 L 745.0,661.0 L 747.1,660.1 L 749.8,659.2 L 752.0,658.6 L 753.9,658.1 L 755.8,657.7 L 757.7,657.3 L 760.1,656.9 L 762.6,656.5 L 766.7,655.8 L 782.0,653.8 L 787.3,653.1 L 792.0,652.3 L 796.5,651.6 L 800.8,650.8 L 805.1,650.0 L 808.6,649.1 L 812.8,648.1 L 817.0,647.0 L 820.7,645.9 L 824.6,644.7 L 828.5,643.5 L 833.0,641.9 L 836.6,640.6 L 840.0,639.3 L 843.8,637.9 L 847.3,636.4 L 850.4,635.0 L 853.4,633.7 L 856.5,632.3 L 859.8,630.7 L 862.0,629.4 L 864.1,628.2 L 865.7,627.2 L 867.2,626.1 L 868.6,625.0 L 870.1,623.7 L 871.3,622.4 L 872.4,621.1 L 874.0,619.3 L 875.1,617.7 L 876.5,615.7 L 877.5,614.0 L 878.3,612.4 L 879.2,610.6 L 880.0,609.1 L 880.7,607.3 L 881.3,605.5 L 881.8,603.9 L 882.2,602.2 L 882.5,600.5 L 882.9,598.4 L 883.1,596.5 L 883.2,594.9 L 883.3,593.4 L 883.3,591.7 L 883.2,589.8 L 883.1,588.2 L 882.9,586.6 L 882.6,584.6 L 882.3,583.2 L 881.8,581.3 L 881.2,579.3 L 880.6,577.6 L 879.9,576.2 L 879.2,574.7 L 878.7,573.7 L 878.0,572.5 L 877.4,571.4 L 876.7,570.0 L 875.9,568.8 L 874.7,567.1 L 873.5,565.5 L 872.4,564.4 L 871.2,563.0 L 869.9,561.6 L 868.5,560.3 L 866.8,558.9 L 865.0,557.6 L 863.4,556.5 L 861.5,555.3 L 859.0,553.9 L 857.3,553.1 L 855.3,552.3 L 853.1,551.6 L 850.8,551.0 L 847.9,550.4 L 843.9,549.8 L 801.2,545.4 L 796.0,544.9 L 791.2,544.4 L 785.9,544.1 L 781.0,543.7 L 776.0,543.5 L 771.5,543.3 L 765.9,543.2 L 760.5,543.1 L 754.3,543.0 L 749.1,543.0 L 742.8,543.1 L 735.9,543.3 L 727.0,543.6 L 716.6,544.1 L 708.0,544.7 L 701.1,545.2 L 692.5,546.1 L 686.3,546.7 L 678.3,547.7 L 671.4,548.6 L 664.9,549.5 L 657.6,550.5 L 651.1,551.4 L 644.9,552.4 L 637.4,553.7 L 630.1,555.0 L 622.9,556.4 L 615.5,558.0 L 606.5,559.9 L 599.4,561.6 L 591.6,563.4 L 582.1,565.9 L 573.7,568.2 L 565.3,570.7 L 556.7,573.3 L 547.9,576.2 L 540.9,578.5 L 533.7,581.0 L 525.2,583.9 L 518.2,586.5 L 510.9,589.3 L 503.7,592.2 L 496.2,595.1 L 488.2,598.4 L 480.6,601.6 L 468.8,606.5 L 460.4,610.2 L 452.3,613.9 L 444.7,617.7 L 438.1,621.0 L 432.6,624.0 L 413.6,634.9 L 411.3,636.2 L 409.3,637.1 L 407.5,637.8 L 405.7,638.1 L 403.8,638.2 L 401.7,638.1 L 400.2,637.8 L 398.9,637.4 L 397.6,636.7 L 396.5,635.9 L 395.5,635.0 L 394.8,634.4 L 393.9,633.2 L 392.8,631.8 L 391.6,629.8 L 386.8,620.9 L 385.4,618.5 L 383.9,616.3 L 382.2,613.7 L 381.1,612.2 L 379.7,610.7 L 378.2,609.2 L 376.9,608.1 L 375.3,606.9 L 373.1,605.5 L 371.1,604.4 L 369.2,603.5 L 367.1,602.8 L 364.9,602.2 L 362.5,601.8 L 360.5,601.5 L 358.3,601.4 L 356.0,601.4 L 353.6,601.6 L 351.2,602.0 L 349.3,602.4 L 347.3,603.0 L 345.1,603.9 L 343.3,604.8 L 341.5,605.8 L 339.6,607.0 L 337.6,608.4 L 336.1,609.6 L 334.9,610.6 L 333.5,612.0 L 332.3,613.2 L 331.3,614.5 L 330.3,615.9 L 329.5,617.3 L 328.6,618.8 L 327.8,620.4 L 327.2,621.9 L 326.6,623.6 L 326.1,625.7 L 325.7,627.2 L 325.6,628.5 L 325.4,630.0 L 325.4,631.3 L 325.5,632.6 L 325.6,634.5 L 325.8,636.0 L 326.0,637.7 L 326.3,639.7 L 327.4,645.7 L 357.8,824.6 L 362.3,851.2 L 362.7,853.6 L 362.9,855.6 L 363.0,857.5 L 363.1,859.6 L 363.1,861.7 L 362.9,863.8 L 362.7,865.9 L 362.4,867.8 L 362.0,869.7 L 361.6,871.5 L 361.2,873.3 L 360.8,875.0 L 360.2,876.6 L 359.5,878.4 L 358.9,880.0 L 358.2,881.5 L 357.3,883.1 L 356.3,884.8 L 355.4,886.4 L 354.3,887.9 L 353.2,889.5 L 352.0,890.9 L 350.6,892.5 L 349.3,893.9 L 347.8,895.5 L 346.3,896.8 L 344.9,898.1 L 343.3,899.3 L 341.6,900.5 L 340.0,901.5 L 338.2,902.6 L 336.0,903.7 L 333.6,904.7 L 331.3,905.6 L 328.8,906.4 L 326.7,907.0 L 324.9,907.4 L 323.1,907.8 L 321.6,908.1 L 319.8,908.3 L 317.8,908.5 L 315.8,908.6 L 313.0,908.7 L 250.0,910.0 L 245.4,909.9 L 241.7,909.8 L 238.7,909.6 L 235.5,909.3 L 232.6,908.9 L 229.7,908.5 L 227.3,908.0 L 224.8,907.6 L 222.3,907.0 L 220.5,906.6 L 218.8,906.2 L 217.0,905.7 L 215.2,905.2 L 213.3,904.6 L 211.6,904.0 L 209.6,903.3 L 207.7,902.6 L 205.5,901.8 L 203.8,901.1 L 201.8,900.1 L 199.8,899.3 L 198.0,898.4 L 196.0,897.4 L 194.1,896.4 L 191.7,895.2 L 189.2,893.8 L 186.9,892.4 L 184.3,890.7 L 181.6,888.9 L 179.0,887.1 L 176.3,885.1 L 174.0,883.2 L 170.9,880.7 L 168.2,878.3 L 166.0,876.2 L 163.5,873.8 L 160.6,870.8 L 158.4,868.3 L 156.6,866.2 L 154.4,863.4 L 152.7,861.1 L 150.8,858.5 L 149.2,856.1 L 147.1,852.7 L 145.6,850.0 L 144.0,846.8 L 142.0,842.8 L 140.5,839.5 L 138.8,835.4 L 137.6,832.1 L 136.1,827.8 L 135.0,824.2 L 134.2,821.3 L 133.6,818.9 L 132.9,816.1 L 132.4,813.6 L 131.8,810.6 L 131.4,808.2 L 131.1,805.5 L 130.9,803.3 L 130.7,801.0 L 130.4,798.4 L 130.3,796.2 L 130.3,793.7 L 130.3,790.1 L 130.4,786.9 L 130.5,782.8 L 130.8,780.1 L 131.2,777.2 L 131.6,774.6 L 131.9,771.9 L 132.5,768.3 L 133.0,765.6 L 133.5,763.4 L 134.1,761.1 L 134.9,758.1 L 135.7,755.5 L 136.8,752.3 L 138.0,749.2 L 139.3,745.9 L 140.5,742.9 L 149.0,722.1 L 158.1,700.2 L 178.3,651.4 L 210.5,572.9 L 260.8,450.3 L 279.5,404.7 L 294.5,368.4 L 368.2,188.9 Z" fill="none" stroke="#000000" stroke-opacity="0.5" stroke-width="13" stroke-linejoin="round" stroke-linecap="round"/>
<path d="M 368.2,188.9 L 369.9,185.9 L 371.7,182.9 L 374.5,179.5 L 378.4,176.0 L 382.5,173.2 L 386.7,171.0 L 391.3,169.4 L 396.2,168.4 L 401.6,168.0 L 406.4,168.4 L 412.3,169.8 L 417.4,172.1 L 421.7,174.7 L 425.3,178.0 L 428.2,181.1 L 431.7,185.7 L 434.2,190.4 L 435.9,195.1 L 436.8,199.9 L 437.3,205.0 L 437.2,209.2 L 436.8,212.6 L 436.0,215.8 L 434.9,219.2 L 414.2,270.9 L 398.4,306.1 L 395.1,315.7 L 391.6,326.0 L 389.1,334.5 L 387.1,342.7 L 385.6,350.1 L 384.7,355.8 L 383.8,362.5 L 383.1,370.2 L 382.8,377.6 L 382.7,384.5 L 382.7,421.4 L 382.6,423.6 L 382.3,425.8 L 381.7,428.3 L 381.0,430.5 L 380.1,432.5 L 379.1,434.6 L 377.7,437.0 L 375.4,440.6 L 372.8,443.9 L 370.0,446.9 L 367.2,449.4 L 363.6,451.9 L 360.3,454.0 L 356.4,456.0 L 351.7,458.0 L 307.7,475.0 L 303.9,476.5 L 298.9,478.3 L 295.8,479.9 L 292.6,482.2 L 290.3,484.2 L 287.6,487.5 L 285.5,490.9 L 283.8,494.6 L 282.6,498.4 L 282.0,502.6 L 281.9,506.6 L 282.6,511.4 L 283.7,516.1 L 285.3,519.9 L 287.6,523.7 L 290.6,527.5 L 294.1,530.5 L 297.9,533.2 L 302.7,535.5 L 307.0,536.7 L 310.9,537.2 L 314.0,537.2 L 317.7,537.0 L 321.3,536.2 L 326.0,535.1 L 330.4,533.8 L 338.6,531.1 L 385.1,515.8 L 395.4,512.8 L 406.1,509.8 L 417.5,506.9 L 429.0,504.3 L 438.7,502.8 L 447.9,501.8 L 456.0,501.2 L 464.5,500.8 L 473.0,500.9 L 481.8,501.1 L 490.3,501.5 L 497.3,502.2 L 506.3,503.3 L 513.8,504.4 L 523.3,506.2 L 532.8,508.2 L 541.7,510.3 L 576.3,518.4 L 583.5,519.7 L 589.4,520.7 L 595.0,521.4 L 601.8,522.0 L 608.5,522.5 L 615.1,522.6 L 621.2,522.5 L 628.5,521.6 L 634.9,520.7 L 642.3,519.2 L 649.8,517.2 L 657.1,514.7 L 672.9,508.0 L 677.9,505.7 L 684.6,502.1 L 690.7,498.7 L 696.2,495.2 L 704.2,490.1 L 707.0,488.3 L 708.9,487.0 L 713.7,483.9 L 716.7,482.0 L 723.8,477.7 L 730.6,473.7 L 736.6,470.4 L 743.0,467.1 L 749.9,463.7 L 756.7,461.1 L 764.1,458.7 L 772.9,456.2 L 782.1,454.6 L 792.2,453.4 L 798.0,452.9 L 806.1,452.7 L 814.5,452.7 L 822.1,453.0 L 831.7,453.5 L 842.7,454.1 L 902.8,457.6 L 908.8,458.1 L 914.3,458.7 L 919.5,459.4 L 924.9,460.3 L 930.0,461.3 L 935.5,462.8 L 941.4,464.8 L 946.9,467.0 L 951.4,469.2 L 955.5,471.5 L 960.2,474.4 L 965.4,478.2 L 970.3,482.4 L 974.4,486.3 L 978.3,490.5 L 982.3,495.5 L 985.0,499.4 L 987.7,503.8 L 990.2,508.3 L 991.9,512.0 L 993.9,516.6 L 995.4,521.2 L 996.9,526.4 L 998.0,531.0 L 998.8,535.3 L 999.3,540.2 L 999.6,544.6 L 999.7,549.3 L 999.7,553.5 L 999.3,558.3 L 998.6,563.1 L 997.7,567.9 L 996.7,571.9 L 995.5,576.0 L 994.4,579.3 L 992.7,583.5 L 991.0,587.2 L 988.6,591.7 L 986.6,595.2 L 984.7,598.4 L 982.0,602.7 L 979.3,606.6 L 942.6,659.4 L 939.0,664.8 L 935.5,670.1 L 932.5,674.7 L 930.1,678.9 L 927.8,683.0 L 925.5,687.4 L 922.4,693.5 L 919.6,699.6 L 916.6,705.9 L 913.6,712.6 L 911.3,717.5 L 891.0,758.5 L 889.2,761.8 L 887.9,763.9 L 886.5,765.7 L 884.4,767.8 L 882.7,769.2 L 880.3,770.8 L 877.3,772.3 L 874.8,773.3 L 871.4,774.2 L 867.4,774.9 L 862.6,775.4 L 857.1,775.9 L 850.5,776.1 L 843.3,776.0 L 835.9,775.7 L 828.2,775.0 L 821.1,774.2 L 813.0,772.8 L 805.9,771.2 L 798.4,769.3 L 791.5,767.2 L 784.4,764.9 L 780.9,763.6 L 776.0,761.7 L 769.6,758.9 L 762.7,755.5 L 756.0,751.9 L 748.4,747.4 L 740.3,742.1 L 733.9,737.4 L 729.4,733.8 L 724.4,729.5 L 720.2,725.7 L 716.8,722.6 L 714.2,720.0 L 712.1,717.7 L 710.2,715.4 L 708.6,713.0 L 707.5,710.8 L 706.5,708.1 L 705.7,705.2 L 705.4,703.0 L 705.2,700.7 L 705.2,698.4 L 705.4,696.1 L 706.2,693.2 L 707.2,690.9 L 708.4,688.5 L 710.0,686.2 L 711.7,683.9 L 713.6,681.7 L 715.6,679.7 L 717.3,678.2 L 719.3,676.5 L 721.5,674.7 L 723.6,673.2 L 725.8,671.6 L 728.5,669.8 L 730.6,668.4 L 732.5,667.3 L 734.7,666.1 L 736.9,664.9 L 740.0,663.3 L 742.5,662.2 L 745.0,661.0 L 747.1,660.1 L 749.8,659.2 L 752.0,658.6 L 753.9,658.1 L 755.8,657.7 L 757.7,657.3 L 760.1,656.9 L 762.6,656.5 L 766.7,655.8 L 782.0,653.8 L 787.3,653.1 L 792.0,652.3 L 796.5,651.6 L 800.8,650.8 L 805.1,650.0 L 808.6,649.1 L 812.8,648.1 L 817.0,647.0 L 820.7,645.9 L 824.6,644.7 L 828.5,643.5 L 833.0,641.9 L 836.6,640.6 L 840.0,639.3 L 843.8,637.9 L 847.3,636.4 L 850.4,635.0 L 853.4,633.7 L 856.5,632.3 L 859.8,630.7 L 862.0,629.4 L 864.1,628.2 L 865.7,627.2 L 867.2,626.1 L 868.6,625.0 L 870.1,623.7 L 871.3,622.4 L 872.4,621.1 L 874.0,619.3 L 875.1,617.7 L 876.5,615.7 L 877.5,614.0 L 878.3,612.4 L 879.2,610.6 L 880.0,609.1 L 880.7,607.3 L 881.3,605.5 L 881.8,603.9 L 882.2,602.2 L 882.5,600.5 L 882.9,598.4 L 883.1,596.5 L 883.2,594.9 L 883.3,593.4 L 883.3,591.7 L 883.2,589.8 L 883.1,588.2 L 882.9,586.6 L 882.6,584.6 L 882.3,583.2 L 881.8,581.3 L 881.2,579.3 L 880.6,577.6 L 879.9,576.2 L 879.2,574.7 L 878.7,573.7 L 878.0,572.5 L 877.4,571.4 L 876.7,570.0 L 875.9,568.8 L 874.7,567.1 L 873.5,565.5 L 872.4,564.4 L 871.2,563.0 L 869.9,561.6 L 868.5,560.3 L 866.8,558.9 L 865.0,557.6 L 863.4,556.5 L 861.5,555.3 L 859.0,553.9 L 857.3,553.1 L 855.3,552.3 L 853.1,551.6 L 850.8,551.0 L 847.9,550.4 L 843.9,549.8 L 801.2,545.4 L 796.0,544.9 L 791.2,544.4 L 785.9,544.1 L 781.0,543.7 L 776.0,543.5 L 771.5,543.3 L 765.9,543.2 L 760.5,543.1 L 754.3,543.0 L 749.1,543.0 L 742.8,543.1 L 735.9,543.3 L 727.0,543.6 L 716.6,544.1 L 708.0,544.7 L 701.1,545.2 L 692.5,546.1 L 686.3,546.7 L 678.3,547.7 L 671.4,548.6 L 664.9,549.5 L 657.6,550.5 L 651.1,551.4 L 644.9,552.4 L 637.4,553.7 L 630.1,555.0 L 622.9,556.4 L 615.5,558.0 L 606.5,559.9 L 599.4,561.6 L 591.6,563.4 L 582.1,565.9 L 573.7,568.2 L 565.3,570.7 L 556.7,573.3 L 547.9,576.2 L 540.9,578.5 L 533.7,581.0 L 525.2,583.9 L 518.2,586.5 L 510.9,589.3 L 503.7,592.2 L 496.2,595.1 L 488.2,598.4 L 480.6,601.6 L 468.8,606.5 L 460.4,610.2 L 452.3,613.9 L 444.7,617.7 L 438.1,621.0 L 432.6,624.0 L 413.6,634.9 L 411.3,636.2 L 409.3,637.1 L 407.5,637.8 L 405.7,638.1 L 403.8,638.2 L 401.7,638.1 L 400.2,637.8 L 398.9,637.4 L 397.6,636.7 L 396.5,635.9 L 395.5,635.0 L 394.8,634.4 L 393.9,633.2 L 392.8,631.8 L 391.6,629.8 L 386.8,620.9 L 385.4,618.5 L 383.9,616.3 L 382.2,613.7 L 381.1,612.2 L 379.7,610.7 L 378.2,609.2 L 376.9,608.1 L 375.3,606.9 L 373.1,605.5 L 371.1,604.4 L 369.2,603.5 L 367.1,602.8 L 364.9,602.2 L 362.5,601.8 L 360.5,601.5 L 358.3,601.4 L 356.0,601.4 L 353.6,601.6 L 351.2,602.0 L 349.3,602.4 L 347.3,603.0 L 345.1,603.9 L 343.3,604.8 L 341.5,605.8 L 339.6,607.0 L 337.6,608.4 L 336.1,609.6 L 334.9,610.6 L 333.5,612.0 L 332.3,613.2 L 331.3,614.5 L 330.3,615.9 L 329.5,617.3 L 328.6,618.8 L 327.8,620.4 L 327.2,621.9 L 326.6,623.6 L 326.1,625.7 L 325.7,627.2 L 325.6,628.5 L 325.4,630.0 L 325.4,631.3 L 325.5,632.6 L 325.6,634.5 L 325.8,636.0 L 326.0,637.7 L 326.3,639.7 L 327.4,645.7 L 357.8,824.6 L 362.3,851.2 L 362.7,853.6 L 362.9,855.6 L 363.0,857.5 L 363.1,859.6 L 363.1,861.7 L 362.9,863.8 L 362.7,865.9 L 362.4,867.8 L 362.0,869.7 L 361.6,871.5 L 361.2,873.3 L 360.8,875.0 L 360.2,876.6 L 359.5,878.4 L 358.9,880.0 L 358.2,881.5 L 357.3,883.1 L 356.3,884.8 L 355.4,886.4 L 354.3,887.9 L 353.2,889.5 L 352.0,890.9 L 350.6,892.5 L 349.3,893.9 L 347.8,895.5 L 346.3,896.8 L 344.9,898.1 L 343.3,899.3 L 341.6,900.5 L 340.0,901.5 L 338.2,902.6 L 336.0,903.7 L 333.6,904.7 L 331.3,905.6 L 328.8,906.4 L 326.7,907.0 L 324.9,907.4 L 323.1,907.8 L 321.6,908.1 L 319.8,908.3 L 317.8,908.5 L 315.8,908.6 L 313.0,908.7 L 250.0,910.0 L 245.4,909.9 L 241.7,909.8 L 238.7,909.6 L 235.5,909.3 L 232.6,908.9 L 229.7,908.5 L 227.3,908.0 L 224.8,907.6 L 222.3,907.0 L 220.5,906.6 L 218.8,906.2 L 217.0,905.7 L 215.2,905.2 L 213.3,904.6 L 211.6,904.0 L 209.6,903.3 L 207.7,902.6 L 205.5,901.8 L 203.8,901.1 L 201.8,900.1 L 199.8,899.3 L 198.0,898.4 L 196.0,897.4 L 194.1,896.4 L 191.7,895.2 L 189.2,893.8 L 186.9,892.4 L 184.3,890.7 L 181.6,888.9 L 179.0,887.1 L 176.3,885.1 L 174.0,883.2 L 170.9,880.7 L 168.2,878.3 L 166.0,876.2 L 163.5,873.8 L 160.6,870.8 L 158.4,868.3 L 156.6,866.2 L 154.4,863.4 L 152.7,861.1 L 150.8,858.5 L 149.2,856.1 L 147.1,852.7 L 145.6,850.0 L 144.0,846.8 L 142.0,842.8 L 140.5,839.5 L 138.8,835.4 L 137.6,832.1 L 136.1,827.8 L 135.0,824.2 L 134.2,821.3 L 133.6,818.9 L 132.9,816.1 L 132.4,813.6 L 131.8,810.6 L 131.4,808.2 L 131.1,805.5 L 130.9,803.3 L 130.7,801.0 L 130.4,798.4 L 130.3,796.2 L 130.3,793.7 L 130.3,790.1 L 130.4,786.9 L 130.5,782.8 L 130.8,780.1 L 131.2,777.2 L 131.6,774.6 L 131.9,771.9 L 132.5,768.3 L 133.0,765.6 L 133.5,763.4 L 134.1,761.1 L 134.9,758.1 L 135.7,755.5 L 136.8,752.3 L 138.0,749.2 L 139.3,745.9 L 140.5,742.9 L 149.0,722.1 L 158.1,700.2 L 178.3,651.4 L 210.5,572.9 L 260.8,450.3 L 279.5,404.7 L 294.5,368.4 L 368.2,188.9 Z" fill="none" stroke="#39404f" stroke-width="8.5" stroke-linejoin="round" stroke-linecap="round"/>
<path d="M 368.2,188.9 L 369.9,185.9 L 371.7,182.9 L 374.5,179.5 L 378.4,176.0 L 382.5,173.2 L 386.7,171.0 L 391.3,169.4 L 396.2,168.4 L 401.6,168.0 L 406.4,168.4 L 412.3,169.8 L 417.4,172.1 L 421.7,174.7 L 425.3,178.0 L 428.2,181.1 L 431.7,185.7 L 434.2,190.4 L 435.9,195.1 L 436.8,199.9 L 437.3,205.0 L 437.2,209.2 L 436.8,212.6 L 436.0,215.8 L 434.9,219.2 L 414.2,270.9 L 398.4,306.1 L 395.1,315.7 L 391.6,326.0 L 389.1,334.5 L 387.1,342.7 L 385.6,350.1 L 384.7,355.8 L 383.8,362.5 L 383.1,370.2 L 382.8,377.6 L 382.7,384.5 L 382.7,421.4 L 382.6,423.6 L 382.3,425.8 L 381.7,428.3 L 381.0,430.5 L 380.1,432.5 L 379.1,434.6 L 377.7,437.0 L 375.4,440.6 L 372.8,443.9 L 370.0,446.9 L 367.2,449.4 L 363.6,451.9 L 360.3,454.0 L 356.4,456.0 L 351.7,458.0 L 307.7,475.0 L 303.9,476.5 L 298.9,478.3 L 295.8,479.9 L 292.6,482.2 L 290.3,484.2 L 287.6,487.5 L 285.5,490.9 L 283.8,494.6 L 282.6,498.4 L 282.0,502.6 L 281.9,506.6 L 282.6,511.4 L 283.7,516.1 L 285.3,519.9 L 287.6,523.7 L 290.6,527.5 L 294.1,530.5 L 297.9,533.2 L 302.7,535.5 L 307.0,536.7 L 310.9,537.2 L 314.0,537.2 L 317.7,537.0 L 321.3,536.2 L 326.0,535.1 L 330.4,533.8 L 338.6,531.1 L 385.1,515.8 L 395.4,512.8 L 406.1,509.8 L 417.5,506.9 L 429.0,504.3 L 438.7,502.8 L 447.9,501.8 L 456.0,501.2 L 464.5,500.8 L 473.0,500.9 L 481.8,501.1 L 490.3,501.5 L 497.3,502.2 L 506.3,503.3 L 513.8,504.4 L 523.3,506.2 L 532.8,508.2 L 541.7,510.3 L 576.3,518.4 L 583.5,519.7 L 589.4,520.7 L 595.0,521.4 L 601.8,522.0 L 608.5,522.5 L 615.1,522.6 L 621.2,522.5 L 628.5,521.6 L 634.9,520.7 L 642.3,519.2 L 649.8,517.2 L 657.1,514.7 L 672.9,508.0 L 677.9,505.7 L 684.6,502.1 L 690.7,498.7 L 696.2,495.2 L 704.2,490.1 L 707.0,488.3 L 708.9,487.0 L 713.7,483.9 L 716.7,482.0 L 723.8,477.7 L 730.6,473.7 L 736.6,470.4 L 743.0,467.1 L 749.9,463.7 L 756.7,461.1 L 764.1,458.7 L 772.9,456.2 L 782.1,454.6 L 792.2,453.4 L 798.0,452.9 L 806.1,452.7 L 814.5,452.7 L 822.1,453.0 L 831.7,453.5 L 842.7,454.1 L 902.8,457.6 L 908.8,458.1 L 914.3,458.7 L 919.5,459.4 L 924.9,460.3 L 930.0,461.3 L 935.5,462.8 L 941.4,464.8 L 946.9,467.0 L 951.4,469.2 L 955.5,471.5 L 960.2,474.4 L 965.4,478.2 L 970.3,482.4 L 974.4,486.3 L 978.3,490.5 L 982.3,495.5 L 985.0,499.4 L 987.7,503.8 L 990.2,508.3 L 991.9,512.0 L 993.9,516.6 L 995.4,521.2 L 996.9,526.4 L 998.0,531.0 L 998.8,535.3 L 999.3,540.2 L 999.6,544.6 L 999.7,549.3 L 999.7,553.5 L 999.3,558.3 L 998.6,563.1 L 997.7,567.9 L 996.7,571.9 L 995.5,576.0 L 994.4,579.3 L 992.7,583.5 L 991.0,587.2 L 988.6,591.7 L 986.6,595.2 L 984.7,598.4 L 982.0,602.7 L 979.3,606.6 L 942.6,659.4 L 939.0,664.8 L 935.5,670.1 L 932.5,674.7 L 930.1,678.9 L 927.8,683.0 L 925.5,687.4 L 922.4,693.5 L 919.6,699.6 L 916.6,705.9 L 913.6,712.6 L 911.3,717.5 L 891.0,758.5 L 889.2,761.8 L 887.9,763.9 L 886.5,765.7 L 884.4,767.8 L 882.7,769.2 L 880.3,770.8 L 877.3,772.3 L 874.8,773.3 L 871.4,774.2 L 867.4,774.9 L 862.6,775.4 L 857.1,775.9 L 850.5,776.1 L 843.3,776.0 L 835.9,775.7 L 828.2,775.0 L 821.1,774.2 L 813.0,772.8 L 805.9,771.2 L 798.4,769.3 L 791.5,767.2 L 784.4,764.9 L 780.9,763.6 L 776.0,761.7 L 769.6,758.9 L 762.7,755.5 L 756.0,751.9 L 748.4,747.4 L 740.3,742.1 L 733.9,737.4 L 729.4,733.8 L 724.4,729.5 L 720.2,725.7 L 716.8,722.6 L 714.2,720.0 L 712.1,717.7 L 710.2,715.4 L 708.6,713.0 L 707.5,710.8 L 706.5,708.1 L 705.7,705.2 L 705.4,703.0 L 705.2,700.7 L 705.2,698.4 L 705.4,696.1 L 706.2,693.2 L 707.2,690.9 L 708.4,688.5 L 710.0,686.2 L 711.7,683.9 L 713.6,681.7 L 715.6,679.7 L 717.3,678.2 L 719.3,676.5 L 721.5,674.7 L 723.6,673.2 L 725.8,671.6 L 728.5,669.8 L 730.6,668.4 L 732.5,667.3 L 734.7,666.1 L 736.9,664.9 L 740.0,663.3 L 742.5,662.2 L 745.0,661.0 L 747.1,660.1 L 749.8,659.2 L 752.0,658.6 L 753.9,658.1 L 755.8,657.7 L 757.7,657.3 L 760.1,656.9 L 762.6,656.5 L 766.7,655.8 L 782.0,653.8 L 787.3,653.1 L 792.0,652.3 L 796.5,651.6 L 800.8,650.8 L 805.1,650.0 L 808.6,649.1 L 812.8,648.1 L 817.0,647.0 L 820.7,645.9 L 824.6,644.7 L 828.5,643.5 L 833.0,641.9 L 836.6,640.6 L 840.0,639.3 L 843.8,637.9 L 847.3,636.4 L 850.4,635.0 L 853.4,633.7 L 856.5,632.3 L 859.8,630.7 L 862.0,629.4 L 864.1,628.2 L 865.7,627.2 L 867.2,626.1 L 868.6,625.0 L 870.1,623.7 L 871.3,622.4 L 872.4,621.1 L 874.0,619.3 L 875.1,617.7 L 876.5,615.7 L 877.5,614.0 L 878.3,612.4 L 879.2,610.6 L 880.0,609.1 L 880.7,607.3 L 881.3,605.5 L 881.8,603.9 L 882.2,602.2 L 882.5,600.5 L 882.9,598.4 L 883.1,596.5 L 883.2,594.9 L 883.3,593.4 L 883.3,591.7 L 883.2,589.8 L 883.1,588.2 L 882.9,586.6 L 882.6,584.6 L 882.3,583.2 L 881.8,581.3 L 881.2,579.3 L 880.6,577.6 L 879.9,576.2 L 879.2,574.7 L 878.7,573.7 L 878.0,572.5 L 877.4,571.4 L 876.7,570.0 L 875.9,568.8 L 874.7,567.1 L 873.5,565.5 L 872.4,564.4 L 871.2,563.0 L 869.9,561.6 L 868.5,560.3 L 866.8,558.9 L 865.0,557.6 L 863.4,556.5 L 861.5,555.3 L 859.0,553.9 L 857.3,553.1 L 855.3,552.3 L 853.1,551.6 L 850.8,551.0 L 847.9,550.4 L 843.9,549.8 L 801.2,545.4 L 796.0,544.9 L 791.2,544.4 L 785.9,544.1 L 781.0,543.7 L 776.0,543.5 L 771.5,543.3 L 765.9,543.2 L 760.5,543.1 L 754.3,543.0 L 749.1,543.0 L 742.8,543.1 L 735.9,543.3 L 727.0,543.6 L 716.6,544.1 L 708.0,544.7 L 701.1,545.2 L 692.5,546.1 L 686.3,546.7 L 678.3,547.7 L 671.4,548.6 L 664.9,549.5 L 657.6,550.5 L 651.1,551.4 L 644.9,552.4 L 637.4,553.7 L 630.1,555.0 L 622.9,556.4 L 615.5,558.0 L 606.5,559.9 L 599.4,561.6 L 591.6,563.4 L 582.1,565.9 L 573.7,568.2 L 565.3,570.7 L 556.7,573.3 L 547.9,576.2 L 540.9,578.5 L 533.7,581.0 L 525.2,583.9 L 518.2,586.5 L 510.9,589.3 L 503.7,592.2 L 496.2,595.1 L 488.2,598.4 L 480.6,601.6 L 468.8,606.5 L 460.4,610.2 L 452.3,613.9 L 444.7,617.7 L 438.1,621.0 L 432.6,624.0 L 413.6,634.9 L 411.3,636.2 L 409.3,637.1 L 407.5,637.8 L 405.7,638.1 L 403.8,638.2 L 401.7,638.1 L 400.2,637.8 L 398.9,637.4 L 397.6,636.7 L 396.5,635.9 L 395.5,635.0 L 394.8,634.4 L 393.9,633.2 L 392.8,631.8 L 391.6,629.8 L 386.8,620.9 L 385.4,618.5 L 383.9,616.3 L 382.2,613.7 L 381.1,612.2 L 379.7,610.7 L 378.2,609.2 L 376.9,608.1 L 375.3,606.9 L 373.1,605.5 L 371.1,604.4 L 369.2,603.5 L 367.1,602.8 L 364.9,602.2 L 362.5,601.8 L 360.5,601.5 L 358.3,601.4 L 356.0,601.4 L 353.6,601.6 L 351.2,602.0 L 349.3,602.4 L 347.3,603.0 L 345.1,603.9 L 343.3,604.8 L 341.5,605.8 L 339.6,607.0 L 337.6,608.4 L 336.1,609.6 L 334.9,610.6 L 333.5,612.0 L 332.3,613.2 L 331.3,614.5 L 330.3,615.9 L 329.5,617.3 L 328.6,618.8 L 327.8,620.4 L 327.2,621.9 L 326.6,623.6 L 326.1,625.7 L 325.7,627.2 L 325.6,628.5 L 325.4,630.0 L 325.4,631.3 L 325.5,632.6 L 325.6,634.5 L 325.8,636.0 L 326.0,637.7 L 326.3,639.7 L 327.4,645.7 L 357.8,824.6 L 362.3,851.2 L 362.7,853.6 L 362.9,855.6 L 363.0,857.5 L 363.1,859.6 L 363.1,861.7 L 362.9,863.8 L 362.7,865.9 L 362.4,867.8 L 362.0,869.7 L 361.6,871.5 L 361.2,873.3 L 360.8,875.0 L 360.2,876.6 L 359.5,878.4 L 358.9,880.0 L 358.2,881.5 L 357.3,883.1 L 356.3,884.8 L 355.4,886.4 L 354.3,887.9 L 353.2,889.5 L 352.0,890.9 L 350.6,892.5 L 349.3,893.9 L 347.8,895.5 L 346.3,896.8 L 344.9,898.1 L 343.3,899.3 L 341.6,900.5 L 340.0,901.5 L 338.2,902.6 L 336.0,903.7 L 333.6,904.7 L 331.3,905.6 L 328.8,906.4 L 326.7,907.0 L 324.9,907.4 L 323.1,907.8 L 321.6,908.1 L 319.8,908.3 L 317.8,908.5 L 315.8,908.6 L 313.0,908.7 L 250.0,910.0 L 245.4,909.9 L 241.7,909.8 L 238.7,909.6 L 235.5,909.3 L 232.6,908.9 L 229.7,908.5 L 227.3,908.0 L 224.8,907.6 L 222.3,907.0 L 220.5,906.6 L 218.8,906.2 L 217.0,905.7 L 215.2,905.2 L 213.3,904.6 L 211.6,904.0 L 209.6,903.3 L 207.7,902.6 L 205.5,901.8 L 203.8,901.1 L 201.8,900.1 L 199.8,899.3 L 198.0,898.4 L 196.0,897.4 L 194.1,896.4 L 191.7,895.2 L 189.2,893.8 L 186.9,892.4 L 184.3,890.7 L 181.6,888.9 L 179.0,887.1 L 176.3,885.1 L 174.0,883.2 L 170.9,880.7 L 168.2,878.3 L 166.0,876.2 L 163.5,873.8 L 160.6,870.8 L 158.4,868.3 L 156.6,866.2 L 154.4,863.4 L 152.7,861.1 L 150.8,858.5 L 149.2,856.1 L 147.1,852.7 L 145.6,850.0 L 144.0,846.8 L 142.0,842.8 L 140.5,839.5 L 138.8,835.4 L 137.6,832.1 L 136.1,827.8 L 135.0,824.2 L 134.2,821.3 L 133.6,818.9 L 132.9,816.1 L 132.4,813.6 L 131.8,810.6 L 131.4,808.2 L 131.1,805.5 L 130.9,803.3 L 130.7,801.0 L 130.4,798.4 L 130.3,796.2 L 130.3,793.7 L 130.3,790.1 L 130.4,786.9 L 130.5,782.8 L 130.8,780.1 L 131.2,777.2 L 131.6,774.6 L 131.9,771.9 L 132.5,768.3 L 133.0,765.6 L 133.5,763.4 L 134.1,761.1 L 134.9,758.1 L 135.7,755.5 L 136.8,752.3 L 138.0,749.2 L 139.3,745.9 L 140.5,742.9 L 149.0,722.1 L 158.1,700.2 L 178.3,651.4 L 210.5,572.9 L 260.8,450.3 L 279.5,404.7 L 294.5,368.4 L 368.2,188.9 Z" fill="none" stroke="#e7edf8" stroke-width="2.6" stroke-linejoin="round" stroke-linecap="round"/>
<path d="M 368.2,188.9 L 369.9,185.9 L 371.7,182.9 L 374.5,179.5 L 378.4,176.0 L 382.5,173.2 L 386.7,171.0 L 391.3,169.4 L 396.2,168.4 L 401.6,168.0 L 406.4,168.4 L 412.3,169.8 L 417.4,172.1 L 421.7,174.7 L 425.3,178.0 L 428.2,181.1 L 431.7,185.7 L 434.2,190.4 L 435.9,195.1 L 436.8,199.9 L 437.3,205.0 L 437.2,209.2 L 436.8,212.6 L 436.0,215.8 L 434.9,219.2 L 414.2,270.9 L 398.4,306.1 L 395.1,315.7 L 391.6,326.0 L 389.1,334.5 L 387.1,342.7 L 385.6,350.1 L 384.7,355.8 L 383.8,362.5 L 383.1,370.2 L 382.8,377.6 L 382.7,384.5 L 382.7,421.4 L 382.6,423.6 L 382.3,425.8 L 381.7,428.3 L 381.0,430.5 L 380.1,432.5 L 379.1,434.6 L 377.7,437.0 L 375.4,440.6 L 372.8,443.9 L 370.0,446.9 L 367.2,449.4 L 363.6,451.9 L 360.3,454.0 L 356.4,456.0 L 351.7,458.0 L 307.7,475.0 L 303.9,476.5 L 298.9,478.3 L 295.8,479.9 L 292.6,482.2 L 290.3,484.2 L 287.6,487.5 L 285.5,490.9 L 283.8,494.6 L 282.6,498.4 L 282.0,502.6 L 281.9,506.6 L 282.6,511.4 L 283.7,516.1 L 285.3,519.9 L 287.6,523.7 L 290.6,527.5 L 294.1,530.5 L 297.9,533.2 L 302.7,535.5 L 307.0,536.7 L 310.9,537.2 L 314.0,537.2 L 317.7,537.0 L 321.3,536.2 L 326.0,535.1 L 330.4,533.8 L 338.6,531.1 L 385.1,515.8 L 395.4,512.8 L 406.1,509.8 L 417.5,506.9 L 429.0,504.3 L 438.7,502.8 L 447.9,501.8 L 456.0,501.2 L 464.5,500.8 L 473.0,500.9 L 481.8,501.1 L 490.3,501.5 L 497.3,502.2 L 506.3,503.3 L 513.8,504.4 L 523.3,506.2 L 532.8,508.2 L 541.7,510.3 L 576.3,518.4 L 583.5,519.7 L 589.4,520.7 L 595.0,521.4 L 601.8,522.0 L 608.5,522.5 L 615.1,522.6 L 621.2,522.5 L 628.5,521.6 L 634.9,520.7 L 642.3,519.2 L 649.8,517.2 L 657.1,514.7 L 672.9,508.0 L 677.9,505.7 L 684.6,502.1 L 690.7,498.7 L 696.2,495.2 L 704.2,490.1 L 707.0,488.3 L 708.9,487.0 L 713.7,483.9 L 716.7,482.0 L 723.8,477.7 L 730.6,473.7 L 736.6,470.4 L 743.0,467.1 L 749.9,463.7 L 756.7,461.1 L 764.1,458.7 L 772.9,456.2 L 782.1,454.6 L 792.2,453.4 L 798.0,452.9 L 806.1,452.7 L 814.5,452.7 L 822.1,453.0 L 831.7,453.5 L 842.7,454.1 L 902.8,457.6 L 908.8,458.1 L 914.3,458.7 L 919.5,459.4 L 924.9,460.3 L 930.0,461.3 L 935.5,462.8 L 941.4,464.8 L 946.9,467.0 L 951.4,469.2 L 955.5,471.5 L 960.2,474.4 L 965.4,478.2 L 970.3,482.4 L 974.4,486.3 L 978.3,490.5 L 982.3,495.5 L 985.0,499.4 L 987.7,503.8 L 990.2,508.3 L 991.9,512.0 L 993.9,516.6 L 995.4,521.2 L 996.9,526.4 L 998.0,531.0 L 998.8,535.3 L 999.3,540.2 L 999.6,544.6 L 999.7,549.3 L 999.7,553.5 L 999.3,558.3 L 998.6,563.1 L 997.7,567.9 L 996.7,571.9 L 995.5,576.0 L 994.4,579.3 L 992.7,583.5 L 991.0,587.2 L 988.6,591.7 L 986.6,595.2 L 984.7,598.4 L 982.0,602.7 L 979.3,606.6 L 942.6,659.4 L 939.0,664.8 L 935.5,670.1 L 932.5,674.7 L 930.1,678.9 L 927.8,683.0 L 925.5,687.4 L 922.4,693.5 L 919.6,699.6 L 916.6,705.9 L 913.6,712.6 L 911.3,717.5 L 891.0,758.5 L 889.2,761.8 L 887.9,763.9 L 886.5,765.7 L 884.4,767.8 L 882.7,769.2 L 880.3,770.8 L 877.3,772.3 L 874.8,773.3 L 871.4,774.2 L 867.4,774.9 L 862.6,775.4 L 857.1,775.9 L 850.5,776.1 L 843.3,776.0 L 835.9,775.7 L 828.2,775.0 L 821.1,774.2 L 813.0,772.8 L 805.9,771.2 L 798.4,769.3 L 791.5,767.2 L 784.4,764.9 L 780.9,763.6 L 776.0,761.7 L 769.6,758.9 L 762.7,755.5 L 756.0,751.9 L 748.4,747.4 L 740.3,742.1 L 733.9,737.4 L 729.4,733.8 L 724.4,729.5 L 720.2,725.7 L 716.8,722.6 L 714.2,720.0 L 712.1,717.7 L 710.2,715.4 L 708.6,713.0 L 707.5,710.8 L 706.5,708.1 L 705.7,705.2 L 705.4,703.0 L 705.2,700.7 L 705.2,698.4 L 705.4,696.1 L 706.2,693.2 L 707.2,690.9 L 708.4,688.5 L 710.0,686.2 L 711.7,683.9 L 713.6,681.7 L 715.6,679.7 L 717.3,678.2 L 719.3,676.5 L 721.5,674.7 L 723.6,673.2 L 725.8,671.6 L 728.5,669.8 L 730.6,668.4 L 732.5,667.3 L 734.7,666.1 L 736.9,664.9 L 740.0,663.3 L 742.5,662.2 L 745.0,661.0 L 747.1,660.1 L 749.8,659.2 L 752.0,658.6 L 753.9,658.1 L 755.8,657.7 L 757.7,657.3 L 760.1,656.9 L 762.6,656.5 L 766.7,655.8 L 782.0,653.8 L 787.3,653.1 L 792.0,652.3 L 796.5,651.6 L 800.8,650.8 L 805.1,650.0 L 808.6,649.1 L 812.8,648.1 L 817.0,647.0 L 820.7,645.9 L 824.6,644.7 L 828.5,643.5 L 833.0,641.9 L 836.6,640.6 L 840.0,639.3 L 843.8,637.9 L 847.3,636.4 L 850.4,635.0 L 853.4,633.7 L 856.5,632.3 L 859.8,630.7 L 862.0,629.4 L 864.1,628.2 L 865.7,627.2 L 867.2,626.1 L 868.6,625.0 L 870.1,623.7 L 871.3,622.4 L 872.4,621.1 L 874.0,619.3 L 875.1,617.7 L 876.5,615.7 L 877.5,614.0 L 878.3,612.4 L 879.2,610.6 L 880.0,609.1 L 880.7,607.3 L 881.3,605.5 L 881.8,603.9 L 882.2,602.2 L 882.5,600.5 L 882.9,598.4 L 883.1,596.5 L 883.2,594.9 L 883.3,593.4 L 883.3,591.7 L 883.2,589.8 L 883.1,588.2 L 882.9,586.6 L 882.6,584.6 L 882.3,583.2 L 881.8,581.3 L 881.2,579.3 L 880.6,577.6 L 879.9,576.2 L 879.2,574.7 L 878.7,573.7 L 878.0,572.5 L 877.4,571.4 L 876.7,570.0 L 875.9,568.8 L 874.7,567.1 L 873.5,565.5 L 872.4,564.4 L 871.2,563.0 L 869.9,561.6 L 868.5,560.3 L 866.8,558.9 L 865.0,557.6 L 863.4,556.5 L 861.5,555.3 L 859.0,553.9 L 857.3,553.1 L 855.3,552.3 L 853.1,551.6 L 850.8,551.0 L 847.9,550.4 L 843.9,549.8 L 801.2,545.4 L 796.0,544.9 L 791.2,544.4 L 785.9,544.1 L 781.0,543.7 L 776.0,543.5 L 771.5,543.3 L 765.9,543.2 L 760.5,543.1 L 754.3,543.0 L 749.1,543.0 L 742.8,543.1 L 735.9,543.3 L 727.0,543.6 L 716.6,544.1 L 708.0,544.7 L 701.1,545.2 L 692.5,546.1 L 686.3,546.7 L 678.3,547.7 L 671.4,548.6 L 664.9,549.5 L 657.6,550.5 L 651.1,551.4 L 644.9,552.4 L 637.4,553.7 L 630.1,555.0 L 622.9,556.4 L 615.5,558.0 L 606.5,559.9 L 599.4,561.6 L 591.6,563.4 L 582.1,565.9 L 573.7,568.2 L 565.3,570.7 L 556.7,573.3 L 547.9,576.2 L 540.9,578.5 L 533.7,581.0 L 525.2,583.9 L 518.2,586.5 L 510.9,589.3 L 503.7,592.2 L 496.2,595.1 L 488.2,598.4 L 480.6,601.6 L 468.8,606.5 L 460.4,610.2 L 452.3,613.9 L 444.7,617.7 L 438.1,621.0 L 432.6,624.0 L 413.6,634.9 L 411.3,636.2 L 409.3,637.1 L 407.5,637.8 L 405.7,638.1 L 403.8,638.2 L 401.7,638.1 L 400.2,637.8 L 398.9,637.4 L 397.6,636.7 L 396.5,635.9 L 395.5,635.0 L 394.8,634.4 L 393.9,633.2 L 392.8,631.8 L 391.6,629.8 L 386.8,620.9 L 385.4,618.5 L 383.9,616.3 L 382.2,613.7 L 381.1,612.2 L 379.7,610.7 L 378.2,609.2 L 376.9,608.1 L 375.3,606.9 L 373.1,605.5 L 371.1,604.4 L 369.2,603.5 L 367.1,602.8 L 364.9,602.2 L 362.5,601.8 L 360.5,601.5 L 358.3,601.4 L 356.0,601.4 L 353.6,601.6 L 351.2,602.0 L 349.3,602.4 L 347.3,603.0 L 345.1,603.9 L 343.3,604.8 L 341.5,605.8 L 339.6,607.0 L 337.6,608.4 L 336.1,609.6 L 334.9,610.6 L 333.5,612.0 L 332.3,613.2 L 331.3,614.5 L 330.3,615.9 L 329.5,617.3 L 328.6,618.8 L 327.8,620.4 L 327.2,621.9 L 326.6,623.6 L 326.1,625.7 L 325.7,627.2 L 325.6,628.5 L 325.4,630.0 L 325.4,631.3 L 325.5,632.6 L 325.6,634.5 L 325.8,636.0 L 326.0,637.7 L 326.3,639.7 L 327.4,645.7 L 357.8,824.6 L 362.3,851.2 L 362.7,853.6 L 362.9,855.6 L 363.0,857.5 L 363.1,859.6 L 363.1,861.7 L 362.9,863.8 L 362.7,865.9 L 362.4,867.8 L 362.0,869.7 L 361.6,871.5 L 361.2,873.3 L 360.8,875.0 L 360.2,876.6 L 359.5,878.4 L 358.9,880.0 L 358.2,881.5 L 357.3,883.1 L 356.3,884.8 L 355.4,886.4 L 354.3,887.9 L 353.2,889.5 L 352.0,890.9 L 350.6,892.5 L 349.3,893.9 L 347.8,895.5 L 346.3,896.8 L 344.9,898.1 L 343.3,899.3 L 341.6,900.5 L 340.0,901.5 L 338.2,902.6 L 336.0,903.7 L 333.6,904.7 L 331.3,905.6 L 328.8,906.4 L 326.7,907.0 L 324.9,907.4 L 323.1,907.8 L 321.6,908.1 L 319.8,908.3 L 317.8,908.5 L 315.8,908.6 L 313.0,908.7 L 250.0,910.0 L 245.4,909.9 L 241.7,909.8 L 238.7,909.6 L 235.5,909.3 L 232.6,908.9 L 229.7,908.5 L 227.3,908.0 L 224.8,907.6 L 222.3,907.0 L 220.5,906.6 L 218.8,906.2 L 217.0,905.7 L 215.2,905.2 L 213.3,904.6 L 211.6,904.0 L 209.6,903.3 L 207.7,902.6 L 205.5,901.8 L 203.8,901.1 L 201.8,900.1 L 199.8,899.3 L 198.0,898.4 L 196.0,897.4 L 194.1,896.4 L 191.7,895.2 L 189.2,893.8 L 186.9,892.4 L 184.3,890.7 L 181.6,888.9 L 179.0,887.1 L 176.3,885.1 L 174.0,883.2 L 170.9,880.7 L 168.2,878.3 L 166.0,876.2 L 163.5,873.8 L 160.6,870.8 L 158.4,868.3 L 156.6,866.2 L 154.4,863.4 L 152.7,861.1 L 150.8,858.5 L 149.2,856.1 L 147.1,852.7 L 145.6,850.0 L 144.0,846.8 L 142.0,842.8 L 140.5,839.5 L 138.8,835.4 L 137.6,832.1 L 136.1,827.8 L 135.0,824.2 L 134.2,821.3 L 133.6,818.9 L 132.9,816.1 L 132.4,813.6 L 131.8,810.6 L 131.4,808.2 L 131.1,805.5 L 130.9,803.3 L 130.7,801.0 L 130.4,798.4 L 130.3,796.2 L 130.3,793.7 L 130.3,790.1 L 130.4,786.9 L 130.5,782.8 L 130.8,780.1 L 131.2,777.2 L 131.6,774.6 L 131.9,771.9 L 132.5,768.3 L 133.0,765.6 L 133.5,763.4 L 134.1,761.1 L 134.9,758.1 L 135.7,755.5 L 136.8,752.3 L 138.0,749.2 L 139.3,745.9 L 140.5,742.9 L 149.0,722.1 L 158.1,700.2 L 178.3,651.4 L 210.5,572.9 L 260.8,450.3 L 279.5,404.7 L 294.5,368.4 L 368.2,188.9 Z" fill="none" stroke="#ff5a36" stroke-opacity="0.55" stroke-width="1.2" stroke-linejoin="round" filter="url(#glow)"/>
<circle cx="368.1" cy="189.0" r="13" fill="none" stroke="#ffffff" stroke-width="3"/>
<rect x="364.1" y="167.0" width="8" height="18" fill="#ffffff"/>
<circle cx="376.9" cy="438.3" r="7" fill="#ff5a36" stroke="#0a0c12" stroke-width="2.5" filter="url(#glow)"/>
<text x="376.9" y="441.7" font-size="9" font-weight="700" fill="#0a0c12" text-anchor="middle">1</text>
<circle cx="418.5" cy="506.6" r="7" fill="#ff5a36" stroke="#0a0c12" stroke-width="2.5" filter="url(#glow)"/>
<text x="418.5" y="510.0" font-size="9" font-weight="700" fill="#0a0c12" text-anchor="middle">2</text>
<circle cx="556.8" cy="513.8" r="7" fill="#ff5a36" stroke="#0a0c12" stroke-width="2.5" filter="url(#glow)"/>
<text x="556.8" y="517.2" font-size="9" font-weight="700" fill="#0a0c12" text-anchor="middle">3</text>
<circle cx="755.8" cy="461.5" r="7" fill="#ff5a36" stroke="#0a0c12" stroke-width="2.5" filter="url(#glow)"/>
<text x="755.8" y="464.9" font-size="9" font-weight="700" fill="#0a0c12" text-anchor="middle">4</text>
<circle cx="904.0" cy="457.7" r="7" fill="#ff5a36" stroke="#0a0c12" stroke-width="2.5" filter="url(#glow)"/>
<text x="904.0" y="461.1" font-size="9" font-weight="700" fill="#0a0c12" text-anchor="middle">5</text>
<circle cx="999.7" cy="551.9" r="7" fill="#ff5a36" stroke="#0a0c12" stroke-width="2.5" filter="url(#glow)"/>
<text x="999.7" y="555.3" font-size="9" font-weight="700" fill="#0a0c12" text-anchor="middle">6</text>
<circle cx="886.6" cy="765.5" r="7" fill="#ff5a36" stroke="#0a0c12" stroke-width="2.5" filter="url(#glow)"/>
<text x="886.6" y="768.9" font-size="9" font-weight="700" fill="#0a0c12" text-anchor="middle">7</text>
<circle cx="763.8" cy="656.2" r="7" fill="#ff5a36" stroke="#0a0c12" stroke-width="2.5" filter="url(#glow)"/>
<text x="763.8" y="659.6" font-size="9" font-weight="700" fill="#0a0c12" text-anchor="middle">8</text>
<circle cx="848.6" cy="550.6" r="7" fill="#ff5a36" stroke="#0a0c12" stroke-width="2.5" filter="url(#glow)"/>
<text x="848.6" y="554.0" font-size="9" font-weight="700" fill="#0a0c12" text-anchor="middle">9</text>
<circle cx="609.5" cy="559.3" r="7" fill="#ff5a36" stroke="#0a0c12" stroke-width="2.5" filter="url(#glow)"/>
<text x="609.5" y="562.7" font-size="9" font-weight="700" fill="#0a0c12" text-anchor="middle">10</text>
<circle cx="354.1" cy="803.1" r="7" fill="#ff5a36" stroke="#0a0c12" stroke-width="2.5" filter="url(#glow)"/>
<text x="354.1" y="806.5" font-size="9" font-weight="700" fill="#0a0c12" text-anchor="middle">11</text>
<circle cx="359.6" cy="878.3" r="7" fill="#ff5a36" stroke="#0a0c12" stroke-width="2.5" filter="url(#glow)"/>
<text x="359.6" y="881.7" font-size="9" font-weight="700" fill="#0a0c12" text-anchor="middle">12</text>
<circle cx="131.1" cy="805.6" r="7" fill="#ff5a36" stroke="#0a0c12" stroke-width="2.5" filter="url(#glow)"/>
<text x="131.1" y="809.0" font-size="9" font-weight="700" fill="#0a0c12" text-anchor="middle">13</text>
<circle cx="199.3" cy="600.1" r="7" fill="#ff5a36" stroke="#0a0c12" stroke-width="2.5" filter="url(#glow)"/>
<text x="199.3" y="603.5" font-size="9" font-weight="700" fill="#0a0c12" text-anchor="middle">14</text>
<line x1="376.9" y1="438.3" x2="341.0" y2="400.6" stroke="#ff5a36" stroke-opacity="0.45" stroke-width="1.3"/>
<text x="333.0" y="404.6" font-size="15" font-weight="600" fill="#eef2fb" text-anchor="end">Tarzan</text>
<line x1="418.5" y1="506.6" x2="379.3" y2="472.5" stroke="#ff5a36" stroke-opacity="0.45" stroke-width="1.3"/>
<text x="371.3" y="476.5" font-size="15" font-weight="600" fill="#eef2fb" text-anchor="end">Gerlachbocht</text>
<line x1="556.8" y1="513.8" x2="558.7" y2="461.8" stroke="#ff5a36" stroke-opacity="0.45" stroke-width="1.3"/>
<text x="566.7" y="465.8" font-size="15" font-weight="600" fill="#eef2fb" text-anchor="start">Hugenholtz</text>
<line x1="755.8" y1="461.5" x2="796.4" y2="429.1" stroke="#ff5a36" stroke-opacity="0.45" stroke-width="1.3"/>
<text x="804.4" y="433.1" font-size="15" font-weight="600" fill="#eef2fb" text-anchor="start">Hondenvlak</text>
<line x1="999.7" y1="551.9" x2="1051.1" y2="584.4" stroke="#ff5a36" stroke-opacity="0.45" stroke-width="1.3"/>
<text x="1059.1" y="588.4" font-size="15" font-weight="600" fill="#eef2fb" text-anchor="start">Hondenvlak</text>
<line x1="886.6" y1="765.5" x2="934.5" y2="785.9" stroke="#ff5a36" stroke-opacity="0.45" stroke-width="1.3"/>
<text x="942.5" y="789.9" font-size="15" font-weight="600" fill="#eef2fb" text-anchor="start">Scheivlak</text>
<line x1="763.8" y1="656.2" x2="815.2" y2="664.3" stroke="#ff5a36" stroke-opacity="0.45" stroke-width="1.3"/>
<text x="823.2" y="668.3" font-size="15" font-weight="600" fill="#eef2fb" text-anchor="start">Mastersbocht</text>
<line x1="848.6" y1="550.6" x2="899.1" y2="552.4" stroke="#ff5a36" stroke-opacity="0.45" stroke-width="1.3"/>
<text x="907.1" y="556.4" font-size="15" font-weight="600" fill="#eef2fb" text-anchor="start">Renault</text>
<line x1="609.5" y1="559.3" x2="643.9" y2="520.4" stroke="#ff5a36" stroke-opacity="0.45" stroke-width="1.3"/>
<text x="651.9" y="524.4" font-size="15" font-weight="600" fill="#eef2fb" text-anchor="start">Vodafone</text>
<line x1="354.1" y1="803.1" x2="315.5" y2="858.3" stroke="#ff5a36" stroke-opacity="0.45" stroke-width="1.3"/>
<text x="307.5" y="862.3" font-size="15" font-weight="600" fill="#eef2fb" text-anchor="end">Hugenholtzbocht</text>
<line x1="359.6" y1="878.3" x2="328.2" y2="919.7" stroke="#ff5a36" stroke-opacity="0.45" stroke-width="1.3"/>
<text x="320.2" y="923.7" font-size="15" font-weight="600" fill="#eef2fb" text-anchor="end">Hans Ernst</text>
<line x1="131.1" y1="805.6" x2="83.4" y2="826.3" stroke="#ff5a36" stroke-opacity="0.45" stroke-width="1.3"/>
<text x="75.4" y="830.3" font-size="15" font-weight="600" fill="#eef2fb" text-anchor="end">Kumho</text>
<line x1="199.3" y1="600.1" x2="147.4" y2="596.7" stroke="#ff5a36" stroke-opacity="0.45" stroke-width="1.3"/>
<text x="139.4" y="600.7" font-size="15" font-weight="600" fill="#eef2fb" text-anchor="end">Arie Luyendyk</text>
<text x="90" y="64" font-size="20" letter-spacing="5" fill="#ff5a36" font-weight="700">TRACK ATLAS</text>
<text x="90" y="108" font-size="42" font-weight="800" fill="#ffffff">CIRCUIT ZANDVOORT</text>
<text x="90" y="136" font-size="16" fill="#9aa6bd">Zandvoort</text>
<rect x="1170" y="200" width="360" height="710" rx="16" fill="#ffffff" fill-opacity="0.04" stroke="#ff5a36" stroke-opacity="0.5"/>
<text x="1198" y="250" font-size="13" letter-spacing="2" fill="#8794ab">LAYOUT</text>
<text x="1198" y="276" font-size="22" font-weight="700" fill="#eef2fb">Grand Prix Circuit</text>
<text x="1198" y="320" font-size="13" letter-spacing="2" fill="#8794ab">LENGTH</text>
<text x="1198" y="346" font-size="22" font-weight="700" fill="#eef2fb">4.259 km</text>
<text x="1198" y="390" font-size="13" letter-spacing="2" fill="#8794ab">CORNERS</text>
<text x="1198" y="416" font-size="22" font-weight="700" fill="#eef2fb">14</text>
<text x="1198" y="460" font-size="13" letter-spacing="2" fill="#8794ab">NAMED CORNERS</text>
<text x="1198" y="486" font-size="22" font-weight="700" fill="#eef2fb">14</text>
<text x="1198" y="530" font-size="13" letter-spacing="2" fill="#8794ab">DIRECTION</text>
<text x="1198" y="556" font-size="22" font-weight="700" fill="#eef2fb">Clockwise</text>
<text x="1198" y="600" font-size="13" letter-spacing="2" fill="#8794ab">SECTORS</text>
<text x="1198" y="626" font-size="22" font-weight="700" fill="#eef2fb">3</text>
<text x="1198" y="670" font-size="13" letter-spacing="2" fill="#8794ab">COUNTRY</text>
<text x="1198" y="696" font-size="22" font-weight="700" fill="#eef2fb">Netherlands</text>
<text x="1198" y="740" font-size="13" letter-spacing="2" fill="#8794ab">LOCATION</text>
<text x="1198" y="766" font-size="22" font-weight="700" fill="#eef2fb">Zandvoort</text>
<text x="1198" y="810" font-size="13" letter-spacing="2" fill="#8794ab">COMPLEXES</text>
<rect x="1198" y="816" width="94" height="24" rx="12" fill="#ff5a36" fill-opacity="0.16" stroke="#ff5a36" stroke-opacity="0.5"/>
<text x="1245" y="833" font-size="12" fill="#eef2fb" text-anchor="middle">Hondenvlak</text>
<text x="90" y="966" font-size="12" fill="#566177">Geometry © OpenStreetMap contributors (ODbL) · corner data: Lovely-Sim-Racing + curated · track-atlas</text>
<text x="90" y="942" font-size="12" fill="#8794ab">⚑ start / finish</text>
</svg>