<svg xmlns="http://www.w3.org/2000/svg" width="1600" height="1000" viewBox="0 0 1600 1000" font-family="Helvetica, Arial, sans-serif">
<defs>
      <radialGradient id="bg" cx="38%" cy="34%" r="85%">
        <stop offset="0%" stop-color="#1b2030"/>
        <stop offset="55%" stop-color="#12151f"/>
        <stop offset="100%" stop-color="#0a0c12"/>
      </radialGradient>
      <linearGradient id="accent" x1="0" y1="0" x2="1" y2="1">
        <stop offset="0%" stop-color="#ff5a36"/>
        <stop offset="100%" stop-color="#ffffff"/>
      </linearGradient>
      <filter id="glow" x="-40%" y="-40%" width="180%" height="180%">
        <feGaussianBlur stdDeviation="6" result="b"/>
        <feMerge><feMergeNode in="b"/><feMergeNode in="SourceGraphic"/></feMerge>
      </filter>
    </defs>
<rect width="1600" height="1000" fill="url(#bg)"/>
<path d="M 96.8,263.8 L 93.3,260.3 L 91.7,258.2 L 90.5,256.0 L 90.0,253.8 L 90.0,251.6 L 90.3,249.6 L 91.0,247.9 L 92.0,246.6 L 93.8,245.1 L 96.0,244.0 L 98.4,243.4 L 101.0,242.9 L 109.9,241.5 L 132.5,238.4 L 139.7,237.3 L 162.3,235.4 L 177.4,234.8 L 196.2,234.1 L 213.4,234.2 L 230.6,234.4 L 246.6,235.4 L 248.3,235.6 L 268.7,237.5 L 286.0,239.6 L 310.8,244.3 L 333.4,248.5 L 383.3,258.0 L 392.3,259.7 L 478.5,275.7 L 482.9,276.4 L 506.0,279.8 L 523.4,282.0 L 538.5,283.5 L 619.9,287.4 L 667.8,289.4 L 675.1,289.7 L 680.4,290.1 L 683.6,290.9 L 686.7,292.0 L 689.4,293.3 L 691.7,295.1 L 693.3,296.8 L 694.8,299.4 L 696.2,302.4 L 697.1,305.0 L 697.6,307.9 L 697.6,312.3 L 697.3,315.8 L 696.4,319.1 L 694.0,325.0 L 691.8,329.5 L 688.5,334.4 L 686.3,337.4 L 683.5,341.1 L 678.4,348.1 L 672.4,355.6 L 664.3,364.3 L 659.1,369.0 L 652.1,374.4 L 642.3,381.3 L 631.9,387.4 L 620.0,393.3 L 614.2,395.8 L 609.0,397.6 L 603.2,399.6 L 593.4,402.0 L 584.9,403.7 L 575.7,404.9 L 565.3,406.1 L 555.8,406.3 L 548.1,405.7 L 538.8,404.6 L 493.9,397.2 L 485.1,395.8 L 445.3,389.5 L 430.8,387.3 L 425.5,386.5 L 416.4,385.0 L 411.8,384.9 L 407.8,385.1 L 402.1,385.4 L 396.9,386.8 L 389.0,389.4 L 384.8,391.6 L 377.8,395.8 L 370.2,402.5 L 364.2,408.7 L 360.4,413.7 L 357.2,419.3 L 355.2,423.8 L 353.0,429.9 L 352.0,435.1 L 351.4,441.2 L 351.4,447.5 L 352.2,453.8 L 353.4,460.4 L 355.0,466.2 L 357.8,472.6 L 384.4,521.2 L 411.4,566.1 L 416.6,574.8 L 421.7,580.7 L 428.9,587.0 L 437.5,592.4 L 446.8,596.4 L 457.3,598.5 L 466.7,598.9 L 476.4,597.3 L 486.6,594.3 L 494.3,590.8 L 499.1,588.1 L 504.4,583.5 L 508.1,580.0 L 511.0,576.8 L 515.8,570.1 L 519.6,564.7 L 523.1,560.6 L 527.3,555.3 L 531.5,550.6 L 536.2,545.5 L 543.1,540.1 L 551.7,533.9 L 559.4,529.4 L 565.9,525.9 L 576.1,521.2 L 584.4,518.0 L 592.9,514.6 L 603.2,511.6 L 611.8,510.0 L 622.4,508.9 L 637.0,508.4 L 662.5,508.1 L 687.5,507.7 L 730.3,507.1 L 758.2,507.0 L 767.2,506.8 L 831.8,504.9 L 947.6,502.1 L 957.8,501.9 L 964.2,502.2 L 965.7,502.3 L 969.5,503.2 L 970.5,503.4 L 972.9,504.2 L 975.6,505.1 L 976.7,505.7 L 980.6,507.6 L 981.5,508.1 L 985.1,510.3 L 988.2,512.2 L 989.2,512.8 L 992.3,515.8 L 995.6,519.1 L 997.9,521.3 L 1001.9,526.8 L 1002.6,527.7 L 1003.2,528.9 L 1005.3,532.6 L 1006.0,533.9 L 1008.0,539.2 L 1008.6,541.3 L 1010.0,546.4 L 1016.2,567.9 L 1023.5,592.7 L 1028.2,608.7 L 1035.4,633.3 L 1038.4,644.2 L 1039.5,648.2 L 1040.0,651.1 L 1040.0,654.1 L 1039.6,657.4 L 1038.8,660.0 L 1036.6,662.5 L 1033.9,665.2 L 1030.8,667.8 L 1026.7,670.8 L 1019.7,675.7 L 1010.8,681.6 L 998.9,687.8 L 989.5,692.3 L 978.6,696.8 L 968.5,701.0 L 959.8,704.2 L 951.0,707.4 L 939.1,711.4 L 895.1,725.2 L 817.0,746.4 L 729.3,770.1 L 555.5,817.2 L 501.2,831.9 L 494.2,833.8 L 493.6,833.9 L 493.0,834.1 L 492.1,834.2 L 490.8,834.3 L 490.1,834.4 L 489.3,834.4 L 488.7,834.4 L 488.0,834.3 L 487.3,834.1 L 486.6,833.9 L 486.2,833.8 L 485.8,833.6 L 485.3,833.4 L 484.7,833.1 L 484.1,832.7 L 483.6,832.4 L 483.0,831.9 L 482.5,831.5 L 482.0,831.0 L 481.5,830.6 L 481.1,830.1 L 480.7,829.6 L 480.4,829.2 L 480.2,828.8 L 480.0,828.4 L 479.7,828.0 L 479.2,827.2 L 476.3,822.0 L 470.3,810.9 L 466.2,803.6 L 462.2,797.3 L 457.9,790.9 L 454.2,785.6 L 446.5,775.2 L 424.1,743.8 L 405.5,718.1 L 381.7,685.0 L 366.6,663.7 L 353.1,643.6 L 328.0,598.0 L 311.9,565.6 L 302.9,547.1 L 275.4,488.0 L 255.8,446.6 L 252.7,440.4 L 249.9,435.4 L 245.1,428.0 L 241.6,423.1 L 225.9,400.0 L 221.8,394.2 L 218.1,389.0 L 209.0,378.1 L 192.8,361.5 L 141.9,309.4 L 106.5,274.0 L 96.8,263.8 L 424.1,743.8 L 443.4,766.3 L 452.2,776.6 L 460.9,786.6 L 475.1,802.9 L 476.5,804.5 L 484.1,816.1 L 489.8,821.4 L 494.3,822.9 L 499.3,822.9 L 503.0,822.4 L 593.3,797.0 L 631.3,785.5 L 846.0,727.4 L 931.4,704.3 L 938.3,701.6 L 944.0,698.2 L 957.6,690.3 L 974.2,681.1 L 986.0,674.2 L 991.0,670.1 L 997.7,663.6 L 1001.6,658.0 L 1004.9,652.4 L 1008.2,645.9 L 1009.8,637.8 L 1010.5,632.1 L 1010.6,621.2 L 1010.0,571.8 L 1009.9,561.2 L 1009.9,552.8 L 1010.0,546.4 L 493.6,833.9 L 483.5,839.7 L 471.3,842.9 L 465.0,843.9 L 460.8,843.7 L 457.9,842.4 L 456.2,841.0 L 453.8,837.8 L 452.1,832.1 L 452.1,825.4 L 452.9,816.9 L 452.7,811.9 L 452.1,808.0 L 450.6,803.7 L 447.0,793.9 L 440.9,781.7 L 433.9,770.2 L 424.8,755.5 L 421.3,749.7 L 417.0,743.1 L 405.5,718.1 L 311.9,565.6 L 302.2,552.2 L 295.5,544.2 L 268.7,512.3 L 267.5,509.8 L 268.0,506.5 L 275.4,488.0 L 283.7,469.7 L 285.0,463.0 L 284.3,458.6 L 282.7,455.3 L 279.5,452.0 L 221.8,394.2 Z" fill="none" stroke="#000000" stroke-opacity="0.5" stroke-width="13" stroke-linejoin="round" stroke-linecap="round"/>
<path d="M 96.8,263.8 L 93.3,260.3 L 91.7,258.2 L 90.5,256.0 L 90.0,253.8 L 90.0,251.6 L 90.3,249.6 L 91.0,247.9 L 92.0,246.6 L 93.8,245.1 L 96.0,244.0 L 98.4,243.4 L 101.0,242.9 L 109.9,241.5 L 132.5,238.4 L 139.7,237.3 L 162.3,235.4 L 177.4,234.8 L 196.2,234.1 L 213.4,234.2 L 230.6,234.4 L 246.6,235.4 L 248.3,235.6 L 268.7,237.5 L 286.0,239.6 L 310.8,244.3 L 333.4,248.5 L 383.3,258.0 L 392.3,259.7 L 478.5,275.7 L 482.9,276.4 L 506.0,279.8 L 523.4,282.0 L 538.5,283.5 L 619.9,287.4 L 667.8,289.4 L 675.1,289.7 L 680.4,290.1 L 683.6,290.9 L 686.7,292.0 L 689.4,293.3 L 691.7,295.1 L 693.3,296.8 L 694.8,299.4 L 696.2,302.4 L 697.1,305.0 L 697.6,307.9 L 697.6,312.3 L 697.3,315.8 L 696.4,319.1 L 694.0,325.0 L 691.8,329.5 L 688.5,334.4 L 686.3,337.4 L 683.5,341.1 L 678.4,348.1 L 672.4,355.6 L 664.3,364.3 L 659.1,369.0 L 652.1,374.4 L 642.3,381.3 L 631.9,387.4 L 620.0,393.3 L 614.2,395.8 L 609.0,397.6 L 603.2,399.6 L 593.4,402.0 L 584.9,403.7 L 575.7,404.9 L 565.3,406.1 L 555.8,406.3 L 548.1,405.7 L 538.8,404.6 L 493.9,397.2 L 485.1,395.8 L 445.3,389.5 L 430.8,387.3 L 425.5,386.5 L 416.4,385.0 L 411.8,384.9 L 407.8,385.1 L 402.1,385.4 L 396.9,386.8 L 389.0,389.4 L 384.8,391.6 L 377.8,395.8 L 370.2,402.5 L 364.2,408.7 L 360.4,413.7 L 357.2,419.3 L 355.2,423.8 L 353.0,429.9 L 352.0,435.1 L 351.4,441.2 L 351.4,447.5 L 352.2,453.8 L 353.4,460.4 L 355.0,466.2 L 357.8,472.6 L 384.4,521.2 L 411.4,566.1 L 416.6,574.8 L 421.7,580.7 L 428.9,587.0 L 437.5,592.4 L 446.8,596.4 L 457.3,598.5 L 466.7,598.9 L 476.4,597.3 L 486.6,594.3 L 494.3,590.8 L 499.1,588.1 L 504.4,583.5 L 508.1,580.0 L 511.0,576.8 L 515.8,570.1 L 519.6,564.7 L 523.1,560.6 L 527.3,555.3 L 531.5,550.6 L 536.2,545.5 L 543.1,540.1 L 551.7,533.9 L 559.4,529.4 L 565.9,525.9 L 576.1,521.2 L 584.4,518.0 L 592.9,514.6 L 603.2,511.6 L 611.8,510.0 L 622.4,508.9 L 637.0,508.4 L 662.5,508.1 L 687.5,507.7 L 730.3,507.1 L 758.2,507.0 L 767.2,506.8 L 831.8,504.9 L 947.6,502.1 L 957.8,501.9 L 964.2,502.2 L 965.7,502.3 L 969.5,503.2 L 970.5,503.4 L 972.9,504.2 L 975.6,505.1 L 976.7,505.7 L 980.6,507.6 L 981.5,508.1 L 985.1,510.3 L 988.2,512.2 L 989.2,512.8 L 992.3,515.8 L 995.6,519.1 L 997.9,521.3 L 1001.9,526.8 L 1002.6,527.7 L 1003.2,528.9 L 1005.3,532.6 L 1006.0,533.9 L 1008.0,539.2 L 1008.6,541.3 L 1010.0,546.4 L 1016.2,567.9 L 1023.5,592.7 L 1028.2,608.7 L 1035.4,633.3 L 1038.4,644.2 L 1039.5,648.2 L 1040.0,651.1 L 1040.0,654.1 L 1039.6,657.4 L 1038.8,660.0 L 1036.6,662.5 L 1033.9,665.2 L 1030.8,667.8 L 1026.7,670.8 L 1019.7,675.7 L 1010.8,681.6 L 998.9,687.8 L 989.5,692.3 L 978.6,696.8 L 968.5,701.0 L 959.8,704.2 L 951.0,707.4 L 939.1,711.4 L 895.1,725.2 L 817.0,746.4 L 729.3,770.1 L 555.5,817.2 L 501.2,831.9 L 494.2,833.8 L 493.6,833.9 L 493.0,834.1 L 492.1,834.2 L 490.8,834.3 L 490.1,834.4 L 489.3,834.4 L 488.7,834.4 L 488.0,834.3 L 487.3,834.1 L 486.6,833.9 L 486.2,833.8 L 485.8,833.6 L 485.3,833.4 L 484.7,833.1 L 484.1,832.7 L 483.6,832.4 L 483.0,831.9 L 482.5,831.5 L 482.0,831.0 L 481.5,830.6 L 481.1,830.1 L 480.7,829.6 L 480.4,829.2 L 480.2,828.8 L 480.0,828.4 L 479.7,828.0 L 479.2,827.2 L 476.3,822.0 L 470.3,810.9 L 466.2,803.6 L 462.2,797.3 L 457.9,790.9 L 454.2,785.6 L 446.5,775.2 L 424.1,743.8 L 405.5,718.1 L 381.7,685.0 L 366.6,663.7 L 353.1,643.6 L 328.0,598.0 L 311.9,565.6 L 302.9,547.1 L 275.4,488.0 L 255.8,446.6 L 252.7,440.4 L 249.9,435.4 L 245.1,428.0 L 241.6,423.1 L 225.9,400.0 L 221.8,394.2 L 218.1,389.0 L 209.0,378.1 L 192.8,361.5 L 141.9,309.4 L 106.5,274.0 L 96.8,263.8 L 424.1,743.8 L 443.4,766.3 L 452.2,776.6 L 460.9,786.6 L 475.1,802.9 L 476.5,804.5 L 484.1,816.1 L 489.8,821.4 L 494.3,822.9 L 499.3,822.9 L 503.0,822.4 L 593.3,797.0 L 631.3,785.5 L 846.0,727.4 L 931.4,704.3 L 938.3,701.6 L 944.0,698.2 L 957.6,690.3 L 974.2,681.1 L 986.0,674.2 L 991.0,670.1 L 997.7,663.6 L 1001.6,658.0 L 1004.9,652.4 L 1008.2,645.9 L 1009.8,637.8 L 1010.5,632.1 L 1010.6,621.2 L 1010.0,571.8 L 1009.9,561.2 L 1009.9,552.8 L 1010.0,546.4 L 493.6,833.9 L 483.5,839.7 L 471.3,842.9 L 465.0,843.9 L 460.8,843.7 L 457.9,842.4 L 456.2,841.0 L 453.8,837.8 L 452.1,832.1 L 452.1,825.4 L 452.9,816.9 L 452.7,811.9 L 452.1,808.0 L 450.6,803.7 L 447.0,793.9 L 440.9,781.7 L 433.9,770.2 L 424.8,755.5 L 421.3,749.7 L 417.0,743.1 L 405.5,718.1 L 311.9,565.6 L 302.2,552.2 L 295.5,544.2 L 268.7,512.3 L 267.5,509.8 L 268.0,506.5 L 275.4,488.0 L 283.7,469.7 L 285.0,463.0 L 284.3,458.6 L 282.7,455.3 L 279.5,452.0 L 221.8,394.2 Z" fill="none" stroke="#39404f" stroke-width="8.5" stroke-linejoin="round" stroke-linecap="round"/>
<path d="M 96.8,263.8 L 93.3,260.3 L 91.7,258.2 L 90.5,256.0 L 90.0,253.8 L 90.0,251.6 L 90.3,249.6 L 91.0,247.9 L 92.0,246.6 L 93.8,245.1 L 96.0,244.0 L 98.4,243.4 L 101.0,242.9 L 109.9,241.5 L 132.5,238.4 L 139.7,237.3 L 162.3,235.4 L 177.4,234.8 L 196.2,234.1 L 213.4,234.2 L 230.6,234.4 L 246.6,235.4 L 248.3,235.6 L 268.7,237.5 L 286.0,239.6 L 310.8,244.3 L 333.4,248.5 L 383.3,258.0 L 392.3,259.7 L 478.5,275.7 L 482.9,276.4 L 506.0,279.8 L 523.4,282.0 L 538.5,283.5 L 619.9,287.4 L 667.8,289.4 L 675.1,289.7 L 680.4,290.1 L 683.6,290.9 L 686.7,292.0 L 689.4,293.3 L 691.7,295.1 L 693.3,296.8 L 694.8,299.4 L 696.2,302.4 L 697.1,305.0 L 697.6,307.9 L 697.6,312.3 L 697.3,315.8 L 696.4,319.1 L 694.0,325.0 L 691.8,329.5 L 688.5,334.4 L 686.3,337.4 L 683.5,341.1 L 678.4,348.1 L 672.4,355.6 L 664.3,364.3 L 659.1,369.0 L 652.1,374.4 L 642.3,381.3 L 631.9,387.4 L 620.0,393.3 L 614.2,395.8 L 609.0,397.6 L 603.2,399.6 L 593.4,402.0 L 584.9,403.7 L 575.7,404.9 L 565.3,406.1 L 555.8,406.3 L 548.1,405.7 L 538.8,404.6 L 493.9,397.2 L 485.1,395.8 L 445.3,389.5 L 430.8,387.3 L 425.5,386.5 L 416.4,385.0 L 411.8,384.9 L 407.8,385.1 L 402.1,385.4 L 396.9,386.8 L 389.0,389.4 L 384.8,391.6 L 377.8,395.8 L 370.2,402.5 L 364.2,408.7 L 360.4,413.7 L 357.2,419.3 L 355.2,423.8 L 353.0,429.9 L 352.0,435.1 L 351.4,441.2 L 351.4,447.5 L 352.2,453.8 L 353.4,460.4 L 355.0,466.2 L 357.8,472.6 L 384.4,521.2 L 411.4,566.1 L 416.6,574.8 L 421.7,580.7 L 428.9,587.0 L 437.5,592.4 L 446.8,596.4 L 457.3,598.5 L 466.7,598.9 L 476.4,597.3 L 486.6,594.3 L 494.3,590.8 L 499.1,588.1 L 504.4,583.5 L 508.1,580.0 L 511.0,576.8 L 515.8,570.1 L 519.6,564.7 L 523.1,560.6 L 527.3,555.3 L 531.5,550.6 L 536.2,545.5 L 543.1,540.1 L 551.7,533.9 L 559.4,529.4 L 565.9,525.9 L 576.1,521.2 L 584.4,518.0 L 592.9,514.6 L 603.2,511.6 L 611.8,510.0 L 622.4,508.9 L 637.0,508.4 L 662.5,508.1 L 687.5,507.7 L 730.3,507.1 L 758.2,507.0 L 767.2,506.8 L 831.8,504.9 L 947.6,502.1 L 957.8,501.9 L 964.2,502.2 L 965.7,502.3 L 969.5,503.2 L 970.5,503.4 L 972.9,504.2 L 975.6,505.1 L 976.7,505.7 L 980.6,507.6 L 981.5,508.1 L 985.1,510.3 L 988.2,512.2 L 989.2,512.8 L 992.3,515.8 L 995.6,519.1 L 997.9,521.3 L 1001.9,526.8 L 1002.6,527.7 L 1003.2,528.9 L 1005.3,532.6 L 1006.0,533.9 L 1008.0,539.2 L 1008.6,541.3 L 1010.0,546.4 L 1016.2,567.9 L 1023.5,592.7 L 1028.2,608.7 L 1035.4,633.3 L 1038.4,644.2 L 1039.5,648.2 L 1040.0,651.1 L 1040.0,654.1 L 1039.6,657.4 L 1038.8,660.0 L 1036.6,662.5 L 1033.9,665.2 L 1030.8,667.8 L 1026.7,670.8 L 1019.7,675.7 L 1010.8,681.6 L 998.9,687.8 L 989.5,692.3 L 978.6,696.8 L 968.5,701.0 L 959.8,704.2 L 951.0,707.4 L 939.1,711.4 L 895.1,725.2 L 817.0,746.4 L 729.3,770.1 L 555.5,817.2 L 501.2,831.9 L 494.2,833.8 L 493.6,833.9 L 493.0,834.1 L 492.1,834.2 L 490.8,834.3 L 490.1,834.4 L 489.3,834.4 L 488.7,834.4 L 488.0,834.3 L 487.3,834.1 L 486.6,833.9 L 486.2,833.8 L 485.8,833.6 L 485.3,833.4 L 484.7,833.1 L 484.1,832.7 L 483.6,832.4 L 483.0,831.9 L 482.5,831.5 L 482.0,831.0 L 481.5,830.6 L 481.1,830.1 L 480.7,829.6 L 480.4,829.2 L 480.2,828.8 L 480.0,828.4 L 479.7,828.0 L 479.2,827.2 L 476.3,822.0 L 470.3,810.9 L 466.2,803.6 L 462.2,797.3 L 457.9,790.9 L 454.2,785.6 L 446.5,775.2 L 424.1,743.8 L 405.5,718.1 L 381.7,685.0 L 366.6,663.7 L 353.1,643.6 L 328.0,598.0 L 311.9,565.6 L 302.9,547.1 L 275.4,488.0 L 255.8,446.6 L 252.7,440.4 L 249.9,435.4 L 245.1,428.0 L 241.6,423.1 L 225.9,400.0 L 221.8,394.2 L 218.1,389.0 L 209.0,378.1 L 192.8,361.5 L 141.9,309.4 L 106.5,274.0 L 96.8,263.8 L 424.1,743.8 L 443.4,766.3 L 452.2,776.6 L 460.9,786.6 L 475.1,802.9 L 476.5,804.5 L 484.1,816.1 L 489.8,821.4 L 494.3,822.9 L 499.3,822.9 L 503.0,822.4 L 593.3,797.0 L 631.3,785.5 L 846.0,727.4 L 931.4,704.3 L 938.3,701.6 L 944.0,698.2 L 957.6,690.3 L 974.2,681.1 L 986.0,674.2 L 991.0,670.1 L 997.7,663.6 L 1001.6,658.0 L 1004.9,652.4 L 1008.2,645.9 L 1009.8,637.8 L 1010.5,632.1 L 1010.6,621.2 L 1010.0,571.8 L 1009.9,561.2 L 1009.9,552.8 L 1010.0,546.4 L 493.6,833.9 L 483.5,839.7 L 471.3,842.9 L 465.0,843.9 L 460.8,843.7 L 457.9,842.4 L 456.2,841.0 L 453.8,837.8 L 452.1,832.1 L 452.1,825.4 L 452.9,816.9 L 452.7,811.9 L 452.1,808.0 L 450.6,803.7 L 447.0,793.9 L 440.9,781.7 L 433.9,770.2 L 424.8,755.5 L 421.3,749.7 L 417.0,743.1 L 405.5,718.1 L 311.9,565.6 L 302.2,552.2 L 295.5,544.2 L 268.7,512.3 L 267.5,509.8 L 268.0,506.5 L 275.4,488.0 L 283.7,469.7 L 285.0,463.0 L 284.3,458.6 L 282.7,455.3 L 279.5,452.0 L 221.8,394.2 Z" fill="none" stroke="#e7edf8" stroke-width="2.6" stroke-linejoin="round" stroke-linecap="round"/>
<path d="M 96.8,263.8 L 93.3,260.3 L 91.7,258.2 L 90.5,256.0 L 90.0,253.8 L 90.0,251.6 L 90.3,249.6 L 91.0,247.9 L 92.0,246.6 L 93.8,245.1 L 96.0,244.0 L 98.4,243.4 L 101.0,242.9 L 109.9,241.5 L 132.5,238.4 L 139.7,237.3 L 162.3,235.4 L 177.4,234.8 L 196.2,234.1 L 213.4,234.2 L 230.6,234.4 L 246.6,235.4 L 248.3,235.6 L 268.7,237.5 L 286.0,239.6 L 310.8,244.3 L 333.4,248.5 L 383.3,258.0 L 392.3,259.7 L 478.5,275.7 L 482.9,276.4 L 506.0,279.8 L 523.4,282.0 L 538.5,283.5 L 619.9,287.4 L 667.8,289.4 L 675.1,289.7 L 680.4,290.1 L 683.6,290.9 L 686.7,292.0 L 689.4,293.3 L 691.7,295.1 L 693.3,296.8 L 694.8,299.4 L 696.2,302.4 L 697.1,305.0 L 697.6,307.9 L 697.6,312.3 L 697.3,315.8 L 696.4,319.1 L 694.0,325.0 L 691.8,329.5 L 688.5,334.4 L 686.3,337.4 L 683.5,341.1 L 678.4,348.1 L 672.4,355.6 L 664.3,364.3 L 659.1,369.0 L 652.1,374.4 L 642.3,381.3 L 631.9,387.4 L 620.0,393.3 L 614.2,395.8 L 609.0,397.6 L 603.2,399.6 L 593.4,402.0 L 584.9,403.7 L 575.7,404.9 L 565.3,406.1 L 555.8,406.3 L 548.1,405.7 L 538.8,404.6 L 493.9,397.2 L 485.1,395.8 L 445.3,389.5 L 430.8,387.3 L 425.5,386.5 L 416.4,385.0 L 411.8,384.9 L 407.8,385.1 L 402.1,385.4 L 396.9,386.8 L 389.0,389.4 L 384.8,391.6 L 377.8,395.8 L 370.2,402.5 L 364.2,408.7 L 360.4,413.7 L 357.2,419.3 L 355.2,423.8 L 353.0,429.9 L 352.0,435.1 L 351.4,441.2 L 351.4,447.5 L 352.2,453.8 L 353.4,460.4 L 355.0,466.2 L 357.8,472.6 L 384.4,521.2 L 411.4,566.1 L 416.6,574.8 L 421.7,580.7 L 428.9,587.0 L 437.5,592.4 L 446.8,596.4 L 457.3,598.5 L 466.7,598.9 L 476.4,597.3 L 486.6,594.3 L 494.3,590.8 L 499.1,588.1 L 504.4,583.5 L 508.1,580.0 L 511.0,576.8 L 515.8,570.1 L 519.6,564.7 L 523.1,560.6 L 527.3,555.3 L 531.5,550.6 L 536.2,545.5 L 543.1,540.1 L 551.7,533.9 L 559.4,529.4 L 565.9,525.9 L 576.1,521.2 L 584.4,518.0 L 592.9,514.6 L 603.2,511.6 L 611.8,510.0 L 622.4,508.9 L 637.0,508.4 L 662.5,508.1 L 687.5,507.7 L 730.3,507.1 L 758.2,507.0 L 767.2,506.8 L 831.8,504.9 L 947.6,502.1 L 957.8,501.9 L 964.2,502.2 L 965.7,502.3 L 969.5,503.2 L 970.5,503.4 L 972.9,504.2 L 975.6,505.1 L 976.7,505.7 L 980.6,507.6 L 981.5,508.1 L 985.1,510.3 L 988.2,512.2 L 989.2,512.8 L 992.3,515.8 L 995.6,519.1 L 997.9,521.3 L 1001.9,526.8 L 1002.6,527.7 L 1003.2,528.9 L 1005.3,532.6 L 1006.0,533.9 L 1008.0,539.2 L 1008.6,541.3 L 1010.0,546.4 L 1016.2,567.9 L 1023.5,592.7 L 1028.2,608.7 L 1035.4,633.3 L 1038.4,644.2 L 1039.5,648.2 L 1040.0,651.1 L 1040.0,654.1 L 1039.6,657.4 L 1038.8,660.0 L 1036.6,662.5 L 1033.9,665.2 L 1030.8,667.8 L 1026.7,670.8 L 1019.7,675.7 L 1010.8,681.6 L 998.9,687.8 L 989.5,692.3 L 978.6,696.8 L 968.5,701.0 L 959.8,704.2 L 951.0,707.4 L 939.1,711.4 L 895.1,725.2 L 817.0,746.4 L 729.3,770.1 L 555.5,817.2 L 501.2,831.9 L 494.2,833.8 L 493.6,833.9 L 493.0,834.1 L 492.1,834.2 L 490.8,834.3 L 490.1,834.4 L 489.3,834.4 L 488.7,834.4 L 488.0,834.3 L 487.3,834.1 L 486.6,833.9 L 486.2,833.8 L 485.8,833.6 L 485.3,833.4 L 484.7,833.1 L 484.1,832.7 L 483.6,832.4 L 483.0,831.9 L 482.5,831.5 L 482.0,831.0 L 481.5,830.6 L 481.1,830.1 L 480.7,829.6 L 480.4,829.2 L 480.2,828.8 L 480.0,828.4 L 479.7,828.0 L 479.2,827.2 L 476.3,822.0 L 470.3,810.9 L 466.2,803.6 L 462.2,797.3 L 457.9,790.9 L 454.2,785.6 L 446.5,775.2 L 424.1,743.8 L 405.5,718.1 L 381.7,685.0 L 366.6,663.7 L 353.1,643.6 L 328.0,598.0 L 311.9,565.6 L 302.9,547.1 L 275.4,488.0 L 255.8,446.6 L 252.7,440.4 L 249.9,435.4 L 245.1,428.0 L 241.6,423.1 L 225.9,400.0 L 221.8,394.2 L 218.1,389.0 L 209.0,378.1 L 192.8,361.5 L 141.9,309.4 L 106.5,274.0 L 96.8,263.8 L 424.1,743.8 L 443.4,766.3 L 452.2,776.6 L 460.9,786.6 L 475.1,802.9 L 476.5,804.5 L 484.1,816.1 L 489.8,821.4 L 494.3,822.9 L 499.3,822.9 L 503.0,822.4 L 593.3,797.0 L 631.3,785.5 L 846.0,727.4 L 931.4,704.3 L 938.3,701.6 L 944.0,698.2 L 957.6,690.3 L 974.2,681.1 L 986.0,674.2 L 991.0,670.1 L 997.7,663.6 L 1001.6,658.0 L 1004.9,652.4 L 1008.2,645.9 L 1009.8,637.8 L 1010.5,632.1 L 1010.6,621.2 L 1010.0,571.8 L 1009.9,561.2 L 1009.9,552.8 L 1010.0,546.4 L 493.6,833.9 L 483.5,839.7 L 471.3,842.9 L 465.0,843.9 L 460.8,843.7 L 457.9,842.4 L 456.2,841.0 L 453.8,837.8 L 452.1,832.1 L 452.1,825.4 L 452.9,816.9 L 452.7,811.9 L 452.1,808.0 L 450.6,803.7 L 447.0,793.9 L 440.9,781.7 L 433.9,770.2 L 424.8,755.5 L 421.3,749.7 L 417.0,743.1 L 405.5,718.1 L 311.9,565.6 L 302.2,552.2 L 295.5,544.2 L 268.7,512.3 L 267.5,509.8 L 268.0,506.5 L 275.4,488.0 L 283.7,469.7 L 285.0,463.0 L 284.3,458.6 L 282.7,455.3 L 279.5,452.0 L 221.8,394.2 Z" fill="none" stroke="#ff5a36" stroke-opacity="0.55" stroke-width="1.2" stroke-linejoin="round" filter="url(#glow)"/>
<circle cx="805.4" cy="749.5" r="13" fill="none" stroke="#ffffff" stroke-width="3"/>
<rect x="801.4" y="727.5" width="8" height="18" fill="#ffffff"/>
<circle cx="485.2" cy="831.1" r="7" fill="#ff5a36" stroke="#0a0c12" stroke-width="2.5" filter="url(#glow)"/>
<text x="485.2" y="834.5" font-size="9" font-weight="700" fill="#0a0c12" text-anchor="middle">1</text>
<circle cx="236.3" cy="415.4" r="7" fill="#ff5a36" stroke="#0a0c12" stroke-width="2.5" filter="url(#glow)"/>
<text x="236.3" y="418.8" font-size="9" font-weight="700" fill="#0a0c12" text-anchor="middle">2</text>
<circle cx="94.6" cy="250.3" r="7" fill="#ff5a36" stroke="#0a0c12" stroke-width="2.5" filter="url(#glow)"/>
<text x="94.6" y="253.7" font-size="9" font-weight="700" fill="#0a0c12" text-anchor="middle">3</text>
<circle cx="688.9" cy="310.2" r="7" fill="#ff5a36" stroke="#0a0c12" stroke-width="2.5" filter="url(#glow)"/>
<text x="688.9" y="313.6" font-size="9" font-weight="700" fill="#0a0c12" text-anchor="middle">4</text>
<circle cx="602.4" cy="399.8" r="7" fill="#ff5a36" stroke="#0a0c12" stroke-width="2.5" filter="url(#glow)"/>
<text x="602.4" y="403.2" font-size="9" font-weight="700" fill="#0a0c12" text-anchor="middle">5</text>
<circle cx="377.2" cy="415.3" r="7" fill="#ff5a36" stroke="#0a0c12" stroke-width="2.5" filter="url(#glow)"/>
<text x="377.2" y="418.7" font-size="9" font-weight="700" fill="#0a0c12" text-anchor="middle">6</text>
<circle cx="458.2" cy="598.5" r="7" fill="#ff5a36" stroke="#0a0c12" stroke-width="2.5" filter="url(#glow)"/>
<text x="458.2" y="601.9" font-size="9" font-weight="700" fill="#0a0c12" text-anchor="middle">7</text>
<circle cx="572.4" cy="522.9" r="7" fill="#ff5a36" stroke="#0a0c12" stroke-width="2.5" filter="url(#glow)"/>
<text x="572.4" y="526.3" font-size="9" font-weight="700" fill="#0a0c12" text-anchor="middle">8</text>
<circle cx="987.9" cy="517.2" r="7" fill="#ff5a36" stroke="#0a0c12" stroke-width="2.5" filter="url(#glow)"/>
<text x="987.9" y="520.6" font-size="9" font-weight="700" fill="#0a0c12" text-anchor="middle">9</text>
<circle cx="1014.5" cy="671.6" r="7" fill="#ff5a36" stroke="#0a0c12" stroke-width="2.5" filter="url(#glow)"/>
<text x="1014.5" y="675.0" font-size="9" font-weight="700" fill="#0a0c12" text-anchor="middle">10</text>
<line x1="485.2" y1="831.1" x2="471.7" y2="881.3" stroke="#ff5a36" stroke-opacity="0.45" stroke-width="1.3"/>
<text x="463.7" y="885.3" font-size="15" font-weight="600" fill="#eef2fb" text-anchor="end">Niki Lauda Kurve</text>
<line x1="236.3" y1="415.4" x2="188.0" y2="417.5" stroke="#ff5a36" stroke-opacity="0.45" stroke-width="1.3"/>
<text x="180.0" y="421.5" font-size="15" font-weight="600" fill="#eef2fb" text-anchor="end">Remus Kurve</text>
<line x1="94.6" y1="250.3" x2="50.6" y2="222.6" stroke="#ff5a36" stroke-opacity="0.45" stroke-width="1.3"/>
<text x="42.6" y="226.6" font-size="15" font-weight="600" fill="#eef2fb" text-anchor="end">Remus</text>
<line x1="688.9" y1="310.2" x2="713.6" y2="264.5" stroke="#ff5a36" stroke-opacity="0.45" stroke-width="1.3"/>
<text x="721.6" y="268.5" font-size="15" font-weight="600" fill="#eef2fb" text-anchor="start">Schlossgold</text>
<line x1="377.2" y1="415.3" x2="334.6" y2="385.5" stroke="#ff5a36" stroke-opacity="0.45" stroke-width="1.3"/>
<text x="326.6" y="389.5" font-size="15" font-weight="600" fill="#eef2fb" text-anchor="end">Rauch Kurve</text>
<line x1="458.2" y1="598.5" x2="412.0" y2="622.3" stroke="#ff5a36" stroke-opacity="0.45" stroke-width="1.3"/>
<text x="404.0" y="626.3" font-size="15" font-weight="600" fill="#eef2fb" text-anchor="end">Würth Kurve</text>
<line x1="987.9" y1="517.2" x2="1039.8" y2="513.8" stroke="#ff5a36" stroke-opacity="0.45" stroke-width="1.3"/>
<text x="1047.8" y="517.8" font-size="15" font-weight="600" fill="#eef2fb" text-anchor="start">Rindt</text>
<line x1="1014.5" y1="671.6" x2="1064.6" y2="685.7" stroke="#ff5a36" stroke-opacity="0.45" stroke-width="1.3"/>
<text x="1072.6" y="689.7" font-size="15" font-weight="600" fill="#eef2fb" text-anchor="start">Mobilkurve</text>
<text x="90" y="64" font-size="20" letter-spacing="5" fill="#ff5a36" font-weight="700">TRACK ATLAS</text>
<text x="90" y="108" font-size="42" font-weight="800" fill="#ffffff">RED BULL RING</text>
<text x="90" y="136" font-size="16" fill="#9aa6bd">Spielberg, A1-Ring</text>
<rect x="1170" y="200" width="360" height="710" rx="16" fill="#ffffff" fill-opacity="0.04" stroke="#ff5a36" stroke-opacity="0.5"/>
<text x="1198" y="250" font-size="13" letter-spacing="2" fill="#8794ab">LAYOUT</text>
<text x="1198" y="276" font-size="22" font-weight="700" fill="#eef2fb">Grand Prix Circuit</text>
<text x="1198" y="320" font-size="13" letter-spacing="2" fill="#8794ab">LENGTH</text>
<text x="1198" y="346" font-size="22" font-weight="700" fill="#eef2fb">4.318 km</text>
<text x="1198" y="390" font-size="13" letter-spacing="2" fill="#8794ab">CORNERS</text>
<text x="1198" y="416" font-size="22" font-weight="700" fill="#eef2fb">10</text>
<text x="1198" y="460" font-size="13" letter-spacing="2" fill="#8794ab">NAMED CORNERS</text>
<text x="1198" y="486" font-size="22" font-weight="700" fill="#eef2fb">8</text>
<text x="1198" y="530" font-size="13" letter-spacing="2" fill="#8794ab">DIRECTION</text>
<text x="1198" y="556" font-size="22" font-weight="700" fill="#eef2fb">Clockwise</text>
<text x="1198" y="600" font-size="13" letter-spacing="2" fill="#8794ab">SECTORS</text>
<text x="1198" y="626" font-size="22" font-weight="700" fill="#eef2fb">3</text>
<text x="1198" y="670" font-size="13" letter-spacing="2" fill="#8794ab">COUNTRY</text>
<text x="1198" y="696" font-size="22" font-weight="700" fill="#eef2fb">AT</text>
<text x="1198" y="740" font-size="13" letter-spacing="2" fill="#8794ab">LOCATION</text>
<text x="1198" y="766" font-size="22" font-weight="700" fill="#eef2fb">Spielberg</text>
<text x="90" y="966" font-size="12" fill="#566177">Geometry © OpenStreetMap contributors (ODbL) · corner data: Lovely-Sim-Racing + curated · track-atlas</text>
<text x="90" y="942" font-size="12" fill="#8794ab">⚑ start / finish</text>
</svg>