<svg xmlns="http://www.w3.org/2000/svg" width="1600" height="1000" viewBox="0 0 1600 1000" font-family="Helvetica, Arial, sans-serif">
<defs>
      <radialGradient id="bg" cx="38%" cy="34%" r="85%">
        <stop offset="0%" stop-color="#1b2030"/>
        <stop offset="55%" stop-color="#12151f"/>
        <stop offset="100%" stop-color="#0a0c12"/>
      </radialGradient>
      <linearGradient id="accent" x1="0" y1="0" x2="1" y2="1">
        <stop offset="0%" stop-color="#1e9bd7"/>
        <stop offset="100%" stop-color="#ffffff"/>
      </linearGradient>
      <filter id="glow" x="-40%" y="-40%" width="180%" height="180%">
        <feGaussianBlur stdDeviation="6" result="b"/>
        <feMerge><feMergeNode in="b"/><feMergeNode in="SourceGraphic"/></feMerge>
      </filter>
    </defs>
<rect width="1600" height="1000" fill="url(#bg)"/>
<line x1="0" y1="0" x2="0" y2="1000" stroke="#ffffff" stroke-opacity="0.025"/>
<line x1="56" y1="0" x2="56" y2="1000" stroke="#ffffff" stroke-opacity="0.025"/>
<line x1="112" y1="0" x2="112" y2="1000" stroke="#ffffff" stroke-opacity="0.025"/>
<line x1="168" y1="0" x2="168" y2="1000" stroke="#ffffff" stroke-opacity="0.025"/>
<line x1="224" y1="0" x2="224" y2="1000" stroke="#ffffff" stroke-opacity="0.025"/>
<line x1="280" y1="0" x2="280" y2="1000" stroke="#ffffff" stroke-opacity="0.025"/>
<line x1="336" y1="0" x2="336" y2="1000" stroke="#ffffff" stroke-opacity="0.025"/>
<line x1="392" y1="0" x2="392" y2="1000" stroke="#ffffff" stroke-opacity="0.025"/>
<line x1="448" y1="0" x2="448" y2="1000" stroke="#ffffff" stroke-opacity="0.025"/>
<line x1="504" y1="0" x2="504" y2="1000" stroke="#ffffff" stroke-opacity="0.025"/>
<line x1="560" y1="0" x2="560" y2="1000" stroke="#ffffff" stroke-opacity="0.025"/>
<line x1="616" y1="0" x2="616" y2="1000" stroke="#ffffff" stroke-opacity="0.025"/>
<line x1="672" y1="0" x2="672" y2="1000" stroke="#ffffff" stroke-opacity="0.025"/>
<line x1="728" y1="0" x2="728" y2="1000" stroke="#ffffff" stroke-opacity="0.025"/>
<line x1="784" y1="0" x2="784" y2="1000" stroke="#ffffff" stroke-opacity="0.025"/>
<line x1="840" y1="0" x2="840" y2="1000" stroke="#ffffff" stroke-opacity="0.025"/>
<line x1="896" y1="0" x2="896" y2="1000" stroke="#ffffff" stroke-opacity="0.025"/>
<line x1="952" y1="0" x2="952" y2="1000" stroke="#ffffff" stroke-opacity="0.025"/>
<line x1="1008" y1="0" x2="1008" y2="1000" stroke="#ffffff" stroke-opacity="0.025"/>
<line x1="1064" y1="0" x2="1064" y2="1000" stroke="#ffffff" stroke-opacity="0.025"/>
<line x1="1120" y1="0" x2="1120" y2="1000" stroke="#ffffff" stroke-opacity="0.025"/>
<line x1="1176" y1="0" x2="1176" y2="1000" stroke="#ffffff" stroke-opacity="0.025"/>
<line x1="1232" y1="0" x2="1232" y2="1000" stroke="#ffffff" stroke-opacity="0.025"/>
<line x1="1288" y1="0" x2="1288" y2="1000" stroke="#ffffff" stroke-opacity="0.025"/>
<line x1="1344" y1="0" x2="1344" y2="1000" stroke="#ffffff" stroke-opacity="0.025"/>
<line x1="1400" y1="0" x2="1400" y2="1000" stroke="#ffffff" stroke-opacity="0.025"/>
<line x1="1456" y1="0" x2="1456" y2="1000" stroke="#ffffff" stroke-opacity="0.025"/>
<line x1="1512" y1="0" x2="1512" y2="1000" stroke="#ffffff" stroke-opacity="0.025"/>
<line x1="1568" y1="0" x2="1568" y2="1000" stroke="#ffffff" stroke-opacity="0.025"/>
<line x1="0" y1="0" x2="1600" y2="0" stroke="#ffffff" stroke-opacity="0.025"/>
<line x1="0" y1="56" x2="1600" y2="56" stroke="#ffffff" stroke-opacity="0.025"/>
<line x1="0" y1="112" x2="1600" y2="112" stroke="#ffffff" stroke-opacity="0.025"/>
<line x1="0" y1="168" x2="1600" y2="168" stroke="#ffffff" stroke-opacity="0.025"/>
<line x1="0" y1="224" x2="1600" y2="224" stroke="#ffffff" stroke-opacity="0.025"/>
<line x1="0" y1="280" x2="1600" y2="280" stroke="#ffffff" stroke-opacity="0.025"/>
<line x1="0" y1="336" x2="1600" y2="336" stroke="#ffffff" stroke-opacity="0.025"/>
<line x1="0" y1="392" x2="1600" y2="392" stroke="#ffffff" stroke-opacity="0.025"/>
<line x1="0" y1="448" x2="1600" y2="448" stroke="#ffffff" stroke-opacity="0.025"/>
<line x1="0" y1="504" x2="1600" y2="504" stroke="#ffffff" stroke-opacity="0.025"/>
<line x1="0" y1="560" x2="1600" y2="560" stroke="#ffffff" stroke-opacity="0.025"/>
<line x1="0" y1="616" x2="1600" y2="616" stroke="#ffffff" stroke-opacity="0.025"/>
<line x1="0" y1="672" x2="1600" y2="672" stroke="#ffffff" stroke-opacity="0.025"/>
<line x1="0" y1="728" x2="1600" y2="728" stroke="#ffffff" stroke-opacity="0.025"/>
<line x1="0" y1="784" x2="1600" y2="784" stroke="#ffffff" stroke-opacity="0.025"/>
<line x1="0" y1="840" x2="1600" y2="840" stroke="#ffffff" stroke-opacity="0.025"/>
<line x1="0" y1="896" x2="1600" y2="896" stroke="#ffffff" stroke-opacity="0.025"/>
<line x1="0" y1="952" x2="1600" y2="952" stroke="#ffffff" stroke-opacity="0.025"/>
<path d="M 601.0,487.3 L 667.9,433.7 L 670.4,432.2 L 672.1,431.5 L 673.5,431.1 L 675.0,430.9 L 676.5,430.7 L 677.9,430.7 L 679.1,430.8 L 680.4,431.1 L 681.9,431.7 L 683.1,432.4 L 684.2,433.1 L 685.4,434.0 L 686.4,435.0 L 687.5,436.8 L 688.3,438.8 L 690.9,446.7 L 702.0,482.8 L 702.3,483.8 L 702.8,484.6 L 703.2,485.4 L 703.7,486.2 L 704.5,487.2 L 705.5,488.2 L 706.5,489.0 L 707.6,489.8 L 708.8,490.4 L 710.0,490.9 L 711.5,491.3 L 712.7,491.5 L 713.8,491.4 L 715.1,491.2 L 716.2,490.8 L 717.6,490.2 L 719.1,489.2 L 720.6,487.8 L 721.8,486.4 L 722.8,484.7 L 724.4,481.9 L 725.4,480.2 L 726.5,477.9 L 727.4,475.6 L 728.7,472.5 L 729.8,469.8 L 731.4,465.7 L 733.1,460.6 L 734.4,456.1 L 735.8,451.1 L 737.1,445.7 L 738.2,440.7 L 739.0,435.6 L 739.7,429.9 L 740.2,424.2 L 740.5,420.5 L 740.5,417.2 L 740.6,413.4 L 740.5,410.6 L 740.0,407.8 L 739.4,405.3 L 738.6,403.0 L 737.6,401.4 L 736.7,399.8 L 735.2,398.1 L 730.4,393.5 L 722.2,386.2 L 711.9,376.1 L 702.5,367.5 L 693.2,359.0 L 627.5,299.0 L 595.3,269.9 L 577.3,253.4 L 573.4,249.9 L 541.3,221.0 L 510.1,193.3 L 507.2,191.2 L 505.0,189.8 L 503.1,188.8 L 500.9,187.8 L 498.6,186.9 L 496.3,186.2 L 494.5,185.7 L 492.9,185.4 L 491.6,185.1 L 489.2,184.9 L 486.7,184.9 L 484.3,184.9 L 481.9,185.0 L 479.4,185.4 L 477.1,185.9 L 474.7,186.6 L 472.4,187.4 L 470.2,188.5 L 469.2,189.0 L 467.3,190.1 L 466.5,190.7 L 465.6,191.5 L 464.9,192.1 L 463.6,193.6 L 462.9,194.3 L 462.1,195.3 L 461.5,196.3 L 460.8,197.5 L 460.2,198.8 L 459.6,200.4 L 459.1,202.2 L 458.9,203.9 L 456.0,234.6 L 455.4,238.3 L 454.4,241.5 L 453.6,243.2 L 452.6,244.9 L 451.4,246.6 L 450.1,248.4 L 448.8,249.9 L 447.3,251.2 L 445.3,252.8 L 443.9,253.8 L 442.7,254.6 L 441.6,255.2 L 440.5,255.7 L 438.9,256.3 L 437.1,257.0 L 435.6,257.4 L 434.1,257.5 L 432.4,257.7 L 430.5,257.8 L 428.8,257.8 L 426.9,257.5 L 425.3,257.2 L 423.5,256.6 L 421.9,256.0 L 419.9,255.2 L 417.6,254.0 L 415.9,252.9 L 414.4,251.7 L 413.2,250.6 L 412.1,249.4 L 411.1,248.1 L 409.6,246.1 L 409.1,245.3 L 408.2,243.8 L 407.5,242.2 L 406.9,240.8 L 406.4,239.6 L 406.0,238.4 L 405.7,237.4 L 405.5,236.3 L 405.3,235.1 L 405.1,233.5 L 405.0,232.4 L 405.0,231.1 L 405.1,229.9 L 405.2,228.7 L 405.4,227.0 L 405.9,225.2 L 406.3,223.3 L 407.3,221.0 L 408.3,219.1 L 416.2,203.5 L 425.3,184.9 L 432.1,170.9 L 435.3,164.6 L 436.1,163.0 L 437.0,161.3 L 438.0,159.7 L 438.9,158.2 L 440.6,155.6 L 442.3,153.3 L 443.8,151.5 L 446.2,148.7 L 449.0,145.5 L 451.8,142.3 L 454.3,139.5 L 456.8,137.1 L 462.8,131.7 L 469.3,126.5 L 472.4,124.3 L 475.0,122.4 L 477.1,120.9 L 482.0,117.9 L 486.6,115.4 L 489.9,114.0 L 493.0,112.7 L 497.2,111.3 L 502.3,109.8 L 506.3,108.8 L 510.1,108.1 L 514.4,107.4 L 518.6,106.8 L 524.2,106.1 L 531.9,105.2 L 552.3,103.2 L 615.9,97.1 L 698.6,90.5 L 707.8,90.1 L 710.4,90.0 L 712.5,90.0 L 714.9,90.2 L 717.1,90.6 L 720.7,91.6 L 723.6,92.7 L 726.5,94.0 L 729.9,95.7 L 733.6,98.0 L 738.0,101.5 L 740.9,104.2 L 742.8,106.3 L 744.6,108.6 L 746.0,110.8 L 747.5,113.2 L 748.8,115.9 L 751.4,122.4 L 753.7,129.1 L 755.7,134.5 L 757.2,139.7 L 759.4,147.3 L 764.6,165.7 L 768.1,180.3 L 769.7,188.4 L 771.8,199.3 L 773.6,210.9 L 774.4,217.3 L 775.0,223.7 L 775.8,233.0 L 776.5,241.9 L 777.3,255.0 L 778.2,269.6 L 779.2,291.4 L 779.8,313.1 L 780.1,319.0 L 780.4,324.5 L 780.7,327.6 L 781.1,330.7 L 781.7,333.9 L 782.5,337.6 L 783.7,341.6 L 784.5,344.0 L 785.7,346.9 L 787.2,350.2 L 788.6,353.5 L 789.8,355.9 L 791.0,357.9 L 792.6,360.7 L 794.3,363.2 L 798.9,370.4 L 800.2,372.8 L 801.1,375.1 L 802.0,377.7 L 802.3,379.1 L 802.6,380.6 L 802.8,381.9 L 802.9,383.6 L 802.9,384.9 L 803.0,386.2 L 802.9,388.0 L 802.7,389.4 L 802.5,390.7 L 802.3,392.0 L 801.8,393.9 L 801.1,396.2 L 800.6,397.7 L 799.6,400.4 L 796.3,409.0 L 793.3,417.3 L 791.2,423.0 L 789.8,427.0 L 788.7,429.9 L 787.1,434.4 L 786.7,435.8 L 786.2,438.0 L 785.6,441.0 L 785.1,443.8 L 784.7,447.0 L 784.5,449.9 L 784.3,452.9 L 784.4,455.5 L 784.7,458.8 L 785.1,461.2 L 785.9,464.3 L 786.8,467.0 L 787.5,469.2 L 788.7,471.7 L 790.2,474.3 L 791.3,475.9 L 793.1,478.3 L 801.3,488.8 L 803.7,491.6 L 804.8,493.0 L 806.1,494.8 L 807.0,496.3 L 808.0,498.7 L 809.0,501.5 L 809.5,503.0 L 810.1,505.2 L 810.6,508.5 L 810.7,510.6 L 810.8,512.5 L 810.7,514.7 L 810.5,516.8 L 810.2,519.5 L 809.7,521.8 L 808.9,524.2 L 807.9,526.5 L 806.8,528.6 L 804.9,532.0 L 803.6,533.8 L 801.8,535.9 L 799.8,537.9 L 796.0,541.1 L 795.8,541.3 L 793.9,542.6 L 792.0,543.9 L 789.5,545.6 L 787.0,547.1 L 783.8,549.2 L 780.6,551.2 L 777.8,552.9 L 774.8,554.8 L 772.4,556.1 L 770.8,557.0 L 768.4,558.3 L 765.0,560.2 L 761.8,562.4 L 760.3,563.5 L 758.4,564.8 L 756.1,566.6 L 754.5,568.1 L 752.9,569.6 L 751.3,571.4 L 750.2,572.8 L 748.9,574.5 L 747.6,576.2 L 746.0,578.6 L 744.3,581.5 L 742.3,585.3 L 708.5,647.1 L 681.7,698.4 L 644.5,768.8 L 631.4,792.9 L 625.4,804.3 L 619.1,815.6 L 617.1,819.0 L 613.1,825.8 L 610.3,830.5 L 608.3,833.7 L 606.5,836.5 L 602.8,842.5 L 599.4,847.8 L 593.7,856.4 L 589.2,863.1 L 586.9,866.4 L 585.0,869.3 L 580.4,875.7 L 577.6,879.6 L 574.4,884.2 L 571.0,888.9 L 568.5,892.1 L 566.8,894.1 L 564.9,896.3 L 563.4,897.8 L 562.0,899.1 L 560.2,900.6 L 559.1,901.5 L 557.8,902.5 L 556.4,903.6 L 554.6,904.8 L 552.4,905.8 L 549.8,907.0 L 547.7,907.8 L 545.3,908.5 L 543.1,909.1 L 540.1,909.6 L 538.0,909.8 L 536.0,909.9 L 534.2,910.0 L 531.8,910.0 L 528.2,909.7 L 525.5,909.2 L 523.0,908.5 L 520.5,907.7 L 518.1,906.8 L 515.5,905.7 L 512.5,904.2 L 510.2,902.7 L 508.0,901.2 L 506.6,900.1 L 505.3,898.9 L 503.6,897.2 L 502.2,895.9 L 500.7,894.1 L 499.6,892.6 L 498.3,890.8 L 496.8,888.5 L 495.8,886.7 L 494.5,884.0 L 493.1,880.5 L 491.8,877.3 L 490.5,874.3 L 489.2,871.3 L 487.9,868.6 L 486.6,866.0 L 485.3,863.6 L 483.7,860.5 L 482.0,857.5 L 479.9,853.9 L 477.3,849.6 L 470.8,839.6 L 468.7,836.5 L 466.1,832.8 L 462.5,827.9 L 460.4,825.2 L 458.4,822.7 L 456.1,819.7 L 453.8,817.3 L 448.4,811.2 L 446.1,808.9 L 430.6,792.5 L 419.9,780.4 L 403.0,760.3 L 395.9,752.0 L 394.4,750.5 L 392.7,749.3 L 391.0,748.6 L 388.9,748.4 L 386.8,748.7 L 384.9,749.3 L 383.1,750.3 L 381.2,751.8 L 370.6,762.4 L 369.7,763.1 L 367.9,764.3 L 365.4,765.2 L 362.2,765.7 L 360.9,765.7 L 359.1,765.6 L 356.8,765.1 L 354.8,764.3 L 352.9,763.3 L 350.7,761.6 L 347.9,758.8 L 343.6,754.3 L 339.7,749.7 L 336.1,745.2 L 335.0,743.7 L 332.2,739.5 L 330.0,735.5 L 327.2,730.3 L 324.8,724.7 L 322.9,718.9 L 321.6,714.2 L 320.4,709.3 L 320.1,707.0 L 319.7,704.6 L 319.2,700.8 L 319.4,697.4 L 319.9,694.6 L 320.7,692.2 L 321.9,690.2 L 323.7,687.8 L 327.4,683.1 L 328.0,682.3 L 329.8,680.0 L 346.8,657.8 L 390.4,600.6 L 439.4,536.2 L 457.1,513.3 L 460.6,508.7 L 464.1,504.5 L 465.8,502.5 L 466.7,501.7 L 467.6,500.9 L 469.0,500.0 L 470.5,499.2 L 472.2,498.4 L 473.8,497.7 L 475.2,497.2 L 477.1,496.7 L 479.1,496.2 L 481.0,495.8 L 483.7,495.4 L 486.7,495.0 L 489.4,494.7 L 491.6,494.6 L 494.8,494.6 L 499.5,494.6 L 502.0,494.8 L 504.6,495.1 L 510.3,495.9 L 516.6,496.9 L 524.3,498.0 L 544.4,501.2 L 550.5,502.1 L 553.8,502.4 L 557.1,502.5 L 560.8,502.5 L 565.0,502.1 L 568.6,501.7 L 572.2,501.0 L 575.7,500.1 L 579.0,499.2 L 581.6,498.4 L 585.1,497.0 L 588.3,495.6 L 592.0,493.7 L 595.5,491.5 L 601.0,487.3 Z" fill="none" stroke="#000000" stroke-opacity="0.5" stroke-width="13" stroke-linejoin="round" stroke-linecap="round"/>
<path d="M 601.0,487.3 L 667.9,433.7 L 670.4,432.2 L 672.1,431.5 L 673.5,431.1 L 675.0,430.9 L 676.5,430.7 L 677.9,430.7 L 679.1,430.8 L 680.4,431.1 L 681.9,431.7 L 683.1,432.4 L 684.2,433.1 L 685.4,434.0 L 686.4,435.0 L 687.5,436.8 L 688.3,438.8 L 690.9,446.7 L 702.0,482.8 L 702.3,483.8 L 702.8,484.6 L 703.2,485.4 L 703.7,486.2 L 704.5,487.2 L 705.5,488.2 L 706.5,489.0 L 707.6,489.8 L 708.8,490.4 L 710.0,490.9 L 711.5,491.3 L 712.7,491.5 L 713.8,491.4 L 715.1,491.2 L 716.2,490.8 L 717.6,490.2 L 719.1,489.2 L 720.6,487.8 L 721.8,486.4 L 722.8,484.7 L 724.4,481.9 L 725.4,480.2 L 726.5,477.9 L 727.4,475.6 L 728.7,472.5 L 729.8,469.8 L 731.4,465.7 L 733.1,460.6 L 734.4,456.1 L 735.8,451.1 L 737.1,445.7 L 738.2,440.7 L 739.0,435.6 L 739.7,429.9 L 740.2,424.2 L 740.5,420.5 L 740.5,417.2 L 740.6,413.4 L 740.5,410.6 L 740.0,407.8 L 739.4,405.3 L 738.6,403.0 L 737.6,401.4 L 736.7,399.8 L 735.2,398.1 L 730.4,393.5 L 722.2,386.2 L 711.9,376.1 L 702.5,367.5 L 693.2,359.0 L 627.5,299.0 L 595.3,269.9 L 577.3,253.4 L 573.4,249.9 L 541.3,221.0 L 510.1,193.3 L 507.2,191.2 L 505.0,189.8 L 503.1,188.8 L 500.9,187.8 L 498.6,186.9 L 496.3,186.2 L 494.5,185.7 L 492.9,185.4 L 491.6,185.1 L 489.2,184.9 L 486.7,184.9 L 484.3,184.9 L 481.9,185.0 L 479.4,185.4 L 477.1,185.9 L 474.7,186.6 L 472.4,187.4 L 470.2,188.5 L 469.2,189.0 L 467.3,190.1 L 466.5,190.7 L 465.6,191.5 L 464.9,192.1 L 463.6,193.6 L 462.9,194.3 L 462.1,195.3 L 461.5,196.3 L 460.8,197.5 L 460.2,198.8 L 459.6,200.4 L 459.1,202.2 L 458.9,203.9 L 456.0,234.6 L 455.4,238.3 L 454.4,241.5 L 453.6,243.2 L 452.6,244.9 L 451.4,246.6 L 450.1,248.4 L 448.8,249.9 L 447.3,251.2 L 445.3,252.8 L 443.9,253.8 L 442.7,254.6 L 441.6,255.2 L 440.5,255.7 L 438.9,256.3 L 437.1,257.0 L 435.6,257.4 L 434.1,257.5 L 432.4,257.7 L 430.5,257.8 L 428.8,257.8 L 426.9,257.5 L 425.3,257.2 L 423.5,256.6 L 421.9,256.0 L 419.9,255.2 L 417.6,254.0 L 415.9,252.9 L 414.4,251.7 L 413.2,250.6 L 412.1,249.4 L 411.1,248.1 L 409.6,246.1 L 409.1,245.3 L 408.2,243.8 L 407.5,242.2 L 406.9,240.8 L 406.4,239.6 L 406.0,238.4 L 405.7,237.4 L 405.5,236.3 L 405.3,235.1 L 405.1,233.5 L 405.0,232.4 L 405.0,231.1 L 405.1,229.9 L 405.2,228.7 L 405.4,227.0 L 405.9,225.2 L 406.3,223.3 L 407.3,221.0 L 408.3,219.1 L 416.2,203.5 L 425.3,184.9 L 432.1,170.9 L 435.3,164.6 L 436.1,163.0 L 437.0,161.3 L 438.0,159.7 L 438.9,158.2 L 440.6,155.6 L 442.3,153.3 L 443.8,151.5 L 446.2,148.7 L 449.0,145.5 L 451.8,142.3 L 454.3,139.5 L 456.8,137.1 L 462.8,131.7 L 469.3,126.5 L 472.4,124.3 L 475.0,122.4 L 477.1,120.9 L 482.0,117.9 L 486.6,115.4 L 489.9,114.0 L 493.0,112.7 L 497.2,111.3 L 502.3,109.8 L 506.3,108.8 L 510.1,108.1 L 514.4,107.4 L 518.6,106.8 L 524.2,106.1 L 531.9,105.2 L 552.3,103.2 L 615.9,97.1 L 698.6,90.5 L 707.8,90.1 L 710.4,90.0 L 712.5,90.0 L 714.9,90.2 L 717.1,90.6 L 720.7,91.6 L 723.6,92.7 L 726.5,94.0 L 729.9,95.7 L 733.6,98.0 L 738.0,101.5 L 740.9,104.2 L 742.8,106.3 L 744.6,108.6 L 746.0,110.8 L 747.5,113.2 L 748.8,115.9 L 751.4,122.4 L 753.7,129.1 L 755.7,134.5 L 757.2,139.7 L 759.4,147.3 L 764.6,165.7 L 768.1,180.3 L 769.7,188.4 L 771.8,199.3 L 773.6,210.9 L 774.4,217.3 L 775.0,223.7 L 775.8,233.0 L 776.5,241.9 L 777.3,255.0 L 778.2,269.6 L 779.2,291.4 L 779.8,313.1 L 780.1,319.0 L 780.4,324.5 L 780.7,327.6 L 781.1,330.7 L 781.7,333.9 L 782.5,337.6 L 783.7,341.6 L 784.5,344.0 L 785.7,346.9 L 787.2,350.2 L 788.6,353.5 L 789.8,355.9 L 791.0,357.9 L 792.6,360.7 L 794.3,363.2 L 798.9,370.4 L 800.2,372.8 L 801.1,375.1 L 802.0,377.7 L 802.3,379.1 L 802.6,380.6 L 802.8,381.9 L 802.9,383.6 L 802.9,384.9 L 803.0,386.2 L 802.9,388.0 L 802.7,389.4 L 802.5,390.7 L 802.3,392.0 L 801.8,393.9 L 801.1,396.2 L 800.6,397.7 L 799.6,400.4 L 796.3,409.0 L 793.3,417.3 L 791.2,423.0 L 789.8,427.0 L 788.7,429.9 L 787.1,434.4 L 786.7,435.8 L 786.2,438.0 L 785.6,441.0 L 785.1,443.8 L 784.7,447.0 L 784.5,449.9 L 784.3,452.9 L 784.4,455.5 L 784.7,458.8 L 785.1,461.2 L 785.9,464.3 L 786.8,467.0 L 787.5,469.2 L 788.7,471.7 L 790.2,474.3 L 791.3,475.9 L 793.1,478.3 L 801.3,488.8 L 803.7,491.6 L 804.8,493.0 L 806.1,494.8 L 807.0,496.3 L 808.0,498.7 L 809.0,501.5 L 809.5,503.0 L 810.1,505.2 L 810.6,508.5 L 810.7,510.6 L 810.8,512.5 L 810.7,514.7 L 810.5,516.8 L 810.2,519.5 L 809.7,521.8 L 808.9,524.2 L 807.9,526.5 L 806.8,528.6 L 804.9,532.0 L 803.6,533.8 L 801.8,535.9 L 799.8,537.9 L 796.0,541.1 L 795.8,541.3 L 793.9,542.6 L 792.0,543.9 L 789.5,545.6 L 787.0,547.1 L 783.8,549.2 L 780.6,551.2 L 777.8,552.9 L 774.8,554.8 L 772.4,556.1 L 770.8,557.0 L 768.4,558.3 L 765.0,560.2 L 761.8,562.4 L 760.3,563.5 L 758.4,564.8 L 756.1,566.6 L 754.5,568.1 L 752.9,569.6 L 751.3,571.4 L 750.2,572.8 L 748.9,574.5 L 747.6,576.2 L 746.0,578.6 L 744.3,581.5 L 742.3,585.3 L 708.5,647.1 L 681.7,698.4 L 644.5,768.8 L 631.4,792.9 L 625.4,804.3 L 619.1,815.6 L 617.1,819.0 L 613.1,825.8 L 610.3,830.5 L 608.3,833.7 L 606.5,836.5 L 602.8,842.5 L 599.4,847.8 L 593.7,856.4 L 589.2,863.1 L 586.9,866.4 L 585.0,869.3 L 580.4,875.7 L 577.6,879.6 L 574.4,884.2 L 571.0,888.9 L 568.5,892.1 L 566.8,894.1 L 564.9,896.3 L 563.4,897.8 L 562.0,899.1 L 560.2,900.6 L 559.1,901.5 L 557.8,902.5 L 556.4,903.6 L 554.6,904.8 L 552.4,905.8 L 549.8,907.0 L 547.7,907.8 L 545.3,908.5 L 543.1,909.1 L 540.1,909.6 L 538.0,909.8 L 536.0,909.9 L 534.2,910.0 L 531.8,910.0 L 528.2,909.7 L 525.5,909.2 L 523.0,908.5 L 520.5,907.7 L 518.1,906.8 L 515.5,905.7 L 512.5,904.2 L 510.2,902.7 L 508.0,901.2 L 506.6,900.1 L 505.3,898.9 L 503.6,897.2 L 502.2,895.9 L 500.7,894.1 L 499.6,892.6 L 498.3,890.8 L 496.8,888.5 L 495.8,886.7 L 494.5,884.0 L 493.1,880.5 L 491.8,877.3 L 490.5,874.3 L 489.2,871.3 L 487.9,868.6 L 486.6,866.0 L 485.3,863.6 L 483.7,860.5 L 482.0,857.5 L 479.9,853.9 L 477.3,849.6 L 470.8,839.6 L 468.7,836.5 L 466.1,832.8 L 462.5,827.9 L 460.4,825.2 L 458.4,822.7 L 456.1,819.7 L 453.8,817.3 L 448.4,811.2 L 446.1,808.9 L 430.6,792.5 L 419.9,780.4 L 403.0,760.3 L 395.9,752.0 L 394.4,750.5 L 392.7,749.3 L 391.0,748.6 L 388.9,748.4 L 386.8,748.7 L 384.9,749.3 L 383.1,750.3 L 381.2,751.8 L 370.6,762.4 L 369.7,763.1 L 367.9,764.3 L 365.4,765.2 L 362.2,765.7 L 360.9,765.7 L 359.1,765.6 L 356.8,765.1 L 354.8,764.3 L 352.9,763.3 L 350.7,761.6 L 347.9,758.8 L 343.6,754.3 L 339.7,749.7 L 336.1,745.2 L 335.0,743.7 L 332.2,739.5 L 330.0,735.5 L 327.2,730.3 L 324.8,724.7 L 322.9,718.9 L 321.6,714.2 L 320.4,709.3 L 320.1,707.0 L 319.7,704.6 L 319.2,700.8 L 319.4,697.4 L 319.9,694.6 L 320.7,692.2 L 321.9,690.2 L 323.7,687.8 L 327.4,683.1 L 328.0,682.3 L 329.8,680.0 L 346.8,657.8 L 390.4,600.6 L 439.4,536.2 L 457.1,513.3 L 460.6,508.7 L 464.1,504.5 L 465.8,502.5 L 466.7,501.7 L 467.6,500.9 L 469.0,500.0 L 470.5,499.2 L 472.2,498.4 L 473.8,497.7 L 475.2,497.2 L 477.1,496.7 L 479.1,496.2 L 481.0,495.8 L 483.7,495.4 L 486.7,495.0 L 489.4,494.7 L 491.6,494.6 L 494.8,494.6 L 499.5,494.6 L 502.0,494.8 L 504.6,495.1 L 510.3,495.9 L 516.6,496.9 L 524.3,498.0 L 544.4,501.2 L 550.5,502.1 L 553.8,502.4 L 557.1,502.5 L 560.8,502.5 L 565.0,502.1 L 568.6,501.7 L 572.2,501.0 L 575.7,500.1 L 579.0,499.2 L 581.6,498.4 L 585.1,497.0 L 588.3,495.6 L 592.0,493.7 L 595.5,491.5 L 601.0,487.3 Z" fill="none" stroke="#39404f" stroke-width="8.5" stroke-linejoin="round" stroke-linecap="round"/>
<path d="M 601.0,487.3 L 667.9,433.7 L 670.4,432.2 L 672.1,431.5 L 673.5,431.1 L 675.0,430.9 L 676.5,430.7 L 677.9,430.7 L 679.1,430.8 L 680.4,431.1 L 681.9,431.7 L 683.1,432.4 L 684.2,433.1 L 685.4,434.0 L 686.4,435.0 L 687.5,436.8 L 688.3,438.8 L 690.9,446.7 L 702.0,482.8 L 702.3,483.8 L 702.8,484.6 L 703.2,485.4 L 703.7,486.2 L 704.5,487.2 L 705.5,488.2 L 706.5,489.0 L 707.6,489.8 L 708.8,490.4 L 710.0,490.9 L 711.5,491.3 L 712.7,491.5 L 713.8,491.4 L 715.1,491.2 L 716.2,490.8 L 717.6,490.2 L 719.1,489.2 L 720.6,487.8 L 721.8,486.4 L 722.8,484.7 L 724.4,481.9 L 725.4,480.2 L 726.5,477.9 L 727.4,475.6 L 728.7,472.5 L 729.8,469.8 L 731.4,465.7 L 733.1,460.6 L 734.4,456.1 L 735.8,451.1 L 737.1,445.7 L 738.2,440.7 L 739.0,435.6 L 739.7,429.9 L 740.2,424.2 L 740.5,420.5 L 740.5,417.2 L 740.6,413.4 L 740.5,410.6 L 740.0,407.8 L 739.4,405.3 L 738.6,403.0 L 737.6,401.4 L 736.7,399.8 L 735.2,398.1 L 730.4,393.5 L 722.2,386.2 L 711.9,376.1 L 702.5,367.5 L 693.2,359.0 L 627.5,299.0 L 595.3,269.9 L 577.3,253.4 L 573.4,249.9 L 541.3,221.0 L 510.1,193.3 L 507.2,191.2 L 505.0,189.8 L 503.1,188.8 L 500.9,187.8 L 498.6,186.9 L 496.3,186.2 L 494.5,185.7 L 492.9,185.4 L 491.6,185.1 L 489.2,184.9 L 486.7,184.9 L 484.3,184.9 L 481.9,185.0 L 479.4,185.4 L 477.1,185.9 L 474.7,186.6 L 472.4,187.4 L 470.2,188.5 L 469.2,189.0 L 467.3,190.1 L 466.5,190.7 L 465.6,191.5 L 464.9,192.1 L 463.6,193.6 L 462.9,194.3 L 462.1,195.3 L 461.5,196.3 L 460.8,197.5 L 460.2,198.8 L 459.6,200.4 L 459.1,202.2 L 458.9,203.9 L 456.0,234.6 L 455.4,238.3 L 454.4,241.5 L 453.6,243.2 L 452.6,244.9 L 451.4,246.6 L 450.1,248.4 L 448.8,249.9 L 447.3,251.2 L 445.3,252.8 L 443.9,253.8 L 442.7,254.6 L 441.6,255.2 L 440.5,255.7 L 438.9,256.3 L 437.1,257.0 L 435.6,257.4 L 434.1,257.5 L 432.4,257.7 L 430.5,257.8 L 428.8,257.8 L 426.9,257.5 L 425.3,257.2 L 423.5,256.6 L 421.9,256.0 L 419.9,255.2 L 417.6,254.0 L 415.9,252.9 L 414.4,251.7 L 413.2,250.6 L 412.1,249.4 L 411.1,248.1 L 409.6,246.1 L 409.1,245.3 L 408.2,243.8 L 407.5,242.2 L 406.9,240.8 L 406.4,239.6 L 406.0,238.4 L 405.7,237.4 L 405.5,236.3 L 405.3,235.1 L 405.1,233.5 L 405.0,232.4 L 405.0,231.1 L 405.1,229.9 L 405.2,228.7 L 405.4,227.0 L 405.9,225.2 L 406.3,223.3 L 407.3,221.0 L 408.3,219.1 L 416.2,203.5 L 425.3,184.9 L 432.1,170.9 L 435.3,164.6 L 436.1,163.0 L 437.0,161.3 L 438.0,159.7 L 438.9,158.2 L 440.6,155.6 L 442.3,153.3 L 443.8,151.5 L 446.2,148.7 L 449.0,145.5 L 451.8,142.3 L 454.3,139.5 L 456.8,137.1 L 462.8,131.7 L 469.3,126.5 L 472.4,124.3 L 475.0,122.4 L 477.1,120.9 L 482.0,117.9 L 486.6,115.4 L 489.9,114.0 L 493.0,112.7 L 497.2,111.3 L 502.3,109.8 L 506.3,108.8 L 510.1,108.1 L 514.4,107.4 L 518.6,106.8 L 524.2,106.1 L 531.9,105.2 L 552.3,103.2 L 615.9,97.1 L 698.6,90.5 L 707.8,90.1 L 710.4,90.0 L 712.5,90.0 L 714.9,90.2 L 717.1,90.6 L 720.7,91.6 L 723.6,92.7 L 726.5,94.0 L 729.9,95.7 L 733.6,98.0 L 738.0,101.5 L 740.9,104.2 L 742.8,106.3 L 744.6,108.6 L 746.0,110.8 L 747.5,113.2 L 748.8,115.9 L 751.4,122.4 L 753.7,129.1 L 755.7,134.5 L 757.2,139.7 L 759.4,147.3 L 764.6,165.7 L 768.1,180.3 L 769.7,188.4 L 771.8,199.3 L 773.6,210.9 L 774.4,217.3 L 775.0,223.7 L 775.8,233.0 L 776.5,241.9 L 777.3,255.0 L 778.2,269.6 L 779.2,291.4 L 779.8,313.1 L 780.1,319.0 L 780.4,324.5 L 780.7,327.6 L 781.1,330.7 L 781.7,333.9 L 782.5,337.6 L 783.7,341.6 L 784.5,344.0 L 785.7,346.9 L 787.2,350.2 L 788.6,353.5 L 789.8,355.9 L 791.0,357.9 L 792.6,360.7 L 794.3,363.2 L 798.9,370.4 L 800.2,372.8 L 801.1,375.1 L 802.0,377.7 L 802.3,379.1 L 802.6,380.6 L 802.8,381.9 L 802.9,383.6 L 802.9,384.9 L 803.0,386.2 L 802.9,388.0 L 802.7,389.4 L 802.5,390.7 L 802.3,392.0 L 801.8,393.9 L 801.1,396.2 L 800.6,397.7 L 799.6,400.4 L 796.3,409.0 L 793.3,417.3 L 791.2,423.0 L 789.8,427.0 L 788.7,429.9 L 787.1,434.4 L 786.7,435.8 L 786.2,438.0 L 785.6,441.0 L 785.1,443.8 L 784.7,447.0 L 784.5,449.9 L 784.3,452.9 L 784.4,455.5 L 784.7,458.8 L 785.1,461.2 L 785.9,464.3 L 786.8,467.0 L 787.5,469.2 L 788.7,471.7 L 790.2,474.3 L 791.3,475.9 L 793.1,478.3 L 801.3,488.8 L 803.7,491.6 L 804.8,493.0 L 806.1,494.8 L 807.0,496.3 L 808.0,498.7 L 809.0,501.5 L 809.5,503.0 L 810.1,505.2 L 810.6,508.5 L 810.7,510.6 L 810.8,512.5 L 810.7,514.7 L 810.5,516.8 L 810.2,519.5 L 809.7,521.8 L 808.9,524.2 L 807.9,526.5 L 806.8,528.6 L 804.9,532.0 L 803.6,533.8 L 801.8,535.9 L 799.8,537.9 L 796.0,541.1 L 795.8,541.3 L 793.9,542.6 L 792.0,543.9 L 789.5,545.6 L 787.0,547.1 L 783.8,549.2 L 780.6,551.2 L 777.8,552.9 L 774.8,554.8 L 772.4,556.1 L 770.8,557.0 L 768.4,558.3 L 765.0,560.2 L 761.8,562.4 L 760.3,563.5 L 758.4,564.8 L 756.1,566.6 L 754.5,568.1 L 752.9,569.6 L 751.3,571.4 L 750.2,572.8 L 748.9,574.5 L 747.6,576.2 L 746.0,578.6 L 744.3,581.5 L 742.3,585.3 L 708.5,647.1 L 681.7,698.4 L 644.5,768.8 L 631.4,792.9 L 625.4,804.3 L 619.1,815.6 L 617.1,819.0 L 613.1,825.8 L 610.3,830.5 L 608.3,833.7 L 606.5,836.5 L 602.8,842.5 L 599.4,847.8 L 593.7,856.4 L 589.2,863.1 L 586.9,866.4 L 585.0,869.3 L 580.4,875.7 L 577.6,879.6 L 574.4,884.2 L 571.0,888.9 L 568.5,892.1 L 566.8,894.1 L 564.9,896.3 L 563.4,897.8 L 562.0,899.1 L 560.2,900.6 L 559.1,901.5 L 557.8,902.5 L 556.4,903.6 L 554.6,904.8 L 552.4,905.8 L 549.8,907.0 L 547.7,907.8 L 545.3,908.5 L 543.1,909.1 L 540.1,909.6 L 538.0,909.8 L 536.0,909.9 L 534.2,910.0 L 531.8,910.0 L 528.2,909.7 L 525.5,909.2 L 523.0,908.5 L 520.5,907.7 L 518.1,906.8 L 515.5,905.7 L 512.5,904.2 L 510.2,902.7 L 508.0,901.2 L 506.6,900.1 L 505.3,898.9 L 503.6,897.2 L 502.2,895.9 L 500.7,894.1 L 499.6,892.6 L 498.3,890.8 L 496.8,888.5 L 495.8,886.7 L 494.5,884.0 L 493.1,880.5 L 491.8,877.3 L 490.5,874.3 L 489.2,871.3 L 487.9,868.6 L 486.6,866.0 L 485.3,863.6 L 483.7,860.5 L 482.0,857.5 L 479.9,853.9 L 477.3,849.6 L 470.8,839.6 L 468.7,836.5 L 466.1,832.8 L 462.5,827.9 L 460.4,825.2 L 458.4,822.7 L 456.1,819.7 L 453.8,817.3 L 448.4,811.2 L 446.1,808.9 L 430.6,792.5 L 419.9,780.4 L 403.0,760.3 L 395.9,752.0 L 394.4,750.5 L 392.7,749.3 L 391.0,748.6 L 388.9,748.4 L 386.8,748.7 L 384.9,749.3 L 383.1,750.3 L 381.2,751.8 L 370.6,762.4 L 369.7,763.1 L 367.9,764.3 L 365.4,765.2 L 362.2,765.7 L 360.9,765.7 L 359.1,765.6 L 356.8,765.1 L 354.8,764.3 L 352.9,763.3 L 350.7,761.6 L 347.9,758.8 L 343.6,754.3 L 339.7,749.7 L 336.1,745.2 L 335.0,743.7 L 332.2,739.5 L 330.0,735.5 L 327.2,730.3 L 324.8,724.7 L 322.9,718.9 L 321.6,714.2 L 320.4,709.3 L 320.1,707.0 L 319.7,704.6 L 319.2,700.8 L 319.4,697.4 L 319.9,694.6 L 320.7,692.2 L 321.9,690.2 L 323.7,687.8 L 327.4,683.1 L 328.0,682.3 L 329.8,680.0 L 346.8,657.8 L 390.4,600.6 L 439.4,536.2 L 457.1,513.3 L 460.6,508.7 L 464.1,504.5 L 465.8,502.5 L 466.7,501.7 L 467.6,500.9 L 469.0,500.0 L 470.5,499.2 L 472.2,498.4 L 473.8,497.7 L 475.2,497.2 L 477.1,496.7 L 479.1,496.2 L 481.0,495.8 L 483.7,495.4 L 486.7,495.0 L 489.4,494.7 L 491.6,494.6 L 494.8,494.6 L 499.5,494.6 L 502.0,494.8 L 504.6,495.1 L 510.3,495.9 L 516.6,496.9 L 524.3,498.0 L 544.4,501.2 L 550.5,502.1 L 553.8,502.4 L 557.1,502.5 L 560.8,502.5 L 565.0,502.1 L 568.6,501.7 L 572.2,501.0 L 575.7,500.1 L 579.0,499.2 L 581.6,498.4 L 585.1,497.0 L 588.3,495.6 L 592.0,493.7 L 595.5,491.5 L 601.0,487.3 Z" fill="none" stroke="#e7edf8" stroke-width="2.6" stroke-linejoin="round" stroke-linecap="round"/>
<path d="M 601.0,487.3 L 667.9,433.7 L 670.4,432.2 L 672.1,431.5 L 673.5,431.1 L 675.0,430.9 L 676.5,430.7 L 677.9,430.7 L 679.1,430.8 L 680.4,431.1 L 681.9,431.7 L 683.1,432.4 L 684.2,433.1 L 685.4,434.0 L 686.4,435.0 L 687.5,436.8 L 688.3,438.8 L 690.9,446.7 L 702.0,482.8 L 702.3,483.8 L 702.8,484.6 L 703.2,485.4 L 703.7,486.2 L 704.5,487.2 L 705.5,488.2 L 706.5,489.0 L 707.6,489.8 L 708.8,490.4 L 710.0,490.9 L 711.5,491.3 L 712.7,491.5 L 713.8,491.4 L 715.1,491.2 L 716.2,490.8 L 717.6,490.2 L 719.1,489.2 L 720.6,487.8 L 721.8,486.4 L 722.8,484.7 L 724.4,481.9 L 725.4,480.2 L 726.5,477.9 L 727.4,475.6 L 728.7,472.5 L 729.8,469.8 L 731.4,465.7 L 733.1,460.6 L 734.4,456.1 L 735.8,451.1 L 737.1,445.7 L 738.2,440.7 L 739.0,435.6 L 739.7,429.9 L 740.2,424.2 L 740.5,420.5 L 740.5,417.2 L 740.6,413.4 L 740.5,410.6 L 740.0,407.8 L 739.4,405.3 L 738.6,403.0 L 737.6,401.4 L 736.7,399.8 L 735.2,398.1 L 730.4,393.5 L 722.2,386.2 L 711.9,376.1 L 702.5,367.5 L 693.2,359.0 L 627.5,299.0 L 595.3,269.9 L 577.3,253.4 L 573.4,249.9 L 541.3,221.0 L 510.1,193.3 L 507.2,191.2 L 505.0,189.8 L 503.1,188.8 L 500.9,187.8 L 498.6,186.9 L 496.3,186.2 L 494.5,185.7 L 492.9,185.4 L 491.6,185.1 L 489.2,184.9 L 486.7,184.9 L 484.3,184.9 L 481.9,185.0 L 479.4,185.4 L 477.1,185.9 L 474.7,186.6 L 472.4,187.4 L 470.2,188.5 L 469.2,189.0 L 467.3,190.1 L 466.5,190.7 L 465.6,191.5 L 464.9,192.1 L 463.6,193.6 L 462.9,194.3 L 462.1,195.3 L 461.5,196.3 L 460.8,197.5 L 460.2,198.8 L 459.6,200.4 L 459.1,202.2 L 458.9,203.9 L 456.0,234.6 L 455.4,238.3 L 454.4,241.5 L 453.6,243.2 L 452.6,244.9 L 451.4,246.6 L 450.1,248.4 L 448.8,249.9 L 447.3,251.2 L 445.3,252.8 L 443.9,253.8 L 442.7,254.6 L 441.6,255.2 L 440.5,255.7 L 438.9,256.3 L 437.1,257.0 L 435.6,257.4 L 434.1,257.5 L 432.4,257.7 L 430.5,257.8 L 428.8,257.8 L 426.9,257.5 L 425.3,257.2 L 423.5,256.6 L 421.9,256.0 L 419.9,255.2 L 417.6,254.0 L 415.9,252.9 L 414.4,251.7 L 413.2,250.6 L 412.1,249.4 L 411.1,248.1 L 409.6,246.1 L 409.1,245.3 L 408.2,243.8 L 407.5,242.2 L 406.9,240.8 L 406.4,239.6 L 406.0,238.4 L 405.7,237.4 L 405.5,236.3 L 405.3,235.1 L 405.1,233.5 L 405.0,232.4 L 405.0,231.1 L 405.1,229.9 L 405.2,228.7 L 405.4,227.0 L 405.9,225.2 L 406.3,223.3 L 407.3,221.0 L 408.3,219.1 L 416.2,203.5 L 425.3,184.9 L 432.1,170.9 L 435.3,164.6 L 436.1,163.0 L 437.0,161.3 L 438.0,159.7 L 438.9,158.2 L 440.6,155.6 L 442.3,153.3 L 443.8,151.5 L 446.2,148.7 L 449.0,145.5 L 451.8,142.3 L 454.3,139.5 L 456.8,137.1 L 462.8,131.7 L 469.3,126.5 L 472.4,124.3 L 475.0,122.4 L 477.1,120.9 L 482.0,117.9 L 486.6,115.4 L 489.9,114.0 L 493.0,112.7 L 497.2,111.3 L 502.3,109.8 L 506.3,108.8 L 510.1,108.1 L 514.4,107.4 L 518.6,106.8 L 524.2,106.1 L 531.9,105.2 L 552.3,103.2 L 615.9,97.1 L 698.6,90.5 L 707.8,90.1 L 710.4,90.0 L 712.5,90.0 L 714.9,90.2 L 717.1,90.6 L 720.7,91.6 L 723.6,92.7 L 726.5,94.0 L 729.9,95.7 L 733.6,98.0 L 738.0,101.5 L 740.9,104.2 L 742.8,106.3 L 744.6,108.6 L 746.0,110.8 L 747.5,113.2 L 748.8,115.9 L 751.4,122.4 L 753.7,129.1 L 755.7,134.5 L 757.2,139.7 L 759.4,147.3 L 764.6,165.7 L 768.1,180.3 L 769.7,188.4 L 771.8,199.3 L 773.6,210.9 L 774.4,217.3 L 775.0,223.7 L 775.8,233.0 L 776.5,241.9 L 777.3,255.0 L 778.2,269.6 L 779.2,291.4 L 779.8,313.1 L 780.1,319.0 L 780.4,324.5 L 780.7,327.6 L 781.1,330.7 L 781.7,333.9 L 782.5,337.6 L 783.7,341.6 L 784.5,344.0 L 785.7,346.9 L 787.2,350.2 L 788.6,353.5 L 789.8,355.9 L 791.0,357.9 L 792.6,360.7 L 794.3,363.2 L 798.9,370.4 L 800.2,372.8 L 801.1,375.1 L 802.0,377.7 L 802.3,379.1 L 802.6,380.6 L 802.8,381.9 L 802.9,383.6 L 802.9,384.9 L 803.0,386.2 L 802.9,388.0 L 802.7,389.4 L 802.5,390.7 L 802.3,392.0 L 801.8,393.9 L 801.1,396.2 L 800.6,397.7 L 799.6,400.4 L 796.3,409.0 L 793.3,417.3 L 791.2,423.0 L 789.8,427.0 L 788.7,429.9 L 787.1,434.4 L 786.7,435.8 L 786.2,438.0 L 785.6,441.0 L 785.1,443.8 L 784.7,447.0 L 784.5,449.9 L 784.3,452.9 L 784.4,455.5 L 784.7,458.8 L 785.1,461.2 L 785.9,464.3 L 786.8,467.0 L 787.5,469.2 L 788.7,471.7 L 790.2,474.3 L 791.3,475.9 L 793.1,478.3 L 801.3,488.8 L 803.7,491.6 L 804.8,493.0 L 806.1,494.8 L 807.0,496.3 L 808.0,498.7 L 809.0,501.5 L 809.5,503.0 L 810.1,505.2 L 810.6,508.5 L 810.7,510.6 L 810.8,512.5 L 810.7,514.7 L 810.5,516.8 L 810.2,519.5 L 809.7,521.8 L 808.9,524.2 L 807.9,526.5 L 806.8,528.6 L 804.9,532.0 L 803.6,533.8 L 801.8,535.9 L 799.8,537.9 L 796.0,541.1 L 795.8,541.3 L 793.9,542.6 L 792.0,543.9 L 789.5,545.6 L 787.0,547.1 L 783.8,549.2 L 780.6,551.2 L 777.8,552.9 L 774.8,554.8 L 772.4,556.1 L 770.8,557.0 L 768.4,558.3 L 765.0,560.2 L 761.8,562.4 L 760.3,563.5 L 758.4,564.8 L 756.1,566.6 L 754.5,568.1 L 752.9,569.6 L 751.3,571.4 L 750.2,572.8 L 748.9,574.5 L 747.6,576.2 L 746.0,578.6 L 744.3,581.5 L 742.3,585.3 L 708.5,647.1 L 681.7,698.4 L 644.5,768.8 L 631.4,792.9 L 625.4,804.3 L 619.1,815.6 L 617.1,819.0 L 613.1,825.8 L 610.3,830.5 L 608.3,833.7 L 606.5,836.5 L 602.8,842.5 L 599.4,847.8 L 593.7,856.4 L 589.2,863.1 L 586.9,866.4 L 585.0,869.3 L 580.4,875.7 L 577.6,879.6 L 574.4,884.2 L 571.0,888.9 L 568.5,892.1 L 566.8,894.1 L 564.9,896.3 L 563.4,897.8 L 562.0,899.1 L 560.2,900.6 L 559.1,901.5 L 557.8,902.5 L 556.4,903.6 L 554.6,904.8 L 552.4,905.8 L 549.8,907.0 L 547.7,907.8 L 545.3,908.5 L 543.1,909.1 L 540.1,909.6 L 538.0,909.8 L 536.0,909.9 L 534.2,910.0 L 531.8,910.0 L 528.2,909.7 L 525.5,909.2 L 523.0,908.5 L 520.5,907.7 L 518.1,906.8 L 515.5,905.7 L 512.5,904.2 L 510.2,902.7 L 508.0,901.2 L 506.6,900.1 L 505.3,898.9 L 503.6,897.2 L 502.2,895.9 L 500.7,894.1 L 499.6,892.6 L 498.3,890.8 L 496.8,888.5 L 495.8,886.7 L 494.5,884.0 L 493.1,880.5 L 491.8,877.3 L 490.5,874.3 L 489.2,871.3 L 487.9,868.6 L 486.6,866.0 L 485.3,863.6 L 483.7,860.5 L 482.0,857.5 L 479.9,853.9 L 477.3,849.6 L 470.8,839.6 L 468.7,836.5 L 466.1,832.8 L 462.5,827.9 L 460.4,825.2 L 458.4,822.7 L 456.1,819.7 L 453.8,817.3 L 448.4,811.2 L 446.1,808.9 L 430.6,792.5 L 419.9,780.4 L 403.0,760.3 L 395.9,752.0 L 394.4,750.5 L 392.7,749.3 L 391.0,748.6 L 388.9,748.4 L 386.8,748.7 L 384.9,749.3 L 383.1,750.3 L 381.2,751.8 L 370.6,762.4 L 369.7,763.1 L 367.9,764.3 L 365.4,765.2 L 362.2,765.7 L 360.9,765.7 L 359.1,765.6 L 356.8,765.1 L 354.8,764.3 L 352.9,763.3 L 350.7,761.6 L 347.9,758.8 L 343.6,754.3 L 339.7,749.7 L 336.1,745.2 L 335.0,743.7 L 332.2,739.5 L 330.0,735.5 L 327.2,730.3 L 324.8,724.7 L 322.9,718.9 L 321.6,714.2 L 320.4,709.3 L 320.1,707.0 L 319.7,704.6 L 319.2,700.8 L 319.4,697.4 L 319.9,694.6 L 320.7,692.2 L 321.9,690.2 L 323.7,687.8 L 327.4,683.1 L 328.0,682.3 L 329.8,680.0 L 346.8,657.8 L 390.4,600.6 L 439.4,536.2 L 457.1,513.3 L 460.6,508.7 L 464.1,504.5 L 465.8,502.5 L 466.7,501.7 L 467.6,500.9 L 469.0,500.0 L 470.5,499.2 L 472.2,498.4 L 473.8,497.7 L 475.2,497.2 L 477.1,496.7 L 479.1,496.2 L 481.0,495.8 L 483.7,495.4 L 486.7,495.0 L 489.4,494.7 L 491.6,494.6 L 494.8,494.6 L 499.5,494.6 L 502.0,494.8 L 504.6,495.1 L 510.3,495.9 L 516.6,496.9 L 524.3,498.0 L 544.4,501.2 L 550.5,502.1 L 553.8,502.4 L 557.1,502.5 L 560.8,502.5 L 565.0,502.1 L 568.6,501.7 L 572.2,501.0 L 575.7,500.1 L 579.0,499.2 L 581.6,498.4 L 585.1,497.0 L 588.3,495.6 L 592.0,493.7 L 595.5,491.5 L 601.0,487.3 Z" fill="none" stroke="#1e9bd7" stroke-opacity="0.55" stroke-width="1.2" stroke-linejoin="round" filter="url(#glow)"/>
<circle cx="327.6" cy="682.8" r="13" fill="none" stroke="#ffffff" stroke-width="3"/>
<rect x="323.6" y="660.8" width="8" height="18" fill="#ffffff"/>
<circle cx="483.3" cy="498.5" r="7" fill="#1e9bd7" stroke="#0a0c12" stroke-width="2.5" filter="url(#glow)"/>
<text x="483.3" y="501.9" font-size="9" font-weight="700" fill="#0a0c12" text-anchor="middle">1</text>
<circle cx="578.6" cy="497.9" r="7" fill="#1e9bd7" stroke="#0a0c12" stroke-width="2.5" filter="url(#glow)"/>
<text x="578.6" y="501.3" font-size="9" font-weight="700" fill="#0a0c12" text-anchor="middle">2</text>
<circle cx="680.0" cy="433.6" r="7" fill="#1e9bd7" stroke="#0a0c12" stroke-width="2.5" filter="url(#glow)"/>
<text x="680.0" y="437.0" font-size="9" font-weight="700" fill="#0a0c12" text-anchor="middle">3</text>
<circle cx="718.0" cy="477.5" r="7" fill="#1e9bd7" stroke="#0a0c12" stroke-width="2.5" filter="url(#glow)"/>
<text x="718.0" y="480.9" font-size="9" font-weight="700" fill="#0a0c12" text-anchor="middle">4</text>
<circle cx="738.5" cy="411.5" r="7" fill="#1e9bd7" stroke="#0a0c12" stroke-width="2.5" filter="url(#glow)"/>
<text x="738.5" y="414.9" font-size="9" font-weight="700" fill="#0a0c12" text-anchor="middle">5</text>
<circle cx="490.3" cy="187.0" r="7" fill="#1e9bd7" stroke="#0a0c12" stroke-width="2.5" filter="url(#glow)"/>
<text x="490.3" y="190.4" font-size="9" font-weight="700" fill="#0a0c12" text-anchor="middle">6</text>
<circle cx="423.9" cy="244.2" r="7" fill="#1e9bd7" stroke="#0a0c12" stroke-width="2.5" filter="url(#glow)"/>
<text x="423.9" y="247.6" font-size="9" font-weight="700" fill="#0a0c12" text-anchor="middle">7</text>
<circle cx="478.4" cy="126.2" r="7" fill="#1e9bd7" stroke="#0a0c12" stroke-width="2.5" filter="url(#glow)"/>
<text x="478.4" y="129.6" font-size="9" font-weight="700" fill="#0a0c12" text-anchor="middle">8</text>
<circle cx="732.8" cy="104.5" r="7" fill="#1e9bd7" stroke="#0a0c12" stroke-width="2.5" filter="url(#glow)"/>
<text x="732.8" y="107.9" font-size="9" font-weight="700" fill="#0a0c12" text-anchor="middle">9</text>
<circle cx="793.6" cy="362.6" r="7" fill="#1e9bd7" stroke="#0a0c12" stroke-width="2.5" filter="url(#glow)"/>
<text x="793.6" y="366.0" font-size="9" font-weight="700" fill="#0a0c12" text-anchor="middle">10</text>
<circle cx="793.6" cy="362.6" r="7" fill="#1e9bd7" stroke="#0a0c12" stroke-width="2.5" filter="url(#glow)"/>
<text x="793.6" y="366.0" font-size="9" font-weight="700" fill="#0a0c12" text-anchor="middle">11</text>
<circle cx="788.6" cy="455.6" r="7" fill="#1e9bd7" stroke="#0a0c12" stroke-width="2.5" filter="url(#glow)"/>
<text x="788.6" y="459.0" font-size="9" font-weight="700" fill="#0a0c12" text-anchor="middle">12</text>
<circle cx="788.6" cy="455.6" r="7" fill="#1e9bd7" stroke="#0a0c12" stroke-width="2.5" filter="url(#glow)"/>
<text x="788.6" y="459.0" font-size="9" font-weight="700" fill="#0a0c12" text-anchor="middle">13</text>
<circle cx="804.9" cy="519.4" r="7" fill="#1e9bd7" stroke="#0a0c12" stroke-width="2.5" filter="url(#glow)"/>
<text x="804.9" y="522.8" font-size="9" font-weight="700" fill="#0a0c12" text-anchor="middle">14</text>
<circle cx="529.8" cy="900.3" r="7" fill="#1e9bd7" stroke="#0a0c12" stroke-width="2.5" filter="url(#glow)"/>
<text x="529.8" y="903.7" font-size="9" font-weight="700" fill="#0a0c12" text-anchor="middle">15</text>
<circle cx="385.4" cy="752.2" r="7" fill="#1e9bd7" stroke="#0a0c12" stroke-width="2.5" filter="url(#glow)"/>
<text x="385.4" y="755.6" font-size="9" font-weight="700" fill="#0a0c12" text-anchor="middle">16</text>
<circle cx="385.4" cy="752.2" r="7" fill="#1e9bd7" stroke="#0a0c12" stroke-width="2.5" filter="url(#glow)"/>
<text x="385.4" y="755.6" font-size="9" font-weight="700" fill="#0a0c12" text-anchor="middle">17</text>
<circle cx="337.3" cy="730.0" r="7" fill="#1e9bd7" stroke="#0a0c12" stroke-width="2.5" filter="url(#glow)"/>
<text x="337.3" y="733.4" font-size="9" font-weight="700" fill="#0a0c12" text-anchor="middle">18</text>
<line x1="483.3" y1="498.5" x2="433.4" y2="512.9" stroke="#1e9bd7" stroke-opacity="0.45" stroke-width="1.3"/>
<text x="425.4" y="516.9" font-size="15" font-weight="600" fill="#eef2fb" text-anchor="end">Abbey</text>
<line x1="578.6" y1="497.9" x2="559.5" y2="546.2" stroke="#1e9bd7" stroke-opacity="0.45" stroke-width="1.3"/>
<text x="551.5" y="550.2" font-size="15" font-weight="600" fill="#eef2fb" text-anchor="end">Abbey / Farm</text>
<line x1="718.0" y1="477.5" x2="769.8" y2="482.5" stroke="#1e9bd7" stroke-opacity="0.45" stroke-width="1.3"/>
<text x="777.8" y="486.5" font-size="15" font-weight="600" fill="#eef2fb" text-anchor="start">Arena</text>
<line x1="490.3" y1="187.0" x2="472.8" y2="192.0" stroke="#1e9bd7" stroke-opacity="0.45" stroke-width="1.3"/>
<text x="464.8" y="196.0" font-size="15" font-weight="600" fill="#eef2fb" text-anchor="end">Brooklands</text>
<line x1="423.9" y1="244.2" x2="392.8" y2="222.0" stroke="#1e9bd7" stroke-opacity="0.45" stroke-width="1.3"/>
<text x="384.8" y="226.0" font-size="15" font-weight="600" fill="#eef2fb" text-anchor="end">Luffield</text>
<line x1="478.4" y1="126.2" x2="462.1" y2="162.0" stroke="#1e9bd7" stroke-opacity="0.45" stroke-width="1.3"/>
<text x="454.1" y="166.0" font-size="15" font-weight="600" fill="#eef2fb" text-anchor="end">Woodcote</text>
<line x1="732.8" y1="104.5" x2="751.8" y2="56.1" stroke="#1e9bd7" stroke-opacity="0.45" stroke-width="1.3"/>
<text x="759.8" y="60.1" font-size="15" font-weight="600" fill="#eef2fb" text-anchor="start">Copse</text>
<line x1="788.6" y1="455.6" x2="840.5" y2="452.5" stroke="#1e9bd7" stroke-opacity="0.45" stroke-width="1.3"/>
<text x="848.5" y="456.5" font-size="15" font-weight="600" fill="#eef2fb" text-anchor="start">Maggotts-Becketts-Chapel</text>
<line x1="804.9" y1="519.4" x2="855.4" y2="531.6" stroke="#1e9bd7" stroke-opacity="0.45" stroke-width="1.3"/>
<text x="863.4" y="535.6" font-size="15" font-weight="600" fill="#eef2fb" text-anchor="start">Maggotts / Becketts / Chapel</text>
<line x1="529.8" y1="900.3" x2="522.6" y2="951.8" stroke="#1e9bd7" stroke-opacity="0.45" stroke-width="1.3"/>
<text x="514.6" y="955.8" font-size="15" font-weight="600" fill="#eef2fb" text-anchor="end">Stowe</text>
<line x1="385.4" y1="752.2" x2="355.0" y2="797.4" stroke="#1e9bd7" stroke-opacity="0.45" stroke-width="1.3"/>
<text x="347.0" y="801.4" font-size="15" font-weight="600" fill="#eef2fb" text-anchor="end">Vale</text>
<line x1="337.3" y1="730.0" x2="301.2" y2="767.4" stroke="#1e9bd7" stroke-opacity="0.45" stroke-width="1.3"/>
<text x="293.2" y="771.4" font-size="15" font-weight="600" fill="#eef2fb" text-anchor="end">Club</text>
<text x="90" y="64" font-size="20" letter-spacing="5" fill="#1e9bd7" font-weight="700">TRACK ATLAS</text>
<text x="90" y="108" font-size="42" font-weight="800" fill="#ffffff">SILVERSTONE CIRCUIT</text>
<text x="90" y="136" font-size="16" fill="#9aa6bd">Silverstone, The Home of British Motor Racing</text>
<rect x="1170" y="200" width="360" height="710" rx="16" fill="#ffffff" fill-opacity="0.04" stroke="#1e9bd7" stroke-opacity="0.5"/>
<text x="1198" y="250" font-size="13" letter-spacing="2" fill="#8794ab">LAYOUT</text>
<text x="1198" y="276" font-size="22" font-weight="700" fill="#eef2fb">Grand Prix Circuit</text>
<text x="1198" y="320" font-size="13" letter-spacing="2" fill="#8794ab">LENGTH</text>
<text x="1198" y="346" font-size="22" font-weight="700" fill="#eef2fb">5.891 km</text>
<text x="1198" y="390" font-size="13" letter-spacing="2" fill="#8794ab">CORNERS</text>
<text x="1198" y="416" font-size="22" font-weight="700" fill="#eef2fb">18</text>
<text x="1198" y="460" font-size="13" letter-spacing="2" fill="#8794ab">NAMED CORNERS</text>
<text x="1198" y="486" font-size="22" font-weight="700" fill="#eef2fb">18</text>
<text x="1198" y="530" font-size="13" letter-spacing="2" fill="#8794ab">DIRECTION</text>
<text x="1198" y="556" font-size="22" font-weight="700" fill="#eef2fb">Clockwise</text>
<text x="1198" y="600" font-size="13" letter-spacing="2" fill="#8794ab">SECTORS</text>
<text x="1198" y="626" font-size="22" font-weight="700" fill="#eef2fb">3</text>
<text x="1198" y="670" font-size="13" letter-spacing="2" fill="#8794ab">COUNTRY</text>
<text x="1198" y="696" font-size="22" font-weight="700" fill="#eef2fb">United Kingdom</text>
<text x="1198" y="740" font-size="13" letter-spacing="2" fill="#8794ab">LOCATION</text>
<text x="1198" y="766" font-size="22" font-weight="700" fill="#eef2fb">Silverstone, Northamptonshire</text>
<text x="1198" y="810" font-size="13" letter-spacing="2" fill="#8794ab">COMPLEXES</text>
<rect x="1198" y="816" width="110" height="24" rx="12" fill="#1e9bd7" fill-opacity="0.16" stroke="#1e9bd7" stroke-opacity="0.5"/>
<text x="1253" y="833" font-size="12" fill="#eef2fb" text-anchor="middle">Abbey / Farm</text>
<rect x="1318" y="816" width="54" height="24" rx="12" fill="#1e9bd7" fill-opacity="0.16" stroke="#1e9bd7" stroke-opacity="0.5"/>
<text x="1345" y="833" font-size="12" fill="#eef2fb" text-anchor="middle">Arena</text>
<rect x="1198" y="850" width="206" height="24" rx="12" fill="#1e9bd7" fill-opacity="0.16" stroke="#1e9bd7" stroke-opacity="0.5"/>
<text x="1301" y="867" font-size="12" fill="#eef2fb" text-anchor="middle">Maggotts-Becketts-Chapel</text>
<rect x="1198" y="884" width="238" height="24" rx="12" fill="#1e9bd7" fill-opacity="0.16" stroke="#1e9bd7" stroke-opacity="0.5"/>
<text x="1317" y="901" font-size="12" fill="#eef2fb" text-anchor="middle">Maggotts / Becketts / Chapel</text>
<rect x="1446" y="884" width="46" height="24" rx="12" fill="#1e9bd7" fill-opacity="0.16" stroke="#1e9bd7" stroke-opacity="0.5"/>
<text x="1469" y="901" font-size="12" fill="#eef2fb" text-anchor="middle">Vale</text>
<text x="90" y="966" font-size="12" fill="#566177">Geometry © OpenStreetMap contributors (ODbL) · corner data: Lovely-Sim-Racing + curated · track-atlas</text>
<text x="90" y="942" font-size="12" fill="#8794ab">⚑ start / finish</text>
</svg>