<svg xmlns="http://www.w3.org/2000/svg" width="1600" height="1000" viewBox="0 0 1600 1000" font-family="Helvetica, Arial, sans-serif">
<defs>
      <radialGradient id="bg" cx="38%" cy="34%" r="85%">
        <stop offset="0%" stop-color="#1b2030"/>
        <stop offset="55%" stop-color="#12151f"/>
        <stop offset="100%" stop-color="#0a0c12"/>
      </radialGradient>
      <linearGradient id="accent" x1="0" y1="0" x2="1" y2="1">
        <stop offset="0%" stop-color="#1e9bd7"/>
        <stop offset="100%" stop-color="#ffffff"/>
      </linearGradient>
      <filter id="glow" x="-40%" y="-40%" width="180%" height="180%">
        <feGaussianBlur stdDeviation="6" result="b"/>
        <feMerge><feMergeNode in="b"/><feMergeNode in="SourceGraphic"/></feMerge>
      </filter>
    </defs>
<rect width="1600" height="1000" fill="url(#bg)"/>
<line x1="0" y1="0" x2="0" y2="1000" stroke="#ffffff" stroke-opacity="0.025"/>
<line x1="56" y1="0" x2="56" y2="1000" stroke="#ffffff" stroke-opacity="0.025"/>
<line x1="112" y1="0" x2="112" y2="1000" stroke="#ffffff" stroke-opacity="0.025"/>
<line x1="168" y1="0" x2="168" y2="1000" stroke="#ffffff" stroke-opacity="0.025"/>
<line x1="224" y1="0" x2="224" y2="1000" stroke="#ffffff" stroke-opacity="0.025"/>
<line x1="280" y1="0" x2="280" y2="1000" stroke="#ffffff" stroke-opacity="0.025"/>
<line x1="336" y1="0" x2="336" y2="1000" stroke="#ffffff" stroke-opacity="0.025"/>
<line x1="392" y1="0" x2="392" y2="1000" stroke="#ffffff" stroke-opacity="0.025"/>
<line x1="448" y1="0" x2="448" y2="1000" stroke="#ffffff" stroke-opacity="0.025"/>
<line x1="504" y1="0" x2="504" y2="1000" stroke="#ffffff" stroke-opacity="0.025"/>
<line x1="560" y1="0" x2="560" y2="1000" stroke="#ffffff" stroke-opacity="0.025"/>
<line x1="616" y1="0" x2="616" y2="1000" stroke="#ffffff" stroke-opacity="0.025"/>
<line x1="672" y1="0" x2="672" y2="1000" stroke="#ffffff" stroke-opacity="0.025"/>
<line x1="728" y1="0" x2="728" y2="1000" stroke="#ffffff" stroke-opacity="0.025"/>
<line x1="784" y1="0" x2="784" y2="1000" stroke="#ffffff" stroke-opacity="0.025"/>
<line x1="840" y1="0" x2="840" y2="1000" stroke="#ffffff" stroke-opacity="0.025"/>
<line x1="896" y1="0" x2="896" y2="1000" stroke="#ffffff" stroke-opacity="0.025"/>
<line x1="952" y1="0" x2="952" y2="1000" stroke="#ffffff" stroke-opacity="0.025"/>
<line x1="1008" y1="0" x2="1008" y2="1000" stroke="#ffffff" stroke-opacity="0.025"/>
<line x1="1064" y1="0" x2="1064" y2="1000" stroke="#ffffff" stroke-opacity="0.025"/>
<line x1="1120" y1="0" x2="1120" y2="1000" stroke="#ffffff" stroke-opacity="0.025"/>
<line x1="1176" y1="0" x2="1176" y2="1000" stroke="#ffffff" stroke-opacity="0.025"/>
<line x1="1232" y1="0" x2="1232" y2="1000" stroke="#ffffff" stroke-opacity="0.025"/>
<line x1="1288" y1="0" x2="1288" y2="1000" stroke="#ffffff" stroke-opacity="0.025"/>
<line x1="1344" y1="0" x2="1344" y2="1000" stroke="#ffffff" stroke-opacity="0.025"/>
<line x1="1400" y1="0" x2="1400" y2="1000" stroke="#ffffff" stroke-opacity="0.025"/>
<line x1="1456" y1="0" x2="1456" y2="1000" stroke="#ffffff" stroke-opacity="0.025"/>
<line x1="1512" y1="0" x2="1512" y2="1000" stroke="#ffffff" stroke-opacity="0.025"/>
<line x1="1568" y1="0" x2="1568" y2="1000" stroke="#ffffff" stroke-opacity="0.025"/>
<line x1="0" y1="0" x2="1600" y2="0" stroke="#ffffff" stroke-opacity="0.025"/>
<line x1="0" y1="56" x2="1600" y2="56" stroke="#ffffff" stroke-opacity="0.025"/>
<line x1="0" y1="112" x2="1600" y2="112" stroke="#ffffff" stroke-opacity="0.025"/>
<line x1="0" y1="168" x2="1600" y2="168" stroke="#ffffff" stroke-opacity="0.025"/>
<line x1="0" y1="224" x2="1600" y2="224" stroke="#ffffff" stroke-opacity="0.025"/>
<line x1="0" y1="280" x2="1600" y2="280" stroke="#ffffff" stroke-opacity="0.025"/>
<line x1="0" y1="336" x2="1600" y2="336" stroke="#ffffff" stroke-opacity="0.025"/>
<line x1="0" y1="392" x2="1600" y2="392" stroke="#ffffff" stroke-opacity="0.025"/>
<line x1="0" y1="448" x2="1600" y2="448" stroke="#ffffff" stroke-opacity="0.025"/>
<line x1="0" y1="504" x2="1600" y2="504" stroke="#ffffff" stroke-opacity="0.025"/>
<line x1="0" y1="560" x2="1600" y2="560" stroke="#ffffff" stroke-opacity="0.025"/>
<line x1="0" y1="616" x2="1600" y2="616" stroke="#ffffff" stroke-opacity="0.025"/>
<line x1="0" y1="672" x2="1600" y2="672" stroke="#ffffff" stroke-opacity="0.025"/>
<line x1="0" y1="728" x2="1600" y2="728" stroke="#ffffff" stroke-opacity="0.025"/>
<line x1="0" y1="784" x2="1600" y2="784" stroke="#ffffff" stroke-opacity="0.025"/>
<line x1="0" y1="840" x2="1600" y2="840" stroke="#ffffff" stroke-opacity="0.025"/>
<line x1="0" y1="896" x2="1600" y2="896" stroke="#ffffff" stroke-opacity="0.025"/>
<line x1="0" y1="952" x2="1600" y2="952" stroke="#ffffff" stroke-opacity="0.025"/>
<path d="M 474.5,496.0 C 516.0,456.1 538.9,506.5 572.7,495.3 C 606.5,484.2 653.3,432.6 677.2,429.1 C 701.2,425.6 706.3,478.2 716.4,474.4 C 726.4,470.6 776.6,456.2 737.5,406.3 C 698.4,356.4 535.8,203.8 481.7,175.0 C 427.7,146.3 415.4,244.3 413.3,233.9 C 411.3,223.4 416.4,136.3 469.4,112.3 C 522.5,88.3 677.5,49.4 731.6,90.0 C 785.8,130.6 783.8,311.6 794.3,355.9 C 804.7,400.2 795.1,339.9 794.3,355.9 C 793.4,371.9 790.0,435.8 789.1,451.8 C 788.2,467.8 786.3,440.8 789.1,451.8 C 791.9,462.7 850.4,441.1 805.9,517.5 C 761.5,593.8 594.5,870.0 522.5,910.0 C 450.4,950.0 398.4,782.9 373.6,757.5 C 348.8,732.0 381.9,761.3 373.6,757.5 C 365.4,753.6 307.3,778.1 324.1,734.5 C 340.9,690.9 433.1,535.9 474.5,496.0 Z" fill="none" stroke="#000000" stroke-opacity="0.5" stroke-width="22" stroke-linejoin="round"/>
<path d="M 474.5,496.0 C 516.0,456.1 538.9,506.5 572.7,495.3 C 606.5,484.2 653.3,432.6 677.2,429.1 C 701.2,425.6 706.3,478.2 716.4,474.4 C 726.4,470.6 776.6,456.2 737.5,406.3 C 698.4,356.4 535.8,203.8 481.7,175.0 C 427.7,146.3 415.4,244.3 413.3,233.9 C 411.3,223.4 416.4,136.3 469.4,112.3 C 522.5,88.3 677.5,49.4 731.6,90.0 C 785.8,130.6 783.8,311.6 794.3,355.9 C 804.7,400.2 795.1,339.9 794.3,355.9 C 793.4,371.9 790.0,435.8 789.1,451.8 C 788.2,467.8 786.3,440.8 789.1,451.8 C 791.9,462.7 850.4,441.1 805.9,517.5 C 761.5,593.8 594.5,870.0 522.5,910.0 C 450.4,950.0 398.4,782.9 373.6,757.5 C 348.8,732.0 381.9,761.3 373.6,757.5 C 365.4,753.6 307.3,778.1 324.1,734.5 C 340.9,690.9 433.1,535.9 474.5,496.0 Z" fill="none" stroke="#39404f" stroke-width="16" stroke-linejoin="round"/>
<path d="M 474.5,496.0 C 516.0,456.1 538.9,506.5 572.7,495.3 C 606.5,484.2 653.3,432.6 677.2,429.1 C 701.2,425.6 706.3,478.2 716.4,474.4 C 726.4,470.6 776.6,456.2 737.5,406.3 C 698.4,356.4 535.8,203.8 481.7,175.0 C 427.7,146.3 415.4,244.3 413.3,233.9 C 411.3,223.4 416.4,136.3 469.4,112.3 C 522.5,88.3 677.5,49.4 731.6,90.0 C 785.8,130.6 783.8,311.6 794.3,355.9 C 804.7,400.2 795.1,339.9 794.3,355.9 C 793.4,371.9 790.0,435.8 789.1,451.8 C 788.2,467.8 786.3,440.8 789.1,451.8 C 791.9,462.7 850.4,441.1 805.9,517.5 C 761.5,593.8 594.5,870.0 522.5,910.0 C 450.4,950.0 398.4,782.9 373.6,757.5 C 348.8,732.0 381.9,761.3 373.6,757.5 C 365.4,753.6 307.3,778.1 324.1,734.5 C 340.9,690.9 433.1,535.9 474.5,496.0 Z" fill="none" stroke="#e7edf8" stroke-width="3.5" stroke-linejoin="round"/>
<path d="M 474.5,496.0 C 516.0,456.1 538.9,506.5 572.7,495.3 C 606.5,484.2 653.3,432.6 677.2,429.1 C 701.2,425.6 706.3,478.2 716.4,474.4 C 726.4,470.6 776.6,456.2 737.5,406.3 C 698.4,356.4 535.8,203.8 481.7,175.0 C 427.7,146.3 415.4,244.3 413.3,233.9 C 411.3,223.4 416.4,136.3 469.4,112.3 C 522.5,88.3 677.5,49.4 731.6,90.0 C 785.8,130.6 783.8,311.6 794.3,355.9 C 804.7,400.2 795.1,339.9 794.3,355.9 C 793.4,371.9 790.0,435.8 789.1,451.8 C 788.2,467.8 786.3,440.8 789.1,451.8 C 791.9,462.7 850.4,441.1 805.9,517.5 C 761.5,593.8 594.5,870.0 522.5,910.0 C 450.4,950.0 398.4,782.9 373.6,757.5 C 348.8,732.0 381.9,761.3 373.6,757.5 C 365.4,753.6 307.3,778.1 324.1,734.5 C 340.9,690.9 433.1,535.9 474.5,496.0 Z" fill="none" stroke="#1e9bd7" stroke-opacity="0.5" stroke-width="1.5" stroke-linejoin="round" filter="url(#glow)"/>
<circle cx="474.5" cy="496.0" r="13" fill="none" stroke="#ffffff" stroke-width="3"/>
<rect x="470.5" y="474.0" width="8" height="18" fill="#ffffff"/>
<circle cx="474.5" cy="496.0" r="7" fill="#1e9bd7" stroke="#0a0c12" stroke-width="2.5" filter="url(#glow)"/>
<text x="474.5" y="499.4" font-size="9" font-weight="700" fill="#0a0c12" text-anchor="middle">1</text>
<circle cx="572.7" cy="495.3" r="7" fill="#1e9bd7" stroke="#0a0c12" stroke-width="2.5" filter="url(#glow)"/>
<text x="572.7" y="498.7" font-size="9" font-weight="700" fill="#0a0c12" text-anchor="middle">2</text>
<circle cx="677.2" cy="429.1" r="7" fill="#1e9bd7" stroke="#0a0c12" stroke-width="2.5" filter="url(#glow)"/>
<text x="677.2" y="432.5" font-size="9" font-weight="700" fill="#0a0c12" text-anchor="middle">3</text>
<circle cx="716.4" cy="474.4" r="7" fill="#1e9bd7" stroke="#0a0c12" stroke-width="2.5" filter="url(#glow)"/>
<text x="716.4" y="477.8" font-size="9" font-weight="700" fill="#0a0c12" text-anchor="middle">4</text>
<circle cx="737.5" cy="406.3" r="7" fill="#1e9bd7" stroke="#0a0c12" stroke-width="2.5" filter="url(#glow)"/>
<text x="737.5" y="409.7" font-size="9" font-weight="700" fill="#0a0c12" text-anchor="middle">5</text>
<circle cx="481.7" cy="175.0" r="7" fill="#1e9bd7" stroke="#0a0c12" stroke-width="2.5" filter="url(#glow)"/>
<text x="481.7" y="178.4" font-size="9" font-weight="700" fill="#0a0c12" text-anchor="middle">6</text>
<circle cx="413.3" cy="233.9" r="7" fill="#1e9bd7" stroke="#0a0c12" stroke-width="2.5" filter="url(#glow)"/>
<text x="413.3" y="237.3" font-size="9" font-weight="700" fill="#0a0c12" text-anchor="middle">7</text>
<circle cx="469.4" cy="112.3" r="7" fill="#1e9bd7" stroke="#0a0c12" stroke-width="2.5" filter="url(#glow)"/>
<text x="469.4" y="115.7" font-size="9" font-weight="700" fill="#0a0c12" text-anchor="middle">8</text>
<circle cx="731.6" cy="90.0" r="7" fill="#1e9bd7" stroke="#0a0c12" stroke-width="2.5" filter="url(#glow)"/>
<text x="731.6" y="93.4" font-size="9" font-weight="700" fill="#0a0c12" text-anchor="middle">9</text>
<circle cx="794.3" cy="355.9" r="7" fill="#1e9bd7" stroke="#0a0c12" stroke-width="2.5" filter="url(#glow)"/>
<text x="794.3" y="359.3" font-size="9" font-weight="700" fill="#0a0c12" text-anchor="middle">10</text>
<circle cx="794.3" cy="355.9" r="7" fill="#1e9bd7" stroke="#0a0c12" stroke-width="2.5" filter="url(#glow)"/>
<text x="794.3" y="359.3" font-size="9" font-weight="700" fill="#0a0c12" text-anchor="middle">11</text>
<circle cx="789.1" cy="451.8" r="7" fill="#1e9bd7" stroke="#0a0c12" stroke-width="2.5" filter="url(#glow)"/>
<text x="789.1" y="455.2" font-size="9" font-weight="700" fill="#0a0c12" text-anchor="middle">12</text>
<circle cx="789.1" cy="451.8" r="7" fill="#1e9bd7" stroke="#0a0c12" stroke-width="2.5" filter="url(#glow)"/>
<text x="789.1" y="455.2" font-size="9" font-weight="700" fill="#0a0c12" text-anchor="middle">13</text>
<circle cx="805.9" cy="517.5" r="7" fill="#1e9bd7" stroke="#0a0c12" stroke-width="2.5" filter="url(#glow)"/>
<text x="805.9" y="520.9" font-size="9" font-weight="700" fill="#0a0c12" text-anchor="middle">14</text>
<circle cx="522.5" cy="910.0" r="7" fill="#1e9bd7" stroke="#0a0c12" stroke-width="2.5" filter="url(#glow)"/>
<text x="522.5" y="913.4" font-size="9" font-weight="700" fill="#0a0c12" text-anchor="middle">15</text>
<circle cx="373.6" cy="757.5" r="7" fill="#1e9bd7" stroke="#0a0c12" stroke-width="2.5" filter="url(#glow)"/>
<text x="373.6" y="760.9" font-size="9" font-weight="700" fill="#0a0c12" text-anchor="middle">16</text>
<circle cx="373.6" cy="757.5" r="7" fill="#1e9bd7" stroke="#0a0c12" stroke-width="2.5" filter="url(#glow)"/>
<text x="373.6" y="760.9" font-size="9" font-weight="700" fill="#0a0c12" text-anchor="middle">17</text>
<circle cx="324.1" cy="734.5" r="7" fill="#1e9bd7" stroke="#0a0c12" stroke-width="2.5" filter="url(#glow)"/>
<text x="324.1" y="737.9" font-size="9" font-weight="700" fill="#0a0c12" text-anchor="middle">18</text>
<line x1="474.5" y1="496.0" x2="424.9" y2="511.6" stroke="#1e9bd7" stroke-opacity="0.45" stroke-width="1.3"/>
<text x="416.9" y="515.6" font-size="15" font-weight="600" fill="#eef2fb" text-anchor="end">Abbey</text>
<line x1="572.7" y1="495.3" x2="541.6" y2="541.6" stroke="#1e9bd7" stroke-opacity="0.45" stroke-width="1.3"/>
<text x="533.6" y="545.6" font-size="15" font-weight="600" fill="#eef2fb" text-anchor="end">Abbey / Farm</text>
<line x1="716.4" y1="474.4" x2="767.7" y2="482.7" stroke="#1e9bd7" stroke-opacity="0.45" stroke-width="1.3"/>
<text x="775.7" y="486.7" font-size="15" font-weight="600" fill="#eef2fb" text-anchor="start">Village / The Loop / Aintree</text>
<line x1="481.7" y1="175.0" x2="461.2" y2="192.0" stroke="#1e9bd7" stroke-opacity="0.45" stroke-width="1.3"/>
<text x="453.2" y="196.0" font-size="15" font-weight="600" fill="#eef2fb" text-anchor="end">Brooklands</text>
<line x1="413.3" y1="233.9" x2="379.6" y2="222.0" stroke="#1e9bd7" stroke-opacity="0.45" stroke-width="1.3"/>
<text x="371.6" y="226.0" font-size="15" font-weight="600" fill="#eef2fb" text-anchor="end">Luffield</text>
<line x1="469.4" y1="112.3" x2="450.7" y2="162.0" stroke="#1e9bd7" stroke-opacity="0.45" stroke-width="1.3"/>
<text x="442.7" y="166.0" font-size="15" font-weight="600" fill="#eef2fb" text-anchor="end">Woodcote</text>
<line x1="731.6" y1="90.0" x2="749.0" y2="41.0" stroke="#1e9bd7" stroke-opacity="0.45" stroke-width="1.3"/>
<text x="757.0" y="45.0" font-size="15" font-weight="600" fill="#eef2fb" text-anchor="start">Copse</text>
<line x1="789.1" y1="451.8" x2="841.1" y2="450.7" stroke="#1e9bd7" stroke-opacity="0.45" stroke-width="1.3"/>
<text x="849.1" y="454.7" font-size="15" font-weight="600" fill="#eef2fb" text-anchor="start">Maggotts / Becketts / Chapel</text>
<line x1="522.5" y1="910.0" x2="513.5" y2="961.2" stroke="#1e9bd7" stroke-opacity="0.45" stroke-width="1.3"/>
<text x="505.5" y="965.2" font-size="15" font-weight="600" fill="#eef2fb" text-anchor="end">Stowe</text>
<line x1="373.6" y1="757.5" x2="342.2" y2="801.3" stroke="#1e9bd7" stroke-opacity="0.45" stroke-width="1.3"/>
<text x="334.2" y="805.3" font-size="15" font-weight="600" fill="#eef2fb" text-anchor="end">Vale</text>
<line x1="324.1" y1="734.5" x2="287.3" y2="771.3" stroke="#1e9bd7" stroke-opacity="0.45" stroke-width="1.3"/>
<text x="279.3" y="775.3" font-size="15" font-weight="600" fill="#eef2fb" text-anchor="end">Club</text>
<text x="90" y="64" font-size="20" letter-spacing="5" fill="#1e9bd7" font-weight="700">TRACK ATLAS</text>
<text x="90" y="108" font-size="42" font-weight="800" fill="#ffffff">SILVERSTONE CIRCUIT</text>
<text x="90" y="136" font-size="16" fill="#9aa6bd">Silverstone, The Home of British Motor Racing</text>
<rect x="1170" y="200" width="360" height="710" rx="16" fill="#ffffff" fill-opacity="0.04" stroke="#1e9bd7" stroke-opacity="0.5"/>
<text x="1198" y="250" font-size="13" letter-spacing="2" fill="#8794ab">LAYOUT</text>
<text x="1198" y="276" font-size="22" font-weight="700" fill="#eef2fb">Grand Prix Circuit</text>
<text x="1198" y="320" font-size="13" letter-spacing="2" fill="#8794ab">LENGTH</text>
<text x="1198" y="346" font-size="22" font-weight="700" fill="#eef2fb">5.891 km</text>
<text x="1198" y="390" font-size="13" letter-spacing="2" fill="#8794ab">CORNERS</text>
<text x="1198" y="416" font-size="22" font-weight="700" fill="#eef2fb">18</text>
<text x="1198" y="460" font-size="13" letter-spacing="2" fill="#8794ab">NAMED CORNERS</text>
<text x="1198" y="486" font-size="22" font-weight="700" fill="#eef2fb">18</text>
<text x="1198" y="530" font-size="13" letter-spacing="2" fill="#8794ab">DIRECTION</text>
<text x="1198" y="556" font-size="22" font-weight="700" fill="#eef2fb">Clockwise</text>
<text x="1198" y="600" font-size="13" letter-spacing="2" fill="#8794ab">SECTORS</text>
<text x="1198" y="626" font-size="22" font-weight="700" fill="#eef2fb">3</text>
<text x="1198" y="670" font-size="13" letter-spacing="2" fill="#8794ab">COUNTRY</text>
<text x="1198" y="696" font-size="22" font-weight="700" fill="#eef2fb">United Kingdom</text>
<text x="1198" y="740" font-size="13" letter-spacing="2" fill="#8794ab">LOCATION</text>
<text x="1198" y="766" font-size="22" font-weight="700" fill="#eef2fb">Silverstone, Northamptonshire</text>
<text x="1198" y="810" font-size="13" letter-spacing="2" fill="#8794ab">COMPLEXES</text>
<rect x="1198" y="816" width="110" height="24" rx="12" fill="#1e9bd7" fill-opacity="0.16" stroke="#1e9bd7" stroke-opacity="0.5"/>
<text x="1253" y="833" font-size="12" fill="#eef2fb" text-anchor="middle">Abbey / Farm</text>
<rect x="1198" y="850" width="238" height="24" rx="12" fill="#1e9bd7" fill-opacity="0.16" stroke="#1e9bd7" stroke-opacity="0.5"/>
<text x="1317" y="867" font-size="12" fill="#eef2fb" text-anchor="middle">Village / The Loop / Aintree</text>
<rect x="1198" y="884" width="238" height="24" rx="12" fill="#1e9bd7" fill-opacity="0.16" stroke="#1e9bd7" stroke-opacity="0.5"/>
<text x="1317" y="901" font-size="12" fill="#eef2fb" text-anchor="middle">Maggotts / Becketts / Chapel</text>
<rect x="1446" y="884" width="46" height="24" rx="12" fill="#1e9bd7" fill-opacity="0.16" stroke="#1e9bd7" stroke-opacity="0.5"/>
<text x="1469" y="901" font-size="12" fill="#eef2fb" text-anchor="middle">Vale</text>
<text x="90" y="966" font-size="12" fill="#566177">Geometry © OpenStreetMap contributors (ODbL) · corner data: Lovely-Sim-Racing + curated · track-atlas</text>
<text x="90" y="942" font-size="12" fill="#8794ab">⚑ start / finish</text>
</svg>