<svg xmlns="http://www.w3.org/2000/svg" width="1600" height="1000" viewBox="0 0 1600 1000" font-family="Helvetica, Arial, sans-serif">
<defs>
      <radialGradient id="bg" cx="38%" cy="34%" r="85%">
        <stop offset="0%" stop-color="#1b2030"/>
        <stop offset="55%" stop-color="#12151f"/>
        <stop offset="100%" stop-color="#0a0c12"/>
      </radialGradient>
      <linearGradient id="accent" x1="0" y1="0" x2="1" y2="1">
        <stop offset="0%" stop-color="#ff5a36"/>
        <stop offset="100%" stop-color="#ffffff"/>
      </linearGradient>
      <filter id="glow" x="-40%" y="-40%" width="180%" height="180%">
        <feGaussianBlur stdDeviation="6" result="b"/>
        <feMerge><feMergeNode in="b"/><feMergeNode in="SourceGraphic"/></feMerge>
      </filter>
    </defs>
<rect width="1600" height="1000" fill="url(#bg)"/>
<line x1="0" y1="0" x2="0" y2="1000" stroke="#ffffff" stroke-opacity="0.025"/>
<line x1="56" y1="0" x2="56" y2="1000" stroke="#ffffff" stroke-opacity="0.025"/>
<line x1="112" y1="0" x2="112" y2="1000" stroke="#ffffff" stroke-opacity="0.025"/>
<line x1="168" y1="0" x2="168" y2="1000" stroke="#ffffff" stroke-opacity="0.025"/>
<line x1="224" y1="0" x2="224" y2="1000" stroke="#ffffff" stroke-opacity="0.025"/>
<line x1="280" y1="0" x2="280" y2="1000" stroke="#ffffff" stroke-opacity="0.025"/>
<line x1="336" y1="0" x2="336" y2="1000" stroke="#ffffff" stroke-opacity="0.025"/>
<line x1="392" y1="0" x2="392" y2="1000" stroke="#ffffff" stroke-opacity="0.025"/>
<line x1="448" y1="0" x2="448" y2="1000" stroke="#ffffff" stroke-opacity="0.025"/>
<line x1="504" y1="0" x2="504" y2="1000" stroke="#ffffff" stroke-opacity="0.025"/>
<line x1="560" y1="0" x2="560" y2="1000" stroke="#ffffff" stroke-opacity="0.025"/>
<line x1="616" y1="0" x2="616" y2="1000" stroke="#ffffff" stroke-opacity="0.025"/>
<line x1="672" y1="0" x2="672" y2="1000" stroke="#ffffff" stroke-opacity="0.025"/>
<line x1="728" y1="0" x2="728" y2="1000" stroke="#ffffff" stroke-opacity="0.025"/>
<line x1="784" y1="0" x2="784" y2="1000" stroke="#ffffff" stroke-opacity="0.025"/>
<line x1="840" y1="0" x2="840" y2="1000" stroke="#ffffff" stroke-opacity="0.025"/>
<line x1="896" y1="0" x2="896" y2="1000" stroke="#ffffff" stroke-opacity="0.025"/>
<line x1="952" y1="0" x2="952" y2="1000" stroke="#ffffff" stroke-opacity="0.025"/>
<line x1="1008" y1="0" x2="1008" y2="1000" stroke="#ffffff" stroke-opacity="0.025"/>
<line x1="1064" y1="0" x2="1064" y2="1000" stroke="#ffffff" stroke-opacity="0.025"/>
<line x1="1120" y1="0" x2="1120" y2="1000" stroke="#ffffff" stroke-opacity="0.025"/>
<line x1="1176" y1="0" x2="1176" y2="1000" stroke="#ffffff" stroke-opacity="0.025"/>
<line x1="1232" y1="0" x2="1232" y2="1000" stroke="#ffffff" stroke-opacity="0.025"/>
<line x1="1288" y1="0" x2="1288" y2="1000" stroke="#ffffff" stroke-opacity="0.025"/>
<line x1="1344" y1="0" x2="1344" y2="1000" stroke="#ffffff" stroke-opacity="0.025"/>
<line x1="1400" y1="0" x2="1400" y2="1000" stroke="#ffffff" stroke-opacity="0.025"/>
<line x1="1456" y1="0" x2="1456" y2="1000" stroke="#ffffff" stroke-opacity="0.025"/>
<line x1="1512" y1="0" x2="1512" y2="1000" stroke="#ffffff" stroke-opacity="0.025"/>
<line x1="1568" y1="0" x2="1568" y2="1000" stroke="#ffffff" stroke-opacity="0.025"/>
<line x1="0" y1="0" x2="1600" y2="0" stroke="#ffffff" stroke-opacity="0.025"/>
<line x1="0" y1="56" x2="1600" y2="56" stroke="#ffffff" stroke-opacity="0.025"/>
<line x1="0" y1="112" x2="1600" y2="112" stroke="#ffffff" stroke-opacity="0.025"/>
<line x1="0" y1="168" x2="1600" y2="168" stroke="#ffffff" stroke-opacity="0.025"/>
<line x1="0" y1="224" x2="1600" y2="224" stroke="#ffffff" stroke-opacity="0.025"/>
<line x1="0" y1="280" x2="1600" y2="280" stroke="#ffffff" stroke-opacity="0.025"/>
<line x1="0" y1="336" x2="1600" y2="336" stroke="#ffffff" stroke-opacity="0.025"/>
<line x1="0" y1="392" x2="1600" y2="392" stroke="#ffffff" stroke-opacity="0.025"/>
<line x1="0" y1="448" x2="1600" y2="448" stroke="#ffffff" stroke-opacity="0.025"/>
<line x1="0" y1="504" x2="1600" y2="504" stroke="#ffffff" stroke-opacity="0.025"/>
<line x1="0" y1="560" x2="1600" y2="560" stroke="#ffffff" stroke-opacity="0.025"/>
<line x1="0" y1="616" x2="1600" y2="616" stroke="#ffffff" stroke-opacity="0.025"/>
<line x1="0" y1="672" x2="1600" y2="672" stroke="#ffffff" stroke-opacity="0.025"/>
<line x1="0" y1="728" x2="1600" y2="728" stroke="#ffffff" stroke-opacity="0.025"/>
<line x1="0" y1="784" x2="1600" y2="784" stroke="#ffffff" stroke-opacity="0.025"/>
<line x1="0" y1="840" x2="1600" y2="840" stroke="#ffffff" stroke-opacity="0.025"/>
<line x1="0" y1="896" x2="1600" y2="896" stroke="#ffffff" stroke-opacity="0.025"/>
<line x1="0" y1="952" x2="1600" y2="952" stroke="#ffffff" stroke-opacity="0.025"/>
<path d="M 921.8,646.4 L 973.4,648.3 L 997.2,649.5 L 1001.7,649.1 L 1004.4,648.1 L 1006.6,646.0 L 1010.1,641.7 L 1035.5,601.9 L 1038.7,595.6 L 1040.0,587.8 L 1039.2,576.8 L 1032.3,517.7 L 1021.9,427.8 L 995.9,254.0 L 995.5,247.7 L 994.2,239.9 L 991.2,235.8 L 986.0,233.2 L 978.9,233.1 L 972.5,233.6 L 963.5,232.9 L 954.0,230.0 L 936.8,221.2 L 935.4,219.2 L 932.0,213.5 L 928.9,207.1 L 924.6,202.0 L 919.6,199.3 L 913.9,198.0 L 908.5,198.0 L 903.5,199.5 L 898.0,203.9 L 895.1,207.8 L 891.8,212.7 L 888.6,219.6 L 888.3,223.8 L 887.5,234.4 L 885.6,258.2 L 886.2,269.1 L 887.1,274.1 L 888.1,279.9 L 891.7,290.3 L 898.8,305.9 L 912.8,344.1 L 918.4,361.3 L 920.3,370.1 L 925.4,401.6 L 926.0,409.3 L 926.7,419.5 L 926.5,427.5 L 925.4,433.5 L 922.3,439.5 L 919.3,444.0 L 916.2,446.8 L 909.5,451.8 L 899.2,456.3 L 885.7,459.8 L 863.9,455.8 L 832.3,453.6 L 824.9,453.6 L 802.5,453.4 L 787.4,453.8 L 782.5,454.2 L 775.1,454.3 L 769.3,453.9 L 742.1,450.4 L 718.4,449.0 L 715.9,448.8 L 708.7,448.4 L 692.5,447.4 L 685.6,447.0 L 668.8,446.0 L 661.3,445.6 L 653.7,444.9 L 642.5,443.8 L 627.3,441.2 L 624.7,440.2 L 619.6,438.5 L 607.0,433.7 L 591.2,424.7 L 587.2,422.3 L 585.9,421.5 L 573.4,414.3 L 571.4,413.2 L 560.2,406.7 L 559.3,406.2 L 548.2,399.8 L 545.1,398.0 L 512.2,379.4 L 508.1,377.0 L 500.5,372.4 L 494.2,368.7 L 485.6,363.6 L 459.7,348.4 L 437.9,336.1 L 420.5,326.3 L 409.2,319.8 L 395.1,343.3 L 379.3,368.9 L 370.6,384.3 L 355.0,414.0 L 343.7,435.6 L 342.0,439.3 L 339.3,445.5 L 331.2,437.3 L 324.0,430.0 L 310.2,416.5 L 299.4,404.8 L 283.3,388.5 L 282.6,387.8 L 271.2,376.4 L 270.6,375.8 L 260.9,369.5 L 248.3,361.3 L 239.5,363.4 L 232.0,367.6 L 221.5,376.9 L 212.7,393.0 L 209.2,399.5 L 202.5,411.7 L 176.5,457.8 L 168.5,472.3 L 161.4,485.1 L 160.1,487.4 L 154.1,498.1 L 111.0,575.6 L 104.7,587.0 L 99.0,597.2 L 91.7,610.9 L 90.4,614.2 L 90.0,617.8 L 103.8,628.3 L 120.4,640.6 L 132.8,649.1 L 135.9,651.1 L 147.6,661.0 L 151.1,663.7 L 155.0,668.3 L 155.9,670.2 L 157.7,672.0 L 160.0,672.8 L 158.5,677.7 L 158.0,679.4 L 157.6,690.6 L 163.1,709.7 L 169.7,717.8 L 174.2,721.7 L 174.9,722.4 L 186.7,734.2 L 222.6,763.1 L 225.1,765.7 L 228.2,770.6 L 230.5,774.4 L 235.2,779.7 L 240.4,787.3 L 248.8,799.0 L 250.6,802.0 L 252.6,801.8 L 255.6,801.1 L 258.8,799.5 L 259.3,796.5 L 260.1,792.5 L 295.6,605.5 L 326.1,522.2 L 332.5,503.6 L 340.6,480.4 L 343.5,472.4 L 349.7,454.8 L 353.5,458.1 L 365.0,467.7 L 366.4,468.9 L 382.0,482.4 L 407.2,504.1 L 412.3,508.4 L 422.0,516.8 L 425.0,519.4 L 435.0,528.0 L 443.2,535.0 L 447.9,539.0 L 455.2,545.7 L 462.2,552.2 L 464.3,553.6 L 470.7,557.8 L 476.1,560.4 L 479.6,562.1 L 486.3,564.3 L 494.3,566.6 L 502.9,567.9 L 513.9,569.3 L 517.6,569.4 L 519.4,569.5 L 528.5,570.0 L 530.4,570.1 L 537.2,570.5 L 550.4,571.2 L 574.0,572.4 L 589.7,573.2 L 612.5,574.5 L 623.1,575.0 L 631.0,575.4 L 654.3,576.7 L 678.5,577.8 L 690.1,578.5 L 712.3,579.8 L 737.4,581.1 L 757.6,582.2 L 775.3,583.1 L 778.3,583.3 L 786.3,583.7 L 795.0,584.2 L 802.5,588.4 L 806.5,592.6 L 807.6,597.2 L 807.6,608.4 L 807.7,614.4 L 809.1,620.2 L 811.6,626.3 L 815.8,631.5 L 822.1,635.2 L 829.4,636.9 L 848.0,639.0 L 856.1,639.9 L 917.0,646.1 L 921.8,646.4 Z" fill="none" stroke="#000000" stroke-opacity="0.5" stroke-width="13" stroke-linejoin="round" stroke-linecap="round"/>
<path d="M 921.8,646.4 L 973.4,648.3 L 997.2,649.5 L 1001.7,649.1 L 1004.4,648.1 L 1006.6,646.0 L 1010.1,641.7 L 1035.5,601.9 L 1038.7,595.6 L 1040.0,587.8 L 1039.2,576.8 L 1032.3,517.7 L 1021.9,427.8 L 995.9,254.0 L 995.5,247.7 L 994.2,239.9 L 991.2,235.8 L 986.0,233.2 L 978.9,233.1 L 972.5,233.6 L 963.5,232.9 L 954.0,230.0 L 936.8,221.2 L 935.4,219.2 L 932.0,213.5 L 928.9,207.1 L 924.6,202.0 L 919.6,199.3 L 913.9,198.0 L 908.5,198.0 L 903.5,199.5 L 898.0,203.9 L 895.1,207.8 L 891.8,212.7 L 888.6,219.6 L 888.3,223.8 L 887.5,234.4 L 885.6,258.2 L 886.2,269.1 L 887.1,274.1 L 888.1,279.9 L 891.7,290.3 L 898.8,305.9 L 912.8,344.1 L 918.4,361.3 L 920.3,370.1 L 925.4,401.6 L 926.0,409.3 L 926.7,419.5 L 926.5,427.5 L 925.4,433.5 L 922.3,439.5 L 919.3,444.0 L 916.2,446.8 L 909.5,451.8 L 899.2,456.3 L 885.7,459.8 L 863.9,455.8 L 832.3,453.6 L 824.9,453.6 L 802.5,453.4 L 787.4,453.8 L 782.5,454.2 L 775.1,454.3 L 769.3,453.9 L 742.1,450.4 L 718.4,449.0 L 715.9,448.8 L 708.7,448.4 L 692.5,447.4 L 685.6,447.0 L 668.8,446.0 L 661.3,445.6 L 653.7,444.9 L 642.5,443.8 L 627.3,441.2 L 624.7,440.2 L 619.6,438.5 L 607.0,433.7 L 591.2,424.7 L 587.2,422.3 L 585.9,421.5 L 573.4,414.3 L 571.4,413.2 L 560.2,406.7 L 559.3,406.2 L 548.2,399.8 L 545.1,398.0 L 512.2,379.4 L 508.1,377.0 L 500.5,372.4 L 494.2,368.7 L 485.6,363.6 L 459.7,348.4 L 437.9,336.1 L 420.5,326.3 L 409.2,319.8 L 395.1,343.3 L 379.3,368.9 L 370.6,384.3 L 355.0,414.0 L 343.7,435.6 L 342.0,439.3 L 339.3,445.5 L 331.2,437.3 L 324.0,430.0 L 310.2,416.5 L 299.4,404.8 L 283.3,388.5 L 282.6,387.8 L 271.2,376.4 L 270.6,375.8 L 260.9,369.5 L 248.3,361.3 L 239.5,363.4 L 232.0,367.6 L 221.5,376.9 L 212.7,393.0 L 209.2,399.5 L 202.5,411.7 L 176.5,457.8 L 168.5,472.3 L 161.4,485.1 L 160.1,487.4 L 154.1,498.1 L 111.0,575.6 L 104.7,587.0 L 99.0,597.2 L 91.7,610.9 L 90.4,614.2 L 90.0,617.8 L 103.8,628.3 L 120.4,640.6 L 132.8,649.1 L 135.9,651.1 L 147.6,661.0 L 151.1,663.7 L 155.0,668.3 L 155.9,670.2 L 157.7,672.0 L 160.0,672.8 L 158.5,677.7 L 158.0,679.4 L 157.6,690.6 L 163.1,709.7 L 169.7,717.8 L 174.2,721.7 L 174.9,722.4 L 186.7,734.2 L 222.6,763.1 L 225.1,765.7 L 228.2,770.6 L 230.5,774.4 L 235.2,779.7 L 240.4,787.3 L 248.8,799.0 L 250.6,802.0 L 252.6,801.8 L 255.6,801.1 L 258.8,799.5 L 259.3,796.5 L 260.1,792.5 L 295.6,605.5 L 326.1,522.2 L 332.5,503.6 L 340.6,480.4 L 343.5,472.4 L 349.7,454.8 L 353.5,458.1 L 365.0,467.7 L 366.4,468.9 L 382.0,482.4 L 407.2,504.1 L 412.3,508.4 L 422.0,516.8 L 425.0,519.4 L 435.0,528.0 L 443.2,535.0 L 447.9,539.0 L 455.2,545.7 L 462.2,552.2 L 464.3,553.6 L 470.7,557.8 L 476.1,560.4 L 479.6,562.1 L 486.3,564.3 L 494.3,566.6 L 502.9,567.9 L 513.9,569.3 L 517.6,569.4 L 519.4,569.5 L 528.5,570.0 L 530.4,570.1 L 537.2,570.5 L 550.4,571.2 L 574.0,572.4 L 589.7,573.2 L 612.5,574.5 L 623.1,575.0 L 631.0,575.4 L 654.3,576.7 L 678.5,577.8 L 690.1,578.5 L 712.3,579.8 L 737.4,581.1 L 757.6,582.2 L 775.3,583.1 L 778.3,583.3 L 786.3,583.7 L 795.0,584.2 L 802.5,588.4 L 806.5,592.6 L 807.6,597.2 L 807.6,608.4 L 807.7,614.4 L 809.1,620.2 L 811.6,626.3 L 815.8,631.5 L 822.1,635.2 L 829.4,636.9 L 848.0,639.0 L 856.1,639.9 L 917.0,646.1 L 921.8,646.4 Z" fill="none" stroke="#39404f" stroke-width="8.5" stroke-linejoin="round" stroke-linecap="round"/>
<path d="M 921.8,646.4 L 973.4,648.3 L 997.2,649.5 L 1001.7,649.1 L 1004.4,648.1 L 1006.6,646.0 L 1010.1,641.7 L 1035.5,601.9 L 1038.7,595.6 L 1040.0,587.8 L 1039.2,576.8 L 1032.3,517.7 L 1021.9,427.8 L 995.9,254.0 L 995.5,247.7 L 994.2,239.9 L 991.2,235.8 L 986.0,233.2 L 978.9,233.1 L 972.5,233.6 L 963.5,232.9 L 954.0,230.0 L 936.8,221.2 L 935.4,219.2 L 932.0,213.5 L 928.9,207.1 L 924.6,202.0 L 919.6,199.3 L 913.9,198.0 L 908.5,198.0 L 903.5,199.5 L 898.0,203.9 L 895.1,207.8 L 891.8,212.7 L 888.6,219.6 L 888.3,223.8 L 887.5,234.4 L 885.6,258.2 L 886.2,269.1 L 887.1,274.1 L 888.1,279.9 L 891.7,290.3 L 898.8,305.9 L 912.8,344.1 L 918.4,361.3 L 920.3,370.1 L 925.4,401.6 L 926.0,409.3 L 926.7,419.5 L 926.5,427.5 L 925.4,433.5 L 922.3,439.5 L 919.3,444.0 L 916.2,446.8 L 909.5,451.8 L 899.2,456.3 L 885.7,459.8 L 863.9,455.8 L 832.3,453.6 L 824.9,453.6 L 802.5,453.4 L 787.4,453.8 L 782.5,454.2 L 775.1,454.3 L 769.3,453.9 L 742.1,450.4 L 718.4,449.0 L 715.9,448.8 L 708.7,448.4 L 692.5,447.4 L 685.6,447.0 L 668.8,446.0 L 661.3,445.6 L 653.7,444.9 L 642.5,443.8 L 627.3,441.2 L 624.7,440.2 L 619.6,438.5 L 607.0,433.7 L 591.2,424.7 L 587.2,422.3 L 585.9,421.5 L 573.4,414.3 L 571.4,413.2 L 560.2,406.7 L 559.3,406.2 L 548.2,399.8 L 545.1,398.0 L 512.2,379.4 L 508.1,377.0 L 500.5,372.4 L 494.2,368.7 L 485.6,363.6 L 459.7,348.4 L 437.9,336.1 L 420.5,326.3 L 409.2,319.8 L 395.1,343.3 L 379.3,368.9 L 370.6,384.3 L 355.0,414.0 L 343.7,435.6 L 342.0,439.3 L 339.3,445.5 L 331.2,437.3 L 324.0,430.0 L 310.2,416.5 L 299.4,404.8 L 283.3,388.5 L 282.6,387.8 L 271.2,376.4 L 270.6,375.8 L 260.9,369.5 L 248.3,361.3 L 239.5,363.4 L 232.0,367.6 L 221.5,376.9 L 212.7,393.0 L 209.2,399.5 L 202.5,411.7 L 176.5,457.8 L 168.5,472.3 L 161.4,485.1 L 160.1,487.4 L 154.1,498.1 L 111.0,575.6 L 104.7,587.0 L 99.0,597.2 L 91.7,610.9 L 90.4,614.2 L 90.0,617.8 L 103.8,628.3 L 120.4,640.6 L 132.8,649.1 L 135.9,651.1 L 147.6,661.0 L 151.1,663.7 L 155.0,668.3 L 155.9,670.2 L 157.7,672.0 L 160.0,672.8 L 158.5,677.7 L 158.0,679.4 L 157.6,690.6 L 163.1,709.7 L 169.7,717.8 L 174.2,721.7 L 174.9,722.4 L 186.7,734.2 L 222.6,763.1 L 225.1,765.7 L 228.2,770.6 L 230.5,774.4 L 235.2,779.7 L 240.4,787.3 L 248.8,799.0 L 250.6,802.0 L 252.6,801.8 L 255.6,801.1 L 258.8,799.5 L 259.3,796.5 L 260.1,792.5 L 295.6,605.5 L 326.1,522.2 L 332.5,503.6 L 340.6,480.4 L 343.5,472.4 L 349.7,454.8 L 353.5,458.1 L 365.0,467.7 L 366.4,468.9 L 382.0,482.4 L 407.2,504.1 L 412.3,508.4 L 422.0,516.8 L 425.0,519.4 L 435.0,528.0 L 443.2,535.0 L 447.9,539.0 L 455.2,545.7 L 462.2,552.2 L 464.3,553.6 L 470.7,557.8 L 476.1,560.4 L 479.6,562.1 L 486.3,564.3 L 494.3,566.6 L 502.9,567.9 L 513.9,569.3 L 517.6,569.4 L 519.4,569.5 L 528.5,570.0 L 530.4,570.1 L 537.2,570.5 L 550.4,571.2 L 574.0,572.4 L 589.7,573.2 L 612.5,574.5 L 623.1,575.0 L 631.0,575.4 L 654.3,576.7 L 678.5,577.8 L 690.1,578.5 L 712.3,579.8 L 737.4,581.1 L 757.6,582.2 L 775.3,583.1 L 778.3,583.3 L 786.3,583.7 L 795.0,584.2 L 802.5,588.4 L 806.5,592.6 L 807.6,597.2 L 807.6,608.4 L 807.7,614.4 L 809.1,620.2 L 811.6,626.3 L 815.8,631.5 L 822.1,635.2 L 829.4,636.9 L 848.0,639.0 L 856.1,639.9 L 917.0,646.1 L 921.8,646.4 Z" fill="none" stroke="#e7edf8" stroke-width="2.6" stroke-linejoin="round" stroke-linecap="round"/>
<path d="M 921.8,646.4 L 973.4,648.3 L 997.2,649.5 L 1001.7,649.1 L 1004.4,648.1 L 1006.6,646.0 L 1010.1,641.7 L 1035.5,601.9 L 1038.7,595.6 L 1040.0,587.8 L 1039.2,576.8 L 1032.3,517.7 L 1021.9,427.8 L 995.9,254.0 L 995.5,247.7 L 994.2,239.9 L 991.2,235.8 L 986.0,233.2 L 978.9,233.1 L 972.5,233.6 L 963.5,232.9 L 954.0,230.0 L 936.8,221.2 L 935.4,219.2 L 932.0,213.5 L 928.9,207.1 L 924.6,202.0 L 919.6,199.3 L 913.9,198.0 L 908.5,198.0 L 903.5,199.5 L 898.0,203.9 L 895.1,207.8 L 891.8,212.7 L 888.6,219.6 L 888.3,223.8 L 887.5,234.4 L 885.6,258.2 L 886.2,269.1 L 887.1,274.1 L 888.1,279.9 L 891.7,290.3 L 898.8,305.9 L 912.8,344.1 L 918.4,361.3 L 920.3,370.1 L 925.4,401.6 L 926.0,409.3 L 926.7,419.5 L 926.5,427.5 L 925.4,433.5 L 922.3,439.5 L 919.3,444.0 L 916.2,446.8 L 909.5,451.8 L 899.2,456.3 L 885.7,459.8 L 863.9,455.8 L 832.3,453.6 L 824.9,453.6 L 802.5,453.4 L 787.4,453.8 L 782.5,454.2 L 775.1,454.3 L 769.3,453.9 L 742.1,450.4 L 718.4,449.0 L 715.9,448.8 L 708.7,448.4 L 692.5,447.4 L 685.6,447.0 L 668.8,446.0 L 661.3,445.6 L 653.7,444.9 L 642.5,443.8 L 627.3,441.2 L 624.7,440.2 L 619.6,438.5 L 607.0,433.7 L 591.2,424.7 L 587.2,422.3 L 585.9,421.5 L 573.4,414.3 L 571.4,413.2 L 560.2,406.7 L 559.3,406.2 L 548.2,399.8 L 545.1,398.0 L 512.2,379.4 L 508.1,377.0 L 500.5,372.4 L 494.2,368.7 L 485.6,363.6 L 459.7,348.4 L 437.9,336.1 L 420.5,326.3 L 409.2,319.8 L 395.1,343.3 L 379.3,368.9 L 370.6,384.3 L 355.0,414.0 L 343.7,435.6 L 342.0,439.3 L 339.3,445.5 L 331.2,437.3 L 324.0,430.0 L 310.2,416.5 L 299.4,404.8 L 283.3,388.5 L 282.6,387.8 L 271.2,376.4 L 270.6,375.8 L 260.9,369.5 L 248.3,361.3 L 239.5,363.4 L 232.0,367.6 L 221.5,376.9 L 212.7,393.0 L 209.2,399.5 L 202.5,411.7 L 176.5,457.8 L 168.5,472.3 L 161.4,485.1 L 160.1,487.4 L 154.1,498.1 L 111.0,575.6 L 104.7,587.0 L 99.0,597.2 L 91.7,610.9 L 90.4,614.2 L 90.0,617.8 L 103.8,628.3 L 120.4,640.6 L 132.8,649.1 L 135.9,651.1 L 147.6,661.0 L 151.1,663.7 L 155.0,668.3 L 155.9,670.2 L 157.7,672.0 L 160.0,672.8 L 158.5,677.7 L 158.0,679.4 L 157.6,690.6 L 163.1,709.7 L 169.7,717.8 L 174.2,721.7 L 174.9,722.4 L 186.7,734.2 L 222.6,763.1 L 225.1,765.7 L 228.2,770.6 L 230.5,774.4 L 235.2,779.7 L 240.4,787.3 L 248.8,799.0 L 250.6,802.0 L 252.6,801.8 L 255.6,801.1 L 258.8,799.5 L 259.3,796.5 L 260.1,792.5 L 295.6,605.5 L 326.1,522.2 L 332.5,503.6 L 340.6,480.4 L 343.5,472.4 L 349.7,454.8 L 353.5,458.1 L 365.0,467.7 L 366.4,468.9 L 382.0,482.4 L 407.2,504.1 L 412.3,508.4 L 422.0,516.8 L 425.0,519.4 L 435.0,528.0 L 443.2,535.0 L 447.9,539.0 L 455.2,545.7 L 462.2,552.2 L 464.3,553.6 L 470.7,557.8 L 476.1,560.4 L 479.6,562.1 L 486.3,564.3 L 494.3,566.6 L 502.9,567.9 L 513.9,569.3 L 517.6,569.4 L 519.4,569.5 L 528.5,570.0 L 530.4,570.1 L 537.2,570.5 L 550.4,571.2 L 574.0,572.4 L 589.7,573.2 L 612.5,574.5 L 623.1,575.0 L 631.0,575.4 L 654.3,576.7 L 678.5,577.8 L 690.1,578.5 L 712.3,579.8 L 737.4,581.1 L 757.6,582.2 L 775.3,583.1 L 778.3,583.3 L 786.3,583.7 L 795.0,584.2 L 802.5,588.4 L 806.5,592.6 L 807.6,597.2 L 807.6,608.4 L 807.7,614.4 L 809.1,620.2 L 811.6,626.3 L 815.8,631.5 L 822.1,635.2 L 829.4,636.9 L 848.0,639.0 L 856.1,639.9 L 917.0,646.1 L 921.8,646.4 Z" fill="none" stroke="#ff5a36" stroke-opacity="0.55" stroke-width="1.2" stroke-linejoin="round" filter="url(#glow)"/>
<circle cx="921.8" cy="646.4" r="13" fill="none" stroke="#ffffff" stroke-width="3"/>
<rect x="917.8" y="624.4" width="8" height="18" fill="#ffffff"/>
<circle cx="1024.4" cy="449.3" r="7" fill="#ff5a36" stroke="#0a0c12" stroke-width="2.5" filter="url(#glow)"/>
<text x="1024.4" y="452.7" font-size="9" font-weight="700" fill="#0a0c12" text-anchor="middle">1</text>
<circle cx="1019.0" cy="408.5" r="7" fill="#ff5a36" stroke="#0a0c12" stroke-width="2.5" filter="url(#glow)"/>
<text x="1019.0" y="411.9" font-size="9" font-weight="700" fill="#0a0c12" text-anchor="middle">2</text>
<circle cx="1010.7" cy="353.4" r="7" fill="#ff5a36" stroke="#0a0c12" stroke-width="2.5" filter="url(#glow)"/>
<text x="1010.7" y="356.8" font-size="9" font-weight="700" fill="#0a0c12" text-anchor="middle">3</text>
<circle cx="998.6" cy="272.0" r="7" fill="#ff5a36" stroke="#0a0c12" stroke-width="2.5" filter="url(#glow)"/>
<text x="998.6" y="275.4" font-size="9" font-weight="700" fill="#0a0c12" text-anchor="middle">4</text>
<circle cx="887.5" cy="234.1" r="7" fill="#ff5a36" stroke="#0a0c12" stroke-width="2.5" filter="url(#glow)"/>
<text x="887.5" y="237.5" font-size="9" font-weight="700" fill="#0a0c12" text-anchor="middle">5</text>
<circle cx="826.7" cy="453.6" r="7" fill="#ff5a36" stroke="#0a0c12" stroke-width="2.5" filter="url(#glow)"/>
<text x="826.7" y="457.0" font-size="9" font-weight="700" fill="#0a0c12" text-anchor="middle">6</text>
<circle cx="593.3" cy="425.9" r="7" fill="#ff5a36" stroke="#0a0c12" stroke-width="2.5" filter="url(#glow)"/>
<text x="593.3" y="429.3" font-size="9" font-weight="700" fill="#0a0c12" text-anchor="middle">7</text>
<circle cx="471.6" cy="355.4" r="7" fill="#ff5a36" stroke="#0a0c12" stroke-width="2.5" filter="url(#glow)"/>
<text x="471.6" y="358.8" font-size="9" font-weight="700" fill="#0a0c12" text-anchor="middle">8</text>
<circle cx="380.9" cy="366.3" r="7" fill="#ff5a36" stroke="#0a0c12" stroke-width="2.5" filter="url(#glow)"/>
<text x="380.9" y="369.7" font-size="9" font-weight="700" fill="#0a0c12" text-anchor="middle">9</text>
<circle cx="202.6" cy="411.6" r="7" fill="#ff5a36" stroke="#0a0c12" stroke-width="2.5" filter="url(#glow)"/>
<text x="202.6" y="415.0" font-size="9" font-weight="700" fill="#0a0c12" text-anchor="middle">10</text>
<circle cx="157.2" cy="492.8" r="7" fill="#ff5a36" stroke="#0a0c12" stroke-width="2.5" filter="url(#glow)"/>
<text x="157.2" y="496.2" font-size="9" font-weight="700" fill="#0a0c12" text-anchor="middle">11</text>
<circle cx="130.3" cy="540.9" r="7" fill="#ff5a36" stroke="#0a0c12" stroke-width="2.5" filter="url(#glow)"/>
<text x="130.3" y="544.3" font-size="9" font-weight="700" fill="#0a0c12" text-anchor="middle">12</text>
<circle cx="126.8" cy="645.0" r="7" fill="#ff5a36" stroke="#0a0c12" stroke-width="2.5" filter="url(#glow)"/>
<text x="126.8" y="648.4" font-size="9" font-weight="700" fill="#0a0c12" text-anchor="middle">13</text>
<circle cx="284.5" cy="663.9" r="7" fill="#ff5a36" stroke="#0a0c12" stroke-width="2.5" filter="url(#glow)"/>
<text x="284.5" y="667.3" font-size="9" font-weight="700" fill="#0a0c12" text-anchor="middle">14</text>
<circle cx="332.3" cy="504.3" r="7" fill="#ff5a36" stroke="#0a0c12" stroke-width="2.5" filter="url(#glow)"/>
<text x="332.3" y="507.7" font-size="9" font-weight="700" fill="#0a0c12" text-anchor="middle">15</text>
<circle cx="581.9" cy="572.8" r="7" fill="#ff5a36" stroke="#0a0c12" stroke-width="2.5" filter="url(#glow)"/>
<text x="581.9" y="576.2" font-size="9" font-weight="700" fill="#0a0c12" text-anchor="middle">16</text>
<circle cx="621.1" cy="574.9" r="7" fill="#ff5a36" stroke="#0a0c12" stroke-width="2.5" filter="url(#glow)"/>
<text x="621.1" y="578.3" font-size="9" font-weight="700" fill="#0a0c12" text-anchor="middle">17</text>
<circle cx="807.6" cy="604.0" r="7" fill="#ff5a36" stroke="#0a0c12" stroke-width="2.5" filter="url(#glow)"/>
<text x="807.6" y="607.4" font-size="9" font-weight="700" fill="#0a0c12" text-anchor="middle">18</text>
<circle cx="851.6" cy="639.5" r="7" fill="#ff5a36" stroke="#0a0c12" stroke-width="2.5" filter="url(#glow)"/>
<text x="851.6" y="642.9" font-size="9" font-weight="700" fill="#0a0c12" text-anchor="middle">19</text>
<line x1="1024.4" y1="449.3" x2="1076.2" y2="444.6" stroke="#ff5a36" stroke-opacity="0.45" stroke-width="1.3"/>
<text x="1084.2" y="448.6" font-size="15" font-weight="600" fill="#eef2fb" text-anchor="start">Sheares</text>
<line x1="1019.0" y1="408.5" x2="1070.1" y2="405.1" stroke="#ff5a36" stroke-opacity="0.45" stroke-width="1.3"/>
<text x="1078.1" y="409.1" font-size="15" font-weight="600" fill="#eef2fb" text-anchor="start">T2</text>
<line x1="1010.7" y1="353.4" x2="1060.3" y2="337.7" stroke="#ff5a36" stroke-opacity="0.45" stroke-width="1.3"/>
<text x="1068.3" y="341.7" font-size="15" font-weight="600" fill="#eef2fb" text-anchor="start">T3</text>
<line x1="998.6" y1="272.0" x2="1044.8" y2="248.1" stroke="#ff5a36" stroke-opacity="0.45" stroke-width="1.3"/>
<text x="1052.8" y="252.1" font-size="15" font-weight="600" fill="#eef2fb" text-anchor="start">T4</text>
<line x1="887.5" y1="234.1" x2="927.5" y2="200.9" stroke="#ff5a36" stroke-opacity="0.45" stroke-width="1.3"/>
<text x="935.5" y="204.9" font-size="15" font-weight="600" fill="#eef2fb" text-anchor="start">T5</text>
<line x1="826.7" y1="453.6" x2="878.2" y2="474.6" stroke="#ff5a36" stroke-opacity="0.45" stroke-width="1.3"/>
<text x="886.2" y="478.6" font-size="15" font-weight="600" fill="#eef2fb" text-anchor="start">T6</text>
<line x1="593.3" y1="425.9" x2="604.4" y2="375.1" stroke="#ff5a36" stroke-opacity="0.45" stroke-width="1.3"/>
<text x="612.4" y="379.1" font-size="15" font-weight="600" fill="#eef2fb" text-anchor="start">Memorial</text>
<line x1="471.6" y1="355.4" x2="439.1" y2="314.8" stroke="#ff5a36" stroke-opacity="0.45" stroke-width="1.3"/>
<text x="431.1" y="318.8" font-size="15" font-weight="600" fill="#eef2fb" text-anchor="end">Stamford</text>
<line x1="380.9" y1="366.3" x2="336.7" y2="344.8" stroke="#ff5a36" stroke-opacity="0.45" stroke-width="1.3"/>
<text x="328.7" y="348.8" font-size="15" font-weight="600" fill="#eef2fb" text-anchor="end">Padang</text>
<line x1="202.6" y1="411.6" x2="151.7" y2="401.1" stroke="#ff5a36" stroke-opacity="0.45" stroke-width="1.3"/>
<text x="143.7" y="405.1" font-size="15" font-weight="600" fill="#eef2fb" text-anchor="end">Singapore Sling</text>
<line x1="157.2" y1="492.8" x2="105.2" y2="493.2" stroke="#ff5a36" stroke-opacity="0.45" stroke-width="1.3"/>
<text x="97.2" y="497.2" font-size="15" font-weight="600" fill="#eef2fb" text-anchor="end">T11</text>
<line x1="130.3" y1="540.9" x2="78.6" y2="553.2" stroke="#ff5a36" stroke-opacity="0.45" stroke-width="1.3"/>
<text x="70.6" y="557.2" font-size="15" font-weight="600" fill="#eef2fb" text-anchor="end">T12</text>
<line x1="126.8" y1="645.0" x2="77.6" y2="661.9" stroke="#ff5a36" stroke-opacity="0.45" stroke-width="1.3"/>
<text x="69.6" y="665.9" font-size="15" font-weight="600" fill="#eef2fb" text-anchor="end">T13</text>
<line x1="284.5" y1="663.9" x2="239.7" y2="691.9" stroke="#ff5a36" stroke-opacity="0.45" stroke-width="1.3"/>
<text x="231.7" y="695.9" font-size="15" font-weight="600" fill="#eef2fb" text-anchor="end">Connaught</text>
<line x1="332.3" y1="504.3" x2="280.4" y2="523.2" stroke="#ff5a36" stroke-opacity="0.45" stroke-width="1.3"/>
<text x="272.4" y="527.2" font-size="15" font-weight="600" fill="#eef2fb" text-anchor="end">T15</text>
<line x1="581.9" y1="572.8" x2="583.5" y2="651.6" stroke="#ff5a36" stroke-opacity="0.45" stroke-width="1.3"/>
<text x="591.5" y="655.6" font-size="15" font-weight="600" fill="#eef2fb" text-anchor="start">Anderson Bridge</text>
<line x1="621.1" y1="574.9" x2="643.9" y2="621.6" stroke="#ff5a36" stroke-opacity="0.45" stroke-width="1.3"/>
<text x="651.9" y="625.6" font-size="15" font-weight="600" fill="#eef2fb" text-anchor="start">Esplanade</text>
<line x1="807.6" y1="604.0" x2="854.1" y2="681.6" stroke="#ff5a36" stroke-opacity="0.45" stroke-width="1.3"/>
<text x="862.1" y="685.6" font-size="15" font-weight="600" fill="#eef2fb" text-anchor="start">Raffles Boulevard</text>
<line x1="851.6" y1="639.5" x2="897.2" y2="711.6" stroke="#ff5a36" stroke-opacity="0.45" stroke-width="1.3"/>
<text x="905.2" y="715.6" font-size="15" font-weight="600" fill="#eef2fb" text-anchor="start">T19</text>
<text x="90" y="64" font-size="20" letter-spacing="5" fill="#ff5a36" font-weight="700">TRACK ATLAS</text>
<text x="90" y="108" font-size="42" font-weight="800" fill="#ffffff">MARINA BAY STREET CIRCUIT</text>
<text x="90" y="136" font-size="16" fill="#9aa6bd">Singapore, Marina Bay</text>
<rect x="1170" y="200" width="360" height="710" rx="16" fill="#ffffff" fill-opacity="0.04" stroke="#ff5a36" stroke-opacity="0.5"/>
<text x="1198" y="250" font-size="13" letter-spacing="2" fill="#8794ab">LAYOUT</text>
<text x="1198" y="276" font-size="22" font-weight="700" fill="#eef2fb">Grand Prix Circuit</text>
<text x="1198" y="320" font-size="13" letter-spacing="2" fill="#8794ab">LENGTH</text>
<text x="1198" y="346" font-size="22" font-weight="700" fill="#eef2fb">4.940 km</text>
<text x="1198" y="390" font-size="13" letter-spacing="2" fill="#8794ab">CORNERS</text>
<text x="1198" y="416" font-size="22" font-weight="700" fill="#eef2fb">19</text>
<text x="1198" y="460" font-size="13" letter-spacing="2" fill="#8794ab">NAMED CORNERS</text>
<text x="1198" y="486" font-size="22" font-weight="700" fill="#eef2fb">19</text>
<text x="1198" y="530" font-size="13" letter-spacing="2" fill="#8794ab">DIRECTION</text>
<text x="1198" y="556" font-size="22" font-weight="700" fill="#eef2fb">Anticlockwise</text>
<text x="1198" y="600" font-size="13" letter-spacing="2" fill="#8794ab">SECTORS</text>
<text x="1198" y="626" font-size="22" font-weight="700" fill="#eef2fb">3</text>
<text x="1198" y="670" font-size="13" letter-spacing="2" fill="#8794ab">COUNTRY</text>
<text x="1198" y="696" font-size="22" font-weight="700" fill="#eef2fb">SG</text>
<text x="1198" y="740" font-size="13" letter-spacing="2" fill="#8794ab">LOCATION</text>
<text x="1198" y="766" font-size="22" font-weight="700" fill="#eef2fb">Singapore</text>
<text x="90" y="966" font-size="12" fill="#566177">Geometry © OpenStreetMap contributors (ODbL) · corner data: Lovely-Sim-Racing + curated · track-atlas</text>
<text x="90" y="942" font-size="12" fill="#8794ab">⚑ start / finish</text>
</svg>