<svg xmlns="http://www.w3.org/2000/svg" width="1600" height="1000" viewBox="0 0 1600 1000" font-family="Helvetica, Arial, sans-serif">
<defs>
      <radialGradient id="bg" cx="38%" cy="34%" r="85%">
        <stop offset="0%" stop-color="#1b2030"/>
        <stop offset="55%" stop-color="#12151f"/>
        <stop offset="100%" stop-color="#0a0c12"/>
      </radialGradient>
      <linearGradient id="accent" x1="0" y1="0" x2="1" y2="1">
        <stop offset="0%" stop-color="#ff5a36"/>
        <stop offset="100%" stop-color="#ffffff"/>
      </linearGradient>
      <filter id="glow" x="-40%" y="-40%" width="180%" height="180%">
        <feGaussianBlur stdDeviation="6" result="b"/>
        <feMerge><feMergeNode in="b"/><feMergeNode in="SourceGraphic"/></feMerge>
      </filter>
    </defs>
<rect width="1600" height="1000" fill="url(#bg)"/>
<path d="M 442.4,488.0 L 437.0,504.3 L 434.0,515.3 L 430.1,530.3 L 425.9,545.1 L 390.7,650.9 L 390.4,652.1 L 390.4,653.3 L 390.7,654.5 L 391.4,655.6 L 392.3,656.5 L 393.3,657.1 L 394.5,657.4 L 395.8,657.4 L 415.0,654.2 L 416.3,654.1 L 417.5,654.3 L 418.6,654.7 L 419.7,655.3 L 420.5,656.1 L 421.0,657.1 L 421.4,658.3 L 421.7,659.6 L 426.9,678.8 L 428.5,685.5 L 432.8,700.2 L 437.1,715.7 L 439.6,720.8 L 442.7,726.0 L 448.7,735.6 L 455.9,745.2 L 465.7,755.4 L 473.1,762.3 L 485.0,772.3 L 515.4,795.7 L 555.6,827.6 L 571.9,839.7 L 583.7,848.7 L 590.9,853.6 L 608.4,864.9 L 618.4,870.6 L 633.2,877.7 L 701.3,907.9 L 703.6,908.7 L 706.2,909.4 L 709.6,909.9 L 711.5,910.0 L 713.9,909.9 L 716.9,909.5 L 720.3,908.7 L 723.6,907.3 L 726.9,905.2 L 728.8,903.7 L 731.5,901.2 L 733.1,899.2 L 735.3,895.5 L 736.8,892.7 L 738.0,889.2 L 738.8,885.9 L 739.6,880.1 L 739.6,876.2 L 739.2,871.9 L 738.2,867.2 L 736.9,863.5 L 734.8,859.3 L 732.5,856.2 L 730.1,853.3 L 728.8,852.0 L 726.8,850.3 L 723.4,847.8 L 720.5,846.0 L 717.3,844.5 L 712.8,843.1 L 708.2,842.2 L 703.7,841.7 L 691.3,840.8 L 633.6,836.8 L 627.8,836.2 L 624.2,835.9 L 621.4,835.4 L 617.9,834.6 L 616.0,834.0 L 613.8,833.0 L 573.7,807.3 L 571.7,805.6 L 570.1,803.9 L 568.1,801.2 L 566.4,798.3 L 564.8,793.6 L 554.8,749.3 L 554.7,748.2 L 554.8,747.3 L 555.3,746.2 L 555.9,745.5 L 556.8,745.0 L 558.8,744.5 L 594.2,739.6 L 595.9,739.0 L 598.3,738.3 L 600.2,737.1 L 601.9,735.6 L 603.3,733.8 L 604.9,731.1 L 605.7,729.5 L 606.1,728.2 L 606.4,725.7 L 606.4,710.0 L 605.9,697.7 L 605.7,694.6 L 605.3,693.1 L 604.7,691.2 L 604.1,689.7 L 603.0,687.6 L 602.1,686.4 L 601.6,685.7 L 600.7,685.0 L 599.0,684.2 L 598.0,683.7 L 596.9,683.3 L 595.3,682.8 L 593.6,682.3 L 590.4,681.8 L 586.6,681.4 L 582.2,681.2 L 578.1,681.1 L 574.6,681.2 L 567.5,681.8 L 501.2,691.4 L 497.3,691.7 L 492.0,691.7 L 488.6,691.5 L 483.5,690.3 L 480.0,689.2 L 475.7,687.6 L 473.4,686.2 L 470.8,683.7 L 451.5,650.0 L 440.4,631.4 L 439.6,629.8 L 438.7,627.0 L 437.9,623.6 L 437.0,618.6 L 436.8,614.8 L 436.7,613.1 L 436.7,611.7 L 436.8,610.4 L 437.0,609.1 L 437.3,607.5 L 437.9,605.9 L 438.4,604.7 L 439.4,603.4 L 440.5,602.3 L 441.7,601.6 L 443.3,601.0 L 447.0,600.2 L 492.7,593.6 L 504.2,592.0 L 551.4,585.1 L 664.8,569.0 L 666.7,568.4 L 668.5,567.8 L 670.2,566.6 L 672.1,564.8 L 673.7,562.7 L 675.4,560.0 L 676.4,557.5 L 676.8,555.5 L 676.9,553.4 L 676.7,551.3 L 676.1,547.9 L 662.7,492.5 L 659.0,476.1 L 658.2,472.6 L 657.3,469.4 L 656.5,467.3 L 655.5,465.1 L 654.4,463.6 L 653.1,462.0 L 650.3,459.3 L 647.1,457.1 L 643.7,455.3 L 640.0,454.1 L 613.4,445.6 L 608.8,443.9 L 605.1,442.2 L 602.1,440.4 L 599.0,438.5 L 596.0,436.3 L 593.0,433.9 L 589.8,430.9 L 587.8,428.8 L 585.4,426.2 L 582.9,423.0 L 580.5,419.7 L 576.6,414.2 L 575.2,410.2 L 574.4,406.6 L 573.3,400.7 L 573.1,398.0 L 572.9,396.0 L 573.0,390.7 L 573.8,385.0 L 574.8,380.0 L 577.8,369.3 L 581.5,356.3 L 582.8,351.4 L 584.6,343.9 L 586.0,336.0 L 587.1,328.1 L 587.2,326.6 L 587.7,320.1 L 587.9,312.1 L 587.8,304.2 L 587.2,296.2 L 586.2,288.3 L 583.1,262.4 L 579.3,229.3 L 578.0,219.1 L 574.0,187.0 L 572.9,181.8 L 571.7,178.1 L 570.9,176.6 L 569.8,174.9 L 568.4,173.3 L 566.9,171.9 L 564.8,170.2 L 563.0,169.3 L 560.1,168.4 L 558.6,168.1 L 556.4,168.0 L 554.7,168.2 L 553.0,168.6 L 551.3,169.3 L 549.7,170.2 L 548.3,171.3 L 546.9,172.7 L 545.4,174.7 L 544.3,176.7 L 542.8,179.9 L 536.8,198.1 L 535.9,201.1 L 529.0,228.5 L 523.1,247.4 L 507.1,295.8 L 481.4,372.0 L 479.2,378.7 L 475.6,389.3 L 457.5,442.2 L 446.8,473.9 L 442.4,488.0 Z" fill="none" stroke="#000000" stroke-opacity="0.5" stroke-width="13" stroke-linejoin="round" stroke-linecap="round"/>
<path d="M 442.4,488.0 L 437.0,504.3 L 434.0,515.3 L 430.1,530.3 L 425.9,545.1 L 390.7,650.9 L 390.4,652.1 L 390.4,653.3 L 390.7,654.5 L 391.4,655.6 L 392.3,656.5 L 393.3,657.1 L 394.5,657.4 L 395.8,657.4 L 415.0,654.2 L 416.3,654.1 L 417.5,654.3 L 418.6,654.7 L 419.7,655.3 L 420.5,656.1 L 421.0,657.1 L 421.4,658.3 L 421.7,659.6 L 426.9,678.8 L 428.5,685.5 L 432.8,700.2 L 437.1,715.7 L 439.6,720.8 L 442.7,726.0 L 448.7,735.6 L 455.9,745.2 L 465.7,755.4 L 473.1,762.3 L 485.0,772.3 L 515.4,795.7 L 555.6,827.6 L 571.9,839.7 L 583.7,848.7 L 590.9,853.6 L 608.4,864.9 L 618.4,870.6 L 633.2,877.7 L 701.3,907.9 L 703.6,908.7 L 706.2,909.4 L 709.6,909.9 L 711.5,910.0 L 713.9,909.9 L 716.9,909.5 L 720.3,908.7 L 723.6,907.3 L 726.9,905.2 L 728.8,903.7 L 731.5,901.2 L 733.1,899.2 L 735.3,895.5 L 736.8,892.7 L 738.0,889.2 L 738.8,885.9 L 739.6,880.1 L 739.6,876.2 L 739.2,871.9 L 738.2,867.2 L 736.9,863.5 L 734.8,859.3 L 732.5,856.2 L 730.1,853.3 L 728.8,852.0 L 726.8,850.3 L 723.4,847.8 L 720.5,846.0 L 717.3,844.5 L 712.8,843.1 L 708.2,842.2 L 703.7,841.7 L 691.3,840.8 L 633.6,836.8 L 627.8,836.2 L 624.2,835.9 L 621.4,835.4 L 617.9,834.6 L 616.0,834.0 L 613.8,833.0 L 573.7,807.3 L 571.7,805.6 L 570.1,803.9 L 568.1,801.2 L 566.4,798.3 L 564.8,793.6 L 554.8,749.3 L 554.7,748.2 L 554.8,747.3 L 555.3,746.2 L 555.9,745.5 L 556.8,745.0 L 558.8,744.5 L 594.2,739.6 L 595.9,739.0 L 598.3,738.3 L 600.2,737.1 L 601.9,735.6 L 603.3,733.8 L 604.9,731.1 L 605.7,729.5 L 606.1,728.2 L 606.4,725.7 L 606.4,710.0 L 605.9,697.7 L 605.7,694.6 L 605.3,693.1 L 604.7,691.2 L 604.1,689.7 L 603.0,687.6 L 602.1,686.4 L 601.6,685.7 L 600.7,685.0 L 599.0,684.2 L 598.0,683.7 L 596.9,683.3 L 595.3,682.8 L 593.6,682.3 L 590.4,681.8 L 586.6,681.4 L 582.2,681.2 L 578.1,681.1 L 574.6,681.2 L 567.5,681.8 L 501.2,691.4 L 497.3,691.7 L 492.0,691.7 L 488.6,691.5 L 483.5,690.3 L 480.0,689.2 L 475.7,687.6 L 473.4,686.2 L 470.8,683.7 L 451.5,650.0 L 440.4,631.4 L 439.6,629.8 L 438.7,627.0 L 437.9,623.6 L 437.0,618.6 L 436.8,614.8 L 436.7,613.1 L 436.7,611.7 L 436.8,610.4 L 437.0,609.1 L 437.3,607.5 L 437.9,605.9 L 438.4,604.7 L 439.4,603.4 L 440.5,602.3 L 441.7,601.6 L 443.3,601.0 L 447.0,600.2 L 492.7,593.6 L 504.2,592.0 L 551.4,585.1 L 664.8,569.0 L 666.7,568.4 L 668.5,567.8 L 670.2,566.6 L 672.1,564.8 L 673.7,562.7 L 675.4,560.0 L 676.4,557.5 L 676.8,555.5 L 676.9,553.4 L 676.7,551.3 L 676.1,547.9 L 662.7,492.5 L 659.0,476.1 L 658.2,472.6 L 657.3,469.4 L 656.5,467.3 L 655.5,465.1 L 654.4,463.6 L 653.1,462.0 L 650.3,459.3 L 647.1,457.1 L 643.7,455.3 L 640.0,454.1 L 613.4,445.6 L 608.8,443.9 L 605.1,442.2 L 602.1,440.4 L 599.0,438.5 L 596.0,436.3 L 593.0,433.9 L 589.8,430.9 L 587.8,428.8 L 585.4,426.2 L 582.9,423.0 L 580.5,419.7 L 576.6,414.2 L 575.2,410.2 L 574.4,406.6 L 573.3,400.7 L 573.1,398.0 L 572.9,396.0 L 573.0,390.7 L 573.8,385.0 L 574.8,380.0 L 577.8,369.3 L 581.5,356.3 L 582.8,351.4 L 584.6,343.9 L 586.0,336.0 L 587.1,328.1 L 587.2,326.6 L 587.7,320.1 L 587.9,312.1 L 587.8,304.2 L 587.2,296.2 L 586.2,288.3 L 583.1,262.4 L 579.3,229.3 L 578.0,219.1 L 574.0,187.0 L 572.9,181.8 L 571.7,178.1 L 570.9,176.6 L 569.8,174.9 L 568.4,173.3 L 566.9,171.9 L 564.8,170.2 L 563.0,169.3 L 560.1,168.4 L 558.6,168.1 L 556.4,168.0 L 554.7,168.2 L 553.0,168.6 L 551.3,169.3 L 549.7,170.2 L 548.3,171.3 L 546.9,172.7 L 545.4,174.7 L 544.3,176.7 L 542.8,179.9 L 536.8,198.1 L 535.9,201.1 L 529.0,228.5 L 523.1,247.4 L 507.1,295.8 L 481.4,372.0 L 479.2,378.7 L 475.6,389.3 L 457.5,442.2 L 446.8,473.9 L 442.4,488.0 Z" fill="none" stroke="#39404f" stroke-width="8.5" stroke-linejoin="round" stroke-linecap="round"/>
<path d="M 442.4,488.0 L 437.0,504.3 L 434.0,515.3 L 430.1,530.3 L 425.9,545.1 L 390.7,650.9 L 390.4,652.1 L 390.4,653.3 L 390.7,654.5 L 391.4,655.6 L 392.3,656.5 L 393.3,657.1 L 394.5,657.4 L 395.8,657.4 L 415.0,654.2 L 416.3,654.1 L 417.5,654.3 L 418.6,654.7 L 419.7,655.3 L 420.5,656.1 L 421.0,657.1 L 421.4,658.3 L 421.7,659.6 L 426.9,678.8 L 428.5,685.5 L 432.8,700.2 L 437.1,715.7 L 439.6,720.8 L 442.7,726.0 L 448.7,735.6 L 455.9,745.2 L 465.7,755.4 L 473.1,762.3 L 485.0,772.3 L 515.4,795.7 L 555.6,827.6 L 571.9,839.7 L 583.7,848.7 L 590.9,853.6 L 608.4,864.9 L 618.4,870.6 L 633.2,877.7 L 701.3,907.9 L 703.6,908.7 L 706.2,909.4 L 709.6,909.9 L 711.5,910.0 L 713.9,909.9 L 716.9,909.5 L 720.3,908.7 L 723.6,907.3 L 726.9,905.2 L 728.8,903.7 L 731.5,901.2 L 733.1,899.2 L 735.3,895.5 L 736.8,892.7 L 738.0,889.2 L 738.8,885.9 L 739.6,880.1 L 739.6,876.2 L 739.2,871.9 L 738.2,867.2 L 736.9,863.5 L 734.8,859.3 L 732.5,856.2 L 730.1,853.3 L 728.8,852.0 L 726.8,850.3 L 723.4,847.8 L 720.5,846.0 L 717.3,844.5 L 712.8,843.1 L 708.2,842.2 L 703.7,841.7 L 691.3,840.8 L 633.6,836.8 L 627.8,836.2 L 624.2,835.9 L 621.4,835.4 L 617.9,834.6 L 616.0,834.0 L 613.8,833.0 L 573.7,807.3 L 571.7,805.6 L 570.1,803.9 L 568.1,801.2 L 566.4,798.3 L 564.8,793.6 L 554.8,749.3 L 554.7,748.2 L 554.8,747.3 L 555.3,746.2 L 555.9,745.5 L 556.8,745.0 L 558.8,744.5 L 594.2,739.6 L 595.9,739.0 L 598.3,738.3 L 600.2,737.1 L 601.9,735.6 L 603.3,733.8 L 604.9,731.1 L 605.7,729.5 L 606.1,728.2 L 606.4,725.7 L 606.4,710.0 L 605.9,697.7 L 605.7,694.6 L 605.3,693.1 L 604.7,691.2 L 604.1,689.7 L 603.0,687.6 L 602.1,686.4 L 601.6,685.7 L 600.7,685.0 L 599.0,684.2 L 598.0,683.7 L 596.9,683.3 L 595.3,682.8 L 593.6,682.3 L 590.4,681.8 L 586.6,681.4 L 582.2,681.2 L 578.1,681.1 L 574.6,681.2 L 567.5,681.8 L 501.2,691.4 L 497.3,691.7 L 492.0,691.7 L 488.6,691.5 L 483.5,690.3 L 480.0,689.2 L 475.7,687.6 L 473.4,686.2 L 470.8,683.7 L 451.5,650.0 L 440.4,631.4 L 439.6,629.8 L 438.7,627.0 L 437.9,623.6 L 437.0,618.6 L 436.8,614.8 L 436.7,613.1 L 436.7,611.7 L 436.8,610.4 L 437.0,609.1 L 437.3,607.5 L 437.9,605.9 L 438.4,604.7 L 439.4,603.4 L 440.5,602.3 L 441.7,601.6 L 443.3,601.0 L 447.0,600.2 L 492.7,593.6 L 504.2,592.0 L 551.4,585.1 L 664.8,569.0 L 666.7,568.4 L 668.5,567.8 L 670.2,566.6 L 672.1,564.8 L 673.7,562.7 L 675.4,560.0 L 676.4,557.5 L 676.8,555.5 L 676.9,553.4 L 676.7,551.3 L 676.1,547.9 L 662.7,492.5 L 659.0,476.1 L 658.2,472.6 L 657.3,469.4 L 656.5,467.3 L 655.5,465.1 L 654.4,463.6 L 653.1,462.0 L 650.3,459.3 L 647.1,457.1 L 643.7,455.3 L 640.0,454.1 L 613.4,445.6 L 608.8,443.9 L 605.1,442.2 L 602.1,440.4 L 599.0,438.5 L 596.0,436.3 L 593.0,433.9 L 589.8,430.9 L 587.8,428.8 L 585.4,426.2 L 582.9,423.0 L 580.5,419.7 L 576.6,414.2 L 575.2,410.2 L 574.4,406.6 L 573.3,400.7 L 573.1,398.0 L 572.9,396.0 L 573.0,390.7 L 573.8,385.0 L 574.8,380.0 L 577.8,369.3 L 581.5,356.3 L 582.8,351.4 L 584.6,343.9 L 586.0,336.0 L 587.1,328.1 L 587.2,326.6 L 587.7,320.1 L 587.9,312.1 L 587.8,304.2 L 587.2,296.2 L 586.2,288.3 L 583.1,262.4 L 579.3,229.3 L 578.0,219.1 L 574.0,187.0 L 572.9,181.8 L 571.7,178.1 L 570.9,176.6 L 569.8,174.9 L 568.4,173.3 L 566.9,171.9 L 564.8,170.2 L 563.0,169.3 L 560.1,168.4 L 558.6,168.1 L 556.4,168.0 L 554.7,168.2 L 553.0,168.6 L 551.3,169.3 L 549.7,170.2 L 548.3,171.3 L 546.9,172.7 L 545.4,174.7 L 544.3,176.7 L 542.8,179.9 L 536.8,198.1 L 535.9,201.1 L 529.0,228.5 L 523.1,247.4 L 507.1,295.8 L 481.4,372.0 L 479.2,378.7 L 475.6,389.3 L 457.5,442.2 L 446.8,473.9 L 442.4,488.0 Z" fill="none" stroke="#e7edf8" stroke-width="2.6" stroke-linejoin="round" stroke-linecap="round"/>
<path d="M 442.4,488.0 L 437.0,504.3 L 434.0,515.3 L 430.1,530.3 L 425.9,545.1 L 390.7,650.9 L 390.4,652.1 L 390.4,653.3 L 390.7,654.5 L 391.4,655.6 L 392.3,656.5 L 393.3,657.1 L 394.5,657.4 L 395.8,657.4 L 415.0,654.2 L 416.3,654.1 L 417.5,654.3 L 418.6,654.7 L 419.7,655.3 L 420.5,656.1 L 421.0,657.1 L 421.4,658.3 L 421.7,659.6 L 426.9,678.8 L 428.5,685.5 L 432.8,700.2 L 437.1,715.7 L 439.6,720.8 L 442.7,726.0 L 448.7,735.6 L 455.9,745.2 L 465.7,755.4 L 473.1,762.3 L 485.0,772.3 L 515.4,795.7 L 555.6,827.6 L 571.9,839.7 L 583.7,848.7 L 590.9,853.6 L 608.4,864.9 L 618.4,870.6 L 633.2,877.7 L 701.3,907.9 L 703.6,908.7 L 706.2,909.4 L 709.6,909.9 L 711.5,910.0 L 713.9,909.9 L 716.9,909.5 L 720.3,908.7 L 723.6,907.3 L 726.9,905.2 L 728.8,903.7 L 731.5,901.2 L 733.1,899.2 L 735.3,895.5 L 736.8,892.7 L 738.0,889.2 L 738.8,885.9 L 739.6,880.1 L 739.6,876.2 L 739.2,871.9 L 738.2,867.2 L 736.9,863.5 L 734.8,859.3 L 732.5,856.2 L 730.1,853.3 L 728.8,852.0 L 726.8,850.3 L 723.4,847.8 L 720.5,846.0 L 717.3,844.5 L 712.8,843.1 L 708.2,842.2 L 703.7,841.7 L 691.3,840.8 L 633.6,836.8 L 627.8,836.2 L 624.2,835.9 L 621.4,835.4 L 617.9,834.6 L 616.0,834.0 L 613.8,833.0 L 573.7,807.3 L 571.7,805.6 L 570.1,803.9 L 568.1,801.2 L 566.4,798.3 L 564.8,793.6 L 554.8,749.3 L 554.7,748.2 L 554.8,747.3 L 555.3,746.2 L 555.9,745.5 L 556.8,745.0 L 558.8,744.5 L 594.2,739.6 L 595.9,739.0 L 598.3,738.3 L 600.2,737.1 L 601.9,735.6 L 603.3,733.8 L 604.9,731.1 L 605.7,729.5 L 606.1,728.2 L 606.4,725.7 L 606.4,710.0 L 605.9,697.7 L 605.7,694.6 L 605.3,693.1 L 604.7,691.2 L 604.1,689.7 L 603.0,687.6 L 602.1,686.4 L 601.6,685.7 L 600.7,685.0 L 599.0,684.2 L 598.0,683.7 L 596.9,683.3 L 595.3,682.8 L 593.6,682.3 L 590.4,681.8 L 586.6,681.4 L 582.2,681.2 L 578.1,681.1 L 574.6,681.2 L 567.5,681.8 L 501.2,691.4 L 497.3,691.7 L 492.0,691.7 L 488.6,691.5 L 483.5,690.3 L 480.0,689.2 L 475.7,687.6 L 473.4,686.2 L 470.8,683.7 L 451.5,650.0 L 440.4,631.4 L 439.6,629.8 L 438.7,627.0 L 437.9,623.6 L 437.0,618.6 L 436.8,614.8 L 436.7,613.1 L 436.7,611.7 L 436.8,610.4 L 437.0,609.1 L 437.3,607.5 L 437.9,605.9 L 438.4,604.7 L 439.4,603.4 L 440.5,602.3 L 441.7,601.6 L 443.3,601.0 L 447.0,600.2 L 492.7,593.6 L 504.2,592.0 L 551.4,585.1 L 664.8,569.0 L 666.7,568.4 L 668.5,567.8 L 670.2,566.6 L 672.1,564.8 L 673.7,562.7 L 675.4,560.0 L 676.4,557.5 L 676.8,555.5 L 676.9,553.4 L 676.7,551.3 L 676.1,547.9 L 662.7,492.5 L 659.0,476.1 L 658.2,472.6 L 657.3,469.4 L 656.5,467.3 L 655.5,465.1 L 654.4,463.6 L 653.1,462.0 L 650.3,459.3 L 647.1,457.1 L 643.7,455.3 L 640.0,454.1 L 613.4,445.6 L 608.8,443.9 L 605.1,442.2 L 602.1,440.4 L 599.0,438.5 L 596.0,436.3 L 593.0,433.9 L 589.8,430.9 L 587.8,428.8 L 585.4,426.2 L 582.9,423.0 L 580.5,419.7 L 576.6,414.2 L 575.2,410.2 L 574.4,406.6 L 573.3,400.7 L 573.1,398.0 L 572.9,396.0 L 573.0,390.7 L 573.8,385.0 L 574.8,380.0 L 577.8,369.3 L 581.5,356.3 L 582.8,351.4 L 584.6,343.9 L 586.0,336.0 L 587.1,328.1 L 587.2,326.6 L 587.7,320.1 L 587.9,312.1 L 587.8,304.2 L 587.2,296.2 L 586.2,288.3 L 583.1,262.4 L 579.3,229.3 L 578.0,219.1 L 574.0,187.0 L 572.9,181.8 L 571.7,178.1 L 570.9,176.6 L 569.8,174.9 L 568.4,173.3 L 566.9,171.9 L 564.8,170.2 L 563.0,169.3 L 560.1,168.4 L 558.6,168.1 L 556.4,168.0 L 554.7,168.2 L 553.0,168.6 L 551.3,169.3 L 549.7,170.2 L 548.3,171.3 L 546.9,172.7 L 545.4,174.7 L 544.3,176.7 L 542.8,179.9 L 536.8,198.1 L 535.9,201.1 L 529.0,228.5 L 523.1,247.4 L 507.1,295.8 L 481.4,372.0 L 479.2,378.7 L 475.6,389.3 L 457.5,442.2 L 446.8,473.9 L 442.4,488.0 Z" fill="none" stroke="#ff5a36" stroke-opacity="0.55" stroke-width="1.2" stroke-linejoin="round" filter="url(#glow)"/>
<circle cx="442.4" cy="488.0" r="13" fill="none" stroke="#ffffff" stroke-width="3"/>
<rect x="438.4" y="466.0" width="8" height="18" fill="#ffffff"/>
<circle cx="391.9" cy="656.1" r="7" fill="#ff5a36" stroke="#0a0c12" stroke-width="2.5" filter="url(#glow)"/>
<text x="391.9" y="659.5" font-size="9" font-weight="700" fill="#0a0c12" text-anchor="middle">1</text>
<circle cx="443.8" cy="727.7" r="7" fill="#ff5a36" stroke="#0a0c12" stroke-width="2.5" filter="url(#glow)"/>
<text x="443.8" y="731.1" font-size="9" font-weight="700" fill="#0a0c12" text-anchor="middle">2</text>
<circle cx="502.4" cy="785.7" r="7" fill="#ff5a36" stroke="#0a0c12" stroke-width="2.5" filter="url(#glow)"/>
<text x="502.4" y="789.1" font-size="9" font-weight="700" fill="#0a0c12" text-anchor="middle">3</text>
<circle cx="572.1" cy="839.9" r="7" fill="#ff5a36" stroke="#0a0c12" stroke-width="2.5" filter="url(#glow)"/>
<text x="572.1" y="843.3" font-size="9" font-weight="700" fill="#0a0c12" text-anchor="middle">4</text>
<circle cx="731.9" cy="900.8" r="7" fill="#ff5a36" stroke="#0a0c12" stroke-width="2.5" filter="url(#glow)"/>
<text x="731.9" y="904.2" font-size="9" font-weight="700" fill="#0a0c12" text-anchor="middle">5</text>
<circle cx="473.1" cy="685.9" r="7" fill="#ff5a36" stroke="#0a0c12" stroke-width="2.5" filter="url(#glow)"/>
<text x="473.1" y="689.3" font-size="9" font-weight="700" fill="#0a0c12" text-anchor="middle">6</text>
<circle cx="457.9" cy="661.1" r="7" fill="#ff5a36" stroke="#0a0c12" stroke-width="2.5" filter="url(#glow)"/>
<text x="457.9" y="664.5" font-size="9" font-weight="700" fill="#0a0c12" text-anchor="middle">7</text>
<circle cx="459.1" cy="598.5" r="7" fill="#ff5a36" stroke="#0a0c12" stroke-width="2.5" filter="url(#glow)"/>
<text x="459.1" y="601.9" font-size="9" font-weight="700" fill="#0a0c12" text-anchor="middle">8</text>
<circle cx="648.1" cy="457.8" r="7" fill="#ff5a36" stroke="#0a0c12" stroke-width="2.5" filter="url(#glow)"/>
<text x="648.1" y="461.2" font-size="9" font-weight="700" fill="#0a0c12" text-anchor="middle">9</text>
<circle cx="587.8" cy="316.8" r="7" fill="#ff5a36" stroke="#0a0c12" stroke-width="2.5" filter="url(#glow)"/>
<text x="587.8" y="320.2" font-size="9" font-weight="700" fill="#0a0c12" text-anchor="middle">10</text>
<circle cx="582.9" cy="260.5" r="7" fill="#ff5a36" stroke="#0a0c12" stroke-width="2.5" filter="url(#glow)"/>
<text x="582.9" y="263.9" font-size="9" font-weight="700" fill="#0a0c12" text-anchor="middle">11</text>
<circle cx="576.2" cy="205.0" r="7" fill="#ff5a36" stroke="#0a0c12" stroke-width="2.5" filter="url(#glow)"/>
<text x="576.2" y="208.4" font-size="9" font-weight="700" fill="#0a0c12" text-anchor="middle">12</text>
<circle cx="558.4" cy="168.1" r="7" fill="#ff5a36" stroke="#0a0c12" stroke-width="2.5" filter="url(#glow)"/>
<text x="558.4" y="171.5" font-size="9" font-weight="700" fill="#0a0c12" text-anchor="middle">13</text>
<circle cx="534.1" cy="208.3" r="7" fill="#ff5a36" stroke="#0a0c12" stroke-width="2.5" filter="url(#glow)"/>
<text x="534.1" y="211.7" font-size="9" font-weight="700" fill="#0a0c12" text-anchor="middle">14</text>
<circle cx="494.8" cy="332.3" r="7" fill="#ff5a36" stroke="#0a0c12" stroke-width="2.5" filter="url(#glow)"/>
<text x="494.8" y="335.7" font-size="9" font-weight="700" fill="#0a0c12" text-anchor="middle">15</text>
<circle cx="463.9" cy="423.7" r="7" fill="#ff5a36" stroke="#0a0c12" stroke-width="2.5" filter="url(#glow)"/>
<text x="463.9" y="427.1" font-size="9" font-weight="700" fill="#0a0c12" text-anchor="middle">16</text>
<line x1="391.9" y1="656.1" x2="343.0" y2="673.8" stroke="#ff5a36" stroke-opacity="0.45" stroke-width="1.3"/>
<text x="335.0" y="677.8" font-size="15" font-weight="600" fill="#eef2fb" text-anchor="end">T1</text>
<line x1="443.8" y1="727.7" x2="408.7" y2="766.2" stroke="#ff5a36" stroke-opacity="0.45" stroke-width="1.3"/>
<text x="400.7" y="770.2" font-size="15" font-weight="600" fill="#eef2fb" text-anchor="end">T2</text>
<line x1="502.4" y1="785.7" x2="486.0" y2="835.0" stroke="#ff5a36" stroke-opacity="0.45" stroke-width="1.3"/>
<text x="478.0" y="839.0" font-size="15" font-weight="600" fill="#eef2fb" text-anchor="end">T3</text>
<line x1="572.1" y1="839.9" x2="573.3" y2="891.9" stroke="#ff5a36" stroke-opacity="0.45" stroke-width="1.3"/>
<text x="581.3" y="895.9" font-size="15" font-weight="600" fill="#eef2fb" text-anchor="start">T4</text>
<line x1="731.9" y1="900.8" x2="756.4" y2="930.0" stroke="#ff5a36" stroke-opacity="0.45" stroke-width="1.3"/>
<text x="764.4" y="934.0" font-size="15" font-weight="600" fill="#eef2fb" text-anchor="start">Hotel</text>
<line x1="587.8" y1="316.8" x2="591.8" y2="265.0" stroke="#ff5a36" stroke-opacity="0.45" stroke-width="1.3"/>
<text x="599.8" y="269.0" font-size="15" font-weight="600" fill="#eef2fb" text-anchor="start">T10</text>
<text x="90" y="64" font-size="20" letter-spacing="5" fill="#ff5a36" font-weight="700">TRACK ATLAS</text>
<text x="90" y="108" font-size="42" font-weight="800" fill="#ffffff">YAS MARINA CIRCUIT</text>
<text x="90" y="136" font-size="16" fill="#9aa6bd">Abu Dhabi</text>
<rect x="1170" y="200" width="360" height="710" rx="16" fill="#ffffff" fill-opacity="0.04" stroke="#ff5a36" stroke-opacity="0.5"/>
<text x="1198" y="250" font-size="13" letter-spacing="2" fill="#8794ab">LAYOUT</text>
<text x="1198" y="276" font-size="22" font-weight="700" fill="#eef2fb">Grand Prix Circuit</text>
<text x="1198" y="320" font-size="13" letter-spacing="2" fill="#8794ab">LENGTH</text>
<text x="1198" y="346" font-size="22" font-weight="700" fill="#eef2fb">5.281 km</text>
<text x="1198" y="390" font-size="13" letter-spacing="2" fill="#8794ab">CORNERS</text>
<text x="1198" y="416" font-size="22" font-weight="700" fill="#eef2fb">16</text>
<text x="1198" y="460" font-size="13" letter-spacing="2" fill="#8794ab">NAMED CORNERS</text>
<text x="1198" y="486" font-size="22" font-weight="700" fill="#eef2fb">6</text>
<text x="1198" y="530" font-size="13" letter-spacing="2" fill="#8794ab">DIRECTION</text>
<text x="1198" y="556" font-size="22" font-weight="700" fill="#eef2fb">Anticlockwise</text>
<text x="1198" y="600" font-size="13" letter-spacing="2" fill="#8794ab">SECTORS</text>
<text x="1198" y="626" font-size="22" font-weight="700" fill="#eef2fb">3</text>
<text x="1198" y="670" font-size="13" letter-spacing="2" fill="#8794ab">COUNTRY</text>
<text x="1198" y="696" font-size="22" font-weight="700" fill="#eef2fb">AE</text>
<text x="1198" y="740" font-size="13" letter-spacing="2" fill="#8794ab">LOCATION</text>
<text x="1198" y="766" font-size="22" font-weight="700" fill="#eef2fb">Abu Dhabi</text>
<text x="90" y="966" font-size="12" fill="#566177">Geometry © OpenStreetMap contributors (ODbL) · corner data: Lovely-Sim-Racing + curated · track-atlas</text>
<text x="90" y="942" font-size="12" fill="#8794ab">⚑ start / finish</text>
</svg>