<svg xmlns="http://www.w3.org/2000/svg" width="1600" height="1000" viewBox="0 0 1600 1000" font-family="Helvetica, Arial, sans-serif">
<defs>
      <radialGradient id="bg" cx="38%" cy="34%" r="85%">
        <stop offset="0%" stop-color="#1b2030"/>
        <stop offset="55%" stop-color="#12151f"/>
        <stop offset="100%" stop-color="#0a0c12"/>
      </radialGradient>
      <linearGradient id="accent" x1="0" y1="0" x2="1" y2="1">
        <stop offset="0%" stop-color="#ff5a36"/>
        <stop offset="100%" stop-color="#ffffff"/>
      </linearGradient>
      <filter id="glow" x="-40%" y="-40%" width="180%" height="180%">
        <feGaussianBlur stdDeviation="6" result="b"/>
        <feMerge><feMergeNode in="b"/><feMergeNode in="SourceGraphic"/></feMerge>
      </filter>
    </defs>
<rect width="1600" height="1000" fill="url(#bg)"/>
<path d="M 100.1,569.9 L 150.0,608.7 L 271.2,703.9 L 379.9,789.0 L 390.5,796.7 L 400.5,803.1 L 409.8,808.4 L 412.3,809.7 L 414.3,810.3 L 416.2,810.5 L 417.9,810.4 L 419.5,809.9 L 420.3,809.7 L 421.7,808.9 L 423.0,807.7 L 424.0,806.3 L 424.4,804.6 L 424.3,802.4 L 424.0,800.4 L 423.3,797.5 L 420.9,789.5 L 417.2,779.3 L 400.9,730.9 L 398.0,722.4 L 396.9,718.3 L 396.2,714.2 L 395.8,710.4 L 395.8,706.7 L 396.0,702.5 L 396.5,698.2 L 397.4,694.0 L 398.8,689.5 L 400.3,685.3 L 402.2,681.2 L 404.2,677.4 L 406.5,673.7 L 409.1,670.2 L 412.1,666.8 L 415.2,663.7 L 419.0,660.8 L 423.1,657.9 L 428.2,654.7 L 437.9,648.8 L 488.4,618.0 L 495.4,613.4 L 499.0,610.9 L 502.7,608.0 L 505.8,605.0 L 508.7,601.6 L 511.0,598.1 L 513.0,594.6 L 515.1,589.7 L 517.1,584.5 L 518.7,580.0 L 520.2,575.8 L 522.0,571.4 L 524.1,567.4 L 526.5,563.8 L 529.3,560.2 L 532.9,556.9 L 537.1,554.4 L 541.8,552.1 L 548.5,549.6 L 555.1,547.2 L 559.0,545.5 L 562.3,543.5 L 565.4,541.1 L 568.2,538.4 L 570.9,535.5 L 572.8,532.8 L 574.5,529.3 L 575.7,525.7 L 576.5,522.1 L 577.2,517.0 L 578.2,509.3 L 579.2,501.8 L 580.4,495.7 L 581.8,491.4 L 584.0,486.9 L 586.5,482.6 L 590.2,477.9 L 594.1,473.9 L 597.5,470.7 L 601.9,467.5 L 606.0,464.8 L 610.0,462.5 L 614.6,460.2 L 620.1,457.8 L 624.9,456.3 L 629.2,455.3 L 633.1,454.8 L 636.4,454.6 L 639.6,454.7 L 642.5,455.1 L 645.5,455.7 L 648.5,456.5 L 651.9,457.7 L 663.9,463.2 L 680.1,470.7 L 695.6,477.7 L 699.0,479.3 L 701.3,480.2 L 703.0,480.6 L 705.0,480.8 L 706.8,480.8 L 708.8,480.4 L 711.2,479.4 L 714.3,477.8 L 721.9,473.0 L 727.8,468.3 L 732.9,464.0 L 737.4,459.8 L 743.2,453.3 L 745.9,449.8 L 748.4,446.2 L 750.5,443.0 L 753.0,439.5 L 755.2,437.1 L 758.3,434.5 L 761.2,432.8 L 764.4,431.4 L 768.1,430.3 L 772.3,429.5 L 776.0,429.3 L 780.1,429.7 L 783.6,430.4 L 786.8,431.5 L 789.1,432.5 L 791.2,433.7 L 793.4,435.2 L 795.0,436.7 L 797.0,438.7 L 798.5,440.5 L 800.3,442.9 L 802.2,445.8 L 803.4,448.0 L 804.4,450.0 L 805.5,451.5 L 806.9,452.7 L 808.7,454.1 L 810.5,455.1 L 812.6,455.7 L 814.5,456.1 L 816.9,456.2 L 819.3,455.9 L 822.4,455.4 L 828.8,453.9 L 897.8,438.8 L 904.3,437.4 L 907.5,436.7 L 910.0,435.9 L 912.1,435.0 L 913.9,433.9 L 915.5,432.6 L 917.2,430.9 L 921.7,425.4 L 1010.8,317.5 L 1031.7,292.1 L 1037.0,285.0 L 1038.7,282.2 L 1039.6,279.7 L 1040.0,277.2 L 1039.9,275.0 L 1039.1,272.6 L 1038.1,270.7 L 1036.5,269.1 L 1034.9,268.2 L 1033.2,267.6 L 1031.3,267.5 L 1029.3,267.5 L 1027.1,267.8 L 1023.3,268.8 L 1008.7,273.3 L 972.2,285.0 L 931.4,297.7 L 867.3,315.6 L 827.7,325.5 L 771.6,338.4 L 707.2,351.2 L 644.2,361.6 L 628.0,363.8 L 610.2,366.3 L 609.1,366.4 L 607.2,366.6 L 572.3,370.9 L 555.7,372.6 L 549.2,373.3 L 530.1,375.5 L 515.3,377.2 L 481.2,381.0 L 449.1,384.6 L 439.8,385.7 L 437.1,386.2 L 435.3,386.8 L 434.2,387.5 L 433.0,388.9 L 432.4,390.1 L 432.0,391.6 L 431.9,392.9 L 432.2,394.4 L 432.8,395.9 L 433.8,397.7 L 439.6,404.9 L 451.4,419.9 L 459.9,431.1 L 473.3,450.2 L 486.0,470.6 L 489.6,476.1 L 490.7,477.3 L 491.3,481.0 L 491.4,483.1 L 491.4,485.0 L 491.0,486.7 L 490.4,488.6 L 489.5,490.0 L 488.4,491.4 L 487.0,492.7 L 485.7,493.5 L 484.0,494.1 L 482.3,494.5 L 480.3,494.6 L 477.8,494.5 L 467.0,493.8 L 458.8,493.3 L 454.2,493.0 L 450.9,492.7 L 448.9,492.3 L 447.1,491.7 L 445.4,490.8 L 443.6,489.6 L 441.4,487.8 L 440.1,486.2 L 438.9,484.1 L 437.9,481.6 L 435.2,474.2 L 433.4,469.4 L 431.8,465.1 L 430.1,461.5 L 428.1,458.4 L 426.1,456.0 L 421.6,451.2 L 412.7,441.5 L 410.6,439.4 L 408.4,437.5 L 406.4,436.1 L 403.8,434.7 L 401.3,433.9 L 398.3,433.1 L 395.0,432.6 L 390.8,432.0 L 384.1,431.4 L 382.1,431.3 L 380.0,431.3 L 378.4,431.6 L 377.2,432.1 L 376.1,432.9 L 375.2,433.6 L 374.6,434.6 L 374.1,435.7 L 373.7,436.9 L 373.6,438.1 L 373.7,439.4 L 373.9,440.8 L 374.3,442.3 L 375.2,444.3 L 382.5,457.1 L 412.9,509.9 L 418.0,519.3 L 419.7,523.0 L 420.7,525.6 L 422.0,529.2 L 422.7,532.7 L 423.0,536.6 L 423.1,540.4 L 422.7,544.2 L 422.1,548.1 L 420.9,553.2 L 418.8,559.1 L 415.4,567.6 L 413.6,571.5 L 411.6,575.1 L 409.5,578.2 L 407.5,580.9 L 405.8,582.5 L 404.1,583.9 L 401.6,585.3 L 381.8,594.8 L 374.6,598.0 L 370.0,599.9 L 367.6,600.9 L 365.2,601.8 L 362.3,602.4 L 358.8,602.7 L 355.3,602.8 L 351.5,602.6 L 345.3,602.0 L 339.1,601.0 L 334.2,599.7 L 327.6,597.8 L 321.5,595.5 L 316.4,593.3 L 312.5,591.5 L 309.2,589.5 L 305.5,586.9 L 302.1,583.8 L 299.7,581.3 L 297.7,578.7 L 294.6,574.4 L 286.7,562.6 L 281.0,554.7 L 275.5,547.4 L 270.6,540.2 L 264.2,531.8 L 257.1,522.6 L 246.3,509.2 L 239.5,501.0 L 237.1,498.6 L 234.9,496.8 L 233.0,495.6 L 231.2,494.8 L 229.4,494.3 L 227.3,493.9 L 224.9,493.8 L 222.6,494.0 L 219.8,494.5 L 216.1,495.3 L 212.0,496.5 L 207.1,498.3 L 202.2,500.3 L 192.9,504.5 L 106.3,542.8 L 97.2,546.7 L 95.3,547.7 L 93.9,548.7 L 92.8,549.7 L 91.8,550.8 L 91.1,551.9 L 90.7,553.0 L 90.3,554.4 L 90.1,555.6 L 90.0,556.9 L 90.1,558.2 L 90.5,559.7 L 91.0,560.9 L 92.0,562.6 L 93.6,564.5 L 100.1,569.9 Z" fill="none" stroke="#000000" stroke-opacity="0.5" stroke-width="13" stroke-linejoin="round" stroke-linecap="round"/>
<path d="M 100.1,569.9 L 150.0,608.7 L 271.2,703.9 L 379.9,789.0 L 390.5,796.7 L 400.5,803.1 L 409.8,808.4 L 412.3,809.7 L 414.3,810.3 L 416.2,810.5 L 417.9,810.4 L 419.5,809.9 L 420.3,809.7 L 421.7,808.9 L 423.0,807.7 L 424.0,806.3 L 424.4,804.6 L 424.3,802.4 L 424.0,800.4 L 423.3,797.5 L 420.9,789.5 L 417.2,779.3 L 400.9,730.9 L 398.0,722.4 L 396.9,718.3 L 396.2,714.2 L 395.8,710.4 L 395.8,706.7 L 396.0,702.5 L 396.5,698.2 L 397.4,694.0 L 398.8,689.5 L 400.3,685.3 L 402.2,681.2 L 404.2,677.4 L 406.5,673.7 L 409.1,670.2 L 412.1,666.8 L 415.2,663.7 L 419.0,660.8 L 423.1,657.9 L 428.2,654.7 L 437.9,648.8 L 488.4,618.0 L 495.4,613.4 L 499.0,610.9 L 502.7,608.0 L 505.8,605.0 L 508.7,601.6 L 511.0,598.1 L 513.0,594.6 L 515.1,589.7 L 517.1,584.5 L 518.7,580.0 L 520.2,575.8 L 522.0,571.4 L 524.1,567.4 L 526.5,563.8 L 529.3,560.2 L 532.9,556.9 L 537.1,554.4 L 541.8,552.1 L 548.5,549.6 L 555.1,547.2 L 559.0,545.5 L 562.3,543.5 L 565.4,541.1 L 568.2,538.4 L 570.9,535.5 L 572.8,532.8 L 574.5,529.3 L 575.7,525.7 L 576.5,522.1 L 577.2,517.0 L 578.2,509.3 L 579.2,501.8 L 580.4,495.7 L 581.8,491.4 L 584.0,486.9 L 586.5,482.6 L 590.2,477.9 L 594.1,473.9 L 597.5,470.7 L 601.9,467.5 L 606.0,464.8 L 610.0,462.5 L 614.6,460.2 L 620.1,457.8 L 624.9,456.3 L 629.2,455.3 L 633.1,454.8 L 636.4,454.6 L 639.6,454.7 L 642.5,455.1 L 645.5,455.7 L 648.5,456.5 L 651.9,457.7 L 663.9,463.2 L 680.1,470.7 L 695.6,477.7 L 699.0,479.3 L 701.3,480.2 L 703.0,480.6 L 705.0,480.8 L 706.8,480.8 L 708.8,480.4 L 711.2,479.4 L 714.3,477.8 L 721.9,473.0 L 727.8,468.3 L 732.9,464.0 L 737.4,459.8 L 743.2,453.3 L 745.9,449.8 L 748.4,446.2 L 750.5,443.0 L 753.0,439.5 L 755.2,437.1 L 758.3,434.5 L 761.2,432.8 L 764.4,431.4 L 768.1,430.3 L 772.3,429.5 L 776.0,429.3 L 780.1,429.7 L 783.6,430.4 L 786.8,431.5 L 789.1,432.5 L 791.2,433.7 L 793.4,435.2 L 795.0,436.7 L 797.0,438.7 L 798.5,440.5 L 800.3,442.9 L 802.2,445.8 L 803.4,448.0 L 804.4,450.0 L 805.5,451.5 L 806.9,452.7 L 808.7,454.1 L 810.5,455.1 L 812.6,455.7 L 814.5,456.1 L 816.9,456.2 L 819.3,455.9 L 822.4,455.4 L 828.8,453.9 L 897.8,438.8 L 904.3,437.4 L 907.5,436.7 L 910.0,435.9 L 912.1,435.0 L 913.9,433.9 L 915.5,432.6 L 917.2,430.9 L 921.7,425.4 L 1010.8,317.5 L 1031.7,292.1 L 1037.0,285.0 L 1038.7,282.2 L 1039.6,279.7 L 1040.0,277.2 L 1039.9,275.0 L 1039.1,272.6 L 1038.1,270.7 L 1036.5,269.1 L 1034.9,268.2 L 1033.2,267.6 L 1031.3,267.5 L 1029.3,267.5 L 1027.1,267.8 L 1023.3,268.8 L 1008.7,273.3 L 972.2,285.0 L 931.4,297.7 L 867.3,315.6 L 827.7,325.5 L 771.6,338.4 L 707.2,351.2 L 644.2,361.6 L 628.0,363.8 L 610.2,366.3 L 609.1,366.4 L 607.2,366.6 L 572.3,370.9 L 555.7,372.6 L 549.2,373.3 L 530.1,375.5 L 515.3,377.2 L 481.2,381.0 L 449.1,384.6 L 439.8,385.7 L 437.1,386.2 L 435.3,386.8 L 434.2,387.5 L 433.0,388.9 L 432.4,390.1 L 432.0,391.6 L 431.9,392.9 L 432.2,394.4 L 432.8,395.9 L 433.8,397.7 L 439.6,404.9 L 451.4,419.9 L 459.9,431.1 L 473.3,450.2 L 486.0,470.6 L 489.6,476.1 L 490.7,477.3 L 491.3,481.0 L 491.4,483.1 L 491.4,485.0 L 491.0,486.7 L 490.4,488.6 L 489.5,490.0 L 488.4,491.4 L 487.0,492.7 L 485.7,493.5 L 484.0,494.1 L 482.3,494.5 L 480.3,494.6 L 477.8,494.5 L 467.0,493.8 L 458.8,493.3 L 454.2,493.0 L 450.9,492.7 L 448.9,492.3 L 447.1,491.7 L 445.4,490.8 L 443.6,489.6 L 441.4,487.8 L 440.1,486.2 L 438.9,484.1 L 437.9,481.6 L 435.2,474.2 L 433.4,469.4 L 431.8,465.1 L 430.1,461.5 L 428.1,458.4 L 426.1,456.0 L 421.6,451.2 L 412.7,441.5 L 410.6,439.4 L 408.4,437.5 L 406.4,436.1 L 403.8,434.7 L 401.3,433.9 L 398.3,433.1 L 395.0,432.6 L 390.8,432.0 L 384.1,431.4 L 382.1,431.3 L 380.0,431.3 L 378.4,431.6 L 377.2,432.1 L 376.1,432.9 L 375.2,433.6 L 374.6,434.6 L 374.1,435.7 L 373.7,436.9 L 373.6,438.1 L 373.7,439.4 L 373.9,440.8 L 374.3,442.3 L 375.2,444.3 L 382.5,457.1 L 412.9,509.9 L 418.0,519.3 L 419.7,523.0 L 420.7,525.6 L 422.0,529.2 L 422.7,532.7 L 423.0,536.6 L 423.1,540.4 L 422.7,544.2 L 422.1,548.1 L 420.9,553.2 L 418.8,559.1 L 415.4,567.6 L 413.6,571.5 L 411.6,575.1 L 409.5,578.2 L 407.5,580.9 L 405.8,582.5 L 404.1,583.9 L 401.6,585.3 L 381.8,594.8 L 374.6,598.0 L 370.0,599.9 L 367.6,600.9 L 365.2,601.8 L 362.3,602.4 L 358.8,602.7 L 355.3,602.8 L 351.5,602.6 L 345.3,602.0 L 339.1,601.0 L 334.2,599.7 L 327.6,597.8 L 321.5,595.5 L 316.4,593.3 L 312.5,591.5 L 309.2,589.5 L 305.5,586.9 L 302.1,583.8 L 299.7,581.3 L 297.7,578.7 L 294.6,574.4 L 286.7,562.6 L 281.0,554.7 L 275.5,547.4 L 270.6,540.2 L 264.2,531.8 L 257.1,522.6 L 246.3,509.2 L 239.5,501.0 L 237.1,498.6 L 234.9,496.8 L 233.0,495.6 L 231.2,494.8 L 229.4,494.3 L 227.3,493.9 L 224.9,493.8 L 222.6,494.0 L 219.8,494.5 L 216.1,495.3 L 212.0,496.5 L 207.1,498.3 L 202.2,500.3 L 192.9,504.5 L 106.3,542.8 L 97.2,546.7 L 95.3,547.7 L 93.9,548.7 L 92.8,549.7 L 91.8,550.8 L 91.1,551.9 L 90.7,553.0 L 90.3,554.4 L 90.1,555.6 L 90.0,556.9 L 90.1,558.2 L 90.5,559.7 L 91.0,560.9 L 92.0,562.6 L 93.6,564.5 L 100.1,569.9 Z" fill="none" stroke="#39404f" stroke-width="8.5" stroke-linejoin="round" stroke-linecap="round"/>
<path d="M 100.1,569.9 L 150.0,608.7 L 271.2,703.9 L 379.9,789.0 L 390.5,796.7 L 400.5,803.1 L 409.8,808.4 L 412.3,809.7 L 414.3,810.3 L 416.2,810.5 L 417.9,810.4 L 419.5,809.9 L 420.3,809.7 L 421.7,808.9 L 423.0,807.7 L 424.0,806.3 L 424.4,804.6 L 424.3,802.4 L 424.0,800.4 L 423.3,797.5 L 420.9,789.5 L 417.2,779.3 L 400.9,730.9 L 398.0,722.4 L 396.9,718.3 L 396.2,714.2 L 395.8,710.4 L 395.8,706.7 L 396.0,702.5 L 396.5,698.2 L 397.4,694.0 L 398.8,689.5 L 400.3,685.3 L 402.2,681.2 L 404.2,677.4 L 406.5,673.7 L 409.1,670.2 L 412.1,666.8 L 415.2,663.7 L 419.0,660.8 L 423.1,657.9 L 428.2,654.7 L 437.9,648.8 L 488.4,618.0 L 495.4,613.4 L 499.0,610.9 L 502.7,608.0 L 505.8,605.0 L 508.7,601.6 L 511.0,598.1 L 513.0,594.6 L 515.1,589.7 L 517.1,584.5 L 518.7,580.0 L 520.2,575.8 L 522.0,571.4 L 524.1,567.4 L 526.5,563.8 L 529.3,560.2 L 532.9,556.9 L 537.1,554.4 L 541.8,552.1 L 548.5,549.6 L 555.1,547.2 L 559.0,545.5 L 562.3,543.5 L 565.4,541.1 L 568.2,538.4 L 570.9,535.5 L 572.8,532.8 L 574.5,529.3 L 575.7,525.7 L 576.5,522.1 L 577.2,517.0 L 578.2,509.3 L 579.2,501.8 L 580.4,495.7 L 581.8,491.4 L 584.0,486.9 L 586.5,482.6 L 590.2,477.9 L 594.1,473.9 L 597.5,470.7 L 601.9,467.5 L 606.0,464.8 L 610.0,462.5 L 614.6,460.2 L 620.1,457.8 L 624.9,456.3 L 629.2,455.3 L 633.1,454.8 L 636.4,454.6 L 639.6,454.7 L 642.5,455.1 L 645.5,455.7 L 648.5,456.5 L 651.9,457.7 L 663.9,463.2 L 680.1,470.7 L 695.6,477.7 L 699.0,479.3 L 701.3,480.2 L 703.0,480.6 L 705.0,480.8 L 706.8,480.8 L 708.8,480.4 L 711.2,479.4 L 714.3,477.8 L 721.9,473.0 L 727.8,468.3 L 732.9,464.0 L 737.4,459.8 L 743.2,453.3 L 745.9,449.8 L 748.4,446.2 L 750.5,443.0 L 753.0,439.5 L 755.2,437.1 L 758.3,434.5 L 761.2,432.8 L 764.4,431.4 L 768.1,430.3 L 772.3,429.5 L 776.0,429.3 L 780.1,429.7 L 783.6,430.4 L 786.8,431.5 L 789.1,432.5 L 791.2,433.7 L 793.4,435.2 L 795.0,436.7 L 797.0,438.7 L 798.5,440.5 L 800.3,442.9 L 802.2,445.8 L 803.4,448.0 L 804.4,450.0 L 805.5,451.5 L 806.9,452.7 L 808.7,454.1 L 810.5,455.1 L 812.6,455.7 L 814.5,456.1 L 816.9,456.2 L 819.3,455.9 L 822.4,455.4 L 828.8,453.9 L 897.8,438.8 L 904.3,437.4 L 907.5,436.7 L 910.0,435.9 L 912.1,435.0 L 913.9,433.9 L 915.5,432.6 L 917.2,430.9 L 921.7,425.4 L 1010.8,317.5 L 1031.7,292.1 L 1037.0,285.0 L 1038.7,282.2 L 1039.6,279.7 L 1040.0,277.2 L 1039.9,275.0 L 1039.1,272.6 L 1038.1,270.7 L 1036.5,269.1 L 1034.9,268.2 L 1033.2,267.6 L 1031.3,267.5 L 1029.3,267.5 L 1027.1,267.8 L 1023.3,268.8 L 1008.7,273.3 L 972.2,285.0 L 931.4,297.7 L 867.3,315.6 L 827.7,325.5 L 771.6,338.4 L 707.2,351.2 L 644.2,361.6 L 628.0,363.8 L 610.2,366.3 L 609.1,366.4 L 607.2,366.6 L 572.3,370.9 L 555.7,372.6 L 549.2,373.3 L 530.1,375.5 L 515.3,377.2 L 481.2,381.0 L 449.1,384.6 L 439.8,385.7 L 437.1,386.2 L 435.3,386.8 L 434.2,387.5 L 433.0,388.9 L 432.4,390.1 L 432.0,391.6 L 431.9,392.9 L 432.2,394.4 L 432.8,395.9 L 433.8,397.7 L 439.6,404.9 L 451.4,419.9 L 459.9,431.1 L 473.3,450.2 L 486.0,470.6 L 489.6,476.1 L 490.7,477.3 L 491.3,481.0 L 491.4,483.1 L 491.4,485.0 L 491.0,486.7 L 490.4,488.6 L 489.5,490.0 L 488.4,491.4 L 487.0,492.7 L 485.7,493.5 L 484.0,494.1 L 482.3,494.5 L 480.3,494.6 L 477.8,494.5 L 467.0,493.8 L 458.8,493.3 L 454.2,493.0 L 450.9,492.7 L 448.9,492.3 L 447.1,491.7 L 445.4,490.8 L 443.6,489.6 L 441.4,487.8 L 440.1,486.2 L 438.9,484.1 L 437.9,481.6 L 435.2,474.2 L 433.4,469.4 L 431.8,465.1 L 430.1,461.5 L 428.1,458.4 L 426.1,456.0 L 421.6,451.2 L 412.7,441.5 L 410.6,439.4 L 408.4,437.5 L 406.4,436.1 L 403.8,434.7 L 401.3,433.9 L 398.3,433.1 L 395.0,432.6 L 390.8,432.0 L 384.1,431.4 L 382.1,431.3 L 380.0,431.3 L 378.4,431.6 L 377.2,432.1 L 376.1,432.9 L 375.2,433.6 L 374.6,434.6 L 374.1,435.7 L 373.7,436.9 L 373.6,438.1 L 373.7,439.4 L 373.9,440.8 L 374.3,442.3 L 375.2,444.3 L 382.5,457.1 L 412.9,509.9 L 418.0,519.3 L 419.7,523.0 L 420.7,525.6 L 422.0,529.2 L 422.7,532.7 L 423.0,536.6 L 423.1,540.4 L 422.7,544.2 L 422.1,548.1 L 420.9,553.2 L 418.8,559.1 L 415.4,567.6 L 413.6,571.5 L 411.6,575.1 L 409.5,578.2 L 407.5,580.9 L 405.8,582.5 L 404.1,583.9 L 401.6,585.3 L 381.8,594.8 L 374.6,598.0 L 370.0,599.9 L 367.6,600.9 L 365.2,601.8 L 362.3,602.4 L 358.8,602.7 L 355.3,602.8 L 351.5,602.6 L 345.3,602.0 L 339.1,601.0 L 334.2,599.7 L 327.6,597.8 L 321.5,595.5 L 316.4,593.3 L 312.5,591.5 L 309.2,589.5 L 305.5,586.9 L 302.1,583.8 L 299.7,581.3 L 297.7,578.7 L 294.6,574.4 L 286.7,562.6 L 281.0,554.7 L 275.5,547.4 L 270.6,540.2 L 264.2,531.8 L 257.1,522.6 L 246.3,509.2 L 239.5,501.0 L 237.1,498.6 L 234.9,496.8 L 233.0,495.6 L 231.2,494.8 L 229.4,494.3 L 227.3,493.9 L 224.9,493.8 L 222.6,494.0 L 219.8,494.5 L 216.1,495.3 L 212.0,496.5 L 207.1,498.3 L 202.2,500.3 L 192.9,504.5 L 106.3,542.8 L 97.2,546.7 L 95.3,547.7 L 93.9,548.7 L 92.8,549.7 L 91.8,550.8 L 91.1,551.9 L 90.7,553.0 L 90.3,554.4 L 90.1,555.6 L 90.0,556.9 L 90.1,558.2 L 90.5,559.7 L 91.0,560.9 L 92.0,562.6 L 93.6,564.5 L 100.1,569.9 Z" fill="none" stroke="#e7edf8" stroke-width="2.6" stroke-linejoin="round" stroke-linecap="round"/>
<path d="M 100.1,569.9 L 150.0,608.7 L 271.2,703.9 L 379.9,789.0 L 390.5,796.7 L 400.5,803.1 L 409.8,808.4 L 412.3,809.7 L 414.3,810.3 L 416.2,810.5 L 417.9,810.4 L 419.5,809.9 L 420.3,809.7 L 421.7,808.9 L 423.0,807.7 L 424.0,806.3 L 424.4,804.6 L 424.3,802.4 L 424.0,800.4 L 423.3,797.5 L 420.9,789.5 L 417.2,779.3 L 400.9,730.9 L 398.0,722.4 L 396.9,718.3 L 396.2,714.2 L 395.8,710.4 L 395.8,706.7 L 396.0,702.5 L 396.5,698.2 L 397.4,694.0 L 398.8,689.5 L 400.3,685.3 L 402.2,681.2 L 404.2,677.4 L 406.5,673.7 L 409.1,670.2 L 412.1,666.8 L 415.2,663.7 L 419.0,660.8 L 423.1,657.9 L 428.2,654.7 L 437.9,648.8 L 488.4,618.0 L 495.4,613.4 L 499.0,610.9 L 502.7,608.0 L 505.8,605.0 L 508.7,601.6 L 511.0,598.1 L 513.0,594.6 L 515.1,589.7 L 517.1,584.5 L 518.7,580.0 L 520.2,575.8 L 522.0,571.4 L 524.1,567.4 L 526.5,563.8 L 529.3,560.2 L 532.9,556.9 L 537.1,554.4 L 541.8,552.1 L 548.5,549.6 L 555.1,547.2 L 559.0,545.5 L 562.3,543.5 L 565.4,541.1 L 568.2,538.4 L 570.9,535.5 L 572.8,532.8 L 574.5,529.3 L 575.7,525.7 L 576.5,522.1 L 577.2,517.0 L 578.2,509.3 L 579.2,501.8 L 580.4,495.7 L 581.8,491.4 L 584.0,486.9 L 586.5,482.6 L 590.2,477.9 L 594.1,473.9 L 597.5,470.7 L 601.9,467.5 L 606.0,464.8 L 610.0,462.5 L 614.6,460.2 L 620.1,457.8 L 624.9,456.3 L 629.2,455.3 L 633.1,454.8 L 636.4,454.6 L 639.6,454.7 L 642.5,455.1 L 645.5,455.7 L 648.5,456.5 L 651.9,457.7 L 663.9,463.2 L 680.1,470.7 L 695.6,477.7 L 699.0,479.3 L 701.3,480.2 L 703.0,480.6 L 705.0,480.8 L 706.8,480.8 L 708.8,480.4 L 711.2,479.4 L 714.3,477.8 L 721.9,473.0 L 727.8,468.3 L 732.9,464.0 L 737.4,459.8 L 743.2,453.3 L 745.9,449.8 L 748.4,446.2 L 750.5,443.0 L 753.0,439.5 L 755.2,437.1 L 758.3,434.5 L 761.2,432.8 L 764.4,431.4 L 768.1,430.3 L 772.3,429.5 L 776.0,429.3 L 780.1,429.7 L 783.6,430.4 L 786.8,431.5 L 789.1,432.5 L 791.2,433.7 L 793.4,435.2 L 795.0,436.7 L 797.0,438.7 L 798.5,440.5 L 800.3,442.9 L 802.2,445.8 L 803.4,448.0 L 804.4,450.0 L 805.5,451.5 L 806.9,452.7 L 808.7,454.1 L 810.5,455.1 L 812.6,455.7 L 814.5,456.1 L 816.9,456.2 L 819.3,455.9 L 822.4,455.4 L 828.8,453.9 L 897.8,438.8 L 904.3,437.4 L 907.5,436.7 L 910.0,435.9 L 912.1,435.0 L 913.9,433.9 L 915.5,432.6 L 917.2,430.9 L 921.7,425.4 L 1010.8,317.5 L 1031.7,292.1 L 1037.0,285.0 L 1038.7,282.2 L 1039.6,279.7 L 1040.0,277.2 L 1039.9,275.0 L 1039.1,272.6 L 1038.1,270.7 L 1036.5,269.1 L 1034.9,268.2 L 1033.2,267.6 L 1031.3,267.5 L 1029.3,267.5 L 1027.1,267.8 L 1023.3,268.8 L 1008.7,273.3 L 972.2,285.0 L 931.4,297.7 L 867.3,315.6 L 827.7,325.5 L 771.6,338.4 L 707.2,351.2 L 644.2,361.6 L 628.0,363.8 L 610.2,366.3 L 609.1,366.4 L 607.2,366.6 L 572.3,370.9 L 555.7,372.6 L 549.2,373.3 L 530.1,375.5 L 515.3,377.2 L 481.2,381.0 L 449.1,384.6 L 439.8,385.7 L 437.1,386.2 L 435.3,386.8 L 434.2,387.5 L 433.0,388.9 L 432.4,390.1 L 432.0,391.6 L 431.9,392.9 L 432.2,394.4 L 432.8,395.9 L 433.8,397.7 L 439.6,404.9 L 451.4,419.9 L 459.9,431.1 L 473.3,450.2 L 486.0,470.6 L 489.6,476.1 L 490.7,477.3 L 491.3,481.0 L 491.4,483.1 L 491.4,485.0 L 491.0,486.7 L 490.4,488.6 L 489.5,490.0 L 488.4,491.4 L 487.0,492.7 L 485.7,493.5 L 484.0,494.1 L 482.3,494.5 L 480.3,494.6 L 477.8,494.5 L 467.0,493.8 L 458.8,493.3 L 454.2,493.0 L 450.9,492.7 L 448.9,492.3 L 447.1,491.7 L 445.4,490.8 L 443.6,489.6 L 441.4,487.8 L 440.1,486.2 L 438.9,484.1 L 437.9,481.6 L 435.2,474.2 L 433.4,469.4 L 431.8,465.1 L 430.1,461.5 L 428.1,458.4 L 426.1,456.0 L 421.6,451.2 L 412.7,441.5 L 410.6,439.4 L 408.4,437.5 L 406.4,436.1 L 403.8,434.7 L 401.3,433.9 L 398.3,433.1 L 395.0,432.6 L 390.8,432.0 L 384.1,431.4 L 382.1,431.3 L 380.0,431.3 L 378.4,431.6 L 377.2,432.1 L 376.1,432.9 L 375.2,433.6 L 374.6,434.6 L 374.1,435.7 L 373.7,436.9 L 373.6,438.1 L 373.7,439.4 L 373.9,440.8 L 374.3,442.3 L 375.2,444.3 L 382.5,457.1 L 412.9,509.9 L 418.0,519.3 L 419.7,523.0 L 420.7,525.6 L 422.0,529.2 L 422.7,532.7 L 423.0,536.6 L 423.1,540.4 L 422.7,544.2 L 422.1,548.1 L 420.9,553.2 L 418.8,559.1 L 415.4,567.6 L 413.6,571.5 L 411.6,575.1 L 409.5,578.2 L 407.5,580.9 L 405.8,582.5 L 404.1,583.9 L 401.6,585.3 L 381.8,594.8 L 374.6,598.0 L 370.0,599.9 L 367.6,600.9 L 365.2,601.8 L 362.3,602.4 L 358.8,602.7 L 355.3,602.8 L 351.5,602.6 L 345.3,602.0 L 339.1,601.0 L 334.2,599.7 L 327.6,597.8 L 321.5,595.5 L 316.4,593.3 L 312.5,591.5 L 309.2,589.5 L 305.5,586.9 L 302.1,583.8 L 299.7,581.3 L 297.7,578.7 L 294.6,574.4 L 286.7,562.6 L 281.0,554.7 L 275.5,547.4 L 270.6,540.2 L 264.2,531.8 L 257.1,522.6 L 246.3,509.2 L 239.5,501.0 L 237.1,498.6 L 234.9,496.8 L 233.0,495.6 L 231.2,494.8 L 229.4,494.3 L 227.3,493.9 L 224.9,493.8 L 222.6,494.0 L 219.8,494.5 L 216.1,495.3 L 212.0,496.5 L 207.1,498.3 L 202.2,500.3 L 192.9,504.5 L 106.3,542.8 L 97.2,546.7 L 95.3,547.7 L 93.9,548.7 L 92.8,549.7 L 91.8,550.8 L 91.1,551.9 L 90.7,553.0 L 90.3,554.4 L 90.1,555.6 L 90.0,556.9 L 90.1,558.2 L 90.5,559.7 L 91.0,560.9 L 92.0,562.6 L 93.6,564.5 L 100.1,569.9 Z" fill="none" stroke="#ff5a36" stroke-opacity="0.55" stroke-width="1.2" stroke-linejoin="round" filter="url(#glow)"/>
<circle cx="1008.7" cy="273.3" r="13" fill="none" stroke="#ffffff" stroke-width="3"/>
<rect x="1004.7" y="251.3" width="8" height="18" fill="#ffffff"/>
<circle cx="675.7" cy="356.3" r="7" fill="#ff5a36" stroke="#0a0c12" stroke-width="2.5" filter="url(#glow)"/>
<text x="675.7" y="359.7" font-size="9" font-weight="700" fill="#0a0c12" text-anchor="middle">1</text>
<circle cx="562.2" cy="372.0" r="7" fill="#ff5a36" stroke="#0a0c12" stroke-width="2.5" filter="url(#glow)"/>
<text x="562.2" y="375.4" font-size="9" font-weight="700" fill="#0a0c12" text-anchor="middle">2</text>
<circle cx="435.6" cy="399.9" r="7" fill="#ff5a36" stroke="#0a0c12" stroke-width="2.5" filter="url(#glow)"/>
<text x="435.6" y="403.3" font-size="9" font-weight="700" fill="#0a0c12" text-anchor="middle">3</text>
<circle cx="470.1" cy="445.6" r="7" fill="#ff5a36" stroke="#0a0c12" stroke-width="2.5" filter="url(#glow)"/>
<text x="470.1" y="449.0" font-size="9" font-weight="700" fill="#0a0c12" text-anchor="middle">4</text>
<circle cx="484.7" cy="493.9" r="7" fill="#ff5a36" stroke="#0a0c12" stroke-width="2.5" filter="url(#glow)"/>
<text x="484.7" y="497.3" font-size="9" font-weight="700" fill="#0a0c12" text-anchor="middle">5</text>
<circle cx="436.1" cy="476.6" r="7" fill="#ff5a36" stroke="#0a0c12" stroke-width="2.5" filter="url(#glow)"/>
<text x="436.1" y="480.0" font-size="9" font-weight="700" fill="#0a0c12" text-anchor="middle">6</text>
<circle cx="384.9" cy="461.4" r="7" fill="#ff5a36" stroke="#0a0c12" stroke-width="2.5" filter="url(#glow)"/>
<text x="384.9" y="464.8" font-size="9" font-weight="700" fill="#0a0c12" text-anchor="middle">7</text>
<circle cx="423.0" cy="537.7" r="7" fill="#ff5a36" stroke="#0a0c12" stroke-width="2.5" filter="url(#glow)"/>
<text x="423.0" y="541.1" font-size="9" font-weight="700" fill="#0a0c12" text-anchor="middle">8</text>
<circle cx="398.7" cy="586.7" r="7" fill="#ff5a36" stroke="#0a0c12" stroke-width="2.5" filter="url(#glow)"/>
<text x="398.7" y="590.1" font-size="9" font-weight="700" fill="#0a0c12" text-anchor="middle">9</text>
<circle cx="317.5" cy="593.8" r="7" fill="#ff5a36" stroke="#0a0c12" stroke-width="2.5" filter="url(#glow)"/>
<text x="317.5" y="597.2" font-size="9" font-weight="700" fill="#0a0c12" text-anchor="middle">10</text>
<circle cx="141.7" cy="527.1" r="7" fill="#ff5a36" stroke="#0a0c12" stroke-width="2.5" filter="url(#glow)"/>
<text x="141.7" y="530.5" font-size="9" font-weight="700" fill="#0a0c12" text-anchor="middle">11</text>
<circle cx="409.3" cy="669.9" r="7" fill="#ff5a36" stroke="#0a0c12" stroke-width="2.5" filter="url(#glow)"/>
<text x="409.3" y="673.3" font-size="9" font-weight="700" fill="#0a0c12" text-anchor="middle">12</text>
<circle cx="480.7" cy="622.7" r="7" fill="#ff5a36" stroke="#0a0c12" stroke-width="2.5" filter="url(#glow)"/>
<text x="480.7" y="626.1" font-size="9" font-weight="700" fill="#0a0c12" text-anchor="middle">13</text>
<circle cx="518.0" cy="581.8" r="7" fill="#ff5a36" stroke="#0a0c12" stroke-width="2.5" filter="url(#glow)"/>
<text x="518.0" y="585.2" font-size="9" font-weight="700" fill="#0a0c12" text-anchor="middle">14</text>
<circle cx="558.4" cy="545.7" r="7" fill="#ff5a36" stroke="#0a0c12" stroke-width="2.5" filter="url(#glow)"/>
<text x="558.4" y="549.1" font-size="9" font-weight="700" fill="#0a0c12" text-anchor="middle">15</text>
<circle cx="580.4" cy="496.1" r="7" fill="#ff5a36" stroke="#0a0c12" stroke-width="2.5" filter="url(#glow)"/>
<text x="580.4" y="499.5" font-size="9" font-weight="700" fill="#0a0c12" text-anchor="middle">16</text>
<circle cx="648.2" cy="456.4" r="7" fill="#ff5a36" stroke="#0a0c12" stroke-width="2.5" filter="url(#glow)"/>
<text x="648.2" y="459.8" font-size="9" font-weight="700" fill="#0a0c12" text-anchor="middle">17</text>
<circle cx="766.5" cy="430.8" r="7" fill="#ff5a36" stroke="#0a0c12" stroke-width="2.5" filter="url(#glow)"/>
<text x="766.5" y="434.2" font-size="9" font-weight="700" fill="#0a0c12" text-anchor="middle">18</text>
<circle cx="896.8" cy="439.1" r="7" fill="#ff5a36" stroke="#0a0c12" stroke-width="2.5" filter="url(#glow)"/>
<text x="896.8" y="442.5" font-size="9" font-weight="700" fill="#0a0c12" text-anchor="middle">19</text>
<circle cx="994.1" cy="337.8" r="7" fill="#ff5a36" stroke="#0a0c12" stroke-width="2.5" filter="url(#glow)"/>
<text x="994.1" y="341.2" font-size="9" font-weight="700" fill="#0a0c12" text-anchor="middle">20</text>
<line x1="675.7" y1="356.3" x2="713.7" y2="320.9" stroke="#ff5a36" stroke-opacity="0.45" stroke-width="1.3"/>
<text x="721.7" y="324.9" font-size="15" font-weight="600" fill="#eef2fb" text-anchor="start">Big Red</text>
<line x1="384.9" y1="461.4" x2="335.8" y2="444.3" stroke="#ff5a36" stroke-opacity="0.45" stroke-width="1.3"/>
<text x="327.8" y="448.3" font-size="15" font-weight="600" fill="#eef2fb" text-anchor="end">Esses</text>
<line x1="141.7" y1="527.1" x2="89.8" y2="530.0" stroke="#ff5a36" stroke-opacity="0.45" stroke-width="1.3"/>
<text x="81.8" y="534.0" font-size="15" font-weight="600" fill="#eef2fb" text-anchor="end">Hairpin</text>
<text x="90" y="64" font-size="20" letter-spacing="5" fill="#ff5a36" font-weight="700">TRACK ATLAS</text>
<text x="90" y="108" font-size="42" font-weight="800" fill="#ffffff">CIRCUIT OF THE AMERICAS</text>
<text x="90" y="136" font-size="16" fill="#9aa6bd">COTA</text>
<rect x="1170" y="200" width="360" height="710" rx="16" fill="#ffffff" fill-opacity="0.04" stroke="#ff5a36" stroke-opacity="0.5"/>
<text x="1198" y="250" font-size="13" letter-spacing="2" fill="#8794ab">LAYOUT</text>
<text x="1198" y="276" font-size="22" font-weight="700" fill="#eef2fb">Grand Prix Circuit</text>
<text x="1198" y="320" font-size="13" letter-spacing="2" fill="#8794ab">LENGTH</text>
<text x="1198" y="346" font-size="22" font-weight="700" fill="#eef2fb">5.515 km</text>
<text x="1198" y="390" font-size="13" letter-spacing="2" fill="#8794ab">CORNERS</text>
<text x="1198" y="416" font-size="22" font-weight="700" fill="#eef2fb">20</text>
<text x="1198" y="460" font-size="13" letter-spacing="2" fill="#8794ab">NAMED CORNERS</text>
<text x="1198" y="486" font-size="22" font-weight="700" fill="#eef2fb">2</text>
<text x="1198" y="530" font-size="13" letter-spacing="2" fill="#8794ab">DIRECTION</text>
<text x="1198" y="556" font-size="22" font-weight="700" fill="#eef2fb">Anticlockwise</text>
<text x="1198" y="600" font-size="13" letter-spacing="2" fill="#8794ab">SECTORS</text>
<text x="1198" y="626" font-size="22" font-weight="700" fill="#eef2fb">3</text>
<text x="1198" y="670" font-size="13" letter-spacing="2" fill="#8794ab">COUNTRY</text>
<text x="1198" y="696" font-size="22" font-weight="700" fill="#eef2fb">USA</text>
<text x="1198" y="740" font-size="13" letter-spacing="2" fill="#8794ab">LOCATION</text>
<text x="1198" y="766" font-size="22" font-weight="700" fill="#eef2fb">Austin, Texas</text>
<text x="1198" y="810" font-size="13" letter-spacing="2" fill="#8794ab">COMPLEXES</text>
<rect x="1198" y="816" width="54" height="24" rx="12" fill="#ff5a36" fill-opacity="0.16" stroke="#ff5a36" stroke-opacity="0.5"/>
<text x="1225" y="833" font-size="12" fill="#eef2fb" text-anchor="middle">Esses</text>
<text x="90" y="966" font-size="12" fill="#566177">Geometry © OpenStreetMap contributors (ODbL) · corner data: Lovely-Sim-Racing + curated · track-atlas</text>
<text x="90" y="942" font-size="12" fill="#8794ab">⚑ start / finish</text>
</svg>