<svg xmlns="http://www.w3.org/2000/svg" width="1600" height="1000" viewBox="0 0 1600 1000" font-family="Helvetica, Arial, sans-serif">
<defs>
      <radialGradient id="bg" cx="38%" cy="34%" r="85%">
        <stop offset="0%" stop-color="#1b2030"/>
        <stop offset="55%" stop-color="#12151f"/>
        <stop offset="100%" stop-color="#0a0c12"/>
      </radialGradient>
      <linearGradient id="accent" x1="0" y1="0" x2="1" y2="1">
        <stop offset="0%" stop-color="#1e9bd7"/>
        <stop offset="100%" stop-color="#ffffff"/>
      </linearGradient>
      <filter id="glow" x="-40%" y="-40%" width="180%" height="180%">
        <feGaussianBlur stdDeviation="6" result="b"/>
        <feMerge><feMergeNode in="b"/><feMergeNode in="SourceGraphic"/></feMerge>
      </filter>
    </defs>
<rect width="1600" height="1000" fill="url(#bg)"/>
<path d="M 597.6,527.5 L 658.1,479.0 L 660.4,477.7 L 661.9,477.0 L 663.2,476.7 L 664.5,476.5 L 665.9,476.3 L 667.2,476.3 L 668.3,476.4 L 669.4,476.7 L 670.8,477.2 L 671.8,477.8 L 672.9,478.5 L 673.9,479.3 L 674.8,480.2 L 675.9,481.8 L 676.6,483.7 L 678.9,490.8 L 688.9,523.5 L 689.3,524.3 L 689.7,525.1 L 690.1,525.8 L 690.5,526.5 L 691.3,527.4 L 692.1,528.3 L 693.0,529.1 L 694.1,529.7 L 695.1,530.3 L 696.2,530.8 L 697.5,531.1 L 698.6,531.3 L 699.6,531.2 L 700.8,531.0 L 701.9,530.7 L 703.1,530.1 L 704.4,529.2 L 705.8,528.0 L 706.9,526.7 L 707.8,525.2 L 709.3,522.6 L 710.2,521.1 L 711.1,519.0 L 712.0,517.0 L 713.1,514.1 L 714.1,511.6 L 715.6,507.9 L 717.1,503.4 L 718.3,499.3 L 719.5,494.7 L 720.7,489.8 L 721.7,485.3 L 722.5,480.7 L 723.1,475.6 L 723.6,470.4 L 723.8,467.0 L 723.8,464.1 L 723.9,460.6 L 723.8,458.1 L 723.4,455.6 L 722.8,453.3 L 722.0,451.2 L 721.2,449.7 L 720.3,448.3 L 719.0,446.8 L 714.7,442.6 L 707.2,436.0 L 697.9,426.9 L 689.4,419.1 L 681.0,411.4 L 621.6,357.1 L 592.5,330.8 L 576.1,315.8 L 572.6,312.7 L 543.6,286.6 L 515.3,261.5 L 512.7,259.6 L 510.7,258.3 L 509.0,257.4 L 507.0,256.5 L 504.9,255.7 L 502.9,255.1 L 501.2,254.6 L 499.7,254.3 L 498.6,254.1 L 496.4,253.9 L 494.2,253.9 L 492.0,253.9 L 489.8,254.0 L 487.6,254.3 L 485.4,254.8 L 483.3,255.4 L 481.2,256.2 L 479.2,257.1 L 478.3,257.6 L 476.6,258.6 L 475.9,259.1 L 475.1,259.8 L 474.4,260.4 L 473.2,261.7 L 472.7,262.4 L 471.9,263.3 L 471.3,264.2 L 470.7,265.2 L 470.2,266.4 L 469.6,267.9 L 469.2,269.5 L 469.0,271.1 L 466.4,298.9 L 465.8,302.2 L 464.9,305.1 L 464.2,306.6 L 463.3,308.1 L 462.2,309.7 L 461.0,311.3 L 459.9,312.7 L 458.5,313.9 L 456.7,315.3 L 455.4,316.3 L 454.3,317.0 L 453.4,317.4 L 452.3,317.9 L 450.9,318.5 L 449.3,319.1 L 447.9,319.4 L 446.5,319.6 L 445.0,319.8 L 443.3,319.9 L 441.7,319.8 L 440.0,319.6 L 438.6,319.3 L 437.0,318.8 L 435.5,318.2 L 433.7,317.4 L 431.7,316.4 L 430.1,315.4 L 428.7,314.3 L 427.7,313.3 L 426.7,312.3 L 425.7,311.1 L 424.4,309.3 L 424.0,308.5 L 423.2,307.2 L 422.4,305.8 L 421.9,304.5 L 421.5,303.4 L 421.2,302.3 L 420.9,301.3 L 420.7,300.4 L 420.4,299.3 L 420.3,297.9 L 420.2,296.9 L 420.2,295.7 L 420.3,294.6 L 420.4,293.5 L 420.6,291.9 L 421.0,290.4 L 421.4,288.7 L 422.3,286.5 L 423.2,284.8 L 430.3,270.7 L 438.6,253.9 L 444.8,241.2 L 447.6,235.5 L 448.3,234.1 L 449.2,232.5 L 450.1,231.1 L 450.9,229.7 L 452.5,227.3 L 454.0,225.3 L 455.3,223.6 L 457.5,221.1 L 460.0,218.2 L 462.6,215.3 L 464.9,212.8 L 467.1,210.6 L 472.5,205.8 L 478.4,201.1 L 481.2,199.0 L 483.6,197.3 L 485.5,195.9 L 489.9,193.3 L 494.1,191.0 L 497.1,189.7 L 499.9,188.5 L 503.7,187.3 L 508.3,186.0 L 511.9,185.1 L 515.3,184.4 L 519.2,183.8 L 523.1,183.2 L 528.0,182.6 L 535.1,181.8 L 553.5,179.9 L 611.0,174.5 L 685.9,168.4 L 694.2,168.1 L 696.5,168.0 L 698.5,168.0 L 700.6,168.2 L 702.6,168.6 L 705.9,169.5 L 708.5,170.5 L 711.2,171.6 L 714.2,173.1 L 717.6,175.2 L 721.6,178.4 L 724.2,180.9 L 725.9,182.8 L 727.5,184.8 L 728.8,186.9 L 730.1,189.0 L 731.4,191.4 L 733.6,197.3 L 735.8,203.4 L 737.5,208.3 L 738.9,213.0 L 740.9,219.8 L 745.6,236.5 L 748.8,249.7 L 750.2,257.0 L 752.1,266.9 L 753.8,277.4 L 754.5,283.2 L 755.0,289.0 L 755.7,297.4 L 756.3,305.5 L 757.1,317.3 L 757.9,330.5 L 758.8,350.3 L 759.4,369.9 L 759.6,375.2 L 759.9,380.2 L 760.1,383.0 L 760.5,385.8 L 761.0,388.7 L 761.8,392.1 L 762.9,395.7 L 763.7,397.9 L 764.7,400.5 L 766.0,403.5 L 767.4,406.4 L 768.4,408.6 L 769.5,410.4 L 770.9,412.9 L 772.5,415.2 L 776.7,421.7 L 777.8,423.9 L 778.7,426.0 L 779.4,428.3 L 779.7,429.6 L 780.0,430.9 L 780.1,432.1 L 780.3,433.7 L 780.3,434.8 L 780.3,436.1 L 780.2,437.7 L 780.1,438.9 L 779.9,440.1 L 779.7,441.3 L 779.2,443.0 L 778.6,445.0 L 778.2,446.5 L 777.3,448.9 L 774.3,456.6 L 771.6,464.1 L 769.7,469.3 L 768.4,472.9 L 767.4,475.6 L 766.0,479.6 L 765.6,480.9 L 765.2,482.9 L 764.6,485.6 L 764.2,488.2 L 763.8,491.0 L 763.6,493.6 L 763.5,496.4 L 763.5,498.8 L 763.8,501.7 L 764.2,503.9 L 764.9,506.7 L 765.7,509.1 L 766.4,511.1 L 767.4,513.4 L 768.8,515.7 L 769.8,517.2 L 771.4,519.3 L 778.8,528.8 L 781.0,531.4 L 782.0,532.7 L 783.1,534.3 L 784.0,535.7 L 784.9,537.8 L 785.8,540.3 L 786.2,541.7 L 786.8,543.7 L 787.2,546.7 L 787.4,548.6 L 787.4,550.3 L 787.3,552.3 L 787.2,554.2 L 786.9,556.7 L 786.4,558.7 L 785.7,560.9 L 784.8,562.9 L 783.8,564.9 L 782.1,568.0 L 780.9,569.6 L 779.2,571.5 L 777.5,573.3 L 774.0,576.2 L 773.8,576.3 L 772.1,577.5 L 770.4,578.8 L 768.1,580.2 L 765.9,581.6 L 763.0,583.5 L 760.1,585.3 L 757.6,586.8 L 754.8,588.5 L 752.7,589.8 L 751.2,590.6 L 749.0,591.8 L 746.0,593.5 L 743.0,595.4 L 741.8,596.4 L 740.0,597.7 L 737.9,599.3 L 736.5,600.6 L 735.1,602.0 L 733.6,603.6 L 732.5,604.8 L 731.4,606.4 L 730.2,608.0 L 728.8,610.2 L 727.3,612.7 L 725.5,616.2 L 694.8,672.1 L 670.6,718.5 L 636.9,782.2 L 625.1,804.1 L 619.6,814.3 L 613.9,824.6 L 612.1,827.7 L 608.5,833.8 L 606.0,838.1 L 604.2,840.9 L 602.6,843.5 L 599.2,848.9 L 596.1,853.7 L 591.0,861.5 L 586.9,867.5 L 584.8,870.6 L 583.1,873.2 L 579.0,879.0 L 576.4,882.5 L 573.5,886.7 L 570.4,890.9 L 568.1,893.8 L 566.6,895.6 L 564.9,897.6 L 563.5,899.0 L 562.3,900.2 L 560.7,901.5 L 559.7,902.3 L 558.5,903.2 L 557.2,904.2 L 555.6,905.3 L 553.6,906.2 L 551.2,907.3 L 549.3,908.0 L 547.2,908.6 L 545.1,909.2 L 542.5,909.6 L 540.6,909.8 L 538.7,909.9 L 537.1,910.0 L 535.0,910.0 L 531.7,909.7 L 529.3,909.3 L 527.0,908.6 L 524.7,907.9 L 522.5,907.1 L 520.2,906.1 L 517.5,904.7 L 515.4,903.4 L 513.5,902.0 L 512.2,901.0 L 511.0,899.9 L 509.4,898.5 L 508.2,897.3 L 506.8,895.7 L 505.8,894.3 L 504.6,892.6 L 503.3,890.6 L 502.4,888.9 L 501.2,886.5 L 499.9,883.3 L 498.8,880.4 L 497.6,877.7 L 496.4,874.9 L 495.2,872.6 L 494.0,870.2 L 492.9,868.0 L 491.4,865.2 L 489.9,862.5 L 488.0,859.2 L 485.6,855.4 L 479.7,846.3 L 477.8,843.5 L 475.5,840.1 L 472.3,835.7 L 470.3,833.2 L 468.6,831.0 L 466.4,828.3 L 464.4,826.1 L 459.5,820.6 L 457.4,818.5 L 443.4,803.7 L 433.7,792.7 L 418.4,774.5 L 412.0,767.0 L 410.7,765.6 L 409.1,764.6 L 407.6,764.0 L 405.6,763.8 L 403.8,764.1 L 402.0,764.6 L 400.4,765.5 L 398.7,766.8 L 389.1,776.4 L 388.3,777.1 L 386.7,778.2 L 384.4,779.0 L 381.4,779.4 L 380.3,779.4 L 378.7,779.4 L 376.6,778.9 L 374.8,778.2 L 373.1,777.3 L 371.1,775.7 L 368.5,773.2 L 364.7,769.1 L 361.1,765.0 L 357.9,760.9 L 356.9,759.5 L 354.3,755.7 L 352.3,752.1 L 349.9,747.4 L 347.7,742.3 L 345.9,737.1 L 344.8,732.9 L 343.7,728.4 L 343.4,726.3 L 343.0,724.1 L 342.6,720.7 L 342.8,717.6 L 343.2,715.1 L 344.0,712.9 L 345.0,711.1 L 346.6,709.0 L 350.0,704.7 L 350.6,703.9 L 352.2,701.8 L 367.5,681.8 L 407.0,630.0 L 451.4,571.8 L 467.3,551.1 L 470.5,546.9 L 473.7,543.1 L 475.2,541.3 L 476.0,540.5 L 476.9,539.8 L 478.1,539.0 L 479.5,538.3 L 481.0,537.6 L 482.5,536.9 L 483.8,536.5 L 485.5,536.0 L 487.3,535.5 L 489.0,535.2 L 491.4,534.8 L 494.2,534.5 L 496.6,534.2 L 498.6,534.1 L 501.5,534.1 L 505.7,534.1 L 508.0,534.3 L 510.3,534.6 L 515.5,535.3 L 521.2,536.2 L 528.1,537.2 L 546.4,540.1 L 551.9,540.9 L 554.8,541.2 L 557.9,541.3 L 561.2,541.3 L 565.0,540.9 L 568.3,540.5 L 571.5,539.9 L 574.7,539.1 L 577.7,538.3 L 580.0,537.5 L 583.2,536.3 L 586.1,535.0 L 589.4,533.3 L 592.6,531.3 L 597.6,527.5 Z" fill="none" stroke="#000000" stroke-opacity="0.5" stroke-width="13" stroke-linejoin="round" stroke-linecap="round"/>
<path d="M 597.6,527.5 L 658.1,479.0 L 660.4,477.7 L 661.9,477.0 L 663.2,476.7 L 664.5,476.5 L 665.9,476.3 L 667.2,476.3 L 668.3,476.4 L 669.4,476.7 L 670.8,477.2 L 671.8,477.8 L 672.9,478.5 L 673.9,479.3 L 674.8,480.2 L 675.9,481.8 L 676.6,483.7 L 678.9,490.8 L 688.9,523.5 L 689.3,524.3 L 689.7,525.1 L 690.1,525.8 L 690.5,526.5 L 691.3,527.4 L 692.1,528.3 L 693.0,529.1 L 694.1,529.7 L 695.1,530.3 L 696.2,530.8 L 697.5,531.1 L 698.6,531.3 L 699.6,531.2 L 700.8,531.0 L 701.9,530.7 L 703.1,530.1 L 704.4,529.2 L 705.8,528.0 L 706.9,526.7 L 707.8,525.2 L 709.3,522.6 L 710.2,521.1 L 711.1,519.0 L 712.0,517.0 L 713.1,514.1 L 714.1,511.6 L 715.6,507.9 L 717.1,503.4 L 718.3,499.3 L 719.5,494.7 L 720.7,489.8 L 721.7,485.3 L 722.5,480.7 L 723.1,475.6 L 723.6,470.4 L 723.8,467.0 L 723.8,464.1 L 723.9,460.6 L 723.8,458.1 L 723.4,455.6 L 722.8,453.3 L 722.0,451.2 L 721.2,449.7 L 720.3,448.3 L 719.0,446.8 L 714.7,442.6 L 707.2,436.0 L 697.9,426.9 L 689.4,419.1 L 681.0,411.4 L 621.6,357.1 L 592.5,330.8 L 576.1,315.8 L 572.6,312.7 L 543.6,286.6 L 515.3,261.5 L 512.7,259.6 L 510.7,258.3 L 509.0,257.4 L 507.0,256.5 L 504.9,255.7 L 502.9,255.1 L 501.2,254.6 L 499.7,254.3 L 498.6,254.1 L 496.4,253.9 L 494.2,253.9 L 492.0,253.9 L 489.8,254.0 L 487.6,254.3 L 485.4,254.8 L 483.3,255.4 L 481.2,256.2 L 479.2,257.1 L 478.3,257.6 L 476.6,258.6 L 475.9,259.1 L 475.1,259.8 L 474.4,260.4 L 473.2,261.7 L 472.7,262.4 L 471.9,263.3 L 471.3,264.2 L 470.7,265.2 L 470.2,266.4 L 469.6,267.9 L 469.2,269.5 L 469.0,271.1 L 466.4,298.9 L 465.8,302.2 L 464.9,305.1 L 464.2,306.6 L 463.3,308.1 L 462.2,309.7 L 461.0,311.3 L 459.9,312.7 L 458.5,313.9 L 456.7,315.3 L 455.4,316.3 L 454.3,317.0 L 453.4,317.4 L 452.3,317.9 L 450.9,318.5 L 449.3,319.1 L 447.9,319.4 L 446.5,319.6 L 445.0,319.8 L 443.3,319.9 L 441.7,319.8 L 440.0,319.6 L 438.6,319.3 L 437.0,318.8 L 435.5,318.2 L 433.7,317.4 L 431.7,316.4 L 430.1,315.4 L 428.7,314.3 L 427.7,313.3 L 426.7,312.3 L 425.7,311.1 L 424.4,309.3 L 424.0,308.5 L 423.2,307.2 L 422.4,305.8 L 421.9,304.5 L 421.5,303.4 L 421.2,302.3 L 420.9,301.3 L 420.7,300.4 L 420.4,299.3 L 420.3,297.9 L 420.2,296.9 L 420.2,295.7 L 420.3,294.6 L 420.4,293.5 L 420.6,291.9 L 421.0,290.4 L 421.4,288.7 L 422.3,286.5 L 423.2,284.8 L 430.3,270.7 L 438.6,253.9 L 444.8,241.2 L 447.6,235.5 L 448.3,234.1 L 449.2,232.5 L 450.1,231.1 L 450.9,229.7 L 452.5,227.3 L 454.0,225.3 L 455.3,223.6 L 457.5,221.1 L 460.0,218.2 L 462.6,215.3 L 464.9,212.8 L 467.1,210.6 L 472.5,205.8 L 478.4,201.1 L 481.2,199.0 L 483.6,197.3 L 485.5,195.9 L 489.9,193.3 L 494.1,191.0 L 497.1,189.7 L 499.9,188.5 L 503.7,187.3 L 508.3,186.0 L 511.9,185.1 L 515.3,184.4 L 519.2,183.8 L 523.1,183.2 L 528.0,182.6 L 535.1,181.8 L 553.5,179.9 L 611.0,174.5 L 685.9,168.4 L 694.2,168.1 L 696.5,168.0 L 698.5,168.0 L 700.6,168.2 L 702.6,168.6 L 705.9,169.5 L 708.5,170.5 L 711.2,171.6 L 714.2,173.1 L 717.6,175.2 L 721.6,178.4 L 724.2,180.9 L 725.9,182.8 L 727.5,184.8 L 728.8,186.9 L 730.1,189.0 L 731.4,191.4 L 733.6,197.3 L 735.8,203.4 L 737.5,208.3 L 738.9,213.0 L 740.9,219.8 L 745.6,236.5 L 748.8,249.7 L 750.2,257.0 L 752.1,266.9 L 753.8,277.4 L 754.5,283.2 L 755.0,289.0 L 755.7,297.4 L 756.3,305.5 L 757.1,317.3 L 757.9,330.5 L 758.8,350.3 L 759.4,369.9 L 759.6,375.2 L 759.9,380.2 L 760.1,383.0 L 760.5,385.8 L 761.0,388.7 L 761.8,392.1 L 762.9,395.7 L 763.7,397.9 L 764.7,400.5 L 766.0,403.5 L 767.4,406.4 L 768.4,408.6 L 769.5,410.4 L 770.9,412.9 L 772.5,415.2 L 776.7,421.7 L 777.8,423.9 L 778.7,426.0 L 779.4,428.3 L 779.7,429.6 L 780.0,430.9 L 780.1,432.1 L 780.3,433.7 L 780.3,434.8 L 780.3,436.1 L 780.2,437.7 L 780.1,438.9 L 779.9,440.1 L 779.7,441.3 L 779.2,443.0 L 778.6,445.0 L 778.2,446.5 L 777.3,448.9 L 774.3,456.6 L 771.6,464.1 L 769.7,469.3 L 768.4,472.9 L 767.4,475.6 L 766.0,479.6 L 765.6,480.9 L 765.2,482.9 L 764.6,485.6 L 764.2,488.2 L 763.8,491.0 L 763.6,493.6 L 763.5,496.4 L 763.5,498.8 L 763.8,501.7 L 764.2,503.9 L 764.9,506.7 L 765.7,509.1 L 766.4,511.1 L 767.4,513.4 L 768.8,515.7 L 769.8,517.2 L 771.4,519.3 L 778.8,528.8 L 781.0,531.4 L 782.0,532.7 L 783.1,534.3 L 784.0,535.7 L 784.9,537.8 L 785.8,540.3 L 786.2,541.7 L 786.8,543.7 L 787.2,546.7 L 787.4,548.6 L 787.4,550.3 L 787.3,552.3 L 787.2,554.2 L 786.9,556.7 L 786.4,558.7 L 785.7,560.9 L 784.8,562.9 L 783.8,564.9 L 782.1,568.0 L 780.9,569.6 L 779.2,571.5 L 777.5,573.3 L 774.0,576.2 L 773.8,576.3 L 772.1,577.5 L 770.4,578.8 L 768.1,580.2 L 765.9,581.6 L 763.0,583.5 L 760.1,585.3 L 757.6,586.8 L 754.8,588.5 L 752.7,589.8 L 751.2,590.6 L 749.0,591.8 L 746.0,593.5 L 743.0,595.4 L 741.8,596.4 L 740.0,597.7 L 737.9,599.3 L 736.5,600.6 L 735.1,602.0 L 733.6,603.6 L 732.5,604.8 L 731.4,606.4 L 730.2,608.0 L 728.8,610.2 L 727.3,612.7 L 725.5,616.2 L 694.8,672.1 L 670.6,718.5 L 636.9,782.2 L 625.1,804.1 L 619.6,814.3 L 613.9,824.6 L 612.1,827.7 L 608.5,833.8 L 606.0,838.1 L 604.2,840.9 L 602.6,843.5 L 599.2,848.9 L 596.1,853.7 L 591.0,861.5 L 586.9,867.5 L 584.8,870.6 L 583.1,873.2 L 579.0,879.0 L 576.4,882.5 L 573.5,886.7 L 570.4,890.9 L 568.1,893.8 L 566.6,895.6 L 564.9,897.6 L 563.5,899.0 L 562.3,900.2 L 560.7,901.5 L 559.7,902.3 L 558.5,903.2 L 557.2,904.2 L 555.6,905.3 L 553.6,906.2 L 551.2,907.3 L 549.3,908.0 L 547.2,908.6 L 545.1,909.2 L 542.5,909.6 L 540.6,909.8 L 538.7,909.9 L 537.1,910.0 L 535.0,910.0 L 531.7,909.7 L 529.3,909.3 L 527.0,908.6 L 524.7,907.9 L 522.5,907.1 L 520.2,906.1 L 517.5,904.7 L 515.4,903.4 L 513.5,902.0 L 512.2,901.0 L 511.0,899.9 L 509.4,898.5 L 508.2,897.3 L 506.8,895.7 L 505.8,894.3 L 504.6,892.6 L 503.3,890.6 L 502.4,888.9 L 501.2,886.5 L 499.9,883.3 L 498.8,880.4 L 497.6,877.7 L 496.4,874.9 L 495.2,872.6 L 494.0,870.2 L 492.9,868.0 L 491.4,865.2 L 489.9,862.5 L 488.0,859.2 L 485.6,855.4 L 479.7,846.3 L 477.8,843.5 L 475.5,840.1 L 472.3,835.7 L 470.3,833.2 L 468.6,831.0 L 466.4,828.3 L 464.4,826.1 L 459.5,820.6 L 457.4,818.5 L 443.4,803.7 L 433.7,792.7 L 418.4,774.5 L 412.0,767.0 L 410.7,765.6 L 409.1,764.6 L 407.6,764.0 L 405.6,763.8 L 403.8,764.1 L 402.0,764.6 L 400.4,765.5 L 398.7,766.8 L 389.1,776.4 L 388.3,777.1 L 386.7,778.2 L 384.4,779.0 L 381.4,779.4 L 380.3,779.4 L 378.7,779.4 L 376.6,778.9 L 374.8,778.2 L 373.1,777.3 L 371.1,775.7 L 368.5,773.2 L 364.7,769.1 L 361.1,765.0 L 357.9,760.9 L 356.9,759.5 L 354.3,755.7 L 352.3,752.1 L 349.9,747.4 L 347.7,742.3 L 345.9,737.1 L 344.8,732.9 L 343.7,728.4 L 343.4,726.3 L 343.0,724.1 L 342.6,720.7 L 342.8,717.6 L 343.2,715.1 L 344.0,712.9 L 345.0,711.1 L 346.6,709.0 L 350.0,704.7 L 350.6,703.9 L 352.2,701.8 L 367.5,681.8 L 407.0,630.0 L 451.4,571.8 L 467.3,551.1 L 470.5,546.9 L 473.7,543.1 L 475.2,541.3 L 476.0,540.5 L 476.9,539.8 L 478.1,539.0 L 479.5,538.3 L 481.0,537.6 L 482.5,536.9 L 483.8,536.5 L 485.5,536.0 L 487.3,535.5 L 489.0,535.2 L 491.4,534.8 L 494.2,534.5 L 496.6,534.2 L 498.6,534.1 L 501.5,534.1 L 505.7,534.1 L 508.0,534.3 L 510.3,534.6 L 515.5,535.3 L 521.2,536.2 L 528.1,537.2 L 546.4,540.1 L 551.9,540.9 L 554.8,541.2 L 557.9,541.3 L 561.2,541.3 L 565.0,540.9 L 568.3,540.5 L 571.5,539.9 L 574.7,539.1 L 577.7,538.3 L 580.0,537.5 L 583.2,536.3 L 586.1,535.0 L 589.4,533.3 L 592.6,531.3 L 597.6,527.5 Z" fill="none" stroke="#39404f" stroke-width="8.5" stroke-linejoin="round" stroke-linecap="round"/>
<path d="M 597.6,527.5 L 658.1,479.0 L 660.4,477.7 L 661.9,477.0 L 663.2,476.7 L 664.5,476.5 L 665.9,476.3 L 667.2,476.3 L 668.3,476.4 L 669.4,476.7 L 670.8,477.2 L 671.8,477.8 L 672.9,478.5 L 673.9,479.3 L 674.8,480.2 L 675.9,481.8 L 676.6,483.7 L 678.9,490.8 L 688.9,523.5 L 689.3,524.3 L 689.7,525.1 L 690.1,525.8 L 690.5,526.5 L 691.3,527.4 L 692.1,528.3 L 693.0,529.1 L 694.1,529.7 L 695.1,530.3 L 696.2,530.8 L 697.5,531.1 L 698.6,531.3 L 699.6,531.2 L 700.8,531.0 L 701.9,530.7 L 703.1,530.1 L 704.4,529.2 L 705.8,528.0 L 706.9,526.7 L 707.8,525.2 L 709.3,522.6 L 710.2,521.1 L 711.1,519.0 L 712.0,517.0 L 713.1,514.1 L 714.1,511.6 L 715.6,507.9 L 717.1,503.4 L 718.3,499.3 L 719.5,494.7 L 720.7,489.8 L 721.7,485.3 L 722.5,480.7 L 723.1,475.6 L 723.6,470.4 L 723.8,467.0 L 723.8,464.1 L 723.9,460.6 L 723.8,458.1 L 723.4,455.6 L 722.8,453.3 L 722.0,451.2 L 721.2,449.7 L 720.3,448.3 L 719.0,446.8 L 714.7,442.6 L 707.2,436.0 L 697.9,426.9 L 689.4,419.1 L 681.0,411.4 L 621.6,357.1 L 592.5,330.8 L 576.1,315.8 L 572.6,312.7 L 543.6,286.6 L 515.3,261.5 L 512.7,259.6 L 510.7,258.3 L 509.0,257.4 L 507.0,256.5 L 504.9,255.7 L 502.9,255.1 L 501.2,254.6 L 499.7,254.3 L 498.6,254.1 L 496.4,253.9 L 494.2,253.9 L 492.0,253.9 L 489.8,254.0 L 487.6,254.3 L 485.4,254.8 L 483.3,255.4 L 481.2,256.2 L 479.2,257.1 L 478.3,257.6 L 476.6,258.6 L 475.9,259.1 L 475.1,259.8 L 474.4,260.4 L 473.2,261.7 L 472.7,262.4 L 471.9,263.3 L 471.3,264.2 L 470.7,265.2 L 470.2,266.4 L 469.6,267.9 L 469.2,269.5 L 469.0,271.1 L 466.4,298.9 L 465.8,302.2 L 464.9,305.1 L 464.2,306.6 L 463.3,308.1 L 462.2,309.7 L 461.0,311.3 L 459.9,312.7 L 458.5,313.9 L 456.7,315.3 L 455.4,316.3 L 454.3,317.0 L 453.4,317.4 L 452.3,317.9 L 450.9,318.5 L 449.3,319.1 L 447.9,319.4 L 446.5,319.6 L 445.0,319.8 L 443.3,319.9 L 441.7,319.8 L 440.0,319.6 L 438.6,319.3 L 437.0,318.8 L 435.5,318.2 L 433.7,317.4 L 431.7,316.4 L 430.1,315.4 L 428.7,314.3 L 427.7,313.3 L 426.7,312.3 L 425.7,311.1 L 424.4,309.3 L 424.0,308.5 L 423.2,307.2 L 422.4,305.8 L 421.9,304.5 L 421.5,303.4 L 421.2,302.3 L 420.9,301.3 L 420.7,300.4 L 420.4,299.3 L 420.3,297.9 L 420.2,296.9 L 420.2,295.7 L 420.3,294.6 L 420.4,293.5 L 420.6,291.9 L 421.0,290.4 L 421.4,288.7 L 422.3,286.5 L 423.2,284.8 L 430.3,270.7 L 438.6,253.9 L 444.8,241.2 L 447.6,235.5 L 448.3,234.1 L 449.2,232.5 L 450.1,231.1 L 450.9,229.7 L 452.5,227.3 L 454.0,225.3 L 455.3,223.6 L 457.5,221.1 L 460.0,218.2 L 462.6,215.3 L 464.9,212.8 L 467.1,210.6 L 472.5,205.8 L 478.4,201.1 L 481.2,199.0 L 483.6,197.3 L 485.5,195.9 L 489.9,193.3 L 494.1,191.0 L 497.1,189.7 L 499.9,188.5 L 503.7,187.3 L 508.3,186.0 L 511.9,185.1 L 515.3,184.4 L 519.2,183.8 L 523.1,183.2 L 528.0,182.6 L 535.1,181.8 L 553.5,179.9 L 611.0,174.5 L 685.9,168.4 L 694.2,168.1 L 696.5,168.0 L 698.5,168.0 L 700.6,168.2 L 702.6,168.6 L 705.9,169.5 L 708.5,170.5 L 711.2,171.6 L 714.2,173.1 L 717.6,175.2 L 721.6,178.4 L 724.2,180.9 L 725.9,182.8 L 727.5,184.8 L 728.8,186.9 L 730.1,189.0 L 731.4,191.4 L 733.6,197.3 L 735.8,203.4 L 737.5,208.3 L 738.9,213.0 L 740.9,219.8 L 745.6,236.5 L 748.8,249.7 L 750.2,257.0 L 752.1,266.9 L 753.8,277.4 L 754.5,283.2 L 755.0,289.0 L 755.7,297.4 L 756.3,305.5 L 757.1,317.3 L 757.9,330.5 L 758.8,350.3 L 759.4,369.9 L 759.6,375.2 L 759.9,380.2 L 760.1,383.0 L 760.5,385.8 L 761.0,388.7 L 761.8,392.1 L 762.9,395.7 L 763.7,397.9 L 764.7,400.5 L 766.0,403.5 L 767.4,406.4 L 768.4,408.6 L 769.5,410.4 L 770.9,412.9 L 772.5,415.2 L 776.7,421.7 L 777.8,423.9 L 778.7,426.0 L 779.4,428.3 L 779.7,429.6 L 780.0,430.9 L 780.1,432.1 L 780.3,433.7 L 780.3,434.8 L 780.3,436.1 L 780.2,437.7 L 780.1,438.9 L 779.9,440.1 L 779.7,441.3 L 779.2,443.0 L 778.6,445.0 L 778.2,446.5 L 777.3,448.9 L 774.3,456.6 L 771.6,464.1 L 769.7,469.3 L 768.4,472.9 L 767.4,475.6 L 766.0,479.6 L 765.6,480.9 L 765.2,482.9 L 764.6,485.6 L 764.2,488.2 L 763.8,491.0 L 763.6,493.6 L 763.5,496.4 L 763.5,498.8 L 763.8,501.7 L 764.2,503.9 L 764.9,506.7 L 765.7,509.1 L 766.4,511.1 L 767.4,513.4 L 768.8,515.7 L 769.8,517.2 L 771.4,519.3 L 778.8,528.8 L 781.0,531.4 L 782.0,532.7 L 783.1,534.3 L 784.0,535.7 L 784.9,537.8 L 785.8,540.3 L 786.2,541.7 L 786.8,543.7 L 787.2,546.7 L 787.4,548.6 L 787.4,550.3 L 787.3,552.3 L 787.2,554.2 L 786.9,556.7 L 786.4,558.7 L 785.7,560.9 L 784.8,562.9 L 783.8,564.9 L 782.1,568.0 L 780.9,569.6 L 779.2,571.5 L 777.5,573.3 L 774.0,576.2 L 773.8,576.3 L 772.1,577.5 L 770.4,578.8 L 768.1,580.2 L 765.9,581.6 L 763.0,583.5 L 760.1,585.3 L 757.6,586.8 L 754.8,588.5 L 752.7,589.8 L 751.2,590.6 L 749.0,591.8 L 746.0,593.5 L 743.0,595.4 L 741.8,596.4 L 740.0,597.7 L 737.9,599.3 L 736.5,600.6 L 735.1,602.0 L 733.6,603.6 L 732.5,604.8 L 731.4,606.4 L 730.2,608.0 L 728.8,610.2 L 727.3,612.7 L 725.5,616.2 L 694.8,672.1 L 670.6,718.5 L 636.9,782.2 L 625.1,804.1 L 619.6,814.3 L 613.9,824.6 L 612.1,827.7 L 608.5,833.8 L 606.0,838.1 L 604.2,840.9 L 602.6,843.5 L 599.2,848.9 L 596.1,853.7 L 591.0,861.5 L 586.9,867.5 L 584.8,870.6 L 583.1,873.2 L 579.0,879.0 L 576.4,882.5 L 573.5,886.7 L 570.4,890.9 L 568.1,893.8 L 566.6,895.6 L 564.9,897.6 L 563.5,899.0 L 562.3,900.2 L 560.7,901.5 L 559.7,902.3 L 558.5,903.2 L 557.2,904.2 L 555.6,905.3 L 553.6,906.2 L 551.2,907.3 L 549.3,908.0 L 547.2,908.6 L 545.1,909.2 L 542.5,909.6 L 540.6,909.8 L 538.7,909.9 L 537.1,910.0 L 535.0,910.0 L 531.7,909.7 L 529.3,909.3 L 527.0,908.6 L 524.7,907.9 L 522.5,907.1 L 520.2,906.1 L 517.5,904.7 L 515.4,903.4 L 513.5,902.0 L 512.2,901.0 L 511.0,899.9 L 509.4,898.5 L 508.2,897.3 L 506.8,895.7 L 505.8,894.3 L 504.6,892.6 L 503.3,890.6 L 502.4,888.9 L 501.2,886.5 L 499.9,883.3 L 498.8,880.4 L 497.6,877.7 L 496.4,874.9 L 495.2,872.6 L 494.0,870.2 L 492.9,868.0 L 491.4,865.2 L 489.9,862.5 L 488.0,859.2 L 485.6,855.4 L 479.7,846.3 L 477.8,843.5 L 475.5,840.1 L 472.3,835.7 L 470.3,833.2 L 468.6,831.0 L 466.4,828.3 L 464.4,826.1 L 459.5,820.6 L 457.4,818.5 L 443.4,803.7 L 433.7,792.7 L 418.4,774.5 L 412.0,767.0 L 410.7,765.6 L 409.1,764.6 L 407.6,764.0 L 405.6,763.8 L 403.8,764.1 L 402.0,764.6 L 400.4,765.5 L 398.7,766.8 L 389.1,776.4 L 388.3,777.1 L 386.7,778.2 L 384.4,779.0 L 381.4,779.4 L 380.3,779.4 L 378.7,779.4 L 376.6,778.9 L 374.8,778.2 L 373.1,777.3 L 371.1,775.7 L 368.5,773.2 L 364.7,769.1 L 361.1,765.0 L 357.9,760.9 L 356.9,759.5 L 354.3,755.7 L 352.3,752.1 L 349.9,747.4 L 347.7,742.3 L 345.9,737.1 L 344.8,732.9 L 343.7,728.4 L 343.4,726.3 L 343.0,724.1 L 342.6,720.7 L 342.8,717.6 L 343.2,715.1 L 344.0,712.9 L 345.0,711.1 L 346.6,709.0 L 350.0,704.7 L 350.6,703.9 L 352.2,701.8 L 367.5,681.8 L 407.0,630.0 L 451.4,571.8 L 467.3,551.1 L 470.5,546.9 L 473.7,543.1 L 475.2,541.3 L 476.0,540.5 L 476.9,539.8 L 478.1,539.0 L 479.5,538.3 L 481.0,537.6 L 482.5,536.9 L 483.8,536.5 L 485.5,536.0 L 487.3,535.5 L 489.0,535.2 L 491.4,534.8 L 494.2,534.5 L 496.6,534.2 L 498.6,534.1 L 501.5,534.1 L 505.7,534.1 L 508.0,534.3 L 510.3,534.6 L 515.5,535.3 L 521.2,536.2 L 528.1,537.2 L 546.4,540.1 L 551.9,540.9 L 554.8,541.2 L 557.9,541.3 L 561.2,541.3 L 565.0,540.9 L 568.3,540.5 L 571.5,539.9 L 574.7,539.1 L 577.7,538.3 L 580.0,537.5 L 583.2,536.3 L 586.1,535.0 L 589.4,533.3 L 592.6,531.3 L 597.6,527.5 Z" fill="none" stroke="#e7edf8" stroke-width="2.6" stroke-linejoin="round" stroke-linecap="round"/>
<path d="M 597.6,527.5 L 658.1,479.0 L 660.4,477.7 L 661.9,477.0 L 663.2,476.7 L 664.5,476.5 L 665.9,476.3 L 667.2,476.3 L 668.3,476.4 L 669.4,476.7 L 670.8,477.2 L 671.8,477.8 L 672.9,478.5 L 673.9,479.3 L 674.8,480.2 L 675.9,481.8 L 676.6,483.7 L 678.9,490.8 L 688.9,523.5 L 689.3,524.3 L 689.7,525.1 L 690.1,525.8 L 690.5,526.5 L 691.3,527.4 L 692.1,528.3 L 693.0,529.1 L 694.1,529.7 L 695.1,530.3 L 696.2,530.8 L 697.5,531.1 L 698.6,531.3 L 699.6,531.2 L 700.8,531.0 L 701.9,530.7 L 703.1,530.1 L 704.4,529.2 L 705.8,528.0 L 706.9,526.7 L 707.8,525.2 L 709.3,522.6 L 710.2,521.1 L 711.1,519.0 L 712.0,517.0 L 713.1,514.1 L 714.1,511.6 L 715.6,507.9 L 717.1,503.4 L 718.3,499.3 L 719.5,494.7 L 720.7,489.8 L 721.7,485.3 L 722.5,480.7 L 723.1,475.6 L 723.6,470.4 L 723.8,467.0 L 723.8,464.1 L 723.9,460.6 L 723.8,458.1 L 723.4,455.6 L 722.8,453.3 L 722.0,451.2 L 721.2,449.7 L 720.3,448.3 L 719.0,446.8 L 714.7,442.6 L 707.2,436.0 L 697.9,426.9 L 689.4,419.1 L 681.0,411.4 L 621.6,357.1 L 592.5,330.8 L 576.1,315.8 L 572.6,312.7 L 543.6,286.6 L 515.3,261.5 L 512.7,259.6 L 510.7,258.3 L 509.0,257.4 L 507.0,256.5 L 504.9,255.7 L 502.9,255.1 L 501.2,254.6 L 499.7,254.3 L 498.6,254.1 L 496.4,253.9 L 494.2,253.9 L 492.0,253.9 L 489.8,254.0 L 487.6,254.3 L 485.4,254.8 L 483.3,255.4 L 481.2,256.2 L 479.2,257.1 L 478.3,257.6 L 476.6,258.6 L 475.9,259.1 L 475.1,259.8 L 474.4,260.4 L 473.2,261.7 L 472.7,262.4 L 471.9,263.3 L 471.3,264.2 L 470.7,265.2 L 470.2,266.4 L 469.6,267.9 L 469.2,269.5 L 469.0,271.1 L 466.4,298.9 L 465.8,302.2 L 464.9,305.1 L 464.2,306.6 L 463.3,308.1 L 462.2,309.7 L 461.0,311.3 L 459.9,312.7 L 458.5,313.9 L 456.7,315.3 L 455.4,316.3 L 454.3,317.0 L 453.4,317.4 L 452.3,317.9 L 450.9,318.5 L 449.3,319.1 L 447.9,319.4 L 446.5,319.6 L 445.0,319.8 L 443.3,319.9 L 441.7,319.8 L 440.0,319.6 L 438.6,319.3 L 437.0,318.8 L 435.5,318.2 L 433.7,317.4 L 431.7,316.4 L 430.1,315.4 L 428.7,314.3 L 427.7,313.3 L 426.7,312.3 L 425.7,311.1 L 424.4,309.3 L 424.0,308.5 L 423.2,307.2 L 422.4,305.8 L 421.9,304.5 L 421.5,303.4 L 421.2,302.3 L 420.9,301.3 L 420.7,300.4 L 420.4,299.3 L 420.3,297.9 L 420.2,296.9 L 420.2,295.7 L 420.3,294.6 L 420.4,293.5 L 420.6,291.9 L 421.0,290.4 L 421.4,288.7 L 422.3,286.5 L 423.2,284.8 L 430.3,270.7 L 438.6,253.9 L 444.8,241.2 L 447.6,235.5 L 448.3,234.1 L 449.2,232.5 L 450.1,231.1 L 450.9,229.7 L 452.5,227.3 L 454.0,225.3 L 455.3,223.6 L 457.5,221.1 L 460.0,218.2 L 462.6,215.3 L 464.9,212.8 L 467.1,210.6 L 472.5,205.8 L 478.4,201.1 L 481.2,199.0 L 483.6,197.3 L 485.5,195.9 L 489.9,193.3 L 494.1,191.0 L 497.1,189.7 L 499.9,188.5 L 503.7,187.3 L 508.3,186.0 L 511.9,185.1 L 515.3,184.4 L 519.2,183.8 L 523.1,183.2 L 528.0,182.6 L 535.1,181.8 L 553.5,179.9 L 611.0,174.5 L 685.9,168.4 L 694.2,168.1 L 696.5,168.0 L 698.5,168.0 L 700.6,168.2 L 702.6,168.6 L 705.9,169.5 L 708.5,170.5 L 711.2,171.6 L 714.2,173.1 L 717.6,175.2 L 721.6,178.4 L 724.2,180.9 L 725.9,182.8 L 727.5,184.8 L 728.8,186.9 L 730.1,189.0 L 731.4,191.4 L 733.6,197.3 L 735.8,203.4 L 737.5,208.3 L 738.9,213.0 L 740.9,219.8 L 745.6,236.5 L 748.8,249.7 L 750.2,257.0 L 752.1,266.9 L 753.8,277.4 L 754.5,283.2 L 755.0,289.0 L 755.7,297.4 L 756.3,305.5 L 757.1,317.3 L 757.9,330.5 L 758.8,350.3 L 759.4,369.9 L 759.6,375.2 L 759.9,380.2 L 760.1,383.0 L 760.5,385.8 L 761.0,388.7 L 761.8,392.1 L 762.9,395.7 L 763.7,397.9 L 764.7,400.5 L 766.0,403.5 L 767.4,406.4 L 768.4,408.6 L 769.5,410.4 L 770.9,412.9 L 772.5,415.2 L 776.7,421.7 L 777.8,423.9 L 778.7,426.0 L 779.4,428.3 L 779.7,429.6 L 780.0,430.9 L 780.1,432.1 L 780.3,433.7 L 780.3,434.8 L 780.3,436.1 L 780.2,437.7 L 780.1,438.9 L 779.9,440.1 L 779.7,441.3 L 779.2,443.0 L 778.6,445.0 L 778.2,446.5 L 777.3,448.9 L 774.3,456.6 L 771.6,464.1 L 769.7,469.3 L 768.4,472.9 L 767.4,475.6 L 766.0,479.6 L 765.6,480.9 L 765.2,482.9 L 764.6,485.6 L 764.2,488.2 L 763.8,491.0 L 763.6,493.6 L 763.5,496.4 L 763.5,498.8 L 763.8,501.7 L 764.2,503.9 L 764.9,506.7 L 765.7,509.1 L 766.4,511.1 L 767.4,513.4 L 768.8,515.7 L 769.8,517.2 L 771.4,519.3 L 778.8,528.8 L 781.0,531.4 L 782.0,532.7 L 783.1,534.3 L 784.0,535.7 L 784.9,537.8 L 785.8,540.3 L 786.2,541.7 L 786.8,543.7 L 787.2,546.7 L 787.4,548.6 L 787.4,550.3 L 787.3,552.3 L 787.2,554.2 L 786.9,556.7 L 786.4,558.7 L 785.7,560.9 L 784.8,562.9 L 783.8,564.9 L 782.1,568.0 L 780.9,569.6 L 779.2,571.5 L 777.5,573.3 L 774.0,576.2 L 773.8,576.3 L 772.1,577.5 L 770.4,578.8 L 768.1,580.2 L 765.9,581.6 L 763.0,583.5 L 760.1,585.3 L 757.6,586.8 L 754.8,588.5 L 752.7,589.8 L 751.2,590.6 L 749.0,591.8 L 746.0,593.5 L 743.0,595.4 L 741.8,596.4 L 740.0,597.7 L 737.9,599.3 L 736.5,600.6 L 735.1,602.0 L 733.6,603.6 L 732.5,604.8 L 731.4,606.4 L 730.2,608.0 L 728.8,610.2 L 727.3,612.7 L 725.5,616.2 L 694.8,672.1 L 670.6,718.5 L 636.9,782.2 L 625.1,804.1 L 619.6,814.3 L 613.9,824.6 L 612.1,827.7 L 608.5,833.8 L 606.0,838.1 L 604.2,840.9 L 602.6,843.5 L 599.2,848.9 L 596.1,853.7 L 591.0,861.5 L 586.9,867.5 L 584.8,870.6 L 583.1,873.2 L 579.0,879.0 L 576.4,882.5 L 573.5,886.7 L 570.4,890.9 L 568.1,893.8 L 566.6,895.6 L 564.9,897.6 L 563.5,899.0 L 562.3,900.2 L 560.7,901.5 L 559.7,902.3 L 558.5,903.2 L 557.2,904.2 L 555.6,905.3 L 553.6,906.2 L 551.2,907.3 L 549.3,908.0 L 547.2,908.6 L 545.1,909.2 L 542.5,909.6 L 540.6,909.8 L 538.7,909.9 L 537.1,910.0 L 535.0,910.0 L 531.7,909.7 L 529.3,909.3 L 527.0,908.6 L 524.7,907.9 L 522.5,907.1 L 520.2,906.1 L 517.5,904.7 L 515.4,903.4 L 513.5,902.0 L 512.2,901.0 L 511.0,899.9 L 509.4,898.5 L 508.2,897.3 L 506.8,895.7 L 505.8,894.3 L 504.6,892.6 L 503.3,890.6 L 502.4,888.9 L 501.2,886.5 L 499.9,883.3 L 498.8,880.4 L 497.6,877.7 L 496.4,874.9 L 495.2,872.6 L 494.0,870.2 L 492.9,868.0 L 491.4,865.2 L 489.9,862.5 L 488.0,859.2 L 485.6,855.4 L 479.7,846.3 L 477.8,843.5 L 475.5,840.1 L 472.3,835.7 L 470.3,833.2 L 468.6,831.0 L 466.4,828.3 L 464.4,826.1 L 459.5,820.6 L 457.4,818.5 L 443.4,803.7 L 433.7,792.7 L 418.4,774.5 L 412.0,767.0 L 410.7,765.6 L 409.1,764.6 L 407.6,764.0 L 405.6,763.8 L 403.8,764.1 L 402.0,764.6 L 400.4,765.5 L 398.7,766.8 L 389.1,776.4 L 388.3,777.1 L 386.7,778.2 L 384.4,779.0 L 381.4,779.4 L 380.3,779.4 L 378.7,779.4 L 376.6,778.9 L 374.8,778.2 L 373.1,777.3 L 371.1,775.7 L 368.5,773.2 L 364.7,769.1 L 361.1,765.0 L 357.9,760.9 L 356.9,759.5 L 354.3,755.7 L 352.3,752.1 L 349.9,747.4 L 347.7,742.3 L 345.9,737.1 L 344.8,732.9 L 343.7,728.4 L 343.4,726.3 L 343.0,724.1 L 342.6,720.7 L 342.8,717.6 L 343.2,715.1 L 344.0,712.9 L 345.0,711.1 L 346.6,709.0 L 350.0,704.7 L 350.6,703.9 L 352.2,701.8 L 367.5,681.8 L 407.0,630.0 L 451.4,571.8 L 467.3,551.1 L 470.5,546.9 L 473.7,543.1 L 475.2,541.3 L 476.0,540.5 L 476.9,539.8 L 478.1,539.0 L 479.5,538.3 L 481.0,537.6 L 482.5,536.9 L 483.8,536.5 L 485.5,536.0 L 487.3,535.5 L 489.0,535.2 L 491.4,534.8 L 494.2,534.5 L 496.6,534.2 L 498.6,534.1 L 501.5,534.1 L 505.7,534.1 L 508.0,534.3 L 510.3,534.6 L 515.5,535.3 L 521.2,536.2 L 528.1,537.2 L 546.4,540.1 L 551.9,540.9 L 554.8,541.2 L 557.9,541.3 L 561.2,541.3 L 565.0,540.9 L 568.3,540.5 L 571.5,539.9 L 574.7,539.1 L 577.7,538.3 L 580.0,537.5 L 583.2,536.3 L 586.1,535.0 L 589.4,533.3 L 592.6,531.3 L 597.6,527.5 Z" fill="none" stroke="#1e9bd7" stroke-opacity="0.55" stroke-width="1.2" stroke-linejoin="round" filter="url(#glow)"/>
<circle cx="350.2" cy="704.4" r="13" fill="none" stroke="#ffffff" stroke-width="3"/>
<rect x="346.2" y="682.4" width="8" height="18" fill="#ffffff"/>
<circle cx="491.1" cy="537.7" r="7" fill="#1e9bd7" stroke="#0a0c12" stroke-width="2.5" filter="url(#glow)"/>
<text x="491.1" y="541.1" font-size="9" font-weight="700" fill="#0a0c12" text-anchor="middle">1</text>
<circle cx="577.3" cy="537.1" r="7" fill="#1e9bd7" stroke="#0a0c12" stroke-width="2.5" filter="url(#glow)"/>
<text x="577.3" y="540.5" font-size="9" font-weight="700" fill="#0a0c12" text-anchor="middle">2</text>
<circle cx="669.1" cy="478.9" r="7" fill="#1e9bd7" stroke="#0a0c12" stroke-width="2.5" filter="url(#glow)"/>
<text x="669.1" y="482.3" font-size="9" font-weight="700" fill="#0a0c12" text-anchor="middle">3</text>
<circle cx="703.5" cy="518.7" r="7" fill="#1e9bd7" stroke="#0a0c12" stroke-width="2.5" filter="url(#glow)"/>
<text x="703.5" y="522.1" font-size="9" font-weight="700" fill="#0a0c12" text-anchor="middle">4</text>
<circle cx="722.0" cy="458.9" r="7" fill="#1e9bd7" stroke="#0a0c12" stroke-width="2.5" filter="url(#glow)"/>
<text x="722.0" y="462.3" font-size="9" font-weight="700" fill="#0a0c12" text-anchor="middle">5</text>
<circle cx="497.4" cy="255.8" r="7" fill="#1e9bd7" stroke="#0a0c12" stroke-width="2.5" filter="url(#glow)"/>
<text x="497.4" y="259.2" font-size="9" font-weight="700" fill="#0a0c12" text-anchor="middle">6</text>
<circle cx="437.3" cy="307.5" r="7" fill="#1e9bd7" stroke="#0a0c12" stroke-width="2.5" filter="url(#glow)"/>
<text x="437.3" y="310.9" font-size="9" font-weight="700" fill="#0a0c12" text-anchor="middle">7</text>
<circle cx="486.6" cy="200.7" r="7" fill="#1e9bd7" stroke="#0a0c12" stroke-width="2.5" filter="url(#glow)"/>
<text x="486.6" y="204.1" font-size="9" font-weight="700" fill="#0a0c12" text-anchor="middle">8</text>
<circle cx="716.8" cy="181.1" r="7" fill="#1e9bd7" stroke="#0a0c12" stroke-width="2.5" filter="url(#glow)"/>
<text x="716.8" y="184.5" font-size="9" font-weight="700" fill="#0a0c12" text-anchor="middle">9</text>
<circle cx="771.9" cy="414.6" r="7" fill="#1e9bd7" stroke="#0a0c12" stroke-width="2.5" filter="url(#glow)"/>
<text x="771.9" y="418.0" font-size="9" font-weight="700" fill="#0a0c12" text-anchor="middle">10</text>
<circle cx="771.9" cy="414.6" r="7" fill="#1e9bd7" stroke="#0a0c12" stroke-width="2.5" filter="url(#glow)"/>
<text x="771.9" y="418.0" font-size="9" font-weight="700" fill="#0a0c12" text-anchor="middle">11</text>
<circle cx="767.3" cy="498.8" r="7" fill="#1e9bd7" stroke="#0a0c12" stroke-width="2.5" filter="url(#glow)"/>
<text x="767.3" y="502.2" font-size="9" font-weight="700" fill="#0a0c12" text-anchor="middle">12</text>
<circle cx="767.3" cy="498.8" r="7" fill="#1e9bd7" stroke="#0a0c12" stroke-width="2.5" filter="url(#glow)"/>
<text x="767.3" y="502.2" font-size="9" font-weight="700" fill="#0a0c12" text-anchor="middle">13</text>
<circle cx="782.1" cy="556.5" r="7" fill="#1e9bd7" stroke="#0a0c12" stroke-width="2.5" filter="url(#glow)"/>
<text x="782.1" y="559.9" font-size="9" font-weight="700" fill="#0a0c12" text-anchor="middle">14</text>
<circle cx="533.2" cy="901.2" r="7" fill="#1e9bd7" stroke="#0a0c12" stroke-width="2.5" filter="url(#glow)"/>
<text x="533.2" y="904.6" font-size="9" font-weight="700" fill="#0a0c12" text-anchor="middle">15</text>
<circle cx="402.5" cy="767.2" r="7" fill="#1e9bd7" stroke="#0a0c12" stroke-width="2.5" filter="url(#glow)"/>
<text x="402.5" y="770.6" font-size="9" font-weight="700" fill="#0a0c12" text-anchor="middle">16</text>
<circle cx="402.5" cy="767.2" r="7" fill="#1e9bd7" stroke="#0a0c12" stroke-width="2.5" filter="url(#glow)"/>
<text x="402.5" y="770.6" font-size="9" font-weight="700" fill="#0a0c12" text-anchor="middle">17</text>
<circle cx="359.0" cy="747.1" r="7" fill="#1e9bd7" stroke="#0a0c12" stroke-width="2.5" filter="url(#glow)"/>
<text x="359.0" y="750.5" font-size="9" font-weight="700" fill="#0a0c12" text-anchor="middle">18</text>
<line x1="491.1" y1="537.7" x2="441.1" y2="552.1" stroke="#1e9bd7" stroke-opacity="0.45" stroke-width="1.3"/>
<text x="433.1" y="556.1" font-size="15" font-weight="600" fill="#eef2fb" text-anchor="end">Abbey</text>
<line x1="577.3" y1="537.1" x2="558.2" y2="585.4" stroke="#1e9bd7" stroke-opacity="0.45" stroke-width="1.3"/>
<text x="550.2" y="589.4" font-size="15" font-weight="600" fill="#eef2fb" text-anchor="end">Abbey / Farm</text>
<line x1="703.5" y1="518.7" x2="755.3" y2="527.7" stroke="#1e9bd7" stroke-opacity="0.45" stroke-width="1.3"/>
<text x="763.3" y="531.7" font-size="15" font-weight="600" fill="#eef2fb" text-anchor="start">Arena</text>
<line x1="497.4" y1="255.8" x2="479.9" y2="206.9" stroke="#1e9bd7" stroke-opacity="0.45" stroke-width="1.3"/>
<text x="471.9" y="210.9" font-size="15" font-weight="600" fill="#eef2fb" text-anchor="end">Brooklands</text>
<line x1="437.3" y1="307.5" x2="406.2" y2="265.8" stroke="#1e9bd7" stroke-opacity="0.45" stroke-width="1.3"/>
<text x="398.2" y="269.8" font-size="15" font-weight="600" fill="#eef2fb" text-anchor="end">Luffield</text>
<line x1="486.6" y1="200.7" x2="470.4" y2="168.0" stroke="#1e9bd7" stroke-opacity="0.45" stroke-width="1.3"/>
<text x="462.4" y="172.0" font-size="15" font-weight="600" fill="#eef2fb" text-anchor="end">Woodcote</text>
<line x1="716.8" y1="181.1" x2="735.8" y2="132.7" stroke="#1e9bd7" stroke-opacity="0.45" stroke-width="1.3"/>
<text x="743.8" y="136.7" font-size="15" font-weight="600" fill="#eef2fb" text-anchor="start">Copse</text>
<line x1="767.3" y1="498.8" x2="819.2" y2="495.7" stroke="#1e9bd7" stroke-opacity="0.45" stroke-width="1.3"/>
<text x="827.2" y="499.7" font-size="15" font-weight="600" fill="#eef2fb" text-anchor="start">Maggotts-Becketts-Chapel</text>
<line x1="533.2" y1="901.2" x2="525.9" y2="930.0" stroke="#1e9bd7" stroke-opacity="0.45" stroke-width="1.3"/>
<text x="517.9" y="934.0" font-size="15" font-weight="600" fill="#eef2fb" text-anchor="end">Stowe</text>
<line x1="402.5" y1="767.2" x2="372.1" y2="816.5" stroke="#1e9bd7" stroke-opacity="0.45" stroke-width="1.3"/>
<text x="364.1" y="820.5" font-size="15" font-weight="600" fill="#eef2fb" text-anchor="end">Vale</text>
<line x1="359.0" y1="747.1" x2="322.9" y2="784.5" stroke="#1e9bd7" stroke-opacity="0.45" stroke-width="1.3"/>
<text x="314.9" y="788.5" font-size="15" font-weight="600" fill="#eef2fb" text-anchor="end">Club</text>
<text x="90" y="64" font-size="20" letter-spacing="5" fill="#1e9bd7" font-weight="700">TRACK ATLAS</text>
<text x="90" y="108" font-size="42" font-weight="800" fill="#ffffff">SILVERSTONE CIRCUIT</text>
<text x="90" y="136" font-size="16" fill="#9aa6bd">Silverstone, The Home of British Motor Racing</text>
<rect x="1170" y="200" width="360" height="710" rx="16" fill="#ffffff" fill-opacity="0.04" stroke="#1e9bd7" stroke-opacity="0.5"/>
<text x="1198" y="250" font-size="13" letter-spacing="2" fill="#8794ab">LAYOUT</text>
<text x="1198" y="276" font-size="22" font-weight="700" fill="#eef2fb">Grand Prix Circuit</text>
<text x="1198" y="320" font-size="13" letter-spacing="2" fill="#8794ab">LENGTH</text>
<text x="1198" y="346" font-size="22" font-weight="700" fill="#eef2fb">5.891 km</text>
<text x="1198" y="390" font-size="13" letter-spacing="2" fill="#8794ab">CORNERS</text>
<text x="1198" y="416" font-size="22" font-weight="700" fill="#eef2fb">18</text>
<text x="1198" y="460" font-size="13" letter-spacing="2" fill="#8794ab">NAMED CORNERS</text>
<text x="1198" y="486" font-size="22" font-weight="700" fill="#eef2fb">18</text>
<text x="1198" y="530" font-size="13" letter-spacing="2" fill="#8794ab">DIRECTION</text>
<text x="1198" y="556" font-size="22" font-weight="700" fill="#eef2fb">Clockwise</text>
<text x="1198" y="600" font-size="13" letter-spacing="2" fill="#8794ab">SECTORS</text>
<text x="1198" y="626" font-size="22" font-weight="700" fill="#eef2fb">3</text>
<text x="1198" y="670" font-size="13" letter-spacing="2" fill="#8794ab">COUNTRY</text>
<text x="1198" y="696" font-size="22" font-weight="700" fill="#eef2fb">United Kingdom</text>
<text x="1198" y="740" font-size="13" letter-spacing="2" fill="#8794ab">LOCATION</text>
<text x="1198" y="766" font-size="22" font-weight="700" fill="#eef2fb">Silverstone, Northamptonshire</text>
<text x="1198" y="810" font-size="13" letter-spacing="2" fill="#8794ab">COMPLEXES</text>
<rect x="1198" y="816" width="110" height="24" rx="12" fill="#1e9bd7" fill-opacity="0.16" stroke="#1e9bd7" stroke-opacity="0.5"/>
<text x="1253" y="833" font-size="12" fill="#eef2fb" text-anchor="middle">Abbey / Farm</text>
<rect x="1318" y="816" width="54" height="24" rx="12" fill="#1e9bd7" fill-opacity="0.16" stroke="#1e9bd7" stroke-opacity="0.5"/>
<text x="1345" y="833" font-size="12" fill="#eef2fb" text-anchor="middle">Arena</text>
<rect x="1198" y="850" width="206" height="24" rx="12" fill="#1e9bd7" fill-opacity="0.16" stroke="#1e9bd7" stroke-opacity="0.5"/>
<text x="1301" y="867" font-size="12" fill="#eef2fb" text-anchor="middle">Maggotts-Becketts-Chapel</text>
<rect x="1414" y="850" width="46" height="24" rx="12" fill="#1e9bd7" fill-opacity="0.16" stroke="#1e9bd7" stroke-opacity="0.5"/>
<text x="1437" y="867" font-size="12" fill="#eef2fb" text-anchor="middle">Vale</text>
<text x="90" y="966" font-size="12" fill="#566177">Geometry © OpenStreetMap contributors (ODbL) · corner data: Lovely-Sim-Racing + curated · track-atlas</text>
<text x="90" y="942" font-size="12" fill="#8794ab">⚑ start / finish</text>
</svg>