<svg xmlns="http://www.w3.org/2000/svg" width="1600" height="1000" viewBox="0 0 1600 1000" font-family="Helvetica, Arial, sans-serif">
<defs>
      <radialGradient id="bg" cx="38%" cy="34%" r="85%">
        <stop offset="0%" stop-color="#1b2030"/>
        <stop offset="55%" stop-color="#12151f"/>
        <stop offset="100%" stop-color="#0a0c12"/>
      </radialGradient>
      <linearGradient id="accent" x1="0" y1="0" x2="1" y2="1">
        <stop offset="0%" stop-color="#ff5a36"/>
        <stop offset="100%" stop-color="#ffffff"/>
      </linearGradient>
      <filter id="glow" x="-40%" y="-40%" width="180%" height="180%">
        <feGaussianBlur stdDeviation="6" result="b"/>
        <feMerge><feMergeNode in="b"/><feMergeNode in="SourceGraphic"/></feMerge>
      </filter>
    </defs>
<rect width="1600" height="1000" fill="url(#bg)"/>
<path d="M 343.0,576.3 L 364.0,657.4 L 374.6,698.4 L 377.2,708.6 L 418.3,868.0 L 421.5,876.6 L 423.7,881.7 L 426.5,886.9 L 430.3,893.1 L 434.3,898.4 L 437.6,901.7 L 441.7,905.1 L 446.0,907.8 L 451.4,909.9 L 457.1,910.0 L 462.1,909.0 L 466.9,906.7 L 470.5,903.8 L 474.6,899.9 L 490.1,883.3 L 494.1,879.4 L 496.8,877.1 L 500.1,875.3 L 503.0,874.3 L 506.8,873.7 L 510.7,874.0 L 514.7,875.1 L 518.4,876.7 L 523.0,879.2 L 536.9,888.0 L 542.5,891.7 L 552.6,895.8 L 565.4,899.3 L 573.8,900.2 L 583.8,900.7 L 592.1,900.5 L 600.8,899.6 L 612.0,897.4 L 621.5,894.4 L 632.4,889.3 L 642.5,883.0 L 650.7,877.2 L 658.3,870.0 L 666.1,861.1 L 672.4,852.7 L 677.9,842.7 L 682.2,832.6 L 689.1,811.0 L 705.7,754.7 L 715.1,722.0 L 722.1,697.2 L 726.0,682.5 L 728.8,671.5 L 734.4,648.0 L 739.0,627.8 L 763.4,536.0 L 780.1,474.3 L 797.7,412.1 L 799.8,403.3 L 800.5,397.4 L 800.5,392.8 L 799.8,388.2 L 798.5,383.8 L 797.0,379.9 L 794.5,375.7 L 791.9,373.0 L 789.3,370.6 L 785.0,367.7 L 781.8,366.3 L 776.8,364.6 L 764.9,362.0 L 732.5,356.3 L 720.0,354.3 L 711.7,353.1 L 705.2,352.7 L 698.2,352.9 L 691.5,353.4 L 684.1,354.8 L 676.0,357.3 L 668.3,360.5 L 664.0,362.5 L 658.9,365.7 L 653.5,369.4 L 645.7,376.1 L 638.4,383.6 L 629.5,394.2 L 616.9,411.1 L 600.1,434.3 L 572.5,472.7 L 560.9,488.9 L 543.7,512.4 L 505.8,564.5 L 500.1,572.3 L 496.5,576.6 L 492.7,580.3 L 488.5,584.0 L 483.6,587.3 L 477.5,590.1 L 471.4,592.0 L 466.6,593.0 L 459.2,593.5 L 453.0,593.5 L 445.8,593.2 L 438.2,592.2 L 431.9,590.6 L 424.5,588.3 L 418.6,586.0 L 412.0,583.0 L 406.2,579.4 L 400.4,574.9 L 395.5,570.5 L 393.7,568.3 L 391.8,565.4 L 389.3,560.9 L 387.0,554.4 L 385.0,547.3 L 381.4,530.5 L 374.3,486.3 L 373.7,480.7 L 373.4,476.3 L 373.2,471.5 L 373.3,466.7 L 373.7,461.5 L 374.2,458.6 L 375.1,455.9 L 376.3,453.7 L 378.4,451.2 L 381.3,448.9 L 384.3,447.0 L 387.2,445.8 L 390.0,445.2 L 393.7,444.9 L 396.6,445.1 L 399.4,445.8 L 402.5,447.0 L 406.2,449.0 L 410.9,451.8 L 413.9,453.9 L 423.6,461.3 L 429.5,464.6 L 432.0,465.7 L 434.5,466.5 L 438.1,467.2 L 441.8,467.6 L 444.7,467.6 L 447.9,467.2 L 453.4,465.8 L 458.2,463.6 L 462.2,460.8 L 465.8,457.5 L 468.3,454.4 L 470.2,451.5 L 471.6,448.2 L 472.7,445.9 L 473.4,443.2 L 473.9,439.5 L 474.0,436.9 L 474.0,434.3 L 473.3,429.4 L 471.8,424.9 L 469.8,421.1 L 466.8,417.1 L 462.4,412.1 L 448.0,398.0 L 435.2,385.2 L 424.9,374.2 L 422.2,371.0 L 419.8,367.9 L 417.8,365.1 L 415.5,361.3 L 413.3,357.4 L 411.0,353.1 L 409.6,349.6 L 407.6,343.2 L 402.8,324.8 L 399.7,310.6 L 399.0,306.8 L 398.7,303.4 L 398.6,300.2 L 398.8,296.9 L 399.3,294.2 L 400.0,292.2 L 401.1,290.5 L 402.5,288.5 L 404.0,287.0 L 406.8,285.0 L 409.2,283.6 L 411.7,282.4 L 413.8,281.8 L 415.6,281.5 L 417.7,281.5 L 419.7,281.8 L 421.9,282.5 L 423.6,283.3 L 425.3,284.3 L 428.5,287.0 L 432.8,290.9 L 438.8,297.0 L 450.8,310.5 L 467.7,328.8 L 474.9,336.6 L 478.5,339.6 L 482.1,342.5 L 487.3,345.9 L 492.1,348.6 L 497.9,351.3 L 504.3,353.6 L 511.1,355.0 L 517.4,355.9 L 524.3,356.3 L 528.3,356.4 L 533.3,356.1 L 538.5,355.5 L 541.8,354.9 L 545.0,354.0 L 548.7,352.9 L 552.8,351.3 L 557.4,349.2 L 560.4,347.6 L 563.3,345.9 L 568.7,342.0 L 572.9,338.5 L 576.2,335.3 L 579.1,332.1 L 581.6,329.1 L 587.1,320.9 L 595.9,307.5 L 610.7,283.9 L 637.9,239.8 L 647.7,223.0 L 648.8,220.9 L 649.6,219.2 L 650.2,217.3 L 650.5,215.6 L 650.6,213.7 L 650.6,211.8 L 650.4,209.2 L 650.1,207.6 L 649.6,205.9 L 648.8,204.3 L 648.0,202.9 L 646.0,200.6 L 643.8,198.3 L 641.3,196.5 L 638.3,194.5 L 632.3,191.6 L 624.0,188.0 L 616.0,184.8 L 602.9,180.0 L 590.9,175.7 L 580.3,171.8 L 574.5,169.9 L 570.1,168.7 L 566.7,168.1 L 563.3,168.0 L 558.8,168.2 L 554.1,168.7 L 539.8,170.9 L 522.9,173.9 L 506.5,177.1 L 502.1,178.1 L 498.1,179.2 L 490.7,181.7 L 484.0,184.2 L 476.8,187.2 L 468.0,191.1 L 460.3,194.8 L 451.6,198.9 L 443.1,203.1 L 434.7,207.4 L 430.3,210.0 L 425.3,212.9 L 420.6,216.1 L 414.5,220.7 L 408.1,226.0 L 401.1,232.6 L 394.0,240.3 L 389.0,247.5 L 384.5,255.5 L 380.0,264.4 L 376.9,272.3 L 374.2,281.2 L 365.4,315.5 L 353.3,367.0 L 346.5,395.1 L 334.0,447.2 L 332.1,458.8 L 330.9,467.2 L 330.1,476.9 L 329.6,486.1 L 329.5,495.7 L 330.1,507.9 L 331.3,518.4 L 333.0,529.6 L 334.7,539.9 L 337.6,554.0 L 343.0,576.3 Z" fill="none" stroke="#000000" stroke-opacity="0.5" stroke-width="13" stroke-linejoin="round" stroke-linecap="round"/>
<path d="M 343.0,576.3 L 364.0,657.4 L 374.6,698.4 L 377.2,708.6 L 418.3,868.0 L 421.5,876.6 L 423.7,881.7 L 426.5,886.9 L 430.3,893.1 L 434.3,898.4 L 437.6,901.7 L 441.7,905.1 L 446.0,907.8 L 451.4,909.9 L 457.1,910.0 L 462.1,909.0 L 466.9,906.7 L 470.5,903.8 L 474.6,899.9 L 490.1,883.3 L 494.1,879.4 L 496.8,877.1 L 500.1,875.3 L 503.0,874.3 L 506.8,873.7 L 510.7,874.0 L 514.7,875.1 L 518.4,876.7 L 523.0,879.2 L 536.9,888.0 L 542.5,891.7 L 552.6,895.8 L 565.4,899.3 L 573.8,900.2 L 583.8,900.7 L 592.1,900.5 L 600.8,899.6 L 612.0,897.4 L 621.5,894.4 L 632.4,889.3 L 642.5,883.0 L 650.7,877.2 L 658.3,870.0 L 666.1,861.1 L 672.4,852.7 L 677.9,842.7 L 682.2,832.6 L 689.1,811.0 L 705.7,754.7 L 715.1,722.0 L 722.1,697.2 L 726.0,682.5 L 728.8,671.5 L 734.4,648.0 L 739.0,627.8 L 763.4,536.0 L 780.1,474.3 L 797.7,412.1 L 799.8,403.3 L 800.5,397.4 L 800.5,392.8 L 799.8,388.2 L 798.5,383.8 L 797.0,379.9 L 794.5,375.7 L 791.9,373.0 L 789.3,370.6 L 785.0,367.7 L 781.8,366.3 L 776.8,364.6 L 764.9,362.0 L 732.5,356.3 L 720.0,354.3 L 711.7,353.1 L 705.2,352.7 L 698.2,352.9 L 691.5,353.4 L 684.1,354.8 L 676.0,357.3 L 668.3,360.5 L 664.0,362.5 L 658.9,365.7 L 653.5,369.4 L 645.7,376.1 L 638.4,383.6 L 629.5,394.2 L 616.9,411.1 L 600.1,434.3 L 572.5,472.7 L 560.9,488.9 L 543.7,512.4 L 505.8,564.5 L 500.1,572.3 L 496.5,576.6 L 492.7,580.3 L 488.5,584.0 L 483.6,587.3 L 477.5,590.1 L 471.4,592.0 L 466.6,593.0 L 459.2,593.5 L 453.0,593.5 L 445.8,593.2 L 438.2,592.2 L 431.9,590.6 L 424.5,588.3 L 418.6,586.0 L 412.0,583.0 L 406.2,579.4 L 400.4,574.9 L 395.5,570.5 L 393.7,568.3 L 391.8,565.4 L 389.3,560.9 L 387.0,554.4 L 385.0,547.3 L 381.4,530.5 L 374.3,486.3 L 373.7,480.7 L 373.4,476.3 L 373.2,471.5 L 373.3,466.7 L 373.7,461.5 L 374.2,458.6 L 375.1,455.9 L 376.3,453.7 L 378.4,451.2 L 381.3,448.9 L 384.3,447.0 L 387.2,445.8 L 390.0,445.2 L 393.7,444.9 L 396.6,445.1 L 399.4,445.8 L 402.5,447.0 L 406.2,449.0 L 410.9,451.8 L 413.9,453.9 L 423.6,461.3 L 429.5,464.6 L 432.0,465.7 L 434.5,466.5 L 438.1,467.2 L 441.8,467.6 L 444.7,467.6 L 447.9,467.2 L 453.4,465.8 L 458.2,463.6 L 462.2,460.8 L 465.8,457.5 L 468.3,454.4 L 470.2,451.5 L 471.6,448.2 L 472.7,445.9 L 473.4,443.2 L 473.9,439.5 L 474.0,436.9 L 474.0,434.3 L 473.3,429.4 L 471.8,424.9 L 469.8,421.1 L 466.8,417.1 L 462.4,412.1 L 448.0,398.0 L 435.2,385.2 L 424.9,374.2 L 422.2,371.0 L 419.8,367.9 L 417.8,365.1 L 415.5,361.3 L 413.3,357.4 L 411.0,353.1 L 409.6,349.6 L 407.6,343.2 L 402.8,324.8 L 399.7,310.6 L 399.0,306.8 L 398.7,303.4 L 398.6,300.2 L 398.8,296.9 L 399.3,294.2 L 400.0,292.2 L 401.1,290.5 L 402.5,288.5 L 404.0,287.0 L 406.8,285.0 L 409.2,283.6 L 411.7,282.4 L 413.8,281.8 L 415.6,281.5 L 417.7,281.5 L 419.7,281.8 L 421.9,282.5 L 423.6,283.3 L 425.3,284.3 L 428.5,287.0 L 432.8,290.9 L 438.8,297.0 L 450.8,310.5 L 467.7,328.8 L 474.9,336.6 L 478.5,339.6 L 482.1,342.5 L 487.3,345.9 L 492.1,348.6 L 497.9,351.3 L 504.3,353.6 L 511.1,355.0 L 517.4,355.9 L 524.3,356.3 L 528.3,356.4 L 533.3,356.1 L 538.5,355.5 L 541.8,354.9 L 545.0,354.0 L 548.7,352.9 L 552.8,351.3 L 557.4,349.2 L 560.4,347.6 L 563.3,345.9 L 568.7,342.0 L 572.9,338.5 L 576.2,335.3 L 579.1,332.1 L 581.6,329.1 L 587.1,320.9 L 595.9,307.5 L 610.7,283.9 L 637.9,239.8 L 647.7,223.0 L 648.8,220.9 L 649.6,219.2 L 650.2,217.3 L 650.5,215.6 L 650.6,213.7 L 650.6,211.8 L 650.4,209.2 L 650.1,207.6 L 649.6,205.9 L 648.8,204.3 L 648.0,202.9 L 646.0,200.6 L 643.8,198.3 L 641.3,196.5 L 638.3,194.5 L 632.3,191.6 L 624.0,188.0 L 616.0,184.8 L 602.9,180.0 L 590.9,175.7 L 580.3,171.8 L 574.5,169.9 L 570.1,168.7 L 566.7,168.1 L 563.3,168.0 L 558.8,168.2 L 554.1,168.7 L 539.8,170.9 L 522.9,173.9 L 506.5,177.1 L 502.1,178.1 L 498.1,179.2 L 490.7,181.7 L 484.0,184.2 L 476.8,187.2 L 468.0,191.1 L 460.3,194.8 L 451.6,198.9 L 443.1,203.1 L 434.7,207.4 L 430.3,210.0 L 425.3,212.9 L 420.6,216.1 L 414.5,220.7 L 408.1,226.0 L 401.1,232.6 L 394.0,240.3 L 389.0,247.5 L 384.5,255.5 L 380.0,264.4 L 376.9,272.3 L 374.2,281.2 L 365.4,315.5 L 353.3,367.0 L 346.5,395.1 L 334.0,447.2 L 332.1,458.8 L 330.9,467.2 L 330.1,476.9 L 329.6,486.1 L 329.5,495.7 L 330.1,507.9 L 331.3,518.4 L 333.0,529.6 L 334.7,539.9 L 337.6,554.0 L 343.0,576.3 Z" fill="none" stroke="#39404f" stroke-width="8.5" stroke-linejoin="round" stroke-linecap="round"/>
<path d="M 343.0,576.3 L 364.0,657.4 L 374.6,698.4 L 377.2,708.6 L 418.3,868.0 L 421.5,876.6 L 423.7,881.7 L 426.5,886.9 L 430.3,893.1 L 434.3,898.4 L 437.6,901.7 L 441.7,905.1 L 446.0,907.8 L 451.4,909.9 L 457.1,910.0 L 462.1,909.0 L 466.9,906.7 L 470.5,903.8 L 474.6,899.9 L 490.1,883.3 L 494.1,879.4 L 496.8,877.1 L 500.1,875.3 L 503.0,874.3 L 506.8,873.7 L 510.7,874.0 L 514.7,875.1 L 518.4,876.7 L 523.0,879.2 L 536.9,888.0 L 542.5,891.7 L 552.6,895.8 L 565.4,899.3 L 573.8,900.2 L 583.8,900.7 L 592.1,900.5 L 600.8,899.6 L 612.0,897.4 L 621.5,894.4 L 632.4,889.3 L 642.5,883.0 L 650.7,877.2 L 658.3,870.0 L 666.1,861.1 L 672.4,852.7 L 677.9,842.7 L 682.2,832.6 L 689.1,811.0 L 705.7,754.7 L 715.1,722.0 L 722.1,697.2 L 726.0,682.5 L 728.8,671.5 L 734.4,648.0 L 739.0,627.8 L 763.4,536.0 L 780.1,474.3 L 797.7,412.1 L 799.8,403.3 L 800.5,397.4 L 800.5,392.8 L 799.8,388.2 L 798.5,383.8 L 797.0,379.9 L 794.5,375.7 L 791.9,373.0 L 789.3,370.6 L 785.0,367.7 L 781.8,366.3 L 776.8,364.6 L 764.9,362.0 L 732.5,356.3 L 720.0,354.3 L 711.7,353.1 L 705.2,352.7 L 698.2,352.9 L 691.5,353.4 L 684.1,354.8 L 676.0,357.3 L 668.3,360.5 L 664.0,362.5 L 658.9,365.7 L 653.5,369.4 L 645.7,376.1 L 638.4,383.6 L 629.5,394.2 L 616.9,411.1 L 600.1,434.3 L 572.5,472.7 L 560.9,488.9 L 543.7,512.4 L 505.8,564.5 L 500.1,572.3 L 496.5,576.6 L 492.7,580.3 L 488.5,584.0 L 483.6,587.3 L 477.5,590.1 L 471.4,592.0 L 466.6,593.0 L 459.2,593.5 L 453.0,593.5 L 445.8,593.2 L 438.2,592.2 L 431.9,590.6 L 424.5,588.3 L 418.6,586.0 L 412.0,583.0 L 406.2,579.4 L 400.4,574.9 L 395.5,570.5 L 393.7,568.3 L 391.8,565.4 L 389.3,560.9 L 387.0,554.4 L 385.0,547.3 L 381.4,530.5 L 374.3,486.3 L 373.7,480.7 L 373.4,476.3 L 373.2,471.5 L 373.3,466.7 L 373.7,461.5 L 374.2,458.6 L 375.1,455.9 L 376.3,453.7 L 378.4,451.2 L 381.3,448.9 L 384.3,447.0 L 387.2,445.8 L 390.0,445.2 L 393.7,444.9 L 396.6,445.1 L 399.4,445.8 L 402.5,447.0 L 406.2,449.0 L 410.9,451.8 L 413.9,453.9 L 423.6,461.3 L 429.5,464.6 L 432.0,465.7 L 434.5,466.5 L 438.1,467.2 L 441.8,467.6 L 444.7,467.6 L 447.9,467.2 L 453.4,465.8 L 458.2,463.6 L 462.2,460.8 L 465.8,457.5 L 468.3,454.4 L 470.2,451.5 L 471.6,448.2 L 472.7,445.9 L 473.4,443.2 L 473.9,439.5 L 474.0,436.9 L 474.0,434.3 L 473.3,429.4 L 471.8,424.9 L 469.8,421.1 L 466.8,417.1 L 462.4,412.1 L 448.0,398.0 L 435.2,385.2 L 424.9,374.2 L 422.2,371.0 L 419.8,367.9 L 417.8,365.1 L 415.5,361.3 L 413.3,357.4 L 411.0,353.1 L 409.6,349.6 L 407.6,343.2 L 402.8,324.8 L 399.7,310.6 L 399.0,306.8 L 398.7,303.4 L 398.6,300.2 L 398.8,296.9 L 399.3,294.2 L 400.0,292.2 L 401.1,290.5 L 402.5,288.5 L 404.0,287.0 L 406.8,285.0 L 409.2,283.6 L 411.7,282.4 L 413.8,281.8 L 415.6,281.5 L 417.7,281.5 L 419.7,281.8 L 421.9,282.5 L 423.6,283.3 L 425.3,284.3 L 428.5,287.0 L 432.8,290.9 L 438.8,297.0 L 450.8,310.5 L 467.7,328.8 L 474.9,336.6 L 478.5,339.6 L 482.1,342.5 L 487.3,345.9 L 492.1,348.6 L 497.9,351.3 L 504.3,353.6 L 511.1,355.0 L 517.4,355.9 L 524.3,356.3 L 528.3,356.4 L 533.3,356.1 L 538.5,355.5 L 541.8,354.9 L 545.0,354.0 L 548.7,352.9 L 552.8,351.3 L 557.4,349.2 L 560.4,347.6 L 563.3,345.9 L 568.7,342.0 L 572.9,338.5 L 576.2,335.3 L 579.1,332.1 L 581.6,329.1 L 587.1,320.9 L 595.9,307.5 L 610.7,283.9 L 637.9,239.8 L 647.7,223.0 L 648.8,220.9 L 649.6,219.2 L 650.2,217.3 L 650.5,215.6 L 650.6,213.7 L 650.6,211.8 L 650.4,209.2 L 650.1,207.6 L 649.6,205.9 L 648.8,204.3 L 648.0,202.9 L 646.0,200.6 L 643.8,198.3 L 641.3,196.5 L 638.3,194.5 L 632.3,191.6 L 624.0,188.0 L 616.0,184.8 L 602.9,180.0 L 590.9,175.7 L 580.3,171.8 L 574.5,169.9 L 570.1,168.7 L 566.7,168.1 L 563.3,168.0 L 558.8,168.2 L 554.1,168.7 L 539.8,170.9 L 522.9,173.9 L 506.5,177.1 L 502.1,178.1 L 498.1,179.2 L 490.7,181.7 L 484.0,184.2 L 476.8,187.2 L 468.0,191.1 L 460.3,194.8 L 451.6,198.9 L 443.1,203.1 L 434.7,207.4 L 430.3,210.0 L 425.3,212.9 L 420.6,216.1 L 414.5,220.7 L 408.1,226.0 L 401.1,232.6 L 394.0,240.3 L 389.0,247.5 L 384.5,255.5 L 380.0,264.4 L 376.9,272.3 L 374.2,281.2 L 365.4,315.5 L 353.3,367.0 L 346.5,395.1 L 334.0,447.2 L 332.1,458.8 L 330.9,467.2 L 330.1,476.9 L 329.6,486.1 L 329.5,495.7 L 330.1,507.9 L 331.3,518.4 L 333.0,529.6 L 334.7,539.9 L 337.6,554.0 L 343.0,576.3 Z" fill="none" stroke="#e7edf8" stroke-width="2.6" stroke-linejoin="round" stroke-linecap="round"/>
<path d="M 343.0,576.3 L 364.0,657.4 L 374.6,698.4 L 377.2,708.6 L 418.3,868.0 L 421.5,876.6 L 423.7,881.7 L 426.5,886.9 L 430.3,893.1 L 434.3,898.4 L 437.6,901.7 L 441.7,905.1 L 446.0,907.8 L 451.4,909.9 L 457.1,910.0 L 462.1,909.0 L 466.9,906.7 L 470.5,903.8 L 474.6,899.9 L 490.1,883.3 L 494.1,879.4 L 496.8,877.1 L 500.1,875.3 L 503.0,874.3 L 506.8,873.7 L 510.7,874.0 L 514.7,875.1 L 518.4,876.7 L 523.0,879.2 L 536.9,888.0 L 542.5,891.7 L 552.6,895.8 L 565.4,899.3 L 573.8,900.2 L 583.8,900.7 L 592.1,900.5 L 600.8,899.6 L 612.0,897.4 L 621.5,894.4 L 632.4,889.3 L 642.5,883.0 L 650.7,877.2 L 658.3,870.0 L 666.1,861.1 L 672.4,852.7 L 677.9,842.7 L 682.2,832.6 L 689.1,811.0 L 705.7,754.7 L 715.1,722.0 L 722.1,697.2 L 726.0,682.5 L 728.8,671.5 L 734.4,648.0 L 739.0,627.8 L 763.4,536.0 L 780.1,474.3 L 797.7,412.1 L 799.8,403.3 L 800.5,397.4 L 800.5,392.8 L 799.8,388.2 L 798.5,383.8 L 797.0,379.9 L 794.5,375.7 L 791.9,373.0 L 789.3,370.6 L 785.0,367.7 L 781.8,366.3 L 776.8,364.6 L 764.9,362.0 L 732.5,356.3 L 720.0,354.3 L 711.7,353.1 L 705.2,352.7 L 698.2,352.9 L 691.5,353.4 L 684.1,354.8 L 676.0,357.3 L 668.3,360.5 L 664.0,362.5 L 658.9,365.7 L 653.5,369.4 L 645.7,376.1 L 638.4,383.6 L 629.5,394.2 L 616.9,411.1 L 600.1,434.3 L 572.5,472.7 L 560.9,488.9 L 543.7,512.4 L 505.8,564.5 L 500.1,572.3 L 496.5,576.6 L 492.7,580.3 L 488.5,584.0 L 483.6,587.3 L 477.5,590.1 L 471.4,592.0 L 466.6,593.0 L 459.2,593.5 L 453.0,593.5 L 445.8,593.2 L 438.2,592.2 L 431.9,590.6 L 424.5,588.3 L 418.6,586.0 L 412.0,583.0 L 406.2,579.4 L 400.4,574.9 L 395.5,570.5 L 393.7,568.3 L 391.8,565.4 L 389.3,560.9 L 387.0,554.4 L 385.0,547.3 L 381.4,530.5 L 374.3,486.3 L 373.7,480.7 L 373.4,476.3 L 373.2,471.5 L 373.3,466.7 L 373.7,461.5 L 374.2,458.6 L 375.1,455.9 L 376.3,453.7 L 378.4,451.2 L 381.3,448.9 L 384.3,447.0 L 387.2,445.8 L 390.0,445.2 L 393.7,444.9 L 396.6,445.1 L 399.4,445.8 L 402.5,447.0 L 406.2,449.0 L 410.9,451.8 L 413.9,453.9 L 423.6,461.3 L 429.5,464.6 L 432.0,465.7 L 434.5,466.5 L 438.1,467.2 L 441.8,467.6 L 444.7,467.6 L 447.9,467.2 L 453.4,465.8 L 458.2,463.6 L 462.2,460.8 L 465.8,457.5 L 468.3,454.4 L 470.2,451.5 L 471.6,448.2 L 472.7,445.9 L 473.4,443.2 L 473.9,439.5 L 474.0,436.9 L 474.0,434.3 L 473.3,429.4 L 471.8,424.9 L 469.8,421.1 L 466.8,417.1 L 462.4,412.1 L 448.0,398.0 L 435.2,385.2 L 424.9,374.2 L 422.2,371.0 L 419.8,367.9 L 417.8,365.1 L 415.5,361.3 L 413.3,357.4 L 411.0,353.1 L 409.6,349.6 L 407.6,343.2 L 402.8,324.8 L 399.7,310.6 L 399.0,306.8 L 398.7,303.4 L 398.6,300.2 L 398.8,296.9 L 399.3,294.2 L 400.0,292.2 L 401.1,290.5 L 402.5,288.5 L 404.0,287.0 L 406.8,285.0 L 409.2,283.6 L 411.7,282.4 L 413.8,281.8 L 415.6,281.5 L 417.7,281.5 L 419.7,281.8 L 421.9,282.5 L 423.6,283.3 L 425.3,284.3 L 428.5,287.0 L 432.8,290.9 L 438.8,297.0 L 450.8,310.5 L 467.7,328.8 L 474.9,336.6 L 478.5,339.6 L 482.1,342.5 L 487.3,345.9 L 492.1,348.6 L 497.9,351.3 L 504.3,353.6 L 511.1,355.0 L 517.4,355.9 L 524.3,356.3 L 528.3,356.4 L 533.3,356.1 L 538.5,355.5 L 541.8,354.9 L 545.0,354.0 L 548.7,352.9 L 552.8,351.3 L 557.4,349.2 L 560.4,347.6 L 563.3,345.9 L 568.7,342.0 L 572.9,338.5 L 576.2,335.3 L 579.1,332.1 L 581.6,329.1 L 587.1,320.9 L 595.9,307.5 L 610.7,283.9 L 637.9,239.8 L 647.7,223.0 L 648.8,220.9 L 649.6,219.2 L 650.2,217.3 L 650.5,215.6 L 650.6,213.7 L 650.6,211.8 L 650.4,209.2 L 650.1,207.6 L 649.6,205.9 L 648.8,204.3 L 648.0,202.9 L 646.0,200.6 L 643.8,198.3 L 641.3,196.5 L 638.3,194.5 L 632.3,191.6 L 624.0,188.0 L 616.0,184.8 L 602.9,180.0 L 590.9,175.7 L 580.3,171.8 L 574.5,169.9 L 570.1,168.7 L 566.7,168.1 L 563.3,168.0 L 558.8,168.2 L 554.1,168.7 L 539.8,170.9 L 522.9,173.9 L 506.5,177.1 L 502.1,178.1 L 498.1,179.2 L 490.7,181.7 L 484.0,184.2 L 476.8,187.2 L 468.0,191.1 L 460.3,194.8 L 451.6,198.9 L 443.1,203.1 L 434.7,207.4 L 430.3,210.0 L 425.3,212.9 L 420.6,216.1 L 414.5,220.7 L 408.1,226.0 L 401.1,232.6 L 394.0,240.3 L 389.0,247.5 L 384.5,255.5 L 380.0,264.4 L 376.9,272.3 L 374.2,281.2 L 365.4,315.5 L 353.3,367.0 L 346.5,395.1 L 334.0,447.2 L 332.1,458.8 L 330.9,467.2 L 330.1,476.9 L 329.6,486.1 L 329.5,495.7 L 330.1,507.9 L 331.3,518.4 L 333.0,529.6 L 334.7,539.9 L 337.6,554.0 L 343.0,576.3 Z" fill="none" stroke="#ff5a36" stroke-opacity="0.55" stroke-width="1.2" stroke-linejoin="round" filter="url(#glow)"/>
<circle cx="362.9" cy="653.4" r="13" fill="none" stroke="#ffffff" stroke-width="3"/>
<rect x="358.9" y="631.4" width="8" height="18" fill="#ffffff"/>
<circle cx="427.2" cy="887.4" r="7" fill="#ff5a36" stroke="#0a0c12" stroke-width="2.5" filter="url(#glow)"/>
<text x="427.2" y="890.8" font-size="9" font-weight="700" fill="#0a0c12" text-anchor="middle">1</text>
<circle cx="494.4" cy="879.1" r="7" fill="#ff5a36" stroke="#0a0c12" stroke-width="2.5" filter="url(#glow)"/>
<text x="494.4" y="882.5" font-size="9" font-weight="700" fill="#0a0c12" text-anchor="middle">2</text>
<circle cx="650.5" cy="867.6" r="7" fill="#ff5a36" stroke="#0a0c12" stroke-width="2.5" filter="url(#glow)"/>
<text x="650.5" y="871.0" font-size="9" font-weight="700" fill="#0a0c12" text-anchor="middle">3</text>
<circle cx="787.4" cy="379.6" r="7" fill="#ff5a36" stroke="#0a0c12" stroke-width="2.5" filter="url(#glow)"/>
<text x="787.4" y="383.0" font-size="9" font-weight="700" fill="#0a0c12" text-anchor="middle">4</text>
<circle cx="681.1" cy="355.8" r="7" fill="#ff5a36" stroke="#0a0c12" stroke-width="2.5" filter="url(#glow)"/>
<text x="681.1" y="359.2" font-size="9" font-weight="700" fill="#0a0c12" text-anchor="middle">5</text>
<circle cx="475.3" cy="585.6" r="7" fill="#ff5a36" stroke="#0a0c12" stroke-width="2.5" filter="url(#glow)"/>
<text x="475.3" y="589.0" font-size="9" font-weight="700" fill="#0a0c12" text-anchor="middle">6</text>
<circle cx="392.0" cy="565.7" r="7" fill="#ff5a36" stroke="#0a0c12" stroke-width="2.5" filter="url(#glow)"/>
<text x="392.0" y="569.1" font-size="9" font-weight="700" fill="#0a0c12" text-anchor="middle">7</text>
<circle cx="384.7" cy="446.9" r="7" fill="#ff5a36" stroke="#0a0c12" stroke-width="2.5" filter="url(#glow)"/>
<text x="384.7" y="450.3" font-size="9" font-weight="700" fill="#0a0c12" text-anchor="middle">8</text>
<circle cx="457.7" cy="447.4" r="7" fill="#ff5a36" stroke="#0a0c12" stroke-width="2.5" filter="url(#glow)"/>
<text x="457.7" y="450.8" font-size="9" font-weight="700" fill="#0a0c12" text-anchor="middle">9</text>
<circle cx="416.6" cy="315.2" r="7" fill="#ff5a36" stroke="#0a0c12" stroke-width="2.5" filter="url(#glow)"/>
<text x="416.6" y="318.6" font-size="9" font-weight="700" fill="#0a0c12" text-anchor="middle">10</text>
<circle cx="534.6" cy="344.4" r="7" fill="#ff5a36" stroke="#0a0c12" stroke-width="2.5" filter="url(#glow)"/>
<text x="534.6" y="347.8" font-size="9" font-weight="700" fill="#0a0c12" text-anchor="middle">11</text>
<circle cx="632.1" cy="248.9" r="7" fill="#ff5a36" stroke="#0a0c12" stroke-width="2.5" filter="url(#glow)"/>
<text x="632.1" y="252.3" font-size="9" font-weight="700" fill="#0a0c12" text-anchor="middle">12</text>
<circle cx="609.9" cy="182.5" r="7" fill="#ff5a36" stroke="#0a0c12" stroke-width="2.5" filter="url(#glow)"/>
<text x="609.9" y="185.9" font-size="9" font-weight="700" fill="#0a0c12" text-anchor="middle">13</text>
<circle cx="399.9" cy="243.0" r="7" fill="#ff5a36" stroke="#0a0c12" stroke-width="2.5" filter="url(#glow)"/>
<text x="399.9" y="246.4" font-size="9" font-weight="700" fill="#0a0c12" text-anchor="middle">14</text>
<circle cx="334.0" cy="496.4" r="7" fill="#ff5a36" stroke="#0a0c12" stroke-width="2.5" filter="url(#glow)"/>
<text x="334.0" y="499.8" font-size="9" font-weight="700" fill="#0a0c12" text-anchor="middle">15</text>
<line x1="494.4" y1="879.1" x2="492.5" y2="930.0" stroke="#ff5a36" stroke-opacity="0.45" stroke-width="1.3"/>
<text x="484.5" y="934.0" font-size="15" font-weight="600" fill="#eef2fb" text-anchor="end">Senna S</text>
<line x1="650.5" y1="867.6" x2="667.4" y2="916.7" stroke="#ff5a36" stroke-opacity="0.45" stroke-width="1.3"/>
<text x="675.4" y="920.7" font-size="15" font-weight="600" fill="#eef2fb" text-anchor="start">Curva do Sol</text>
<line x1="681.1" y1="355.8" x2="725.8" y2="329.1" stroke="#ff5a36" stroke-opacity="0.45" stroke-width="1.3"/>
<text x="733.8" y="333.1" font-size="15" font-weight="600" fill="#eef2fb" text-anchor="start">Descida do Lago</text>
<line x1="475.3" y1="585.6" x2="461.7" y2="635.8" stroke="#ff5a36" stroke-opacity="0.45" stroke-width="1.3"/>
<text x="453.7" y="639.8" font-size="15" font-weight="600" fill="#eef2fb" text-anchor="end">Ferradura</text>
<line x1="392.0" y1="565.7" x2="353.6" y2="600.8" stroke="#ff5a36" stroke-opacity="0.45" stroke-width="1.3"/>
<text x="345.6" y="604.8" font-size="15" font-weight="600" fill="#eef2fb" text-anchor="end">Laranjinha</text>
<line x1="384.7" y1="446.9" x2="332.9" y2="468.9" stroke="#ff5a36" stroke-opacity="0.45" stroke-width="1.3"/>
<text x="324.9" y="472.9" font-size="15" font-weight="600" fill="#eef2fb" text-anchor="end">Pinheirinho</text>
<line x1="457.7" y1="447.4" x2="406.8" y2="436.9" stroke="#ff5a36" stroke-opacity="0.45" stroke-width="1.3"/>
<text x="398.8" y="440.9" font-size="15" font-weight="600" fill="#eef2fb" text-anchor="end">Pinheirinho</text>
<line x1="416.6" y1="315.2" x2="388.2" y2="271.6" stroke="#ff5a36" stroke-opacity="0.45" stroke-width="1.3"/>
<text x="380.2" y="275.6" font-size="15" font-weight="600" fill="#eef2fb" text-anchor="end">Bico de Pato</text>
<line x1="534.6" y1="344.4" x2="545.7" y2="293.6" stroke="#ff5a36" stroke-opacity="0.45" stroke-width="1.3"/>
<text x="553.7" y="297.6" font-size="15" font-weight="600" fill="#eef2fb" text-anchor="start">Mergulho</text>
<line x1="632.1" y1="248.9" x2="658.3" y2="204.0" stroke="#ff5a36" stroke-opacity="0.45" stroke-width="1.3"/>
<text x="666.3" y="208.0" font-size="15" font-weight="600" fill="#eef2fb" text-anchor="start">Juncao</text>
<line x1="609.9" y1="182.5" x2="627.6" y2="133.6" stroke="#ff5a36" stroke-opacity="0.45" stroke-width="1.3"/>
<text x="635.6" y="137.6" font-size="15" font-weight="600" fill="#eef2fb" text-anchor="start">Juncao</text>
<line x1="399.9" y1="243.0" x2="376.3" y2="196.7" stroke="#ff5a36" stroke-opacity="0.45" stroke-width="1.3"/>
<text x="368.3" y="200.7" font-size="15" font-weight="600" fill="#eef2fb" text-anchor="end">Subida dos Boxes</text>
<line x1="334.0" y1="496.4" x2="283.2" y2="507.5" stroke="#ff5a36" stroke-opacity="0.45" stroke-width="1.3"/>
<text x="275.2" y="511.5" font-size="15" font-weight="600" fill="#eef2fb" text-anchor="end">Arquibancadas</text>
<text x="90" y="64" font-size="20" letter-spacing="5" fill="#ff5a36" font-weight="700">TRACK ATLAS</text>
<text x="90" y="108" font-size="42" font-weight="800" fill="#ffffff">AUTODROMO JOSE CARLOS PACE</text>
<text x="90" y="136" font-size="16" fill="#9aa6bd">Interlagos</text>
<rect x="1170" y="200" width="360" height="710" rx="16" fill="#ffffff" fill-opacity="0.04" stroke="#ff5a36" stroke-opacity="0.5"/>
<text x="1198" y="250" font-size="13" letter-spacing="2" fill="#8794ab">LAYOUT</text>
<text x="1198" y="276" font-size="22" font-weight="700" fill="#eef2fb">Grand Prix Circuit</text>
<text x="1198" y="320" font-size="13" letter-spacing="2" fill="#8794ab">LENGTH</text>
<text x="1198" y="346" font-size="22" font-weight="700" fill="#eef2fb">4.309 km</text>
<text x="1198" y="390" font-size="13" letter-spacing="2" fill="#8794ab">CORNERS</text>
<text x="1198" y="416" font-size="22" font-weight="700" fill="#eef2fb">15</text>
<text x="1198" y="460" font-size="13" letter-spacing="2" fill="#8794ab">NAMED CORNERS</text>
<text x="1198" y="486" font-size="22" font-weight="700" fill="#eef2fb">15</text>
<text x="1198" y="530" font-size="13" letter-spacing="2" fill="#8794ab">DIRECTION</text>
<text x="1198" y="556" font-size="22" font-weight="700" fill="#eef2fb">Anticlockwise</text>
<text x="1198" y="600" font-size="13" letter-spacing="2" fill="#8794ab">SECTORS</text>
<text x="1198" y="626" font-size="22" font-weight="700" fill="#eef2fb">3</text>
<text x="1198" y="670" font-size="13" letter-spacing="2" fill="#8794ab">COUNTRY</text>
<text x="1198" y="696" font-size="22" font-weight="700" fill="#eef2fb">BR</text>
<text x="1198" y="740" font-size="13" letter-spacing="2" fill="#8794ab">LOCATION</text>
<text x="1198" y="766" font-size="22" font-weight="700" fill="#eef2fb">Sao Paulo</text>
<text x="1198" y="810" font-size="13" letter-spacing="2" fill="#8794ab">COMPLEXES</text>
<rect x="1198" y="816" width="70" height="24" rx="12" fill="#ff5a36" fill-opacity="0.16" stroke="#ff5a36" stroke-opacity="0.5"/>
<text x="1233" y="833" font-size="12" fill="#eef2fb" text-anchor="middle">Senna S</text>
<rect x="1278" y="816" width="134" height="24" rx="12" fill="#ff5a36" fill-opacity="0.16" stroke="#ff5a36" stroke-opacity="0.5"/>
<text x="1345" y="833" font-size="12" fill="#eef2fb" text-anchor="middle">Descida do Lago</text>
<text x="90" y="966" font-size="12" fill="#566177">Geometry © OpenStreetMap contributors (ODbL) · corner data: Lovely-Sim-Racing + curated · track-atlas</text>
<text x="90" y="942" font-size="12" fill="#8794ab">⚑ start / finish</text>
</svg>