<svg xmlns="http://www.w3.org/2000/svg" width="1600" height="1000" viewBox="0 0 1600 1000" font-family="Helvetica, Arial, sans-serif">
<defs>
      <radialGradient id="bg" cx="38%" cy="34%" r="85%">
        <stop offset="0%" stop-color="#1b2030"/>
        <stop offset="55%" stop-color="#12151f"/>
        <stop offset="100%" stop-color="#0a0c12"/>
      </radialGradient>
      <linearGradient id="accent" x1="0" y1="0" x2="1" y2="1">
        <stop offset="0%" stop-color="#ff5a36"/>
        <stop offset="100%" stop-color="#ffffff"/>
      </linearGradient>
      <filter id="glow" x="-40%" y="-40%" width="180%" height="180%">
        <feGaussianBlur stdDeviation="6" result="b"/>
        <feMerge><feMergeNode in="b"/><feMergeNode in="SourceGraphic"/></feMerge>
      </filter>
    </defs>
<rect width="1600" height="1000" fill="url(#bg)"/>
<line x1="0" y1="0" x2="0" y2="1000" stroke="#ffffff" stroke-opacity="0.025"/>
<line x1="56" y1="0" x2="56" y2="1000" stroke="#ffffff" stroke-opacity="0.025"/>
<line x1="112" y1="0" x2="112" y2="1000" stroke="#ffffff" stroke-opacity="0.025"/>
<line x1="168" y1="0" x2="168" y2="1000" stroke="#ffffff" stroke-opacity="0.025"/>
<line x1="224" y1="0" x2="224" y2="1000" stroke="#ffffff" stroke-opacity="0.025"/>
<line x1="280" y1="0" x2="280" y2="1000" stroke="#ffffff" stroke-opacity="0.025"/>
<line x1="336" y1="0" x2="336" y2="1000" stroke="#ffffff" stroke-opacity="0.025"/>
<line x1="392" y1="0" x2="392" y2="1000" stroke="#ffffff" stroke-opacity="0.025"/>
<line x1="448" y1="0" x2="448" y2="1000" stroke="#ffffff" stroke-opacity="0.025"/>
<line x1="504" y1="0" x2="504" y2="1000" stroke="#ffffff" stroke-opacity="0.025"/>
<line x1="560" y1="0" x2="560" y2="1000" stroke="#ffffff" stroke-opacity="0.025"/>
<line x1="616" y1="0" x2="616" y2="1000" stroke="#ffffff" stroke-opacity="0.025"/>
<line x1="672" y1="0" x2="672" y2="1000" stroke="#ffffff" stroke-opacity="0.025"/>
<line x1="728" y1="0" x2="728" y2="1000" stroke="#ffffff" stroke-opacity="0.025"/>
<line x1="784" y1="0" x2="784" y2="1000" stroke="#ffffff" stroke-opacity="0.025"/>
<line x1="840" y1="0" x2="840" y2="1000" stroke="#ffffff" stroke-opacity="0.025"/>
<line x1="896" y1="0" x2="896" y2="1000" stroke="#ffffff" stroke-opacity="0.025"/>
<line x1="952" y1="0" x2="952" y2="1000" stroke="#ffffff" stroke-opacity="0.025"/>
<line x1="1008" y1="0" x2="1008" y2="1000" stroke="#ffffff" stroke-opacity="0.025"/>
<line x1="1064" y1="0" x2="1064" y2="1000" stroke="#ffffff" stroke-opacity="0.025"/>
<line x1="1120" y1="0" x2="1120" y2="1000" stroke="#ffffff" stroke-opacity="0.025"/>
<line x1="1176" y1="0" x2="1176" y2="1000" stroke="#ffffff" stroke-opacity="0.025"/>
<line x1="1232" y1="0" x2="1232" y2="1000" stroke="#ffffff" stroke-opacity="0.025"/>
<line x1="1288" y1="0" x2="1288" y2="1000" stroke="#ffffff" stroke-opacity="0.025"/>
<line x1="1344" y1="0" x2="1344" y2="1000" stroke="#ffffff" stroke-opacity="0.025"/>
<line x1="1400" y1="0" x2="1400" y2="1000" stroke="#ffffff" stroke-opacity="0.025"/>
<line x1="1456" y1="0" x2="1456" y2="1000" stroke="#ffffff" stroke-opacity="0.025"/>
<line x1="1512" y1="0" x2="1512" y2="1000" stroke="#ffffff" stroke-opacity="0.025"/>
<line x1="1568" y1="0" x2="1568" y2="1000" stroke="#ffffff" stroke-opacity="0.025"/>
<line x1="0" y1="0" x2="1600" y2="0" stroke="#ffffff" stroke-opacity="0.025"/>
<line x1="0" y1="56" x2="1600" y2="56" stroke="#ffffff" stroke-opacity="0.025"/>
<line x1="0" y1="112" x2="1600" y2="112" stroke="#ffffff" stroke-opacity="0.025"/>
<line x1="0" y1="168" x2="1600" y2="168" stroke="#ffffff" stroke-opacity="0.025"/>
<line x1="0" y1="224" x2="1600" y2="224" stroke="#ffffff" stroke-opacity="0.025"/>
<line x1="0" y1="280" x2="1600" y2="280" stroke="#ffffff" stroke-opacity="0.025"/>
<line x1="0" y1="336" x2="1600" y2="336" stroke="#ffffff" stroke-opacity="0.025"/>
<line x1="0" y1="392" x2="1600" y2="392" stroke="#ffffff" stroke-opacity="0.025"/>
<line x1="0" y1="448" x2="1600" y2="448" stroke="#ffffff" stroke-opacity="0.025"/>
<line x1="0" y1="504" x2="1600" y2="504" stroke="#ffffff" stroke-opacity="0.025"/>
<line x1="0" y1="560" x2="1600" y2="560" stroke="#ffffff" stroke-opacity="0.025"/>
<line x1="0" y1="616" x2="1600" y2="616" stroke="#ffffff" stroke-opacity="0.025"/>
<line x1="0" y1="672" x2="1600" y2="672" stroke="#ffffff" stroke-opacity="0.025"/>
<line x1="0" y1="728" x2="1600" y2="728" stroke="#ffffff" stroke-opacity="0.025"/>
<line x1="0" y1="784" x2="1600" y2="784" stroke="#ffffff" stroke-opacity="0.025"/>
<line x1="0" y1="840" x2="1600" y2="840" stroke="#ffffff" stroke-opacity="0.025"/>
<line x1="0" y1="896" x2="1600" y2="896" stroke="#ffffff" stroke-opacity="0.025"/>
<line x1="0" y1="952" x2="1600" y2="952" stroke="#ffffff" stroke-opacity="0.025"/>
<path d="M 453.0,657.2 L 438.1,642.0 L 427.9,631.6 L 413.4,617.9 L 393.4,597.6 L 391.5,595.5 L 389.8,593.4 L 388.8,592.1 L 388.0,591.1 L 387.4,590.2 L 387.0,589.3 L 386.6,588.2 L 386.4,587.5 L 386.4,586.7 L 386.5,586.0 L 386.7,585.2 L 387.1,584.1 L 387.7,582.7 L 388.7,580.7 L 390.3,577.5 L 391.9,574.0 L 393.6,570.2 L 394.6,567.3 L 395.8,562.9 L 396.6,557.8 L 397.0,551.5 L 396.9,546.6 L 396.4,541.1 L 395.8,536.6 L 395.4,534.2 L 394.8,532.2 L 393.8,529.4 L 392.5,526.4 L 391.0,523.2 L 387.5,517.5 L 385.0,514.4 L 382.4,511.6 L 379.2,508.2 L 376.3,505.4 L 368.7,498.2 L 346.4,477.5 L 344.4,475.5 L 330.0,460.7 L 310.6,439.2 L 288.2,411.4 L 282.4,404.0 L 275.2,394.0 L 268.9,384.6 L 266.0,379.7 L 259.3,368.7 L 237.1,329.0 L 230.7,315.6 L 230.3,314.1 L 230.2,312.6 L 230.5,310.6 L 231.0,308.9 L 232.0,307.1 L 233.4,305.5 L 235.1,304.6 L 237.7,303.7 L 241.1,303.0 L 247.5,302.1 L 252.4,301.1 L 256.4,299.7 L 261.4,298.8 L 269.2,297.5 L 280.4,295.5 L 285.2,294.3 L 288.2,293.3 L 290.8,291.6 L 292.8,289.3 L 294.1,286.8 L 294.9,284.8 L 295.7,282.1 L 296.1,279.8 L 296.2,277.6 L 293.5,210.0 L 293.5,208.8 L 293.4,206.8 L 293.0,195.8 L 292.8,192.8 L 292.7,192.4 L 294.9,189.2 L 296.0,187.6 L 297.1,186.1 L 298.4,184.6 L 298.8,184.1 L 300.3,182.7 L 301.4,181.6 L 302.6,180.5 L 304.6,179.0 L 310.4,174.9 L 343.3,151.1 L 351.4,145.4 L 355.5,142.9 L 360.3,140.0 L 367.9,136.5 L 375.6,133.2 L 377.6,132.5 L 379.3,132.4 L 381.3,132.4 L 382.5,131.3 L 383.1,130.8 L 383.7,130.3 L 385.9,129.4 L 387.3,128.7 L 409.5,119.7 L 415.4,117.3 L 422.6,114.3 L 429.4,111.3 L 437.1,107.2 L 442.9,104.0 L 451.2,99.0 L 456.0,96.0 L 459.4,94.0 L 466.3,90.0 L 468.2,93.2 L 470.8,96.9 L 473.3,99.7 L 476.1,102.7 L 477.8,104.3 L 479.2,105.8 L 481.0,107.5 L 482.9,109.0 L 484.1,110.0 L 485.5,111.1 L 487.0,112.1 L 489.0,113.3 L 490.7,114.3 L 492.4,115.2 L 494.5,116.1 L 497.3,117.2 L 499.2,117.9 L 501.5,118.7 L 504.4,119.4 L 506.9,120.0 L 513.2,120.8 L 520.9,121.3 L 526.8,121.6 L 531.1,122.0 L 536.7,122.8 L 542.5,123.9 L 547.8,125.5 L 552.0,127.0 L 558.0,129.4 L 563.0,131.7 L 567.0,134.0 L 573.9,138.8 L 581.6,144.9 L 587.0,150.4 L 592.9,157.5 L 595.8,162.2 L 599.4,167.6 L 601.8,172.4 L 604.8,179.5 L 606.6,184.3 L 608.2,190.6 L 611.3,207.1 L 619.6,249.3 L 620.7,260.4 L 620.9,268.1 L 620.6,272.9 L 620.4,276.6 L 620.0,281.2 L 619.2,286.5 L 618.3,290.6 L 616.9,296.7 L 615.1,302.4 L 613.3,307.9 L 610.9,315.2 L 608.8,320.7 L 607.2,324.8 L 605.5,329.0 L 603.9,333.0 L 602.2,337.4 L 601.0,340.4 L 598.7,345.7 L 595.8,352.9 L 589.9,368.0 L 583.6,384.2 L 580.4,394.4 L 576.2,410.4 L 575.1,417.1 L 574.5,421.6 L 573.9,428.4 L 573.5,438.6 L 573.7,444.8 L 574.4,457.4 L 575.0,462.5 L 576.7,472.3 L 577.8,478.2 L 578.9,482.3 L 580.6,488.4 L 584.0,498.9 L 587.1,506.8 L 591.0,515.1 L 595.9,524.0 L 601.5,533.2 L 606.7,540.6 L 612.7,549.0 L 618.8,555.5 L 625.5,562.2 L 638.4,573.7 L 651.8,585.3 L 671.4,602.5 L 679.3,609.9 L 680.9,611.2 L 682.8,612.5 L 684.6,613.4 L 686.5,614.1 L 689.0,614.8 L 691.4,615.1 L 693.8,615.2 L 708.3,613.4 L 716.5,612.2 L 736.7,609.4 L 739.4,608.9 L 741.4,608.9 L 743.2,609.1 L 744.2,609.4 L 745.1,609.9 L 745.9,610.4 L 757.7,621.1 L 767.2,629.2 L 788.3,647.4 L 802.6,659.6 L 812.9,667.9 L 818.3,672.5 L 824.4,677.7 L 827.1,680.6 L 831.4,684.9 L 834.4,688.3 L 837.6,692.1 L 838.0,692.5 L 840.2,695.1 L 842.1,697.3 L 845.0,701.4 L 847.8,705.8 L 850.5,710.5 L 853.0,716.0 L 856.5,723.8 L 858.9,730.0 L 861.5,737.9 L 864.0,746.0 L 867.0,756.3 L 871.7,772.3 L 880.9,804.9 L 882.8,810.7 L 884.9,817.7 L 887.6,826.8 L 892.2,844.5 L 894.1,852.2 L 895.8,859.1 L 897.8,871.5 L 899.8,882.9 L 860.0,892.3 L 845.7,895.5 L 833.3,898.7 L 827.0,900.4 L 821.5,902.0 L 815.2,904.0 L 810.4,905.5 L 806.2,906.8 L 798.4,909.1 L 795.6,909.7 L 793.9,909.9 L 792.0,910.0 L 788.8,909.9 L 787.0,909.6 L 784.9,909.2 L 782.0,908.2 L 779.4,907.3 L 776.4,905.7 L 774.1,904.2 L 771.6,902.3 L 769.7,900.4 L 767.5,897.9 L 765.2,894.7 L 738.1,845.6 L 726.0,825.8 L 722.8,820.9 L 720.9,818.5 L 719.4,817.0 L 717.7,816.1 L 715.4,815.8 L 713.7,816.0 L 712.3,816.6 L 711.0,817.5 L 708.7,819.9 L 697.0,833.2 L 688.0,843.4 L 684.3,847.6 L 681.4,850.7 L 679.5,852.5 L 676.6,854.2 L 673.6,855.5 L 669.9,857.0 L 665.4,857.8 L 661.3,857.9 L 657.4,857.3 L 653.1,856.0 L 649.5,854.4 L 646.7,852.6 L 643.5,850.1 L 641.0,847.6 L 603.6,809.5 L 507.9,712.9 L 466.2,670.5 L 453.0,657.2 Z" fill="none" stroke="#000000" stroke-opacity="0.5" stroke-width="13" stroke-linejoin="round" stroke-linecap="round"/>
<path d="M 453.0,657.2 L 438.1,642.0 L 427.9,631.6 L 413.4,617.9 L 393.4,597.6 L 391.5,595.5 L 389.8,593.4 L 388.8,592.1 L 388.0,591.1 L 387.4,590.2 L 387.0,589.3 L 386.6,588.2 L 386.4,587.5 L 386.4,586.7 L 386.5,586.0 L 386.7,585.2 L 387.1,584.1 L 387.7,582.7 L 388.7,580.7 L 390.3,577.5 L 391.9,574.0 L 393.6,570.2 L 394.6,567.3 L 395.8,562.9 L 396.6,557.8 L 397.0,551.5 L 396.9,546.6 L 396.4,541.1 L 395.8,536.6 L 395.4,534.2 L 394.8,532.2 L 393.8,529.4 L 392.5,526.4 L 391.0,523.2 L 387.5,517.5 L 385.0,514.4 L 382.4,511.6 L 379.2,508.2 L 376.3,505.4 L 368.7,498.2 L 346.4,477.5 L 344.4,475.5 L 330.0,460.7 L 310.6,439.2 L 288.2,411.4 L 282.4,404.0 L 275.2,394.0 L 268.9,384.6 L 266.0,379.7 L 259.3,368.7 L 237.1,329.0 L 230.7,315.6 L 230.3,314.1 L 230.2,312.6 L 230.5,310.6 L 231.0,308.9 L 232.0,307.1 L 233.4,305.5 L 235.1,304.6 L 237.7,303.7 L 241.1,303.0 L 247.5,302.1 L 252.4,301.1 L 256.4,299.7 L 261.4,298.8 L 269.2,297.5 L 280.4,295.5 L 285.2,294.3 L 288.2,293.3 L 290.8,291.6 L 292.8,289.3 L 294.1,286.8 L 294.9,284.8 L 295.7,282.1 L 296.1,279.8 L 296.2,277.6 L 293.5,210.0 L 293.5,208.8 L 293.4,206.8 L 293.0,195.8 L 292.8,192.8 L 292.7,192.4 L 294.9,189.2 L 296.0,187.6 L 297.1,186.1 L 298.4,184.6 L 298.8,184.1 L 300.3,182.7 L 301.4,181.6 L 302.6,180.5 L 304.6,179.0 L 310.4,174.9 L 343.3,151.1 L 351.4,145.4 L 355.5,142.9 L 360.3,140.0 L 367.9,136.5 L 375.6,133.2 L 377.6,132.5 L 379.3,132.4 L 381.3,132.4 L 382.5,131.3 L 383.1,130.8 L 383.7,130.3 L 385.9,129.4 L 387.3,128.7 L 409.5,119.7 L 415.4,117.3 L 422.6,114.3 L 429.4,111.3 L 437.1,107.2 L 442.9,104.0 L 451.2,99.0 L 456.0,96.0 L 459.4,94.0 L 466.3,90.0 L 468.2,93.2 L 470.8,96.9 L 473.3,99.7 L 476.1,102.7 L 477.8,104.3 L 479.2,105.8 L 481.0,107.5 L 482.9,109.0 L 484.1,110.0 L 485.5,111.1 L 487.0,112.1 L 489.0,113.3 L 490.7,114.3 L 492.4,115.2 L 494.5,116.1 L 497.3,117.2 L 499.2,117.9 L 501.5,118.7 L 504.4,119.4 L 506.9,120.0 L 513.2,120.8 L 520.9,121.3 L 526.8,121.6 L 531.1,122.0 L 536.7,122.8 L 542.5,123.9 L 547.8,125.5 L 552.0,127.0 L 558.0,129.4 L 563.0,131.7 L 567.0,134.0 L 573.9,138.8 L 581.6,144.9 L 587.0,150.4 L 592.9,157.5 L 595.8,162.2 L 599.4,167.6 L 601.8,172.4 L 604.8,179.5 L 606.6,184.3 L 608.2,190.6 L 611.3,207.1 L 619.6,249.3 L 620.7,260.4 L 620.9,268.1 L 620.6,272.9 L 620.4,276.6 L 620.0,281.2 L 619.2,286.5 L 618.3,290.6 L 616.9,296.7 L 615.1,302.4 L 613.3,307.9 L 610.9,315.2 L 608.8,320.7 L 607.2,324.8 L 605.5,329.0 L 603.9,333.0 L 602.2,337.4 L 601.0,340.4 L 598.7,345.7 L 595.8,352.9 L 589.9,368.0 L 583.6,384.2 L 580.4,394.4 L 576.2,410.4 L 575.1,417.1 L 574.5,421.6 L 573.9,428.4 L 573.5,438.6 L 573.7,444.8 L 574.4,457.4 L 575.0,462.5 L 576.7,472.3 L 577.8,478.2 L 578.9,482.3 L 580.6,488.4 L 584.0,498.9 L 587.1,506.8 L 591.0,515.1 L 595.9,524.0 L 601.5,533.2 L 606.7,540.6 L 612.7,549.0 L 618.8,555.5 L 625.5,562.2 L 638.4,573.7 L 651.8,585.3 L 671.4,602.5 L 679.3,609.9 L 680.9,611.2 L 682.8,612.5 L 684.6,613.4 L 686.5,614.1 L 689.0,614.8 L 691.4,615.1 L 693.8,615.2 L 708.3,613.4 L 716.5,612.2 L 736.7,609.4 L 739.4,608.9 L 741.4,608.9 L 743.2,609.1 L 744.2,609.4 L 745.1,609.9 L 745.9,610.4 L 757.7,621.1 L 767.2,629.2 L 788.3,647.4 L 802.6,659.6 L 812.9,667.9 L 818.3,672.5 L 824.4,677.7 L 827.1,680.6 L 831.4,684.9 L 834.4,688.3 L 837.6,692.1 L 838.0,692.5 L 840.2,695.1 L 842.1,697.3 L 845.0,701.4 L 847.8,705.8 L 850.5,710.5 L 853.0,716.0 L 856.5,723.8 L 858.9,730.0 L 861.5,737.9 L 864.0,746.0 L 867.0,756.3 L 871.7,772.3 L 880.9,804.9 L 882.8,810.7 L 884.9,817.7 L 887.6,826.8 L 892.2,844.5 L 894.1,852.2 L 895.8,859.1 L 897.8,871.5 L 899.8,882.9 L 860.0,892.3 L 845.7,895.5 L 833.3,898.7 L 827.0,900.4 L 821.5,902.0 L 815.2,904.0 L 810.4,905.5 L 806.2,906.8 L 798.4,909.1 L 795.6,909.7 L 793.9,909.9 L 792.0,910.0 L 788.8,909.9 L 787.0,909.6 L 784.9,909.2 L 782.0,908.2 L 779.4,907.3 L 776.4,905.7 L 774.1,904.2 L 771.6,902.3 L 769.7,900.4 L 767.5,897.9 L 765.2,894.7 L 738.1,845.6 L 726.0,825.8 L 722.8,820.9 L 720.9,818.5 L 719.4,817.0 L 717.7,816.1 L 715.4,815.8 L 713.7,816.0 L 712.3,816.6 L 711.0,817.5 L 708.7,819.9 L 697.0,833.2 L 688.0,843.4 L 684.3,847.6 L 681.4,850.7 L 679.5,852.5 L 676.6,854.2 L 673.6,855.5 L 669.9,857.0 L 665.4,857.8 L 661.3,857.9 L 657.4,857.3 L 653.1,856.0 L 649.5,854.4 L 646.7,852.6 L 643.5,850.1 L 641.0,847.6 L 603.6,809.5 L 507.9,712.9 L 466.2,670.5 L 453.0,657.2 Z" fill="none" stroke="#39404f" stroke-width="8.5" stroke-linejoin="round" stroke-linecap="round"/>
<path d="M 453.0,657.2 L 438.1,642.0 L 427.9,631.6 L 413.4,617.9 L 393.4,597.6 L 391.5,595.5 L 389.8,593.4 L 388.8,592.1 L 388.0,591.1 L 387.4,590.2 L 387.0,589.3 L 386.6,588.2 L 386.4,587.5 L 386.4,586.7 L 386.5,586.0 L 386.7,585.2 L 387.1,584.1 L 387.7,582.7 L 388.7,580.7 L 390.3,577.5 L 391.9,574.0 L 393.6,570.2 L 394.6,567.3 L 395.8,562.9 L 396.6,557.8 L 397.0,551.5 L 396.9,546.6 L 396.4,541.1 L 395.8,536.6 L 395.4,534.2 L 394.8,532.2 L 393.8,529.4 L 392.5,526.4 L 391.0,523.2 L 387.5,517.5 L 385.0,514.4 L 382.4,511.6 L 379.2,508.2 L 376.3,505.4 L 368.7,498.2 L 346.4,477.5 L 344.4,475.5 L 330.0,460.7 L 310.6,439.2 L 288.2,411.4 L 282.4,404.0 L 275.2,394.0 L 268.9,384.6 L 266.0,379.7 L 259.3,368.7 L 237.1,329.0 L 230.7,315.6 L 230.3,314.1 L 230.2,312.6 L 230.5,310.6 L 231.0,308.9 L 232.0,307.1 L 233.4,305.5 L 235.1,304.6 L 237.7,303.7 L 241.1,303.0 L 247.5,302.1 L 252.4,301.1 L 256.4,299.7 L 261.4,298.8 L 269.2,297.5 L 280.4,295.5 L 285.2,294.3 L 288.2,293.3 L 290.8,291.6 L 292.8,289.3 L 294.1,286.8 L 294.9,284.8 L 295.7,282.1 L 296.1,279.8 L 296.2,277.6 L 293.5,210.0 L 293.5,208.8 L 293.4,206.8 L 293.0,195.8 L 292.8,192.8 L 292.7,192.4 L 294.9,189.2 L 296.0,187.6 L 297.1,186.1 L 298.4,184.6 L 298.8,184.1 L 300.3,182.7 L 301.4,181.6 L 302.6,180.5 L 304.6,179.0 L 310.4,174.9 L 343.3,151.1 L 351.4,145.4 L 355.5,142.9 L 360.3,140.0 L 367.9,136.5 L 375.6,133.2 L 377.6,132.5 L 379.3,132.4 L 381.3,132.4 L 382.5,131.3 L 383.1,130.8 L 383.7,130.3 L 385.9,129.4 L 387.3,128.7 L 409.5,119.7 L 415.4,117.3 L 422.6,114.3 L 429.4,111.3 L 437.1,107.2 L 442.9,104.0 L 451.2,99.0 L 456.0,96.0 L 459.4,94.0 L 466.3,90.0 L 468.2,93.2 L 470.8,96.9 L 473.3,99.7 L 476.1,102.7 L 477.8,104.3 L 479.2,105.8 L 481.0,107.5 L 482.9,109.0 L 484.1,110.0 L 485.5,111.1 L 487.0,112.1 L 489.0,113.3 L 490.7,114.3 L 492.4,115.2 L 494.5,116.1 L 497.3,117.2 L 499.2,117.9 L 501.5,118.7 L 504.4,119.4 L 506.9,120.0 L 513.2,120.8 L 520.9,121.3 L 526.8,121.6 L 531.1,122.0 L 536.7,122.8 L 542.5,123.9 L 547.8,125.5 L 552.0,127.0 L 558.0,129.4 L 563.0,131.7 L 567.0,134.0 L 573.9,138.8 L 581.6,144.9 L 587.0,150.4 L 592.9,157.5 L 595.8,162.2 L 599.4,167.6 L 601.8,172.4 L 604.8,179.5 L 606.6,184.3 L 608.2,190.6 L 611.3,207.1 L 619.6,249.3 L 620.7,260.4 L 620.9,268.1 L 620.6,272.9 L 620.4,276.6 L 620.0,281.2 L 619.2,286.5 L 618.3,290.6 L 616.9,296.7 L 615.1,302.4 L 613.3,307.9 L 610.9,315.2 L 608.8,320.7 L 607.2,324.8 L 605.5,329.0 L 603.9,333.0 L 602.2,337.4 L 601.0,340.4 L 598.7,345.7 L 595.8,352.9 L 589.9,368.0 L 583.6,384.2 L 580.4,394.4 L 576.2,410.4 L 575.1,417.1 L 574.5,421.6 L 573.9,428.4 L 573.5,438.6 L 573.7,444.8 L 574.4,457.4 L 575.0,462.5 L 576.7,472.3 L 577.8,478.2 L 578.9,482.3 L 580.6,488.4 L 584.0,498.9 L 587.1,506.8 L 591.0,515.1 L 595.9,524.0 L 601.5,533.2 L 606.7,540.6 L 612.7,549.0 L 618.8,555.5 L 625.5,562.2 L 638.4,573.7 L 651.8,585.3 L 671.4,602.5 L 679.3,609.9 L 680.9,611.2 L 682.8,612.5 L 684.6,613.4 L 686.5,614.1 L 689.0,614.8 L 691.4,615.1 L 693.8,615.2 L 708.3,613.4 L 716.5,612.2 L 736.7,609.4 L 739.4,608.9 L 741.4,608.9 L 743.2,609.1 L 744.2,609.4 L 745.1,609.9 L 745.9,610.4 L 757.7,621.1 L 767.2,629.2 L 788.3,647.4 L 802.6,659.6 L 812.9,667.9 L 818.3,672.5 L 824.4,677.7 L 827.1,680.6 L 831.4,684.9 L 834.4,688.3 L 837.6,692.1 L 838.0,692.5 L 840.2,695.1 L 842.1,697.3 L 845.0,701.4 L 847.8,705.8 L 850.5,710.5 L 853.0,716.0 L 856.5,723.8 L 858.9,730.0 L 861.5,737.9 L 864.0,746.0 L 867.0,756.3 L 871.7,772.3 L 880.9,804.9 L 882.8,810.7 L 884.9,817.7 L 887.6,826.8 L 892.2,844.5 L 894.1,852.2 L 895.8,859.1 L 897.8,871.5 L 899.8,882.9 L 860.0,892.3 L 845.7,895.5 L 833.3,898.7 L 827.0,900.4 L 821.5,902.0 L 815.2,904.0 L 810.4,905.5 L 806.2,906.8 L 798.4,909.1 L 795.6,909.7 L 793.9,909.9 L 792.0,910.0 L 788.8,909.9 L 787.0,909.6 L 784.9,909.2 L 782.0,908.2 L 779.4,907.3 L 776.4,905.7 L 774.1,904.2 L 771.6,902.3 L 769.7,900.4 L 767.5,897.9 L 765.2,894.7 L 738.1,845.6 L 726.0,825.8 L 722.8,820.9 L 720.9,818.5 L 719.4,817.0 L 717.7,816.1 L 715.4,815.8 L 713.7,816.0 L 712.3,816.6 L 711.0,817.5 L 708.7,819.9 L 697.0,833.2 L 688.0,843.4 L 684.3,847.6 L 681.4,850.7 L 679.5,852.5 L 676.6,854.2 L 673.6,855.5 L 669.9,857.0 L 665.4,857.8 L 661.3,857.9 L 657.4,857.3 L 653.1,856.0 L 649.5,854.4 L 646.7,852.6 L 643.5,850.1 L 641.0,847.6 L 603.6,809.5 L 507.9,712.9 L 466.2,670.5 L 453.0,657.2 Z" fill="none" stroke="#e7edf8" stroke-width="2.6" stroke-linejoin="round" stroke-linecap="round"/>
<path d="M 453.0,657.2 L 438.1,642.0 L 427.9,631.6 L 413.4,617.9 L 393.4,597.6 L 391.5,595.5 L 389.8,593.4 L 388.8,592.1 L 388.0,591.1 L 387.4,590.2 L 387.0,589.3 L 386.6,588.2 L 386.4,587.5 L 386.4,586.7 L 386.5,586.0 L 386.7,585.2 L 387.1,584.1 L 387.7,582.7 L 388.7,580.7 L 390.3,577.5 L 391.9,574.0 L 393.6,570.2 L 394.6,567.3 L 395.8,562.9 L 396.6,557.8 L 397.0,551.5 L 396.9,546.6 L 396.4,541.1 L 395.8,536.6 L 395.4,534.2 L 394.8,532.2 L 393.8,529.4 L 392.5,526.4 L 391.0,523.2 L 387.5,517.5 L 385.0,514.4 L 382.4,511.6 L 379.2,508.2 L 376.3,505.4 L 368.7,498.2 L 346.4,477.5 L 344.4,475.5 L 330.0,460.7 L 310.6,439.2 L 288.2,411.4 L 282.4,404.0 L 275.2,394.0 L 268.9,384.6 L 266.0,379.7 L 259.3,368.7 L 237.1,329.0 L 230.7,315.6 L 230.3,314.1 L 230.2,312.6 L 230.5,310.6 L 231.0,308.9 L 232.0,307.1 L 233.4,305.5 L 235.1,304.6 L 237.7,303.7 L 241.1,303.0 L 247.5,302.1 L 252.4,301.1 L 256.4,299.7 L 261.4,298.8 L 269.2,297.5 L 280.4,295.5 L 285.2,294.3 L 288.2,293.3 L 290.8,291.6 L 292.8,289.3 L 294.1,286.8 L 294.9,284.8 L 295.7,282.1 L 296.1,279.8 L 296.2,277.6 L 293.5,210.0 L 293.5,208.8 L 293.4,206.8 L 293.0,195.8 L 292.8,192.8 L 292.7,192.4 L 294.9,189.2 L 296.0,187.6 L 297.1,186.1 L 298.4,184.6 L 298.8,184.1 L 300.3,182.7 L 301.4,181.6 L 302.6,180.5 L 304.6,179.0 L 310.4,174.9 L 343.3,151.1 L 351.4,145.4 L 355.5,142.9 L 360.3,140.0 L 367.9,136.5 L 375.6,133.2 L 377.6,132.5 L 379.3,132.4 L 381.3,132.4 L 382.5,131.3 L 383.1,130.8 L 383.7,130.3 L 385.9,129.4 L 387.3,128.7 L 409.5,119.7 L 415.4,117.3 L 422.6,114.3 L 429.4,111.3 L 437.1,107.2 L 442.9,104.0 L 451.2,99.0 L 456.0,96.0 L 459.4,94.0 L 466.3,90.0 L 468.2,93.2 L 470.8,96.9 L 473.3,99.7 L 476.1,102.7 L 477.8,104.3 L 479.2,105.8 L 481.0,107.5 L 482.9,109.0 L 484.1,110.0 L 485.5,111.1 L 487.0,112.1 L 489.0,113.3 L 490.7,114.3 L 492.4,115.2 L 494.5,116.1 L 497.3,117.2 L 499.2,117.9 L 501.5,118.7 L 504.4,119.4 L 506.9,120.0 L 513.2,120.8 L 520.9,121.3 L 526.8,121.6 L 531.1,122.0 L 536.7,122.8 L 542.5,123.9 L 547.8,125.5 L 552.0,127.0 L 558.0,129.4 L 563.0,131.7 L 567.0,134.0 L 573.9,138.8 L 581.6,144.9 L 587.0,150.4 L 592.9,157.5 L 595.8,162.2 L 599.4,167.6 L 601.8,172.4 L 604.8,179.5 L 606.6,184.3 L 608.2,190.6 L 611.3,207.1 L 619.6,249.3 L 620.7,260.4 L 620.9,268.1 L 620.6,272.9 L 620.4,276.6 L 620.0,281.2 L 619.2,286.5 L 618.3,290.6 L 616.9,296.7 L 615.1,302.4 L 613.3,307.9 L 610.9,315.2 L 608.8,320.7 L 607.2,324.8 L 605.5,329.0 L 603.9,333.0 L 602.2,337.4 L 601.0,340.4 L 598.7,345.7 L 595.8,352.9 L 589.9,368.0 L 583.6,384.2 L 580.4,394.4 L 576.2,410.4 L 575.1,417.1 L 574.5,421.6 L 573.9,428.4 L 573.5,438.6 L 573.7,444.8 L 574.4,457.4 L 575.0,462.5 L 576.7,472.3 L 577.8,478.2 L 578.9,482.3 L 580.6,488.4 L 584.0,498.9 L 587.1,506.8 L 591.0,515.1 L 595.9,524.0 L 601.5,533.2 L 606.7,540.6 L 612.7,549.0 L 618.8,555.5 L 625.5,562.2 L 638.4,573.7 L 651.8,585.3 L 671.4,602.5 L 679.3,609.9 L 680.9,611.2 L 682.8,612.5 L 684.6,613.4 L 686.5,614.1 L 689.0,614.8 L 691.4,615.1 L 693.8,615.2 L 708.3,613.4 L 716.5,612.2 L 736.7,609.4 L 739.4,608.9 L 741.4,608.9 L 743.2,609.1 L 744.2,609.4 L 745.1,609.9 L 745.9,610.4 L 757.7,621.1 L 767.2,629.2 L 788.3,647.4 L 802.6,659.6 L 812.9,667.9 L 818.3,672.5 L 824.4,677.7 L 827.1,680.6 L 831.4,684.9 L 834.4,688.3 L 837.6,692.1 L 838.0,692.5 L 840.2,695.1 L 842.1,697.3 L 845.0,701.4 L 847.8,705.8 L 850.5,710.5 L 853.0,716.0 L 856.5,723.8 L 858.9,730.0 L 861.5,737.9 L 864.0,746.0 L 867.0,756.3 L 871.7,772.3 L 880.9,804.9 L 882.8,810.7 L 884.9,817.7 L 887.6,826.8 L 892.2,844.5 L 894.1,852.2 L 895.8,859.1 L 897.8,871.5 L 899.8,882.9 L 860.0,892.3 L 845.7,895.5 L 833.3,898.7 L 827.0,900.4 L 821.5,902.0 L 815.2,904.0 L 810.4,905.5 L 806.2,906.8 L 798.4,909.1 L 795.6,909.7 L 793.9,909.9 L 792.0,910.0 L 788.8,909.9 L 787.0,909.6 L 784.9,909.2 L 782.0,908.2 L 779.4,907.3 L 776.4,905.7 L 774.1,904.2 L 771.6,902.3 L 769.7,900.4 L 767.5,897.9 L 765.2,894.7 L 738.1,845.6 L 726.0,825.8 L 722.8,820.9 L 720.9,818.5 L 719.4,817.0 L 717.7,816.1 L 715.4,815.8 L 713.7,816.0 L 712.3,816.6 L 711.0,817.5 L 708.7,819.9 L 697.0,833.2 L 688.0,843.4 L 684.3,847.6 L 681.4,850.7 L 679.5,852.5 L 676.6,854.2 L 673.6,855.5 L 669.9,857.0 L 665.4,857.8 L 661.3,857.9 L 657.4,857.3 L 653.1,856.0 L 649.5,854.4 L 646.7,852.6 L 643.5,850.1 L 641.0,847.6 L 603.6,809.5 L 507.9,712.9 L 466.2,670.5 L 453.0,657.2 Z" fill="none" stroke="#ff5a36" stroke-opacity="0.55" stroke-width="1.2" stroke-linejoin="round" filter="url(#glow)"/>
<circle cx="453.0" cy="657.3" r="13" fill="none" stroke="#ffffff" stroke-width="3"/>
<rect x="449.0" y="635.3" width="8" height="18" fill="#ffffff"/>
<circle cx="382.1" cy="511.3" r="7" fill="#ff5a36" stroke="#0a0c12" stroke-width="2.5" filter="url(#glow)"/>
<text x="382.1" y="514.7" font-size="9" font-weight="700" fill="#0a0c12" text-anchor="middle">1</text>
<circle cx="362.4" cy="492.3" r="7" fill="#ff5a36" stroke="#0a0c12" stroke-width="2.5" filter="url(#glow)"/>
<text x="362.4" y="495.7" font-size="9" font-weight="700" fill="#0a0c12" text-anchor="middle">2</text>
<circle cx="296.1" cy="275.4" r="7" fill="#ff5a36" stroke="#0a0c12" stroke-width="2.5" filter="url(#glow)"/>
<text x="296.1" y="278.8" font-size="9" font-weight="700" fill="#0a0c12" text-anchor="middle">3</text>
<circle cx="293.4" cy="207.8" r="7" fill="#ff5a36" stroke="#0a0c12" stroke-width="2.5" filter="url(#glow)"/>
<text x="293.4" y="211.2" font-size="9" font-weight="700" fill="#0a0c12" text-anchor="middle">4</text>
<circle cx="358.2" cy="141.3" r="7" fill="#ff5a36" stroke="#0a0c12" stroke-width="2.5" filter="url(#glow)"/>
<text x="358.2" y="144.7" font-size="9" font-weight="700" fill="#0a0c12" text-anchor="middle">5</text>
<circle cx="531.4" cy="122.0" r="7" fill="#ff5a36" stroke="#0a0c12" stroke-width="2.5" filter="url(#glow)"/>
<text x="531.4" y="125.4" font-size="9" font-weight="700" fill="#0a0c12" text-anchor="middle">6</text>
<circle cx="566.9" cy="134.0" r="7" fill="#ff5a36" stroke="#0a0c12" stroke-width="2.5" filter="url(#glow)"/>
<text x="566.9" y="137.4" font-size="9" font-weight="700" fill="#0a0c12" text-anchor="middle">7</text>
<circle cx="613.9" cy="220.5" r="7" fill="#ff5a36" stroke="#0a0c12" stroke-width="2.5" filter="url(#glow)"/>
<text x="613.9" y="223.9" font-size="9" font-weight="700" fill="#0a0c12" text-anchor="middle">8</text>
<circle cx="758.3" cy="621.6" r="7" fill="#ff5a36" stroke="#0a0c12" stroke-width="2.5" filter="url(#glow)"/>
<text x="758.3" y="625.0" font-size="9" font-weight="700" fill="#0a0c12" text-anchor="middle">9</text>
<circle cx="804.1" cy="660.8" r="7" fill="#ff5a36" stroke="#0a0c12" stroke-width="2.5" filter="url(#glow)"/>
<text x="804.1" y="664.2" font-size="9" font-weight="700" fill="#0a0c12" text-anchor="middle">10</text>
<circle cx="821.0" cy="902.2" r="7" fill="#ff5a36" stroke="#0a0c12" stroke-width="2.5" filter="url(#glow)"/>
<text x="821.0" y="905.6" font-size="9" font-weight="700" fill="#0a0c12" text-anchor="middle">11</text>
<circle cx="736.1" cy="842.3" r="7" fill="#ff5a36" stroke="#0a0c12" stroke-width="2.5" filter="url(#glow)"/>
<text x="736.1" y="845.7" font-size="9" font-weight="700" fill="#0a0c12" text-anchor="middle">12</text>
<circle cx="655.3" cy="856.6" r="7" fill="#ff5a36" stroke="#0a0c12" stroke-width="2.5" filter="url(#glow)"/>
<text x="655.3" y="860.0" font-size="9" font-weight="700" fill="#0a0c12" text-anchor="middle">13</text>
<circle cx="606.0" cy="812.0" r="7" fill="#ff5a36" stroke="#0a0c12" stroke-width="2.5" filter="url(#glow)"/>
<text x="606.0" y="815.4" font-size="9" font-weight="700" fill="#0a0c12" text-anchor="middle">14</text>
<line x1="382.1" y1="511.3" x2="331.4" y2="527.4" stroke="#ff5a36" stroke-opacity="0.45" stroke-width="1.3"/>
<text x="323.4" y="531.4" font-size="15" font-weight="600" fill="#eef2fb" text-anchor="end">Turn 1</text>
<line x1="362.4" y1="492.3" x2="310.6" y2="497.4" stroke="#ff5a36" stroke-opacity="0.45" stroke-width="1.3"/>
<text x="302.6" y="501.4" font-size="15" font-weight="600" fill="#eef2fb" text-anchor="end">Turn 2</text>
<line x1="296.1" y1="275.4" x2="255.2" y2="252.0" stroke="#ff5a36" stroke-opacity="0.45" stroke-width="1.3"/>
<text x="247.2" y="256.0" font-size="15" font-weight="600" fill="#eef2fb" text-anchor="end">Turn 3</text>
<line x1="293.4" y1="207.8" x2="257.4" y2="222.0" stroke="#ff5a36" stroke-opacity="0.45" stroke-width="1.3"/>
<text x="249.4" y="226.0" font-size="15" font-weight="600" fill="#eef2fb" text-anchor="end">Turn 4</text>
<line x1="358.2" y1="141.3" x2="332.3" y2="192.0" stroke="#ff5a36" stroke-opacity="0.45" stroke-width="1.3"/>
<text x="324.3" y="196.0" font-size="15" font-weight="600" fill="#eef2fb" text-anchor="end">Turn 5</text>
<line x1="531.4" y1="122.0" x2="528.8" y2="162.0" stroke="#ff5a36" stroke-opacity="0.45" stroke-width="1.3"/>
<text x="520.8" y="166.0" font-size="15" font-weight="600" fill="#eef2fb" text-anchor="end">Turn 6</text>
<line x1="566.9" y1="134.0" x2="569.6" y2="82.1" stroke="#ff5a36" stroke-opacity="0.45" stroke-width="1.3"/>
<text x="577.6" y="86.1" font-size="15" font-weight="600" fill="#eef2fb" text-anchor="start">Turn 7</text>
<line x1="613.9" y1="220.5" x2="626.9" y2="170.1" stroke="#ff5a36" stroke-opacity="0.45" stroke-width="1.3"/>
<text x="634.9" y="174.1" font-size="15" font-weight="600" fill="#eef2fb" text-anchor="start">Turn 8</text>
<line x1="758.3" y1="621.6" x2="800.8" y2="651.6" stroke="#ff5a36" stroke-opacity="0.45" stroke-width="1.3"/>
<text x="808.8" y="655.6" font-size="15" font-weight="600" fill="#eef2fb" text-anchor="start">Lakeside</text>
<line x1="804.1" y1="660.8" x2="846.1" y2="691.6" stroke="#ff5a36" stroke-opacity="0.45" stroke-width="1.3"/>
<text x="854.1" y="695.6" font-size="15" font-weight="600" fill="#eef2fb" text-anchor="start">Turn 10</text>
<line x1="821.0" y1="902.2" x2="848.9" y2="953.3" stroke="#ff5a36" stroke-opacity="0.45" stroke-width="1.3"/>
<text x="856.9" y="957.3" font-size="15" font-weight="600" fill="#eef2fb" text-anchor="start">Turn 11</text>
<line x1="736.1" y1="842.3" x2="759.7" y2="893.3" stroke="#ff5a36" stroke-opacity="0.45" stroke-width="1.3"/>
<text x="767.7" y="897.3" font-size="15" font-weight="600" fill="#eef2fb" text-anchor="start">Turn 12</text>
<line x1="655.3" y1="856.6" x2="669.2" y2="923.3" stroke="#ff5a36" stroke-opacity="0.45" stroke-width="1.3"/>
<text x="677.2" y="927.3" font-size="15" font-weight="600" fill="#eef2fb" text-anchor="start">Turn 13</text>
<line x1="606.0" y1="812.0" x2="614.6" y2="863.3" stroke="#ff5a36" stroke-opacity="0.45" stroke-width="1.3"/>
<text x="622.6" y="867.3" font-size="15" font-weight="600" fill="#eef2fb" text-anchor="start">Turn 14</text>
<text x="90" y="64" font-size="20" letter-spacing="5" fill="#ff5a36" font-weight="700">TRACK ATLAS</text>
<text x="90" y="108" font-size="42" font-weight="800" fill="#ffffff">ALBERT PARK CIRCUIT</text>
<text x="90" y="136" font-size="16" fill="#9aa6bd">Melbourne, Albert Park</text>
<rect x="1170" y="200" width="360" height="710" rx="16" fill="#ffffff" fill-opacity="0.04" stroke="#ff5a36" stroke-opacity="0.5"/>
<text x="1198" y="250" font-size="13" letter-spacing="2" fill="#8794ab">LAYOUT</text>
<text x="1198" y="276" font-size="22" font-weight="700" fill="#eef2fb">Grand Prix Circuit</text>
<text x="1198" y="320" font-size="13" letter-spacing="2" fill="#8794ab">LENGTH</text>
<text x="1198" y="346" font-size="22" font-weight="700" fill="#eef2fb">5.278 km</text>
<text x="1198" y="390" font-size="13" letter-spacing="2" fill="#8794ab">CORNERS</text>
<text x="1198" y="416" font-size="22" font-weight="700" fill="#eef2fb">14</text>
<text x="1198" y="460" font-size="13" letter-spacing="2" fill="#8794ab">NAMED CORNERS</text>
<text x="1198" y="486" font-size="22" font-weight="700" fill="#eef2fb">14</text>
<text x="1198" y="530" font-size="13" letter-spacing="2" fill="#8794ab">DIRECTION</text>
<text x="1198" y="556" font-size="22" font-weight="700" fill="#eef2fb">Clockwise</text>
<text x="1198" y="600" font-size="13" letter-spacing="2" fill="#8794ab">SECTORS</text>
<text x="1198" y="626" font-size="22" font-weight="700" fill="#eef2fb">3</text>
<text x="1198" y="670" font-size="13" letter-spacing="2" fill="#8794ab">COUNTRY</text>
<text x="1198" y="696" font-size="22" font-weight="700" fill="#eef2fb">Australia</text>
<text x="1198" y="740" font-size="13" letter-spacing="2" fill="#8794ab">LOCATION</text>
<text x="1198" y="766" font-size="22" font-weight="700" fill="#eef2fb">Melbourne</text>
<text x="90" y="966" font-size="12" fill="#566177">Geometry © OpenStreetMap contributors (ODbL) · corner data: Lovely-Sim-Racing + curated · track-atlas</text>
<text x="90" y="942" font-size="12" fill="#8794ab">⚑ start / finish</text>
</svg>