<svg xmlns="http://www.w3.org/2000/svg" width="1600" height="1000" viewBox="0 0 1600 1000" font-family="Helvetica, Arial, sans-serif">
<defs>
      <radialGradient id="bg" cx="38%" cy="34%" r="85%">
        <stop offset="0%" stop-color="#1b2030"/>
        <stop offset="55%" stop-color="#12151f"/>
        <stop offset="100%" stop-color="#0a0c12"/>
      </radialGradient>
      <linearGradient id="accent" x1="0" y1="0" x2="1" y2="1">
        <stop offset="0%" stop-color="#ff5a36"/>
        <stop offset="100%" stop-color="#ffffff"/>
      </linearGradient>
      <filter id="glow" x="-40%" y="-40%" width="180%" height="180%">
        <feGaussianBlur stdDeviation="6" result="b"/>
        <feMerge><feMergeNode in="b"/><feMergeNode in="SourceGraphic"/></feMerge>
      </filter>
    </defs>
<rect width="1600" height="1000" fill="url(#bg)"/>
<path d="M 463.7,681.3 L 450.2,667.5 L 441.0,658.1 L 427.8,645.7 L 409.7,627.3 L 408.0,625.4 L 406.5,623.5 L 405.5,622.4 L 404.9,621.4 L 404.3,620.6 L 403.9,619.8 L 403.6,618.8 L 403.4,618.2 L 403.4,617.5 L 403.5,616.8 L 403.6,616.1 L 404.0,615.1 L 404.5,613.9 L 405.4,612.0 L 406.9,609.1 L 408.3,606.0 L 409.9,602.5 L 410.8,599.9 L 411.9,595.9 L 412.6,591.3 L 413.0,585.6 L 412.9,581.2 L 412.5,576.2 L 411.9,572.1 L 411.5,569.9 L 411.0,568.2 L 410.1,565.6 L 408.9,562.9 L 407.5,560.0 L 404.4,554.9 L 402.2,552.0 L 399.7,549.5 L 396.9,546.5 L 394.3,543.9 L 387.4,537.3 L 367.2,518.6 L 365.4,516.9 L 352.4,503.4 L 334.8,484.0 L 314.5,458.8 L 309.3,452.1 L 302.8,443.1 L 297.1,434.6 L 294.4,430.1 L 288.3,420.2 L 268.3,384.3 L 262.5,372.2 L 262.2,370.8 L 262.1,369.4 L 262.3,367.6 L 262.8,366.1 L 263.6,364.4 L 264.9,363.0 L 266.5,362.2 L 268.9,361.4 L 271.9,360.8 L 277.7,359.9 L 282.1,359.0 L 285.8,357.7 L 290.3,357.0 L 297.4,355.8 L 307.5,354.0 L 311.9,352.9 L 314.6,351.9 L 316.9,350.4 L 318.7,348.3 L 319.8,346.1 L 320.6,344.3 L 321.3,341.9 L 321.6,339.8 L 321.7,337.8 L 319.3,276.6 L 319.3,275.5 L 319.2,273.7 L 318.8,263.7 L 318.7,261.1 L 318.6,260.7 L 320.6,257.7 L 321.6,256.3 L 322.6,255.0 L 323.8,253.6 L 324.2,253.2 L 325.5,251.9 L 326.5,250.9 L 327.6,249.9 L 329.4,248.5 L 334.6,244.8 L 364.4,223.2 L 371.7,218.1 L 375.5,215.8 L 379.8,213.3 L 386.7,210.0 L 393.6,207.1 L 395.4,206.5 L 397.0,206.4 L 398.8,206.3 L 399.8,205.4 L 400.4,204.9 L 400.9,204.5 L 402.9,203.7 L 404.2,203.0 L 424.3,194.8 L 429.7,192.7 L 436.1,190.0 L 442.3,187.3 L 449.3,183.6 L 454.5,180.7 L 462.0,176.1 L 466.4,173.4 L 469.5,171.6 L 475.7,168.0 L 477.4,170.9 L 479.8,174.3 L 482.1,176.8 L 484.6,179.5 L 486.1,180.9 L 487.3,182.3 L 489.0,183.9 L 490.7,185.2 L 491.8,186.1 L 493.0,187.1 L 494.5,188.0 L 496.2,189.0 L 497.8,190.0 L 499.3,190.8 L 501.2,191.6 L 503.7,192.6 L 505.5,193.2 L 507.6,194.0 L 510.2,194.6 L 512.4,195.1 L 518.1,195.9 L 525.1,196.3 L 530.5,196.6 L 534.3,197.0 L 539.4,197.7 L 544.7,198.7 L 549.4,200.1 L 553.3,201.5 L 558.7,203.6 L 563.2,205.8 L 566.8,207.8 L 573.0,212.1 L 580.0,217.7 L 584.9,222.7 L 590.2,229.1 L 592.9,233.3 L 596.1,238.2 L 598.3,242.6 L 601.0,249.0 L 602.6,253.4 L 604.0,259.1 L 606.9,273.9 L 614.4,312.1 L 615.4,322.2 L 615.5,329.2 L 615.3,333.5 L 615.1,336.9 L 614.8,341.0 L 614.1,345.8 L 613.3,349.5 L 611.9,355.0 L 610.4,360.2 L 608.7,365.2 L 606.5,371.7 L 604.7,376.8 L 603.2,380.5 L 601.7,384.3 L 600.2,387.9 L 598.7,391.9 L 597.6,394.6 L 595.5,399.4 L 592.8,405.9 L 587.5,419.6 L 581.8,434.2 L 578.9,443.4 L 575.1,457.9 L 574.1,464.0 L 573.6,468.1 L 573.1,474.2 L 572.7,483.4 L 572.8,489.0 L 573.5,500.4 L 574.1,505.0 L 575.5,513.9 L 576.6,519.3 L 577.5,523.0 L 579.1,528.5 L 582.2,538.0 L 585.0,545.2 L 588.5,552.7 L 592.9,560.7 L 598.0,569.0 L 602.7,575.8 L 608.2,583.3 L 613.7,589.2 L 619.7,595.3 L 631.4,605.7 L 643.5,616.2 L 661.3,631.8 L 668.4,638.4 L 669.9,639.6 L 671.6,640.8 L 673.3,641.6 L 674.9,642.2 L 677.2,642.9 L 679.3,643.1 L 681.6,643.3 L 694.7,641.6 L 702.1,640.5 L 720.4,638.0 L 722.8,637.6 L 724.6,637.6 L 726.3,637.7 L 727.1,638.0 L 728.0,638.4 L 728.7,638.9 L 739.4,648.6 L 748.0,655.9 L 767.1,672.3 L 780.0,683.4 L 789.3,691.0 L 794.2,695.1 L 799.8,699.8 L 802.2,702.4 L 806.1,706.3 L 808.7,709.3 L 811.6,712.8 L 812.0,713.2 L 814.0,715.5 L 815.8,717.6 L 818.3,721.2 L 820.9,725.2 L 823.3,729.5 L 825.6,734.5 L 828.8,741.5 L 830.9,747.1 L 833.3,754.3 L 835.5,761.6 L 838.3,770.9 L 842.5,785.4 L 850.9,814.9 L 852.6,820.2 L 854.5,826.5 L 856.9,834.7 L 861.1,850.8 L 862.8,857.7 L 864.3,863.9 L 866.1,875.2 L 867.9,885.5 L 832.0,893.9 L 819.0,896.9 L 807.8,899.8 L 802.1,901.3 L 797.1,902.7 L 791.4,904.6 L 787.1,905.9 L 783.2,907.1 L 776.2,909.2 L 773.7,909.8 L 772.2,909.9 L 770.4,910.0 L 767.5,909.9 L 765.9,909.7 L 764.0,909.2 L 761.3,908.4 L 759.0,907.5 L 756.3,906.1 L 754.2,904.8 L 752.0,903.1 L 750.2,901.3 L 748.2,899.1 L 746.1,896.2 L 721.7,851.8 L 710.6,833.8 L 707.8,829.3 L 706.1,827.2 L 704.7,825.9 L 703.1,825.1 L 701.1,824.8 L 699.5,824.9 L 698.3,825.5 L 697.1,826.3 L 695.1,828.4 L 684.4,840.5 L 676.3,849.7 L 673.0,853.6 L 670.3,856.3 L 668.6,858.0 L 665.9,859.5 L 663.3,860.7 L 660.0,862.0 L 655.9,862.8 L 652.2,862.8 L 648.6,862.3 L 644.7,861.1 L 641.5,859.7 L 638.9,858.0 L 636.0,855.8 L 633.8,853.5 L 599.9,819.1 L 513.3,731.7 L 475.6,693.3 L 463.7,681.3 Z" fill="none" stroke="#000000" stroke-opacity="0.5" stroke-width="13" stroke-linejoin="round" stroke-linecap="round"/>
<path d="M 463.7,681.3 L 450.2,667.5 L 441.0,658.1 L 427.8,645.7 L 409.7,627.3 L 408.0,625.4 L 406.5,623.5 L 405.5,622.4 L 404.9,621.4 L 404.3,620.6 L 403.9,619.8 L 403.6,618.8 L 403.4,618.2 L 403.4,617.5 L 403.5,616.8 L 403.6,616.1 L 404.0,615.1 L 404.5,613.9 L 405.4,612.0 L 406.9,609.1 L 408.3,606.0 L 409.9,602.5 L 410.8,599.9 L 411.9,595.9 L 412.6,591.3 L 413.0,585.6 L 412.9,581.2 L 412.5,576.2 L 411.9,572.1 L 411.5,569.9 L 411.0,568.2 L 410.1,565.6 L 408.9,562.9 L 407.5,560.0 L 404.4,554.9 L 402.2,552.0 L 399.7,549.5 L 396.9,546.5 L 394.3,543.9 L 387.4,537.3 L 367.2,518.6 L 365.4,516.9 L 352.4,503.4 L 334.8,484.0 L 314.5,458.8 L 309.3,452.1 L 302.8,443.1 L 297.1,434.6 L 294.4,430.1 L 288.3,420.2 L 268.3,384.3 L 262.5,372.2 L 262.2,370.8 L 262.1,369.4 L 262.3,367.6 L 262.8,366.1 L 263.6,364.4 L 264.9,363.0 L 266.5,362.2 L 268.9,361.4 L 271.9,360.8 L 277.7,359.9 L 282.1,359.0 L 285.8,357.7 L 290.3,357.0 L 297.4,355.8 L 307.5,354.0 L 311.9,352.9 L 314.6,351.9 L 316.9,350.4 L 318.7,348.3 L 319.8,346.1 L 320.6,344.3 L 321.3,341.9 L 321.6,339.8 L 321.7,337.8 L 319.3,276.6 L 319.3,275.5 L 319.2,273.7 L 318.8,263.7 L 318.7,261.1 L 318.6,260.7 L 320.6,257.7 L 321.6,256.3 L 322.6,255.0 L 323.8,253.6 L 324.2,253.2 L 325.5,251.9 L 326.5,250.9 L 327.6,249.9 L 329.4,248.5 L 334.6,244.8 L 364.4,223.2 L 371.7,218.1 L 375.5,215.8 L 379.8,213.3 L 386.7,210.0 L 393.6,207.1 L 395.4,206.5 L 397.0,206.4 L 398.8,206.3 L 399.8,205.4 L 400.4,204.9 L 400.9,204.5 L 402.9,203.7 L 404.2,203.0 L 424.3,194.8 L 429.7,192.7 L 436.1,190.0 L 442.3,187.3 L 449.3,183.6 L 454.5,180.7 L 462.0,176.1 L 466.4,173.4 L 469.5,171.6 L 475.7,168.0 L 477.4,170.9 L 479.8,174.3 L 482.1,176.8 L 484.6,179.5 L 486.1,180.9 L 487.3,182.3 L 489.0,183.9 L 490.7,185.2 L 491.8,186.1 L 493.0,187.1 L 494.5,188.0 L 496.2,189.0 L 497.8,190.0 L 499.3,190.8 L 501.2,191.6 L 503.7,192.6 L 505.5,193.2 L 507.6,194.0 L 510.2,194.6 L 512.4,195.1 L 518.1,195.9 L 525.1,196.3 L 530.5,196.6 L 534.3,197.0 L 539.4,197.7 L 544.7,198.7 L 549.4,200.1 L 553.3,201.5 L 558.7,203.6 L 563.2,205.8 L 566.8,207.8 L 573.0,212.1 L 580.0,217.7 L 584.9,222.7 L 590.2,229.1 L 592.9,233.3 L 596.1,238.2 L 598.3,242.6 L 601.0,249.0 L 602.6,253.4 L 604.0,259.1 L 606.9,273.9 L 614.4,312.1 L 615.4,322.2 L 615.5,329.2 L 615.3,333.5 L 615.1,336.9 L 614.8,341.0 L 614.1,345.8 L 613.3,349.5 L 611.9,355.0 L 610.4,360.2 L 608.7,365.2 L 606.5,371.7 L 604.7,376.8 L 603.2,380.5 L 601.7,384.3 L 600.2,387.9 L 598.7,391.9 L 597.6,394.6 L 595.5,399.4 L 592.8,405.9 L 587.5,419.6 L 581.8,434.2 L 578.9,443.4 L 575.1,457.9 L 574.1,464.0 L 573.6,468.1 L 573.1,474.2 L 572.7,483.4 L 572.8,489.0 L 573.5,500.4 L 574.1,505.0 L 575.5,513.9 L 576.6,519.3 L 577.5,523.0 L 579.1,528.5 L 582.2,538.0 L 585.0,545.2 L 588.5,552.7 L 592.9,560.7 L 598.0,569.0 L 602.7,575.8 L 608.2,583.3 L 613.7,589.2 L 619.7,595.3 L 631.4,605.7 L 643.5,616.2 L 661.3,631.8 L 668.4,638.4 L 669.9,639.6 L 671.6,640.8 L 673.3,641.6 L 674.9,642.2 L 677.2,642.9 L 679.3,643.1 L 681.6,643.3 L 694.7,641.6 L 702.1,640.5 L 720.4,638.0 L 722.8,637.6 L 724.6,637.6 L 726.3,637.7 L 727.1,638.0 L 728.0,638.4 L 728.7,638.9 L 739.4,648.6 L 748.0,655.9 L 767.1,672.3 L 780.0,683.4 L 789.3,691.0 L 794.2,695.1 L 799.8,699.8 L 802.2,702.4 L 806.1,706.3 L 808.7,709.3 L 811.6,712.8 L 812.0,713.2 L 814.0,715.5 L 815.8,717.6 L 818.3,721.2 L 820.9,725.2 L 823.3,729.5 L 825.6,734.5 L 828.8,741.5 L 830.9,747.1 L 833.3,754.3 L 835.5,761.6 L 838.3,770.9 L 842.5,785.4 L 850.9,814.9 L 852.6,820.2 L 854.5,826.5 L 856.9,834.7 L 861.1,850.8 L 862.8,857.7 L 864.3,863.9 L 866.1,875.2 L 867.9,885.5 L 832.0,893.9 L 819.0,896.9 L 807.8,899.8 L 802.1,901.3 L 797.1,902.7 L 791.4,904.6 L 787.1,905.9 L 783.2,907.1 L 776.2,909.2 L 773.7,909.8 L 772.2,909.9 L 770.4,910.0 L 767.5,909.9 L 765.9,909.7 L 764.0,909.2 L 761.3,908.4 L 759.0,907.5 L 756.3,906.1 L 754.2,904.8 L 752.0,903.1 L 750.2,901.3 L 748.2,899.1 L 746.1,896.2 L 721.7,851.8 L 710.6,833.8 L 707.8,829.3 L 706.1,827.2 L 704.7,825.9 L 703.1,825.1 L 701.1,824.8 L 699.5,824.9 L 698.3,825.5 L 697.1,826.3 L 695.1,828.4 L 684.4,840.5 L 676.3,849.7 L 673.0,853.6 L 670.3,856.3 L 668.6,858.0 L 665.9,859.5 L 663.3,860.7 L 660.0,862.0 L 655.9,862.8 L 652.2,862.8 L 648.6,862.3 L 644.7,861.1 L 641.5,859.7 L 638.9,858.0 L 636.0,855.8 L 633.8,853.5 L 599.9,819.1 L 513.3,731.7 L 475.6,693.3 L 463.7,681.3 Z" fill="none" stroke="#39404f" stroke-width="8.5" stroke-linejoin="round" stroke-linecap="round"/>
<path d="M 463.7,681.3 L 450.2,667.5 L 441.0,658.1 L 427.8,645.7 L 409.7,627.3 L 408.0,625.4 L 406.5,623.5 L 405.5,622.4 L 404.9,621.4 L 404.3,620.6 L 403.9,619.8 L 403.6,618.8 L 403.4,618.2 L 403.4,617.5 L 403.5,616.8 L 403.6,616.1 L 404.0,615.1 L 404.5,613.9 L 405.4,612.0 L 406.9,609.1 L 408.3,606.0 L 409.9,602.5 L 410.8,599.9 L 411.9,595.9 L 412.6,591.3 L 413.0,585.6 L 412.9,581.2 L 412.5,576.2 L 411.9,572.1 L 411.5,569.9 L 411.0,568.2 L 410.1,565.6 L 408.9,562.9 L 407.5,560.0 L 404.4,554.9 L 402.2,552.0 L 399.7,549.5 L 396.9,546.5 L 394.3,543.9 L 387.4,537.3 L 367.2,518.6 L 365.4,516.9 L 352.4,503.4 L 334.8,484.0 L 314.5,458.8 L 309.3,452.1 L 302.8,443.1 L 297.1,434.6 L 294.4,430.1 L 288.3,420.2 L 268.3,384.3 L 262.5,372.2 L 262.2,370.8 L 262.1,369.4 L 262.3,367.6 L 262.8,366.1 L 263.6,364.4 L 264.9,363.0 L 266.5,362.2 L 268.9,361.4 L 271.9,360.8 L 277.7,359.9 L 282.1,359.0 L 285.8,357.7 L 290.3,357.0 L 297.4,355.8 L 307.5,354.0 L 311.9,352.9 L 314.6,351.9 L 316.9,350.4 L 318.7,348.3 L 319.8,346.1 L 320.6,344.3 L 321.3,341.9 L 321.6,339.8 L 321.7,337.8 L 319.3,276.6 L 319.3,275.5 L 319.2,273.7 L 318.8,263.7 L 318.7,261.1 L 318.6,260.7 L 320.6,257.7 L 321.6,256.3 L 322.6,255.0 L 323.8,253.6 L 324.2,253.2 L 325.5,251.9 L 326.5,250.9 L 327.6,249.9 L 329.4,248.5 L 334.6,244.8 L 364.4,223.2 L 371.7,218.1 L 375.5,215.8 L 379.8,213.3 L 386.7,210.0 L 393.6,207.1 L 395.4,206.5 L 397.0,206.4 L 398.8,206.3 L 399.8,205.4 L 400.4,204.9 L 400.9,204.5 L 402.9,203.7 L 404.2,203.0 L 424.3,194.8 L 429.7,192.7 L 436.1,190.0 L 442.3,187.3 L 449.3,183.6 L 454.5,180.7 L 462.0,176.1 L 466.4,173.4 L 469.5,171.6 L 475.7,168.0 L 477.4,170.9 L 479.8,174.3 L 482.1,176.8 L 484.6,179.5 L 486.1,180.9 L 487.3,182.3 L 489.0,183.9 L 490.7,185.2 L 491.8,186.1 L 493.0,187.1 L 494.5,188.0 L 496.2,189.0 L 497.8,190.0 L 499.3,190.8 L 501.2,191.6 L 503.7,192.6 L 505.5,193.2 L 507.6,194.0 L 510.2,194.6 L 512.4,195.1 L 518.1,195.9 L 525.1,196.3 L 530.5,196.6 L 534.3,197.0 L 539.4,197.7 L 544.7,198.7 L 549.4,200.1 L 553.3,201.5 L 558.7,203.6 L 563.2,205.8 L 566.8,207.8 L 573.0,212.1 L 580.0,217.7 L 584.9,222.7 L 590.2,229.1 L 592.9,233.3 L 596.1,238.2 L 598.3,242.6 L 601.0,249.0 L 602.6,253.4 L 604.0,259.1 L 606.9,273.9 L 614.4,312.1 L 615.4,322.2 L 615.5,329.2 L 615.3,333.5 L 615.1,336.9 L 614.8,341.0 L 614.1,345.8 L 613.3,349.5 L 611.9,355.0 L 610.4,360.2 L 608.7,365.2 L 606.5,371.7 L 604.7,376.8 L 603.2,380.5 L 601.7,384.3 L 600.2,387.9 L 598.7,391.9 L 597.6,394.6 L 595.5,399.4 L 592.8,405.9 L 587.5,419.6 L 581.8,434.2 L 578.9,443.4 L 575.1,457.9 L 574.1,464.0 L 573.6,468.1 L 573.1,474.2 L 572.7,483.4 L 572.8,489.0 L 573.5,500.4 L 574.1,505.0 L 575.5,513.9 L 576.6,519.3 L 577.5,523.0 L 579.1,528.5 L 582.2,538.0 L 585.0,545.2 L 588.5,552.7 L 592.9,560.7 L 598.0,569.0 L 602.7,575.8 L 608.2,583.3 L 613.7,589.2 L 619.7,595.3 L 631.4,605.7 L 643.5,616.2 L 661.3,631.8 L 668.4,638.4 L 669.9,639.6 L 671.6,640.8 L 673.3,641.6 L 674.9,642.2 L 677.2,642.9 L 679.3,643.1 L 681.6,643.3 L 694.7,641.6 L 702.1,640.5 L 720.4,638.0 L 722.8,637.6 L 724.6,637.6 L 726.3,637.7 L 727.1,638.0 L 728.0,638.4 L 728.7,638.9 L 739.4,648.6 L 748.0,655.9 L 767.1,672.3 L 780.0,683.4 L 789.3,691.0 L 794.2,695.1 L 799.8,699.8 L 802.2,702.4 L 806.1,706.3 L 808.7,709.3 L 811.6,712.8 L 812.0,713.2 L 814.0,715.5 L 815.8,717.6 L 818.3,721.2 L 820.9,725.2 L 823.3,729.5 L 825.6,734.5 L 828.8,741.5 L 830.9,747.1 L 833.3,754.3 L 835.5,761.6 L 838.3,770.9 L 842.5,785.4 L 850.9,814.9 L 852.6,820.2 L 854.5,826.5 L 856.9,834.7 L 861.1,850.8 L 862.8,857.7 L 864.3,863.9 L 866.1,875.2 L 867.9,885.5 L 832.0,893.9 L 819.0,896.9 L 807.8,899.8 L 802.1,901.3 L 797.1,902.7 L 791.4,904.6 L 787.1,905.9 L 783.2,907.1 L 776.2,909.2 L 773.7,909.8 L 772.2,909.9 L 770.4,910.0 L 767.5,909.9 L 765.9,909.7 L 764.0,909.2 L 761.3,908.4 L 759.0,907.5 L 756.3,906.1 L 754.2,904.8 L 752.0,903.1 L 750.2,901.3 L 748.2,899.1 L 746.1,896.2 L 721.7,851.8 L 710.6,833.8 L 707.8,829.3 L 706.1,827.2 L 704.7,825.9 L 703.1,825.1 L 701.1,824.8 L 699.5,824.9 L 698.3,825.5 L 697.1,826.3 L 695.1,828.4 L 684.4,840.5 L 676.3,849.7 L 673.0,853.6 L 670.3,856.3 L 668.6,858.0 L 665.9,859.5 L 663.3,860.7 L 660.0,862.0 L 655.9,862.8 L 652.2,862.8 L 648.6,862.3 L 644.7,861.1 L 641.5,859.7 L 638.9,858.0 L 636.0,855.8 L 633.8,853.5 L 599.9,819.1 L 513.3,731.7 L 475.6,693.3 L 463.7,681.3 Z" fill="none" stroke="#e7edf8" stroke-width="2.6" stroke-linejoin="round" stroke-linecap="round"/>
<path d="M 463.7,681.3 L 450.2,667.5 L 441.0,658.1 L 427.8,645.7 L 409.7,627.3 L 408.0,625.4 L 406.5,623.5 L 405.5,622.4 L 404.9,621.4 L 404.3,620.6 L 403.9,619.8 L 403.6,618.8 L 403.4,618.2 L 403.4,617.5 L 403.5,616.8 L 403.6,616.1 L 404.0,615.1 L 404.5,613.9 L 405.4,612.0 L 406.9,609.1 L 408.3,606.0 L 409.9,602.5 L 410.8,599.9 L 411.9,595.9 L 412.6,591.3 L 413.0,585.6 L 412.9,581.2 L 412.5,576.2 L 411.9,572.1 L 411.5,569.9 L 411.0,568.2 L 410.1,565.6 L 408.9,562.9 L 407.5,560.0 L 404.4,554.9 L 402.2,552.0 L 399.7,549.5 L 396.9,546.5 L 394.3,543.9 L 387.4,537.3 L 367.2,518.6 L 365.4,516.9 L 352.4,503.4 L 334.8,484.0 L 314.5,458.8 L 309.3,452.1 L 302.8,443.1 L 297.1,434.6 L 294.4,430.1 L 288.3,420.2 L 268.3,384.3 L 262.5,372.2 L 262.2,370.8 L 262.1,369.4 L 262.3,367.6 L 262.8,366.1 L 263.6,364.4 L 264.9,363.0 L 266.5,362.2 L 268.9,361.4 L 271.9,360.8 L 277.7,359.9 L 282.1,359.0 L 285.8,357.7 L 290.3,357.0 L 297.4,355.8 L 307.5,354.0 L 311.9,352.9 L 314.6,351.9 L 316.9,350.4 L 318.7,348.3 L 319.8,346.1 L 320.6,344.3 L 321.3,341.9 L 321.6,339.8 L 321.7,337.8 L 319.3,276.6 L 319.3,275.5 L 319.2,273.7 L 318.8,263.7 L 318.7,261.1 L 318.6,260.7 L 320.6,257.7 L 321.6,256.3 L 322.6,255.0 L 323.8,253.6 L 324.2,253.2 L 325.5,251.9 L 326.5,250.9 L 327.6,249.9 L 329.4,248.5 L 334.6,244.8 L 364.4,223.2 L 371.7,218.1 L 375.5,215.8 L 379.8,213.3 L 386.7,210.0 L 393.6,207.1 L 395.4,206.5 L 397.0,206.4 L 398.8,206.3 L 399.8,205.4 L 400.4,204.9 L 400.9,204.5 L 402.9,203.7 L 404.2,203.0 L 424.3,194.8 L 429.7,192.7 L 436.1,190.0 L 442.3,187.3 L 449.3,183.6 L 454.5,180.7 L 462.0,176.1 L 466.4,173.4 L 469.5,171.6 L 475.7,168.0 L 477.4,170.9 L 479.8,174.3 L 482.1,176.8 L 484.6,179.5 L 486.1,180.9 L 487.3,182.3 L 489.0,183.9 L 490.7,185.2 L 491.8,186.1 L 493.0,187.1 L 494.5,188.0 L 496.2,189.0 L 497.8,190.0 L 499.3,190.8 L 501.2,191.6 L 503.7,192.6 L 505.5,193.2 L 507.6,194.0 L 510.2,194.6 L 512.4,195.1 L 518.1,195.9 L 525.1,196.3 L 530.5,196.6 L 534.3,197.0 L 539.4,197.7 L 544.7,198.7 L 549.4,200.1 L 553.3,201.5 L 558.7,203.6 L 563.2,205.8 L 566.8,207.8 L 573.0,212.1 L 580.0,217.7 L 584.9,222.7 L 590.2,229.1 L 592.9,233.3 L 596.1,238.2 L 598.3,242.6 L 601.0,249.0 L 602.6,253.4 L 604.0,259.1 L 606.9,273.9 L 614.4,312.1 L 615.4,322.2 L 615.5,329.2 L 615.3,333.5 L 615.1,336.9 L 614.8,341.0 L 614.1,345.8 L 613.3,349.5 L 611.9,355.0 L 610.4,360.2 L 608.7,365.2 L 606.5,371.7 L 604.7,376.8 L 603.2,380.5 L 601.7,384.3 L 600.2,387.9 L 598.7,391.9 L 597.6,394.6 L 595.5,399.4 L 592.8,405.9 L 587.5,419.6 L 581.8,434.2 L 578.9,443.4 L 575.1,457.9 L 574.1,464.0 L 573.6,468.1 L 573.1,474.2 L 572.7,483.4 L 572.8,489.0 L 573.5,500.4 L 574.1,505.0 L 575.5,513.9 L 576.6,519.3 L 577.5,523.0 L 579.1,528.5 L 582.2,538.0 L 585.0,545.2 L 588.5,552.7 L 592.9,560.7 L 598.0,569.0 L 602.7,575.8 L 608.2,583.3 L 613.7,589.2 L 619.7,595.3 L 631.4,605.7 L 643.5,616.2 L 661.3,631.8 L 668.4,638.4 L 669.9,639.6 L 671.6,640.8 L 673.3,641.6 L 674.9,642.2 L 677.2,642.9 L 679.3,643.1 L 681.6,643.3 L 694.7,641.6 L 702.1,640.5 L 720.4,638.0 L 722.8,637.6 L 724.6,637.6 L 726.3,637.7 L 727.1,638.0 L 728.0,638.4 L 728.7,638.9 L 739.4,648.6 L 748.0,655.9 L 767.1,672.3 L 780.0,683.4 L 789.3,691.0 L 794.2,695.1 L 799.8,699.8 L 802.2,702.4 L 806.1,706.3 L 808.7,709.3 L 811.6,712.8 L 812.0,713.2 L 814.0,715.5 L 815.8,717.6 L 818.3,721.2 L 820.9,725.2 L 823.3,729.5 L 825.6,734.5 L 828.8,741.5 L 830.9,747.1 L 833.3,754.3 L 835.5,761.6 L 838.3,770.9 L 842.5,785.4 L 850.9,814.9 L 852.6,820.2 L 854.5,826.5 L 856.9,834.7 L 861.1,850.8 L 862.8,857.7 L 864.3,863.9 L 866.1,875.2 L 867.9,885.5 L 832.0,893.9 L 819.0,896.9 L 807.8,899.8 L 802.1,901.3 L 797.1,902.7 L 791.4,904.6 L 787.1,905.9 L 783.2,907.1 L 776.2,909.2 L 773.7,909.8 L 772.2,909.9 L 770.4,910.0 L 767.5,909.9 L 765.9,909.7 L 764.0,909.2 L 761.3,908.4 L 759.0,907.5 L 756.3,906.1 L 754.2,904.8 L 752.0,903.1 L 750.2,901.3 L 748.2,899.1 L 746.1,896.2 L 721.7,851.8 L 710.6,833.8 L 707.8,829.3 L 706.1,827.2 L 704.7,825.9 L 703.1,825.1 L 701.1,824.8 L 699.5,824.9 L 698.3,825.5 L 697.1,826.3 L 695.1,828.4 L 684.4,840.5 L 676.3,849.7 L 673.0,853.6 L 670.3,856.3 L 668.6,858.0 L 665.9,859.5 L 663.3,860.7 L 660.0,862.0 L 655.9,862.8 L 652.2,862.8 L 648.6,862.3 L 644.7,861.1 L 641.5,859.7 L 638.9,858.0 L 636.0,855.8 L 633.8,853.5 L 599.9,819.1 L 513.3,731.7 L 475.6,693.3 L 463.7,681.3 Z" fill="none" stroke="#ff5a36" stroke-opacity="0.55" stroke-width="1.2" stroke-linejoin="round" filter="url(#glow)"/>
<circle cx="463.7" cy="681.3" r="13" fill="none" stroke="#ffffff" stroke-width="3"/>
<rect x="459.7" y="659.3" width="8" height="18" fill="#ffffff"/>
<circle cx="399.5" cy="549.2" r="7" fill="#ff5a36" stroke="#0a0c12" stroke-width="2.5" filter="url(#glow)"/>
<text x="399.5" y="552.6" font-size="9" font-weight="700" fill="#0a0c12" text-anchor="middle">1</text>
<circle cx="381.6" cy="532.0" r="7" fill="#ff5a36" stroke="#0a0c12" stroke-width="2.5" filter="url(#glow)"/>
<text x="381.6" y="535.4" font-size="9" font-weight="700" fill="#0a0c12" text-anchor="middle">2</text>
<circle cx="321.6" cy="335.7" r="7" fill="#ff5a36" stroke="#0a0c12" stroke-width="2.5" filter="url(#glow)"/>
<text x="321.6" y="339.1" font-size="9" font-weight="700" fill="#0a0c12" text-anchor="middle">3</text>
<circle cx="319.3" cy="274.6" r="7" fill="#ff5a36" stroke="#0a0c12" stroke-width="2.5" filter="url(#glow)"/>
<text x="319.3" y="278.0" font-size="9" font-weight="700" fill="#0a0c12" text-anchor="middle">4</text>
<circle cx="377.9" cy="214.4" r="7" fill="#ff5a36" stroke="#0a0c12" stroke-width="2.5" filter="url(#glow)"/>
<text x="377.9" y="217.8" font-size="9" font-weight="700" fill="#0a0c12" text-anchor="middle">5</text>
<circle cx="534.6" cy="197.0" r="7" fill="#ff5a36" stroke="#0a0c12" stroke-width="2.5" filter="url(#glow)"/>
<text x="534.6" y="200.4" font-size="9" font-weight="700" fill="#0a0c12" text-anchor="middle">6</text>
<circle cx="566.7" cy="207.8" r="7" fill="#ff5a36" stroke="#0a0c12" stroke-width="2.5" filter="url(#glow)"/>
<text x="566.7" y="211.2" font-size="9" font-weight="700" fill="#0a0c12" text-anchor="middle">7</text>
<circle cx="609.3" cy="286.0" r="7" fill="#ff5a36" stroke="#0a0c12" stroke-width="2.5" filter="url(#glow)"/>
<text x="609.3" y="289.4" font-size="9" font-weight="700" fill="#0a0c12" text-anchor="middle">8</text>
<circle cx="739.9" cy="649.1" r="7" fill="#ff5a36" stroke="#0a0c12" stroke-width="2.5" filter="url(#glow)"/>
<text x="739.9" y="652.5" font-size="9" font-weight="700" fill="#0a0c12" text-anchor="middle">9</text>
<circle cx="781.4" cy="684.5" r="7" fill="#ff5a36" stroke="#0a0c12" stroke-width="2.5" filter="url(#glow)"/>
<text x="781.4" y="687.9" font-size="9" font-weight="700" fill="#0a0c12" text-anchor="middle">10</text>
<circle cx="796.6" cy="902.9" r="7" fill="#ff5a36" stroke="#0a0c12" stroke-width="2.5" filter="url(#glow)"/>
<text x="796.6" y="906.3" font-size="9" font-weight="700" fill="#0a0c12" text-anchor="middle">11</text>
<circle cx="719.8" cy="848.8" r="7" fill="#ff5a36" stroke="#0a0c12" stroke-width="2.5" filter="url(#glow)"/>
<text x="719.8" y="852.2" font-size="9" font-weight="700" fill="#0a0c12" text-anchor="middle">12</text>
<circle cx="646.7" cy="861.7" r="7" fill="#ff5a36" stroke="#0a0c12" stroke-width="2.5" filter="url(#glow)"/>
<text x="646.7" y="865.1" font-size="9" font-weight="700" fill="#0a0c12" text-anchor="middle">13</text>
<circle cx="602.1" cy="821.3" r="7" fill="#ff5a36" stroke="#0a0c12" stroke-width="2.5" filter="url(#glow)"/>
<text x="602.1" y="824.7" font-size="9" font-weight="700" fill="#0a0c12" text-anchor="middle">14</text>
<line x1="739.9" y1="649.1" x2="782.4" y2="679.0" stroke="#ff5a36" stroke-opacity="0.45" stroke-width="1.3"/>
<text x="790.4" y="683.0" font-size="15" font-weight="600" fill="#eef2fb" text-anchor="start">Lakeside</text>
<text x="90" y="64" font-size="20" letter-spacing="5" fill="#ff5a36" font-weight="700">TRACK ATLAS</text>
<text x="90" y="108" font-size="42" font-weight="800" fill="#ffffff">ALBERT PARK CIRCUIT</text>
<text x="90" y="136" font-size="16" fill="#9aa6bd">Melbourne, Albert Park</text>
<rect x="1170" y="200" width="360" height="710" rx="16" fill="#ffffff" fill-opacity="0.04" stroke="#ff5a36" stroke-opacity="0.5"/>
<text x="1198" y="250" font-size="13" letter-spacing="2" fill="#8794ab">LAYOUT</text>
<text x="1198" y="276" font-size="22" font-weight="700" fill="#eef2fb">Grand Prix Circuit</text>
<text x="1198" y="320" font-size="13" letter-spacing="2" fill="#8794ab">LENGTH</text>
<text x="1198" y="346" font-size="22" font-weight="700" fill="#eef2fb">5.278 km</text>
<text x="1198" y="390" font-size="13" letter-spacing="2" fill="#8794ab">CORNERS</text>
<text x="1198" y="416" font-size="22" font-weight="700" fill="#eef2fb">14</text>
<text x="1198" y="460" font-size="13" letter-spacing="2" fill="#8794ab">NAMED CORNERS</text>
<text x="1198" y="486" font-size="22" font-weight="700" fill="#eef2fb">1</text>
<text x="1198" y="530" font-size="13" letter-spacing="2" fill="#8794ab">DIRECTION</text>
<text x="1198" y="556" font-size="22" font-weight="700" fill="#eef2fb">Clockwise</text>
<text x="1198" y="600" font-size="13" letter-spacing="2" fill="#8794ab">SECTORS</text>
<text x="1198" y="626" font-size="22" font-weight="700" fill="#eef2fb">3</text>
<text x="1198" y="670" font-size="13" letter-spacing="2" fill="#8794ab">COUNTRY</text>
<text x="1198" y="696" font-size="22" font-weight="700" fill="#eef2fb">Australia</text>
<text x="1198" y="740" font-size="13" letter-spacing="2" fill="#8794ab">LOCATION</text>
<text x="1198" y="766" font-size="22" font-weight="700" fill="#eef2fb">Melbourne</text>
<text x="90" y="966" font-size="12" fill="#566177">Geometry © OpenStreetMap contributors (ODbL) · corner data: Lovely-Sim-Racing + curated · track-atlas</text>
<text x="90" y="942" font-size="12" fill="#8794ab">⚑ start / finish</text>
</svg>