<svg xmlns="http://www.w3.org/2000/svg" width="1600" height="1000" viewBox="0 0 1600 1000" font-family="Helvetica, Arial, sans-serif">
<defs>
      <radialGradient id="bg" cx="38%" cy="34%" r="85%">
        <stop offset="0%" stop-color="#1b2030"/>
        <stop offset="55%" stop-color="#12151f"/>
        <stop offset="100%" stop-color="#0a0c12"/>
      </radialGradient>
      <linearGradient id="accent" x1="0" y1="0" x2="1" y2="1">
        <stop offset="0%" stop-color="#ff5a36"/>
        <stop offset="100%" stop-color="#ffffff"/>
      </linearGradient>
      <filter id="glow" x="-40%" y="-40%" width="180%" height="180%">
        <feGaussianBlur stdDeviation="6" result="b"/>
        <feMerge><feMergeNode in="b"/><feMergeNode in="SourceGraphic"/></feMerge>
      </filter>
    </defs>
<rect width="1600" height="1000" fill="url(#bg)"/>
<path d="M 702.9,448.7 L 711.4,444.3 L 719.8,439.6 L 727.9,434.6 L 735.9,429.2 L 743.6,423.6 L 751.1,417.7 L 758.4,411.5 L 765.5,405.0 L 774.1,396.4 L 782.3,387.3 L 790.0,377.9 L 797.2,368.2 L 804.0,358.0 L 810.3,347.6 L 816.1,336.9 L 821.3,325.9 L 826.0,314.7 L 830.2,303.3 L 833.8,291.6 L 836.8,279.8 L 839.3,267.9 L 841.2,255.9 L 842.5,243.8 L 842.8,237.2 L 843.2,231.6 L 845.2,187.0 L 845.5,180.0 L 845.4,177.7 L 845.0,175.3 L 844.0,173.3 L 842.3,171.7 L 840.6,170.7 L 838.7,170.1 L 836.7,170.0 L 833.7,169.9 L 831.2,170.1 L 828.7,170.3 L 825.1,171.3 L 823.2,171.9 L 817.5,173.8 L 809.1,177.4 L 804.0,179.4 L 801.3,180.1 L 794.2,181.6 L 786.4,185.0 L 784.6,186.0 L 783.4,187.0 L 782.4,188.1 L 781.4,189.8 L 780.6,191.9 L 780.1,194.0 L 780.0,195.7 L 780.2,197.3 L 780.7,199.0 L 781.3,200.7 L 782.3,202.6 L 783.7,204.5 L 786.1,207.8 L 793.6,217.9 L 796.2,221.2 L 799.0,224.1 L 801.9,226.8 L 804.6,229.7 L 806.2,231.6 L 806.9,232.7 L 807.4,234.3 L 807.6,235.7 L 807.7,236.9 L 807.5,238.1 L 807.0,239.5 L 806.2,241.0 L 805.4,242.0 L 804.2,243.2 L 802.6,244.0 L 801.0,244.6 L 799.8,244.9 L 798.7,244.9 L 797.8,244.9 L 796.3,244.4 L 794.9,243.5 L 793.4,242.0 L 792.4,240.5 L 791.5,238.8 L 790.9,236.8 L 790.0,234.3 L 788.2,230.9 L 786.3,227.5 L 784.9,225.5 L 783.3,223.4 L 781.2,220.3 L 777.7,215.4 L 775.5,212.2 L 773.7,209.3 L 772.3,206.9 L 771.3,204.8 L 770.5,202.5 L 770.0,200.8 L 769.6,198.5 L 769.3,194.0 L 769.2,189.4 L 769.0,185.7 L 768.4,182.5 L 767.5,180.2 L 766.6,178.3 L 765.3,176.4 L 763.5,174.2 L 761.5,172.3 L 759.2,170.6 L 757.3,169.6 L 754.9,168.8 L 752.9,168.3 L 750.4,168.0 L 748.4,168.2 L 746.3,168.8 L 744.9,169.4 L 743.8,170.4 L 742.1,172.5 L 739.5,175.9 L 725.4,194.8 L 704.4,222.9 L 696.1,233.8 L 694.0,236.6 L 690.8,240.9 L 685.6,248.2 L 679.0,257.4 L 670.9,268.4 L 669.8,269.9 L 664.0,278.0 L 657.6,286.7 L 654.9,291.5 L 652.3,297.0 L 651.5,299.3 L 650.8,301.6 L 650.4,303.6 L 650.1,305.7 L 650.1,308.2 L 650.2,309.3 L 650.3,310.5 L 650.7,312.0 L 651.2,313.3 L 651.7,314.9 L 652.7,317.3 L 654.2,319.9 L 655.3,321.5 L 656.2,322.5 L 658.3,325.0 L 660.5,327.0 L 665.0,331.2 L 674.2,339.3 L 676.3,341.3 L 680.9,344.2 L 681.6,346.7 L 682.7,348.7 L 686.0,355.5 L 688.3,361.2 L 688.9,362.9 L 691.0,369.7 L 691.9,375.3 L 692.1,376.6 L 692.7,380.8 L 693.1,386.2 L 692.9,391.3 L 691.9,396.2 L 691.2,398.5 L 690.6,400.1 L 688.6,403.8 L 686.7,406.7 L 683.7,410.8 L 680.5,414.6 L 676.3,418.7 L 673.8,421.1 L 671.5,422.9 L 667.6,425.9 L 664.7,428.0 L 661.4,430.0 L 658.5,431.7 L 654.1,433.6 L 650.6,435.1 L 644.5,437.0 L 638.5,438.1 L 633.3,439.1 L 619.5,441.0 L 604.5,443.1 L 591.7,446.0 L 579.2,449.2 L 573.2,451.1 L 568.4,452.9 L 562.1,455.7 L 556.6,458.4 L 551.3,461.0 L 528.3,472.1 L 520.8,475.7 L 517.6,476.8 L 513.2,478.4 L 508.8,479.3 L 497.7,480.4 L 490.7,481.1 L 477.5,482.7 L 467.6,484.3 L 456.4,487.2 L 439.7,491.9 L 432.8,494.0 L 431.6,494.3 L 424.8,496.4 L 402.7,503.0 L 388.8,506.7 L 381.4,508.4 L 380.0,508.7 L 366.8,511.1 L 340.3,514.9 L 311.2,518.7 L 308.5,519.3 L 306.3,520.4 L 304.2,522.3 L 302.7,525.0 L 302.0,527.0 L 301.4,529.5 L 299.7,540.4 L 298.9,546.5 L 298.3,550.4 L 297.3,554.1 L 294.8,562.3 L 291.9,571.4 L 290.5,576.7 L 289.2,582.1 L 287.8,589.0 L 286.9,595.8 L 286.0,601.8 L 286.0,602.8 L 285.0,616.5 L 284.7,620.6 L 284.6,629.0 L 284.5,634.1 L 284.7,637.1 L 285.0,643.2 L 285.3,649.2 L 285.4,652.2 L 285.9,656.7 L 286.5,664.0 L 286.8,667.6 L 288.0,684.0 L 288.5,687.7 L 289.2,693.5 L 290.0,700.0 L 290.5,704.9 L 291.2,709.4 L 291.9,713.5 L 292.2,715.4 L 293.0,720.1 L 293.7,724.9 L 294.6,730.4 L 294.8,731.3 L 295.1,733.0 L 295.4,734.8 L 296.0,738.7 L 296.4,740.5 L 296.9,742.8 L 298.2,748.5 L 301.3,760.4 L 304.2,770.9 L 304.7,772.6 L 305.9,776.9 L 306.7,779.5 L 308.2,784.7 L 310.8,793.9 L 314.2,804.9 L 315.0,807.5 L 315.3,808.5 L 315.6,809.4 L 317.9,818.5 L 319.6,824.1 L 321.5,830.4 L 325.3,838.1 L 328.8,844.6 L 334.7,853.9 L 336.8,857.3 L 339.0,860.9 L 341.9,865.3 L 343.5,867.5 L 350.5,876.0 L 352.3,878.7 L 353.9,881.5 L 355.3,884.3 L 356.4,887.3 L 357.3,890.4 L 358.0,893.6 L 358.4,896.8 L 358.6,900.1 L 359.4,902.8 L 360.6,904.5 L 362.1,906.1 L 364.3,907.8 L 365.7,908.5 L 367.4,909.2 L 369.9,909.7 L 372.2,909.8 L 376.1,910.0 L 380.1,909.9 L 383.5,909.6 L 386.9,909.2 L 392.8,908.2 L 394.9,907.8 L 397.5,907.0 L 416.4,901.7 L 418.6,900.9 L 420.6,899.7 L 422.0,898.8 L 423.0,897.8 L 423.9,896.2 L 424.6,894.3 L 424.9,892.5 L 424.7,890.4 L 424.0,888.1 L 423.4,886.3 L 422.6,884.6 L 421.8,883.0 L 418.2,880.5 L 414.7,878.4 L 403.9,873.4 L 398.9,870.9 L 394.6,868.4 L 390.8,865.7 L 385.4,861.1 L 380.9,856.7 L 374.3,848.9 L 370.2,843.1 L 365.9,836.2 L 361.1,826.8 L 355.4,814.4 L 349.2,797.3 L 346.4,787.7 L 345.5,781.2 L 345.9,778.4 L 347.0,776.5 L 348.1,775.5 L 349.5,774.7 L 353.0,772.9 L 355.0,771.9 L 357.7,770.0 L 360.2,767.4 L 362.0,764.3 L 361.9,760.3 L 361.0,756.3 L 358.2,744.6 L 354.5,724.7 L 352.2,711.9 L 347.2,685.2 L 346.0,673.3 L 345.0,670.4 L 344.1,669.1 L 343.2,668.0 L 341.5,666.0 L 339.4,664.0 L 327.6,655.3 L 324.9,652.4 L 322.6,648.3 L 321.8,644.8 L 319.5,637.6 L 318.9,624.7 L 318.9,611.5 L 320.1,601.6 L 321.0,595.3 L 322.2,589.7 L 324.0,582.5 L 327.7,570.6 L 329.1,567.1 L 331.0,562.4 L 336.9,550.1 L 339.6,545.1 L 343.4,538.7 L 345.1,537.1 L 346.8,535.7 L 348.3,535.0 L 350.9,534.1 L 396.0,528.4 L 409.7,525.8 L 412.5,525.4 L 414.4,525.1 L 431.9,522.7 L 446.0,520.7 L 453.8,519.7 L 458.1,519.1 L 474.8,516.8 L 484.8,515.5 L 488.5,515.0 L 497.6,513.7 L 514.5,511.1 L 516.4,511.3 L 518.9,512.4 L 523.4,514.8 L 525.7,516.3 L 527.7,517.0 L 529.4,517.2 L 537.9,515.9 L 540.7,515.5 L 542.1,514.7 L 543.7,513.4 L 544.3,512.0 L 544.3,510.2 L 544.2,506.7 L 544.0,502.6 L 544.3,501.2 L 544.8,499.4 L 546.3,497.3 L 567.0,493.8 L 588.7,489.9 L 609.7,486.3 L 629.8,481.2 L 658.2,471.6 L 683.8,458.4 L 699.0,450.7 L 702.9,448.7 Z" fill="none" stroke="#000000" stroke-opacity="0.5" stroke-width="13" stroke-linejoin="round" stroke-linecap="round"/>
<path d="M 702.9,448.7 L 711.4,444.3 L 719.8,439.6 L 727.9,434.6 L 735.9,429.2 L 743.6,423.6 L 751.1,417.7 L 758.4,411.5 L 765.5,405.0 L 774.1,396.4 L 782.3,387.3 L 790.0,377.9 L 797.2,368.2 L 804.0,358.0 L 810.3,347.6 L 816.1,336.9 L 821.3,325.9 L 826.0,314.7 L 830.2,303.3 L 833.8,291.6 L 836.8,279.8 L 839.3,267.9 L 841.2,255.9 L 842.5,243.8 L 842.8,237.2 L 843.2,231.6 L 845.2,187.0 L 845.5,180.0 L 845.4,177.7 L 845.0,175.3 L 844.0,173.3 L 842.3,171.7 L 840.6,170.7 L 838.7,170.1 L 836.7,170.0 L 833.7,169.9 L 831.2,170.1 L 828.7,170.3 L 825.1,171.3 L 823.2,171.9 L 817.5,173.8 L 809.1,177.4 L 804.0,179.4 L 801.3,180.1 L 794.2,181.6 L 786.4,185.0 L 784.6,186.0 L 783.4,187.0 L 782.4,188.1 L 781.4,189.8 L 780.6,191.9 L 780.1,194.0 L 780.0,195.7 L 780.2,197.3 L 780.7,199.0 L 781.3,200.7 L 782.3,202.6 L 783.7,204.5 L 786.1,207.8 L 793.6,217.9 L 796.2,221.2 L 799.0,224.1 L 801.9,226.8 L 804.6,229.7 L 806.2,231.6 L 806.9,232.7 L 807.4,234.3 L 807.6,235.7 L 807.7,236.9 L 807.5,238.1 L 807.0,239.5 L 806.2,241.0 L 805.4,242.0 L 804.2,243.2 L 802.6,244.0 L 801.0,244.6 L 799.8,244.9 L 798.7,244.9 L 797.8,244.9 L 796.3,244.4 L 794.9,243.5 L 793.4,242.0 L 792.4,240.5 L 791.5,238.8 L 790.9,236.8 L 790.0,234.3 L 788.2,230.9 L 786.3,227.5 L 784.9,225.5 L 783.3,223.4 L 781.2,220.3 L 777.7,215.4 L 775.5,212.2 L 773.7,209.3 L 772.3,206.9 L 771.3,204.8 L 770.5,202.5 L 770.0,200.8 L 769.6,198.5 L 769.3,194.0 L 769.2,189.4 L 769.0,185.7 L 768.4,182.5 L 767.5,180.2 L 766.6,178.3 L 765.3,176.4 L 763.5,174.2 L 761.5,172.3 L 759.2,170.6 L 757.3,169.6 L 754.9,168.8 L 752.9,168.3 L 750.4,168.0 L 748.4,168.2 L 746.3,168.8 L 744.9,169.4 L 743.8,170.4 L 742.1,172.5 L 739.5,175.9 L 725.4,194.8 L 704.4,222.9 L 696.1,233.8 L 694.0,236.6 L 690.8,240.9 L 685.6,248.2 L 679.0,257.4 L 670.9,268.4 L 669.8,269.9 L 664.0,278.0 L 657.6,286.7 L 654.9,291.5 L 652.3,297.0 L 651.5,299.3 L 650.8,301.6 L 650.4,303.6 L 650.1,305.7 L 650.1,308.2 L 650.2,309.3 L 650.3,310.5 L 650.7,312.0 L 651.2,313.3 L 651.7,314.9 L 652.7,317.3 L 654.2,319.9 L 655.3,321.5 L 656.2,322.5 L 658.3,325.0 L 660.5,327.0 L 665.0,331.2 L 674.2,339.3 L 676.3,341.3 L 680.9,344.2 L 681.6,346.7 L 682.7,348.7 L 686.0,355.5 L 688.3,361.2 L 688.9,362.9 L 691.0,369.7 L 691.9,375.3 L 692.1,376.6 L 692.7,380.8 L 693.1,386.2 L 692.9,391.3 L 691.9,396.2 L 691.2,398.5 L 690.6,400.1 L 688.6,403.8 L 686.7,406.7 L 683.7,410.8 L 680.5,414.6 L 676.3,418.7 L 673.8,421.1 L 671.5,422.9 L 667.6,425.9 L 664.7,428.0 L 661.4,430.0 L 658.5,431.7 L 654.1,433.6 L 650.6,435.1 L 644.5,437.0 L 638.5,438.1 L 633.3,439.1 L 619.5,441.0 L 604.5,443.1 L 591.7,446.0 L 579.2,449.2 L 573.2,451.1 L 568.4,452.9 L 562.1,455.7 L 556.6,458.4 L 551.3,461.0 L 528.3,472.1 L 520.8,475.7 L 517.6,476.8 L 513.2,478.4 L 508.8,479.3 L 497.7,480.4 L 490.7,481.1 L 477.5,482.7 L 467.6,484.3 L 456.4,487.2 L 439.7,491.9 L 432.8,494.0 L 431.6,494.3 L 424.8,496.4 L 402.7,503.0 L 388.8,506.7 L 381.4,508.4 L 380.0,508.7 L 366.8,511.1 L 340.3,514.9 L 311.2,518.7 L 308.5,519.3 L 306.3,520.4 L 304.2,522.3 L 302.7,525.0 L 302.0,527.0 L 301.4,529.5 L 299.7,540.4 L 298.9,546.5 L 298.3,550.4 L 297.3,554.1 L 294.8,562.3 L 291.9,571.4 L 290.5,576.7 L 289.2,582.1 L 287.8,589.0 L 286.9,595.8 L 286.0,601.8 L 286.0,602.8 L 285.0,616.5 L 284.7,620.6 L 284.6,629.0 L 284.5,634.1 L 284.7,637.1 L 285.0,643.2 L 285.3,649.2 L 285.4,652.2 L 285.9,656.7 L 286.5,664.0 L 286.8,667.6 L 288.0,684.0 L 288.5,687.7 L 289.2,693.5 L 290.0,700.0 L 290.5,704.9 L 291.2,709.4 L 291.9,713.5 L 292.2,715.4 L 293.0,720.1 L 293.7,724.9 L 294.6,730.4 L 294.8,731.3 L 295.1,733.0 L 295.4,734.8 L 296.0,738.7 L 296.4,740.5 L 296.9,742.8 L 298.2,748.5 L 301.3,760.4 L 304.2,770.9 L 304.7,772.6 L 305.9,776.9 L 306.7,779.5 L 308.2,784.7 L 310.8,793.9 L 314.2,804.9 L 315.0,807.5 L 315.3,808.5 L 315.6,809.4 L 317.9,818.5 L 319.6,824.1 L 321.5,830.4 L 325.3,838.1 L 328.8,844.6 L 334.7,853.9 L 336.8,857.3 L 339.0,860.9 L 341.9,865.3 L 343.5,867.5 L 350.5,876.0 L 352.3,878.7 L 353.9,881.5 L 355.3,884.3 L 356.4,887.3 L 357.3,890.4 L 358.0,893.6 L 358.4,896.8 L 358.6,900.1 L 359.4,902.8 L 360.6,904.5 L 362.1,906.1 L 364.3,907.8 L 365.7,908.5 L 367.4,909.2 L 369.9,909.7 L 372.2,909.8 L 376.1,910.0 L 380.1,909.9 L 383.5,909.6 L 386.9,909.2 L 392.8,908.2 L 394.9,907.8 L 397.5,907.0 L 416.4,901.7 L 418.6,900.9 L 420.6,899.7 L 422.0,898.8 L 423.0,897.8 L 423.9,896.2 L 424.6,894.3 L 424.9,892.5 L 424.7,890.4 L 424.0,888.1 L 423.4,886.3 L 422.6,884.6 L 421.8,883.0 L 418.2,880.5 L 414.7,878.4 L 403.9,873.4 L 398.9,870.9 L 394.6,868.4 L 390.8,865.7 L 385.4,861.1 L 380.9,856.7 L 374.3,848.9 L 370.2,843.1 L 365.9,836.2 L 361.1,826.8 L 355.4,814.4 L 349.2,797.3 L 346.4,787.7 L 345.5,781.2 L 345.9,778.4 L 347.0,776.5 L 348.1,775.5 L 349.5,774.7 L 353.0,772.9 L 355.0,771.9 L 357.7,770.0 L 360.2,767.4 L 362.0,764.3 L 361.9,760.3 L 361.0,756.3 L 358.2,744.6 L 354.5,724.7 L 352.2,711.9 L 347.2,685.2 L 346.0,673.3 L 345.0,670.4 L 344.1,669.1 L 343.2,668.0 L 341.5,666.0 L 339.4,664.0 L 327.6,655.3 L 324.9,652.4 L 322.6,648.3 L 321.8,644.8 L 319.5,637.6 L 318.9,624.7 L 318.9,611.5 L 320.1,601.6 L 321.0,595.3 L 322.2,589.7 L 324.0,582.5 L 327.7,570.6 L 329.1,567.1 L 331.0,562.4 L 336.9,550.1 L 339.6,545.1 L 343.4,538.7 L 345.1,537.1 L 346.8,535.7 L 348.3,535.0 L 350.9,534.1 L 396.0,528.4 L 409.7,525.8 L 412.5,525.4 L 414.4,525.1 L 431.9,522.7 L 446.0,520.7 L 453.8,519.7 L 458.1,519.1 L 474.8,516.8 L 484.8,515.5 L 488.5,515.0 L 497.6,513.7 L 514.5,511.1 L 516.4,511.3 L 518.9,512.4 L 523.4,514.8 L 525.7,516.3 L 527.7,517.0 L 529.4,517.2 L 537.9,515.9 L 540.7,515.5 L 542.1,514.7 L 543.7,513.4 L 544.3,512.0 L 544.3,510.2 L 544.2,506.7 L 544.0,502.6 L 544.3,501.2 L 544.8,499.4 L 546.3,497.3 L 567.0,493.8 L 588.7,489.9 L 609.7,486.3 L 629.8,481.2 L 658.2,471.6 L 683.8,458.4 L 699.0,450.7 L 702.9,448.7 Z" fill="none" stroke="#39404f" stroke-width="8.5" stroke-linejoin="round" stroke-linecap="round"/>
<path d="M 702.9,448.7 L 711.4,444.3 L 719.8,439.6 L 727.9,434.6 L 735.9,429.2 L 743.6,423.6 L 751.1,417.7 L 758.4,411.5 L 765.5,405.0 L 774.1,396.4 L 782.3,387.3 L 790.0,377.9 L 797.2,368.2 L 804.0,358.0 L 810.3,347.6 L 816.1,336.9 L 821.3,325.9 L 826.0,314.7 L 830.2,303.3 L 833.8,291.6 L 836.8,279.8 L 839.3,267.9 L 841.2,255.9 L 842.5,243.8 L 842.8,237.2 L 843.2,231.6 L 845.2,187.0 L 845.5,180.0 L 845.4,177.7 L 845.0,175.3 L 844.0,173.3 L 842.3,171.7 L 840.6,170.7 L 838.7,170.1 L 836.7,170.0 L 833.7,169.9 L 831.2,170.1 L 828.7,170.3 L 825.1,171.3 L 823.2,171.9 L 817.5,173.8 L 809.1,177.4 L 804.0,179.4 L 801.3,180.1 L 794.2,181.6 L 786.4,185.0 L 784.6,186.0 L 783.4,187.0 L 782.4,188.1 L 781.4,189.8 L 780.6,191.9 L 780.1,194.0 L 780.0,195.7 L 780.2,197.3 L 780.7,199.0 L 781.3,200.7 L 782.3,202.6 L 783.7,204.5 L 786.1,207.8 L 793.6,217.9 L 796.2,221.2 L 799.0,224.1 L 801.9,226.8 L 804.6,229.7 L 806.2,231.6 L 806.9,232.7 L 807.4,234.3 L 807.6,235.7 L 807.7,236.9 L 807.5,238.1 L 807.0,239.5 L 806.2,241.0 L 805.4,242.0 L 804.2,243.2 L 802.6,244.0 L 801.0,244.6 L 799.8,244.9 L 798.7,244.9 L 797.8,244.9 L 796.3,244.4 L 794.9,243.5 L 793.4,242.0 L 792.4,240.5 L 791.5,238.8 L 790.9,236.8 L 790.0,234.3 L 788.2,230.9 L 786.3,227.5 L 784.9,225.5 L 783.3,223.4 L 781.2,220.3 L 777.7,215.4 L 775.5,212.2 L 773.7,209.3 L 772.3,206.9 L 771.3,204.8 L 770.5,202.5 L 770.0,200.8 L 769.6,198.5 L 769.3,194.0 L 769.2,189.4 L 769.0,185.7 L 768.4,182.5 L 767.5,180.2 L 766.6,178.3 L 765.3,176.4 L 763.5,174.2 L 761.5,172.3 L 759.2,170.6 L 757.3,169.6 L 754.9,168.8 L 752.9,168.3 L 750.4,168.0 L 748.4,168.2 L 746.3,168.8 L 744.9,169.4 L 743.8,170.4 L 742.1,172.5 L 739.5,175.9 L 725.4,194.8 L 704.4,222.9 L 696.1,233.8 L 694.0,236.6 L 690.8,240.9 L 685.6,248.2 L 679.0,257.4 L 670.9,268.4 L 669.8,269.9 L 664.0,278.0 L 657.6,286.7 L 654.9,291.5 L 652.3,297.0 L 651.5,299.3 L 650.8,301.6 L 650.4,303.6 L 650.1,305.7 L 650.1,308.2 L 650.2,309.3 L 650.3,310.5 L 650.7,312.0 L 651.2,313.3 L 651.7,314.9 L 652.7,317.3 L 654.2,319.9 L 655.3,321.5 L 656.2,322.5 L 658.3,325.0 L 660.5,327.0 L 665.0,331.2 L 674.2,339.3 L 676.3,341.3 L 680.9,344.2 L 681.6,346.7 L 682.7,348.7 L 686.0,355.5 L 688.3,361.2 L 688.9,362.9 L 691.0,369.7 L 691.9,375.3 L 692.1,376.6 L 692.7,380.8 L 693.1,386.2 L 692.9,391.3 L 691.9,396.2 L 691.2,398.5 L 690.6,400.1 L 688.6,403.8 L 686.7,406.7 L 683.7,410.8 L 680.5,414.6 L 676.3,418.7 L 673.8,421.1 L 671.5,422.9 L 667.6,425.9 L 664.7,428.0 L 661.4,430.0 L 658.5,431.7 L 654.1,433.6 L 650.6,435.1 L 644.5,437.0 L 638.5,438.1 L 633.3,439.1 L 619.5,441.0 L 604.5,443.1 L 591.7,446.0 L 579.2,449.2 L 573.2,451.1 L 568.4,452.9 L 562.1,455.7 L 556.6,458.4 L 551.3,461.0 L 528.3,472.1 L 520.8,475.7 L 517.6,476.8 L 513.2,478.4 L 508.8,479.3 L 497.7,480.4 L 490.7,481.1 L 477.5,482.7 L 467.6,484.3 L 456.4,487.2 L 439.7,491.9 L 432.8,494.0 L 431.6,494.3 L 424.8,496.4 L 402.7,503.0 L 388.8,506.7 L 381.4,508.4 L 380.0,508.7 L 366.8,511.1 L 340.3,514.9 L 311.2,518.7 L 308.5,519.3 L 306.3,520.4 L 304.2,522.3 L 302.7,525.0 L 302.0,527.0 L 301.4,529.5 L 299.7,540.4 L 298.9,546.5 L 298.3,550.4 L 297.3,554.1 L 294.8,562.3 L 291.9,571.4 L 290.5,576.7 L 289.2,582.1 L 287.8,589.0 L 286.9,595.8 L 286.0,601.8 L 286.0,602.8 L 285.0,616.5 L 284.7,620.6 L 284.6,629.0 L 284.5,634.1 L 284.7,637.1 L 285.0,643.2 L 285.3,649.2 L 285.4,652.2 L 285.9,656.7 L 286.5,664.0 L 286.8,667.6 L 288.0,684.0 L 288.5,687.7 L 289.2,693.5 L 290.0,700.0 L 290.5,704.9 L 291.2,709.4 L 291.9,713.5 L 292.2,715.4 L 293.0,720.1 L 293.7,724.9 L 294.6,730.4 L 294.8,731.3 L 295.1,733.0 L 295.4,734.8 L 296.0,738.7 L 296.4,740.5 L 296.9,742.8 L 298.2,748.5 L 301.3,760.4 L 304.2,770.9 L 304.7,772.6 L 305.9,776.9 L 306.7,779.5 L 308.2,784.7 L 310.8,793.9 L 314.2,804.9 L 315.0,807.5 L 315.3,808.5 L 315.6,809.4 L 317.9,818.5 L 319.6,824.1 L 321.5,830.4 L 325.3,838.1 L 328.8,844.6 L 334.7,853.9 L 336.8,857.3 L 339.0,860.9 L 341.9,865.3 L 343.5,867.5 L 350.5,876.0 L 352.3,878.7 L 353.9,881.5 L 355.3,884.3 L 356.4,887.3 L 357.3,890.4 L 358.0,893.6 L 358.4,896.8 L 358.6,900.1 L 359.4,902.8 L 360.6,904.5 L 362.1,906.1 L 364.3,907.8 L 365.7,908.5 L 367.4,909.2 L 369.9,909.7 L 372.2,909.8 L 376.1,910.0 L 380.1,909.9 L 383.5,909.6 L 386.9,909.2 L 392.8,908.2 L 394.9,907.8 L 397.5,907.0 L 416.4,901.7 L 418.6,900.9 L 420.6,899.7 L 422.0,898.8 L 423.0,897.8 L 423.9,896.2 L 424.6,894.3 L 424.9,892.5 L 424.7,890.4 L 424.0,888.1 L 423.4,886.3 L 422.6,884.6 L 421.8,883.0 L 418.2,880.5 L 414.7,878.4 L 403.9,873.4 L 398.9,870.9 L 394.6,868.4 L 390.8,865.7 L 385.4,861.1 L 380.9,856.7 L 374.3,848.9 L 370.2,843.1 L 365.9,836.2 L 361.1,826.8 L 355.4,814.4 L 349.2,797.3 L 346.4,787.7 L 345.5,781.2 L 345.9,778.4 L 347.0,776.5 L 348.1,775.5 L 349.5,774.7 L 353.0,772.9 L 355.0,771.9 L 357.7,770.0 L 360.2,767.4 L 362.0,764.3 L 361.9,760.3 L 361.0,756.3 L 358.2,744.6 L 354.5,724.7 L 352.2,711.9 L 347.2,685.2 L 346.0,673.3 L 345.0,670.4 L 344.1,669.1 L 343.2,668.0 L 341.5,666.0 L 339.4,664.0 L 327.6,655.3 L 324.9,652.4 L 322.6,648.3 L 321.8,644.8 L 319.5,637.6 L 318.9,624.7 L 318.9,611.5 L 320.1,601.6 L 321.0,595.3 L 322.2,589.7 L 324.0,582.5 L 327.7,570.6 L 329.1,567.1 L 331.0,562.4 L 336.9,550.1 L 339.6,545.1 L 343.4,538.7 L 345.1,537.1 L 346.8,535.7 L 348.3,535.0 L 350.9,534.1 L 396.0,528.4 L 409.7,525.8 L 412.5,525.4 L 414.4,525.1 L 431.9,522.7 L 446.0,520.7 L 453.8,519.7 L 458.1,519.1 L 474.8,516.8 L 484.8,515.5 L 488.5,515.0 L 497.6,513.7 L 514.5,511.1 L 516.4,511.3 L 518.9,512.4 L 523.4,514.8 L 525.7,516.3 L 527.7,517.0 L 529.4,517.2 L 537.9,515.9 L 540.7,515.5 L 542.1,514.7 L 543.7,513.4 L 544.3,512.0 L 544.3,510.2 L 544.2,506.7 L 544.0,502.6 L 544.3,501.2 L 544.8,499.4 L 546.3,497.3 L 567.0,493.8 L 588.7,489.9 L 609.7,486.3 L 629.8,481.2 L 658.2,471.6 L 683.8,458.4 L 699.0,450.7 L 702.9,448.7 Z" fill="none" stroke="#e7edf8" stroke-width="2.6" stroke-linejoin="round" stroke-linecap="round"/>
<path d="M 702.9,448.7 L 711.4,444.3 L 719.8,439.6 L 727.9,434.6 L 735.9,429.2 L 743.6,423.6 L 751.1,417.7 L 758.4,411.5 L 765.5,405.0 L 774.1,396.4 L 782.3,387.3 L 790.0,377.9 L 797.2,368.2 L 804.0,358.0 L 810.3,347.6 L 816.1,336.9 L 821.3,325.9 L 826.0,314.7 L 830.2,303.3 L 833.8,291.6 L 836.8,279.8 L 839.3,267.9 L 841.2,255.9 L 842.5,243.8 L 842.8,237.2 L 843.2,231.6 L 845.2,187.0 L 845.5,180.0 L 845.4,177.7 L 845.0,175.3 L 844.0,173.3 L 842.3,171.7 L 840.6,170.7 L 838.7,170.1 L 836.7,170.0 L 833.7,169.9 L 831.2,170.1 L 828.7,170.3 L 825.1,171.3 L 823.2,171.9 L 817.5,173.8 L 809.1,177.4 L 804.0,179.4 L 801.3,180.1 L 794.2,181.6 L 786.4,185.0 L 784.6,186.0 L 783.4,187.0 L 782.4,188.1 L 781.4,189.8 L 780.6,191.9 L 780.1,194.0 L 780.0,195.7 L 780.2,197.3 L 780.7,199.0 L 781.3,200.7 L 782.3,202.6 L 783.7,204.5 L 786.1,207.8 L 793.6,217.9 L 796.2,221.2 L 799.0,224.1 L 801.9,226.8 L 804.6,229.7 L 806.2,231.6 L 806.9,232.7 L 807.4,234.3 L 807.6,235.7 L 807.7,236.9 L 807.5,238.1 L 807.0,239.5 L 806.2,241.0 L 805.4,242.0 L 804.2,243.2 L 802.6,244.0 L 801.0,244.6 L 799.8,244.9 L 798.7,244.9 L 797.8,244.9 L 796.3,244.4 L 794.9,243.5 L 793.4,242.0 L 792.4,240.5 L 791.5,238.8 L 790.9,236.8 L 790.0,234.3 L 788.2,230.9 L 786.3,227.5 L 784.9,225.5 L 783.3,223.4 L 781.2,220.3 L 777.7,215.4 L 775.5,212.2 L 773.7,209.3 L 772.3,206.9 L 771.3,204.8 L 770.5,202.5 L 770.0,200.8 L 769.6,198.5 L 769.3,194.0 L 769.2,189.4 L 769.0,185.7 L 768.4,182.5 L 767.5,180.2 L 766.6,178.3 L 765.3,176.4 L 763.5,174.2 L 761.5,172.3 L 759.2,170.6 L 757.3,169.6 L 754.9,168.8 L 752.9,168.3 L 750.4,168.0 L 748.4,168.2 L 746.3,168.8 L 744.9,169.4 L 743.8,170.4 L 742.1,172.5 L 739.5,175.9 L 725.4,194.8 L 704.4,222.9 L 696.1,233.8 L 694.0,236.6 L 690.8,240.9 L 685.6,248.2 L 679.0,257.4 L 670.9,268.4 L 669.8,269.9 L 664.0,278.0 L 657.6,286.7 L 654.9,291.5 L 652.3,297.0 L 651.5,299.3 L 650.8,301.6 L 650.4,303.6 L 650.1,305.7 L 650.1,308.2 L 650.2,309.3 L 650.3,310.5 L 650.7,312.0 L 651.2,313.3 L 651.7,314.9 L 652.7,317.3 L 654.2,319.9 L 655.3,321.5 L 656.2,322.5 L 658.3,325.0 L 660.5,327.0 L 665.0,331.2 L 674.2,339.3 L 676.3,341.3 L 680.9,344.2 L 681.6,346.7 L 682.7,348.7 L 686.0,355.5 L 688.3,361.2 L 688.9,362.9 L 691.0,369.7 L 691.9,375.3 L 692.1,376.6 L 692.7,380.8 L 693.1,386.2 L 692.9,391.3 L 691.9,396.2 L 691.2,398.5 L 690.6,400.1 L 688.6,403.8 L 686.7,406.7 L 683.7,410.8 L 680.5,414.6 L 676.3,418.7 L 673.8,421.1 L 671.5,422.9 L 667.6,425.9 L 664.7,428.0 L 661.4,430.0 L 658.5,431.7 L 654.1,433.6 L 650.6,435.1 L 644.5,437.0 L 638.5,438.1 L 633.3,439.1 L 619.5,441.0 L 604.5,443.1 L 591.7,446.0 L 579.2,449.2 L 573.2,451.1 L 568.4,452.9 L 562.1,455.7 L 556.6,458.4 L 551.3,461.0 L 528.3,472.1 L 520.8,475.7 L 517.6,476.8 L 513.2,478.4 L 508.8,479.3 L 497.7,480.4 L 490.7,481.1 L 477.5,482.7 L 467.6,484.3 L 456.4,487.2 L 439.7,491.9 L 432.8,494.0 L 431.6,494.3 L 424.8,496.4 L 402.7,503.0 L 388.8,506.7 L 381.4,508.4 L 380.0,508.7 L 366.8,511.1 L 340.3,514.9 L 311.2,518.7 L 308.5,519.3 L 306.3,520.4 L 304.2,522.3 L 302.7,525.0 L 302.0,527.0 L 301.4,529.5 L 299.7,540.4 L 298.9,546.5 L 298.3,550.4 L 297.3,554.1 L 294.8,562.3 L 291.9,571.4 L 290.5,576.7 L 289.2,582.1 L 287.8,589.0 L 286.9,595.8 L 286.0,601.8 L 286.0,602.8 L 285.0,616.5 L 284.7,620.6 L 284.6,629.0 L 284.5,634.1 L 284.7,637.1 L 285.0,643.2 L 285.3,649.2 L 285.4,652.2 L 285.9,656.7 L 286.5,664.0 L 286.8,667.6 L 288.0,684.0 L 288.5,687.7 L 289.2,693.5 L 290.0,700.0 L 290.5,704.9 L 291.2,709.4 L 291.9,713.5 L 292.2,715.4 L 293.0,720.1 L 293.7,724.9 L 294.6,730.4 L 294.8,731.3 L 295.1,733.0 L 295.4,734.8 L 296.0,738.7 L 296.4,740.5 L 296.9,742.8 L 298.2,748.5 L 301.3,760.4 L 304.2,770.9 L 304.7,772.6 L 305.9,776.9 L 306.7,779.5 L 308.2,784.7 L 310.8,793.9 L 314.2,804.9 L 315.0,807.5 L 315.3,808.5 L 315.6,809.4 L 317.9,818.5 L 319.6,824.1 L 321.5,830.4 L 325.3,838.1 L 328.8,844.6 L 334.7,853.9 L 336.8,857.3 L 339.0,860.9 L 341.9,865.3 L 343.5,867.5 L 350.5,876.0 L 352.3,878.7 L 353.9,881.5 L 355.3,884.3 L 356.4,887.3 L 357.3,890.4 L 358.0,893.6 L 358.4,896.8 L 358.6,900.1 L 359.4,902.8 L 360.6,904.5 L 362.1,906.1 L 364.3,907.8 L 365.7,908.5 L 367.4,909.2 L 369.9,909.7 L 372.2,909.8 L 376.1,910.0 L 380.1,909.9 L 383.5,909.6 L 386.9,909.2 L 392.8,908.2 L 394.9,907.8 L 397.5,907.0 L 416.4,901.7 L 418.6,900.9 L 420.6,899.7 L 422.0,898.8 L 423.0,897.8 L 423.9,896.2 L 424.6,894.3 L 424.9,892.5 L 424.7,890.4 L 424.0,888.1 L 423.4,886.3 L 422.6,884.6 L 421.8,883.0 L 418.2,880.5 L 414.7,878.4 L 403.9,873.4 L 398.9,870.9 L 394.6,868.4 L 390.8,865.7 L 385.4,861.1 L 380.9,856.7 L 374.3,848.9 L 370.2,843.1 L 365.9,836.2 L 361.1,826.8 L 355.4,814.4 L 349.2,797.3 L 346.4,787.7 L 345.5,781.2 L 345.9,778.4 L 347.0,776.5 L 348.1,775.5 L 349.5,774.7 L 353.0,772.9 L 355.0,771.9 L 357.7,770.0 L 360.2,767.4 L 362.0,764.3 L 361.9,760.3 L 361.0,756.3 L 358.2,744.6 L 354.5,724.7 L 352.2,711.9 L 347.2,685.2 L 346.0,673.3 L 345.0,670.4 L 344.1,669.1 L 343.2,668.0 L 341.5,666.0 L 339.4,664.0 L 327.6,655.3 L 324.9,652.4 L 322.6,648.3 L 321.8,644.8 L 319.5,637.6 L 318.9,624.7 L 318.9,611.5 L 320.1,601.6 L 321.0,595.3 L 322.2,589.7 L 324.0,582.5 L 327.7,570.6 L 329.1,567.1 L 331.0,562.4 L 336.9,550.1 L 339.6,545.1 L 343.4,538.7 L 345.1,537.1 L 346.8,535.7 L 348.3,535.0 L 350.9,534.1 L 396.0,528.4 L 409.7,525.8 L 412.5,525.4 L 414.4,525.1 L 431.9,522.7 L 446.0,520.7 L 453.8,519.7 L 458.1,519.1 L 474.8,516.8 L 484.8,515.5 L 488.5,515.0 L 497.6,513.7 L 514.5,511.1 L 516.4,511.3 L 518.9,512.4 L 523.4,514.8 L 525.7,516.3 L 527.7,517.0 L 529.4,517.2 L 537.9,515.9 L 540.7,515.5 L 542.1,514.7 L 543.7,513.4 L 544.3,512.0 L 544.3,510.2 L 544.2,506.7 L 544.0,502.6 L 544.3,501.2 L 544.8,499.4 L 546.3,497.3 L 567.0,493.8 L 588.7,489.9 L 609.7,486.3 L 629.8,481.2 L 658.2,471.6 L 683.8,458.4 L 699.0,450.7 L 702.9,448.7 Z" fill="none" stroke="#ff5a36" stroke-opacity="0.55" stroke-width="1.2" stroke-linejoin="round" filter="url(#glow)"/>
<circle cx="702.9" cy="448.7" r="13" fill="none" stroke="#ffffff" stroke-width="3"/>
<rect x="698.9" y="426.7" width="8" height="18" fill="#ffffff"/>
<circle cx="818.7" cy="331.5" r="7" fill="#ff5a36" stroke="#0a0c12" stroke-width="2.5" filter="url(#glow)"/>
<text x="818.7" y="334.9" font-size="9" font-weight="700" fill="#0a0c12" text-anchor="middle">1</text>
<circle cx="783.6" cy="186.8" r="7" fill="#ff5a36" stroke="#0a0c12" stroke-width="2.5" filter="url(#glow)"/>
<text x="783.6" y="190.2" font-size="9" font-weight="700" fill="#0a0c12" text-anchor="middle">2</text>
<circle cx="735.1" cy="181.7" r="7" fill="#ff5a36" stroke="#0a0c12" stroke-width="2.5" filter="url(#glow)"/>
<text x="735.1" y="185.1" font-size="9" font-weight="700" fill="#0a0c12" text-anchor="middle">3</text>
<circle cx="679.0" cy="257.3" r="7" fill="#ff5a36" stroke="#0a0c12" stroke-width="2.5" filter="url(#glow)"/>
<text x="679.0" y="260.7" font-size="9" font-weight="700" fill="#0a0c12" text-anchor="middle">4</text>
<circle cx="679.0" cy="416.1" r="7" fill="#ff5a36" stroke="#0a0c12" stroke-width="2.5" filter="url(#glow)"/>
<text x="679.0" y="419.5" font-size="9" font-weight="700" fill="#0a0c12" text-anchor="middle">5</text>
<circle cx="587.5" cy="447.1" r="7" fill="#ff5a36" stroke="#0a0c12" stroke-width="2.5" filter="url(#glow)"/>
<text x="587.5" y="450.5" font-size="9" font-weight="700" fill="#0a0c12" text-anchor="middle">6</text>
<circle cx="530.5" cy="471.1" r="7" fill="#ff5a36" stroke="#0a0c12" stroke-width="2.5" filter="url(#glow)"/>
<text x="530.5" y="474.5" font-size="9" font-weight="700" fill="#0a0c12" text-anchor="middle">7</text>
<circle cx="464.0" cy="485.2" r="7" fill="#ff5a36" stroke="#0a0c12" stroke-width="2.5" filter="url(#glow)"/>
<text x="464.0" y="488.6" font-size="9" font-weight="700" fill="#0a0c12" text-anchor="middle">8</text>
<circle cx="287.4" cy="591.6" r="7" fill="#ff5a36" stroke="#0a0c12" stroke-width="2.5" filter="url(#glow)"/>
<text x="287.4" y="595.0" font-size="9" font-weight="700" fill="#0a0c12" text-anchor="middle">9</text>
<circle cx="333.1" cy="851.4" r="7" fill="#ff5a36" stroke="#0a0c12" stroke-width="2.5" filter="url(#glow)"/>
<text x="333.1" y="854.8" font-size="9" font-weight="700" fill="#0a0c12" text-anchor="middle">10</text>
<circle cx="340.5" cy="863.2" r="7" fill="#ff5a36" stroke="#0a0c12" stroke-width="2.5" filter="url(#glow)"/>
<text x="340.5" y="866.6" font-size="9" font-weight="700" fill="#0a0c12" text-anchor="middle">11</text>
<circle cx="366.6" cy="837.2" r="7" fill="#ff5a36" stroke="#0a0c12" stroke-width="2.5" filter="url(#glow)"/>
<text x="366.6" y="840.6" font-size="9" font-weight="700" fill="#0a0c12" text-anchor="middle">12</text>
<circle cx="356.2" cy="733.9" r="7" fill="#ff5a36" stroke="#0a0c12" stroke-width="2.5" filter="url(#glow)"/>
<text x="356.2" y="737.3" font-size="9" font-weight="700" fill="#0a0c12" text-anchor="middle">13</text>
<circle cx="350.2" cy="701.0" r="7" fill="#ff5a36" stroke="#0a0c12" stroke-width="2.5" filter="url(#glow)"/>
<text x="350.2" y="704.4" font-size="9" font-weight="700" fill="#0a0c12" text-anchor="middle">14</text>
<circle cx="318.9" cy="623.4" r="7" fill="#ff5a36" stroke="#0a0c12" stroke-width="2.5" filter="url(#glow)"/>
<text x="318.9" y="626.8" font-size="9" font-weight="700" fill="#0a0c12" text-anchor="middle">15</text>
<circle cx="321.6" cy="592.7" r="7" fill="#ff5a36" stroke="#0a0c12" stroke-width="2.5" filter="url(#glow)"/>
<text x="321.6" y="596.1" font-size="9" font-weight="700" fill="#0a0c12" text-anchor="middle">16</text>
<circle cx="432.7" cy="522.5" r="7" fill="#ff5a36" stroke="#0a0c12" stroke-width="2.5" filter="url(#glow)"/>
<text x="432.7" y="525.9" font-size="9" font-weight="700" fill="#0a0c12" text-anchor="middle">17</text>
<circle cx="496.8" cy="513.8" r="7" fill="#ff5a36" stroke="#0a0c12" stroke-width="2.5" filter="url(#glow)"/>
<text x="496.8" y="517.2" font-size="9" font-weight="700" fill="#0a0c12" text-anchor="middle">18</text>
<circle cx="516.6" cy="511.4" r="7" fill="#ff5a36" stroke="#0a0c12" stroke-width="2.5" filter="url(#glow)"/>
<text x="516.6" y="514.8" font-size="9" font-weight="700" fill="#0a0c12" text-anchor="middle">19</text>
<line x1="818.7" y1="331.5" x2="863.1" y2="304.5" stroke="#ff5a36" stroke-opacity="0.45" stroke-width="1.3"/>
<text x="871.1" y="308.5" font-size="15" font-weight="600" fill="#eef2fb" text-anchor="start">Sainte Devote</text>
<line x1="783.6" y1="186.8" x2="815.3" y2="169.1" stroke="#ff5a36" stroke-opacity="0.45" stroke-width="1.3"/>
<text x="823.3" y="173.1" font-size="15" font-weight="600" fill="#eef2fb" text-anchor="start">Beau Rivage</text>
<line x1="735.1" y1="181.7" x2="761.9" y2="137.1" stroke="#ff5a36" stroke-opacity="0.45" stroke-width="1.3"/>
<text x="769.9" y="141.1" font-size="15" font-weight="600" fill="#eef2fb" text-anchor="start">Massenet</text>
<line x1="679.0" y1="257.3" x2="704.3" y2="211.9" stroke="#ff5a36" stroke-opacity="0.45" stroke-width="1.3"/>
<text x="712.3" y="215.9" font-size="15" font-weight="600" fill="#eef2fb" text-anchor="start">Casino</text>
<line x1="679.0" y1="416.1" x2="723.4" y2="389.1" stroke="#ff5a36" stroke-opacity="0.45" stroke-width="1.3"/>
<text x="731.4" y="393.1" font-size="15" font-weight="600" fill="#eef2fb" text-anchor="start">Mirabeau</text>
<line x1="587.5" y1="447.1" x2="620.9" y2="421.1" stroke="#ff5a36" stroke-opacity="0.45" stroke-width="1.3"/>
<text x="628.9" y="425.1" font-size="15" font-weight="600" fill="#eef2fb" text-anchor="start">Fairmont Hairpin</text>
<line x1="530.5" y1="471.1" x2="505.2" y2="425.6" stroke="#ff5a36" stroke-opacity="0.45" stroke-width="1.3"/>
<text x="497.2" y="429.6" font-size="15" font-weight="600" fill="#eef2fb" text-anchor="end">Portier</text>
<line x1="464.0" y1="485.2" x2="412.6" y2="477.4" stroke="#ff5a36" stroke-opacity="0.45" stroke-width="1.3"/>
<text x="404.6" y="481.4" font-size="15" font-weight="600" fill="#eef2fb" text-anchor="end">Portier</text>
<line x1="287.4" y1="591.6" x2="238.6" y2="626.4" stroke="#ff5a36" stroke-opacity="0.45" stroke-width="1.3"/>
<text x="230.6" y="630.4" font-size="15" font-weight="600" fill="#eef2fb" text-anchor="end">Tunnel</text>
<line x1="340.5" y1="863.2" x2="315.1" y2="915.2" stroke="#ff5a36" stroke-opacity="0.45" stroke-width="1.3"/>
<text x="307.1" y="919.2" font-size="15" font-weight="600" fill="#eef2fb" text-anchor="end">Nouvelle Chicane</text>
<line x1="366.6" y1="837.2" x2="342.4" y2="883.2" stroke="#ff5a36" stroke-opacity="0.45" stroke-width="1.3"/>
<text x="334.4" y="887.2" font-size="15" font-weight="600" fill="#eef2fb" text-anchor="end">Tabac</text>
<line x1="318.9" y1="623.4" x2="273.5" y2="658.4" stroke="#ff5a36" stroke-opacity="0.45" stroke-width="1.3"/>
<text x="265.5" y="662.4" font-size="15" font-weight="600" fill="#eef2fb" text-anchor="end">Swimming Pool</text>
<line x1="432.7" y1="522.5" x2="381.9" y2="562.4" stroke="#ff5a36" stroke-opacity="0.45" stroke-width="1.3"/>
<text x="373.9" y="566.4" font-size="15" font-weight="600" fill="#eef2fb" text-anchor="end">Rascasse</text>
<line x1="496.8" y1="513.8" x2="447.5" y2="530.4" stroke="#ff5a36" stroke-opacity="0.45" stroke-width="1.3"/>
<text x="439.5" y="534.4" font-size="15" font-weight="600" fill="#eef2fb" text-anchor="end">Anthony Noghes</text>
<line x1="516.6" y1="511.4" x2="469.8" y2="594.4" stroke="#ff5a36" stroke-opacity="0.45" stroke-width="1.3"/>
<text x="461.8" y="598.4" font-size="15" font-weight="600" fill="#eef2fb" text-anchor="end">Anthony Noghes</text>
<text x="90" y="64" font-size="20" letter-spacing="5" fill="#ff5a36" font-weight="700">TRACK ATLAS</text>
<text x="90" y="108" font-size="42" font-weight="800" fill="#ffffff">CIRCUIT DE MONACO</text>
<text x="90" y="136" font-size="16" fill="#9aa6bd">Monte Carlo</text>
<rect x="1170" y="200" width="360" height="710" rx="16" fill="#ffffff" fill-opacity="0.04" stroke="#ff5a36" stroke-opacity="0.5"/>
<text x="1198" y="250" font-size="13" letter-spacing="2" fill="#8794ab">LAYOUT</text>
<text x="1198" y="276" font-size="22" font-weight="700" fill="#eef2fb">Grand Prix Circuit</text>
<text x="1198" y="320" font-size="13" letter-spacing="2" fill="#8794ab">LENGTH</text>
<text x="1198" y="346" font-size="22" font-weight="700" fill="#eef2fb">3.337 km</text>
<text x="1198" y="390" font-size="13" letter-spacing="2" fill="#8794ab">CORNERS</text>
<text x="1198" y="416" font-size="22" font-weight="700" fill="#eef2fb">19</text>
<text x="1198" y="460" font-size="13" letter-spacing="2" fill="#8794ab">NAMED CORNERS</text>
<text x="1198" y="486" font-size="22" font-weight="700" fill="#eef2fb">19</text>
<text x="1198" y="530" font-size="13" letter-spacing="2" fill="#8794ab">DIRECTION</text>
<text x="1198" y="556" font-size="22" font-weight="700" fill="#eef2fb">Clockwise</text>
<text x="1198" y="600" font-size="13" letter-spacing="2" fill="#8794ab">SECTORS</text>
<text x="1198" y="626" font-size="22" font-weight="700" fill="#eef2fb">3</text>
<text x="1198" y="670" font-size="13" letter-spacing="2" fill="#8794ab">COUNTRY</text>
<text x="1198" y="696" font-size="22" font-weight="700" fill="#eef2fb">MC</text>
<text x="1198" y="740" font-size="13" letter-spacing="2" fill="#8794ab">LOCATION</text>
<text x="1198" y="766" font-size="22" font-weight="700" fill="#eef2fb">Monte Carlo</text>
<text x="1198" y="810" font-size="13" letter-spacing="2" fill="#8794ab">COMPLEXES</text>
<rect x="1198" y="816" width="142" height="24" rx="12" fill="#ff5a36" fill-opacity="0.16" stroke="#ff5a36" stroke-opacity="0.5"/>
<text x="1269" y="833" font-size="12" fill="#eef2fb" text-anchor="middle">Nouvelle Chicane</text>
<rect x="1350" y="816" width="118" height="24" rx="12" fill="#ff5a36" fill-opacity="0.16" stroke="#ff5a36" stroke-opacity="0.5"/>
<text x="1409" y="833" font-size="12" fill="#eef2fb" text-anchor="middle">Swimming Pool</text>
<text x="90" y="966" font-size="12" fill="#566177">Geometry © OpenStreetMap contributors (ODbL) · corner data: Lovely-Sim-Racing + curated · track-atlas</text>
<text x="90" y="942" font-size="12" fill="#8794ab">⚑ start / finish</text>
</svg>