<svg xmlns="http://www.w3.org/2000/svg" width="1600" height="1000" viewBox="0 0 1600 1000" font-family="Helvetica, Arial, sans-serif">
<defs>
      <radialGradient id="bg" cx="38%" cy="34%" r="85%">
        <stop offset="0%" stop-color="#1b2030"/>
        <stop offset="55%" stop-color="#12151f"/>
        <stop offset="100%" stop-color="#0a0c12"/>
      </radialGradient>
      <linearGradient id="accent" x1="0" y1="0" x2="1" y2="1">
        <stop offset="0%" stop-color="#ff5a36"/>
        <stop offset="100%" stop-color="#ffffff"/>
      </linearGradient>
      <filter id="glow" x="-40%" y="-40%" width="180%" height="180%">
        <feGaussianBlur stdDeviation="6" result="b"/>
        <feMerge><feMergeNode in="b"/><feMergeNode in="SourceGraphic"/></feMerge>
      </filter>
    </defs>
<rect width="1600" height="1000" fill="url(#bg)"/>
<path d="M 973.6,678.8 L 975.9,677.5 L 977.6,676.6 L 979.0,676.0 L 981.0,675.1 L 982.9,674.6 L 984.6,674.2 L 986.1,674.0 L 988.2,673.9 L 989.7,674.0 L 991.2,674.2 L 992.9,674.6 L 994.3,674.9 L 995.7,675.5 L 996.9,676.1 L 998.1,676.7 L 999.4,677.7 L 1000.8,679.0 L 1002.2,680.5 L 1003.5,682.1 L 1004.9,684.1 L 1006.2,686.7 L 1007.3,689.4 L 1008.1,692.0 L 1008.5,694.6 L 1008.8,698.1 L 1008.9,701.3 L 1009.1,705.3 L 1008.2,709.1 L 1007.6,711.7 L 1006.8,714.2 L 1005.9,716.4 L 1004.7,718.5 L 1003.6,720.6 L 1002.3,722.7 L 1000.9,724.8 L 999.3,726.9 L 996.0,731.2 L 975.7,758.6 L 971.8,763.6 L 968.7,768.1 L 966.1,772.6 L 962.8,778.1 L 959.9,783.2 L 957.6,787.7 L 956.3,791.0 L 955.1,794.3 L 954.2,797.6 L 953.7,800.6 L 953.5,802.6 L 953.4,804.2 L 953.5,805.8 L 953.8,807.6 L 954.4,809.5 L 955.5,811.8 L 957.0,814.4 L 958.9,816.9 L 960.7,819.2 L 962.9,821.5 L 966.0,824.3 L 970.1,827.4 L 974.0,829.7 L 977.9,831.6 L 981.7,833.0 L 985.4,833.9 L 990.2,834.6 L 994.4,834.8 L 999.0,834.5 L 1003.1,833.9 L 1007.1,833.0 L 1010.6,831.9 L 1013.2,830.9 L 1015.6,829.7 L 1017.4,828.8 L 1019.6,827.4 L 1021.3,826.1 L 1023.0,824.6 L 1025.3,822.5 L 1027.1,820.8 L 1028.5,819.2 L 1030.1,817.0 L 1031.8,814.6 L 1033.6,811.4 L 1035.0,808.8 L 1036.3,806.3 L 1037.3,803.7 L 1038.0,800.9 L 1038.6,798.0 L 1039.0,795.6 L 1039.3,792.7 L 1039.5,790.3 L 1039.5,787.7 L 1039.5,784.6 L 1040.0,722.0 L 1039.8,693.1 L 1039.7,690.4 L 1039.5,687.0 L 1039.3,684.0 L 1038.9,681.2 L 1038.4,678.1 L 1037.8,674.7 L 1037.0,671.5 L 1036.0,667.8 L 1034.9,664.1 L 1033.8,660.9 L 1032.7,657.7 L 1031.2,654.4 L 1029.8,651.9 L 1028.1,649.4 L 1026.3,647.1 L 1024.4,644.8 L 1022.8,643.0 L 1020.9,640.9 L 1018.9,638.7 L 1016.9,636.7 L 1014.9,634.7 L 1012.7,632.6 L 1010.4,630.6 L 1008.2,628.9 L 1005.8,627.3 L 1003.6,626.1 L 1001.2,624.9 L 998.7,623.7 L 996.0,622.7 L 761.2,534.7 L 644.6,491.3 L 619.1,481.7 L 594.7,472.8 L 513.9,442.5 L 497.1,436.2 L 482.9,430.8 L 418.2,406.7 L 417.2,406.3 L 321.5,370.7 L 301.4,363.2 L 202.7,326.1 L 198.5,324.5 L 194.7,322.8 L 191.6,321.0 L 189.4,319.5 L 187.5,318.0 L 185.7,316.1 L 184.5,314.5 L 183.6,312.7 L 182.4,310.6 L 181.4,308.6 L 180.3,306.1 L 177.4,299.4 L 174.6,292.6 L 171.8,286.0 L 168.1,278.7 L 164.1,272.2 L 160.8,267.7 L 156.8,263.1 L 152.4,258.8 L 148.5,255.4 L 144.1,252.2 L 139.8,249.4 L 136.4,247.5 L 133.2,245.9 L 130.9,244.8 L 128.8,244.1 L 126.9,243.6 L 125.2,243.3 L 123.2,243.2 L 120.1,243.4 L 117.0,243.9 L 114.5,244.7 L 112.1,245.6 L 109.3,247.3 L 107.9,248.3 L 106.1,249.9 L 105.0,251.2 L 103.8,252.9 L 103.1,254.2 L 102.5,255.8 L 101.7,258.1 L 97.1,271.1 L 92.1,285.7 L 91.5,287.3 L 91.0,288.5 L 90.5,290.0 L 90.1,291.2 L 90.0,292.2 L 90.0,292.8 L 90.3,293.7 L 90.6,294.5 L 91.2,295.4 L 91.7,296.0 L 92.5,296.5 L 93.4,297.0 L 94.6,297.3 L 96.2,297.6 L 97.8,297.6 L 99.8,297.4 L 123.8,294.7 L 125.6,294.5 L 127.5,294.5 L 129.2,294.7 L 130.8,294.9 L 132.7,295.1 L 134.4,295.5 L 135.9,296.1 L 137.6,296.7 L 139.2,297.5 L 141.0,298.8 L 142.6,299.9 L 144.2,301.2 L 145.4,302.5 L 146.7,304.0 L 147.9,305.9 L 149.0,308.1 L 149.7,310.2 L 150.2,312.3 L 150.3,314.3 L 150.3,316.4 L 150.1,318.3 L 148.7,327.9 L 148.3,330.6 L 148.2,332.1 L 148.2,333.5 L 148.4,335.3 L 148.7,336.8 L 149.2,338.4 L 149.7,339.9 L 150.6,341.5 L 151.6,342.7 L 152.4,343.7 L 153.4,344.7 L 154.4,345.5 L 157.1,347.5 L 160.6,349.8 L 164.4,352.2 L 168.5,354.6 L 172.3,356.8 L 176.7,359.5 L 183.6,363.5 L 191.9,368.0 L 200.3,372.4 L 207.9,375.9 L 214.9,378.7 L 220.8,380.9 L 225.8,382.8 L 229.6,384.2 L 232.8,385.7 L 236.1,387.2 L 239.3,389.0 L 242.4,390.7 L 245.5,392.4 L 248.3,394.1 L 251.7,396.2 L 255.6,398.6 L 257.6,400.0 L 259.7,401.5 L 264.1,404.5 L 268.5,407.8 L 288.8,423.3 L 296.4,429.1 L 300.5,432.5 L 303.3,435.0 L 306.7,438.2 L 309.4,441.1 L 312.8,444.8 L 316.2,448.1 L 319.7,451.3 L 323.0,453.9 L 325.0,455.3 L 327.1,456.6 L 330.7,458.5 L 354.4,470.9 L 356.8,472.0 L 358.9,472.7 L 361.1,473.2 L 363.3,473.4 L 366.6,473.5 L 369.6,473.2 L 372.4,472.7 L 374.5,472.1 L 376.7,471.4 L 379.0,470.1 L 382.6,467.8 L 402.9,452.5 L 404.1,451.9 L 405.2,451.4 L 406.4,451.1 L 407.8,450.8 L 410.3,450.7 L 413.0,450.9 L 415.9,451.6 L 418.3,452.7 L 424.4,456.3 L 440.8,468.7 L 463.1,485.8 L 465.4,487.5 L 514.7,525.1 L 637.7,618.1 L 644.4,623.2 L 722.6,683.4 L 743.8,699.3 L 753.3,706.5 L 755.4,707.9 L 757.7,709.1 L 758.5,709.5 L 759.3,709.7 L 760.1,709.7 L 760.9,709.7 L 761.8,709.6 L 762.6,709.4 L 763.2,709.1 L 763.9,708.5 L 764.5,708.0 L 765.0,707.5 L 765.5,706.9 L 765.8,706.3 L 766.1,705.5 L 766.4,704.0 L 766.6,702.6 L 766.8,700.7 L 767.0,691.8 L 767.3,673.4 L 767.4,670.3 L 767.7,667.4 L 768.0,666.1 L 768.4,665.0 L 769.4,662.9 L 770.6,660.9 L 772.1,658.7 L 773.4,657.1 L 774.1,656.4 L 774.8,655.7 L 776.8,654.0 L 779.7,651.8 L 782.9,649.7 L 786.4,648.1 L 788.3,647.2 L 790.0,646.5 L 791.8,646.0 L 795.0,645.5 L 798.3,645.2 L 802.1,645.2 L 805.1,645.4 L 807.9,645.9 L 810.5,646.5 L 813.2,647.5 L 815.7,648.6 L 818.0,649.9 L 820.7,651.7 L 823.1,653.7 L 825.6,655.9 L 827.6,658.0 L 830.3,660.8 L 832.7,663.4 L 836.2,666.9 L 840.4,670.6 L 844.9,674.6 L 849.3,678.1 L 853.9,681.4 L 858.2,684.0 L 862.2,686.2 L 866.6,688.3 L 871.6,690.4 L 876.1,692.1 L 880.5,693.4 L 885.3,694.6 L 889.2,695.4 L 893.5,696.2 L 897.3,696.7 L 901.1,697.0 L 905.7,697.2 L 910.7,697.3 L 915.3,697.1 L 920.3,696.8 L 925.1,696.3 L 929.7,695.8 L 934.4,694.9 L 938.7,693.9 L 942.6,693.0 L 946.2,692.0 L 949.8,690.8 L 953.7,689.2 L 957.5,687.6 L 962.4,685.3 L 967.1,682.7 L 970.5,680.7 L 973.6,678.8 Z" fill="none" stroke="#000000" stroke-opacity="0.5" stroke-width="13" stroke-linejoin="round" stroke-linecap="round"/>
<path d="M 973.6,678.8 L 975.9,677.5 L 977.6,676.6 L 979.0,676.0 L 981.0,675.1 L 982.9,674.6 L 984.6,674.2 L 986.1,674.0 L 988.2,673.9 L 989.7,674.0 L 991.2,674.2 L 992.9,674.6 L 994.3,674.9 L 995.7,675.5 L 996.9,676.1 L 998.1,676.7 L 999.4,677.7 L 1000.8,679.0 L 1002.2,680.5 L 1003.5,682.1 L 1004.9,684.1 L 1006.2,686.7 L 1007.3,689.4 L 1008.1,692.0 L 1008.5,694.6 L 1008.8,698.1 L 1008.9,701.3 L 1009.1,705.3 L 1008.2,709.1 L 1007.6,711.7 L 1006.8,714.2 L 1005.9,716.4 L 1004.7,718.5 L 1003.6,720.6 L 1002.3,722.7 L 1000.9,724.8 L 999.3,726.9 L 996.0,731.2 L 975.7,758.6 L 971.8,763.6 L 968.7,768.1 L 966.1,772.6 L 962.8,778.1 L 959.9,783.2 L 957.6,787.7 L 956.3,791.0 L 955.1,794.3 L 954.2,797.6 L 953.7,800.6 L 953.5,802.6 L 953.4,804.2 L 953.5,805.8 L 953.8,807.6 L 954.4,809.5 L 955.5,811.8 L 957.0,814.4 L 958.9,816.9 L 960.7,819.2 L 962.9,821.5 L 966.0,824.3 L 970.1,827.4 L 974.0,829.7 L 977.9,831.6 L 981.7,833.0 L 985.4,833.9 L 990.2,834.6 L 994.4,834.8 L 999.0,834.5 L 1003.1,833.9 L 1007.1,833.0 L 1010.6,831.9 L 1013.2,830.9 L 1015.6,829.7 L 1017.4,828.8 L 1019.6,827.4 L 1021.3,826.1 L 1023.0,824.6 L 1025.3,822.5 L 1027.1,820.8 L 1028.5,819.2 L 1030.1,817.0 L 1031.8,814.6 L 1033.6,811.4 L 1035.0,808.8 L 1036.3,806.3 L 1037.3,803.7 L 1038.0,800.9 L 1038.6,798.0 L 1039.0,795.6 L 1039.3,792.7 L 1039.5,790.3 L 1039.5,787.7 L 1039.5,784.6 L 1040.0,722.0 L 1039.8,693.1 L 1039.7,690.4 L 1039.5,687.0 L 1039.3,684.0 L 1038.9,681.2 L 1038.4,678.1 L 1037.8,674.7 L 1037.0,671.5 L 1036.0,667.8 L 1034.9,664.1 L 1033.8,660.9 L 1032.7,657.7 L 1031.2,654.4 L 1029.8,651.9 L 1028.1,649.4 L 1026.3,647.1 L 1024.4,644.8 L 1022.8,643.0 L 1020.9,640.9 L 1018.9,638.7 L 1016.9,636.7 L 1014.9,634.7 L 1012.7,632.6 L 1010.4,630.6 L 1008.2,628.9 L 1005.8,627.3 L 1003.6,626.1 L 1001.2,624.9 L 998.7,623.7 L 996.0,622.7 L 761.2,534.7 L 644.6,491.3 L 619.1,481.7 L 594.7,472.8 L 513.9,442.5 L 497.1,436.2 L 482.9,430.8 L 418.2,406.7 L 417.2,406.3 L 321.5,370.7 L 301.4,363.2 L 202.7,326.1 L 198.5,324.5 L 194.7,322.8 L 191.6,321.0 L 189.4,319.5 L 187.5,318.0 L 185.7,316.1 L 184.5,314.5 L 183.6,312.7 L 182.4,310.6 L 181.4,308.6 L 180.3,306.1 L 177.4,299.4 L 174.6,292.6 L 171.8,286.0 L 168.1,278.7 L 164.1,272.2 L 160.8,267.7 L 156.8,263.1 L 152.4,258.8 L 148.5,255.4 L 144.1,252.2 L 139.8,249.4 L 136.4,247.5 L 133.2,245.9 L 130.9,244.8 L 128.8,244.1 L 126.9,243.6 L 125.2,243.3 L 123.2,243.2 L 120.1,243.4 L 117.0,243.9 L 114.5,244.7 L 112.1,245.6 L 109.3,247.3 L 107.9,248.3 L 106.1,249.9 L 105.0,251.2 L 103.8,252.9 L 103.1,254.2 L 102.5,255.8 L 101.7,258.1 L 97.1,271.1 L 92.1,285.7 L 91.5,287.3 L 91.0,288.5 L 90.5,290.0 L 90.1,291.2 L 90.0,292.2 L 90.0,292.8 L 90.3,293.7 L 90.6,294.5 L 91.2,295.4 L 91.7,296.0 L 92.5,296.5 L 93.4,297.0 L 94.6,297.3 L 96.2,297.6 L 97.8,297.6 L 99.8,297.4 L 123.8,294.7 L 125.6,294.5 L 127.5,294.5 L 129.2,294.7 L 130.8,294.9 L 132.7,295.1 L 134.4,295.5 L 135.9,296.1 L 137.6,296.7 L 139.2,297.5 L 141.0,298.8 L 142.6,299.9 L 144.2,301.2 L 145.4,302.5 L 146.7,304.0 L 147.9,305.9 L 149.0,308.1 L 149.7,310.2 L 150.2,312.3 L 150.3,314.3 L 150.3,316.4 L 150.1,318.3 L 148.7,327.9 L 148.3,330.6 L 148.2,332.1 L 148.2,333.5 L 148.4,335.3 L 148.7,336.8 L 149.2,338.4 L 149.7,339.9 L 150.6,341.5 L 151.6,342.7 L 152.4,343.7 L 153.4,344.7 L 154.4,345.5 L 157.1,347.5 L 160.6,349.8 L 164.4,352.2 L 168.5,354.6 L 172.3,356.8 L 176.7,359.5 L 183.6,363.5 L 191.9,368.0 L 200.3,372.4 L 207.9,375.9 L 214.9,378.7 L 220.8,380.9 L 225.8,382.8 L 229.6,384.2 L 232.8,385.7 L 236.1,387.2 L 239.3,389.0 L 242.4,390.7 L 245.5,392.4 L 248.3,394.1 L 251.7,396.2 L 255.6,398.6 L 257.6,400.0 L 259.7,401.5 L 264.1,404.5 L 268.5,407.8 L 288.8,423.3 L 296.4,429.1 L 300.5,432.5 L 303.3,435.0 L 306.7,438.2 L 309.4,441.1 L 312.8,444.8 L 316.2,448.1 L 319.7,451.3 L 323.0,453.9 L 325.0,455.3 L 327.1,456.6 L 330.7,458.5 L 354.4,470.9 L 356.8,472.0 L 358.9,472.7 L 361.1,473.2 L 363.3,473.4 L 366.6,473.5 L 369.6,473.2 L 372.4,472.7 L 374.5,472.1 L 376.7,471.4 L 379.0,470.1 L 382.6,467.8 L 402.9,452.5 L 404.1,451.9 L 405.2,451.4 L 406.4,451.1 L 407.8,450.8 L 410.3,450.7 L 413.0,450.9 L 415.9,451.6 L 418.3,452.7 L 424.4,456.3 L 440.8,468.7 L 463.1,485.8 L 465.4,487.5 L 514.7,525.1 L 637.7,618.1 L 644.4,623.2 L 722.6,683.4 L 743.8,699.3 L 753.3,706.5 L 755.4,707.9 L 757.7,709.1 L 758.5,709.5 L 759.3,709.7 L 760.1,709.7 L 760.9,709.7 L 761.8,709.6 L 762.6,709.4 L 763.2,709.1 L 763.9,708.5 L 764.5,708.0 L 765.0,707.5 L 765.5,706.9 L 765.8,706.3 L 766.1,705.5 L 766.4,704.0 L 766.6,702.6 L 766.8,700.7 L 767.0,691.8 L 767.3,673.4 L 767.4,670.3 L 767.7,667.4 L 768.0,666.1 L 768.4,665.0 L 769.4,662.9 L 770.6,660.9 L 772.1,658.7 L 773.4,657.1 L 774.1,656.4 L 774.8,655.7 L 776.8,654.0 L 779.7,651.8 L 782.9,649.7 L 786.4,648.1 L 788.3,647.2 L 790.0,646.5 L 791.8,646.0 L 795.0,645.5 L 798.3,645.2 L 802.1,645.2 L 805.1,645.4 L 807.9,645.9 L 810.5,646.5 L 813.2,647.5 L 815.7,648.6 L 818.0,649.9 L 820.7,651.7 L 823.1,653.7 L 825.6,655.9 L 827.6,658.0 L 830.3,660.8 L 832.7,663.4 L 836.2,666.9 L 840.4,670.6 L 844.9,674.6 L 849.3,678.1 L 853.9,681.4 L 858.2,684.0 L 862.2,686.2 L 866.6,688.3 L 871.6,690.4 L 876.1,692.1 L 880.5,693.4 L 885.3,694.6 L 889.2,695.4 L 893.5,696.2 L 897.3,696.7 L 901.1,697.0 L 905.7,697.2 L 910.7,697.3 L 915.3,697.1 L 920.3,696.8 L 925.1,696.3 L 929.7,695.8 L 934.4,694.9 L 938.7,693.9 L 942.6,693.0 L 946.2,692.0 L 949.8,690.8 L 953.7,689.2 L 957.5,687.6 L 962.4,685.3 L 967.1,682.7 L 970.5,680.7 L 973.6,678.8 Z" fill="none" stroke="#39404f" stroke-width="8.5" stroke-linejoin="round" stroke-linecap="round"/>
<path d="M 973.6,678.8 L 975.9,677.5 L 977.6,676.6 L 979.0,676.0 L 981.0,675.1 L 982.9,674.6 L 984.6,674.2 L 986.1,674.0 L 988.2,673.9 L 989.7,674.0 L 991.2,674.2 L 992.9,674.6 L 994.3,674.9 L 995.7,675.5 L 996.9,676.1 L 998.1,676.7 L 999.4,677.7 L 1000.8,679.0 L 1002.2,680.5 L 1003.5,682.1 L 1004.9,684.1 L 1006.2,686.7 L 1007.3,689.4 L 1008.1,692.0 L 1008.5,694.6 L 1008.8,698.1 L 1008.9,701.3 L 1009.1,705.3 L 1008.2,709.1 L 1007.6,711.7 L 1006.8,714.2 L 1005.9,716.4 L 1004.7,718.5 L 1003.6,720.6 L 1002.3,722.7 L 1000.9,724.8 L 999.3,726.9 L 996.0,731.2 L 975.7,758.6 L 971.8,763.6 L 968.7,768.1 L 966.1,772.6 L 962.8,778.1 L 959.9,783.2 L 957.6,787.7 L 956.3,791.0 L 955.1,794.3 L 954.2,797.6 L 953.7,800.6 L 953.5,802.6 L 953.4,804.2 L 953.5,805.8 L 953.8,807.6 L 954.4,809.5 L 955.5,811.8 L 957.0,814.4 L 958.9,816.9 L 960.7,819.2 L 962.9,821.5 L 966.0,824.3 L 970.1,827.4 L 974.0,829.7 L 977.9,831.6 L 981.7,833.0 L 985.4,833.9 L 990.2,834.6 L 994.4,834.8 L 999.0,834.5 L 1003.1,833.9 L 1007.1,833.0 L 1010.6,831.9 L 1013.2,830.9 L 1015.6,829.7 L 1017.4,828.8 L 1019.6,827.4 L 1021.3,826.1 L 1023.0,824.6 L 1025.3,822.5 L 1027.1,820.8 L 1028.5,819.2 L 1030.1,817.0 L 1031.8,814.6 L 1033.6,811.4 L 1035.0,808.8 L 1036.3,806.3 L 1037.3,803.7 L 1038.0,800.9 L 1038.6,798.0 L 1039.0,795.6 L 1039.3,792.7 L 1039.5,790.3 L 1039.5,787.7 L 1039.5,784.6 L 1040.0,722.0 L 1039.8,693.1 L 1039.7,690.4 L 1039.5,687.0 L 1039.3,684.0 L 1038.9,681.2 L 1038.4,678.1 L 1037.8,674.7 L 1037.0,671.5 L 1036.0,667.8 L 1034.9,664.1 L 1033.8,660.9 L 1032.7,657.7 L 1031.2,654.4 L 1029.8,651.9 L 1028.1,649.4 L 1026.3,647.1 L 1024.4,644.8 L 1022.8,643.0 L 1020.9,640.9 L 1018.9,638.7 L 1016.9,636.7 L 1014.9,634.7 L 1012.7,632.6 L 1010.4,630.6 L 1008.2,628.9 L 1005.8,627.3 L 1003.6,626.1 L 1001.2,624.9 L 998.7,623.7 L 996.0,622.7 L 761.2,534.7 L 644.6,491.3 L 619.1,481.7 L 594.7,472.8 L 513.9,442.5 L 497.1,436.2 L 482.9,430.8 L 418.2,406.7 L 417.2,406.3 L 321.5,370.7 L 301.4,363.2 L 202.7,326.1 L 198.5,324.5 L 194.7,322.8 L 191.6,321.0 L 189.4,319.5 L 187.5,318.0 L 185.7,316.1 L 184.5,314.5 L 183.6,312.7 L 182.4,310.6 L 181.4,308.6 L 180.3,306.1 L 177.4,299.4 L 174.6,292.6 L 171.8,286.0 L 168.1,278.7 L 164.1,272.2 L 160.8,267.7 L 156.8,263.1 L 152.4,258.8 L 148.5,255.4 L 144.1,252.2 L 139.8,249.4 L 136.4,247.5 L 133.2,245.9 L 130.9,244.8 L 128.8,244.1 L 126.9,243.6 L 125.2,243.3 L 123.2,243.2 L 120.1,243.4 L 117.0,243.9 L 114.5,244.7 L 112.1,245.6 L 109.3,247.3 L 107.9,248.3 L 106.1,249.9 L 105.0,251.2 L 103.8,252.9 L 103.1,254.2 L 102.5,255.8 L 101.7,258.1 L 97.1,271.1 L 92.1,285.7 L 91.5,287.3 L 91.0,288.5 L 90.5,290.0 L 90.1,291.2 L 90.0,292.2 L 90.0,292.8 L 90.3,293.7 L 90.6,294.5 L 91.2,295.4 L 91.7,296.0 L 92.5,296.5 L 93.4,297.0 L 94.6,297.3 L 96.2,297.6 L 97.8,297.6 L 99.8,297.4 L 123.8,294.7 L 125.6,294.5 L 127.5,294.5 L 129.2,294.7 L 130.8,294.9 L 132.7,295.1 L 134.4,295.5 L 135.9,296.1 L 137.6,296.7 L 139.2,297.5 L 141.0,298.8 L 142.6,299.9 L 144.2,301.2 L 145.4,302.5 L 146.7,304.0 L 147.9,305.9 L 149.0,308.1 L 149.7,310.2 L 150.2,312.3 L 150.3,314.3 L 150.3,316.4 L 150.1,318.3 L 148.7,327.9 L 148.3,330.6 L 148.2,332.1 L 148.2,333.5 L 148.4,335.3 L 148.7,336.8 L 149.2,338.4 L 149.7,339.9 L 150.6,341.5 L 151.6,342.7 L 152.4,343.7 L 153.4,344.7 L 154.4,345.5 L 157.1,347.5 L 160.6,349.8 L 164.4,352.2 L 168.5,354.6 L 172.3,356.8 L 176.7,359.5 L 183.6,363.5 L 191.9,368.0 L 200.3,372.4 L 207.9,375.9 L 214.9,378.7 L 220.8,380.9 L 225.8,382.8 L 229.6,384.2 L 232.8,385.7 L 236.1,387.2 L 239.3,389.0 L 242.4,390.7 L 245.5,392.4 L 248.3,394.1 L 251.7,396.2 L 255.6,398.6 L 257.6,400.0 L 259.7,401.5 L 264.1,404.5 L 268.5,407.8 L 288.8,423.3 L 296.4,429.1 L 300.5,432.5 L 303.3,435.0 L 306.7,438.2 L 309.4,441.1 L 312.8,444.8 L 316.2,448.1 L 319.7,451.3 L 323.0,453.9 L 325.0,455.3 L 327.1,456.6 L 330.7,458.5 L 354.4,470.9 L 356.8,472.0 L 358.9,472.7 L 361.1,473.2 L 363.3,473.4 L 366.6,473.5 L 369.6,473.2 L 372.4,472.7 L 374.5,472.1 L 376.7,471.4 L 379.0,470.1 L 382.6,467.8 L 402.9,452.5 L 404.1,451.9 L 405.2,451.4 L 406.4,451.1 L 407.8,450.8 L 410.3,450.7 L 413.0,450.9 L 415.9,451.6 L 418.3,452.7 L 424.4,456.3 L 440.8,468.7 L 463.1,485.8 L 465.4,487.5 L 514.7,525.1 L 637.7,618.1 L 644.4,623.2 L 722.6,683.4 L 743.8,699.3 L 753.3,706.5 L 755.4,707.9 L 757.7,709.1 L 758.5,709.5 L 759.3,709.7 L 760.1,709.7 L 760.9,709.7 L 761.8,709.6 L 762.6,709.4 L 763.2,709.1 L 763.9,708.5 L 764.5,708.0 L 765.0,707.5 L 765.5,706.9 L 765.8,706.3 L 766.1,705.5 L 766.4,704.0 L 766.6,702.6 L 766.8,700.7 L 767.0,691.8 L 767.3,673.4 L 767.4,670.3 L 767.7,667.4 L 768.0,666.1 L 768.4,665.0 L 769.4,662.9 L 770.6,660.9 L 772.1,658.7 L 773.4,657.1 L 774.1,656.4 L 774.8,655.7 L 776.8,654.0 L 779.7,651.8 L 782.9,649.7 L 786.4,648.1 L 788.3,647.2 L 790.0,646.5 L 791.8,646.0 L 795.0,645.5 L 798.3,645.2 L 802.1,645.2 L 805.1,645.4 L 807.9,645.9 L 810.5,646.5 L 813.2,647.5 L 815.7,648.6 L 818.0,649.9 L 820.7,651.7 L 823.1,653.7 L 825.6,655.9 L 827.6,658.0 L 830.3,660.8 L 832.7,663.4 L 836.2,666.9 L 840.4,670.6 L 844.9,674.6 L 849.3,678.1 L 853.9,681.4 L 858.2,684.0 L 862.2,686.2 L 866.6,688.3 L 871.6,690.4 L 876.1,692.1 L 880.5,693.4 L 885.3,694.6 L 889.2,695.4 L 893.5,696.2 L 897.3,696.7 L 901.1,697.0 L 905.7,697.2 L 910.7,697.3 L 915.3,697.1 L 920.3,696.8 L 925.1,696.3 L 929.7,695.8 L 934.4,694.9 L 938.7,693.9 L 942.6,693.0 L 946.2,692.0 L 949.8,690.8 L 953.7,689.2 L 957.5,687.6 L 962.4,685.3 L 967.1,682.7 L 970.5,680.7 L 973.6,678.8 Z" fill="none" stroke="#e7edf8" stroke-width="2.6" stroke-linejoin="round" stroke-linecap="round"/>
<path d="M 973.6,678.8 L 975.9,677.5 L 977.6,676.6 L 979.0,676.0 L 981.0,675.1 L 982.9,674.6 L 984.6,674.2 L 986.1,674.0 L 988.2,673.9 L 989.7,674.0 L 991.2,674.2 L 992.9,674.6 L 994.3,674.9 L 995.7,675.5 L 996.9,676.1 L 998.1,676.7 L 999.4,677.7 L 1000.8,679.0 L 1002.2,680.5 L 1003.5,682.1 L 1004.9,684.1 L 1006.2,686.7 L 1007.3,689.4 L 1008.1,692.0 L 1008.5,694.6 L 1008.8,698.1 L 1008.9,701.3 L 1009.1,705.3 L 1008.2,709.1 L 1007.6,711.7 L 1006.8,714.2 L 1005.9,716.4 L 1004.7,718.5 L 1003.6,720.6 L 1002.3,722.7 L 1000.9,724.8 L 999.3,726.9 L 996.0,731.2 L 975.7,758.6 L 971.8,763.6 L 968.7,768.1 L 966.1,772.6 L 962.8,778.1 L 959.9,783.2 L 957.6,787.7 L 956.3,791.0 L 955.1,794.3 L 954.2,797.6 L 953.7,800.6 L 953.5,802.6 L 953.4,804.2 L 953.5,805.8 L 953.8,807.6 L 954.4,809.5 L 955.5,811.8 L 957.0,814.4 L 958.9,816.9 L 960.7,819.2 L 962.9,821.5 L 966.0,824.3 L 970.1,827.4 L 974.0,829.7 L 977.9,831.6 L 981.7,833.0 L 985.4,833.9 L 990.2,834.6 L 994.4,834.8 L 999.0,834.5 L 1003.1,833.9 L 1007.1,833.0 L 1010.6,831.9 L 1013.2,830.9 L 1015.6,829.7 L 1017.4,828.8 L 1019.6,827.4 L 1021.3,826.1 L 1023.0,824.6 L 1025.3,822.5 L 1027.1,820.8 L 1028.5,819.2 L 1030.1,817.0 L 1031.8,814.6 L 1033.6,811.4 L 1035.0,808.8 L 1036.3,806.3 L 1037.3,803.7 L 1038.0,800.9 L 1038.6,798.0 L 1039.0,795.6 L 1039.3,792.7 L 1039.5,790.3 L 1039.5,787.7 L 1039.5,784.6 L 1040.0,722.0 L 1039.8,693.1 L 1039.7,690.4 L 1039.5,687.0 L 1039.3,684.0 L 1038.9,681.2 L 1038.4,678.1 L 1037.8,674.7 L 1037.0,671.5 L 1036.0,667.8 L 1034.9,664.1 L 1033.8,660.9 L 1032.7,657.7 L 1031.2,654.4 L 1029.8,651.9 L 1028.1,649.4 L 1026.3,647.1 L 1024.4,644.8 L 1022.8,643.0 L 1020.9,640.9 L 1018.9,638.7 L 1016.9,636.7 L 1014.9,634.7 L 1012.7,632.6 L 1010.4,630.6 L 1008.2,628.9 L 1005.8,627.3 L 1003.6,626.1 L 1001.2,624.9 L 998.7,623.7 L 996.0,622.7 L 761.2,534.7 L 644.6,491.3 L 619.1,481.7 L 594.7,472.8 L 513.9,442.5 L 497.1,436.2 L 482.9,430.8 L 418.2,406.7 L 417.2,406.3 L 321.5,370.7 L 301.4,363.2 L 202.7,326.1 L 198.5,324.5 L 194.7,322.8 L 191.6,321.0 L 189.4,319.5 L 187.5,318.0 L 185.7,316.1 L 184.5,314.5 L 183.6,312.7 L 182.4,310.6 L 181.4,308.6 L 180.3,306.1 L 177.4,299.4 L 174.6,292.6 L 171.8,286.0 L 168.1,278.7 L 164.1,272.2 L 160.8,267.7 L 156.8,263.1 L 152.4,258.8 L 148.5,255.4 L 144.1,252.2 L 139.8,249.4 L 136.4,247.5 L 133.2,245.9 L 130.9,244.8 L 128.8,244.1 L 126.9,243.6 L 125.2,243.3 L 123.2,243.2 L 120.1,243.4 L 117.0,243.9 L 114.5,244.7 L 112.1,245.6 L 109.3,247.3 L 107.9,248.3 L 106.1,249.9 L 105.0,251.2 L 103.8,252.9 L 103.1,254.2 L 102.5,255.8 L 101.7,258.1 L 97.1,271.1 L 92.1,285.7 L 91.5,287.3 L 91.0,288.5 L 90.5,290.0 L 90.1,291.2 L 90.0,292.2 L 90.0,292.8 L 90.3,293.7 L 90.6,294.5 L 91.2,295.4 L 91.7,296.0 L 92.5,296.5 L 93.4,297.0 L 94.6,297.3 L 96.2,297.6 L 97.8,297.6 L 99.8,297.4 L 123.8,294.7 L 125.6,294.5 L 127.5,294.5 L 129.2,294.7 L 130.8,294.9 L 132.7,295.1 L 134.4,295.5 L 135.9,296.1 L 137.6,296.7 L 139.2,297.5 L 141.0,298.8 L 142.6,299.9 L 144.2,301.2 L 145.4,302.5 L 146.7,304.0 L 147.9,305.9 L 149.0,308.1 L 149.7,310.2 L 150.2,312.3 L 150.3,314.3 L 150.3,316.4 L 150.1,318.3 L 148.7,327.9 L 148.3,330.6 L 148.2,332.1 L 148.2,333.5 L 148.4,335.3 L 148.7,336.8 L 149.2,338.4 L 149.7,339.9 L 150.6,341.5 L 151.6,342.7 L 152.4,343.7 L 153.4,344.7 L 154.4,345.5 L 157.1,347.5 L 160.6,349.8 L 164.4,352.2 L 168.5,354.6 L 172.3,356.8 L 176.7,359.5 L 183.6,363.5 L 191.9,368.0 L 200.3,372.4 L 207.9,375.9 L 214.9,378.7 L 220.8,380.9 L 225.8,382.8 L 229.6,384.2 L 232.8,385.7 L 236.1,387.2 L 239.3,389.0 L 242.4,390.7 L 245.5,392.4 L 248.3,394.1 L 251.7,396.2 L 255.6,398.6 L 257.6,400.0 L 259.7,401.5 L 264.1,404.5 L 268.5,407.8 L 288.8,423.3 L 296.4,429.1 L 300.5,432.5 L 303.3,435.0 L 306.7,438.2 L 309.4,441.1 L 312.8,444.8 L 316.2,448.1 L 319.7,451.3 L 323.0,453.9 L 325.0,455.3 L 327.1,456.6 L 330.7,458.5 L 354.4,470.9 L 356.8,472.0 L 358.9,472.7 L 361.1,473.2 L 363.3,473.4 L 366.6,473.5 L 369.6,473.2 L 372.4,472.7 L 374.5,472.1 L 376.7,471.4 L 379.0,470.1 L 382.6,467.8 L 402.9,452.5 L 404.1,451.9 L 405.2,451.4 L 406.4,451.1 L 407.8,450.8 L 410.3,450.7 L 413.0,450.9 L 415.9,451.6 L 418.3,452.7 L 424.4,456.3 L 440.8,468.7 L 463.1,485.8 L 465.4,487.5 L 514.7,525.1 L 637.7,618.1 L 644.4,623.2 L 722.6,683.4 L 743.8,699.3 L 753.3,706.5 L 755.4,707.9 L 757.7,709.1 L 758.5,709.5 L 759.3,709.7 L 760.1,709.7 L 760.9,709.7 L 761.8,709.6 L 762.6,709.4 L 763.2,709.1 L 763.9,708.5 L 764.5,708.0 L 765.0,707.5 L 765.5,706.9 L 765.8,706.3 L 766.1,705.5 L 766.4,704.0 L 766.6,702.6 L 766.8,700.7 L 767.0,691.8 L 767.3,673.4 L 767.4,670.3 L 767.7,667.4 L 768.0,666.1 L 768.4,665.0 L 769.4,662.9 L 770.6,660.9 L 772.1,658.7 L 773.4,657.1 L 774.1,656.4 L 774.8,655.7 L 776.8,654.0 L 779.7,651.8 L 782.9,649.7 L 786.4,648.1 L 788.3,647.2 L 790.0,646.5 L 791.8,646.0 L 795.0,645.5 L 798.3,645.2 L 802.1,645.2 L 805.1,645.4 L 807.9,645.9 L 810.5,646.5 L 813.2,647.5 L 815.7,648.6 L 818.0,649.9 L 820.7,651.7 L 823.1,653.7 L 825.6,655.9 L 827.6,658.0 L 830.3,660.8 L 832.7,663.4 L 836.2,666.9 L 840.4,670.6 L 844.9,674.6 L 849.3,678.1 L 853.9,681.4 L 858.2,684.0 L 862.2,686.2 L 866.6,688.3 L 871.6,690.4 L 876.1,692.1 L 880.5,693.4 L 885.3,694.6 L 889.2,695.4 L 893.5,696.2 L 897.3,696.7 L 901.1,697.0 L 905.7,697.2 L 910.7,697.3 L 915.3,697.1 L 920.3,696.8 L 925.1,696.3 L 929.7,695.8 L 934.4,694.9 L 938.7,693.9 L 942.6,693.0 L 946.2,692.0 L 949.8,690.8 L 953.7,689.2 L 957.5,687.6 L 962.4,685.3 L 967.1,682.7 L 970.5,680.7 L 973.6,678.8 Z" fill="none" stroke="#ff5a36" stroke-opacity="0.55" stroke-width="1.2" stroke-linejoin="round" filter="url(#glow)"/>
<circle cx="619.0" cy="604.0" r="13" fill="none" stroke="#ffffff" stroke-width="3"/>
<rect x="615.0" y="582.0" width="8" height="18" fill="#ffffff"/>
<circle cx="363.7" cy="440.4" r="7" fill="#ff5a36" stroke="#0a0c12" stroke-width="2.5" filter="url(#glow)"/>
<text x="363.7" y="443.8" font-size="9" font-weight="700" fill="#0a0c12" text-anchor="middle">1</text>
<circle cx="363.7" cy="440.4" r="7" fill="#ff5a36" stroke="#0a0c12" stroke-width="2.5" filter="url(#glow)"/>
<text x="363.7" y="443.8" font-size="9" font-weight="700" fill="#0a0c12" text-anchor="middle">2</text>
<circle cx="145.2" cy="318.1" r="7" fill="#ff5a36" stroke="#0a0c12" stroke-width="2.5" filter="url(#glow)"/>
<text x="145.2" y="321.5" font-size="9" font-weight="700" fill="#0a0c12" text-anchor="middle">3</text>
<circle cx="132.0" cy="295.0" r="7" fill="#ff5a36" stroke="#0a0c12" stroke-width="2.5" filter="url(#glow)"/>
<text x="132.0" y="298.4" font-size="9" font-weight="700" fill="#0a0c12" text-anchor="middle">4</text>
<circle cx="94.4" cy="292.5" r="7" fill="#ff5a36" stroke="#0a0c12" stroke-width="2.5" filter="url(#glow)"/>
<text x="94.4" y="295.9" font-size="9" font-weight="700" fill="#0a0c12" text-anchor="middle">5</text>
<circle cx="97.4" cy="270.3" r="7" fill="#ff5a36" stroke="#0a0c12" stroke-width="2.5" filter="url(#glow)"/>
<text x="97.4" y="273.7" font-size="9" font-weight="700" fill="#0a0c12" text-anchor="middle">6</text>
<circle cx="123.4" cy="251.0" r="7" fill="#ff5a36" stroke="#0a0c12" stroke-width="2.5" filter="url(#glow)"/>
<text x="123.4" y="254.4" font-size="9" font-weight="700" fill="#0a0c12" text-anchor="middle">7</text>
<circle cx="1008.7" cy="629.3" r="7" fill="#ff5a36" stroke="#0a0c12" stroke-width="2.5" filter="url(#glow)"/>
<text x="1008.7" y="632.7" font-size="9" font-weight="700" fill="#0a0c12" text-anchor="middle">8</text>
<circle cx="994.8" cy="811.5" r="7" fill="#ff5a36" stroke="#0a0c12" stroke-width="2.5" filter="url(#glow)"/>
<text x="994.8" y="814.9" font-size="9" font-weight="700" fill="#0a0c12" text-anchor="middle">9</text>
<circle cx="994.9" cy="681.3" r="7" fill="#ff5a36" stroke="#0a0c12" stroke-width="2.5" filter="url(#glow)"/>
<text x="994.9" y="684.7" font-size="9" font-weight="700" fill="#0a0c12" text-anchor="middle">10</text>
<circle cx="900.5" cy="696.9" r="7" fill="#ff5a36" stroke="#0a0c12" stroke-width="2.5" filter="url(#glow)"/>
<text x="900.5" y="700.3" font-size="9" font-weight="700" fill="#0a0c12" text-anchor="middle">11</text>
<circle cx="795.8" cy="645.4" r="7" fill="#ff5a36" stroke="#0a0c12" stroke-width="2.5" filter="url(#glow)"/>
<text x="795.8" y="648.8" font-size="9" font-weight="700" fill="#0a0c12" text-anchor="middle">12</text>
<circle cx="761.6" cy="706.2" r="7" fill="#ff5a36" stroke="#0a0c12" stroke-width="2.5" filter="url(#glow)"/>
<text x="761.6" y="709.6" font-size="9" font-weight="700" fill="#0a0c12" text-anchor="middle">13</text>
<line x1="363.7" y1="440.4" x2="316.1" y2="419.4" stroke="#ff5a36" stroke-opacity="0.45" stroke-width="1.3"/>
<text x="308.1" y="423.4" font-size="15" font-weight="600" fill="#eef2fb" text-anchor="end">Virage de la Verrerie</text>
<line x1="363.7" y1="440.4" x2="316.1" y2="451.4" stroke="#ff5a36" stroke-opacity="0.45" stroke-width="1.3"/>
<text x="308.1" y="455.4" font-size="15" font-weight="600" fill="#eef2fb" text-anchor="end">Virage de la Verrerie</text>
<line x1="145.2" y1="318.1" x2="98.6" y2="351.8" stroke="#ff5a36" stroke-opacity="0.45" stroke-width="1.3"/>
<text x="90.6" y="355.8" font-size="15" font-weight="600" fill="#eef2fb" text-anchor="end">Virage de l'Hotel</text>
<line x1="132.0" y1="295.0" x2="86.1" y2="319.8" stroke="#ff5a36" stroke-opacity="0.45" stroke-width="1.3"/>
<text x="78.1" y="323.8" font-size="15" font-weight="600" fill="#eef2fb" text-anchor="end">Saint Baume</text>
<line x1="94.4" y1="292.5" x2="47.9" y2="287.8" stroke="#ff5a36" stroke-opacity="0.45" stroke-width="1.3"/>
<text x="39.9" y="291.8" font-size="15" font-weight="600" fill="#eef2fb" text-anchor="end">Virage du Camp</text>
<line x1="97.4" y1="270.3" x2="51.7" y2="255.8" stroke="#ff5a36" stroke-opacity="0.45" stroke-width="1.3"/>
<text x="43.7" y="259.8" font-size="15" font-weight="600" fill="#eef2fb" text-anchor="end">Virage du Camp</text>
<line x1="123.4" y1="251.0" x2="79.0" y2="223.8" stroke="#ff5a36" stroke-opacity="0.45" stroke-width="1.3"/>
<text x="71.0" y="227.8" font-size="15" font-weight="600" fill="#eef2fb" text-anchor="end">Sainte-Baume</text>
<line x1="1008.7" y1="629.3" x2="1059.7" y2="639.5" stroke="#ff5a36" stroke-opacity="0.45" stroke-width="1.3"/>
<text x="1067.7" y="643.5" font-size="15" font-weight="600" fill="#eef2fb" text-anchor="start">Signes</text>
<line x1="994.8" y1="811.5" x2="1037.8" y2="840.9" stroke="#ff5a36" stroke-opacity="0.45" stroke-width="1.3"/>
<text x="1045.8" y="844.9" font-size="15" font-weight="600" fill="#eef2fb" text-anchor="start">Beausset</text>
<line x1="994.9" y1="681.3" x2="1044.0" y2="703.5" stroke="#ff5a36" stroke-opacity="0.45" stroke-width="1.3"/>
<text x="1052.0" y="707.5" font-size="15" font-weight="600" fill="#eef2fb" text-anchor="start">Bendor</text>
<line x1="900.5" y1="696.9" x2="946.8" y2="735.5" stroke="#ff5a36" stroke-opacity="0.45" stroke-width="1.3"/>
<text x="954.8" y="739.5" font-size="15" font-weight="600" fill="#eef2fb" text-anchor="start">Garbalan</text>
<line x1="795.8" y1="645.4" x2="841.9" y2="671.5" stroke="#ff5a36" stroke-opacity="0.45" stroke-width="1.3"/>
<text x="849.9" y="675.5" font-size="15" font-weight="600" fill="#eef2fb" text-anchor="start">La Tour</text>
<line x1="761.6" y1="706.2" x2="797.6" y2="767.5" stroke="#ff5a36" stroke-opacity="0.45" stroke-width="1.3"/>
<text x="805.6" y="771.5" font-size="15" font-weight="600" fill="#eef2fb" text-anchor="start">Pont</text>
<text x="90" y="64" font-size="20" letter-spacing="5" fill="#ff5a36" font-weight="700">TRACK ATLAS</text>
<text x="90" y="108" font-size="42" font-weight="800" fill="#ffffff">CIRCUIT PAUL RICARD</text>
<text x="90" y="136" font-size="16" fill="#9aa6bd">Le Castellet</text>
<rect x="1170" y="200" width="360" height="710" rx="16" fill="#ffffff" fill-opacity="0.04" stroke="#ff5a36" stroke-opacity="0.5"/>
<text x="1198" y="250" font-size="13" letter-spacing="2" fill="#8794ab">LAYOUT</text>
<text x="1198" y="276" font-size="22" font-weight="700" fill="#eef2fb">Grand Prix Circuit</text>
<text x="1198" y="320" font-size="13" letter-spacing="2" fill="#8794ab">LENGTH</text>
<text x="1198" y="346" font-size="22" font-weight="700" fill="#eef2fb">5.770 km</text>
<text x="1198" y="390" font-size="13" letter-spacing="2" fill="#8794ab">CORNERS</text>
<text x="1198" y="416" font-size="22" font-weight="700" fill="#eef2fb">13</text>
<text x="1198" y="460" font-size="13" letter-spacing="2" fill="#8794ab">NAMED CORNERS</text>
<text x="1198" y="486" font-size="22" font-weight="700" fill="#eef2fb">13</text>
<text x="1198" y="530" font-size="13" letter-spacing="2" fill="#8794ab">DIRECTION</text>
<text x="1198" y="556" font-size="22" font-weight="700" fill="#eef2fb">Clockwise</text>
<text x="1198" y="600" font-size="13" letter-spacing="2" fill="#8794ab">SECTORS</text>
<text x="1198" y="626" font-size="22" font-weight="700" fill="#eef2fb">3</text>
<text x="1198" y="670" font-size="13" letter-spacing="2" fill="#8794ab">COUNTRY</text>
<text x="1198" y="696" font-size="22" font-weight="700" fill="#eef2fb">France</text>
<text x="1198" y="740" font-size="13" letter-spacing="2" fill="#8794ab">LOCATION</text>
<text x="1198" y="766" font-size="22" font-weight="700" fill="#eef2fb">Le Castellet</text>
<text x="90" y="966" font-size="12" fill="#566177">Geometry © OpenStreetMap contributors (ODbL) · corner data: Lovely-Sim-Racing + curated · track-atlas</text>
<text x="90" y="942" font-size="12" fill="#8794ab">⚑ start / finish</text>
</svg>