<svg xmlns="http://www.w3.org/2000/svg" width="1600" height="1000" viewBox="0 0 1600 1000" font-family="Helvetica, Arial, sans-serif">
<defs>
      <radialGradient id="bg" cx="38%" cy="34%" r="85%">
        <stop offset="0%" stop-color="#1b2030"/>
        <stop offset="55%" stop-color="#12151f"/>
        <stop offset="100%" stop-color="#0a0c12"/>
      </radialGradient>
      <linearGradient id="accent" x1="0" y1="0" x2="1" y2="1">
        <stop offset="0%" stop-color="#ff5a36"/>
        <stop offset="100%" stop-color="#ffffff"/>
      </linearGradient>
      <filter id="glow" x="-40%" y="-40%" width="180%" height="180%">
        <feGaussianBlur stdDeviation="6" result="b"/>
        <feMerge><feMergeNode in="b"/><feMergeNode in="SourceGraphic"/></feMerge>
      </filter>
    </defs>
<rect width="1600" height="1000" fill="url(#bg)"/>
<line x1="0" y1="0" x2="0" y2="1000" stroke="#ffffff" stroke-opacity="0.025"/>
<line x1="56" y1="0" x2="56" y2="1000" stroke="#ffffff" stroke-opacity="0.025"/>
<line x1="112" y1="0" x2="112" y2="1000" stroke="#ffffff" stroke-opacity="0.025"/>
<line x1="168" y1="0" x2="168" y2="1000" stroke="#ffffff" stroke-opacity="0.025"/>
<line x1="224" y1="0" x2="224" y2="1000" stroke="#ffffff" stroke-opacity="0.025"/>
<line x1="280" y1="0" x2="280" y2="1000" stroke="#ffffff" stroke-opacity="0.025"/>
<line x1="336" y1="0" x2="336" y2="1000" stroke="#ffffff" stroke-opacity="0.025"/>
<line x1="392" y1="0" x2="392" y2="1000" stroke="#ffffff" stroke-opacity="0.025"/>
<line x1="448" y1="0" x2="448" y2="1000" stroke="#ffffff" stroke-opacity="0.025"/>
<line x1="504" y1="0" x2="504" y2="1000" stroke="#ffffff" stroke-opacity="0.025"/>
<line x1="560" y1="0" x2="560" y2="1000" stroke="#ffffff" stroke-opacity="0.025"/>
<line x1="616" y1="0" x2="616" y2="1000" stroke="#ffffff" stroke-opacity="0.025"/>
<line x1="672" y1="0" x2="672" y2="1000" stroke="#ffffff" stroke-opacity="0.025"/>
<line x1="728" y1="0" x2="728" y2="1000" stroke="#ffffff" stroke-opacity="0.025"/>
<line x1="784" y1="0" x2="784" y2="1000" stroke="#ffffff" stroke-opacity="0.025"/>
<line x1="840" y1="0" x2="840" y2="1000" stroke="#ffffff" stroke-opacity="0.025"/>
<line x1="896" y1="0" x2="896" y2="1000" stroke="#ffffff" stroke-opacity="0.025"/>
<line x1="952" y1="0" x2="952" y2="1000" stroke="#ffffff" stroke-opacity="0.025"/>
<line x1="1008" y1="0" x2="1008" y2="1000" stroke="#ffffff" stroke-opacity="0.025"/>
<line x1="1064" y1="0" x2="1064" y2="1000" stroke="#ffffff" stroke-opacity="0.025"/>
<line x1="1120" y1="0" x2="1120" y2="1000" stroke="#ffffff" stroke-opacity="0.025"/>
<line x1="1176" y1="0" x2="1176" y2="1000" stroke="#ffffff" stroke-opacity="0.025"/>
<line x1="1232" y1="0" x2="1232" y2="1000" stroke="#ffffff" stroke-opacity="0.025"/>
<line x1="1288" y1="0" x2="1288" y2="1000" stroke="#ffffff" stroke-opacity="0.025"/>
<line x1="1344" y1="0" x2="1344" y2="1000" stroke="#ffffff" stroke-opacity="0.025"/>
<line x1="1400" y1="0" x2="1400" y2="1000" stroke="#ffffff" stroke-opacity="0.025"/>
<line x1="1456" y1="0" x2="1456" y2="1000" stroke="#ffffff" stroke-opacity="0.025"/>
<line x1="1512" y1="0" x2="1512" y2="1000" stroke="#ffffff" stroke-opacity="0.025"/>
<line x1="1568" y1="0" x2="1568" y2="1000" stroke="#ffffff" stroke-opacity="0.025"/>
<line x1="0" y1="0" x2="1600" y2="0" stroke="#ffffff" stroke-opacity="0.025"/>
<line x1="0" y1="56" x2="1600" y2="56" stroke="#ffffff" stroke-opacity="0.025"/>
<line x1="0" y1="112" x2="1600" y2="112" stroke="#ffffff" stroke-opacity="0.025"/>
<line x1="0" y1="168" x2="1600" y2="168" stroke="#ffffff" stroke-opacity="0.025"/>
<line x1="0" y1="224" x2="1600" y2="224" stroke="#ffffff" stroke-opacity="0.025"/>
<line x1="0" y1="280" x2="1600" y2="280" stroke="#ffffff" stroke-opacity="0.025"/>
<line x1="0" y1="336" x2="1600" y2="336" stroke="#ffffff" stroke-opacity="0.025"/>
<line x1="0" y1="392" x2="1600" y2="392" stroke="#ffffff" stroke-opacity="0.025"/>
<line x1="0" y1="448" x2="1600" y2="448" stroke="#ffffff" stroke-opacity="0.025"/>
<line x1="0" y1="504" x2="1600" y2="504" stroke="#ffffff" stroke-opacity="0.025"/>
<line x1="0" y1="560" x2="1600" y2="560" stroke="#ffffff" stroke-opacity="0.025"/>
<line x1="0" y1="616" x2="1600" y2="616" stroke="#ffffff" stroke-opacity="0.025"/>
<line x1="0" y1="672" x2="1600" y2="672" stroke="#ffffff" stroke-opacity="0.025"/>
<line x1="0" y1="728" x2="1600" y2="728" stroke="#ffffff" stroke-opacity="0.025"/>
<line x1="0" y1="784" x2="1600" y2="784" stroke="#ffffff" stroke-opacity="0.025"/>
<line x1="0" y1="840" x2="1600" y2="840" stroke="#ffffff" stroke-opacity="0.025"/>
<line x1="0" y1="896" x2="1600" y2="896" stroke="#ffffff" stroke-opacity="0.025"/>
<line x1="0" y1="952" x2="1600" y2="952" stroke="#ffffff" stroke-opacity="0.025"/>
<path d="M 376.9,596.7 L 376.7,586.8 L 376.5,562.6 L 375.4,451.5 L 374.1,333.9 L 373.0,232.2 L 374.5,226.8 L 376.6,224.3 L 380.0,222.9 L 389.1,222.3 L 398.5,222.3 L 406.0,222.2 L 409.9,222.1 L 411.9,221.9 L 415.2,221.3 L 417.7,220.5 L 420.7,219.2 L 423.6,217.4 L 426.2,215.2 L 428.2,213.2 L 430.2,211.0 L 431.7,208.3 L 432.6,206.5 L 433.3,204.5 L 433.7,203.0 L 433.9,201.0 L 434.1,197.9 L 434.0,192.3 L 432.2,171.1 L 432.1,168.0 L 432.2,164.9 L 432.3,161.2 L 432.8,157.9 L 433.5,154.2 L 434.2,151.3 L 435.5,147.0 L 437.1,142.5 L 438.3,139.3 L 439.7,136.3 L 441.1,133.8 L 442.7,130.8 L 444.8,127.8 L 447.0,124.9 L 449.7,121.7 L 452.3,119.1 L 455.4,116.1 L 459.7,112.5 L 463.1,110.1 L 466.7,107.9 L 474.0,104.3 L 491.2,96.2 L 501.2,91.7 L 502.0,91.3 L 502.7,91.1 L 504.5,90.6 L 506.2,90.3 L 507.9,90.1 L 509.7,90.0 L 511.2,90.1 L 512.9,90.4 L 514.5,90.8 L 515.9,91.2 L 517.1,91.7 L 518.6,92.4 L 519.8,93.2 L 523.6,95.7 L 527.2,98.4 L 530.9,102.2 L 533.3,105.3 L 535.4,108.5 L 536.7,110.8 L 537.6,113.1 L 538.6,115.6 L 539.5,119.0 L 540.0,122.7 L 540.3,127.3 L 540.4,138.3 L 540.5,152.1 L 540.9,181.0 L 541.4,187.9 L 542.1,191.2 L 543.2,194.7 L 544.7,198.2 L 547.3,201.1 L 549.4,202.8 L 552.9,204.8 L 556.3,206.5 L 558.7,208.5 L 560.3,211.0 L 561.2,214.1 L 561.5,217.6 L 561.8,236.3 L 563.0,321.7 L 563.1,328.5 L 563.4,347.6 L 565.2,502.1 L 566.5,618.7 L 566.2,642.0 L 566.9,648.4 L 567.8,651.0 L 569.4,652.9 L 570.4,654.1 L 572.7,655.4 L 577.8,655.9 L 617.1,654.3 L 634.0,653.7 L 640.3,654.6 L 646.6,657.0 L 651.4,659.9 L 656.1,664.4 L 658.4,667.7 L 660.1,671.5 L 661.4,675.5 L 662.7,680.1 L 665.9,687.0 L 668.2,690.1 L 671.2,692.7 L 677.4,696.2 L 681.2,697.4 L 684.9,698.0 L 693.5,698.2 L 712.3,696.9 L 731.0,695.6 L 735.0,695.5 L 738.2,696.1 L 740.5,696.9 L 742.6,698.1 L 744.1,699.3 L 745.5,700.6 L 747.0,702.4 L 748.5,704.9 L 749.6,707.3 L 750.7,709.8 L 751.9,713.0 L 753.0,716.4 L 754.6,722.4 L 756.0,728.9 L 756.5,732.6 L 756.8,736.9 L 757.0,742.5 L 756.7,748.0 L 756.2,753.1 L 751.5,784.4 L 747.8,809.4 L 745.6,823.2 L 745.0,826.5 L 744.2,830.1 L 742.9,834.7 L 741.8,838.3 L 740.6,841.4 L 738.6,846.8 L 735.8,852.5 L 733.4,856.9 L 728.9,863.1 L 724.4,868.4 L 720.1,873.2 L 715.5,878.4 L 704.8,887.2 L 698.4,891.0 L 691.4,894.6 L 684.1,897.7 L 675.2,900.5 L 669.9,901.9 L 663.8,903.3 L 649.9,905.4 L 560.1,910.0 L 550.5,908.6 L 547.8,905.7 L 547.5,904.5 L 546.7,902.8 L 546.5,900.5 L 546.0,897.5 L 548.6,844.1 L 547.8,837.7 L 546.4,833.4 L 544.1,829.2 L 540.9,824.6 L 537.9,821.9 L 535.9,820.9 L 534.4,820.5 L 532.4,820.1 L 530.0,820.3 L 527.5,821.2 L 523.8,822.6 L 480.6,840.2 L 474.5,841.9 L 468.0,843.5 L 464.5,843.9 L 459.6,844.3 L 453.4,844.2 L 448.1,843.5 L 442.9,842.5 L 438.6,841.3 L 434.0,839.6 L 429.1,837.3 L 424.6,834.9 L 419.8,831.6 L 413.2,825.8 L 408.8,820.9 L 403.7,814.4 L 397.9,803.9 L 389.8,786.9 L 385.3,774.8 L 383.8,770.0 L 382.6,765.1 L 381.2,756.1 L 379.8,745.1 L 378.6,732.5 L 378.2,717.5 L 378.1,711.5 L 378.0,700.0 L 377.9,689.6 L 377.8,677.0 L 377.4,647.4 L 377.3,632.6 L 377.2,617.3 L 377.0,602.2 L 376.9,596.7 Z" fill="none" stroke="#000000" stroke-opacity="0.5" stroke-width="13" stroke-linejoin="round" stroke-linecap="round"/>
<path d="M 376.9,596.7 L 376.7,586.8 L 376.5,562.6 L 375.4,451.5 L 374.1,333.9 L 373.0,232.2 L 374.5,226.8 L 376.6,224.3 L 380.0,222.9 L 389.1,222.3 L 398.5,222.3 L 406.0,222.2 L 409.9,222.1 L 411.9,221.9 L 415.2,221.3 L 417.7,220.5 L 420.7,219.2 L 423.6,217.4 L 426.2,215.2 L 428.2,213.2 L 430.2,211.0 L 431.7,208.3 L 432.6,206.5 L 433.3,204.5 L 433.7,203.0 L 433.9,201.0 L 434.1,197.9 L 434.0,192.3 L 432.2,171.1 L 432.1,168.0 L 432.2,164.9 L 432.3,161.2 L 432.8,157.9 L 433.5,154.2 L 434.2,151.3 L 435.5,147.0 L 437.1,142.5 L 438.3,139.3 L 439.7,136.3 L 441.1,133.8 L 442.7,130.8 L 444.8,127.8 L 447.0,124.9 L 449.7,121.7 L 452.3,119.1 L 455.4,116.1 L 459.7,112.5 L 463.1,110.1 L 466.7,107.9 L 474.0,104.3 L 491.2,96.2 L 501.2,91.7 L 502.0,91.3 L 502.7,91.1 L 504.5,90.6 L 506.2,90.3 L 507.9,90.1 L 509.7,90.0 L 511.2,90.1 L 512.9,90.4 L 514.5,90.8 L 515.9,91.2 L 517.1,91.7 L 518.6,92.4 L 519.8,93.2 L 523.6,95.7 L 527.2,98.4 L 530.9,102.2 L 533.3,105.3 L 535.4,108.5 L 536.7,110.8 L 537.6,113.1 L 538.6,115.6 L 539.5,119.0 L 540.0,122.7 L 540.3,127.3 L 540.4,138.3 L 540.5,152.1 L 540.9,181.0 L 541.4,187.9 L 542.1,191.2 L 543.2,194.7 L 544.7,198.2 L 547.3,201.1 L 549.4,202.8 L 552.9,204.8 L 556.3,206.5 L 558.7,208.5 L 560.3,211.0 L 561.2,214.1 L 561.5,217.6 L 561.8,236.3 L 563.0,321.7 L 563.1,328.5 L 563.4,347.6 L 565.2,502.1 L 566.5,618.7 L 566.2,642.0 L 566.9,648.4 L 567.8,651.0 L 569.4,652.9 L 570.4,654.1 L 572.7,655.4 L 577.8,655.9 L 617.1,654.3 L 634.0,653.7 L 640.3,654.6 L 646.6,657.0 L 651.4,659.9 L 656.1,664.4 L 658.4,667.7 L 660.1,671.5 L 661.4,675.5 L 662.7,680.1 L 665.9,687.0 L 668.2,690.1 L 671.2,692.7 L 677.4,696.2 L 681.2,697.4 L 684.9,698.0 L 693.5,698.2 L 712.3,696.9 L 731.0,695.6 L 735.0,695.5 L 738.2,696.1 L 740.5,696.9 L 742.6,698.1 L 744.1,699.3 L 745.5,700.6 L 747.0,702.4 L 748.5,704.9 L 749.6,707.3 L 750.7,709.8 L 751.9,713.0 L 753.0,716.4 L 754.6,722.4 L 756.0,728.9 L 756.5,732.6 L 756.8,736.9 L 757.0,742.5 L 756.7,748.0 L 756.2,753.1 L 751.5,784.4 L 747.8,809.4 L 745.6,823.2 L 745.0,826.5 L 744.2,830.1 L 742.9,834.7 L 741.8,838.3 L 740.6,841.4 L 738.6,846.8 L 735.8,852.5 L 733.4,856.9 L 728.9,863.1 L 724.4,868.4 L 720.1,873.2 L 715.5,878.4 L 704.8,887.2 L 698.4,891.0 L 691.4,894.6 L 684.1,897.7 L 675.2,900.5 L 669.9,901.9 L 663.8,903.3 L 649.9,905.4 L 560.1,910.0 L 550.5,908.6 L 547.8,905.7 L 547.5,904.5 L 546.7,902.8 L 546.5,900.5 L 546.0,897.5 L 548.6,844.1 L 547.8,837.7 L 546.4,833.4 L 544.1,829.2 L 540.9,824.6 L 537.9,821.9 L 535.9,820.9 L 534.4,820.5 L 532.4,820.1 L 530.0,820.3 L 527.5,821.2 L 523.8,822.6 L 480.6,840.2 L 474.5,841.9 L 468.0,843.5 L 464.5,843.9 L 459.6,844.3 L 453.4,844.2 L 448.1,843.5 L 442.9,842.5 L 438.6,841.3 L 434.0,839.6 L 429.1,837.3 L 424.6,834.9 L 419.8,831.6 L 413.2,825.8 L 408.8,820.9 L 403.7,814.4 L 397.9,803.9 L 389.8,786.9 L 385.3,774.8 L 383.8,770.0 L 382.6,765.1 L 381.2,756.1 L 379.8,745.1 L 378.6,732.5 L 378.2,717.5 L 378.1,711.5 L 378.0,700.0 L 377.9,689.6 L 377.8,677.0 L 377.4,647.4 L 377.3,632.6 L 377.2,617.3 L 377.0,602.2 L 376.9,596.7 Z" fill="none" stroke="#39404f" stroke-width="8.5" stroke-linejoin="round" stroke-linecap="round"/>
<path d="M 376.9,596.7 L 376.7,586.8 L 376.5,562.6 L 375.4,451.5 L 374.1,333.9 L 373.0,232.2 L 374.5,226.8 L 376.6,224.3 L 380.0,222.9 L 389.1,222.3 L 398.5,222.3 L 406.0,222.2 L 409.9,222.1 L 411.9,221.9 L 415.2,221.3 L 417.7,220.5 L 420.7,219.2 L 423.6,217.4 L 426.2,215.2 L 428.2,213.2 L 430.2,211.0 L 431.7,208.3 L 432.6,206.5 L 433.3,204.5 L 433.7,203.0 L 433.9,201.0 L 434.1,197.9 L 434.0,192.3 L 432.2,171.1 L 432.1,168.0 L 432.2,164.9 L 432.3,161.2 L 432.8,157.9 L 433.5,154.2 L 434.2,151.3 L 435.5,147.0 L 437.1,142.5 L 438.3,139.3 L 439.7,136.3 L 441.1,133.8 L 442.7,130.8 L 444.8,127.8 L 447.0,124.9 L 449.7,121.7 L 452.3,119.1 L 455.4,116.1 L 459.7,112.5 L 463.1,110.1 L 466.7,107.9 L 474.0,104.3 L 491.2,96.2 L 501.2,91.7 L 502.0,91.3 L 502.7,91.1 L 504.5,90.6 L 506.2,90.3 L 507.9,90.1 L 509.7,90.0 L 511.2,90.1 L 512.9,90.4 L 514.5,90.8 L 515.9,91.2 L 517.1,91.7 L 518.6,92.4 L 519.8,93.2 L 523.6,95.7 L 527.2,98.4 L 530.9,102.2 L 533.3,105.3 L 535.4,108.5 L 536.7,110.8 L 537.6,113.1 L 538.6,115.6 L 539.5,119.0 L 540.0,122.7 L 540.3,127.3 L 540.4,138.3 L 540.5,152.1 L 540.9,181.0 L 541.4,187.9 L 542.1,191.2 L 543.2,194.7 L 544.7,198.2 L 547.3,201.1 L 549.4,202.8 L 552.9,204.8 L 556.3,206.5 L 558.7,208.5 L 560.3,211.0 L 561.2,214.1 L 561.5,217.6 L 561.8,236.3 L 563.0,321.7 L 563.1,328.5 L 563.4,347.6 L 565.2,502.1 L 566.5,618.7 L 566.2,642.0 L 566.9,648.4 L 567.8,651.0 L 569.4,652.9 L 570.4,654.1 L 572.7,655.4 L 577.8,655.9 L 617.1,654.3 L 634.0,653.7 L 640.3,654.6 L 646.6,657.0 L 651.4,659.9 L 656.1,664.4 L 658.4,667.7 L 660.1,671.5 L 661.4,675.5 L 662.7,680.1 L 665.9,687.0 L 668.2,690.1 L 671.2,692.7 L 677.4,696.2 L 681.2,697.4 L 684.9,698.0 L 693.5,698.2 L 712.3,696.9 L 731.0,695.6 L 735.0,695.5 L 738.2,696.1 L 740.5,696.9 L 742.6,698.1 L 744.1,699.3 L 745.5,700.6 L 747.0,702.4 L 748.5,704.9 L 749.6,707.3 L 750.7,709.8 L 751.9,713.0 L 753.0,716.4 L 754.6,722.4 L 756.0,728.9 L 756.5,732.6 L 756.8,736.9 L 757.0,742.5 L 756.7,748.0 L 756.2,753.1 L 751.5,784.4 L 747.8,809.4 L 745.6,823.2 L 745.0,826.5 L 744.2,830.1 L 742.9,834.7 L 741.8,838.3 L 740.6,841.4 L 738.6,846.8 L 735.8,852.5 L 733.4,856.9 L 728.9,863.1 L 724.4,868.4 L 720.1,873.2 L 715.5,878.4 L 704.8,887.2 L 698.4,891.0 L 691.4,894.6 L 684.1,897.7 L 675.2,900.5 L 669.9,901.9 L 663.8,903.3 L 649.9,905.4 L 560.1,910.0 L 550.5,908.6 L 547.8,905.7 L 547.5,904.5 L 546.7,902.8 L 546.5,900.5 L 546.0,897.5 L 548.6,844.1 L 547.8,837.7 L 546.4,833.4 L 544.1,829.2 L 540.9,824.6 L 537.9,821.9 L 535.9,820.9 L 534.4,820.5 L 532.4,820.1 L 530.0,820.3 L 527.5,821.2 L 523.8,822.6 L 480.6,840.2 L 474.5,841.9 L 468.0,843.5 L 464.5,843.9 L 459.6,844.3 L 453.4,844.2 L 448.1,843.5 L 442.9,842.5 L 438.6,841.3 L 434.0,839.6 L 429.1,837.3 L 424.6,834.9 L 419.8,831.6 L 413.2,825.8 L 408.8,820.9 L 403.7,814.4 L 397.9,803.9 L 389.8,786.9 L 385.3,774.8 L 383.8,770.0 L 382.6,765.1 L 381.2,756.1 L 379.8,745.1 L 378.6,732.5 L 378.2,717.5 L 378.1,711.5 L 378.0,700.0 L 377.9,689.6 L 377.8,677.0 L 377.4,647.4 L 377.3,632.6 L 377.2,617.3 L 377.0,602.2 L 376.9,596.7 Z" fill="none" stroke="#e7edf8" stroke-width="2.6" stroke-linejoin="round" stroke-linecap="round"/>
<path d="M 376.9,596.7 L 376.7,586.8 L 376.5,562.6 L 375.4,451.5 L 374.1,333.9 L 373.0,232.2 L 374.5,226.8 L 376.6,224.3 L 380.0,222.9 L 389.1,222.3 L 398.5,222.3 L 406.0,222.2 L 409.9,222.1 L 411.9,221.9 L 415.2,221.3 L 417.7,220.5 L 420.7,219.2 L 423.6,217.4 L 426.2,215.2 L 428.2,213.2 L 430.2,211.0 L 431.7,208.3 L 432.6,206.5 L 433.3,204.5 L 433.7,203.0 L 433.9,201.0 L 434.1,197.9 L 434.0,192.3 L 432.2,171.1 L 432.1,168.0 L 432.2,164.9 L 432.3,161.2 L 432.8,157.9 L 433.5,154.2 L 434.2,151.3 L 435.5,147.0 L 437.1,142.5 L 438.3,139.3 L 439.7,136.3 L 441.1,133.8 L 442.7,130.8 L 444.8,127.8 L 447.0,124.9 L 449.7,121.7 L 452.3,119.1 L 455.4,116.1 L 459.7,112.5 L 463.1,110.1 L 466.7,107.9 L 474.0,104.3 L 491.2,96.2 L 501.2,91.7 L 502.0,91.3 L 502.7,91.1 L 504.5,90.6 L 506.2,90.3 L 507.9,90.1 L 509.7,90.0 L 511.2,90.1 L 512.9,90.4 L 514.5,90.8 L 515.9,91.2 L 517.1,91.7 L 518.6,92.4 L 519.8,93.2 L 523.6,95.7 L 527.2,98.4 L 530.9,102.2 L 533.3,105.3 L 535.4,108.5 L 536.7,110.8 L 537.6,113.1 L 538.6,115.6 L 539.5,119.0 L 540.0,122.7 L 540.3,127.3 L 540.4,138.3 L 540.5,152.1 L 540.9,181.0 L 541.4,187.9 L 542.1,191.2 L 543.2,194.7 L 544.7,198.2 L 547.3,201.1 L 549.4,202.8 L 552.9,204.8 L 556.3,206.5 L 558.7,208.5 L 560.3,211.0 L 561.2,214.1 L 561.5,217.6 L 561.8,236.3 L 563.0,321.7 L 563.1,328.5 L 563.4,347.6 L 565.2,502.1 L 566.5,618.7 L 566.2,642.0 L 566.9,648.4 L 567.8,651.0 L 569.4,652.9 L 570.4,654.1 L 572.7,655.4 L 577.8,655.9 L 617.1,654.3 L 634.0,653.7 L 640.3,654.6 L 646.6,657.0 L 651.4,659.9 L 656.1,664.4 L 658.4,667.7 L 660.1,671.5 L 661.4,675.5 L 662.7,680.1 L 665.9,687.0 L 668.2,690.1 L 671.2,692.7 L 677.4,696.2 L 681.2,697.4 L 684.9,698.0 L 693.5,698.2 L 712.3,696.9 L 731.0,695.6 L 735.0,695.5 L 738.2,696.1 L 740.5,696.9 L 742.6,698.1 L 744.1,699.3 L 745.5,700.6 L 747.0,702.4 L 748.5,704.9 L 749.6,707.3 L 750.7,709.8 L 751.9,713.0 L 753.0,716.4 L 754.6,722.4 L 756.0,728.9 L 756.5,732.6 L 756.8,736.9 L 757.0,742.5 L 756.7,748.0 L 756.2,753.1 L 751.5,784.4 L 747.8,809.4 L 745.6,823.2 L 745.0,826.5 L 744.2,830.1 L 742.9,834.7 L 741.8,838.3 L 740.6,841.4 L 738.6,846.8 L 735.8,852.5 L 733.4,856.9 L 728.9,863.1 L 724.4,868.4 L 720.1,873.2 L 715.5,878.4 L 704.8,887.2 L 698.4,891.0 L 691.4,894.6 L 684.1,897.7 L 675.2,900.5 L 669.9,901.9 L 663.8,903.3 L 649.9,905.4 L 560.1,910.0 L 550.5,908.6 L 547.8,905.7 L 547.5,904.5 L 546.7,902.8 L 546.5,900.5 L 546.0,897.5 L 548.6,844.1 L 547.8,837.7 L 546.4,833.4 L 544.1,829.2 L 540.9,824.6 L 537.9,821.9 L 535.9,820.9 L 534.4,820.5 L 532.4,820.1 L 530.0,820.3 L 527.5,821.2 L 523.8,822.6 L 480.6,840.2 L 474.5,841.9 L 468.0,843.5 L 464.5,843.9 L 459.6,844.3 L 453.4,844.2 L 448.1,843.5 L 442.9,842.5 L 438.6,841.3 L 434.0,839.6 L 429.1,837.3 L 424.6,834.9 L 419.8,831.6 L 413.2,825.8 L 408.8,820.9 L 403.7,814.4 L 397.9,803.9 L 389.8,786.9 L 385.3,774.8 L 383.8,770.0 L 382.6,765.1 L 381.2,756.1 L 379.8,745.1 L 378.6,732.5 L 378.2,717.5 L 378.1,711.5 L 378.0,700.0 L 377.9,689.6 L 377.8,677.0 L 377.4,647.4 L 377.3,632.6 L 377.2,617.3 L 377.0,602.2 L 376.9,596.7 Z" fill="none" stroke="#ff5a36" stroke-opacity="0.55" stroke-width="1.2" stroke-linejoin="round" filter="url(#glow)"/>
<circle cx="376.9" cy="596.7" r="13" fill="none" stroke="#ffffff" stroke-width="3"/>
<rect x="372.9" y="574.7" width="8" height="18" fill="#ffffff"/>
<circle cx="373.7" cy="229.5" r="7" fill="#ff5a36" stroke="#0a0c12" stroke-width="2.5" filter="url(#glow)"/>
<text x="373.7" y="232.9" font-size="9" font-weight="700" fill="#0a0c12" text-anchor="middle">1</text>
<circle cx="431.5" cy="208.7" r="7" fill="#ff5a36" stroke="#0a0c12" stroke-width="2.5" filter="url(#glow)"/>
<text x="431.5" y="212.1" font-size="9" font-weight="700" fill="#0a0c12" text-anchor="middle">2</text>
<circle cx="441.7" cy="132.6" r="7" fill="#ff5a36" stroke="#0a0c12" stroke-width="2.5" filter="url(#glow)"/>
<text x="441.7" y="136.0" font-size="9" font-weight="700" fill="#0a0c12" text-anchor="middle">3</text>
<circle cx="525.8" cy="97.3" r="7" fill="#ff5a36" stroke="#0a0c12" stroke-width="2.5" filter="url(#glow)"/>
<text x="525.8" y="100.7" font-size="9" font-weight="700" fill="#0a0c12" text-anchor="middle">4</text>
<circle cx="540.9" cy="181.1" r="7" fill="#ff5a36" stroke="#0a0c12" stroke-width="2.5" filter="url(#glow)"/>
<text x="540.9" y="184.5" font-size="9" font-weight="700" fill="#0a0c12" text-anchor="middle">5</text>
<circle cx="561.5" cy="220.1" r="7" fill="#ff5a36" stroke="#0a0c12" stroke-width="2.5" filter="url(#glow)"/>
<text x="561.5" y="223.5" font-size="9" font-weight="700" fill="#0a0c12" text-anchor="middle">6</text>
<circle cx="566.2" cy="640.4" r="7" fill="#ff5a36" stroke="#0a0c12" stroke-width="2.5" filter="url(#glow)"/>
<text x="566.2" y="643.8" font-size="9" font-weight="700" fill="#0a0c12" text-anchor="middle">7</text>
<circle cx="632.4" cy="653.8" r="7" fill="#ff5a36" stroke="#0a0c12" stroke-width="2.5" filter="url(#glow)"/>
<text x="632.4" y="657.2" font-size="9" font-weight="700" fill="#0a0c12" text-anchor="middle">8</text>
<circle cx="672.2" cy="693.3" r="7" fill="#ff5a36" stroke="#0a0c12" stroke-width="2.5" filter="url(#glow)"/>
<text x="672.2" y="696.7" font-size="9" font-weight="700" fill="#0a0c12" text-anchor="middle">9</text>
<circle cx="749.7" cy="707.4" r="7" fill="#ff5a36" stroke="#0a0c12" stroke-width="2.5" filter="url(#glow)"/>
<text x="749.7" y="710.8" font-size="9" font-weight="700" fill="#0a0c12" text-anchor="middle">10</text>
<circle cx="727.6" cy="864.6" r="7" fill="#ff5a36" stroke="#0a0c12" stroke-width="2.5" filter="url(#glow)"/>
<text x="727.6" y="868.0" font-size="9" font-weight="700" fill="#0a0c12" text-anchor="middle">11</text>
<circle cx="556.5" cy="909.4" r="7" fill="#ff5a36" stroke="#0a0c12" stroke-width="2.5" filter="url(#glow)"/>
<text x="556.5" y="912.8" font-size="9" font-weight="700" fill="#0a0c12" text-anchor="middle">12</text>
<circle cx="544.9" cy="830.6" r="7" fill="#ff5a36" stroke="#0a0c12" stroke-width="2.5" filter="url(#glow)"/>
<text x="544.9" y="834.0" font-size="9" font-weight="700" fill="#0a0c12" text-anchor="middle">13</text>
<circle cx="413.9" cy="826.5" r="7" fill="#ff5a36" stroke="#0a0c12" stroke-width="2.5" filter="url(#glow)"/>
<text x="413.9" y="829.9" font-size="9" font-weight="700" fill="#0a0c12" text-anchor="middle">14</text>
<line x1="373.7" y1="229.5" x2="347.2" y2="282.0" stroke="#ff5a36" stroke-opacity="0.45" stroke-width="1.3"/>
<text x="339.2" y="286.0" font-size="15" font-weight="600" fill="#eef2fb" text-anchor="end">Turn 1</text>
<line x1="431.5" y1="208.7" x2="413.7" y2="252.0" stroke="#ff5a36" stroke-opacity="0.45" stroke-width="1.3"/>
<text x="405.7" y="256.0" font-size="15" font-weight="600" fill="#eef2fb" text-anchor="end">Turn 2</text>
<line x1="441.7" y1="132.6" x2="428.5" y2="192.0" stroke="#ff5a36" stroke-opacity="0.45" stroke-width="1.3"/>
<text x="420.5" y="196.0" font-size="15" font-weight="600" fill="#eef2fb" text-anchor="end">Turn 3</text>
<line x1="525.8" y1="97.3" x2="523.8" y2="162.0" stroke="#ff5a36" stroke-opacity="0.45" stroke-width="1.3"/>
<text x="515.8" y="166.0" font-size="15" font-weight="600" fill="#eef2fb" text-anchor="end">Turn 4</text>
<line x1="540.9" y1="181.1" x2="540.8" y2="222.0" stroke="#ff5a36" stroke-opacity="0.45" stroke-width="1.3"/>
<text x="532.8" y="226.0" font-size="15" font-weight="600" fill="#eef2fb" text-anchor="end">Turn 5</text>
<line x1="561.5" y1="220.1" x2="565.0" y2="168.2" stroke="#ff5a36" stroke-opacity="0.45" stroke-width="1.3"/>
<text x="573.0" y="172.2" font-size="15" font-weight="600" fill="#eef2fb" text-anchor="start">Turn 6</text>
<line x1="566.2" y1="640.4" x2="575.9" y2="691.5" stroke="#ff5a36" stroke-opacity="0.45" stroke-width="1.3"/>
<text x="583.9" y="695.5" font-size="15" font-weight="600" fill="#eef2fb" text-anchor="start">Turn 7</text>
<line x1="632.4" y1="653.8" x2="660.4" y2="721.5" stroke="#ff5a36" stroke-opacity="0.45" stroke-width="1.3"/>
<text x="668.4" y="725.5" font-size="15" font-weight="600" fill="#eef2fb" text-anchor="start">Turn 8</text>
<line x1="672.2" y1="693.3" x2="702.6" y2="751.5" stroke="#ff5a36" stroke-opacity="0.45" stroke-width="1.3"/>
<text x="710.6" y="755.5" font-size="15" font-weight="600" fill="#eef2fb" text-anchor="start">Turn 9</text>
<line x1="749.7" y1="707.4" x2="787.6" y2="781.5" stroke="#ff5a36" stroke-opacity="0.45" stroke-width="1.3"/>
<text x="795.6" y="785.5" font-size="15" font-weight="600" fill="#eef2fb" text-anchor="start">Turn 10</text>
<line x1="727.6" y1="864.6" x2="751.9" y2="912.6" stroke="#ff5a36" stroke-opacity="0.45" stroke-width="1.3"/>
<text x="759.9" y="916.6" font-size="15" font-weight="600" fill="#eef2fb" text-anchor="start">Turn 11</text>
<line x1="556.5" y1="909.4" x2="558.4" y2="961.4" stroke="#ff5a36" stroke-opacity="0.45" stroke-width="1.3"/>
<text x="566.4" y="965.4" font-size="15" font-weight="600" fill="#eef2fb" text-anchor="start">Turn 12</text>
<line x1="544.9" y1="830.6" x2="545.4" y2="882.6" stroke="#ff5a36" stroke-opacity="0.45" stroke-width="1.3"/>
<text x="553.4" y="886.6" font-size="15" font-weight="600" fill="#eef2fb" text-anchor="start">Turn 13</text>
<line x1="413.9" y1="826.5" x2="394.4" y2="874.6" stroke="#ff5a36" stroke-opacity="0.45" stroke-width="1.3"/>
<text x="386.4" y="878.6" font-size="15" font-weight="600" fill="#eef2fb" text-anchor="end">Turn 14</text>
<text x="90" y="64" font-size="20" letter-spacing="5" fill="#ff5a36" font-weight="700">TRACK ATLAS</text>
<text x="90" y="108" font-size="42" font-weight="800" fill="#ffffff">INDIANAPOLIS MOTOR SPEEDWAY</text>
<text x="90" y="136" font-size="16" fill="#9aa6bd">IMS, The Brickyard</text>
<rect x="1170" y="200" width="360" height="710" rx="16" fill="#ffffff" fill-opacity="0.04" stroke="#ff5a36" stroke-opacity="0.5"/>
<text x="1198" y="250" font-size="13" letter-spacing="2" fill="#8794ab">LAYOUT</text>
<text x="1198" y="276" font-size="22" font-weight="700" fill="#eef2fb">Road Course</text>
<text x="1198" y="320" font-size="13" letter-spacing="2" fill="#8794ab">LENGTH</text>
<text x="1198" y="346" font-size="22" font-weight="700" fill="#eef2fb">3.925 km</text>
<text x="1198" y="390" font-size="13" letter-spacing="2" fill="#8794ab">CORNERS</text>
<text x="1198" y="416" font-size="22" font-weight="700" fill="#eef2fb">14</text>
<text x="1198" y="460" font-size="13" letter-spacing="2" fill="#8794ab">NAMED CORNERS</text>
<text x="1198" y="486" font-size="22" font-weight="700" fill="#eef2fb">14</text>
<text x="1198" y="530" font-size="13" letter-spacing="2" fill="#8794ab">DIRECTION</text>
<text x="1198" y="556" font-size="22" font-weight="700" fill="#eef2fb">Clockwise</text>
<text x="1198" y="600" font-size="13" letter-spacing="2" fill="#8794ab">SECTORS</text>
<text x="1198" y="626" font-size="22" font-weight="700" fill="#eef2fb">4</text>
<text x="1198" y="670" font-size="13" letter-spacing="2" fill="#8794ab">COUNTRY</text>
<text x="1198" y="696" font-size="22" font-weight="700" fill="#eef2fb">USA</text>
<text x="1198" y="740" font-size="13" letter-spacing="2" fill="#8794ab">LOCATION</text>
<text x="1198" y="766" font-size="22" font-weight="700" fill="#eef2fb">Speedway, Indiana</text>
<text x="90" y="966" font-size="12" fill="#566177">Geometry © OpenStreetMap contributors (ODbL) · corner data: Lovely-Sim-Racing + curated · track-atlas</text>
<text x="90" y="942" font-size="12" fill="#8794ab">⚑ start / finish</text>
</svg>