<svg xmlns="http://www.w3.org/2000/svg" width="1600" height="1000" viewBox="0 0 1600 1000" font-family="Helvetica, Arial, sans-serif">
<defs>
      <radialGradient id="bg" cx="38%" cy="34%" r="85%">
        <stop offset="0%" stop-color="#1b2030"/>
        <stop offset="55%" stop-color="#12151f"/>
        <stop offset="100%" stop-color="#0a0c12"/>
      </radialGradient>
      <linearGradient id="accent" x1="0" y1="0" x2="1" y2="1">
        <stop offset="0%" stop-color="#ff5a36"/>
        <stop offset="100%" stop-color="#ffffff"/>
      </linearGradient>
      <filter id="glow" x="-40%" y="-40%" width="180%" height="180%">
        <feGaussianBlur stdDeviation="6" result="b"/>
        <feMerge><feMergeNode in="b"/><feMergeNode in="SourceGraphic"/></feMerge>
      </filter>
    </defs>
<rect width="1600" height="1000" fill="url(#bg)"/>
<path d="M 513.0,168.0 L 518.8,170.5 L 521.6,172.9 L 524.0,176.9 L 524.8,181.2 L 524.2,185.0 L 522.8,187.5 L 519.2,191.9 L 513.3,196.2 L 569.9,249.2 L 573.6,246.2 L 577.8,244.4 L 583.0,243.8 L 587.3,244.0 L 591.8,245.4 L 595.8,247.9 L 599.1,251.2 L 601.8,255.5 L 603.1,259.5 L 630.5,450.4 L 632.7,459.2 L 635.1,465.5 L 637.6,470.5 L 641.3,476.5 L 645.8,482.1 L 650.6,487.2 L 656.5,492.1 L 664.3,497.3 L 670.0,500.6 L 749.2,540.8 L 757.0,545.6 L 762.0,549.3 L 767.0,553.9 L 772.1,560.2 L 775.0,564.5 L 777.1,568.4 L 779.1,572.4 L 785.1,590.5 L 786.1,595.6 L 786.0,601.3 L 785.0,605.6 L 783.4,609.1 L 780.6,611.7 L 777.2,614.6 L 772.9,616.9 L 718.3,722.9 L 722.9,718.8 L 727.6,715.7 L 732.1,713.8 L 736.7,713.0 L 742.0,713.0 L 747.3,714.0 L 752.3,716.2 L 757.4,719.6 L 762.5,724.7 L 765.9,729.3 L 769.0,733.9 L 771.7,740.2 L 773.8,747.0 L 774.6,752.1 L 775.1,758.2 L 775.0,763.7 L 774.1,769.2 L 772.5,776.4 L 769.9,781.8 L 764.8,790.5 L 761.0,796.0 L 689.5,880.5 L 675.6,892.1 L 663.8,899.2 L 654.7,903.1 L 643.2,906.8 L 630.1,909.3 L 618.0,910.0 L 606.6,909.6 L 597.3,908.4 L 589.0,906.4 L 579.9,903.5 L 571.4,899.7 L 562.6,895.5 L 554.5,890.3 L 547.0,883.9 Z" fill="none" stroke="#000000" stroke-opacity="0.5" stroke-width="13" stroke-linejoin="round" stroke-linecap="round"/>
<path d="M 513.0,168.0 L 518.8,170.5 L 521.6,172.9 L 524.0,176.9 L 524.8,181.2 L 524.2,185.0 L 522.8,187.5 L 519.2,191.9 L 513.3,196.2 L 569.9,249.2 L 573.6,246.2 L 577.8,244.4 L 583.0,243.8 L 587.3,244.0 L 591.8,245.4 L 595.8,247.9 L 599.1,251.2 L 601.8,255.5 L 603.1,259.5 L 630.5,450.4 L 632.7,459.2 L 635.1,465.5 L 637.6,470.5 L 641.3,476.5 L 645.8,482.1 L 650.6,487.2 L 656.5,492.1 L 664.3,497.3 L 670.0,500.6 L 749.2,540.8 L 757.0,545.6 L 762.0,549.3 L 767.0,553.9 L 772.1,560.2 L 775.0,564.5 L 777.1,568.4 L 779.1,572.4 L 785.1,590.5 L 786.1,595.6 L 786.0,601.3 L 785.0,605.6 L 783.4,609.1 L 780.6,611.7 L 777.2,614.6 L 772.9,616.9 L 718.3,722.9 L 722.9,718.8 L 727.6,715.7 L 732.1,713.8 L 736.7,713.0 L 742.0,713.0 L 747.3,714.0 L 752.3,716.2 L 757.4,719.6 L 762.5,724.7 L 765.9,729.3 L 769.0,733.9 L 771.7,740.2 L 773.8,747.0 L 774.6,752.1 L 775.1,758.2 L 775.0,763.7 L 774.1,769.2 L 772.5,776.4 L 769.9,781.8 L 764.8,790.5 L 761.0,796.0 L 689.5,880.5 L 675.6,892.1 L 663.8,899.2 L 654.7,903.1 L 643.2,906.8 L 630.1,909.3 L 618.0,910.0 L 606.6,909.6 L 597.3,908.4 L 589.0,906.4 L 579.9,903.5 L 571.4,899.7 L 562.6,895.5 L 554.5,890.3 L 547.0,883.9 Z" fill="none" stroke="#39404f" stroke-width="8.5" stroke-linejoin="round" stroke-linecap="round"/>
<path d="M 513.0,168.0 L 518.8,170.5 L 521.6,172.9 L 524.0,176.9 L 524.8,181.2 L 524.2,185.0 L 522.8,187.5 L 519.2,191.9 L 513.3,196.2 L 569.9,249.2 L 573.6,246.2 L 577.8,244.4 L 583.0,243.8 L 587.3,244.0 L 591.8,245.4 L 595.8,247.9 L 599.1,251.2 L 601.8,255.5 L 603.1,259.5 L 630.5,450.4 L 632.7,459.2 L 635.1,465.5 L 637.6,470.5 L 641.3,476.5 L 645.8,482.1 L 650.6,487.2 L 656.5,492.1 L 664.3,497.3 L 670.0,500.6 L 749.2,540.8 L 757.0,545.6 L 762.0,549.3 L 767.0,553.9 L 772.1,560.2 L 775.0,564.5 L 777.1,568.4 L 779.1,572.4 L 785.1,590.5 L 786.1,595.6 L 786.0,601.3 L 785.0,605.6 L 783.4,609.1 L 780.6,611.7 L 777.2,614.6 L 772.9,616.9 L 718.3,722.9 L 722.9,718.8 L 727.6,715.7 L 732.1,713.8 L 736.7,713.0 L 742.0,713.0 L 747.3,714.0 L 752.3,716.2 L 757.4,719.6 L 762.5,724.7 L 765.9,729.3 L 769.0,733.9 L 771.7,740.2 L 773.8,747.0 L 774.6,752.1 L 775.1,758.2 L 775.0,763.7 L 774.1,769.2 L 772.5,776.4 L 769.9,781.8 L 764.8,790.5 L 761.0,796.0 L 689.5,880.5 L 675.6,892.1 L 663.8,899.2 L 654.7,903.1 L 643.2,906.8 L 630.1,909.3 L 618.0,910.0 L 606.6,909.6 L 597.3,908.4 L 589.0,906.4 L 579.9,903.5 L 571.4,899.7 L 562.6,895.5 L 554.5,890.3 L 547.0,883.9 Z" fill="none" stroke="#e7edf8" stroke-width="2.6" stroke-linejoin="round" stroke-linecap="round"/>
<path d="M 513.0,168.0 L 518.8,170.5 L 521.6,172.9 L 524.0,176.9 L 524.8,181.2 L 524.2,185.0 L 522.8,187.5 L 519.2,191.9 L 513.3,196.2 L 569.9,249.2 L 573.6,246.2 L 577.8,244.4 L 583.0,243.8 L 587.3,244.0 L 591.8,245.4 L 595.8,247.9 L 599.1,251.2 L 601.8,255.5 L 603.1,259.5 L 630.5,450.4 L 632.7,459.2 L 635.1,465.5 L 637.6,470.5 L 641.3,476.5 L 645.8,482.1 L 650.6,487.2 L 656.5,492.1 L 664.3,497.3 L 670.0,500.6 L 749.2,540.8 L 757.0,545.6 L 762.0,549.3 L 767.0,553.9 L 772.1,560.2 L 775.0,564.5 L 777.1,568.4 L 779.1,572.4 L 785.1,590.5 L 786.1,595.6 L 786.0,601.3 L 785.0,605.6 L 783.4,609.1 L 780.6,611.7 L 777.2,614.6 L 772.9,616.9 L 718.3,722.9 L 722.9,718.8 L 727.6,715.7 L 732.1,713.8 L 736.7,713.0 L 742.0,713.0 L 747.3,714.0 L 752.3,716.2 L 757.4,719.6 L 762.5,724.7 L 765.9,729.3 L 769.0,733.9 L 771.7,740.2 L 773.8,747.0 L 774.6,752.1 L 775.1,758.2 L 775.0,763.7 L 774.1,769.2 L 772.5,776.4 L 769.9,781.8 L 764.8,790.5 L 761.0,796.0 L 689.5,880.5 L 675.6,892.1 L 663.8,899.2 L 654.7,903.1 L 643.2,906.8 L 630.1,909.3 L 618.0,910.0 L 606.6,909.6 L 597.3,908.4 L 589.0,906.4 L 579.9,903.5 L 571.4,899.7 L 562.6,895.5 L 554.5,890.3 L 547.0,883.9 Z" fill="none" stroke="#ff5a36" stroke-opacity="0.55" stroke-width="1.2" stroke-linejoin="round" filter="url(#glow)"/>
<circle cx="479.7" cy="708.8" r="13" fill="none" stroke="#ffffff" stroke-width="3"/>
<rect x="475.7" y="686.8" width="8" height="18" fill="#ffffff"/>
<circle cx="403.9" cy="443.6" r="7" fill="#ff5a36" stroke="#0a0c12" stroke-width="2.5" filter="url(#glow)"/>
<text x="403.9" y="447.0" font-size="9" font-weight="700" fill="#0a0c12" text-anchor="middle">1</text>
<circle cx="378.0" cy="355.3" r="7" fill="#ff5a36" stroke="#0a0c12" stroke-width="2.5" filter="url(#glow)"/>
<text x="378.0" y="358.7" font-size="9" font-weight="700" fill="#0a0c12" text-anchor="middle">2</text>
<circle cx="343.9" cy="237.5" r="7" fill="#ff5a36" stroke="#0a0c12" stroke-width="2.5" filter="url(#glow)"/>
<text x="343.9" y="240.9" font-size="9" font-weight="700" fill="#0a0c12" text-anchor="middle">3</text>
<circle cx="389.8" cy="171.1" r="7" fill="#ff5a36" stroke="#0a0c12" stroke-width="2.5" filter="url(#glow)"/>
<text x="389.8" y="174.5" font-size="9" font-weight="700" fill="#0a0c12" text-anchor="middle">4</text>
<circle cx="487.6" cy="211.2" r="7" fill="#ff5a36" stroke="#0a0c12" stroke-width="2.5" filter="url(#glow)"/>
<text x="487.6" y="214.6" font-size="9" font-weight="700" fill="#0a0c12" text-anchor="middle">5</text>
<circle cx="486.2" cy="375.5" r="7" fill="#ff5a36" stroke="#0a0c12" stroke-width="2.5" filter="url(#glow)"/>
<text x="486.2" y="378.9" font-size="9" font-weight="700" fill="#0a0c12" text-anchor="middle">6</text>
<circle cx="528.7" cy="522.7" r="7" fill="#ff5a36" stroke="#0a0c12" stroke-width="2.5" filter="url(#glow)"/>
<text x="528.7" y="526.1" font-size="9" font-weight="700" fill="#0a0c12" text-anchor="middle">7</text>
<circle cx="566.5" cy="588.9" r="7" fill="#ff5a36" stroke="#0a0c12" stroke-width="2.5" filter="url(#glow)"/>
<text x="566.5" y="592.3" font-size="9" font-weight="700" fill="#0a0c12" text-anchor="middle">8</text>
<circle cx="611.4" cy="386.3" r="7" fill="#ff5a36" stroke="#0a0c12" stroke-width="2.5" filter="url(#glow)"/>
<text x="611.4" y="389.7" font-size="9" font-weight="700" fill="#0a0c12" text-anchor="middle">9</text>
<circle cx="687.3" cy="509.4" r="7" fill="#ff5a36" stroke="#0a0c12" stroke-width="2.5" filter="url(#glow)"/>
<text x="687.3" y="512.8" font-size="9" font-weight="700" fill="#0a0c12" text-anchor="middle">10</text>
<circle cx="742.0" cy="537.1" r="7" fill="#ff5a36" stroke="#0a0c12" stroke-width="2.5" filter="url(#glow)"/>
<text x="742.0" y="540.5" font-size="9" font-weight="700" fill="#0a0c12" text-anchor="middle">11</text>
<circle cx="725.6" cy="631.2" r="7" fill="#ff5a36" stroke="#0a0c12" stroke-width="2.5" filter="url(#glow)"/>
<text x="725.6" y="634.6" font-size="9" font-weight="700" fill="#0a0c12" text-anchor="middle">12</text>
<circle cx="637.2" cy="701.7" r="7" fill="#ff5a36" stroke="#0a0c12" stroke-width="2.5" filter="url(#glow)"/>
<text x="637.2" y="705.1" font-size="9" font-weight="700" fill="#0a0c12" text-anchor="middle">13</text>
<circle cx="647.8" cy="799.4" r="7" fill="#ff5a36" stroke="#0a0c12" stroke-width="2.5" filter="url(#glow)"/>
<text x="647.8" y="802.8" font-size="9" font-weight="700" fill="#0a0c12" text-anchor="middle">14</text>
<circle cx="770.1" cy="736.5" r="7" fill="#ff5a36" stroke="#0a0c12" stroke-width="2.5" filter="url(#glow)"/>
<text x="770.1" y="739.9" font-size="9" font-weight="700" fill="#0a0c12" text-anchor="middle">15</text>
<line x1="403.9" y1="443.6" x2="357.3" y2="420.4" stroke="#ff5a36" stroke-opacity="0.45" stroke-width="1.3"/>
<text x="349.3" y="424.4" font-size="15" font-weight="600" fill="#eef2fb" text-anchor="end">Curva 1</text>
<line x1="378.0" y1="355.3" x2="336.8" y2="323.6" stroke="#ff5a36" stroke-opacity="0.45" stroke-width="1.3"/>
<text x="328.8" y="327.6" font-size="15" font-weight="600" fill="#eef2fb" text-anchor="end">Curva 2</text>
<line x1="343.9" y1="237.5" x2="308.2" y2="232.0" stroke="#ff5a36" stroke-opacity="0.45" stroke-width="1.3"/>
<text x="300.2" y="236.0" font-size="15" font-weight="600" fill="#eef2fb" text-anchor="end">Lagos</text>
<line x1="389.8" y1="171.1" x2="360.9" y2="168.0" stroke="#ff5a36" stroke-opacity="0.45" stroke-width="1.3"/>
<text x="352.9" y="172.0" font-size="15" font-weight="600" fill="#eef2fb" text-anchor="end">Curva 4</text>
<line x1="487.6" y1="211.2" x2="465.4" y2="200.0" stroke="#ff5a36" stroke-opacity="0.45" stroke-width="1.3"/>
<text x="457.4" y="204.0" font-size="15" font-weight="600" fill="#eef2fb" text-anchor="end">Torre VIP</text>
<line x1="486.2" y1="375.5" x2="451.9" y2="387.6" stroke="#ff5a36" stroke-opacity="0.45" stroke-width="1.3"/>
<text x="443.9" y="391.6" font-size="15" font-weight="600" fill="#eef2fb" text-anchor="end">Curva 6</text>
<line x1="528.7" y1="522.7" x2="479.9" y2="504.9" stroke="#ff5a36" stroke-opacity="0.45" stroke-width="1.3"/>
<text x="471.9" y="508.9" font-size="15" font-weight="600" fill="#eef2fb" text-anchor="end">Curva 7</text>
<line x1="566.5" y1="588.9" x2="515.7" y2="600.0" stroke="#ff5a36" stroke-opacity="0.45" stroke-width="1.3"/>
<text x="507.7" y="604.0" font-size="15" font-weight="600" fill="#eef2fb" text-anchor="end">Samsung</text>
<line x1="611.4" y1="386.3" x2="598.9" y2="355.6" stroke="#ff5a36" stroke-opacity="0.45" stroke-width="1.3"/>
<text x="590.9" y="359.6" font-size="15" font-weight="600" fill="#eef2fb" text-anchor="end">Craig Jones</text>
<line x1="687.3" y1="509.4" x2="711.3" y2="463.2" stroke="#ff5a36" stroke-opacity="0.45" stroke-width="1.3"/>
<text x="719.3" y="467.2" font-size="15" font-weight="600" fill="#eef2fb" text-anchor="start">Portimão</text>
<line x1="742.0" y1="537.1" x2="790.7" y2="518.9" stroke="#ff5a36" stroke-opacity="0.45" stroke-width="1.3"/>
<text x="798.7" y="522.9" font-size="15" font-weight="600" fill="#eef2fb" text-anchor="start">Curva 11</text>
<line x1="725.6" y1="631.2" x2="764.4" y2="665.9" stroke="#ff5a36" stroke-opacity="0.45" stroke-width="1.3"/>
<text x="772.4" y="669.9" font-size="15" font-weight="600" fill="#eef2fb" text-anchor="start">Curva 12</text>
<line x1="637.2" y1="701.7" x2="629.8" y2="753.2" stroke="#ff5a36" stroke-opacity="0.45" stroke-width="1.3"/>
<text x="621.8" y="757.2" font-size="15" font-weight="600" fill="#eef2fb" text-anchor="end">Curva 13</text>
<line x1="647.8" y1="799.4" x2="645.9" y2="851.4" stroke="#ff5a36" stroke-opacity="0.45" stroke-width="1.3"/>
<text x="637.9" y="855.4" font-size="15" font-weight="600" fill="#eef2fb" text-anchor="end">Sagres</text>
<line x1="770.1" y1="736.5" x2="799.4" y2="779.5" stroke="#ff5a36" stroke-opacity="0.45" stroke-width="1.3"/>
<text x="807.4" y="783.5" font-size="15" font-weight="600" fill="#eef2fb" text-anchor="start">Galp</text>
<text x="90" y="64" font-size="20" letter-spacing="5" fill="#ff5a36" font-weight="700">TRACK ATLAS</text>
<text x="90" y="108" font-size="42" font-weight="800" fill="#ffffff">AUTODROMO INTERNACIONAL DO ALGARVE</text>
<text x="90" y="136" font-size="16" fill="#9aa6bd">Portimao</text>
<rect x="1170" y="200" width="360" height="710" rx="16" fill="#ffffff" fill-opacity="0.04" stroke="#ff5a36" stroke-opacity="0.5"/>
<text x="1198" y="250" font-size="13" letter-spacing="2" fill="#8794ab">LAYOUT</text>
<text x="1198" y="276" font-size="22" font-weight="700" fill="#eef2fb">Grand Prix Circuit</text>
<text x="1198" y="320" font-size="13" letter-spacing="2" fill="#8794ab">LENGTH</text>
<text x="1198" y="346" font-size="22" font-weight="700" fill="#eef2fb">4.653 km</text>
<text x="1198" y="390" font-size="13" letter-spacing="2" fill="#8794ab">CORNERS</text>
<text x="1198" y="416" font-size="22" font-weight="700" fill="#eef2fb">15</text>
<text x="1198" y="460" font-size="13" letter-spacing="2" fill="#8794ab">NAMED CORNERS</text>
<text x="1198" y="486" font-size="22" font-weight="700" fill="#eef2fb">15</text>
<text x="1198" y="530" font-size="13" letter-spacing="2" fill="#8794ab">DIRECTION</text>
<text x="1198" y="556" font-size="22" font-weight="700" fill="#eef2fb">Clockwise</text>
<text x="1198" y="600" font-size="13" letter-spacing="2" fill="#8794ab">SECTORS</text>
<text x="1198" y="626" font-size="22" font-weight="700" fill="#eef2fb">3</text>
<text x="1198" y="670" font-size="13" letter-spacing="2" fill="#8794ab">COUNTRY</text>
<text x="1198" y="696" font-size="22" font-weight="700" fill="#eef2fb">PT</text>
<text x="1198" y="740" font-size="13" letter-spacing="2" fill="#8794ab">LOCATION</text>
<text x="1198" y="766" font-size="22" font-weight="700" fill="#eef2fb">Portimao</text>
<text x="90" y="966" font-size="12" fill="#566177">Geometry © OpenStreetMap contributors (ODbL) · corner data: Lovely-Sim-Racing + curated · track-atlas</text>
<text x="90" y="942" font-size="12" fill="#8794ab">⚑ start / finish</text>
</svg>