<svg xmlns="http://www.w3.org/2000/svg" width="1600" height="1000" viewBox="0 0 1600 1000" font-family="Helvetica, Arial, sans-serif">
<defs>
      <radialGradient id="bg" cx="38%" cy="34%" r="85%">
        <stop offset="0%" stop-color="#1b2030"/>
        <stop offset="55%" stop-color="#12151f"/>
        <stop offset="100%" stop-color="#0a0c12"/>
      </radialGradient>
      <linearGradient id="accent" x1="0" y1="0" x2="1" y2="1">
        <stop offset="0%" stop-color="#ff5a36"/>
        <stop offset="100%" stop-color="#ffffff"/>
      </linearGradient>
      <filter id="glow" x="-40%" y="-40%" width="180%" height="180%">
        <feGaussianBlur stdDeviation="6" result="b"/>
        <feMerge><feMergeNode in="b"/><feMergeNode in="SourceGraphic"/></feMerge>
      </filter>
    </defs>
<rect width="1600" height="1000" fill="url(#bg)"/>
<path d="M 601.3,460.5 C 595.8,511.7 604.6,516.5 635.5,533.3 C 666.4,550.0 761.6,540.8 786.9,560.9 C 812.3,581.0 812.2,612.7 787.8,653.7 C 763.4,694.8 665.5,764.9 640.6,807.0 C 615.7,849.1 645.0,889.0 638.5,906.2 C 632.0,923.3 612.7,926.3 601.6,910.0 C 590.6,893.7 601.8,857.0 572.4,808.1 C 543.0,759.3 463.7,705.5 425.3,617.1 C 387.0,528.6 340.1,339.4 342.2,277.3 C 344.3,215.2 415.7,262.7 438.0,244.5 C 460.3,226.2 437.4,171.1 475.9,168.0 C 514.4,164.9 648.0,177.2 668.9,226.0 C 689.8,274.7 606.9,409.2 601.3,460.5 Z" fill="none" stroke="#000000" stroke-opacity="0.5" stroke-width="13" stroke-linejoin="round" stroke-linecap="round"/>
<path d="M 601.3,460.5 C 595.8,511.7 604.6,516.5 635.5,533.3 C 666.4,550.0 761.6,540.8 786.9,560.9 C 812.3,581.0 812.2,612.7 787.8,653.7 C 763.4,694.8 665.5,764.9 640.6,807.0 C 615.7,849.1 645.0,889.0 638.5,906.2 C 632.0,923.3 612.7,926.3 601.6,910.0 C 590.6,893.7 601.8,857.0 572.4,808.1 C 543.0,759.3 463.7,705.5 425.3,617.1 C 387.0,528.6 340.1,339.4 342.2,277.3 C 344.3,215.2 415.7,262.7 438.0,244.5 C 460.3,226.2 437.4,171.1 475.9,168.0 C 514.4,164.9 648.0,177.2 668.9,226.0 C 689.8,274.7 606.9,409.2 601.3,460.5 Z" fill="none" stroke="#39404f" stroke-width="8.5" stroke-linejoin="round" stroke-linecap="round"/>
<path d="M 601.3,460.5 C 595.8,511.7 604.6,516.5 635.5,533.3 C 666.4,550.0 761.6,540.8 786.9,560.9 C 812.3,581.0 812.2,612.7 787.8,653.7 C 763.4,694.8 665.5,764.9 640.6,807.0 C 615.7,849.1 645.0,889.0 638.5,906.2 C 632.0,923.3 612.7,926.3 601.6,910.0 C 590.6,893.7 601.8,857.0 572.4,808.1 C 543.0,759.3 463.7,705.5 425.3,617.1 C 387.0,528.6 340.1,339.4 342.2,277.3 C 344.3,215.2 415.7,262.7 438.0,244.5 C 460.3,226.2 437.4,171.1 475.9,168.0 C 514.4,164.9 648.0,177.2 668.9,226.0 C 689.8,274.7 606.9,409.2 601.3,460.5 Z" fill="none" stroke="#e7edf8" stroke-width="2.6" stroke-linejoin="round" stroke-linecap="round"/>
<path d="M 601.3,460.5 C 595.8,511.7 604.6,516.5 635.5,533.3 C 666.4,550.0 761.6,540.8 786.9,560.9 C 812.3,581.0 812.2,612.7 787.8,653.7 C 763.4,694.8 665.5,764.9 640.6,807.0 C 615.7,849.1 645.0,889.0 638.5,906.2 C 632.0,923.3 612.7,926.3 601.6,910.0 C 590.6,893.7 601.8,857.0 572.4,808.1 C 543.0,759.3 463.7,705.5 425.3,617.1 C 387.0,528.6 340.1,339.4 342.2,277.3 C 344.3,215.2 415.7,262.7 438.0,244.5 C 460.3,226.2 437.4,171.1 475.9,168.0 C 514.4,164.9 648.0,177.2 668.9,226.0 C 689.8,274.7 606.9,409.2 601.3,460.5 Z" fill="none" stroke="#ff5a36" stroke-opacity="0.55" stroke-width="1.2" stroke-linejoin="round" filter="url(#glow)"/>
<circle cx="688.8" cy="286.9" r="13" fill="none" stroke="#ffffff" stroke-width="3"/>
<rect x="684.8" y="264.9" width="8" height="18" fill="#ffffff"/>
<circle cx="601.3" cy="460.5" r="7" fill="#ff5a36" stroke="#0a0c12" stroke-width="2.5" filter="url(#glow)"/>
<text x="601.3" y="463.9" font-size="9" font-weight="700" fill="#0a0c12" text-anchor="middle">1</text>
<circle cx="635.5" cy="533.3" r="7" fill="#ff5a36" stroke="#0a0c12" stroke-width="2.5" filter="url(#glow)"/>
<text x="635.5" y="536.7" font-size="9" font-weight="700" fill="#0a0c12" text-anchor="middle">2</text>
<circle cx="786.9" cy="560.9" r="7" fill="#ff5a36" stroke="#0a0c12" stroke-width="2.5" filter="url(#glow)"/>
<text x="786.9" y="564.3" font-size="9" font-weight="700" fill="#0a0c12" text-anchor="middle">3</text>
<circle cx="787.8" cy="653.7" r="7" fill="#ff5a36" stroke="#0a0c12" stroke-width="2.5" filter="url(#glow)"/>
<text x="787.8" y="657.1" font-size="9" font-weight="700" fill="#0a0c12" text-anchor="middle">4</text>
<circle cx="640.6" cy="807.0" r="7" fill="#ff5a36" stroke="#0a0c12" stroke-width="2.5" filter="url(#glow)"/>
<text x="640.6" y="810.4" font-size="9" font-weight="700" fill="#0a0c12" text-anchor="middle">5</text>
<circle cx="638.5" cy="906.2" r="7" fill="#ff5a36" stroke="#0a0c12" stroke-width="2.5" filter="url(#glow)"/>
<text x="638.5" y="909.6" font-size="9" font-weight="700" fill="#0a0c12" text-anchor="middle">6</text>
<circle cx="601.6" cy="910.0" r="7" fill="#ff5a36" stroke="#0a0c12" stroke-width="2.5" filter="url(#glow)"/>
<text x="601.6" y="913.4" font-size="9" font-weight="700" fill="#0a0c12" text-anchor="middle">7</text>
<circle cx="572.4" cy="808.1" r="7" fill="#ff5a36" stroke="#0a0c12" stroke-width="2.5" filter="url(#glow)"/>
<text x="572.4" y="811.5" font-size="9" font-weight="700" fill="#0a0c12" text-anchor="middle">8</text>
<circle cx="425.3" cy="617.1" r="7" fill="#ff5a36" stroke="#0a0c12" stroke-width="2.5" filter="url(#glow)"/>
<text x="425.3" y="620.5" font-size="9" font-weight="700" fill="#0a0c12" text-anchor="middle">9</text>
<circle cx="342.2" cy="277.3" r="7" fill="#ff5a36" stroke="#0a0c12" stroke-width="2.5" filter="url(#glow)"/>
<text x="342.2" y="280.7" font-size="9" font-weight="700" fill="#0a0c12" text-anchor="middle">10</text>
<circle cx="438.0" cy="244.5" r="7" fill="#ff5a36" stroke="#0a0c12" stroke-width="2.5" filter="url(#glow)"/>
<text x="438.0" y="247.9" font-size="9" font-weight="700" fill="#0a0c12" text-anchor="middle">11</text>
<circle cx="475.9" cy="168.0" r="7" fill="#ff5a36" stroke="#0a0c12" stroke-width="2.5" filter="url(#glow)"/>
<text x="475.9" y="171.4" font-size="9" font-weight="700" fill="#0a0c12" text-anchor="middle">12</text>
<circle cx="668.9" cy="226.0" r="7" fill="#ff5a36" stroke="#0a0c12" stroke-width="2.5" filter="url(#glow)"/>
<text x="668.9" y="229.4" font-size="9" font-weight="700" fill="#0a0c12" text-anchor="middle">13</text>
<line x1="601.3" y1="460.5" x2="610.1" y2="409.2" stroke="#ff5a36" stroke-opacity="0.45" stroke-width="1.3"/>
<text x="618.1" y="413.2" font-size="15" font-weight="600" fill="#eef2fb" text-anchor="start">Clayton</text>
<line x1="786.9" y1="560.9" x2="838.9" y2="563.3" stroke="#ff5a36" stroke-opacity="0.45" stroke-width="1.3"/>
<text x="846.9" y="567.3" font-size="15" font-weight="600" fill="#eef2fb" text-anchor="start">Quebec</text>
<line x1="601.6" y1="910.0" x2="603.9" y2="930.0" stroke="#ff5a36" stroke-opacity="0.45" stroke-width="1.3"/>
<text x="611.9" y="934.0" font-size="15" font-weight="600" fill="#eef2fb" text-anchor="start">Moss Corner</text>
<line x1="438.0" y1="244.5" x2="415.5" y2="200.0" stroke="#ff5a36" stroke-opacity="0.45" stroke-width="1.3"/>
<text x="407.5" y="204.0" font-size="15" font-weight="600" fill="#eef2fb" text-anchor="end">Esses</text>
<line x1="475.9" y1="168.0" x2="461.6" y2="168.0" stroke="#ff5a36" stroke-opacity="0.45" stroke-width="1.3"/>
<text x="453.6" y="172.0" font-size="15" font-weight="600" fill="#eef2fb" text-anchor="end">Whites</text>
<text x="90" y="64" font-size="20" letter-spacing="5" fill="#ff5a36" font-weight="700">TRACK ATLAS</text>
<text x="90" y="108" font-size="42" font-weight="800" fill="#ffffff">CANADIAN TIRE MOTORSPORT PARK</text>
<text x="90" y="136" font-size="16" fill="#9aa6bd">Mosport, Mosport International Raceway</text>
<rect x="1170" y="200" width="360" height="710" rx="16" fill="#ffffff" fill-opacity="0.04" stroke="#ff5a36" stroke-opacity="0.5"/>
<text x="1198" y="250" font-size="13" letter-spacing="2" fill="#8794ab">LAYOUT</text>
<text x="1198" y="276" font-size="22" font-weight="700" fill="#eef2fb">Grand Prix Circuit</text>
<text x="1198" y="320" font-size="13" letter-spacing="2" fill="#8794ab">LENGTH</text>
<text x="1198" y="346" font-size="22" font-weight="700" fill="#eef2fb">3.957 km</text>
<text x="1198" y="390" font-size="13" letter-spacing="2" fill="#8794ab">CORNERS</text>
<text x="1198" y="416" font-size="22" font-weight="700" fill="#eef2fb">13</text>
<text x="1198" y="460" font-size="13" letter-spacing="2" fill="#8794ab">NAMED CORNERS</text>
<text x="1198" y="486" font-size="22" font-weight="700" fill="#eef2fb">6</text>
<text x="1198" y="530" font-size="13" letter-spacing="2" fill="#8794ab">DIRECTION</text>
<text x="1198" y="556" font-size="22" font-weight="700" fill="#eef2fb">Clockwise</text>
<text x="1198" y="600" font-size="13" letter-spacing="2" fill="#8794ab">SECTORS</text>
<text x="1198" y="626" font-size="22" font-weight="700" fill="#eef2fb">3</text>
<text x="1198" y="670" font-size="13" letter-spacing="2" fill="#8794ab">COUNTRY</text>
<text x="1198" y="696" font-size="22" font-weight="700" fill="#eef2fb">CA</text>
<text x="1198" y="740" font-size="13" letter-spacing="2" fill="#8794ab">LOCATION</text>
<text x="1198" y="766" font-size="22" font-weight="700" fill="#eef2fb">Bowmanville, Ontario</text>
<text x="1198" y="810" font-size="13" letter-spacing="2" fill="#8794ab">COMPLEXES</text>
<rect x="1198" y="816" width="70" height="24" rx="12" fill="#ff5a36" fill-opacity="0.16" stroke="#ff5a36" stroke-opacity="0.5"/>
<text x="1233" y="833" font-size="12" fill="#eef2fb" text-anchor="middle">Clayton</text>
<rect x="1278" y="816" width="62" height="24" rx="12" fill="#ff5a36" fill-opacity="0.16" stroke="#ff5a36" stroke-opacity="0.5"/>
<text x="1309" y="833" font-size="12" fill="#eef2fb" text-anchor="middle">Turn 2</text>
<rect x="1350" y="816" width="62" height="24" rx="12" fill="#ff5a36" fill-opacity="0.16" stroke="#ff5a36" stroke-opacity="0.5"/>
<text x="1381" y="833" font-size="12" fill="#eef2fb" text-anchor="middle">Quebec</text>
<rect x="1422" y="816" width="62" height="24" rx="12" fill="#ff5a36" fill-opacity="0.16" stroke="#ff5a36" stroke-opacity="0.5"/>
<text x="1453" y="833" font-size="12" fill="#eef2fb" text-anchor="middle">Turn 3</text>
<rect x="1198" y="850" width="62" height="24" rx="12" fill="#ff5a36" fill-opacity="0.16" stroke="#ff5a36" stroke-opacity="0.5"/>
<text x="1229" y="867" font-size="12" fill="#eef2fb" text-anchor="middle">Turn 4</text>
<rect x="1270" y="850" width="102" height="24" rx="12" fill="#ff5a36" fill-opacity="0.16" stroke="#ff5a36" stroke-opacity="0.5"/>
<text x="1321" y="867" font-size="12" fill="#eef2fb" text-anchor="middle">Moss Corner</text>
<rect x="1382" y="850" width="54" height="24" rx="12" fill="#ff5a36" fill-opacity="0.16" stroke="#ff5a36" stroke-opacity="0.5"/>
<text x="1409" y="867" font-size="12" fill="#eef2fb" text-anchor="middle">Esses</text>
<rect x="1446" y="850" width="62" height="24" rx="12" fill="#ff5a36" fill-opacity="0.16" stroke="#ff5a36" stroke-opacity="0.5"/>
<text x="1477" y="867" font-size="12" fill="#eef2fb" text-anchor="middle">Whites</text>
<rect x="1198" y="884" width="70" height="24" rx="12" fill="#ff5a36" fill-opacity="0.16" stroke="#ff5a36" stroke-opacity="0.5"/>
<text x="1233" y="901" font-size="12" fill="#eef2fb" text-anchor="middle">Turn 10</text>
<text x="90" y="966" font-size="12" fill="#566177">Geometry © OpenStreetMap contributors (ODbL) · corner data: Lovely-Sim-Racing + curated · track-atlas</text>
<text x="90" y="942" font-size="12" fill="#8794ab">⚑ start / finish</text>
</svg>