<svg xmlns="http://www.w3.org/2000/svg" width="1600" height="1000" viewBox="0 0 1600 1000" font-family="Helvetica, Arial, sans-serif">
<defs>
      <radialGradient id="bg" cx="38%" cy="34%" r="85%">
        <stop offset="0%" stop-color="#1b2030"/>
        <stop offset="55%" stop-color="#12151f"/>
        <stop offset="100%" stop-color="#0a0c12"/>
      </radialGradient>
      <linearGradient id="accent" x1="0" y1="0" x2="1" y2="1">
        <stop offset="0%" stop-color="#ff5a36"/>
        <stop offset="100%" stop-color="#ffffff"/>
      </linearGradient>
      <filter id="glow" x="-40%" y="-40%" width="180%" height="180%">
        <feGaussianBlur stdDeviation="6" result="b"/>
        <feMerge><feMergeNode in="b"/><feMergeNode in="SourceGraphic"/></feMerge>
      </filter>
    </defs>
<rect width="1600" height="1000" fill="url(#bg)"/>
<line x1="0" y1="0" x2="0" y2="1000" stroke="#ffffff" stroke-opacity="0.025"/>
<line x1="56" y1="0" x2="56" y2="1000" stroke="#ffffff" stroke-opacity="0.025"/>
<line x1="112" y1="0" x2="112" y2="1000" stroke="#ffffff" stroke-opacity="0.025"/>
<line x1="168" y1="0" x2="168" y2="1000" stroke="#ffffff" stroke-opacity="0.025"/>
<line x1="224" y1="0" x2="224" y2="1000" stroke="#ffffff" stroke-opacity="0.025"/>
<line x1="280" y1="0" x2="280" y2="1000" stroke="#ffffff" stroke-opacity="0.025"/>
<line x1="336" y1="0" x2="336" y2="1000" stroke="#ffffff" stroke-opacity="0.025"/>
<line x1="392" y1="0" x2="392" y2="1000" stroke="#ffffff" stroke-opacity="0.025"/>
<line x1="448" y1="0" x2="448" y2="1000" stroke="#ffffff" stroke-opacity="0.025"/>
<line x1="504" y1="0" x2="504" y2="1000" stroke="#ffffff" stroke-opacity="0.025"/>
<line x1="560" y1="0" x2="560" y2="1000" stroke="#ffffff" stroke-opacity="0.025"/>
<line x1="616" y1="0" x2="616" y2="1000" stroke="#ffffff" stroke-opacity="0.025"/>
<line x1="672" y1="0" x2="672" y2="1000" stroke="#ffffff" stroke-opacity="0.025"/>
<line x1="728" y1="0" x2="728" y2="1000" stroke="#ffffff" stroke-opacity="0.025"/>
<line x1="784" y1="0" x2="784" y2="1000" stroke="#ffffff" stroke-opacity="0.025"/>
<line x1="840" y1="0" x2="840" y2="1000" stroke="#ffffff" stroke-opacity="0.025"/>
<line x1="896" y1="0" x2="896" y2="1000" stroke="#ffffff" stroke-opacity="0.025"/>
<line x1="952" y1="0" x2="952" y2="1000" stroke="#ffffff" stroke-opacity="0.025"/>
<line x1="1008" y1="0" x2="1008" y2="1000" stroke="#ffffff" stroke-opacity="0.025"/>
<line x1="1064" y1="0" x2="1064" y2="1000" stroke="#ffffff" stroke-opacity="0.025"/>
<line x1="1120" y1="0" x2="1120" y2="1000" stroke="#ffffff" stroke-opacity="0.025"/>
<line x1="1176" y1="0" x2="1176" y2="1000" stroke="#ffffff" stroke-opacity="0.025"/>
<line x1="1232" y1="0" x2="1232" y2="1000" stroke="#ffffff" stroke-opacity="0.025"/>
<line x1="1288" y1="0" x2="1288" y2="1000" stroke="#ffffff" stroke-opacity="0.025"/>
<line x1="1344" y1="0" x2="1344" y2="1000" stroke="#ffffff" stroke-opacity="0.025"/>
<line x1="1400" y1="0" x2="1400" y2="1000" stroke="#ffffff" stroke-opacity="0.025"/>
<line x1="1456" y1="0" x2="1456" y2="1000" stroke="#ffffff" stroke-opacity="0.025"/>
<line x1="1512" y1="0" x2="1512" y2="1000" stroke="#ffffff" stroke-opacity="0.025"/>
<line x1="1568" y1="0" x2="1568" y2="1000" stroke="#ffffff" stroke-opacity="0.025"/>
<line x1="0" y1="0" x2="1600" y2="0" stroke="#ffffff" stroke-opacity="0.025"/>
<line x1="0" y1="56" x2="1600" y2="56" stroke="#ffffff" stroke-opacity="0.025"/>
<line x1="0" y1="112" x2="1600" y2="112" stroke="#ffffff" stroke-opacity="0.025"/>
<line x1="0" y1="168" x2="1600" y2="168" stroke="#ffffff" stroke-opacity="0.025"/>
<line x1="0" y1="224" x2="1600" y2="224" stroke="#ffffff" stroke-opacity="0.025"/>
<line x1="0" y1="280" x2="1600" y2="280" stroke="#ffffff" stroke-opacity="0.025"/>
<line x1="0" y1="336" x2="1600" y2="336" stroke="#ffffff" stroke-opacity="0.025"/>
<line x1="0" y1="392" x2="1600" y2="392" stroke="#ffffff" stroke-opacity="0.025"/>
<line x1="0" y1="448" x2="1600" y2="448" stroke="#ffffff" stroke-opacity="0.025"/>
<line x1="0" y1="504" x2="1600" y2="504" stroke="#ffffff" stroke-opacity="0.025"/>
<line x1="0" y1="560" x2="1600" y2="560" stroke="#ffffff" stroke-opacity="0.025"/>
<line x1="0" y1="616" x2="1600" y2="616" stroke="#ffffff" stroke-opacity="0.025"/>
<line x1="0" y1="672" x2="1600" y2="672" stroke="#ffffff" stroke-opacity="0.025"/>
<line x1="0" y1="728" x2="1600" y2="728" stroke="#ffffff" stroke-opacity="0.025"/>
<line x1="0" y1="784" x2="1600" y2="784" stroke="#ffffff" stroke-opacity="0.025"/>
<line x1="0" y1="840" x2="1600" y2="840" stroke="#ffffff" stroke-opacity="0.025"/>
<line x1="0" y1="896" x2="1600" y2="896" stroke="#ffffff" stroke-opacity="0.025"/>
<line x1="0" y1="952" x2="1600" y2="952" stroke="#ffffff" stroke-opacity="0.025"/>
<path d="M 717.4,400.2 L 726.8,395.3 L 736.0,390.1 L 745.0,384.6 L 753.8,378.7 L 762.4,372.4 L 770.7,365.9 L 778.8,359.0 L 786.6,351.9 L 796.1,342.4 L 805.1,332.4 L 813.6,322.0 L 821.7,311.2 L 829.1,300.0 L 836.1,288.5 L 842.5,276.7 L 848.3,264.5 L 853.5,252.1 L 858.1,239.5 L 862.1,226.6 L 865.4,213.6 L 868.1,200.4 L 870.2,187.1 L 871.6,173.7 L 872.1,166.5 L 872.4,160.3 L 874.7,111.0 L 875.0,103.3 L 874.9,100.7 L 874.4,98.0 L 873.3,95.8 L 871.5,94.0 L 869.6,92.9 L 867.4,92.3 L 865.3,92.2 L 862.0,92.1 L 859.2,92.3 L 856.4,92.6 L 852.5,93.7 L 850.4,94.3 L 844.0,96.4 L 834.7,100.4 L 829.1,102.6 L 826.1,103.4 L 818.3,105.0 L 809.6,108.8 L 807.7,109.9 L 806.3,111.0 L 805.3,112.3 L 804.1,114.1 L 803.2,116.4 L 802.7,118.7 L 802.6,120.6 L 802.8,122.4 L 803.3,124.3 L 804.1,126.2 L 805.2,128.2 L 806.7,130.3 L 809.4,133.9 L 817.6,145.1 L 820.5,148.8 L 823.6,152.1 L 826.8,155.0 L 829.7,158.2 L 831.5,160.2 L 832.4,161.5 L 832.9,163.3 L 833.2,164.8 L 833.2,166.1 L 833.0,167.5 L 832.5,169.0 L 831.6,170.6 L 830.7,171.8 L 829.3,173.1 L 827.6,174.0 L 825.9,174.6 L 824.5,175.0 L 823.2,175.0 L 822.3,175.0 L 820.7,174.5 L 819.0,173.5 L 817.4,171.8 L 816.3,170.1 L 815.3,168.3 L 814.6,166.0 L 813.6,163.3 L 811.7,159.5 L 809.5,155.8 L 808.0,153.5 L 806.3,151.2 L 803.9,147.8 L 800.1,142.4 L 797.6,138.8 L 795.6,135.7 L 794.1,133.0 L 793.0,130.6 L 792.1,128.1 L 791.6,126.2 L 791.1,123.7 L 790.8,118.7 L 790.7,113.6 L 790.4,109.6 L 789.8,106.0 L 788.8,103.5 L 787.8,101.4 L 786.4,99.3 L 784.4,96.8 L 782.2,94.8 L 779.6,92.9 L 777.5,91.7 L 774.9,90.9 L 772.6,90.4 L 769.9,90.0 L 767.7,90.2 L 765.3,90.8 L 763.8,91.6 L 762.6,92.6 L 760.8,94.9 L 757.8,98.8 L 742.2,119.6 L 719.1,150.7 L 709.9,162.8 L 707.6,165.8 L 704.0,170.6 L 698.3,178.6 L 691.0,188.8 L 682.1,200.9 L 680.8,202.6 L 674.4,211.5 L 667.3,221.2 L 664.3,226.5 L 661.5,232.6 L 660.6,235.1 L 659.9,237.6 L 659.4,239.9 L 659.0,242.2 L 659.1,244.9 L 659.2,246.2 L 659.3,247.5 L 659.7,249.1 L 660.2,250.6 L 660.9,252.4 L 661.9,255.0 L 663.5,257.8 L 664.8,259.6 L 665.7,260.8 L 668.1,263.5 L 670.5,265.8 L 675.5,270.3 L 685.7,279.3 L 688.0,281.5 L 693.1,284.7 L 693.8,287.5 L 695.1,289.7 L 698.8,297.2 L 701.2,303.5 L 702.0,305.4 L 704.3,312.9 L 705.3,319.1 L 705.5,320.6 L 706.2,325.2 L 706.5,331.1 L 706.4,336.8 L 705.3,342.2 L 704.4,344.7 L 703.8,346.5 L 701.6,350.6 L 699.5,353.8 L 696.2,358.3 L 692.6,362.5 L 688.0,367.1 L 685.2,369.7 L 682.7,371.7 L 678.4,375.0 L 675.2,377.4 L 671.5,379.6 L 668.3,381.4 L 663.4,383.6 L 659.6,385.1 L 652.9,387.3 L 646.3,388.5 L 640.5,389.6 L 625.3,391.7 L 608.7,394.1 L 594.5,397.3 L 580.7,400.8 L 574.0,402.9 L 568.7,404.8 L 561.8,407.9 L 555.8,410.9 L 549.8,413.8 L 524.4,426.1 L 516.2,430.1 L 512.7,431.3 L 507.8,433.0 L 502.9,434.1 L 490.7,435.2 L 482.9,436.1 L 468.2,437.7 L 457.4,439.5 L 445.0,442.8 L 426.6,448.0 L 418.9,450.2 L 417.6,450.6 L 410.0,452.9 L 385.6,460.2 L 370.2,464.3 L 362.1,466.2 L 360.5,466.5 L 346.0,469.1 L 316.6,473.3 L 284.5,477.5 L 281.6,478.2 L 279.1,479.4 L 276.8,481.6 L 275.2,484.5 L 274.4,486.7 L 273.7,489.5 L 271.8,501.5 L 271.0,508.3 L 270.3,512.6 L 269.2,516.7 L 266.4,525.7 L 263.2,535.9 L 261.6,541.7 L 260.2,547.6 L 258.6,555.2 L 257.7,562.8 L 256.7,569.4 L 256.6,570.5 L 255.6,585.6 L 255.3,590.2 L 255.1,599.5 L 255.0,605.1 L 255.2,608.4 L 255.6,615.1 L 255.9,621.8 L 256.1,625.1 L 256.6,630.1 L 257.2,638.2 L 257.6,642.1 L 258.9,660.2 L 259.4,664.3 L 260.2,670.7 L 261.0,677.9 L 261.7,683.3 L 262.5,688.3 L 263.2,692.9 L 263.5,694.9 L 264.4,700.2 L 265.2,705.4 L 266.2,711.5 L 266.3,712.5 L 266.7,714.4 L 267.0,716.4 L 267.8,720.7 L 268.2,722.7 L 268.7,725.2 L 270.1,731.6 L 273.6,744.7 L 276.8,756.3 L 277.3,758.1 L 278.7,762.9 L 279.5,765.8 L 281.2,771.6 L 284.1,781.7 L 287.9,793.9 L 288.7,796.7 L 289.0,797.8 L 289.3,798.8 L 292.0,808.9 L 293.8,815.1 L 295.9,822.0 L 300.1,830.5 L 304.0,837.7 L 310.5,848.0 L 312.9,851.8 L 315.3,855.7 L 318.4,860.6 L 320.2,863.1 L 327.9,872.5 L 329.9,875.4 L 331.7,878.4 L 333.2,881.6 L 334.5,885.0 L 335.5,888.4 L 336.2,891.8 L 336.7,895.4 L 336.9,899.1 L 337.8,902.0 L 339.1,903.9 L 340.7,905.7 L 343.2,907.6 L 344.8,908.4 L 346.7,909.1 L 349.4,909.7 L 351.9,909.8 L 356.3,910.0 L 360.6,909.9 L 364.4,909.6 L 368.2,909.1 L 374.7,908.0 L 377.0,907.6 L 379.9,906.7 L 400.7,900.8 L 403.3,899.9 L 405.5,898.7 L 406.9,897.6 L 408.1,896.5 L 409.0,894.8 L 409.9,892.6 L 410.1,890.6 L 409.9,888.4 L 409.2,885.8 L 408.5,883.8 L 407.7,881.9 L 406.7,880.2 L 402.7,877.4 L 398.9,875.1 L 387.0,869.5 L 381.4,866.8 L 376.7,864.1 L 372.5,861.0 L 366.5,855.9 L 361.6,851.1 L 354.3,842.5 L 349.7,836.1 L 345.0,828.5 L 339.7,818.1 L 333.4,804.4 L 326.5,785.4 L 323.5,774.9 L 322.4,767.6 L 322.8,764.5 L 324.1,762.5 L 325.3,761.4 L 326.8,760.5 L 330.7,758.5 L 332.9,757.3 L 336.0,755.3 L 338.7,752.4 L 340.6,749.0 L 340.6,744.6 L 339.5,740.1 L 336.4,727.3 L 332.4,705.3 L 329.8,691.1 L 324.3,661.5 L 322.9,648.4 L 321.8,645.2 L 320.8,643.8 L 319.9,642.6 L 318.0,640.4 L 315.6,638.2 L 302.7,628.6 L 299.7,625.4 L 297.1,620.8 L 296.3,616.9 L 293.7,609.0 L 293.0,594.7 L 293.1,580.1 L 294.3,569.1 L 295.4,562.2 L 296.7,556.0 L 298.7,548.1 L 302.7,534.9 L 304.3,531.1 L 306.4,525.9 L 312.9,512.3 L 315.9,506.8 L 320.1,499.7 L 322.0,497.9 L 323.9,496.4 L 325.5,495.6 L 328.4,494.6 L 378.2,488.2 L 393.3,485.5 L 396.5,485.0 L 398.6,484.6 L 417.9,482.0 L 433.5,479.8 L 442.1,478.6 L 446.9,478.0 L 465.3,475.5 L 476.3,474.0 L 480.4,473.4 L 490.5,472.0 L 509.2,469.2 L 511.3,469.4 L 514.0,470.6 L 519.0,473.3 L 521.6,474.9 L 523.7,475.7 L 525.6,475.9 L 535.0,474.5 L 538.2,474.0 L 539.7,473.2 L 541.5,471.7 L 542.1,470.1 L 542.2,468.2 L 542.0,464.3 L 541.8,459.8 L 542.1,458.2 L 542.7,456.2 L 544.3,453.9 L 567.2,450.1 L 591.2,445.7 L 614.4,441.7 L 636.6,436.1 L 668.0,425.5 L 696.2,410.9 L 713.1,402.4 L 717.4,400.2 Z" fill="none" stroke="#000000" stroke-opacity="0.5" stroke-width="13" stroke-linejoin="round" stroke-linecap="round"/>
<path d="M 717.4,400.2 L 726.8,395.3 L 736.0,390.1 L 745.0,384.6 L 753.8,378.7 L 762.4,372.4 L 770.7,365.9 L 778.8,359.0 L 786.6,351.9 L 796.1,342.4 L 805.1,332.4 L 813.6,322.0 L 821.7,311.2 L 829.1,300.0 L 836.1,288.5 L 842.5,276.7 L 848.3,264.5 L 853.5,252.1 L 858.1,239.5 L 862.1,226.6 L 865.4,213.6 L 868.1,200.4 L 870.2,187.1 L 871.6,173.7 L 872.1,166.5 L 872.4,160.3 L 874.7,111.0 L 875.0,103.3 L 874.9,100.7 L 874.4,98.0 L 873.3,95.8 L 871.5,94.0 L 869.6,92.9 L 867.4,92.3 L 865.3,92.2 L 862.0,92.1 L 859.2,92.3 L 856.4,92.6 L 852.5,93.7 L 850.4,94.3 L 844.0,96.4 L 834.7,100.4 L 829.1,102.6 L 826.1,103.4 L 818.3,105.0 L 809.6,108.8 L 807.7,109.9 L 806.3,111.0 L 805.3,112.3 L 804.1,114.1 L 803.2,116.4 L 802.7,118.7 L 802.6,120.6 L 802.8,122.4 L 803.3,124.3 L 804.1,126.2 L 805.2,128.2 L 806.7,130.3 L 809.4,133.9 L 817.6,145.1 L 820.5,148.8 L 823.6,152.1 L 826.8,155.0 L 829.7,158.2 L 831.5,160.2 L 832.4,161.5 L 832.9,163.3 L 833.2,164.8 L 833.2,166.1 L 833.0,167.5 L 832.5,169.0 L 831.6,170.6 L 830.7,171.8 L 829.3,173.1 L 827.6,174.0 L 825.9,174.6 L 824.5,175.0 L 823.2,175.0 L 822.3,175.0 L 820.7,174.5 L 819.0,173.5 L 817.4,171.8 L 816.3,170.1 L 815.3,168.3 L 814.6,166.0 L 813.6,163.3 L 811.7,159.5 L 809.5,155.8 L 808.0,153.5 L 806.3,151.2 L 803.9,147.8 L 800.1,142.4 L 797.6,138.8 L 795.6,135.7 L 794.1,133.0 L 793.0,130.6 L 792.1,128.1 L 791.6,126.2 L 791.1,123.7 L 790.8,118.7 L 790.7,113.6 L 790.4,109.6 L 789.8,106.0 L 788.8,103.5 L 787.8,101.4 L 786.4,99.3 L 784.4,96.8 L 782.2,94.8 L 779.6,92.9 L 777.5,91.7 L 774.9,90.9 L 772.6,90.4 L 769.9,90.0 L 767.7,90.2 L 765.3,90.8 L 763.8,91.6 L 762.6,92.6 L 760.8,94.9 L 757.8,98.8 L 742.2,119.6 L 719.1,150.7 L 709.9,162.8 L 707.6,165.8 L 704.0,170.6 L 698.3,178.6 L 691.0,188.8 L 682.1,200.9 L 680.8,202.6 L 674.4,211.5 L 667.3,221.2 L 664.3,226.5 L 661.5,232.6 L 660.6,235.1 L 659.9,237.6 L 659.4,239.9 L 659.0,242.2 L 659.1,244.9 L 659.2,246.2 L 659.3,247.5 L 659.7,249.1 L 660.2,250.6 L 660.9,252.4 L 661.9,255.0 L 663.5,257.8 L 664.8,259.6 L 665.7,260.8 L 668.1,263.5 L 670.5,265.8 L 675.5,270.3 L 685.7,279.3 L 688.0,281.5 L 693.1,284.7 L 693.8,287.5 L 695.1,289.7 L 698.8,297.2 L 701.2,303.5 L 702.0,305.4 L 704.3,312.9 L 705.3,319.1 L 705.5,320.6 L 706.2,325.2 L 706.5,331.1 L 706.4,336.8 L 705.3,342.2 L 704.4,344.7 L 703.8,346.5 L 701.6,350.6 L 699.5,353.8 L 696.2,358.3 L 692.6,362.5 L 688.0,367.1 L 685.2,369.7 L 682.7,371.7 L 678.4,375.0 L 675.2,377.4 L 671.5,379.6 L 668.3,381.4 L 663.4,383.6 L 659.6,385.1 L 652.9,387.3 L 646.3,388.5 L 640.5,389.6 L 625.3,391.7 L 608.7,394.1 L 594.5,397.3 L 580.7,400.8 L 574.0,402.9 L 568.7,404.8 L 561.8,407.9 L 555.8,410.9 L 549.8,413.8 L 524.4,426.1 L 516.2,430.1 L 512.7,431.3 L 507.8,433.0 L 502.9,434.1 L 490.7,435.2 L 482.9,436.1 L 468.2,437.7 L 457.4,439.5 L 445.0,442.8 L 426.6,448.0 L 418.9,450.2 L 417.6,450.6 L 410.0,452.9 L 385.6,460.2 L 370.2,464.3 L 362.1,466.2 L 360.5,466.5 L 346.0,469.1 L 316.6,473.3 L 284.5,477.5 L 281.6,478.2 L 279.1,479.4 L 276.8,481.6 L 275.2,484.5 L 274.4,486.7 L 273.7,489.5 L 271.8,501.5 L 271.0,508.3 L 270.3,512.6 L 269.2,516.7 L 266.4,525.7 L 263.2,535.9 L 261.6,541.7 L 260.2,547.6 L 258.6,555.2 L 257.7,562.8 L 256.7,569.4 L 256.6,570.5 L 255.6,585.6 L 255.3,590.2 L 255.1,599.5 L 255.0,605.1 L 255.2,608.4 L 255.6,615.1 L 255.9,621.8 L 256.1,625.1 L 256.6,630.1 L 257.2,638.2 L 257.6,642.1 L 258.9,660.2 L 259.4,664.3 L 260.2,670.7 L 261.0,677.9 L 261.7,683.3 L 262.5,688.3 L 263.2,692.9 L 263.5,694.9 L 264.4,700.2 L 265.2,705.4 L 266.2,711.5 L 266.3,712.5 L 266.7,714.4 L 267.0,716.4 L 267.8,720.7 L 268.2,722.7 L 268.7,725.2 L 270.1,731.6 L 273.6,744.7 L 276.8,756.3 L 277.3,758.1 L 278.7,762.9 L 279.5,765.8 L 281.2,771.6 L 284.1,781.7 L 287.9,793.9 L 288.7,796.7 L 289.0,797.8 L 289.3,798.8 L 292.0,808.9 L 293.8,815.1 L 295.9,822.0 L 300.1,830.5 L 304.0,837.7 L 310.5,848.0 L 312.9,851.8 L 315.3,855.7 L 318.4,860.6 L 320.2,863.1 L 327.9,872.5 L 329.9,875.4 L 331.7,878.4 L 333.2,881.6 L 334.5,885.0 L 335.5,888.4 L 336.2,891.8 L 336.7,895.4 L 336.9,899.1 L 337.8,902.0 L 339.1,903.9 L 340.7,905.7 L 343.2,907.6 L 344.8,908.4 L 346.7,909.1 L 349.4,909.7 L 351.9,909.8 L 356.3,910.0 L 360.6,909.9 L 364.4,909.6 L 368.2,909.1 L 374.7,908.0 L 377.0,907.6 L 379.9,906.7 L 400.7,900.8 L 403.3,899.9 L 405.5,898.7 L 406.9,897.6 L 408.1,896.5 L 409.0,894.8 L 409.9,892.6 L 410.1,890.6 L 409.9,888.4 L 409.2,885.8 L 408.5,883.8 L 407.7,881.9 L 406.7,880.2 L 402.7,877.4 L 398.9,875.1 L 387.0,869.5 L 381.4,866.8 L 376.7,864.1 L 372.5,861.0 L 366.5,855.9 L 361.6,851.1 L 354.3,842.5 L 349.7,836.1 L 345.0,828.5 L 339.7,818.1 L 333.4,804.4 L 326.5,785.4 L 323.5,774.9 L 322.4,767.6 L 322.8,764.5 L 324.1,762.5 L 325.3,761.4 L 326.8,760.5 L 330.7,758.5 L 332.9,757.3 L 336.0,755.3 L 338.7,752.4 L 340.6,749.0 L 340.6,744.6 L 339.5,740.1 L 336.4,727.3 L 332.4,705.3 L 329.8,691.1 L 324.3,661.5 L 322.9,648.4 L 321.8,645.2 L 320.8,643.8 L 319.9,642.6 L 318.0,640.4 L 315.6,638.2 L 302.7,628.6 L 299.7,625.4 L 297.1,620.8 L 296.3,616.9 L 293.7,609.0 L 293.0,594.7 L 293.1,580.1 L 294.3,569.1 L 295.4,562.2 L 296.7,556.0 L 298.7,548.1 L 302.7,534.9 L 304.3,531.1 L 306.4,525.9 L 312.9,512.3 L 315.9,506.8 L 320.1,499.7 L 322.0,497.9 L 323.9,496.4 L 325.5,495.6 L 328.4,494.6 L 378.2,488.2 L 393.3,485.5 L 396.5,485.0 L 398.6,484.6 L 417.9,482.0 L 433.5,479.8 L 442.1,478.6 L 446.9,478.0 L 465.3,475.5 L 476.3,474.0 L 480.4,473.4 L 490.5,472.0 L 509.2,469.2 L 511.3,469.4 L 514.0,470.6 L 519.0,473.3 L 521.6,474.9 L 523.7,475.7 L 525.6,475.9 L 535.0,474.5 L 538.2,474.0 L 539.7,473.2 L 541.5,471.7 L 542.1,470.1 L 542.2,468.2 L 542.0,464.3 L 541.8,459.8 L 542.1,458.2 L 542.7,456.2 L 544.3,453.9 L 567.2,450.1 L 591.2,445.7 L 614.4,441.7 L 636.6,436.1 L 668.0,425.5 L 696.2,410.9 L 713.1,402.4 L 717.4,400.2 Z" fill="none" stroke="#39404f" stroke-width="8.5" stroke-linejoin="round" stroke-linecap="round"/>
<path d="M 717.4,400.2 L 726.8,395.3 L 736.0,390.1 L 745.0,384.6 L 753.8,378.7 L 762.4,372.4 L 770.7,365.9 L 778.8,359.0 L 786.6,351.9 L 796.1,342.4 L 805.1,332.4 L 813.6,322.0 L 821.7,311.2 L 829.1,300.0 L 836.1,288.5 L 842.5,276.7 L 848.3,264.5 L 853.5,252.1 L 858.1,239.5 L 862.1,226.6 L 865.4,213.6 L 868.1,200.4 L 870.2,187.1 L 871.6,173.7 L 872.1,166.5 L 872.4,160.3 L 874.7,111.0 L 875.0,103.3 L 874.9,100.7 L 874.4,98.0 L 873.3,95.8 L 871.5,94.0 L 869.6,92.9 L 867.4,92.3 L 865.3,92.2 L 862.0,92.1 L 859.2,92.3 L 856.4,92.6 L 852.5,93.7 L 850.4,94.3 L 844.0,96.4 L 834.7,100.4 L 829.1,102.6 L 826.1,103.4 L 818.3,105.0 L 809.6,108.8 L 807.7,109.9 L 806.3,111.0 L 805.3,112.3 L 804.1,114.1 L 803.2,116.4 L 802.7,118.7 L 802.6,120.6 L 802.8,122.4 L 803.3,124.3 L 804.1,126.2 L 805.2,128.2 L 806.7,130.3 L 809.4,133.9 L 817.6,145.1 L 820.5,148.8 L 823.6,152.1 L 826.8,155.0 L 829.7,158.2 L 831.5,160.2 L 832.4,161.5 L 832.9,163.3 L 833.2,164.8 L 833.2,166.1 L 833.0,167.5 L 832.5,169.0 L 831.6,170.6 L 830.7,171.8 L 829.3,173.1 L 827.6,174.0 L 825.9,174.6 L 824.5,175.0 L 823.2,175.0 L 822.3,175.0 L 820.7,174.5 L 819.0,173.5 L 817.4,171.8 L 816.3,170.1 L 815.3,168.3 L 814.6,166.0 L 813.6,163.3 L 811.7,159.5 L 809.5,155.8 L 808.0,153.5 L 806.3,151.2 L 803.9,147.8 L 800.1,142.4 L 797.6,138.8 L 795.6,135.7 L 794.1,133.0 L 793.0,130.6 L 792.1,128.1 L 791.6,126.2 L 791.1,123.7 L 790.8,118.7 L 790.7,113.6 L 790.4,109.6 L 789.8,106.0 L 788.8,103.5 L 787.8,101.4 L 786.4,99.3 L 784.4,96.8 L 782.2,94.8 L 779.6,92.9 L 777.5,91.7 L 774.9,90.9 L 772.6,90.4 L 769.9,90.0 L 767.7,90.2 L 765.3,90.8 L 763.8,91.6 L 762.6,92.6 L 760.8,94.9 L 757.8,98.8 L 742.2,119.6 L 719.1,150.7 L 709.9,162.8 L 707.6,165.8 L 704.0,170.6 L 698.3,178.6 L 691.0,188.8 L 682.1,200.9 L 680.8,202.6 L 674.4,211.5 L 667.3,221.2 L 664.3,226.5 L 661.5,232.6 L 660.6,235.1 L 659.9,237.6 L 659.4,239.9 L 659.0,242.2 L 659.1,244.9 L 659.2,246.2 L 659.3,247.5 L 659.7,249.1 L 660.2,250.6 L 660.9,252.4 L 661.9,255.0 L 663.5,257.8 L 664.8,259.6 L 665.7,260.8 L 668.1,263.5 L 670.5,265.8 L 675.5,270.3 L 685.7,279.3 L 688.0,281.5 L 693.1,284.7 L 693.8,287.5 L 695.1,289.7 L 698.8,297.2 L 701.2,303.5 L 702.0,305.4 L 704.3,312.9 L 705.3,319.1 L 705.5,320.6 L 706.2,325.2 L 706.5,331.1 L 706.4,336.8 L 705.3,342.2 L 704.4,344.7 L 703.8,346.5 L 701.6,350.6 L 699.5,353.8 L 696.2,358.3 L 692.6,362.5 L 688.0,367.1 L 685.2,369.7 L 682.7,371.7 L 678.4,375.0 L 675.2,377.4 L 671.5,379.6 L 668.3,381.4 L 663.4,383.6 L 659.6,385.1 L 652.9,387.3 L 646.3,388.5 L 640.5,389.6 L 625.3,391.7 L 608.7,394.1 L 594.5,397.3 L 580.7,400.8 L 574.0,402.9 L 568.7,404.8 L 561.8,407.9 L 555.8,410.9 L 549.8,413.8 L 524.4,426.1 L 516.2,430.1 L 512.7,431.3 L 507.8,433.0 L 502.9,434.1 L 490.7,435.2 L 482.9,436.1 L 468.2,437.7 L 457.4,439.5 L 445.0,442.8 L 426.6,448.0 L 418.9,450.2 L 417.6,450.6 L 410.0,452.9 L 385.6,460.2 L 370.2,464.3 L 362.1,466.2 L 360.5,466.5 L 346.0,469.1 L 316.6,473.3 L 284.5,477.5 L 281.6,478.2 L 279.1,479.4 L 276.8,481.6 L 275.2,484.5 L 274.4,486.7 L 273.7,489.5 L 271.8,501.5 L 271.0,508.3 L 270.3,512.6 L 269.2,516.7 L 266.4,525.7 L 263.2,535.9 L 261.6,541.7 L 260.2,547.6 L 258.6,555.2 L 257.7,562.8 L 256.7,569.4 L 256.6,570.5 L 255.6,585.6 L 255.3,590.2 L 255.1,599.5 L 255.0,605.1 L 255.2,608.4 L 255.6,615.1 L 255.9,621.8 L 256.1,625.1 L 256.6,630.1 L 257.2,638.2 L 257.6,642.1 L 258.9,660.2 L 259.4,664.3 L 260.2,670.7 L 261.0,677.9 L 261.7,683.3 L 262.5,688.3 L 263.2,692.9 L 263.5,694.9 L 264.4,700.2 L 265.2,705.4 L 266.2,711.5 L 266.3,712.5 L 266.7,714.4 L 267.0,716.4 L 267.8,720.7 L 268.2,722.7 L 268.7,725.2 L 270.1,731.6 L 273.6,744.7 L 276.8,756.3 L 277.3,758.1 L 278.7,762.9 L 279.5,765.8 L 281.2,771.6 L 284.1,781.7 L 287.9,793.9 L 288.7,796.7 L 289.0,797.8 L 289.3,798.8 L 292.0,808.9 L 293.8,815.1 L 295.9,822.0 L 300.1,830.5 L 304.0,837.7 L 310.5,848.0 L 312.9,851.8 L 315.3,855.7 L 318.4,860.6 L 320.2,863.1 L 327.9,872.5 L 329.9,875.4 L 331.7,878.4 L 333.2,881.6 L 334.5,885.0 L 335.5,888.4 L 336.2,891.8 L 336.7,895.4 L 336.9,899.1 L 337.8,902.0 L 339.1,903.9 L 340.7,905.7 L 343.2,907.6 L 344.8,908.4 L 346.7,909.1 L 349.4,909.7 L 351.9,909.8 L 356.3,910.0 L 360.6,909.9 L 364.4,909.6 L 368.2,909.1 L 374.7,908.0 L 377.0,907.6 L 379.9,906.7 L 400.7,900.8 L 403.3,899.9 L 405.5,898.7 L 406.9,897.6 L 408.1,896.5 L 409.0,894.8 L 409.9,892.6 L 410.1,890.6 L 409.9,888.4 L 409.2,885.8 L 408.5,883.8 L 407.7,881.9 L 406.7,880.2 L 402.7,877.4 L 398.9,875.1 L 387.0,869.5 L 381.4,866.8 L 376.7,864.1 L 372.5,861.0 L 366.5,855.9 L 361.6,851.1 L 354.3,842.5 L 349.7,836.1 L 345.0,828.5 L 339.7,818.1 L 333.4,804.4 L 326.5,785.4 L 323.5,774.9 L 322.4,767.6 L 322.8,764.5 L 324.1,762.5 L 325.3,761.4 L 326.8,760.5 L 330.7,758.5 L 332.9,757.3 L 336.0,755.3 L 338.7,752.4 L 340.6,749.0 L 340.6,744.6 L 339.5,740.1 L 336.4,727.3 L 332.4,705.3 L 329.8,691.1 L 324.3,661.5 L 322.9,648.4 L 321.8,645.2 L 320.8,643.8 L 319.9,642.6 L 318.0,640.4 L 315.6,638.2 L 302.7,628.6 L 299.7,625.4 L 297.1,620.8 L 296.3,616.9 L 293.7,609.0 L 293.0,594.7 L 293.1,580.1 L 294.3,569.1 L 295.4,562.2 L 296.7,556.0 L 298.7,548.1 L 302.7,534.9 L 304.3,531.1 L 306.4,525.9 L 312.9,512.3 L 315.9,506.8 L 320.1,499.7 L 322.0,497.9 L 323.9,496.4 L 325.5,495.6 L 328.4,494.6 L 378.2,488.2 L 393.3,485.5 L 396.5,485.0 L 398.6,484.6 L 417.9,482.0 L 433.5,479.8 L 442.1,478.6 L 446.9,478.0 L 465.3,475.5 L 476.3,474.0 L 480.4,473.4 L 490.5,472.0 L 509.2,469.2 L 511.3,469.4 L 514.0,470.6 L 519.0,473.3 L 521.6,474.9 L 523.7,475.7 L 525.6,475.9 L 535.0,474.5 L 538.2,474.0 L 539.7,473.2 L 541.5,471.7 L 542.1,470.1 L 542.2,468.2 L 542.0,464.3 L 541.8,459.8 L 542.1,458.2 L 542.7,456.2 L 544.3,453.9 L 567.2,450.1 L 591.2,445.7 L 614.4,441.7 L 636.6,436.1 L 668.0,425.5 L 696.2,410.9 L 713.1,402.4 L 717.4,400.2 Z" fill="none" stroke="#e7edf8" stroke-width="2.6" stroke-linejoin="round" stroke-linecap="round"/>
<path d="M 717.4,400.2 L 726.8,395.3 L 736.0,390.1 L 745.0,384.6 L 753.8,378.7 L 762.4,372.4 L 770.7,365.9 L 778.8,359.0 L 786.6,351.9 L 796.1,342.4 L 805.1,332.4 L 813.6,322.0 L 821.7,311.2 L 829.1,300.0 L 836.1,288.5 L 842.5,276.7 L 848.3,264.5 L 853.5,252.1 L 858.1,239.5 L 862.1,226.6 L 865.4,213.6 L 868.1,200.4 L 870.2,187.1 L 871.6,173.7 L 872.1,166.5 L 872.4,160.3 L 874.7,111.0 L 875.0,103.3 L 874.9,100.7 L 874.4,98.0 L 873.3,95.8 L 871.5,94.0 L 869.6,92.9 L 867.4,92.3 L 865.3,92.2 L 862.0,92.1 L 859.2,92.3 L 856.4,92.6 L 852.5,93.7 L 850.4,94.3 L 844.0,96.4 L 834.7,100.4 L 829.1,102.6 L 826.1,103.4 L 818.3,105.0 L 809.6,108.8 L 807.7,109.9 L 806.3,111.0 L 805.3,112.3 L 804.1,114.1 L 803.2,116.4 L 802.7,118.7 L 802.6,120.6 L 802.8,122.4 L 803.3,124.3 L 804.1,126.2 L 805.2,128.2 L 806.7,130.3 L 809.4,133.9 L 817.6,145.1 L 820.5,148.8 L 823.6,152.1 L 826.8,155.0 L 829.7,158.2 L 831.5,160.2 L 832.4,161.5 L 832.9,163.3 L 833.2,164.8 L 833.2,166.1 L 833.0,167.5 L 832.5,169.0 L 831.6,170.6 L 830.7,171.8 L 829.3,173.1 L 827.6,174.0 L 825.9,174.6 L 824.5,175.0 L 823.2,175.0 L 822.3,175.0 L 820.7,174.5 L 819.0,173.5 L 817.4,171.8 L 816.3,170.1 L 815.3,168.3 L 814.6,166.0 L 813.6,163.3 L 811.7,159.5 L 809.5,155.8 L 808.0,153.5 L 806.3,151.2 L 803.9,147.8 L 800.1,142.4 L 797.6,138.8 L 795.6,135.7 L 794.1,133.0 L 793.0,130.6 L 792.1,128.1 L 791.6,126.2 L 791.1,123.7 L 790.8,118.7 L 790.7,113.6 L 790.4,109.6 L 789.8,106.0 L 788.8,103.5 L 787.8,101.4 L 786.4,99.3 L 784.4,96.8 L 782.2,94.8 L 779.6,92.9 L 777.5,91.7 L 774.9,90.9 L 772.6,90.4 L 769.9,90.0 L 767.7,90.2 L 765.3,90.8 L 763.8,91.6 L 762.6,92.6 L 760.8,94.9 L 757.8,98.8 L 742.2,119.6 L 719.1,150.7 L 709.9,162.8 L 707.6,165.8 L 704.0,170.6 L 698.3,178.6 L 691.0,188.8 L 682.1,200.9 L 680.8,202.6 L 674.4,211.5 L 667.3,221.2 L 664.3,226.5 L 661.5,232.6 L 660.6,235.1 L 659.9,237.6 L 659.4,239.9 L 659.0,242.2 L 659.1,244.9 L 659.2,246.2 L 659.3,247.5 L 659.7,249.1 L 660.2,250.6 L 660.9,252.4 L 661.9,255.0 L 663.5,257.8 L 664.8,259.6 L 665.7,260.8 L 668.1,263.5 L 670.5,265.8 L 675.5,270.3 L 685.7,279.3 L 688.0,281.5 L 693.1,284.7 L 693.8,287.5 L 695.1,289.7 L 698.8,297.2 L 701.2,303.5 L 702.0,305.4 L 704.3,312.9 L 705.3,319.1 L 705.5,320.6 L 706.2,325.2 L 706.5,331.1 L 706.4,336.8 L 705.3,342.2 L 704.4,344.7 L 703.8,346.5 L 701.6,350.6 L 699.5,353.8 L 696.2,358.3 L 692.6,362.5 L 688.0,367.1 L 685.2,369.7 L 682.7,371.7 L 678.4,375.0 L 675.2,377.4 L 671.5,379.6 L 668.3,381.4 L 663.4,383.6 L 659.6,385.1 L 652.9,387.3 L 646.3,388.5 L 640.5,389.6 L 625.3,391.7 L 608.7,394.1 L 594.5,397.3 L 580.7,400.8 L 574.0,402.9 L 568.7,404.8 L 561.8,407.9 L 555.8,410.9 L 549.8,413.8 L 524.4,426.1 L 516.2,430.1 L 512.7,431.3 L 507.8,433.0 L 502.9,434.1 L 490.7,435.2 L 482.9,436.1 L 468.2,437.7 L 457.4,439.5 L 445.0,442.8 L 426.6,448.0 L 418.9,450.2 L 417.6,450.6 L 410.0,452.9 L 385.6,460.2 L 370.2,464.3 L 362.1,466.2 L 360.5,466.5 L 346.0,469.1 L 316.6,473.3 L 284.5,477.5 L 281.6,478.2 L 279.1,479.4 L 276.8,481.6 L 275.2,484.5 L 274.4,486.7 L 273.7,489.5 L 271.8,501.5 L 271.0,508.3 L 270.3,512.6 L 269.2,516.7 L 266.4,525.7 L 263.2,535.9 L 261.6,541.7 L 260.2,547.6 L 258.6,555.2 L 257.7,562.8 L 256.7,569.4 L 256.6,570.5 L 255.6,585.6 L 255.3,590.2 L 255.1,599.5 L 255.0,605.1 L 255.2,608.4 L 255.6,615.1 L 255.9,621.8 L 256.1,625.1 L 256.6,630.1 L 257.2,638.2 L 257.6,642.1 L 258.9,660.2 L 259.4,664.3 L 260.2,670.7 L 261.0,677.9 L 261.7,683.3 L 262.5,688.3 L 263.2,692.9 L 263.5,694.9 L 264.4,700.2 L 265.2,705.4 L 266.2,711.5 L 266.3,712.5 L 266.7,714.4 L 267.0,716.4 L 267.8,720.7 L 268.2,722.7 L 268.7,725.2 L 270.1,731.6 L 273.6,744.7 L 276.8,756.3 L 277.3,758.1 L 278.7,762.9 L 279.5,765.8 L 281.2,771.6 L 284.1,781.7 L 287.9,793.9 L 288.7,796.7 L 289.0,797.8 L 289.3,798.8 L 292.0,808.9 L 293.8,815.1 L 295.9,822.0 L 300.1,830.5 L 304.0,837.7 L 310.5,848.0 L 312.9,851.8 L 315.3,855.7 L 318.4,860.6 L 320.2,863.1 L 327.9,872.5 L 329.9,875.4 L 331.7,878.4 L 333.2,881.6 L 334.5,885.0 L 335.5,888.4 L 336.2,891.8 L 336.7,895.4 L 336.9,899.1 L 337.8,902.0 L 339.1,903.9 L 340.7,905.7 L 343.2,907.6 L 344.8,908.4 L 346.7,909.1 L 349.4,909.7 L 351.9,909.8 L 356.3,910.0 L 360.6,909.9 L 364.4,909.6 L 368.2,909.1 L 374.7,908.0 L 377.0,907.6 L 379.9,906.7 L 400.7,900.8 L 403.3,899.9 L 405.5,898.7 L 406.9,897.6 L 408.1,896.5 L 409.0,894.8 L 409.9,892.6 L 410.1,890.6 L 409.9,888.4 L 409.2,885.8 L 408.5,883.8 L 407.7,881.9 L 406.7,880.2 L 402.7,877.4 L 398.9,875.1 L 387.0,869.5 L 381.4,866.8 L 376.7,864.1 L 372.5,861.0 L 366.5,855.9 L 361.6,851.1 L 354.3,842.5 L 349.7,836.1 L 345.0,828.5 L 339.7,818.1 L 333.4,804.4 L 326.5,785.4 L 323.5,774.9 L 322.4,767.6 L 322.8,764.5 L 324.1,762.5 L 325.3,761.4 L 326.8,760.5 L 330.7,758.5 L 332.9,757.3 L 336.0,755.3 L 338.7,752.4 L 340.6,749.0 L 340.6,744.6 L 339.5,740.1 L 336.4,727.3 L 332.4,705.3 L 329.8,691.1 L 324.3,661.5 L 322.9,648.4 L 321.8,645.2 L 320.8,643.8 L 319.9,642.6 L 318.0,640.4 L 315.6,638.2 L 302.7,628.6 L 299.7,625.4 L 297.1,620.8 L 296.3,616.9 L 293.7,609.0 L 293.0,594.7 L 293.1,580.1 L 294.3,569.1 L 295.4,562.2 L 296.7,556.0 L 298.7,548.1 L 302.7,534.9 L 304.3,531.1 L 306.4,525.9 L 312.9,512.3 L 315.9,506.8 L 320.1,499.7 L 322.0,497.9 L 323.9,496.4 L 325.5,495.6 L 328.4,494.6 L 378.2,488.2 L 393.3,485.5 L 396.5,485.0 L 398.6,484.6 L 417.9,482.0 L 433.5,479.8 L 442.1,478.6 L 446.9,478.0 L 465.3,475.5 L 476.3,474.0 L 480.4,473.4 L 490.5,472.0 L 509.2,469.2 L 511.3,469.4 L 514.0,470.6 L 519.0,473.3 L 521.6,474.9 L 523.7,475.7 L 525.6,475.9 L 535.0,474.5 L 538.2,474.0 L 539.7,473.2 L 541.5,471.7 L 542.1,470.1 L 542.2,468.2 L 542.0,464.3 L 541.8,459.8 L 542.1,458.2 L 542.7,456.2 L 544.3,453.9 L 567.2,450.1 L 591.2,445.7 L 614.4,441.7 L 636.6,436.1 L 668.0,425.5 L 696.2,410.9 L 713.1,402.4 L 717.4,400.2 Z" fill="none" stroke="#ff5a36" stroke-opacity="0.55" stroke-width="1.2" stroke-linejoin="round" filter="url(#glow)"/>
<circle cx="717.4" cy="400.2" r="13" fill="none" stroke="#ffffff" stroke-width="3"/>
<rect x="713.4" y="378.2" width="8" height="18" fill="#ffffff"/>
<circle cx="845.3" cy="270.7" r="7" fill="#ff5a36" stroke="#0a0c12" stroke-width="2.5" filter="url(#glow)"/>
<text x="845.3" y="274.1" font-size="9" font-weight="700" fill="#0a0c12" text-anchor="middle">1</text>
<circle cx="806.6" cy="110.7" r="7" fill="#ff5a36" stroke="#0a0c12" stroke-width="2.5" filter="url(#glow)"/>
<text x="806.6" y="114.1" font-size="9" font-weight="700" fill="#0a0c12" text-anchor="middle">2</text>
<circle cx="753.0" cy="105.1" r="7" fill="#ff5a36" stroke="#0a0c12" stroke-width="2.5" filter="url(#glow)"/>
<text x="753.0" y="108.5" font-size="9" font-weight="700" fill="#0a0c12" text-anchor="middle">3</text>
<circle cx="691.0" cy="188.7" r="7" fill="#ff5a36" stroke="#0a0c12" stroke-width="2.5" filter="url(#glow)"/>
<text x="691.0" y="192.1" font-size="9" font-weight="700" fill="#0a0c12" text-anchor="middle">4</text>
<circle cx="690.9" cy="364.2" r="7" fill="#ff5a36" stroke="#0a0c12" stroke-width="2.5" filter="url(#glow)"/>
<text x="690.9" y="367.6" font-size="9" font-weight="700" fill="#0a0c12" text-anchor="middle">5</text>
<circle cx="589.9" cy="398.4" r="7" fill="#ff5a36" stroke="#0a0c12" stroke-width="2.5" filter="url(#glow)"/>
<text x="589.9" y="401.8" font-size="9" font-weight="700" fill="#0a0c12" text-anchor="middle">6</text>
<circle cx="526.9" cy="424.9" r="7" fill="#ff5a36" stroke="#0a0c12" stroke-width="2.5" filter="url(#glow)"/>
<text x="526.9" y="428.3" font-size="9" font-weight="700" fill="#0a0c12" text-anchor="middle">7</text>
<circle cx="453.4" cy="440.6" r="7" fill="#ff5a36" stroke="#0a0c12" stroke-width="2.5" filter="url(#glow)"/>
<text x="453.4" y="444.0" font-size="9" font-weight="700" fill="#0a0c12" text-anchor="middle">8</text>
<circle cx="258.2" cy="558.2" r="7" fill="#ff5a36" stroke="#0a0c12" stroke-width="2.5" filter="url(#glow)"/>
<text x="258.2" y="561.6" font-size="9" font-weight="700" fill="#0a0c12" text-anchor="middle">9</text>
<circle cx="308.7" cy="845.2" r="7" fill="#ff5a36" stroke="#0a0c12" stroke-width="2.5" filter="url(#glow)"/>
<text x="308.7" y="848.6" font-size="9" font-weight="700" fill="#0a0c12" text-anchor="middle">10</text>
<circle cx="316.9" cy="858.2" r="7" fill="#ff5a36" stroke="#0a0c12" stroke-width="2.5" filter="url(#glow)"/>
<text x="316.9" y="861.6" font-size="9" font-weight="700" fill="#0a0c12" text-anchor="middle">11</text>
<circle cx="345.7" cy="829.6" r="7" fill="#ff5a36" stroke="#0a0c12" stroke-width="2.5" filter="url(#glow)"/>
<text x="345.7" y="833.0" font-size="9" font-weight="700" fill="#0a0c12" text-anchor="middle">12</text>
<circle cx="334.3" cy="715.4" r="7" fill="#ff5a36" stroke="#0a0c12" stroke-width="2.5" filter="url(#glow)"/>
<text x="334.3" y="718.8" font-size="9" font-weight="700" fill="#0a0c12" text-anchor="middle">13</text>
<circle cx="327.6" cy="679.1" r="7" fill="#ff5a36" stroke="#0a0c12" stroke-width="2.5" filter="url(#glow)"/>
<text x="327.6" y="682.5" font-size="9" font-weight="700" fill="#0a0c12" text-anchor="middle">14</text>
<circle cx="293.0" cy="593.3" r="7" fill="#ff5a36" stroke="#0a0c12" stroke-width="2.5" filter="url(#glow)"/>
<text x="293.0" y="596.7" font-size="9" font-weight="700" fill="#0a0c12" text-anchor="middle">15</text>
<circle cx="296.0" cy="559.4" r="7" fill="#ff5a36" stroke="#0a0c12" stroke-width="2.5" filter="url(#glow)"/>
<text x="296.0" y="562.8" font-size="9" font-weight="700" fill="#0a0c12" text-anchor="middle">16</text>
<circle cx="418.8" cy="481.8" r="7" fill="#ff5a36" stroke="#0a0c12" stroke-width="2.5" filter="url(#glow)"/>
<text x="418.8" y="485.2" font-size="9" font-weight="700" fill="#0a0c12" text-anchor="middle">17</text>
<circle cx="489.7" cy="472.2" r="7" fill="#ff5a36" stroke="#0a0c12" stroke-width="2.5" filter="url(#glow)"/>
<text x="489.7" y="475.6" font-size="9" font-weight="700" fill="#0a0c12" text-anchor="middle">18</text>
<circle cx="511.5" cy="469.5" r="7" fill="#ff5a36" stroke="#0a0c12" stroke-width="2.5" filter="url(#glow)"/>
<text x="511.5" y="472.9" font-size="9" font-weight="700" fill="#0a0c12" text-anchor="middle">19</text>
<line x1="845.3" y1="270.7" x2="889.8" y2="243.7" stroke="#ff5a36" stroke-opacity="0.45" stroke-width="1.3"/>
<text x="897.8" y="247.7" font-size="15" font-weight="600" fill="#eef2fb" text-anchor="start">Sainte Devote</text>
<line x1="806.6" y1="110.7" x2="838.2" y2="90.5" stroke="#ff5a36" stroke-opacity="0.45" stroke-width="1.3"/>
<text x="846.2" y="94.5" font-size="15" font-weight="600" fill="#eef2fb" text-anchor="start">Beau Rivage</text>
<line x1="753.0" y1="105.1" x2="779.8" y2="60.5" stroke="#ff5a36" stroke-opacity="0.45" stroke-width="1.3"/>
<text x="787.8" y="64.5" font-size="15" font-weight="600" fill="#eef2fb" text-anchor="start">Massenet</text>
<line x1="691.0" y1="188.7" x2="716.3" y2="143.3" stroke="#ff5a36" stroke-opacity="0.45" stroke-width="1.3"/>
<text x="724.3" y="147.3" font-size="15" font-weight="600" fill="#eef2fb" text-anchor="start">Casino</text>
<line x1="690.9" y1="364.2" x2="735.4" y2="337.2" stroke="#ff5a36" stroke-opacity="0.45" stroke-width="1.3"/>
<text x="743.4" y="341.2" font-size="15" font-weight="600" fill="#eef2fb" text-anchor="start">Mirabeau Haute</text>
<line x1="589.9" y1="398.4" x2="623.2" y2="367.2" stroke="#ff5a36" stroke-opacity="0.45" stroke-width="1.3"/>
<text x="631.2" y="371.2" font-size="15" font-weight="600" fill="#eef2fb" text-anchor="start">Grand Hotel Hairpin</text>
<line x1="526.9" y1="424.9" x2="501.6" y2="379.5" stroke="#ff5a36" stroke-opacity="0.45" stroke-width="1.3"/>
<text x="493.6" y="383.5" font-size="15" font-weight="600" fill="#eef2fb" text-anchor="end">Mirabeau Bas</text>
<line x1="453.4" y1="440.6" x2="402.0" y2="432.8" stroke="#ff5a36" stroke-opacity="0.45" stroke-width="1.3"/>
<text x="394.0" y="436.8" font-size="15" font-weight="600" fill="#eef2fb" text-anchor="end">Portier</text>
<line x1="258.2" y1="558.2" x2="209.4" y2="578.7" stroke="#ff5a36" stroke-opacity="0.45" stroke-width="1.3"/>
<text x="201.4" y="582.7" font-size="15" font-weight="600" fill="#eef2fb" text-anchor="end">Tunnel</text>
<line x1="308.7" y1="845.2" x2="281.9" y2="905.6" stroke="#ff5a36" stroke-opacity="0.45" stroke-width="1.3"/>
<text x="273.9" y="909.6" font-size="15" font-weight="600" fill="#eef2fb" text-anchor="end">Nouvelle Chicane</text>
<line x1="316.9" y1="858.2" x2="291.5" y2="935.6" stroke="#ff5a36" stroke-opacity="0.45" stroke-width="1.3"/>
<text x="283.5" y="939.6" font-size="15" font-weight="600" fill="#eef2fb" text-anchor="end">Nouvelle Chicane</text>
<line x1="345.7" y1="829.6" x2="321.5" y2="875.6" stroke="#ff5a36" stroke-opacity="0.45" stroke-width="1.3"/>
<text x="313.5" y="879.6" font-size="15" font-weight="600" fill="#eef2fb" text-anchor="end">Tabac</text>
<line x1="334.3" y1="715.4" x2="301.8" y2="756.0" stroke="#ff5a36" stroke-opacity="0.45" stroke-width="1.3"/>
<text x="293.8" y="760.0" font-size="15" font-weight="600" fill="#eef2fb" text-anchor="end">Virage Louis Chiron</text>
<line x1="327.6" y1="679.1" x2="291.6" y2="716.6" stroke="#ff5a36" stroke-opacity="0.45" stroke-width="1.3"/>
<text x="283.6" y="720.6" font-size="15" font-weight="600" fill="#eef2fb" text-anchor="end">Pool</text>
<line x1="293.0" y1="593.3" x2="247.6" y2="638.7" stroke="#ff5a36" stroke-opacity="0.45" stroke-width="1.3"/>
<text x="239.6" y="642.7" font-size="15" font-weight="600" fill="#eef2fb" text-anchor="end">Pool</text>
<line x1="296.0" y1="559.4" x2="248.2" y2="608.7" stroke="#ff5a36" stroke-opacity="0.45" stroke-width="1.3"/>
<text x="240.2" y="612.7" font-size="15" font-weight="600" fill="#eef2fb" text-anchor="end">Pool</text>
<line x1="418.8" y1="481.8" x2="368.0" y2="548.7" stroke="#ff5a36" stroke-opacity="0.45" stroke-width="1.3"/>
<text x="360.0" y="552.7" font-size="15" font-weight="600" fill="#eef2fb" text-anchor="end">La Rascasse</text>
<line x1="489.7" y1="472.2" x2="440.4" y2="488.7" stroke="#ff5a36" stroke-opacity="0.45" stroke-width="1.3"/>
<text x="432.4" y="492.7" font-size="15" font-weight="600" fill="#eef2fb" text-anchor="end">Anthony Noghues</text>
<line x1="511.5" y1="469.5" x2="464.7" y2="518.7" stroke="#ff5a36" stroke-opacity="0.45" stroke-width="1.3"/>
<text x="456.7" y="522.7" font-size="15" font-weight="600" fill="#eef2fb" text-anchor="end">Anthony Noghues</text>
<text x="90" y="64" font-size="20" letter-spacing="5" fill="#ff5a36" font-weight="700">TRACK ATLAS</text>
<text x="90" y="108" font-size="42" font-weight="800" fill="#ffffff">CIRCUIT DE MONACO</text>
<text x="90" y="136" font-size="16" fill="#9aa6bd">Monte Carlo</text>
<rect x="1170" y="200" width="360" height="710" rx="16" fill="#ffffff" fill-opacity="0.04" stroke="#ff5a36" stroke-opacity="0.5"/>
<text x="1198" y="250" font-size="13" letter-spacing="2" fill="#8794ab">LAYOUT</text>
<text x="1198" y="276" font-size="22" font-weight="700" fill="#eef2fb">Grand Prix Circuit</text>
<text x="1198" y="320" font-size="13" letter-spacing="2" fill="#8794ab">LENGTH</text>
<text x="1198" y="346" font-size="22" font-weight="700" fill="#eef2fb">3.337 km</text>
<text x="1198" y="390" font-size="13" letter-spacing="2" fill="#8794ab">CORNERS</text>
<text x="1198" y="416" font-size="22" font-weight="700" fill="#eef2fb">19</text>
<text x="1198" y="460" font-size="13" letter-spacing="2" fill="#8794ab">NAMED CORNERS</text>
<text x="1198" y="486" font-size="22" font-weight="700" fill="#eef2fb">19</text>
<text x="1198" y="530" font-size="13" letter-spacing="2" fill="#8794ab">DIRECTION</text>
<text x="1198" y="556" font-size="22" font-weight="700" fill="#eef2fb">Clockwise</text>
<text x="1198" y="600" font-size="13" letter-spacing="2" fill="#8794ab">SECTORS</text>
<text x="1198" y="626" font-size="22" font-weight="700" fill="#eef2fb">3</text>
<text x="1198" y="670" font-size="13" letter-spacing="2" fill="#8794ab">COUNTRY</text>
<text x="1198" y="696" font-size="22" font-weight="700" fill="#eef2fb">MC</text>
<text x="1198" y="740" font-size="13" letter-spacing="2" fill="#8794ab">LOCATION</text>
<text x="1198" y="766" font-size="22" font-weight="700" fill="#eef2fb">Monte Carlo</text>
<text x="90" y="966" font-size="12" fill="#566177">Geometry © OpenStreetMap contributors (ODbL) · corner data: Lovely-Sim-Racing + curated · track-atlas</text>
<text x="90" y="942" font-size="12" fill="#8794ab">⚑ start / finish</text>
</svg>