<svg xmlns="http://www.w3.org/2000/svg" width="1600" height="1000" viewBox="0 0 1600 1000" font-family="Helvetica, Arial, sans-serif">
<defs>
      <radialGradient id="bg" cx="38%" cy="34%" r="85%">
        <stop offset="0%" stop-color="#1b2030"/>
        <stop offset="55%" stop-color="#12151f"/>
        <stop offset="100%" stop-color="#0a0c12"/>
      </radialGradient>
      <linearGradient id="accent" x1="0" y1="0" x2="1" y2="1">
        <stop offset="0%" stop-color="#ff5a36"/>
        <stop offset="100%" stop-color="#ffffff"/>
      </linearGradient>
      <filter id="glow" x="-40%" y="-40%" width="180%" height="180%">
        <feGaussianBlur stdDeviation="6" result="b"/>
        <feMerge><feMergeNode in="b"/><feMergeNode in="SourceGraphic"/></feMerge>
      </filter>
    </defs>
<rect width="1600" height="1000" fill="url(#bg)"/>
<path d="M 429.9,884.3 L 443.4,753.8 L 456.1,631.1 L 464.4,564.1 L 465.1,559.6 L 465.4,558.3 L 465.8,557.1 L 466.2,556.2 L 466.9,554.9 L 467.5,554.1 L 468.2,553.2 L 469.0,552.5 L 469.9,551.7 L 471.2,550.7 L 472.9,549.4 L 474.8,548.0 L 476.9,546.3 L 477.9,545.3 L 478.9,544.4 L 479.6,543.6 L 480.3,542.9 L 481.5,541.5 L 482.6,540.0 L 483.7,538.4 L 484.8,536.3 L 486.0,534.0 L 486.8,532.0 L 487.6,529.7 L 488.0,528.1 L 488.4,526.3 L 488.8,524.0 L 489.0,521.6 L 489.1,518.2 L 489.0,516.1 L 488.9,514.5 L 487.9,505.4 L 487.7,503.7 L 487.6,502.2 L 487.7,500.7 L 487.9,499.3 L 488.2,498.4 L 488.5,497.8 L 489.0,497.1 L 489.6,496.2 L 490.4,495.3 L 491.5,494.2 L 492.1,493.7 L 574.1,421.9 L 580.5,416.4 L 635.3,368.4 L 645.1,359.8 L 646.7,358.4 L 648.4,357.0 L 650.7,355.2 L 653.7,352.8 L 656.5,350.7 L 659.4,348.6 L 661.5,347.2 L 663.7,345.7 L 669.0,342.2 L 672.4,340.1 L 675.6,338.2 L 772.0,284.4 L 773.3,283.7 L 774.5,283.0 L 775.1,282.6 L 775.5,282.2 L 776.4,281.5 L 777.2,280.8 L 777.9,280.0 L 778.2,279.5 L 778.6,279.0 L 778.9,278.4 L 779.3,277.3 L 779.7,276.1 L 779.9,274.9 L 780.1,273.6 L 780.1,272.4 L 780.0,270.5 L 776.7,234.6 L 772.9,193.9 L 772.7,191.8 L 772.4,189.5 L 772.0,187.4 L 771.7,186.2 L 771.3,185.0 L 770.9,184.0 L 770.5,183.0 L 770.2,182.3 L 769.5,181.1 L 768.8,179.9 L 768.1,178.8 L 767.3,177.7 L 766.2,176.4 L 765.0,175.1 L 763.9,174.1 L 762.8,173.2 L 761.9,172.5 L 760.7,171.8 L 759.0,170.8 L 757.3,170.1 L 756.6,169.8 L 755.5,169.3 L 754.4,169.0 L 753.5,168.7 L 752.5,168.5 L 751.4,168.3 L 750.4,168.2 L 749.3,168.1 L 748.2,168.0 L 746.7,168.0 L 745.2,168.1 L 743.3,168.4 L 741.6,168.8 L 739.9,169.3 L 706.5,180.2 L 668.1,192.9 L 666.1,193.5 L 663.8,194.2 L 661.4,194.7 L 658.7,195.3 L 656.9,195.7 L 655.0,196.1 L 652.4,196.6 L 649.8,197.1 L 645.6,197.8 L 643.9,198.1 L 643.1,198.3 L 642.3,198.5 L 641.7,198.8 L 641.2,199.1 L 640.7,199.6 L 640.3,200.2 L 639.9,200.7 L 639.6,201.4 L 639.3,202.2 L 639.0,203.1 L 637.3,209.0 L 637.0,209.7 L 636.8,210.4 L 636.4,211.0 L 636.1,211.6 L 635.8,212.0 L 635.4,212.4 L 634.9,212.8 L 634.5,213.1 L 633.8,213.3 L 633.0,213.5 L 632.2,213.7 L 631.2,213.8 L 630.1,213.9 L 615.1,214.6 L 600.2,215.3 L 587.8,215.9 L 560.0,218.0 L 505.9,222.3 L 493.2,223.8 L 484.5,225.4 L 477.4,227.1 L 469.5,229.3 L 460.8,232.2 L 450.4,236.9 L 442.8,241.0 L 437.7,244.2 L 432.5,247.8 L 426.9,252.1 L 422.2,256.1 L 417.6,260.6 L 413.3,265.4 L 409.1,270.7 L 404.2,278.0 L 400.0,285.9 L 396.2,294.7 L 393.9,301.5 L 392.5,306.7 L 390.7,316.2 L 390.3,319.6 L 386.8,364.7 L 386.9,373.2 L 387.5,379.8 L 388.4,385.7 L 389.9,392.9 L 395.7,415.2 L 396.3,417.5 L 397.1,421.1 L 397.3,422.0 L 397.3,422.9 L 397.3,423.8 L 397.1,424.8 L 396.7,425.8 L 396.2,426.6 L 395.7,427.2 L 395.0,427.8 L 394.3,428.1 L 393.4,428.4 L 392.4,428.4 L 391.4,428.2 L 390.4,427.9 L 387.8,427.0 L 386.8,426.7 L 385.7,426.6 L 384.6,426.8 L 383.7,427.3 L 383.0,427.8 L 382.5,428.5 L 382.2,429.3 L 382.1,430.1 L 382.0,431.0 L 371.0,554.6 L 370.7,558.8 L 369.1,577.0 L 365.6,616.5 L 362.8,639.7 L 352.0,745.1 L 351.1,755.8 L 350.3,766.2 L 349.9,780.9 L 350.0,796.6 L 350.7,829.9 L 350.6,836.1 L 350.9,842.4 L 351.3,847.3 L 351.8,851.1 L 352.2,854.2 L 352.6,856.8 L 353.1,859.3 L 354.1,863.2 L 354.6,865.1 L 355.1,866.8 L 355.7,868.6 L 356.3,870.4 L 356.9,872.0 L 357.6,873.7 L 358.4,875.8 L 359.1,877.4 L 359.8,878.9 L 360.5,880.2 L 361.3,881.6 L 362.0,882.8 L 363.1,884.6 L 363.8,885.7 L 365.7,888.6 L 367.4,890.8 L 369.2,892.9 L 370.8,894.6 L 372.5,896.4 L 374.3,898.0 L 375.5,899.0 L 376.8,900.1 L 377.7,900.8 L 379.3,901.9 L 380.6,902.8 L 382.0,903.6 L 383.6,904.5 L 385.2,905.4 L 386.8,906.1 L 389.1,907.1 L 391.6,907.9 L 393.0,908.4 L 394.3,908.8 L 396.1,909.3 L 397.0,909.5 L 397.9,909.7 L 398.9,909.8 L 400.0,909.9 L 401.2,910.0 L 402.0,910.0 L 403.0,910.0 L 404.2,909.9 L 405.9,909.7 L 407.0,909.5 L 408.2,909.2 L 410.4,908.6 L 412.6,907.8 L 413.6,907.4 L 414.7,906.9 L 415.6,906.4 L 416.6,905.8 L 417.9,905.1 L 419.2,904.2 L 420.6,903.0 L 421.7,902.1 L 423.0,900.7 L 424.0,899.4 L 425.1,898.0 L 426.2,896.4 L 427.0,895.0 L 427.7,893.7 L 428.2,892.7 L 428.7,891.3 L 429.0,890.1 L 429.3,888.6 L 429.6,887.1 L 429.9,884.3 Z" fill="none" stroke="#000000" stroke-opacity="0.5" stroke-width="13" stroke-linejoin="round" stroke-linecap="round"/>
<path d="M 429.9,884.3 L 443.4,753.8 L 456.1,631.1 L 464.4,564.1 L 465.1,559.6 L 465.4,558.3 L 465.8,557.1 L 466.2,556.2 L 466.9,554.9 L 467.5,554.1 L 468.2,553.2 L 469.0,552.5 L 469.9,551.7 L 471.2,550.7 L 472.9,549.4 L 474.8,548.0 L 476.9,546.3 L 477.9,545.3 L 478.9,544.4 L 479.6,543.6 L 480.3,542.9 L 481.5,541.5 L 482.6,540.0 L 483.7,538.4 L 484.8,536.3 L 486.0,534.0 L 486.8,532.0 L 487.6,529.7 L 488.0,528.1 L 488.4,526.3 L 488.8,524.0 L 489.0,521.6 L 489.1,518.2 L 489.0,516.1 L 488.9,514.5 L 487.9,505.4 L 487.7,503.7 L 487.6,502.2 L 487.7,500.7 L 487.9,499.3 L 488.2,498.4 L 488.5,497.8 L 489.0,497.1 L 489.6,496.2 L 490.4,495.3 L 491.5,494.2 L 492.1,493.7 L 574.1,421.9 L 580.5,416.4 L 635.3,368.4 L 645.1,359.8 L 646.7,358.4 L 648.4,357.0 L 650.7,355.2 L 653.7,352.8 L 656.5,350.7 L 659.4,348.6 L 661.5,347.2 L 663.7,345.7 L 669.0,342.2 L 672.4,340.1 L 675.6,338.2 L 772.0,284.4 L 773.3,283.7 L 774.5,283.0 L 775.1,282.6 L 775.5,282.2 L 776.4,281.5 L 777.2,280.8 L 777.9,280.0 L 778.2,279.5 L 778.6,279.0 L 778.9,278.4 L 779.3,277.3 L 779.7,276.1 L 779.9,274.9 L 780.1,273.6 L 780.1,272.4 L 780.0,270.5 L 776.7,234.6 L 772.9,193.9 L 772.7,191.8 L 772.4,189.5 L 772.0,187.4 L 771.7,186.2 L 771.3,185.0 L 770.9,184.0 L 770.5,183.0 L 770.2,182.3 L 769.5,181.1 L 768.8,179.9 L 768.1,178.8 L 767.3,177.7 L 766.2,176.4 L 765.0,175.1 L 763.9,174.1 L 762.8,173.2 L 761.9,172.5 L 760.7,171.8 L 759.0,170.8 L 757.3,170.1 L 756.6,169.8 L 755.5,169.3 L 754.4,169.0 L 753.5,168.7 L 752.5,168.5 L 751.4,168.3 L 750.4,168.2 L 749.3,168.1 L 748.2,168.0 L 746.7,168.0 L 745.2,168.1 L 743.3,168.4 L 741.6,168.8 L 739.9,169.3 L 706.5,180.2 L 668.1,192.9 L 666.1,193.5 L 663.8,194.2 L 661.4,194.7 L 658.7,195.3 L 656.9,195.7 L 655.0,196.1 L 652.4,196.6 L 649.8,197.1 L 645.6,197.8 L 643.9,198.1 L 643.1,198.3 L 642.3,198.5 L 641.7,198.8 L 641.2,199.1 L 640.7,199.6 L 640.3,200.2 L 639.9,200.7 L 639.6,201.4 L 639.3,202.2 L 639.0,203.1 L 637.3,209.0 L 637.0,209.7 L 636.8,210.4 L 636.4,211.0 L 636.1,211.6 L 635.8,212.0 L 635.4,212.4 L 634.9,212.8 L 634.5,213.1 L 633.8,213.3 L 633.0,213.5 L 632.2,213.7 L 631.2,213.8 L 630.1,213.9 L 615.1,214.6 L 600.2,215.3 L 587.8,215.9 L 560.0,218.0 L 505.9,222.3 L 493.2,223.8 L 484.5,225.4 L 477.4,227.1 L 469.5,229.3 L 460.8,232.2 L 450.4,236.9 L 442.8,241.0 L 437.7,244.2 L 432.5,247.8 L 426.9,252.1 L 422.2,256.1 L 417.6,260.6 L 413.3,265.4 L 409.1,270.7 L 404.2,278.0 L 400.0,285.9 L 396.2,294.7 L 393.9,301.5 L 392.5,306.7 L 390.7,316.2 L 390.3,319.6 L 386.8,364.7 L 386.9,373.2 L 387.5,379.8 L 388.4,385.7 L 389.9,392.9 L 395.7,415.2 L 396.3,417.5 L 397.1,421.1 L 397.3,422.0 L 397.3,422.9 L 397.3,423.8 L 397.1,424.8 L 396.7,425.8 L 396.2,426.6 L 395.7,427.2 L 395.0,427.8 L 394.3,428.1 L 393.4,428.4 L 392.4,428.4 L 391.4,428.2 L 390.4,427.9 L 387.8,427.0 L 386.8,426.7 L 385.7,426.6 L 384.6,426.8 L 383.7,427.3 L 383.0,427.8 L 382.5,428.5 L 382.2,429.3 L 382.1,430.1 L 382.0,431.0 L 371.0,554.6 L 370.7,558.8 L 369.1,577.0 L 365.6,616.5 L 362.8,639.7 L 352.0,745.1 L 351.1,755.8 L 350.3,766.2 L 349.9,780.9 L 350.0,796.6 L 350.7,829.9 L 350.6,836.1 L 350.9,842.4 L 351.3,847.3 L 351.8,851.1 L 352.2,854.2 L 352.6,856.8 L 353.1,859.3 L 354.1,863.2 L 354.6,865.1 L 355.1,866.8 L 355.7,868.6 L 356.3,870.4 L 356.9,872.0 L 357.6,873.7 L 358.4,875.8 L 359.1,877.4 L 359.8,878.9 L 360.5,880.2 L 361.3,881.6 L 362.0,882.8 L 363.1,884.6 L 363.8,885.7 L 365.7,888.6 L 367.4,890.8 L 369.2,892.9 L 370.8,894.6 L 372.5,896.4 L 374.3,898.0 L 375.5,899.0 L 376.8,900.1 L 377.7,900.8 L 379.3,901.9 L 380.6,902.8 L 382.0,903.6 L 383.6,904.5 L 385.2,905.4 L 386.8,906.1 L 389.1,907.1 L 391.6,907.9 L 393.0,908.4 L 394.3,908.8 L 396.1,909.3 L 397.0,909.5 L 397.9,909.7 L 398.9,909.8 L 400.0,909.9 L 401.2,910.0 L 402.0,910.0 L 403.0,910.0 L 404.2,909.9 L 405.9,909.7 L 407.0,909.5 L 408.2,909.2 L 410.4,908.6 L 412.6,907.8 L 413.6,907.4 L 414.7,906.9 L 415.6,906.4 L 416.6,905.8 L 417.9,905.1 L 419.2,904.2 L 420.6,903.0 L 421.7,902.1 L 423.0,900.7 L 424.0,899.4 L 425.1,898.0 L 426.2,896.4 L 427.0,895.0 L 427.7,893.7 L 428.2,892.7 L 428.7,891.3 L 429.0,890.1 L 429.3,888.6 L 429.6,887.1 L 429.9,884.3 Z" fill="none" stroke="#39404f" stroke-width="8.5" stroke-linejoin="round" stroke-linecap="round"/>
<path d="M 429.9,884.3 L 443.4,753.8 L 456.1,631.1 L 464.4,564.1 L 465.1,559.6 L 465.4,558.3 L 465.8,557.1 L 466.2,556.2 L 466.9,554.9 L 467.5,554.1 L 468.2,553.2 L 469.0,552.5 L 469.9,551.7 L 471.2,550.7 L 472.9,549.4 L 474.8,548.0 L 476.9,546.3 L 477.9,545.3 L 478.9,544.4 L 479.6,543.6 L 480.3,542.9 L 481.5,541.5 L 482.6,540.0 L 483.7,538.4 L 484.8,536.3 L 486.0,534.0 L 486.8,532.0 L 487.6,529.7 L 488.0,528.1 L 488.4,526.3 L 488.8,524.0 L 489.0,521.6 L 489.1,518.2 L 489.0,516.1 L 488.9,514.5 L 487.9,505.4 L 487.7,503.7 L 487.6,502.2 L 487.7,500.7 L 487.9,499.3 L 488.2,498.4 L 488.5,497.8 L 489.0,497.1 L 489.6,496.2 L 490.4,495.3 L 491.5,494.2 L 492.1,493.7 L 574.1,421.9 L 580.5,416.4 L 635.3,368.4 L 645.1,359.8 L 646.7,358.4 L 648.4,357.0 L 650.7,355.2 L 653.7,352.8 L 656.5,350.7 L 659.4,348.6 L 661.5,347.2 L 663.7,345.7 L 669.0,342.2 L 672.4,340.1 L 675.6,338.2 L 772.0,284.4 L 773.3,283.7 L 774.5,283.0 L 775.1,282.6 L 775.5,282.2 L 776.4,281.5 L 777.2,280.8 L 777.9,280.0 L 778.2,279.5 L 778.6,279.0 L 778.9,278.4 L 779.3,277.3 L 779.7,276.1 L 779.9,274.9 L 780.1,273.6 L 780.1,272.4 L 780.0,270.5 L 776.7,234.6 L 772.9,193.9 L 772.7,191.8 L 772.4,189.5 L 772.0,187.4 L 771.7,186.2 L 771.3,185.0 L 770.9,184.0 L 770.5,183.0 L 770.2,182.3 L 769.5,181.1 L 768.8,179.9 L 768.1,178.8 L 767.3,177.7 L 766.2,176.4 L 765.0,175.1 L 763.9,174.1 L 762.8,173.2 L 761.9,172.5 L 760.7,171.8 L 759.0,170.8 L 757.3,170.1 L 756.6,169.8 L 755.5,169.3 L 754.4,169.0 L 753.5,168.7 L 752.5,168.5 L 751.4,168.3 L 750.4,168.2 L 749.3,168.1 L 748.2,168.0 L 746.7,168.0 L 745.2,168.1 L 743.3,168.4 L 741.6,168.8 L 739.9,169.3 L 706.5,180.2 L 668.1,192.9 L 666.1,193.5 L 663.8,194.2 L 661.4,194.7 L 658.7,195.3 L 656.9,195.7 L 655.0,196.1 L 652.4,196.6 L 649.8,197.1 L 645.6,197.8 L 643.9,198.1 L 643.1,198.3 L 642.3,198.5 L 641.7,198.8 L 641.2,199.1 L 640.7,199.6 L 640.3,200.2 L 639.9,200.7 L 639.6,201.4 L 639.3,202.2 L 639.0,203.1 L 637.3,209.0 L 637.0,209.7 L 636.8,210.4 L 636.4,211.0 L 636.1,211.6 L 635.8,212.0 L 635.4,212.4 L 634.9,212.8 L 634.5,213.1 L 633.8,213.3 L 633.0,213.5 L 632.2,213.7 L 631.2,213.8 L 630.1,213.9 L 615.1,214.6 L 600.2,215.3 L 587.8,215.9 L 560.0,218.0 L 505.9,222.3 L 493.2,223.8 L 484.5,225.4 L 477.4,227.1 L 469.5,229.3 L 460.8,232.2 L 450.4,236.9 L 442.8,241.0 L 437.7,244.2 L 432.5,247.8 L 426.9,252.1 L 422.2,256.1 L 417.6,260.6 L 413.3,265.4 L 409.1,270.7 L 404.2,278.0 L 400.0,285.9 L 396.2,294.7 L 393.9,301.5 L 392.5,306.7 L 390.7,316.2 L 390.3,319.6 L 386.8,364.7 L 386.9,373.2 L 387.5,379.8 L 388.4,385.7 L 389.9,392.9 L 395.7,415.2 L 396.3,417.5 L 397.1,421.1 L 397.3,422.0 L 397.3,422.9 L 397.3,423.8 L 397.1,424.8 L 396.7,425.8 L 396.2,426.6 L 395.7,427.2 L 395.0,427.8 L 394.3,428.1 L 393.4,428.4 L 392.4,428.4 L 391.4,428.2 L 390.4,427.9 L 387.8,427.0 L 386.8,426.7 L 385.7,426.6 L 384.6,426.8 L 383.7,427.3 L 383.0,427.8 L 382.5,428.5 L 382.2,429.3 L 382.1,430.1 L 382.0,431.0 L 371.0,554.6 L 370.7,558.8 L 369.1,577.0 L 365.6,616.5 L 362.8,639.7 L 352.0,745.1 L 351.1,755.8 L 350.3,766.2 L 349.9,780.9 L 350.0,796.6 L 350.7,829.9 L 350.6,836.1 L 350.9,842.4 L 351.3,847.3 L 351.8,851.1 L 352.2,854.2 L 352.6,856.8 L 353.1,859.3 L 354.1,863.2 L 354.6,865.1 L 355.1,866.8 L 355.7,868.6 L 356.3,870.4 L 356.9,872.0 L 357.6,873.7 L 358.4,875.8 L 359.1,877.4 L 359.8,878.9 L 360.5,880.2 L 361.3,881.6 L 362.0,882.8 L 363.1,884.6 L 363.8,885.7 L 365.7,888.6 L 367.4,890.8 L 369.2,892.9 L 370.8,894.6 L 372.5,896.4 L 374.3,898.0 L 375.5,899.0 L 376.8,900.1 L 377.7,900.8 L 379.3,901.9 L 380.6,902.8 L 382.0,903.6 L 383.6,904.5 L 385.2,905.4 L 386.8,906.1 L 389.1,907.1 L 391.6,907.9 L 393.0,908.4 L 394.3,908.8 L 396.1,909.3 L 397.0,909.5 L 397.9,909.7 L 398.9,909.8 L 400.0,909.9 L 401.2,910.0 L 402.0,910.0 L 403.0,910.0 L 404.2,909.9 L 405.9,909.7 L 407.0,909.5 L 408.2,909.2 L 410.4,908.6 L 412.6,907.8 L 413.6,907.4 L 414.7,906.9 L 415.6,906.4 L 416.6,905.8 L 417.9,905.1 L 419.2,904.2 L 420.6,903.0 L 421.7,902.1 L 423.0,900.7 L 424.0,899.4 L 425.1,898.0 L 426.2,896.4 L 427.0,895.0 L 427.7,893.7 L 428.2,892.7 L 428.7,891.3 L 429.0,890.1 L 429.3,888.6 L 429.6,887.1 L 429.9,884.3 Z" fill="none" stroke="#e7edf8" stroke-width="2.6" stroke-linejoin="round" stroke-linecap="round"/>
<path d="M 429.9,884.3 L 443.4,753.8 L 456.1,631.1 L 464.4,564.1 L 465.1,559.6 L 465.4,558.3 L 465.8,557.1 L 466.2,556.2 L 466.9,554.9 L 467.5,554.1 L 468.2,553.2 L 469.0,552.5 L 469.9,551.7 L 471.2,550.7 L 472.9,549.4 L 474.8,548.0 L 476.9,546.3 L 477.9,545.3 L 478.9,544.4 L 479.6,543.6 L 480.3,542.9 L 481.5,541.5 L 482.6,540.0 L 483.7,538.4 L 484.8,536.3 L 486.0,534.0 L 486.8,532.0 L 487.6,529.7 L 488.0,528.1 L 488.4,526.3 L 488.8,524.0 L 489.0,521.6 L 489.1,518.2 L 489.0,516.1 L 488.9,514.5 L 487.9,505.4 L 487.7,503.7 L 487.6,502.2 L 487.7,500.7 L 487.9,499.3 L 488.2,498.4 L 488.5,497.8 L 489.0,497.1 L 489.6,496.2 L 490.4,495.3 L 491.5,494.2 L 492.1,493.7 L 574.1,421.9 L 580.5,416.4 L 635.3,368.4 L 645.1,359.8 L 646.7,358.4 L 648.4,357.0 L 650.7,355.2 L 653.7,352.8 L 656.5,350.7 L 659.4,348.6 L 661.5,347.2 L 663.7,345.7 L 669.0,342.2 L 672.4,340.1 L 675.6,338.2 L 772.0,284.4 L 773.3,283.7 L 774.5,283.0 L 775.1,282.6 L 775.5,282.2 L 776.4,281.5 L 777.2,280.8 L 777.9,280.0 L 778.2,279.5 L 778.6,279.0 L 778.9,278.4 L 779.3,277.3 L 779.7,276.1 L 779.9,274.9 L 780.1,273.6 L 780.1,272.4 L 780.0,270.5 L 776.7,234.6 L 772.9,193.9 L 772.7,191.8 L 772.4,189.5 L 772.0,187.4 L 771.7,186.2 L 771.3,185.0 L 770.9,184.0 L 770.5,183.0 L 770.2,182.3 L 769.5,181.1 L 768.8,179.9 L 768.1,178.8 L 767.3,177.7 L 766.2,176.4 L 765.0,175.1 L 763.9,174.1 L 762.8,173.2 L 761.9,172.5 L 760.7,171.8 L 759.0,170.8 L 757.3,170.1 L 756.6,169.8 L 755.5,169.3 L 754.4,169.0 L 753.5,168.7 L 752.5,168.5 L 751.4,168.3 L 750.4,168.2 L 749.3,168.1 L 748.2,168.0 L 746.7,168.0 L 745.2,168.1 L 743.3,168.4 L 741.6,168.8 L 739.9,169.3 L 706.5,180.2 L 668.1,192.9 L 666.1,193.5 L 663.8,194.2 L 661.4,194.7 L 658.7,195.3 L 656.9,195.7 L 655.0,196.1 L 652.4,196.6 L 649.8,197.1 L 645.6,197.8 L 643.9,198.1 L 643.1,198.3 L 642.3,198.5 L 641.7,198.8 L 641.2,199.1 L 640.7,199.6 L 640.3,200.2 L 639.9,200.7 L 639.6,201.4 L 639.3,202.2 L 639.0,203.1 L 637.3,209.0 L 637.0,209.7 L 636.8,210.4 L 636.4,211.0 L 636.1,211.6 L 635.8,212.0 L 635.4,212.4 L 634.9,212.8 L 634.5,213.1 L 633.8,213.3 L 633.0,213.5 L 632.2,213.7 L 631.2,213.8 L 630.1,213.9 L 615.1,214.6 L 600.2,215.3 L 587.8,215.9 L 560.0,218.0 L 505.9,222.3 L 493.2,223.8 L 484.5,225.4 L 477.4,227.1 L 469.5,229.3 L 460.8,232.2 L 450.4,236.9 L 442.8,241.0 L 437.7,244.2 L 432.5,247.8 L 426.9,252.1 L 422.2,256.1 L 417.6,260.6 L 413.3,265.4 L 409.1,270.7 L 404.2,278.0 L 400.0,285.9 L 396.2,294.7 L 393.9,301.5 L 392.5,306.7 L 390.7,316.2 L 390.3,319.6 L 386.8,364.7 L 386.9,373.2 L 387.5,379.8 L 388.4,385.7 L 389.9,392.9 L 395.7,415.2 L 396.3,417.5 L 397.1,421.1 L 397.3,422.0 L 397.3,422.9 L 397.3,423.8 L 397.1,424.8 L 396.7,425.8 L 396.2,426.6 L 395.7,427.2 L 395.0,427.8 L 394.3,428.1 L 393.4,428.4 L 392.4,428.4 L 391.4,428.2 L 390.4,427.9 L 387.8,427.0 L 386.8,426.7 L 385.7,426.6 L 384.6,426.8 L 383.7,427.3 L 383.0,427.8 L 382.5,428.5 L 382.2,429.3 L 382.1,430.1 L 382.0,431.0 L 371.0,554.6 L 370.7,558.8 L 369.1,577.0 L 365.6,616.5 L 362.8,639.7 L 352.0,745.1 L 351.1,755.8 L 350.3,766.2 L 349.9,780.9 L 350.0,796.6 L 350.7,829.9 L 350.6,836.1 L 350.9,842.4 L 351.3,847.3 L 351.8,851.1 L 352.2,854.2 L 352.6,856.8 L 353.1,859.3 L 354.1,863.2 L 354.6,865.1 L 355.1,866.8 L 355.7,868.6 L 356.3,870.4 L 356.9,872.0 L 357.6,873.7 L 358.4,875.8 L 359.1,877.4 L 359.8,878.9 L 360.5,880.2 L 361.3,881.6 L 362.0,882.8 L 363.1,884.6 L 363.8,885.7 L 365.7,888.6 L 367.4,890.8 L 369.2,892.9 L 370.8,894.6 L 372.5,896.4 L 374.3,898.0 L 375.5,899.0 L 376.8,900.1 L 377.7,900.8 L 379.3,901.9 L 380.6,902.8 L 382.0,903.6 L 383.6,904.5 L 385.2,905.4 L 386.8,906.1 L 389.1,907.1 L 391.6,907.9 L 393.0,908.4 L 394.3,908.8 L 396.1,909.3 L 397.0,909.5 L 397.9,909.7 L 398.9,909.8 L 400.0,909.9 L 401.2,910.0 L 402.0,910.0 L 403.0,910.0 L 404.2,909.9 L 405.9,909.7 L 407.0,909.5 L 408.2,909.2 L 410.4,908.6 L 412.6,907.8 L 413.6,907.4 L 414.7,906.9 L 415.6,906.4 L 416.6,905.8 L 417.9,905.1 L 419.2,904.2 L 420.6,903.0 L 421.7,902.1 L 423.0,900.7 L 424.0,899.4 L 425.1,898.0 L 426.2,896.4 L 427.0,895.0 L 427.7,893.7 L 428.2,892.7 L 428.7,891.3 L 429.0,890.1 L 429.3,888.6 L 429.6,887.1 L 429.9,884.3 Z" fill="none" stroke="#ff5a36" stroke-opacity="0.55" stroke-width="1.2" stroke-linejoin="round" filter="url(#glow)"/>
<circle cx="355.6" cy="709.9" r="13" fill="none" stroke="#ffffff" stroke-width="3"/>
<rect x="351.6" y="687.9" width="8" height="18" fill="#ffffff"/>
<circle cx="393.5" cy="418.8" r="7" fill="#ff5a36" stroke="#0a0c12" stroke-width="2.5" filter="url(#glow)"/>
<text x="393.5" y="422.2" font-size="9" font-weight="700" fill="#0a0c12" text-anchor="middle">1</text>
<circle cx="391.5" cy="399.2" r="7" fill="#ff5a36" stroke="#0a0c12" stroke-width="2.5" filter="url(#glow)"/>
<text x="391.5" y="402.6" font-size="9" font-weight="700" fill="#0a0c12" text-anchor="middle">2</text>
<circle cx="408.8" cy="271.2" r="7" fill="#ff5a36" stroke="#0a0c12" stroke-width="2.5" filter="url(#glow)"/>
<text x="408.8" y="274.6" font-size="9" font-weight="700" fill="#0a0c12" text-anchor="middle">3</text>
<circle cx="638.0" cy="206.2" r="7" fill="#ff5a36" stroke="#0a0c12" stroke-width="2.5" filter="url(#glow)"/>
<text x="638.0" y="209.6" font-size="9" font-weight="700" fill="#0a0c12" text-anchor="middle">4</text>
<circle cx="651.5" cy="196.8" r="7" fill="#ff5a36" stroke="#0a0c12" stroke-width="2.5" filter="url(#glow)"/>
<text x="651.5" y="200.2" font-size="9" font-weight="700" fill="#0a0c12" text-anchor="middle">5</text>
<circle cx="770.0" cy="181.9" r="7" fill="#ff5a36" stroke="#0a0c12" stroke-width="2.5" filter="url(#glow)"/>
<text x="770.0" y="185.3" font-size="9" font-weight="700" fill="#0a0c12" text-anchor="middle">6</text>
<circle cx="771.9" cy="284.5" r="7" fill="#ff5a36" stroke="#0a0c12" stroke-width="2.5" filter="url(#glow)"/>
<text x="771.9" y="287.9" font-size="9" font-weight="700" fill="#0a0c12" text-anchor="middle">7</text>
<circle cx="477.6" cy="542.5" r="7" fill="#ff5a36" stroke="#0a0c12" stroke-width="2.5" filter="url(#glow)"/>
<text x="477.6" y="545.9" font-size="9" font-weight="700" fill="#0a0c12" text-anchor="middle">8</text>
<circle cx="465.5" cy="557.8" r="7" fill="#ff5a36" stroke="#0a0c12" stroke-width="2.5" filter="url(#glow)"/>
<text x="465.5" y="561.2" font-size="9" font-weight="700" fill="#0a0c12" text-anchor="middle">9</text>
<circle cx="460.5" cy="595.9" r="7" fill="#ff5a36" stroke="#0a0c12" stroke-width="2.5" filter="url(#glow)"/>
<text x="460.5" y="599.3" font-size="9" font-weight="700" fill="#0a0c12" text-anchor="middle">10</text>
<circle cx="372.4" cy="896.3" r="7" fill="#ff5a36" stroke="#0a0c12" stroke-width="2.5" filter="url(#glow)"/>
<text x="372.4" y="899.7" font-size="9" font-weight="700" fill="#0a0c12" text-anchor="middle">11</text>
<line x1="391.5" y1="399.2" x2="348.2" y2="370.3" stroke="#ff5a36" stroke-opacity="0.45" stroke-width="1.3"/>
<text x="340.2" y="374.3" font-size="15" font-weight="600" fill="#eef2fb" text-anchor="end">Variante del Rettifilo</text>
<line x1="408.8" y1="271.2" x2="384.6" y2="225.1" stroke="#ff5a36" stroke-opacity="0.45" stroke-width="1.3"/>
<text x="376.6" y="229.1" font-size="15" font-weight="600" fill="#eef2fb" text-anchor="end">Curva Grande</text>
<line x1="651.5" y1="196.8" x2="672.9" y2="173.7" stroke="#ff5a36" stroke-opacity="0.45" stroke-width="1.3"/>
<text x="680.9" y="177.7" font-size="15" font-weight="600" fill="#eef2fb" text-anchor="start">Variante della Roggia</text>
<line x1="770.0" y1="181.9" x2="803.0" y2="141.7" stroke="#ff5a36" stroke-opacity="0.45" stroke-width="1.3"/>
<text x="811.0" y="145.7" font-size="15" font-weight="600" fill="#eef2fb" text-anchor="start">Lesmo 1</text>
<line x1="771.9" y1="284.5" x2="812.5" y2="252.0" stroke="#ff5a36" stroke-opacity="0.45" stroke-width="1.3"/>
<text x="820.5" y="256.0" font-size="15" font-weight="600" fill="#eef2fb" text-anchor="start">Lesmo 2</text>
<line x1="465.5" y1="557.8" x2="433.9" y2="599.1" stroke="#ff5a36" stroke-opacity="0.45" stroke-width="1.3"/>
<text x="425.9" y="603.1" font-size="15" font-weight="600" fill="#eef2fb" text-anchor="end">Variante Ascari</text>
<line x1="372.4" y1="896.3" x2="354.8" y2="930.0" stroke="#ff5a36" stroke-opacity="0.45" stroke-width="1.3"/>
<text x="346.8" y="934.0" font-size="15" font-weight="600" fill="#eef2fb" text-anchor="end">Parabolica</text>
<text x="90" y="64" font-size="20" letter-spacing="5" fill="#ff5a36" font-weight="700">TRACK ATLAS</text>
<text x="90" y="108" font-size="42" font-weight="800" fill="#ffffff">AUTODROMO NAZIONALE MONZA</text>
<text x="90" y="136" font-size="16" fill="#9aa6bd">Monza, Temple of Speed</text>
<rect x="1170" y="200" width="360" height="710" rx="16" fill="#ffffff" fill-opacity="0.04" stroke="#ff5a36" stroke-opacity="0.5"/>
<text x="1198" y="250" font-size="13" letter-spacing="2" fill="#8794ab">LAYOUT</text>
<text x="1198" y="276" font-size="22" font-weight="700" fill="#eef2fb">Grand Prix Circuit</text>
<text x="1198" y="320" font-size="13" letter-spacing="2" fill="#8794ab">LENGTH</text>
<text x="1198" y="346" font-size="22" font-weight="700" fill="#eef2fb">5.793 km</text>
<text x="1198" y="390" font-size="13" letter-spacing="2" fill="#8794ab">CORNERS</text>
<text x="1198" y="416" font-size="22" font-weight="700" fill="#eef2fb">11</text>
<text x="1198" y="460" font-size="13" letter-spacing="2" fill="#8794ab">NAMED CORNERS</text>
<text x="1198" y="486" font-size="22" font-weight="700" fill="#eef2fb">11</text>
<text x="1198" y="530" font-size="13" letter-spacing="2" fill="#8794ab">DIRECTION</text>
<text x="1198" y="556" font-size="22" font-weight="700" fill="#eef2fb">Clockwise</text>
<text x="1198" y="600" font-size="13" letter-spacing="2" fill="#8794ab">SECTORS</text>
<text x="1198" y="626" font-size="22" font-weight="700" fill="#eef2fb">3</text>
<text x="1198" y="670" font-size="13" letter-spacing="2" fill="#8794ab">COUNTRY</text>
<text x="1198" y="696" font-size="22" font-weight="700" fill="#eef2fb">Italy</text>
<text x="1198" y="740" font-size="13" letter-spacing="2" fill="#8794ab">LOCATION</text>
<text x="1198" y="766" font-size="22" font-weight="700" fill="#eef2fb">Monza</text>
<text x="1198" y="810" font-size="13" letter-spacing="2" fill="#8794ab">COMPLEXES</text>
<rect x="1198" y="816" width="190" height="24" rx="12" fill="#ff5a36" fill-opacity="0.16" stroke="#ff5a36" stroke-opacity="0.5"/>
<text x="1293" y="833" font-size="12" fill="#eef2fb" text-anchor="middle">Variante del Rettifilo</text>
<rect x="1198" y="850" width="182" height="24" rx="12" fill="#ff5a36" fill-opacity="0.16" stroke="#ff5a36" stroke-opacity="0.5"/>
<text x="1289" y="867" font-size="12" fill="#eef2fb" text-anchor="middle">Variante della Roggia</text>
<rect x="1198" y="884" width="134" height="24" rx="12" fill="#ff5a36" fill-opacity="0.16" stroke="#ff5a36" stroke-opacity="0.5"/>
<text x="1265" y="901" font-size="12" fill="#eef2fb" text-anchor="middle">Variante Ascari</text>
<text x="90" y="966" font-size="12" fill="#566177">Geometry © OpenStreetMap contributors (ODbL) · corner data: Lovely-Sim-Racing + curated · track-atlas</text>
<text x="90" y="942" font-size="12" fill="#8794ab">⚑ start / finish</text>
</svg>