<svg xmlns="http://www.w3.org/2000/svg" width="1600" height="1000" viewBox="0 0 1600 1000" font-family="Helvetica, Arial, sans-serif">
<defs>
      <radialGradient id="bg" cx="38%" cy="34%" r="85%">
        <stop offset="0%" stop-color="#1b2030"/>
        <stop offset="55%" stop-color="#12151f"/>
        <stop offset="100%" stop-color="#0a0c12"/>
      </radialGradient>
      <linearGradient id="accent" x1="0" y1="0" x2="1" y2="1">
        <stop offset="0%" stop-color="#ff5a36"/>
        <stop offset="100%" stop-color="#ffffff"/>
      </linearGradient>
      <filter id="glow" x="-40%" y="-40%" width="180%" height="180%">
        <feGaussianBlur stdDeviation="6" result="b"/>
        <feMerge><feMergeNode in="b"/><feMergeNode in="SourceGraphic"/></feMerge>
      </filter>
    </defs>
<rect width="1600" height="1000" fill="url(#bg)"/>
<line x1="0" y1="0" x2="0" y2="1000" stroke="#ffffff" stroke-opacity="0.025"/>
<line x1="56" y1="0" x2="56" y2="1000" stroke="#ffffff" stroke-opacity="0.025"/>
<line x1="112" y1="0" x2="112" y2="1000" stroke="#ffffff" stroke-opacity="0.025"/>
<line x1="168" y1="0" x2="168" y2="1000" stroke="#ffffff" stroke-opacity="0.025"/>
<line x1="224" y1="0" x2="224" y2="1000" stroke="#ffffff" stroke-opacity="0.025"/>
<line x1="280" y1="0" x2="280" y2="1000" stroke="#ffffff" stroke-opacity="0.025"/>
<line x1="336" y1="0" x2="336" y2="1000" stroke="#ffffff" stroke-opacity="0.025"/>
<line x1="392" y1="0" x2="392" y2="1000" stroke="#ffffff" stroke-opacity="0.025"/>
<line x1="448" y1="0" x2="448" y2="1000" stroke="#ffffff" stroke-opacity="0.025"/>
<line x1="504" y1="0" x2="504" y2="1000" stroke="#ffffff" stroke-opacity="0.025"/>
<line x1="560" y1="0" x2="560" y2="1000" stroke="#ffffff" stroke-opacity="0.025"/>
<line x1="616" y1="0" x2="616" y2="1000" stroke="#ffffff" stroke-opacity="0.025"/>
<line x1="672" y1="0" x2="672" y2="1000" stroke="#ffffff" stroke-opacity="0.025"/>
<line x1="728" y1="0" x2="728" y2="1000" stroke="#ffffff" stroke-opacity="0.025"/>
<line x1="784" y1="0" x2="784" y2="1000" stroke="#ffffff" stroke-opacity="0.025"/>
<line x1="840" y1="0" x2="840" y2="1000" stroke="#ffffff" stroke-opacity="0.025"/>
<line x1="896" y1="0" x2="896" y2="1000" stroke="#ffffff" stroke-opacity="0.025"/>
<line x1="952" y1="0" x2="952" y2="1000" stroke="#ffffff" stroke-opacity="0.025"/>
<line x1="1008" y1="0" x2="1008" y2="1000" stroke="#ffffff" stroke-opacity="0.025"/>
<line x1="1064" y1="0" x2="1064" y2="1000" stroke="#ffffff" stroke-opacity="0.025"/>
<line x1="1120" y1="0" x2="1120" y2="1000" stroke="#ffffff" stroke-opacity="0.025"/>
<line x1="1176" y1="0" x2="1176" y2="1000" stroke="#ffffff" stroke-opacity="0.025"/>
<line x1="1232" y1="0" x2="1232" y2="1000" stroke="#ffffff" stroke-opacity="0.025"/>
<line x1="1288" y1="0" x2="1288" y2="1000" stroke="#ffffff" stroke-opacity="0.025"/>
<line x1="1344" y1="0" x2="1344" y2="1000" stroke="#ffffff" stroke-opacity="0.025"/>
<line x1="1400" y1="0" x2="1400" y2="1000" stroke="#ffffff" stroke-opacity="0.025"/>
<line x1="1456" y1="0" x2="1456" y2="1000" stroke="#ffffff" stroke-opacity="0.025"/>
<line x1="1512" y1="0" x2="1512" y2="1000" stroke="#ffffff" stroke-opacity="0.025"/>
<line x1="1568" y1="0" x2="1568" y2="1000" stroke="#ffffff" stroke-opacity="0.025"/>
<line x1="0" y1="0" x2="1600" y2="0" stroke="#ffffff" stroke-opacity="0.025"/>
<line x1="0" y1="56" x2="1600" y2="56" stroke="#ffffff" stroke-opacity="0.025"/>
<line x1="0" y1="112" x2="1600" y2="112" stroke="#ffffff" stroke-opacity="0.025"/>
<line x1="0" y1="168" x2="1600" y2="168" stroke="#ffffff" stroke-opacity="0.025"/>
<line x1="0" y1="224" x2="1600" y2="224" stroke="#ffffff" stroke-opacity="0.025"/>
<line x1="0" y1="280" x2="1600" y2="280" stroke="#ffffff" stroke-opacity="0.025"/>
<line x1="0" y1="336" x2="1600" y2="336" stroke="#ffffff" stroke-opacity="0.025"/>
<line x1="0" y1="392" x2="1600" y2="392" stroke="#ffffff" stroke-opacity="0.025"/>
<line x1="0" y1="448" x2="1600" y2="448" stroke="#ffffff" stroke-opacity="0.025"/>
<line x1="0" y1="504" x2="1600" y2="504" stroke="#ffffff" stroke-opacity="0.025"/>
<line x1="0" y1="560" x2="1600" y2="560" stroke="#ffffff" stroke-opacity="0.025"/>
<line x1="0" y1="616" x2="1600" y2="616" stroke="#ffffff" stroke-opacity="0.025"/>
<line x1="0" y1="672" x2="1600" y2="672" stroke="#ffffff" stroke-opacity="0.025"/>
<line x1="0" y1="728" x2="1600" y2="728" stroke="#ffffff" stroke-opacity="0.025"/>
<line x1="0" y1="784" x2="1600" y2="784" stroke="#ffffff" stroke-opacity="0.025"/>
<line x1="0" y1="840" x2="1600" y2="840" stroke="#ffffff" stroke-opacity="0.025"/>
<line x1="0" y1="896" x2="1600" y2="896" stroke="#ffffff" stroke-opacity="0.025"/>
<line x1="0" y1="952" x2="1600" y2="952" stroke="#ffffff" stroke-opacity="0.025"/>
<path d="M 329.8,431.4 C 290.3,397.4 279.4,654.1 260.8,664.8 C 242.2,675.6 213.4,554.7 218.0,496.0 C 222.6,437.2 240.2,379.8 288.3,312.1 C 336.4,244.4 438.4,98.5 506.8,90.0 C 575.1,81.5 631.3,203.7 698.3,260.9 C 765.2,318.2 872.9,362.2 908.5,433.6 C 944.1,504.9 933.2,609.7 912.0,689.1 C 890.8,768.5 850.2,880.0 781.1,910.0 C 712.0,940.0 572.9,948.9 497.7,869.1 C 422.5,789.4 369.3,465.5 329.8,431.4 Z" fill="none" stroke="#000000" stroke-opacity="0.5" stroke-width="13" stroke-linejoin="round" stroke-linecap="round"/>
<path d="M 329.8,431.4 C 290.3,397.4 279.4,654.1 260.8,664.8 C 242.2,675.6 213.4,554.7 218.0,496.0 C 222.6,437.2 240.2,379.8 288.3,312.1 C 336.4,244.4 438.4,98.5 506.8,90.0 C 575.1,81.5 631.3,203.7 698.3,260.9 C 765.2,318.2 872.9,362.2 908.5,433.6 C 944.1,504.9 933.2,609.7 912.0,689.1 C 890.8,768.5 850.2,880.0 781.1,910.0 C 712.0,940.0 572.9,948.9 497.7,869.1 C 422.5,789.4 369.3,465.5 329.8,431.4 Z" fill="none" stroke="#39404f" stroke-width="8.5" stroke-linejoin="round" stroke-linecap="round"/>
<path d="M 329.8,431.4 C 290.3,397.4 279.4,654.1 260.8,664.8 C 242.2,675.6 213.4,554.7 218.0,496.0 C 222.6,437.2 240.2,379.8 288.3,312.1 C 336.4,244.4 438.4,98.5 506.8,90.0 C 575.1,81.5 631.3,203.7 698.3,260.9 C 765.2,318.2 872.9,362.2 908.5,433.6 C 944.1,504.9 933.2,609.7 912.0,689.1 C 890.8,768.5 850.2,880.0 781.1,910.0 C 712.0,940.0 572.9,948.9 497.7,869.1 C 422.5,789.4 369.3,465.5 329.8,431.4 Z" fill="none" stroke="#e7edf8" stroke-width="2.6" stroke-linejoin="round" stroke-linecap="round"/>
<path d="M 329.8,431.4 C 290.3,397.4 279.4,654.1 260.8,664.8 C 242.2,675.6 213.4,554.7 218.0,496.0 C 222.6,437.2 240.2,379.8 288.3,312.1 C 336.4,244.4 438.4,98.5 506.8,90.0 C 575.1,81.5 631.3,203.7 698.3,260.9 C 765.2,318.2 872.9,362.2 908.5,433.6 C 944.1,504.9 933.2,609.7 912.0,689.1 C 890.8,768.5 850.2,880.0 781.1,910.0 C 712.0,940.0 572.9,948.9 497.7,869.1 C 422.5,789.4 369.3,465.5 329.8,431.4 Z" fill="none" stroke="#ff5a36" stroke-opacity="0.55" stroke-width="1.2" stroke-linejoin="round" filter="url(#glow)"/>
<circle cx="542.6" cy="531.1" r="13" fill="none" stroke="#ffffff" stroke-width="3"/>
<rect x="538.6" y="509.1" width="8" height="18" fill="#ffffff"/>
<circle cx="329.8" cy="431.4" r="7" fill="#ff5a36" stroke="#0a0c12" stroke-width="2.5" filter="url(#glow)"/>
<text x="329.8" y="434.8" font-size="9" font-weight="700" fill="#0a0c12" text-anchor="middle">1</text>
<circle cx="260.8" cy="664.8" r="7" fill="#ff5a36" stroke="#0a0c12" stroke-width="2.5" filter="url(#glow)"/>
<text x="260.8" y="668.2" font-size="9" font-weight="700" fill="#0a0c12" text-anchor="middle">2</text>
<circle cx="218.0" cy="496.0" r="7" fill="#ff5a36" stroke="#0a0c12" stroke-width="2.5" filter="url(#glow)"/>
<text x="218.0" y="499.4" font-size="9" font-weight="700" fill="#0a0c12" text-anchor="middle">3</text>
<circle cx="288.3" cy="312.1" r="7" fill="#ff5a36" stroke="#0a0c12" stroke-width="2.5" filter="url(#glow)"/>
<text x="288.3" y="315.5" font-size="9" font-weight="700" fill="#0a0c12" text-anchor="middle">4</text>
<circle cx="506.8" cy="90.0" r="7" fill="#ff5a36" stroke="#0a0c12" stroke-width="2.5" filter="url(#glow)"/>
<text x="506.8" y="93.4" font-size="9" font-weight="700" fill="#0a0c12" text-anchor="middle">5</text>
<circle cx="698.3" cy="260.9" r="7" fill="#ff5a36" stroke="#0a0c12" stroke-width="2.5" filter="url(#glow)"/>
<text x="698.3" y="264.3" font-size="9" font-weight="700" fill="#0a0c12" text-anchor="middle">6</text>
<circle cx="908.5" cy="433.6" r="7" fill="#ff5a36" stroke="#0a0c12" stroke-width="2.5" filter="url(#glow)"/>
<text x="908.5" y="437.0" font-size="9" font-weight="700" fill="#0a0c12" text-anchor="middle">7</text>
<circle cx="912.0" cy="689.1" r="7" fill="#ff5a36" stroke="#0a0c12" stroke-width="2.5" filter="url(#glow)"/>
<text x="912.0" y="692.5" font-size="9" font-weight="700" fill="#0a0c12" text-anchor="middle">8</text>
<circle cx="781.1" cy="910.0" r="7" fill="#ff5a36" stroke="#0a0c12" stroke-width="2.5" filter="url(#glow)"/>
<text x="781.1" y="913.4" font-size="9" font-weight="700" fill="#0a0c12" text-anchor="middle">9</text>
<circle cx="497.7" cy="869.1" r="7" fill="#ff5a36" stroke="#0a0c12" stroke-width="2.5" filter="url(#glow)"/>
<text x="497.7" y="872.5" font-size="9" font-weight="700" fill="#0a0c12" text-anchor="middle">10</text>
<line x1="329.8" y1="431.4" x2="281.5" y2="412.1" stroke="#ff5a36" stroke-opacity="0.45" stroke-width="1.3"/>
<text x="273.5" y="416.1" font-size="15" font-weight="600" fill="#eef2fb" text-anchor="end">Turn 1</text>
<line x1="260.8" y1="664.8" x2="214.9" y2="689.3" stroke="#ff5a36" stroke-opacity="0.45" stroke-width="1.3"/>
<text x="206.9" y="693.3" font-size="15" font-weight="600" fill="#eef2fb" text-anchor="end">Andretti Hairpin</text>
<line x1="218.0" y1="496.0" x2="166.1" y2="492.8" stroke="#ff5a36" stroke-opacity="0.45" stroke-width="1.3"/>
<text x="158.1" y="496.8" font-size="15" font-weight="600" fill="#eef2fb" text-anchor="end">Turn 3</text>
<line x1="288.3" y1="312.1" x2="247.9" y2="279.4" stroke="#ff5a36" stroke-opacity="0.45" stroke-width="1.3"/>
<text x="239.9" y="283.4" font-size="15" font-weight="600" fill="#eef2fb" text-anchor="end">Turn 4</text>
<line x1="506.8" y1="90.0" x2="502.7" y2="162.0" stroke="#ff5a36" stroke-opacity="0.45" stroke-width="1.3"/>
<text x="494.7" y="166.0" font-size="15" font-weight="600" fill="#eef2fb" text-anchor="end">Turn 5</text>
<line x1="698.3" y1="260.9" x2="725.7" y2="216.7" stroke="#ff5a36" stroke-opacity="0.45" stroke-width="1.3"/>
<text x="733.7" y="220.7" font-size="15" font-weight="600" fill="#eef2fb" text-anchor="start">Turn 6</text>
<line x1="908.5" y1="433.6" x2="959.3" y2="422.2" stroke="#ff5a36" stroke-opacity="0.45" stroke-width="1.3"/>
<text x="967.3" y="426.2" font-size="15" font-weight="600" fill="#eef2fb" text-anchor="start">The Corkscrew</text>
<line x1="912.0" y1="689.1" x2="959.1" y2="711.1" stroke="#ff5a36" stroke-opacity="0.45" stroke-width="1.3"/>
<text x="967.1" y="715.1" font-size="15" font-weight="600" fill="#eef2fb" text-anchor="start">Turn 9</text>
<line x1="781.1" y1="910.0" x2="808.2" y2="954.4" stroke="#ff5a36" stroke-opacity="0.45" stroke-width="1.3"/>
<text x="816.2" y="958.4" font-size="15" font-weight="600" fill="#eef2fb" text-anchor="start">Turn 10</text>
<line x1="497.7" y1="869.1" x2="491.5" y2="920.8" stroke="#ff5a36" stroke-opacity="0.45" stroke-width="1.3"/>
<text x="483.5" y="924.8" font-size="15" font-weight="600" fill="#eef2fb" text-anchor="end">Turn 11</text>
<text x="90" y="64" font-size="20" letter-spacing="5" fill="#ff5a36" font-weight="700">TRACK ATLAS</text>
<text x="90" y="108" font-size="42" font-weight="800" fill="#ffffff">WEATHERTECH RACEWAY LAGUNA SECA</text>
<text x="90" y="136" font-size="16" fill="#9aa6bd">Laguna Seca</text>
<rect x="1170" y="200" width="360" height="710" rx="16" fill="#ffffff" fill-opacity="0.04" stroke="#ff5a36" stroke-opacity="0.5"/>
<text x="1198" y="250" font-size="13" letter-spacing="2" fill="#8794ab">LAYOUT</text>
<text x="1198" y="276" font-size="22" font-weight="700" fill="#eef2fb">Full Course</text>
<text x="1198" y="320" font-size="13" letter-spacing="2" fill="#8794ab">LENGTH</text>
<text x="1198" y="346" font-size="22" font-weight="700" fill="#eef2fb">3.602 km</text>
<text x="1198" y="390" font-size="13" letter-spacing="2" fill="#8794ab">CORNERS</text>
<text x="1198" y="416" font-size="22" font-weight="700" fill="#eef2fb">10</text>
<text x="1198" y="460" font-size="13" letter-spacing="2" fill="#8794ab">NAMED CORNERS</text>
<text x="1198" y="486" font-size="22" font-weight="700" fill="#eef2fb">10</text>
<text x="1198" y="530" font-size="13" letter-spacing="2" fill="#8794ab">DIRECTION</text>
<text x="1198" y="556" font-size="22" font-weight="700" fill="#eef2fb">Anticlockwise</text>
<text x="1198" y="600" font-size="13" letter-spacing="2" fill="#8794ab">SECTORS</text>
<text x="1198" y="626" font-size="22" font-weight="700" fill="#eef2fb">5</text>
<text x="1198" y="670" font-size="13" letter-spacing="2" fill="#8794ab">COUNTRY</text>
<text x="1198" y="696" font-size="22" font-weight="700" fill="#eef2fb">USA</text>
<text x="1198" y="740" font-size="13" letter-spacing="2" fill="#8794ab">LOCATION</text>
<text x="1198" y="766" font-size="22" font-weight="700" fill="#eef2fb">Monterey, California</text>
<text x="90" y="966" font-size="12" fill="#566177">Geometry © OpenStreetMap contributors (ODbL) · corner data: Lovely-Sim-Racing + curated · track-atlas</text>
<text x="90" y="942" font-size="12" fill="#8794ab">⚑ start / finish</text>
</svg>