<svg xmlns="http://www.w3.org/2000/svg" width="1600" height="1000" viewBox="0 0 1600 1000" font-family="Helvetica, Arial, sans-serif">
<defs>
      <radialGradient id="bg" cx="38%" cy="34%" r="85%">
        <stop offset="0%" stop-color="#1b2030"/>
        <stop offset="55%" stop-color="#12151f"/>
        <stop offset="100%" stop-color="#0a0c12"/>
      </radialGradient>
      <linearGradient id="accent" x1="0" y1="0" x2="1" y2="1">
        <stop offset="0%" stop-color="#ff5a36"/>
        <stop offset="100%" stop-color="#ffffff"/>
      </linearGradient>
      <filter id="glow" x="-40%" y="-40%" width="180%" height="180%">
        <feGaussianBlur stdDeviation="6" result="b"/>
        <feMerge><feMergeNode in="b"/><feMergeNode in="SourceGraphic"/></feMerge>
      </filter>
    </defs>
<rect width="1600" height="1000" fill="url(#bg)"/>
<line x1="0" y1="0" x2="0" y2="1000" stroke="#ffffff" stroke-opacity="0.025"/>
<line x1="56" y1="0" x2="56" y2="1000" stroke="#ffffff" stroke-opacity="0.025"/>
<line x1="112" y1="0" x2="112" y2="1000" stroke="#ffffff" stroke-opacity="0.025"/>
<line x1="168" y1="0" x2="168" y2="1000" stroke="#ffffff" stroke-opacity="0.025"/>
<line x1="224" y1="0" x2="224" y2="1000" stroke="#ffffff" stroke-opacity="0.025"/>
<line x1="280" y1="0" x2="280" y2="1000" stroke="#ffffff" stroke-opacity="0.025"/>
<line x1="336" y1="0" x2="336" y2="1000" stroke="#ffffff" stroke-opacity="0.025"/>
<line x1="392" y1="0" x2="392" y2="1000" stroke="#ffffff" stroke-opacity="0.025"/>
<line x1="448" y1="0" x2="448" y2="1000" stroke="#ffffff" stroke-opacity="0.025"/>
<line x1="504" y1="0" x2="504" y2="1000" stroke="#ffffff" stroke-opacity="0.025"/>
<line x1="560" y1="0" x2="560" y2="1000" stroke="#ffffff" stroke-opacity="0.025"/>
<line x1="616" y1="0" x2="616" y2="1000" stroke="#ffffff" stroke-opacity="0.025"/>
<line x1="672" y1="0" x2="672" y2="1000" stroke="#ffffff" stroke-opacity="0.025"/>
<line x1="728" y1="0" x2="728" y2="1000" stroke="#ffffff" stroke-opacity="0.025"/>
<line x1="784" y1="0" x2="784" y2="1000" stroke="#ffffff" stroke-opacity="0.025"/>
<line x1="840" y1="0" x2="840" y2="1000" stroke="#ffffff" stroke-opacity="0.025"/>
<line x1="896" y1="0" x2="896" y2="1000" stroke="#ffffff" stroke-opacity="0.025"/>
<line x1="952" y1="0" x2="952" y2="1000" stroke="#ffffff" stroke-opacity="0.025"/>
<line x1="1008" y1="0" x2="1008" y2="1000" stroke="#ffffff" stroke-opacity="0.025"/>
<line x1="1064" y1="0" x2="1064" y2="1000" stroke="#ffffff" stroke-opacity="0.025"/>
<line x1="1120" y1="0" x2="1120" y2="1000" stroke="#ffffff" stroke-opacity="0.025"/>
<line x1="1176" y1="0" x2="1176" y2="1000" stroke="#ffffff" stroke-opacity="0.025"/>
<line x1="1232" y1="0" x2="1232" y2="1000" stroke="#ffffff" stroke-opacity="0.025"/>
<line x1="1288" y1="0" x2="1288" y2="1000" stroke="#ffffff" stroke-opacity="0.025"/>
<line x1="1344" y1="0" x2="1344" y2="1000" stroke="#ffffff" stroke-opacity="0.025"/>
<line x1="1400" y1="0" x2="1400" y2="1000" stroke="#ffffff" stroke-opacity="0.025"/>
<line x1="1456" y1="0" x2="1456" y2="1000" stroke="#ffffff" stroke-opacity="0.025"/>
<line x1="1512" y1="0" x2="1512" y2="1000" stroke="#ffffff" stroke-opacity="0.025"/>
<line x1="1568" y1="0" x2="1568" y2="1000" stroke="#ffffff" stroke-opacity="0.025"/>
<line x1="0" y1="0" x2="1600" y2="0" stroke="#ffffff" stroke-opacity="0.025"/>
<line x1="0" y1="56" x2="1600" y2="56" stroke="#ffffff" stroke-opacity="0.025"/>
<line x1="0" y1="112" x2="1600" y2="112" stroke="#ffffff" stroke-opacity="0.025"/>
<line x1="0" y1="168" x2="1600" y2="168" stroke="#ffffff" stroke-opacity="0.025"/>
<line x1="0" y1="224" x2="1600" y2="224" stroke="#ffffff" stroke-opacity="0.025"/>
<line x1="0" y1="280" x2="1600" y2="280" stroke="#ffffff" stroke-opacity="0.025"/>
<line x1="0" y1="336" x2="1600" y2="336" stroke="#ffffff" stroke-opacity="0.025"/>
<line x1="0" y1="392" x2="1600" y2="392" stroke="#ffffff" stroke-opacity="0.025"/>
<line x1="0" y1="448" x2="1600" y2="448" stroke="#ffffff" stroke-opacity="0.025"/>
<line x1="0" y1="504" x2="1600" y2="504" stroke="#ffffff" stroke-opacity="0.025"/>
<line x1="0" y1="560" x2="1600" y2="560" stroke="#ffffff" stroke-opacity="0.025"/>
<line x1="0" y1="616" x2="1600" y2="616" stroke="#ffffff" stroke-opacity="0.025"/>
<line x1="0" y1="672" x2="1600" y2="672" stroke="#ffffff" stroke-opacity="0.025"/>
<line x1="0" y1="728" x2="1600" y2="728" stroke="#ffffff" stroke-opacity="0.025"/>
<line x1="0" y1="784" x2="1600" y2="784" stroke="#ffffff" stroke-opacity="0.025"/>
<line x1="0" y1="840" x2="1600" y2="840" stroke="#ffffff" stroke-opacity="0.025"/>
<line x1="0" y1="896" x2="1600" y2="896" stroke="#ffffff" stroke-opacity="0.025"/>
<line x1="0" y1="952" x2="1600" y2="952" stroke="#ffffff" stroke-opacity="0.025"/>
<path d="M 242.4,475.6 C 209.5,570.5 267.6,664.4 279.5,659.6 C 291.4,654.9 271.8,474.0 314.0,446.9 C 356.1,419.7 499.1,419.4 532.3,496.6 C 565.5,573.8 460.2,849.8 513.1,910.0 C 566.0,970.2 787.3,935.9 849.7,858.0 C 912.1,780.1 890.6,542.0 887.6,442.5 C 884.5,343.1 876.2,285.6 831.2,261.3 C 786.2,237.0 676.6,325.2 617.7,296.7 C 558.7,268.1 539.9,60.2 477.4,90.0 C 414.9,119.8 275.4,380.6 242.4,475.6 Z" fill="none" stroke="#000000" stroke-opacity="0.5" stroke-width="13" stroke-linejoin="round" stroke-linecap="round"/>
<path d="M 242.4,475.6 C 209.5,570.5 267.6,664.4 279.5,659.6 C 291.4,654.9 271.8,474.0 314.0,446.9 C 356.1,419.7 499.1,419.4 532.3,496.6 C 565.5,573.8 460.2,849.8 513.1,910.0 C 566.0,970.2 787.3,935.9 849.7,858.0 C 912.1,780.1 890.6,542.0 887.6,442.5 C 884.5,343.1 876.2,285.6 831.2,261.3 C 786.2,237.0 676.6,325.2 617.7,296.7 C 558.7,268.1 539.9,60.2 477.4,90.0 C 414.9,119.8 275.4,380.6 242.4,475.6 Z" fill="none" stroke="#39404f" stroke-width="8.5" stroke-linejoin="round" stroke-linecap="round"/>
<path d="M 242.4,475.6 C 209.5,570.5 267.6,664.4 279.5,659.6 C 291.4,654.9 271.8,474.0 314.0,446.9 C 356.1,419.7 499.1,419.4 532.3,496.6 C 565.5,573.8 460.2,849.8 513.1,910.0 C 566.0,970.2 787.3,935.9 849.7,858.0 C 912.1,780.1 890.6,542.0 887.6,442.5 C 884.5,343.1 876.2,285.6 831.2,261.3 C 786.2,237.0 676.6,325.2 617.7,296.7 C 558.7,268.1 539.9,60.2 477.4,90.0 C 414.9,119.8 275.4,380.6 242.4,475.6 Z" fill="none" stroke="#e7edf8" stroke-width="2.6" stroke-linejoin="round" stroke-linecap="round"/>
<path d="M 242.4,475.6 C 209.5,570.5 267.6,664.4 279.5,659.6 C 291.4,654.9 271.8,474.0 314.0,446.9 C 356.1,419.7 499.1,419.4 532.3,496.6 C 565.5,573.8 460.2,849.8 513.1,910.0 C 566.0,970.2 787.3,935.9 849.7,858.0 C 912.1,780.1 890.6,542.0 887.6,442.5 C 884.5,343.1 876.2,285.6 831.2,261.3 C 786.2,237.0 676.6,325.2 617.7,296.7 C 558.7,268.1 539.9,60.2 477.4,90.0 C 414.9,119.8 275.4,380.6 242.4,475.6 Z" fill="none" stroke="#ff5a36" stroke-opacity="0.55" stroke-width="1.2" stroke-linejoin="round" filter="url(#glow)"/>
<circle cx="323.4" cy="301.6" r="13" fill="none" stroke="#ffffff" stroke-width="3"/>
<rect x="319.4" y="279.6" width="8" height="18" fill="#ffffff"/>
<circle cx="242.4" cy="475.6" r="7" fill="#ff5a36" stroke="#0a0c12" stroke-width="2.5" filter="url(#glow)"/>
<text x="242.4" y="479.0" font-size="9" font-weight="700" fill="#0a0c12" text-anchor="middle">1</text>
<circle cx="279.5" cy="659.6" r="7" fill="#ff5a36" stroke="#0a0c12" stroke-width="2.5" filter="url(#glow)"/>
<text x="279.5" y="663.0" font-size="9" font-weight="700" fill="#0a0c12" text-anchor="middle">2</text>
<circle cx="314.0" cy="446.9" r="7" fill="#ff5a36" stroke="#0a0c12" stroke-width="2.5" filter="url(#glow)"/>
<text x="314.0" y="450.3" font-size="9" font-weight="700" fill="#0a0c12" text-anchor="middle">3</text>
<circle cx="532.3" cy="496.6" r="7" fill="#ff5a36" stroke="#0a0c12" stroke-width="2.5" filter="url(#glow)"/>
<text x="532.3" y="500.0" font-size="9" font-weight="700" fill="#0a0c12" text-anchor="middle">4</text>
<circle cx="513.1" cy="910.0" r="7" fill="#ff5a36" stroke="#0a0c12" stroke-width="2.5" filter="url(#glow)"/>
<text x="513.1" y="913.4" font-size="9" font-weight="700" fill="#0a0c12" text-anchor="middle">5</text>
<circle cx="849.7" cy="858.0" r="7" fill="#ff5a36" stroke="#0a0c12" stroke-width="2.5" filter="url(#glow)"/>
<text x="849.7" y="861.4" font-size="9" font-weight="700" fill="#0a0c12" text-anchor="middle">6</text>
<circle cx="887.6" cy="442.5" r="7" fill="#ff5a36" stroke="#0a0c12" stroke-width="2.5" filter="url(#glow)"/>
<text x="887.6" y="445.9" font-size="9" font-weight="700" fill="#0a0c12" text-anchor="middle">7</text>
<circle cx="831.2" cy="261.3" r="7" fill="#ff5a36" stroke="#0a0c12" stroke-width="2.5" filter="url(#glow)"/>
<text x="831.2" y="264.7" font-size="9" font-weight="700" fill="#0a0c12" text-anchor="middle">8</text>
<circle cx="617.7" cy="296.7" r="7" fill="#ff5a36" stroke="#0a0c12" stroke-width="2.5" filter="url(#glow)"/>
<text x="617.7" y="300.1" font-size="9" font-weight="700" fill="#0a0c12" text-anchor="middle">9</text>
<circle cx="477.4" cy="90.0" r="7" fill="#ff5a36" stroke="#0a0c12" stroke-width="2.5" filter="url(#glow)"/>
<text x="477.4" y="93.4" font-size="9" font-weight="700" fill="#0a0c12" text-anchor="middle">10</text>
<line x1="242.4" y1="475.6" x2="190.5" y2="472.5" stroke="#ff5a36" stroke-opacity="0.45" stroke-width="1.3"/>
<text x="182.5" y="476.5" font-size="15" font-weight="600" fill="#eef2fb" text-anchor="end">Turn 1</text>
<line x1="279.5" y1="659.6" x2="235.0" y2="686.5" stroke="#ff5a36" stroke-opacity="0.45" stroke-width="1.3"/>
<text x="227.0" y="690.5" font-size="15" font-weight="600" fill="#eef2fb" text-anchor="end">Andretti Hairpin</text>
<line x1="314.0" y1="446.9" x2="262.9" y2="436.9" stroke="#ff5a36" stroke-opacity="0.45" stroke-width="1.3"/>
<text x="254.9" y="440.9" font-size="15" font-weight="600" fill="#eef2fb" text-anchor="end">Turn 3</text>
<line x1="532.3" y1="496.6" x2="480.7" y2="503.4" stroke="#ff5a36" stroke-opacity="0.45" stroke-width="1.3"/>
<text x="472.7" y="507.4" font-size="15" font-weight="600" fill="#eef2fb" text-anchor="end">Turn 4</text>
<line x1="513.1" y1="910.0" x2="507.9" y2="961.7" stroke="#ff5a36" stroke-opacity="0.45" stroke-width="1.3"/>
<text x="499.9" y="965.7" font-size="15" font-weight="600" fill="#eef2fb" text-anchor="end">Turn 5</text>
<line x1="849.7" y1="858.0" x2="882.4" y2="898.4" stroke="#ff5a36" stroke-opacity="0.45" stroke-width="1.3"/>
<text x="890.4" y="902.4" font-size="15" font-weight="600" fill="#eef2fb" text-anchor="start">Turn 6</text>
<line x1="887.6" y1="442.5" x2="938.9" y2="434.6" stroke="#ff5a36" stroke-opacity="0.45" stroke-width="1.3"/>
<text x="946.9" y="438.6" font-size="15" font-weight="600" fill="#eef2fb" text-anchor="start">The Corkscrew</text>
<line x1="831.2" y1="261.3" x2="871.0" y2="227.8" stroke="#ff5a36" stroke-opacity="0.45" stroke-width="1.3"/>
<text x="879.0" y="231.8" font-size="15" font-weight="600" fill="#eef2fb" text-anchor="start">Rainey Curve</text>
<line x1="617.7" y1="296.7" x2="633.6" y2="257.8" stroke="#ff5a36" stroke-opacity="0.45" stroke-width="1.3"/>
<text x="641.6" y="261.8" font-size="15" font-weight="600" fill="#eef2fb" text-anchor="start">Turn 10</text>
<line x1="477.4" y1="90.0" x2="467.7" y2="162.0" stroke="#ff5a36" stroke-opacity="0.45" stroke-width="1.3"/>
<text x="459.7" y="166.0" font-size="15" font-weight="600" fill="#eef2fb" text-anchor="end">Turn 11</text>
<text x="90" y="64" font-size="20" letter-spacing="5" fill="#ff5a36" font-weight="700">TRACK ATLAS</text>
<text x="90" y="108" font-size="42" font-weight="800" fill="#ffffff">WEATHERTECH RACEWAY LAGUNA SECA</text>
<text x="90" y="136" font-size="16" fill="#9aa6bd">Laguna Seca</text>
<rect x="1170" y="200" width="360" height="710" rx="16" fill="#ffffff" fill-opacity="0.04" stroke="#ff5a36" stroke-opacity="0.5"/>
<text x="1198" y="250" font-size="13" letter-spacing="2" fill="#8794ab">LAYOUT</text>
<text x="1198" y="276" font-size="22" font-weight="700" fill="#eef2fb">Full Course</text>
<text x="1198" y="320" font-size="13" letter-spacing="2" fill="#8794ab">LENGTH</text>
<text x="1198" y="346" font-size="22" font-weight="700" fill="#eef2fb">3.602 km</text>
<text x="1198" y="390" font-size="13" letter-spacing="2" fill="#8794ab">CORNERS</text>
<text x="1198" y="416" font-size="22" font-weight="700" fill="#eef2fb">10</text>
<text x="1198" y="460" font-size="13" letter-spacing="2" fill="#8794ab">NAMED CORNERS</text>
<text x="1198" y="486" font-size="22" font-weight="700" fill="#eef2fb">10</text>
<text x="1198" y="530" font-size="13" letter-spacing="2" fill="#8794ab">DIRECTION</text>
<text x="1198" y="556" font-size="22" font-weight="700" fill="#eef2fb">Anticlockwise</text>
<text x="1198" y="600" font-size="13" letter-spacing="2" fill="#8794ab">SECTORS</text>
<text x="1198" y="626" font-size="22" font-weight="700" fill="#eef2fb">5</text>
<text x="1198" y="670" font-size="13" letter-spacing="2" fill="#8794ab">COUNTRY</text>
<text x="1198" y="696" font-size="22" font-weight="700" fill="#eef2fb">USA</text>
<text x="1198" y="740" font-size="13" letter-spacing="2" fill="#8794ab">LOCATION</text>
<text x="1198" y="766" font-size="22" font-weight="700" fill="#eef2fb">Monterey, California</text>
<text x="1198" y="810" font-size="13" letter-spacing="2" fill="#8794ab">COMPLEXES</text>
<rect x="1198" y="816" width="118" height="24" rx="12" fill="#ff5a36" fill-opacity="0.16" stroke="#ff5a36" stroke-opacity="0.5"/>
<text x="1257" y="833" font-size="12" fill="#eef2fb" text-anchor="middle">The Corkscrew</text>
<text x="90" y="966" font-size="12" fill="#566177">Geometry © OpenStreetMap contributors (ODbL) · corner data: Lovely-Sim-Racing + curated · track-atlas</text>
<text x="90" y="942" font-size="12" fill="#8794ab">⚑ start / finish</text>
</svg>